<svg xmlns="http://www.w3.org/2000/svg" xmlns:xlink="http://www.w3.org/1999/xlink" id="body_222" preserveAspectRatio="xMinYMin meet" viewBox="0 0 793 1123"><defs><clipPath id="1"><path id="" clip-rule="evenodd" transform="matrix(1 0 0 1 0 0)" d="M0 842L0 0L0 0L595 0L595 0L595 842L595 842L0 842z" /></clipPath><clipPath id="2"><path id="" clip-rule="evenodd" transform="matrix(1 0 0 1 0 0)" d="M215.94 224.04L550.2 224.04L550.2 224.04L550.2 396.36L550.2 396.36L215.94 396.36z" /></clipPath><clipPath id="3"><path id="" clip-rule="evenodd" transform="matrix(1 0 0 1 0 0)" d="M0 0.02001953L595.2 0.02001953L595.2 0.02001953L595.2 842L595.2 842L0 842z" /></clipPath><clipPath id="4"><path id="" clip-rule="evenodd" transform="matrix(1 0 0 1 0 0)" d="M216.96 225.06L549.18 225.06L549.18 225.06L549.18 395.34L549.18 395.34L216.96 395.34z" /></clipPath><clipPath id="5"><path id="" clip-rule="evenodd" transform="matrix(1 0 0 1 0 0)" d="M215.94 224.04L550.2 224.04L550.2 224.04L550.2 396.36L550.2 396.36L215.94 396.36z" /></clipPath><clipPath id="6"><path id="" clip-rule="evenodd" transform="matrix(1 0 0 1 0 0)" d="M0 0.02001953L595.2 0.02001953L595.2 0.02001953L595.2 842L595.2 842L0 842z" /></clipPath><clipPath id="7"><path id="" clip-rule="evenodd" transform="matrix(1 0 0 1 0 0)" d="M35.94 445.32L539.58 445.32L539.58 445.32L539.58 575.52L539.58 575.52L35.94 575.52z" /></clipPath><clipPath id="8"><path id="" clip-rule="evenodd" transform="matrix(1 0 0 1 0 0)" d="M0 0.02001953L595.2 0.02001953L595.2 0.02001953L595.2 842L595.2 842L0 842z" /></clipPath><clipPath id="9"><path id="" clip-rule="evenodd" transform="matrix(1 0 0 1 0 0)" d="M36.96 446.34L538.56 446.34L538.56 446.34L538.56 480.84L538.56 480.84L36.96 480.84z" /></clipPath><clipPath id="10"><path id="" clip-rule="evenodd" transform="matrix(1 0 0 1 0 0)" d="M35.94 445.32L539.58 445.32L539.58 445.32L539.58 575.52L539.58 575.52L35.94 575.52z" /></clipPath><clipPath id="11"><path id="" clip-rule="evenodd" transform="matrix(1 0 0 1 0 0)" d="M0 0.02001953L595.2 0.02001953L595.2 0.02001953L595.2 842L595.2 842L0 842z" /></clipPath><clipPath id="12"><path id="" clip-rule="evenodd" transform="matrix(1 0 0 1 0 0)" d="M35.94 445.32L539.58 445.32L539.58 445.32L539.58 575.52L539.58 575.52L35.94 575.52z" /></clipPath><clipPath id="13"><path id="" clip-rule="evenodd" transform="matrix(1 0 0 1 0 0)" d="M0 0.02001953L595.2 0.02001953L595.2 0.02001953L595.2 842L595.2 842L0 842z" /></clipPath><clipPath id="14"><path id="" clip-rule="evenodd" transform="matrix(1 0 0 1 0 0)" d="M36.96 487.68L292.32 487.68L292.32 487.68L292.32 574.56L292.32 574.56L36.96 574.56z" /></clipPath><clipPath id="15"><path id="" clip-rule="evenodd" transform="matrix(1 0 0 1 0 0)" d="M35.94 445.32L539.58 445.32L539.58 445.32L539.58 575.52L539.58 575.52L35.94 575.52z" /></clipPath><clipPath id="16"><path id="" clip-rule="evenodd" transform="matrix(1 0 0 1 0 0)" d="M0 0.02001953L595.2 0.02001953L595.2 0.02001953L595.2 842L595.2 842L0 842z" /></clipPath><clipPath id="17"><path id="" clip-rule="evenodd" transform="matrix(1 0 0 1 0 0)" d="M35.94 445.32L539.58 445.32L539.58 445.32L539.58 575.52L539.58 575.52L35.94 575.52z" /></clipPath><clipPath id="18"><path id="" clip-rule="evenodd" transform="matrix(1 0 0 1 0 0)" d="M0 0.02001953L595.2 0.02001953L595.2 0.02001953L595.2 842L595.2 842L0 842z" /></clipPath></defs><g transform="matrix(1.333333 0 0 1.333333 0 0)"><g clip-path="url(#1)"><g clip-path="url(#2)"><g clip-path="url(#3)"><path id="689" transform="matrix(1 0 0 -1 0 842)" d="M216.96 616.94L549.18 616.94L549.18 446.66L216.96 446.66" stroke="none" fill="#FFFFFF" fill-rule="nonzero" /></g></g><g clip-path="url(#4)"><g clip-path="url(#5)"><g clip-path="url(#6)"><g transform="matrix(0.4801994 0 0 0.4796619 216.96 225.06)"><g transform="matrix(1 0 0 1 0 0)"><image x="0" y="0" xlink:href="img_541.png" width="692" height="355" /></g></g></g></g></g><g clip-path="url(#7)"><g clip-path="url(#8)"><path id="742" transform="matrix(1 0 0 -1 0 842)" d="M36.96 361.16L538.56 361.16L538.56 395.66L36.96 395.66z" stroke="none" fill="#FFFFFF" fill-rule="nonzero" /></g></g><g clip-path="url(#9)"><g clip-path="url(#10)"><g clip-path="url(#11)"><g transform="matrix(0.4799044 0 0 0.4791667 36.96 446.34)"><g transform="matrix(1 0 0 1 0 0)"><image x="0" y="0" xlink:href="img_542.png" width="1046" height="72" /></g></g></g></g></g><g clip-path="url(#12)"><g clip-path="url(#13)"><path id="744" transform="matrix(1 0 0 -1 0 842)" d="M42.06 393.68L527.28 393.68L527.28 394.7L42.06 394.7z" stroke="none" fill="#FF0000" fill-rule="nonzero" /><path id="745" transform="matrix(1 0 0 -1 0 842)" d="M526.26 385.7L527.28 385.7L527.28 394.22L526.26 394.22z" stroke="none" fill="#FF0000" fill-rule="nonzero" /><path id="746" transform="matrix(1 0 0 -1 0 842)" d="M41.58 385.7L526.74 385.7L526.74 386.72L41.58 386.72z" stroke="none" fill="#FF0000" fill-rule="nonzero" /><path id="747" transform="matrix(1 0 0 -1 0 842)" d="M41.58 386.24L42.6 386.24L42.6 394.7L41.58 394.7z" stroke="none" fill="#FF0000" fill-rule="nonzero" /><path id="748" transform="matrix(1 0 0 -1 0 842)" d="M36.96 267.44L292.32 267.44L292.32 354.32L36.96 354.32z" stroke="none" fill="#FFFFFF" fill-rule="nonzero" /></g></g><g clip-path="url(#14)"><g clip-path="url(#15)"><g clip-path="url(#16)"><g transform="matrix(0.48 0 0 0.48 36.96 487.68)"><g transform="matrix(1 0 0 1 0 0)"><image x="0" y="0" xlink:href="img_543.png" width="532" height="181" /></g></g></g></g></g><g clip-path="url(#17)"><g clip-path="url(#18)"><path id="750" transform="matrix(1 0 0 -1 0 842)" d="M55.98 326.12L275.28 326.12L275.28 327.14L55.98 327.14z" stroke="none" fill="#FF0000" fill-rule="nonzero" /><path id="751" transform="matrix(1 0 0 -1 0 842)" d="M274.26 308L275.28 308L275.28 326.66L274.26 326.66z" stroke="none" fill="#FF0000" fill-rule="nonzero" /><path id="752" transform="matrix(1 0 0 -1 0 842)" d="M55.5 308L274.74 308L274.74 309.02L55.5 309.02z" stroke="none" fill="#FF0000" fill-rule="nonzero" /><path id="753" transform="matrix(1 0 0 -1 0 842)" d="M55.5 308.54L56.52 308.54L56.52 327.14L55.5 327.14z" stroke="none" fill="#FF0000" fill-rule="nonzero" /></g></g></g></g></svg>