<svg xmlns="http://www.w3.org/2000/svg" xmlns:xlink="http://www.w3.org/1999/xlink" id="body_169" preserveAspectRatio="xMinYMin meet" viewBox="0 0 793 1123"><defs><clipPath id="1"><path id="" clip-rule="evenodd" transform="matrix(1 0 0 1 0 0)" d="M0 842L0 0L0 0L595 0L595 0L595 842L595 842L0 842z" /></clipPath><clipPath id="2"><path id="" clip-rule="evenodd" transform="matrix(1 0 0 1 0 0)" d="M380.7 136.68L393.96 136.68L393.96 136.68L393.96 148.56L393.96 148.56L380.7 148.56z" /></clipPath><clipPath id="3"><path id="" clip-rule="evenodd" transform="matrix(1 0 0 1 0 0)" d="M0 0.02001953L595.2 0.02001953L595.2 0.02001953L595.2 842L595.2 842L0 842z" /></clipPath><clipPath id="4"><path id="" clip-rule="evenodd" transform="matrix(1 0 0 1 0 0)" d="M381.72 137.7L393 137.7L393 137.7L393 147.54L393 147.54L381.72 147.54z" /></clipPath><clipPath id="5"><path id="" clip-rule="evenodd" transform="matrix(1 0 0 1 0 0)" d="M380.7 136.68L393.96 136.68L393.96 136.68L393.96 148.56L393.96 148.56L380.7 148.56z" /></clipPath><clipPath id="6"><path id="" clip-rule="evenodd" transform="matrix(1 0 0 1 0 0)" d="M0 0.02001953L595.2 0.02001953L595.2 0.02001953L595.2 842L595.2 842L0 842z" /></clipPath><clipPath id="7"><path id="" clip-rule="evenodd" transform="matrix(1 0 0 1 0 0)" d="M35.94 394.02L550.38 394.02L550.38 394.02L550.38 682.38L550.38 682.38L35.94 682.38z" /></clipPath><clipPath id="8"><path id="" clip-rule="evenodd" transform="matrix(1 0 0 1 0 0)" d="M0 0.02001953L595.2 0.02001953L595.2 0.02001953L595.2 842L595.2 842L0 842z" /></clipPath><clipPath id="9"><path id="" clip-rule="evenodd" transform="matrix(1 0 0 1 0 0)" d="M36.96 395.04L549.42 395.04L549.42 395.04L549.42 681.42L549.42 681.42L36.96 681.42z" /></clipPath><clipPath id="10"><path id="" clip-rule="evenodd" transform="matrix(1 0 0 1 0 0)" d="M35.94 394.02L550.38 394.02L550.38 394.02L550.38 682.38L550.38 682.38L35.94 682.38z" /></clipPath><clipPath id="11"><path id="" clip-rule="evenodd" transform="matrix(1 0 0 1 0 0)" d="M0 0.02001953L595.2 0.02001953L595.2 0.02001953L595.2 842L595.2 842L0 842z" /></clipPath><clipPath id="12"><path id="" clip-rule="evenodd" transform="matrix(1 0 0 1 0 0)" d="M35.94 394.02L550.38 394.02L550.38 394.02L550.38 682.38L550.38 682.38L35.94 682.38z" /></clipPath><clipPath id="13"><path id="" clip-rule="evenodd" transform="matrix(1 0 0 1 0 0)" d="M0 0.02001953L595.2 0.02001953L595.2 0.02001953L595.2 842L595.2 842L0 842z" /></clipPath></defs><g transform="matrix(1.333333 0 0 1.333333 0 0)"><g clip-path="url(#1)"><g clip-path="url(#2)"><g clip-path="url(#3)"><path id="803" transform="matrix(1 0 0 -1 0 842)" d="M381.72 694.46L393 694.46L393 704.3L381.72 704.3z" stroke="none" fill="#FFFFFF" fill-rule="nonzero" /></g></g><g clip-path="url(#4)"><g clip-path="url(#5)"><g clip-path="url(#6)"><g transform="matrix(0.48 0 0 0.4685715 381.72 137.7)"><g transform="matrix(1 0 0 1 0 0)"><image x="0" y="0" xlink:href="img_419.png" width="24" height="21" /></g></g></g></g></g><g clip-path="url(#7)"><g clip-path="url(#8)"><path id="836" transform="matrix(1 0 0 -1 0 842)" d="M36.96 160.58L549.42 160.58L549.42 446.96L36.96 446.96z" stroke="none" fill="#FFFFFF" fill-rule="nonzero" /></g></g><g clip-path="url(#9)"><g clip-path="url(#10)"><g clip-path="url(#11)"><g transform="matrix(0.4799522 0 0 0.4796985 36.96 395.04)"><g transform="matrix(1 0 0 1 0 0)"><image x="0" y="0" xlink:href="img_420.png" width="1068" height="597" /></g></g></g></g></g><g clip-path="url(#12)"><g clip-path="url(#13)"><path id="838" transform="matrix(1 0 0 -1 0 842)" d="M59.16 372.86L58.38 372.8L58.38 372.8L58.44 372.8L58.44 372.8L57.72 372.68L57.72 372.68L57.72 372.74L57.72 372.74L57.06 372.56L57.06 372.56L57.12 372.56L57.12 372.56L56.46 372.32L56.46 372.32L56.52 372.32L56.52 372.32L55.86 372.02L55.86 372.02L55.92 372.08L55.92 372.08L55.38 371.72L55.38 371.72L54.78 371.3L54.78 371.3L54.84 371.3L54.84 371.3L54.36 370.88L54.36 370.88L54.42 370.94L54.42 370.94L53.94 370.4L53.94 370.4L53.94 370.46L53.94 370.46L53.52 369.92L53.52 369.92L53.58 369.92L53.58 369.92L53.22 369.32L53.22 369.32L53.22 369.38L53.22 369.38L52.92 368.78L52.92 368.78L52.92 368.84L52.92 368.84L52.68 368.12L52.68 368.12L52.68 368.18L52.68 368.18L52.5 367.52L52.5 367.52L52.56 367.52L52.56 367.52L52.44 366.8L52.44 366.8L52.44 366.92L52.44 366.92L52.44 355.46L52.44 355.46L52.44 355.52L52.44 355.52L52.56 354.8L52.56 354.8L52.5 354.86L52.5 354.86L52.68 354.2L52.68 354.2L52.68 354.26L52.68 354.26L52.92 353.6L52.92 353.6L53.22 352.94L53.22 352.94L53.22 353L53.22 353L53.58 352.4L53.58 352.4L53.52 352.46L53.52 352.46L53.94 351.92L53.94 351.92L53.88 351.98L53.88 351.98L54.84 351.02L54.84 351.02L54.78 351.08L54.78 351.08L55.38 350.66L55.38 350.66L55.92 350.3L55.92 350.3L55.86 350.3L55.86 350.3L56.52 350L56.52 350L56.46 350.06L56.46 350.06L57.12 349.82L57.12 349.82L57.06 349.82L57.06 349.82L57.72 349.64L57.72 349.64L58.44 349.52L58.44 349.52L58.32 349.52L58.32 349.52L163.38 349.52L163.38 349.52L163.32 349.52L163.32 349.52L164.04 349.64L164.04 349.64L163.98 349.64L163.98 349.64L164.7 349.82L164.7 349.82L164.64 349.82L164.64 349.82L165.3 350.06L165.3 350.06L165.24 350L165.24 350L165.84 350.3L165.84 350.3L166.38 349.4L166.38 349.4L166.32 349.4L166.32 349.4L165.72 349.1L165.72 349.1L165.66 349.1L165.66 349.1L165 348.86L165 348.86L164.94 348.86L164.94 348.86L164.22 348.68L164.22 348.68L164.22 348.62L164.22 348.62L163.5 348.5L163.5 348.5L58.26 348.5L58.26 348.5L57.54 348.62L57.54 348.62L57.48 348.68L57.48 348.68L56.82 348.86L56.82 348.86L56.76 348.86L56.76 348.86L56.1 349.1L56.1 349.1L55.44 349.4L55.44 349.4L55.38 349.46L55.38 349.46L54.84 349.82L54.84 349.82L54.78 349.82L54.78 349.82L54.18 350.24L54.18 350.24L53.16 351.26L53.16 351.26L53.16 351.32L53.16 351.32L52.74 351.86L52.74 351.86L52.68 351.86L52.68 351.86L52.32 352.46L52.32 352.46L52.32 352.52L52.32 352.52L52.02 353.18L52.02 353.18L51.96 353.24L51.96 353.24L51.72 353.9L51.72 353.9L51.72 353.96L51.72 353.96L51.54 354.62L51.54 354.62L51.42 355.34L51.42 355.34L51.42 366.98C 51.632 368.836 52.376 370.344 53.7 371.66L53.7 371.66L54.18 372.08L54.18 372.08L54.18 372.14L54.18 372.14L54.78 372.56L54.78 372.56L54.84 372.56L54.84 372.56L55.38 372.92L55.38 372.92L55.44 372.92L55.44 372.92L56.1 373.22L56.1 373.22L56.1 373.28L56.1 373.28L56.76 373.52L56.76 373.52L56.82 373.52L56.82 373.52L57.48 373.7L57.48 373.7L57.54 373.7L57.54 373.7L58.26 373.82L58.26 373.82L58.32 373.82L58.32 373.82L59.1 373.88" stroke="none" fill="#FF0000" fill-rule="nonzero" /><path id="839" transform="matrix(1 0 0 -1 0 842)" d="M165.84 350.3L166.44 350.66L166.44 350.66L166.38 350.66L166.38 350.66L166.98 351.08L166.98 351.08L166.92 351.02L166.92 351.02L167.88 351.98L167.88 351.98L167.88 351.92L167.88 351.92L168.3 352.46L168.3 352.46L168.24 352.4L168.24 352.4L168.6 353L168.6 353L168.6 352.94L168.6 352.94L168.9 353.6L168.9 353.6L168.84 353.6L168.84 353.6L169.08 354.26L169.08 354.26L169.08 354.2L169.08 354.2L169.26 354.86L169.26 354.86L169.26 354.8L169.26 354.8L169.38 355.52L169.38 355.52L169.38 355.46L169.38 355.46L169.38 366.92L169.38 366.92L169.38 366.8L169.38 366.8L169.26 367.52L169.26 367.52L169.08 368.18L169.08 368.18L169.08 368.12L169.08 368.12L168.84 368.84L168.84 368.84L168.9 368.78L168.9 368.78L168.6 369.38L168.6 369.38L168.6 369.32L168.6 369.32L168.24 369.92L168.24 369.92L168.3 369.92L168.3 369.92L167.88 370.46L167.88 370.46L167.88 370.4L167.88 370.4L167.4 370.94L167.4 370.94L167.46 370.88L167.46 370.88L166.98 371.3L166.98 371.3L166.38 371.72L166.38 371.72L166.44 371.66L166.44 371.66L165.84 372.02L165.84 372.02L165.24 372.32L165.24 372.32L165.3 372.32L165.3 372.32L164.64 372.56L164.64 372.56L164.7 372.56L164.7 372.56L163.98 372.74L163.98 372.74L164.04 372.68L164.04 372.68L163.32 372.8L163.32 372.8L163.38 372.8L163.38 372.8L162.66 372.86L162.66 372.86L59.1 372.86L59.1 372.86L59.16 372.86L59.16 372.86L59.1 373.88L59.1 373.88L162.66 373.88C 164.692 373.852 166.649 373.055 168.12 371.66L168.12 371.66L168.18 371.6L168.18 371.6L168.66 371.06L168.66 371.06L169.08 370.52C 169.569 369.905 169.844 369.17 170.04 368.42L170.04 368.42L170.22 367.76L170.22 367.76L170.28 367.7C 170.807 364.195 170.104 359.764 170.4 356.24L170.4 356.24L170.4 355.34L170.4 355.34L170.28 354.62L170.28 354.62L170.22 354.62L170.22 354.62L170.04 353.96L170.04 353.96L170.04 353.9L170.04 353.9L169.8 353.24L169.8 353.24L169.8 353.18L169.8 353.18L169.5 352.52L169.5 352.52L169.5 352.46L169.5 352.46L169.14 351.86L169.14 351.86L169.08 351.86C 168.677 351.236 168.084 350.784 167.58 350.24L167.58 350.24L166.98 349.82L166.98 349.82L166.98 349.76L166.98 349.76L166.38 349.4" stroke="none" fill="#FF0000" fill-rule="nonzero" /></g></g></g></g></svg>