<svg xmlns="http://www.w3.org/2000/svg" xmlns:xlink="http://www.w3.org/1999/xlink" id="body_109" preserveAspectRatio="xMinYMin meet" viewBox="0 0 793 1123"><defs><clipPath id="1"><path id="" clip-rule="evenodd" transform="matrix(1 0 0 1 0 0)" d="M0 842L0 0L0 0L595 0L595 0L595 842L595 842L0 842z" /></clipPath></defs><g transform="matrix(1.333333 0 0 1.333333 0 0)"><g clip-path="url(#1)"><path id="1738" transform="matrix(1 0 0 -1 0 842)" d="M44.94 751.94L181.44 751.94L181.44 769.94L44.94 769.94z" stroke="none" fill="#C4DFF7" fill-rule="nonzero" /><path id="1748" transform="matrix(1 0 0 -1 0 842)" d="M181.44 769.94L558 769.94L558 751.94L181.44 751.94" stroke="none" fill="#C4DFF7" fill-rule="nonzero" /><path id="1760" transform="matrix(1 0 0 -1 0 842)" d="M44.94 343.7L558 343.7L558 344.18L44.94 344.18z" stroke="none" fill="#000000" fill-rule="nonzero" /><path id="1761" transform="matrix(1 0 0 -1 0 842)" d="M44.94 281.18L558 281.18L558 282.68L44.94 282.68z" stroke="none" fill="#000000" fill-rule="nonzero" /></g></g></svg>