<svg xmlns="http://www.w3.org/2000/svg" xmlns:xlink="http://www.w3.org/1999/xlink" id="body_77" preserveAspectRatio="xMinYMin meet" viewBox="0 0 793 1123"><defs><clipPath id="1"><path id="" clip-rule="evenodd" transform="matrix(1 0 0 1 0 0)" d="M0 842L0 0L0 0L595 0L595 0L595 842L595 842L0 842z" /></clipPath><clipPath id="2"><path id="" clip-rule="evenodd" transform="matrix(1 0 0 1 0 0)" d="M224.94 411.06L384.18 411.06L384.18 411.06L384.18 551.52L384.18 551.52L224.94 551.52z" /></clipPath><clipPath id="3"><path id="" clip-rule="evenodd" transform="matrix(1 0 0 1 0 0)" d="M0 0.02001953L595.2 0.02001953L595.2 0.02001953L595.2 842L595.2 842L0 842z" /></clipPath><clipPath id="4"><path id="" clip-rule="evenodd" transform="matrix(1 0 0 1 0 0)" d="M225.96 412.02L383.16 412.02L383.16 412.02L383.16 550.5L383.16 550.5L225.96 550.5z" /></clipPath><clipPath id="5"><path id="" clip-rule="evenodd" transform="matrix(1 0 0 1 0 0)" d="M224.94 411.06L384.18 411.06L384.18 411.06L384.18 551.52L384.18 551.52L224.94 551.52z" /></clipPath><clipPath id="6"><path id="" clip-rule="evenodd" transform="matrix(1 0 0 1 0 0)" d="M0 0.02001953L595.2 0.02001953L595.2 0.02001953L595.2 842L595.2 842L0 842z" /></clipPath><clipPath id="7"><path id="" clip-rule="evenodd" transform="matrix(1 0 0 1 0 0)" d="M224.94 599.52L384.18 599.52L384.18 599.52L384.18 740.04L384.18 740.04L224.94 740.04z" /></clipPath><clipPath id="8"><path id="" clip-rule="evenodd" transform="matrix(1 0 0 1 0 0)" d="M0 0.02001953L595.2 0.02001953L595.2 0.02001953L595.2 842L595.2 842L0 842z" /></clipPath><clipPath id="9"><path id="" clip-rule="evenodd" transform="matrix(1 0 0 1 0 0)" d="M225.96 600.54L383.16 600.54L383.16 600.54L383.16 739.02L383.16 739.02L225.96 739.02z" /></clipPath><clipPath id="10"><path id="" clip-rule="evenodd" transform="matrix(1 0 0 1 0 0)" d="M224.94 599.52L384.18 599.52L384.18 599.52L384.18 740.04L384.18 740.04L224.94 740.04z" /></clipPath><clipPath id="11"><path id="" clip-rule="evenodd" transform="matrix(1 0 0 1 0 0)" d="M0 0.02001953L595.2 0.02001953L595.2 0.02001953L595.2 842L595.2 842L0 842z" /></clipPath></defs><g transform="matrix(1.333333 0 0 1.333333 0 0)"><g clip-path="url(#1)"><path id="791" transform="matrix(1 0 0 -1 0 842)" d="M224.94 751.94L307.32 751.94L307.32 769.94L224.94 769.94z" stroke="none" fill="#C4DFF7" fill-rule="nonzero" /><path id="801" transform="matrix(1 0 0 -1 0 842)" d="M307.32 751.94L558 751.94L558 769.94L307.32 769.94z" stroke="none" fill="#C4DFF7" fill-rule="nonzero" /><path id="813" transform="matrix(1 0 0 -1 0 842)" d="M224.94 717.74L558 717.74L558 718.22L224.94 718.22z" stroke="none" fill="#000000" fill-rule="nonzero" /><path id="814" transform="matrix(1 0 0 -1 0 842)" d="M224.94 683.72L558 683.72L558 684.2L224.94 684.2z" stroke="none" fill="#000000" fill-rule="nonzero" /><path id="815" transform="matrix(1 0 0 -1 0 842)" d="M224.94 649.7L558 649.7L558 650.18L224.94 650.18z" stroke="none" fill="#000000" fill-rule="nonzero" /><path id="816" transform="matrix(1 0 0 -1 0 842)" d="M224.94 615.2L558 615.2L558 616.7L224.94 616.7z" stroke="none" fill="#000000" fill-rule="nonzero" /><g clip-path="url(#2)"><g clip-path="url(#3)"><path id="940" transform="matrix(1 0 0 -1 0 842)" d="M225.96 291.5L383.16 291.5L383.16 429.98L225.96 429.98z" stroke="none" fill="#FFFFFF" fill-rule="nonzero" /></g></g><g clip-path="url(#4)"><g clip-path="url(#5)"><g clip-path="url(#6)"><g transform="matrix(0.48 0 0 0.4791695 225.96 412.02)"><g transform="matrix(1 0 0 1 0 0)"><image x="0" y="0" xlink:href="img_188.png" width="328" height="289" /></g></g></g></g></g><g clip-path="url(#7)"><g clip-path="url(#8)"><path id="942" transform="matrix(1 0 0 -1 0 842)" d="M225.96 102.98L383.16 102.98L383.16 241.46L225.96 241.46z" stroke="none" fill="#FFFFFF" fill-rule="nonzero" /></g></g><g clip-path="url(#9)"><g clip-path="url(#10)"><g clip-path="url(#11)"><g transform="matrix(0.48 0 0 0.4791695 225.96 600.54)"><g transform="matrix(1 0 0 1 0 0)"><image x="0" y="0" xlink:href="img_189.png" width="328" height="289" /></g></g></g></g></g></g></g></svg>