<svg xmlns="http://www.w3.org/2000/svg" xmlns:xlink="http://www.w3.org/1999/xlink" id="body_43" preserveAspectRatio="xMinYMin meet" viewBox="0 0 793 1123"><defs><clipPath id="1"><path id="" clip-rule="evenodd" transform="matrix(1 0 0 1 0 0)" d="M0 842L0 0L0 0L595 0L595 0L595 842L595 842L0 842z" /></clipPath><clipPath id="2"><path id="" clip-rule="evenodd" transform="matrix(1 0 0 1 0 0)" d="M44.94 96.06L63.54 96.06L63.54 96.06L63.54 113.88L63.54 113.88L44.94 113.88z" /></clipPath><clipPath id="3"><path id="" clip-rule="evenodd" transform="matrix(1 0 0 1 0 0)" d="M0 0.02001953L595.2 0.02001953L595.2 0.02001953L595.2 842L595.2 842L0 842z" /></clipPath><clipPath id="4"><path id="" clip-rule="evenodd" transform="matrix(1 0 0 1 0 0)" d="M45.96 97.02002L62.52 97.02002L62.52 97.02002L62.52 112.86L62.52 112.86L45.96 112.86z" /></clipPath><clipPath id="5"><path id="" clip-rule="evenodd" transform="matrix(1 0 0 1 0 0)" d="M44.94 96.06L63.54 96.06L63.54 96.06L63.54 113.88L63.54 113.88L44.94 113.88z" /></clipPath><clipPath id="6"><path id="" clip-rule="evenodd" transform="matrix(1 0 0 1 0 0)" d="M0 0.02001953L595.2 0.02001953L595.2 0.02001953L595.2 842L595.2 842L0 842z" /></clipPath><clipPath id="7"><path id="" clip-rule="evenodd" transform="matrix(1 0 0 1 0 0)" d="M44.94 192.06L63.54 192.06L63.54 192.06L63.54 209.88L63.54 209.88L44.94 209.88z" /></clipPath><clipPath id="8"><path id="" clip-rule="evenodd" transform="matrix(1 0 0 1 0 0)" d="M0 0.02001953L595.2 0.02001953L595.2 0.02001953L595.2 842L595.2 842L0 842z" /></clipPath><clipPath id="9"><path id="" clip-rule="evenodd" transform="matrix(1 0 0 1 0 0)" d="M45.96 193.02L62.52 193.02L62.52 193.02L62.52 208.86L62.52 208.86L45.96 208.86z" /></clipPath><clipPath id="10"><path id="" clip-rule="evenodd" transform="matrix(1 0 0 1 0 0)" d="M44.94 192.06L63.54 192.06L63.54 192.06L63.54 209.88L63.54 209.88L44.94 209.88z" /></clipPath><clipPath id="11"><path id="" clip-rule="evenodd" transform="matrix(1 0 0 1 0 0)" d="M0 0.02001953L595.2 0.02001953L595.2 0.02001953L595.2 842L595.2 842L0 842z" /></clipPath><clipPath id="12"><path id="" clip-rule="evenodd" transform="matrix(1 0 0 1 0 0)" d="M44.94 226.02L63.54 226.02L63.54 226.02L63.54 243.9L63.54 243.9L44.94 243.9z" /></clipPath><clipPath id="13"><path id="" clip-rule="evenodd" transform="matrix(1 0 0 1 0 0)" d="M0 0.02001953L595.2 0.02001953L595.2 0.02001953L595.2 842L595.2 842L0 842z" /></clipPath><clipPath id="14"><path id="" clip-rule="evenodd" transform="matrix(1 0 0 1 0 0)" d="M45.96 227.04L62.52 227.04L62.52 227.04L62.52 242.88L62.52 242.88L45.96 242.88z" /></clipPath><clipPath id="15"><path id="" clip-rule="evenodd" transform="matrix(1 0 0 1 0 0)" d="M44.94 226.02L63.54 226.02L63.54 226.02L63.54 243.9L63.54 243.9L44.94 243.9z" /></clipPath><clipPath id="16"><path id="" clip-rule="evenodd" transform="matrix(1 0 0 1 0 0)" d="M0 0.02001953L595.2 0.02001953L595.2 0.02001953L595.2 842L595.2 842L0 842z" /></clipPath><clipPath id="17"><path id="" clip-rule="evenodd" transform="matrix(1 0 0 1 0 0)" d="M44.94 260.04L63.54 260.04L63.54 260.04L63.54 277.92L63.54 277.92L44.94 277.92z" /></clipPath><clipPath id="18"><path id="" clip-rule="evenodd" transform="matrix(1 0 0 1 0 0)" d="M0 0.02001953L595.2 0.02001953L595.2 0.02001953L595.2 842L595.2 842L0 842z" /></clipPath><clipPath id="19"><path id="" clip-rule="evenodd" transform="matrix(1 0 0 1 0 0)" d="M45.96 261.06L62.52 261.06L62.52 261.06L62.52 276.9L62.52 276.9L45.96 276.9z" /></clipPath><clipPath id="20"><path id="" clip-rule="evenodd" transform="matrix(1 0 0 1 0 0)" d="M44.94 260.04L63.54 260.04L63.54 260.04L63.54 277.92L63.54 277.92L44.94 277.92z" /></clipPath><clipPath id="21"><path id="" clip-rule="evenodd" transform="matrix(1 0 0 1 0 0)" d="M0 0.02001953L595.2 0.02001953L595.2 0.02001953L595.2 842L595.2 842L0 842z" /></clipPath><clipPath id="22"><path id="" clip-rule="evenodd" transform="matrix(1 0 0 1 0 0)" d="M352.02 547.38L362.16 547.38L362.16 547.38L362.16 556.8L362.16 556.8L352.02 556.8z" /></clipPath><clipPath id="23"><path id="" clip-rule="evenodd" transform="matrix(1 0 0 1 0 0)" d="M0 0.02001953L595.2 0.02001953L595.2 0.02001953L595.2 842L595.2 842L0 842z" /></clipPath><clipPath id="24"><path id="" clip-rule="evenodd" transform="matrix(1 0 0 1 0 0)" d="M352.98 548.34L361.14 548.34L361.14 548.34L361.14 555.78L361.14 555.78L352.98 555.78z" /></clipPath><clipPath id="25"><path id="" clip-rule="evenodd" transform="matrix(1 0 0 1 0 0)" d="M352.02 547.38L362.16 547.38L362.16 547.38L362.16 556.8L362.16 556.8L352.02 556.8z" /></clipPath><clipPath id="26"><path id="" clip-rule="evenodd" transform="matrix(1 0 0 1 0 0)" d="M0 0.02001953L595.2 0.02001953L595.2 0.02001953L595.2 842L595.2 842L0 842z" /></clipPath></defs><g transform="matrix(1.333333 0 0 1.333333 0 0)"><g clip-path="url(#1)"><path id="996" transform="matrix(1 0 0 -1 0 842)" d="M44.94 751.94L223.8 751.94L223.8 769.94L44.94 769.94z" stroke="none" fill="#C4DFF7" fill-rule="nonzero" /><path id="1004" transform="matrix(1 0 0 -1 0 842)" d="M223.8 769.94L558 769.94L558 751.94L223.8 751.94" stroke="none" fill="#C4DFF7" fill-rule="nonzero" /><path id="1016" transform="matrix(1 0 0 -1 0 842)" d="M44.94 655.7L558 655.7L558 656.18L44.94 656.18z" stroke="none" fill="#000000" fill-rule="nonzero" /><path id="1017" transform="matrix(1 0 0 -1 0 842)" d="M44.94 621.74L558 621.74L558 622.22L44.94 622.22z" stroke="none" fill="#000000" fill-rule="nonzero" /><path id="1018" transform="matrix(1 0 0 -1 0 842)" d="M44.94 587.72L558 587.72L558 588.2L44.94 588.2z" stroke="none" fill="#000000" fill-rule="nonzero" /><path id="1019" transform="matrix(1 0 0 -1 0 842)" d="M44.94 553.7L558 553.7L558 554.18L44.94 554.18z" stroke="none" fill="#000000" fill-rule="nonzero" /><path id="1020" transform="matrix(1 0 0 -1 0 842)" d="M44.94 429.2L558 429.2L558 430.7L44.94 430.7z" stroke="none" fill="#000000" fill-rule="nonzero" /><g clip-path="url(#2)"><g clip-path="url(#3)"><path id="1021" transform="matrix(1 0 0 -1 0 842)" d="M45.96 729.14L62.52 729.14L62.52 744.98L45.96 744.98z" stroke="none" fill="#FFFFFF" fill-rule="nonzero" /></g></g><g clip-path="url(#4)"><g clip-path="url(#5)"><g clip-path="url(#6)"><g transform="matrix(0.48 0 0 0.48 45.96 97.01996)"><g transform="matrix(1 0 0 1 0 0)"><image x="0" y="0" xlink:href="img_98.png" width="35" height="33" /></g></g></g></g></g><g clip-path="url(#7)"><g clip-path="url(#8)"><path id="1023" transform="matrix(1 0 0 -1 0 842)" d="M45.96 633.14L62.52 633.14L62.52 648.98L45.96 648.98z" stroke="none" fill="#FFFFFF" fill-rule="nonzero" /></g></g><g clip-path="url(#9)"><g clip-path="url(#10)"><g clip-path="url(#11)"><g transform="matrix(0.48 0 0 0.48 45.96 193.02)"><g transform="matrix(1 0 0 1 0 0)"><image x="0" y="0" xlink:href="img_99.png" width="35" height="33" /></g></g></g></g></g><g clip-path="url(#12)"><g clip-path="url(#13)"><path id="1025" transform="matrix(1 0 0 -1 0 842)" d="M45.96 599.12L62.52 599.12L62.52 614.96L45.96 614.96z" stroke="none" fill="#FFFFFF" fill-rule="nonzero" /></g></g><g clip-path="url(#14)"><g clip-path="url(#15)"><g clip-path="url(#16)"><g transform="matrix(0.48 0 0 0.48 45.96 227.04)"><g transform="matrix(1 0 0 1 0 0)"><image x="0" y="0" xlink:href="img_100.png" width="35" height="33" /></g></g></g></g></g><g clip-path="url(#17)"><g clip-path="url(#18)"><path id="1027" transform="matrix(1 0 0 -1 0 842)" d="M45.96 565.1L62.52 565.1L62.52 580.94L45.96 580.94z" stroke="none" fill="#FFFFFF" fill-rule="nonzero" /></g></g><g clip-path="url(#19)"><g clip-path="url(#20)"><g clip-path="url(#21)"><g transform="matrix(0.48 0 0 0.48 45.96 261.06)"><g transform="matrix(1 0 0 1 0 0)"><image x="0" y="0" xlink:href="img_101.png" width="35" height="33" /></g></g></g></g></g><path id="1029" transform="matrix(1 0 0 -1 0 842)" d="M44.94 325.94L208.2 325.94L208.2 343.94L44.94 343.94z" stroke="none" fill="#C4DFF7" fill-rule="nonzero" /><path id="1037" transform="matrix(1 0 0 -1 0 842)" d="M208.2 325.94L558 325.94L558 343.94L208.2 343.94z" stroke="none" fill="#C4DFF7" fill-rule="nonzero" /><path id="1456" transform="matrix(1 0 0 -1 0 842)" d="M44.94 225.68L558 225.68L558 226.16L44.94 226.16z" stroke="none" fill="#000000" fill-rule="nonzero" /><path id="1457" transform="matrix(1 0 0 -1 0 842)" d="M44.94 191.18L558 191.18L558 192.68L44.94 192.68z" stroke="none" fill="#000000" fill-rule="nonzero" /><g clip-path="url(#22)"><g clip-path="url(#23)"><path id="1458" transform="matrix(1 0 0 -1 0 842)" d="M352.98 286.22L361.14 286.22L361.14 293.66L352.98 293.66z" stroke="none" fill="#FFFFFF" fill-rule="nonzero" /></g></g><g clip-path="url(#24)"><g clip-path="url(#25)"><g clip-path="url(#26)"><g transform="matrix(0.48 0 0 0.465 352.98 548.34)"><g transform="matrix(1 0 0 1 0 0)"><image x="0" y="0" xlink:href="img_102.png" width="17" height="16" /></g></g></g></g></g></g></g></svg>