<svg xmlns="http://www.w3.org/2000/svg" xmlns:xlink="http://www.w3.org/1999/xlink" id="body_69" preserveAspectRatio="xMinYMin meet" viewBox="0 0 793 1123"><defs><clipPath id="1"><path id="" clip-rule="evenodd" transform="matrix(1 0 0 1 0 0)" d="M0 842L0 0L0 0L595 0L595 0L595 842L595 842L0 842z" /></clipPath><clipPath id="2"><path id="" clip-rule="evenodd" transform="matrix(1 0 0 1 0 0)" d="M224.94 158.04L444.9 158.04L444.9 158.04L444.9 270.18L444.9 270.18L224.94 270.18z" /></clipPath><clipPath id="3"><path id="" clip-rule="evenodd" transform="matrix(1 0 0 1 0 0)" d="M0 0.02001953L595.2 0.02001953L595.2 0.02001953L595.2 842L595.2 842L0 842z" /></clipPath><clipPath id="4"><path id="" clip-rule="evenodd" transform="matrix(1 0 0 1 0 0)" d="M225.96 159.06L443.88 159.06L443.88 159.06L443.88 269.22L443.88 269.22L225.96 269.22z" /></clipPath><clipPath id="5"><path id="" clip-rule="evenodd" transform="matrix(1 0 0 1 0 0)" d="M224.94 158.04L444.9 158.04L444.9 158.04L444.9 270.18L444.9 270.18L224.94 270.18z" /></clipPath><clipPath id="6"><path id="" clip-rule="evenodd" transform="matrix(1 0 0 1 0 0)" d="M0 0.02001953L595.2 0.02001953L595.2 0.02001953L595.2 842L595.2 842L0 842z" /></clipPath></defs><g transform="matrix(1.333333 0 0 1.333333 0 0)"><g clip-path="url(#1)"><path id="546" transform="matrix(1 0 0 -1 0 842)" d="M224.94 465.8L307.32 465.8L307.32 483.8L224.94 483.8z" stroke="none" fill="#C4DFF7" fill-rule="nonzero" /><path id="556" transform="matrix(1 0 0 -1 0 842)" d="M307.32 465.8L558 465.8L558 483.8L307.32 483.8z" stroke="none" fill="#C4DFF7" fill-rule="nonzero" /><path id="740" transform="matrix(1 0 0 -1 0 842)" d="M224.94 431.54L558 431.54L558 432.02L224.94 432.02z" stroke="none" fill="#000000" fill-rule="nonzero" /><path id="741" transform="matrix(1 0 0 -1 0 842)" d="M224.94 411.56L558 411.56L558 412.04L224.94 412.04z" stroke="none" fill="#000000" fill-rule="nonzero" /><path id="742" transform="matrix(1 0 0 -1 0 842)" d="M224.94 377L558 377L558 378.5L224.94 378.5z" stroke="none" fill="#000000" fill-rule="nonzero" /><g clip-path="url(#2)"><g clip-path="url(#3)"><path id="743" transform="matrix(1 0 0 -1 0 842)" d="M225.96 572.78L443.88 572.78L443.88 682.9401L225.96 682.9401z" stroke="none" fill="#FFFFFF" fill-rule="nonzero" /></g></g><g clip-path="url(#4)"><g clip-path="url(#5)"><g clip-path="url(#6)"><g transform="matrix(0.48 0 0 0.4789565 225.96 159.0599)"><g transform="matrix(1 0 0 1 0 0)"><image x="0" y="0" xlink:href="img_161.png" width="454" height="230" /></g></g></g></g></g></g></g></svg>