<svg xmlns="http://www.w3.org/2000/svg" xmlns:xlink="http://www.w3.org/1999/xlink" id="body_72" preserveAspectRatio="xMinYMin meet" viewBox="0 0 793 1123"><defs><clipPath id="1"><path id="" clip-rule="evenodd" transform="matrix(1 0 0 1 0 0)" d="M0 842L0 0L0 0L595 0L595 0L595 842L595 842L0 842z" /></clipPath></defs><g transform="matrix(1.333333 0 0 1.333333 0 0)"><g clip-path="url(#1)"><path id="939" transform="matrix(1 0 0 -1 0 842)" d="M35.94 751.94L114.06 751.94L114.06 769.94L35.94 769.94z" stroke="none" fill="#C5E0F7" fill-rule="nonzero" /><path id="949" transform="matrix(1 0 0 -1 0 842)" d="M114.06 751.94L549 751.94L549 769.94L114.06 769.94z" stroke="none" fill="#C5E0F7" fill-rule="nonzero" /><path id="961" transform="matrix(1 0 0 -1 0 842)" d="M35.94 731.72L549 731.72L549 732.2L35.94 732.2z" stroke="none" fill="#000000" fill-rule="nonzero" /><path id="962" transform="matrix(1 0 0 -1 0 842)" d="M35.94 533.72L549 533.72L549 534.2L35.94 534.2z" stroke="none" fill="#000000" fill-rule="nonzero" /><path id="963" transform="matrix(1 0 0 -1 0 842)" d="M35.94 515.72L549 515.72L549 516.2L35.94 516.2z" stroke="none" fill="#000000" fill-rule="nonzero" /><path id="964" transform="matrix(1 0 0 -1 0 842)" d="M35.94 481.7L549 481.7L549 482.18L35.94 482.18z" stroke="none" fill="#000000" fill-rule="nonzero" /><path id="965" transform="matrix(1 0 0 -1 0 842)" d="M35.94 461.18L549 461.18L549 462.68L35.94 462.68z" stroke="none" fill="#000000" fill-rule="nonzero" /></g></g></svg>