<svg xmlns="http://www.w3.org/2000/svg" xmlns:xlink="http://www.w3.org/1999/xlink" id="body_250" preserveAspectRatio="xMinYMin meet" viewBox="0 0 793 1123"><defs><clipPath id="1"><path id="" clip-rule="evenodd" transform="matrix(1 0 0 1 0 0)" d="M0 842L0 0L0 0L595 0L595 0L595 842L595 842L0 842z" /></clipPath></defs><g transform="matrix(1.333333 0 0 1.333333 0 0)"><g clip-path="url(#1)"><path id="1833" transform="matrix(1 0 0 -1 0 842)" d="M44.94 620.96L64.68 620.96L64.68 638.96L44.94 638.96z" stroke="none" fill="#C4DFF7" fill-rule="nonzero" /><path id="1835" transform="matrix(1 0 0 -1 0 842)" d="M64.68 620.96L84.42 620.96L84.42 638.96L64.68 638.96z" stroke="none" fill="#C4DFF7" fill-rule="nonzero" /><path id="1837" transform="matrix(1 0 0 -1 0 842)" d="M84.42 620.96L104.16 620.96L104.16 638.96L84.42 638.96z" stroke="none" fill="#C4DFF7" fill-rule="nonzero" /><path id="1839" transform="matrix(1 0 0 -1 0 842)" d="M104.16 620.96L123.9 620.96L123.9 638.96L104.16 638.96z" stroke="none" fill="#C4DFF7" fill-rule="nonzero" /><path id="1841" transform="matrix(1 0 0 -1 0 842)" d="M123.9 620.96L143.58 620.96L143.58 638.96L123.9 638.96z" stroke="none" fill="#C4DFF7" fill-rule="nonzero" /><path id="1843" transform="matrix(1 0 0 -1 0 842)" d="M143.58 620.96L163.32 620.96L163.32 638.96L143.58 638.96z" stroke="none" fill="#C4DFF7" fill-rule="nonzero" /><path id="1845" transform="matrix(1 0 0 -1 0 842)" d="M163.32 620.96L183.06 620.96L183.06 638.96L163.32 638.96z" stroke="none" fill="#C4DFF7" fill-rule="nonzero" /><path id="1847" transform="matrix(1 0 0 -1 0 842)" d="M183.06 620.96L202.8 620.96L202.8 638.96L183.06 638.96z" stroke="none" fill="#C4DFF7" fill-rule="nonzero" /><path id="1849" transform="matrix(1 0 0 -1 0 842)" d="M202.8 620.96L222.54 620.96L222.54 638.96L202.8 638.96z" stroke="none" fill="#C4DFF7" fill-rule="nonzero" /><path id="1851" transform="matrix(1 0 0 -1 0 842)" d="M222.54 620.96L242.28 620.96L242.28 638.96L222.54 638.96z" stroke="none" fill="#C4DFF7" fill-rule="nonzero" /><path id="1853" transform="matrix(1 0 0 -1 0 842)" d="M242.28 620.96L262.02 620.96L262.02 638.96L242.28 638.96z" stroke="none" fill="#C4DFF7" fill-rule="nonzero" /><path id="1855" transform="matrix(1 0 0 -1 0 842)" d="M262.02 620.96L281.76 620.96L281.76 638.96L262.02 638.96z" stroke="none" fill="#C4DFF7" fill-rule="nonzero" /><path id="1857" transform="matrix(1 0 0 -1 0 842)" d="M281.76 620.96L301.44 620.96L301.44 638.96L281.76 638.96z" stroke="none" fill="#C4DFF7" fill-rule="nonzero" /><path id="1859" transform="matrix(1 0 0 -1 0 842)" d="M301.44 620.96L321.18 620.96L321.18 638.96L301.44 638.96z" stroke="none" fill="#C4DFF7" fill-rule="nonzero" /><path id="1861" transform="matrix(1 0 0 -1 0 842)" d="M321.18 620.96L340.92 620.96L340.92 638.96L321.18 638.96z" stroke="none" fill="#C4DFF7" fill-rule="nonzero" /><path id="1863" transform="matrix(1 0 0 -1 0 842)" d="M340.92 620.96L360.66 620.96L360.66 638.96L340.92 638.96z" stroke="none" fill="#C4DFF7" fill-rule="nonzero" /><path id="1865" transform="matrix(1 0 0 -1 0 842)" d="M360.66 620.96L380.4 620.96L380.4 638.96L360.66 638.96z" stroke="none" fill="#C4DFF7" fill-rule="nonzero" /><path id="1867" transform="matrix(1 0 0 -1 0 842)" d="M380.4 620.96L400.14 620.96L400.14 638.96L380.4 638.96z" stroke="none" fill="#C4DFF7" fill-rule="nonzero" /><path id="1869" transform="matrix(1 0 0 -1 0 842)" d="M400.14 620.96L419.88 620.96L419.88 638.96L400.14 638.96z" stroke="none" fill="#C4DFF7" fill-rule="nonzero" /><path id="1871" transform="matrix(1 0 0 -1 0 842)" d="M419.88 620.96L439.56 620.96L439.56 638.96L419.88 638.96z" stroke="none" fill="#C4DFF7" fill-rule="nonzero" /><path id="1873" transform="matrix(1 0 0 -1 0 842)" d="M439.56 620.96L459.3 620.96L459.3 638.96L439.56 638.96z" stroke="none" fill="#C4DFF7" fill-rule="nonzero" /><path id="1875" transform="matrix(1 0 0 -1 0 842)" d="M459.3 620.96L479.04 620.96L479.04 638.96L459.3 638.96z" stroke="none" fill="#C4DFF7" fill-rule="nonzero" /><path id="1877" transform="matrix(1 0 0 -1 0 842)" d="M479.04 620.96L498.78 620.96L498.78 638.96L479.04 638.96z" stroke="none" fill="#C4DFF7" fill-rule="nonzero" /><path id="1879" transform="matrix(1 0 0 -1 0 842)" d="M498.78 620.96L518.52 620.96L518.52 638.96L498.78 638.96z" stroke="none" fill="#C4DFF7" fill-rule="nonzero" /><path id="1881" transform="matrix(1 0 0 -1 0 842)" d="M518.52 620.96L538.26 620.96L538.26 638.96L518.52 638.96z" stroke="none" fill="#C4DFF7" fill-rule="nonzero" /><path id="1883" transform="matrix(1 0 0 -1 0 842)" d="M538.26 620.96L558 620.96L558 638.96L538.26 638.96z" stroke="none" fill="#C4DFF7" fill-rule="nonzero" /></g></g></svg>