<svg xmlns="http://www.w3.org/2000/svg" xmlns:xlink="http://www.w3.org/1999/xlink" id="body_156" preserveAspectRatio="xMinYMin meet" viewBox="0 0 793 1123"><defs><clipPath id="1"><path id="" clip-rule="evenodd" transform="matrix(1 0 0 1 0 0)" d="M0 842L0 0L0 0L595 0L595 0L595 842L595 842L0 842z" /></clipPath><clipPath id="2"><path id="" clip-rule="evenodd" transform="matrix(1 0 0 1 0 0)" d="M338.94 88.14001L349.08 88.14001L349.08 88.14001L349.08 99.06L349.08 99.06L338.94 99.06z" /></clipPath><clipPath id="3"><path id="" clip-rule="evenodd" transform="matrix(1 0 0 1 0 0)" d="M0 0.02001953L595.2 0.02001953L595.2 0.02001953L595.2 842L595.2 842L0 842z" /></clipPath><clipPath id="4"><path id="" clip-rule="evenodd" transform="matrix(1 0 0 1 0 0)" d="M339.9 89.15997L348.06 89.15997L348.06 89.15997L348.06 98.03998L348.06 98.03998L339.9 98.03998z" /></clipPath><clipPath id="5"><path id="" clip-rule="evenodd" transform="matrix(1 0 0 1 0 0)" d="M338.94 88.14001L349.08 88.14001L349.08 88.14001L349.08 99.06L349.08 99.06L338.94 99.06z" /></clipPath><clipPath id="6"><path id="" clip-rule="evenodd" transform="matrix(1 0 0 1 0 0)" d="M0 0.02001953L595.2 0.02001953L595.2 0.02001953L595.2 842L595.2 842L0 842z" /></clipPath><clipPath id="7"><path id="" clip-rule="evenodd" transform="matrix(1 0 0 1 0 0)" d="M315.06 125.1L324.54 125.1L324.54 125.1L324.54 134.5199L324.54 134.5199L315.06 134.5199z" /></clipPath><clipPath id="8"><path id="" clip-rule="evenodd" transform="matrix(1 0 0 1 0 0)" d="M0 0.02001953L595.2 0.02001953L595.2 0.02001953L595.2 842L595.2 842L0 842z" /></clipPath><clipPath id="9"><path id="" clip-rule="evenodd" transform="matrix(1 0 0 1 0 0)" d="M316.08 126.12L323.52 126.12L323.52 126.12L323.52 133.56L323.52 133.56L316.08 133.56z" /></clipPath><clipPath id="10"><path id="" clip-rule="evenodd" transform="matrix(1 0 0 1 0 0)" d="M315.06 125.1L324.54 125.1L324.54 125.1L324.54 134.5199L324.54 134.5199L315.06 134.5199z" /></clipPath><clipPath id="11"><path id="" clip-rule="evenodd" transform="matrix(1 0 0 1 0 0)" d="M0 0.02001953L595.2 0.02001953L595.2 0.02001953L595.2 842L595.2 842L0 842z" /></clipPath><clipPath id="12"><path id="" clip-rule="evenodd" transform="matrix(1 0 0 1 0 0)" d="M383.76 161.64L393.9 161.64L393.9 161.64L393.9 172.56L393.9 172.56L383.76 172.56z" /></clipPath><clipPath id="13"><path id="" clip-rule="evenodd" transform="matrix(1 0 0 1 0 0)" d="M0 0.02001953L595.2 0.02001953L595.2 0.02001953L595.2 842L595.2 842L0 842z" /></clipPath><clipPath id="14"><path id="" clip-rule="evenodd" transform="matrix(1 0 0 1 0 0)" d="M384.72 162.66L392.88 162.66L392.88 162.66L392.88 171.54L392.88 171.54L384.72 171.54z" /></clipPath><clipPath id="15"><path id="" clip-rule="evenodd" transform="matrix(1 0 0 1 0 0)" d="M383.76 161.64L393.9 161.64L393.9 161.64L393.9 172.56L393.9 172.56L383.76 172.56z" /></clipPath><clipPath id="16"><path id="" clip-rule="evenodd" transform="matrix(1 0 0 1 0 0)" d="M0 0.02001953L595.2 0.02001953L595.2 0.02001953L595.2 842L595.2 842L0 842z" /></clipPath><clipPath id="17"><path id="" clip-rule="evenodd" transform="matrix(1 0 0 1 0 0)" d="M35.94 314.04L457.98 314.04L457.98 314.04L457.98 518.1L457.98 518.1L35.94 518.1z" /></clipPath><clipPath id="18"><path id="" clip-rule="evenodd" transform="matrix(1 0 0 1 0 0)" d="M0 0.02001953L595.2 0.02001953L595.2 0.02001953L595.2 842L595.2 842L0 842z" /></clipPath><clipPath id="19"><path id="" clip-rule="evenodd" transform="matrix(1 0 0 1 0 0)" d="M36.96 315.06L456.96 315.06L456.96 315.06L456.96 517.14L456.96 517.14L36.96 517.14z" /></clipPath><clipPath id="20"><path id="" clip-rule="evenodd" transform="matrix(1 0 0 1 0 0)" d="M35.94 314.04L457.98 314.04L457.98 314.04L457.98 518.1L457.98 518.1L35.94 518.1z" /></clipPath><clipPath id="21"><path id="" clip-rule="evenodd" transform="matrix(1 0 0 1 0 0)" d="M0 0.02001953L595.2 0.02001953L595.2 0.02001953L595.2 842L595.2 842L0 842z" /></clipPath></defs><g transform="matrix(1.333333 0 0 1.333333 0 0)"><g clip-path="url(#1)"><g clip-path="url(#2)"><g clip-path="url(#3)"><path id="509" transform="matrix(1 0 0 -1 0 842)" d="M339.9 743.96L348.06 743.96L348.06 752.84L339.9 752.84z" stroke="none" fill="#FFFFFF" fill-rule="nonzero" /></g></g><g clip-path="url(#4)"><g clip-path="url(#5)"><g clip-path="url(#6)"><g transform="matrix(0.48 0 0 0.4673684 339.9 89.15997)"><g transform="matrix(1 0 0 1 0 0)"><image x="0" y="0" xlink:href="img_244.png" width="17" height="19" /></g></g></g></g></g><g clip-path="url(#7)"><g clip-path="url(#8)"><path id="511" transform="matrix(1 0 0 -1 0 842)" d="M316.08 708.44L323.52 708.44L323.52 715.88L316.08 715.88z" stroke="none" fill="#FFFFFF" fill-rule="nonzero" /></g></g><g clip-path="url(#9)"><g clip-path="url(#10)"><g clip-path="url(#11)"><g transform="matrix(0.48 0 0 0.465 316.08 126.12)"><g transform="matrix(1 0 0 1 0 0)"><image x="0" y="0" xlink:href="img_246.png" width="16" height="16" /></g></g></g></g></g><g clip-path="url(#12)"><g clip-path="url(#13)"><path id="513" transform="matrix(1 0 0 -1 0 842)" d="M384.72 670.46L392.88 670.46L392.88 679.34L384.72 679.34z" stroke="none" fill="#FFFFFF" fill-rule="nonzero" /></g></g><g clip-path="url(#14)"><g clip-path="url(#15)"><g clip-path="url(#16)"><g transform="matrix(0.48 0 0 0.4673684 384.72 162.66)"><g transform="matrix(1 0 0 1 0 0)"><image x="0" y="0" xlink:href="img_247.png" width="17" height="19" /></g></g></g></g></g><g clip-path="url(#17)"><g clip-path="url(#18)"><path id="558" transform="matrix(1 0 0 -1 0 842)" d="M36.96 324.86L456.96 324.86L456.96 526.94L36.96 526.94z" stroke="none" fill="#FFFFFF" fill-rule="nonzero" /></g></g><g clip-path="url(#19)"><g clip-path="url(#20)"><g clip-path="url(#21)"><g transform="matrix(0.48 0 0 0.48 36.96 315.06)"><g transform="matrix(1 0 0 1 0 0)"><image x="0" y="0" xlink:href="img_389.png" width="875" height="421" /></g></g></g></g></g></g></g></svg>