<svg xmlns="http://www.w3.org/2000/svg" xmlns:xlink="http://www.w3.org/1999/xlink" id="body_212" preserveAspectRatio="xMinYMin meet" viewBox="0 0 793 1123"><defs><clipPath id="1"><path id="" clip-rule="evenodd" transform="matrix(1 0 0 1 0 0)" d="M0 842L0 0L0 0L595 0L595 0L595 842L595 842L0 842z" /></clipPath><clipPath id="2"><path id="" clip-rule="evenodd" transform="matrix(1 0 0 1 0 0)" d="M215.94 130.02L550.44 130.02L550.44 130.02L550.44 379.2L550.44 379.2L215.94 379.2z" /></clipPath><clipPath id="3"><path id="" clip-rule="evenodd" transform="matrix(1 0 0 1 0 0)" d="M0 0.02001953L595.2 0.02001953L595.2 0.02001953L595.2 842L595.2 842L0 842z" /></clipPath><clipPath id="4"><path id="" clip-rule="evenodd" transform="matrix(1 0 0 1 0 0)" d="M216.96 131.04L549.48 131.04L549.48 131.04L549.48 378.24L549.48 378.24L216.96 378.24z" /></clipPath><clipPath id="5"><path id="" clip-rule="evenodd" transform="matrix(1 0 0 1 0 0)" d="M215.94 130.02L550.44 130.02L550.44 130.02L550.44 379.2L550.44 379.2L215.94 379.2z" /></clipPath><clipPath id="6"><path id="" clip-rule="evenodd" transform="matrix(1 0 0 1 0 0)" d="M0 0.02001953L595.2 0.02001953L595.2 0.02001953L595.2 842L595.2 842L0 842z" /></clipPath><clipPath id="7"><path id="" clip-rule="evenodd" transform="matrix(1 0 0 1 0 0)" d="M334.08 533.4L352.62 533.4L352.62 533.4L352.62 551.22L352.62 551.22L334.08 551.22z" /></clipPath><clipPath id="8"><path id="" clip-rule="evenodd" transform="matrix(1 0 0 1 0 0)" d="M0 0.02001953L595.2 0.02001953L595.2 0.02001953L595.2 842L595.2 842L0 842z" /></clipPath><clipPath id="9"><path id="" clip-rule="evenodd" transform="matrix(1 0 0 1 0 0)" d="M335.04 534.36L351.6 534.36L351.6 534.36L351.6 550.2L351.6 550.2L335.04 550.2z" /></clipPath><clipPath id="10"><path id="" clip-rule="evenodd" transform="matrix(1 0 0 1 0 0)" d="M334.08 533.4L352.62 533.4L352.62 533.4L352.62 551.22L352.62 551.22L334.08 551.22z" /></clipPath><clipPath id="11"><path id="" clip-rule="evenodd" transform="matrix(1 0 0 1 0 0)" d="M0 0.02001953L595.2 0.02001953L595.2 0.02001953L595.2 842L595.2 842L0 842z" /></clipPath><clipPath id="12"><path id="" clip-rule="evenodd" transform="matrix(1 0 0 1 0 0)" d="M279.54 571.38L298.08 571.38L298.08 571.38L298.08 589.2L298.08 589.2L279.54 589.2z" /></clipPath><clipPath id="13"><path id="" clip-rule="evenodd" transform="matrix(1 0 0 1 0 0)" d="M0 0.02001953L595.2 0.02001953L595.2 0.02001953L595.2 842L595.2 842L0 842z" /></clipPath><clipPath id="14"><path id="" clip-rule="evenodd" transform="matrix(1 0 0 1 0 0)" d="M280.56 572.4L297.12 572.4L297.12 572.4L297.12 588.24L297.12 588.24L280.56 588.24z" /></clipPath><clipPath id="15"><path id="" clip-rule="evenodd" transform="matrix(1 0 0 1 0 0)" d="M279.54 571.38L298.08 571.38L298.08 571.38L298.08 589.2L298.08 589.2L279.54 589.2z" /></clipPath><clipPath id="16"><path id="" clip-rule="evenodd" transform="matrix(1 0 0 1 0 0)" d="M0 0.02001953L595.2 0.02001953L595.2 0.02001953L595.2 842L595.2 842L0 842z" /></clipPath><clipPath id="17"><path id="" clip-rule="evenodd" transform="matrix(1 0 0 1 0 0)" d="M414.72 613.2L430.2 613.2L430.2 613.2L430.2 627.24L430.2 627.24L414.72 627.24z" /></clipPath><clipPath id="18"><path id="" clip-rule="evenodd" transform="matrix(1 0 0 1 0 0)" d="M0 0.02001953L595.2 0.02001953L595.2 0.02001953L595.2 842L595.2 842L0 842z" /></clipPath><clipPath id="19"><path id="" clip-rule="evenodd" transform="matrix(1 0 0 1 0 0)" d="M415.74 614.22L429.9 614.22L429.9 614.22L429.9 626.94L429.9 626.94L415.74 626.94z" /></clipPath><clipPath id="20"><path id="" clip-rule="evenodd" transform="matrix(1 0 0 1 0 0)" d="M414.72 613.2L430.2 613.2L430.2 613.2L430.2 627.24L430.2 627.24L414.72 627.24z" /></clipPath><clipPath id="21"><path id="" clip-rule="evenodd" transform="matrix(1 0 0 1 0 0)" d="M0 0.02001953L595.2 0.02001953L595.2 0.02001953L595.2 842L595.2 842L0 842z" /></clipPath></defs><g transform="matrix(1.333333 0 0 1.333333 0 0)"><g clip-path="url(#1)"><g clip-path="url(#2)"><g clip-path="url(#3)"><path id="782" transform="matrix(1 0 0 -1 0 842)" d="M216.96 710.96L549.48 710.96L549.48 463.76L216.96 463.76" stroke="none" fill="#FFFFFF" fill-rule="nonzero" /></g></g><g clip-path="url(#4)"><g clip-path="url(#5)"><g clip-path="url(#6)"><g transform="matrix(0.4800952 0 0 0.48 216.96 131.04)"><g transform="matrix(1 0 0 1 0 0)"><image x="0" y="0" xlink:href="img_524.png" width="693" height="515" /></g></g></g></g></g><g clip-path="url(#7)"><g clip-path="url(#8)"><path id="784" transform="matrix(1 0 0 -1 0 842)" d="M335.04 291.8L351.6 291.8L351.6 307.64L335.04 307.64z" stroke="none" fill="#FFFFFF" fill-rule="nonzero" /></g></g><g clip-path="url(#9)"><g clip-path="url(#10)"><g clip-path="url(#11)"><g transform="matrix(0.48 0 0 0.48 335.04 534.36)"><g transform="matrix(1 0 0 1 0 0)"><image x="0" y="0" xlink:href="img_106.png" width="35" height="33" /></g></g></g></g></g><g clip-path="url(#12)"><g clip-path="url(#13)"><path id="786" transform="matrix(1 0 0 -1 0 842)" d="M280.56 253.76L297.12 253.76L297.12 269.6L280.56 269.6z" stroke="none" fill="#FFFFFF" fill-rule="nonzero" /></g></g><g clip-path="url(#14)"><g clip-path="url(#15)"><g clip-path="url(#16)"><g transform="matrix(0.48 0 0 0.48 280.56 572.4)"><g transform="matrix(1 0 0 1 0 0)"><image x="0" y="0" xlink:href="img_76.png" width="35" height="33" /></g></g></g></g></g><g clip-path="url(#17)"><g clip-path="url(#18)"><path id="788" transform="matrix(1 0 0 -1 0 842)" d="M415.74 215.06L429.9 215.06L429.9 227.78L415.74 227.78z" stroke="none" fill="#FFFFFF" fill-rule="nonzero" /></g></g><g clip-path="url(#19)"><g clip-path="url(#20)"><g clip-path="url(#21)"><g transform="matrix(0.48 0 0 0.4711111 415.74 614.22)"><g transform="matrix(1 0 0 1 0 0)"><image x="0" y="0" xlink:href="img_77.png" width="30" height="27" /></g></g></g></g></g></g></g></svg>