<svg xmlns="http://www.w3.org/2000/svg" xmlns:xlink="http://www.w3.org/1999/xlink" id="body_61" preserveAspectRatio="xMinYMin meet" viewBox="0 0 793 1123"><defs><clipPath id="1"><path id="" clip-rule="evenodd" transform="matrix(1 0 0 1 0 0)" d="M0 842L0 0L0 0L595 0L595 0L595 842L595 842L0 842z" /></clipPath><clipPath id="2"><path id="" clip-rule="evenodd" transform="matrix(1 0 0 1 0 0)" d="M224.94 158.04L464.34 158.04L464.34 158.04L464.34 322.5L464.34 322.5L224.94 322.5z" /></clipPath><clipPath id="3"><path id="" clip-rule="evenodd" transform="matrix(1 0 0 1 0 0)" d="M0 0.02001953L595.2 0.02001953L595.2 0.02001953L595.2 842L595.2 842L0 842z" /></clipPath><clipPath id="4"><path id="" clip-rule="evenodd" transform="matrix(1 0 0 1 0 0)" d="M225.96 159.06L463.32 159.06L463.32 159.06L463.32 321.54L463.32 321.54L225.96 321.54z" /></clipPath><clipPath id="5"><path id="" clip-rule="evenodd" transform="matrix(1 0 0 1 0 0)" d="M224.94 158.04L464.34 158.04L464.34 158.04L464.34 322.5L464.34 322.5L224.94 322.5z" /></clipPath><clipPath id="6"><path id="" clip-rule="evenodd" transform="matrix(1 0 0 1 0 0)" d="M0 0.02001953L595.2 0.02001953L595.2 0.02001953L595.2 842L595.2 842L0 842z" /></clipPath></defs><g transform="matrix(1.333333 0 0 1.333333 0 0)"><g clip-path="url(#1)"><g clip-path="url(#2)"><g clip-path="url(#3)"><path id="480" transform="matrix(1 0 0 -1 0 842)" d="M225.96 520.46L463.32 520.46L463.32 682.94L225.96 682.94z" stroke="none" fill="#FFFFFF" fill-rule="nonzero" /></g></g><g clip-path="url(#4)"><g clip-path="url(#5)"><g clip-path="url(#6)"><g transform="matrix(0.48 0 0 0.479292 225.96 159.06)"><g transform="matrix(1 0 0 1 0 0)"><image x="0" y="0" xlink:href="img_142.png" width="495" height="339" /></g></g></g></g></g><path id="482" transform="matrix(1 0 0 -1 0 842)" d="M44.94 427.46L171.84 427.46L171.84 445.46L44.94 445.46z" stroke="none" fill="#C4DFF7" fill-rule="nonzero" /><path id="492" transform="matrix(1 0 0 -1 0 842)" d="M171.84 445.46L558 445.46L558 427.46L171.84 427.46" stroke="none" fill="#C4DFF7" fill-rule="nonzero" /><path id="1286" transform="matrix(1 0 0 -1 0 842)" d="M44.94 393.26L558 393.26L558 393.74L44.94 393.74z" stroke="none" fill="#000000" fill-rule="nonzero" /><path id="1287" transform="matrix(1 0 0 -1 0 842)" d="M44.94 373.22L558 373.22L558 373.7L44.94 373.7z" stroke="none" fill="#000000" fill-rule="nonzero" /><path id="1288" transform="matrix(1 0 0 -1 0 842)" d="M44.94 241.22L558 241.22L558 241.7L44.94 241.7z" stroke="none" fill="#000000" fill-rule="nonzero" /><path id="1289" transform="matrix(1 0 0 -1 0 842)" d="M44.94 150.68L558 150.68L558 152.18L44.94 152.18z" stroke="none" fill="#000000" fill-rule="nonzero" /></g></g></svg>