<svg xmlns="http://www.w3.org/2000/svg" xmlns:xlink="http://www.w3.org/1999/xlink" id="body_68" preserveAspectRatio="xMinYMin meet" viewBox="0 0 793 1123"><defs><clipPath id="1"><path id="" clip-rule="evenodd" transform="matrix(1 0 0 1 0 0)" d="M0 842L0 0L0 0L595 0L595 0L595 842L595 842L0 842z" /></clipPath><clipPath id="2"><path id="" clip-rule="evenodd" transform="matrix(1 0 0 1 0 0)" d="M217.38 96.06L236.64 96.06L236.64 96.06L236.64 115.32L236.64 115.32L217.38 115.32z" /></clipPath><clipPath id="3"><path id="" clip-rule="evenodd" transform="matrix(1 0 0 1 0 0)" d="M0 0.02001953L595.2 0.02001953L595.2 0.02001953L595.2 842L595.2 842L0 842z" /></clipPath><clipPath id="4"><path id="" clip-rule="evenodd" transform="matrix(1 0 0 1 0 0)" d="M218.34 97.02002L235.62 97.02002L235.62 97.02002L235.62 114.3L235.62 114.3L218.34 114.3z" /></clipPath><clipPath id="5"><path id="" clip-rule="evenodd" transform="matrix(1 0 0 1 0 0)" d="M217.38 96.06L236.64 96.06L236.64 96.06L236.64 115.32L236.64 115.32L217.38 115.32z" /></clipPath><clipPath id="6"><path id="" clip-rule="evenodd" transform="matrix(1 0 0 1 0 0)" d="M0 0.02001953L595.2 0.02001953L595.2 0.02001953L595.2 842L595.2 842L0 842z" /></clipPath><clipPath id="7"><path id="" clip-rule="evenodd" transform="matrix(1 0 0 1 0 0)" d="M215.94 319.02L551.16 319.02L551.16 319.02L551.16 388.44L551.16 388.44L215.94 388.44z" /></clipPath><clipPath id="8"><path id="" clip-rule="evenodd" transform="matrix(1 0 0 1 0 0)" d="M0 0.02001953L595.2 0.02001953L595.2 0.02001953L595.2 842L595.2 842L0 842z" /></clipPath><clipPath id="9"><path id="" clip-rule="evenodd" transform="matrix(1 0 0 1 0 0)" d="M216.96 320.04L550.14 320.04L550.14 320.04L550.14 387.42L550.14 387.42L216.96 387.42z" /></clipPath><clipPath id="10"><path id="" clip-rule="evenodd" transform="matrix(1 0 0 1 0 0)" d="M215.94 319.02L551.16 319.02L551.16 319.02L551.16 388.44L551.16 388.44L215.94 388.44z" /></clipPath><clipPath id="11"><path id="" clip-rule="evenodd" transform="matrix(1 0 0 1 0 0)" d="M0 0.02001953L595.2 0.02001953L595.2 0.02001953L595.2 842L595.2 842L0 842z" /></clipPath></defs><g transform="matrix(1.333333 0 0 1.333333 0 0)"><g clip-path="url(#1)"><path id="712" transform="matrix(1 0 0 -1 0 842)" d="M217.38 751.94L368.94 751.94L368.94 769.94L217.38 769.94z" stroke="none" fill="#C4DFF7" fill-rule="nonzero" /><path id="722" transform="matrix(1 0 0 -1 0 842)" d="M368.94 751.94L549 751.94L549 769.94L368.94 769.94z" stroke="none" fill="#C4DFF7" fill-rule="nonzero" /><path id="734" transform="matrix(1 0 0 -1 0 842)" d="M217.38 703.7L549 703.7L549 704.18L217.38 704.18z" stroke="none" fill="#000000" fill-rule="nonzero" /><path id="735" transform="matrix(1 0 0 -1 0 842)" d="M217.38 683.18L549 683.18L549 684.68L217.38 684.68z" stroke="none" fill="#000000" fill-rule="nonzero" /><g clip-path="url(#2)"><g clip-path="url(#3)"><path id="736" transform="matrix(1 0 0 -1 0 842)" d="M218.34 727.7L235.62 727.7L235.62 744.98L218.34 744.98z" stroke="none" fill="#FFFFFF" fill-rule="nonzero" /></g></g><g clip-path="url(#4)"><g clip-path="url(#5)"><g clip-path="url(#6)"><g transform="matrix(0.48 0 0 0.48 218.34 97.01996)"><g transform="matrix(1 0 0 1 0 0)"><image x="0" y="0" xlink:href="img_158.png" width="36" height="36" /></g></g></g></g></g><g clip-path="url(#7)"><g clip-path="url(#8)"><path id="768" transform="matrix(1 0 0 -1 0 842)" d="M216.96 521.96L550.14 521.96L550.14 454.58L216.96 454.58" stroke="none" fill="#FFFFFF" fill-rule="nonzero" /></g></g><g clip-path="url(#9)"><g clip-path="url(#10)"><g clip-path="url(#11)"><g transform="matrix(0.4799712 0 0 0.4778723 216.96 320.04)"><g transform="matrix(1 0 0 1 0 0)"><image x="0" y="0" xlink:href="img_159.png" width="695" height="141" /></g></g></g></g></g></g></g></svg>