<svg xmlns="http://www.w3.org/2000/svg" xmlns:xlink="http://www.w3.org/1999/xlink" id="body_157" preserveAspectRatio="xMinYMin meet" viewBox="0 0 793 1123"><defs><clipPath id="1"><path id="" clip-rule="evenodd" transform="matrix(1 0 0 1 0 0)" d="M0 842L0 0L0 0L595 0L595 0L595 842L595 842L0 842z" /></clipPath><clipPath id="2"><path id="" clip-rule="evenodd" transform="matrix(1 0 0 1 0 0)" d="M44.94 131.04L472.98 131.04L472.98 131.04L472.98 335.82L472.98 335.82L44.94 335.82z" /></clipPath><clipPath id="3"><path id="" clip-rule="evenodd" transform="matrix(1 0 0 1 0 0)" d="M0 0.02001953L595.2 0.02001953L595.2 0.02001953L595.2 842L595.2 842L0 842z" /></clipPath><clipPath id="4"><path id="" clip-rule="evenodd" transform="matrix(1 0 0 1 0 0)" d="M45.96 132.06L471.96 132.06L471.96 132.06L471.96 334.86L471.96 334.86L45.96 334.86z" /></clipPath><clipPath id="5"><path id="" clip-rule="evenodd" transform="matrix(1 0 0 1 0 0)" d="M44.94 131.04L472.98 131.04L472.98 131.04L472.98 335.82L472.98 335.82L44.94 335.82z" /></clipPath><clipPath id="6"><path id="" clip-rule="evenodd" transform="matrix(1 0 0 1 0 0)" d="M0 0.02001953L595.2 0.02001953L595.2 0.02001953L595.2 842L595.2 842L0 842z" /></clipPath><clipPath id="7"><path id="" clip-rule="evenodd" transform="matrix(1 0 0 1 0 0)" d="M44.94 131.04L472.98 131.04L472.98 131.04L472.98 335.82L472.98 335.82L44.94 335.82z" /></clipPath><clipPath id="8"><path id="" clip-rule="evenodd" transform="matrix(1 0 0 1 0 0)" d="M0 0.02001953L595.2 0.02001953L595.2 0.02001953L595.2 842L595.2 842L0 842z" /></clipPath><clipPath id="9"><path id="" clip-rule="evenodd" transform="matrix(1 0 0 1 0 0)" d="M44.94 421.86L466.98 421.86L466.98 421.86L466.98 625.92L466.98 625.92L44.94 625.92z" /></clipPath><clipPath id="10"><path id="" clip-rule="evenodd" transform="matrix(1 0 0 1 0 0)" d="M0 0.02001953L595.2 0.02001953L595.2 0.02001953L595.2 842L595.2 842L0 842z" /></clipPath><clipPath id="11"><path id="" clip-rule="evenodd" transform="matrix(1 0 0 1 0 0)" d="M45.96 422.82L465.96 422.82L465.96 422.82L465.96 624.96L465.96 624.96L45.96 624.96z" /></clipPath><clipPath id="12"><path id="" clip-rule="evenodd" transform="matrix(1 0 0 1 0 0)" d="M44.94 421.86L466.98 421.86L466.98 421.86L466.98 625.92L466.98 625.92L44.94 625.92z" /></clipPath><clipPath id="13"><path id="" clip-rule="evenodd" transform="matrix(1 0 0 1 0 0)" d="M0 0.02001953L595.2 0.02001953L595.2 0.02001953L595.2 842L595.2 842L0 842z" /></clipPath><clipPath id="14"><path id="" clip-rule="evenodd" transform="matrix(1 0 0 1 0 0)" d="M44.94 421.86L466.98 421.86L466.98 421.86L466.98 625.92L466.98 625.92L44.94 625.92z" /></clipPath><clipPath id="15"><path id="" clip-rule="evenodd" transform="matrix(1 0 0 1 0 0)" d="M0 0.02001953L595.2 0.02001953L595.2 0.02001953L595.2 842L595.2 842L0 842z" /></clipPath></defs><g transform="matrix(1.333333 0 0 1.333333 0 0)"><g clip-path="url(#1)"><g clip-path="url(#2)"><g clip-path="url(#3)"><path id="628" transform="matrix(1 0 0 -1 0 842)" d="M45.96 507.14L471.96 507.14L471.96 709.94L45.96 709.94z" stroke="none" fill="#FFFFFF" fill-rule="nonzero" /></g></g><g clip-path="url(#4)"><g clip-path="url(#5)"><g clip-path="url(#6)"><g transform="matrix(0.48 0 0 0.4794326 45.96 132.06)"><g transform="matrix(1 0 0 1 0 0)"><image x="0" y="0" xlink:href="img_391.png" width="888" height="423" /></g></g></g></g></g><g clip-path="url(#7)"><g clip-path="url(#8)"><path id="630" transform="matrix(1 0 0 -1 0 842)" d="M259.32 639.5L261.6 636.08L260.94 635.9L248.94 632.06L247.26 631.52L248.4 632.84L256.5 642.44L256.98 642.98L257.34 642.38L257.28 641.78L249.18 632.18L248.4 632.84L248.64 633.02L260.64 636.86L260.94 635.9L260.4 636.08L258.48 638.96" stroke="none" fill="#FF0000" fill-rule="nonzero" /><path id="631" transform="matrix(1 0 0 -1 0 842)" d="M257.34 642.38L259.32 639.5L258.48 638.96L256.5 641.84" stroke="none" fill="#FF0000" fill-rule="nonzero" /><path id="632" transform="matrix(1 0 0 -1 0 842)" d="M258.9 639.26L260.82 636.38L260.82 636.38L248.82 632.54L248.82 632.54L256.92 642.14" stroke="none" fill="#FF0000" fill-rule="evenodd" /><path id="633" transform="matrix(1 0 0 -1 0 842)" d="M274.62 649.1L275.04 649.34L274.5 650.18L274.08 649.94" stroke="none" fill="#FF0000" fill-rule="nonzero" /><path id="634" transform="matrix(1 0 0 -1 0 842)" d="M259.56 639.08L259.14 638.84L258.6 639.68L259.02 639.92" stroke="none" fill="#FF0000" fill-rule="nonzero" /><path id="635" transform="matrix(1 0 0 -1 0 842)" d="M274.62 649.1L274.08 649.94L259.02 639.92L259.56 639.08" stroke="none" fill="#FF0000" fill-rule="nonzero" /></g></g><g clip-path="url(#9)"><g clip-path="url(#10)"><path id="670" transform="matrix(1 0 0 -1 0 842)" d="M45.96 217.04L465.96 217.04L465.96 419.18L45.96 419.18z" stroke="none" fill="#FFFFFF" fill-rule="nonzero" /></g></g><g clip-path="url(#11)"><g clip-path="url(#12)"><g clip-path="url(#13)"><g transform="matrix(0.48 0 0 0.4801425 45.96 422.82)"><g transform="matrix(1 0 0 1 0 0)"><image x="0" y="0" xlink:href="img_392.png" width="875" height="421" /></g></g></g></g></g><g clip-path="url(#14)"><g clip-path="url(#15)"><path id="672" transform="matrix(1 0 0 -1 0 842)" d="M274.44 359.78L278.58 359.78L278.4 359.12L274.92 347L274.44 345.32L273.96 347L270.48 359.12L270.3 359.78L270.96 359.78L271.44 359.42L274.92 347.3L273.96 347L273.96 347.3L277.44 359.42L278.4 359.12L277.92 358.76L274.44 358.76" stroke="none" fill="#FF0000" fill-rule="nonzero" /><path id="673" transform="matrix(1 0 0 -1 0 842)" d="M270.96 358.76L274.44 358.76L274.44 359.78L270.96 359.78z" stroke="none" fill="#FF0000" fill-rule="nonzero" /><path id="674" transform="matrix(1 0 0 -1 0 842)" d="M274.44 359.3L277.92 359.3L277.92 359.3L274.44 347.18L274.44 347.18L270.96 359.3" stroke="none" fill="#FF0000" fill-rule="evenodd" /><path id="675" transform="matrix(1 0 0 -1 0 842)" d="M273.96 370.58L274.98 370.58L274.98 371.06L273.96 371.06z" stroke="none" fill="#FF0000" fill-rule="nonzero" /><path id="676" transform="matrix(1 0 0 -1 0 842)" d="M273.96 359.3L274.98 359.3L274.98 370.58L273.96 370.58z" stroke="none" fill="#FF0000" fill-rule="nonzero" /></g></g></g></g></svg>