<svg xmlns="http://www.w3.org/2000/svg" xmlns:xlink="http://www.w3.org/1999/xlink" id="body_226" preserveAspectRatio="xMinYMin meet" viewBox="0 0 793 1123"><defs><clipPath id="1"><path id="" clip-rule="evenodd" transform="matrix(1 0 0 1 0 0)" d="M0 842L0 0L0 0L595 0L595 0L595 842L595 842L0 842z" /></clipPath></defs><g transform="matrix(1.333333 0 0 1.333333 0 0)"><g clip-path="url(#1)"><path id="477" transform="matrix(1 0 0 -1 0 842)" d="M224.94 403.94L341.76 403.94L341.76 421.94L224.94 421.94z" stroke="none" fill="#C4DFF7" fill-rule="nonzero" /><path id="485" transform="matrix(1 0 0 -1 0 842)" d="M341.76 421.94L558 421.94L558 403.94L341.76 403.94" stroke="none" fill="#C4DFF7" fill-rule="nonzero" /><path id="680" transform="matrix(1 0 0 -1 0 842)" d="M224.94 751.94L292.92 751.94L292.92 769.94L224.94 769.94z" stroke="none" fill="#C4DFF7" fill-rule="nonzero" /><path id="687" transform="matrix(1 0 0 -1 0 842)" d="M292.92 751.94L558 751.94L558 769.94L292.92 769.94z" stroke="none" fill="#C4DFF7" fill-rule="nonzero" /><path id="699" transform="matrix(1 0 0 -1 0 842)" d="M224.94 731.72L558 731.72L558 732.2L224.94 732.2z" stroke="none" fill="#000000" fill-rule="nonzero" /><path id="700" transform="matrix(1 0 0 -1 0 842)" d="M224.94 711.74L558 711.74L558 712.22L224.94 712.22z" stroke="none" fill="#000000" fill-rule="nonzero" /><path id="701" transform="matrix(1 0 0 -1 0 842)" d="M224.94 693.74L558 693.74L558 694.22L224.94 694.22z" stroke="none" fill="#000000" fill-rule="nonzero" /><path id="702" transform="matrix(1 0 0 -1 0 842)" d="M224.94 673.7L558 673.7L558 674.18L224.94 674.18z" stroke="none" fill="#000000" fill-rule="nonzero" /><path id="703" transform="matrix(1 0 0 -1 0 842)" d="M224.94 653.72L558 653.72L558 654.2L224.94 654.2z" stroke="none" fill="#000000" fill-rule="nonzero" /><path id="704" transform="matrix(1 0 0 -1 0 842)" d="M224.94 633.74L558 633.74L558 634.22L224.94 634.22z" stroke="none" fill="#000000" fill-rule="nonzero" /><path id="705" transform="matrix(1 0 0 -1 0 842)" d="M224.94 613.7L558 613.7L558 614.18L224.94 614.18z" stroke="none" fill="#000000" fill-rule="nonzero" /><path id="706" transform="matrix(1 0 0 -1 0 842)" d="M224.94 593.72L558 593.72L558 594.2L224.94 594.2z" stroke="none" fill="#000000" fill-rule="nonzero" /><path id="707" transform="matrix(1 0 0 -1 0 842)" d="M224.94 573.74L558 573.74L558 574.22L224.94 574.22z" stroke="none" fill="#000000" fill-rule="nonzero" /><path id="708" transform="matrix(1 0 0 -1 0 842)" d="M224.94 553.7L558 553.7L558 554.18L224.94 554.18z" stroke="none" fill="#000000" fill-rule="nonzero" /><path id="709" transform="matrix(1 0 0 -1 0 842)" d="M224.94 509.18L558 509.18L558 510.68L224.94 510.68z" stroke="none" fill="#000000" fill-rule="nonzero" /><path id="710" transform="matrix(1 0 0 -1 0 842)" d="M224.94 383.72L558 383.72L558 384.2L224.94 384.2z" stroke="none" fill="#000000" fill-rule="nonzero" /><path id="711" transform="matrix(1 0 0 -1 0 842)" d="M224.94 363.74L558 363.74L558 364.22L224.94 364.22z" stroke="none" fill="#000000" fill-rule="nonzero" /><path id="712" transform="matrix(1 0 0 -1 0 842)" d="M224.94 329.72L558 329.72L558 330.2L224.94 330.2z" stroke="none" fill="#000000" fill-rule="nonzero" /><path id="713" transform="matrix(1 0 0 -1 0 842)" d="M224.94 295.16L558 295.16L558 296.66L224.94 296.66z" stroke="none" fill="#000000" fill-rule="nonzero" /></g></g></svg>