<svg xmlns="http://www.w3.org/2000/svg" xmlns:xlink="http://www.w3.org/1999/xlink" id="body_42" preserveAspectRatio="xMinYMin meet" viewBox="0 0 793 1123"><defs><clipPath id="1"><path id="" clip-rule="evenodd" transform="matrix(1 0 0 1 0 0)" d="M0 842L0 0L0 0L595 0L595 0L595 842L595 842L0 842z" /></clipPath><clipPath id="2"><path id="" clip-rule="evenodd" transform="matrix(1 0 0 1 0 0)" d="M35.94 212.04L54.54 212.04L54.54 212.04L54.54 229.92L54.54 229.92L35.94 229.92z" /></clipPath><clipPath id="3"><path id="" clip-rule="evenodd" transform="matrix(1 0 0 1 0 0)" d="M0 0.02001953L595.2 0.02001953L595.2 0.02001953L595.2 842L595.2 842L0 842z" /></clipPath><clipPath id="4"><path id="" clip-rule="evenodd" transform="matrix(1 0 0 1 0 0)" d="M36.96 213.06L53.52 213.06L53.52 213.06L53.52 228.9L53.52 228.9L36.96 228.9z" /></clipPath><clipPath id="5"><path id="" clip-rule="evenodd" transform="matrix(1 0 0 1 0 0)" d="M35.94 212.04L54.54 212.04L54.54 212.04L54.54 229.92L54.54 229.92L35.94 229.92z" /></clipPath><clipPath id="6"><path id="" clip-rule="evenodd" transform="matrix(1 0 0 1 0 0)" d="M0 0.02001953L595.2 0.02001953L595.2 0.02001953L595.2 842L595.2 842L0 842z" /></clipPath><clipPath id="7"><path id="" clip-rule="evenodd" transform="matrix(1 0 0 1 0 0)" d="M35.94 630.06L54.54 630.06L54.54 630.06L54.54 647.94L54.54 647.94L35.94 647.94z" /></clipPath><clipPath id="8"><path id="" clip-rule="evenodd" transform="matrix(1 0 0 1 0 0)" d="M0 0.02001953L595.2 0.02001953L595.2 0.02001953L595.2 842L595.2 842L0 842z" /></clipPath><clipPath id="9"><path id="" clip-rule="evenodd" transform="matrix(1 0 0 1 0 0)" d="M36.96 631.08L53.52 631.08L53.52 631.08L53.52 646.92L53.52 646.92L36.96 646.92z" /></clipPath><clipPath id="10"><path id="" clip-rule="evenodd" transform="matrix(1 0 0 1 0 0)" d="M35.94 630.06L54.54 630.06L54.54 630.06L54.54 647.94L54.54 647.94L35.94 647.94z" /></clipPath><clipPath id="11"><path id="" clip-rule="evenodd" transform="matrix(1 0 0 1 0 0)" d="M0 0.02001953L595.2 0.02001953L595.2 0.02001953L595.2 842L595.2 842L0 842z" /></clipPath><clipPath id="12"><path id="" clip-rule="evenodd" transform="matrix(1 0 0 1 0 0)" d="M35.94 688.08L54.54 688.08L54.54 688.08L54.54 705.9L54.54 705.9L35.94 705.9z" /></clipPath><clipPath id="13"><path id="" clip-rule="evenodd" transform="matrix(1 0 0 1 0 0)" d="M0 0.02001953L595.2 0.02001953L595.2 0.02001953L595.2 842L595.2 842L0 842z" /></clipPath><clipPath id="14"><path id="" clip-rule="evenodd" transform="matrix(1 0 0 1 0 0)" d="M36.96 689.04L53.52 689.04L53.52 689.04L53.52 704.88L53.52 704.88L36.96 704.88z" /></clipPath><clipPath id="15"><path id="" clip-rule="evenodd" transform="matrix(1 0 0 1 0 0)" d="M35.94 688.08L54.54 688.08L54.54 688.08L54.54 705.9L54.54 705.9L35.94 705.9z" /></clipPath><clipPath id="16"><path id="" clip-rule="evenodd" transform="matrix(1 0 0 1 0 0)" d="M0 0.02001953L595.2 0.02001953L595.2 0.02001953L595.2 842L595.2 842L0 842z" /></clipPath></defs><g transform="matrix(1.333333 0 0 1.333333 0 0)"><g clip-path="url(#1)"><path id="1165" transform="matrix(1 0 0 -1 0 842)" d="M35.94 751.94L209.82 751.94L209.82 769.94L35.94 769.94z" stroke="none" fill="#C4DFF7" fill-rule="nonzero" /><path id="1173" transform="matrix(1 0 0 -1 0 842)" d="M209.82 751.94L549 751.94L549 769.94L209.82 769.94z" stroke="none" fill="#C4DFF7" fill-rule="nonzero" /><path id="1185" transform="matrix(1 0 0 -1 0 842)" d="M35.94 693.74L549 693.74L549 694.22L35.94 694.22z" stroke="none" fill="#000000" fill-rule="nonzero" /><path id="1186" transform="matrix(1 0 0 -1 0 842)" d="M35.94 635.72L549 635.72L549 636.2L35.94 636.2z" stroke="none" fill="#000000" fill-rule="nonzero" /><path id="1187" transform="matrix(1 0 0 -1 0 842)" d="M35.94 601.7L549 601.7L549 602.18L35.94 602.18z" stroke="none" fill="#000000" fill-rule="nonzero" /><path id="1188" transform="matrix(1 0 0 -1 0 842)" d="M35.94 567.74L549 567.74L549 568.22L35.94 568.22z" stroke="none" fill="#000000" fill-rule="nonzero" /><path id="1189" transform="matrix(1 0 0 -1 0 842)" d="M35.94 519.74L549 519.74L549 520.22L35.94 520.22z" stroke="none" fill="#000000" fill-rule="nonzero" /><path id="1190" transform="matrix(1 0 0 -1 0 842)" d="M35.94 485.72L549 485.72L549 486.2L35.94 486.2z" stroke="none" fill="#000000" fill-rule="nonzero" /><path id="1191" transform="matrix(1 0 0 -1 0 842)" d="M35.94 437.72L549 437.72L549 438.2L35.94 438.2z" stroke="none" fill="#000000" fill-rule="nonzero" /><path id="1192" transform="matrix(1 0 0 -1 0 842)" d="M35.94 389.18L549 389.18L549 390.68L35.94 390.68z" stroke="none" fill="#000000" fill-rule="nonzero" /><g clip-path="url(#2)"><g clip-path="url(#3)"><path id="1193" transform="matrix(1 0 0 -1 0 842)" d="M36.96 613.1L53.52 613.1L53.52 628.94L36.96 628.94z" stroke="none" fill="#FFFFFF" fill-rule="nonzero" /></g></g><g clip-path="url(#4)"><g clip-path="url(#5)"><g clip-path="url(#6)"><g transform="matrix(0.48 0 0 0.48 36.96 213.06)"><g transform="matrix(1 0 0 1 0 0)"><image x="0" y="0" xlink:href="img_94.png" width="35" height="33" /></g></g></g></g></g><path id="1195" transform="matrix(1 0 0 -1 0 842)" d="M35.94 285.92L214.8 285.92L214.8 303.98L35.94 303.98z" stroke="none" fill="#C4DFF7" fill-rule="nonzero" /><path id="1203" transform="matrix(1 0 0 -1 0 842)" d="M214.8 303.98L549 303.98L549 285.92L214.8 285.92" stroke="none" fill="#C4DFF7" fill-rule="nonzero" /><path id="1641" transform="matrix(1 0 0 -1 0 842)" d="M35.94 251.72L549 251.72L549 252.2L35.94 252.2z" stroke="none" fill="#000000" fill-rule="nonzero" /><path id="1642" transform="matrix(1 0 0 -1 0 842)" d="M35.94 217.7L549 217.7L549 218.18L35.94 218.18z" stroke="none" fill="#000000" fill-rule="nonzero" /><path id="1643" transform="matrix(1 0 0 -1 0 842)" d="M35.94 159.68L549 159.68L549 160.16L35.94 160.16z" stroke="none" fill="#000000" fill-rule="nonzero" /><path id="1644" transform="matrix(1 0 0 -1 0 842)" d="M35.94 101.18L549 101.18L549 102.68L35.94 102.68z" stroke="none" fill="#000000" fill-rule="nonzero" /><g clip-path="url(#7)"><g clip-path="url(#8)"><path id="1645" transform="matrix(1 0 0 -1 0 842)" d="M36.96 195.08L53.52 195.08L53.52 210.92L36.96 210.92z" stroke="none" fill="#FFFFFF" fill-rule="nonzero" /></g></g><g clip-path="url(#9)"><g clip-path="url(#10)"><g clip-path="url(#11)"><g transform="matrix(0.48 0 0 0.48 36.96 631.08)"><g transform="matrix(1 0 0 1 0 0)"><image x="0" y="0" xlink:href="img_95.png" width="35" height="33" /></g></g></g></g></g><g clip-path="url(#12)"><g clip-path="url(#13)"><path id="1647" transform="matrix(1 0 0 -1 0 842)" d="M36.96 137.12L53.52 137.12L53.52 152.96L36.96 152.96z" stroke="none" fill="#FFFFFF" fill-rule="nonzero" /></g></g><g clip-path="url(#14)"><g clip-path="url(#15)"><g clip-path="url(#16)"><g transform="matrix(0.48 0 0 0.48 36.96 689.04)"><g transform="matrix(1 0 0 1 0 0)"><image x="0" y="0" xlink:href="img_96.png" width="35" height="33" /></g></g></g></g></g></g></g></svg>