<svg xmlns="http://www.w3.org/2000/svg" xmlns:xlink="http://www.w3.org/1999/xlink" id="body_233" preserveAspectRatio="xMinYMin meet" viewBox="0 0 793 1123"><defs><clipPath id="1"><path id="" clip-rule="evenodd" transform="matrix(1 0 0 1 0 0)" d="M0 842L0 0L0 0L595 0L595 0L595 842L595 842L0 842z" /></clipPath><clipPath id="2"><path id="" clip-rule="evenodd" transform="matrix(1 0 0 1 0 0)" d="M35.94 173.04L549.42 173.04L549.42 173.04L549.42 346.14L549.42 346.14L35.94 346.14z" /></clipPath><clipPath id="3"><path id="" clip-rule="evenodd" transform="matrix(1 0 0 1 0 0)" d="M0 0.02001953L595.2 0.02001953L595.2 0.02001953L595.2 842L595.2 842L0 842z" /></clipPath><clipPath id="4"><path id="" clip-rule="evenodd" transform="matrix(1 0 0 1 0 0)" d="M36.96 174.06L548.4 174.06L548.4 174.06L548.4 345.18L548.4 345.18L36.96 345.18z" /></clipPath><clipPath id="5"><path id="" clip-rule="evenodd" transform="matrix(1 0 0 1 0 0)" d="M35.94 173.04L549.42 173.04L549.42 173.04L549.42 346.14L549.42 346.14L35.94 346.14z" /></clipPath><clipPath id="6"><path id="" clip-rule="evenodd" transform="matrix(1 0 0 1 0 0)" d="M0 0.02001953L595.2 0.02001953L595.2 0.02001953L595.2 842L595.2 842L0 842z" /></clipPath><clipPath id="7"><path id="" clip-rule="evenodd" transform="matrix(1 0 0 1 0 0)" d="M35.94 474.18L549.42 474.18L549.42 474.18L549.42 647.28L549.42 647.28L35.94 647.28z" /></clipPath><clipPath id="8"><path id="" clip-rule="evenodd" transform="matrix(1 0 0 1 0 0)" d="M0 0.02001953L595.2 0.02001953L595.2 0.02001953L595.2 842L595.2 842L0 842z" /></clipPath><clipPath id="9"><path id="" clip-rule="evenodd" transform="matrix(1 0 0 1 0 0)" d="M36.96 475.14L548.4 475.14L548.4 475.14L548.4 646.32L548.4 646.32L36.96 646.32z" /></clipPath><clipPath id="10"><path id="" clip-rule="evenodd" transform="matrix(1 0 0 1 0 0)" d="M35.94 474.18L549.42 474.18L549.42 474.18L549.42 647.28L549.42 647.28L35.94 647.28z" /></clipPath><clipPath id="11"><path id="" clip-rule="evenodd" transform="matrix(1 0 0 1 0 0)" d="M0 0.02001953L595.2 0.02001953L595.2 0.02001953L595.2 842L595.2 842L0 842z" /></clipPath></defs><g transform="matrix(1.333333 0 0 1.333333 0 0)"><g clip-path="url(#1)"><g clip-path="url(#2)"><g clip-path="url(#3)"><path id="701" transform="matrix(1 0 0 -1 0 842)" d="M36.96 496.82L548.4 496.82L548.4 667.94L36.96 667.94z" stroke="none" fill="#FFFFFF" fill-rule="nonzero" /></g></g><g clip-path="url(#4)"><g clip-path="url(#5)"><g clip-path="url(#6)"><g transform="matrix(0.48 0 0 0.4793277 36.96 174.06)"><g transform="matrix(1 0 0 1 0 0)"><image x="0" y="0" xlink:href="img_559.png" width="1066" height="357" /></g></g></g></g></g><g clip-path="url(#7)"><g clip-path="url(#8)"><path id="757" transform="matrix(1 0 0 -1 0 842)" d="M36.96 195.68L548.4 195.68L548.4 366.86L36.96 366.86z" stroke="none" fill="#FFFFFF" fill-rule="nonzero" /></g></g><g clip-path="url(#9)"><g clip-path="url(#10)"><g clip-path="url(#11)"><g transform="matrix(0.48 0 0 0.4794958 36.96 475.14)"><g transform="matrix(1 0 0 1 0 0)"><image x="0" y="0" xlink:href="img_560.png" width="1066" height="357" /></g></g></g></g></g></g></g></svg>