<svg xmlns="http://www.w3.org/2000/svg" xmlns:xlink="http://www.w3.org/1999/xlink" id="body_112" preserveAspectRatio="xMinYMin meet" viewBox="0 0 793 1123"><defs><clipPath id="1"><path id="" clip-rule="evenodd" transform="matrix(1 0 0 1 0 0)" d="M0 842L0 0L0 0L595 0L595 0L595 842L595 842L0 842z" /></clipPath><clipPath id="2"><path id="" clip-rule="evenodd" transform="matrix(1 0 0 1 0 0)" d="M35.94 96.06L54.54 96.06L54.54 96.06L54.54 113.88L54.54 113.88L35.94 113.88z" /></clipPath><clipPath id="3"><path id="" clip-rule="evenodd" transform="matrix(1 0 0 1 0 0)" d="M0 0.02001953L595.2 0.02001953L595.2 0.02001953L595.2 842L595.2 842L0 842z" /></clipPath><clipPath id="4"><path id="" clip-rule="evenodd" transform="matrix(1 0 0 1 0 0)" d="M36.96 97.02002L53.52 97.02002L53.52 97.02002L53.52 112.86L53.52 112.86L36.96 112.86z" /></clipPath><clipPath id="5"><path id="" clip-rule="evenodd" transform="matrix(1 0 0 1 0 0)" d="M35.94 96.06L54.54 96.06L54.54 96.06L54.54 113.88L54.54 113.88L35.94 113.88z" /></clipPath><clipPath id="6"><path id="" clip-rule="evenodd" transform="matrix(1 0 0 1 0 0)" d="M0 0.02001953L595.2 0.02001953L595.2 0.02001953L595.2 842L595.2 842L0 842z" /></clipPath><clipPath id="7"><path id="" clip-rule="evenodd" transform="matrix(1 0 0 1 0 0)" d="M35.94 140.04L54.54 140.04L54.54 140.04L54.54 157.92L54.54 157.92L35.94 157.92z" /></clipPath><clipPath id="8"><path id="" clip-rule="evenodd" transform="matrix(1 0 0 1 0 0)" d="M0 0.02001953L595.2 0.02001953L595.2 0.02001953L595.2 842L595.2 842L0 842z" /></clipPath><clipPath id="9"><path id="" clip-rule="evenodd" transform="matrix(1 0 0 1 0 0)" d="M36.96 141.06L53.52 141.06L53.52 141.06L53.52 156.9L53.52 156.9L36.96 156.9z" /></clipPath><clipPath id="10"><path id="" clip-rule="evenodd" transform="matrix(1 0 0 1 0 0)" d="M35.94 140.04L54.54 140.04L54.54 140.04L54.54 157.92L54.54 157.92L35.94 157.92z" /></clipPath><clipPath id="11"><path id="" clip-rule="evenodd" transform="matrix(1 0 0 1 0 0)" d="M0 0.02001953L595.2 0.02001953L595.2 0.02001953L595.2 842L595.2 842L0 842z" /></clipPath><clipPath id="12"><path id="" clip-rule="evenodd" transform="matrix(1 0 0 1 0 0)" d="M35.94 236.04L54.96 236.04L54.96 236.04L54.96 250.02L54.96 250.02L35.94 250.02z" /></clipPath><clipPath id="13"><path id="" clip-rule="evenodd" transform="matrix(1 0 0 1 0 0)" d="M0 0.02001953L595.2 0.02001953L595.2 0.02001953L595.2 842L595.2 842L0 842z" /></clipPath><clipPath id="14"><path id="" clip-rule="evenodd" transform="matrix(1 0 0 1 0 0)" d="M36.96 237.06L54 237.06L54 237.06L54 249.06L54 249.06L36.96 249.06z" /></clipPath><clipPath id="15"><path id="" clip-rule="evenodd" transform="matrix(1 0 0 1 0 0)" d="M35.94 236.04L54.96 236.04L54.96 236.04L54.96 250.02L54.96 250.02L35.94 250.02z" /></clipPath><clipPath id="16"><path id="" clip-rule="evenodd" transform="matrix(1 0 0 1 0 0)" d="M0 0.02001953L595.2 0.02001953L595.2 0.02001953L595.2 842L595.2 842L0 842z" /></clipPath><clipPath id="17"><path id="" clip-rule="evenodd" transform="matrix(1 0 0 1 0 0)" d="M405.3 446.82L420 446.82L420 446.82L420 459.36L420 459.36L405.3 459.36z" /></clipPath><clipPath id="18"><path id="" clip-rule="evenodd" transform="matrix(1 0 0 1 0 0)" d="M0 0.02001953L595.2 0.02001953L595.2 0.02001953L595.2 842L595.2 842L0 842z" /></clipPath><clipPath id="19"><path id="" clip-rule="evenodd" transform="matrix(1 0 0 1 0 0)" d="M406.32 447.84L419.04 447.84L419.04 447.84L419.04 458.4L419.04 458.4L406.32 458.4z" /></clipPath><clipPath id="20"><path id="" clip-rule="evenodd" transform="matrix(1 0 0 1 0 0)" d="M405.3 446.82L420 446.82L420 446.82L420 459.36L420 459.36L405.3 459.36z" /></clipPath><clipPath id="21"><path id="" clip-rule="evenodd" transform="matrix(1 0 0 1 0 0)" d="M0 0.02001953L595.2 0.02001953L595.2 0.02001953L595.2 842L595.2 842L0 842z" /></clipPath><clipPath id="22"><path id="" clip-rule="evenodd" transform="matrix(1 0 0 1 0 0)" d="M215.94 477L361.74 477L361.74 477L361.74 680.4L361.74 680.4L215.94 680.4z" /></clipPath><clipPath id="23"><path id="" clip-rule="evenodd" transform="matrix(1 0 0 1 0 0)" d="M0 0.02001953L595.2 0.02001953L595.2 0.02001953L595.2 842L595.2 842L0 842z" /></clipPath><clipPath id="24"><path id="" clip-rule="evenodd" transform="matrix(1 0 0 1 0 0)" d="M216.96 478.02L360.72 478.02L360.72 478.02L360.72 679.38L360.72 679.38L216.96 679.38z" /></clipPath><clipPath id="25"><path id="" clip-rule="evenodd" transform="matrix(1 0 0 1 0 0)" d="M215.94 477L361.74 477L361.74 477L361.74 680.4L361.74 680.4L215.94 680.4z" /></clipPath><clipPath id="26"><path id="" clip-rule="evenodd" transform="matrix(1 0 0 1 0 0)" d="M0 0.02001953L595.2 0.02001953L595.2 0.02001953L595.2 842L595.2 842L0 842z" /></clipPath></defs><g transform="matrix(1.333333 0 0 1.333333 0 0)"><g clip-path="url(#1)"><path id="856" transform="matrix(1 0 0 -1 0 842)" d="M35.94 751.94L80.22 751.94L80.22 769.94L35.94 769.94z" stroke="none" fill="#C4DFF7" fill-rule="nonzero" /><path id="863" transform="matrix(1 0 0 -1 0 842)" d="M80.22 751.94L549 751.94L549 769.94L80.22 769.94z" stroke="none" fill="#C4DFF7" fill-rule="nonzero" /><path id="875" transform="matrix(1 0 0 -1 0 842)" d="M35.94 707.72L549 707.72L549 708.2L35.94 708.2z" stroke="none" fill="#000000" fill-rule="nonzero" /><path id="876" transform="matrix(1 0 0 -1 0 842)" d="M35.94 611.72L549 611.72L549 612.2L35.94 612.2z" stroke="none" fill="#000000" fill-rule="nonzero" /><path id="877" transform="matrix(1 0 0 -1 0 842)" d="M35.94 587.24L549 587.24L549 588.74L35.94 588.74z" stroke="none" fill="#000000" fill-rule="nonzero" /><g clip-path="url(#2)"><g clip-path="url(#3)"><path id="878" transform="matrix(1 0 0 -1 0 842)" d="M36.96 729.14L53.52 729.14L53.52 744.98L36.96 744.98z" stroke="none" fill="#FFFFFF" fill-rule="nonzero" /></g></g><g clip-path="url(#4)"><g clip-path="url(#5)"><g clip-path="url(#6)"><g transform="matrix(0.48 0 0 0.48 36.96 97.01996)"><g transform="matrix(1 0 0 1 0 0)"><image x="0" y="0" xlink:href="img_106.png" width="35" height="33" /></g></g></g></g></g><g clip-path="url(#7)"><g clip-path="url(#8)"><path id="880" transform="matrix(1 0 0 -1 0 842)" d="M36.96 685.1L53.52 685.1L53.52 700.94L36.96 700.94z" stroke="none" fill="#FFFFFF" fill-rule="nonzero" /></g></g><g clip-path="url(#9)"><g clip-path="url(#10)"><g clip-path="url(#11)"><g transform="matrix(0.48 0 0 0.48 36.96 141.06)"><g transform="matrix(1 0 0 1 0 0)"><image x="0" y="0" xlink:href="img_270.png" width="35" height="33" /></g></g></g></g></g><g clip-path="url(#12)"><g clip-path="url(#13)"><path id="882" transform="matrix(1 0 0 -1 0 842)" d="M36.96 592.94L54 592.94L54 604.94L36.96 604.94z" stroke="none" fill="#FFFFFF" fill-rule="nonzero" /></g></g><g clip-path="url(#14)"><g clip-path="url(#15)"><g clip-path="url(#16)"><g transform="matrix(0.48 0 0 0.48 36.96 237.06)"><g transform="matrix(1 0 0 1 0 0)"><image x="0" y="0" xlink:href="img_271.png" width="36" height="25" /></g></g></g></g></g><g clip-path="url(#17)"><g clip-path="url(#18)"><path id="939" transform="matrix(1 0 0 -1 0 842)" d="M406.32 383.6L419.04 383.6L419.04 394.16L406.32 394.16z" stroke="none" fill="#FFFFFF" fill-rule="nonzero" /></g></g><g clip-path="url(#19)"><g clip-path="url(#20)"><g clip-path="url(#21)"><g transform="matrix(0.48 0 0 0.48 406.32 447.84)"><g transform="matrix(1 0 0 1 0 0)"><image x="0" y="0" xlink:href="img_272.png" width="27" height="22" /></g></g></g></g></g><g clip-path="url(#22)"><g clip-path="url(#23)"><path id="941" transform="matrix(1 0 0 -1 0 842)" d="M216.96 162.62L360.72 162.62L360.72 363.98L216.96 363.98z" stroke="none" fill="#FFFFFF" fill-rule="nonzero" /></g></g><g clip-path="url(#24)"><g clip-path="url(#25)"><g clip-path="url(#26)"><g transform="matrix(0.48 0 0 0.4794286 216.96 478.02)"><g transform="matrix(1 0 0 1 0 0)"><image x="0" y="0" xlink:href="img_273.png" width="300" height="420" /></g></g></g></g></g></g></g></svg>