<svg xmlns="http://www.w3.org/2000/svg" xmlns:xlink="http://www.w3.org/1999/xlink" id="body_83" preserveAspectRatio="xMinYMin meet" viewBox="0 0 793 1123"><defs><clipPath id="1"><path id="" clip-rule="evenodd" transform="matrix(1 0 0 1 0 0)" d="M0 842L0 0L0 0L595 0L595 0L595 842L595 842L0 842z" /></clipPath><clipPath id="2"><path id="" clip-rule="evenodd" transform="matrix(1 0 0 1 0 0)" d="M470.22 209.04L482.82 209.04L482.82 209.04L482.82 223.02L482.82 223.02L470.22 223.02z" /></clipPath><clipPath id="3"><path id="" clip-rule="evenodd" transform="matrix(1 0 0 1 0 0)" d="M0 0.02001953L595.2 0.02001953L595.2 0.02001953L595.2 842L595.2 842L0 842z" /></clipPath><clipPath id="4"><path id="" clip-rule="evenodd" transform="matrix(1 0 0 1 0 0)" d="M471.24 210.06L481.8 210.06L481.8 210.06L481.8 222.06L481.8 222.06L471.24 222.06z" /></clipPath><clipPath id="5"><path id="" clip-rule="evenodd" transform="matrix(1 0 0 1 0 0)" d="M470.22 209.04L482.82 209.04L482.82 209.04L482.82 223.02L482.82 223.02L470.22 223.02z" /></clipPath><clipPath id="6"><path id="" clip-rule="evenodd" transform="matrix(1 0 0 1 0 0)" d="M0 0.02001953L595.2 0.02001953L595.2 0.02001953L595.2 842L595.2 842L0 842z" /></clipPath><clipPath id="7"><path id="" clip-rule="evenodd" transform="matrix(1 0 0 1 0 0)" d="M532.02 257.04L544.62 257.04L544.62 257.04L544.62 271.02L544.62 271.02L532.02 271.02z" /></clipPath><clipPath id="8"><path id="" clip-rule="evenodd" transform="matrix(1 0 0 1 0 0)" d="M0 0.02001953L595.2 0.02001953L595.2 0.02001953L595.2 842L595.2 842L0 842z" /></clipPath><clipPath id="9"><path id="" clip-rule="evenodd" transform="matrix(1 0 0 1 0 0)" d="M533.04 258.06L543.6 258.06L543.6 258.06L543.6 270.06L543.6 270.06L533.04 270.06z" /></clipPath><clipPath id="10"><path id="" clip-rule="evenodd" transform="matrix(1 0 0 1 0 0)" d="M532.02 257.04L544.62 257.04L544.62 257.04L544.62 271.02L544.62 271.02L532.02 271.02z" /></clipPath><clipPath id="11"><path id="" clip-rule="evenodd" transform="matrix(1 0 0 1 0 0)" d="M0 0.02001953L595.2 0.02001953L595.2 0.02001953L595.2 842L595.2 842L0 842z" /></clipPath><clipPath id="12"><path id="" clip-rule="evenodd" transform="matrix(1 0 0 1 0 0)" d="M504.24 305.04L516.78 305.04L516.78 305.04L516.78 319.02L516.78 319.02L504.24 319.02z" /></clipPath><clipPath id="13"><path id="" clip-rule="evenodd" transform="matrix(1 0 0 1 0 0)" d="M0 0.02001953L595.2 0.02001953L595.2 0.02001953L595.2 842L595.2 842L0 842z" /></clipPath><clipPath id="14"><path id="" clip-rule="evenodd" transform="matrix(1 0 0 1 0 0)" d="M505.26 306.06L515.82 306.06L515.82 306.06L515.82 318.06L515.82 318.06L505.26 318.06z" /></clipPath><clipPath id="15"><path id="" clip-rule="evenodd" transform="matrix(1 0 0 1 0 0)" d="M504.24 305.04L516.78 305.04L516.78 305.04L516.78 319.02L516.78 319.02L504.24 319.02z" /></clipPath><clipPath id="16"><path id="" clip-rule="evenodd" transform="matrix(1 0 0 1 0 0)" d="M0 0.02001953L595.2 0.02001953L595.2 0.02001953L595.2 842L595.2 842L0 842z" /></clipPath></defs><g transform="matrix(1.333333 0 0 1.333333 0 0)"><g clip-path="url(#1)"><path id="244" transform="matrix(1 0 0 -1 0 842)" d="M224.94 663.98L357.78 663.98L357.78 681.98L224.94 681.98z" stroke="none" fill="#C4DFF7" fill-rule="nonzero" /><path id="254" transform="matrix(1 0 0 -1 0 842)" d="M357.78 663.98L558 663.98L558 681.98L357.78 681.98z" stroke="none" fill="#C4DFF7" fill-rule="nonzero" /><path id="866" transform="matrix(1 0 0 -1 0 842)" d="M224.94 601.7L558 601.7L558 602.18L224.94 602.18z" stroke="none" fill="#000000" fill-rule="nonzero" /><path id="867" transform="matrix(1 0 0 -1 0 842)" d="M224.94 553.7L558 553.7L558 554.18L224.94 554.18z" stroke="none" fill="#000000" fill-rule="nonzero" /><path id="868" transform="matrix(1 0 0 -1 0 842)" d="M224.94 505.7L558 505.7L558 506.18L224.94 506.18z" stroke="none" fill="#000000" fill-rule="nonzero" /><path id="869" transform="matrix(1 0 0 -1 0 842)" d="M224.94 457.7L558 457.7L558 458.18L224.94 458.18z" stroke="none" fill="#000000" fill-rule="nonzero" /><path id="870" transform="matrix(1 0 0 -1 0 842)" d="M224.94 395.18L558 395.18L558 396.68L224.94 396.68z" stroke="none" fill="#000000" fill-rule="nonzero" /><g clip-path="url(#2)"><g clip-path="url(#3)"><path id="871" transform="matrix(1 0 0 -1 0 842)" d="M471.24 619.94L481.8 619.94L481.8 631.94L471.24 631.94z" stroke="none" fill="#FFFFFF" fill-rule="nonzero" /></g></g><g clip-path="url(#4)"><g clip-path="url(#5)"><g clip-path="url(#6)"><g transform="matrix(0.48 0 0 0.48 471.24 210.06)"><g transform="matrix(1 0 0 1 0 0)"><image x="0" y="0" xlink:href="img_67.png" width="22" height="25" /></g></g></g></g></g><g clip-path="url(#7)"><g clip-path="url(#8)"><path id="873" transform="matrix(1 0 0 -1 0 842)" d="M533.04 571.94L543.6 571.94L543.6 583.94L533.04 583.94z" stroke="none" fill="#FFFFFF" fill-rule="nonzero" /></g></g><g clip-path="url(#9)"><g clip-path="url(#10)"><g clip-path="url(#11)"><g transform="matrix(0.48 0 0 0.48 533.04 258.06)"><g transform="matrix(1 0 0 1 0 0)"><image x="0" y="0" xlink:href="img_67.png" width="22" height="25" /></g></g></g></g></g><g clip-path="url(#12)"><g clip-path="url(#13)"><path id="875" transform="matrix(1 0 0 -1 0 842)" d="M505.26 523.94L515.82 523.94L515.82 535.94L505.26 535.94z" stroke="none" fill="#FFFFFF" fill-rule="nonzero" /></g></g><g clip-path="url(#14)"><g clip-path="url(#15)"><g clip-path="url(#16)"><g transform="matrix(0.48 0 0 0.48 505.26 306.06)"><g transform="matrix(1 0 0 1 0 0)"><image x="0" y="0" xlink:href="img_67.png" width="22" height="25" /></g></g></g></g></g></g></g></svg>