<svg xmlns="http://www.w3.org/2000/svg" xmlns:xlink="http://www.w3.org/1999/xlink" id="body_22" preserveAspectRatio="xMinYMin meet" viewBox="0 0 793 1123"><defs><clipPath id="1"><path id="" clip-rule="evenodd" transform="matrix(1 0 0 1 0 0)" d="M0 842L0 0L0 0L595 0L595 0L595 842L595 842L0 842z" /></clipPath><clipPath id="2"><path id="" clip-rule="evenodd" transform="matrix(1 0 0 1 0 0)" d="M44.94 595.08L508.26 595.08L508.26 595.08L508.26 653.94L508.26 653.94L44.94 653.94z" /></clipPath><clipPath id="3"><path id="" clip-rule="evenodd" transform="matrix(1 0 0 1 0 0)" d="M0 0.02001953L595.2 0.02001953L595.2 0.02001953L595.2 842L595.2 842L0 842z" /></clipPath><clipPath id="4"><path id="" clip-rule="evenodd" transform="matrix(1 0 0 1 0 0)" d="M45.96 596.04L507.24 596.04L507.24 596.04L507.24 652.92L507.24 652.92L45.96 652.92z" /></clipPath><clipPath id="5"><path id="" clip-rule="evenodd" transform="matrix(1 0 0 1 0 0)" d="M44.94 595.08L508.26 595.08L508.26 595.08L508.26 653.94L508.26 653.94L44.94 653.94z" /></clipPath><clipPath id="6"><path id="" clip-rule="evenodd" transform="matrix(1 0 0 1 0 0)" d="M0 0.02001953L595.2 0.02001953L595.2 0.02001953L595.2 842L595.2 842L0 842z" /></clipPath></defs><g transform="matrix(1.333333 0 0 1.333333 0 0)"><g clip-path="url(#1)"><path id="628" transform="matrix(1 0 0 -1 0 842)" d="M44.94 677.96L97.5 677.96L97.5 695.96L44.94 695.96z" stroke="none" fill="#C4DFF7" fill-rule="nonzero" /><path id="638" transform="matrix(1 0 0 -1 0 842)" d="M97.5 677.96L170.7 677.96L170.7 695.96L97.5 695.96z" stroke="none" fill="#C4DFF7" fill-rule="nonzero" /><path id="647" transform="matrix(1 0 0 -1 0 842)" d="M170.7 677.96L558 677.96L558 695.96L170.7 695.96z" stroke="none" fill="#C4DFF7" fill-rule="nonzero" /><path id="1530" transform="matrix(1 0 0 -1 0 842)" d="M44.94 629.72L558 629.72L558 630.2L44.94 630.2z" stroke="none" fill="#000000" fill-rule="nonzero" /><path id="1531" transform="matrix(1 0 0 -1 0 842)" d="M44.94 567.74L558 567.74L558 568.22L44.94 568.22z" stroke="none" fill="#000000" fill-rule="nonzero" /><path id="1532" transform="matrix(1 0 0 -1 0 842)" d="M44.94 519.74L558 519.74L558 520.22L44.94 520.22z" stroke="none" fill="#000000" fill-rule="nonzero" /><path id="1533" transform="matrix(1 0 0 -1 0 842)" d="M44.94 471.2L558 471.2L558 472.7L44.94 472.7z" stroke="none" fill="#000000" fill-rule="nonzero" /><g clip-path="url(#2)"><g clip-path="url(#3)"><path id="1568" transform="matrix(1 0 0 -1 0 842)" d="M45.96 189.08L507.24 189.08L507.24 245.96L45.96 245.96z" stroke="none" fill="#FFFFFF" fill-rule="nonzero" /></g></g><g clip-path="url(#4)"><g clip-path="url(#5)"><g clip-path="url(#6)"><g transform="matrix(0.48 0 0 0.4779832 45.96 596.04)"><g transform="matrix(1 0 0 1 0 0)"><image x="0" y="0" xlink:href="img_43.png" width="961" height="119" /></g></g></g></g></g></g></g></svg>