<svg xmlns="http://www.w3.org/2000/svg" xmlns:xlink="http://www.w3.org/1999/xlink" id="body_219" preserveAspectRatio="xMinYMin meet" viewBox="0 0 793 1123"><defs><clipPath id="1"><path id="" clip-rule="evenodd" transform="matrix(1 0 0 1 0 0)" d="M0 842L0 0L0 0L595 0L595 0L595 842L595 842L0 842z" /></clipPath><clipPath id="2"><path id="" clip-rule="evenodd" transform="matrix(1 0 0 1 0 0)" d="M224.94 116.04L466.5 116.04L466.5 116.04L466.5 299.9399L466.5 299.9399L224.94 299.9399z" /></clipPath><clipPath id="3"><path id="" clip-rule="evenodd" transform="matrix(1 0 0 1 0 0)" d="M0 0.02001953L595.2 0.02001953L595.2 0.02001953L595.2 842L595.2 842L0 842z" /></clipPath><clipPath id="4"><path id="" clip-rule="evenodd" transform="matrix(1 0 0 1 0 0)" d="M225.96 117.06L465.48 117.06L465.48 117.06L465.48 298.98L465.48 298.98L225.96 298.98z" /></clipPath><clipPath id="5"><path id="" clip-rule="evenodd" transform="matrix(1 0 0 1 0 0)" d="M224.94 116.04L466.5 116.04L466.5 116.04L466.5 299.9399L466.5 299.9399L224.94 299.9399z" /></clipPath><clipPath id="6"><path id="" clip-rule="evenodd" transform="matrix(1 0 0 1 0 0)" d="M0 0.02001953L595.2 0.02001953L595.2 0.02001953L595.2 842L595.2 842L0 842z" /></clipPath><clipPath id="7"><path id="" clip-rule="evenodd" transform="matrix(1 0 0 1 0 0)" d="M288.54 460.62L300.36 460.62L300.36 460.62L300.36 472.44L300.36 472.44L288.54 472.44z" /></clipPath><clipPath id="8"><path id="" clip-rule="evenodd" transform="matrix(1 0 0 1 0 0)" d="M0 0.02001953L595.2 0.02001953L595.2 0.02001953L595.2 842L595.2 842L0 842z" /></clipPath><clipPath id="9"><path id="" clip-rule="evenodd" transform="matrix(1 0 0 1 0 0)" d="M289.56 461.64L299.4 461.64L299.4 461.64L299.4 471.48L299.4 471.48L289.56 471.48z" /></clipPath><clipPath id="10"><path id="" clip-rule="evenodd" transform="matrix(1 0 0 1 0 0)" d="M288.54 460.62L300.36 460.62L300.36 460.62L300.36 472.44L300.36 472.44L288.54 472.44z" /></clipPath><clipPath id="11"><path id="" clip-rule="evenodd" transform="matrix(1 0 0 1 0 0)" d="M0 0.02001953L595.2 0.02001953L595.2 0.02001953L595.2 842L595.2 842L0 842z" /></clipPath><clipPath id="12"><path id="" clip-rule="evenodd" transform="matrix(1 0 0 1 0 0)" d="M44.94 555.96L458.82 555.96L458.82 555.96L458.82 667.44L458.82 667.44L44.94 667.44z" /></clipPath><clipPath id="13"><path id="" clip-rule="evenodd" transform="matrix(1 0 0 1 0 0)" d="M0 0.02001953L595.2 0.02001953L595.2 0.02001953L595.2 842L595.2 842L0 842z" /></clipPath><clipPath id="14"><path id="" clip-rule="evenodd" transform="matrix(1 0 0 1 0 0)" d="M45.96 556.98L457.8 556.98L457.8 556.98L457.8 666.42L457.8 666.42L45.96 666.42z" /></clipPath><clipPath id="15"><path id="" clip-rule="evenodd" transform="matrix(1 0 0 1 0 0)" d="M44.94 555.96L458.82 555.96L458.82 555.96L458.82 667.44L458.82 667.44L44.94 667.44z" /></clipPath><clipPath id="16"><path id="" clip-rule="evenodd" transform="matrix(1 0 0 1 0 0)" d="M0 0.02001953L595.2 0.02001953L595.2 0.02001953L595.2 842L595.2 842L0 842z" /></clipPath></defs><g transform="matrix(1.333333 0 0 1.333333 0 0)"><g clip-path="url(#1)"><g clip-path="url(#2)"><g clip-path="url(#3)"><path id="609" transform="matrix(1 0 0 -1 0 842)" d="M225.96 543.02L465.48 543.02L465.48 724.94L225.96 724.94z" stroke="none" fill="#FFFFFF" fill-rule="nonzero" /></g></g><g clip-path="url(#4)"><g clip-path="url(#5)"><g clip-path="url(#6)"><g transform="matrix(0.48 0 0 0.48 225.96 117.06)"><g transform="matrix(1 0 0 1 0 0)"><image x="0" y="0" xlink:href="img_184.png" width="499" height="379" /></g></g></g></g></g><g clip-path="url(#7)"><g clip-path="url(#8)"><path id="611" transform="matrix(1 0 0 -1 0 842)" d="M289.56 370.52L299.4 370.52L299.4 380.36L289.56 380.36z" stroke="none" fill="#FFFFFF" fill-rule="nonzero" /></g></g><g clip-path="url(#9)"><g clip-path="url(#10)"><g clip-path="url(#11)"><g transform="matrix(0.48 0 0 0.4685715 289.56 461.64)"><g transform="matrix(1 0 0 1 0 0)"><image x="0" y="0" xlink:href="img_455.png" width="21" height="21" /></g></g></g></g></g><g clip-path="url(#12)"><g clip-path="url(#13)"><path id="636" transform="matrix(1 0 0 -1 0 842)" d="M45.96 175.58L457.8 175.58L457.8 285.02L45.96 285.02z" stroke="none" fill="#FFFFFF" fill-rule="nonzero" /></g></g><g clip-path="url(#14)"><g clip-path="url(#15)"><g clip-path="url(#16)"><g transform="matrix(0.48 0 0 0.48 45.96 556.98)"><g transform="matrix(1 0 0 1 0 0)"><image x="0" y="0" xlink:href="img_64.png" width="858" height="228" /></g></g></g></g></g></g></g></svg>