<svg xmlns="http://www.w3.org/2000/svg" xmlns:xlink="http://www.w3.org/1999/xlink" id="body_96" preserveAspectRatio="xMinYMin meet" viewBox="0 0 793 1123"><defs><clipPath id="1"><path id="" clip-rule="evenodd" transform="matrix(1 0 0 1 0 0)" d="M0 842L0 0L0 0L595 0L595 0L595 842L595 842L0 842z" /></clipPath><clipPath id="2"><path id="" clip-rule="evenodd" transform="matrix(1 0 0 1 0 0)" d="M44.94 145.02L558.42 145.02L558.42 145.02L558.42 345.54L558.42 345.54L44.94 345.54z" /></clipPath><clipPath id="3"><path id="" clip-rule="evenodd" transform="matrix(1 0 0 1 0 0)" d="M0 0.02001953L595.2 0.02001953L595.2 0.02001953L595.2 842L595.2 842L0 842z" /></clipPath><clipPath id="4"><path id="" clip-rule="evenodd" transform="matrix(1 0 0 1 0 0)" d="M45.96 146.04L557.4 146.04L557.4 146.04L557.4 344.52L557.4 344.52L45.96 344.52z" /></clipPath><clipPath id="5"><path id="" clip-rule="evenodd" transform="matrix(1 0 0 1 0 0)" d="M44.94 145.02L558.42 145.02L558.42 145.02L558.42 345.54L558.42 345.54L44.94 345.54z" /></clipPath><clipPath id="6"><path id="" clip-rule="evenodd" transform="matrix(1 0 0 1 0 0)" d="M0 0.02001953L595.2 0.02001953L595.2 0.02001953L595.2 842L595.2 842L0 842z" /></clipPath><clipPath id="7"><path id="" clip-rule="evenodd" transform="matrix(1 0 0 1 0 0)" d="M470.88 535.68L483.42 535.68L483.42 535.68L483.42 547.5L483.42 547.5L470.88 547.5z" /></clipPath><clipPath id="8"><path id="" clip-rule="evenodd" transform="matrix(1 0 0 1 0 0)" d="M0 0.02001953L595.2 0.02001953L595.2 0.02001953L595.2 842L595.2 842L0 842z" /></clipPath><clipPath id="9"><path id="" clip-rule="evenodd" transform="matrix(1 0 0 1 0 0)" d="M471.84 536.7L482.4 536.7L482.4 536.7L482.4 546.54L482.4 546.54L471.84 546.54z" /></clipPath><clipPath id="10"><path id="" clip-rule="evenodd" transform="matrix(1 0 0 1 0 0)" d="M470.88 535.68L483.42 535.68L483.42 535.68L483.42 547.5L483.42 547.5L470.88 547.5z" /></clipPath><clipPath id="11"><path id="" clip-rule="evenodd" transform="matrix(1 0 0 1 0 0)" d="M0 0.02001953L595.2 0.02001953L595.2 0.02001953L595.2 842L595.2 842L0 842z" /></clipPath><clipPath id="12"><path id="" clip-rule="evenodd" transform="matrix(1 0 0 1 0 0)" d="M491.34 598.68L503.94 598.68L503.94 598.68L503.94 610.56L503.94 610.56L491.34 610.56z" /></clipPath><clipPath id="13"><path id="" clip-rule="evenodd" transform="matrix(1 0 0 1 0 0)" d="M0 0.02001953L595.2 0.02001953L595.2 0.02001953L595.2 842L595.2 842L0 842z" /></clipPath><clipPath id="14"><path id="" clip-rule="evenodd" transform="matrix(1 0 0 1 0 0)" d="M492.36 599.7L502.92 599.7L502.92 599.7L502.92 609.54L502.92 609.54L492.36 609.54z" /></clipPath><clipPath id="15"><path id="" clip-rule="evenodd" transform="matrix(1 0 0 1 0 0)" d="M491.34 598.68L503.94 598.68L503.94 598.68L503.94 610.56L503.94 610.56L491.34 610.56z" /></clipPath><clipPath id="16"><path id="" clip-rule="evenodd" transform="matrix(1 0 0 1 0 0)" d="M0 0.02001953L595.2 0.02001953L595.2 0.02001953L595.2 842L595.2 842L0 842z" /></clipPath><clipPath id="17"><path id="" clip-rule="evenodd" transform="matrix(1 0 0 1 0 0)" d="M491.34 647.7L503.94 647.7L503.94 647.7L503.94 659.52L503.94 659.52L491.34 659.52z" /></clipPath><clipPath id="18"><path id="" clip-rule="evenodd" transform="matrix(1 0 0 1 0 0)" d="M0 0.02001953L595.2 0.02001953L595.2 0.02001953L595.2 842L595.2 842L0 842z" /></clipPath><clipPath id="19"><path id="" clip-rule="evenodd" transform="matrix(1 0 0 1 0 0)" d="M492.36 648.72L502.92 648.72L502.92 648.72L502.92 658.56L502.92 658.56L492.36 658.56z" /></clipPath><clipPath id="20"><path id="" clip-rule="evenodd" transform="matrix(1 0 0 1 0 0)" d="M491.34 647.7L503.94 647.7L503.94 647.7L503.94 659.52L503.94 659.52L491.34 659.52z" /></clipPath><clipPath id="21"><path id="" clip-rule="evenodd" transform="matrix(1 0 0 1 0 0)" d="M0 0.02001953L595.2 0.02001953L595.2 0.02001953L595.2 842L595.2 842L0 842z" /></clipPath><clipPath id="22"><path id="" clip-rule="evenodd" transform="matrix(1 0 0 1 0 0)" d="M491.34 647.7L503.94 647.7L503.94 647.7L503.94 659.52L503.94 659.52L491.34 659.52z" /></clipPath><clipPath id="23"><path id="" clip-rule="evenodd" transform="matrix(1 0 0 1 0 0)" d="M0 0.02001953L595.2 0.02001953L595.2 0.02001953L595.2 842L595.2 842L0 842z" /></clipPath><clipPath id="24"><path id="" clip-rule="evenodd" transform="matrix(1 0 0 1 0 0)" d="M493.56 649.56L501.72 649.56L501.72 649.56L501.72 657.72L501.72 657.72L493.56 657.72z" /></clipPath><clipPath id="25"><path id="" clip-rule="evenodd" transform="matrix(1 0 0 1 0 0)" d="M491.34 647.7L503.94 647.7L503.94 647.7L503.94 659.52L503.94 659.52L491.34 659.52z" /></clipPath><clipPath id="26"><path id="" clip-rule="evenodd" transform="matrix(1 0 0 1 0 0)" d="M0 0.02001953L595.2 0.02001953L595.2 0.02001953L595.2 842L595.2 842L0 842z" /></clipPath></defs><g transform="matrix(1.333333 0 0 1.333333 0 0)"><g clip-path="url(#1)"><g clip-path="url(#2)"><g clip-path="url(#3)"><path id="799" transform="matrix(1 0 0 -1 0 842)" d="M45.96 497.48L557.4 497.48L557.4 695.96L45.96 695.96z" stroke="none" fill="#FFFFFF" fill-rule="nonzero" /></g></g><g clip-path="url(#4)"><g clip-path="url(#5)"><g clip-path="url(#6)"><g transform="matrix(0.48 0 0 0.4794203 45.96 146.04)"><g transform="matrix(1 0 0 1 0 0)"><image x="0" y="0" xlink:href="img_234.png" width="1066" height="414" /></g></g></g></g></g><g clip-path="url(#7)"><g clip-path="url(#8)"><path id="801" transform="matrix(1 0 0 -1 0 842)" d="M471.84 295.46L482.4 295.46L482.4 305.3L471.84 305.3z" stroke="none" fill="#FFFFFF" fill-rule="nonzero" /></g></g><g clip-path="url(#9)"><g clip-path="url(#10)"><g clip-path="url(#11)"><g transform="matrix(0.48 0 0 0.4685715 471.84 536.7)"><g transform="matrix(1 0 0 1 0 0)"><image x="0" y="0" xlink:href="img_235.png" width="22" height="21" /></g></g></g></g></g><g clip-path="url(#12)"><g clip-path="url(#13)"><path id="803" transform="matrix(1 0 0 -1 0 842)" d="M492.36 232.46L502.92 232.46L502.92 242.3L492.36 242.3z" stroke="none" fill="#FFFFFF" fill-rule="nonzero" /></g></g><g clip-path="url(#14)"><g clip-path="url(#15)"><g clip-path="url(#16)"><g transform="matrix(0.48 0 0 0.4685715 492.36 599.7)"><g transform="matrix(1 0 0 1 0 0)"><image x="0" y="0" xlink:href="img_235.png" width="22" height="21" /></g></g></g></g></g><g clip-path="url(#17)"><g clip-path="url(#18)"><path id="805" transform="matrix(1 0 0 -1 0 842)" d="M492.36 183.44L502.92 183.44L502.92 193.28L492.36 193.28z" stroke="none" fill="#FFFFFF" fill-rule="nonzero" /></g></g><g clip-path="url(#19)"><g clip-path="url(#20)"><g clip-path="url(#21)"><g transform="matrix(0.48 0 0 0.4685715 492.36 648.72)"><g transform="matrix(1 0 0 1 0 0)"><image x="0" y="0" xlink:href="img_235.png" width="22" height="21" /></g></g></g></g></g><g clip-path="url(#22)"><g clip-path="url(#23)"><path id="807" transform="matrix(1 0 0 -1 0 842)" d="M493.56 184.28L501.72 184.28L501.72 192.44L493.56 192.44z" stroke="none" fill="#FFFFFF" fill-rule="nonzero" /></g></g><g clip-path="url(#24)"><g clip-path="url(#25)"><g clip-path="url(#26)"><g transform="matrix(0.48 0 0 0.48 493.56 649.56)"><g transform="matrix(1 0 0 1 0 0)"><image x="0" y="0" xlink:href="img_236.png" width="17" height="17" /></g></g></g></g></g></g></g></svg>