<svg xmlns="http://www.w3.org/2000/svg" xmlns:xlink="http://www.w3.org/1999/xlink" id="body_188" preserveAspectRatio="xMinYMin meet" viewBox="0 0 793 1123"><defs><clipPath id="1"><path id="" clip-rule="evenodd" transform="matrix(1 0 0 1 0 0)" d="M0 842L0 0L0 0L595 0L595 0L595 842L595 842L0 842z" /></clipPath><clipPath id="2"><path id="" clip-rule="evenodd" transform="matrix(1 0 0 1 0 0)" d="M288.96 72.06L307.5 72.06L307.5 72.06L307.5 89.88L307.5 89.88L288.96 89.88z" /></clipPath><clipPath id="3"><path id="" clip-rule="evenodd" transform="matrix(1 0 0 1 0 0)" d="M0 0.02001953L595.2 0.02001953L595.2 0.02001953L595.2 842L595.2 842L0 842z" /></clipPath><clipPath id="4"><path id="" clip-rule="evenodd" transform="matrix(1 0 0 1 0 0)" d="M289.92 73.02002L306.48 73.02002L306.48 73.02002L306.48 88.86005L306.48 88.86005L289.92 88.86005z" /></clipPath><clipPath id="5"><path id="" clip-rule="evenodd" transform="matrix(1 0 0 1 0 0)" d="M288.96 72.06L307.5 72.06L307.5 72.06L307.5 89.88L307.5 89.88L288.96 89.88z" /></clipPath><clipPath id="6"><path id="" clip-rule="evenodd" transform="matrix(1 0 0 1 0 0)" d="M0 0.02001953L595.2 0.02001953L595.2 0.02001953L595.2 842L595.2 842L0 842z" /></clipPath><clipPath id="7"><path id="" clip-rule="evenodd" transform="matrix(1 0 0 1 0 0)" d="M44.94 123.12L560.4 123.12L560.4 123.12L560.4 425.4L560.4 425.4L44.94 425.4z" /></clipPath><clipPath id="8"><path id="" clip-rule="evenodd" transform="matrix(1 0 0 1 0 0)" d="M0 0.02001953L595.2 0.02001953L595.2 0.02001953L595.2 842L595.2 842L0 842z" /></clipPath><clipPath id="9"><path id="" clip-rule="evenodd" transform="matrix(1 0 0 1 0 0)" d="M45.96 124.14L559.38 124.14L559.38 124.14L559.38 424.38L559.38 424.38L45.96 424.38z" /></clipPath><clipPath id="10"><path id="" clip-rule="evenodd" transform="matrix(1 0 0 1 0 0)" d="M44.94 123.12L560.4 123.12L560.4 123.12L560.4 425.4L560.4 425.4L44.94 425.4z" /></clipPath><clipPath id="11"><path id="" clip-rule="evenodd" transform="matrix(1 0 0 1 0 0)" d="M0 0.02001953L595.2 0.02001953L595.2 0.02001953L595.2 842L595.2 842L0 842z" /></clipPath><clipPath id="12"><path id="" clip-rule="evenodd" transform="matrix(1 0 0 1 0 0)" d="M306.54 460.32L325.08 460.32L325.08 460.32L325.08 478.14L325.08 478.14L306.54 478.14z" /></clipPath><clipPath id="13"><path id="" clip-rule="evenodd" transform="matrix(1 0 0 1 0 0)" d="M0 0.02001953L595.2 0.02001953L595.2 0.02001953L595.2 842L595.2 842L0 842z" /></clipPath><clipPath id="14"><path id="" clip-rule="evenodd" transform="matrix(1 0 0 1 0 0)" d="M307.56 461.28L324.12 461.28L324.12 461.28L324.12 477.12L324.12 477.12L307.56 477.12z" /></clipPath><clipPath id="15"><path id="" clip-rule="evenodd" transform="matrix(1 0 0 1 0 0)" d="M306.54 460.32L325.08 460.32L325.08 460.32L325.08 478.14L325.08 478.14L306.54 478.14z" /></clipPath><clipPath id="16"><path id="" clip-rule="evenodd" transform="matrix(1 0 0 1 0 0)" d="M0 0.02001953L595.2 0.02001953L595.2 0.02001953L595.2 842L595.2 842L0 842z" /></clipPath></defs><g transform="matrix(1.333333 0 0 1.333333 0 0)"><g clip-path="url(#1)"><g clip-path="url(#2)"><g clip-path="url(#3)"><path id="244" transform="matrix(1 0 0 -1 0 842)" d="M289.92 753.14L306.48 753.14L306.48 768.98L289.92 768.98z" stroke="none" fill="#FFFFFF" fill-rule="nonzero" /></g></g><g clip-path="url(#4)"><g clip-path="url(#5)"><g clip-path="url(#6)"><g transform="matrix(0.48 0 0 0.48 289.92 73.01996)"><g transform="matrix(1 0 0 1 0 0)"><image x="0" y="0" xlink:href="img_293.png" width="35" height="33" /></g></g></g></g></g><g clip-path="url(#7)"><g clip-path="url(#8)"><path id="279" transform="matrix(1 0 0 -1 0 842)" d="M45.96 417.62L559.38 417.62L559.38 717.86L45.96 717.86z" stroke="none" fill="#FFFFFF" fill-rule="nonzero" /></g></g><g clip-path="url(#9)"><g clip-path="url(#10)"><g clip-path="url(#11)"><g transform="matrix(0.4802776 0 0 0.4796166 45.96 124.14)"><g transform="matrix(1 0 0 1 0 0)"><image x="0" y="0" xlink:href="img_467.png" width="1070" height="626" /></g></g></g></g></g><g clip-path="url(#12)"><g clip-path="url(#13)"><path id="281" transform="matrix(1 0 0 -1 0 842)" d="M307.56 364.88L324.12 364.88L324.12 380.72L307.56 380.72z" stroke="none" fill="#FFFFFF" fill-rule="nonzero" /></g></g><g clip-path="url(#14)"><g clip-path="url(#15)"><g clip-path="url(#16)"><g transform="matrix(0.48 0 0 0.48 307.56 461.28)"><g transform="matrix(1 0 0 1 0 0)"><image x="0" y="0" xlink:href="img_297.png" width="35" height="33" /></g></g></g></g></g></g></g></svg>