<svg xmlns="http://www.w3.org/2000/svg" xmlns:xlink="http://www.w3.org/1999/xlink" id="body_27" preserveAspectRatio="xMinYMin meet" viewBox="0 0 793 1123"><defs><clipPath id="1"><path id="" clip-rule="evenodd" transform="matrix(1 0 0 1 0 0)" d="M0 842L0 0L0 0L595 0L595 0L595 842L595 842L0 842z" /></clipPath><clipPath id="2"><path id="" clip-rule="evenodd" transform="matrix(1 0 0 1 0 0)" d="M215.94 116.04L418.98 116.04L418.98 116.04L418.98 282.06L418.98 282.06L215.94 282.06z" /></clipPath><clipPath id="3"><path id="" clip-rule="evenodd" transform="matrix(1 0 0 1 0 0)" d="M0 0.02001953L595.2 0.02001953L595.2 0.02001953L595.2 842L595.2 842L0 842z" /></clipPath><clipPath id="4"><path id="" clip-rule="evenodd" transform="matrix(1 0 0 1 0 0)" d="M216.96 117.06L417.96 117.06L417.96 117.06L417.96 281.04L417.96 281.04L216.96 281.04z" /></clipPath><clipPath id="5"><path id="" clip-rule="evenodd" transform="matrix(1 0 0 1 0 0)" d="M215.94 116.04L418.98 116.04L418.98 116.04L418.98 282.06L418.98 282.06L215.94 282.06z" /></clipPath><clipPath id="6"><path id="" clip-rule="evenodd" transform="matrix(1 0 0 1 0 0)" d="M0 0.02001953L595.2 0.02001953L595.2 0.02001953L595.2 842L595.2 842L0 842z" /></clipPath><clipPath id="7"><path id="" clip-rule="evenodd" transform="matrix(1 0 0 1 0 0)" d="M215.94 116.04L418.98 116.04L418.98 116.04L418.98 282.06L418.98 282.06L215.94 282.06z" /></clipPath><clipPath id="8"><path id="" clip-rule="evenodd" transform="matrix(1 0 0 1 0 0)" d="M0 0.02001953L595.2 0.02001953L595.2 0.02001953L595.2 842L595.2 842L0 842z" /></clipPath></defs><g transform="matrix(1.333333 0 0 1.333333 0 0)"><g clip-path="url(#1)"><g clip-path="url(#2)"><g clip-path="url(#3)"><path id="270" transform="matrix(1 0 0 -1 0 842)" d="M216.96 560.96L417.96 560.96L417.96 724.94L216.96 724.94z" stroke="none" fill="#FFFFFF" fill-rule="nonzero" /></g></g><g clip-path="url(#4)"><g clip-path="url(#5)"><g clip-path="url(#6)"><path id="271" transform="matrix(1 0 0 -1 0 842)" d="M346.374 626.75L417.225 626.75L417.225 626.75L417.225 669.304L417.225 669.304L346.374 669.304z" stroke="#000000" stroke-width="0.24" fill="#E6E5E5" fill-rule="evenodd" /><path id="272" transform="matrix(1 0 0 -1 0 842)" d="M345.006 625.31L415.857 625.31L415.857 625.31L415.857 667.864L415.857 667.864L345.006 667.864z" stroke="#000000" stroke-width="0.24" fill="#E6E5E5" fill-rule="evenodd" /><path id="273" transform="matrix(1 0 0 -1 0 842)" d="M343.566 623.87L414.417 623.87L414.417 623.87L414.417 666.424L414.417 666.424L343.566 666.424z" stroke="#000000" stroke-width="0.24" fill="#E6E5E5" fill-rule="evenodd" /><path id="274" transform="matrix(1 0 0 -1 0 842)" d="M227.353 682.048L298.204 682.048L298.204 682.048L298.204 724.602L298.204 724.602L227.353 724.602z" stroke="#000000" stroke-width="0.24" fill="#FFFEFE" fill-rule="evenodd" /><path id="275" transform="matrix(1 0 0 -1 0 842)" d="M225.913 680.608L296.764 680.608L296.764 680.608L296.764 723.162L296.764 723.162L225.913 723.162z" stroke="#000000" stroke-width="0.24" fill="#FFFEFE" fill-rule="evenodd" /><path id="276" transform="matrix(1 0 0 -1 0 842)" d="M224.473 679.168L295.324 679.168L295.324 679.168L295.324 721.722L295.324 721.722L224.473 721.722z" stroke="#000000" stroke-width="0.24" fill="#FFFEFE" fill-rule="evenodd" /><path id="277" transform="matrix(1 0 0 -1 0 842)" d="M342.126 622.502L412.977 622.502L412.977 622.502L412.977 665.056L412.977 665.056L342.126 665.056z" stroke="#000000" stroke-width="0.24" fill="#E6E5E5" fill-rule="evenodd" /><path id="278" transform="matrix(1 0 0 -1 0 842)" d="M340.758 620.99L411.609 620.99L411.609 620.99L411.609 663.544L411.609 663.544L340.758 663.544z" stroke="#000000" stroke-width="0.24" fill="#E6E5E5" fill-rule="evenodd" /><path id="279" transform="matrix(1 0 0 -1 0 842)" d="M339.318 619.55L410.169 619.55L410.169 619.55L410.169 662.104L410.169 662.104L339.318 662.104z" stroke="#000000" stroke-width="0.24" fill="#E6E5E5" fill-rule="evenodd" /><path id="280" transform="matrix(1 0 0 -1 0 842)" d="M337.878 618.254L408.729 618.254L408.729 618.254L408.729 660.808L408.729 660.808L337.878 660.808z" stroke="#000000" stroke-width="0.24" fill="#E6E5E5" fill-rule="evenodd" /><path id="281" transform="matrix(1 0 0 -1 0 842)" d="M217.417 561.659L288.268 561.659L288.268 561.659L288.268 604.213L288.268 604.213L217.417 604.213z" stroke="#000000" stroke-width="0.24" fill="#BFBFBF" fill-rule="evenodd" /><path id="282" transform="matrix(1 0 0 -1 0 842)" d="M336.51 617.029L407.361 617.029L407.361 617.029L407.361 659.583L407.361 659.583L336.51 659.583z" stroke="#000000" stroke-width="0.24" fill="#E6E5E5" fill-rule="evenodd" /><path id="283" transform="matrix(1 0 0 -1 0 842)" d="M288.268 638.198L332.187 638.264" stroke="#000000" stroke-width="1" stroke-linecap="round" fill="none" /><path id="284" transform="matrix(1 0 0 -1 0 842)" d="M329.544 641.717L336.463 638.271L336.463 638.271L329.554 634.803L329.554 634.803L329.544 641.717" stroke="none" fill="#000000" fill-rule="evenodd" /><path id="285" transform="matrix(1 0 0 -1 0 842)" d="M217.417 616.958L288.268 616.958L288.268 616.958L288.268 659.512L288.268 659.512L217.417 659.512z" stroke="#000000" stroke-width="0.24" fill="#E6E5E5" fill-rule="evenodd" /><path id="286" transform="matrix(1 0 0 -1 0 842)" d="M288.268 582.9L309.221 582.9L309.221 582.9L309.221 638.198L309.221 638.198L336.438 638.198" stroke="#000000" stroke-width="1" stroke-linecap="round" fill="none" /><path id="287" transform="matrix(1 0 0 -1 0 842)" d="M223.105 677.8L293.956 677.8L293.956 677.8L293.956 720.354L293.956 720.354L223.105 720.354z" stroke="#000000" stroke-width="0.24" fill="#FFFEFE" fill-rule="evenodd" /><path id="288" transform="matrix(1 0 0 -1 0 842)" d="M221.665 676.36L292.516 676.36L292.516 676.36L292.516 718.914L292.516 718.914L221.665 718.914z" stroke="#000000" stroke-width="0.24" fill="#FFFEFE" fill-rule="evenodd" /><path id="289" transform="matrix(1 0 0 -1 0 842)" d="M220.225 674.92L291.076 674.92L291.076 674.92L291.076 717.474L291.076 717.474L220.225 717.474z" stroke="#000000" stroke-width="0.24" fill="#FFFEFE" fill-rule="evenodd" /><path id="290" transform="matrix(1 0 0 -1 0 842)" d="M218.857 673.48L289.708 673.48L289.708 673.48L289.708 716.034L289.708 716.034L218.857 716.034z" stroke="#000000" stroke-width="0.24" fill="#FFFEFE" fill-rule="evenodd" /><path id="291" transform="matrix(1 0 0 -1 0 842)" d="M217.417 672.328L288.268 672.328L288.268 672.328L288.268 714.882L288.268 714.882L217.417 714.882z" stroke="#000000" stroke-width="0.24" fill="#FFFEFE" fill-rule="evenodd" /><path id="292" transform="matrix(1 0 0 -1 0 842)" d="M291.076 696.161L309.221 696.161L309.221 696.161L309.221 638.271L309.221 638.271L336.51 638.271" stroke="#000000" stroke-width="1" stroke-linecap="round" fill="none" /></g></g></g><g clip-path="url(#7)"><g clip-path="url(#8)"></g></g></g></g></svg>