<svg xmlns="http://www.w3.org/2000/svg" xmlns:xlink="http://www.w3.org/1999/xlink" id="body_191" preserveAspectRatio="xMinYMin meet" viewBox="0 0 793 1123"><defs><clipPath id="1"><path id="" clip-rule="evenodd" transform="matrix(1 0 0 1 0 0)" d="M0 842L0 0L0 0L595 0L595 0L595 842L595 842L0 842z" /></clipPath><clipPath id="2"><path id="" clip-rule="evenodd" transform="matrix(1 0 0 1 0 0)" d="M279.96 72.06L298.5 72.06L298.5 72.06L298.5 89.88L298.5 89.88L279.96 89.88z" /></clipPath><clipPath id="3"><path id="" clip-rule="evenodd" transform="matrix(1 0 0 1 0 0)" d="M0 0.02001953L595.2 0.02001953L595.2 0.02001953L595.2 842L595.2 842L0 842z" /></clipPath><clipPath id="4"><path id="" clip-rule="evenodd" transform="matrix(1 0 0 1 0 0)" d="M280.92 73.02002L297.48 73.02002L297.48 73.02002L297.48 88.86005L297.48 88.86005L280.92 88.86005z" /></clipPath><clipPath id="5"><path id="" clip-rule="evenodd" transform="matrix(1 0 0 1 0 0)" d="M279.96 72.06L298.5 72.06L298.5 72.06L298.5 89.88L298.5 89.88L279.96 89.88z" /></clipPath><clipPath id="6"><path id="" clip-rule="evenodd" transform="matrix(1 0 0 1 0 0)" d="M0 0.02001953L595.2 0.02001953L595.2 0.02001953L595.2 842L595.2 842L0 842z" /></clipPath><clipPath id="7"><path id="" clip-rule="evenodd" transform="matrix(1 0 0 1 0 0)" d="M35.94 164.88L527.64 164.88L527.64 164.88L527.64 467.16L527.64 467.16L35.94 467.16z" /></clipPath><clipPath id="8"><path id="" clip-rule="evenodd" transform="matrix(1 0 0 1 0 0)" d="M0 0.02001953L595.2 0.02001953L595.2 0.02001953L595.2 842L595.2 842L0 842z" /></clipPath><clipPath id="9"><path id="" clip-rule="evenodd" transform="matrix(1 0 0 1 0 0)" d="M36.96 165.9L526.62 165.9L526.62 165.9L526.62 466.14L526.62 466.14L36.96 466.14z" /></clipPath><clipPath id="10"><path id="" clip-rule="evenodd" transform="matrix(1 0 0 1 0 0)" d="M35.94 164.88L527.64 164.88L527.64 164.88L527.64 467.16L527.64 467.16L35.94 467.16z" /></clipPath><clipPath id="11"><path id="" clip-rule="evenodd" transform="matrix(1 0 0 1 0 0)" d="M0 0.02001953L595.2 0.02001953L595.2 0.02001953L595.2 842L595.2 842L0 842z" /></clipPath></defs><g transform="matrix(1.333333 0 0 1.333333 0 0)"><g clip-path="url(#1)"><g clip-path="url(#2)"><g clip-path="url(#3)"><path id="274" transform="matrix(1 0 0 -1 0 842)" d="M280.92 753.14L297.48 753.14L297.48 768.98L280.92 768.98z" stroke="none" fill="#FFFFFF" fill-rule="nonzero" /></g></g><g clip-path="url(#4)"><g clip-path="url(#5)"><g clip-path="url(#6)"><g transform="matrix(0.48 0 0 0.48 280.92 73.01996)"><g transform="matrix(1 0 0 1 0 0)"><image x="0" y="0" xlink:href="img_300.png" width="35" height="33" /></g></g></g></g></g><g clip-path="url(#7)"><g clip-path="url(#8)"><path id="302" transform="matrix(1 0 0 -1 0 842)" d="M36.96 375.86L526.62 375.86L526.62 676.1L36.96 676.1z" stroke="none" fill="#FFFFFF" fill-rule="nonzero" /></g></g><g clip-path="url(#9)"><g clip-path="url(#10)"><g clip-path="url(#11)"><g transform="matrix(0.4802745 0 0 0.4796166 36.96 165.9)"><g transform="matrix(1 0 0 1 0 0)"><image x="0" y="0" xlink:href="img_473.png" width="1020" height="626" /></g></g></g></g></g></g></g></svg>