<svg xmlns="http://www.w3.org/2000/svg" xmlns:xlink="http://www.w3.org/1999/xlink" id="body_48" preserveAspectRatio="xMinYMin meet" viewBox="0 0 793 1123"><defs><clipPath id="1"><path id="" clip-rule="evenodd" transform="matrix(1 0 0 1 0 0)" d="M0 842L0 0L0 0L595 0L595 0L595 842L595 842L0 842z" /></clipPath><clipPath id="2"><path id="" clip-rule="evenodd" transform="matrix(1 0 0 1 0 0)" d="M35.94 208.02L54.54 208.02L54.54 208.02L54.54 225.9L54.54 225.9L35.94 225.9z" /></clipPath><clipPath id="3"><path id="" clip-rule="evenodd" transform="matrix(1 0 0 1 0 0)" d="M0 0.02001953L595.2 0.02001953L595.2 0.02001953L595.2 842L595.2 842L0 842z" /></clipPath><clipPath id="4"><path id="" clip-rule="evenodd" transform="matrix(1 0 0 1 0 0)" d="M36.96 209.04L53.52 209.04L53.52 209.04L53.52 224.88L53.52 224.88L36.96 224.88z" /></clipPath><clipPath id="5"><path id="" clip-rule="evenodd" transform="matrix(1 0 0 1 0 0)" d="M35.94 208.02L54.54 208.02L54.54 208.02L54.54 225.9L54.54 225.9L35.94 225.9z" /></clipPath><clipPath id="6"><path id="" clip-rule="evenodd" transform="matrix(1 0 0 1 0 0)" d="M0 0.02001953L595.2 0.02001953L595.2 0.02001953L595.2 842L595.2 842L0 842z" /></clipPath></defs><g transform="matrix(1.333333 0 0 1.333333 0 0)"><g clip-path="url(#1)"><path id="300" transform="matrix(1 0 0 -1 0 842)" d="M35.94 639.98L223.5 639.98L223.5 657.98L35.94 657.98z" stroke="none" fill="#C4DFF7" fill-rule="nonzero" /><path id="308" transform="matrix(1 0 0 -1 0 842)" d="M223.5 657.98L549 657.98L549 639.98L223.5 639.98" stroke="none" fill="#C4DFF7" fill-rule="nonzero" /><path id="1757" transform="matrix(1 0 0 -1 0 842)" d="M35.94 581.72L549 581.72L549 582.2L35.94 582.2z" stroke="none" fill="#000000" fill-rule="nonzero" /><path id="1758" transform="matrix(1 0 0 -1 0 842)" d="M35.94 523.7L549 523.7L549 524.18L35.94 524.18z" stroke="none" fill="#000000" fill-rule="nonzero" /><path id="1759" transform="matrix(1 0 0 -1 0 842)" d="M35.94 489.74L549 489.74L549 490.22L35.94 490.22z" stroke="none" fill="#000000" fill-rule="nonzero" /><path id="1760" transform="matrix(1 0 0 -1 0 842)" d="M35.94 431.72L549 431.72L549 432.2L35.94 432.2z" stroke="none" fill="#000000" fill-rule="nonzero" /><path id="1761" transform="matrix(1 0 0 -1 0 842)" d="M35.94 387.74L549 387.74L549 388.22L35.94 388.22z" stroke="none" fill="#000000" fill-rule="nonzero" /><path id="1762" transform="matrix(1 0 0 -1 0 842)" d="M35.94 329.72L549 329.72L549 330.2L35.94 330.2z" stroke="none" fill="#000000" fill-rule="nonzero" /><path id="1763" transform="matrix(1 0 0 -1 0 842)" d="M35.94 271.7L549 271.7L549 272.18L35.94 272.18z" stroke="none" fill="#000000" fill-rule="nonzero" /><path id="1764" transform="matrix(1 0 0 -1 0 842)" d="M35.94 189.68L549 189.68L549 190.16L35.94 190.16z" stroke="none" fill="#000000" fill-rule="nonzero" /><path id="1765" transform="matrix(1 0 0 -1 0 842)" d="M35.94 131.72L549 131.72L549 132.2L35.94 132.2z" stroke="none" fill="#000000" fill-rule="nonzero" /><path id="1766" transform="matrix(1 0 0 -1 0 842)" d="M35.94 73.16L549 73.16L549 74.66L35.94 74.66z" stroke="none" fill="#000000" fill-rule="nonzero" /><g clip-path="url(#2)"><g clip-path="url(#3)"><path id="1767" transform="matrix(1 0 0 -1 0 842)" d="M36.96 617.12L53.52 617.12L53.52 632.96L36.96 632.96z" stroke="none" fill="#FFFFFF" fill-rule="nonzero" /></g></g><g clip-path="url(#4)"><g clip-path="url(#5)"><g clip-path="url(#6)"><g transform="matrix(0.48 0 0 0.48 36.96 209.04)"><g transform="matrix(1 0 0 1 0 0)"><image x="0" y="0" xlink:href="img_117.png" width="35" height="33" /></g></g></g></g></g></g></g></svg>