<svg xmlns="http://www.w3.org/2000/svg" xmlns:xlink="http://www.w3.org/1999/xlink" id="body_59" preserveAspectRatio="xMinYMin meet" viewBox="0 0 793 1123"><defs><clipPath id="1"><path id="" clip-rule="evenodd" transform="matrix(1 0 0 1 0 0)" d="M0 842L0 0L0 0L595 0L595 0L595 842L595 842L0 842z" /></clipPath></defs><g transform="matrix(1.333333 0 0 1.333333 0 0)"><g clip-path="url(#1)"><path id="535" transform="matrix(1 0 0 -1 0 842)" d="M44.94 751.94L210.12 751.94L210.12 769.94L44.94 769.94z" stroke="none" fill="#C4DFF7" fill-rule="nonzero" /><path id="543" transform="matrix(1 0 0 -1 0 842)" d="M210.12 769.94L558 769.94L558 751.94L210.12 751.94" stroke="none" fill="#C4DFF7" fill-rule="nonzero" /><path id="555" transform="matrix(1 0 0 -1 0 842)" d="M44.94 731.72L558 731.72L558 732.2L44.94 732.2z" stroke="none" fill="#000000" fill-rule="nonzero" /><path id="556" transform="matrix(1 0 0 -1 0 842)" d="M44.94 607.16L558 607.16L558 608.66L44.94 608.66z" stroke="none" fill="#000000" fill-rule="nonzero" /></g></g></svg>