<svg xmlns="http://www.w3.org/2000/svg" xmlns:xlink="http://www.w3.org/1999/xlink" id="body_107" preserveAspectRatio="xMinYMin meet" viewBox="0 0 793 1123"><defs><clipPath id="1"><path id="" clip-rule="evenodd" transform="matrix(1 0 0 1 0 0)" d="M0 842L0 0L0 0L595 0L595 0L595 842L595 842L0 842z" /></clipPath><clipPath id="2"><path id="" clip-rule="evenodd" transform="matrix(1 0 0 1 0 0)" d="M147.66 184.62L161.64 184.62L161.64 184.62L161.64 201.06L161.64 201.06L147.66 201.06z" /></clipPath><clipPath id="3"><path id="" clip-rule="evenodd" transform="matrix(1 0 0 1 0 0)" d="M0 0.02001953L595.2 0.02001953L595.2 0.02001953L595.2 842L595.2 842L0 842z" /></clipPath><clipPath id="4"><path id="" clip-rule="evenodd" transform="matrix(1 0 0 1 0 0)" d="M148.68 187.92L160.62 187.92L160.62 187.92L160.62 197.76L160.62 197.76L148.68 197.76z" /></clipPath><clipPath id="5"><path id="" clip-rule="evenodd" transform="matrix(1 0 0 1 0 0)" d="M147.66 184.62L161.64 184.62L161.64 184.62L161.64 201.06L161.64 201.06L147.66 201.06z" /></clipPath><clipPath id="6"><path id="" clip-rule="evenodd" transform="matrix(1 0 0 1 0 0)" d="M0 0.02001953L595.2 0.02001953L595.2 0.02001953L595.2 842L595.2 842L0 842z" /></clipPath><clipPath id="7"><path id="" clip-rule="evenodd" transform="matrix(1 0 0 1 0 0)" d="M147.66 184.62L161.64 184.62L161.64 184.62L161.64 201.06L161.64 201.06L147.66 201.06z" /></clipPath><clipPath id="8"><path id="" clip-rule="evenodd" transform="matrix(1 0 0 1 0 0)" d="M0 0.02001953L595.2 0.02001953L595.2 0.02001953L595.2 842L595.2 842L0 842z" /></clipPath><clipPath id="9"><path id="" clip-rule="evenodd" transform="matrix(1 0 0 1 0 0)" d="M149.46 185.64L159.78 185.64L159.78 185.64L159.78 200.04L159.78 200.04L149.46 200.04z" /></clipPath><clipPath id="10"><path id="" clip-rule="evenodd" transform="matrix(1 0 0 1 0 0)" d="M147.66 184.62L161.64 184.62L161.64 184.62L161.64 201.06L161.64 201.06L147.66 201.06z" /></clipPath><clipPath id="11"><path id="" clip-rule="evenodd" transform="matrix(1 0 0 1 0 0)" d="M0 0.02001953L595.2 0.02001953L595.2 0.02001953L595.2 842L595.2 842L0 842z" /></clipPath></defs><g transform="matrix(1.333333 0 0 1.333333 0 0)"><g clip-path="url(#1)"><path id="1903" transform="matrix(1 0 0 -1 0 842)" d="M44.94 751.94L181.44 751.94L181.44 769.94L44.94 769.94z" stroke="none" fill="#C4DFF7" fill-rule="nonzero" /><path id="1913" transform="matrix(1 0 0 -1 0 842)" d="M181.44 769.94L558 769.94L558 751.94L181.44 751.94" stroke="none" fill="#C4DFF7" fill-rule="nonzero" /><path id="1925" transform="matrix(1 0 0 -1 0 842)" d="M44.94 703.7L558 703.7L558 704.18L44.94 704.18z" stroke="none" fill="#000000" fill-rule="nonzero" /><path id="1926" transform="matrix(1 0 0 -1 0 842)" d="M44.94 685.7L558 685.7L558 686.18L44.94 686.18z" stroke="none" fill="#000000" fill-rule="nonzero" /><path id="1927" transform="matrix(1 0 0 -1 0 842)" d="M44.94 637.7L558 637.7L558 638.18L44.94 638.18z" stroke="none" fill="#000000" fill-rule="nonzero" /><path id="1928" transform="matrix(1 0 0 -1 0 842)" d="M44.94 589.7L558 589.7L558 590.18L44.94 590.18z" stroke="none" fill="#000000" fill-rule="nonzero" /><path id="1929" transform="matrix(1 0 0 -1 0 842)" d="M44.94 541.7L558 541.7L558 542.18L44.94 542.18z" stroke="none" fill="#000000" fill-rule="nonzero" /><path id="1930" transform="matrix(1 0 0 -1 0 842)" d="M44.94 388.7L558 388.7L558 389.18L44.94 389.18z" stroke="none" fill="#000000" fill-rule="nonzero" /><path id="1931" transform="matrix(1 0 0 -1 0 842)" d="M44.94 368.72L558 368.72L558 369.2L44.94 369.2z" stroke="none" fill="#000000" fill-rule="nonzero" /><path id="1932" transform="matrix(1 0 0 -1 0 842)" d="M44.94 306.74L558 306.74L558 307.22L44.94 307.22z" stroke="none" fill="#000000" fill-rule="nonzero" /><path id="1933" transform="matrix(1 0 0 -1 0 842)" d="M44.94 288.68L558 288.68L558 289.16L44.94 289.16z" stroke="none" fill="#000000" fill-rule="nonzero" /><path id="1934" transform="matrix(1 0 0 -1 0 842)" d="M44.94 254.72L558 254.72L558 255.2L44.94 255.2z" stroke="none" fill="#000000" fill-rule="nonzero" /><path id="1935" transform="matrix(1 0 0 -1 0 842)" d="M44.94 192.14L558 192.14L558 193.64L44.94 193.64z" stroke="none" fill="#000000" fill-rule="nonzero" /><g clip-path="url(#2)"><g clip-path="url(#3)"><path id="1936" transform="matrix(1 0 0 -1 0 842)" d="M148.68 644.24L160.62 644.24L160.62 654.08L148.68 654.08z" stroke="none" fill="#FFFFFF" fill-rule="nonzero" /></g></g><g clip-path="url(#4)"><g clip-path="url(#5)"><g clip-path="url(#6)"><g transform="matrix(0.4808 0 0 0.4685715 148.68 187.92)"><g transform="matrix(1 0 0 1 0 0)"><image x="0" y="0" xlink:href="img_261.png" width="25" height="21" /></g></g></g></g></g><g clip-path="url(#7)"><g clip-path="url(#8)"><path id="1938" transform="matrix(1 0 0 -1 0 842)" d="M149.46 641.96L159.78 641.96L159.78 656.36L149.46 656.36z" stroke="none" fill="#FFFFFF" fill-rule="nonzero" /></g></g><g clip-path="url(#9)"><g clip-path="url(#10)"><g clip-path="url(#11)"><g transform="matrix(0.48 0 0 0.48 149.46 185.64)"><g transform="matrix(1 0 0 1 0 0)"><image x="0" y="0" xlink:href="img_262.png" width="22" height="30" /></g></g></g></g></g></g></g></svg>