<svg xmlns="http://www.w3.org/2000/svg" xmlns:xlink="http://www.w3.org/1999/xlink" id="body_146" preserveAspectRatio="xMinYMin meet" viewBox="0 0 793 1123"><defs><clipPath id="1"><path id="" clip-rule="evenodd" transform="matrix(1 0 0 1 0 0)" d="M0 842L0 0L0 0L595 0L595 0L595 842L595 842L0 842z" /></clipPath><clipPath id="2"><path id="" clip-rule="evenodd" transform="matrix(1 0 0 1 0 0)" d="M492.42 100.5L507.18 100.5L507.18 100.5L507.18 113.04L507.18 113.04L492.42 113.04z" /></clipPath><clipPath id="3"><path id="" clip-rule="evenodd" transform="matrix(1 0 0 1 0 0)" d="M0 0.02001953L595.2 0.02001953L595.2 0.02001953L595.2 842L595.2 842L0 842z" /></clipPath><clipPath id="4"><path id="" clip-rule="evenodd" transform="matrix(1 0 0 1 0 0)" d="M493.44 101.46L506.16 101.46L506.16 101.46L506.16 112.02L506.16 112.02L493.44 112.02z" /></clipPath><clipPath id="5"><path id="" clip-rule="evenodd" transform="matrix(1 0 0 1 0 0)" d="M492.42 100.5L507.18 100.5L507.18 100.5L507.18 113.04L507.18 113.04L492.42 113.04z" /></clipPath><clipPath id="6"><path id="" clip-rule="evenodd" transform="matrix(1 0 0 1 0 0)" d="M0 0.02001953L595.2 0.02001953L595.2 0.02001953L595.2 842L595.2 842L0 842z" /></clipPath><clipPath id="7"><path id="" clip-rule="evenodd" transform="matrix(1 0 0 1 0 0)" d="M215.94 144.06L378.3 144.06L378.3 144.06L378.3 397.56L378.3 397.56L215.94 397.56z" /></clipPath><clipPath id="8"><path id="" clip-rule="evenodd" transform="matrix(1 0 0 1 0 0)" d="M0 0.02001953L595.2 0.02001953L595.2 0.02001953L595.2 842L595.2 842L0 842z" /></clipPath><clipPath id="9"><path id="" clip-rule="evenodd" transform="matrix(1 0 0 1 0 0)" d="M216.96 145.02L377.28 145.02L377.28 145.02L377.28 396.54L377.28 396.54L216.96 396.54z" /></clipPath><clipPath id="10"><path id="" clip-rule="evenodd" transform="matrix(1 0 0 1 0 0)" d="M215.94 144.06L378.3 144.06L378.3 144.06L378.3 397.56L378.3 397.56L215.94 397.56z" /></clipPath><clipPath id="11"><path id="" clip-rule="evenodd" transform="matrix(1 0 0 1 0 0)" d="M0 0.02001953L595.2 0.02001953L595.2 0.02001953L595.2 842L595.2 842L0 842z" /></clipPath></defs><g transform="matrix(1.333333 0 0 1.333333 0 0)"><g clip-path="url(#1)"><g clip-path="url(#2)"><g clip-path="url(#3)"><path id="974" transform="matrix(1 0 0 -1 0 842)" d="M493.44 729.98L506.16 729.98L506.16 740.54L493.44 740.54z" stroke="none" fill="#FFFFFF" fill-rule="nonzero" /></g></g><g clip-path="url(#4)"><g clip-path="url(#5)"><g clip-path="url(#6)"><g transform="matrix(0.48 0 0 0.48 493.44 101.46)"><g transform="matrix(1 0 0 1 0 0)"><image x="0" y="0" xlink:href="img_365.png" width="27" height="22" /></g></g></g></g></g><g clip-path="url(#7)"><g clip-path="url(#8)"><path id="976" transform="matrix(1 0 0 -1 0 842)" d="M216.96 445.46L377.28 445.46L377.28 696.98L216.96 696.98z" stroke="none" fill="#FFFFFF" fill-rule="nonzero" /></g></g><g clip-path="url(#9)"><g clip-path="url(#10)"><g clip-path="url(#11)"><g transform="matrix(0.48 0 0 0.48 216.96 145.02)"><g transform="matrix(1 0 0 1 0 0)"><image x="0" y="0" xlink:href="img_366.png" width="334" height="524" /></g></g></g></g></g></g></g></svg>