<svg xmlns="http://www.w3.org/2000/svg" xmlns:xlink="http://www.w3.org/1999/xlink" id="body_126" preserveAspectRatio="xMinYMin meet" viewBox="0 0 793 1123"><defs><clipPath id="1"><path id="" clip-rule="evenodd" transform="matrix(1 0 0 1 0 0)" d="M0 842L0 0L0 0L595 0L595 0L595 842L595 842L0 842z" /></clipPath><clipPath id="2"><path id="" clip-rule="evenodd" transform="matrix(1 0 0 1 0 0)" d="M515.88 262.86L526.08 262.86L526.08 262.86L526.08 273.06L526.08 273.06L515.88 273.06z" /></clipPath><clipPath id="3"><path id="" clip-rule="evenodd" transform="matrix(1 0 0 1 0 0)" d="M0 0.02001953L595.2 0.02001953L595.2 0.02001953L595.2 842L595.2 842L0 842z" /></clipPath><clipPath id="4"><path id="" clip-rule="evenodd" transform="matrix(1 0 0 1 0 0)" d="M516.9 263.88L525.06 263.88L525.06 263.88L525.06 272.04L525.06 272.04L516.9 272.04z" /></clipPath><clipPath id="5"><path id="" clip-rule="evenodd" transform="matrix(1 0 0 1 0 0)" d="M515.88 262.86L526.08 262.86L526.08 262.86L526.08 273.06L526.08 273.06L515.88 273.06z" /></clipPath><clipPath id="6"><path id="" clip-rule="evenodd" transform="matrix(1 0 0 1 0 0)" d="M0 0.02001953L595.2 0.02001953L595.2 0.02001953L595.2 842L595.2 842L0 842z" /></clipPath><clipPath id="7"><path id="" clip-rule="evenodd" transform="matrix(1 0 0 1 0 0)" d="M215.94 292.02L367.02 292.02L367.02 292.02L367.02 459.66L367.02 459.66L215.94 459.66z" /></clipPath><clipPath id="8"><path id="" clip-rule="evenodd" transform="matrix(1 0 0 1 0 0)" d="M0 0.02001953L595.2 0.02001953L595.2 0.02001953L595.2 842L595.2 842L0 842z" /></clipPath><clipPath id="9"><path id="" clip-rule="evenodd" transform="matrix(1 0 0 1 0 0)" d="M216.96 293.04L366 293.04L366 293.04L366 458.64L366 458.64L216.96 458.64z" /></clipPath><clipPath id="10"><path id="" clip-rule="evenodd" transform="matrix(1 0 0 1 0 0)" d="M215.94 292.02L367.02 292.02L367.02 292.02L367.02 459.66L367.02 459.66L215.94 459.66z" /></clipPath><clipPath id="11"><path id="" clip-rule="evenodd" transform="matrix(1 0 0 1 0 0)" d="M0 0.02001953L595.2 0.02001953L595.2 0.02001953L595.2 842L595.2 842L0 842z" /></clipPath><clipPath id="12"><path id="" clip-rule="evenodd" transform="matrix(1 0 0 1 0 0)" d="M215.94 623.64L225.42 623.64L225.42 623.64L225.42 633.06L225.42 633.06L215.94 633.06z" /></clipPath><clipPath id="13"><path id="" clip-rule="evenodd" transform="matrix(1 0 0 1 0 0)" d="M0 0.02001953L595.2 0.02001953L595.2 0.02001953L595.2 842L595.2 842L0 842z" /></clipPath><clipPath id="14"><path id="" clip-rule="evenodd" transform="matrix(1 0 0 1 0 0)" d="M216.96 624.66L224.4 624.66L224.4 624.66L224.4 632.1L224.4 632.1L216.96 632.1z" /></clipPath><clipPath id="15"><path id="" clip-rule="evenodd" transform="matrix(1 0 0 1 0 0)" d="M215.94 623.64L225.42 623.64L225.42 623.64L225.42 633.06L225.42 633.06L215.94 633.06z" /></clipPath><clipPath id="16"><path id="" clip-rule="evenodd" transform="matrix(1 0 0 1 0 0)" d="M0 0.02001953L595.2 0.02001953L595.2 0.02001953L595.2 842L595.2 842L0 842z" /></clipPath><clipPath id="17"><path id="" clip-rule="evenodd" transform="matrix(1 0 0 1 0 0)" d="M215.94 657.66L226.14 657.66L226.14 657.66L226.14 667.8L226.14 667.8L215.94 667.8z" /></clipPath><clipPath id="18"><path id="" clip-rule="evenodd" transform="matrix(1 0 0 1 0 0)" d="M0 0.02001953L595.2 0.02001953L595.2 0.02001953L595.2 842L595.2 842L0 842z" /></clipPath><clipPath id="19"><path id="" clip-rule="evenodd" transform="matrix(1 0 0 1 0 0)" d="M216.96 658.68L225.12 658.68L225.12 658.68L225.12 666.84L225.12 666.84L216.96 666.84z" /></clipPath><clipPath id="20"><path id="" clip-rule="evenodd" transform="matrix(1 0 0 1 0 0)" d="M215.94 657.66L226.14 657.66L226.14 657.66L226.14 667.8L226.14 667.8L215.94 667.8z" /></clipPath><clipPath id="21"><path id="" clip-rule="evenodd" transform="matrix(1 0 0 1 0 0)" d="M0 0.02001953L595.2 0.02001953L595.2 0.02001953L595.2 842L595.2 842L0 842z" /></clipPath><clipPath id="22"><path id="" clip-rule="evenodd" transform="matrix(1 0 0 1 0 0)" d="M215.94 677.82L226.14 677.82L226.14 677.82L226.14 687.96L226.14 687.96L215.94 687.96z" /></clipPath><clipPath id="23"><path id="" clip-rule="evenodd" transform="matrix(1 0 0 1 0 0)" d="M0 0.02001953L595.2 0.02001953L595.2 0.02001953L595.2 842L595.2 842L0 842z" /></clipPath><clipPath id="24"><path id="" clip-rule="evenodd" transform="matrix(1 0 0 1 0 0)" d="M216.96 678.78L225.12 678.78L225.12 678.78L225.12 686.94L225.12 686.94L216.96 686.94z" /></clipPath><clipPath id="25"><path id="" clip-rule="evenodd" transform="matrix(1 0 0 1 0 0)" d="M215.94 677.82L226.14 677.82L226.14 677.82L226.14 687.96L226.14 687.96L215.94 687.96z" /></clipPath><clipPath id="26"><path id="" clip-rule="evenodd" transform="matrix(1 0 0 1 0 0)" d="M0 0.02001953L595.2 0.02001953L595.2 0.02001953L595.2 842L595.2 842L0 842z" /></clipPath><clipPath id="27"><path id="" clip-rule="evenodd" transform="matrix(1 0 0 1 0 0)" d="M215.94 711.78L226.14 711.78L226.14 711.78L226.14 721.98L226.14 721.98L215.94 721.98z" /></clipPath><clipPath id="28"><path id="" clip-rule="evenodd" transform="matrix(1 0 0 1 0 0)" d="M0 0.02001953L595.2 0.02001953L595.2 0.02001953L595.2 842L595.2 842L0 842z" /></clipPath><clipPath id="29"><path id="" clip-rule="evenodd" transform="matrix(1 0 0 1 0 0)" d="M216.96 712.8L225.12 712.8L225.12 712.8L225.12 720.96L225.12 720.96L216.96 720.96z" /></clipPath><clipPath id="30"><path id="" clip-rule="evenodd" transform="matrix(1 0 0 1 0 0)" d="M215.94 711.78L226.14 711.78L226.14 711.78L226.14 721.98L226.14 721.98L215.94 721.98z" /></clipPath><clipPath id="31"><path id="" clip-rule="evenodd" transform="matrix(1 0 0 1 0 0)" d="M0 0.02001953L595.2 0.02001953L595.2 0.02001953L595.2 842L595.2 842L0 842z" /></clipPath><clipPath id="32"><path id="" clip-rule="evenodd" transform="matrix(1 0 0 1 0 0)" d="M215.94 731.94L226.14 731.94L226.14 731.94L226.14 742.86L226.14 742.86L215.94 742.86z" /></clipPath><clipPath id="33"><path id="" clip-rule="evenodd" transform="matrix(1 0 0 1 0 0)" d="M0 0.02001953L595.2 0.02001953L595.2 0.02001953L595.2 842L595.2 842L0 842z" /></clipPath><clipPath id="34"><path id="" clip-rule="evenodd" transform="matrix(1 0 0 1 0 0)" d="M216.96 732.96L225.12 732.96L225.12 732.96L225.12 741.84L225.12 741.84L216.96 741.84z" /></clipPath><clipPath id="35"><path id="" clip-rule="evenodd" transform="matrix(1 0 0 1 0 0)" d="M215.94 731.94L226.14 731.94L226.14 731.94L226.14 742.86L226.14 742.86L215.94 742.86z" /></clipPath><clipPath id="36"><path id="" clip-rule="evenodd" transform="matrix(1 0 0 1 0 0)" d="M0 0.02001953L595.2 0.02001953L595.2 0.02001953L595.2 842L595.2 842L0 842z" /></clipPath></defs><g transform="matrix(1.333333 0 0 1.333333 0 0)"><g clip-path="url(#1)"><g clip-path="url(#2)"><g clip-path="url(#3)"><path id="873" transform="matrix(1 0 0 -1 0 842)" d="M516.9 569.96L525.06 569.96L525.06 578.12L516.9 578.12z" stroke="none" fill="#FFFFFF" fill-rule="nonzero" /></g></g><g clip-path="url(#4)"><g clip-path="url(#5)"><g clip-path="url(#6)"><g transform="matrix(0.48 0 0 0.48 516.9 263.88)"><g transform="matrix(1 0 0 1 0 0)"><image x="0" y="0" xlink:href="img_324.png" width="17" height="17" /></g></g></g></g></g><g clip-path="url(#7)"><g clip-path="url(#8)"><path id="875" transform="matrix(1 0 0 -1 0 842)" d="M216.96 383.36L366 383.36L366 548.96L216.96 548.96z" stroke="none" fill="#FFFFFF" fill-rule="nonzero" /></g></g><g clip-path="url(#9)"><g clip-path="url(#10)"><g clip-path="url(#11)"><g transform="matrix(0.48 0 0 0.48 216.96 293.04)"><g transform="matrix(1 0 0 1 0 0)"><image x="0" y="0" xlink:href="img_325.png" width="311" height="345" /></g></g></g></g></g><path id="877" transform="matrix(1 0 0 -1 0 842)" d="M215.94 224.36L254.52 224.36L254.52 242.36L215.94 242.36z" stroke="none" fill="#C4DFF7" fill-rule="nonzero" /><path id="883" transform="matrix(1 0 0 -1 0 842)" d="M254.52 224.36L549 224.36L549 242.36L254.52 242.36z" stroke="none" fill="#C4DFF7" fill-rule="nonzero" /><path id="1110" transform="matrix(1 0 0 -1 0 842)" d="M215.94 190.1L549 190.1L549 190.58L215.94 190.58z" stroke="none" fill="#000000" fill-rule="nonzero" /><path id="1111" transform="matrix(1 0 0 -1 0 842)" d="M215.94 169.94L549 169.94L549 170.42L215.94 170.42z" stroke="none" fill="#000000" fill-rule="nonzero" /><path id="1112" transform="matrix(1 0 0 -1 0 842)" d="M215.94 135.98L549 135.98L549 136.46L215.94 136.46z" stroke="none" fill="#000000" fill-rule="nonzero" /><path id="1113" transform="matrix(1 0 0 -1 0 842)" d="M215.94 115.82L549 115.82L549 116.3L215.94 116.3z" stroke="none" fill="#000000" fill-rule="nonzero" /><path id="1114" transform="matrix(1 0 0 -1 0 842)" d="M215.94 94.4L549 94.4L549 95.9L215.94 95.9z" stroke="none" fill="#000000" fill-rule="nonzero" /><g clip-path="url(#12)"><g clip-path="url(#13)"><path id="1115" transform="matrix(1 0 0 -1 0 842)" d="M216.96 209.9L224.4 209.9L224.4 217.34L216.96 217.34z" stroke="none" fill="#FFFFFF" fill-rule="nonzero" /></g></g><g clip-path="url(#14)"><g clip-path="url(#15)"><g clip-path="url(#16)"><g transform="matrix(0.48 0 0 0.465 216.96 624.66)"><g transform="matrix(1 0 0 1 0 0)"><image x="0" y="0" xlink:href="img_246.png" width="16" height="16" /></g></g></g></g></g><g clip-path="url(#17)"><g clip-path="url(#18)"><path id="1117" transform="matrix(1 0 0 -1 0 842)" d="M216.96 175.16L225.12 175.16L225.12 183.32L216.96 183.32z" stroke="none" fill="#FFFFFF" fill-rule="nonzero" /></g></g><g clip-path="url(#19)"><g clip-path="url(#20)"><g clip-path="url(#21)"><g transform="matrix(0.48 0 0 0.48 216.96 658.68)"><g transform="matrix(1 0 0 1 0 0)"><image x="0" y="0" xlink:href="img_324.png" width="17" height="17" /></g></g></g></g></g><g clip-path="url(#22)"><g clip-path="url(#23)"><path id="1119" transform="matrix(1 0 0 -1 0 842)" d="M216.96 155.06L225.12 155.06L225.12 163.22L216.96 163.22z" stroke="none" fill="#FFFFFF" fill-rule="nonzero" /></g></g><g clip-path="url(#24)"><g clip-path="url(#25)"><g clip-path="url(#26)"><g transform="matrix(0.48 0 0 0.48 216.96 678.78)"><g transform="matrix(1 0 0 1 0 0)"><image x="0" y="0" xlink:href="img_326.png" width="17" height="17" /></g></g></g></g></g><g clip-path="url(#27)"><g clip-path="url(#28)"><path id="1121" transform="matrix(1 0 0 -1 0 842)" d="M216.96 121.04L225.12 121.04L225.12 129.2L216.96 129.2z" stroke="none" fill="#FFFFFF" fill-rule="nonzero" /></g></g><g clip-path="url(#29)"><g clip-path="url(#30)"><g clip-path="url(#31)"><g transform="matrix(0.48 0 0 0.48 216.96 712.8)"><g transform="matrix(1 0 0 1 0 0)"><image x="0" y="0" xlink:href="img_327.png" width="17" height="17" /></g></g></g></g></g><g clip-path="url(#32)"><g clip-path="url(#33)"><path id="1123" transform="matrix(1 0 0 -1 0 842)" d="M216.96 100.16L225.12 100.16L225.12 109.04L216.96 109.04z" stroke="none" fill="#FFFFFF" fill-rule="nonzero" /></g></g><g clip-path="url(#34)"><g clip-path="url(#35)"><g clip-path="url(#36)"><g transform="matrix(0.48 0 0 0.4673684 216.96 732.96)"><g transform="matrix(1 0 0 1 0 0)"><image x="0" y="0" xlink:href="img_328.png" width="17" height="19" /></g></g></g></g></g></g></g></svg>