<svg xmlns="http://www.w3.org/2000/svg" xmlns:xlink="http://www.w3.org/1999/xlink" id="body_204" preserveAspectRatio="xMinYMin meet" viewBox="0 0 793 1123"><defs><clipPath id="1"><path id="" clip-rule="evenodd" transform="matrix(1 0 0 1 0 0)" d="M0 842L0 0L0 0L595 0L595 0L595 842L595 842L0 842z" /></clipPath><clipPath id="2"><path id="" clip-rule="evenodd" transform="matrix(1 0 0 1 0 0)" d="M288.06 100.68L306.6 100.68L306.6 100.68L306.6 118.56L306.6 118.56L288.06 118.56z" /></clipPath><clipPath id="3"><path id="" clip-rule="evenodd" transform="matrix(1 0 0 1 0 0)" d="M0 0.02001953L595.2 0.02001953L595.2 0.02001953L595.2 842L595.2 842L0 842z" /></clipPath><clipPath id="4"><path id="" clip-rule="evenodd" transform="matrix(1 0 0 1 0 0)" d="M289.02 101.7L305.58 101.7L305.58 101.7L305.58 117.54L305.58 117.54L289.02 117.54z" /></clipPath><clipPath id="5"><path id="" clip-rule="evenodd" transform="matrix(1 0 0 1 0 0)" d="M288.06 100.68L306.6 100.68L306.6 100.68L306.6 118.56L306.6 118.56L288.06 118.56z" /></clipPath><clipPath id="6"><path id="" clip-rule="evenodd" transform="matrix(1 0 0 1 0 0)" d="M0 0.02001953L595.2 0.02001953L595.2 0.02001953L595.2 842L595.2 842L0 842z" /></clipPath><clipPath id="7"><path id="" clip-rule="evenodd" transform="matrix(1 0 0 1 0 0)" d="M224.94 290.04L525.78 290.04L525.78 290.04L525.78 401.46L525.78 401.46L224.94 401.46z" /></clipPath><clipPath id="8"><path id="" clip-rule="evenodd" transform="matrix(1 0 0 1 0 0)" d="M0 0.02001953L595.2 0.02001953L595.2 0.02001953L595.2 842L595.2 842L0 842z" /></clipPath><clipPath id="9"><path id="" clip-rule="evenodd" transform="matrix(1 0 0 1 0 0)" d="M225.96 291.06L524.76 291.06L524.76 291.06L524.76 400.5L524.76 400.5L225.96 400.5z" /></clipPath><clipPath id="10"><path id="" clip-rule="evenodd" transform="matrix(1 0 0 1 0 0)" d="M224.94 290.04L525.78 290.04L525.78 290.04L525.78 401.46L525.78 401.46L224.94 401.46z" /></clipPath><clipPath id="11"><path id="" clip-rule="evenodd" transform="matrix(1 0 0 1 0 0)" d="M0 0.02001953L595.2 0.02001953L595.2 0.02001953L595.2 842L595.2 842L0 842z" /></clipPath><clipPath id="12"><path id="" clip-rule="evenodd" transform="matrix(1 0 0 1 0 0)" d="M270.9 626.64L289.5 626.64L289.5 626.64L289.5 644.52L289.5 644.52L270.9 644.52z" /></clipPath><clipPath id="13"><path id="" clip-rule="evenodd" transform="matrix(1 0 0 1 0 0)" d="M0 0.02001953L595.2 0.02001953L595.2 0.02001953L595.2 842L595.2 842L0 842z" /></clipPath><clipPath id="14"><path id="" clip-rule="evenodd" transform="matrix(1 0 0 1 0 0)" d="M271.92 627.66L288.48 627.66L288.48 627.66L288.48 643.5L288.48 643.5L271.92 643.5z" /></clipPath><clipPath id="15"><path id="" clip-rule="evenodd" transform="matrix(1 0 0 1 0 0)" d="M270.9 626.64L289.5 626.64L289.5 626.64L289.5 644.52L289.5 644.52L270.9 644.52z" /></clipPath><clipPath id="16"><path id="" clip-rule="evenodd" transform="matrix(1 0 0 1 0 0)" d="M0 0.02001953L595.2 0.02001953L595.2 0.02001953L595.2 842L595.2 842L0 842z" /></clipPath><clipPath id="17"><path id="" clip-rule="evenodd" transform="matrix(1 0 0 1 0 0)" d="M288.54 742.02L307.08 742.02L307.08 742.02L307.08 759.84L307.08 759.84L288.54 759.84z" /></clipPath><clipPath id="18"><path id="" clip-rule="evenodd" transform="matrix(1 0 0 1 0 0)" d="M0 0.02001953L595.2 0.02001953L595.2 0.02001953L595.2 842L595.2 842L0 842z" /></clipPath><clipPath id="19"><path id="" clip-rule="evenodd" transform="matrix(1 0 0 1 0 0)" d="M289.56 742.98L306.12 742.98L306.12 742.98L306.12 758.82L306.12 758.82L289.56 758.82z" /></clipPath><clipPath id="20"><path id="" clip-rule="evenodd" transform="matrix(1 0 0 1 0 0)" d="M288.54 742.02L307.08 742.02L307.08 742.02L307.08 759.84L307.08 759.84L288.54 759.84z" /></clipPath><clipPath id="21"><path id="" clip-rule="evenodd" transform="matrix(1 0 0 1 0 0)" d="M0 0.02001953L595.2 0.02001953L595.2 0.02001953L595.2 842L595.2 842L0 842z" /></clipPath></defs><g transform="matrix(1.333333 0 0 1.333333 0 0)"><g clip-path="url(#1)"><g clip-path="url(#2)"><g clip-path="url(#3)"><path id="1173" transform="matrix(1 0 0 -1 0 842)" d="M289.02 724.46L305.58 724.46L305.58 740.3L289.02 740.3z" stroke="none" fill="#FFFFFF" fill-rule="nonzero" /></g></g><g clip-path="url(#4)"><g clip-path="url(#5)"><g clip-path="url(#6)"><g transform="matrix(0.48 0 0 0.48 289.02 101.7)"><g transform="matrix(1 0 0 1 0 0)"><image x="0" y="0" xlink:href="img_313.png" width="35" height="33" /></g></g></g></g></g><g clip-path="url(#7)"><g clip-path="url(#8)"><path id="1175" transform="matrix(1 0 0 -1 0 842)" d="M225.96 441.5L524.76 441.5L524.76 550.94L225.96 550.94z" stroke="none" fill="#FFFFFF" fill-rule="nonzero" /></g></g><g clip-path="url(#9)"><g clip-path="url(#10)"><g clip-path="url(#11)"><g transform="matrix(0.48 0 0 0.48 225.96 291.06)"><g transform="matrix(1 0 0 1 0 0)"><image x="0" y="0" xlink:href="img_507.png" width="623" height="228" /></g></g></g></g></g><g clip-path="url(#12)"><g clip-path="url(#13)"><path id="1177" transform="matrix(1 0 0 -1 0 842)" d="M271.92 198.5L288.48 198.5L288.48 214.34L271.92 214.34z" stroke="none" fill="#FFFFFF" fill-rule="nonzero" /></g></g><g clip-path="url(#14)"><g clip-path="url(#15)"><g clip-path="url(#16)"><g transform="matrix(0.48 0 0 0.48 271.92 627.66)"><g transform="matrix(1 0 0 1 0 0)"><image x="0" y="0" xlink:href="img_288.png" width="35" height="33" /></g></g></g></g></g><g clip-path="url(#17)"><g clip-path="url(#18)"><path id="1179" transform="matrix(1 0 0 -1 0 842)" d="M289.56 83.18L306.12 83.18L306.12 99.02L289.56 99.02z" stroke="none" fill="#FFFFFF" fill-rule="nonzero" /></g></g><g clip-path="url(#19)"><g clip-path="url(#20)"><g clip-path="url(#21)"><g transform="matrix(0.48 0 0 0.48 289.56 742.98)"><g transform="matrix(1 0 0 1 0 0)"><image x="0" y="0" xlink:href="img_128.png" width="35" height="33" /></g></g></g></g></g></g></g></svg>