<svg xmlns="http://www.w3.org/2000/svg" xmlns:xlink="http://www.w3.org/1999/xlink" id="body_110" preserveAspectRatio="xMinYMin meet" viewBox="0 0 793 1123"><defs><clipPath id="1"><path id="" clip-rule="evenodd" transform="matrix(1 0 0 1 0 0)" d="M0 842L0 0L0 0L595 0L595 0L595 842L595 842L0 842z" /></clipPath><clipPath id="2"><path id="" clip-rule="evenodd" transform="matrix(1 0 0 1 0 0)" d="M338.64 256.02L382.74 256.02L382.74 256.02L382.74 293.1L382.74 293.1L338.64 293.1z" /></clipPath><clipPath id="3"><path id="" clip-rule="evenodd" transform="matrix(1 0 0 1 0 0)" d="M0 0.02001953L595.2 0.02001953L595.2 0.02001953L595.2 842L595.2 842L0 842z" /></clipPath><clipPath id="4"><path id="" clip-rule="evenodd" transform="matrix(1 0 0 1 0 0)" d="M330 438.12L391.38 438.12L391.38 438.12L391.38 470.7L391.38 470.7L330 470.7z" /></clipPath><clipPath id="5"><path id="" clip-rule="evenodd" transform="matrix(1 0 0 1 0 0)" d="M0 0.02001953L595.2 0.02001953L595.2 0.02001953L595.2 842L595.2 842L0 842z" /></clipPath><clipPath id="6"><path id="" clip-rule="evenodd" transform="matrix(1 0 0 1 0 0)" d="M327.36 525.66L394.02 525.66L394.02 525.66L394.02 558.24L394.02 558.24L327.36 558.24z" /></clipPath><clipPath id="7"><path id="" clip-rule="evenodd" transform="matrix(1 0 0 1 0 0)" d="M0 0.02001953L595.2 0.02001953L595.2 0.02001953L595.2 842L595.2 842L0 842z" /></clipPath></defs><g transform="matrix(1.333333 0 0 1.333333 0 0)"><g clip-path="url(#1)"><path id="1563" transform="matrix(1 0 0 -1 0 842)" d="M35.94 751.94L172.44 751.94L172.44 769.94L35.94 769.94z" stroke="none" fill="#C4DFF7" fill-rule="nonzero" /><path id="1573" transform="matrix(1 0 0 -1 0 842)" d="M172.44 769.94L549 769.94L549 751.94L172.44 751.94" stroke="none" fill="#C4DFF7" fill-rule="nonzero" /><path id="1585" transform="matrix(1 0 0 -1 0 842)" d="M35.94 279.56L549 279.56L549 280.04L35.94 280.04z" stroke="none" fill="#000000" fill-rule="nonzero" /><path id="1586" transform="matrix(1 0 0 -1 0 842)" d="M35.94 192.98L549 192.98L549 194.48L35.94 194.48z" stroke="none" fill="#000000" fill-rule="nonzero" /><g clip-path="url(#2)"><g clip-path="url(#3)"></g></g><g clip-path="url(#4)"><g clip-path="url(#5)"></g></g><g clip-path="url(#6)"><g clip-path="url(#7)"></g></g></g></g></svg>