<svg xmlns="http://www.w3.org/2000/svg" xmlns:xlink="http://www.w3.org/1999/xlink" id="body_220" preserveAspectRatio="xMinYMin meet" viewBox="0 0 793 1123"><defs><clipPath id="1"><path id="" clip-rule="evenodd" transform="matrix(1 0 0 1 0 0)" d="M0 842L0 0L0 0L595 0L595 0L595 842L595 842L0 842z" /></clipPath><clipPath id="2"><path id="" clip-rule="evenodd" transform="matrix(1 0 0 1 0 0)" d="M35.94 117.06L457.26 117.06L457.26 117.06L457.26 234.24L457.26 234.24L35.94 234.24z" /></clipPath><clipPath id="3"><path id="" clip-rule="evenodd" transform="matrix(1 0 0 1 0 0)" d="M0 0.02001953L595.2 0.02001953L595.2 0.02001953L595.2 842L595.2 842L0 842z" /></clipPath><clipPath id="4"><path id="" clip-rule="evenodd" transform="matrix(1 0 0 1 0 0)" d="M36.96 118.02L456.24 118.02L456.24 118.02L456.24 233.22L456.24 233.22L36.96 233.22z" /></clipPath><clipPath id="5"><path id="" clip-rule="evenodd" transform="matrix(1 0 0 1 0 0)" d="M35.94 117.06L457.26 117.06L457.26 117.06L457.26 234.24L457.26 234.24L35.94 234.24z" /></clipPath><clipPath id="6"><path id="" clip-rule="evenodd" transform="matrix(1 0 0 1 0 0)" d="M0 0.02001953L595.2 0.02001953L595.2 0.02001953L595.2 842L595.2 842L0 842z" /></clipPath><clipPath id="7"><path id="" clip-rule="evenodd" transform="matrix(1 0 0 1 0 0)" d="M35.94 320.22L507 320.22L507 320.22L507 572.58L507 572.58L35.94 572.58z" /></clipPath><clipPath id="8"><path id="" clip-rule="evenodd" transform="matrix(1 0 0 1 0 0)" d="M0 0.02001953L595.2 0.02001953L595.2 0.02001953L595.2 842L595.2 842L0 842z" /></clipPath><clipPath id="9"><path id="" clip-rule="evenodd" transform="matrix(1 0 0 1 0 0)" d="M36.96 321.24L505.98 321.24L505.98 321.24L505.98 571.62L505.98 571.62L36.96 571.62z" /></clipPath><clipPath id="10"><path id="" clip-rule="evenodd" transform="matrix(1 0 0 1 0 0)" d="M35.94 320.22L507 320.22L507 320.22L507 572.58L507 572.58L35.94 572.58z" /></clipPath><clipPath id="11"><path id="" clip-rule="evenodd" transform="matrix(1 0 0 1 0 0)" d="M0 0.02001953L595.2 0.02001953L595.2 0.02001953L595.2 842L595.2 842L0 842z" /></clipPath></defs><g transform="matrix(1.333333 0 0 1.333333 0 0)"><g clip-path="url(#1)"><g clip-path="url(#2)"><g clip-path="url(#3)"><path id="479" transform="matrix(1 0 0 -1 0 842)" d="M36.96 608.78L456.24 608.78L456.24 723.98L36.96 723.98z" stroke="none" fill="#FFFFFF" fill-rule="nonzero" /></g></g><g clip-path="url(#4)"><g clip-path="url(#5)"><g clip-path="url(#6)"><g transform="matrix(0.48 0 0 0.48 36.96 118.02)"><g transform="matrix(1 0 0 1 0 0)"><image x="0" y="0" xlink:href="img_536.png" width="874" height="240" /></g></g></g></g></g><g clip-path="url(#7)"><g clip-path="url(#8)"><path id="520" transform="matrix(1 0 0 -1 0 842)" d="M36.96 270.38L505.98 270.38L505.98 520.76L36.96 520.76z" stroke="none" fill="#FFFFFF" fill-rule="nonzero" /></g></g><g clip-path="url(#9)"><g clip-path="url(#10)"><g clip-path="url(#11)"><g transform="matrix(0.4795797 0 0 0.4787381 36.96 321.24)"><g transform="matrix(1 0 0 1 0 0)"><image x="0" y="0" xlink:href="img_537.png" width="978" height="523" /></g></g></g></g></g></g></g></svg>