<svg xmlns="http://www.w3.org/2000/svg" xmlns:xlink="http://www.w3.org/1999/xlink" id="body_246" preserveAspectRatio="xMinYMin meet" viewBox="0 0 793 1123"><defs><clipPath id="1"><path id="" clip-rule="evenodd" transform="matrix(1 0 0 1 0 0)" d="M0 842L0 0L0 0L595 0L595 0L595 842L595 842L0 842z" /></clipPath><clipPath id="2"><path id="" clip-rule="evenodd" transform="matrix(1 0 0 1 0 0)" d="M224.94 574.08L559.5 574.08L559.5 574.08L559.5 641.34L559.5 641.34L224.94 641.34z" /></clipPath><clipPath id="3"><path id="" clip-rule="evenodd" transform="matrix(1 0 0 1 0 0)" d="M0 0.02001953L595.2 0.02001953L595.2 0.02001953L595.2 842L595.2 842L0 842z" /></clipPath><clipPath id="4"><path id="" clip-rule="evenodd" transform="matrix(1 0 0 1 0 0)" d="M393.96 575.04L558.48 575.04L558.48 575.04L558.48 640.32L558.48 640.32L393.96 640.32z" /></clipPath><clipPath id="5"><path id="" clip-rule="evenodd" transform="matrix(1 0 0 1 0 0)" d="M224.94 574.08L559.5 574.08L559.5 574.08L559.5 641.34L559.5 641.34L224.94 641.34z" /></clipPath><clipPath id="6"><path id="" clip-rule="evenodd" transform="matrix(1 0 0 1 0 0)" d="M0 0.02001953L595.2 0.02001953L595.2 0.02001953L595.2 842L595.2 842L0 842z" /></clipPath><clipPath id="7"><path id="" clip-rule="evenodd" transform="matrix(1 0 0 1 0 0)" d="M224.94 574.08L559.5 574.08L559.5 574.08L559.5 641.34L559.5 641.34L224.94 641.34z" /></clipPath><clipPath id="8"><path id="" clip-rule="evenodd" transform="matrix(1 0 0 1 0 0)" d="M0 0.02001953L595.2 0.02001953L595.2 0.02001953L595.2 842L595.2 842L0 842z" /></clipPath><clipPath id="9"><path id="" clip-rule="evenodd" transform="matrix(1 0 0 1 0 0)" d="M225.96 575.04L390.48 575.04L390.48 575.04L390.48 640.32L390.48 640.32L225.96 640.32z" /></clipPath><clipPath id="10"><path id="" clip-rule="evenodd" transform="matrix(1 0 0 1 0 0)" d="M224.94 574.08L559.5 574.08L559.5 574.08L559.5 641.34L559.5 641.34L224.94 641.34z" /></clipPath><clipPath id="11"><path id="" clip-rule="evenodd" transform="matrix(1 0 0 1 0 0)" d="M0 0.02001953L595.2 0.02001953L595.2 0.02001953L595.2 842L595.2 842L0 842z" /></clipPath><clipPath id="12"><path id="" clip-rule="evenodd" transform="matrix(1 0 0 1 0 0)" d="M303.36 751.32L479.58 751.32L479.58 751.32L479.58 766.08L479.58 766.08L303.36 766.08z" /></clipPath><clipPath id="13"><path id="" clip-rule="evenodd" transform="matrix(1 0 0 1 0 0)" d="M0 0.02001953L595.2 0.02001953L595.2 0.02001953L595.2 842L595.2 842L0 842z" /></clipPath></defs><g transform="matrix(1.333333 0 0 1.333333 0 0)"><g clip-path="url(#1)"><g clip-path="url(#2)"><g clip-path="url(#3)"><path id="1427" transform="matrix(1 0 0 -1 0 842)" d="M393.96 266.96L558.48 266.96L558.48 201.68L393.96 201.68" stroke="none" fill="#FFFFFF" fill-rule="nonzero" /></g></g><g clip-path="url(#4)"><g clip-path="url(#5)"><g clip-path="url(#6)"><g transform="matrix(0.4805335 0 0 0.48 393.96 575.04)"><g transform="matrix(1 0 0 1 0 0)"><image x="0" y="0" xlink:href="img_585.png" width="343" height="136" /></g></g></g></g></g><g clip-path="url(#7)"><g clip-path="url(#8)"><path id="1429" transform="matrix(1 0 0 -1 0 842)" d="M225.96 201.68L390.48 201.68L390.48 266.96L225.96 266.96z" stroke="none" fill="#FFFFFF" fill-rule="nonzero" /></g></g><g clip-path="url(#9)"><g clip-path="url(#10)"><g clip-path="url(#11)"><g transform="matrix(0.4805335 0 0 0.48 225.96 575.04)"><g transform="matrix(1 0 0 1 0 0)"><image x="0" y="0" xlink:href="img_586.png" width="343" height="136" /></g></g></g></g></g><g clip-path="url(#12)"><g clip-path="url(#13)"></g></g></g></g></svg>