<svg xmlns="http://www.w3.org/2000/svg" xmlns:xlink="http://www.w3.org/1999/xlink" id="body_62" preserveAspectRatio="xMinYMin meet" viewBox="0 0 793 1123"><defs><clipPath id="1"><path id="" clip-rule="evenodd" transform="matrix(1 0 0 1 0 0)" d="M0 842L0 0L0 0L595 0L595 0L595 842L595 842L0 842z" /></clipPath><clipPath id="2"><path id="" clip-rule="evenodd" transform="matrix(1 0 0 1 0 0)" d="M215.94 208.02L394.62 208.02L394.62 208.02L394.62 323.82L394.62 323.82L215.94 323.82z" /></clipPath><clipPath id="3"><path id="" clip-rule="evenodd" transform="matrix(1 0 0 1 0 0)" d="M0 0.02001953L595.2 0.02001953L595.2 0.02001953L595.2 842L595.2 842L0 842z" /></clipPath><clipPath id="4"><path id="" clip-rule="evenodd" transform="matrix(1 0 0 1 0 0)" d="M216.96 209.04L393.6 209.04L393.6 209.04L393.6 322.8L393.6 322.8L216.96 322.8z" /></clipPath><clipPath id="5"><path id="" clip-rule="evenodd" transform="matrix(1 0 0 1 0 0)" d="M215.94 208.02L394.62 208.02L394.62 208.02L394.62 323.82L394.62 323.82L215.94 323.82z" /></clipPath><clipPath id="6"><path id="" clip-rule="evenodd" transform="matrix(1 0 0 1 0 0)" d="M0 0.02001953L595.2 0.02001953L595.2 0.02001953L595.2 842L595.2 842L0 842z" /></clipPath></defs><g transform="matrix(1.333333 0 0 1.333333 0 0)"><g clip-path="url(#1)"><g clip-path="url(#2)"><g clip-path="url(#3)"><path id="620" transform="matrix(1 0 0 -1 0 842)" d="M216.96 519.2L393.6 519.2L393.6 632.96L216.96 632.96z" stroke="none" fill="#FFFFFF" fill-rule="nonzero" /></g></g><g clip-path="url(#4)"><g clip-path="url(#5)"><g clip-path="url(#6)"><g transform="matrix(0.48 0 0 0.48 216.96 209.04)"><g transform="matrix(1 0 0 1 0 0)"><image x="0" y="0" xlink:href="img_144.png" width="368" height="237" /></g></g></g></g></g><path id="622" transform="matrix(1 0 0 -1 0 842)" d="M35.94 426.2L162.84 426.2L162.84 444.2L35.94 444.2z" stroke="none" fill="#C4DFF7" fill-rule="nonzero" /><path id="632" transform="matrix(1 0 0 -1 0 842)" d="M162.84 444.2L549 444.2L549 426.2L162.84 426.2" stroke="none" fill="#C4DFF7" fill-rule="nonzero" /><path id="993" transform="matrix(1 0 0 -1 0 842)" d="M35.94 377.96L549 377.96L549 378.44L35.94 378.44z" stroke="none" fill="#000000" fill-rule="nonzero" /><path id="994" transform="matrix(1 0 0 -1 0 842)" d="M35.94 329.42L549 329.42L549 330.92L35.94 330.92z" stroke="none" fill="#000000" fill-rule="nonzero" /></g></g></svg>