<svg xmlns="http://www.w3.org/2000/svg" xmlns:xlink="http://www.w3.org/1999/xlink" id="body_106" preserveAspectRatio="xMinYMin meet" viewBox="0 0 793 1123"><defs><clipPath id="1"><path id="" clip-rule="evenodd" transform="matrix(1 0 0 1 0 0)" d="M0 842L0 0L0 0L595 0L595 0L595 842L595 842L0 842z" /></clipPath><clipPath id="2"><path id="" clip-rule="evenodd" transform="matrix(1 0 0 1 0 0)" d="M215.94 218.04L444.06 218.04L444.06 218.04L444.06 580.8L444.06 580.8L215.94 580.8z" /></clipPath><clipPath id="3"><path id="" clip-rule="evenodd" transform="matrix(1 0 0 1 0 0)" d="M0 0.02001953L595.2 0.02001953L595.2 0.02001953L595.2 842L595.2 842L0 842z" /></clipPath><clipPath id="4"><path id="" clip-rule="evenodd" transform="matrix(1 0 0 1 0 0)" d="M216.96 219.06L443.04 219.06L443.04 219.06L443.04 579.78L443.04 579.78L216.96 579.78z" /></clipPath><clipPath id="5"><path id="" clip-rule="evenodd" transform="matrix(1 0 0 1 0 0)" d="M215.94 218.04L444.06 218.04L444.06 218.04L444.06 580.8L444.06 580.8L215.94 580.8z" /></clipPath><clipPath id="6"><path id="" clip-rule="evenodd" transform="matrix(1 0 0 1 0 0)" d="M0 0.02001953L595.2 0.02001953L595.2 0.02001953L595.2 842L595.2 842L0 842z" /></clipPath></defs><g transform="matrix(1.333333 0 0 1.333333 0 0)"><g clip-path="url(#1)"><g clip-path="url(#2)"><g clip-path="url(#3)"><path id="447" transform="matrix(1 0 0 -1 0 842)" d="M216.96 262.22L443.04 262.22L443.04 622.94L216.96 622.94z" stroke="none" fill="#FFFFFF" fill-rule="nonzero" /></g></g><g clip-path="url(#4)"><g clip-path="url(#5)"><g clip-path="url(#6)"><g transform="matrix(0.48 0 0 0.4796808 216.96 219.06)"><g transform="matrix(1 0 0 1 0 0)"><image x="0" y="0" xlink:href="img_259.png" width="471" height="752" /></g></g></g></g></g><path id="449" transform="matrix(1 0 0 -1 0 842)" d="M35.94 169.22L172.44 169.22L172.44 187.22L35.94 187.22z" stroke="none" fill="#C4DFF7" fill-rule="nonzero" /><path id="459" transform="matrix(1 0 0 -1 0 842)" d="M172.44 187.22L549 187.22L549 169.22L172.44 169.22" stroke="none" fill="#C4DFF7" fill-rule="nonzero" /><path id="701" transform="matrix(1 0 0 -1 0 842)" d="M35.94 150.98L549 150.98L549 151.46L35.94 151.46z" stroke="none" fill="#000000" fill-rule="nonzero" /><path id="702" transform="matrix(1 0 0 -1 0 842)" d="M35.94 102.44L549 102.44L549 103.94L35.94 103.94z" stroke="none" fill="#000000" fill-rule="nonzero" /></g></g></svg>