<svg xmlns="http://www.w3.org/2000/svg" xmlns:xlink="http://www.w3.org/1999/xlink" id="body_179" preserveAspectRatio="xMinYMin meet" viewBox="0 0 793 1123"><defs><clipPath id="1"><path id="" clip-rule="evenodd" transform="matrix(1 0 0 1 0 0)" d="M0 842L0 0L0 0L595 0L595 0L595 842L595 842L0 842z" /></clipPath><clipPath id="2"><path id="" clip-rule="evenodd" transform="matrix(1 0 0 1 0 0)" d="M224.94 161.04L404.04 161.04L404.04 161.04L404.04 313.3199L404.04 313.3199L224.94 313.3199z" /></clipPath><clipPath id="3"><path id="" clip-rule="evenodd" transform="matrix(1 0 0 1 0 0)" d="M0 0.02001953L595.2 0.02001953L595.2 0.02001953L595.2 842L595.2 842L0 842z" /></clipPath><clipPath id="4"><path id="" clip-rule="evenodd" transform="matrix(1 0 0 1 0 0)" d="M225.96 162.06L403.08 162.06L403.08 162.06L403.08 312.3L403.08 312.3L225.96 312.3z" /></clipPath><clipPath id="5"><path id="" clip-rule="evenodd" transform="matrix(1 0 0 1 0 0)" d="M224.94 161.04L404.04 161.04L404.04 161.04L404.04 313.3199L404.04 313.3199L224.94 313.3199z" /></clipPath><clipPath id="6"><path id="" clip-rule="evenodd" transform="matrix(1 0 0 1 0 0)" d="M0 0.02001953L595.2 0.02001953L595.2 0.02001953L595.2 842L595.2 842L0 842z" /></clipPath><clipPath id="7"><path id="" clip-rule="evenodd" transform="matrix(1 0 0 1 0 0)" d="M224.94 356.28L546.84 356.28L546.84 356.28L546.84 727.14L546.84 727.14L224.94 727.14z" /></clipPath><clipPath id="8"><path id="" clip-rule="evenodd" transform="matrix(1 0 0 1 0 0)" d="M0 0.02001953L595.2 0.02001953L595.2 0.02001953L595.2 842L595.2 842L0 842z" /></clipPath><clipPath id="9"><path id="" clip-rule="evenodd" transform="matrix(1 0 0 1 0 0)" d="M225.96 357.3L545.88 357.3L545.88 357.3L545.88 726.12L545.88 726.12L225.96 726.12z" /></clipPath><clipPath id="10"><path id="" clip-rule="evenodd" transform="matrix(1 0 0 1 0 0)" d="M224.94 356.28L546.84 356.28L546.84 356.28L546.84 727.14L546.84 727.14L224.94 727.14z" /></clipPath><clipPath id="11"><path id="" clip-rule="evenodd" transform="matrix(1 0 0 1 0 0)" d="M0 0.02001953L595.2 0.02001953L595.2 0.02001953L595.2 842L595.2 842L0 842z" /></clipPath></defs><g transform="matrix(1.333333 0 0 1.333333 0 0)"><g clip-path="url(#1)"><g clip-path="url(#2)"><g clip-path="url(#3)"><path id="440" transform="matrix(1 0 0 -1 0 842)" d="M225.96 529.7L403.08 529.7L403.08 679.94L225.96 679.94z" stroke="none" fill="#FFFFFF" fill-rule="nonzero" /></g></g><g clip-path="url(#4)"><g clip-path="url(#5)"><g clip-path="url(#6)"><g transform="matrix(0.4796541 0 0 0.4784714 225.96 162.06)"><g transform="matrix(1 0 0 1 0 0)"><image x="0" y="0" xlink:href="img_445.png" width="370" height="314" /></g></g></g></g></g><g clip-path="url(#7)"><g clip-path="url(#8)"><path id="442" transform="matrix(1 0 0 -1 0 842)" d="M225.96 484.7L545.88 484.7L545.88 115.88L225.96 115.88" stroke="none" fill="#FFFFFF" fill-rule="nonzero" /></g></g><g clip-path="url(#9)"><g clip-path="url(#10)"><g clip-path="url(#11)"><g transform="matrix(0.4801275 0 0 0.4796099 225.96 357.3)"><g transform="matrix(1 0 0 1 0 0)"><image x="0" y="0" xlink:href="img_446.png" width="667" height="769" /></g></g></g></g></g></g></g></svg>