<svg xmlns="http://www.w3.org/2000/svg" xmlns:xlink="http://www.w3.org/1999/xlink" id="body_60" preserveAspectRatio="xMinYMin meet" viewBox="0 0 793 1123"><defs><clipPath id="1"><path id="" clip-rule="evenodd" transform="matrix(1 0 0 1 0 0)" d="M0 842L0 0L0 0L595 0L595 0L595 842L595 842L0 842z" /></clipPath></defs><g transform="matrix(1.333333 0 0 1.333333 0 0)"><g clip-path="url(#1)"><path id="226" transform="matrix(1 0 0 -1 0 842)" d="M215.94 675.98L224.82 675.98L224.82 695.96L215.94 695.96z" stroke="none" fill="#C4DFF7" fill-rule="nonzero" /><path id="227" transform="matrix(1 0 0 -1 0 842)" d="M224.82 695.96L549 695.96L549 675.98L224.82 675.98" stroke="none" fill="#EAEAEA" fill-rule="nonzero" /><path id="236" transform="matrix(1 0 0 -1 0 842)" d="M215.94 247.94L224.82 247.94L224.82 675.98L215.94 675.98z" stroke="none" fill="#C4DFF7" fill-rule="nonzero" /><path id="237" transform="matrix(1 0 0 -1 0 842)" d="M224.82 675.98L549 675.98L549 247.94L224.82 247.94" stroke="none" fill="#EAEAEA" fill-rule="nonzero" /></g></g></svg>