<svg xmlns="http://www.w3.org/2000/svg" xmlns:xlink="http://www.w3.org/1999/xlink" id="body_193" preserveAspectRatio="xMinYMin meet" viewBox="0 0 793 1123"><defs><clipPath id="1"><path id="" clip-rule="evenodd" transform="matrix(1 0 0 1 0 0)" d="M0 842L0 0L0 0L595 0L595 0L595 842L595 842L0 842z" /></clipPath><clipPath id="2"><path id="" clip-rule="evenodd" transform="matrix(1 0 0 1 0 0)" d="M461.88 469.02L474.42 469.02L474.42 469.02L474.42 480.84L474.42 480.84L461.88 480.84z" /></clipPath><clipPath id="3"><path id="" clip-rule="evenodd" transform="matrix(1 0 0 1 0 0)" d="M0 0.02001953L595.2 0.02001953L595.2 0.02001953L595.2 842L595.2 842L0 842z" /></clipPath><clipPath id="4"><path id="" clip-rule="evenodd" transform="matrix(1 0 0 1 0 0)" d="M462.84 469.98L473.4 469.98L473.4 469.98L473.4 479.82L473.4 479.82L462.84 479.82z" /></clipPath><clipPath id="5"><path id="" clip-rule="evenodd" transform="matrix(1 0 0 1 0 0)" d="M461.88 469.02L474.42 469.02L474.42 469.02L474.42 480.84L474.42 480.84L461.88 480.84z" /></clipPath><clipPath id="6"><path id="" clip-rule="evenodd" transform="matrix(1 0 0 1 0 0)" d="M0 0.02001953L595.2 0.02001953L595.2 0.02001953L595.2 842L595.2 842L0 842z" /></clipPath><clipPath id="7"><path id="" clip-rule="evenodd" transform="matrix(1 0 0 1 0 0)" d="M461.88 469.02L474.42 469.02L474.42 469.02L474.42 480.84L474.42 480.84L461.88 480.84z" /></clipPath><clipPath id="8"><path id="" clip-rule="evenodd" transform="matrix(1 0 0 1 0 0)" d="M0 0.02001953L595.2 0.02001953L595.2 0.02001953L595.2 842L595.2 842L0 842z" /></clipPath><clipPath id="9"><path id="" clip-rule="evenodd" transform="matrix(1 0 0 1 0 0)" d="M462.84 469.98L473.4 469.98L473.4 469.98L473.4 479.82L473.4 479.82L462.84 479.82z" /></clipPath><clipPath id="10"><path id="" clip-rule="evenodd" transform="matrix(1 0 0 1 0 0)" d="M461.88 469.02L474.42 469.02L474.42 469.02L474.42 480.84L474.42 480.84L461.88 480.84z" /></clipPath><clipPath id="11"><path id="" clip-rule="evenodd" transform="matrix(1 0 0 1 0 0)" d="M0 0.02001953L595.2 0.02001953L595.2 0.02001953L595.2 842L595.2 842L0 842z" /></clipPath><clipPath id="12"><path id="" clip-rule="evenodd" transform="matrix(1 0 0 1 0 0)" d="M482.34 532.02L494.94 532.02L494.94 532.02L494.94 543.84L494.94 543.84L482.34 543.84z" /></clipPath><clipPath id="13"><path id="" clip-rule="evenodd" transform="matrix(1 0 0 1 0 0)" d="M0 0.02001953L595.2 0.02001953L595.2 0.02001953L595.2 842L595.2 842L0 842z" /></clipPath><clipPath id="14"><path id="" clip-rule="evenodd" transform="matrix(1 0 0 1 0 0)" d="M483.36 533.04L493.92 533.04L493.92 533.04L493.92 542.88L493.92 542.88L483.36 542.88z" /></clipPath><clipPath id="15"><path id="" clip-rule="evenodd" transform="matrix(1 0 0 1 0 0)" d="M482.34 532.02L494.94 532.02L494.94 532.02L494.94 543.84L494.94 543.84L482.34 543.84z" /></clipPath><clipPath id="16"><path id="" clip-rule="evenodd" transform="matrix(1 0 0 1 0 0)" d="M0 0.02001953L595.2 0.02001953L595.2 0.02001953L595.2 842L595.2 842L0 842z" /></clipPath><clipPath id="17"><path id="" clip-rule="evenodd" transform="matrix(1 0 0 1 0 0)" d="M482.34 532.02L494.94 532.02L494.94 532.02L494.94 543.84L494.94 543.84L482.34 543.84z" /></clipPath><clipPath id="18"><path id="" clip-rule="evenodd" transform="matrix(1 0 0 1 0 0)" d="M0 0.02001953L595.2 0.02001953L595.2 0.02001953L595.2 842L595.2 842L0 842z" /></clipPath><clipPath id="19"><path id="" clip-rule="evenodd" transform="matrix(1 0 0 1 0 0)" d="M483.36 533.04L493.92 533.04L493.92 533.04L493.92 542.88L493.92 542.88L483.36 542.88z" /></clipPath><clipPath id="20"><path id="" clip-rule="evenodd" transform="matrix(1 0 0 1 0 0)" d="M482.34 532.02L494.94 532.02L494.94 532.02L494.94 543.84L494.94 543.84L482.34 543.84z" /></clipPath><clipPath id="21"><path id="" clip-rule="evenodd" transform="matrix(1 0 0 1 0 0)" d="M0 0.02001953L595.2 0.02001953L595.2 0.02001953L595.2 842L595.2 842L0 842z" /></clipPath><clipPath id="22"><path id="" clip-rule="evenodd" transform="matrix(1 0 0 1 0 0)" d="M482.34 581.04L494.94 581.04L494.94 581.04L494.94 592.86L494.94 592.86L482.34 592.86z" /></clipPath><clipPath id="23"><path id="" clip-rule="evenodd" transform="matrix(1 0 0 1 0 0)" d="M0 0.02001953L595.2 0.02001953L595.2 0.02001953L595.2 842L595.2 842L0 842z" /></clipPath><clipPath id="24"><path id="" clip-rule="evenodd" transform="matrix(1 0 0 1 0 0)" d="M483.36 582L493.92 582L493.92 582L493.92 591.84L493.92 591.84L483.36 591.84z" /></clipPath><clipPath id="25"><path id="" clip-rule="evenodd" transform="matrix(1 0 0 1 0 0)" d="M482.34 581.04L494.94 581.04L494.94 581.04L494.94 592.86L494.94 592.86L482.34 592.86z" /></clipPath><clipPath id="26"><path id="" clip-rule="evenodd" transform="matrix(1 0 0 1 0 0)" d="M0 0.02001953L595.2 0.02001953L595.2 0.02001953L595.2 842L595.2 842L0 842z" /></clipPath><clipPath id="27"><path id="" clip-rule="evenodd" transform="matrix(1 0 0 1 0 0)" d="M482.34 581.04L494.94 581.04L494.94 581.04L494.94 592.86L494.94 592.86L482.34 592.86z" /></clipPath><clipPath id="28"><path id="" clip-rule="evenodd" transform="matrix(1 0 0 1 0 0)" d="M0 0.02001953L595.2 0.02001953L595.2 0.02001953L595.2 842L595.2 842L0 842z" /></clipPath><clipPath id="29"><path id="" clip-rule="evenodd" transform="matrix(1 0 0 1 0 0)" d="M483.36 582L493.92 582L493.92 582L493.92 591.84L493.92 591.84L483.36 591.84z" /></clipPath><clipPath id="30"><path id="" clip-rule="evenodd" transform="matrix(1 0 0 1 0 0)" d="M482.34 581.04L494.94 581.04L494.94 581.04L494.94 592.86L494.94 592.86L482.34 592.86z" /></clipPath><clipPath id="31"><path id="" clip-rule="evenodd" transform="matrix(1 0 0 1 0 0)" d="M0 0.02001953L595.2 0.02001953L595.2 0.02001953L595.2 842L595.2 842L0 842z" /></clipPath><clipPath id="32"><path id="" clip-rule="evenodd" transform="matrix(1 0 0 1 0 0)" d="M482.34 581.04L494.94 581.04L494.94 581.04L494.94 592.86L494.94 592.86L482.34 592.86z" /></clipPath><clipPath id="33"><path id="" clip-rule="evenodd" transform="matrix(1 0 0 1 0 0)" d="M0 0.02001953L595.2 0.02001953L595.2 0.02001953L595.2 842L595.2 842L0 842z" /></clipPath><clipPath id="34"><path id="" clip-rule="evenodd" transform="matrix(1 0 0 1 0 0)" d="M484.56 582.84L492.72 582.84L492.72 582.84L492.72 591L492.72 591L484.56 591z" /></clipPath><clipPath id="35"><path id="" clip-rule="evenodd" transform="matrix(1 0 0 1 0 0)" d="M482.34 581.04L494.94 581.04L494.94 581.04L494.94 592.86L494.94 592.86L482.34 592.86z" /></clipPath><clipPath id="36"><path id="" clip-rule="evenodd" transform="matrix(1 0 0 1 0 0)" d="M0 0.02001953L595.2 0.02001953L595.2 0.02001953L595.2 842L595.2 842L0 842z" /></clipPath></defs><g transform="matrix(1.333333 0 0 1.333333 0 0)"><g clip-path="url(#1)"><path id="1096" transform="matrix(1 0 0 -1 0 842)" d="M215.94 675.98L224.94 675.98L224.94 695.96L215.94 695.96z" stroke="none" fill="#C5E0F7" fill-rule="nonzero" /><path id="1097" transform="matrix(1 0 0 -1 0 842)" d="M224.94 695.96L554.4 695.96L554.4 675.98L224.94 675.98" stroke="none" fill="#EAEAEA" fill-rule="nonzero" /><path id="1106" transform="matrix(1 0 0 -1 0 842)" d="M215.94 583.94L224.94 583.94L224.94 675.98L215.94 675.98z" stroke="none" fill="#C5E0F7" fill-rule="nonzero" /><path id="1107" transform="matrix(1 0 0 -1 0 842)" d="M224.94 675.98L554.4 675.98L554.4 583.94L224.94 583.94" stroke="none" fill="#EAEAEA" fill-rule="nonzero" /><g clip-path="url(#2)"><g clip-path="url(#3)"><path id="1256" transform="matrix(1 0 0 -1 0 842)" d="M462.84 362.18L473.4 362.18L473.4 372.02L462.84 372.02z" stroke="none" fill="#FFFFFF" fill-rule="nonzero" /></g></g><g clip-path="url(#4)"><g clip-path="url(#5)"><g clip-path="url(#6)"><g transform="matrix(0.48 0 0 0.4685715 462.84 469.98)"><g transform="matrix(1 0 0 1 0 0)"><image x="0" y="0" xlink:href="img_235.png" width="22" height="21" /></g></g></g></g></g><g clip-path="url(#7)"><g clip-path="url(#8)"><path id="1258" transform="matrix(1 0 0 -1 0 842)" d="M462.84 362.18L473.4 362.18L473.4 372.02L462.84 372.02z" stroke="none" fill="#FFFFFF" fill-rule="nonzero" /></g></g><g clip-path="url(#9)"><g clip-path="url(#10)"><g clip-path="url(#11)"><g transform="matrix(0.48 0 0 0.4685715 462.84 469.98)"><g transform="matrix(1 0 0 1 0 0)"><image x="0" y="0" xlink:href="img_235.png" width="22" height="21" /></g></g></g></g></g><g clip-path="url(#12)"><g clip-path="url(#13)"><path id="1260" transform="matrix(1 0 0 -1 0 842)" d="M483.36 299.12L493.92 299.12L493.92 308.96L483.36 308.96z" stroke="none" fill="#FFFFFF" fill-rule="nonzero" /></g></g><g clip-path="url(#14)"><g clip-path="url(#15)"><g clip-path="url(#16)"><g transform="matrix(0.48 0 0 0.4685715 483.36 533.04)"><g transform="matrix(1 0 0 1 0 0)"><image x="0" y="0" xlink:href="img_235.png" width="22" height="21" /></g></g></g></g></g><g clip-path="url(#17)"><g clip-path="url(#18)"><path id="1262" transform="matrix(1 0 0 -1 0 842)" d="M483.36 299.12L493.92 299.12L493.92 308.96L483.36 308.96z" stroke="none" fill="#FFFFFF" fill-rule="nonzero" /></g></g><g clip-path="url(#19)"><g clip-path="url(#20)"><g clip-path="url(#21)"><g transform="matrix(0.48 0 0 0.4685715 483.36 533.04)"><g transform="matrix(1 0 0 1 0 0)"><image x="0" y="0" xlink:href="img_235.png" width="22" height="21" /></g></g></g></g></g><g clip-path="url(#22)"><g clip-path="url(#23)"><path id="1264" transform="matrix(1 0 0 -1 0 842)" d="M483.36 250.16L493.92 250.16L493.92 260L483.36 260z" stroke="none" fill="#FFFFFF" fill-rule="nonzero" /></g></g><g clip-path="url(#24)"><g clip-path="url(#25)"><g clip-path="url(#26)"><g transform="matrix(0.48 0 0 0.4685715 483.36 582)"><g transform="matrix(1 0 0 1 0 0)"><image x="0" y="0" xlink:href="img_235.png" width="22" height="21" /></g></g></g></g></g><g clip-path="url(#27)"><g clip-path="url(#28)"><path id="1266" transform="matrix(1 0 0 -1 0 842)" d="M483.36 250.16L493.92 250.16L493.92 260L483.36 260z" stroke="none" fill="#FFFFFF" fill-rule="nonzero" /></g></g><g clip-path="url(#29)"><g clip-path="url(#30)"><g clip-path="url(#31)"><g transform="matrix(0.48 0 0 0.4685715 483.36 582)"><g transform="matrix(1 0 0 1 0 0)"><image x="0" y="0" xlink:href="img_235.png" width="22" height="21" /></g></g></g></g></g><g clip-path="url(#32)"><g clip-path="url(#33)"><path id="1268" transform="matrix(1 0 0 -1 0 842)" d="M484.56 251L492.72 251L492.72 259.16L484.56 259.16z" stroke="none" fill="#FFFFFF" fill-rule="nonzero" /></g></g><g clip-path="url(#34)"><g clip-path="url(#35)"><g clip-path="url(#36)"><g transform="matrix(0.48 0 0 0.48 484.56 582.84)"><g transform="matrix(1 0 0 1 0 0)"><image x="0" y="0" xlink:href="img_236.png" width="17" height="17" /></g></g></g></g></g></g></g></svg>