<svg xmlns="http://www.w3.org/2000/svg" xmlns:xlink="http://www.w3.org/1999/xlink" id="body_166" preserveAspectRatio="xMinYMin meet" viewBox="0 0 793 1123"><defs><clipPath id="1"><path id="" clip-rule="evenodd" transform="matrix(1 0 0 1 0 0)" d="M0 842L0 0L0 0L595 0L595 0L595 842L595 842L0 842z" /></clipPath><clipPath id="2"><path id="" clip-rule="evenodd" transform="matrix(1 0 0 1 0 0)" d="M94.92 228.66L197.94 228.66L197.94 228.66L197.94 267.36L197.94 267.36L94.92 267.36z" /></clipPath><clipPath id="3"><path id="" clip-rule="evenodd" transform="matrix(1 0 0 1 0 0)" d="M0 0.02001953L595.2 0.02001953L595.2 0.02001953L595.2 842L595.2 842L0 842z" /></clipPath><clipPath id="4"><path id="" clip-rule="evenodd" transform="matrix(1 0 0 1 0 0)" d="M95.94 229.68L196.98 229.68L196.98 229.68L196.98 266.4L196.98 266.4L95.94 266.4z" /></clipPath><clipPath id="5"><path id="" clip-rule="evenodd" transform="matrix(1 0 0 1 0 0)" d="M94.92 228.66L197.94 228.66L197.94 228.66L197.94 267.36L197.94 267.36L94.92 267.36z" /></clipPath><clipPath id="6"><path id="" clip-rule="evenodd" transform="matrix(1 0 0 1 0 0)" d="M0 0.02001953L595.2 0.02001953L595.2 0.02001953L595.2 842L595.2 842L0 842z" /></clipPath><clipPath id="7"><path id="" clip-rule="evenodd" transform="matrix(1 0 0 1 0 0)" d="M139.8 330.12L197.94 330.12L197.94 330.12L197.94 389.7L197.94 389.7L139.8 389.7z" /></clipPath><clipPath id="8"><path id="" clip-rule="evenodd" transform="matrix(1 0 0 1 0 0)" d="M0 0.02001953L595.2 0.02001953L595.2 0.02001953L595.2 842L595.2 842L0 842z" /></clipPath><clipPath id="9"><path id="" clip-rule="evenodd" transform="matrix(1 0 0 1 0 0)" d="M140.82 331.08L196.98 331.08L196.98 331.08L196.98 388.68L196.98 388.68L140.82 388.68z" /></clipPath><clipPath id="10"><path id="" clip-rule="evenodd" transform="matrix(1 0 0 1 0 0)" d="M139.8 330.12L197.94 330.12L197.94 330.12L197.94 389.7L197.94 389.7L139.8 389.7z" /></clipPath><clipPath id="11"><path id="" clip-rule="evenodd" transform="matrix(1 0 0 1 0 0)" d="M0 0.02001953L595.2 0.02001953L595.2 0.02001953L595.2 842L595.2 842L0 842z" /></clipPath><clipPath id="12"><path id="" clip-rule="evenodd" transform="matrix(1 0 0 1 0 0)" d="M35.94 472.74L437.82 472.74L437.82 472.74L437.82 558.48L437.82 558.48L35.94 558.48z" /></clipPath><clipPath id="13"><path id="" clip-rule="evenodd" transform="matrix(1 0 0 1 0 0)" d="M0 0.02001953L595.2 0.02001953L595.2 0.02001953L595.2 842L595.2 842L0 842z" /></clipPath><clipPath id="14"><path id="" clip-rule="evenodd" transform="matrix(1 0 0 1 0 0)" d="M36.96 473.7L436.8 473.7L436.8 473.7L436.8 557.46L436.8 557.46L36.96 557.46z" /></clipPath><clipPath id="15"><path id="" clip-rule="evenodd" transform="matrix(1 0 0 1 0 0)" d="M35.94 472.74L437.82 472.74L437.82 472.74L437.82 558.48L437.82 558.48L35.94 558.48z" /></clipPath><clipPath id="16"><path id="" clip-rule="evenodd" transform="matrix(1 0 0 1 0 0)" d="M0 0.02001953L595.2 0.02001953L595.2 0.02001953L595.2 842L595.2 842L0 842z" /></clipPath></defs><g transform="matrix(1.333333 0 0 1.333333 0 0)"><g clip-path="url(#1)"><g clip-path="url(#2)"><g clip-path="url(#3)"><path id="1286" transform="matrix(1 0 0 -1 0 842)" d="M95.94 575.6L196.98 575.6L196.98 612.3199L95.94 612.3199z" stroke="none" fill="#FFFFFF" fill-rule="nonzero" /></g></g><g clip-path="url(#4)"><g clip-path="url(#5)"><g clip-path="url(#6)"><g transform="matrix(0.48 0 0 0.4768831 95.94 229.6801)"><g transform="matrix(1 0 0 1 0 0)"><image x="0" y="0" xlink:href="img_411.png" width="211" height="77" /></g></g></g></g></g><g clip-path="url(#7)"><g clip-path="url(#8)"><path id="1288" transform="matrix(1 0 0 -1 0 842)" d="M140.82 453.32L196.98 453.32L196.98 510.92L140.82 510.92z" stroke="none" fill="#FFFFFF" fill-rule="nonzero" /></g></g><g clip-path="url(#9)"><g clip-path="url(#10)"><g clip-path="url(#11)"><g transform="matrix(0.48 0 0 0.48 140.82 331.08)"><g transform="matrix(1 0 0 1 0 0)"><image x="0" y="0" xlink:href="img_412.png" width="117" height="120" /></g></g></g></g></g><g clip-path="url(#12)"><g clip-path="url(#13)"><path id="1316" transform="matrix(1 0 0 -1 0 842)" d="M36.96 284.54L436.8 284.54L436.8 368.3L36.96 368.3z" stroke="none" fill="#FFFFFF" fill-rule="nonzero" /></g></g><g clip-path="url(#14)"><g clip-path="url(#15)"><g clip-path="url(#16)"><g transform="matrix(0.48 0 0 0.4786286 36.96 473.7)"><g transform="matrix(1 0 0 1 0 0)"><image x="0" y="0" xlink:href="img_413.png" width="833" height="175" /></g></g></g></g></g></g></g></svg>