<svg xmlns="http://www.w3.org/2000/svg" xmlns:xlink="http://www.w3.org/1999/xlink" id="body_194" preserveAspectRatio="xMinYMin meet" viewBox="0 0 793 1123"><defs><clipPath id="1"><path id="" clip-rule="evenodd" transform="matrix(1 0 0 1 0 0)" d="M0 842L0 0L0 0L595 0L595 0L595 842L595 842L0 842z" /></clipPath><clipPath id="2"><path id="" clip-rule="evenodd" transform="matrix(1 0 0 1 0 0)" d="M292.32 258.78L304.86 258.78L304.86 258.78L304.86 272.04L304.86 272.04L292.32 272.04z" /></clipPath><clipPath id="3"><path id="" clip-rule="evenodd" transform="matrix(1 0 0 1 0 0)" d="M0 0.02001953L595.2 0.02001953L595.2 0.02001953L595.2 842L595.2 842L0 842z" /></clipPath><clipPath id="4"><path id="" clip-rule="evenodd" transform="matrix(1 0 0 1 0 0)" d="M293.34 259.74L303.9 259.74L303.9 259.74L303.9 271.02L303.9 271.02L293.34 271.02z" /></clipPath><clipPath id="5"><path id="" clip-rule="evenodd" transform="matrix(1 0 0 1 0 0)" d="M292.32 258.78L304.86 258.78L304.86 258.78L304.86 272.04L304.86 272.04L292.32 272.04z" /></clipPath><clipPath id="6"><path id="" clip-rule="evenodd" transform="matrix(1 0 0 1 0 0)" d="M0 0.02001953L595.2 0.02001953L595.2 0.02001953L595.2 842L595.2 842L0 842z" /></clipPath><clipPath id="7"><path id="" clip-rule="evenodd" transform="matrix(1 0 0 1 0 0)" d="M292.32 348.78L304.86 348.78L304.86 348.78L304.86 362.04L304.86 362.04L292.32 362.04z" /></clipPath><clipPath id="8"><path id="" clip-rule="evenodd" transform="matrix(1 0 0 1 0 0)" d="M0 0.02001953L595.2 0.02001953L595.2 0.02001953L595.2 842L595.2 842L0 842z" /></clipPath><clipPath id="9"><path id="" clip-rule="evenodd" transform="matrix(1 0 0 1 0 0)" d="M293.34 349.74L303.9 349.74L303.9 349.74L303.9 361.02L303.9 361.02L293.34 361.02z" /></clipPath><clipPath id="10"><path id="" clip-rule="evenodd" transform="matrix(1 0 0 1 0 0)" d="M292.32 348.78L304.86 348.78L304.86 348.78L304.86 362.04L304.86 362.04L292.32 362.04z" /></clipPath><clipPath id="11"><path id="" clip-rule="evenodd" transform="matrix(1 0 0 1 0 0)" d="M0 0.02001953L595.2 0.02001953L595.2 0.02001953L595.2 842L595.2 842L0 842z" /></clipPath><clipPath id="12"><path id="" clip-rule="evenodd" transform="matrix(1 0 0 1 0 0)" d="M292.32 348.78L304.86 348.78L304.86 348.78L304.86 362.04L304.86 362.04L292.32 362.04z" /></clipPath><clipPath id="13"><path id="" clip-rule="evenodd" transform="matrix(1 0 0 1 0 0)" d="M0 0.02001953L595.2 0.02001953L595.2 0.02001953L595.2 842L595.2 842L0 842z" /></clipPath><clipPath id="14"><path id="" clip-rule="evenodd" transform="matrix(1 0 0 1 0 0)" d="M292.98 350.1L304.26 350.1L304.26 350.1L304.26 360.66L304.26 360.66L292.98 360.66z" /></clipPath><clipPath id="15"><path id="" clip-rule="evenodd" transform="matrix(1 0 0 1 0 0)" d="M292.32 348.78L304.86 348.78L304.86 348.78L304.86 362.04L304.86 362.04L292.32 362.04z" /></clipPath><clipPath id="16"><path id="" clip-rule="evenodd" transform="matrix(1 0 0 1 0 0)" d="M0 0.02001953L595.2 0.02001953L595.2 0.02001953L595.2 842L595.2 842L0 842z" /></clipPath></defs><g transform="matrix(1.333333 0 0 1.333333 0 0)"><g clip-path="url(#1)"><g clip-path="url(#2)"><g clip-path="url(#3)"><path id="1258" transform="matrix(1 0 0 -1 0 842)" d="M293.34 570.98L303.9 570.98L303.9 582.26L293.34 582.26z" stroke="none" fill="#FFFFFF" fill-rule="nonzero" /></g></g><g clip-path="url(#4)"><g clip-path="url(#5)"><g clip-path="url(#6)"><g transform="matrix(0.48 0 0 0.47 293.34 259.74)"><g transform="matrix(1 0 0 1 0 0)"><image x="0" y="0" xlink:href="img_479.png" width="22" height="24" /></g></g></g></g></g><g clip-path="url(#7)"><g clip-path="url(#8)"><path id="1260" transform="matrix(1 0 0 -1 0 842)" d="M293.34 480.98L303.9 480.98L303.9 492.26L293.34 492.26z" stroke="none" fill="#FFFFFF" fill-rule="nonzero" /></g></g><g clip-path="url(#9)"><g clip-path="url(#10)"><g clip-path="url(#11)"><g transform="matrix(0.48 0 0 0.47 293.34 349.74)"><g transform="matrix(1 0 0 1 0 0)"><image x="0" y="0" xlink:href="img_479.png" width="22" height="24" /></g></g></g></g></g><g clip-path="url(#12)"><g clip-path="url(#13)"><path id="1262" transform="matrix(1 0 0 -1 0 842)" d="M292.98 481.34L304.26 481.34L304.26 491.9L292.98 491.9z" stroke="none" fill="#FFFFFF" fill-rule="nonzero" /></g></g><g clip-path="url(#14)"><g clip-path="url(#15)"><g clip-path="url(#16)"><g transform="matrix(0.48 0 0 0.48 292.98 350.1)"><g transform="matrix(1 0 0 1 0 0)"><image x="0" y="0" xlink:href="img_480.png" width="24" height="22" /></g></g></g></g></g></g></g></svg>