<svg xmlns="http://www.w3.org/2000/svg" xmlns:xlink="http://www.w3.org/1999/xlink" id="body_128" preserveAspectRatio="xMinYMin meet" viewBox="0 0 793 1123"><defs><clipPath id="1"><path id="" clip-rule="evenodd" transform="matrix(1 0 0 1 0 0)" d="M0 842L0 0L0 0L595 0L595 0L595 842L595 842L0 842z" /></clipPath><clipPath id="2"><path id="" clip-rule="evenodd" transform="matrix(1 0 0 1 0 0)" d="M467.22 87.12L477.36 87.12L477.36 87.12L477.36 97.26001L477.36 97.26001L467.22 97.26001z" /></clipPath><clipPath id="3"><path id="" clip-rule="evenodd" transform="matrix(1 0 0 1 0 0)" d="M0 0.02001953L595.2 0.02001953L595.2 0.02001953L595.2 842L595.2 842L0 842z" /></clipPath><clipPath id="4"><path id="" clip-rule="evenodd" transform="matrix(1 0 0 1 0 0)" d="M468.24 88.14001L476.4 88.14001L476.4 88.14001L476.4 96.29999L476.4 96.29999L468.24 96.29999z" /></clipPath><clipPath id="5"><path id="" clip-rule="evenodd" transform="matrix(1 0 0 1 0 0)" d="M467.22 87.12L477.36 87.12L477.36 87.12L477.36 97.26001L477.36 97.26001L467.22 97.26001z" /></clipPath><clipPath id="6"><path id="" clip-rule="evenodd" transform="matrix(1 0 0 1 0 0)" d="M0 0.02001953L595.2 0.02001953L595.2 0.02001953L595.2 842L595.2 842L0 842z" /></clipPath><clipPath id="7"><path id="" clip-rule="evenodd" transform="matrix(1 0 0 1 0 0)" d="M215.94 130.02L342.3 130.02L342.3 130.02L342.3 192.54L342.3 192.54L215.94 192.54z" /></clipPath><clipPath id="8"><path id="" clip-rule="evenodd" transform="matrix(1 0 0 1 0 0)" d="M0 0.02001953L595.2 0.02001953L595.2 0.02001953L595.2 842L595.2 842L0 842z" /></clipPath><clipPath id="9"><path id="" clip-rule="evenodd" transform="matrix(1 0 0 1 0 0)" d="M216.96 131.04L341.28 131.04L341.28 131.04L341.28 191.52L341.28 191.52L216.96 191.52z" /></clipPath><clipPath id="10"><path id="" clip-rule="evenodd" transform="matrix(1 0 0 1 0 0)" d="M215.94 130.02L342.3 130.02L342.3 130.02L342.3 192.54L342.3 192.54L215.94 192.54z" /></clipPath><clipPath id="11"><path id="" clip-rule="evenodd" transform="matrix(1 0 0 1 0 0)" d="M0 0.02001953L595.2 0.02001953L595.2 0.02001953L595.2 842L595.2 842L0 842z" /></clipPath></defs><g transform="matrix(1.333333 0 0 1.333333 0 0)"><g clip-path="url(#1)"><g clip-path="url(#2)"><g clip-path="url(#3)"><path id="744" transform="matrix(1 0 0 -1 0 842)" d="M468.24 745.7L476.4 745.7L476.4 753.86L468.24 753.86z" stroke="none" fill="#FFFFFF" fill-rule="nonzero" /></g></g><g clip-path="url(#4)"><g clip-path="url(#5)"><g clip-path="url(#6)"><g transform="matrix(0.48 0 0 0.48 468.24 88.14001)"><g transform="matrix(1 0 0 1 0 0)"><image x="0" y="0" xlink:href="img_252.png" width="17" height="17" /></g></g></g></g></g><g clip-path="url(#7)"><g clip-path="url(#8)"><path id="746" transform="matrix(1 0 0 -1 0 842)" d="M216.96 650.48L341.28 650.48L341.28 710.96L216.96 710.96z" stroke="none" fill="#FFFFFF" fill-rule="nonzero" /></g></g><g clip-path="url(#9)"><g clip-path="url(#10)"><g clip-path="url(#11)"><g transform="matrix(0.48 0 0 0.48 216.96 131.04)"><g transform="matrix(1 0 0 1 0 0)"><image x="0" y="0" xlink:href="img_332.png" width="259" height="126" /></g></g></g></g></g></g></g></svg>