<svg xmlns="http://www.w3.org/2000/svg" xmlns:xlink="http://www.w3.org/1999/xlink" id="body_115" preserveAspectRatio="xMinYMin meet" viewBox="0 0 793 1123"><defs><clipPath id="1"><path id="" clip-rule="evenodd" transform="matrix(1 0 0 1 0 0)" d="M0 842L0 0L0 0L595 0L595 0L595 842L595 842L0 842z" /></clipPath><clipPath id="2"><path id="" clip-rule="evenodd" transform="matrix(1 0 0 1 0 0)" d="M224.94 168.06L447.36 168.06L447.36 168.06L447.36 382.68L447.36 382.68L224.94 382.68z" /></clipPath><clipPath id="3"><path id="" clip-rule="evenodd" transform="matrix(1 0 0 1 0 0)" d="M0 0.02001953L595.2 0.02001953L595.2 0.02001953L595.2 842L595.2 842L0 842z" /></clipPath><clipPath id="4"><path id="" clip-rule="evenodd" transform="matrix(1 0 0 1 0 0)" d="M225.96 169.02L371.88 169.02L371.88 169.02L371.88 381.66L371.88 381.66L225.96 381.66z" /></clipPath><clipPath id="5"><path id="" clip-rule="evenodd" transform="matrix(1 0 0 1 0 0)" d="M224.94 168.06L447.36 168.06L447.36 168.06L447.36 382.68L447.36 382.68L224.94 382.68z" /></clipPath><clipPath id="6"><path id="" clip-rule="evenodd" transform="matrix(1 0 0 1 0 0)" d="M0 0.02001953L595.2 0.02001953L595.2 0.02001953L595.2 842L595.2 842L0 842z" /></clipPath><clipPath id="7"><path id="" clip-rule="evenodd" transform="matrix(1 0 0 1 0 0)" d="M224.94 168.06L447.36 168.06L447.36 168.06L447.36 382.68L447.36 382.68L224.94 382.68z" /></clipPath><clipPath id="8"><path id="" clip-rule="evenodd" transform="matrix(1 0 0 1 0 0)" d="M0 0.02001953L595.2 0.02001953L595.2 0.02001953L595.2 842L595.2 842L0 842z" /></clipPath><clipPath id="9"><path id="" clip-rule="evenodd" transform="matrix(1 0 0 1 0 0)" d="M224.94 572.7L325.62 572.7L325.62 572.7L325.62 620.28L325.62 620.28L224.94 620.28z" /></clipPath><clipPath id="10"><path id="" clip-rule="evenodd" transform="matrix(1 0 0 1 0 0)" d="M0 0.02001953L595.2 0.02001953L595.2 0.02001953L595.2 842L595.2 842L0 842z" /></clipPath><clipPath id="11"><path id="" clip-rule="evenodd" transform="matrix(1 0 0 1 0 0)" d="M225.96 573.72L324.6 573.72L324.6 573.72L324.6 619.32L324.6 619.32L225.96 619.32z" /></clipPath><clipPath id="12"><path id="" clip-rule="evenodd" transform="matrix(1 0 0 1 0 0)" d="M224.94 572.7L325.62 572.7L325.62 572.7L325.62 620.28L325.62 620.28L224.94 620.28z" /></clipPath><clipPath id="13"><path id="" clip-rule="evenodd" transform="matrix(1 0 0 1 0 0)" d="M0 0.02001953L595.2 0.02001953L595.2 0.02001953L595.2 842L595.2 842L0 842z" /></clipPath></defs><g transform="matrix(1.333333 0 0 1.333333 0 0)"><g clip-path="url(#1)"><g clip-path="url(#2)"><g clip-path="url(#3)"><path id="864" transform="matrix(1 0 0 -1 0 842)" d="M225.96 460.34L371.88 460.34L371.88 672.98L225.96 672.98z" stroke="none" fill="#FFFFFF" fill-rule="nonzero" /></g></g><g clip-path="url(#4)"><g clip-path="url(#5)"><g clip-path="url(#6)"><g transform="matrix(0.48 0 0 0.48 225.96 169.02)"><g transform="matrix(1 0 0 1 0 0)"><image x="0" y="0" xlink:href="img_279.png" width="304" height="443" /></g></g></g></g></g><g clip-path="url(#7)"><g clip-path="url(#8)"><path id="866" transform="matrix(1 0 0 -1 0 842)" d="M382.26 620.9L382.74 620.9L382.74 621.92L382.26 621.92z" stroke="none" fill="#000000" fill-rule="nonzero" /><path id="867" transform="matrix(1 0 0 -1 0 842)" d="M339.66 620.9L382.26 620.9L382.26 621.92L339.66 621.92z" stroke="none" fill="#000000" fill-rule="nonzero" /><path id="882" transform="matrix(1 0 0 -1 0 842)" d="M381.9 596L382.38 596L382.38 597.02L381.9 597.02z" stroke="none" fill="#000000" fill-rule="nonzero" /><path id="883" transform="matrix(1 0 0 -1 0 842)" d="M339.66 595.76L340.14 595.76L340.14 596.78L339.66 596.78z" stroke="none" fill="#000000" fill-rule="nonzero" /><path id="884" transform="matrix(1 0 0 -1 0 842)" d="M381.9 596L381.9 597.02L340.14 596.78L340.14 595.76" stroke="none" fill="#000000" fill-rule="nonzero" /></g></g><g clip-path="url(#9)"><g clip-path="url(#10)"><path id="932" transform="matrix(1 0 0 -1 0 842)" d="M225.96 222.68L324.6 222.68L324.6 268.28L225.96 268.28z" stroke="none" fill="#FFFFFF" fill-rule="nonzero" /></g></g><g clip-path="url(#11)"><g clip-path="url(#12)"><g clip-path="url(#13)"><g transform="matrix(0.48 0 0 0.48 225.96 573.72)"><g transform="matrix(1 0 0 1 0 0)"><image x="0" y="0" xlink:href="img_280.png" width="206" height="95" /></g></g></g></g></g></g></g></svg>