<svg xmlns="http://www.w3.org/2000/svg" xmlns:xlink="http://www.w3.org/1999/xlink" id="body_207" preserveAspectRatio="xMinYMin meet" viewBox="0 0 793 1123"><defs><clipPath id="1"><path id="" clip-rule="evenodd" transform="matrix(1 0 0 1 0 0)" d="M0 842L0 0L0 0L595 0L595 0L595 842L595 842L0 842z" /></clipPath><clipPath id="2"><path id="" clip-rule="evenodd" transform="matrix(1 0 0 1 0 0)" d="M279.54 65.94L298.08 65.94L298.08 65.94L298.08 83.76001L298.08 83.76001L279.54 83.76001z" /></clipPath><clipPath id="3"><path id="" clip-rule="evenodd" transform="matrix(1 0 0 1 0 0)" d="M0 0.02001953L595.2 0.02001953L595.2 0.02001953L595.2 842L595.2 842L0 842z" /></clipPath><clipPath id="4"><path id="" clip-rule="evenodd" transform="matrix(1 0 0 1 0 0)" d="M280.56 66.96002L297.12 66.96002L297.12 66.96002L297.12 82.80005L297.12 82.80005L280.56 82.80005z" /></clipPath><clipPath id="5"><path id="" clip-rule="evenodd" transform="matrix(1 0 0 1 0 0)" d="M279.54 65.94L298.08 65.94L298.08 65.94L298.08 83.76001L298.08 83.76001L279.54 83.76001z" /></clipPath><clipPath id="6"><path id="" clip-rule="evenodd" transform="matrix(1 0 0 1 0 0)" d="M0 0.02001953L595.2 0.02001953L595.2 0.02001953L595.2 842L595.2 842L0 842z" /></clipPath><clipPath id="7"><path id="" clip-rule="evenodd" transform="matrix(1 0 0 1 0 0)" d="M35.94 131.04L548.34 131.04L548.34 131.04L548.34 183.06L548.34 183.06L35.94 183.06z" /></clipPath><clipPath id="8"><path id="" clip-rule="evenodd" transform="matrix(1 0 0 1 0 0)" d="M0 0.02001953L595.2 0.02001953L595.2 0.02001953L595.2 842L595.2 842L0 842z" /></clipPath><clipPath id="9"><path id="" clip-rule="evenodd" transform="matrix(1 0 0 1 0 0)" d="M36.96 132.06L547.38 132.06L547.38 132.06L547.38 182.04L547.38 182.04L36.96 182.04z" /></clipPath><clipPath id="10"><path id="" clip-rule="evenodd" transform="matrix(1 0 0 1 0 0)" d="M35.94 131.04L548.34 131.04L548.34 131.04L548.34 183.06L548.34 183.06L35.94 183.06z" /></clipPath><clipPath id="11"><path id="" clip-rule="evenodd" transform="matrix(1 0 0 1 0 0)" d="M0 0.02001953L595.2 0.02001953L595.2 0.02001953L595.2 842L595.2 842L0 842z" /></clipPath><clipPath id="12"><path id="" clip-rule="evenodd" transform="matrix(1 0 0 1 0 0)" d="M35.94 131.04L548.34 131.04L548.34 131.04L548.34 183.06L548.34 183.06L35.94 183.06z" /></clipPath><clipPath id="13"><path id="" clip-rule="evenodd" transform="matrix(1 0 0 1 0 0)" d="M0 0.02001953L595.2 0.02001953L595.2 0.02001953L595.2 842L595.2 842L0 842z" /></clipPath><clipPath id="14"><path id="" clip-rule="evenodd" transform="matrix(1 0 0 1 0 0)" d="M318.42 266.04L331.74 266.04L331.74 266.04L331.74 279.3L331.74 279.3L318.42 279.3z" /></clipPath><clipPath id="15"><path id="" clip-rule="evenodd" transform="matrix(1 0 0 1 0 0)" d="M0 0.02001953L595.2 0.02001953L595.2 0.02001953L595.2 842L595.2 842L0 842z" /></clipPath><clipPath id="16"><path id="" clip-rule="evenodd" transform="matrix(1 0 0 1 0 0)" d="M319.44 267.06L330.72 267.06L330.72 267.06L330.72 278.34L330.72 278.34L319.44 278.34z" /></clipPath><clipPath id="17"><path id="" clip-rule="evenodd" transform="matrix(1 0 0 1 0 0)" d="M318.42 266.04L331.74 266.04L331.74 266.04L331.74 279.3L331.74 279.3L318.42 279.3z" /></clipPath><clipPath id="18"><path id="" clip-rule="evenodd" transform="matrix(1 0 0 1 0 0)" d="M0 0.02001953L595.2 0.02001953L595.2 0.02001953L595.2 842L595.2 842L0 842z" /></clipPath><clipPath id="19"><path id="" clip-rule="evenodd" transform="matrix(1 0 0 1 0 0)" d="M215.94 391.56L539.16 391.56L539.16 391.56L539.16 511.08L539.16 511.08L215.94 511.08z" /></clipPath><clipPath id="20"><path id="" clip-rule="evenodd" transform="matrix(1 0 0 1 0 0)" d="M0 0.02001953L595.2 0.02001953L595.2 0.02001953L595.2 842L595.2 842L0 842z" /></clipPath><clipPath id="21"><path id="" clip-rule="evenodd" transform="matrix(1 0 0 1 0 0)" d="M216.96 392.58L538.14 392.58L538.14 392.58L538.14 510.06L538.14 510.06L216.96 510.06z" /></clipPath><clipPath id="22"><path id="" clip-rule="evenodd" transform="matrix(1 0 0 1 0 0)" d="M215.94 391.56L539.16 391.56L539.16 391.56L539.16 511.08L539.16 511.08L215.94 511.08z" /></clipPath><clipPath id="23"><path id="" clip-rule="evenodd" transform="matrix(1 0 0 1 0 0)" d="M0 0.02001953L595.2 0.02001953L595.2 0.02001953L595.2 842L595.2 842L0 842z" /></clipPath><clipPath id="24"><path id="" clip-rule="evenodd" transform="matrix(1 0 0 1 0 0)" d="M279.54 639.24L298.08 639.24L298.08 639.24L298.08 657.06L298.08 657.06L279.54 657.06z" /></clipPath><clipPath id="25"><path id="" clip-rule="evenodd" transform="matrix(1 0 0 1 0 0)" d="M0 0.02001953L595.2 0.02001953L595.2 0.02001953L595.2 842L595.2 842L0 842z" /></clipPath><clipPath id="26"><path id="" clip-rule="evenodd" transform="matrix(1 0 0 1 0 0)" d="M280.56 640.2L297.12 640.2L297.12 640.2L297.12 656.04L297.12 656.04L280.56 656.04z" /></clipPath><clipPath id="27"><path id="" clip-rule="evenodd" transform="matrix(1 0 0 1 0 0)" d="M279.54 639.24L298.08 639.24L298.08 639.24L298.08 657.06L298.08 657.06L279.54 657.06z" /></clipPath><clipPath id="28"><path id="" clip-rule="evenodd" transform="matrix(1 0 0 1 0 0)" d="M0 0.02001953L595.2 0.02001953L595.2 0.02001953L595.2 842L595.2 842L0 842z" /></clipPath></defs><g transform="matrix(1.333333 0 0 1.333333 0 0)"><g clip-path="url(#1)"><g clip-path="url(#2)"><g clip-path="url(#3)"><path id="1263" transform="matrix(1 0 0 -1 0 842)" d="M280.56 759.2L297.12 759.2L297.12 775.04L280.56 775.04z" stroke="none" fill="#FFFFFF" fill-rule="nonzero" /></g></g><g clip-path="url(#4)"><g clip-path="url(#5)"><g clip-path="url(#6)"><g transform="matrix(0.48 0 0 0.48 280.56 66.95996)"><g transform="matrix(1 0 0 1 0 0)"><image x="0" y="0" xlink:href="img_129.png" width="35" height="33" /></g></g></g></g></g><g clip-path="url(#7)"><g clip-path="url(#8)"><path id="1304" transform="matrix(1 0 0 -1 0 842)" d="M36.96 659.96L547.38 659.96L547.38 709.94L36.96 709.94z" stroke="none" fill="#FFFFFF" fill-rule="nonzero" /></g></g><g clip-path="url(#9)"><g clip-path="url(#10)"><g clip-path="url(#11)"><g transform="matrix(0.4800188 0 0 0.476 36.96 132.06)"><g transform="matrix(1 0 0 1 0 0)"><image x="0" y="0" xlink:href="img_518.png" width="1064" height="105" /></g></g></g></g></g><g clip-path="url(#12)"><g clip-path="url(#13)"><path id="1306" transform="matrix(1 0 0 -1 0 842)" d="M69.3 679.04L223.62 679.04L223.62 680.06L69.3 680.06z" stroke="none" fill="#FF0000" fill-rule="nonzero" /><path id="1307" transform="matrix(1 0 0 -1 0 842)" d="M222.6 664.04L223.62 664.04L223.62 679.58L222.6 679.58z" stroke="none" fill="#FF0000" fill-rule="nonzero" /><path id="1308" transform="matrix(1 0 0 -1 0 842)" d="M68.82 664.04L223.08 664.04L223.08 665.06L68.82 665.06z" stroke="none" fill="#FF0000" fill-rule="nonzero" /><path id="1309" transform="matrix(1 0 0 -1 0 842)" d="M68.82 664.58L69.84 664.58L69.84 680.06L68.82 680.06z" stroke="none" fill="#FF0000" fill-rule="nonzero" /></g></g><g clip-path="url(#14)"><g clip-path="url(#15)"><path id="1351" transform="matrix(1 0 0 -1 0 842)" d="M319.44 563.66L330.72 563.66L330.72 574.94L319.44 574.94z" stroke="none" fill="#FFFFFF" fill-rule="nonzero" /></g></g><g clip-path="url(#16)"><g clip-path="url(#17)"><g clip-path="url(#18)"><g transform="matrix(0.48 0 0 0.47 319.44 267.06)"><g transform="matrix(1 0 0 1 0 0)"><image x="0" y="0" xlink:href="img_511.png" width="24" height="24" /></g></g></g></g></g><g clip-path="url(#19)"><g clip-path="url(#20)"><path id="1353" transform="matrix(1 0 0 -1 0 842)" d="M216.96 331.94L538.14 331.94L538.14 449.42L216.96 449.42z" stroke="none" fill="#FFFFFF" fill-rule="nonzero" /></g></g><g clip-path="url(#21)"><g clip-path="url(#22)"><g clip-path="url(#23)"><g transform="matrix(0.4795702 0 0 0.4795102 216.96 392.58)"><g transform="matrix(1 0 0 1 0 0)"><image x="0" y="0" xlink:href="img_512.png" width="670" height="245" /></g></g></g></g></g><g clip-path="url(#24)"><g clip-path="url(#25)"><path id="1355" transform="matrix(1 0 0 -1 0 842)" d="M280.56 185.96L297.12 185.96L297.12 201.8L280.56 201.8z" stroke="none" fill="#FFFFFF" fill-rule="nonzero" /></g></g><g clip-path="url(#26)"><g clip-path="url(#27)"><g clip-path="url(#28)"><g transform="matrix(0.48 0 0 0.48 280.56 640.2)"><g transform="matrix(1 0 0 1 0 0)"><image x="0" y="0" xlink:href="img_128.png" width="35" height="33" /></g></g></g></g></g></g></g></svg>