<svg xmlns="http://www.w3.org/2000/svg" xmlns:xlink="http://www.w3.org/1999/xlink" id="body_58" preserveAspectRatio="xMinYMin meet" viewBox="0 0 793 1123"><defs><clipPath id="1"><path id="" clip-rule="evenodd" transform="matrix(1 0 0 1 0 0)" d="M0 842L0 0L0 0L595 0L595 0L595 842L595 842L0 842z" /></clipPath></defs><g transform="matrix(1.333333 0 0 1.333333 0 0)"><g clip-path="url(#1)"><path id="1843" transform="matrix(1 0 0 -1 0 842)" d="M35.94 751.94L201.12 751.94L201.12 769.94L35.94 769.94z" stroke="none" fill="#C4DFF7" fill-rule="nonzero" /><path id="1851" transform="matrix(1 0 0 -1 0 842)" d="M201.12 769.94L549 769.94L549 751.94L201.12 751.94" stroke="none" fill="#C4DFF7" fill-rule="nonzero" /><path id="1863" transform="matrix(1 0 0 -1 0 842)" d="M35.94 731.72L549 731.72L549 732.2L35.94 732.2z" stroke="none" fill="#000000" fill-rule="nonzero" /><path id="1864" transform="matrix(1 0 0 -1 0 842)" d="M35.94 697.7L549 697.7L549 698.18L35.94 698.18z" stroke="none" fill="#000000" fill-rule="nonzero" /><path id="1865" transform="matrix(1 0 0 -1 0 842)" d="M35.94 663.74L549 663.74L549 664.22L35.94 664.22z" stroke="none" fill="#000000" fill-rule="nonzero" /><path id="1866" transform="matrix(1 0 0 -1 0 842)" d="M35.94 629.72L549 629.72L549 630.2L35.94 630.2z" stroke="none" fill="#000000" fill-rule="nonzero" /><path id="1867" transform="matrix(1 0 0 -1 0 842)" d="M35.94 595.7L549 595.7L549 596.18L35.94 596.18z" stroke="none" fill="#000000" fill-rule="nonzero" /><path id="1868" transform="matrix(1 0 0 -1 0 842)" d="M35.94 547.7L549 547.7L549 548.18L35.94 548.18z" stroke="none" fill="#000000" fill-rule="nonzero" /><path id="1869" transform="matrix(1 0 0 -1 0 842)" d="M35.94 461.72L549 461.72L549 462.2L35.94 462.2z" stroke="none" fill="#000000" fill-rule="nonzero" /><path id="1870" transform="matrix(1 0 0 -1 0 842)" d="M35.94 427.7L549 427.7L549 428.18L35.94 428.18z" stroke="none" fill="#000000" fill-rule="nonzero" /><path id="1871" transform="matrix(1 0 0 -1 0 842)" d="M35.94 355.7L549 355.7L549 356.18L35.94 356.18z" stroke="none" fill="#000000" fill-rule="nonzero" /><path id="1872" transform="matrix(1 0 0 -1 0 842)" d="M35.94 297.68L549 297.68L549 298.16L35.94 298.16z" stroke="none" fill="#000000" fill-rule="nonzero" /><path id="1873" transform="matrix(1 0 0 -1 0 842)" d="M35.94 249.68L549 249.68L549 250.16L35.94 250.16z" stroke="none" fill="#000000" fill-rule="nonzero" /><path id="1874" transform="matrix(1 0 0 -1 0 842)" d="M35.94 215.72L549 215.72L549 216.2L35.94 216.2z" stroke="none" fill="#000000" fill-rule="nonzero" /><path id="1875" transform="matrix(1 0 0 -1 0 842)" d="M35.94 181.16L549 181.16L549 182.66L35.94 182.66z" stroke="none" fill="#000000" fill-rule="nonzero" /></g></g></svg>