<svg xmlns="http://www.w3.org/2000/svg" xmlns:xlink="http://www.w3.org/1999/xlink" id="body_134" preserveAspectRatio="xMinYMin meet" viewBox="0 0 793 1123"><defs><clipPath id="1"><path id="" clip-rule="evenodd" transform="matrix(1 0 0 1 0 0)" d="M0 842L0 0L0 0L595 0L595 0L595 842L595 842L0 842z" /></clipPath><clipPath id="2"><path id="" clip-rule="evenodd" transform="matrix(1 0 0 1 0 0)" d="M288.54 249.36L297.96 249.36L297.96 249.36L297.96 258.78L297.96 258.78L288.54 258.78z" /></clipPath><clipPath id="3"><path id="" clip-rule="evenodd" transform="matrix(1 0 0 1 0 0)" d="M0 0.02001953L595.2 0.02001953L595.2 0.02001953L595.2 842L595.2 842L0 842z" /></clipPath><clipPath id="4"><path id="" clip-rule="evenodd" transform="matrix(1 0 0 1 0 0)" d="M289.92 250.32L296.64 250.32L296.64 250.32L296.64 257.7599L296.64 257.7599L289.92 257.7599z" /></clipPath><clipPath id="5"><path id="" clip-rule="evenodd" transform="matrix(1 0 0 1 0 0)" d="M288.54 249.36L297.96 249.36L297.96 249.36L297.96 258.78L297.96 258.78L288.54 258.78z" /></clipPath><clipPath id="6"><path id="" clip-rule="evenodd" transform="matrix(1 0 0 1 0 0)" d="M0 0.02001953L595.2 0.02001953L595.2 0.02001953L595.2 842L595.2 842L0 842z" /></clipPath><clipPath id="7"><path id="" clip-rule="evenodd" transform="matrix(1 0 0 1 0 0)" d="M288.54 249.36L297.96 249.36L297.96 249.36L297.96 258.78L297.96 258.78L288.54 258.78z" /></clipPath><clipPath id="8"><path id="" clip-rule="evenodd" transform="matrix(1 0 0 1 0 0)" d="M0 0.02001953L595.2 0.02001953L595.2 0.02001953L595.2 842L595.2 842L0 842z" /></clipPath><clipPath id="9"><path id="" clip-rule="evenodd" transform="matrix(1 0 0 1 0 0)" d="M289.56 250.68L297 250.68L297 250.68L297 257.4L297 257.4L289.56 257.4z" /></clipPath><clipPath id="10"><path id="" clip-rule="evenodd" transform="matrix(1 0 0 1 0 0)" d="M288.54 249.36L297.96 249.36L297.96 249.36L297.96 258.78L297.96 258.78L288.54 258.78z" /></clipPath><clipPath id="11"><path id="" clip-rule="evenodd" transform="matrix(1 0 0 1 0 0)" d="M0 0.02001953L595.2 0.02001953L595.2 0.02001953L595.2 842L595.2 842L0 842z" /></clipPath><clipPath id="12"><path id="" clip-rule="evenodd" transform="matrix(1 0 0 1 0 0)" d="M288.54 249.36L297.96 249.36L297.96 249.36L297.96 258.78L297.96 258.78L288.54 258.78z" /></clipPath><clipPath id="13"><path id="" clip-rule="evenodd" transform="matrix(1 0 0 1 0 0)" d="M0 0.02001953L595.2 0.02001953L595.2 0.02001953L595.2 842L595.2 842L0 842z" /></clipPath><clipPath id="14"><path id="" clip-rule="evenodd" transform="matrix(1 0 0 1 0 0)" d="M289.92 250.32L296.64 250.32L296.64 250.32L296.64 257.7599L296.64 257.7599L289.92 257.7599z" /></clipPath><clipPath id="15"><path id="" clip-rule="evenodd" transform="matrix(1 0 0 1 0 0)" d="M288.54 249.36L297.96 249.36L297.96 249.36L297.96 258.78L297.96 258.78L288.54 258.78z" /></clipPath><clipPath id="16"><path id="" clip-rule="evenodd" transform="matrix(1 0 0 1 0 0)" d="M0 0.02001953L595.2 0.02001953L595.2 0.02001953L595.2 842L595.2 842L0 842z" /></clipPath><clipPath id="17"><path id="" clip-rule="evenodd" transform="matrix(1 0 0 1 0 0)" d="M408.96 278.1L418.44 278.1L418.44 278.1L418.44 286.8L418.44 286.8L408.96 286.8z" /></clipPath><clipPath id="18"><path id="" clip-rule="evenodd" transform="matrix(1 0 0 1 0 0)" d="M0 0.02001953L595.2 0.02001953L595.2 0.02001953L595.2 842L595.2 842L0 842z" /></clipPath><clipPath id="19"><path id="" clip-rule="evenodd" transform="matrix(1 0 0 1 0 0)" d="M409.98 279.06L417.42 279.06L417.42 279.06L417.42 285.78L417.42 285.78L409.98 285.78z" /></clipPath><clipPath id="20"><path id="" clip-rule="evenodd" transform="matrix(1 0 0 1 0 0)" d="M408.96 278.1L418.44 278.1L418.44 278.1L418.44 286.8L418.44 286.8L408.96 286.8z" /></clipPath><clipPath id="21"><path id="" clip-rule="evenodd" transform="matrix(1 0 0 1 0 0)" d="M0 0.02001953L595.2 0.02001953L595.2 0.02001953L595.2 842L595.2 842L0 842z" /></clipPath></defs><g transform="matrix(1.333333 0 0 1.333333 0 0)"><g clip-path="url(#1)"><g clip-path="url(#2)"><g clip-path="url(#3)"><path id="604" transform="matrix(1 0 0 -1 0 842)" d="M289.92 584.24L296.64 584.24L296.64 591.6799L289.92 591.6799z" stroke="none" fill="#FFFFFF" fill-rule="nonzero" /></g></g><g clip-path="url(#4)"><g clip-path="url(#5)"><g clip-path="url(#6)"><g transform="matrix(0.48 0 0 0.465 289.92 250.32)"><g transform="matrix(1 0 0 1 0 0)"><image x="0" y="0" xlink:href="img_342.png" width="14" height="16" /></g></g></g></g></g><g clip-path="url(#7)"><g clip-path="url(#8)"><path id="606" transform="matrix(1 0 0 -1 0 842)" d="M289.56 584.6L297 584.6L297 591.3199L289.56 591.3199z" stroke="none" fill="#FFFFFF" fill-rule="nonzero" /></g></g><g clip-path="url(#9)"><g clip-path="url(#10)"><g clip-path="url(#11)"><g transform="matrix(0.48 0 0 0.48 289.56 250.6801)"><g transform="matrix(1 0 0 1 0 0)"><image x="0" y="0" xlink:href="img_343.png" width="16" height="14" /></g></g></g></g></g><g clip-path="url(#12)"><g clip-path="url(#13)"><path id="608" transform="matrix(1 0 0 -1 0 842)" d="M289.92 584.24L296.64 584.24L296.64 591.6799L289.92 591.6799z" stroke="none" fill="#FFFFFF" fill-rule="nonzero" /></g></g><g clip-path="url(#14)"><g clip-path="url(#15)"><g clip-path="url(#16)"><g transform="matrix(0.48 0 0 0.465 289.92 250.32)"><g transform="matrix(1 0 0 1 0 0)"><image x="0" y="0" xlink:href="img_342.png" width="14" height="16" /></g></g></g></g></g><g clip-path="url(#17)"><g clip-path="url(#18)"><path id="610" transform="matrix(1 0 0 -1 0 842)" d="M409.98 556.22L417.42 556.22L417.42 562.9399L409.98 562.9399z" stroke="none" fill="#FFFFFF" fill-rule="nonzero" /></g></g><g clip-path="url(#19)"><g clip-path="url(#20)"><g clip-path="url(#21)"><g transform="matrix(0.48 0 0 0.48 409.98 279.0601)"><g transform="matrix(1 0 0 1 0 0)"><image x="0" y="0" xlink:href="img_343.png" width="16" height="14" /></g></g></g></g></g></g></g></svg>