<svg xmlns="http://www.w3.org/2000/svg" xmlns:xlink="http://www.w3.org/1999/xlink" id="body_67" preserveAspectRatio="xMinYMin meet" viewBox="0 0 793 1123"><defs><clipPath id="1"><path id="" clip-rule="evenodd" transform="matrix(1 0 0 1 0 0)" d="M0 842L0 0L0 0L595 0L595 0L595 842L595 842L0 842z" /></clipPath><clipPath id="2"><path id="" clip-rule="evenodd" transform="matrix(1 0 0 1 0 0)" d="M224.94 269.04L393.3 269.04L393.3 269.04L393.3 437.34L393.3 437.34L224.94 437.34z" /></clipPath><clipPath id="3"><path id="" clip-rule="evenodd" transform="matrix(1 0 0 1 0 0)" d="M0 0.02001953L595.2 0.02001953L595.2 0.02001953L595.2 842L595.2 842L0 842z" /></clipPath><clipPath id="4"><path id="" clip-rule="evenodd" transform="matrix(1 0 0 1 0 0)" d="M225.96 270.06L392.28 270.06L392.28 270.06L392.28 436.38L392.28 436.38L225.96 436.38z" /></clipPath><clipPath id="5"><path id="" clip-rule="evenodd" transform="matrix(1 0 0 1 0 0)" d="M224.94 269.04L393.3 269.04L393.3 269.04L393.3 437.34L393.3 437.34L224.94 437.34z" /></clipPath><clipPath id="6"><path id="" clip-rule="evenodd" transform="matrix(1 0 0 1 0 0)" d="M0 0.02001953L595.2 0.02001953L595.2 0.02001953L595.2 842L595.2 842L0 842z" /></clipPath><clipPath id="7"><path id="" clip-rule="evenodd" transform="matrix(1 0 0 1 0 0)" d="M226.38 535.38L245.64 535.38L245.64 535.38L245.64 554.64L245.64 554.64L226.38 554.64z" /></clipPath><clipPath id="8"><path id="" clip-rule="evenodd" transform="matrix(1 0 0 1 0 0)" d="M0 0.02001953L595.2 0.02001953L595.2 0.02001953L595.2 842L595.2 842L0 842z" /></clipPath><clipPath id="9"><path id="" clip-rule="evenodd" transform="matrix(1 0 0 1 0 0)" d="M227.34 536.34L244.62 536.34L244.62 536.34L244.62 553.62L244.62 553.62L227.34 553.62z" /></clipPath><clipPath id="10"><path id="" clip-rule="evenodd" transform="matrix(1 0 0 1 0 0)" d="M226.38 535.38L245.64 535.38L245.64 535.38L245.64 554.64L245.64 554.64L226.38 554.64z" /></clipPath><clipPath id="11"><path id="" clip-rule="evenodd" transform="matrix(1 0 0 1 0 0)" d="M0 0.02001953L595.2 0.02001953L595.2 0.02001953L595.2 842L595.2 842L0 842z" /></clipPath><clipPath id="12"><path id="" clip-rule="evenodd" transform="matrix(1 0 0 1 0 0)" d="M226.38 674.4L245.64 674.4L245.64 674.4L245.64 693.66L245.64 693.66L226.38 693.66z" /></clipPath><clipPath id="13"><path id="" clip-rule="evenodd" transform="matrix(1 0 0 1 0 0)" d="M0 0.02001953L595.2 0.02001953L595.2 0.02001953L595.2 842L595.2 842L0 842z" /></clipPath><clipPath id="14"><path id="" clip-rule="evenodd" transform="matrix(1 0 0 1 0 0)" d="M227.34 675.36L244.62 675.36L244.62 675.36L244.62 692.64L244.62 692.64L227.34 692.64z" /></clipPath><clipPath id="15"><path id="" clip-rule="evenodd" transform="matrix(1 0 0 1 0 0)" d="M226.38 674.4L245.64 674.4L245.64 674.4L245.64 693.66L245.64 693.66L226.38 693.66z" /></clipPath><clipPath id="16"><path id="" clip-rule="evenodd" transform="matrix(1 0 0 1 0 0)" d="M0 0.02001953L595.2 0.02001953L595.2 0.02001953L595.2 842L595.2 842L0 842z" /></clipPath></defs><g transform="matrix(1.333333 0 0 1.333333 0 0)"><g clip-path="url(#1)"><path id="515" transform="matrix(1 0 0 -1 0 842)" d="M226.38 312.62L377.94 312.62L377.94 330.62L226.38 330.62z" stroke="none" fill="#C4DFF7" fill-rule="nonzero" /><path id="525" transform="matrix(1 0 0 -1 0 842)" d="M377.94 312.62L558 312.62L558 330.62L377.94 330.62z" stroke="none" fill="#C4DFF7" fill-rule="nonzero" /><path id="886" transform="matrix(1 0 0 -1 0 842)" d="M226.38 173.36L558 173.36L558 173.84L226.38 173.84z" stroke="none" fill="#000000" fill-rule="nonzero" /><path id="887" transform="matrix(1 0 0 -1 0 842)" d="M251.7 125.36L558 125.36L558 125.84L251.7 125.84z" stroke="none" fill="#000000" fill-rule="nonzero" /><path id="888" transform="matrix(1 0 0 -1 0 842)" d="M226.38 90.86L558 90.86L558 92.36L226.38 92.36z" stroke="none" fill="#000000" fill-rule="nonzero" /><g clip-path="url(#2)"><g clip-path="url(#3)"><path id="889" transform="matrix(1 0 0 -1 0 842)" d="M225.96 405.62L392.28 405.62L392.28 571.94L225.96 571.94z" stroke="none" fill="#FFFFFF" fill-rule="nonzero" /></g></g><g clip-path="url(#4)"><g clip-path="url(#5)"><g clip-path="url(#6)"><g transform="matrix(0.48 0 0 0.4793084 225.96 270.06)"><g transform="matrix(1 0 0 1 0 0)"><image x="0" y="0" xlink:href="img_154.png" width="347" height="347" /></g></g></g></g></g><g clip-path="url(#7)"><g clip-path="url(#8)"><path id="891" transform="matrix(1 0 0 -1 0 842)" d="M227.34 288.38L244.62 288.38L244.62 305.66L227.34 305.66z" stroke="none" fill="#FFFFFF" fill-rule="nonzero" /></g></g><g clip-path="url(#9)"><g clip-path="url(#10)"><g clip-path="url(#11)"><g transform="matrix(0.48 0 0 0.48 227.34 536.34)"><g transform="matrix(1 0 0 1 0 0)"><image x="0" y="0" xlink:href="img_155.png" width="36" height="36" /></g></g></g></g></g><g clip-path="url(#12)"><g clip-path="url(#13)"><path id="893" transform="matrix(1 0 0 -1 0 842)" d="M227.34 149.36L244.62 149.36L244.62 166.64L227.34 166.64z" stroke="none" fill="#FFFFFF" fill-rule="nonzero" /></g></g><g clip-path="url(#14)"><g clip-path="url(#15)"><g clip-path="url(#16)"><g transform="matrix(0.48 0 0 0.48 227.34 675.36)"><g transform="matrix(1 0 0 1 0 0)"><image x="0" y="0" xlink:href="img_156.png" width="36" height="36" /></g></g></g></g></g></g></g></svg>