<svg xmlns="http://www.w3.org/2000/svg" xmlns:xlink="http://www.w3.org/1999/xlink" id="body_159" preserveAspectRatio="xMinYMin meet" viewBox="0 0 793 1123"><defs><clipPath id="1"><path id="" clip-rule="evenodd" transform="matrix(1 0 0 1 0 0)" d="M0 842L0 0L0 0L595 0L595 0L595 842L595 842L0 842z" /></clipPath><clipPath id="2"><path id="" clip-rule="evenodd" transform="matrix(1 0 0 1 0 0)" d="M158.64 101.52L206.94 101.52L206.94 101.52L206.94 177.36L206.94 177.36L158.64 177.36z" /></clipPath><clipPath id="3"><path id="" clip-rule="evenodd" transform="matrix(1 0 0 1 0 0)" d="M0 0.02001953L595.2 0.02001953L595.2 0.02001953L595.2 842L595.2 842L0 842z" /></clipPath><clipPath id="4"><path id="" clip-rule="evenodd" transform="matrix(1 0 0 1 0 0)" d="M159.66 102.54L205.98 102.54L205.98 102.54L205.98 131.82L205.98 131.82L159.66 131.82z" /></clipPath><clipPath id="5"><path id="" clip-rule="evenodd" transform="matrix(1 0 0 1 0 0)" d="M158.64 101.52L206.94 101.52L206.94 101.52L206.94 177.36L206.94 177.36L158.64 177.36z" /></clipPath><clipPath id="6"><path id="" clip-rule="evenodd" transform="matrix(1 0 0 1 0 0)" d="M0 0.02001953L595.2 0.02001953L595.2 0.02001953L595.2 842L595.2 842L0 842z" /></clipPath><clipPath id="7"><path id="" clip-rule="evenodd" transform="matrix(1 0 0 1 0 0)" d="M158.64 101.52L206.94 101.52L206.94 101.52L206.94 177.36L206.94 177.36L158.64 177.36z" /></clipPath><clipPath id="8"><path id="" clip-rule="evenodd" transform="matrix(1 0 0 1 0 0)" d="M0 0.02001953L595.2 0.02001953L595.2 0.02001953L595.2 842L595.2 842L0 842z" /></clipPath><clipPath id="9"><path id="" clip-rule="evenodd" transform="matrix(1 0 0 1 0 0)" d="M159.66 147.06L205.98 147.06L205.98 147.06L205.98 176.34L205.98 176.34L159.66 176.34z" /></clipPath><clipPath id="10"><path id="" clip-rule="evenodd" transform="matrix(1 0 0 1 0 0)" d="M158.64 101.52L206.94 101.52L206.94 101.52L206.94 177.36L206.94 177.36L158.64 177.36z" /></clipPath><clipPath id="11"><path id="" clip-rule="evenodd" transform="matrix(1 0 0 1 0 0)" d="M0 0.02001953L595.2 0.02001953L595.2 0.02001953L595.2 842L595.2 842L0 842z" /></clipPath><clipPath id="12"><path id="" clip-rule="evenodd" transform="matrix(1 0 0 1 0 0)" d="M471.84 110.94L487.26 110.94L487.26 110.94L487.26 126.36L487.26 126.36L471.84 126.36z" /></clipPath><clipPath id="13"><path id="" clip-rule="evenodd" transform="matrix(1 0 0 1 0 0)" d="M0 0.02001953L595.2 0.02001953L595.2 0.02001953L595.2 842L595.2 842L0 842z" /></clipPath><clipPath id="14"><path id="" clip-rule="evenodd" transform="matrix(1 0 0 1 0 0)" d="M472.8 111.9L486.24 111.9L486.24 111.9L486.24 125.34L486.24 125.34L472.8 125.34z" /></clipPath><clipPath id="15"><path id="" clip-rule="evenodd" transform="matrix(1 0 0 1 0 0)" d="M471.84 110.94L487.26 110.94L487.26 110.94L487.26 126.36L487.26 126.36L471.84 126.36z" /></clipPath><clipPath id="16"><path id="" clip-rule="evenodd" transform="matrix(1 0 0 1 0 0)" d="M0 0.02001953L595.2 0.02001953L595.2 0.02001953L595.2 842L595.2 842L0 842z" /></clipPath><clipPath id="17"><path id="" clip-rule="evenodd" transform="matrix(1 0 0 1 0 0)" d="M270.9 480.96L286.38 480.96L286.38 480.96L286.38 496.38L286.38 496.38L270.9 496.38z" /></clipPath><clipPath id="18"><path id="" clip-rule="evenodd" transform="matrix(1 0 0 1 0 0)" d="M0 0.02001953L595.2 0.02001953L595.2 0.02001953L595.2 842L595.2 842L0 842z" /></clipPath><clipPath id="19"><path id="" clip-rule="evenodd" transform="matrix(1 0 0 1 0 0)" d="M271.92 481.92L285.36 481.92L285.36 481.92L285.36 495.36L285.36 495.36L271.92 495.36z" /></clipPath><clipPath id="20"><path id="" clip-rule="evenodd" transform="matrix(1 0 0 1 0 0)" d="M270.9 480.96L286.38 480.96L286.38 480.96L286.38 496.38L286.38 496.38L270.9 496.38z" /></clipPath><clipPath id="21"><path id="" clip-rule="evenodd" transform="matrix(1 0 0 1 0 0)" d="M0 0.02001953L595.2 0.02001953L595.2 0.02001953L595.2 842L595.2 842L0 842z" /></clipPath><clipPath id="22"><path id="" clip-rule="evenodd" transform="matrix(1 0 0 1 0 0)" d="M402.72 732.42L411.42 732.42L411.42 732.42L411.42 740.4L411.42 740.4L402.72 740.4z" /></clipPath><clipPath id="23"><path id="" clip-rule="evenodd" transform="matrix(1 0 0 1 0 0)" d="M0 0.02001953L595.2 0.02001953L595.2 0.02001953L595.2 842L595.2 842L0 842z" /></clipPath><clipPath id="24"><path id="" clip-rule="evenodd" transform="matrix(1 0 0 1 0 0)" d="M403.74 733.38L411.9 733.38L411.9 733.38L411.9 740.82L411.9 740.82L403.74 740.82z" /></clipPath><clipPath id="25"><path id="" clip-rule="evenodd" transform="matrix(1 0 0 1 0 0)" d="M402.72 732.42L411.42 732.42L411.42 732.42L411.42 740.4L411.42 740.4L402.72 740.4z" /></clipPath><clipPath id="26"><path id="" clip-rule="evenodd" transform="matrix(1 0 0 1 0 0)" d="M0 0.02001953L595.2 0.02001953L595.2 0.02001953L595.2 842L595.2 842L0 842z" /></clipPath></defs><g transform="matrix(1.333333 0 0 1.333333 0 0)"><g clip-path="url(#1)"><g clip-path="url(#2)"><g clip-path="url(#3)"><path id="1430" transform="matrix(1 0 0 -1 0 842)" d="M159.66 710.18L205.98 710.18L205.98 739.46L159.66 739.46z" stroke="none" fill="#FFFFFF" fill-rule="nonzero" /></g></g><g clip-path="url(#4)"><g clip-path="url(#5)"><g clip-path="url(#6)"><g transform="matrix(0.48 0 0 0.48 159.66 102.54)"><g transform="matrix(1 0 0 1 0 0)"><image x="0" y="0" xlink:href="img_396.png" width="97" height="61" /></g></g></g></g></g><g clip-path="url(#7)"><g clip-path="url(#8)"><path id="1432" transform="matrix(1 0 0 -1 0 842)" d="M159.66 665.66L205.98 665.66L205.98 694.94L159.66 694.94z" stroke="none" fill="#FFFFFF" fill-rule="nonzero" /></g></g><g clip-path="url(#9)"><g clip-path="url(#10)"><g clip-path="url(#11)"><g transform="matrix(0.48 0 0 0.48 159.66 147.06)"><g transform="matrix(1 0 0 1 0 0)"><image x="0" y="0" xlink:href="img_397.png" width="97" height="61" /></g></g></g></g></g><path id="1434" transform="matrix(1 0 0 -1 0 842)" d="M224.94 608.6L261.3 608.6L261.3 626.6L224.94 626.6z" stroke="none" fill="#C4DFF7" fill-rule="nonzero" /><path id="1440" transform="matrix(1 0 0 -1 0 842)" d="M261.3 608.6L558 608.6L558 626.6L261.3 626.6z" stroke="none" fill="#C4DFF7" fill-rule="nonzero" /><path id="1641" transform="matrix(1 0 0 -1 0 842)" d="M224.94 588.38L558 588.38L558 588.86L224.94 588.86z" stroke="none" fill="#000000" fill-rule="nonzero" /><path id="1642" transform="matrix(1 0 0 -1 0 842)" d="M224.94 568.4L558 568.4L558 568.88L224.94 568.88z" stroke="none" fill="#000000" fill-rule="nonzero" /><path id="1643" transform="matrix(1 0 0 -1 0 842)" d="M224.94 548.36L558 548.36L558 548.84L224.94 548.84z" stroke="none" fill="#000000" fill-rule="nonzero" /><path id="1644" transform="matrix(1 0 0 -1 0 842)" d="M224.94 528.38L558 528.38L558 528.86L224.94 528.86z" stroke="none" fill="#000000" fill-rule="nonzero" /><path id="1645" transform="matrix(1 0 0 -1 0 842)" d="M224.94 493.82L558 493.82L558 495.32L224.94 495.32z" stroke="none" fill="#000000" fill-rule="nonzero" /><g clip-path="url(#12)"><g clip-path="url(#13)"><path id="1646" transform="matrix(1 0 0 -1 0 842)" d="M472.8 716.66L486.24 716.66L486.24 730.1L472.8 730.1z" stroke="none" fill="#FFFFFF" fill-rule="nonzero" /></g></g><g clip-path="url(#14)"><g clip-path="url(#15)"><g clip-path="url(#16)"><g transform="matrix(0.48 0 0 0.48 472.8 111.9)"><g transform="matrix(1 0 0 1 0 0)"><image x="0" y="0" xlink:href="img_217.png" width="28" height="28" /></g></g></g></g></g><g clip-path="url(#17)"><g clip-path="url(#18)"><path id="1648" transform="matrix(1 0 0 -1 0 842)" d="M271.92 346.64L285.36 346.64L285.36 360.08L271.92 360.08z" stroke="none" fill="#FFFFFF" fill-rule="nonzero" /></g></g><g clip-path="url(#19)"><g clip-path="url(#20)"><g clip-path="url(#21)"><g transform="matrix(0.48 0 0 0.48 271.92 481.92)"><g transform="matrix(1 0 0 1 0 0)"><image x="0" y="0" xlink:href="img_217.png" width="28" height="28" /></g></g></g></g></g><g clip-path="url(#22)"><g clip-path="url(#23)"><path id="1650" transform="matrix(1 0 0 -1 0 842)" d="M403.74 101.58L411.42 101.58L411.42 108.6203L403.74 108.6203z" stroke="none" fill="#FFFFFF" fill-rule="nonzero" /></g></g><g clip-path="url(#24)"><g clip-path="url(#25)"><g clip-path="url(#26)"><g transform="matrix(0.48 0 0 0.465 403.74 733.38)"><g transform="matrix(1 0 0 1 0 0)"><image x="0" y="0" xlink:href="img_102.png" width="17" height="16" /></g></g></g></g></g></g></g></svg>