<svg xmlns="http://www.w3.org/2000/svg" xmlns:xlink="http://www.w3.org/1999/xlink" id="body_78" preserveAspectRatio="xMinYMin meet" viewBox="0 0 793 1123"><defs><clipPath id="1"><path id="" clip-rule="evenodd" transform="matrix(1 0 0 1 0 0)" d="M0 842L0 0L0 0L595 0L595 0L595 842L595 842L0 842z" /></clipPath></defs><g transform="matrix(1.333333 0 0 1.333333 0 0)"><g clip-path="url(#1)"><path id="406" transform="matrix(1 0 0 -1 0 842)" d="M215.94 681.98L298.32 681.98L298.32 699.98L215.94 699.98z" stroke="none" fill="#C4DFF7" fill-rule="nonzero" /><path id="416" transform="matrix(1 0 0 -1 0 842)" d="M298.32 681.98L549 681.98L549 699.98L298.32 699.98z" stroke="none" fill="#C4DFF7" fill-rule="nonzero" /><path id="1106" transform="matrix(1 0 0 -1 0 842)" d="M215.94 591.74L549 591.74L549 592.22L215.94 592.22z" stroke="none" fill="#000000" fill-rule="nonzero" /><path id="1107" transform="matrix(1 0 0 -1 0 842)" d="M215.94 501.74L549 501.74L549 502.22L215.94 502.22z" stroke="none" fill="#000000" fill-rule="nonzero" /><path id="1108" transform="matrix(1 0 0 -1 0 842)" d="M215.94 425.18L549 425.18L549 426.68L215.94 426.68z" stroke="none" fill="#000000" fill-rule="nonzero" /></g></g></svg>