<svg xmlns="http://www.w3.org/2000/svg" xmlns:xlink="http://www.w3.org/1999/xlink" id="body_208" preserveAspectRatio="xMinYMin meet" viewBox="0 0 793 1123"><defs><clipPath id="1"><path id="" clip-rule="evenodd" transform="matrix(1 0 0 1 0 0)" d="M0 842L0 0L0 0L595 0L595 0L595 842L595 842L0 842z" /></clipPath><clipPath id="2"><path id="" clip-rule="evenodd" transform="matrix(1 0 0 1 0 0)" d="M279.3 445.2L297.9 445.2L297.9 445.2L297.9 463.02L297.9 463.02L279.3 463.02z" /></clipPath><clipPath id="3"><path id="" clip-rule="evenodd" transform="matrix(1 0 0 1 0 0)" d="M0 0.02001953L595.2 0.02001953L595.2 0.02001953L595.2 842L595.2 842L0 842z" /></clipPath><clipPath id="4"><path id="" clip-rule="evenodd" transform="matrix(1 0 0 1 0 0)" d="M280.32 446.22L296.88 446.22L296.88 446.22L296.88 462.06L296.88 462.06L280.32 462.06z" /></clipPath><clipPath id="5"><path id="" clip-rule="evenodd" transform="matrix(1 0 0 1 0 0)" d="M279.3 445.2L297.9 445.2L297.9 445.2L297.9 463.02L297.9 463.02L279.3 463.02z" /></clipPath><clipPath id="6"><path id="" clip-rule="evenodd" transform="matrix(1 0 0 1 0 0)" d="M0 0.02001953L595.2 0.02001953L595.2 0.02001953L595.2 842L595.2 842L0 842z" /></clipPath><clipPath id="7"><path id="" clip-rule="evenodd" transform="matrix(1 0 0 1 0 0)" d="M215.94 508.02L455.34 508.02L455.34 508.02L455.34 609.66L455.34 609.66L215.94 609.66z" /></clipPath><clipPath id="8"><path id="" clip-rule="evenodd" transform="matrix(1 0 0 1 0 0)" d="M0 0.02001953L595.2 0.02001953L595.2 0.02001953L595.2 842L595.2 842L0 842z" /></clipPath><clipPath id="9"><path id="" clip-rule="evenodd" transform="matrix(1 0 0 1 0 0)" d="M216.96 509.04L454.32 509.04L454.32 509.04L454.32 608.64L454.32 608.64L216.96 608.64z" /></clipPath><clipPath id="10"><path id="" clip-rule="evenodd" transform="matrix(1 0 0 1 0 0)" d="M215.94 508.02L455.34 508.02L455.34 508.02L455.34 609.66L455.34 609.66L215.94 609.66z" /></clipPath><clipPath id="11"><path id="" clip-rule="evenodd" transform="matrix(1 0 0 1 0 0)" d="M0 0.02001953L595.2 0.02001953L595.2 0.02001953L595.2 842L595.2 842L0 842z" /></clipPath></defs><g transform="matrix(1.333333 0 0 1.333333 0 0)"><g clip-path="url(#1)"><path id="533" transform="matrix(1 0 0 -1 0 842)" d="M215.94 675.98L224.82 675.98L224.82 695.96L215.94 695.96z" stroke="none" fill="#C5E0F7" fill-rule="nonzero" /><path id="534" transform="matrix(1 0 0 -1 0 842)" d="M224.82 695.96L549 695.96L549 675.98L224.82 675.98" stroke="none" fill="#EAEAEA" fill-rule="nonzero" /><path id="543" transform="matrix(1 0 0 -1 0 842)" d="M215.94 497.96L224.82 497.96L224.82 675.98L215.94 675.98z" stroke="none" fill="#C5E0F7" fill-rule="nonzero" /><path id="544" transform="matrix(1 0 0 -1 0 842)" d="M224.82 675.98L549 675.98L549 497.96L224.82 497.96" stroke="none" fill="#EAEAEA" fill-rule="nonzero" /><g clip-path="url(#2)"><g clip-path="url(#3)"><path id="818" transform="matrix(1 0 0 -1 0 842)" d="M280.32 379.94L296.88 379.94L296.88 395.78L280.32 395.78z" stroke="none" fill="#FFFFFF" fill-rule="nonzero" /></g></g><g clip-path="url(#4)"><g clip-path="url(#5)"><g clip-path="url(#6)"><g transform="matrix(0.48 0 0 0.48 280.32 446.22)"><g transform="matrix(1 0 0 1 0 0)"><image x="0" y="0" xlink:href="img_88.png" width="35" height="33" /></g></g></g></g></g><g clip-path="url(#7)"><g clip-path="url(#8)"><path id="820" transform="matrix(1 0 0 -1 0 842)" d="M216.96 233.36L454.32 233.36L454.32 332.96L216.96 332.96z" stroke="none" fill="#FFFFFF" fill-rule="nonzero" /></g></g><g clip-path="url(#9)"><g clip-path="url(#10)"><g clip-path="url(#11)"><g transform="matrix(0.48 0 0 0.4788462 216.96 509.04)"><g transform="matrix(1 0 0 1 0 0)"><image x="0" y="0" xlink:href="img_57.png" width="495" height="208" /></g></g></g></g></g></g></g></svg>