<svg xmlns="http://www.w3.org/2000/svg" xmlns:xlink="http://www.w3.org/1999/xlink" id="body_241" preserveAspectRatio="xMinYMin meet" viewBox="0 0 793 1123"><defs><clipPath id="1"><path id="" clip-rule="evenodd" transform="matrix(1 0 0 1 0 0)" d="M0 842L0 0L0 0L595 0L595 0L595 842L595 842L0 842z" /></clipPath><clipPath id="2"><path id="" clip-rule="evenodd" transform="matrix(1 0 0 1 0 0)" d="M224.94 730.98L738 730.98L738 730.98L738 745.98L738 745.98L224.94 745.98z" /></clipPath><clipPath id="3"><path id="" clip-rule="evenodd" transform="matrix(1 0 0 1 0 0)" d="M0 0.02001953L595.2 0.02001953L595.2 0.02001953L595.2 842L595.2 842L0 842z" /></clipPath><clipPath id="4"><path id="" clip-rule="evenodd" transform="matrix(1 0 0 1 0 0)" d="M284.16 355.02L498.78 355.02L498.78 355.02L498.78 377.7L498.78 377.7L284.16 377.7z" /></clipPath><clipPath id="5"><path id="" clip-rule="evenodd" transform="matrix(1 0 0 1 0 0)" d="M0 0.02001953L595.2 0.02001953L595.2 0.02001953L595.2 842L595.2 842L0 842z" /></clipPath></defs><g transform="matrix(1.333333 0 0 1.333333 0 0)"><g clip-path="url(#1)"><path id="724" transform="matrix(1 0 0 -1 0 842)" d="M44.94 613.94L64.68 613.94L64.68 631.94L44.94 631.94z" stroke="none" fill="#C4DFF7" fill-rule="nonzero" /><path id="726" transform="matrix(1 0 0 -1 0 842)" d="M64.68 613.94L84.42 613.94L84.42 631.94L64.68 631.94z" stroke="none" fill="#C4DFF7" fill-rule="nonzero" /><path id="728" transform="matrix(1 0 0 -1 0 842)" d="M84.42 613.94L104.16 613.94L104.16 631.94L84.42 631.94z" stroke="none" fill="#C4DFF7" fill-rule="nonzero" /><path id="730" transform="matrix(1 0 0 -1 0 842)" d="M104.16 613.94L123.9 613.94L123.9 631.94L104.16 631.94z" stroke="none" fill="#C4DFF7" fill-rule="nonzero" /><path id="732" transform="matrix(1 0 0 -1 0 842)" d="M123.9 613.94L143.64 613.94L143.64 631.94L123.9 631.94z" stroke="none" fill="#C4DFF7" fill-rule="nonzero" /><path id="734" transform="matrix(1 0 0 -1 0 842)" d="M143.64 613.94L163.32 613.94L163.32 631.94L143.64 631.94z" stroke="none" fill="#C4DFF7" fill-rule="nonzero" /><path id="736" transform="matrix(1 0 0 -1 0 842)" d="M163.32 613.94L183.06 613.94L183.06 631.94L163.32 631.94z" stroke="none" fill="#C4DFF7" fill-rule="nonzero" /><path id="738" transform="matrix(1 0 0 -1 0 842)" d="M183.06 613.94L202.8 613.94L202.8 631.94L183.06 631.94z" stroke="none" fill="#C4DFF7" fill-rule="nonzero" /><path id="740" transform="matrix(1 0 0 -1 0 842)" d="M202.8 613.94L222.54 613.94L222.54 631.94L202.8 631.94z" stroke="none" fill="#C4DFF7" fill-rule="nonzero" /><path id="742" transform="matrix(1 0 0 -1 0 842)" d="M222.54 613.94L242.28 613.94L242.28 631.94L222.54 631.94z" stroke="none" fill="#C4DFF7" fill-rule="nonzero" /><path id="744" transform="matrix(1 0 0 -1 0 842)" d="M242.28 613.94L262.02 613.94L262.02 631.94L242.28 631.94z" stroke="none" fill="#C4DFF7" fill-rule="nonzero" /><path id="746" transform="matrix(1 0 0 -1 0 842)" d="M262.02 613.94L281.76 613.94L281.76 631.94L262.02 631.94z" stroke="none" fill="#C4DFF7" fill-rule="nonzero" /><path id="748" transform="matrix(1 0 0 -1 0 842)" d="M281.76 613.94L301.44 613.94L301.44 631.94L281.76 631.94z" stroke="none" fill="#C4DFF7" fill-rule="nonzero" /><path id="750" transform="matrix(1 0 0 -1 0 842)" d="M301.44 613.94L321.18 613.94L321.18 631.94L301.44 631.94z" stroke="none" fill="#C4DFF7" fill-rule="nonzero" /><path id="752" transform="matrix(1 0 0 -1 0 842)" d="M321.18 613.94L340.92 613.94L340.92 631.94L321.18 631.94z" stroke="none" fill="#C4DFF7" fill-rule="nonzero" /><path id="754" transform="matrix(1 0 0 -1 0 842)" d="M340.92 613.94L360.66 613.94L360.66 631.94L340.92 631.94z" stroke="none" fill="#C4DFF7" fill-rule="nonzero" /><path id="756" transform="matrix(1 0 0 -1 0 842)" d="M360.66 613.94L380.4 613.94L380.4 631.94L360.66 631.94z" stroke="none" fill="#C4DFF7" fill-rule="nonzero" /><path id="758" transform="matrix(1 0 0 -1 0 842)" d="M380.4 613.94L400.14 613.94L400.14 631.94L380.4 631.94z" stroke="none" fill="#C4DFF7" fill-rule="nonzero" /><path id="760" transform="matrix(1 0 0 -1 0 842)" d="M400.14 613.94L419.88 613.94L419.88 631.94L400.14 631.94z" stroke="none" fill="#C4DFF7" fill-rule="nonzero" /><path id="762" transform="matrix(1 0 0 -1 0 842)" d="M419.88 613.94L439.56 613.94L439.56 631.94L419.88 631.94z" stroke="none" fill="#C4DFF7" fill-rule="nonzero" /><path id="764" transform="matrix(1 0 0 -1 0 842)" d="M439.56 613.94L459.3 613.94L459.3 631.94L439.56 631.94z" stroke="none" fill="#C4DFF7" fill-rule="nonzero" /><path id="766" transform="matrix(1 0 0 -1 0 842)" d="M459.3 613.94L479.04 613.94L479.04 631.94L459.3 631.94z" stroke="none" fill="#C4DFF7" fill-rule="nonzero" /><path id="768" transform="matrix(1 0 0 -1 0 842)" d="M479.04 613.94L498.78 613.94L498.78 631.94L479.04 631.94z" stroke="none" fill="#C4DFF7" fill-rule="nonzero" /><path id="770" transform="matrix(1 0 0 -1 0 842)" d="M498.78 613.94L518.52 613.94L518.52 631.94L498.78 631.94z" stroke="none" fill="#C4DFF7" fill-rule="nonzero" /><path id="772" transform="matrix(1 0 0 -1 0 842)" d="M518.52 613.94L538.26 613.94L538.26 631.94L518.52 631.94z" stroke="none" fill="#C4DFF7" fill-rule="nonzero" /><path id="774" transform="matrix(1 0 0 -1 0 842)" d="M538.26 613.94L558 613.94L558 631.94L538.26 631.94z" stroke="none" fill="#C4DFF7" fill-rule="nonzero" /><g clip-path="url(#2)"><g clip-path="url(#3)"><path id="776" transform="matrix(1 0 0 -1 0 842)" d="M225.36 103.82L225.6 103.82L225.6 104.3L225.36 104.3z" stroke="none" fill="#000000" fill-rule="nonzero" /><path id="777" transform="matrix(1 0 0 -1 0 842)" d="M225.6 103.82L369.9 103.82L369.9 104.3L225.6 104.3z" stroke="none" fill="#000000" fill-rule="nonzero" /></g></g><g clip-path="url(#4)"><g clip-path="url(#5)"></g></g></g></g></svg>