<svg xmlns="http://www.w3.org/2000/svg" xmlns:xlink="http://www.w3.org/1999/xlink" id="body_131" preserveAspectRatio="xMinYMin meet" viewBox="0 0 793 1123"><defs><clipPath id="1"><path id="" clip-rule="evenodd" transform="matrix(1 0 0 1 0 0)" d="M0 842L0 0L0 0L595 0L595 0L595 842L595 842L0 842z" /></clipPath><clipPath id="2"><path id="" clip-rule="evenodd" transform="matrix(1 0 0 1 0 0)" d="M224.94 172.02L549.3 172.02L549.3 172.02L549.3 445.38L549.3 445.38L224.94 445.38z" /></clipPath><clipPath id="3"><path id="" clip-rule="evenodd" transform="matrix(1 0 0 1 0 0)" d="M0 0.02001953L595.2 0.02001953L595.2 0.02001953L595.2 842L595.2 842L0 842z" /></clipPath><clipPath id="4"><path id="" clip-rule="evenodd" transform="matrix(1 0 0 1 0 0)" d="M225.96 173.04L548.28 173.04L548.28 173.04L548.28 444.36L548.28 444.36L225.96 444.36z" /></clipPath><clipPath id="5"><path id="" clip-rule="evenodd" transform="matrix(1 0 0 1 0 0)" d="M224.94 172.02L549.3 172.02L549.3 172.02L549.3 445.38L549.3 445.38L224.94 445.38z" /></clipPath><clipPath id="6"><path id="" clip-rule="evenodd" transform="matrix(1 0 0 1 0 0)" d="M0 0.02001953L595.2 0.02001953L595.2 0.02001953L595.2 842L595.2 842L0 842z" /></clipPath><clipPath id="7"><path id="" clip-rule="evenodd" transform="matrix(1 0 0 1 0 0)" d="M224.94 609.36L243.54 609.36L243.54 609.36L243.54 627.24L243.54 627.24L224.94 627.24z" /></clipPath><clipPath id="8"><path id="" clip-rule="evenodd" transform="matrix(1 0 0 1 0 0)" d="M0 0.02001953L595.2 0.02001953L595.2 0.02001953L595.2 842L595.2 842L0 842z" /></clipPath><clipPath id="9"><path id="" clip-rule="evenodd" transform="matrix(1 0 0 1 0 0)" d="M225.96 610.38L242.52 610.38L242.52 610.38L242.52 626.22L242.52 626.22L225.96 626.22z" /></clipPath><clipPath id="10"><path id="" clip-rule="evenodd" transform="matrix(1 0 0 1 0 0)" d="M224.94 609.36L243.54 609.36L243.54 609.36L243.54 627.24L243.54 627.24L224.94 627.24z" /></clipPath><clipPath id="11"><path id="" clip-rule="evenodd" transform="matrix(1 0 0 1 0 0)" d="M0 0.02001953L595.2 0.02001953L595.2 0.02001953L595.2 842L595.2 842L0 842z" /></clipPath><clipPath id="12"><path id="" clip-rule="evenodd" transform="matrix(1 0 0 1 0 0)" d="M224.94 637.2L243.54 637.2L243.54 637.2L243.54 655.08L243.54 655.08L224.94 655.08z" /></clipPath><clipPath id="13"><path id="" clip-rule="evenodd" transform="matrix(1 0 0 1 0 0)" d="M0 0.02001953L595.2 0.02001953L595.2 0.02001953L595.2 842L595.2 842L0 842z" /></clipPath><clipPath id="14"><path id="" clip-rule="evenodd" transform="matrix(1 0 0 1 0 0)" d="M225.96 638.22L242.52 638.22L242.52 638.22L242.52 654.06L242.52 654.06L225.96 654.06z" /></clipPath><clipPath id="15"><path id="" clip-rule="evenodd" transform="matrix(1 0 0 1 0 0)" d="M224.94 637.2L243.54 637.2L243.54 637.2L243.54 655.08L243.54 655.08L224.94 655.08z" /></clipPath><clipPath id="16"><path id="" clip-rule="evenodd" transform="matrix(1 0 0 1 0 0)" d="M0 0.02001953L595.2 0.02001953L595.2 0.02001953L595.2 842L595.2 842L0 842z" /></clipPath><clipPath id="17"><path id="" clip-rule="evenodd" transform="matrix(1 0 0 1 0 0)" d="M224.94 665.1L243.54 665.1L243.54 665.1L243.54 682.92L243.54 682.92L224.94 682.92z" /></clipPath><clipPath id="18"><path id="" clip-rule="evenodd" transform="matrix(1 0 0 1 0 0)" d="M0 0.02001953L595.2 0.02001953L595.2 0.02001953L595.2 842L595.2 842L0 842z" /></clipPath><clipPath id="19"><path id="" clip-rule="evenodd" transform="matrix(1 0 0 1 0 0)" d="M225.96 666.06L242.52 666.06L242.52 666.06L242.52 681.9L242.52 681.9L225.96 681.9z" /></clipPath><clipPath id="20"><path id="" clip-rule="evenodd" transform="matrix(1 0 0 1 0 0)" d="M224.94 665.1L243.54 665.1L243.54 665.1L243.54 682.92L243.54 682.92L224.94 682.92z" /></clipPath><clipPath id="21"><path id="" clip-rule="evenodd" transform="matrix(1 0 0 1 0 0)" d="M0 0.02001953L595.2 0.02001953L595.2 0.02001953L595.2 842L595.2 842L0 842z" /></clipPath></defs><g transform="matrix(1.333333 0 0 1.333333 0 0)"><g clip-path="url(#1)"><path id="580" transform="matrix(1 0 0 -1 0 842)" d="M224.94 238.64L271.02 238.64L271.02 256.64L224.94 256.64z" stroke="none" fill="#C5E0F7" fill-rule="nonzero" /><path id="587" transform="matrix(1 0 0 -1 0 842)" d="M271.02 238.64L558 238.64L558 256.64L271.02 256.64z" stroke="none" fill="#C5E0F7" fill-rule="nonzero" /><path id="735" transform="matrix(1 0 0 -1 0 842)" d="M224.94 210.56L558 210.56L558 211.04L224.94 211.04z" stroke="none" fill="#000000" fill-rule="nonzero" /><path id="736" transform="matrix(1 0 0 -1 0 842)" d="M224.94 182.66L558 182.66L558 183.14L224.94 183.14z" stroke="none" fill="#000000" fill-rule="nonzero" /><path id="737" transform="matrix(1 0 0 -1 0 842)" d="M224.94 154.28L558 154.28L558 155.78L224.94 155.78z" stroke="none" fill="#000000" fill-rule="nonzero" /><g clip-path="url(#2)"><g clip-path="url(#3)"><path id="738" transform="matrix(1 0 0 -1 0 842)" d="M225.96 668.96L548.28 668.96L548.28 397.64L225.96 397.64" stroke="none" fill="#FFFFFF" fill-rule="nonzero" /></g></g><g clip-path="url(#4)"><g clip-path="url(#5)"><g clip-path="url(#6)"><g transform="matrix(0.4804978 0 0 0.4802124 225.96 173.04)"><g transform="matrix(1 0 0 1 0 0)"><image x="0" y="0" xlink:href="img_312.png" width="671" height="565" /></g></g></g></g></g><g clip-path="url(#7)"><g clip-path="url(#8)"><path id="740" transform="matrix(1 0 0 -1 0 842)" d="M225.96 215.78L242.52 215.78L242.52 231.62L225.96 231.62z" stroke="none" fill="#FFFFFF" fill-rule="nonzero" /></g></g><g clip-path="url(#9)"><g clip-path="url(#10)"><g clip-path="url(#11)"><g transform="matrix(0.48 0 0 0.48 225.96 610.38)"><g transform="matrix(1 0 0 1 0 0)"><image x="0" y="0" xlink:href="img_288.png" width="35" height="33" /></g></g></g></g></g><g clip-path="url(#12)"><g clip-path="url(#13)"><path id="742" transform="matrix(1 0 0 -1 0 842)" d="M225.96 187.94L242.52 187.94L242.52 203.78L225.96 203.78z" stroke="none" fill="#FFFFFF" fill-rule="nonzero" /></g></g><g clip-path="url(#14)"><g clip-path="url(#15)"><g clip-path="url(#16)"><g transform="matrix(0.48 0 0 0.48 225.96 638.22)"><g transform="matrix(1 0 0 1 0 0)"><image x="0" y="0" xlink:href="img_100.png" width="35" height="33" /></g></g></g></g></g><g clip-path="url(#17)"><g clip-path="url(#18)"><path id="744" transform="matrix(1 0 0 -1 0 842)" d="M225.96 160.1L242.52 160.1L242.52 175.94L225.96 175.94z" stroke="none" fill="#FFFFFF" fill-rule="nonzero" /></g></g><g clip-path="url(#19)"><g clip-path="url(#20)"><g clip-path="url(#21)"><g transform="matrix(0.48 0 0 0.48 225.96 666.06)"><g transform="matrix(1 0 0 1 0 0)"><image x="0" y="0" xlink:href="img_313.png" width="35" height="33" /></g></g></g></g></g></g></g></svg>