<svg xmlns="http://www.w3.org/2000/svg" xmlns:xlink="http://www.w3.org/1999/xlink" id="body_175" preserveAspectRatio="xMinYMin meet" viewBox="0 0 793 1123"><defs><clipPath id="1"><path id="" clip-rule="evenodd" transform="matrix(1 0 0 1 0 0)" d="M0 842L0 0L0 0L595 0L595 0L595 842L595 842L0 842z" /></clipPath><clipPath id="2"><path id="" clip-rule="evenodd" transform="matrix(1 0 0 1 0 0)" d="M44.94 232.02L555.12 232.02L555.12 232.02L555.12 392.34L555.12 392.34L44.94 392.34z" /></clipPath><clipPath id="3"><path id="" clip-rule="evenodd" transform="matrix(1 0 0 1 0 0)" d="M0 0.02001953L595.2 0.02001953L595.2 0.02001953L595.2 842L595.2 842L0 842z" /></clipPath><clipPath id="4"><path id="" clip-rule="evenodd" transform="matrix(1 0 0 1 0 0)" d="M45.96 233.04L282 233.04L282 233.04L282 271.56L282 271.56L45.96 271.56z" /></clipPath><clipPath id="5"><path id="" clip-rule="evenodd" transform="matrix(1 0 0 1 0 0)" d="M44.94 232.02L555.12 232.02L555.12 232.02L555.12 392.34L555.12 392.34L44.94 392.34z" /></clipPath><clipPath id="6"><path id="" clip-rule="evenodd" transform="matrix(1 0 0 1 0 0)" d="M0 0.02001953L595.2 0.02001953L595.2 0.02001953L595.2 842L595.2 842L0 842z" /></clipPath><clipPath id="7"><path id="" clip-rule="evenodd" transform="matrix(1 0 0 1 0 0)" d="M44.94 232.02L555.12 232.02L555.12 232.02L555.12 392.34L555.12 392.34L44.94 392.34z" /></clipPath><clipPath id="8"><path id="" clip-rule="evenodd" transform="matrix(1 0 0 1 0 0)" d="M0 0.02001953L595.2 0.02001953L595.2 0.02001953L595.2 842L595.2 842L0 842z" /></clipPath><clipPath id="9"><path id="" clip-rule="evenodd" transform="matrix(1 0 0 1 0 0)" d="M335.22 234.9L554.1 234.9L554.1 234.9L554.1 391.32L554.1 391.32L335.22 391.32z" /></clipPath><clipPath id="10"><path id="" clip-rule="evenodd" transform="matrix(1 0 0 1 0 0)" d="M44.94 232.02L555.12 232.02L555.12 232.02L555.12 392.34L555.12 392.34L44.94 392.34z" /></clipPath><clipPath id="11"><path id="" clip-rule="evenodd" transform="matrix(1 0 0 1 0 0)" d="M0 0.02001953L595.2 0.02001953L595.2 0.02001953L595.2 842L595.2 842L0 842z" /></clipPath><clipPath id="12"><path id="" clip-rule="evenodd" transform="matrix(1 0 0 1 0 0)" d="M44.94 232.02L555.12 232.02L555.12 232.02L555.12 392.34L555.12 392.34L44.94 392.34z" /></clipPath><clipPath id="13"><path id="" clip-rule="evenodd" transform="matrix(1 0 0 1 0 0)" d="M0 0.02001953L595.2 0.02001953L595.2 0.02001953L595.2 842L595.2 842L0 842z" /></clipPath><clipPath id="14"><path id="" clip-rule="evenodd" transform="matrix(1 0 0 1 0 0)" d="M44.94 516.36L559.98 516.36L559.98 516.36L559.98 688.02L559.98 688.02L44.94 688.02z" /></clipPath><clipPath id="15"><path id="" clip-rule="evenodd" transform="matrix(1 0 0 1 0 0)" d="M0 0.02001953L595.2 0.02001953L595.2 0.02001953L595.2 842L595.2 842L0 842z" /></clipPath><clipPath id="16"><path id="" clip-rule="evenodd" transform="matrix(1 0 0 1 0 0)" d="M45.96 517.32L268.44 517.32L268.44 517.32L268.44 687L268.44 687L45.96 687z" /></clipPath><clipPath id="17"><path id="" clip-rule="evenodd" transform="matrix(1 0 0 1 0 0)" d="M44.94 516.36L559.98 516.36L559.98 516.36L559.98 688.02L559.98 688.02L44.94 688.02z" /></clipPath><clipPath id="18"><path id="" clip-rule="evenodd" transform="matrix(1 0 0 1 0 0)" d="M0 0.02001953L595.2 0.02001953L595.2 0.02001953L595.2 842L595.2 842L0 842z" /></clipPath><clipPath id="19"><path id="" clip-rule="evenodd" transform="matrix(1 0 0 1 0 0)" d="M44.94 516.36L559.98 516.36L559.98 516.36L559.98 688.02L559.98 688.02L44.94 688.02z" /></clipPath><clipPath id="20"><path id="" clip-rule="evenodd" transform="matrix(1 0 0 1 0 0)" d="M0 0.02001953L595.2 0.02001953L595.2 0.02001953L595.2 842L595.2 842L0 842z" /></clipPath><clipPath id="21"><path id="" clip-rule="evenodd" transform="matrix(1 0 0 1 0 0)" d="M329.76 519.84L558.96 519.84L558.96 519.84L558.96 686.64L558.96 686.64L329.76 686.64z" /></clipPath><clipPath id="22"><path id="" clip-rule="evenodd" transform="matrix(1 0 0 1 0 0)" d="M44.94 516.36L559.98 516.36L559.98 516.36L559.98 688.02L559.98 688.02L44.94 688.02z" /></clipPath><clipPath id="23"><path id="" clip-rule="evenodd" transform="matrix(1 0 0 1 0 0)" d="M0 0.02001953L595.2 0.02001953L595.2 0.02001953L595.2 842L595.2 842L0 842z" /></clipPath><clipPath id="24"><path id="" clip-rule="evenodd" transform="matrix(1 0 0 1 0 0)" d="M44.94 516.36L559.98 516.36L559.98 516.36L559.98 688.02L559.98 688.02L44.94 688.02z" /></clipPath><clipPath id="25"><path id="" clip-rule="evenodd" transform="matrix(1 0 0 1 0 0)" d="M0 0.02001953L595.2 0.02001953L595.2 0.02001953L595.2 842L595.2 842L0 842z" /></clipPath></defs><g transform="matrix(1.333333 0 0 1.333333 0 0)"><g clip-path="url(#1)"><g clip-path="url(#2)"><g clip-path="url(#3)"><path id="656" transform="matrix(1 0 0 -1 0 842)" d="M45.96 570.44L282 570.44L282 608.96L45.96 608.96z" stroke="none" fill="#FFFFFF" fill-rule="nonzero" /></g></g><g clip-path="url(#4)"><g clip-path="url(#5)"><g clip-path="url(#6)"><g transform="matrix(0.4795598 0 0 0.4755556 45.96 233.04)"><g transform="matrix(1 0 0 1 0 0)"><image x="0" y="0" xlink:href="img_434.png" width="493" height="81" /></g></g></g></g></g><g clip-path="url(#7)"><g clip-path="url(#8)"><path id="658" transform="matrix(1 0 0 -1 0 842)" d="M335.22 450.68L554.1 450.68L554.1 607.1L335.22 607.1z" stroke="none" fill="#FFFFFF" fill-rule="nonzero" /></g></g><g clip-path="url(#9)"><g clip-path="url(#10)"><g clip-path="url(#11)"><g transform="matrix(0.4795558 0 0 0.4783486 335.22 234.9)"><g transform="matrix(1 0 0 1 0 0)"><image x="0" y="0" xlink:href="img_435.png" width="457" height="327" /></g></g></g></g></g><g clip-path="url(#12)"><g clip-path="url(#13)"><path id="660" transform="matrix(1 0 0 -1 0 842)" d="M306 587.48L306 591.62L306.66 591.44L318.78 587.96L320.46 587.48L318.78 587L306.66 583.52L306 583.34L306 584L306.36 584.48L318.48 587.96L318.78 587L318.48 587L306.36 590.48L306.66 591.44L307.02 590.96L307.02 587.48" stroke="none" fill="#000000" fill-rule="nonzero" /><path id="661" transform="matrix(1 0 0 -1 0 842)" d="M306 584L307.02 584L307.02 587.48L306 587.48z" stroke="none" fill="#000000" fill-rule="nonzero" /><path id="662" transform="matrix(1 0 0 -1 0 842)" d="M306.48 587.48L306.48 590.96L306.48 590.96L318.6 587.48L318.6 587.48L306.48 584" stroke="none" fill="#000000" fill-rule="evenodd" /><path id="663" transform="matrix(1 0 0 -1 0 842)" d="M284.4 586.94L306 586.94L306 587.96L284.4 587.96z" stroke="none" fill="#000000" fill-rule="nonzero" /></g></g><g clip-path="url(#14)"><g clip-path="url(#15)"><path id="731" transform="matrix(1 0 0 -1 0 842)" d="M45.96 155L268.44 155L268.44 324.68L45.96 324.68z" stroke="none" fill="#FFFFFF" fill-rule="nonzero" /></g></g><g clip-path="url(#16)"><g clip-path="url(#17)"><g clip-path="url(#18)"><g transform="matrix(0.48 0 0 0.479322 45.96 517.32)"><g transform="matrix(1 0 0 1 0 0)"><image x="0" y="0" xlink:href="img_436.png" width="464" height="354" /></g></g></g></g></g><g clip-path="url(#19)"><g clip-path="url(#20)"><path id="733" transform="matrix(1 0 0 -1 0 842)" d="M329.76 322.16L558.96 322.16L558.96 155.36L329.76 155.36" stroke="none" fill="#FFFFFF" fill-rule="nonzero" /></g></g><g clip-path="url(#21)"><g clip-path="url(#22)"><g clip-path="url(#23)"><g transform="matrix(0.48 0 0 0.4793104 329.76 519.84)"><g transform="matrix(1 0 0 1 0 0)"><image x="0" y="0" xlink:href="img_437.png" width="478" height="348" /></g></g></g></g></g><g clip-path="url(#24)"><g clip-path="url(#25)"><path id="735" transform="matrix(1 0 0 -1 0 842)" d="M303.06 312.92L303.06 317.06L303.72 316.88L315.84 313.4L317.52 312.92L315.84 312.44L303.72 308.96L303.06 308.78L303.06 309.44L303.42 309.92L315.54 313.4L315.84 312.44L315.54 312.44L303.42 315.92L303.72 316.88L304.08 316.4L304.08 312.92" stroke="none" fill="#000000" fill-rule="nonzero" /><path id="736" transform="matrix(1 0 0 -1 0 842)" d="M303.06 309.44L304.08 309.44L304.08 312.92L303.06 312.92z" stroke="none" fill="#000000" fill-rule="nonzero" /><path id="737" transform="matrix(1 0 0 -1 0 842)" d="M303.54 312.92L303.54 316.4L303.54 316.4L315.66 312.92L315.66 312.92L303.54 309.44" stroke="none" fill="#000000" fill-rule="evenodd" /><path id="738" transform="matrix(1 0 0 -1 0 842)" d="M281.46 312.38L303.06 312.38L303.06 313.4L281.46 313.4z" stroke="none" fill="#000000" fill-rule="nonzero" /></g></g></g></g></svg>