<svg xmlns="http://www.w3.org/2000/svg" xmlns:xlink="http://www.w3.org/1999/xlink" id="body_75" preserveAspectRatio="xMinYMin meet" viewBox="0 0 793 1123"><defs><clipPath id="1"><path id="" clip-rule="evenodd" transform="matrix(1 0 0 1 0 0)" d="M0 842L0 0L0 0L595 0L595 0L595 842L595 842L0 842z" /></clipPath><clipPath id="2"><path id="" clip-rule="evenodd" transform="matrix(1 0 0 1 0 0)" d="M224.94 342.06L466.5 342.06L466.5 342.06L466.5 525.96L466.5 525.96L224.94 525.96z" /></clipPath><clipPath id="3"><path id="" clip-rule="evenodd" transform="matrix(1 0 0 1 0 0)" d="M0 0.02001953L595.2 0.02001953L595.2 0.02001953L595.2 842L595.2 842L0 842z" /></clipPath><clipPath id="4"><path id="" clip-rule="evenodd" transform="matrix(1 0 0 1 0 0)" d="M225.96 343.02L465.48 343.02L465.48 343.02L465.48 524.94L465.48 524.94L225.96 524.94z" /></clipPath><clipPath id="5"><path id="" clip-rule="evenodd" transform="matrix(1 0 0 1 0 0)" d="M224.94 342.06L466.5 342.06L466.5 342.06L466.5 525.96L466.5 525.96L224.94 525.96z" /></clipPath><clipPath id="6"><path id="" clip-rule="evenodd" transform="matrix(1 0 0 1 0 0)" d="M0 0.02001953L595.2 0.02001953L595.2 0.02001953L595.2 842L595.2 842L0 842z" /></clipPath></defs><g transform="matrix(1.333333 0 0 1.333333 0 0)"><g clip-path="url(#1)"><path id="620" transform="matrix(1 0 0 -1 0 842)" d="M224.94 719.96L307.32 719.96L307.32 737.96L224.94 737.96z" stroke="none" fill="#C4DFF7" fill-rule="nonzero" /><path id="630" transform="matrix(1 0 0 -1 0 842)" d="M307.32 719.96L558 719.96L558 737.96L307.32 737.96z" stroke="none" fill="#C4DFF7" fill-rule="nonzero" /><path id="756" transform="matrix(1 0 0 -1 0 842)" d="M224.94 671.18L558 671.18L558 672.68L224.94 672.68z" stroke="none" fill="#000000" fill-rule="nonzero" /><path id="793" transform="matrix(1 0 0 -1 0 842)" d="M224.94 155L307.32 155L307.32 173L224.94 173z" stroke="none" fill="#C4DFF7" fill-rule="nonzero" /><path id="803" transform="matrix(1 0 0 -1 0 842)" d="M307.32 155L558 155L558 173L307.32 173z" stroke="none" fill="#C4DFF7" fill-rule="nonzero" /><path id="940" transform="matrix(1 0 0 -1 0 842)" d="M224.94 134.78L558 134.78L558 135.26L224.94 135.26z" stroke="none" fill="#000000" fill-rule="nonzero" /><path id="941" transform="matrix(1 0 0 -1 0 842)" d="M224.94 116.78L558 116.78L558 117.26L224.94 117.26z" stroke="none" fill="#000000" fill-rule="nonzero" /><path id="942" transform="matrix(1 0 0 -1 0 842)" d="M224.94 82.22L558 82.22L558 83.72L224.94 83.72z" stroke="none" fill="#000000" fill-rule="nonzero" /><g clip-path="url(#2)"><g clip-path="url(#3)"><path id="943" transform="matrix(1 0 0 -1 0 842)" d="M225.96 317.06L465.48 317.06L465.48 498.98L225.96 498.98z" stroke="none" fill="#FFFFFF" fill-rule="nonzero" /></g></g><g clip-path="url(#4)"><g clip-path="url(#5)"><g clip-path="url(#6)"><g transform="matrix(0.48 0 0 0.48 225.96 343.02)"><g transform="matrix(1 0 0 1 0 0)"><image x="0" y="0" xlink:href="img_184.png" width="499" height="379" /></g></g></g></g></g></g></g></svg>