<svg xmlns="http://www.w3.org/2000/svg" xmlns:xlink="http://www.w3.org/1999/xlink" id="body_185" preserveAspectRatio="xMinYMin meet" viewBox="0 0 793 1123"><defs><clipPath id="1"><path id="" clip-rule="evenodd" transform="matrix(1 0 0 1 0 0)" d="M0 842L0 0L0 0L595 0L595 0L595 842L595 842L0 842z" /></clipPath><clipPath id="2"><path id="" clip-rule="evenodd" transform="matrix(1 0 0 1 0 0)" d="M170.52 72.41998L197.94 72.41998L197.94 72.41998L197.94 90.06L197.94 90.06L170.52 90.06z" /></clipPath><clipPath id="3"><path id="" clip-rule="evenodd" transform="matrix(1 0 0 1 0 0)" d="M0 0.02001953L595.2 0.02001953L595.2 0.02001953L595.2 842L595.2 842L0 842z" /></clipPath><clipPath id="4"><path id="" clip-rule="evenodd" transform="matrix(1 0 0 1 0 0)" d="M171.54 73.44L196.98 73.44L196.98 73.44L196.98 89.03998L196.98 89.03998L171.54 89.03998z" /></clipPath><clipPath id="5"><path id="" clip-rule="evenodd" transform="matrix(1 0 0 1 0 0)" d="M170.52 72.41998L197.94 72.41998L197.94 72.41998L197.94 90.06L197.94 90.06L170.52 90.06z" /></clipPath><clipPath id="6"><path id="" clip-rule="evenodd" transform="matrix(1 0 0 1 0 0)" d="M0 0.02001953L595.2 0.02001953L595.2 0.02001953L595.2 842L595.2 842L0 842z" /></clipPath><clipPath id="7"><path id="" clip-rule="evenodd" transform="matrix(1 0 0 1 0 0)" d="M215.94 116.04L543.36 116.04L543.36 116.04L543.36 313.08L543.36 313.08L215.94 313.08z" /></clipPath><clipPath id="8"><path id="" clip-rule="evenodd" transform="matrix(1 0 0 1 0 0)" d="M0 0.02001953L595.2 0.02001953L595.2 0.02001953L595.2 842L595.2 842L0 842z" /></clipPath><clipPath id="9"><path id="" clip-rule="evenodd" transform="matrix(1 0 0 1 0 0)" d="M216.96 117.06L542.34 117.06L542.34 117.06L542.34 312.06L542.34 312.06L216.96 312.06z" /></clipPath><clipPath id="10"><path id="" clip-rule="evenodd" transform="matrix(1 0 0 1 0 0)" d="M215.94 116.04L543.36 116.04L543.36 116.04L543.36 313.08L543.36 313.08L215.94 313.08z" /></clipPath><clipPath id="11"><path id="" clip-rule="evenodd" transform="matrix(1 0 0 1 0 0)" d="M0 0.02001953L595.2 0.02001953L595.2 0.02001953L595.2 842L595.2 842L0 842z" /></clipPath><clipPath id="12"><path id="" clip-rule="evenodd" transform="matrix(1 0 0 1 0 0)" d="M279.54 348.96L298.08 348.96L298.08 348.96L298.08 366.84L298.08 366.84L279.54 366.84z" /></clipPath><clipPath id="13"><path id="" clip-rule="evenodd" transform="matrix(1 0 0 1 0 0)" d="M0 0.02001953L595.2 0.02001953L595.2 0.02001953L595.2 842L595.2 842L0 842z" /></clipPath><clipPath id="14"><path id="" clip-rule="evenodd" transform="matrix(1 0 0 1 0 0)" d="M280.56 349.98L297.12 349.98L297.12 349.98L297.12 365.82L297.12 365.82L280.56 365.82z" /></clipPath><clipPath id="15"><path id="" clip-rule="evenodd" transform="matrix(1 0 0 1 0 0)" d="M279.54 348.96L298.08 348.96L298.08 348.96L298.08 366.84L298.08 366.84L279.54 366.84z" /></clipPath><clipPath id="16"><path id="" clip-rule="evenodd" transform="matrix(1 0 0 1 0 0)" d="M0 0.02001953L595.2 0.02001953L595.2 0.02001953L595.2 842L595.2 842L0 842z" /></clipPath><clipPath id="17"><path id="" clip-rule="evenodd" transform="matrix(1 0 0 1 0 0)" d="M215.94 535.08L543.36 535.08L543.36 535.08L543.36 732.12L543.36 732.12L215.94 732.12z" /></clipPath><clipPath id="18"><path id="" clip-rule="evenodd" transform="matrix(1 0 0 1 0 0)" d="M0 0.02001953L595.2 0.02001953L595.2 0.02001953L595.2 842L595.2 842L0 842z" /></clipPath><clipPath id="19"><path id="" clip-rule="evenodd" transform="matrix(1 0 0 1 0 0)" d="M216.96 536.1L542.34 536.1L542.34 536.1L542.34 731.1L542.34 731.1L216.96 731.1z" /></clipPath><clipPath id="20"><path id="" clip-rule="evenodd" transform="matrix(1 0 0 1 0 0)" d="M215.94 535.08L543.36 535.08L543.36 535.08L543.36 732.12L543.36 732.12L215.94 732.12z" /></clipPath><clipPath id="21"><path id="" clip-rule="evenodd" transform="matrix(1 0 0 1 0 0)" d="M0 0.02001953L595.2 0.02001953L595.2 0.02001953L595.2 842L595.2 842L0 842z" /></clipPath></defs><g transform="matrix(1.333333 0 0 1.333333 0 0)"><g clip-path="url(#1)"><g clip-path="url(#2)"><g clip-path="url(#3)"><path id="573" transform="matrix(1 0 0 -1 0 842)" d="M171.54 752.96L196.98 752.96L196.98 768.56L171.54 768.56z" stroke="none" fill="#FFFFFF" fill-rule="nonzero" /></g></g><g clip-path="url(#4)"><g clip-path="url(#5)"><g clip-path="url(#6)"><g transform="matrix(0.48 0 0 0.4727273 171.54 73.44)"><g transform="matrix(1 0 0 1 0 0)"><image x="0" y="0" xlink:href="img_308.png" width="53" height="33" /></g></g></g></g></g><g clip-path="url(#7)"><g clip-path="url(#8)"><path id="633" transform="matrix(1 0 0 -1 0 842)" d="M216.96 529.94L542.34 529.94L542.34 724.94L216.96 724.94z" stroke="none" fill="#FFFFFF" fill-rule="nonzero" /></g></g><g clip-path="url(#9)"><g clip-path="url(#10)"><g clip-path="url(#11)"><g transform="matrix(0.4795994 0 0 0.4791155 216.96 117.06)"><g transform="matrix(1 0 0 1 0 0)"><image x="0" y="0" xlink:href="img_460.png" width="679" height="407" /></g></g></g></g></g><g clip-path="url(#12)"><g clip-path="url(#13)"><path id="635" transform="matrix(1 0 0 -1 0 842)" d="M280.56 476.18L297.12 476.18L297.12 492.02L280.56 492.02z" stroke="none" fill="#FFFFFF" fill-rule="nonzero" /></g></g><g clip-path="url(#14)"><g clip-path="url(#15)"><g clip-path="url(#16)"><g transform="matrix(0.48 0 0 0.48 280.56 349.98)"><g transform="matrix(1 0 0 1 0 0)"><image x="0" y="0" xlink:href="img_297.png" width="35" height="33" /></g></g></g></g></g><g clip-path="url(#17)"><g clip-path="url(#18)"><path id="637" transform="matrix(1 0 0 -1 0 842)" d="M216.96 110.9L542.34 110.9L542.34 305.9L216.96 305.9z" stroke="none" fill="#FFFFFF" fill-rule="nonzero" /></g></g><g clip-path="url(#19)"><g clip-path="url(#20)"><g clip-path="url(#21)"><g transform="matrix(0.4795994 0 0 0.4791155 216.96 536.1)"><g transform="matrix(1 0 0 1 0 0)"><image x="0" y="0" xlink:href="img_461.png" width="679" height="407" /></g></g></g></g></g></g></g></svg>