<svg xmlns="http://www.w3.org/2000/svg" xmlns:xlink="http://www.w3.org/1999/xlink" id="body_247" preserveAspectRatio="xMinYMin meet" viewBox="0 0 793 1123"><defs><clipPath id="1"><path id="" clip-rule="evenodd" transform="matrix(1 0 0 1 0 0)" d="M0 842L0 0L0 0L595 0L595 0L595 842L595 842L0 842z" /></clipPath><clipPath id="2"><path id="" clip-rule="evenodd" transform="matrix(1 0 0 1 0 0)" d="M215.94 730.98L729 730.98L729 730.98L729 745.98L729 745.98L215.94 745.98z" /></clipPath><clipPath id="3"><path id="" clip-rule="evenodd" transform="matrix(1 0 0 1 0 0)" d="M0 0.02001953L595.2 0.02001953L595.2 0.02001953L595.2 842L595.2 842L0 842z" /></clipPath></defs><g transform="matrix(1.333333 0 0 1.333333 0 0)"><g clip-path="url(#1)"><g clip-path="url(#2)"><g clip-path="url(#3)"><path id="1346" transform="matrix(1 0 0 -1 0 842)" d="M216.36 103.82L216.6 103.82L216.6 104.3L216.36 104.3z" stroke="none" fill="#000000" fill-rule="nonzero" /><path id="1347" transform="matrix(1 0 0 -1 0 842)" d="M216.6 103.82L360.9 103.82L360.9 104.3L216.6 104.3z" stroke="none" fill="#000000" fill-rule="nonzero" /></g></g></g></g></svg>