<svg xmlns="http://www.w3.org/2000/svg" xmlns:xlink="http://www.w3.org/1999/xlink" id="body_119" preserveAspectRatio="xMinYMin meet" viewBox="0 0 793 1123"><defs><clipPath id="1"><path id="" clip-rule="evenodd" transform="matrix(1 0 0 1 0 0)" d="M0 842L0 0L0 0L595 0L595 0L595 842L595 842L0 842z" /></clipPath><clipPath id="2"><path id="" clip-rule="evenodd" transform="matrix(1 0 0 1 0 0)" d="M215.94 236.04L243.42 236.04L243.42 236.04L243.42 253.62L243.42 253.62L215.94 253.62z" /></clipPath><clipPath id="3"><path id="" clip-rule="evenodd" transform="matrix(1 0 0 1 0 0)" d="M0 0.02001953L595.2 0.02001953L595.2 0.02001953L595.2 842L595.2 842L0 842z" /></clipPath><clipPath id="4"><path id="" clip-rule="evenodd" transform="matrix(1 0 0 1 0 0)" d="M216.96 237.06L242.4 237.06L242.4 237.06L242.4 252.66L242.4 252.66L216.96 252.66z" /></clipPath><clipPath id="5"><path id="" clip-rule="evenodd" transform="matrix(1 0 0 1 0 0)" d="M215.94 236.04L243.42 236.04L243.42 236.04L243.42 253.62L243.42 253.62L215.94 253.62z" /></clipPath><clipPath id="6"><path id="" clip-rule="evenodd" transform="matrix(1 0 0 1 0 0)" d="M0 0.02001953L595.2 0.02001953L595.2 0.02001953L595.2 842L595.2 842L0 842z" /></clipPath><clipPath id="7"><path id="" clip-rule="evenodd" transform="matrix(1 0 0 1 0 0)" d="M215.94 263.58L243.42 263.58L243.42 263.58L243.42 283.62L243.42 283.62L215.94 283.62z" /></clipPath><clipPath id="8"><path id="" clip-rule="evenodd" transform="matrix(1 0 0 1 0 0)" d="M0 0.02001953L595.2 0.02001953L595.2 0.02001953L595.2 842L595.2 842L0 842z" /></clipPath><clipPath id="9"><path id="" clip-rule="evenodd" transform="matrix(1 0 0 1 0 0)" d="M216.96 264.6L242.4 264.6L242.4 264.6L242.4 282.6L242.4 282.6L216.96 282.6z" /></clipPath><clipPath id="10"><path id="" clip-rule="evenodd" transform="matrix(1 0 0 1 0 0)" d="M215.94 263.58L243.42 263.58L243.42 263.58L243.42 283.62L243.42 283.62L215.94 283.62z" /></clipPath><clipPath id="11"><path id="" clip-rule="evenodd" transform="matrix(1 0 0 1 0 0)" d="M0 0.02001953L595.2 0.02001953L595.2 0.02001953L595.2 842L595.2 842L0 842z" /></clipPath><clipPath id="12"><path id="" clip-rule="evenodd" transform="matrix(1 0 0 1 0 0)" d="M215.94 293.64L237.42 293.64L237.42 293.64L237.42 313.62L237.42 313.62L215.94 313.62z" /></clipPath><clipPath id="13"><path id="" clip-rule="evenodd" transform="matrix(1 0 0 1 0 0)" d="M0 0.02001953L595.2 0.02001953L595.2 0.02001953L595.2 842L595.2 842L0 842z" /></clipPath><clipPath id="14"><path id="" clip-rule="evenodd" transform="matrix(1 0 0 1 0 0)" d="M216.96 294.6L236.4 294.6L236.4 294.6L236.4 312.6L236.4 312.6L216.96 312.6z" /></clipPath><clipPath id="15"><path id="" clip-rule="evenodd" transform="matrix(1 0 0 1 0 0)" d="M215.94 293.64L237.42 293.64L237.42 293.64L237.42 313.62L237.42 313.62L215.94 313.62z" /></clipPath><clipPath id="16"><path id="" clip-rule="evenodd" transform="matrix(1 0 0 1 0 0)" d="M0 0.02001953L595.2 0.02001953L595.2 0.02001953L595.2 842L595.2 842L0 842z" /></clipPath><clipPath id="17"><path id="" clip-rule="evenodd" transform="matrix(1 0 0 1 0 0)" d="M176.52 435L197.94 435L197.94 435L197.94 454.98L197.94 454.98L176.52 454.98z" /></clipPath><clipPath id="18"><path id="" clip-rule="evenodd" transform="matrix(1 0 0 1 0 0)" d="M0 0.02001953L595.2 0.02001953L595.2 0.02001953L595.2 842L595.2 842L0 842z" /></clipPath><clipPath id="19"><path id="" clip-rule="evenodd" transform="matrix(1 0 0 1 0 0)" d="M177.54 435.96L196.98 435.96L196.98 435.96L196.98 453.96L196.98 453.96L177.54 453.96z" /></clipPath><clipPath id="20"><path id="" clip-rule="evenodd" transform="matrix(1 0 0 1 0 0)" d="M176.52 435L197.94 435L197.94 435L197.94 454.98L197.94 454.98L176.52 454.98z" /></clipPath><clipPath id="21"><path id="" clip-rule="evenodd" transform="matrix(1 0 0 1 0 0)" d="M0 0.02001953L595.2 0.02001953L595.2 0.02001953L595.2 842L595.2 842L0 842z" /></clipPath></defs><g transform="matrix(1.333333 0 0 1.333333 0 0)"><g clip-path="url(#1)"><path id="1162" transform="matrix(1 0 0 -1 0 842)" d="M215.94 611.96L275.76 611.96L275.76 629.96L215.94 629.96z" stroke="none" fill="#C4DFF7" fill-rule="nonzero" /><path id="1169" transform="matrix(1 0 0 -1 0 842)" d="M275.76 611.96L549 611.96L549 629.96L275.76 629.96z" stroke="none" fill="#C4DFF7" fill-rule="nonzero" /><path id="1214" transform="matrix(1 0 0 -1 0 842)" d="M215.94 584.18L549 584.18L549 584.66L215.94 584.66z" stroke="none" fill="#000000" fill-rule="nonzero" /><path id="1215" transform="matrix(1 0 0 -1 0 842)" d="M215.94 554.12L549 554.12L549 554.6L215.94 554.6z" stroke="none" fill="#000000" fill-rule="nonzero" /><path id="1216" transform="matrix(1 0 0 -1 0 842)" d="M215.94 523.58L549 523.58L549 525.08L215.94 525.08z" stroke="none" fill="#000000" fill-rule="nonzero" /><g clip-path="url(#2)"><g clip-path="url(#3)"><path id="1217" transform="matrix(1 0 0 -1 0 842)" d="M216.96 589.34L242.4 589.34L242.4 604.94L216.96 604.94z" stroke="none" fill="#FFFFFF" fill-rule="nonzero" /></g></g><g clip-path="url(#4)"><g clip-path="url(#5)"><g clip-path="url(#6)"><g transform="matrix(0.48 0 0 0.4727273 216.96 237.06)"><g transform="matrix(1 0 0 1 0 0)"><image x="0" y="0" xlink:href="img_308.png" width="53" height="33" /></g></g></g></g></g><g clip-path="url(#7)"><g clip-path="url(#8)"><path id="1219" transform="matrix(1 0 0 -1 0 842)" d="M216.96 559.4L242.4 559.4L242.4 577.4L216.96 577.4z" stroke="none" fill="#FFFFFF" fill-rule="nonzero" /></g></g><g clip-path="url(#9)"><g clip-path="url(#10)"><g clip-path="url(#11)"><g transform="matrix(0.48 0 0 0.4736842 216.96 264.6)"><g transform="matrix(1 0 0 1 0 0)"><image x="0" y="0" xlink:href="img_309.png" width="53" height="38" /></g></g></g></g></g><g clip-path="url(#12)"><g clip-path="url(#13)"><path id="1221" transform="matrix(1 0 0 -1 0 842)" d="M216.96 529.4L236.4 529.4L236.4 547.4L216.96 547.4z" stroke="none" fill="#FFFFFF" fill-rule="nonzero" /></g></g><g clip-path="url(#14)"><g clip-path="url(#15)"><g clip-path="url(#16)"><g transform="matrix(0.48 0 0 0.4736842 216.96 294.6)"><g transform="matrix(1 0 0 1 0 0)"><image x="0" y="0" xlink:href="img_228.png" width="41" height="38" /></g></g></g></g></g><g clip-path="url(#17)"><g clip-path="url(#18)"><path id="1223" transform="matrix(1 0 0 -1 0 842)" d="M177.54 388.04L196.98 388.04L196.98 406.04L177.54 406.04z" stroke="none" fill="#FFFFFF" fill-rule="nonzero" /></g></g><g clip-path="url(#19)"><g clip-path="url(#20)"><g clip-path="url(#21)"><g transform="matrix(0.48 0 0 0.4736842 177.54 435.96)"><g transform="matrix(1 0 0 1 0 0)"><image x="0" y="0" xlink:href="img_228.png" width="41" height="38" /></g></g></g></g></g></g></g></svg>