<svg xmlns="http://www.w3.org/2000/svg" xmlns:xlink="http://www.w3.org/1999/xlink" id="body_243" preserveAspectRatio="xMinYMin meet" viewBox="0 0 793 1123"><defs><clipPath id="1"><path id="" clip-rule="evenodd" transform="matrix(1 0 0 1 0 0)" d="M0 842L0 0L0 0L595 0L595 0L595 842L595 842L0 842z" /></clipPath><clipPath id="2"><path id="" clip-rule="evenodd" transform="matrix(1 0 0 1 0 0)" d="M337.56 136.02L445.38 136.02L445.38 136.02L445.38 151.02L445.38 151.02L337.56 151.02z" /></clipPath><clipPath id="3"><path id="" clip-rule="evenodd" transform="matrix(1 0 0 1 0 0)" d="M0 0.02001953L595.2 0.02001953L595.2 0.02001953L595.2 842L595.2 842L0 842z" /></clipPath><clipPath id="4"><path id="" clip-rule="evenodd" transform="matrix(1 0 0 1 0 0)" d="M224.94 488.04L559.5 488.04L559.5 488.04L559.5 555.3L559.5 555.3L224.94 555.3z" /></clipPath><clipPath id="5"><path id="" clip-rule="evenodd" transform="matrix(1 0 0 1 0 0)" d="M0 0.02001953L595.2 0.02001953L595.2 0.02001953L595.2 842L595.2 842L0 842z" /></clipPath><clipPath id="6"><path id="" clip-rule="evenodd" transform="matrix(1 0 0 1 0 0)" d="M225.96 489L390.48 489L390.48 489L390.48 554.34L390.48 554.34L225.96 554.34z" /></clipPath><clipPath id="7"><path id="" clip-rule="evenodd" transform="matrix(1 0 0 1 0 0)" d="M224.94 488.04L559.5 488.04L559.5 488.04L559.5 555.3L559.5 555.3L224.94 555.3z" /></clipPath><clipPath id="8"><path id="" clip-rule="evenodd" transform="matrix(1 0 0 1 0 0)" d="M0 0.02001953L595.2 0.02001953L595.2 0.02001953L595.2 842L595.2 842L0 842z" /></clipPath><clipPath id="9"><path id="" clip-rule="evenodd" transform="matrix(1 0 0 1 0 0)" d="M224.94 488.04L559.5 488.04L559.5 488.04L559.5 555.3L559.5 555.3L224.94 555.3z" /></clipPath><clipPath id="10"><path id="" clip-rule="evenodd" transform="matrix(1 0 0 1 0 0)" d="M0 0.02001953L595.2 0.02001953L595.2 0.02001953L595.2 842L595.2 842L0 842z" /></clipPath><clipPath id="11"><path id="" clip-rule="evenodd" transform="matrix(1 0 0 1 0 0)" d="M393.96 489L558.48 489L558.48 489L558.48 554.34L558.48 554.34L393.96 554.34z" /></clipPath><clipPath id="12"><path id="" clip-rule="evenodd" transform="matrix(1 0 0 1 0 0)" d="M224.94 488.04L559.5 488.04L559.5 488.04L559.5 555.3L559.5 555.3L224.94 555.3z" /></clipPath><clipPath id="13"><path id="" clip-rule="evenodd" transform="matrix(1 0 0 1 0 0)" d="M0 0.02001953L595.2 0.02001953L595.2 0.02001953L595.2 842L595.2 842L0 842z" /></clipPath></defs><g transform="matrix(1.333333 0 0 1.333333 0 0)"><g clip-path="url(#1)"><g clip-path="url(#2)"><g clip-path="url(#3)"></g></g><g clip-path="url(#4)"><g clip-path="url(#5)"><path id="1142" transform="matrix(1 0 0 -1 0 842)" d="M225.96 287.66L390.48 287.66L390.48 353L225.96 353z" stroke="none" fill="#FFFFFF" fill-rule="nonzero" /></g></g><g clip-path="url(#6)"><g clip-path="url(#7)"><g clip-path="url(#8)"><g transform="matrix(0.4805335 0 0 0.4769343 225.96 489)"><g transform="matrix(1 0 0 1 0 0)"><image x="0" y="0" xlink:href="img_578.png" width="343" height="137" /></g></g></g></g></g><g clip-path="url(#9)"><g clip-path="url(#10)"><path id="1144" transform="matrix(1 0 0 -1 0 842)" d="M393.96 353L558.48 353L558.48 287.66L393.96 287.66" stroke="none" fill="#FFFFFF" fill-rule="nonzero" /></g></g><g clip-path="url(#11)"><g clip-path="url(#12)"><g clip-path="url(#13)"><g transform="matrix(0.4805335 0 0 0.4769343 393.96 489)"><g transform="matrix(1 0 0 1 0 0)"><image x="0" y="0" xlink:href="img_579.png" width="343" height="137" /></g></g></g></g></g></g></g></svg>