<svg xmlns="http://www.w3.org/2000/svg" xmlns:xlink="http://www.w3.org/1999/xlink" id="body_141" preserveAspectRatio="xMinYMin meet" viewBox="0 0 793 1123"><defs><clipPath id="1"><path id="" clip-rule="evenodd" transform="matrix(1 0 0 1 0 0)" d="M0 842L0 0L0 0L595 0L595 0L595 842L595 842L0 842z" /></clipPath><clipPath id="2"><path id="" clip-rule="evenodd" transform="matrix(1 0 0 1 0 0)" d="M35.94 117.06L549.66 117.06L549.66 117.06L549.66 366.48L549.66 366.48L35.94 366.48z" /></clipPath><clipPath id="3"><path id="" clip-rule="evenodd" transform="matrix(1 0 0 1 0 0)" d="M0 0.02001953L595.2 0.02001953L595.2 0.02001953L595.2 842L595.2 842L0 842z" /></clipPath><clipPath id="4"><path id="" clip-rule="evenodd" transform="matrix(1 0 0 1 0 0)" d="M36.96 118.02L548.64 118.02L548.64 118.02L548.64 365.46L548.64 365.46L36.96 365.46z" /></clipPath><clipPath id="5"><path id="" clip-rule="evenodd" transform="matrix(1 0 0 1 0 0)" d="M35.94 117.06L549.66 117.06L549.66 117.06L549.66 366.48L549.66 366.48L35.94 366.48z" /></clipPath><clipPath id="6"><path id="" clip-rule="evenodd" transform="matrix(1 0 0 1 0 0)" d="M0 0.02001953L595.2 0.02001953L595.2 0.02001953L595.2 842L595.2 842L0 842z" /></clipPath><clipPath id="7"><path id="" clip-rule="evenodd" transform="matrix(1 0 0 1 0 0)" d="M35.94 117.06L549.66 117.06L549.66 117.06L549.66 366.48L549.66 366.48L35.94 366.48z" /></clipPath><clipPath id="8"><path id="" clip-rule="evenodd" transform="matrix(1 0 0 1 0 0)" d="M0 0.02001953L595.2 0.02001953L595.2 0.02001953L595.2 842L595.2 842L0 842z" /></clipPath><clipPath id="9"><path id="" clip-rule="evenodd" transform="matrix(1 0 0 1 0 0)" d="M471.3 589.38L489.84 589.38L489.84 589.38L489.84 607.26L489.84 607.26L471.3 607.26z" /></clipPath><clipPath id="10"><path id="" clip-rule="evenodd" transform="matrix(1 0 0 1 0 0)" d="M0 0.02001953L595.2 0.02001953L595.2 0.02001953L595.2 842L595.2 842L0 842z" /></clipPath><clipPath id="11"><path id="" clip-rule="evenodd" transform="matrix(1 0 0 1 0 0)" d="M472.32 590.4L488.88 590.4L488.88 590.4L488.88 606.24L488.88 606.24L472.32 606.24z" /></clipPath><clipPath id="12"><path id="" clip-rule="evenodd" transform="matrix(1 0 0 1 0 0)" d="M471.3 589.38L489.84 589.38L489.84 589.38L489.84 607.26L489.84 607.26L471.3 607.26z" /></clipPath><clipPath id="13"><path id="" clip-rule="evenodd" transform="matrix(1 0 0 1 0 0)" d="M0 0.02001953L595.2 0.02001953L595.2 0.02001953L595.2 842L595.2 842L0 842z" /></clipPath></defs><g transform="matrix(1.333333 0 0 1.333333 0 0)"><g clip-path="url(#1)"><g clip-path="url(#2)"><g clip-path="url(#3)"><path id="941" transform="matrix(1 0 0 -1 0 842)" d="M36.96 476.54L548.64 476.54L548.64 723.98L36.96 723.98z" stroke="none" fill="#FFFFFF" fill-rule="nonzero" /></g></g><g clip-path="url(#4)"><g clip-path="url(#5)"><g clip-path="url(#6)"><g transform="matrix(0.48 0 0 0.4795349 36.96 118.02)"><g transform="matrix(1 0 0 1 0 0)"><image x="0" y="0" xlink:href="img_356.png" width="1066" height="516" /></g></g></g></g></g><g clip-path="url(#7)"><g clip-path="url(#8)"><path id="943" transform="matrix(1 0 0 -1 0 842)" d="M73.44 628.88L164.22 628.88L164.22 629.9L73.44 629.9z" stroke="none" fill="#FF0000" fill-rule="nonzero" /><path id="944" transform="matrix(1 0 0 -1 0 842)" d="M163.2 596.9L164.22 596.9L164.22 629.42L163.2 629.42z" stroke="none" fill="#FF0000" fill-rule="nonzero" /><path id="945" transform="matrix(1 0 0 -1 0 842)" d="M72.96 596.9L163.68 596.9L163.68 597.92L72.96 597.92z" stroke="none" fill="#FF0000" fill-rule="nonzero" /><path id="946" transform="matrix(1 0 0 -1 0 842)" d="M72.96 597.44L73.98 597.44L73.98 629.9L72.96 629.9z" stroke="none" fill="#FF0000" fill-rule="nonzero" /><path id="947" transform="matrix(1 0 0 -1 0 842)" d="M285.48 561.14L321.42 561.14L321.42 562.16L285.48 562.16z" stroke="none" fill="#FF0000" fill-rule="nonzero" /><path id="948" transform="matrix(1 0 0 -1 0 842)" d="M320.4 484.52L321.42 484.52L321.42 561.68L320.4 561.68z" stroke="none" fill="#FF0000" fill-rule="nonzero" /><path id="949" transform="matrix(1 0 0 -1 0 842)" d="M285 484.52L320.88 484.52L320.88 485.54L285 485.54z" stroke="none" fill="#FF0000" fill-rule="nonzero" /><path id="950" transform="matrix(1 0 0 -1 0 842)" d="M285 485.06L286.02 485.06L286.02 562.16L285 562.16z" stroke="none" fill="#FF0000" fill-rule="nonzero" /><path id="951" transform="matrix(1 0 0 -1 0 842)" d="M270.12 536.78L270.18 540.2L270.24 540.86L282.84 537.08L284.52 536.6L282.84 536.1201L270.06 532.64L270.06 533.3L270.42 533.78L282.54 537.08L282.84 536.1201L282.54 536.1201L270.54 539.72L270.84 540.6801L271.2 540.2L271.14 536.78" stroke="none" fill="#FF0000" fill-rule="nonzero" /><path id="952" transform="matrix(1 0 0 -1 0 842)" d="M270.06 533.3L270.12 536.78L271.14 536.78L271.08 533.3" stroke="none" fill="#FF0000" fill-rule="nonzero" /><path id="953" transform="matrix(1 0 0 -1 0 842)" d="M270.6 536.78L270.66 540.2L270.66 540.2L282.66 536.6L282.66 536.6L270.54 533.3" stroke="none" fill="#FF0000" fill-rule="evenodd" /><path id="954" transform="matrix(1 0 0 -1 0 842)" d="M270.12 536.24L270.6 536.24L270.6 537.26L270.12 537.26z" stroke="none" fill="#FF0000" fill-rule="nonzero" /><path id="955" transform="matrix(1 0 0 -1 0 842)" d="M270.12 536.24L265.62 536.3C 234.895 536.943 203.065 540.259 173.16 547.46L173.16 547.46L169.74 548.3L169.74 548.3L169.74 548.36L169.74 548.36L166.38 549.26L166.38 549.26L159.9 551.06L159.9 551.06L153.66 552.98L153.66 552.98L150.66 554L150.66 554L150.6 554L150.6 554L147.66 555.02L147.66 555.02L144.78 556.04C 140.277 557.734 135.881 559.524 131.52 561.56L131.52 561.56L131.46 561.56L131.46 561.56L129.06 562.76L129.06 562.76L129.12 562.76L129.12 562.76L126.78 563.9L126.78 563.9L126.72 563.9L126.72 563.9L124.44 565.1L124.44 565.1L124.98 566L124.98 566L124.92 566L124.92 566L127.2 564.8L127.2 564.8L129.54 563.66L129.54 563.66L131.94 562.46L131.94 562.46L134.46 561.32L134.46 561.32L134.46 561.38L134.46 561.38L137.04 560.24L137.04 560.24L136.98 560.24L136.98 560.24L139.62 559.16C 147.314 556.038 155.435 553.317 163.44 551.12L163.44 551.12L166.68 550.22L166.68 550.22L166.62 550.22L166.62 550.22L169.98 549.32C 180.743 546.574 191.699 544.386 202.68 542.72L202.68 542.72L206.58 542.12L206.58 542.12L206.52 542.12L206.52 542.12L210.42 541.58C 224.245 539.65 238.418 538.421 252.36 537.74L252.36 537.74L256.74 537.56L256.74 537.56L256.68 537.56L256.68 537.56L265.62 537.32L265.62 537.32L270.12 537.26" stroke="none" fill="#FF0000" fill-rule="nonzero" /><path id="956" transform="matrix(1 0 0 -1 0 842)" d="M124.44 565.1L122.28 566.36L122.28 566.36L120.18 567.56L120.18 567.56L120.18 567.62L120.18 567.62L118.14 568.88C 112.675 572.328 106.674 577.12 102.84 582.38L102.84 582.38L102.78 582.38L102.78 582.38L101.76 583.8199L101.76 583.8199L100.86 585.2599L100.86 585.2599L100.86 585.3199L100.86 585.3199L100.08 586.7599L100.08 586.7599L99.42 588.2L99.42 588.2L99.36 588.2L99.36 588.2L98.76 589.64L98.76 589.64L98.76 589.7L98.76 589.7L98.28 591.14L98.28 591.14L97.86 592.64L97.86 592.64L97.86 592.7L97.86 592.7L97.62 594.14L97.62 594.14L97.62 594.2L97.62 594.2L97.44 595.7L97.44 595.7L98.46001 595.7599L98.46001 595.7599L98.46001 595.8199L98.46001 595.8199L98.64 594.3199L98.64 594.3199L98.88 592.88L98.88 592.88L98.82 592.94L98.82 592.94L99.24001 591.44L99.24001 591.44L99.72 590L99.72 590L99.72 590.06L99.72 590.06L100.32 588.62L100.32 588.62L100.98 587.18L100.98 587.18L100.98 587.24L100.98 587.24L101.76 585.8L101.76 585.8L101.7 585.8L101.7 585.8L102.6 584.36L102.6 584.36L102.6 584.42L102.6 584.42L103.62 582.98L103.62 582.98L104.7 581.6L104.7 581.6L105.9 580.22L105.9 580.22L105.84 580.28L105.84 580.28L107.16 578.9L107.16 578.9L108.54 577.52L108.54 577.52L109.98 576.2L109.98 576.2L113.22 573.56L113.22 573.56L113.16 573.62L113.16 573.62L114.9 572.3L114.9 572.3L116.76 570.98L116.76 570.98L118.68 569.72L118.68 569.72L120.72 568.46L120.72 568.46L120.66 568.46L120.66 568.46L122.76 567.2599L122.76 567.2599L122.82 567.2599L122.82 567.2599L124.98 566" stroke="none" fill="#FF0000" fill-rule="nonzero" /><path id="957" transform="matrix(1 0 0 -1 0 842)" d="M97.38 597.2L97.38 597.68L98.39999 597.74L98.39999 597.26" stroke="none" fill="#FF0000" fill-rule="nonzero" /><path id="958" transform="matrix(1 0 0 -1 0 842)" d="M97.44 595.7L98.46 595.76L98.4 597.26L97.38 597.2" stroke="none" fill="#FF0000" fill-rule="nonzero" /></g></g><g clip-path="url(#9)"><g clip-path="url(#10)"><path id="959" transform="matrix(1 0 0 -1 0 842)" d="M472.32 235.76L488.88 235.76L488.88 251.6L472.32 251.6z" stroke="none" fill="#FFFFFF" fill-rule="nonzero" /></g></g><g clip-path="url(#11)"><g clip-path="url(#12)"><g clip-path="url(#13)"><g transform="matrix(0.48 0 0 0.48 472.32 590.4)"><g transform="matrix(1 0 0 1 0 0)"><image x="0" y="0" xlink:href="img_94.png" width="35" height="33" /></g></g></g></g></g></g></g></svg>