<svg xmlns="http://www.w3.org/2000/svg" xmlns:xlink="http://www.w3.org/1999/xlink" id="body_147" preserveAspectRatio="xMinYMin meet" viewBox="0 0 793 1123"><defs><clipPath id="1"><path id="" clip-rule="evenodd" transform="matrix(1 0 0 1 0 0)" d="M0 842L0 0L0 0L595 0L595 0L595 842L595 842L0 842z" /></clipPath><clipPath id="2"><path id="" clip-rule="evenodd" transform="matrix(1 0 0 1 0 0)" d="M420.06 85.67999L431.88 85.67999L431.88 85.67999L431.88 96.53998L431.88 96.53998L420.06 96.53998z" /></clipPath><clipPath id="3"><path id="" clip-rule="evenodd" transform="matrix(1 0 0 1 0 0)" d="M0 0.02001953L595.2 0.02001953L595.2 0.02001953L595.2 842L595.2 842L0 842z" /></clipPath><clipPath id="4"><path id="" clip-rule="evenodd" transform="matrix(1 0 0 1 0 0)" d="M421.08 86.64001L431.58 86.64001L431.58 86.64001L431.58 96.4801L431.58 96.4801L421.08 96.4801z" /></clipPath><clipPath id="5"><path id="" clip-rule="evenodd" transform="matrix(1 0 0 1 0 0)" d="M420.06 85.67999L431.88 85.67999L431.88 85.67999L431.88 96.53998L431.88 96.53998L420.06 96.53998z" /></clipPath><clipPath id="6"><path id="" clip-rule="evenodd" transform="matrix(1 0 0 1 0 0)" d="M0 0.02001953L595.2 0.02001953L595.2 0.02001953L595.2 842L595.2 842L0 842z" /></clipPath><clipPath id="7"><path id="" clip-rule="evenodd" transform="matrix(1 0 0 1 0 0)" d="M44.94 145.02L509.7 145.02L509.7 145.02L509.7 348.42L509.7 348.42L44.94 348.42z" /></clipPath><clipPath id="8"><path id="" clip-rule="evenodd" transform="matrix(1 0 0 1 0 0)" d="M0 0.02001953L595.2 0.02001953L595.2 0.02001953L595.2 842L595.2 842L0 842z" /></clipPath><clipPath id="9"><path id="" clip-rule="evenodd" transform="matrix(1 0 0 1 0 0)" d="M45.96 146.04L508.68 146.04L508.68 146.04L508.68 347.4L508.68 347.4L45.96 347.4z" /></clipPath><clipPath id="10"><path id="" clip-rule="evenodd" transform="matrix(1 0 0 1 0 0)" d="M44.94 145.02L509.7 145.02L509.7 145.02L509.7 348.42L509.7 348.42L44.94 348.42z" /></clipPath><clipPath id="11"><path id="" clip-rule="evenodd" transform="matrix(1 0 0 1 0 0)" d="M0 0.02001953L595.2 0.02001953L595.2 0.02001953L595.2 842L595.2 842L0 842z" /></clipPath></defs><g transform="matrix(1.333333 0 0 1.333333 0 0)"><g clip-path="url(#1)"><g clip-path="url(#2)"><g clip-path="url(#3)"><path id="994" transform="matrix(1 0 0 -1 0 842)" d="M421.08 745.52L431.58 745.52L431.58 755.3601L421.08 755.3601z" stroke="none" fill="#FFFFFF" fill-rule="nonzero" /></g></g><g clip-path="url(#4)"><g clip-path="url(#5)"><g clip-path="url(#6)"><g transform="matrix(0.4804545 0 0 0.4685715 421.08 86.63995)"><g transform="matrix(1 0 0 1 0 0)"><image x="0" y="0" xlink:href="img_368.png" width="22" height="21" /></g></g></g></g></g><g clip-path="url(#7)"><g clip-path="url(#8)"><path id="1054" transform="matrix(1 0 0 -1 0 842)" d="M45.96 494.6L508.68 494.6L508.68 695.96L45.96 695.96z" stroke="none" fill="#FFFFFF" fill-rule="nonzero" /></g></g><g clip-path="url(#9)"><g clip-path="url(#10)"><g clip-path="url(#11)"><g transform="matrix(0.48 0 0 0.4794286 45.96 146.04)"><g transform="matrix(1 0 0 1 0 0)"><image x="0" y="0" xlink:href="img_369.png" width="964" height="420" /></g></g></g></g></g></g></g></svg>