<svg xmlns="http://www.w3.org/2000/svg" xmlns:xlink="http://www.w3.org/1999/xlink" id="body_26" preserveAspectRatio="xMinYMin meet" viewBox="0 0 793 1123"><defs><clipPath id="1"><path id="" clip-rule="evenodd" transform="matrix(1 0 0 1 0 0)" d="M0 842L0 0L0 0L595 0L595 0L595 842L595 842L0 842z" /></clipPath><clipPath id="2"><path id="" clip-rule="evenodd" transform="matrix(1 0 0 1 0 0)" d="M224.94 556.08L537 556.08L537 556.08L537 672.06L537 672.06L224.94 672.06z" /></clipPath><clipPath id="3"><path id="" clip-rule="evenodd" transform="matrix(1 0 0 1 0 0)" d="M0 0.02001953L595.2 0.02001953L595.2 0.02001953L595.2 842L595.2 842L0 842z" /></clipPath><clipPath id="4"><path id="" clip-rule="evenodd" transform="matrix(1 0 0 1 0 0)" d="M225.96 557.04L535.98 557.04L535.98 557.04L535.98 671.04L535.98 671.04L225.96 671.04z" /></clipPath><clipPath id="5"><path id="" clip-rule="evenodd" transform="matrix(1 0 0 1 0 0)" d="M224.94 556.08L537 556.08L537 556.08L537 672.06L537 672.06L224.94 672.06z" /></clipPath><clipPath id="6"><path id="" clip-rule="evenodd" transform="matrix(1 0 0 1 0 0)" d="M0 0.02001953L595.2 0.02001953L595.2 0.02001953L595.2 842L595.2 842L0 842z" /></clipPath><clipPath id="7"><path id="" clip-rule="evenodd" transform="matrix(1 0 0 1 0 0)" d="M224.94 556.08L537 556.08L537 556.08L537 672.06L537 672.06L224.94 672.06z" /></clipPath><clipPath id="8"><path id="" clip-rule="evenodd" transform="matrix(1 0 0 1 0 0)" d="M0 0.02001953L595.2 0.02001953L595.2 0.02001953L595.2 842L595.2 842L0 842z" /></clipPath></defs><g transform="matrix(1.333333 0 0 1.333333 0 0)"><g clip-path="url(#1)"><g clip-path="url(#2)"><g clip-path="url(#3)"><path id="1696" transform="matrix(1 0 0 -1 0 842)" d="M225.96 170.96L535.98 170.96L535.98 284.96L225.96 284.96z" stroke="none" fill="#FFFFFF" fill-rule="nonzero" /></g></g><g clip-path="url(#4)"><g clip-path="url(#5)"><g clip-path="url(#6)"><path id="1697" transform="matrix(1 0 0 -1 0 842)" d="M464.531 210.246L535.382 210.246L535.382 210.246L535.382 252.8L535.382 252.8L464.531 252.8z" stroke="#000000" stroke-width="0.24" fill="#BFBFBF" fill-rule="evenodd" /><path id="1698" transform="matrix(1 0 0 -1 0 842)" d="M232.106 172.012L302.957 172.012L302.957 172.012L302.957 214.566L302.957 214.566L232.106 214.566z" stroke="#000000" stroke-width="0.24" fill="#E6E6E6" fill-rule="evenodd" /><path id="1699" transform="matrix(1 0 0 -1 0 842)" d="M237.722 241.423L308.573 241.423L308.573 241.423L308.573 283.977L308.573 283.977L237.722 283.977z" stroke="#000000" stroke-width="0.24" fill="#FFFEFE" fill-rule="evenodd" /><path id="1700" transform="matrix(1 0 0 -1 0 842)" d="M234.914 238.543L305.765 238.543L305.765 238.543L305.765 281.097L305.765 281.097L234.914 281.097z" stroke="#000000" stroke-width="0.24" fill="#FFFEFE" fill-rule="evenodd" /><path id="1701" transform="matrix(1 0 0 -1 0 842)" d="M232.106 235.735L302.957 235.735L302.957 235.735L302.957 278.289L302.957 278.289L232.106 278.289z" stroke="#000000" stroke-width="0.24" fill="#FFFEFE" fill-rule="evenodd" /><path id="1702" transform="matrix(1 0 0 -1 0 842)" d="M229.226 232.927L300.077 232.927L300.077 232.927L300.077 275.481L300.077 275.481L229.226 275.481z" stroke="#000000" stroke-width="0.24" fill="#FFFEFE" fill-rule="evenodd" /><path id="1703" transform="matrix(1 0 0 -1 0 842)" d="M226.85 230.047L297.701 230.047L297.701 230.047L297.701 272.601L297.701 272.601L226.85 272.601z" stroke="#000000" stroke-width="0.24" fill="#FFFEFE" fill-rule="evenodd" /><path id="1704" transform="matrix(1 0 0 -1 0 842)" d="M356.311 215.934L427.162 215.934L427.162 215.934L427.162 258.488L427.162 258.488L356.311 258.488z" stroke="#000000" stroke-width="0.24" fill="#E6E5E5" fill-rule="evenodd" /><path id="1705" transform="matrix(1 0 0 -1 0 842)" d="M353.503 213.126L424.354 213.126L424.354 213.126L424.354 255.68L424.354 255.68L353.503 255.68z" stroke="#000000" stroke-width="0.24" fill="#E6E5E5" fill-rule="evenodd" /><path id="1706" transform="matrix(1 0 0 -1 0 842)" d="M350.623 210.318L421.474 210.318L421.474 210.318L421.474 252.872L421.474 252.872L350.623 252.872z" stroke="#000000" stroke-width="0.24" fill="#E6E5E5" fill-rule="evenodd" /><path id="1707" transform="matrix(1 0 0 -1 0 842)" d="M347.815 207.438L418.666 207.438L418.666 207.438L418.666 249.992L418.666 249.992L347.815 249.992z" stroke="#000000" stroke-width="0.24" fill="#E6E5E5" fill-rule="evenodd" /><path id="1708" transform="matrix(1 0 0 -1 0 842)" d="M345.438 204.558L416.289 204.558L416.289 204.558L416.289 247.112L416.289 247.112L345.438 247.112z" stroke="#000000" stroke-width="0.24" fill="#E6E5E5" fill-rule="evenodd" /><path id="1709" transform="matrix(1 0 0 -1 0 842)" d="M421.474 231.487L460.191 231.487" stroke="#000000" stroke-width="1" stroke-linecap="round" fill="none" /><path id="1710" transform="matrix(1 0 0 -1 0 842)" d="M457.543 234.957L464.484 231.486L464.484 231.486L457.543 228.016L457.543 228.016L457.543 234.957" stroke="none" fill="#000000" fill-rule="evenodd" /><path id="1711" transform="matrix(1 0 0 -1 0 842)" d="M303.057 259.243L319.966 259.243L319.966 259.243L319.966 231.417L319.966 231.417L341.056 231.417" stroke="#000000" stroke-width="1" stroke-linecap="round" fill="none" /><path id="1712" transform="matrix(1 0 0 -1 0 842)" d="M338.408 234.888L345.349 231.417L345.349 231.417L338.408 227.947L338.408 227.947L338.408 234.888" stroke="none" fill="#000000" fill-rule="evenodd" /><path id="1713" transform="matrix(1 0 0 -1 0 842)" d="M303.763 192.973L319.981 192.973L319.981 192.973L319.981 231.417L319.981 231.417L341.047 231.417" stroke="#000000" stroke-width="1" stroke-linecap="round" fill="none" /></g></g></g><g clip-path="url(#7)"><g clip-path="url(#8)"></g></g></g></g></svg>