<svg xmlns="http://www.w3.org/2000/svg" xmlns:xlink="http://www.w3.org/1999/xlink" id="body_251" preserveAspectRatio="xMinYMin meet" viewBox="0 0 793 1121"><defs><clipPath id="1"><path id="" clip-rule="evenodd" transform="matrix(1 0 0 1 0 0)" d="M0 841L0 -0.8900146L0 -0.8900146L595.275 -0.8900146L595.275 -0.8900146L595.275 841L595.275 841L0 841z" /></clipPath><clipPath id="2"><path id="" clip-rule="evenodd" transform="matrix(1 0 0 1 0 0)" d="M-0.059998 -1L595.26 -1L595.26 -1L595.26 840.98L595.26 840.98L-0.059998 840.98z" /></clipPath><clipPath id="3"><path id="" clip-rule="evenodd" transform="matrix(1 0 0 1 0 0)" d="M0 -0.9799805L595.2 -0.9799805L595.2 -0.9799805L595.2 841L595.2 841L0 841z" /></clipPath><clipPath id="4"><path id="" clip-rule="evenodd" transform="matrix(1 0 0 1 0 0)" d="M-0.05011 840.9526L595.2499 840.9526L595.2499 840.9526L595.2499 -0.9733887L595.2499 -0.9733887L-0.05011 -0.9733887z" /></clipPath><clipPath id="5"><path id="" clip-rule="evenodd" transform="matrix(1 0 0 1 0 0)" d="M-0.059998 -1L595.26 -1L595.26 -1L595.26 840.98L595.26 840.98L-0.059998 840.98z" /></clipPath><clipPath id="6"><path id="" clip-rule="evenodd" transform="matrix(1 0 0 1 0 0)" d="M0 -0.9799805L595.2 -0.9799805L595.2 -0.9799805L595.2 841L595.2 841L0 841z" /></clipPath><clipPath id="7"><path id="" clip-rule="evenodd" transform="matrix(1 0 0 1 0 0)" d="M-0.059998 -1L595.26 -1L595.26 -1L595.26 840.98L595.26 840.98L-0.059998 840.98z" /></clipPath><clipPath id="8"><path id="" clip-rule="evenodd" transform="matrix(1 0 0 1 0 0)" d="M0 -0.9799805L595.2 -0.9799805L595.2 -0.9799805L595.2 841L595.2 841L0 841z" /></clipPath><clipPath id="9"><path id="" clip-rule="evenodd" transform="matrix(1 0 0 1 0 0)" d="M-0.05011 840.9526L595.2499 840.9526L595.2499 840.9526L595.2499 -0.9733887L595.2499 -0.9733887L-0.05011 -0.9733887z" /></clipPath><clipPath id="10"><path id="" clip-rule="evenodd" transform="matrix(1 0 0 1 0 0)" d="M-0.059998 -1L595.26 -1L595.26 -1L595.26 840.98L595.26 840.98L-0.059998 840.98z" /></clipPath><clipPath id="11"><path id="" clip-rule="evenodd" transform="matrix(1 0 0 1 0 0)" d="M0 -0.9799805L595.2 -0.9799805L595.2 -0.9799805L595.2 841L595.2 841L0 841z" /></clipPath></defs><g transform="matrix(1.333333 0 0 1.333333 0 0)"><g clip-path="url(#1)"><path id="1" transform="matrix(1 0 0 -1 0 841)" d="M0 0.14032L595.02 0.14032L595.02 841.9803L0 841.9803z" stroke="none" fill="#FFFFFF" fill-rule="nonzero" /><g clip-path="url(#2)"><g clip-path="url(#3)"><path id="2" transform="matrix(1 0 0 -1 0 841)" d="M448.491 73.296L454.287 73.296L454.287 90.018L460.605 90.018L460.605 94.161L442.172 94.161L442.172 90.018L448.491 90.018M495.327 73.296L500.689 73.296L500.689 73.296L500.689 79.933C 500.689 82.048 502.079 83.353 504.197 83.353C 504.601 83.353 505.093 83.353 505.673 83.294L505.673 83.294L505.673 87.931L505.673 87.931L505.267 87.931C 502.892 87.931 501.328 86.976 500.515 84.918L500.515 84.918L500.515 87.845L500.515 87.845L495.096 87.845C 495.241 86.483 495.327 85.43999 495.327 84.685zM477.414 82.599C 477.414 86.222 475.532 88.076 471.995 88.076C 470.052 88.076 468.372 87.235 467.445 85.81599L467.445 85.81599L467.445 94.161L467.445 94.161L462.083 94.161L462.083 94.161L462.083 73.296L462.083 73.296L467.445 73.296L467.445 73.296L467.445 81.585C 467.445 83.584 468.343 84.656 469.849 84.656C 471.792 84.656 472.053 83.207 472.053 80.599L472.053 80.599L472.053 73.296L472.053 73.296L477.635 73.296C 477.492 74.665 477.414 75.716 477.414 76.47zM507.099 73.296L512.402 73.296L512.402 73.296L512.402 81.585C 512.402 83.584 513.302 84.656 514.808 84.656C 516.72 84.656 516.982 83.207 516.982 80.599L516.982 80.599L516.982 73.296L516.982 73.296L522.256 73.296L522.256 73.296L522.256 81.585C 522.256 83.584 523.125 84.656 524.633 84.656C 526.545 84.656 526.807 83.207 526.807 80.599L526.807 80.599L526.807 73.296L526.807 73.296L532.342 73.296C 532.176 74.665 532.11 76.448 532.11 76.448L532.11 76.448L532.11 82.599C 532.11 86.222 530.284 88.076 526.778 88.076C 524.719 88.076 523.184 87.206 521.823 85.323C 521.127 87.091 519.388 88.076 516.923 88.076C 514.925 88.076 513.185 87.14899 512.316 85.642L512.316 85.642L512.257 87.845L512.257 87.845L507.089 87.845C 507.089 86.48199 507.099 85.43999 507.099 84.685zM533.563 80.569C 533.563 75.702 536.547 72.919 541.938 72.919C 547.33 72.919 550.285 75.702 550.285 80.569C 550.285 85.43999 547.33 88.22 541.938 88.22C 536.547 88.22 533.563 85.43999 533.563 80.569M539.213 80.599C 539.213 83.759 539.938 85.265 541.909 85.265C 543.909 85.265 544.634 83.759 544.634 80.599C 544.634 77.44099 543.909 75.962 541.909 75.962C 539.938 75.962 539.213 77.44099 539.213 80.599M493.817 77.991L488.95 77.991C 488.69 76.601 487.907 75.876 486.573 75.876C 484.719 75.876 483.791 77.064 483.791 79.354L483.791 79.354L493.846 79.354C 493.875 79.672 493.875 79.991 493.875 80.31C 493.875 85.46799 491.327 88.192 486.457 88.192C 481.617 88.192 478.864 85.43999 478.864 80.425C 478.864 75.527 481.444 72.948 486.34 72.948C 490.746 72.948 493.354 74.77399 493.817 77.991M483.849 82.337C 484.11 84.366 484.95 85.294 486.543 85.294C 487.963 85.294 488.832 84.278 489.006 82.337z" stroke="none" fill="#EE3134" fill-rule="nonzero" /><path id="3" transform="matrix(1 0 0 -1 0 841)" d="M465.9 61.903C 465.369 61.531 464.449 61.28 463.564 61.28C 461.38 61.28 459.737 62.479 459.737 64.62C 459.737 66.786 461.579 68.083 463.632 68.083C 464.38 68.083 465.206 67.846 465.722 67.5L465.722 67.5L465.152 66.818C 464.689 67.078 464.19 67.255 463.645 67.255C 462.929 67.255 462.187 67.078 461.639 66.512C 461.154 66.01 460.95 65.398 460.95 64.583C 460.95 63.68 461.239 63.174 461.714 62.703C 462.201 62.223 462.964 62.085 463.701 62.085C 464.298 62.085 464.892 62.31 465.355 62.559M485.232 61.38L480.234 61.38L480.234 67.96L485.109 67.96L484.958 67.117L481.336 67.117L481.336 65.239L484.428 65.239L484.428 64.398L481.349 64.398L481.349 62.258L485.232 62.258zM528.009 67.96L527.859 67.132L524.291 67.132L524.291 65.263L527.316 65.263L527.316 64.434L524.291 64.434L524.291 61.38L523.189 61.38L523.189 67.96zM473.181 61.38L472.0789 61.38L472.0789 67.9603L473.181 67.9603zM497.264 61.38L496.108 61.38L496.108 61.38L493.534 64.88C 493.051 65.538 492.227 66.872 492.227 66.872C 492.227 66.872 492.329 65.721 492.348 64.757L492.348 64.757L492.415 61.38L492.415 61.38L491.286 61.38L491.286 61.38L491.286 67.96L491.286 67.96L492.565 67.96L492.565 67.96L495.167 64.385C 495.672 63.69 496.377 62.555 496.377 62.555C 496.377 62.555 496.227 63.78 496.215 64.645L496.215 64.645L496.174 67.96L496.174 67.96L497.264 67.96zM453.621 63.323C 453.621 62.641 453.188 61.983 452.452 61.616C 451.951 61.366 451.323 61.242 450.602 61.242C 449.663 61.242 448.711 61.453 447.922 61.849L447.922 61.849L448.384 62.641C 449.147 62.258 449.868 62.085 450.67 62.085C 451.187 62.085 451.526 62.172 451.84 62.344C 452.205 62.546 452.397 62.815 452.397 63.161C 452.397 63.68 452.003 64.013 450.996 64.249L450.996 64.249L449.935 64.497C 448.873 64.745 448.194 65.413 448.194 66.203C 448.194 67.34 449.309 68.133 450.873 68.133C 451.799 68.133 452.791 67.898 453.417 67.489L453.417 67.489L452.915 66.76C 452.275 67.117 451.609 67.292 450.928 67.292C 450.002 67.292 449.391 66.934 449.391 66.351C 449.391 65.906 449.757 65.632 450.67 65.413L450.67 65.413L451.649 65.176C 452.207 65.044 452.779 64.805 453.105 64.508C 453.417 64.223 453.621 63.766 453.621 63.323M509.229 67.96L509.108 67.117L506.684 67.117L506.684 61.38L505.61 61.38L505.61 67.117L503.2 67.117L503.2 67.96zM516.134 61.38L515.0319 61.38L515.0319 67.9603L516.134 67.9603zM535.239 61.38L534.1369 61.38L534.1369 67.9603L535.239 67.9603zM548.063 61.903C 547.532 61.531 546.612 61.28 545.725 61.28C 543.545 61.28 541.899 62.479 541.899 64.62C 541.899 66.786 543.743 68.083 545.795 68.083C 546.544 68.083 547.37 67.846 547.885 67.5L547.885 67.5L547.315 66.818C 546.852 67.078 546.352 67.255 545.809 67.255C 545.092 67.255 544.352 67.078 543.803 66.512C 543.317 66.01 543.114 65.398 543.114 64.583C 543.114 63.68 543.401 63.174 543.877 62.703C 544.364 62.223 545.127 62.085 545.864 62.085C 546.461 62.085 547.055 62.31 547.518 62.559z" stroke="none" fill="#231F20" fill-rule="nonzero" /><path id="4" transform="matrix(1 0 0 -1 0 841)" d="M451.044 47.188L450.12 50.082L449.179 47.188M449.843 50.483L450.428 50.483L452.222 45.061L451.716 45.061L451.155 46.824L449.053 46.824L448.491 45.061L448.041 45.061z" stroke="none" fill="#404041" fill-rule="nonzero" /><path id="5" transform="matrix(1 0 0 -1 0 841)" d="M455.487 50.289L453.929 50.289L453.929 50.683L457.544 50.683L457.51 50.289L455.937 50.289L455.937 45.061L455.487 45.061" stroke="none" fill="#404041" fill-rule="nonzero" /></g></g><g clip-path="url(#4)"><g clip-path="url(#5)"><g clip-path="url(#6)"><path id="6" transform="matrix(1 0 0 -1 0 841)" d="M458.022 50.125C 458.022 50.642 457.932 50.92 457.916 50.961L457.916 50.961L458.358 51.052C 458.374 51.011 458.464 50.716 458.464 50.109L458.464 50.109L458.464 49.027C 458.464 48.79 458.449 48.544 458.449 48.544C 458.809 48.913 459.285 49.216 459.809 49.216C 460.259 49.216 460.629 48.994 460.743 48.691C 460.833 48.527 460.89 48.348 460.89 48.053L460.89 48.053L460.89 45.062L460.89 45.062L460.448 45.062L460.448 45.062L460.448 47.979C 460.448 48.273 460.382 48.486 460.251 48.618C 460.145 48.732 459.957 48.814 459.71 48.814C 459.293 48.814 458.833 48.568 458.464 48.109L458.464 48.109L458.464 45.062L458.464 45.062L458.022 45.062" stroke="none" fill="#404041" fill-rule="nonzero" /><path id="7" transform="matrix(1 0 0 -1 0 841)" d="M464.547 47.43C 464.547 47.921 464.465 48.233 464.334 48.446C 464.178 48.699 463.883 48.88 463.506 48.88C 462.892 48.88 462.441 48.397 462.4 47.43M461.892 47.135C 461.892 47.831 462.048 48.298 462.375 48.684C 462.655 49.011 463.032 49.233 463.531 49.233C 463.965 49.233 464.31 49.061 464.555 48.815C 464.867 48.487 465.022 48.102 465.022 47.184L465.022 47.184L465.022 47.094L465.022 47.094L462.4 47.094C 462.4 47.094 462.392 46.938 462.4 46.864C 462.416 46.43 462.515 46.094 462.67 45.864C 462.892 45.537 463.261 45.357 463.719 45.357C 464.129 45.357 464.473 45.472 464.752 45.726L464.752 45.726L464.932 45.439C 464.588 45.144 464.154 44.98 463.629 44.98C 462.507 44.98 461.892 45.848 461.892 47.135" stroke="none" fill="#404041" fill-rule="nonzero" /><path id="8" transform="matrix(1 0 0 -1 0 841)" d="M465.968 48.282C 465.968 48.822 465.862 49.052 465.837 49.101L465.837 49.101L466.279 49.216C 466.304 49.175 466.419 48.945 466.403 48.527C 466.518 48.699 466.673 48.863 466.845 48.986C 467.082 49.167 467.312 49.24 467.541 49.24C 467.648 49.24 467.755 49.208 467.763 49.199L467.763 49.199L467.582 48.724C 467.541 48.74 467.468 48.757 467.403 48.757C 467.149 48.757 466.903 48.658 466.69 48.445C 466.477 48.232 466.41 48.085 466.41 47.758L466.41 47.758L466.41 45.061L466.41 45.061L465.968 45.061" stroke="none" fill="#404041" fill-rule="nonzero" /><path id="9" transform="matrix(1 0 0 -1 0 841)" d="M468.271 48.29C 468.271 48.831 468.157 49.061 468.14 49.109L468.14 49.109L468.575 49.208C 468.591 49.175 468.706 48.913 468.706 48.585C 468.968 48.921 469.46 49.232 469.902 49.232C 470.385 49.232 470.738 48.937 470.861 48.511C 471.205 48.937 471.705 49.232 472.147 49.232C 472.77 49.232 473.155 48.79 473.155 48.134L473.155 48.134L473.155 45.061L473.155 45.061L472.696 45.061L472.696 45.061L472.696 48.094C 472.696 48.544 472.5 48.831 472.041 48.831C 471.656 48.831 471.295 48.577 470.91 48.134L470.91 48.134L470.91 45.061L470.91 45.061L470.467 45.061L470.467 45.061L470.467 48.044C 470.467 48.307 470.419 48.486 470.312 48.618C 470.197 48.749 470.042 48.814 469.795 48.814C 469.452 48.814 469.083 48.618 468.698 48.2L468.698 48.2L468.698 45.061L468.698 45.061L468.271 45.061" stroke="none" fill="#404041" fill-rule="nonzero" /><path id="10" transform="matrix(1 0 0 -1 0 841)" d="M476.823 45.964C 476.955 46.251 477.02 46.553 477.02 47.029C 477.02 47.61 476.938 48.02 476.783 48.314C 476.619 48.642 476.249 48.873 475.815 48.873C 475.365 48.873 475.021 48.634 474.873 48.363C 474.716 48.085 474.627 47.692 474.627 47.184C 474.627 46.602 474.733 46.111 474.905 45.832C 475.061 45.579 475.405 45.34 475.848 45.34C 476.339 45.34 476.676 45.611 476.823 45.964M474.521 45.652C 474.275 46.012 474.143 46.504 474.143 47.119C 474.143 47.749 474.3 48.283 474.569 48.642C 474.824 48.978 475.249 49.241 475.823 49.241C 476.495 49.241 476.921 48.905 477.159 48.545C 477.396 48.184 477.52 47.709 477.52 47.061C 477.52 46.504 477.405 46.069 477.209 45.733C 476.955 45.284 476.478 44.972 475.839 44.972C 475.209 44.972 474.766 45.267 474.521 45.652" stroke="none" fill="#404041" fill-rule="nonzero" /></g></g></g><g clip-path="url(#7)"><g clip-path="url(#8)"><path id="11" transform="matrix(1 0 0 -1 0 841)" d="M480.261 50.684L483.12 50.684L483.046 50.299L480.728 50.299L480.728 48.193L482.637 48.193L482.637 47.808L480.728 47.808L480.728 45.063L480.261 45.063" stroke="none" fill="#404041" fill-rule="nonzero" /></g></g><g clip-path="url(#9)"><g clip-path="url(#10)"><g clip-path="url(#11)"><path id="12" transform="matrix(1 0 0 -1 0 841)" d="M483.614 49.143L484.073 49.216L484.073 45.062L483.614 45.062M483.492 50.429C 483.492 50.625 483.655 50.789 483.852 50.789C 484.049 50.789 484.213 50.634 484.213 50.429C 484.213 50.232 484.049 50.069 483.852 50.069C 483.655 50.069 483.492 50.232 483.492 50.429" stroke="none" fill="#404041" fill-rule="nonzero" /><path id="13" transform="matrix(1 0 0 -1 0 841)" d="M484.879 45.357L485.051 45.685C 485.419 45.447 485.854 45.316 486.32 45.316C 486.911 45.316 487.272 45.652 487.272 46.144C 487.272 46.529 487.074 46.799 486.526 46.914L486.526 46.914L486.018 47.012C 485.387 47.143 485.026 47.512 485.026 48.086C 485.026 48.766 485.551 49.257 486.386 49.257C 486.82 49.257 487.238 49.134 487.55 48.938L487.55 48.938L487.369 48.61C 487.067 48.782 486.738 48.905 486.37 48.905C 485.805 48.905 485.485 48.578 485.485 48.134C 485.485 47.742 485.706 47.529 486.165 47.43L486.165 47.43L486.69 47.324C 487.435 47.168 487.738 46.783 487.738 46.225C 487.738 45.48 487.173 44.963 486.296 44.963C 485.78 44.963 485.256 45.111 484.879 45.357" stroke="none" fill="#404041" fill-rule="nonzero" /><path id="14" transform="matrix(1 0 0 -1 0 841)" d="M488.649 50.125C 488.649 50.642 488.559 50.92 488.542 50.961L488.542 50.961L488.985 51.052C 489.002 51.011 489.091 50.716 489.091 50.109L489.091 50.109L489.091 49.027C 489.091 48.79 489.076 48.544 489.076 48.544C 489.436 48.913 489.912 49.216 490.436 49.216C 490.886 49.216 491.255 48.994 491.37 48.691C 491.459 48.527 491.517 48.348 491.517 48.053L491.517 48.053L491.517 45.062L491.517 45.062L491.075 45.062L491.075 45.062L491.075 47.979C 491.075 48.273 491.009 48.486 490.878 48.618C 490.772 48.732 490.584 48.814 490.338 48.814C 489.92 48.814 489.461 48.568 489.091 48.109L489.091 48.109L489.091 45.062L489.091 45.062L488.649 45.062" stroke="none" fill="#404041" fill-rule="nonzero" /><path id="15" transform="matrix(1 0 0 -1 0 841)" d="M495.174 47.43C 495.174 47.921 495.092 48.233 494.961 48.446C 494.805 48.699 494.51 48.88 494.133 48.88C 493.519 48.88 493.068 48.397 493.027 47.43M492.519 47.135C 492.519 47.831 492.675 48.298 493.002 48.684C 493.282 49.011 493.659 49.233 494.158 49.233C 494.592 49.233 494.936 49.061 495.182 48.815C 495.494 48.487 495.649 48.102 495.649 47.184L495.649 47.184L495.649 47.094L495.649 47.094L493.027 47.094C 493.027 47.094 493.019 46.938 493.027 46.864C 493.043 46.43 493.142 46.094 493.297 45.864C 493.519 45.537 493.887 45.357 494.346 45.357C 494.756 45.357 495.1 45.472 495.379 45.726L495.379 45.726L495.559 45.439C 495.215 45.144 494.781 44.98 494.256 44.98C 493.134 44.98 492.519 45.848 492.519 47.135" stroke="none" fill="#404041" fill-rule="nonzero" /><path id="16" transform="matrix(1 0 0 -1 0 841)" d="M496.595 48.282C 496.595 48.822 496.489 49.052 496.464 49.101L496.464 49.101L496.907 49.216C 496.931 49.175 497.046 48.945 497.03 48.527C 497.145 48.699 497.3 48.863 497.472 48.986C 497.71 49.167 497.939 49.24 498.169 49.24C 498.275 49.24 498.382 49.208 498.39 49.199L498.39 49.199L498.21 48.724C 498.169 48.74 498.095 48.757 498.03 48.757C 497.777 48.757 497.53 48.658 497.317 48.445C 497.104 48.232 497.037 48.085 497.037 47.758L497.037 47.758L497.037 45.061L497.037 45.061L496.595 45.061" stroke="none" fill="#404041" fill-rule="nonzero" /><path id="17" transform="matrix(1 0 0 -1 0 841)" d="M500.015 45.455L500.22 45.823C 500.663 45.504 501.13 45.356 501.695 45.356C 502.12 45.356 502.425 45.438 502.654 45.627C 502.941 45.84 503.079 46.151 503.079 46.536C 503.079 46.848 502.982 47.101 502.792 47.282C 502.597 47.471 502.326 47.601 502.023 47.691L502.023 47.691L501.458 47.872C 501.015 48.012 500.728 48.143 500.523 48.355C 500.294 48.601 500.187 48.921 500.187 49.281C 500.187 50.191 500.91 50.781 501.892 50.781C 502.482 50.781 502.982 50.608 503.441 50.298L503.441 50.298L503.236 49.962C 502.769 50.265 502.417 50.395 501.917 50.395C 501.195 50.395 500.687 50.018 500.687 49.371C 500.687 49.109 500.745 48.872 500.925 48.699C 501.081 48.544 501.335 48.413 501.671 48.314L501.671 48.314L502.285 48.118C 502.703 47.986 502.997 47.839 503.228 47.585C 503.449 47.34 503.597 46.978 503.597 46.601C 503.597 46.077 503.351 45.61 502.915 45.308C 502.589 45.086 502.187 44.972 501.695 44.972C 501.056 44.972 500.523 45.127 500.015 45.455" stroke="none" fill="#404041" fill-rule="nonzero" /><path id="18" transform="matrix(1 0 0 -1 0 841)" d="M504.647 45.611C 504.403 45.98 504.27 46.439 504.27 47.053C 504.27 47.938 504.516 48.413 504.852 48.766C 505.165 49.077 505.508 49.233 505.926 49.233C 506.426 49.233 506.737 49.045 507.008 48.798L507.008 48.798L506.762 48.486C 506.483 48.733 506.262 48.84 505.919 48.84C 505.59 48.84 505.27 48.684 505.083 48.397C 504.878 48.094 504.755 47.634 504.755 46.964C 504.755 46.021 505.124 45.34 505.934 45.34C 506.286 45.34 506.614 45.496 506.868 45.792L506.868 45.792L507.114 45.504C 506.762 45.136 506.401 44.98 505.919 44.98C 505.352 44.98 504.926 45.202 504.647 45.611" stroke="none" fill="#404041" fill-rule="nonzero" /><path id="19" transform="matrix(1 0 0 -1 0 841)" d="M507.863 49.143L508.322 49.216L508.322 45.062L507.863 45.062M507.74 50.429C 507.74 50.625 507.904 50.789 508.101 50.789C 508.297 50.789 508.461 50.634 508.461 50.429C 508.461 50.232 508.297 50.069 508.101 50.069C 507.904 50.069 507.74 50.232 507.74 50.429" stroke="none" fill="#404041" fill-rule="nonzero" /><path id="20" transform="matrix(1 0 0 -1 0 841)" d="M512.002 47.43C 512.002 47.921 511.92 48.233 511.789 48.446C 511.633 48.699 511.338 48.88 510.961 48.88C 510.348 48.88 509.897 48.397 509.856 47.43M509.348 47.135C 509.348 47.831 509.504 48.298 509.83 48.684C 510.11 49.011 510.487 49.233 510.987 49.233C 511.42 49.233 511.764 49.061 512.01 48.815C 512.323 48.487 512.477 48.102 512.477 47.184L512.477 47.184L512.477 47.094L512.477 47.094L509.856 47.094C 509.856 47.094 509.848 46.938 509.856 46.864C 509.871 46.43 509.971 46.094 510.125 45.864C 510.348 45.537 510.715 45.357 511.174 45.357C 511.584 45.357 511.928 45.472 512.207 45.726L512.207 45.726L512.387 45.439C 512.043 45.144 511.61 44.98 511.084 44.98C 509.963 44.98 509.348 45.848 509.348 47.135" stroke="none" fill="#404041" fill-rule="nonzero" /><path id="21" transform="matrix(1 0 0 -1 0 841)" d="M513.422 48.282C 513.422 48.814 513.301 49.052 513.283 49.093L513.283 49.093L513.717 49.208C 513.734 49.175 513.85 48.921 513.85 48.56C 514.25 48.986 514.694 49.216 515.16 49.216C 515.578 49.216 515.914 49.019 516.07 48.732C 516.168 48.577 516.225 48.38 516.225 48.167L516.225 48.167L516.225 45.061L516.225 45.061L515.783 45.061L515.783 45.061L515.783 47.937C 515.783 48.322 515.717 48.478 515.594 48.634C 515.488 48.749 515.291 48.831 515.061 48.831C 514.694 48.831 514.186 48.577 513.858 48.2L513.858 48.2L513.858 45.061L513.858 45.061L513.422 45.061" stroke="none" fill="#404041" fill-rule="nonzero" /><path id="22" transform="matrix(1 0 0 -1 0 841)" d="M517.834 45.103C 517.613 45.234 517.516 45.48 517.516 45.857L517.516 45.857L517.516 48.807L517.516 48.807L516.982 48.807L516.982 48.807L516.982 49.143L516.982 49.143L517.516 49.143C 517.516 49.56 517.564 50.101 517.58 50.192L517.58 50.192L518.055 50.29C 518.031 50.207 517.965 49.683 517.965 49.143L517.965 49.143L518.973 49.143L518.973 49.143L518.834 48.807L518.834 48.807L517.949 48.807L517.949 48.807L517.949 45.971C 517.949 45.521 518.088 45.299 518.498 45.299C 518.686 45.299 518.809 45.332 518.924 45.39L518.924 45.39L518.99 45.095C 518.809 45.004 518.613 44.956 518.35 44.956C 518.121 44.956 517.965 45.021 517.834 45.103" stroke="none" fill="#404041" fill-rule="nonzero" /><path id="23" transform="matrix(1 0 0 -1 0 841)" d="M519.711 49.143L520.17 49.216L520.17 45.062L519.711 45.062M519.59 50.429C 519.59 50.625 519.752 50.789 519.949 50.789C 520.147 50.789 520.311 50.634 520.311 50.429C 520.311 50.232 520.147 50.069 519.949 50.069C 519.752 50.069 519.59 50.232 519.59 50.429" stroke="none" fill="#404041" fill-rule="nonzero" /><path id="24" transform="matrix(1 0 0 -1 0 841)" d="M521.467 48.807L521.073 48.807L521.073 48.807L521.073 49.143L521.073 49.143L521.467 49.143L521.467 49.143L521.467 49.905C 521.467 50.412 521.68 50.65 521.826 50.773C 521.99 50.912 522.196 50.995 522.483 50.995C 522.785 50.995 523.057 50.92 523.27 50.782L523.27 50.782L523.098 50.461C 522.942 50.56 522.729 50.642 522.524 50.642C 522.147 50.642 521.934 50.371 521.934 49.896L521.934 49.896L521.934 49.143L521.934 49.143L523.016 49.143L523.016 49.143L522.885 48.807L522.885 48.807L521.934 48.807L521.934 48.807L521.934 45.062L521.934 45.062L521.467 45.062" stroke="none" fill="#404041" fill-rule="nonzero" /><path id="25" transform="matrix(1 0 0 -1 0 841)" d="M523.474 49.143L523.933 49.216L523.933 45.062L523.474 45.062M523.353 50.429C 523.353 50.625 523.515 50.789 523.712 50.789C 523.91 50.789 524.074 50.634 524.074 50.429C 524.074 50.232 523.91 50.069 523.712 50.069C 523.515 50.069 523.353 50.232 523.353 50.429" stroke="none" fill="#404041" fill-rule="nonzero" /><path id="26" transform="matrix(1 0 0 -1 0 841)" d="M525.336 45.611C 525.092 45.98 524.959 46.439 524.959 47.053C 524.959 47.938 525.205 48.413 525.541 48.766C 525.854 49.077 526.197 49.233 526.615 49.233C 527.115 49.233 527.426 49.045 527.697 48.798L527.697 48.798L527.451 48.486C 527.172 48.733 526.951 48.84 526.608 48.84C 526.279 48.84 525.959 48.684 525.772 48.397C 525.567 48.094 525.444 47.634 525.444 46.964C 525.444 46.021 525.813 45.34 526.623 45.34C 526.975 45.34 527.303 45.496 527.557 45.792L527.557 45.792L527.803 45.504C 527.451 45.136 527.09 44.98 526.608 44.98C 526.041 44.98 525.615 45.202 525.336 45.611" stroke="none" fill="#404041" fill-rule="nonzero" /><path id="27" transform="matrix(1 0 0 -1 0 841)" d="M531.83 45.448C 532.289 45.448 532.527 45.505 532.74 45.628C 533.133 45.833 533.271 46.21 533.271 46.636C 533.271 47.095 533.035 47.513 532.64 47.661C 532.435 47.759 532.15 47.816 531.764 47.816L531.764 47.816L530.732 47.816L530.732 47.816L530.732 45.448M531.764 48.209C 532.15 48.209 532.435 48.284 532.64 48.431C 532.838 48.594 532.994 48.857 532.994 49.234C 532.994 49.668 532.781 49.996 532.435 50.143C 532.264 50.233 532.017 50.29 531.65 50.29L531.65 50.29L530.732 50.29L530.732 50.29L530.732 48.209zM530.281 50.684L531.24 50.684C 532.166 50.684 532.461 50.619 532.73 50.488C 533.207 50.266 533.51 49.824 533.51 49.291C 533.51 48.709 533.133 48.234 532.412 48.054C 532.789 47.996 533.035 47.89 533.23 47.743C 533.592 47.48 533.764 47.038 533.764 46.603C 533.764 45.989 533.428 45.448 532.879 45.235C 532.576 45.121 532.371 45.063 531.535 45.063L531.535 45.063L530.281 45.063z" stroke="none" fill="#404041" fill-rule="nonzero" /><path id="28" transform="matrix(1 0 0 -1 0 841)" d="M534.767 48.282C 534.767 48.822 534.662 49.052 534.636 49.101L534.636 49.101L535.079 49.216C 535.103 49.175 535.218 48.945 535.203 48.527C 535.3181 48.699 535.472 48.863 535.644 48.986C 535.882 49.167 536.111 49.24 536.341 49.24C 536.447 49.24 536.554 49.208 536.562 49.199L536.562 49.199L536.382 48.724C 536.341 48.74 536.267 48.757 536.203 48.757C 535.949 48.757 535.703 48.658 535.4901 48.445C 535.277 48.232 535.21 48.085 535.21 47.758L535.21 47.758L535.21 45.061L535.21 45.061L534.767 45.061" stroke="none" fill="#404041" fill-rule="nonzero" /><path id="29" transform="matrix(1 0 0 -1 0 841)" d="M539.12 45.929C 539.113 45.979 539.12 46.332 539.12 46.315C 539.128 46.504 539.138 47.183 539.138 47.183C 539.038 47.192 538.892 47.2 538.769 47.2C 537.695 47.2 537.195 46.864 537.195 46.151C 537.195 45.66 537.433 45.307 538.072 45.307C 538.507 45.307 538.9 45.545 539.12 45.929M539.179 45.528C 538.825 45.143 538.466 44.971 537.997 44.971C 536.99 44.971 536.704 45.561 536.704 46.11C 536.704 47.036 537.499 47.511 538.792 47.511C 538.956 47.511 539.113 47.503 539.154 47.495L539.154 47.495L539.154 47.872C 539.154 48.265 539.12 48.478 538.99 48.626C 538.851 48.773 538.669 48.863 538.392 48.863C 537.907 48.863 537.376 48.626 537.072 48.363L537.072 48.363L536.851 48.683C 537.335 49.019 537.876 49.232 538.449 49.232C 538.941 49.232 539.292 49.044 539.449 48.708C 539.572 48.486 539.597 48.167 539.587 47.773L539.587 47.773L539.556 46.291C 539.546 45.627 539.587 45.414 539.907 45.257L539.907 45.257L539.677 44.938C 539.415 45.028 539.243 45.233 539.179 45.528" stroke="none" fill="#404041" fill-rule="nonzero" /><path id="30" transform="matrix(1 0 0 -1 0 841)" d="M540.868 48.282C 540.868 48.814 540.745 49.052 540.729 49.093L540.729 49.093L541.163 49.208C 541.179 49.175 541.294 48.921 541.294 48.56C 541.696 48.986 542.138 49.216 542.604 49.216C 543.022 49.216 543.358 49.019 543.515 48.732C 543.612 48.577 543.671 48.38 543.671 48.167L543.671 48.167L543.671 45.061L543.671 45.061L543.227 45.061L543.227 45.061L543.227 47.937C 543.227 48.322 543.163 48.478 543.04 48.634C 542.932 48.749 542.735 48.831 542.507 48.831C 542.138 48.831 541.63 48.577 541.302 48.2L541.302 48.2L541.302 45.061L541.302 45.061L540.868 45.061" stroke="none" fill="#404041" fill-rule="nonzero" /><path id="31" transform="matrix(1 0 0 -1 0 841)" d="M547.419 45.997L547.419 48.364C 547.221 48.643 546.886 48.839 546.36 48.839C 546.024 48.839 545.706 48.684 545.509 48.389C 545.288 48.069 545.18 47.708 545.18 47.085C 545.18 46.602 545.247 46.16 545.393 45.906C 545.598 45.553 545.901 45.381 546.329 45.381C 546.878 45.381 547.247 45.668 547.419 45.997M545.075 45.603C 544.829 45.947 544.69 46.471 544.69 47.078C 544.69 47.88 544.934 48.479 545.403 48.864C 545.68 49.102 545.968 49.208 546.296 49.208C 546.778 49.208 547.18 49.011 547.427 48.684C 547.427 48.684 547.419 48.979 547.419 49.224L547.419 49.224L547.419 51.043L547.419 51.043L547.86 50.97L547.86 50.97L547.86 46.291C 547.86 45.635 547.893 45.299 547.983 45.062L547.983 45.062L547.532 45.062C 547.509 45.111 547.442 45.349 547.434 45.545C 547.155 45.168 546.778 45.004 546.311 45.004C 545.762 45.004 545.344 45.217 545.075 45.603" stroke="none" fill="#404041" fill-rule="nonzero" /></g></g></g></g></g></svg>