<svg xmlns="http://www.w3.org/2000/svg" xmlns:xlink="http://www.w3.org/1999/xlink" id="body_225" preserveAspectRatio="xMinYMin meet" viewBox="0 0 793 1123"><defs><clipPath id="1"><path id="" clip-rule="evenodd" transform="matrix(1 0 0 1 0 0)" d="M0 842L0 0L0 0L595 0L595 0L595 842L595 842L0 842z" /></clipPath></defs><g transform="matrix(1.333333 0 0 1.333333 0 0)"><g clip-path="url(#1)"><path id="674" transform="matrix(1 0 0 -1 0 842)" d="M215.94 355.94L350.58 355.94L350.58 373.94L215.94 373.94z" stroke="none" fill="#C4DFF7" fill-rule="nonzero" /><path id="682" transform="matrix(1 0 0 -1 0 842)" d="M350.58 373.94L549 373.94L549 355.94L350.58 355.94" stroke="none" fill="#C4DFF7" fill-rule="nonzero" /><path id="915" transform="matrix(1 0 0 -1 0 842)" d="M215.94 321.74L549 321.74L549 322.22L215.94 322.22z" stroke="none" fill="#000000" fill-rule="nonzero" /><path id="916" transform="matrix(1 0 0 -1 0 842)" d="M215.94 301.7L549 301.7L549 302.18L215.94 302.18z" stroke="none" fill="#000000" fill-rule="nonzero" /><path id="917" transform="matrix(1 0 0 -1 0 842)" d="M215.94 281.72L549 281.72L549 282.2L215.94 282.2z" stroke="none" fill="#000000" fill-rule="nonzero" /><path id="918" transform="matrix(1 0 0 -1 0 842)" d="M215.94 233.18L549 233.18L549 234.68L215.94 234.68z" stroke="none" fill="#000000" fill-rule="nonzero" /><path id="919" transform="matrix(1 0 0 -1 0 842)" d="M215.94 143.96L283.92 143.96L283.92 161.96L215.94 161.96z" stroke="none" fill="#C4DFF7" fill-rule="nonzero" /><path id="926" transform="matrix(1 0 0 -1 0 842)" d="M283.92 143.96L549 143.96L549 161.96L283.92 161.96z" stroke="none" fill="#C4DFF7" fill-rule="nonzero" /><path id="987" transform="matrix(1 0 0 -1 0 842)" d="M215.94 125.72L549 125.72L549 126.2L215.94 126.2z" stroke="none" fill="#000000" fill-rule="nonzero" /><path id="988" transform="matrix(1 0 0 -1 0 842)" d="M215.94 105.68L549 105.68L549 106.16L215.94 106.16z" stroke="none" fill="#000000" fill-rule="nonzero" /><path id="989" transform="matrix(1 0 0 -1 0 842)" d="M215.94 85.16L549 85.16L549 86.66L215.94 86.66z" stroke="none" fill="#000000" fill-rule="nonzero" /></g></g></svg>