<svg xmlns="http://www.w3.org/2000/svg" xmlns:xlink="http://www.w3.org/1999/xlink" id="body_86" preserveAspectRatio="xMinYMin meet" viewBox="0 0 793 1123"><defs><clipPath id="1"><path id="" clip-rule="evenodd" transform="matrix(1 0 0 1 0 0)" d="M0 842L0 0L0 0L595 0L595 0L595 842L595 842L0 842z" /></clipPath></defs><g transform="matrix(1.333333 0 0 1.333333 0 0)"><g clip-path="url(#1)"><path id="2448" transform="matrix(1 0 0 -1 0 842)" d="M35.94 751.94L131.82 751.94L131.82 769.94L35.94 769.94z" stroke="none" fill="#C4DFF7" fill-rule="nonzero" /><path id="2458" transform="matrix(1 0 0 -1 0 842)" d="M131.82 769.94L549 769.94L549 751.94L131.82 751.94" stroke="none" fill="#C4DFF7" fill-rule="nonzero" /><path id="2470" transform="matrix(1 0 0 -1 0 842)" d="M35.94 651.74L549 651.74L549 652.22L35.94 652.22z" stroke="none" fill="#000000" fill-rule="nonzero" /><path id="2471" transform="matrix(1 0 0 -1 0 842)" d="M35.94 551.72L549 551.72L549 552.2L35.94 552.2z" stroke="none" fill="#000000" fill-rule="nonzero" /><path id="2472" transform="matrix(1 0 0 -1 0 842)" d="M35.94 465.74L549 465.74L549 466.22L35.94 466.22z" stroke="none" fill="#000000" fill-rule="nonzero" /><path id="2473" transform="matrix(1 0 0 -1 0 842)" d="M35.94 351.74L549 351.74L549 352.22L35.94 352.22z" stroke="none" fill="#000000" fill-rule="nonzero" /><path id="2474" transform="matrix(1 0 0 -1 0 842)" d="M35.94 237.68L549 237.68L549 238.16L35.94 238.16z" stroke="none" fill="#000000" fill-rule="nonzero" /><path id="2475" transform="matrix(1 0 0 -1 0 842)" d="M35.94 123.14L549 123.14L549 124.64L35.94 124.64z" stroke="none" fill="#000000" fill-rule="nonzero" /></g></g></svg>