<svg xmlns="http://www.w3.org/2000/svg" xmlns:xlink="http://www.w3.org/1999/xlink" id="body_76" preserveAspectRatio="xMinYMin meet" viewBox="0 0 793 1123"><defs><clipPath id="1"><path id="" clip-rule="evenodd" transform="matrix(1 0 0 1 0 0)" d="M0 842L0 0L0 0L595 0L595 0L595 842L595 842L0 842z" /></clipPath><clipPath id="2"><path id="" clip-rule="evenodd" transform="matrix(1 0 0 1 0 0)" d="M215.94 367.02L431.34 367.02L431.34 367.02L431.34 589.86L431.34 589.86L215.94 589.86z" /></clipPath><clipPath id="3"><path id="" clip-rule="evenodd" transform="matrix(1 0 0 1 0 0)" d="M0 0.02001953L595.2 0.02001953L595.2 0.02001953L595.2 842L595.2 842L0 842z" /></clipPath><clipPath id="4"><path id="" clip-rule="evenodd" transform="matrix(1 0 0 1 0 0)" d="M216.96 368.04L430.32 368.04L430.32 368.04L430.32 588.84L430.32 588.84L216.96 588.84z" /></clipPath><clipPath id="5"><path id="" clip-rule="evenodd" transform="matrix(1 0 0 1 0 0)" d="M215.94 367.02L431.34 367.02L431.34 367.02L431.34 589.86L431.34 589.86L215.94 589.86z" /></clipPath><clipPath id="6"><path id="" clip-rule="evenodd" transform="matrix(1 0 0 1 0 0)" d="M0 0.02001953L595.2 0.02001953L595.2 0.02001953L595.2 842L595.2 842L0 842z" /></clipPath></defs><g transform="matrix(1.333333 0 0 1.333333 0 0)"><g clip-path="url(#1)"><path id="642" transform="matrix(1 0 0 -1 0 842)" d="M215.94 751.94L298.32 751.94L298.32 769.94L215.94 769.94z" stroke="none" fill="#C4DFF7" fill-rule="nonzero" /><path id="652" transform="matrix(1 0 0 -1 0 842)" d="M298.32 751.94L549 751.94L549 769.94L298.32 769.94z" stroke="none" fill="#C4DFF7" fill-rule="nonzero" /><path id="664" transform="matrix(1 0 0 -1 0 842)" d="M215.94 717.74L549 717.74L549 718.22L215.94 718.22z" stroke="none" fill="#000000" fill-rule="nonzero" /><path id="665" transform="matrix(1 0 0 -1 0 842)" d="M215.94 697.16L549 697.16L549 698.66L215.94 698.66z" stroke="none" fill="#000000" fill-rule="nonzero" /><path id="703" transform="matrix(1 0 0 -1 0 842)" d="M215.94 160.16L298.32 160.16L298.32 178.16L215.94 178.16z" stroke="none" fill="#C4DFF7" fill-rule="nonzero" /><path id="713" transform="matrix(1 0 0 -1 0 842)" d="M298.32 160.16L549 160.16L549 178.16L298.32 178.16z" stroke="none" fill="#C4DFF7" fill-rule="nonzero" /><path id="890" transform="matrix(1 0 0 -1 0 842)" d="M215.94 125.9L549 125.9L549 126.38L215.94 126.38z" stroke="none" fill="#000000" fill-rule="nonzero" /><path id="891" transform="matrix(1 0 0 -1 0 842)" d="M215.94 91.34L549 91.34L549 92.84L215.94 92.84z" stroke="none" fill="#000000" fill-rule="nonzero" /><g clip-path="url(#2)"><g clip-path="url(#3)"><path id="892" transform="matrix(1 0 0 -1 0 842)" d="M216.96 253.16L430.32 253.16L430.32 473.96L216.96 473.96z" stroke="none" fill="#FFFFFF" fill-rule="nonzero" /></g></g><g clip-path="url(#4)"><g clip-path="url(#5)"><g clip-path="url(#6)"><g transform="matrix(0.48 0 0 0.48 216.96 368.04)"><g transform="matrix(1 0 0 1 0 0)"><image x="0" y="0" xlink:href="img_186.png" width="445" height="460" /></g></g></g></g></g></g></g></svg>