<svg xmlns="http://www.w3.org/2000/svg" xmlns:xlink="http://www.w3.org/1999/xlink" id="body_228" preserveAspectRatio="xMinYMin meet" viewBox="0 0 793 1123"><defs><clipPath id="1"><path id="" clip-rule="evenodd" transform="matrix(1 0 0 1 0 0)" d="M0 842L0 0L0 0L595 0L595 0L595 842L595 842L0 842z" /></clipPath></defs><g transform="matrix(1.333333 0 0 1.333333 0 0)"><g clip-path="url(#1)"><path id="525" transform="matrix(1 0 0 -1 0 842)" d="M35.94 567.98L201.48 567.98L201.48 585.98L35.94 585.98z" stroke="none" fill="#C4DFF7" fill-rule="nonzero" /><path id="535" transform="matrix(1 0 0 -1 0 842)" d="M201.48 567.98L549 567.98L549 585.98L201.48 585.98z" stroke="none" fill="#C4DFF7" fill-rule="nonzero" /><path id="2030" transform="matrix(1 0 0 -1 0 842)" d="M35.94 547.7L549 547.7L549 548.18L35.94 548.18z" stroke="none" fill="#000000" fill-rule="nonzero" /><path id="2031" transform="matrix(1 0 0 -1 0 842)" d="M35.94 457.7L549 457.7L549 458.18L35.94 458.18z" stroke="none" fill="#000000" fill-rule="nonzero" /><path id="2032" transform="matrix(1 0 0 -1 0 842)" d="M35.94 381.74L549 381.74L549 382.22L35.94 382.22z" stroke="none" fill="#000000" fill-rule="nonzero" /><path id="2033" transform="matrix(1 0 0 -1 0 842)" d="M35.94 333.74L549 333.74L549 334.22L35.94 334.22z" stroke="none" fill="#000000" fill-rule="nonzero" /><path id="2034" transform="matrix(1 0 0 -1 0 842)" d="M35.94 271.7L549 271.7L549 272.18L35.94 272.18z" stroke="none" fill="#000000" fill-rule="nonzero" /><path id="2035" transform="matrix(1 0 0 -1 0 842)" d="M35.94 237.68L549 237.68L549 238.16L35.94 238.16z" stroke="none" fill="#000000" fill-rule="nonzero" /><path id="2036" transform="matrix(1 0 0 -1 0 842)" d="M35.94 189.68L549 189.68L549 190.16L35.94 190.16z" stroke="none" fill="#000000" fill-rule="nonzero" /><path id="2037" transform="matrix(1 0 0 -1 0 842)" d="M35.94 155.18L549 155.18L549 156.68L35.94 156.68z" stroke="none" fill="#000000" fill-rule="nonzero" /></g></g></svg>