<svg xmlns="http://www.w3.org/2000/svg" xmlns:xlink="http://www.w3.org/1999/xlink" id="body_41" preserveAspectRatio="xMinYMin meet" viewBox="0 0 793 1123"><defs><clipPath id="1"><path id="" clip-rule="evenodd" transform="matrix(1 0 0 1 0 0)" d="M0 842L0 0L0 0L595 0L595 0L595 842L595 842L0 842z" /></clipPath></defs><g transform="matrix(1.333333 0 0 1.333333 0 0)"><g clip-path="url(#1)"><path id="1880" transform="matrix(1 0 0 -1 0 842)" d="M44.94 751.94L218.82 751.94L218.82 769.94L44.94 769.94z" stroke="none" fill="#C4DFF7" fill-rule="nonzero" /><path id="1888" transform="matrix(1 0 0 -1 0 842)" d="M218.82 769.94L558 769.94L558 751.94L218.82 751.94" stroke="none" fill="#C4DFF7" fill-rule="nonzero" /><path id="1900" transform="matrix(1 0 0 -1 0 842)" d="M44.94 679.7L558 679.7L558 680.18L44.94 680.18z" stroke="none" fill="#000000" fill-rule="nonzero" /><path id="1901" transform="matrix(1 0 0 -1 0 842)" d="M44.94 621.74L558 621.74L558 622.22L44.94 622.22z" stroke="none" fill="#000000" fill-rule="nonzero" /><path id="1902" transform="matrix(1 0 0 -1 0 842)" d="M44.94 563.72L558 563.72L558 564.2L44.94 564.2z" stroke="none" fill="#000000" fill-rule="nonzero" /><path id="1903" transform="matrix(1 0 0 -1 0 842)" d="M44.94 505.7L558 505.7L558 506.18L44.94 506.18z" stroke="none" fill="#000000" fill-rule="nonzero" /><path id="1904" transform="matrix(1 0 0 -1 0 842)" d="M44.94 433.7L558 433.7L558 434.18L44.94 434.18z" stroke="none" fill="#000000" fill-rule="nonzero" /><path id="1905" transform="matrix(1 0 0 -1 0 842)" d="M44.94 375.74L558 375.74L558 376.22L44.94 376.22z" stroke="none" fill="#000000" fill-rule="nonzero" /><path id="1906" transform="matrix(1 0 0 -1 0 842)" d="M44.94 317.72L558 317.72L558 318.2L44.94 318.2z" stroke="none" fill="#000000" fill-rule="nonzero" /><path id="1907" transform="matrix(1 0 0 -1 0 842)" d="M44.94 273.68L558 273.68L558 274.16L44.94 274.16z" stroke="none" fill="#000000" fill-rule="nonzero" /><path id="1908" transform="matrix(1 0 0 -1 0 842)" d="M44.94 201.68L558 201.68L558 202.16L44.94 202.16z" stroke="none" fill="#000000" fill-rule="nonzero" /><path id="1909" transform="matrix(1 0 0 -1 0 842)" d="M44.94 143.72L558 143.72L558 144.2L44.94 144.2z" stroke="none" fill="#000000" fill-rule="nonzero" /><path id="1910" transform="matrix(1 0 0 -1 0 842)" d="M44.94 85.16L558 85.16L558 86.66L44.94 86.66z" stroke="none" fill="#000000" fill-rule="nonzero" /></g></g></svg>