<svg xmlns="http://www.w3.org/2000/svg" xmlns:xlink="http://www.w3.org/1999/xlink" id="body_33" preserveAspectRatio="xMinYMin meet" viewBox="0 0 793 1123"><defs><clipPath id="1"><path id="" clip-rule="evenodd" transform="matrix(1 0 0 1 0 0)" d="M0 842L0 0L0 0L595 0L595 0L595 842L595 842L0 842z" /></clipPath><clipPath id="2"><path id="" clip-rule="evenodd" transform="matrix(1 0 0 1 0 0)" d="M215.94 130.02L550.44 130.02L550.44 130.02L550.44 379.2L550.44 379.2L215.94 379.2z" /></clipPath><clipPath id="3"><path id="" clip-rule="evenodd" transform="matrix(1 0 0 1 0 0)" d="M0 0.02001953L595.2 0.02001953L595.2 0.02001953L595.2 842L595.2 842L0 842z" /></clipPath><clipPath id="4"><path id="" clip-rule="evenodd" transform="matrix(1 0 0 1 0 0)" d="M216.96 131.04L549.48 131.04L549.48 131.04L549.48 378.24L549.48 378.24L216.96 378.24z" /></clipPath><clipPath id="5"><path id="" clip-rule="evenodd" transform="matrix(1 0 0 1 0 0)" d="M215.94 130.02L550.44 130.02L550.44 130.02L550.44 379.2L550.44 379.2L215.94 379.2z" /></clipPath><clipPath id="6"><path id="" clip-rule="evenodd" transform="matrix(1 0 0 1 0 0)" d="M0 0.02001953L595.2 0.02001953L595.2 0.02001953L595.2 842L595.2 842L0 842z" /></clipPath><clipPath id="7"><path id="" clip-rule="evenodd" transform="matrix(1 0 0 1 0 0)" d="M35.94 532.2L385.5 532.2L385.5 532.2L385.5 643.6801L385.5 643.6801L35.94 643.6801z" /></clipPath><clipPath id="8"><path id="" clip-rule="evenodd" transform="matrix(1 0 0 1 0 0)" d="M0 0.02001953L595.2 0.02001953L595.2 0.02001953L595.2 842L595.2 842L0 842z" /></clipPath><clipPath id="9"><path id="" clip-rule="evenodd" transform="matrix(1 0 0 1 0 0)" d="M36.96 533.22L384.48 533.22L384.48 533.22L384.48 642.66L384.48 642.66L36.96 642.66z" /></clipPath><clipPath id="10"><path id="" clip-rule="evenodd" transform="matrix(1 0 0 1 0 0)" d="M35.94 532.2L385.5 532.2L385.5 532.2L385.5 643.6801L385.5 643.6801L35.94 643.6801z" /></clipPath><clipPath id="11"><path id="" clip-rule="evenodd" transform="matrix(1 0 0 1 0 0)" d="M0 0.02001953L595.2 0.02001953L595.2 0.02001953L595.2 842L595.2 842L0 842z" /></clipPath></defs><g transform="matrix(1.333333 0 0 1.333333 0 0)"><g clip-path="url(#1)"><g clip-path="url(#2)"><g clip-path="url(#3)"><path id="541" transform="matrix(1 0 0 -1 0 842)" d="M216.96 710.96L549.48 710.96L549.48 463.76L216.96 463.76" stroke="none" fill="#FFFFFF" fill-rule="nonzero" /></g></g><g clip-path="url(#4)"><g clip-path="url(#5)"><g clip-path="url(#6)"><g transform="matrix(0.4800952 0 0 0.48 216.96 131.04)"><g transform="matrix(1 0 0 1 0 0)"><image x="0" y="0" xlink:href="img_69.png" width="693" height="515" /></g></g></g></g></g><g clip-path="url(#7)"><g clip-path="url(#8)"><path id="580" transform="matrix(1 0 0 -1 0 842)" d="M36.96 199.34L384.48 199.34L384.48 308.78L36.96 308.78z" stroke="none" fill="#FFFFFF" fill-rule="nonzero" /></g></g><g clip-path="url(#9)"><g clip-path="url(#10)"><g clip-path="url(#11)"><g transform="matrix(0.48 0 0 0.48 36.96 533.22)"><g transform="matrix(1 0 0 1 0 0)"><image x="0" y="0" xlink:href="img_70.png" width="724" height="228" /></g></g></g></g></g></g></g></svg>