<svg xmlns="http://www.w3.org/2000/svg" xmlns:xlink="http://www.w3.org/1999/xlink" id="body_117" preserveAspectRatio="xMinYMin meet" viewBox="0 0 793 1123"><defs><clipPath id="1"><path id="" clip-rule="evenodd" transform="matrix(1 0 0 1 0 0)" d="M0 842L0 0L0 0L595 0L595 0L595 842L595 842L0 842z" /></clipPath><clipPath id="2"><path id="" clip-rule="evenodd" transform="matrix(1 0 0 1 0 0)" d="M35.94 159.06L544.14 159.06L544.14 159.06L544.14 495.84L544.14 495.84L35.94 495.84z" /></clipPath><clipPath id="3"><path id="" clip-rule="evenodd" transform="matrix(1 0 0 1 0 0)" d="M0 0.02001953L595.2 0.02001953L595.2 0.02001953L595.2 842L595.2 842L0 842z" /></clipPath><clipPath id="4"><path id="" clip-rule="evenodd" transform="matrix(1 0 0 1 0 0)" d="M36.96 160.02L543.12 160.02L543.12 160.02L543.12 494.82L543.12 494.82L36.96 494.82z" /></clipPath><clipPath id="5"><path id="" clip-rule="evenodd" transform="matrix(1 0 0 1 0 0)" d="M35.94 159.06L544.14 159.06L544.14 159.06L544.14 495.84L544.14 495.84L35.94 495.84z" /></clipPath><clipPath id="6"><path id="" clip-rule="evenodd" transform="matrix(1 0 0 1 0 0)" d="M0 0.02001953L595.2 0.02001953L595.2 0.02001953L595.2 842L595.2 842L0 842z" /></clipPath><clipPath id="7"><path id="" clip-rule="evenodd" transform="matrix(1 0 0 1 0 0)" d="M35.94 159.06L544.14 159.06L544.14 159.06L544.14 495.84L544.14 495.84L35.94 495.84z" /></clipPath><clipPath id="8"><path id="" clip-rule="evenodd" transform="matrix(1 0 0 1 0 0)" d="M0 0.02001953L595.2 0.02001953L595.2 0.02001953L595.2 842L595.2 842L0 842z" /></clipPath><clipPath id="9"><path id="" clip-rule="evenodd" transform="matrix(1 0 0 1 0 0)" d="M215.94 688.86L234.54 688.86L234.54 688.86L234.54 706.74L234.54 706.74L215.94 706.74z" /></clipPath><clipPath id="10"><path id="" clip-rule="evenodd" transform="matrix(1 0 0 1 0 0)" d="M0 0.02001953L595.2 0.02001953L595.2 0.02001953L595.2 842L595.2 842L0 842z" /></clipPath><clipPath id="11"><path id="" clip-rule="evenodd" transform="matrix(1 0 0 1 0 0)" d="M216.96 689.88L233.52 689.88L233.52 689.88L233.52 705.72L233.52 705.72L216.96 705.72z" /></clipPath><clipPath id="12"><path id="" clip-rule="evenodd" transform="matrix(1 0 0 1 0 0)" d="M215.94 688.86L234.54 688.86L234.54 688.86L234.54 706.74L234.54 706.74L215.94 706.74z" /></clipPath><clipPath id="13"><path id="" clip-rule="evenodd" transform="matrix(1 0 0 1 0 0)" d="M0 0.02001953L595.2 0.02001953L595.2 0.02001953L595.2 842L595.2 842L0 842z" /></clipPath><clipPath id="14"><path id="" clip-rule="evenodd" transform="matrix(1 0 0 1 0 0)" d="M215.94 716.7L234.54 716.7L234.54 716.7L234.54 734.58L234.54 734.58L215.94 734.58z" /></clipPath><clipPath id="15"><path id="" clip-rule="evenodd" transform="matrix(1 0 0 1 0 0)" d="M0 0.02001953L595.2 0.02001953L595.2 0.02001953L595.2 842L595.2 842L0 842z" /></clipPath><clipPath id="16"><path id="" clip-rule="evenodd" transform="matrix(1 0 0 1 0 0)" d="M216.96 717.72L233.52 717.72L233.52 717.72L233.52 733.56L233.52 733.56L216.96 733.56z" /></clipPath><clipPath id="17"><path id="" clip-rule="evenodd" transform="matrix(1 0 0 1 0 0)" d="M215.94 716.7L234.54 716.7L234.54 716.7L234.54 734.58L234.54 734.58L215.94 734.58z" /></clipPath><clipPath id="18"><path id="" clip-rule="evenodd" transform="matrix(1 0 0 1 0 0)" d="M0 0.02001953L595.2 0.02001953L595.2 0.02001953L595.2 842L595.2 842L0 842z" /></clipPath><clipPath id="19"><path id="" clip-rule="evenodd" transform="matrix(1 0 0 1 0 0)" d="M215.94 744.54L234.54 744.54L234.54 744.54L234.54 762.42L234.54 762.42L215.94 762.42z" /></clipPath><clipPath id="20"><path id="" clip-rule="evenodd" transform="matrix(1 0 0 1 0 0)" d="M0 0.02001953L595.2 0.02001953L595.2 0.02001953L595.2 842L595.2 842L0 842z" /></clipPath><clipPath id="21"><path id="" clip-rule="evenodd" transform="matrix(1 0 0 1 0 0)" d="M216.96 745.56L233.52 745.56L233.52 745.56L233.52 761.4L233.52 761.4L216.96 761.4z" /></clipPath><clipPath id="22"><path id="" clip-rule="evenodd" transform="matrix(1 0 0 1 0 0)" d="M215.94 744.54L234.54 744.54L234.54 744.54L234.54 762.42L234.54 762.42L215.94 762.42z" /></clipPath><clipPath id="23"><path id="" clip-rule="evenodd" transform="matrix(1 0 0 1 0 0)" d="M0 0.02001953L595.2 0.02001953L595.2 0.02001953L595.2 842L595.2 842L0 842z" /></clipPath></defs><g transform="matrix(1.333333 0 0 1.333333 0 0)"><g clip-path="url(#1)"><g clip-path="url(#2)"><g clip-path="url(#3)"><path id="535" transform="matrix(1 0 0 -1 0 842)" d="M36.96 347.18L543.12 347.18L543.12 681.98L36.96 681.98z" stroke="none" fill="#FFFFFF" fill-rule="nonzero" /></g></g><g clip-path="url(#4)"><g clip-path="url(#5)"><g clip-path="url(#6)"><g transform="matrix(0.48 0 0 0.4796562 36.96 160.02)"><g transform="matrix(1 0 0 1 0 0)"><image x="0" y="0" xlink:href="img_286.png" width="1055" height="698" /></g></g></g></g></g><g clip-path="url(#7)"><g clip-path="url(#8)"><path id="584" transform="matrix(1 0 0 -1 0 842)" d="M341.46 622.58L341.46 626.72L342.12 626.54L354.18 623.06L355.86 622.58L354.18 622.1L342.12 618.62L341.46 618.44L341.46 619.1L341.82 619.58L353.88 623.06L354.18 622.1L353.88 622.1L341.82 625.58L342.12 626.54L342.48 626.06L342.48 622.58" stroke="none" fill="#000000" fill-rule="nonzero" /><path id="585" transform="matrix(1 0 0 -1 0 842)" d="M341.46 619.1L342.48 619.1L342.48 622.58L341.46 622.58z" stroke="none" fill="#000000" fill-rule="nonzero" /><path id="586" transform="matrix(1 0 0 -1 0 842)" d="M341.94 622.58L341.94 626.06L341.94 626.06L354 622.58L354 622.58L341.94 619.1" stroke="none" fill="#000000" fill-rule="evenodd" /><path id="587" transform="matrix(1 0 0 -1 0 842)" d="M319.86 622.04L341.4 622.04L341.4 623.06L319.86 623.06z" stroke="none" fill="#000000" fill-rule="nonzero" /><path id="588" transform="matrix(1 0 0 -1 0 842)" d="M228.12 622.58L228.12 618.44L227.46 618.62L215.34 622.1L213.66 622.58L215.34 623.06L227.46 626.54L228.12 626.72L228.12 626.06L227.76 625.58L215.64 622.1L215.34 623.06L215.64 623.06L227.76 619.58L227.46 618.62L227.1 619.1L227.1 622.58" stroke="none" fill="#000000" fill-rule="nonzero" /><path id="589" transform="matrix(1 0 0 -1 0 842)" d="M227.1 622.58L228.12 622.58L228.12 626.06L227.1 626.06z" stroke="none" fill="#000000" fill-rule="nonzero" /><path id="590" transform="matrix(1 0 0 -1 0 842)" d="M227.64 622.58L227.64 619.1L227.64 619.1L215.52 622.58L215.52 622.58L227.64 626.06" stroke="none" fill="#000000" fill-rule="evenodd" /><path id="591" transform="matrix(1 0 0 -1 0 842)" d="M228.12 622.04L249.72 622.04L249.72 623.06L228.12 623.06z" stroke="none" fill="#000000" fill-rule="nonzero" /></g></g><path id="592" transform="matrix(1 0 0 -1 0 842)" d="M215.94 159.14L264.18 159.14L264.18 177.14L215.94 177.14z" stroke="none" fill="#C4DFF7" fill-rule="nonzero" /><path id="599" transform="matrix(1 0 0 -1 0 842)" d="M264.18 159.14L549 159.14L549 177.14L264.18 177.14z" stroke="none" fill="#C4DFF7" fill-rule="nonzero" /><path id="699" transform="matrix(1 0 0 -1 0 842)" d="M215.94 131.06L549 131.06L549 131.54L215.94 131.54z" stroke="none" fill="#000000" fill-rule="nonzero" /><path id="700" transform="matrix(1 0 0 -1 0 842)" d="M215.94 103.22L549 103.22L549 103.7L215.94 103.7z" stroke="none" fill="#000000" fill-rule="nonzero" /><path id="701" transform="matrix(1 0 0 -1 0 842)" d="M215.94 74.78L549 74.78L549 76.28L215.94 76.28z" stroke="none" fill="#000000" fill-rule="nonzero" /><g clip-path="url(#9)"><g clip-path="url(#10)"><path id="702" transform="matrix(1 0 0 -1 0 842)" d="M216.96 136.28L233.52 136.28L233.52 152.12L216.96 152.12z" stroke="none" fill="#FFFFFF" fill-rule="nonzero" /></g></g><g clip-path="url(#11)"><g clip-path="url(#12)"><g clip-path="url(#13)"><g transform="matrix(0.48 0 0 0.48 216.96 689.88)"><g transform="matrix(1 0 0 1 0 0)"><image x="0" y="0" xlink:href="img_287.png" width="35" height="33" /></g></g></g></g></g><g clip-path="url(#14)"><g clip-path="url(#15)"><path id="704" transform="matrix(1 0 0 -1 0 842)" d="M216.96 108.44L233.52 108.44L233.52 124.28L216.96 124.28z" stroke="none" fill="#FFFFFF" fill-rule="nonzero" /></g></g><g clip-path="url(#16)"><g clip-path="url(#17)"><g clip-path="url(#18)"><g transform="matrix(0.48 0 0 0.48 216.96 717.72)"><g transform="matrix(1 0 0 1 0 0)"><image x="0" y="0" xlink:href="img_288.png" width="35" height="33" /></g></g></g></g></g><g clip-path="url(#19)"><g clip-path="url(#20)"><path id="706" transform="matrix(1 0 0 -1 0 842)" d="M216.96 80.6L233.52 80.6L233.52 96.44L216.96 96.44z" stroke="none" fill="#FFFFFF" fill-rule="nonzero" /></g></g><g clip-path="url(#21)"><g clip-path="url(#22)"><g clip-path="url(#23)"><g transform="matrix(0.48 0 0 0.48 216.96 745.56)"><g transform="matrix(1 0 0 1 0 0)"><image x="0" y="0" xlink:href="img_289.png" width="35" height="33" /></g></g></g></g></g></g></g></svg>