<svg xmlns="http://www.w3.org/2000/svg" xmlns:xlink="http://www.w3.org/1999/xlink" id="body_205" preserveAspectRatio="xMinYMin meet" viewBox="0 0 793 1123"><defs><clipPath id="1"><path id="" clip-rule="evenodd" transform="matrix(1 0 0 1 0 0)" d="M0 842L0 0L0 0L595 0L595 0L595 842L595 842L0 842z" /></clipPath><clipPath id="2"><path id="" clip-rule="evenodd" transform="matrix(1 0 0 1 0 0)" d="M290.46 148.02L300.6 148.02L300.6 148.02L300.6 160.38L300.6 160.38L290.46 160.38z" /></clipPath><clipPath id="3"><path id="" clip-rule="evenodd" transform="matrix(1 0 0 1 0 0)" d="M0 0.02001953L595.2 0.02001953L595.2 0.02001953L595.2 842L595.2 842L0 842z" /></clipPath><clipPath id="4"><path id="" clip-rule="evenodd" transform="matrix(1 0 0 1 0 0)" d="M291.42 149.04L299.58 149.04L299.58 149.04L299.58 159.36L299.58 159.36L291.42 159.36z" /></clipPath><clipPath id="5"><path id="" clip-rule="evenodd" transform="matrix(1 0 0 1 0 0)" d="M290.46 148.02L300.6 148.02L300.6 148.02L300.6 160.38L300.6 160.38L290.46 160.38z" /></clipPath><clipPath id="6"><path id="" clip-rule="evenodd" transform="matrix(1 0 0 1 0 0)" d="M0 0.02001953L595.2 0.02001953L595.2 0.02001953L595.2 842L595.2 842L0 842z" /></clipPath><clipPath id="7"><path id="" clip-rule="evenodd" transform="matrix(1 0 0 1 0 0)" d="M233.94 163.74L246.3 163.74L246.3 163.74L246.3 174.36L246.3 174.36L233.94 174.36z" /></clipPath><clipPath id="8"><path id="" clip-rule="evenodd" transform="matrix(1 0 0 1 0 0)" d="M0 0.02001953L595.2 0.02001953L595.2 0.02001953L595.2 842L595.2 842L0 842z" /></clipPath><clipPath id="9"><path id="" clip-rule="evenodd" transform="matrix(1 0 0 1 0 0)" d="M234.96 164.7L245.28 164.7L245.28 164.7L245.28 173.34L245.28 173.34L234.96 173.34z" /></clipPath><clipPath id="10"><path id="" clip-rule="evenodd" transform="matrix(1 0 0 1 0 0)" d="M233.94 163.74L246.3 163.74L246.3 163.74L246.3 174.36L246.3 174.36L233.94 174.36z" /></clipPath><clipPath id="11"><path id="" clip-rule="evenodd" transform="matrix(1 0 0 1 0 0)" d="M0 0.02001953L595.2 0.02001953L595.2 0.02001953L595.2 842L595.2 842L0 842z" /></clipPath><clipPath id="12"><path id="" clip-rule="evenodd" transform="matrix(1 0 0 1 0 0)" d="M215.94 206.58L367.02 206.58L367.02 206.58L367.02 347.1L367.02 347.1L215.94 347.1z" /></clipPath><clipPath id="13"><path id="" clip-rule="evenodd" transform="matrix(1 0 0 1 0 0)" d="M0 0.02001953L595.2 0.02001953L595.2 0.02001953L595.2 842L595.2 842L0 842z" /></clipPath><clipPath id="14"><path id="" clip-rule="evenodd" transform="matrix(1 0 0 1 0 0)" d="M216.96 207.6L366 207.6L366 207.6L366 346.08L366 346.08L216.96 346.08z" /></clipPath><clipPath id="15"><path id="" clip-rule="evenodd" transform="matrix(1 0 0 1 0 0)" d="M215.94 206.58L367.02 206.58L367.02 206.58L367.02 347.1L367.02 347.1L215.94 347.1z" /></clipPath><clipPath id="16"><path id="" clip-rule="evenodd" transform="matrix(1 0 0 1 0 0)" d="M0 0.02001953L595.2 0.02001953L595.2 0.02001953L595.2 842L595.2 842L0 842z" /></clipPath><clipPath id="17"><path id="" clip-rule="evenodd" transform="matrix(1 0 0 1 0 0)" d="M318.42 431.1L331.74 431.1L331.74 431.1L331.74 444.36L331.74 444.36L318.42 444.36z" /></clipPath><clipPath id="18"><path id="" clip-rule="evenodd" transform="matrix(1 0 0 1 0 0)" d="M0 0.02001953L595.2 0.02001953L595.2 0.02001953L595.2 842L595.2 842L0 842z" /></clipPath><clipPath id="19"><path id="" clip-rule="evenodd" transform="matrix(1 0 0 1 0 0)" d="M319.44 432.12L330.72 432.12L330.72 432.12L330.72 443.4L330.72 443.4L319.44 443.4z" /></clipPath><clipPath id="20"><path id="" clip-rule="evenodd" transform="matrix(1 0 0 1 0 0)" d="M318.42 431.1L331.74 431.1L331.74 431.1L331.74 444.36L331.74 444.36L318.42 444.36z" /></clipPath><clipPath id="21"><path id="" clip-rule="evenodd" transform="matrix(1 0 0 1 0 0)" d="M0 0.02001953L595.2 0.02001953L595.2 0.02001953L595.2 842L595.2 842L0 842z" /></clipPath><clipPath id="22"><path id="" clip-rule="evenodd" transform="matrix(1 0 0 1 0 0)" d="M215.94 556.62L539.16 556.62L539.16 556.62L539.16 676.08L539.16 676.08L215.94 676.08z" /></clipPath><clipPath id="23"><path id="" clip-rule="evenodd" transform="matrix(1 0 0 1 0 0)" d="M0 0.02001953L595.2 0.02001953L595.2 0.02001953L595.2 842L595.2 842L0 842z" /></clipPath><clipPath id="24"><path id="" clip-rule="evenodd" transform="matrix(1 0 0 1 0 0)" d="M216.96 557.64L538.14 557.64L538.14 557.64L538.14 675.12L538.14 675.12L216.96 675.12z" /></clipPath><clipPath id="25"><path id="" clip-rule="evenodd" transform="matrix(1 0 0 1 0 0)" d="M215.94 556.62L539.16 556.62L539.16 556.62L539.16 676.08L539.16 676.08L215.94 676.08z" /></clipPath><clipPath id="26"><path id="" clip-rule="evenodd" transform="matrix(1 0 0 1 0 0)" d="M0 0.02001953L595.2 0.02001953L595.2 0.02001953L595.2 842L595.2 842L0 842z" /></clipPath></defs><g transform="matrix(1.333333 0 0 1.333333 0 0)"><g clip-path="url(#1)"><g clip-path="url(#2)"><g clip-path="url(#3)"><path id="990" transform="matrix(1 0 0 -1 0 842)" d="M291.42 682.64L299.58 682.64L299.58 692.96L291.42 692.96z" stroke="none" fill="#FFFFFF" fill-rule="nonzero" /></g></g><g clip-path="url(#4)"><g clip-path="url(#5)"><g clip-path="url(#6)"><g transform="matrix(0.48 0 0 0.4690909 291.42 149.04)"><g transform="matrix(1 0 0 1 0 0)"><image x="0" y="0" xlink:href="img_489.png" width="17" height="22" /></g></g></g></g></g><g clip-path="url(#7)"><g clip-path="url(#8)"><path id="992" transform="matrix(1 0 0 -1 0 842)" d="M234.96 668.66L245.28 668.66L245.28 677.3L234.96 677.3z" stroke="none" fill="#FFFFFF" fill-rule="nonzero" /></g></g><g clip-path="url(#9)"><g clip-path="url(#10)"><g clip-path="url(#11)"><g transform="matrix(0.48 0 0 0.48 234.96 164.7)"><g transform="matrix(1 0 0 1 0 0)"><image x="0" y="0" xlink:href="img_509.png" width="22" height="18" /></g></g></g></g></g><g clip-path="url(#12)"><g clip-path="url(#13)"><path id="994" transform="matrix(1 0 0 -1 0 842)" d="M216.96 495.92L366 495.92L366 634.4L216.96 634.4z" stroke="none" fill="#FFFFFF" fill-rule="nonzero" /></g></g><g clip-path="url(#14)"><g clip-path="url(#15)"><g clip-path="url(#16)"><g transform="matrix(0.48 0 0 0.4791695 216.96 207.6)"><g transform="matrix(1 0 0 1 0 0)"><image x="0" y="0" xlink:href="img_510.png" width="311" height="289" /></g></g></g></g></g><g clip-path="url(#17)"><g clip-path="url(#18)"><path id="996" transform="matrix(1 0 0 -1 0 842)" d="M319.44 398.6L330.72 398.6L330.72 409.88L319.44 409.88z" stroke="none" fill="#FFFFFF" fill-rule="nonzero" /></g></g><g clip-path="url(#19)"><g clip-path="url(#20)"><g clip-path="url(#21)"><g transform="matrix(0.48 0 0 0.47 319.44 432.12)"><g transform="matrix(1 0 0 1 0 0)"><image x="0" y="0" xlink:href="img_511.png" width="24" height="24" /></g></g></g></g></g><g clip-path="url(#22)"><g clip-path="url(#23)"><path id="998" transform="matrix(1 0 0 -1 0 842)" d="M216.96 166.88L538.14 166.88L538.14 284.36L216.96 284.36z" stroke="none" fill="#FFFFFF" fill-rule="nonzero" /></g></g><g clip-path="url(#24)"><g clip-path="url(#25)"><g clip-path="url(#26)"><g transform="matrix(0.4795702 0 0 0.4795102 216.96 557.64)"><g transform="matrix(1 0 0 1 0 0)"><image x="0" y="0" xlink:href="img_512.png" width="670" height="245" /></g></g></g></g></g></g></g></svg>