<svg xmlns="http://www.w3.org/2000/svg" xmlns:xlink="http://www.w3.org/1999/xlink" id="body_66" preserveAspectRatio="xMinYMin meet" viewBox="0 0 793 1123"><defs><clipPath id="1"><path id="" clip-rule="evenodd" transform="matrix(1 0 0 1 0 0)" d="M0 842L0 0L0 0L595 0L595 0L595 842L595 842L0 842z" /></clipPath><clipPath id="2"><path id="" clip-rule="evenodd" transform="matrix(1 0 0 1 0 0)" d="M39.96 702.06L68.34 702.06L68.34 702.06L68.34 721.56L68.34 721.56L39.96 721.56z" /></clipPath><clipPath id="3"><path id="" clip-rule="evenodd" transform="matrix(1 0 0 1 0 0)" d="M0 0.02001953L595.2 0.02001953L595.2 0.02001953L595.2 842L595.2 842L0 842z" /></clipPath><clipPath id="4"><path id="" clip-rule="evenodd" transform="matrix(1 0 0 1 0 0)" d="M40.98 703.08L67.38 703.08L67.38 703.08L67.38 720.6L67.38 720.6L40.98 720.6z" /></clipPath><clipPath id="5"><path id="" clip-rule="evenodd" transform="matrix(1 0 0 1 0 0)" d="M39.96 702.06L68.34 702.06L68.34 702.06L68.34 721.56L68.34 721.56L39.96 721.56z" /></clipPath><clipPath id="6"><path id="" clip-rule="evenodd" transform="matrix(1 0 0 1 0 0)" d="M0 0.02001953L595.2 0.02001953L595.2 0.02001953L595.2 842L595.2 842L0 842z" /></clipPath></defs><g transform="matrix(1.333333 0 0 1.333333 0 0)"><g clip-path="url(#1)"><path id="163" transform="matrix(1 0 0 -1 0 842)" d="M35.94 719.96L204.66 719.96L204.66 737.96L35.94 737.96z" stroke="none" fill="#C4DFF7" fill-rule="nonzero" /><path id="173" transform="matrix(1 0 0 -1 0 842)" d="M204.66 737.96L549 737.96L549 719.96L204.66 719.96" stroke="none" fill="#C4DFF7" fill-rule="nonzero" /><path id="1943" transform="matrix(1 0 0 -1 0 842)" d="M35.94 701.72L549 701.72L549 702.2L35.94 702.2z" stroke="none" fill="#000000" fill-rule="nonzero" /><path id="1944" transform="matrix(1 0 0 -1 0 842)" d="M35.94 573.74L549 573.74L549 574.22L35.94 574.22z" stroke="none" fill="#000000" fill-rule="nonzero" /><path id="1945" transform="matrix(1 0 0 -1 0 842)" d="M35.94 525.74L549 525.74L549 526.22L35.94 526.22z" stroke="none" fill="#000000" fill-rule="nonzero" /><path id="1946" transform="matrix(1 0 0 -1 0 842)" d="M35.94 505.7L549 505.7L549 506.18L35.94 506.18z" stroke="none" fill="#000000" fill-rule="nonzero" /><path id="1947" transform="matrix(1 0 0 -1 0 842)" d="M35.94 485.72L549 485.72L549 486.2L35.94 486.2z" stroke="none" fill="#000000" fill-rule="nonzero" /><path id="1948" transform="matrix(1 0 0 -1 0 842)" d="M35.94 451.7L549 451.7L549 452.18L35.94 452.18z" stroke="none" fill="#000000" fill-rule="nonzero" /><path id="1949" transform="matrix(1 0 0 -1 0 842)" d="M35.94 433.7L549 433.7L549 434.18L35.94 434.18z" stroke="none" fill="#000000" fill-rule="nonzero" /><path id="1950" transform="matrix(1 0 0 -1 0 842)" d="M35.94 413.72L549 413.72L549 414.2L35.94 414.2z" stroke="none" fill="#000000" fill-rule="nonzero" /><path id="1951" transform="matrix(1 0 0 -1 0 842)" d="M35.94 379.7L549 379.7L549 380.18L35.94 380.18z" stroke="none" fill="#000000" fill-rule="nonzero" /><path id="1952" transform="matrix(1 0 0 -1 0 842)" d="M35.94 345.74L549 345.74L549 346.22L35.94 346.22z" stroke="none" fill="#000000" fill-rule="nonzero" /><path id="1953" transform="matrix(1 0 0 -1 0 842)" d="M35.94 311.72L549 311.72L549 312.2L35.94 312.2z" stroke="none" fill="#000000" fill-rule="nonzero" /><path id="1954" transform="matrix(1 0 0 -1 0 842)" d="M35.94 277.7L549 277.7L549 278.18L35.94 278.18z" stroke="none" fill="#000000" fill-rule="nonzero" /><path id="1955" transform="matrix(1 0 0 -1 0 842)" d="M35.94 243.68L549 243.68L549 244.16L35.94 244.16z" stroke="none" fill="#000000" fill-rule="nonzero" /><path id="1956" transform="matrix(1 0 0 -1 0 842)" d="M35.94 225.68L549 225.68L549 226.16L35.94 226.16z" stroke="none" fill="#000000" fill-rule="nonzero" /><path id="1957" transform="matrix(1 0 0 -1 0 842)" d="M35.94 191.72L549 191.72L549 192.2L35.94 192.2z" stroke="none" fill="#000000" fill-rule="nonzero" /><path id="1958" transform="matrix(1 0 0 -1 0 842)" d="M35.94 143.72L549 143.72L549 144.2L35.94 144.2z" stroke="none" fill="#000000" fill-rule="nonzero" /><path id="1959" transform="matrix(1 0 0 -1 0 842)" d="M35.94 109.7L549 109.7L549 110.18L35.94 110.18z" stroke="none" fill="#000000" fill-rule="nonzero" /><path id="1960" transform="matrix(1 0 0 -1 0 842)" d="M35.94 89.18L549 89.18L549 90.68L35.94 90.68z" stroke="none" fill="#000000" fill-rule="nonzero" /><g clip-path="url(#2)"><g clip-path="url(#3)"><path id="1961" transform="matrix(1 0 0 -1 0 842)" d="M40.98 121.4L67.38 121.4L67.38 138.92L40.98 138.92z" stroke="none" fill="#FFFFFF" fill-rule="nonzero" /></g></g><g clip-path="url(#4)"><g clip-path="url(#5)"><g clip-path="url(#6)"><g transform="matrix(0.48 0 0 0.4735135 40.98 703.08)"><g transform="matrix(1 0 0 1 0 0)"><image x="0" y="0" xlink:href="img_152.png" width="55" height="37" /></g></g></g></g></g></g></g></svg>