<svg xmlns="http://www.w3.org/2000/svg" xmlns:xlink="http://www.w3.org/1999/xlink" id="body_198" preserveAspectRatio="xMinYMin meet" viewBox="0 0 793 1123"><defs><clipPath id="1"><path id="" clip-rule="evenodd" transform="matrix(1 0 0 1 0 0)" d="M0 842L0 0L0 0L595 0L595 0L595 842L595 842L0 842z" /></clipPath><clipPath id="2"><path id="" clip-rule="evenodd" transform="matrix(1 0 0 1 0 0)" d="M288.54 304.98L307.08 304.98L307.08 304.98L307.08 322.8L307.08 322.8L288.54 322.8z" /></clipPath><clipPath id="3"><path id="" clip-rule="evenodd" transform="matrix(1 0 0 1 0 0)" d="M0 0.02001953L595.2 0.02001953L595.2 0.02001953L595.2 842L595.2 842L0 842z" /></clipPath><clipPath id="4"><path id="" clip-rule="evenodd" transform="matrix(1 0 0 1 0 0)" d="M289.56 305.94L306.12 305.94L306.12 305.94L306.12 321.78L306.12 321.78L289.56 321.78z" /></clipPath><clipPath id="5"><path id="" clip-rule="evenodd" transform="matrix(1 0 0 1 0 0)" d="M288.54 304.98L307.08 304.98L307.08 304.98L307.08 322.8L307.08 322.8L288.54 322.8z" /></clipPath><clipPath id="6"><path id="" clip-rule="evenodd" transform="matrix(1 0 0 1 0 0)" d="M0 0.02001953L595.2 0.02001953L595.2 0.02001953L595.2 842L595.2 842L0 842z" /></clipPath><clipPath id="7"><path id="" clip-rule="evenodd" transform="matrix(1 0 0 1 0 0)" d="M288.54 391.98L307.08 391.98L307.08 391.98L307.08 409.8L307.08 409.8L288.54 409.8z" /></clipPath><clipPath id="8"><path id="" clip-rule="evenodd" transform="matrix(1 0 0 1 0 0)" d="M0 0.02001953L595.2 0.02001953L595.2 0.02001953L595.2 842L595.2 842L0 842z" /></clipPath><clipPath id="9"><path id="" clip-rule="evenodd" transform="matrix(1 0 0 1 0 0)" d="M289.56 392.94L306.12 392.94L306.12 392.94L306.12 408.78L306.12 408.78L289.56 408.78z" /></clipPath><clipPath id="10"><path id="" clip-rule="evenodd" transform="matrix(1 0 0 1 0 0)" d="M288.54 391.98L307.08 391.98L307.08 391.98L307.08 409.8L307.08 409.8L288.54 409.8z" /></clipPath><clipPath id="11"><path id="" clip-rule="evenodd" transform="matrix(1 0 0 1 0 0)" d="M0 0.02001953L595.2 0.02001953L595.2 0.02001953L595.2 842L595.2 842L0 842z" /></clipPath><clipPath id="12"><path id="" clip-rule="evenodd" transform="matrix(1 0 0 1 0 0)" d="M374.04 435.48L384.24 435.48L384.24 435.48L384.24 447.78L384.24 447.78L374.04 447.78z" /></clipPath><clipPath id="13"><path id="" clip-rule="evenodd" transform="matrix(1 0 0 1 0 0)" d="M0 0.02001953L595.2 0.02001953L595.2 0.02001953L595.2 842L595.2 842L0 842z" /></clipPath><clipPath id="14"><path id="" clip-rule="evenodd" transform="matrix(1 0 0 1 0 0)" d="M375.06 436.5L383.22 436.5L383.22 436.5L383.22 446.82L383.22 446.82L375.06 446.82z" /></clipPath><clipPath id="15"><path id="" clip-rule="evenodd" transform="matrix(1 0 0 1 0 0)" d="M374.04 435.48L384.24 435.48L384.24 435.48L384.24 447.78L384.24 447.78L374.04 447.78z" /></clipPath><clipPath id="16"><path id="" clip-rule="evenodd" transform="matrix(1 0 0 1 0 0)" d="M0 0.02001953L595.2 0.02001953L595.2 0.02001953L595.2 842L595.2 842L0 842z" /></clipPath><clipPath id="17"><path id="" clip-rule="evenodd" transform="matrix(1 0 0 1 0 0)" d="M482.4 449.7L496.14 449.7L496.14 449.7L496.14 461.82L496.14 461.82L482.4 461.82z" /></clipPath><clipPath id="18"><path id="" clip-rule="evenodd" transform="matrix(1 0 0 1 0 0)" d="M0 0.02001953L595.2 0.02001953L595.2 0.02001953L595.2 842L595.2 842L0 842z" /></clipPath><clipPath id="19"><path id="" clip-rule="evenodd" transform="matrix(1 0 0 1 0 0)" d="M483.36 450.72L495.12 450.72L495.12 450.72L495.12 460.8L495.12 460.8L483.36 460.8z" /></clipPath><clipPath id="20"><path id="" clip-rule="evenodd" transform="matrix(1 0 0 1 0 0)" d="M482.4 449.7L496.14 449.7L496.14 449.7L496.14 461.82L496.14 461.82L482.4 461.82z" /></clipPath><clipPath id="21"><path id="" clip-rule="evenodd" transform="matrix(1 0 0 1 0 0)" d="M0 0.02001953L595.2 0.02001953L595.2 0.02001953L595.2 842L595.2 842L0 842z" /></clipPath><clipPath id="22"><path id="" clip-rule="evenodd" transform="matrix(1 0 0 1 0 0)" d="M44.94 533.04L559.98 533.04L559.98 533.04L559.98 678.84L559.98 678.84L44.94 678.84z" /></clipPath><clipPath id="23"><path id="" clip-rule="evenodd" transform="matrix(1 0 0 1 0 0)" d="M0 0.02001953L595.2 0.02001953L595.2 0.02001953L595.2 842L595.2 842L0 842z" /></clipPath><clipPath id="24"><path id="" clip-rule="evenodd" transform="matrix(1 0 0 1 0 0)" d="M45.96 534.06L208.44 534.06L208.44 534.06L208.44 677.82L208.44 677.82L45.96 677.82z" /></clipPath><clipPath id="25"><path id="" clip-rule="evenodd" transform="matrix(1 0 0 1 0 0)" d="M44.94 533.04L559.98 533.04L559.98 533.04L559.98 678.84L559.98 678.84L44.94 678.84z" /></clipPath><clipPath id="26"><path id="" clip-rule="evenodd" transform="matrix(1 0 0 1 0 0)" d="M0 0.02001953L595.2 0.02001953L595.2 0.02001953L595.2 842L595.2 842L0 842z" /></clipPath><clipPath id="27"><path id="" clip-rule="evenodd" transform="matrix(1 0 0 1 0 0)" d="M44.94 533.04L559.98 533.04L559.98 533.04L559.98 678.84L559.98 678.84L44.94 678.84z" /></clipPath><clipPath id="28"><path id="" clip-rule="evenodd" transform="matrix(1 0 0 1 0 0)" d="M0 0.02001953L595.2 0.02001953L595.2 0.02001953L595.2 842L595.2 842L0 842z" /></clipPath><clipPath id="29"><path id="" clip-rule="evenodd" transform="matrix(1 0 0 1 0 0)" d="M238.8 534.06L558.96 534.06L558.96 534.06L558.96 660.36L558.96 660.36L238.8 660.36z" /></clipPath><clipPath id="30"><path id="" clip-rule="evenodd" transform="matrix(1 0 0 1 0 0)" d="M44.94 533.04L559.98 533.04L559.98 533.04L559.98 678.84L559.98 678.84L44.94 678.84z" /></clipPath><clipPath id="31"><path id="" clip-rule="evenodd" transform="matrix(1 0 0 1 0 0)" d="M0 0.02001953L595.2 0.02001953L595.2 0.02001953L595.2 842L595.2 842L0 842z" /></clipPath></defs><g transform="matrix(1.333333 0 0 1.333333 0 0)"><g clip-path="url(#1)"><g clip-path="url(#2)"><g clip-path="url(#3)"><path id="1082" transform="matrix(1 0 0 -1 0 842)" d="M289.56 520.22L306.12 520.22L306.12 536.06L289.56 536.06z" stroke="none" fill="#FFFFFF" fill-rule="nonzero" /></g></g><g clip-path="url(#4)"><g clip-path="url(#5)"><g clip-path="url(#6)"><g transform="matrix(0.48 0 0 0.48 289.56 305.94)"><g transform="matrix(1 0 0 1 0 0)"><image x="0" y="0" xlink:href="img_128.png" width="35" height="33" /></g></g></g></g></g><g clip-path="url(#7)"><g clip-path="url(#8)"><path id="1084" transform="matrix(1 0 0 -1 0 842)" d="M289.56 433.22L306.12 433.22L306.12 449.06L289.56 449.06z" stroke="none" fill="#FFFFFF" fill-rule="nonzero" /></g></g><g clip-path="url(#9)"><g clip-path="url(#10)"><g clip-path="url(#11)"><g transform="matrix(0.48 0 0 0.48 289.56 392.94)"><g transform="matrix(1 0 0 1 0 0)"><image x="0" y="0" xlink:href="img_129.png" width="35" height="33" /></g></g></g></g></g><g clip-path="url(#12)"><g clip-path="url(#13)"><path id="1086" transform="matrix(1 0 0 -1 0 842)" d="M375.06 395.18L383.22 395.18L383.22 405.5L375.06 405.5z" stroke="none" fill="#FFFFFF" fill-rule="nonzero" /></g></g><g clip-path="url(#14)"><g clip-path="url(#15)"><g clip-path="url(#16)"><g transform="matrix(0.48 0 0 0.4690909 375.06 436.5)"><g transform="matrix(1 0 0 1 0 0)"><image x="0" y="0" xlink:href="img_489.png" width="17" height="22" /></g></g></g></g></g><g clip-path="url(#17)"><g clip-path="url(#18)"><path id="1088" transform="matrix(1 0 0 -1 0 842)" d="M483.36 381.2L495.12 381.2L495.12 391.28L483.36 391.28z" stroke="none" fill="#FFFFFF" fill-rule="nonzero" /></g></g><g clip-path="url(#19)"><g clip-path="url(#20)"><g clip-path="url(#21)"><g transform="matrix(0.48 0 0 0.48 483.36 450.72)"><g transform="matrix(1 0 0 1 0 0)"><image x="0" y="0" xlink:href="img_490.png" width="25" height="21" /></g></g></g></g></g><g clip-path="url(#22)"><g clip-path="url(#23)"><path id="1119" transform="matrix(1 0 0 -1 0 842)" d="M45.96 164.18L208.44 164.18L208.44 307.94L45.96 307.94z" stroke="none" fill="#FFFFFF" fill-rule="nonzero" /></g></g><g clip-path="url(#24)"><g clip-path="url(#25)"><g clip-path="url(#26)"><g transform="matrix(0.48 0 0 0.4792 45.96 534.06)"><g transform="matrix(1 0 0 1 0 0)"><image x="0" y="0" xlink:href="img_491.png" width="339" height="300" /></g></g></g></g></g><g clip-path="url(#27)"><g clip-path="url(#28)"><path id="1121" transform="matrix(1 0 0 -1 0 842)" d="M238.8 307.94L558.96 307.94L558.96 181.64L238.8 181.64" stroke="none" fill="#FFFFFF" fill-rule="nonzero" /></g></g><g clip-path="url(#29)"><g clip-path="url(#30)"><g clip-path="url(#31)"><g transform="matrix(0.4797036 0 0 0.4784091 238.8 534.06)"><g transform="matrix(1 0 0 1 0 0)"><image x="0" y="0" xlink:href="img_492.png" width="668" height="264" /></g></g></g></g></g></g></g></svg>