<svg xmlns="http://www.w3.org/2000/svg" xmlns:xlink="http://www.w3.org/1999/xlink" id="body_122" preserveAspectRatio="xMinYMin meet" viewBox="0 0 793 1123"><defs><clipPath id="1"><path id="" clip-rule="evenodd" transform="matrix(1 0 0 1 0 0)" d="M0 842L0 0L0 0L595 0L595 0L595 842L595 842L0 842z" /></clipPath><clipPath id="2"><path id="" clip-rule="evenodd" transform="matrix(1 0 0 1 0 0)" d="M44.94 159.06L558.9 159.06L558.9 159.06L558.9 261.12L558.9 261.12L44.94 261.12z" /></clipPath><clipPath id="3"><path id="" clip-rule="evenodd" transform="matrix(1 0 0 1 0 0)" d="M0 0.02001953L595.2 0.02001953L595.2 0.02001953L595.2 842L595.2 842L0 842z" /></clipPath><clipPath id="4"><path id="" clip-rule="evenodd" transform="matrix(1 0 0 1 0 0)" d="M45.96 160.02L557.88 160.02L557.88 160.02L557.88 260.1L557.88 260.1L45.96 260.1z" /></clipPath><clipPath id="5"><path id="" clip-rule="evenodd" transform="matrix(1 0 0 1 0 0)" d="M44.94 159.06L558.9 159.06L558.9 159.06L558.9 261.12L558.9 261.12L44.94 261.12z" /></clipPath><clipPath id="6"><path id="" clip-rule="evenodd" transform="matrix(1 0 0 1 0 0)" d="M0 0.02001953L595.2 0.02001953L595.2 0.02001953L595.2 842L595.2 842L0 842z" /></clipPath><clipPath id="7"><path id="" clip-rule="evenodd" transform="matrix(1 0 0 1 0 0)" d="M224.94 403.14L243.54 403.14L243.54 403.14L243.54 420.96L243.54 420.96L224.94 420.96z" /></clipPath><clipPath id="8"><path id="" clip-rule="evenodd" transform="matrix(1 0 0 1 0 0)" d="M0 0.02001953L595.2 0.02001953L595.2 0.02001953L595.2 842L595.2 842L0 842z" /></clipPath><clipPath id="9"><path id="" clip-rule="evenodd" transform="matrix(1 0 0 1 0 0)" d="M225.96 404.1L242.52 404.1L242.52 404.1L242.52 419.94L242.52 419.94L225.96 419.94z" /></clipPath><clipPath id="10"><path id="" clip-rule="evenodd" transform="matrix(1 0 0 1 0 0)" d="M224.94 403.14L243.54 403.14L243.54 403.14L243.54 420.96L243.54 420.96L224.94 420.96z" /></clipPath><clipPath id="11"><path id="" clip-rule="evenodd" transform="matrix(1 0 0 1 0 0)" d="M0 0.02001953L595.2 0.02001953L595.2 0.02001953L595.2 842L595.2 842L0 842z" /></clipPath><clipPath id="12"><path id="" clip-rule="evenodd" transform="matrix(1 0 0 1 0 0)" d="M224.94 437.1L243.54 437.1L243.54 437.1L243.54 454.98L243.54 454.98L224.94 454.98z" /></clipPath><clipPath id="13"><path id="" clip-rule="evenodd" transform="matrix(1 0 0 1 0 0)" d="M0 0.02001953L595.2 0.02001953L595.2 0.02001953L595.2 842L595.2 842L0 842z" /></clipPath><clipPath id="14"><path id="" clip-rule="evenodd" transform="matrix(1 0 0 1 0 0)" d="M225.96 438.12L242.52 438.12L242.52 438.12L242.52 453.96L242.52 453.96L225.96 453.96z" /></clipPath><clipPath id="15"><path id="" clip-rule="evenodd" transform="matrix(1 0 0 1 0 0)" d="M224.94 437.1L243.54 437.1L243.54 437.1L243.54 454.98L243.54 454.98L224.94 454.98z" /></clipPath><clipPath id="16"><path id="" clip-rule="evenodd" transform="matrix(1 0 0 1 0 0)" d="M0 0.02001953L595.2 0.02001953L595.2 0.02001953L595.2 842L595.2 842L0 842z" /></clipPath><clipPath id="17"><path id="" clip-rule="evenodd" transform="matrix(1 0 0 1 0 0)" d="M44.94 650.16L61.08 650.16L61.08 650.16L61.08 664.8L61.08 664.8L44.94 664.8z" /></clipPath><clipPath id="18"><path id="" clip-rule="evenodd" transform="matrix(1 0 0 1 0 0)" d="M0 0.02001953L595.2 0.02001953L595.2 0.02001953L595.2 842L595.2 842L0 842z" /></clipPath><clipPath id="19"><path id="" clip-rule="evenodd" transform="matrix(1 0 0 1 0 0)" d="M45.96 651.12L60.12 651.12L60.12 651.12L60.12 663.84L60.12 663.84L45.96 663.84z" /></clipPath><clipPath id="20"><path id="" clip-rule="evenodd" transform="matrix(1 0 0 1 0 0)" d="M44.94 650.16L61.08 650.16L61.08 650.16L61.08 664.8L61.08 664.8L44.94 664.8z" /></clipPath><clipPath id="21"><path id="" clip-rule="evenodd" transform="matrix(1 0 0 1 0 0)" d="M0 0.02001953L595.2 0.02001953L595.2 0.02001953L595.2 842L595.2 842L0 842z" /></clipPath><clipPath id="22"><path id="" clip-rule="evenodd" transform="matrix(1 0 0 1 0 0)" d="M44.94 674.82L61.8 674.82L61.8 674.82L61.8 689.52L61.8 689.52L44.94 689.52z" /></clipPath><clipPath id="23"><path id="" clip-rule="evenodd" transform="matrix(1 0 0 1 0 0)" d="M0 0.02001953L595.2 0.02001953L595.2 0.02001953L595.2 842L595.2 842L0 842z" /></clipPath><clipPath id="24"><path id="" clip-rule="evenodd" transform="matrix(1 0 0 1 0 0)" d="M45.96 675.84L60.84 675.84L60.84 675.84L60.84 688.56L60.84 688.56L45.96 688.56z" /></clipPath><clipPath id="25"><path id="" clip-rule="evenodd" transform="matrix(1 0 0 1 0 0)" d="M44.94 674.82L61.8 674.82L61.8 674.82L61.8 689.52L61.8 689.52L44.94 689.52z" /></clipPath><clipPath id="26"><path id="" clip-rule="evenodd" transform="matrix(1 0 0 1 0 0)" d="M0 0.02001953L595.2 0.02001953L595.2 0.02001953L595.2 842L595.2 842L0 842z" /></clipPath></defs><g transform="matrix(1.333333 0 0 1.333333 0 0)"><g clip-path="url(#1)"><g clip-path="url(#2)"><g clip-path="url(#3)"><path id="656" transform="matrix(1 0 0 -1 0 842)" d="M45.96 581.9L557.88 581.9L557.88 681.98L45.96 681.98z" stroke="none" fill="#FFFFFF" fill-rule="nonzero" /></g></g><g clip-path="url(#4)"><g clip-path="url(#5)"><g clip-path="url(#6)"><g transform="matrix(0.48 0 0 0.4788517 45.96 160.02)"><g transform="matrix(1 0 0 1 0 0)"><image x="0" y="0" xlink:href="img_315.png" width="1067" height="209" /></g></g></g></g></g><path id="658" transform="matrix(1 0 0 -1 0 842)" d="M224.94 444.86L264.12 444.86L264.12 462.86L224.94 462.86z" stroke="none" fill="#C4DFF7" fill-rule="nonzero" /><path id="665" transform="matrix(1 0 0 -1 0 842)" d="M264.12 444.86L558 444.86L558 462.86L264.12 462.86z" stroke="none" fill="#C4DFF7" fill-rule="nonzero" /><path id="829" transform="matrix(1 0 0 -1 0 842)" d="M224.94 410.66L558 410.66L558 411.14L224.94 411.14z" stroke="none" fill="#000000" fill-rule="nonzero" /><path id="830" transform="matrix(1 0 0 -1 0 842)" d="M224.94 376.1L558 376.1L558 377.6L224.94 377.6z" stroke="none" fill="#000000" fill-rule="nonzero" /><g clip-path="url(#7)"><g clip-path="url(#8)"><path id="831" transform="matrix(1 0 0 -1 0 842)" d="M225.96 422.06L242.52 422.06L242.52 437.9L225.96 437.9z" stroke="none" fill="#FFFFFF" fill-rule="nonzero" /></g></g><g clip-path="url(#9)"><g clip-path="url(#10)"><g clip-path="url(#11)"><g transform="matrix(0.48 0 0 0.48 225.96 404.1)"><g transform="matrix(1 0 0 1 0 0)"><image x="0" y="0" xlink:href="img_125.png" width="35" height="33" /></g></g></g></g></g><g clip-path="url(#12)"><g clip-path="url(#13)"><path id="833" transform="matrix(1 0 0 -1 0 842)" d="M225.96 388.04L242.52 388.04L242.52 403.88L225.96 403.88z" stroke="none" fill="#FFFFFF" fill-rule="nonzero" /></g></g><g clip-path="url(#14)"><g clip-path="url(#15)"><g clip-path="url(#16)"><g transform="matrix(0.48 0 0 0.48 225.96 438.12)"><g transform="matrix(1 0 0 1 0 0)"><image x="0" y="0" xlink:href="img_127.png" width="35" height="33" /></g></g></g></g></g><path id="835" transform="matrix(1 0 0 -1 0 842)" d="M44.94 197.84L140.82 197.84L140.82 215.84L44.94 215.84z" stroke="none" fill="#C4DFF7" fill-rule="nonzero" /><path id="845" transform="matrix(1 0 0 -1 0 842)" d="M140.82 215.84L558 215.84L558 197.84L140.82 197.84" stroke="none" fill="#C4DFF7" fill-rule="nonzero" /><path id="1024" transform="matrix(1 0 0 -1 0 842)" d="M44.94 172.94L558 172.94L558 173.42L44.94 173.42z" stroke="none" fill="#000000" fill-rule="nonzero" /><path id="1025" transform="matrix(1 0 0 -1 0 842)" d="M44.94 138.92L558 138.92L558 139.4L44.94 139.4z" stroke="none" fill="#000000" fill-rule="nonzero" /><path id="1026" transform="matrix(1 0 0 -1 0 842)" d="M44.94 118.4L558 118.4L558 119.9L44.94 119.9z" stroke="none" fill="#000000" fill-rule="nonzero" /><g clip-path="url(#17)"><g clip-path="url(#18)"><path id="1027" transform="matrix(1 0 0 -1 0 842)" d="M45.96 178.16L60.12 178.16L60.12 190.88L45.96 190.88z" stroke="none" fill="#FFFFFF" fill-rule="nonzero" /></g></g><g clip-path="url(#19)"><g clip-path="url(#20)"><g clip-path="url(#21)"><g transform="matrix(0.48 0 0 0.4711111 45.96 651.12)"><g transform="matrix(1 0 0 1 0 0)"><image x="0" y="0" xlink:href="img_77.png" width="30" height="27" /></g></g></g></g></g><g clip-path="url(#22)"><g clip-path="url(#23)"><path id="1029" transform="matrix(1 0 0 -1 0 842)" d="M45.96 153.44L60.84 153.44L60.84 166.16L45.96 166.16z" stroke="none" fill="#FFFFFF" fill-rule="nonzero" /></g></g><g clip-path="url(#24)"><g clip-path="url(#25)"><g clip-path="url(#26)"><g transform="matrix(0.48 0 0 0.4711111 45.96 675.84)"><g transform="matrix(1 0 0 1 0 0)"><image x="0" y="0" xlink:href="img_316.png" width="31" height="27" /></g></g></g></g></g></g></g></svg>