<svg xmlns="http://www.w3.org/2000/svg" xmlns:xlink="http://www.w3.org/1999/xlink" id="body_173" preserveAspectRatio="xMinYMin meet" viewBox="0 0 793 1123"><defs><clipPath id="1"><path id="" clip-rule="evenodd" transform="matrix(1 0 0 1 0 0)" d="M0 842L0 0L0 0L595 0L595 0L595 842L595 842L0 842z" /></clipPath><clipPath id="2"><path id="" clip-rule="evenodd" transform="matrix(1 0 0 1 0 0)" d="M501.9 108.84L516.66 108.84L516.66 108.84L516.66 121.38L516.66 121.38L501.9 121.38z" /></clipPath><clipPath id="3"><path id="" clip-rule="evenodd" transform="matrix(1 0 0 1 0 0)" d="M0 0.02001953L595.2 0.02001953L595.2 0.02001953L595.2 842L595.2 842L0 842z" /></clipPath><clipPath id="4"><path id="" clip-rule="evenodd" transform="matrix(1 0 0 1 0 0)" d="M502.92 109.86L515.64 109.86L515.64 109.86L515.64 120.42L515.64 120.42L502.92 120.42z" /></clipPath><clipPath id="5"><path id="" clip-rule="evenodd" transform="matrix(1 0 0 1 0 0)" d="M501.9 108.84L516.66 108.84L516.66 108.84L516.66 121.38L516.66 121.38L501.9 121.38z" /></clipPath><clipPath id="6"><path id="" clip-rule="evenodd" transform="matrix(1 0 0 1 0 0)" d="M0 0.02001953L595.2 0.02001953L595.2 0.02001953L595.2 842L595.2 842L0 842z" /></clipPath><clipPath id="7"><path id="" clip-rule="evenodd" transform="matrix(1 0 0 1 0 0)" d="M224.94 153.06L360.9 153.06L360.9 153.06L360.9 197.76L360.9 197.76L224.94 197.76z" /></clipPath><clipPath id="8"><path id="" clip-rule="evenodd" transform="matrix(1 0 0 1 0 0)" d="M0 0.02001953L595.2 0.02001953L595.2 0.02001953L595.2 842L595.2 842L0 842z" /></clipPath><clipPath id="9"><path id="" clip-rule="evenodd" transform="matrix(1 0 0 1 0 0)" d="M225.96 154.02L359.88 154.02L359.88 154.02L359.88 196.74L359.88 196.74L225.96 196.74z" /></clipPath><clipPath id="10"><path id="" clip-rule="evenodd" transform="matrix(1 0 0 1 0 0)" d="M224.94 153.06L360.9 153.06L360.9 153.06L360.9 197.76L360.9 197.76L224.94 197.76z" /></clipPath><clipPath id="11"><path id="" clip-rule="evenodd" transform="matrix(1 0 0 1 0 0)" d="M0 0.02001953L595.2 0.02001953L595.2 0.02001953L595.2 842L595.2 842L0 842z" /></clipPath><clipPath id="12"><path id="" clip-rule="evenodd" transform="matrix(1 0 0 1 0 0)" d="M224.94 387.78L449.4 387.78L449.4 387.78L449.4 476.22L449.4 476.22L224.94 476.22z" /></clipPath><clipPath id="13"><path id="" clip-rule="evenodd" transform="matrix(1 0 0 1 0 0)" d="M0 0.02001953L595.2 0.02001953L595.2 0.02001953L595.2 842L595.2 842L0 842z" /></clipPath><clipPath id="14"><path id="" clip-rule="evenodd" transform="matrix(1 0 0 1 0 0)" d="M225.96 388.74L448.38 388.74L448.38 388.74L448.38 475.2L448.38 475.2L225.96 475.2z" /></clipPath><clipPath id="15"><path id="" clip-rule="evenodd" transform="matrix(1 0 0 1 0 0)" d="M224.94 387.78L449.4 387.78L449.4 387.78L449.4 476.22L449.4 476.22L224.94 476.22z" /></clipPath><clipPath id="16"><path id="" clip-rule="evenodd" transform="matrix(1 0 0 1 0 0)" d="M0 0.02001953L595.2 0.02001953L595.2 0.02001953L595.2 842L595.2 842L0 842z" /></clipPath></defs><g transform="matrix(1.333333 0 0 1.333333 0 0)"><g clip-path="url(#1)"><g clip-path="url(#2)"><g clip-path="url(#3)"><path id="783" transform="matrix(1 0 0 -1 0 842)" d="M502.92 721.58L515.64 721.58L515.64 732.14L502.92 732.14z" stroke="none" fill="#FFFFFF" fill-rule="nonzero" /></g></g><g clip-path="url(#4)"><g clip-path="url(#5)"><g clip-path="url(#6)"><g transform="matrix(0.48 0 0 0.48 502.92 109.86)"><g transform="matrix(1 0 0 1 0 0)"><image x="0" y="0" xlink:href="img_272.png" width="27" height="22" /></g></g></g></g></g><g clip-path="url(#7)"><g clip-path="url(#8)"><path id="785" transform="matrix(1 0 0 -1 0 842)" d="M225.96 645.26L359.88 645.26L359.88 687.98L225.96 687.98z" stroke="none" fill="#FFFFFF" fill-rule="nonzero" /></g></g><g clip-path="url(#9)"><g clip-path="url(#10)"><g clip-path="url(#11)"><g transform="matrix(0.48 0 0 0.48 225.96 154.02)"><g transform="matrix(1 0 0 1 0 0)"><image x="0" y="0" xlink:href="img_239.png" width="279" height="89" /></g></g></g></g></g><g clip-path="url(#12)"><g clip-path="url(#13)"><path id="787" transform="matrix(1 0 0 -1 0 842)" d="M225.96 366.8L448.38 366.8L448.38 453.26L225.96 453.26z" stroke="none" fill="#FFFFFF" fill-rule="nonzero" /></g></g><g clip-path="url(#14)"><g clip-path="url(#15)"><g clip-path="url(#16)"><g transform="matrix(0.4795991 0 0 0.4776796 225.96 388.74)"><g transform="matrix(1 0 0 1 0 0)"><image x="0" y="0" xlink:href="img_429.png" width="464" height="181" /></g></g></g></g></g></g></g></svg>