<svg xmlns="http://www.w3.org/2000/svg" xmlns:xlink="http://www.w3.org/1999/xlink" id="body_51" preserveAspectRatio="xMinYMin meet" viewBox="0 0 793 1123"><defs><clipPath id="1"><path id="" clip-rule="evenodd" transform="matrix(1 0 0 1 0 0)" d="M0 842L0 0L0 0L595 0L595 0L595 842L595 842L0 842z" /></clipPath><clipPath id="2"><path id="" clip-rule="evenodd" transform="matrix(1 0 0 1 0 0)" d="M44.94 464.04L63.54 464.04L63.54 464.04L63.54 481.92L63.54 481.92L44.94 481.92z" /></clipPath><clipPath id="3"><path id="" clip-rule="evenodd" transform="matrix(1 0 0 1 0 0)" d="M0 0.02001953L595.2 0.02001953L595.2 0.02001953L595.2 842L595.2 842L0 842z" /></clipPath><clipPath id="4"><path id="" clip-rule="evenodd" transform="matrix(1 0 0 1 0 0)" d="M45.96 465.06L62.52 465.06L62.52 465.06L62.52 480.9L62.52 480.9L45.96 480.9z" /></clipPath><clipPath id="5"><path id="" clip-rule="evenodd" transform="matrix(1 0 0 1 0 0)" d="M44.94 464.04L63.54 464.04L63.54 464.04L63.54 481.92L63.54 481.92L44.94 481.92z" /></clipPath><clipPath id="6"><path id="" clip-rule="evenodd" transform="matrix(1 0 0 1 0 0)" d="M0 0.02001953L595.2 0.02001953L595.2 0.02001953L595.2 842L595.2 842L0 842z" /></clipPath><clipPath id="7"><path id="" clip-rule="evenodd" transform="matrix(1 0 0 1 0 0)" d="M44.94 512.04L63.54 512.04L63.54 512.04L63.54 529.92L63.54 529.92L44.94 529.92z" /></clipPath><clipPath id="8"><path id="" clip-rule="evenodd" transform="matrix(1 0 0 1 0 0)" d="M0 0.02001953L595.2 0.02001953L595.2 0.02001953L595.2 842L595.2 842L0 842z" /></clipPath><clipPath id="9"><path id="" clip-rule="evenodd" transform="matrix(1 0 0 1 0 0)" d="M45.96 513.06L62.52 513.06L62.52 513.06L62.52 528.9L62.52 528.9L45.96 528.9z" /></clipPath><clipPath id="10"><path id="" clip-rule="evenodd" transform="matrix(1 0 0 1 0 0)" d="M44.94 512.04L63.54 512.04L63.54 512.04L63.54 529.92L63.54 529.92L44.94 529.92z" /></clipPath><clipPath id="11"><path id="" clip-rule="evenodd" transform="matrix(1 0 0 1 0 0)" d="M0 0.02001953L595.2 0.02001953L595.2 0.02001953L595.2 842L595.2 842L0 842z" /></clipPath></defs><g transform="matrix(1.333333 0 0 1.333333 0 0)"><g clip-path="url(#1)"><path id="261" transform="matrix(1 0 0 -1 0 842)" d="M44.94 677.96L236.34 677.96L236.34 695.96L44.94 695.96z" stroke="none" fill="#C4DFF7" fill-rule="nonzero" /><path id="269" transform="matrix(1 0 0 -1 0 842)" d="M236.34 695.96L558 695.96L558 677.96L236.34 677.96" stroke="none" fill="#C4DFF7" fill-rule="nonzero" /><path id="799" transform="matrix(1 0 0 -1 0 842)" d="M44.94 563.72L558 563.72L558 564.2L44.94 564.2z" stroke="none" fill="#000000" fill-rule="nonzero" /><path id="800" transform="matrix(1 0 0 -1 0 842)" d="M44.94 501.2L558 501.2L558 502.7L44.94 502.7z" stroke="none" fill="#000000" fill-rule="nonzero" /><path id="801" transform="matrix(1 0 0 -1 0 842)" d="M44.94 383.96L236.34 383.96L236.34 401.96L44.94 401.96z" stroke="none" fill="#C4DFF7" fill-rule="nonzero" /><path id="809" transform="matrix(1 0 0 -1 0 842)" d="M236.34 401.96L558 401.96L558 383.96L236.34 383.96" stroke="none" fill="#C4DFF7" fill-rule="nonzero" /><path id="1196" transform="matrix(1 0 0 -1 0 842)" d="M44.94 335.72L558 335.72L558 336.2L44.94 336.2z" stroke="none" fill="#000000" fill-rule="nonzero" /><path id="1197" transform="matrix(1 0 0 -1 0 842)" d="M44.94 301.7L558 301.7L558 302.18L44.94 302.18z" stroke="none" fill="#000000" fill-rule="nonzero" /><path id="1198" transform="matrix(1 0 0 -1 0 842)" d="M44.94 253.16L558 253.16L558 254.66L44.94 254.66z" stroke="none" fill="#000000" fill-rule="nonzero" /><g clip-path="url(#2)"><g clip-path="url(#3)"><path id="1199" transform="matrix(1 0 0 -1 0 842)" d="M45.96 361.1L62.52 361.1L62.52 376.94L45.96 376.94z" stroke="none" fill="#FFFFFF" fill-rule="nonzero" /></g></g><g clip-path="url(#4)"><g clip-path="url(#5)"><g clip-path="url(#6)"><g transform="matrix(0.48 0 0 0.48 45.96 465.06)"><g transform="matrix(1 0 0 1 0 0)"><image x="0" y="0" xlink:href="img_105.png" width="35" height="33" /></g></g></g></g></g><g clip-path="url(#7)"><g clip-path="url(#8)"><path id="1201" transform="matrix(1 0 0 -1 0 842)" d="M45.96 313.1L62.52 313.1L62.52 328.94L45.96 328.94z" stroke="none" fill="#FFFFFF" fill-rule="nonzero" /></g></g><g clip-path="url(#9)"><g clip-path="url(#10)"><g clip-path="url(#11)"><g transform="matrix(0.48 0 0 0.48 45.96 513.06)"><g transform="matrix(1 0 0 1 0 0)"><image x="0" y="0" xlink:href="img_114.png" width="35" height="33" /></g></g></g></g></g></g></g></svg>