<svg xmlns="http://www.w3.org/2000/svg" xmlns:xlink="http://www.w3.org/1999/xlink" id="body_102" preserveAspectRatio="xMinYMin meet" viewBox="0 0 793 1123"><defs><clipPath id="1"><path id="" clip-rule="evenodd" transform="matrix(1 0 0 1 0 0)" d="M0 842L0 0L0 0L595 0L595 0L595 842L595 842L0 842z" /></clipPath><clipPath id="2"><path id="" clip-rule="evenodd" transform="matrix(1 0 0 1 0 0)" d="M215.94 172.02L431.34 172.02L431.34 172.02L431.34 511.02L431.34 511.02L215.94 511.02z" /></clipPath><clipPath id="3"><path id="" clip-rule="evenodd" transform="matrix(1 0 0 1 0 0)" d="M0 0.02001953L595.2 0.02001953L595.2 0.02001953L595.2 842L595.2 842L0 842z" /></clipPath><clipPath id="4"><path id="" clip-rule="evenodd" transform="matrix(1 0 0 1 0 0)" d="M216.96 173.04L430.32 173.04L430.32 173.04L430.32 510L430.32 510L216.96 510z" /></clipPath><clipPath id="5"><path id="" clip-rule="evenodd" transform="matrix(1 0 0 1 0 0)" d="M215.94 172.02L431.34 172.02L431.34 172.02L431.34 511.02L431.34 511.02L215.94 511.02z" /></clipPath><clipPath id="6"><path id="" clip-rule="evenodd" transform="matrix(1 0 0 1 0 0)" d="M0 0.02001953L595.2 0.02001953L595.2 0.02001953L595.2 842L595.2 842L0 842z" /></clipPath></defs><g transform="matrix(1.333333 0 0 1.333333 0 0)"><g clip-path="url(#1)"><g clip-path="url(#2)"><g clip-path="url(#3)"><path id="396" transform="matrix(1 0 0 -1 0 842)" d="M216.96 332L430.32 332L430.32 668.96L216.96 668.96z" stroke="none" fill="#FFFFFF" fill-rule="nonzero" /></g></g><g clip-path="url(#4)"><g clip-path="url(#5)"><g clip-path="url(#6)"><g transform="matrix(0.48 0 0 0.48 216.96 173.04)"><g transform="matrix(1 0 0 1 0 0)"><image x="0" y="0" xlink:href="img_254.png" width="445" height="702" /></g></g></g></g></g><path id="398" transform="matrix(1 0 0 -1 0 842)" d="M35.94 239L158.04 239L158.04 257L35.94 257z" stroke="none" fill="#C5E0F7" fill-rule="nonzero" /><path id="408" transform="matrix(1 0 0 -1 0 842)" d="M158.04 257L549 257L549 239L158.04 239" stroke="none" fill="#C5E0F7" fill-rule="nonzero" /><path id="629" transform="matrix(1 0 0 -1 0 842)" d="M35.94 220.76L549 220.76L549 221.24L35.94 221.24z" stroke="none" fill="#000000" fill-rule="nonzero" /><path id="630" transform="matrix(1 0 0 -1 0 842)" d="M35.94 200.72L549 200.72L549 201.2L35.94 201.2z" stroke="none" fill="#000000" fill-rule="nonzero" /><path id="631" transform="matrix(1 0 0 -1 0 842)" d="M35.94 131.18L549 131.18L549 132.68L35.94 132.68z" stroke="none" fill="#000000" fill-rule="nonzero" /></g></g></svg>