<svg xmlns="http://www.w3.org/2000/svg" xmlns:xlink="http://www.w3.org/1999/xlink" id="body_16" preserveAspectRatio="xMinYMin meet" viewBox="0 0 793 1123"><defs><clipPath id="1"><path id="" clip-rule="evenodd" transform="matrix(1 0 0 1 0 0)" d="M0 842L0 0L0 0L595 0L595 0L595 842L595 842L0 842z" /></clipPath></defs><g transform="matrix(1.333333 0 0 1.333333 0 0)"><g clip-path="url(#1)"><path id="510" transform="matrix(1 0 0 -1 0 842)" d="M44.94 584.96L129.96 584.96L129.96 602.96L44.94 602.96z" stroke="none" fill="#C4DFF7" fill-rule="nonzero" /><path id="526" transform="matrix(1 0 0 -1 0 842)" d="M129.96 584.96L204.78 584.96L204.78 602.96L129.96 602.96z" stroke="none" fill="#C4DFF7" fill-rule="nonzero" /><path id="536" transform="matrix(1 0 0 -1 0 842)" d="M204.78 584.96L384.54 584.96L384.54 602.96L204.78 602.96z" stroke="none" fill="#C4DFF7" fill-rule="nonzero" /><path id="555" transform="matrix(1 0 0 -1 0 842)" d="M384.54 584.96L558 584.96L558 602.96L384.54 602.96z" stroke="none" fill="#C4DFF7" fill-rule="nonzero" /><path id="970" transform="matrix(1 0 0 -1 0 842)" d="M129.96 536.72L558 536.72L558 537.2L129.96 537.2z" stroke="none" fill="#000000" fill-rule="nonzero" /><path id="971" transform="matrix(1 0 0 -1 0 842)" d="M44.94 502.7L558 502.7L558 503.18L44.94 503.18z" stroke="none" fill="#000000" fill-rule="nonzero" /><path id="972" transform="matrix(1 0 0 -1 0 842)" d="M129.96 454.7L558 454.7L558 455.18L129.96 455.18z" stroke="none" fill="#000000" fill-rule="nonzero" /><path id="973" transform="matrix(1 0 0 -1 0 842)" d="M44.94 420.2L558 420.2L558 421.7L44.94 421.7z" stroke="none" fill="#000000" fill-rule="nonzero" /></g></g></svg>