<svg xmlns="http://www.w3.org/2000/svg" xmlns:xlink="http://www.w3.org/1999/xlink" id="body_54" preserveAspectRatio="xMinYMin meet" viewBox="0 0 793 1123"><defs><clipPath id="1"><path id="" clip-rule="evenodd" transform="matrix(1 0 0 1 0 0)" d="M0 842L0 0L0 0L595 0L595 0L595 842L595 842L0 842z" /></clipPath><clipPath id="2"><path id="" clip-rule="evenodd" transform="matrix(1 0 0 1 0 0)" d="M215.94 96.06L234.54 96.06L234.54 96.06L234.54 113.88L234.54 113.88L215.94 113.88z" /></clipPath><clipPath id="3"><path id="" clip-rule="evenodd" transform="matrix(1 0 0 1 0 0)" d="M0 0.02001953L595.2 0.02001953L595.2 0.02001953L595.2 842L595.2 842L0 842z" /></clipPath><clipPath id="4"><path id="" clip-rule="evenodd" transform="matrix(1 0 0 1 0 0)" d="M216.96 97.02002L233.52 97.02002L233.52 97.02002L233.52 112.86L233.52 112.86L216.96 112.86z" /></clipPath><clipPath id="5"><path id="" clip-rule="evenodd" transform="matrix(1 0 0 1 0 0)" d="M215.94 96.06L234.54 96.06L234.54 96.06L234.54 113.88L234.54 113.88L215.94 113.88z" /></clipPath><clipPath id="6"><path id="" clip-rule="evenodd" transform="matrix(1 0 0 1 0 0)" d="M0 0.02001953L595.2 0.02001953L595.2 0.02001953L595.2 842L595.2 842L0 842z" /></clipPath><clipPath id="7"><path id="" clip-rule="evenodd" transform="matrix(1 0 0 1 0 0)" d="M215.94 130.02L234.54 130.02L234.54 130.02L234.54 147.9L234.54 147.9L215.94 147.9z" /></clipPath><clipPath id="8"><path id="" clip-rule="evenodd" transform="matrix(1 0 0 1 0 0)" d="M0 0.02001953L595.2 0.02001953L595.2 0.02001953L595.2 842L595.2 842L0 842z" /></clipPath><clipPath id="9"><path id="" clip-rule="evenodd" transform="matrix(1 0 0 1 0 0)" d="M216.96 131.04L233.52 131.04L233.52 131.04L233.52 146.88L233.52 146.88L216.96 146.88z" /></clipPath><clipPath id="10"><path id="" clip-rule="evenodd" transform="matrix(1 0 0 1 0 0)" d="M215.94 130.02L234.54 130.02L234.54 130.02L234.54 147.9L234.54 147.9L215.94 147.9z" /></clipPath><clipPath id="11"><path id="" clip-rule="evenodd" transform="matrix(1 0 0 1 0 0)" d="M0 0.02001953L595.2 0.02001953L595.2 0.02001953L595.2 842L595.2 842L0 842z" /></clipPath><clipPath id="12"><path id="" clip-rule="evenodd" transform="matrix(1 0 0 1 0 0)" d="M215.94 164.04L234.54 164.04L234.54 164.04L234.54 181.92L234.54 181.92L215.94 181.92z" /></clipPath><clipPath id="13"><path id="" clip-rule="evenodd" transform="matrix(1 0 0 1 0 0)" d="M0 0.02001953L595.2 0.02001953L595.2 0.02001953L595.2 842L595.2 842L0 842z" /></clipPath><clipPath id="14"><path id="" clip-rule="evenodd" transform="matrix(1 0 0 1 0 0)" d="M216.96 165.06L233.52 165.06L233.52 165.06L233.52 180.9L233.52 180.9L216.96 180.9z" /></clipPath><clipPath id="15"><path id="" clip-rule="evenodd" transform="matrix(1 0 0 1 0 0)" d="M215.94 164.04L234.54 164.04L234.54 164.04L234.54 181.92L234.54 181.92L215.94 181.92z" /></clipPath><clipPath id="16"><path id="" clip-rule="evenodd" transform="matrix(1 0 0 1 0 0)" d="M0 0.02001953L595.2 0.02001953L595.2 0.02001953L595.2 842L595.2 842L0 842z" /></clipPath><clipPath id="17"><path id="" clip-rule="evenodd" transform="matrix(1 0 0 1 0 0)" d="M215.94 191.88L234.54 191.88L234.54 191.88L234.54 209.76L234.54 209.76L215.94 209.76z" /></clipPath><clipPath id="18"><path id="" clip-rule="evenodd" transform="matrix(1 0 0 1 0 0)" d="M0 0.02001953L595.2 0.02001953L595.2 0.02001953L595.2 842L595.2 842L0 842z" /></clipPath><clipPath id="19"><path id="" clip-rule="evenodd" transform="matrix(1 0 0 1 0 0)" d="M216.96 192.9L233.52 192.9L233.52 192.9L233.52 208.7401L233.52 208.7401L216.96 208.7401z" /></clipPath><clipPath id="20"><path id="" clip-rule="evenodd" transform="matrix(1 0 0 1 0 0)" d="M215.94 191.88L234.54 191.88L234.54 191.88L234.54 209.76L234.54 209.76L215.94 209.76z" /></clipPath><clipPath id="21"><path id="" clip-rule="evenodd" transform="matrix(1 0 0 1 0 0)" d="M0 0.02001953L595.2 0.02001953L595.2 0.02001953L595.2 842L595.2 842L0 842z" /></clipPath><clipPath id="22"><path id="" clip-rule="evenodd" transform="matrix(1 0 0 1 0 0)" d="M215.94 219.72L234.54 219.72L234.54 219.72L234.54 237.6L234.54 237.6L215.94 237.6z" /></clipPath><clipPath id="23"><path id="" clip-rule="evenodd" transform="matrix(1 0 0 1 0 0)" d="M0 0.02001953L595.2 0.02001953L595.2 0.02001953L595.2 842L595.2 842L0 842z" /></clipPath><clipPath id="24"><path id="" clip-rule="evenodd" transform="matrix(1 0 0 1 0 0)" d="M216.96 220.74L233.52 220.74L233.52 220.74L233.52 236.58L233.52 236.58L216.96 236.58z" /></clipPath><clipPath id="25"><path id="" clip-rule="evenodd" transform="matrix(1 0 0 1 0 0)" d="M215.94 219.72L234.54 219.72L234.54 219.72L234.54 237.6L234.54 237.6L215.94 237.6z" /></clipPath><clipPath id="26"><path id="" clip-rule="evenodd" transform="matrix(1 0 0 1 0 0)" d="M0 0.02001953L595.2 0.02001953L595.2 0.02001953L595.2 842L595.2 842L0 842z" /></clipPath><clipPath id="27"><path id="" clip-rule="evenodd" transform="matrix(1 0 0 1 0 0)" d="M215.94 247.62L234.54 247.62L234.54 247.62L234.54 265.44L234.54 265.44L215.94 265.44z" /></clipPath><clipPath id="28"><path id="" clip-rule="evenodd" transform="matrix(1 0 0 1 0 0)" d="M0 0.02001953L595.2 0.02001953L595.2 0.02001953L595.2 842L595.2 842L0 842z" /></clipPath><clipPath id="29"><path id="" clip-rule="evenodd" transform="matrix(1 0 0 1 0 0)" d="M216.96 248.58L233.52 248.58L233.52 248.58L233.52 264.42L233.52 264.42L216.96 264.42z" /></clipPath><clipPath id="30"><path id="" clip-rule="evenodd" transform="matrix(1 0 0 1 0 0)" d="M215.94 247.62L234.54 247.62L234.54 247.62L234.54 265.44L234.54 265.44L215.94 265.44z" /></clipPath><clipPath id="31"><path id="" clip-rule="evenodd" transform="matrix(1 0 0 1 0 0)" d="M0 0.02001953L595.2 0.02001953L595.2 0.02001953L595.2 842L595.2 842L0 842z" /></clipPath><clipPath id="32"><path id="" clip-rule="evenodd" transform="matrix(1 0 0 1 0 0)" d="M215.94 275.46L234.54 275.46L234.54 275.46L234.54 293.34L234.54 293.34L215.94 293.34z" /></clipPath><clipPath id="33"><path id="" clip-rule="evenodd" transform="matrix(1 0 0 1 0 0)" d="M0 0.02001953L595.2 0.02001953L595.2 0.02001953L595.2 842L595.2 842L0 842z" /></clipPath><clipPath id="34"><path id="" clip-rule="evenodd" transform="matrix(1 0 0 1 0 0)" d="M216.96 276.48L233.52 276.48L233.52 276.48L233.52 292.32L233.52 292.32L216.96 292.32z" /></clipPath><clipPath id="35"><path id="" clip-rule="evenodd" transform="matrix(1 0 0 1 0 0)" d="M215.94 275.46L234.54 275.46L234.54 275.46L234.54 293.34L234.54 293.34L215.94 293.34z" /></clipPath><clipPath id="36"><path id="" clip-rule="evenodd" transform="matrix(1 0 0 1 0 0)" d="M0 0.02001953L595.2 0.02001953L595.2 0.02001953L595.2 842L595.2 842L0 842z" /></clipPath><clipPath id="37"><path id="" clip-rule="evenodd" transform="matrix(1 0 0 1 0 0)" d="M215.94 303.3L234.54 303.3L234.54 303.3L234.54 321.18L234.54 321.18L215.94 321.18z" /></clipPath><clipPath id="38"><path id="" clip-rule="evenodd" transform="matrix(1 0 0 1 0 0)" d="M0 0.02001953L595.2 0.02001953L595.2 0.02001953L595.2 842L595.2 842L0 842z" /></clipPath><clipPath id="39"><path id="" clip-rule="evenodd" transform="matrix(1 0 0 1 0 0)" d="M216.96 304.32L233.52 304.32L233.52 304.32L233.52 320.16L233.52 320.16L216.96 320.16z" /></clipPath><clipPath id="40"><path id="" clip-rule="evenodd" transform="matrix(1 0 0 1 0 0)" d="M215.94 303.3L234.54 303.3L234.54 303.3L234.54 321.18L234.54 321.18L215.94 321.18z" /></clipPath><clipPath id="41"><path id="" clip-rule="evenodd" transform="matrix(1 0 0 1 0 0)" d="M0 0.02001953L595.2 0.02001953L595.2 0.02001953L595.2 842L595.2 842L0 842z" /></clipPath><clipPath id="42"><path id="" clip-rule="evenodd" transform="matrix(1 0 0 1 0 0)" d="M215.94 331.2L234.54 331.2L234.54 331.2L234.54 349.02L234.54 349.02L215.94 349.02z" /></clipPath><clipPath id="43"><path id="" clip-rule="evenodd" transform="matrix(1 0 0 1 0 0)" d="M0 0.02001953L595.2 0.02001953L595.2 0.02001953L595.2 842L595.2 842L0 842z" /></clipPath><clipPath id="44"><path id="" clip-rule="evenodd" transform="matrix(1 0 0 1 0 0)" d="M216.96 332.16L233.52 332.16L233.52 332.16L233.52 348L233.52 348L216.96 348z" /></clipPath><clipPath id="45"><path id="" clip-rule="evenodd" transform="matrix(1 0 0 1 0 0)" d="M215.94 331.2L234.54 331.2L234.54 331.2L234.54 349.02L234.54 349.02L215.94 349.02z" /></clipPath><clipPath id="46"><path id="" clip-rule="evenodd" transform="matrix(1 0 0 1 0 0)" d="M0 0.02001953L595.2 0.02001953L595.2 0.02001953L595.2 842L595.2 842L0 842z" /></clipPath><clipPath id="47"><path id="" clip-rule="evenodd" transform="matrix(1 0 0 1 0 0)" d="M215.94 359.04L234.54 359.04L234.54 359.04L234.54 376.92L234.54 376.92L215.94 376.92z" /></clipPath><clipPath id="48"><path id="" clip-rule="evenodd" transform="matrix(1 0 0 1 0 0)" d="M0 0.02001953L595.2 0.02001953L595.2 0.02001953L595.2 842L595.2 842L0 842z" /></clipPath><clipPath id="49"><path id="" clip-rule="evenodd" transform="matrix(1 0 0 1 0 0)" d="M216.96 360.06L233.52 360.06L233.52 360.06L233.52 375.9L233.52 375.9L216.96 375.9z" /></clipPath><clipPath id="50"><path id="" clip-rule="evenodd" transform="matrix(1 0 0 1 0 0)" d="M215.94 359.04L234.54 359.04L234.54 359.04L234.54 376.92L234.54 376.92L215.94 376.92z" /></clipPath><clipPath id="51"><path id="" clip-rule="evenodd" transform="matrix(1 0 0 1 0 0)" d="M0 0.02001953L595.2 0.02001953L595.2 0.02001953L595.2 842L595.2 842L0 842z" /></clipPath><clipPath id="52"><path id="" clip-rule="evenodd" transform="matrix(1 0 0 1 0 0)" d="M215.94 386.88L234.54 386.88L234.54 386.88L234.54 404.76L234.54 404.76L215.94 404.76z" /></clipPath><clipPath id="53"><path id="" clip-rule="evenodd" transform="matrix(1 0 0 1 0 0)" d="M0 0.02001953L595.2 0.02001953L595.2 0.02001953L595.2 842L595.2 842L0 842z" /></clipPath><clipPath id="54"><path id="" clip-rule="evenodd" transform="matrix(1 0 0 1 0 0)" d="M216.96 387.9L233.52 387.9L233.52 387.9L233.52 403.74L233.52 403.74L216.96 403.74z" /></clipPath><clipPath id="55"><path id="" clip-rule="evenodd" transform="matrix(1 0 0 1 0 0)" d="M215.94 386.88L234.54 386.88L234.54 386.88L234.54 404.76L234.54 404.76L215.94 404.76z" /></clipPath><clipPath id="56"><path id="" clip-rule="evenodd" transform="matrix(1 0 0 1 0 0)" d="M0 0.02001953L595.2 0.02001953L595.2 0.02001953L595.2 842L595.2 842L0 842z" /></clipPath><clipPath id="57"><path id="" clip-rule="evenodd" transform="matrix(1 0 0 1 0 0)" d="M215.94 414.72L234.54 414.72L234.54 414.72L234.54 432.6L234.54 432.6L215.94 432.6z" /></clipPath><clipPath id="58"><path id="" clip-rule="evenodd" transform="matrix(1 0 0 1 0 0)" d="M0 0.02001953L595.2 0.02001953L595.2 0.02001953L595.2 842L595.2 842L0 842z" /></clipPath><clipPath id="59"><path id="" clip-rule="evenodd" transform="matrix(1 0 0 1 0 0)" d="M216.96 415.74L233.52 415.74L233.52 415.74L233.52 431.58L233.52 431.58L216.96 431.58z" /></clipPath><clipPath id="60"><path id="" clip-rule="evenodd" transform="matrix(1 0 0 1 0 0)" d="M215.94 414.72L234.54 414.72L234.54 414.72L234.54 432.6L234.54 432.6L215.94 432.6z" /></clipPath><clipPath id="61"><path id="" clip-rule="evenodd" transform="matrix(1 0 0 1 0 0)" d="M0 0.02001953L595.2 0.02001953L595.2 0.02001953L595.2 842L595.2 842L0 842z" /></clipPath><clipPath id="62"><path id="" clip-rule="evenodd" transform="matrix(1 0 0 1 0 0)" d="M215.94 442.62L234.54 442.62L234.54 442.62L234.54 460.44L234.54 460.44L215.94 460.44z" /></clipPath><clipPath id="63"><path id="" clip-rule="evenodd" transform="matrix(1 0 0 1 0 0)" d="M0 0.02001953L595.2 0.02001953L595.2 0.02001953L595.2 842L595.2 842L0 842z" /></clipPath><clipPath id="64"><path id="" clip-rule="evenodd" transform="matrix(1 0 0 1 0 0)" d="M216.96 443.58L233.52 443.58L233.52 443.58L233.52 459.42L233.52 459.42L216.96 459.42z" /></clipPath><clipPath id="65"><path id="" clip-rule="evenodd" transform="matrix(1 0 0 1 0 0)" d="M215.94 442.62L234.54 442.62L234.54 442.62L234.54 460.44L234.54 460.44L215.94 460.44z" /></clipPath><clipPath id="66"><path id="" clip-rule="evenodd" transform="matrix(1 0 0 1 0 0)" d="M0 0.02001953L595.2 0.02001953L595.2 0.02001953L595.2 842L595.2 842L0 842z" /></clipPath></defs><g transform="matrix(1.333333 0 0 1.333333 0 0)"><g clip-path="url(#1)"><path id="567" transform="matrix(1 0 0 -1 0 842)" d="M215.94 751.94L262.02 751.94L262.02 769.94L215.94 769.94z" stroke="none" fill="#C4DFF7" fill-rule="nonzero" /><path id="574" transform="matrix(1 0 0 -1 0 842)" d="M262.02 751.94L549 751.94L549 769.94L262.02 769.94z" stroke="none" fill="#C4DFF7" fill-rule="nonzero" /><path id="586" transform="matrix(1 0 0 -1 0 842)" d="M215.94 717.74L549 717.74L549 718.22L215.94 718.22z" stroke="none" fill="#000000" fill-rule="nonzero" /><path id="587" transform="matrix(1 0 0 -1 0 842)" d="M215.94 683.72L549 683.72L549 684.2L215.94 684.2z" stroke="none" fill="#000000" fill-rule="nonzero" /><path id="588" transform="matrix(1 0 0 -1 0 842)" d="M215.94 655.88L549 655.88L549 656.36L215.94 656.36z" stroke="none" fill="#000000" fill-rule="nonzero" /><path id="589" transform="matrix(1 0 0 -1 0 842)" d="M215.94 628.04L549 628.04L549 628.52L215.94 628.52z" stroke="none" fill="#000000" fill-rule="nonzero" /><path id="590" transform="matrix(1 0 0 -1 0 842)" d="M215.94 600.14L549 600.14L549 600.62L215.94 600.62z" stroke="none" fill="#000000" fill-rule="nonzero" /><path id="591" transform="matrix(1 0 0 -1 0 842)" d="M215.94 572.3L549 572.3L549 572.78L215.94 572.78z" stroke="none" fill="#000000" fill-rule="nonzero" /><path id="592" transform="matrix(1 0 0 -1 0 842)" d="M215.94 544.46L549 544.46L549 544.94L215.94 544.94z" stroke="none" fill="#000000" fill-rule="nonzero" /><path id="593" transform="matrix(1 0 0 -1 0 842)" d="M215.94 516.56L549 516.56L549 517.04L215.94 517.04z" stroke="none" fill="#000000" fill-rule="nonzero" /><path id="594" transform="matrix(1 0 0 -1 0 842)" d="M215.94 488.72L549 488.72L549 489.2L215.94 489.2z" stroke="none" fill="#000000" fill-rule="nonzero" /><path id="595" transform="matrix(1 0 0 -1 0 842)" d="M215.94 460.88L549 460.88L549 461.36L215.94 461.36z" stroke="none" fill="#000000" fill-rule="nonzero" /><path id="596" transform="matrix(1 0 0 -1 0 842)" d="M215.94 433.04L549 433.04L549 433.52L215.94 433.52z" stroke="none" fill="#000000" fill-rule="nonzero" /><path id="597" transform="matrix(1 0 0 -1 0 842)" d="M215.94 405.14L549 405.14L549 405.62L215.94 405.62z" stroke="none" fill="#000000" fill-rule="nonzero" /><path id="598" transform="matrix(1 0 0 -1 0 842)" d="M215.94 376.76L549 376.76L549 378.26L215.94 378.26z" stroke="none" fill="#000000" fill-rule="nonzero" /><g clip-path="url(#2)"><g clip-path="url(#3)"><path id="599" transform="matrix(1 0 0 -1 0 842)" d="M216.96 729.14L233.52 729.14L233.52 744.98L216.96 744.98z" stroke="none" fill="#FFFFFF" fill-rule="nonzero" /></g></g><g clip-path="url(#4)"><g clip-path="url(#5)"><g clip-path="url(#6)"><g transform="matrix(0.48 0 0 0.48 216.96 97.01996)"><g transform="matrix(1 0 0 1 0 0)"><image x="0" y="0" xlink:href="img_127.png" width="35" height="33" /></g></g></g></g></g><g clip-path="url(#7)"><g clip-path="url(#8)"><path id="601" transform="matrix(1 0 0 -1 0 842)" d="M216.96 695.12L233.52 695.12L233.52 710.96L216.96 710.96z" stroke="none" fill="#FFFFFF" fill-rule="nonzero" /></g></g><g clip-path="url(#9)"><g clip-path="url(#10)"><g clip-path="url(#11)"><g transform="matrix(0.48 0 0 0.48 216.96 131.04)"><g transform="matrix(1 0 0 1 0 0)"><image x="0" y="0" xlink:href="img_105.png" width="35" height="33" /></g></g></g></g></g><g clip-path="url(#12)"><g clip-path="url(#13)"><path id="603" transform="matrix(1 0 0 -1 0 842)" d="M216.96 661.1L233.52 661.1L233.52 676.94L216.96 676.94z" stroke="none" fill="#FFFFFF" fill-rule="nonzero" /></g></g><g clip-path="url(#14)"><g clip-path="url(#15)"><g clip-path="url(#16)"><g transform="matrix(0.48 0 0 0.48 216.96 165.06)"><g transform="matrix(1 0 0 1 0 0)"><image x="0" y="0" xlink:href="img_114.png" width="35" height="33" /></g></g></g></g></g><g clip-path="url(#17)"><g clip-path="url(#18)"><path id="605" transform="matrix(1 0 0 -1 0 842)" d="M216.96 633.26L233.52 633.26L233.52 649.1L216.96 649.1z" stroke="none" fill="#FFFFFF" fill-rule="nonzero" /></g></g><g clip-path="url(#19)"><g clip-path="url(#20)"><g clip-path="url(#21)"><g transform="matrix(0.48 0 0 0.48 216.96 192.9)"><g transform="matrix(1 0 0 1 0 0)"><image x="0" y="0" xlink:href="img_128.png" width="35" height="33" /></g></g></g></g></g><g clip-path="url(#22)"><g clip-path="url(#23)"><path id="607" transform="matrix(1 0 0 -1 0 842)" d="M216.96 605.42L233.52 605.42L233.52 621.26L216.96 621.26z" stroke="none" fill="#FFFFFF" fill-rule="nonzero" /></g></g><g clip-path="url(#24)"><g clip-path="url(#25)"><g clip-path="url(#26)"><g transform="matrix(0.48 0 0 0.48 216.96 220.74)"><g transform="matrix(1 0 0 1 0 0)"><image x="0" y="0" xlink:href="img_129.png" width="35" height="33" /></g></g></g></g></g><g clip-path="url(#27)"><g clip-path="url(#28)"><path id="609" transform="matrix(1 0 0 -1 0 842)" d="M216.96 577.58L233.52 577.58L233.52 593.42L216.96 593.42z" stroke="none" fill="#FFFFFF" fill-rule="nonzero" /></g></g><g clip-path="url(#29)"><g clip-path="url(#30)"><g clip-path="url(#31)"><g transform="matrix(0.48 0 0 0.48 216.96 248.58)"><g transform="matrix(1 0 0 1 0 0)"><image x="0" y="0" xlink:href="img_95.png" width="35" height="33" /></g></g></g></g></g><g clip-path="url(#32)"><g clip-path="url(#33)"><path id="611" transform="matrix(1 0 0 -1 0 842)" d="M216.96 549.68L233.52 549.68L233.52 565.52L216.96 565.52z" stroke="none" fill="#FFFFFF" fill-rule="nonzero" /></g></g><g clip-path="url(#34)"><g clip-path="url(#35)"><g clip-path="url(#36)"><g transform="matrix(0.48 0 0 0.48 216.96 276.48)"><g transform="matrix(1 0 0 1 0 0)"><image x="0" y="0" xlink:href="img_130.png" width="35" height="33" /></g></g></g></g></g><g clip-path="url(#37)"><g clip-path="url(#38)"><path id="613" transform="matrix(1 0 0 -1 0 842)" d="M216.96 521.84L233.52 521.84L233.52 537.6801L216.96 537.6801z" stroke="none" fill="#FFFFFF" fill-rule="nonzero" /></g></g><g clip-path="url(#39)"><g clip-path="url(#40)"><g clip-path="url(#41)"><g transform="matrix(0.48 0 0 0.48 216.96 304.3199)"><g transform="matrix(1 0 0 1 0 0)"><image x="0" y="0" xlink:href="img_96.png" width="35" height="33" /></g></g></g></g></g><g clip-path="url(#42)"><g clip-path="url(#43)"><path id="615" transform="matrix(1 0 0 -1 0 842)" d="M216.96 494L233.52 494L233.52 509.84L216.96 509.84z" stroke="none" fill="#FFFFFF" fill-rule="nonzero" /></g></g><g clip-path="url(#44)"><g clip-path="url(#45)"><g clip-path="url(#46)"><g transform="matrix(0.48 0 0 0.48 216.96 332.16)"><g transform="matrix(1 0 0 1 0 0)"><image x="0" y="0" xlink:href="img_131.png" width="35" height="33" /></g></g></g></g></g><g clip-path="url(#47)"><g clip-path="url(#48)"><path id="617" transform="matrix(1 0 0 -1 0 842)" d="M216.96 466.1L233.52 466.1L233.52 481.94L216.96 481.94z" stroke="none" fill="#FFFFFF" fill-rule="nonzero" /></g></g><g clip-path="url(#49)"><g clip-path="url(#50)"><g clip-path="url(#51)"><g transform="matrix(0.48 0 0 0.48 216.96 360.06)"><g transform="matrix(1 0 0 1 0 0)"><image x="0" y="0" xlink:href="img_132.png" width="35" height="33" /></g></g></g></g></g><g clip-path="url(#52)"><g clip-path="url(#53)"><path id="619" transform="matrix(1 0 0 -1 0 842)" d="M216.96 438.26L233.52 438.26L233.52 454.1L216.96 454.1z" stroke="none" fill="#FFFFFF" fill-rule="nonzero" /></g></g><g clip-path="url(#54)"><g clip-path="url(#55)"><g clip-path="url(#56)"><g transform="matrix(0.48 0 0 0.48 216.96 387.9)"><g transform="matrix(1 0 0 1 0 0)"><image x="0" y="0" xlink:href="img_133.png" width="35" height="33" /></g></g></g></g></g><g clip-path="url(#57)"><g clip-path="url(#58)"><path id="621" transform="matrix(1 0 0 -1 0 842)" d="M216.96 410.42L233.52 410.42L233.52 426.26L216.96 426.26z" stroke="none" fill="#FFFFFF" fill-rule="nonzero" /></g></g><g clip-path="url(#59)"><g clip-path="url(#60)"><g clip-path="url(#61)"><g transform="matrix(0.48 0 0 0.48 216.96 415.74)"><g transform="matrix(1 0 0 1 0 0)"><image x="0" y="0" xlink:href="img_134.png" width="35" height="33" /></g></g></g></g></g><g clip-path="url(#62)"><g clip-path="url(#63)"><path id="623" transform="matrix(1 0 0 -1 0 842)" d="M216.96 382.58L233.52 382.58L233.52 398.42L216.96 398.42z" stroke="none" fill="#FFFFFF" fill-rule="nonzero" /></g></g><g clip-path="url(#64)"><g clip-path="url(#65)"><g clip-path="url(#66)"><g transform="matrix(0.48 0 0 0.48 216.96 443.58)"><g transform="matrix(1 0 0 1 0 0)"><image x="0" y="0" xlink:href="img_122.png" width="35" height="33" /></g></g></g></g></g></g></g></svg>