<svg xmlns="http://www.w3.org/2000/svg" xmlns:xlink="http://www.w3.org/1999/xlink" id="body_214" preserveAspectRatio="xMinYMin meet" viewBox="0 0 793 1123"><defs><clipPath id="1"><path id="" clip-rule="evenodd" transform="matrix(1 0 0 1 0 0)" d="M0 842L0 0L0 0L595 0L595 0L595 842L595 842L0 842z" /></clipPath><clipPath id="2"><path id="" clip-rule="evenodd" transform="matrix(1 0 0 1 0 0)" d="M369.66 165.54L398.1 165.54L398.1 165.54L398.1 185.04L398.1 185.04L369.66 185.04z" /></clipPath><clipPath id="3"><path id="" clip-rule="evenodd" transform="matrix(1 0 0 1 0 0)" d="M0 0.02001953L595.2 0.02001953L595.2 0.02001953L595.2 842L595.2 842L0 842z" /></clipPath><clipPath id="4"><path id="" clip-rule="evenodd" transform="matrix(1 0 0 1 0 0)" d="M370.68 166.5L397.08 166.5L397.08 166.5L397.08 184.02L397.08 184.02L370.68 184.02z" /></clipPath><clipPath id="5"><path id="" clip-rule="evenodd" transform="matrix(1 0 0 1 0 0)" d="M369.66 165.54L398.1 165.54L398.1 165.54L398.1 185.04L398.1 185.04L369.66 185.04z" /></clipPath><clipPath id="6"><path id="" clip-rule="evenodd" transform="matrix(1 0 0 1 0 0)" d="M0 0.02001953L595.2 0.02001953L595.2 0.02001953L595.2 842L595.2 842L0 842z" /></clipPath><clipPath id="7"><path id="" clip-rule="evenodd" transform="matrix(1 0 0 1 0 0)" d="M215.94 292.02L543.18 292.02L543.18 292.02L543.18 639.0601L543.18 639.0601L215.94 639.0601z" /></clipPath><clipPath id="8"><path id="" clip-rule="evenodd" transform="matrix(1 0 0 1 0 0)" d="M0 0.02001953L595.2 0.02001953L595.2 0.02001953L595.2 842L595.2 842L0 842z" /></clipPath><clipPath id="9"><path id="" clip-rule="evenodd" transform="matrix(1 0 0 1 0 0)" d="M216.96 293.04L542.16 293.04L542.16 293.04L542.16 638.04L542.16 638.04L216.96 638.04z" /></clipPath><clipPath id="10"><path id="" clip-rule="evenodd" transform="matrix(1 0 0 1 0 0)" d="M215.94 292.02L543.18 292.02L543.18 292.02L543.18 639.0601L543.18 639.0601L215.94 639.0601z" /></clipPath><clipPath id="11"><path id="" clip-rule="evenodd" transform="matrix(1 0 0 1 0 0)" d="M0 0.02001953L595.2 0.02001953L595.2 0.02001953L595.2 842L595.2 842L0 842z" /></clipPath></defs><g transform="matrix(1.333333 0 0 1.333333 0 0)"><g clip-path="url(#1)"><g clip-path="url(#2)"><g clip-path="url(#3)"><path id="727" transform="matrix(1 0 0 -1 0 842)" d="M370.68 657.98L397.08 657.98L397.08 675.5L370.68 675.5z" stroke="none" fill="#FFFFFF" fill-rule="nonzero" /></g></g><g clip-path="url(#4)"><g clip-path="url(#5)"><g clip-path="url(#6)"><g transform="matrix(0.48 0 0 0.4735135 370.68 166.5)"><g transform="matrix(1 0 0 1 0 0)"><image x="0" y="0" xlink:href="img_152.png" width="55" height="37" /></g></g></g></g></g><g clip-path="url(#7)"><g clip-path="url(#8)"><path id="729" transform="matrix(1 0 0 -1 0 842)" d="M216.96 203.96L542.16 203.96L542.16 548.96L216.96 548.96z" stroke="none" fill="#FFFFFF" fill-rule="nonzero" /></g></g><g clip-path="url(#9)"><g clip-path="url(#10)"><g clip-path="url(#11)"><g transform="matrix(0.4803171 0 0 0.4798331 216.96 293.04)"><g transform="matrix(1 0 0 1 0 0)"><image x="0" y="0" xlink:href="img_150.png" width="678" height="719" /></g></g></g></g></g></g></g></svg>