<svg xmlns="http://www.w3.org/2000/svg" xmlns:xlink="http://www.w3.org/1999/xlink" id="body_199" preserveAspectRatio="xMinYMin meet" viewBox="0 0 793 1123"><defs><clipPath id="1"><path id="" clip-rule="evenodd" transform="matrix(1 0 0 1 0 0)" d="M0 842L0 0L0 0L595 0L595 0L595 842L595 842L0 842z" /></clipPath><clipPath id="2"><path id="" clip-rule="evenodd" transform="matrix(1 0 0 1 0 0)" d="M438.72 72.06L452.46 72.06L452.46 72.06L452.46 84.12L452.46 84.12L438.72 84.12z" /></clipPath><clipPath id="3"><path id="" clip-rule="evenodd" transform="matrix(1 0 0 1 0 0)" d="M0 0.02001953L595.2 0.02001953L595.2 0.02001953L595.2 842L595.2 842L0 842z" /></clipPath><clipPath id="4"><path id="" clip-rule="evenodd" transform="matrix(1 0 0 1 0 0)" d="M439.68 73.02002L451.44 73.02002L451.44 73.02002L451.44 83.10004L451.44 83.10004L439.68 83.10004z" /></clipPath><clipPath id="5"><path id="" clip-rule="evenodd" transform="matrix(1 0 0 1 0 0)" d="M438.72 72.06L452.46 72.06L452.46 72.06L452.46 84.12L452.46 84.12L438.72 84.12z" /></clipPath><clipPath id="6"><path id="" clip-rule="evenodd" transform="matrix(1 0 0 1 0 0)" d="M0 0.02001953L595.2 0.02001953L595.2 0.02001953L595.2 842L595.2 842L0 842z" /></clipPath><clipPath id="7"><path id="" clip-rule="evenodd" transform="matrix(1 0 0 1 0 0)" d="M35.94 103.98L549.96 103.98L549.96 103.98L549.96 232.86L549.96 232.86L35.94 232.86z" /></clipPath><clipPath id="8"><path id="" clip-rule="evenodd" transform="matrix(1 0 0 1 0 0)" d="M0 0.02001953L595.2 0.02001953L595.2 0.02001953L595.2 842L595.2 842L0 842z" /></clipPath><clipPath id="9"><path id="" clip-rule="evenodd" transform="matrix(1 0 0 1 0 0)" d="M36.96 105L188.88 105L188.88 105L188.88 204.6L188.88 204.6L36.96 204.6z" /></clipPath><clipPath id="10"><path id="" clip-rule="evenodd" transform="matrix(1 0 0 1 0 0)" d="M35.94 103.98L549.96 103.98L549.96 103.98L549.96 232.86L549.96 232.86L35.94 232.86z" /></clipPath><clipPath id="11"><path id="" clip-rule="evenodd" transform="matrix(1 0 0 1 0 0)" d="M0 0.02001953L595.2 0.02001953L595.2 0.02001953L595.2 842L595.2 842L0 842z" /></clipPath><clipPath id="12"><path id="" clip-rule="evenodd" transform="matrix(1 0 0 1 0 0)" d="M35.94 103.98L549.96 103.98L549.96 103.98L549.96 232.86L549.96 232.86L35.94 232.86z" /></clipPath><clipPath id="13"><path id="" clip-rule="evenodd" transform="matrix(1 0 0 1 0 0)" d="M0 0.02001953L595.2 0.02001953L595.2 0.02001953L595.2 842L595.2 842L0 842z" /></clipPath><clipPath id="14"><path id="" clip-rule="evenodd" transform="matrix(1 0 0 1 0 0)" d="M193.8 105L549 105L549 105L549 231.84L549 231.84L193.8 231.84z" /></clipPath><clipPath id="15"><path id="" clip-rule="evenodd" transform="matrix(1 0 0 1 0 0)" d="M35.94 103.98L549.96 103.98L549.96 103.98L549.96 232.86L549.96 232.86L35.94 232.86z" /></clipPath><clipPath id="16"><path id="" clip-rule="evenodd" transform="matrix(1 0 0 1 0 0)" d="M0 0.02001953L595.2 0.02001953L595.2 0.02001953L595.2 842L595.2 842L0 842z" /></clipPath><clipPath id="17"><path id="" clip-rule="evenodd" transform="matrix(1 0 0 1 0 0)" d="M279.54 290.76L298.08 290.76L298.08 290.76L298.08 308.58L298.08 308.58L279.54 308.58z" /></clipPath><clipPath id="18"><path id="" clip-rule="evenodd" transform="matrix(1 0 0 1 0 0)" d="M0 0.02001953L595.2 0.02001953L595.2 0.02001953L595.2 842L595.2 842L0 842z" /></clipPath><clipPath id="19"><path id="" clip-rule="evenodd" transform="matrix(1 0 0 1 0 0)" d="M280.56 291.72L297.12 291.72L297.12 291.72L297.12 307.56L297.12 307.56L280.56 307.56z" /></clipPath><clipPath id="20"><path id="" clip-rule="evenodd" transform="matrix(1 0 0 1 0 0)" d="M279.54 290.76L298.08 290.76L298.08 290.76L298.08 308.58L298.08 308.58L279.54 308.58z" /></clipPath><clipPath id="21"><path id="" clip-rule="evenodd" transform="matrix(1 0 0 1 0 0)" d="M0 0.02001953L595.2 0.02001953L595.2 0.02001953L595.2 842L595.2 842L0 842z" /></clipPath><clipPath id="22"><path id="" clip-rule="evenodd" transform="matrix(1 0 0 1 0 0)" d="M279.54 425.76L298.08 425.76L298.08 425.76L298.08 443.58L298.08 443.58L279.54 443.58z" /></clipPath><clipPath id="23"><path id="" clip-rule="evenodd" transform="matrix(1 0 0 1 0 0)" d="M0 0.02001953L595.2 0.02001953L595.2 0.02001953L595.2 842L595.2 842L0 842z" /></clipPath><clipPath id="24"><path id="" clip-rule="evenodd" transform="matrix(1 0 0 1 0 0)" d="M280.56 426.78L297.12 426.78L297.12 426.78L297.12 442.62L297.12 442.62L280.56 442.62z" /></clipPath><clipPath id="25"><path id="" clip-rule="evenodd" transform="matrix(1 0 0 1 0 0)" d="M279.54 425.76L298.08 425.76L298.08 425.76L298.08 443.58L298.08 443.58L279.54 443.58z" /></clipPath><clipPath id="26"><path id="" clip-rule="evenodd" transform="matrix(1 0 0 1 0 0)" d="M0 0.02001953L595.2 0.02001953L595.2 0.02001953L595.2 842L595.2 842L0 842z" /></clipPath><clipPath id="27"><path id="" clip-rule="evenodd" transform="matrix(1 0 0 1 0 0)" d="M279.54 684.78L298.08 684.78L298.08 684.78L298.08 702.6L298.08 702.6L279.54 702.6z" /></clipPath><clipPath id="28"><path id="" clip-rule="evenodd" transform="matrix(1 0 0 1 0 0)" d="M0 0.02001953L595.2 0.02001953L595.2 0.02001953L595.2 842L595.2 842L0 842z" /></clipPath><clipPath id="29"><path id="" clip-rule="evenodd" transform="matrix(1 0 0 1 0 0)" d="M280.56 685.74L297.12 685.74L297.12 685.74L297.12 701.58L297.12 701.58L280.56 701.58z" /></clipPath><clipPath id="30"><path id="" clip-rule="evenodd" transform="matrix(1 0 0 1 0 0)" d="M279.54 684.78L298.08 684.78L298.08 684.78L298.08 702.6L298.08 702.6L279.54 702.6z" /></clipPath><clipPath id="31"><path id="" clip-rule="evenodd" transform="matrix(1 0 0 1 0 0)" d="M0 0.02001953L595.2 0.02001953L595.2 0.02001953L595.2 842L595.2 842L0 842z" /></clipPath></defs><g transform="matrix(1.333333 0 0 1.333333 0 0)"><g clip-path="url(#1)"><g clip-path="url(#2)"><g clip-path="url(#3)"><path id="980" transform="matrix(1 0 0 -1 0 842)" d="M439.68 758.9L451.44 758.9L451.44 768.98L439.68 768.98z" stroke="none" fill="#FFFFFF" fill-rule="nonzero" /></g></g><g clip-path="url(#4)"><g clip-path="url(#5)"><g clip-path="url(#6)"><g transform="matrix(0.48 0 0 0.48 439.68 73.01996)"><g transform="matrix(1 0 0 1 0 0)"><image x="0" y="0" xlink:href="img_490.png" width="25" height="21" /></g></g></g></g></g><g clip-path="url(#7)"><g clip-path="url(#8)"><path id="1015" transform="matrix(1 0 0 -1 0 842)" d="M36.96 637.4L188.88 637.4L188.88 737L36.96 737z" stroke="none" fill="#FFFFFF" fill-rule="nonzero" /></g></g><g clip-path="url(#9)"><g clip-path="url(#10)"><g clip-path="url(#11)"><g transform="matrix(0.48 0 0 0.4788462 36.96 105)"><g transform="matrix(1 0 0 1 0 0)"><image x="0" y="0" xlink:href="img_494.png" width="317" height="208" /></g></g></g></g></g><g clip-path="url(#12)"><g clip-path="url(#13)"><path id="1017" transform="matrix(1 0 0 -1 0 842)" d="M193.8 737L549 737L549 610.16L193.8 610.16" stroke="none" fill="#FFFFFF" fill-rule="nonzero" /></g></g><g clip-path="url(#14)"><g clip-path="url(#15)"><g clip-path="url(#16)"><g transform="matrix(0.4797598 0 0 0.4786415 193.8 105)"><g transform="matrix(1 0 0 1 0 0)"><image x="0" y="0" xlink:href="img_495.png" width="741" height="265" /></g></g></g></g></g><g clip-path="url(#17)"><g clip-path="url(#18)"><path id="1019" transform="matrix(1 0 0 -1 0 842)" d="M280.56 534.44L297.12 534.44L297.12 550.28L280.56 550.28z" stroke="none" fill="#FFFFFF" fill-rule="nonzero" /></g></g><g clip-path="url(#19)"><g clip-path="url(#20)"><g clip-path="url(#21)"><g transform="matrix(0.48 0 0 0.48 280.56 291.72)"><g transform="matrix(1 0 0 1 0 0)"><image x="0" y="0" xlink:href="img_129.png" width="35" height="33" /></g></g></g></g></g><g clip-path="url(#22)"><g clip-path="url(#23)"><path id="1021" transform="matrix(1 0 0 -1 0 842)" d="M280.56 399.38L297.12 399.38L297.12 415.22L280.56 415.22z" stroke="none" fill="#FFFFFF" fill-rule="nonzero" /></g></g><g clip-path="url(#24)"><g clip-path="url(#25)"><g clip-path="url(#26)"><g transform="matrix(0.48 0 0 0.48 280.56 426.78)"><g transform="matrix(1 0 0 1 0 0)"><image x="0" y="0" xlink:href="img_129.png" width="35" height="33" /></g></g></g></g></g><g clip-path="url(#27)"><g clip-path="url(#28)"><path id="1023" transform="matrix(1 0 0 -1 0 842)" d="M280.56 140.42L297.12 140.42L297.12 156.26L280.56 156.26z" stroke="none" fill="#FFFFFF" fill-rule="nonzero" /></g></g><g clip-path="url(#29)"><g clip-path="url(#30)"><g clip-path="url(#31)"><g transform="matrix(0.48 0 0 0.48 280.56 685.74)"><g transform="matrix(1 0 0 1 0 0)"><image x="0" y="0" xlink:href="img_128.png" width="35" height="33" /></g></g></g></g></g></g></g></svg>