<svg xmlns="http://www.w3.org/2000/svg" xmlns:xlink="http://www.w3.org/1999/xlink" id="body_227" preserveAspectRatio="xMinYMin meet" viewBox="0 0 793 1123"><defs><clipPath id="1"><path id="" clip-rule="evenodd" transform="matrix(1 0 0 1 0 0)" d="M0 842L0 0L0 0L595 0L595 0L595 842L595 842L0 842z" /></clipPath></defs><g transform="matrix(1.333333 0 0 1.333333 0 0)"><g clip-path="url(#1)"><path id="357" transform="matrix(1 0 0 -1 0 842)" d="M224.94 568.94L233.94 568.94L233.94 588.98L224.94 588.98z" stroke="none" fill="#C4DFF7" fill-rule="nonzero" /><path id="358" transform="matrix(1 0 0 -1 0 842)" d="M233.94 588.98L563.4 588.98L563.4 568.94L233.94 568.94" stroke="none" fill="#EAEAEA" fill-rule="nonzero" /><path id="367" transform="matrix(1 0 0 -1 0 842)" d="M224.94 280.94L233.94 280.94L233.94 568.94L224.94 568.94z" stroke="none" fill="#C4DFF7" fill-rule="nonzero" /><path id="368" transform="matrix(1 0 0 -1 0 842)" d="M233.94 568.94L563.4 568.94L563.4 280.94L233.94 280.94" stroke="none" fill="#EAEAEA" fill-rule="nonzero" /></g></g></svg>