<svg xmlns="http://www.w3.org/2000/svg" xmlns:xlink="http://www.w3.org/1999/xlink" id="body_129" preserveAspectRatio="xMinYMin meet" viewBox="0 0 1123 793"><defs><clipPath id="1"><path id="" clip-rule="evenodd" transform="matrix(1 0 0 1 0 0)" d="M0 0L842 0L842 0L842 595L842 595L3.643325E-14 595L3.643325E-14 595L0 0z" /></clipPath></defs><g transform="matrix(1.333333 0 0 1.333333 0 0)"><g clip-path="url(#1)"><path id="698" transform="matrix(1 0 0 -1 0 595)" d="M78.951 506.14L78.951 505.66L762.951 505.66L762.951 506.14z" stroke="none" fill="#000000" fill-rule="nonzero" /><path id="699" transform="matrix(1 0 0 -1 0 595)" d="M78.951 488.14L78.951 487.66L762.951 487.66L762.951 488.14z" stroke="none" fill="#000000" fill-rule="nonzero" /><path id="700" transform="matrix(1 0 0 -1 0 595)" d="M78.951 470.14L78.951 469.66L762.951 469.66L762.951 470.14z" stroke="none" fill="#000000" fill-rule="nonzero" /><path id="701" transform="matrix(1 0 0 -1 0 595)" d="M78.951 452.14L78.951 451.66L762.951 451.66L762.951 452.14z" stroke="none" fill="#000000" fill-rule="nonzero" /><path id="702" transform="matrix(1 0 0 -1 0 595)" d="M78.951 410.14L78.951 409.66L762.951 409.66L762.951 410.14z" stroke="none" fill="#000000" fill-rule="nonzero" /><path id="703" transform="matrix(1 0 0 -1 0 595)" d="M78.951 392.14L78.951 391.66L762.951 391.66L762.951 392.14z" stroke="none" fill="#000000" fill-rule="nonzero" /><path id="704" transform="matrix(1 0 0 -1 0 595)" d="M78.951 374.14L78.951 373.66L762.951 373.66L762.951 374.14z" stroke="none" fill="#000000" fill-rule="nonzero" /><path id="705" transform="matrix(1 0 0 -1 0 595)" d="M78.951 356.14L78.951 355.66L762.951 355.66L762.951 356.14z" stroke="none" fill="#000000" fill-rule="nonzero" /><path id="706" transform="matrix(1 0 0 -1 0 595)" d="M78.951 314.14L78.951 313.66L762.951 313.66L762.951 314.14z" stroke="none" fill="#000000" fill-rule="nonzero" /><path id="707" transform="matrix(1 0 0 -1 0 595)" d="M78.951 296.14L78.951 295.66L762.951 295.66L762.951 296.14z" stroke="none" fill="#000000" fill-rule="nonzero" /><path id="708" transform="matrix(1 0 0 -1 0 595)" d="M78.951 266.14L78.951 265.66L762.951 265.66L762.951 266.14z" stroke="none" fill="#000000" fill-rule="nonzero" /><path id="709" transform="matrix(1 0 0 -1 0 595)" d="M78.951 248.14L78.951 247.66L762.951 247.66L762.951 248.14z" stroke="none" fill="#000000" fill-rule="nonzero" /><path id="710" transform="matrix(1 0 0 -1 0 595)" d="M78.951 230.62L78.951 229.12L762.951 229.12L762.951 230.62z" stroke="none" fill="#000000" fill-rule="nonzero" /></g></g></svg>