<svg xmlns="http://www.w3.org/2000/svg" xmlns:xlink="http://www.w3.org/1999/xlink" id="body_154" preserveAspectRatio="xMinYMin meet" viewBox="0 0 793 1123"><defs><clipPath id="1"><path id="" clip-rule="evenodd" transform="matrix(1 0 0 1 0 0)" d="M0 842L0 0L0 0L595 0L595 0L595 842L595 842L0 842z" /></clipPath><clipPath id="2"><path id="" clip-rule="evenodd" transform="matrix(1 0 0 1 0 0)" d="M476.34 203.16L486.54 203.16L486.54 203.16L486.54 214.02L486.54 214.02L476.34 214.02z" /></clipPath><clipPath id="3"><path id="" clip-rule="evenodd" transform="matrix(1 0 0 1 0 0)" d="M0 0.02001953L595.2 0.02001953L595.2 0.02001953L595.2 842L595.2 842L0 842z" /></clipPath><clipPath id="4"><path id="" clip-rule="evenodd" transform="matrix(1 0 0 1 0 0)" d="M477.36 204.18L485.52 204.18L485.52 204.18L485.52 213.06L485.52 213.06L477.36 213.06z" /></clipPath><clipPath id="5"><path id="" clip-rule="evenodd" transform="matrix(1 0 0 1 0 0)" d="M476.34 203.16L486.54 203.16L486.54 203.16L486.54 214.02L486.54 214.02L476.34 214.02z" /></clipPath><clipPath id="6"><path id="" clip-rule="evenodd" transform="matrix(1 0 0 1 0 0)" d="M0 0.02001953L595.2 0.02001953L595.2 0.02001953L595.2 842L595.2 842L0 842z" /></clipPath><clipPath id="7"><path id="" clip-rule="evenodd" transform="matrix(1 0 0 1 0 0)" d="M35.94 274.02L511.26 274.02L511.26 274.02L511.26 467.1L511.26 467.1L35.94 467.1z" /></clipPath><clipPath id="8"><path id="" clip-rule="evenodd" transform="matrix(1 0 0 1 0 0)" d="M0 0.02001953L595.2 0.02001953L595.2 0.02001953L595.2 842L595.2 842L0 842z" /></clipPath><clipPath id="9"><path id="" clip-rule="evenodd" transform="matrix(1 0 0 1 0 0)" d="M36.96 275.04L510.24 275.04L510.24 275.04L510.24 466.08L510.24 466.08L36.96 466.08z" /></clipPath><clipPath id="10"><path id="" clip-rule="evenodd" transform="matrix(1 0 0 1 0 0)" d="M35.94 274.02L511.26 274.02L511.26 274.02L511.26 467.1L511.26 467.1L35.94 467.1z" /></clipPath><clipPath id="11"><path id="" clip-rule="evenodd" transform="matrix(1 0 0 1 0 0)" d="M0 0.02001953L595.2 0.02001953L595.2 0.02001953L595.2 842L595.2 842L0 842z" /></clipPath><clipPath id="12"><path id="" clip-rule="evenodd" transform="matrix(1 0 0 1 0 0)" d="M35.94 274.02L511.26 274.02L511.26 274.02L511.26 467.1L511.26 467.1L35.94 467.1z" /></clipPath><clipPath id="13"><path id="" clip-rule="evenodd" transform="matrix(1 0 0 1 0 0)" d="M0 0.02001953L595.2 0.02001953L595.2 0.02001953L595.2 842L595.2 842L0 842z" /></clipPath></defs><g transform="matrix(1.333333 0 0 1.333333 0 0)"><g clip-path="url(#1)"><g clip-path="url(#2)"><g clip-path="url(#3)"><path id="872" transform="matrix(1 0 0 -1 0 842)" d="M477.36 628.94L485.52 628.94L485.52 637.82L477.36 637.82z" stroke="none" fill="#FFFFFF" fill-rule="nonzero" /></g></g><g clip-path="url(#4)"><g clip-path="url(#5)"><g clip-path="url(#6)"><g transform="matrix(0.48 0 0 0.4673684 477.36 204.18)"><g transform="matrix(1 0 0 1 0 0)"><image x="0" y="0" xlink:href="img_244.png" width="17" height="19" /></g></g></g></g></g><g clip-path="url(#7)"><g clip-path="url(#8)"><path id="907" transform="matrix(1 0 0 -1 0 842)" d="M36.96 375.92L510.24 375.92L510.24 566.96L36.96 566.96z" stroke="none" fill="#FFFFFF" fill-rule="nonzero" /></g></g><g clip-path="url(#9)"><g clip-path="url(#10)"><g clip-path="url(#11)"><g transform="matrix(0.48 0 0 0.48 36.96 275.04)"><g transform="matrix(1 0 0 1 0 0)"><image x="0" y="0" xlink:href="img_385.png" width="986" height="398" /></g></g></g></g></g><g clip-path="url(#12)"><g clip-path="url(#13)"><path id="909" transform="matrix(1 0 0 -1 0 842)" d="M113.16 449.3L112.44 449.24L112.44 449.24L112.5 449.24L112.5 449.24L111.78 449.12L111.78 449.12L111.78 449.18L111.78 449.18L111.06 449L111.06 449L111.12 449L111.12 449L110.46 448.76L110.46 448.76L110.52 448.76L110.52 448.76L109.92 448.46L109.92 448.46L109.98 448.46L109.98 448.46L109.38 448.1L109.38 448.1L109.38 448.16L109.38 448.16L108.84 447.74L108.84 447.74L108.9 447.74L108.9 447.74L108.36 447.26L108.36 447.26L108.42 447.32L108.42 447.32L108 446.84L108 446.84L108 446.9L108 446.9L107.58 446.36L107.58 446.36L107.64 446.36L107.64 446.36L107.28 445.76L107.28 445.76L107.28 445.82L107.28 445.82L106.98 445.16L106.98 445.16L106.98 445.22L106.98 445.22L106.74 444.56L106.74 444.56L106.74 444.62L106.74 444.62L106.56 443.96L106.56 443.96L106.62 443.96L106.62 443.96L106.5 443.24L106.5 443.24L106.5 443.3L106.5 443.3L106.44 442.58L106.44 442.58L106.44 442.64L106.44 442.64L106.44 439.04L106.44 439.04L106.5 438.26L106.5 438.26L106.5 438.32L106.5 438.32L106.62 437.6L106.62 437.6L106.56 437.66L106.56 437.66L106.74 437L106.74 437L106.74 437.06L106.74 437.06L106.98 436.4L106.98 436.4L107.28 435.74L107.28 435.74L107.28 435.8L107.28 435.8L107.64 435.2L107.64 435.2L107.58 435.26L107.58 435.26L108 434.72L108 434.72L108.42 434.24L108.42 434.24L108.36 434.3L108.36 434.3L108.9 433.82L108.9 433.82L108.84 433.82L108.84 433.82L109.38 433.4L109.38 433.4L109.38 433.46L109.38 433.46L109.98 433.1L109.98 433.1L109.92 433.1L109.92 433.1L110.52 432.8L110.52 432.8L110.46 432.86L110.46 432.86L111.12 432.62L111.12 432.62L111.06 432.62L111.06 432.62L111.78 432.44L111.78 432.44L112.5 432.32L112.5 432.32L112.38 432.32L112.38 432.32L162.42 432.32L162.42 432.32L162.36 432.32L162.36 432.32L163.08 432.44L163.08 432.44L163.02 432.44L163.02 432.44L163.74 432.62L163.74 432.62L163.68 432.62L163.68 432.62L164.34 432.86L164.34 432.86L164.28 432.8L164.28 432.8L164.88 433.1L164.88 433.1L165.42 432.2L165.42 432.2L165.36 432.2L165.36 432.2L164.76 431.9L164.76 431.9L164.7 431.9L164.7 431.9L164.04 431.66L164.04 431.66L163.98 431.66L163.98 431.66L163.26 431.48L163.26 431.48L163.26 431.42L163.26 431.42L162.54 431.3L162.54 431.3L112.32 431.3L112.32 431.3L111.6 431.42L111.6 431.42L111.54 431.48L111.54 431.48L110.82 431.66L110.82 431.66L110.76 431.66L110.76 431.66L110.1 431.9L110.1 431.9L110.04 431.9L110.04 431.9L109.44 432.2L109.44 432.2L108.84 432.56L108.84 432.56L108.78 432.62L108.78 432.62L108.24 433.04L108.24 433.04L107.7 433.52L107.7 433.52L107.64 433.58L107.64 433.58L107.22 434.06L107.22 434.06L107.22 434.12L107.22 434.12L106.8 434.66L106.8 434.66L106.74 434.66L106.74 434.66L106.38 435.26L106.38 435.26L106.38 435.32C 105.896 436.241 105.581 437.149 105.48 438.2L105.48 438.2L105.42 438.98L105.42 438.98L105.42 439.04C 105.501 440.971 105.183 442.982 105.78 444.86L105.78 444.86L105.78 444.92L105.78 444.92L106.02 445.58L106.02 445.58L106.08 445.58L106.08 445.58L106.38 446.24L106.38 446.24L106.38 446.3C 106.956 447.341 107.807 448.255 108.78 448.94L108.78 448.94L108.84 449L108.84 449L109.44 449.36C 110.414 449.944 111.208 450.103 112.32 450.26L112.32 450.26L112.38 450.26L112.38 450.26L113.1 450.32" stroke="none" fill="#FF0000" fill-rule="nonzero" /><path id="910" transform="matrix(1 0 0 -1 0 842)" d="M164.88 433.1L165.48 433.46L165.48 433.46L165.42 433.46L165.42 433.46L166.02 433.88L166.02 433.88L165.96 433.82L165.96 433.82L166.92 434.78L166.92 434.78L166.92 434.72L166.92 434.72L167.34 435.26L167.34 435.26L167.28 435.2L167.28 435.2L167.64 435.8L167.64 435.8L167.64 435.74L167.64 435.74L167.94 436.4L167.94 436.4L167.88 436.4L167.88 436.4L168.12 437.06L168.12 437.06L168.12 437L168.12 437L168.3 437.66L168.3 437.66L168.3 437.6L168.3 437.6L168.42 438.32L168.42 438.32L168.42 438.26L168.42 438.26L168.42 443.36L168.42 443.36L168.42 443.24L168.42 443.24L168.3 443.96L168.3 443.96L168.12 444.62L168.12 444.62L168.12 444.56L168.12 444.56L167.88 445.22L167.88 445.22L167.94 445.16L167.94 445.16L167.64 445.82L167.64 445.82L167.64 445.76L167.64 445.76L167.28 446.36L167.28 446.36L167.34 446.36L167.34 446.36L166.92 446.9L166.92 446.9L166.92 446.84L166.92 446.84L165.96 447.8L165.96 447.8L166.02 447.74L166.02 447.74L165.42 448.16L165.42 448.16L165.48 448.1L165.48 448.1L164.88 448.46L164.88 448.46L164.28 448.76L164.28 448.76L164.34 448.76L164.34 448.76L163.68 449L163.68 449L163.74 449L163.74 449L163.02 449.18L163.02 449.18L163.08 449.12L163.08 449.12L162.36 449.24L162.36 449.24L162.42 449.24L162.42 449.24L161.7 449.3L161.7 449.3L113.1 449.3L113.1 449.3L113.16 449.3L113.16 449.3L113.1 450.32L113.1 450.32L161.7 450.32C 163.719 450.272 165.762 449.523 167.16 448.04L167.16 448.04L167.7 447.5C 170.09 444.546 169.341 441.868 169.44 438.26L169.44 438.26L169.44 438.14L169.44 438.14L169.32 437.42L169.32 437.42L169.26 437.42L169.26 437.42L169.08 436.76L169.08 436.76L169.08 436.7L169.08 436.7L168.84 436.04L168.84 436.04L168.84 435.98L168.84 435.98L168.54 435.32L168.54 435.32L168.54 435.26L168.54 435.26L168.18 434.66L168.18 434.66L168.12 434.66C 167.717 434.036 167.124 433.584 166.62 433.04L166.62 433.04L166.02 432.62L166.02 432.62L166.02 432.56L166.02 432.56L165.42 432.2" stroke="none" fill="#FF0000" fill-rule="nonzero" /><path id="911" transform="matrix(1 0 0 -1 0 842)" d="M440.1 500.72L439.32 500.72L439.32 500.72L439.44 500.72L439.44 500.72L438.78 500.6L438.78 500.6L438.78 500.66L438.78 500.66L438.06 500.48L438.06 500.48L438.12 500.48L438.12 500.48L437.46 500.24L437.46 500.24L437.52 500.24L437.52 500.24L436.92 499.94L436.92 499.94L436.98 499.94L436.98 499.94L436.38 499.58L436.38 499.58L436.38 499.64L436.38 499.64L435.78 499.22L435.78 499.22L435.84 499.28L435.84 499.28L434.88 498.32L434.88 498.32L434.94 498.38L434.94 498.38L434.52 497.84L434.52 497.84L434.58 497.84L434.58 497.84L434.22 497.24L434.22 497.24L434.22 497.3L434.22 497.3L433.92 496.64L433.92 496.64L433.92 496.7L433.92 496.7L433.68 496.04L433.68 496.04L433.68 496.1L433.68 496.1L433.5 495.44L433.5 495.44L433.56 495.44L433.56 495.44L433.44 494.72L433.44 494.72L433.44 494.84L433.44 494.84L433.44 384.86L433.44 384.86L433.44 384.92L433.44 384.92L433.56 384.2L433.56 384.2L433.5 384.26L433.5 384.26L433.68 383.6L433.68 383.6L433.68 383.66L433.68 383.66L433.92 383L433.92 383L434.22 382.34L434.22 382.34L434.22 382.4L434.22 382.4L434.58 381.8L434.58 381.8L434.52 381.86L434.52 381.86L434.94 381.32L434.94 381.32L434.88 381.38L434.88 381.38L435.84 380.42L435.84 380.42L435.78 380.48L435.78 380.48L436.38 380.06L436.38 380.06L436.98 379.7L436.98 379.7L436.92 379.7L436.92 379.7L437.52 379.4L437.52 379.4L437.46 379.46L437.46 379.46L438.12 379.22L438.12 379.22L438.06 379.22L438.06 379.22L438.78 379.04L438.78 379.04L439.44 378.92L439.44 378.92L439.38 378.92L439.38 378.92L440.16 378.86L440.16 378.86L440.1 378.86L440.1 378.86L479.1 378.86L479.1 378.86L479.82 378.92L479.82 378.92L479.76 378.92L479.76 378.92L480.48 379.04L480.48 379.04L480.42 379.04L480.42 379.04L481.08 379.22L481.08 379.22L481.02 379.22L481.02 379.22L481.68 379.46L481.68 379.46L481.68 379.4L481.68 379.4L482.34 379.7L482.34 379.7L482.28 379.7L482.28 379.7L482.82 378.8L482.82 378.8L482.76 378.8L482.76 378.8L482.1 378.5L482.1 378.5L482.04 378.5L482.04 378.5L481.38 378.26L481.38 378.26L481.32 378.26L481.32 378.26L480.66 378.08L480.66 378.08L480.66 378.02L480.66 378.02L479.94 377.9L479.94 377.9L479.88 377.9L479.88 377.9L479.16 377.84L479.16 377.84L440.1 377.84L440.1 377.84L439.32 377.9L439.32 377.9L439.26 377.9L439.26 377.9L438.6 378.02L438.6 378.02L438.54 378.08L438.54 378.08L437.82 378.26L437.82 378.26L437.76 378.26L437.76 378.26L437.1 378.5L437.1 378.5L437.04 378.5L437.04 378.5L436.44 378.8L436.44 378.8L435.84 379.16L435.84 379.16L435.78 379.22L435.78 379.22L435.18 379.64L435.18 379.64L434.16 380.66L434.16 380.66L434.16 380.72L434.16 380.72L433.74 381.26L433.74 381.26L433.68 381.26L433.68 381.26L433.32 381.86L433.32 381.86L433.32 381.92C 432.831 382.852 432.551 383.677 432.42 384.74L432.42 384.74L432.42 494.9L432.42 494.9L432.54 495.62L432.54 495.62L432.54 495.68L432.54 495.68L432.72 496.34L432.72 496.34L432.72 496.4L432.72 496.4L432.96 497.06L432.96 497.06L433.02 497.06L433.02 497.06L433.32 497.72L433.32 497.72L433.32 497.78C 433.857 498.745 434.384 499.295 435.18 500.06L435.18 500.06L435.78 500.48L435.78 500.48L435.84 500.48C 437.127 501.303 437.777 501.515 439.26 501.74L439.26 501.74L440.1 501.74" stroke="none" fill="#FF0000" fill-rule="nonzero" /><path id="912" transform="matrix(1 0 0 -1 0 842)" d="M482.28 379.7L482.88 380.06L482.88 380.06L482.82 380L482.82 380L483.36 380.42L483.36 380.42L483.9 380.9L483.9 380.9L483.84 380.84L483.84 380.84L484.26 381.32L484.26 381.32L484.68 381.86L484.68 381.86L484.62 381.8L484.62 381.8L484.98 382.4L484.98 382.4L484.98 382.34L484.98 382.34L485.28 383L485.28 383L485.22 383L485.22 383L485.46 383.66L485.46 383.66L485.46 383.6L485.46 383.6L485.64 384.26L485.64 384.26L485.64 384.2L485.64 384.2L485.76 384.92L485.76 384.92L485.76 384.86L485.76 384.86L485.82 385.58L485.82 385.58L485.82 494.06L485.82 494.06L485.82 494L485.82 494L485.76 494.78L485.76 494.78L485.76 494.72L485.76 494.72L485.64 495.44L485.64 495.44L485.46 496.1L485.46 496.1L485.46 496.04L485.46 496.04L485.22 496.7L485.22 496.7L485.28 496.64L485.28 496.64L484.98 497.3L484.98 497.3L484.98 497.24L484.98 497.24L484.62 497.84L484.62 497.84L484.68 497.84L484.68 497.84L484.26 498.38L484.26 498.38L484.26 498.32L484.26 498.32L483.84 498.8L483.84 498.8L483.9 498.74L483.9 498.74L483.36 499.22L483.36 499.22L482.82 499.64L482.82 499.64L482.88 499.58L482.88 499.58L482.28 499.94L482.28 499.94L482.34 499.94L482.34 499.94L481.68 500.24L481.68 500.24L481.02 500.48L481.02 500.48L481.08 500.48L481.08 500.48L480.42 500.66L480.42 500.66L480.48 500.6L480.48 500.6L479.76 500.72L479.76 500.72L479.82 500.72L479.82 500.72L440.1 500.72L440.1 500.72L440.1 501.74L440.1 501.74L479.94 501.74L479.94 501.74L480.66 501.62L480.66 501.62L481.32 501.44L481.32 501.44L481.38 501.44L481.38 501.44L482.04 501.2L482.04 501.2L482.1 501.14L482.1 501.14L482.76 500.84L482.76 500.84L482.82 500.84L482.82 500.84L483.42 500.48L483.42 500.48L483.42 500.42L483.42 500.42L483.96 500L483.96 500L484.02 500L484.02 500L484.56 499.52L484.56 499.52L484.62 499.46L484.62 499.46L485.04 498.98L485.04 498.98L485.46 498.44L485.46 498.44L485.52 498.38L485.52 498.38L485.88 497.78L485.88 497.78L485.88 497.72L485.88 497.72L486.18 497.06L486.18 497.06L486.42 496.4L486.42 496.4L486.42 496.34L486.42 496.34L486.6 495.68L486.6 495.68L486.66 495.62L486.66 495.62L486.78 494.9L486.78 494.9L486.78 494.84L486.78 494.84L486.84 494.06L486.84 494.06L486.84 385.52L486.84 385.52L486.78 384.8L486.78 384.8L486.78 384.74L486.78 384.74L486.66 384.02L486.66 384.02L486.6 384.02L486.6 384.02L486.42 383.36L486.42 383.36L486.42 383.3L486.42 383.3L486.18 382.64L486.18 382.64L486.18 382.58L486.18 382.58L485.88 381.92L485.88 381.92L485.88 381.86L485.88 381.86L485.52 381.26L485.52 381.26L485.46 381.26C 484.731 380.22 484.467 379.956 483.42 379.22L483.42 379.22L483.42 379.16L483.42 379.16L482.82 378.8" stroke="none" fill="#FF0000" fill-rule="nonzero" /></g></g></g></g></svg>