<svg xmlns="http://www.w3.org/2000/svg" xmlns:xlink="http://www.w3.org/1999/xlink" id="body_100" preserveAspectRatio="xMinYMin meet" viewBox="0 0 1123 793"><defs><clipPath id="1"><path id="" clip-rule="evenodd" transform="matrix(1 0 0 1 0 0)" d="M0 0L842 0L842 0L842 595L842 595L3.643325E-14 595L3.643325E-14 595L0 0z" /></clipPath></defs><g transform="matrix(1.333333 0 0 1.333333 0 0)"><g clip-path="url(#1)"><path id="2056" transform="matrix(1 0 0 -1 0 595)" d="M78.951 516.28L78.951 515.8L762.951 515.8L762.951 516.28z" stroke="none" fill="#000000" fill-rule="nonzero" /><path id="2057" transform="matrix(1 0 0 -1 0 595)" d="M78.951 498.28L78.951 497.8L762.951 497.8L762.951 498.28z" stroke="none" fill="#000000" fill-rule="nonzero" /><path id="2058" transform="matrix(1 0 0 -1 0 595)" d="M78.951 470.26L78.951 469.78L762.951 469.78L762.951 470.26z" stroke="none" fill="#000000" fill-rule="nonzero" /><path id="2059" transform="matrix(1 0 0 -1 0 595)" d="M78.951 452.26L78.951 451.78L762.951 451.78L762.951 452.26z" stroke="none" fill="#000000" fill-rule="nonzero" /><path id="2060" transform="matrix(1 0 0 -1 0 595)" d="M78.951 369.28L78.951 368.8L762.951 368.8L762.951 369.28z" stroke="none" fill="#000000" fill-rule="nonzero" /><path id="2061" transform="matrix(1 0 0 -1 0 595)" d="M78.951 351.28L78.951 350.8L762.951 350.8L762.951 351.28z" stroke="none" fill="#000000" fill-rule="nonzero" /><path id="2062" transform="matrix(1 0 0 -1 0 595)" d="M78.951 246.28L78.951 245.8L762.951 245.8L762.951 246.28z" stroke="none" fill="#000000" fill-rule="nonzero" /><path id="2063" transform="matrix(1 0 0 -1 0 595)" d="M78.951 228.28L78.951 227.8L762.951 227.8L762.951 228.28z" stroke="none" fill="#000000" fill-rule="nonzero" /><path id="2064" transform="matrix(1 0 0 -1 0 595)" d="M78.951 134.26L78.951 133.78L762.951 133.78L762.951 134.26z" stroke="none" fill="#000000" fill-rule="nonzero" /><path id="2065" transform="matrix(1 0 0 -1 0 595)" d="M78.951 117.76L78.951 116.26L762.951 116.26L762.951 117.76z" stroke="none" fill="#000000" fill-rule="nonzero" /></g></g></svg>