<svg xmlns="http://www.w3.org/2000/svg" xmlns:xlink="http://www.w3.org/1999/xlink" id="body_195" preserveAspectRatio="xMinYMin meet" viewBox="0 0 793 1123"><defs><clipPath id="1"><path id="" clip-rule="evenodd" transform="matrix(1 0 0 1 0 0)" d="M0 842L0 0L0 0L595 0L595 0L595 842L595 842L0 842z" /></clipPath><clipPath id="2"><path id="" clip-rule="evenodd" transform="matrix(1 0 0 1 0 0)" d="M334.38 302.1L343.86 302.1L343.86 302.1L343.86 311.52L343.86 311.52L334.38 311.52z" /></clipPath><clipPath id="3"><path id="" clip-rule="evenodd" transform="matrix(1 0 0 1 0 0)" d="M0 0.02001953L595.2 0.02001953L595.2 0.02001953L595.2 842L595.2 842L0 842z" /></clipPath><clipPath id="4"><path id="" clip-rule="evenodd" transform="matrix(1 0 0 1 0 0)" d="M335.4 303.12L342.84 303.12L342.84 303.12L342.84 310.56L342.84 310.56L335.4 310.56z" /></clipPath><clipPath id="5"><path id="" clip-rule="evenodd" transform="matrix(1 0 0 1 0 0)" d="M334.38 302.1L343.86 302.1L343.86 302.1L343.86 311.52L343.86 311.52L334.38 311.52z" /></clipPath><clipPath id="6"><path id="" clip-rule="evenodd" transform="matrix(1 0 0 1 0 0)" d="M0 0.02001953L595.2 0.02001953L595.2 0.02001953L595.2 842L595.2 842L0 842z" /></clipPath><clipPath id="7"><path id="" clip-rule="evenodd" transform="matrix(1 0 0 1 0 0)" d="M486.96 314.64L497.16 314.64L497.16 314.64L497.16 325.56L497.16 325.56L486.96 325.56z" /></clipPath><clipPath id="8"><path id="" clip-rule="evenodd" transform="matrix(1 0 0 1 0 0)" d="M0 0.02001953L595.2 0.02001953L595.2 0.02001953L595.2 842L595.2 842L0 842z" /></clipPath><clipPath id="9"><path id="" clip-rule="evenodd" transform="matrix(1 0 0 1 0 0)" d="M487.98 315.66L496.14 315.66L496.14 315.66L496.14 324.54L496.14 324.54L487.98 324.54z" /></clipPath><clipPath id="10"><path id="" clip-rule="evenodd" transform="matrix(1 0 0 1 0 0)" d="M486.96 314.64L497.16 314.64L497.16 314.64L497.16 325.56L497.16 325.56L486.96 325.56z" /></clipPath><clipPath id="11"><path id="" clip-rule="evenodd" transform="matrix(1 0 0 1 0 0)" d="M0 0.02001953L595.2 0.02001953L595.2 0.02001953L595.2 842L595.2 842L0 842z" /></clipPath><clipPath id="12"><path id="" clip-rule="evenodd" transform="matrix(1 0 0 1 0 0)" d="M35.94 388.02L548.94 388.02L548.94 388.02L548.94 525.42L548.94 525.42L35.94 525.42z" /></clipPath><clipPath id="13"><path id="" clip-rule="evenodd" transform="matrix(1 0 0 1 0 0)" d="M0 0.02001953L595.2 0.02001953L595.2 0.02001953L595.2 842L595.2 842L0 842z" /></clipPath><clipPath id="14"><path id="" clip-rule="evenodd" transform="matrix(1 0 0 1 0 0)" d="M36.96 389.04L547.92 389.04L547.92 389.04L547.92 524.4L547.92 524.4L36.96 524.4z" /></clipPath><clipPath id="15"><path id="" clip-rule="evenodd" transform="matrix(1 0 0 1 0 0)" d="M35.94 388.02L548.94 388.02L548.94 388.02L548.94 525.42L548.94 525.42L35.94 525.42z" /></clipPath><clipPath id="16"><path id="" clip-rule="evenodd" transform="matrix(1 0 0 1 0 0)" d="M0 0.02001953L595.2 0.02001953L595.2 0.02001953L595.2 842L595.2 842L0 842z" /></clipPath><clipPath id="17"><path id="" clip-rule="evenodd" transform="matrix(1 0 0 1 0 0)" d="M35.94 388.02L548.94 388.02L548.94 388.02L548.94 525.42L548.94 525.42L35.94 525.42z" /></clipPath><clipPath id="18"><path id="" clip-rule="evenodd" transform="matrix(1 0 0 1 0 0)" d="M0 0.02001953L595.2 0.02001953L595.2 0.02001953L595.2 842L595.2 842L0 842z" /></clipPath><clipPath id="19"><path id="" clip-rule="evenodd" transform="matrix(1 0 0 1 0 0)" d="M358.68 684.06L368.82 684.06L368.82 684.06L368.82 694.92L368.82 694.92L358.68 694.92z" /></clipPath><clipPath id="20"><path id="" clip-rule="evenodd" transform="matrix(1 0 0 1 0 0)" d="M0 0.02001953L595.2 0.02001953L595.2 0.02001953L595.2 842L595.2 842L0 842z" /></clipPath><clipPath id="21"><path id="" clip-rule="evenodd" transform="matrix(1 0 0 1 0 0)" d="M359.64 685.02L367.8 685.02L367.8 685.02L367.8 693.9L367.8 693.9L359.64 693.9z" /></clipPath><clipPath id="22"><path id="" clip-rule="evenodd" transform="matrix(1 0 0 1 0 0)" d="M358.68 684.06L368.82 684.06L368.82 684.06L368.82 694.92L368.82 694.92L358.68 694.92z" /></clipPath><clipPath id="23"><path id="" clip-rule="evenodd" transform="matrix(1 0 0 1 0 0)" d="M0 0.02001953L595.2 0.02001953L595.2 0.02001953L595.2 842L595.2 842L0 842z" /></clipPath><clipPath id="24"><path id="" clip-rule="evenodd" transform="matrix(1 0 0 1 0 0)" d="M440.04 709.5L449.52 709.5L449.52 709.5L449.52 718.92L449.52 718.92L440.04 718.92z" /></clipPath><clipPath id="25"><path id="" clip-rule="evenodd" transform="matrix(1 0 0 1 0 0)" d="M0 0.02001953L595.2 0.02001953L595.2 0.02001953L595.2 842L595.2 842L0 842z" /></clipPath><clipPath id="26"><path id="" clip-rule="evenodd" transform="matrix(1 0 0 1 0 0)" d="M441.06 710.46L448.5 710.46L448.5 710.46L448.5 717.9L448.5 717.9L441.06 717.9z" /></clipPath><clipPath id="27"><path id="" clip-rule="evenodd" transform="matrix(1 0 0 1 0 0)" d="M440.04 709.5L449.52 709.5L449.52 709.5L449.52 718.92L449.52 718.92L440.04 718.92z" /></clipPath><clipPath id="28"><path id="" clip-rule="evenodd" transform="matrix(1 0 0 1 0 0)" d="M0 0.02001953L595.2 0.02001953L595.2 0.02001953L595.2 842L595.2 842L0 842z" /></clipPath></defs><g transform="matrix(1.333333 0 0 1.333333 0 0)"><g clip-path="url(#1)"><g clip-path="url(#2)"><g clip-path="url(#3)"><path id="1012" transform="matrix(1 0 0 -1 0 842)" d="M335.4 531.44L342.84 531.44L342.84 538.88L335.4 538.88z" stroke="none" fill="#FFFFFF" fill-rule="nonzero" /></g></g><g clip-path="url(#4)"><g clip-path="url(#5)"><g clip-path="url(#6)"><g transform="matrix(0.48 0 0 0.465 335.4 303.12)"><g transform="matrix(1 0 0 1 0 0)"><image x="0" y="0" xlink:href="img_246.png" width="16" height="16" /></g></g></g></g></g><g clip-path="url(#7)"><g clip-path="url(#8)"><path id="1014" transform="matrix(1 0 0 -1 0 842)" d="M487.98 517.46L496.14 517.46L496.14 526.34L487.98 526.34z" stroke="none" fill="#FFFFFF" fill-rule="nonzero" /></g></g><g clip-path="url(#9)"><g clip-path="url(#10)"><g clip-path="url(#11)"><g transform="matrix(0.48 0 0 0.4673684 487.98 315.66)"><g transform="matrix(1 0 0 1 0 0)"><image x="0" y="0" xlink:href="img_244.png" width="17" height="19" /></g></g></g></g></g><g clip-path="url(#12)"><g clip-path="url(#13)"><path id="1057" transform="matrix(1 0 0 -1 0 842)" d="M36.96 317.6L547.92 317.6L547.92 452.96L36.96 452.96z" stroke="none" fill="#FFFFFF" fill-rule="nonzero" /></g></g><g clip-path="url(#14)"><g clip-path="url(#15)"><g clip-path="url(#16)"><g transform="matrix(0.48 0 0 0.48 36.96 389.04)"><g transform="matrix(1 0 0 1 0 0)"><image x="0" y="0" xlink:href="img_482.png" width="1065" height="282" /></g></g></g></g></g><g clip-path="url(#17)"><g clip-path="url(#18)"><path id="1059" transform="matrix(1 0 0 -1 0 842)" d="M81.84 350.72L80.52 350.6L80.52 350.6L80.57999 350.66L80.57999 350.66L79.92 350.48L79.92 350.48L79.98 350.48L79.98 350.48L78.78 350L78.78 350L78.89999 350.06L78.89999 350.06L78.35999 349.7L78.35999 349.7L77.88 349.34L77.88 349.34L77.93999 349.34L77.93999 349.34L77.46 348.92L77.46 348.92L77.52 348.98L77.52 348.98L77.1 348.5L77.1 348.5L77.1 348.56L77.1 348.56L76.38 347.48L76.38 347.48L76.43999 347.54L76.43999 347.54L76.2 347L76.2 347L76.2 347.06L76.2 347.06L75.96 346.46L75.96 346.46L75.96 346.52L75.96 346.52L75.78 345.86L75.78 345.86L75.84 345.86L75.84 345.86L75.71999 345.2L75.71999 345.2L75.71999 345.32L75.71999 345.32L75.71999 344L75.71999 344L75.71999 344.06L75.71999 344.06L75.84 343.4L75.84 343.4L75.78 343.46L75.78 343.46L75.96 342.8L75.96 342.8L75.96 342.86L75.96 342.86L76.2 342.26L76.2 342.26L76.43999 341.72L76.43999 341.72L76.43999 341.78L76.43999 341.78L76.8 341.18L76.8 341.18L76.74 341.24L76.74 341.24L77.1 340.76L77.1 340.76L77.52 340.28L77.52 340.28L77.46 340.34L77.46 340.34L77.93999 339.92L77.93999 339.92L77.88 339.98L77.88 339.98L78.35999 339.62L78.35999 339.62L78.89999 339.26L78.89999 339.26L78.78 339.32L78.78 339.32L79.98 338.84L79.98 338.84L79.92 338.84L79.92 338.84L80.57999 338.66L80.57999 338.66L80.52 338.66L80.52 338.66L81.84 338.54L81.84 338.54L81.78 338.54L81.78 338.54L132.42 338.54L132.42 338.54L132.36 338.54L132.36 338.54L133.68 338.66L133.68 338.66L133.62 338.66L133.62 338.66L134.22 338.84L134.22 338.84L134.16 338.84L134.16 338.84L134.82 339.08L134.82 339.08L135.36 339.32L135.36 339.32L135.3 339.26L135.3 339.26L135.84 338.42L135.84 338.42L135.78 338.36L135.78 338.36L135.24 338.12L135.24 338.12L135.18 338.12L135.18 338.12L134.52 337.88L134.52 337.88L133.92 337.7L133.92 337.7L133.8 337.64L133.8 337.64L132.48 337.52L132.48 337.52L81.71999 337.52L81.71999 337.52L80.39999 337.64L80.39999 337.64L80.34 337.7C 78.863 338.028 77.836 338.596 76.74 339.62L76.74 339.62L76.32 340.1L76.32 340.1L76.25999 340.16L76.25999 340.16L75.89999 340.64C 73.98399 343.531 74.325 347.222 76.8 349.7L76.8 349.7L77.28 350.12L77.28 350.12L77.28 350.18L77.28 350.18L77.75999 350.54L77.75999 350.54L77.82 350.54L77.82 350.54L78.35999 350.9L78.35999 350.9L78.42 350.96L78.42 350.96L79.62 351.44L79.62 351.44L79.67999 351.44L79.67999 351.44L80.34 351.62L80.34 351.62L80.39999 351.62L80.39999 351.62L81.71999 351.74" stroke="none" fill="#FF0000" fill-rule="nonzero" /><path id="1060" transform="matrix(1 0 0 -1 0 842)" d="M135.3 339.26L136.38 339.98L136.38 339.98L136.26 339.92L136.26 339.92L137.16 340.82L137.16 340.82L137.1 340.76L137.1 340.76L137.46 341.24L137.46 341.24L137.46 341.18L137.46 341.18L137.76 341.78L137.76 341.78L138.06 342.32L138.06 342.32L138 342.26L138 342.26L138.24 342.86L138.24 342.86L138.24 342.74L138.24 342.74L138.36 343.4L138.36 343.4L138.48 344.06L138.48 344.06L138.54 344.72L138.54 344.72L138.54 344.6L138.54 344.6L138.48 345.26L138.48 345.26L138.48 345.2L138.48 345.2L138.24 346.52L138.24 346.52L138.24 346.46L138.24 346.46L138 347.06L138 347.06L138.06 347L138.06 347L137.46 348.08L137.46 348.08L137.46 348.02L137.46 348.02L137.1 348.56L137.1 348.56L137.16 348.5L137.16 348.5L136.26 349.4L136.26 349.4L136.38 349.34L136.38 349.34L135.3 350.06L135.3 350.06L135.36 350L135.36 350L134.82 350.24L134.82 350.24L134.16 350.48L134.16 350.48L134.22 350.48L134.22 350.48L133.62 350.66L133.62 350.66L133.68 350.6L133.68 350.6L132.36 350.72L132.36 350.72L132.42 350.72L132.42 350.72L81.78 350.72L81.78 350.72L81.84 350.72L81.84 350.72L81.72 351.74L81.72 351.74L132.48 351.74L132.48 351.74L133.8 351.62L133.8 351.62L133.92 351.62L133.92 351.62L134.52 351.44L134.52 351.44L135.18 351.2L135.18 351.2L135.24 351.2C 136.263 350.772 137.144 350.046 137.88 349.22L137.88 349.22L137.94 349.1L137.94 349.1L138.3 348.56L138.3 348.56L138.36 348.56L138.36 348.56L138.66 348.02C 140.473 344.906 139.4 340.707 136.38 338.78L136.38 338.78L135.84 338.42" stroke="none" fill="#FF0000" fill-rule="nonzero" /><path id="1061" transform="matrix(1 0 0 -1 0 842)" d="M237.42 420.2L236.7 420.14L236.7 420.14L236.76 420.14L236.76 420.14L236.04 420.02L236.04 420.02L236.04 420.08L236.04 420.08L235.38 419.9L235.38 419.9L235.44 419.9L235.44 419.9L234.78 419.66L234.78 419.66L234.84 419.66L234.84 419.66L234.18 419.36L234.18 419.36L234.24 419.36L234.24 419.36L233.64 419L233.64 419L233.64 419.06L233.64 419.06L233.1 418.64L233.1 418.64L233.16 418.64L233.16 418.64L232.68 418.22L232.68 418.22L232.74 418.28L232.74 418.28L232.26 417.74L232.26 417.74L232.26 417.8L232.26 417.8L231.84 417.26L231.84 417.26L231.9 417.26L231.9 417.26L231.54 416.66L231.54 416.66L231.54 416.72L231.54 416.72L231.24 416.12L231.24 416.12L231.24 416.18L231.24 416.18L231 415.46L231 415.46L231 415.52L231 415.52L230.82 414.86L230.82 414.86L230.88 414.86L230.88 414.86L230.76 414.14L230.76 414.14L230.76 414.2L230.76 414.2L230.7 413.48L230.7 413.48L230.7 413.54L230.7 413.54L230.7 332.3L230.7 332.3L230.76 331.52L230.76 331.52L230.76 331.58L230.76 331.58L230.88 330.86L230.88 330.86L230.82 330.92L230.82 330.92L231 330.26L231 330.26L231 330.32L231 330.32L231.24 329.66L231.24 329.66L231.54 329L231.54 329L231.54 329.06L231.54 329.06L231.9 328.46L231.9 328.46L231.84 328.52L231.84 328.52L232.26 327.98L232.26 327.98L232.2 328.04L232.2 328.04L233.16 327.08L233.16 327.08L233.1 327.08L233.1 327.08L233.64 326.66L233.64 326.66L233.64 326.72L233.64 326.72L234.24 326.36L234.24 326.36L234.18 326.36L234.18 326.36L234.84 326.06L234.84 326.06L234.78 326.12L234.78 326.12L235.44 325.88L235.44 325.88L235.38 325.88L235.38 325.88L236.04 325.7L236.04 325.7L236.76 325.58L236.76 325.58L236.64 325.58L236.64 325.58L290.7 325.58L290.7 325.58L290.64 325.58L290.64 325.58L291.36 325.7L291.36 325.7L291.3 325.7L291.3 325.7L291.96 325.88L291.96 325.88L291.9 325.88L291.9 325.88L292.56 326.12L292.56 326.12L292.56 326.06L292.56 326.06L293.22 326.36L293.22 326.36L293.16 326.36L293.16 326.36L293.7 325.46L293.7 325.46L293.64 325.46L293.64 325.46L292.98 325.16L292.98 325.16L292.92 325.16L292.92 325.16L292.26 324.92L292.26 324.92L292.2 324.92L292.2 324.92L291.54 324.74L291.54 324.74L291.54 324.68L291.54 324.68L290.82 324.56L290.82 324.56L236.58 324.56L236.58 324.56L235.86 324.68L235.86 324.68L235.8 324.74L235.8 324.74L235.14 324.92L235.14 324.92L235.08 324.92L235.08 324.92L234.42 325.16L234.42 325.16L233.76 325.46L233.76 325.46L233.7 325.46L233.7 325.46L233.1 325.82L233.1 325.82L233.04 325.88L233.04 325.88L232.5 326.3L232.5 326.3L231.48 327.32L231.48 327.32L231.48 327.38L231.48 327.38L231.06 327.92L231.06 327.92L231 327.92L231 327.92L230.64 328.52L230.64 328.52L230.64 328.58L230.64 328.58L230.34 329.24L230.34 329.24L230.28 329.3L230.28 329.3L230.04 329.96L230.04 329.96L230.04 330.02L230.04 330.02L229.86 330.68L229.86 330.68L229.74 331.4L229.74 331.4L229.74 331.46L229.74 331.46L229.68 332.24L229.68 332.24L229.68 413.54L229.68 413.54L229.74 414.26L229.74 414.26L229.74 414.32L229.74 414.32L229.86 415.04L229.86 415.04L229.86 415.1C 230.302 417.293 231.774 419.168 233.7 420.26L233.7 420.26L233.76 420.26L233.76 420.26L234.42 420.56L234.42 420.56L234.42 420.62L234.42 420.62L235.08 420.86L235.08 420.86L235.14 420.86L235.14 420.86L235.8 421.04L235.8 421.04L235.86 421.04L235.86 421.04L236.58 421.16L236.58 421.16L236.64 421.16L236.64 421.16L237.36 421.22" stroke="none" fill="#FF0000" fill-rule="nonzero" /><path id="1062" transform="matrix(1 0 0 -1 0 842)" d="M293.16 326.36L293.76 326.72L293.76 326.72L293.7 326.66L293.7 326.66L294.24 327.08L294.24 327.08L294.78 327.56L294.78 327.56L294.72 327.5L294.72 327.5L295.14 327.98L295.14 327.98L295.56 328.52L295.56 328.52L295.5 328.46L295.5 328.46L295.86 329.06L295.86 329.06L295.86 329L295.86 329L296.16 329.66L296.16 329.66L296.1 329.66L296.1 329.66L296.34 330.32L296.34 330.32L296.34 330.26L296.34 330.26L296.52 330.92L296.52 330.92L296.52 330.86L296.52 330.86L296.64 331.58L296.64 331.58L296.64 331.52L296.64 331.52L296.7 332.3L296.7 332.3L296.7 413.54L296.7 413.54L296.7 413.48L296.7 413.48L296.64 414.2L296.64 414.2L296.64 414.14L296.64 414.14L296.52 414.86L296.52 414.86L296.34 415.52L296.34 415.52L296.34 415.46L296.34 415.46L296.1 416.18L296.1 416.18L296.16 416.12L296.16 416.12L295.86 416.72L295.86 416.72L295.86 416.66L295.86 416.66L295.5 417.26L295.5 417.26L295.56 417.26L295.56 417.26L294.72 418.34L294.72 418.34L294.78 418.22L294.78 418.22L293.7 419.06L293.7 419.06L293.76 419L293.76 419L293.16 419.36L293.16 419.36L293.22 419.36L293.22 419.36L292.56 419.66L292.56 419.66L291.9 419.9L291.9 419.9L291.96 419.9L291.96 419.9L291.3 420.08L291.3 420.08L291.36 420.02L291.36 420.02L290.64 420.14L290.64 420.14L290.7 420.14L290.7 420.14L289.98 420.2L289.98 420.2L237.36 420.2L237.36 420.2L237.42 420.2L237.42 420.2L237.36 421.22L237.36 421.22L290.04 421.22L290.04 421.22L290.76 421.16L290.76 421.16L290.82 421.16L290.82 421.16L291.54 421.04L291.54 421.04L292.2 420.86L292.2 420.86L292.26 420.86L292.26 420.86L292.92 420.62L292.92 420.62L292.98 420.56L292.98 420.56L293.64 420.26L293.64 420.26L293.7 420.26L293.7 420.26L294.3 419.9L294.3 419.9L294.3 419.84L294.3 419.84L295.38 419L295.38 419L295.5 418.94L295.5 418.94L296.34 417.86L296.34 417.86L296.4 417.8L296.4 417.8L296.76 417.2L296.76 417.2L297.06 416.6L297.06 416.6L297.06 416.48L297.06 416.48L297.3 415.76L297.3 415.76L297.48 415.1L297.48 415.1L297.54 415.04L297.54 415.04L297.66 414.32L297.66 414.32L297.66 414.26L297.66 414.26L297.72 413.54L297.72 413.54L297.72 332.24L297.72 332.24L297.66 331.46L297.66 331.46L297.66 331.4L297.66 331.4L297.54 330.68L297.54 330.68L297.48 330.68L297.48 330.68L297.3 330.02L297.3 330.02L297.3 329.96L297.3 329.96L297.06 329.3L297.06 329.3L297.06 329.24L297.06 329.24L296.76 328.58L296.76 328.58L296.76 328.52L296.76 328.52L296.4 327.92L296.4 327.92L296.34 327.92C 295.611 326.88 295.347 326.616 294.3 325.88L294.3 325.88L294.3 325.82L294.3 325.82L293.7 325.46" stroke="none" fill="#FF0000" fill-rule="nonzero" /><path id="1063" transform="matrix(1 0 0 -1 0 842)" d="M72.42 382.1L71.75999 382.1L71.75999 382.1L71.88 382.1L71.88 382.1L71.28 381.98L71.28 381.98L71.34 382.04L71.34 382.04L70.14 381.68L70.14 381.68L70.2 381.68L70.2 381.68L69.66 381.44L69.66 381.44L69.72 381.5L69.72 381.5L69.18 381.14L69.18 381.14L68.7 380.78L68.7 380.78L68.75999 380.84L68.75999 380.84L67.92 380L67.92 380L67.98 380.06L67.98 380.06L67.62 379.58L67.62 379.58L67.68 379.64L67.68 379.64L67.08 378.56L67.08 378.56L67.08 378.62L67.08 378.62L66.72 377.42L66.72 377.42L66.78 377.54L66.78 377.54L66.72 376.94L66.72 376.94L66.66 376.28L66.66 376.28L66.66 376.4L66.66 376.4L66.72 375.74L66.72 375.74L66.78 375.14L66.78 375.14L66.72 375.2L66.72 375.2L67.08 374L67.08 374L67.08 374.12L67.08 374.12L67.68 373.04L67.68 373.04L67.62 373.1L67.62 373.1L67.98 372.62L67.98 372.62L67.92 372.68L67.92 372.68L68.75999 371.84L68.75999 371.84L68.7 371.9L68.7 371.9L69.18 371.54L69.18 371.54L69.12 371.54L69.12 371.54L70.2 370.94L70.2 370.94L70.14 371L70.14 371L71.34 370.64L71.34 370.64L71.22 370.64L71.22 370.64L71.82 370.58L71.82 370.58L72.48 370.52L72.48 370.52L72.42 370.52L72.42 370.52L138.12 370.52L138.12 370.52L138.06 370.52L138.06 370.52L138.72 370.58L138.72 370.58L139.32 370.64L139.32 370.64L139.26 370.64L139.26 370.64L140.46 371L140.46 371L140.34 370.94L140.34 370.94L140.88 371.24L140.88 371.24L141.36 370.34L141.36 370.34L140.82 370.04L140.82 370.04L140.76 370.04L140.76 370.04L139.56 369.68L139.56 369.68L139.44 369.62L139.44 369.62L138.84 369.56L138.84 369.56L138.18 369.5L138.18 369.5L72.36 369.5L72.36 369.5L71.7 369.56L71.7 369.56L71.1 369.62L71.1 369.62L71.04 369.68L71.04 369.68L69.84 370.04L69.84 370.04L69.72 370.04C 68.031 370.869 66.963 371.936 66.18 373.64L66.18 373.64L66.12 373.7L66.12 373.7L65.75999 374.9C 65.049 378.989 67.58 382.605 71.7 383.12L71.7 383.12L72.42 383.12" stroke="none" fill="#FF0000" fill-rule="nonzero" /><path id="1064" transform="matrix(1 0 0 -1 0 842)" d="M140.88 371.24L141.42 371.54L141.42 371.54L141.36 371.54L141.36 371.54L141.84 371.9L141.84 371.9L141.78 371.84L141.78 371.84L142.62 372.68L142.62 372.68L142.56 372.62L142.56 372.62L142.92 373.1L142.92 373.1L142.92 373.04L142.92 373.04L143.28 373.58L143.28 373.58L143.22 373.52L143.22 373.52L143.46 374.06L143.46 374.06L143.7 374.66L143.7 374.66L143.7 374.54L143.7 374.54L143.82 375.14L143.82 375.14L143.94 375.74L143.94 375.74L143.94 375.68L143.94 375.68L143.94 377L143.94 377L143.94 376.88L143.94 376.88L143.82 377.48L143.82 377.48L143.7 378.08L143.7 378.08L143.7 378.02L143.7 378.02L143.46 378.62L143.46 378.62L143.46 378.56L143.46 378.56L143.22 379.1L143.22 379.1L143.28 379.04L143.28 379.04L142.92 379.58L142.92 379.58L142.56 380.06L142.56 380.06L142.62 380L142.62 380L141.78 380.84L141.78 380.84L141.84 380.78L141.84 380.78L141.36 381.14L141.36 381.14L141.42 381.14L141.42 381.14L140.88 381.5L140.88 381.5L140.94 381.44L140.94 381.44L140.4 381.68L140.4 381.68L140.46 381.68L140.46 381.68L139.26 382.04L139.26 382.04L139.32 381.98L139.32 381.98L138.72 382.1L138.72 382.1L138.78 382.1L138.78 382.1L72.42001 382.1L72.42001 382.1L72.42001 383.12L72.42001 383.12L138.12 383.12C 140.962 383.208 143.278 381.493 144.42 378.98L144.42 378.98L144.66 378.38L144.66 378.38L144.72 378.26C 145.524 375.226 144.468 372.531 141.96 370.7L141.96 370.7L141.9 370.64L141.9 370.64L141.36 370.34" stroke="none" fill="#FF0000" fill-rule="nonzero" /></g></g><g clip-path="url(#19)"><g clip-path="url(#20)"><path id="1065" transform="matrix(1 0 0 -1 0 842)" d="M359.64 148.1L367.8 148.1L367.8 156.98L359.64 156.98z" stroke="none" fill="#FFFFFF" fill-rule="nonzero" /></g></g><g clip-path="url(#21)"><g clip-path="url(#22)"><g clip-path="url(#23)"><g transform="matrix(0.48 0 0 0.4673684 359.64 685.02)"><g transform="matrix(1 0 0 1 0 0)"><image x="0" y="0" xlink:href="img_244.png" width="17" height="19" /></g></g></g></g></g><g clip-path="url(#24)"><g clip-path="url(#25)"><path id="1067" transform="matrix(1 0 0 -1 0 842)" d="M441.06 124.1L448.5 124.1L448.5 131.54L441.06 131.54z" stroke="none" fill="#FFFFFF" fill-rule="nonzero" /></g></g><g clip-path="url(#26)"><g clip-path="url(#27)"><g clip-path="url(#28)"><g transform="matrix(0.48 0 0 0.465 441.06 710.46)"><g transform="matrix(1 0 0 1 0 0)"><image x="0" y="0" xlink:href="img_246.png" width="16" height="16" /></g></g></g></g></g></g></g></svg>