<svg xmlns="http://www.w3.org/2000/svg" xmlns:xlink="http://www.w3.org/1999/xlink" id="body_164" preserveAspectRatio="xMinYMin meet" viewBox="0 0 793 1123"><defs><clipPath id="1"><path id="" clip-rule="evenodd" transform="matrix(1 0 0 1 0 0)" d="M0 842L0 0L0 0L595 0L595 0L595 842L595 842L0 842z" /></clipPath><clipPath id="2"><path id="" clip-rule="evenodd" transform="matrix(1 0 0 1 0 0)" d="M261.48 107.58L276.9 107.58L276.9 107.58L276.9 123.06L276.9 123.06L261.48 123.06z" /></clipPath><clipPath id="3"><path id="" clip-rule="evenodd" transform="matrix(1 0 0 1 0 0)" d="M0 0.02001953L595.2 0.02001953L595.2 0.02001953L595.2 842L595.2 842L0 842z" /></clipPath><clipPath id="4"><path id="" clip-rule="evenodd" transform="matrix(1 0 0 1 0 0)" d="M262.5 108.6L275.94 108.6L275.94 108.6L275.94 122.04L275.94 122.04L262.5 122.04z" /></clipPath><clipPath id="5"><path id="" clip-rule="evenodd" transform="matrix(1 0 0 1 0 0)" d="M261.48 107.58L276.9 107.58L276.9 107.58L276.9 123.06L276.9 123.06L261.48 123.06z" /></clipPath><clipPath id="6"><path id="" clip-rule="evenodd" transform="matrix(1 0 0 1 0 0)" d="M0 0.02001953L595.2 0.02001953L595.2 0.02001953L595.2 842L595.2 842L0 842z" /></clipPath><clipPath id="7"><path id="" clip-rule="evenodd" transform="matrix(1 0 0 1 0 0)" d="M215.94 154.02L504.78 154.02L504.78 154.02L504.78 275.82L504.78 275.82L215.94 275.82z" /></clipPath><clipPath id="8"><path id="" clip-rule="evenodd" transform="matrix(1 0 0 1 0 0)" d="M0 0.02001953L595.2 0.02001953L595.2 0.02001953L595.2 842L595.2 842L0 842z" /></clipPath><clipPath id="9"><path id="" clip-rule="evenodd" transform="matrix(1 0 0 1 0 0)" d="M216.96 155.04L503.76 155.04L503.76 155.04L503.76 274.8L503.76 274.8L216.96 274.8z" /></clipPath><clipPath id="10"><path id="" clip-rule="evenodd" transform="matrix(1 0 0 1 0 0)" d="M215.94 154.02L504.78 154.02L504.78 154.02L504.78 275.82L504.78 275.82L215.94 275.82z" /></clipPath><clipPath id="11"><path id="" clip-rule="evenodd" transform="matrix(1 0 0 1 0 0)" d="M0 0.02001953L595.2 0.02001953L595.2 0.02001953L595.2 842L595.2 842L0 842z" /></clipPath><clipPath id="12"><path id="" clip-rule="evenodd" transform="matrix(1 0 0 1 0 0)" d="M215.94 154.02L504.78 154.02L504.78 154.02L504.78 275.82L504.78 275.82L215.94 275.82z" /></clipPath><clipPath id="13"><path id="" clip-rule="evenodd" transform="matrix(1 0 0 1 0 0)" d="M0 0.02001953L595.2 0.02001953L595.2 0.02001953L595.2 842L595.2 842L0 842z" /></clipPath><clipPath id="14"><path id="" clip-rule="evenodd" transform="matrix(1 0 0 1 0 0)" d="M261.9 433.38L277.38 433.38L277.38 433.38L277.38 448.8L277.38 448.8L261.9 448.8z" /></clipPath><clipPath id="15"><path id="" clip-rule="evenodd" transform="matrix(1 0 0 1 0 0)" d="M0 0.02001953L595.2 0.02001953L595.2 0.02001953L595.2 842L595.2 842L0 842z" /></clipPath><clipPath id="16"><path id="" clip-rule="evenodd" transform="matrix(1 0 0 1 0 0)" d="M262.92 434.34L276.36 434.34L276.36 434.34L276.36 447.78L276.36 447.78L262.92 447.78z" /></clipPath><clipPath id="17"><path id="" clip-rule="evenodd" transform="matrix(1 0 0 1 0 0)" d="M261.9 433.38L277.38 433.38L277.38 433.38L277.38 448.8L277.38 448.8L261.9 448.8z" /></clipPath><clipPath id="18"><path id="" clip-rule="evenodd" transform="matrix(1 0 0 1 0 0)" d="M0 0.02001953L595.2 0.02001953L595.2 0.02001953L595.2 842L595.2 842L0 842z" /></clipPath><clipPath id="19"><path id="" clip-rule="evenodd" transform="matrix(1 0 0 1 0 0)" d="M215.94 484.8L504.78 484.8L504.78 484.8L504.78 606.6L504.78 606.6L215.94 606.6z" /></clipPath><clipPath id="20"><path id="" clip-rule="evenodd" transform="matrix(1 0 0 1 0 0)" d="M0 0.02001953L595.2 0.02001953L595.2 0.02001953L595.2 842L595.2 842L0 842z" /></clipPath><clipPath id="21"><path id="" clip-rule="evenodd" transform="matrix(1 0 0 1 0 0)" d="M216.96 485.82L503.76 485.82L503.76 485.82L503.76 605.58L503.76 605.58L216.96 605.58z" /></clipPath><clipPath id="22"><path id="" clip-rule="evenodd" transform="matrix(1 0 0 1 0 0)" d="M215.94 484.8L504.78 484.8L504.78 484.8L504.78 606.6L504.78 606.6L215.94 606.6z" /></clipPath><clipPath id="23"><path id="" clip-rule="evenodd" transform="matrix(1 0 0 1 0 0)" d="M0 0.02001953L595.2 0.02001953L595.2 0.02001953L595.2 842L595.2 842L0 842z" /></clipPath><clipPath id="24"><path id="" clip-rule="evenodd" transform="matrix(1 0 0 1 0 0)" d="M215.94 484.8L504.78 484.8L504.78 484.8L504.78 606.6L504.78 606.6L215.94 606.6z" /></clipPath><clipPath id="25"><path id="" clip-rule="evenodd" transform="matrix(1 0 0 1 0 0)" d="M0 0.02001953L595.2 0.02001953L595.2 0.02001953L595.2 842L595.2 842L0 842z" /></clipPath></defs><g transform="matrix(1.333333 0 0 1.333333 0 0)"><g clip-path="url(#1)"><g clip-path="url(#2)"><g clip-path="url(#3)"><path id="774" transform="matrix(1 0 0 -1 0 842)" d="M262.5 719.96L275.94 719.96L275.94 733.4L262.5 733.4z" stroke="none" fill="#FFFFFF" fill-rule="nonzero" /></g></g><g clip-path="url(#4)"><g clip-path="url(#5)"><g clip-path="url(#6)"><g transform="matrix(0.48 0 0 0.48 262.5 108.6)"><g transform="matrix(1 0 0 1 0 0)"><image x="0" y="0" xlink:href="img_217.png" width="28" height="28" /></g></g></g></g></g><g clip-path="url(#7)"><g clip-path="url(#8)"><path id="776" transform="matrix(1 0 0 -1 0 842)" d="M216.96 567.2L503.76 567.2L503.76 686.96L216.96 686.96z" stroke="none" fill="#FFFFFF" fill-rule="nonzero" /></g></g><g clip-path="url(#9)"><g clip-path="url(#10)"><g clip-path="url(#11)"><g transform="matrix(0.48 0 0 0.47904 216.96 155.04)"><g transform="matrix(1 0 0 1 0 0)"><image x="0" y="0" xlink:href="img_407.png" width="598" height="250" /></g></g></g></g></g><g clip-path="url(#12)"><g clip-path="url(#13)"><path id="778" transform="matrix(1 0 0 -1 0 842)" d="M400.02 610.28L399.12 610.22L399.12 610.22L398.22 610.1L398.22 610.1L398.34 610.16L398.34 610.16L397.5 609.92L397.5 609.92L396.66 609.6201L396.66 609.6201L396.72 609.6201L396.72 609.6201L395.94 609.26L395.94 609.26L396 609.32L396 609.32L395.22 608.84L395.22 608.84L394.56 608.36L394.56 608.36L394.62 608.36L394.62 608.36L393.96 607.76L393.96 607.76L394.02 607.82L394.02 607.82L393.42 607.16L393.42 607.16L393.42 607.22L393.42 607.22L392.94 606.5601L392.94 606.5601L392.46 605.78L392.46 605.78L392.52 605.84L392.52 605.84L392.16 605.0601L392.16 605.0601L392.16 605.1201L392.16 605.1201L391.86 604.28L391.86 604.28L391.62 603.44L391.62 603.44L391.68 603.5601L391.68 603.5601L391.56 602.66L391.56 602.66L391.5 601.76L391.5 601.76L391.5 601.82L391.5 601.82L391.56 600.86L391.56 600.86L391.56 600.92L391.56 600.92L391.68 600.08L391.68 600.08L391.62 600.14L391.62 600.14L391.86 599.2401L391.86 599.2401L391.86 599.3L391.86 599.3L392.16 598.46L392.16 598.46L392.52 597.6801L392.52 597.6801L392.46 597.7401L392.46 597.7401L393.42 596.3L393.42 596.3L393.36 596.42L393.36 596.42L393.96 595.82L393.96 595.82L394.62 595.22L394.62 595.22L395.28 594.6801L395.28 594.6801L395.16 594.7401L395.16 594.7401L395.94 594.32L395.94 594.32L396.72 593.96L396.72 593.96L396.72 594.02L396.72 594.02L397.56 593.66L397.56 593.66L397.44 593.66L397.44 593.66L398.28 593.48L398.28 593.48L398.22 593.48L398.22 593.48L399.12 593.36L399.12 593.36L400.02 593.3L400.02 593.3L399.96 593.3L399.96 593.3L471.96 593.3L471.96 593.3L472.86 593.36L472.86 593.36L472.8 593.36L472.8 593.36L473.7 593.48L473.7 593.48L474.6 593.66L474.6 593.66L474.48 593.66L474.48 593.66L475.32 594.02L475.32 594.02L475.32 593.96L475.32 593.96L476.1 594.32L476.1 594.32L476.04 594.32L476.04 594.32L476.58 593.42L476.58 593.42L476.52 593.42L476.52 593.42L475.74 593.0601L475.74 593.0601L474.9 592.7L474.9 592.7L474.78 592.64L474.78 592.64L473.88 592.46L473.88 592.46L473.82 592.46L473.82 592.46L472.92 592.34L472.92 592.34L472.02 592.28L472.02 592.28L399.96 592.28L399.96 592.28L399.06 592.34L399.06 592.34L399 592.34C 397.228 592.4431 396.236 593.058 394.68 593.84L394.68 593.84L394.62 593.9L394.62 593.9L393.96 594.44L393.96 594.44L393.3 595.04C 390.784 597.354 389.867 601.34 390.9 604.58L390.9 604.58L390.9 604.64L390.9 604.64L391.2 605.48L391.2 605.48L391.26 605.48L391.26 605.48L391.62 606.26L391.62 606.26L391.62 606.32L391.62 606.32L392.1 607.1L392.1 607.1L392.1 607.16L392.1 607.16L392.58 607.82L392.58 607.82L392.64 607.82L392.64 607.82L393.24 608.48L393.24 608.48L393.3 608.54L393.3 608.54L393.96 609.14L393.96 609.14L393.96 609.2L393.96 609.2L394.62 609.6801L394.62 609.6801L394.68 609.6801L394.68 609.6801L395.46 610.16L395.46 610.16L395.52 610.16L395.52 610.16L396.3 610.52L396.3 610.52L396.3 610.58L396.3 610.58L397.14 610.88L397.14 610.88L397.2 610.88L397.2 610.88L398.04 611.1201L398.04 611.1201L398.1 611.1201L398.1 611.1201L399 611.2401L399 611.2401L399.06 611.2401L399.06 611.2401L399.96 611.3" stroke="none" fill="#FF0000" fill-rule="nonzero" /><path id="779" transform="matrix(1 0 0 -1 0 842)" d="M476.04 594.32L476.76 594.74L476.76 594.74L476.7 594.74L476.7 594.74L477.42 595.28L477.42 595.28L477.36 595.22L477.36 595.22L478.56 596.42L478.56 596.42L478.5 596.36L478.5 596.36L479.04 597.08L479.04 597.08L479.04 597.02L479.04 597.02L479.46 597.74L479.46 597.74L479.46 597.68L479.46 597.68L479.82 598.46L479.82 598.46L479.76 598.46L479.76 598.46L480.06 599.3L480.06 599.3L480.06 599.24L480.06 599.24L480.3 600.14L480.3 600.14L480.3 600.08L480.3 600.08L480.42 600.92L480.42 600.92L480.42 600.86L480.42 600.86L480.48 601.82L480.48 601.82L480.48 601.76L480.48 601.76L480.42 602.66L480.42 602.66L480.3 603.56L480.3 603.56L480.3 603.44L480.3 603.44L480.06 604.28L480.06 604.28L479.76 605.12L479.76 605.12L479.82 605.06L479.82 605.06L479.46 605.84L479.46 605.84L479.04 606.62L479.04 606.62L479.1 606.5L479.1 606.5L478.56 607.16L478.56 607.16L477.96 607.82L477.96 607.82L477.36 608.42L477.36 608.42L477.48 608.36L477.48 608.36L476.04 609.32L476.04 609.32L476.1 609.26L476.1 609.26L475.32 609.62L475.32 609.62L474.48 609.92L474.48 609.92L474.54 609.92L474.54 609.92L473.64 610.16L473.64 610.16L473.7 610.1L473.7 610.1L472.8 610.22L472.8 610.22L472.86 610.22L472.86 610.22L471.96 610.28L471.96 610.28L399.96 610.28L399.96 610.28L400.02 610.28L400.02 610.28L399.96 611.3L399.96 611.3L471.96 611.3C 475.107 611.335 478.088 609.739 479.88 607.16L479.88 607.16L479.94 607.1L479.94 607.1L480.36 606.32L480.36 606.32L480.36 606.26C 480.799 605.394 481.407 603.702 481.44 602.72L481.44 602.72L481.5 601.82L481.5 601.82L481.5 601.76L481.5 601.76L481.44 600.8L481.44 600.8L481.32 599.96L481.32 599.96L481.26 599.9L481.26 599.9L481.02 599L481.02 599L481.02 598.94L481.02 598.94L480.72 598.1L480.72 598.1L480.72 598.04L480.72 598.04L480.36 597.26L480.36 597.26L480.36 597.2L480.36 597.2L479.94 596.48L479.94 596.48L479.88 596.48C 479.402 595.677 478.647 595.123 478.02 594.44L478.02 594.44L477.3 593.9L477.3 593.9L477.3 593.84L477.3 593.84L476.58 593.42" stroke="none" fill="#FF0000" fill-rule="nonzero" /></g></g><g clip-path="url(#14)"><g clip-path="url(#15)"><path id="780" transform="matrix(1 0 0 -1 0 842)" d="M262.92 394.22L276.36 394.22L276.36 407.66L262.92 407.66z" stroke="none" fill="#FFFFFF" fill-rule="nonzero" /></g></g><g clip-path="url(#16)"><g clip-path="url(#17)"><g clip-path="url(#18)"><g transform="matrix(0.48 0 0 0.48 262.92 434.34)"><g transform="matrix(1 0 0 1 0 0)"><image x="0" y="0" xlink:href="img_217.png" width="28" height="28" /></g></g></g></g></g><g clip-path="url(#19)"><g clip-path="url(#20)"><path id="782" transform="matrix(1 0 0 -1 0 842)" d="M216.96 236.42L503.76 236.42L503.76 356.18L216.96 356.18z" stroke="none" fill="#FFFFFF" fill-rule="nonzero" /></g></g><g clip-path="url(#21)"><g clip-path="url(#22)"><g clip-path="url(#23)"><g transform="matrix(0.48 0 0 0.47904 216.96 485.82)"><g transform="matrix(1 0 0 1 0 0)"><image x="0" y="0" xlink:href="img_408.png" width="598" height="250" /></g></g></g></g></g><g clip-path="url(#24)"><g clip-path="url(#25)"><path id="784" transform="matrix(1 0 0 -1 0 842)" d="M328.56 280.04L327.66 279.98L327.66 279.98L326.76 279.86L326.76 279.86L326.88 279.92L326.88 279.92L326.04 279.68L326.04 279.68L325.2 279.38L325.2 279.38L325.26 279.38L325.26 279.38L324.48 279.02L324.48 279.02L324.54 279.08L324.54 279.08L323.1 278.12L323.1 278.12L323.16 278.12L323.16 278.12L322.5 277.52L322.5 277.52L322.56 277.58L322.56 277.58L321.48 276.26L321.48 276.26L321.54 276.38L321.54 276.38L320.7 274.82L320.7 274.82L320.7 274.88L320.7 274.88L320.4 274.04L320.4 274.04L320.16 273.2L320.16 273.2L320.22 273.32L320.22 273.32L320.1 272.42L320.1 272.42L320.04 271.52L320.04 271.52L320.04 271.58L320.04 271.58L320.1 270.62L320.1 270.62L320.1 270.68L320.1 270.68L320.22 269.84L320.22 269.84L320.16 269.9L320.16 269.9L320.4 269L320.4 269L320.4 269.06L320.4 269.06L320.7 268.22L320.7 268.22L320.7 268.28L320.7 268.28L321.12 267.5L321.12 267.5L321.54 266.78L321.54 266.78L321.48 266.84L321.48 266.84L322.02 266.12L322.02 266.12L322.56 265.52L322.56 265.52L322.5 265.58L322.5 265.58L323.16 264.98L323.16 264.98L323.1 265.04L323.1 265.04L323.82 264.5L323.82 264.5L324.54 264.08L324.54 264.08L324.48 264.08L324.48 264.08L325.26 263.72L325.26 263.72L325.2 263.78L325.2 263.78L326.04 263.48L326.04 263.48L326.88 263.24L326.88 263.24L326.76 263.24L326.76 263.24L327.66 263.12L327.66 263.12L328.56 263.06L328.56 263.06L328.5 263.06L328.5 263.06L389.1 263.06L389.1 263.06L390.06 263.12L390.06 263.12L390 263.12L390 263.12L390.9 263.24L390.9 263.24L390.84 263.24L390.84 263.24L391.68 263.48L391.68 263.48L391.62 263.48L391.62 263.48L392.46 263.78L392.46 263.78L392.46 263.72L392.46 263.72L393.24 264.08L393.24 264.08L393.18 264.08L393.18 264.08L393.72 263.18L393.72 263.18L393.66 263.18L393.66 263.18L392.88 262.82L392.88 262.82L392.82 262.82L392.82 262.82L391.98 262.52L391.98 262.52L391.14 262.28L391.14 262.28L391.02 262.22L391.02 262.22L390.12 262.1L390.12 262.1L389.16 262.04L389.16 262.04L328.5 262.04L328.5 262.04L327.6 262.1L327.6 262.1L327.54 262.1L327.54 262.1L326.64 262.22L326.64 262.22L326.58 262.28L326.58 262.28L325.74 262.52L325.74 262.52L325.68 262.52L325.68 262.52L324.84 262.82L324.84 262.82L324.06 263.18L324.06 263.18L324 263.18L324 263.18L323.28 263.6L323.28 263.6L323.22 263.66L323.22 263.66L322.5 264.2L322.5 264.2L321.84 264.8L321.84 264.8L321.78 264.86L321.78 264.86L321.24 265.46L321.24 265.46L321.18 265.52L321.18 265.52L320.64 266.24L320.64 266.24L320.22 266.96L320.22 266.96L320.22 267.02C 317.566 271.508 319.47 277.462 324 279.92L324 279.92L324.06 279.92L324.06 279.92L324.84 280.28L324.84 280.28L324.84 280.34L324.84 280.34L325.68 280.64L325.68 280.64L325.74 280.64L325.74 280.64L326.58 280.88L326.58 280.88L326.64 280.88L326.64 280.88L327.54 281L327.54 281L327.6 281L327.6 281L328.5 281.06" stroke="none" fill="#FF0000" fill-rule="nonzero" /><path id="785" transform="matrix(1 0 0 -1 0 842)" d="M393.18 264.08L393.9 264.5L393.9 264.5L393.84 264.5L393.84 264.5L394.56 265.04L394.56 265.04L394.56 264.98L394.56 264.98L395.22 265.58L395.22 265.58L395.16 265.52L395.16 265.52L395.7 266.12L395.7 266.12L395.64 266.12L395.64 266.12L396.18 266.84L396.18 266.84L396.18 266.78L396.18 266.78L396.6 267.5L396.6 267.5L397.02 268.28L397.02 268.28L396.96 268.22L396.96 268.22L397.26 269.06L397.26 269.06L397.26 268.94L397.26 268.94L397.44 269.84L397.44 269.84L397.44 269.9L397.44 269.9L397.62 270.74L397.62 270.74L397.62 270.62L397.62 270.62L397.62 272.48L397.62 272.48L397.62 272.36L397.62 272.36L397.44 273.26L397.44 273.26L397.26 274.1L397.26 274.1L397.26 274.04L397.26 274.04L396.96 274.88L396.96 274.88L397.02 274.82L397.02 274.82L396.18 276.38L396.18 276.38L396.24 276.26L396.24 276.26L395.16 277.58L395.16 277.58L395.22 277.52L395.22 277.52L394.56 278.12L394.56 278.12L394.62 278.12L394.62 278.12L393.18 279.08L393.18 279.08L393.24 279.02L393.24 279.02L392.46 279.38L392.46 279.38L391.62 279.68L391.62 279.68L391.68 279.68L391.68 279.68L390.84 279.92L390.84 279.92L390.9 279.86L390.9 279.86L390 279.98L390 279.98L390.06 279.98L390.06 279.98L389.1 280.04L389.1 280.04L328.5 280.04L328.5 280.04L328.56 280.04L328.56 280.04L328.5 281.06L328.5 281.06L389.1 281.06C 392.248 281.094 395.241 279.523 397.02 276.92L397.02 276.92L397.08 276.86L397.08 276.86L397.5 276.08C 399.054 273.426 399.065 269.672 397.5 267.02L397.5 267.02L397.5 266.96L397.5 266.96L397.08 266.24L397.08 266.24L397.02 266.24L397.02 266.24L396.48 265.52L396.48 265.52L396.48 265.46L396.48 265.46L395.94 264.86L395.94 264.86L395.88 264.8L395.88 264.8L395.22 264.2L395.22 264.2L395.16 264.2L395.16 264.2L394.44 263.66L394.44 263.66L394.44 263.6L394.44 263.6L393.72 263.18" stroke="none" fill="#FF0000" fill-rule="nonzero" /></g></g></g></g></svg>