<svg xmlns="http://www.w3.org/2000/svg" xmlns:xlink="http://www.w3.org/1999/xlink" id="body_168" preserveAspectRatio="xMinYMin meet" viewBox="0 0 793 1123"><defs><clipPath id="1"><path id="" clip-rule="evenodd" transform="matrix(1 0 0 1 0 0)" d="M0 842L0 0L0 0L595 0L595 0L595 842L595 842L0 842z" /></clipPath><clipPath id="2"><path id="" clip-rule="evenodd" transform="matrix(1 0 0 1 0 0)" d="M305.22 236.58L320.7 236.58L320.7 236.58L320.7 252.06L320.7 252.06L305.22 252.06z" /></clipPath><clipPath id="3"><path id="" clip-rule="evenodd" transform="matrix(1 0 0 1 0 0)" d="M0 0.02001953L595.2 0.02001953L595.2 0.02001953L595.2 842L595.2 842L0 842z" /></clipPath><clipPath id="4"><path id="" clip-rule="evenodd" transform="matrix(1 0 0 1 0 0)" d="M306.24 237.6L319.68 237.6L319.68 237.6L319.68 251.04L319.68 251.04L306.24 251.04z" /></clipPath><clipPath id="5"><path id="" clip-rule="evenodd" transform="matrix(1 0 0 1 0 0)" d="M305.22 236.58L320.7 236.58L320.7 236.58L320.7 252.06L320.7 252.06L305.22 252.06z" /></clipPath><clipPath id="6"><path id="" clip-rule="evenodd" transform="matrix(1 0 0 1 0 0)" d="M0 0.02001953L595.2 0.02001953L595.2 0.02001953L595.2 842L595.2 842L0 842z" /></clipPath><clipPath id="7"><path id="" clip-rule="evenodd" transform="matrix(1 0 0 1 0 0)" d="M44.94 270.06L472.98 270.06L472.98 270.06L472.98 474.12L472.98 474.12L44.94 474.12z" /></clipPath><clipPath id="8"><path id="" clip-rule="evenodd" transform="matrix(1 0 0 1 0 0)" d="M0 0.02001953L595.2 0.02001953L595.2 0.02001953L595.2 842L595.2 842L0 842z" /></clipPath><clipPath id="9"><path id="" clip-rule="evenodd" transform="matrix(1 0 0 1 0 0)" d="M45.96 271.02L471.96 271.02L471.96 271.02L471.96 473.1L471.96 473.1L45.96 473.1z" /></clipPath><clipPath id="10"><path id="" clip-rule="evenodd" transform="matrix(1 0 0 1 0 0)" d="M44.94 270.06L472.98 270.06L472.98 270.06L472.98 474.12L472.98 474.12L44.94 474.12z" /></clipPath><clipPath id="11"><path id="" clip-rule="evenodd" transform="matrix(1 0 0 1 0 0)" d="M0 0.02001953L595.2 0.02001953L595.2 0.02001953L595.2 842L595.2 842L0 842z" /></clipPath><clipPath id="12"><path id="" clip-rule="evenodd" transform="matrix(1 0 0 1 0 0)" d="M44.94 270.06L472.98 270.06L472.98 270.06L472.98 474.12L472.98 474.12L44.94 474.12z" /></clipPath><clipPath id="13"><path id="" clip-rule="evenodd" transform="matrix(1 0 0 1 0 0)" d="M0 0.02001953L595.2 0.02001953L595.2 0.02001953L595.2 842L595.2 842L0 842z" /></clipPath></defs><g transform="matrix(1.333333 0 0 1.333333 0 0)"><g clip-path="url(#1)"><g clip-path="url(#2)"><g clip-path="url(#3)"><path id="920" transform="matrix(1 0 0 -1 0 842)" d="M306.24 590.96L319.68 590.96L319.68 604.4L306.24 604.4z" stroke="none" fill="#FFFFFF" fill-rule="nonzero" /></g></g><g clip-path="url(#4)"><g clip-path="url(#5)"><g clip-path="url(#6)"><g transform="matrix(0.48 0 0 0.48 306.24 237.6)"><g transform="matrix(1 0 0 1 0 0)"><image x="0" y="0" xlink:href="img_217.png" width="28" height="28" /></g></g></g></g></g><g clip-path="url(#7)"><g clip-path="url(#8)"><path id="953" transform="matrix(1 0 0 -1 0 842)" d="M45.96 368.9L471.96 368.9L471.96 570.98L45.96 570.98z" stroke="none" fill="#FFFFFF" fill-rule="nonzero" /></g></g><g clip-path="url(#9)"><g clip-path="url(#10)"><g clip-path="url(#11)"><g transform="matrix(0.48 0 0 0.48 45.96 271.02)"><g transform="matrix(1 0 0 1 0 0)"><image x="0" y="0" xlink:href="img_417.png" width="888" height="421" /></g></g></g></g></g><g clip-path="url(#12)"><g clip-path="url(#13)"><path id="955" transform="matrix(1 0 0 -1 0 842)" d="M396.12 449.12L394.68 449L394.68 449L394.74 449.06L394.74 449.06L394.08 448.88L394.08 448.88L394.14 448.88L394.14 448.88L393.48 448.64L393.48 448.64L393.54 448.64L393.54 448.64L392.88 448.34L392.88 448.34L392.94 448.34L392.94 448.34L392.34 447.98L392.34 447.98L392.34 448.04L392.34 448.04L391.8 447.62L391.8 447.62L391.86 447.62L391.86 447.62L391.32 447.14L391.32 447.14L391.38 447.26L391.38 447.26L390.54 446.18L390.54 446.18L390.6 446.18L390.6 446.18L390.24 445.58L390.24 445.58L390.24 445.64L390.24 445.64L389.94 445.04L389.94 445.04L389.94 445.1L389.94 445.1L389.7 444.44L389.7 444.44L389.7 444.5L389.7 444.5L389.52 443.78L389.52 443.78L389.58 443.78L389.58 443.78L389.46 443.06L389.46 443.06L389.46 443.12L389.46 443.12L389.4 442.4L389.4 442.4L389.4 442.46L389.4 442.46L389.4 438.86L389.4 438.86L389.46 438.14L389.46 438.14L389.46 438.2L389.46 438.2L389.58 437.48L389.58 437.48L389.52 437.54L389.52 437.54L389.7 436.82L389.7 436.82L389.7 436.88L389.7 436.88L389.94 436.22L389.94 436.22L389.94 436.28L389.94 436.28L390.24 435.68L390.24 435.68L390.6 435.08L390.6 435.08L390.54 435.14L390.54 435.14L391.38 434.06L391.38 434.06L391.32 434.12L391.32 434.12L391.86 433.64L391.86 433.64L391.8 433.7L391.8 433.7L392.34 433.34L392.34 433.34L392.94 432.98L392.94 432.98L392.88 432.98L392.88 432.98L393.54 432.62L393.54 432.62L393.48 432.68L393.48 432.68L394.14 432.44L394.14 432.44L394.08 432.44L394.08 432.44L394.74 432.26L394.74 432.26L394.68 432.26L394.68 432.26L396.12 432.14L396.12 432.14L396.06 432.14L396.06 432.14L436.98 432.14L436.98 432.14L438.42 432.26L438.42 432.26L438.3 432.26L438.3 432.26L438.96 432.44L438.96 432.44L438.9 432.44L438.9 432.44L439.56 432.68L439.56 432.68L439.5 432.62L439.5 432.62L440.16 432.98L440.16 432.98L440.7 432.08L440.7 432.08L440.64 432.08L440.64 432.08L439.98 431.72L439.98 431.72L439.92 431.72L439.92 431.72L439.26 431.48L439.26 431.48L439.2 431.48L439.2 431.48L438.54 431.3L438.54 431.3L438.48 431.24L438.48 431.24L437.04 431.12L437.04 431.12L396.06 431.12L396.06 431.12L394.62 431.24L394.62 431.24L394.5 431.3L394.5 431.3L393.84 431.48L393.84 431.48L393.78 431.48L393.78 431.48L393.12 431.72L393.12 431.72L393.06 431.72L393.06 431.72L392.4 432.08L392.4 432.08L391.8 432.44L391.8 432.44L391.8 432.5L391.8 432.5L391.26 432.86L391.26 432.86L391.2 432.86L391.2 432.86L390.66 433.34L390.66 433.34L390.6 433.46L390.6 433.46L389.76 434.54L389.76 434.54L389.7 434.54L389.7 434.54L389.34 435.14L389.34 435.14L389.34 435.2C 387.972 437.37 388.403 440.825 388.44 443.24L388.44 443.24L388.56 443.96L388.56 443.96L388.56 444.02C 388.874 446.015 390.61 448.309 392.4 449.24L392.4 449.24L392.46 449.24L392.46 449.24L393.12 449.54L393.12 449.54L393.12 449.6L393.12 449.6L393.78 449.84L393.78 449.84L393.84 449.84L393.84 449.84L394.5 450.02L394.5 450.02L394.62 450.02L394.62 450.02L396.06 450.14" stroke="none" fill="#FF0000" fill-rule="nonzero" /><path id="956" transform="matrix(1 0 0 -1 0 842)" d="M440.16 432.98L440.76 433.34L440.76 433.34L441.3 433.7L441.3 433.7L441.24 433.64L441.24 433.64L441.78 434.12L441.78 434.12L441.72 434.06L441.72 434.06L442.56 435.14L442.56 435.14L442.5 435.08L442.5 435.08L442.86 435.68L442.86 435.68L443.16 436.28L443.16 436.28L443.1 436.22L443.1 436.22L443.34 436.88L443.34 436.88L443.34 436.82L443.34 436.82L443.52 437.54L443.52 437.54L443.52 437.48L443.52 437.48L443.64 438.2L443.64 438.2L443.64 438.14L443.64 438.14L443.7 438.86L443.7 438.86L443.7 442.46L443.7 442.46L443.7 442.4L443.7 442.4L443.64 443.12L443.64 443.12L443.64 443.06L443.64 443.06L443.52 443.78L443.52 443.78L443.34 444.5L443.34 444.5L443.34 444.44L443.34 444.44L443.1 445.1L443.1 445.1L443.16 445.04L443.16 445.04L442.86 445.64L442.86 445.64L442.86 445.58L442.86 445.58L442.5 446.18L442.5 446.18L442.56 446.18L442.56 446.18L441.72 447.26L441.72 447.26L441.78 447.14L441.78 447.14L441.24 447.62L441.24 447.62L440.7 448.04L440.7 448.04L440.76 447.98L440.76 447.98L440.16 448.34L440.16 448.34L440.22 448.34L440.22 448.34L439.56 448.64L439.56 448.64L438.9 448.88L438.9 448.88L438.96 448.88L438.96 448.88L438.3 449.06L438.3 449.06L438.42 449L438.42 449L436.98 449.12L436.98 449.12L396.06 449.12L396.06 449.12L396.12 449.12L396.12 449.12L396.06 450.14L396.06 450.14L437.04 450.14L437.04 450.14L438.48 450.02L438.48 450.02L438.54 450.02L438.54 450.02L439.2 449.84L439.2 449.84L439.26 449.84L439.26 449.84L439.92 449.6L439.92 449.6L439.98 449.54L439.98 449.54L440.64 449.24L440.64 449.24L440.7 449.24L440.7 449.24L441.3 448.88L441.3 448.88L441.3 448.82C 445.134 446.171 444.883 442.272 444.66 438.02L444.66 438.02L444.54 437.3L444.54 437.3L444.48 437.3L444.48 437.3L444.3 436.58L444.3 436.58L444.3 436.52L444.3 436.52L444.06 435.86L444.06 435.86L444.06 435.8L444.06 435.8L443.76 435.2L443.76 435.2L443.76 435.14L443.76 435.14L443.4 434.54L443.4 434.54L443.34 434.54L443.34 434.54L442.5 433.46L442.5 433.46L442.44 433.34L442.44 433.34L441.9 432.86L441.9 432.86L441.84 432.86L441.84 432.86L441.3 432.5L441.3 432.5L441.3 432.44L441.3 432.44L440.7 432.08" stroke="none" fill="#FF0000" fill-rule="nonzero" /><path id="957" transform="matrix(1 0 0 -1 0 842)" d="M96.54 406.4L95.1 406.28L95.1 406.28L95.16 406.34L95.16 406.34L94.5 406.16L94.5 406.16L94.56 406.16L94.56 406.16L93.9 405.92L93.9 405.92L93.96 405.92L93.96 405.92L93.3 405.62L93.3 405.62L93.36 405.62L93.36 405.62L92.76 405.26L92.76 405.26L92.76 405.32L92.76 405.32L92.22 404.9L92.22 404.9L92.28 404.96L92.28 404.96L91.8 404.48L91.8 404.48L91.86 404.48L91.86 404.48L91.38 403.94L91.38 403.94L91.38 404L91.38 404L90.96 403.46L90.96 403.46L91.02 403.46L91.02 403.46L90.66 402.86L90.66 402.86L90.66 402.92L90.66 402.92L90.36 402.32L90.36 402.32L90.36 402.38L90.36 402.38L90.12 401.72L90.12 401.72L90.12 401.78L90.12 401.78L89.94 401.06L89.94 401.06L90 401.06L90 401.06L89.88 400.34L89.88 400.34L89.88 400.4L89.88 400.4L89.82 399.68L89.82 399.68L89.82 399.74L89.82 399.74L89.82 396.14L89.82 396.14L89.88 395.42L89.88 395.42L89.88 395.48L89.88 395.48L90 394.76L90 394.76L89.94 394.82L89.94 394.82L90.12 394.1L90.12 394.1L90.12 394.16L90.12 394.16L90.36 393.5L90.36 393.5L90.36 393.56L90.36 393.56L90.66 392.96L90.66 392.96L91.02 392.36L91.02 392.36L90.96 392.42L90.96 392.42L91.38 391.88L91.38 391.88L91.86 391.34L91.86 391.34L91.8 391.4L91.8 391.4L92.28 390.92L92.28 390.92L92.22 390.98L92.22 390.98L92.76 390.62L92.76 390.62L93.36 390.26L93.36 390.26L93.3 390.26L93.3 390.26L93.96 389.9L93.96 389.9L93.9 389.96L93.9 389.96L94.56 389.72L94.56 389.72L94.5 389.72L94.5 389.72L95.16 389.54L95.16 389.54L95.1 389.54L95.1 389.54L96.54 389.42L96.54 389.42L96.48 389.42L96.48 389.42L181.08 389.42L181.08 389.42L181.86 389.48L181.86 389.48L182.58 389.54L182.58 389.54L182.46 389.54L182.46 389.54L183.12 389.72L183.12 389.72L183.06 389.72L183.06 389.72L183.72 389.96L183.72 389.96L183.66 389.9L183.66 389.9L184.32 390.26L184.32 390.26L184.86 389.36L184.86 389.36L184.8 389.36L184.8 389.36L184.14 389L184.14 389L184.08 389L184.08 389L183.42 388.76L183.42 388.76L183.36 388.76L183.36 388.76L182.7 388.58L182.7 388.58L182.64 388.52L182.64 388.52L181.92 388.46L181.92 388.46L181.14 388.4L181.14 388.4L96.48 388.4L96.48 388.4L95.04 388.52L95.04 388.52L94.92 388.58L94.92 388.58L94.26 388.76L94.26 388.76L94.2 388.76L94.2 388.76L93.54 389L93.54 389L93.48 389L93.48 389L92.82 389.36L92.82 389.36L92.22 389.72L92.22 389.72L92.22 389.78L92.22 389.78L91.68 390.14C 91.053 390.558 90.627 391.233 90.18 391.82L90.18 391.82L90.12 391.82L90.12 391.82L89.76 392.42L89.76 392.42L89.76 392.48C 88.431 394.367 88.674 399.232 88.98 401.24L88.98 401.24L88.98 401.3L88.98 401.3L89.16 402.02L89.16 402.02L89.16 402.08C 89.311 402.628 89.854 403.645 90.18 404.06L90.18 404.06L90.6 404.6L90.6 404.6L91.08 405.14L91.08 405.14L91.08 405.2L91.08 405.2L91.56 405.68L91.56 405.68L91.62 405.68L91.62 405.68L92.16 406.1L92.16 406.1L92.22 406.16L92.22 406.16L92.82 406.52L92.82 406.52L92.88 406.52L92.88 406.52L93.54 406.82L93.54 406.82L93.54 406.88L93.54 406.88L94.2 407.12L94.2 407.12L94.26 407.12L94.26 407.12L94.92 407.3L94.92 407.3L95.04 407.3L95.04 407.3L96.48 407.42" stroke="none" fill="#FF0000" fill-rule="nonzero" /><path id="958" transform="matrix(1 0 0 -1 0 842)" d="M184.32 390.26L184.92 390.62L184.92 390.62L185.46 390.98L185.46 390.98L185.34 390.92L185.34 390.92L185.82 391.4L185.82 391.4L185.82 391.34L185.82 391.34L186.3 391.88L186.3 391.88L186.72 392.42L186.72 392.42L186.66 392.36L186.66 392.36L187.02 392.96L187.02 392.96L187.32 393.56L187.32 393.56L187.26 393.5L187.26 393.5L187.5 394.16L187.5 394.16L187.5 394.1L187.5 394.1L187.68 394.82L187.68 394.82L187.68 394.76L187.68 394.76L187.8 395.48L187.8 395.48L187.8 395.42L187.8 395.42L187.8 400.46L187.8 400.46L187.8 400.34L187.8 400.34L187.68 401.06L187.68 401.06L187.5 401.78L187.5 401.78L187.5 401.72L187.5 401.72L187.26 402.38L187.26 402.38L187.32 402.32L187.32 402.32L187.02 402.92L187.02 402.92L187.02 402.86L187.02 402.86L186.66 403.46L186.66 403.46L186.72 403.46L186.72 403.46L186.3 404L186.3 404L186.3 403.94L186.3 403.94L185.82 404.48L185.82 404.48L185.34 404.96L185.34 404.96L185.4 404.9L185.4 404.9L184.86 405.32L184.86 405.32L184.92 405.26L184.92 405.26L184.32 405.62L184.32 405.62L184.38 405.62L184.38 405.62L183.72 405.92L183.72 405.92L183.06 406.16L183.06 406.16L183.12 406.16L183.12 406.16L182.46 406.34L182.46 406.34L182.58 406.28L182.58 406.28L181.86 406.34L181.86 406.34L181.08 406.4L181.08 406.4L96.48001 406.4L96.48001 406.4L96.54001 406.4L96.54001 406.4L96.48001 407.42L96.48001 407.42L181.14 407.42L181.14 407.42L181.92 407.36L181.92 407.36L182.64 407.3L182.64 407.3L182.7 407.3L182.7 407.3L183.36 407.12L183.36 407.12L183.42 407.12L183.42 407.12L184.08 406.88L184.08 406.88L184.14 406.82L184.14 406.82L184.8 406.52L184.8 406.52L184.86 406.52L184.86 406.52L185.46 406.16L185.46 406.16L185.46 406.1C 189.517 403.084 188.814 399.915 188.82 395.3L188.82 395.3L188.7 394.58L188.7 394.58L188.64 394.58L188.64 394.58L188.46 393.86L188.46 393.86L188.46 393.8L188.46 393.8L188.22 393.14L188.22 393.14L188.22 393.08L188.22 393.08L187.92 392.48L187.92 392.48L187.92 392.42L187.92 392.42L187.56 391.82L187.56 391.82L187.5 391.82C 187.033 391.128 186.615 390.696 186 390.14L186 390.14L185.46 389.78L185.46 389.78L185.46 389.72L185.46 389.72L184.86 389.36" stroke="none" fill="#FF0000" fill-rule="nonzero" /></g></g></g></g></svg>