<svg xmlns="http://www.w3.org/2000/svg" xmlns:xlink="http://www.w3.org/1999/xlink" id="body_38" preserveAspectRatio="xMinYMin meet" viewBox="0 0 793 1123"><defs><clipPath id="1"><path id="" clip-rule="evenodd" transform="matrix(1 0 0 1 0 0)" d="M0 842L0 0L0 0L595 0L595 0L595 842L595 842L0 842z" /></clipPath></defs><g transform="matrix(1.333333 0 0 1.333333 0 0)"><g clip-path="url(#1)"><path id="321" transform="matrix(1 0 0 -1 0 842)" d="M224.94 610.94L233.82 610.94L233.82 630.98L224.94 630.98z" stroke="none" fill="#C4DFF7" fill-rule="nonzero" /><path id="322" transform="matrix(1 0 0 -1 0 842)" d="M233.82 630.98L558 630.98L558 610.94L233.82 610.94" stroke="none" fill="#EAEAEA" fill-rule="nonzero" /><path id="331" transform="matrix(1 0 0 -1 0 842)" d="M224.94 470.96L233.82 470.96L233.82 610.94L224.94 610.94z" stroke="none" fill="#C4DFF7" fill-rule="nonzero" /><path id="332" transform="matrix(1 0 0 -1 0 842)" d="M233.82 610.94L558 610.94L558 470.96L233.82 470.96" stroke="none" fill="#EAEAEA" fill-rule="nonzero" /></g></g></svg>