<svg xmlns="http://www.w3.org/2000/svg" xmlns:xlink="http://www.w3.org/1999/xlink" id="body_52" preserveAspectRatio="xMinYMin meet" viewBox="0 0 793 1123"><defs><clipPath id="1"><path id="" clip-rule="evenodd" transform="matrix(1 0 0 1 0 0)" d="M0 842L0 0L0 0L595 0L595 0L595 842L595 842L0 842z" /></clipPath><clipPath id="2"><path id="" clip-rule="evenodd" transform="matrix(1 0 0 1 0 0)" d="M215.94 190.02L234.54 190.02L234.54 190.02L234.54 207.9L234.54 207.9L215.94 207.9z" /></clipPath><clipPath id="3"><path id="" clip-rule="evenodd" transform="matrix(1 0 0 1 0 0)" d="M0 0.02001953L595.2 0.02001953L595.2 0.02001953L595.2 842L595.2 842L0 842z" /></clipPath><clipPath id="4"><path id="" clip-rule="evenodd" transform="matrix(1 0 0 1 0 0)" d="M216.96 191.04L233.52 191.04L233.52 191.04L233.52 206.88L233.52 206.88L216.96 206.88z" /></clipPath><clipPath id="5"><path id="" clip-rule="evenodd" transform="matrix(1 0 0 1 0 0)" d="M215.94 190.02L234.54 190.02L234.54 190.02L234.54 207.9L234.54 207.9L215.94 207.9z" /></clipPath><clipPath id="6"><path id="" clip-rule="evenodd" transform="matrix(1 0 0 1 0 0)" d="M0 0.02001953L595.2 0.02001953L595.2 0.02001953L595.2 842L595.2 842L0 842z" /></clipPath></defs><g transform="matrix(1.333333 0 0 1.333333 0 0)"><g clip-path="url(#1)"><path id="147" transform="matrix(1 0 0 -1 0 842)" d="M215.94 691.94L344.58 691.94L344.58 709.94L215.94 709.94z" stroke="none" fill="#C4DFF7" fill-rule="nonzero" /><path id="155" transform="matrix(1 0 0 -1 0 842)" d="M344.58 709.94L549 709.94L549 691.94L344.58 691.94" stroke="none" fill="#C4DFF7" fill-rule="nonzero" /><path id="412" transform="matrix(1 0 0 -1 0 842)" d="M215.94 657.74L549 657.74L549 658.22L215.94 658.22z" stroke="none" fill="#000000" fill-rule="nonzero" /><path id="413" transform="matrix(1 0 0 -1 0 842)" d="M215.94 609.74L549 609.74L549 610.22L215.94 610.22z" stroke="none" fill="#000000" fill-rule="nonzero" /><path id="414" transform="matrix(1 0 0 -1 0 842)" d="M215.94 561.2L549 561.2L549 562.7L215.94 562.7z" stroke="none" fill="#000000" fill-rule="nonzero" /><g clip-path="url(#2)"><g clip-path="url(#3)"><path id="415" transform="matrix(1 0 0 -1 0 842)" d="M216.96 635.12L233.52 635.12L233.52 650.96L216.96 650.96z" stroke="none" fill="#FFFFFF" fill-rule="nonzero" /></g></g><g clip-path="url(#4)"><g clip-path="url(#5)"><g clip-path="url(#6)"><g transform="matrix(0.48 0 0 0.48 216.96 191.04)"><g transform="matrix(1 0 0 1 0 0)"><image x="0" y="0" xlink:href="img_122.png" width="35" height="33" /></g></g></g></g></g></g></g></svg>