<svg xmlns="http://www.w3.org/2000/svg" xmlns:xlink="http://www.w3.org/1999/xlink" id="body_172" preserveAspectRatio="xMinYMin meet" viewBox="0 0 793 1123"><defs><clipPath id="1"><path id="" clip-rule="evenodd" transform="matrix(1 0 0 1 0 0)" d="M0 842L0 0L0 0L595 0L595 0L595 842L595 842L0 842z" /></clipPath><clipPath id="2"><path id="" clip-rule="evenodd" transform="matrix(1 0 0 1 0 0)" d="M215.94 116.04L367.56 116.04L367.56 116.04L367.56 255.3L367.56 255.3L215.94 255.3z" /></clipPath><clipPath id="3"><path id="" clip-rule="evenodd" transform="matrix(1 0 0 1 0 0)" d="M0 0.02001953L595.2 0.02001953L595.2 0.02001953L595.2 842L595.2 842L0 842z" /></clipPath><clipPath id="4"><path id="" clip-rule="evenodd" transform="matrix(1 0 0 1 0 0)" d="M216.96 117.06L366.54 117.06L366.54 117.06L366.54 254.28L366.54 254.28L216.96 254.28z" /></clipPath><clipPath id="5"><path id="" clip-rule="evenodd" transform="matrix(1 0 0 1 0 0)" d="M215.94 116.04L367.56 116.04L367.56 116.04L367.56 255.3L367.56 255.3L215.94 255.3z" /></clipPath><clipPath id="6"><path id="" clip-rule="evenodd" transform="matrix(1 0 0 1 0 0)" d="M0 0.02001953L595.2 0.02001953L595.2 0.02001953L595.2 842L595.2 842L0 842z" /></clipPath><clipPath id="7"><path id="" clip-rule="evenodd" transform="matrix(1 0 0 1 0 0)" d="M215.94 407.34L381.18 407.34L381.18 407.34L381.18 555.24L381.18 555.24L215.94 555.24z" /></clipPath><clipPath id="8"><path id="" clip-rule="evenodd" transform="matrix(1 0 0 1 0 0)" d="M0 0.02001953L595.2 0.02001953L595.2 0.02001953L595.2 842L595.2 842L0 842z" /></clipPath><clipPath id="9"><path id="" clip-rule="evenodd" transform="matrix(1 0 0 1 0 0)" d="M216.96 408.3L380.16 408.3L380.16 408.3L380.16 554.22L380.16 554.22L216.96 554.22z" /></clipPath><clipPath id="10"><path id="" clip-rule="evenodd" transform="matrix(1 0 0 1 0 0)" d="M215.94 407.34L381.18 407.34L381.18 407.34L381.18 555.24L381.18 555.24L215.94 555.24z" /></clipPath><clipPath id="11"><path id="" clip-rule="evenodd" transform="matrix(1 0 0 1 0 0)" d="M0 0.02001953L595.2 0.02001953L595.2 0.02001953L595.2 842L595.2 842L0 842z" /></clipPath></defs><g transform="matrix(1.333333 0 0 1.333333 0 0)"><g clip-path="url(#1)"><g clip-path="url(#2)"><g clip-path="url(#3)"><path id="706" transform="matrix(1 0 0 -1 0 842)" d="M216.96 587.72L366.54 587.72L366.54 724.9399L216.96 724.9399z" stroke="none" fill="#FFFFFF" fill-rule="nonzero" /></g></g><g clip-path="url(#4)"><g clip-path="url(#5)"><g clip-path="url(#6)"><g transform="matrix(0.4795353 0 0 0.4781185 216.96 117.0601)"><g transform="matrix(1 0 0 1 0 0)"><image x="0" y="0" xlink:href="img_426.png" width="312" height="287" /></g></g></g></g></g><g clip-path="url(#7)"><g clip-path="url(#8)"><path id="708" transform="matrix(1 0 0 -1 0 842)" d="M216.96 287.78L380.16 287.78L380.16 433.7L216.96 433.7z" stroke="none" fill="#FFFFFF" fill-rule="nonzero" /></g></g><g clip-path="url(#9)"><g clip-path="url(#10)"><g clip-path="url(#11)"><g transform="matrix(0.48 0 0 0.48 216.96 408.3)"><g transform="matrix(1 0 0 1 0 0)"><image x="0" y="0" xlink:href="img_427.png" width="340" height="304" /></g></g></g></g></g></g></g></svg>