<svg xmlns="http://www.w3.org/2000/svg" xmlns:xlink="http://www.w3.org/1999/xlink" id="body_162" preserveAspectRatio="xMinYMin meet" viewBox="0 0 793 1123"><defs><clipPath id="1"><path id="" clip-rule="evenodd" transform="matrix(1 0 0 1 0 0)" d="M0 842L0 0L0 0L595 0L595 0L595 842L595 842L0 842z" /></clipPath><clipPath id="2"><path id="" clip-rule="evenodd" transform="matrix(1 0 0 1 0 0)" d="M279.96 69.59998L295.38 69.59998L295.38 69.59998L295.38 85.01996L295.38 85.01996L279.96 85.01996z" /></clipPath><clipPath id="3"><path id="" clip-rule="evenodd" transform="matrix(1 0 0 1 0 0)" d="M0 0.02001953L595.2 0.02001953L595.2 0.02001953L595.2 842L595.2 842L0 842z" /></clipPath><clipPath id="4"><path id="" clip-rule="evenodd" transform="matrix(1 0 0 1 0 0)" d="M280.92 70.62L294.36 70.62L294.36 70.62L294.36 84.06L294.36 84.06L280.92 84.06z" /></clipPath><clipPath id="5"><path id="" clip-rule="evenodd" transform="matrix(1 0 0 1 0 0)" d="M279.96 69.59998L295.38 69.59998L295.38 69.59998L295.38 85.01996L295.38 85.01996L279.96 85.01996z" /></clipPath><clipPath id="6"><path id="" clip-rule="evenodd" transform="matrix(1 0 0 1 0 0)" d="M0 0.02001953L595.2 0.02001953L595.2 0.02001953L595.2 842L595.2 842L0 842z" /></clipPath><clipPath id="7"><path id="" clip-rule="evenodd" transform="matrix(1 0 0 1 0 0)" d="M35.94 103.02L537.36 103.02L537.36 103.02L537.36 475.62L537.36 475.62L35.94 475.62z" /></clipPath><clipPath id="8"><path id="" clip-rule="evenodd" transform="matrix(1 0 0 1 0 0)" d="M0 0.02001953L595.2 0.02001953L595.2 0.02001953L595.2 842L595.2 842L0 842z" /></clipPath><clipPath id="9"><path id="" clip-rule="evenodd" transform="matrix(1 0 0 1 0 0)" d="M36.96 104.04L385.92 104.04L385.92 104.04L385.92 474.6L385.92 474.6L36.96 474.6z" /></clipPath><clipPath id="10"><path id="" clip-rule="evenodd" transform="matrix(1 0 0 1 0 0)" d="M35.94 103.02L537.36 103.02L537.36 103.02L537.36 475.62L537.36 475.62L35.94 475.62z" /></clipPath><clipPath id="11"><path id="" clip-rule="evenodd" transform="matrix(1 0 0 1 0 0)" d="M0 0.02001953L595.2 0.02001953L595.2 0.02001953L595.2 842L595.2 842L0 842z" /></clipPath><clipPath id="12"><path id="" clip-rule="evenodd" transform="matrix(1 0 0 1 0 0)" d="M35.94 103.02L537.36 103.02L537.36 103.02L537.36 475.62L537.36 475.62L35.94 475.62z" /></clipPath><clipPath id="13"><path id="" clip-rule="evenodd" transform="matrix(1 0 0 1 0 0)" d="M0 0.02001953L595.2 0.02001953L595.2 0.02001953L595.2 842L595.2 842L0 842z" /></clipPath></defs><g transform="matrix(1.333333 0 0 1.333333 0 0)"><g clip-path="url(#1)"><g clip-path="url(#2)"><g clip-path="url(#3)"><path id="425" transform="matrix(1 0 0 -1 0 842)" d="M280.92 757.94L294.36 757.94L294.36 771.38L280.92 771.38z" stroke="none" fill="#FFFFFF" fill-rule="nonzero" /></g></g><g clip-path="url(#4)"><g clip-path="url(#5)"><g clip-path="url(#6)"><g transform="matrix(0.48 0 0 0.48 280.92 70.62)"><g transform="matrix(1 0 0 1 0 0)"><image x="0" y="0" xlink:href="img_217.png" width="28" height="28" /></g></g></g></g></g><g clip-path="url(#7)"><g clip-path="url(#8)"><path id="461" transform="matrix(1 0 0 -1 0 842)" d="M36.96 367.4L385.92 367.4L385.92 737.96L36.96 737.96z" stroke="none" fill="#FFFFFF" fill-rule="nonzero" /></g></g><g clip-path="url(#9)"><g clip-path="url(#10)"><g clip-path="url(#11)"><g transform="matrix(0.48 0 0 0.48 36.96 104.04)"><g transform="matrix(1 0 0 1 0 0)"><image x="0" y="0" xlink:href="img_403.png" width="727" height="772" /></g></g></g></g></g><g clip-path="url(#12)"><g clip-path="url(#13)"><path id="463" transform="matrix(1 0 0 -1 0 842)" d="M313.56 705.62L367.56 705.62L367.56 706.64L313.56 706.64z" stroke="none" fill="#FF0000" fill-rule="nonzero" /><path id="464" transform="matrix(1 0 0 -1 0 842)" d="M366.54 672.8L367.56 672.8L367.56 706.16L366.54 706.16z" stroke="none" fill="#FF0000" fill-rule="nonzero" /><path id="465" transform="matrix(1 0 0 -1 0 842)" d="M313.08 672.8L367.02 672.8L367.02 673.82L313.08 673.82z" stroke="none" fill="#FF0000" fill-rule="nonzero" /><path id="466" transform="matrix(1 0 0 -1 0 842)" d="M313.08 673.34L314.1 673.34L314.1 706.64L313.08 706.64z" stroke="none" fill="#FF0000" fill-rule="nonzero" /><path id="467" transform="matrix(1 0 0 -1 0 842)" d="M60.72 702.08L133.44 702.08L133.44 703.1L60.72 703.1z" stroke="none" fill="#FF0000" fill-rule="nonzero" /><path id="468" transform="matrix(1 0 0 -1 0 842)" d="M132.42 672.08L133.44 672.08L133.44 702.62L132.42 702.62z" stroke="none" fill="#FF0000" fill-rule="nonzero" /><path id="469" transform="matrix(1 0 0 -1 0 842)" d="M60.24 672.08L132.9 672.08L132.9 673.1L60.24 673.1z" stroke="none" fill="#FF0000" fill-rule="nonzero" /><path id="470" transform="matrix(1 0 0 -1 0 842)" d="M60.24 672.62L61.26 672.62L61.26 703.1L60.24 703.1z" stroke="none" fill="#FF0000" fill-rule="nonzero" /><path id="471" transform="matrix(1 0 0 -1 0 842)" d="M248.04 574.46L298.98 574.46L298.98 575.48L248.04 575.48z" stroke="none" fill="#FF0000" fill-rule="nonzero" /><path id="472" transform="matrix(1 0 0 -1 0 842)" d="M297.96 391.46L298.98 391.46L298.98 575L297.96 575z" stroke="none" fill="#FF0000" fill-rule="nonzero" /><path id="473" transform="matrix(1 0 0 -1 0 842)" d="M247.56 391.46L298.44 391.46L298.44 392.48L247.56 392.48z" stroke="none" fill="#FF0000" fill-rule="nonzero" /><path id="474" transform="matrix(1 0 0 -1 0 842)" d="M247.56 392L248.58 392L248.58 575.48L247.56 575.48z" stroke="none" fill="#FF0000" fill-rule="nonzero" /></g></g></g></g></svg>