<svg xmlns="http://www.w3.org/2000/svg" xmlns:xlink="http://www.w3.org/1999/xlink" id="body_116" preserveAspectRatio="xMinYMin meet" viewBox="0 0 793 1123"><defs><clipPath id="1"><path id="" clip-rule="evenodd" transform="matrix(1 0 0 1 0 0)" d="M0 842L0 0L0 0L595 0L595 0L595 842L595 842L0 842z" /></clipPath><clipPath id="2"><path id="" clip-rule="evenodd" transform="matrix(1 0 0 1 0 0)" d="M215.94 182.04L326.22 182.04L326.22 182.04L326.22 240.66L326.22 240.66L215.94 240.66z" /></clipPath><clipPath id="3"><path id="" clip-rule="evenodd" transform="matrix(1 0 0 1 0 0)" d="M0 0.02001953L595.2 0.02001953L595.2 0.02001953L595.2 842L595.2 842L0 842z" /></clipPath><clipPath id="4"><path id="" clip-rule="evenodd" transform="matrix(1 0 0 1 0 0)" d="M216.96 183.06L325.2 183.06L325.2 183.06L325.2 239.7L325.2 239.7L216.96 239.7z" /></clipPath><clipPath id="5"><path id="" clip-rule="evenodd" transform="matrix(1 0 0 1 0 0)" d="M215.94 182.04L326.22 182.04L326.22 182.04L326.22 240.66L326.22 240.66L215.94 240.66z" /></clipPath><clipPath id="6"><path id="" clip-rule="evenodd" transform="matrix(1 0 0 1 0 0)" d="M0 0.02001953L595.2 0.02001953L595.2 0.02001953L595.2 842L595.2 842L0 842z" /></clipPath><clipPath id="7"><path id="" clip-rule="evenodd" transform="matrix(1 0 0 1 0 0)" d="M215.94 448.68L330.3 448.68L330.3 448.68L330.3 502.98L330.3 502.98L215.94 502.98z" /></clipPath><clipPath id="8"><path id="" clip-rule="evenodd" transform="matrix(1 0 0 1 0 0)" d="M0 0.02001953L595.2 0.02001953L595.2 0.02001953L595.2 842L595.2 842L0 842z" /></clipPath><clipPath id="9"><path id="" clip-rule="evenodd" transform="matrix(1 0 0 1 0 0)" d="M216.96 449.7L329.28 449.7L329.28 449.7L329.28 502.02L329.28 502.02L216.96 502.02z" /></clipPath><clipPath id="10"><path id="" clip-rule="evenodd" transform="matrix(1 0 0 1 0 0)" d="M215.94 448.68L330.3 448.68L330.3 448.68L330.3 502.98L330.3 502.98L215.94 502.98z" /></clipPath><clipPath id="11"><path id="" clip-rule="evenodd" transform="matrix(1 0 0 1 0 0)" d="M0 0.02001953L595.2 0.02001953L595.2 0.02001953L595.2 842L595.2 842L0 842z" /></clipPath><clipPath id="12"><path id="" clip-rule="evenodd" transform="matrix(1 0 0 1 0 0)" d="M215.94 627L367.74 627L367.74 627L367.74 700.32L367.74 700.32L215.94 700.32z" /></clipPath><clipPath id="13"><path id="" clip-rule="evenodd" transform="matrix(1 0 0 1 0 0)" d="M0 0.02001953L595.2 0.02001953L595.2 0.02001953L595.2 842L595.2 842L0 842z" /></clipPath><clipPath id="14"><path id="" clip-rule="evenodd" transform="matrix(1 0 0 1 0 0)" d="M216.96 628.02L366.72 628.02L366.72 628.02L366.72 699.3L366.72 699.3L216.96 699.3z" /></clipPath><clipPath id="15"><path id="" clip-rule="evenodd" transform="matrix(1 0 0 1 0 0)" d="M215.94 627L367.74 627L367.74 627L367.74 700.32L367.74 700.32L215.94 700.32z" /></clipPath><clipPath id="16"><path id="" clip-rule="evenodd" transform="matrix(1 0 0 1 0 0)" d="M0 0.02001953L595.2 0.02001953L595.2 0.02001953L595.2 842L595.2 842L0 842z" /></clipPath></defs><g transform="matrix(1.333333 0 0 1.333333 0 0)"><g clip-path="url(#1)"><g clip-path="url(#2)"><g clip-path="url(#3)"><path id="974" transform="matrix(1 0 0 -1 0 842)" d="M216.96 602.3L325.2 602.3L325.2 658.94L216.96 658.94z" stroke="none" fill="#FFFFFF" fill-rule="nonzero" /></g></g><g clip-path="url(#4)"><g clip-path="url(#5)"><g clip-path="url(#6)"><g transform="matrix(0.48 0 0 0.48 216.96 183.06)"><g transform="matrix(1 0 0 1 0 0)"><image x="0" y="0" xlink:href="img_282.png" width="226" height="118" /></g></g></g></g></g><g clip-path="url(#7)"><g clip-path="url(#8)"><path id="997" transform="matrix(1 0 0 -1 0 842)" d="M216.96 339.98L329.28 339.98L329.28 392.3L216.96 392.3z" stroke="none" fill="#FFFFFF" fill-rule="nonzero" /></g></g><g clip-path="url(#9)"><g clip-path="url(#10)"><g clip-path="url(#11)"><g transform="matrix(0.48 0 0 0.48 216.96 449.7)"><g transform="matrix(1 0 0 1 0 0)"><image x="0" y="0" xlink:href="img_283.png" width="234" height="109" /></g></g></g></g></g><g clip-path="url(#12)"><g clip-path="url(#13)"><path id="1023" transform="matrix(1 0 0 -1 0 842)" d="M216.96 142.7L366.72 142.7L366.72 213.98L216.96 213.98z" stroke="none" fill="#FFFFFF" fill-rule="nonzero" /></g></g><g clip-path="url(#14)"><g clip-path="url(#15)"><g clip-path="url(#16)"><g transform="matrix(0.48 0 0 0.4783893 216.96 628.02)"><g transform="matrix(1 0 0 1 0 0)"><image x="0" y="0" xlink:href="img_284.png" width="312" height="149" /></g></g></g></g></g></g></g></svg>