<svg xmlns="http://www.w3.org/2000/svg" xmlns:xlink="http://www.w3.org/1999/xlink" id="body_84" preserveAspectRatio="xMinYMin meet" viewBox="0 0 793 1123"><defs><clipPath id="1"><path id="" clip-rule="evenodd" transform="matrix(1 0 0 1 0 0)" d="M0 842L0 0L0 0L595 0L595 0L595 842L595 842L0 842z" /></clipPath><clipPath id="2"><path id="" clip-rule="evenodd" transform="matrix(1 0 0 1 0 0)" d="M35.94 360.06L52.08 360.06L52.08 360.06L52.08 374.76L52.08 374.76L35.94 374.76z" /></clipPath><clipPath id="3"><path id="" clip-rule="evenodd" transform="matrix(1 0 0 1 0 0)" d="M0 0.02001953L595.2 0.02001953L595.2 0.02001953L595.2 842L595.2 842L0 842z" /></clipPath><clipPath id="4"><path id="" clip-rule="evenodd" transform="matrix(1 0 0 1 0 0)" d="M36.96 361.02L51.12 361.02L51.12 361.02L51.12 373.74L51.12 373.74L36.96 373.74z" /></clipPath><clipPath id="5"><path id="" clip-rule="evenodd" transform="matrix(1 0 0 1 0 0)" d="M35.94 360.06L52.08 360.06L52.08 360.06L52.08 374.76L52.08 374.76L35.94 374.76z" /></clipPath><clipPath id="6"><path id="" clip-rule="evenodd" transform="matrix(1 0 0 1 0 0)" d="M0 0.02001953L595.2 0.02001953L595.2 0.02001953L595.2 842L595.2 842L0 842z" /></clipPath><clipPath id="7"><path id="" clip-rule="evenodd" transform="matrix(1 0 0 1 0 0)" d="M35.94 394.02L52.08 394.02L52.08 394.02L52.08 408.72L52.08 408.72L35.94 408.72z" /></clipPath><clipPath id="8"><path id="" clip-rule="evenodd" transform="matrix(1 0 0 1 0 0)" d="M0 0.02001953L595.2 0.02001953L595.2 0.02001953L595.2 842L595.2 842L0 842z" /></clipPath><clipPath id="9"><path id="" clip-rule="evenodd" transform="matrix(1 0 0 1 0 0)" d="M36.96 395.04L51.12 395.04L51.12 395.04L51.12 407.76L51.12 407.76L36.96 407.76z" /></clipPath><clipPath id="10"><path id="" clip-rule="evenodd" transform="matrix(1 0 0 1 0 0)" d="M35.94 394.02L52.08 394.02L52.08 394.02L52.08 408.72L52.08 408.72L35.94 408.72z" /></clipPath><clipPath id="11"><path id="" clip-rule="evenodd" transform="matrix(1 0 0 1 0 0)" d="M0 0.02001953L595.2 0.02001953L595.2 0.02001953L595.2 842L595.2 842L0 842z" /></clipPath><clipPath id="12"><path id="" clip-rule="evenodd" transform="matrix(1 0 0 1 0 0)" d="M35.94 428.04L52.08 428.04L52.08 428.04L52.08 442.74L52.08 442.74L35.94 442.74z" /></clipPath><clipPath id="13"><path id="" clip-rule="evenodd" transform="matrix(1 0 0 1 0 0)" d="M0 0.02001953L595.2 0.02001953L595.2 0.02001953L595.2 842L595.2 842L0 842z" /></clipPath><clipPath id="14"><path id="" clip-rule="evenodd" transform="matrix(1 0 0 1 0 0)" d="M36.96 429.06L51.12 429.06L51.12 429.06L51.12 441.78L51.12 441.78L36.96 441.78z" /></clipPath><clipPath id="15"><path id="" clip-rule="evenodd" transform="matrix(1 0 0 1 0 0)" d="M35.94 428.04L52.08 428.04L52.08 428.04L52.08 442.74L52.08 442.74L35.94 442.74z" /></clipPath><clipPath id="16"><path id="" clip-rule="evenodd" transform="matrix(1 0 0 1 0 0)" d="M0 0.02001953L595.2 0.02001953L595.2 0.02001953L595.2 842L595.2 842L0 842z" /></clipPath></defs><g transform="matrix(1.333333 0 0 1.333333 0 0)"><g clip-path="url(#1)"><path id="712" transform="matrix(1 0 0 -1 0 842)" d="M35.94 487.94L131.82 487.94L131.82 505.94L35.94 505.94z" stroke="none" fill="#C4DFF7" fill-rule="nonzero" /><path id="722" transform="matrix(1 0 0 -1 0 842)" d="M131.82 505.94L549 505.94L549 487.94L131.82 487.94" stroke="none" fill="#C4DFF7" fill-rule="nonzero" /><path id="1489" transform="matrix(1 0 0 -1 0 842)" d="M35.94 453.74L549 453.74L549 454.22L35.94 454.22z" stroke="none" fill="#000000" fill-rule="nonzero" /><path id="1490" transform="matrix(1 0 0 -1 0 842)" d="M35.94 419.72L549 419.72L549 420.2L35.94 420.2z" stroke="none" fill="#000000" fill-rule="nonzero" /><path id="1491" transform="matrix(1 0 0 -1 0 842)" d="M35.94 385.7L549 385.7L549 386.18L35.94 386.18z" stroke="none" fill="#000000" fill-rule="nonzero" /><path id="1492" transform="matrix(1 0 0 -1 0 842)" d="M35.94 337.7L549 337.7L549 338.18L35.94 338.18z" stroke="none" fill="#000000" fill-rule="nonzero" /><path id="1493" transform="matrix(1 0 0 -1 0 842)" d="M35.94 233.72L549 233.72L549 234.2L35.94 234.2z" stroke="none" fill="#000000" fill-rule="nonzero" /><path id="1494" transform="matrix(1 0 0 -1 0 842)" d="M35.94 213.14L549 213.14L549 214.64L35.94 214.64z" stroke="none" fill="#000000" fill-rule="nonzero" /><g clip-path="url(#2)"><g clip-path="url(#3)"><path id="1495" transform="matrix(1 0 0 -1 0 842)" d="M36.96 468.26L51.12 468.26L51.12 480.98L36.96 480.98z" stroke="none" fill="#FFFFFF" fill-rule="nonzero" /></g></g><g clip-path="url(#4)"><g clip-path="url(#5)"><g clip-path="url(#6)"><g transform="matrix(0.48 0 0 0.4711111 36.96 361.02)"><g transform="matrix(1 0 0 1 0 0)"><image x="0" y="0" xlink:href="img_77.png" width="30" height="27" /></g></g></g></g></g><g clip-path="url(#7)"><g clip-path="url(#8)"><path id="1497" transform="matrix(1 0 0 -1 0 842)" d="M36.96 434.24L51.12 434.24L51.12 446.96L36.96 446.96z" stroke="none" fill="#FFFFFF" fill-rule="nonzero" /></g></g><g clip-path="url(#9)"><g clip-path="url(#10)"><g clip-path="url(#11)"><g transform="matrix(0.48 0 0 0.4711111 36.96 395.04)"><g transform="matrix(1 0 0 1 0 0)"><image x="0" y="0" xlink:href="img_115.png" width="30" height="27" /></g></g></g></g></g><g clip-path="url(#12)"><g clip-path="url(#13)"><path id="1499" transform="matrix(1 0 0 -1 0 842)" d="M36.96 400.22L51.12 400.22L51.12 412.94L36.96 412.94z" stroke="none" fill="#FFFFFF" fill-rule="nonzero" /></g></g><g clip-path="url(#14)"><g clip-path="url(#15)"><g clip-path="url(#16)"><g transform="matrix(0.48 0 0 0.4711111 36.96 429.06)"><g transform="matrix(1 0 0 1 0 0)"><image x="0" y="0" xlink:href="img_201.png" width="30" height="27" /></g></g></g></g></g></g></g></svg>