<svg xmlns="http://www.w3.org/2000/svg" xmlns:xlink="http://www.w3.org/1999/xlink" id="body_197" preserveAspectRatio="xMinYMin meet" viewBox="0 0 793 1123"><defs><clipPath id="1"><path id="" clip-rule="evenodd" transform="matrix(1 0 0 1 0 0)" d="M0 842L0 0L0 0L595 0L595 0L595 842L595 842L0 842z" /></clipPath><clipPath id="2"><path id="" clip-rule="evenodd" transform="matrix(1 0 0 1 0 0)" d="M278.88 288.66L289.02 288.66L289.02 288.66L289.02 298.8L289.02 298.8L278.88 298.8z" /></clipPath><clipPath id="3"><path id="" clip-rule="evenodd" transform="matrix(1 0 0 1 0 0)" d="M0 0.02001953L595.2 0.02001953L595.2 0.02001953L595.2 842L595.2 842L0 842z" /></clipPath><clipPath id="4"><path id="" clip-rule="evenodd" transform="matrix(1 0 0 1 0 0)" d="M279.84 289.62L288 289.62L288 289.62L288 297.78L288 297.78L279.84 297.78z" /></clipPath><clipPath id="5"><path id="" clip-rule="evenodd" transform="matrix(1 0 0 1 0 0)" d="M278.88 288.66L289.02 288.66L289.02 288.66L289.02 298.8L289.02 298.8L278.88 298.8z" /></clipPath><clipPath id="6"><path id="" clip-rule="evenodd" transform="matrix(1 0 0 1 0 0)" d="M0 0.02001953L595.2 0.02001953L595.2 0.02001953L595.2 842L595.2 842L0 842z" /></clipPath><clipPath id="7"><path id="" clip-rule="evenodd" transform="matrix(1 0 0 1 0 0)" d="M287.16 302.1L296.58 302.1L296.58 302.1L296.58 311.52L296.58 311.52L287.16 311.52z" /></clipPath><clipPath id="8"><path id="" clip-rule="evenodd" transform="matrix(1 0 0 1 0 0)" d="M0 0.02001953L595.2 0.02001953L595.2 0.02001953L595.2 842L595.2 842L0 842z" /></clipPath><clipPath id="9"><path id="" clip-rule="evenodd" transform="matrix(1 0 0 1 0 0)" d="M288.12 303.12L295.56 303.12L295.56 303.12L295.56 310.56L295.56 310.56L288.12 310.56z" /></clipPath><clipPath id="10"><path id="" clip-rule="evenodd" transform="matrix(1 0 0 1 0 0)" d="M287.16 302.1L296.58 302.1L296.58 302.1L296.58 311.52L296.58 311.52L287.16 311.52z" /></clipPath><clipPath id="11"><path id="" clip-rule="evenodd" transform="matrix(1 0 0 1 0 0)" d="M0 0.02001953L595.2 0.02001953L595.2 0.02001953L595.2 842L595.2 842L0 842z" /></clipPath><clipPath id="12"><path id="" clip-rule="evenodd" transform="matrix(1 0 0 1 0 0)" d="M522.78 326.64L532.92 326.64L532.92 326.64L532.92 336.78L532.92 336.78L522.78 336.78z" /></clipPath><clipPath id="13"><path id="" clip-rule="evenodd" transform="matrix(1 0 0 1 0 0)" d="M0 0.02001953L595.2 0.02001953L595.2 0.02001953L595.2 842L595.2 842L0 842z" /></clipPath><clipPath id="14"><path id="" clip-rule="evenodd" transform="matrix(1 0 0 1 0 0)" d="M523.8 327.66L531.96 327.66L531.96 327.66L531.96 335.82L531.96 335.82L523.8 335.82z" /></clipPath><clipPath id="15"><path id="" clip-rule="evenodd" transform="matrix(1 0 0 1 0 0)" d="M522.78 326.64L532.92 326.64L532.92 326.64L532.92 336.78L532.92 336.78L522.78 336.78z" /></clipPath><clipPath id="16"><path id="" clip-rule="evenodd" transform="matrix(1 0 0 1 0 0)" d="M0 0.02001953L595.2 0.02001953L595.2 0.02001953L595.2 842L595.2 842L0 842z" /></clipPath></defs><g transform="matrix(1.333333 0 0 1.333333 0 0)"><g clip-path="url(#1)"><g clip-path="url(#2)"><g clip-path="url(#3)"><path id="1507" transform="matrix(1 0 0 -1 0 842)" d="M279.84 544.22L288 544.22L288 552.3799L279.84 552.3799z" stroke="none" fill="#FFFFFF" fill-rule="nonzero" /></g></g><g clip-path="url(#4)"><g clip-path="url(#5)"><g clip-path="url(#6)"><g transform="matrix(0.48 0 0 0.48 279.84 289.6201)"><g transform="matrix(1 0 0 1 0 0)"><image x="0" y="0" xlink:href="img_486.png" width="17" height="17" /></g></g></g></g></g><g clip-path="url(#7)"><g clip-path="url(#8)"><path id="1509" transform="matrix(1 0 0 -1 0 842)" d="M288.12 531.44L295.56 531.44L295.56 538.88L288.12 538.88z" stroke="none" fill="#FFFFFF" fill-rule="nonzero" /></g></g><g clip-path="url(#9)"><g clip-path="url(#10)"><g clip-path="url(#11)"><g transform="matrix(0.48 0 0 0.465 288.12 303.12)"><g transform="matrix(1 0 0 1 0 0)"><image x="0" y="0" xlink:href="img_246.png" width="16" height="16" /></g></g></g></g></g><g clip-path="url(#12)"><g clip-path="url(#13)"><path id="1511" transform="matrix(1 0 0 -1 0 842)" d="M523.8 506.18L531.96 506.18L531.96 514.34L523.8 514.34z" stroke="none" fill="#FFFFFF" fill-rule="nonzero" /></g></g><g clip-path="url(#14)"><g clip-path="url(#15)"><g clip-path="url(#16)"><g transform="matrix(0.48 0 0 0.48 523.8 327.66)"><g transform="matrix(1 0 0 1 0 0)"><image x="0" y="0" xlink:href="img_487.png" width="17" height="17" /></g></g></g></g></g></g></g></svg>