<svg xmlns="http://www.w3.org/2000/svg" xmlns:xlink="http://www.w3.org/1999/xlink" id="body_57" preserveAspectRatio="xMinYMin meet" viewBox="0 0 793 1123"><defs><clipPath id="1"><path id="" clip-rule="evenodd" transform="matrix(1 0 0 1 0 0)" d="M0 842L0 0L0 0L595 0L595 0L595 842L595 842L0 842z" /></clipPath></defs><g transform="matrix(1.333333 0 0 1.333333 0 0)"><g clip-path="url(#1)"><path id="2099" transform="matrix(1 0 0 -1 0 842)" d="M44.94 751.94L210.12 751.94L210.12 769.94L44.94 769.94z" stroke="none" fill="#C4DFF7" fill-rule="nonzero" /><path id="2107" transform="matrix(1 0 0 -1 0 842)" d="M210.12 769.94L558 769.94L558 751.94L210.12 751.94" stroke="none" fill="#C4DFF7" fill-rule="nonzero" /><path id="2119" transform="matrix(1 0 0 -1 0 842)" d="M44.94 679.7L558 679.7L558 680.18L44.94 680.18z" stroke="none" fill="#000000" fill-rule="nonzero" /><path id="2120" transform="matrix(1 0 0 -1 0 842)" d="M44.94 631.7L558 631.7L558 632.18L44.94 632.18z" stroke="none" fill="#000000" fill-rule="nonzero" /><path id="2121" transform="matrix(1 0 0 -1 0 842)" d="M44.94 583.7L558 583.7L558 584.18L44.94 584.18z" stroke="none" fill="#000000" fill-rule="nonzero" /><path id="2122" transform="matrix(1 0 0 -1 0 842)" d="M44.94 483.74L558 483.74L558 484.22L44.94 484.22z" stroke="none" fill="#000000" fill-rule="nonzero" /><path id="2123" transform="matrix(1 0 0 -1 0 842)" d="M44.94 411.74L558 411.74L558 412.22L44.94 412.22z" stroke="none" fill="#000000" fill-rule="nonzero" /><path id="2124" transform="matrix(1 0 0 -1 0 842)" d="M44.94 328.7L558 328.7L558 329.18L44.94 329.18z" stroke="none" fill="#000000" fill-rule="nonzero" /><path id="2125" transform="matrix(1 0 0 -1 0 842)" d="M44.94 280.7L558 280.7L558 281.18L44.94 281.18z" stroke="none" fill="#000000" fill-rule="nonzero" /><path id="2126" transform="matrix(1 0 0 -1 0 842)" d="M44.94 246.68L558 246.68L558 247.16L44.94 247.16z" stroke="none" fill="#000000" fill-rule="nonzero" /><path id="2127" transform="matrix(1 0 0 -1 0 842)" d="M44.94 160.7L558 160.7L558 161.18L44.94 161.18z" stroke="none" fill="#000000" fill-rule="nonzero" /><path id="2128" transform="matrix(1 0 0 -1 0 842)" d="M44.94 74.18L558 74.18L558 75.68L44.94 75.68z" stroke="none" fill="#000000" fill-rule="nonzero" /></g></g></svg>