<svg xmlns="http://www.w3.org/2000/svg" xmlns:xlink="http://www.w3.org/1999/xlink" id="body_224" preserveAspectRatio="xMinYMin meet" viewBox="0 0 793 1123"><defs><clipPath id="1"><path id="" clip-rule="evenodd" transform="matrix(1 0 0 1 0 0)" d="M0 842L0 0L0 0L595 0L595 0L595 842L595 842L0 842z" /></clipPath></defs><g transform="matrix(1.333333 0 0 1.333333 0 0)"><g clip-path="url(#1)"><path id="365" transform="matrix(1 0 0 -1 0 842)" d="M224.94 558.98L233.94 558.98L233.94 578.96L224.94 578.96z" stroke="none" fill="#C4DFF7" fill-rule="nonzero" /><path id="366" transform="matrix(1 0 0 -1 0 842)" d="M233.94 578.96L563.4 578.96L563.4 558.98L233.94 558.98" stroke="none" fill="#EAEAEA" fill-rule="nonzero" /><path id="375" transform="matrix(1 0 0 -1 0 842)" d="M224.94 490.94L233.94 490.94L233.94 558.98L224.94 558.98z" stroke="none" fill="#C4DFF7" fill-rule="nonzero" /><path id="376" transform="matrix(1 0 0 -1 0 842)" d="M233.94 558.98L563.4 558.98L563.4 490.94L233.94 490.94" stroke="none" fill="#EAEAEA" fill-rule="nonzero" /></g></g></svg>