<svg xmlns="http://www.w3.org/2000/svg" xmlns:xlink="http://www.w3.org/1999/xlink" id="body_160" preserveAspectRatio="xMinYMin meet" viewBox="0 0 793 1123"><defs><clipPath id="1"><path id="" clip-rule="evenodd" transform="matrix(1 0 0 1 0 0)" d="M0 842L0 0L0 0L595 0L595 0L595 842L595 842L0 842z" /></clipPath><clipPath id="2"><path id="" clip-rule="evenodd" transform="matrix(1 0 0 1 0 0)" d="M35.94 131.04L481.44 131.04L481.44 131.04L481.44 372.6L481.44 372.6L35.94 372.6z" /></clipPath><clipPath id="3"><path id="" clip-rule="evenodd" transform="matrix(1 0 0 1 0 0)" d="M0 0.02001953L595.2 0.02001953L595.2 0.02001953L595.2 842L595.2 842L0 842z" /></clipPath><clipPath id="4"><path id="" clip-rule="evenodd" transform="matrix(1 0 0 1 0 0)" d="M36.96 132.06L480.48 132.06L480.48 132.06L480.48 371.58L480.48 371.58L36.96 371.58z" /></clipPath><clipPath id="5"><path id="" clip-rule="evenodd" transform="matrix(1 0 0 1 0 0)" d="M35.94 131.04L481.44 131.04L481.44 131.04L481.44 372.6L481.44 372.6L35.94 372.6z" /></clipPath><clipPath id="6"><path id="" clip-rule="evenodd" transform="matrix(1 0 0 1 0 0)" d="M0 0.02001953L595.2 0.02001953L595.2 0.02001953L595.2 842L595.2 842L0 842z" /></clipPath><clipPath id="7"><path id="" clip-rule="evenodd" transform="matrix(1 0 0 1 0 0)" d="M35.94 496.62L487.62 496.62L487.62 496.62L487.62 740.16L487.62 740.16L35.94 740.16z" /></clipPath><clipPath id="8"><path id="" clip-rule="evenodd" transform="matrix(1 0 0 1 0 0)" d="M0 0.02001953L595.2 0.02001953L595.2 0.02001953L595.2 842L595.2 842L0 842z" /></clipPath><clipPath id="9"><path id="" clip-rule="evenodd" transform="matrix(1 0 0 1 0 0)" d="M36.96 497.64L486.6 497.64L486.6 497.64L486.6 739.14L486.6 739.14L36.96 739.14z" /></clipPath><clipPath id="10"><path id="" clip-rule="evenodd" transform="matrix(1 0 0 1 0 0)" d="M35.94 496.62L487.62 496.62L487.62 496.62L487.62 740.16L487.62 740.16L35.94 740.16z" /></clipPath><clipPath id="11"><path id="" clip-rule="evenodd" transform="matrix(1 0 0 1 0 0)" d="M0 0.02001953L595.2 0.02001953L595.2 0.02001953L595.2 842L595.2 842L0 842z" /></clipPath></defs><g transform="matrix(1.333333 0 0 1.333333 0 0)"><g clip-path="url(#1)"><g clip-path="url(#2)"><g clip-path="url(#3)"><path id="457" transform="matrix(1 0 0 -1 0 842)" d="M36.96 470.42L480.48 470.42L480.48 709.94L36.96 709.94z" stroke="none" fill="#FFFFFF" fill-rule="nonzero" /></g></g><g clip-path="url(#4)"><g clip-path="url(#5)"><g clip-path="url(#6)"><g transform="matrix(0.4796 0 0 0.47904 36.96 132.06)"><g transform="matrix(1 0 0 1 0 0)"><image x="0" y="0" xlink:href="img_399.png" width="925" height="500" /></g></g></g></g></g><g clip-path="url(#7)"><g clip-path="url(#8)"><path id="487" transform="matrix(1 0 0 -1 0 842)" d="M36.96 102.86L486.6 102.86L486.6 344.36L36.96 344.36z" stroke="none" fill="#FFFFFF" fill-rule="nonzero" /></g></g><g clip-path="url(#9)"><g clip-path="url(#10)"><g clip-path="url(#11)"><g transform="matrix(0.4795576 0 0 0.4791667 36.96 497.64)"><g transform="matrix(1 0 0 1 0 0)"><image x="0" y="0" xlink:href="img_400.png" width="938" height="504" /></g></g></g></g></g></g></g></svg>