<svg xmlns="http://www.w3.org/2000/svg" xmlns:xlink="http://www.w3.org/1999/xlink" id="body_55" preserveAspectRatio="xMinYMin meet" viewBox="0 0 793 1123"><defs><clipPath id="1"><path id="" clip-rule="evenodd" transform="matrix(1 0 0 1 0 0)" d="M0 842L0 0L0 0L595 0L595 0L595 842L595 842L0 842z" /></clipPath></defs><g transform="matrix(1.333333 0 0 1.333333 0 0)"><g clip-path="url(#1)"><path id="444" transform="matrix(1 0 0 -1 0 842)" d="M224.94 597.98L303.84 597.98L303.84 615.98L224.94 615.98z" stroke="none" fill="#C4DFF7" fill-rule="nonzero" /><path id="454" transform="matrix(1 0 0 -1 0 842)" d="M303.84 597.98L558 597.98L558 615.98L303.84 615.98z" stroke="none" fill="#C4DFF7" fill-rule="nonzero" /><path id="561" transform="matrix(1 0 0 -1 0 842)" d="M224.94 577.7L558 577.7L558 578.18L224.94 578.18z" stroke="none" fill="#000000" fill-rule="nonzero" /><path id="562" transform="matrix(1 0 0 -1 0 842)" d="M224.94 557.72L558 557.72L558 558.2L224.94 558.2z" stroke="none" fill="#000000" fill-rule="nonzero" /><path id="563" transform="matrix(1 0 0 -1 0 842)" d="M224.94 537.2L558 537.2L558 538.7L224.94 538.7z" stroke="none" fill="#000000" fill-rule="nonzero" /></g></g></svg>