<svg xmlns="http://www.w3.org/2000/svg" xmlns:xlink="http://www.w3.org/1999/xlink" id="body_20" preserveAspectRatio="xMinYMin meet" viewBox="0 0 793 1123"><defs><clipPath id="1"><path id="" clip-rule="evenodd" transform="matrix(1 0 0 1 0 0)" d="M0 842L0 0L0 0L595 0L595 0L595 842L595 842L0 842z" /></clipPath></defs><g transform="matrix(1.333333 0 0 1.333333 0 0)"><g clip-path="url(#1)"><path id="512" transform="matrix(1 0 0 -1 0 842)" d="M224.94 596.96L233.82 596.96L233.82 616.94L224.94 616.94z" stroke="none" fill="#C4DFF7" fill-rule="nonzero" /><path id="513" transform="matrix(1 0 0 -1 0 842)" d="M233.82 616.94L558 616.94L558 596.96L233.82 596.96" stroke="none" fill="#EAEAEA" fill-rule="nonzero" /><path id="522" transform="matrix(1 0 0 -1 0 842)" d="M224.94 504.98L233.82 504.98L233.82 596.96L224.94 596.96z" stroke="none" fill="#C4DFF7" fill-rule="nonzero" /><path id="523" transform="matrix(1 0 0 -1 0 842)" d="M233.82 596.96L558 596.96L558 504.98L233.82 504.98" stroke="none" fill="#EAEAEA" fill-rule="nonzero" /></g></g></svg>