<svg xmlns="http://www.w3.org/2000/svg" xmlns:xlink="http://www.w3.org/1999/xlink" id="body_150" preserveAspectRatio="xMinYMin meet" viewBox="0 0 793 1123"><defs><clipPath id="1"><path id="" clip-rule="evenodd" transform="matrix(1 0 0 1 0 0)" d="M0 842L0 0L0 0L595 0L595 0L595 842L595 842L0 842z" /></clipPath><clipPath id="2"><path id="" clip-rule="evenodd" transform="matrix(1 0 0 1 0 0)" d="M361.38 160.74L373.2 160.74L373.2 160.74L373.2 174.06L373.2 174.06L361.38 174.06z" /></clipPath><clipPath id="3"><path id="" clip-rule="evenodd" transform="matrix(1 0 0 1 0 0)" d="M0 0.02001953L595.2 0.02001953L595.2 0.02001953L595.2 842L595.2 842L0 842z" /></clipPath><clipPath id="4"><path id="" clip-rule="evenodd" transform="matrix(1 0 0 1 0 0)" d="M362.34 161.76L372.18 161.76L372.18 161.76L372.18 173.04L372.18 173.04L362.34 173.04z" /></clipPath><clipPath id="5"><path id="" clip-rule="evenodd" transform="matrix(1 0 0 1 0 0)" d="M361.38 160.74L373.2 160.74L373.2 160.74L373.2 174.06L373.2 174.06L361.38 174.06z" /></clipPath><clipPath id="6"><path id="" clip-rule="evenodd" transform="matrix(1 0 0 1 0 0)" d="M0 0.02001953L595.2 0.02001953L595.2 0.02001953L595.2 842L595.2 842L0 842z" /></clipPath><clipPath id="7"><path id="" clip-rule="evenodd" transform="matrix(1 0 0 1 0 0)" d="M333.84 331.74L345.72 331.74L345.72 331.74L345.72 345.06L345.72 345.06L333.84 345.06z" /></clipPath><clipPath id="8"><path id="" clip-rule="evenodd" transform="matrix(1 0 0 1 0 0)" d="M0 0.02001953L595.2 0.02001953L595.2 0.02001953L595.2 842L595.2 842L0 842z" /></clipPath><clipPath id="9"><path id="" clip-rule="evenodd" transform="matrix(1 0 0 1 0 0)" d="M334.86 332.76L344.7 332.76L344.7 332.76L344.7 344.04L344.7 344.04L334.86 344.04z" /></clipPath><clipPath id="10"><path id="" clip-rule="evenodd" transform="matrix(1 0 0 1 0 0)" d="M333.84 331.74L345.72 331.74L345.72 331.74L345.72 345.06L345.72 345.06L333.84 345.06z" /></clipPath><clipPath id="11"><path id="" clip-rule="evenodd" transform="matrix(1 0 0 1 0 0)" d="M0 0.02001953L595.2 0.02001953L595.2 0.02001953L595.2 842L595.2 842L0 842z" /></clipPath><clipPath id="12"><path id="" clip-rule="evenodd" transform="matrix(1 0 0 1 0 0)" d="M255.78 355.74L267.66 355.74L267.66 355.74L267.66 369.06L267.66 369.06L255.78 369.06z" /></clipPath><clipPath id="13"><path id="" clip-rule="evenodd" transform="matrix(1 0 0 1 0 0)" d="M0 0.02001953L595.2 0.02001953L595.2 0.02001953L595.2 842L595.2 842L0 842z" /></clipPath><clipPath id="14"><path id="" clip-rule="evenodd" transform="matrix(1 0 0 1 0 0)" d="M256.8 356.76L266.64 356.76L266.64 356.76L266.64 368.04L266.64 368.04L256.8 368.04z" /></clipPath><clipPath id="15"><path id="" clip-rule="evenodd" transform="matrix(1 0 0 1 0 0)" d="M255.78 355.74L267.66 355.74L267.66 355.74L267.66 369.06L267.66 369.06L255.78 369.06z" /></clipPath><clipPath id="16"><path id="" clip-rule="evenodd" transform="matrix(1 0 0 1 0 0)" d="M0 0.02001953L595.2 0.02001953L595.2 0.02001953L595.2 842L595.2 842L0 842z" /></clipPath><clipPath id="17"><path id="" clip-rule="evenodd" transform="matrix(1 0 0 1 0 0)" d="M397.86 355.74L409.68 355.74L409.68 355.74L409.68 369.06L409.68 369.06L397.86 369.06z" /></clipPath><clipPath id="18"><path id="" clip-rule="evenodd" transform="matrix(1 0 0 1 0 0)" d="M0 0.02001953L595.2 0.02001953L595.2 0.02001953L595.2 842L595.2 842L0 842z" /></clipPath><clipPath id="19"><path id="" clip-rule="evenodd" transform="matrix(1 0 0 1 0 0)" d="M398.82 356.76L408.66 356.76L408.66 356.76L408.66 368.04L408.66 368.04L398.82 368.04z" /></clipPath><clipPath id="20"><path id="" clip-rule="evenodd" transform="matrix(1 0 0 1 0 0)" d="M397.86 355.74L409.68 355.74L409.68 355.74L409.68 369.06L409.68 369.06L397.86 369.06z" /></clipPath><clipPath id="21"><path id="" clip-rule="evenodd" transform="matrix(1 0 0 1 0 0)" d="M0 0.02001953L595.2 0.02001953L595.2 0.02001953L595.2 842L595.2 842L0 842z" /></clipPath><clipPath id="22"><path id="" clip-rule="evenodd" transform="matrix(1 0 0 1 0 0)" d="M215.94 591.06L349.02 591.06L349.02 591.06L349.02 664.08L349.02 664.08L215.94 664.08z" /></clipPath><clipPath id="23"><path id="" clip-rule="evenodd" transform="matrix(1 0 0 1 0 0)" d="M0 0.02001953L595.2 0.02001953L595.2 0.02001953L595.2 842L595.2 842L0 842z" /></clipPath><clipPath id="24"><path id="" clip-rule="evenodd" transform="matrix(1 0 0 1 0 0)" d="M216.96 592.08L348 592.08L348 592.08L348 663.12L348 663.12L216.96 663.12z" /></clipPath><clipPath id="25"><path id="" clip-rule="evenodd" transform="matrix(1 0 0 1 0 0)" d="M215.94 591.06L349.02 591.06L349.02 591.06L349.02 664.08L349.02 664.08L215.94 664.08z" /></clipPath><clipPath id="26"><path id="" clip-rule="evenodd" transform="matrix(1 0 0 1 0 0)" d="M0 0.02001953L595.2 0.02001953L595.2 0.02001953L595.2 842L595.2 842L0 842z" /></clipPath></defs><g transform="matrix(1.333333 0 0 1.333333 0 0)"><g clip-path="url(#1)"><g clip-path="url(#2)"><g clip-path="url(#3)"><path id="1407" transform="matrix(1 0 0 -1 0 842)" d="M362.34 668.96L372.18 668.96L372.18 680.2401L362.34 680.2401z" stroke="none" fill="#FFFFFF" fill-rule="nonzero" /></g></g><g clip-path="url(#4)"><g clip-path="url(#5)"><g clip-path="url(#6)"><g transform="matrix(0.48 0 0 0.47 362.34 161.7599)"><g transform="matrix(1 0 0 1 0 0)"><image x="0" y="0" xlink:href="img_375.png" width="21" height="24" /></g></g></g></g></g><g clip-path="url(#7)"><g clip-path="url(#8)"><path id="1409" transform="matrix(1 0 0 -1 0 842)" d="M334.86 497.96L344.7 497.96L344.7 509.24L334.86 509.24z" stroke="none" fill="#FFFFFF" fill-rule="nonzero" /></g></g><g clip-path="url(#9)"><g clip-path="url(#10)"><g clip-path="url(#11)"><g transform="matrix(0.48 0 0 0.47 334.86 332.76)"><g transform="matrix(1 0 0 1 0 0)"><image x="0" y="0" xlink:href="img_375.png" width="21" height="24" /></g></g></g></g></g><g clip-path="url(#12)"><g clip-path="url(#13)"><path id="1411" transform="matrix(1 0 0 -1 0 842)" d="M256.8 473.96L266.64 473.96L266.64 485.24L256.8 485.24z" stroke="none" fill="#FFFFFF" fill-rule="nonzero" /></g></g><g clip-path="url(#14)"><g clip-path="url(#15)"><g clip-path="url(#16)"><g transform="matrix(0.48 0 0 0.47 256.8 356.76)"><g transform="matrix(1 0 0 1 0 0)"><image x="0" y="0" xlink:href="img_375.png" width="21" height="24" /></g></g></g></g></g><g clip-path="url(#17)"><g clip-path="url(#18)"><path id="1413" transform="matrix(1 0 0 -1 0 842)" d="M398.82 473.96L408.66 473.96L408.66 485.24L398.82 485.24z" stroke="none" fill="#FFFFFF" fill-rule="nonzero" /></g></g><g clip-path="url(#19)"><g clip-path="url(#20)"><g clip-path="url(#21)"><g transform="matrix(0.48 0 0 0.47 398.82 356.76)"><g transform="matrix(1 0 0 1 0 0)"><image x="0" y="0" xlink:href="img_376.png" width="21" height="24" /></g></g></g></g></g><g clip-path="url(#22)"><g clip-path="url(#23)"><path id="1455" transform="matrix(1 0 0 -1 0 842)" d="M216.96 178.88L348 178.88L348 249.92L216.96 249.92z" stroke="none" fill="#FFFFFF" fill-rule="nonzero" /></g></g><g clip-path="url(#24)"><g clip-path="url(#25)"><g clip-path="url(#26)"><g transform="matrix(0.48 0 0 0.48 216.96 592.08)"><g transform="matrix(1 0 0 1 0 0)"><image x="0" y="0" xlink:href="img_377.png" width="273" height="148" /></g></g></g></g></g></g></g></svg>