<svg xmlns="http://www.w3.org/2000/svg" xmlns:xlink="http://www.w3.org/1999/xlink" id="body_34" preserveAspectRatio="xMinYMin meet" viewBox="0 0 793 1123"><defs><clipPath id="1"><path id="" clip-rule="evenodd" transform="matrix(1 0 0 1 0 0)" d="M0 842L0 0L0 0L595 0L595 0L595 842L595 842L0 842z" /></clipPath><clipPath id="2"><path id="" clip-rule="evenodd" transform="matrix(1 0 0 1 0 0)" d="M224.94 139.02L559.14 139.02L559.14 139.02L559.14 300.42L559.14 300.42L224.94 300.42z" /></clipPath><clipPath id="3"><path id="" clip-rule="evenodd" transform="matrix(1 0 0 1 0 0)" d="M0 0.02001953L595.2 0.02001953L595.2 0.02001953L595.2 842L595.2 842L0 842z" /></clipPath><clipPath id="4"><path id="" clip-rule="evenodd" transform="matrix(1 0 0 1 0 0)" d="M225.96 140.04L558.12 140.04L558.12 140.04L558.12 299.4L558.12 299.4L225.96 299.4z" /></clipPath><clipPath id="5"><path id="" clip-rule="evenodd" transform="matrix(1 0 0 1 0 0)" d="M224.94 139.02L559.14 139.02L559.14 139.02L559.14 300.42L559.14 300.42L224.94 300.42z" /></clipPath><clipPath id="6"><path id="" clip-rule="evenodd" transform="matrix(1 0 0 1 0 0)" d="M0 0.02001953L595.2 0.02001953L595.2 0.02001953L595.2 842L595.2 842L0 842z" /></clipPath><clipPath id="7"><path id="" clip-rule="evenodd" transform="matrix(1 0 0 1 0 0)" d="M44.94 428.4L489.54 428.4L489.54 428.4L489.54 557.64L489.54 557.64L44.94 557.64z" /></clipPath><clipPath id="8"><path id="" clip-rule="evenodd" transform="matrix(1 0 0 1 0 0)" d="M0 0.02001953L595.2 0.02001953L595.2 0.02001953L595.2 842L595.2 842L0 842z" /></clipPath><clipPath id="9"><path id="" clip-rule="evenodd" transform="matrix(1 0 0 1 0 0)" d="M45.96 429.42L488.52 429.42L488.52 429.42L488.52 556.62L488.52 556.62L45.96 556.62z" /></clipPath><clipPath id="10"><path id="" clip-rule="evenodd" transform="matrix(1 0 0 1 0 0)" d="M44.94 428.4L489.54 428.4L489.54 428.4L489.54 557.64L489.54 557.64L44.94 557.64z" /></clipPath><clipPath id="11"><path id="" clip-rule="evenodd" transform="matrix(1 0 0 1 0 0)" d="M0 0.02001953L595.2 0.02001953L595.2 0.02001953L595.2 842L595.2 842L0 842z" /></clipPath></defs><g transform="matrix(1.333333 0 0 1.333333 0 0)"><g clip-path="url(#1)"><g clip-path="url(#2)"><g clip-path="url(#3)"><path id="656" transform="matrix(1 0 0 -1 0 842)" d="M225.96 701.96L558.12 701.96L558.12 542.6L225.96 542.6" stroke="none" fill="#FFFFFF" fill-rule="nonzero" /></g></g><g clip-path="url(#4)"><g clip-path="url(#5)"><g clip-path="url(#6)"><g transform="matrix(0.48 0 0 0.48 225.96 140.04)"><g transform="matrix(1 0 0 1 0 0)"><image x="0" y="0" xlink:href="img_72.png" width="692" height="332" /></g></g></g></g></g><g clip-path="url(#7)"><g clip-path="url(#8)"><path id="706" transform="matrix(1 0 0 -1 0 842)" d="M45.96 285.38L488.52 285.38L488.52 412.58L45.96 412.58z" stroke="none" fill="#FFFFFF" fill-rule="nonzero" /></g></g><g clip-path="url(#9)"><g clip-path="url(#10)"><g clip-path="url(#11)"><g transform="matrix(0.48 0 0 0.48 45.96 429.42)"><g transform="matrix(1 0 0 1 0 0)"><image x="0" y="0" xlink:href="img_73.png" width="922" height="265" /></g></g></g></g></g></g></g></svg>