<svg xmlns="http://www.w3.org/2000/svg" xmlns:xlink="http://www.w3.org/1999/xlink" id="body_181" preserveAspectRatio="xMinYMin meet" viewBox="0 0 793 1123"><defs><clipPath id="1"><path id="" clip-rule="evenodd" transform="matrix(1 0 0 1 0 0)" d="M0 842L0 0L0 0L595 0L595 0L595 842L595 842L0 842z" /></clipPath><clipPath id="2"><path id="" clip-rule="evenodd" transform="matrix(1 0 0 1 0 0)" d="M224.94 116.04L457.62 116.04L457.62 116.04L457.62 387.3L457.62 387.3L224.94 387.3z" /></clipPath><clipPath id="3"><path id="" clip-rule="evenodd" transform="matrix(1 0 0 1 0 0)" d="M0 0.02001953L595.2 0.02001953L595.2 0.02001953L595.2 842L595.2 842L0 842z" /></clipPath><clipPath id="4"><path id="" clip-rule="evenodd" transform="matrix(1 0 0 1 0 0)" d="M225.96 117.06L456.6 117.06L456.6 117.06L456.6 386.34L456.6 386.34L225.96 386.34z" /></clipPath><clipPath id="5"><path id="" clip-rule="evenodd" transform="matrix(1 0 0 1 0 0)" d="M224.94 116.04L457.62 116.04L457.62 116.04L457.62 387.3L457.62 387.3L224.94 387.3z" /></clipPath><clipPath id="6"><path id="" clip-rule="evenodd" transform="matrix(1 0 0 1 0 0)" d="M0 0.02001953L595.2 0.02001953L595.2 0.02001953L595.2 842L595.2 842L0 842z" /></clipPath><clipPath id="7"><path id="" clip-rule="evenodd" transform="matrix(1 0 0 1 0 0)" d="M224.94 435.3L492.18 435.3L492.18 435.3L492.18 564.54L492.18 564.54L224.94 564.54z" /></clipPath><clipPath id="8"><path id="" clip-rule="evenodd" transform="matrix(1 0 0 1 0 0)" d="M0 0.02001953L595.2 0.02001953L595.2 0.02001953L595.2 842L595.2 842L0 842z" /></clipPath><clipPath id="9"><path id="" clip-rule="evenodd" transform="matrix(1 0 0 1 0 0)" d="M225.96 436.32L491.16 436.32L491.16 436.32L491.16 563.52L491.16 563.52L225.96 563.52z" /></clipPath><clipPath id="10"><path id="" clip-rule="evenodd" transform="matrix(1 0 0 1 0 0)" d="M224.94 435.3L492.18 435.3L492.18 435.3L492.18 564.54L492.18 564.54L224.94 564.54z" /></clipPath><clipPath id="11"><path id="" clip-rule="evenodd" transform="matrix(1 0 0 1 0 0)" d="M0 0.02001953L595.2 0.02001953L595.2 0.02001953L595.2 842L595.2 842L0 842z" /></clipPath><clipPath id="12"><path id="" clip-rule="evenodd" transform="matrix(1 0 0 1 0 0)" d="M408.6 620.52L421.14 620.52L421.14 620.52L421.14 634.56L421.14 634.56L408.6 634.56z" /></clipPath><clipPath id="13"><path id="" clip-rule="evenodd" transform="matrix(1 0 0 1 0 0)" d="M0 0.02001953L595.2 0.02001953L595.2 0.02001953L595.2 842L595.2 842L0 842z" /></clipPath><clipPath id="14"><path id="" clip-rule="evenodd" transform="matrix(1 0 0 1 0 0)" d="M409.56 621.54L420.12 621.54L420.12 621.54L420.12 633.54L420.12 633.54L409.56 633.54z" /></clipPath><clipPath id="15"><path id="" clip-rule="evenodd" transform="matrix(1 0 0 1 0 0)" d="M408.6 620.52L421.14 620.52L421.14 620.52L421.14 634.56L421.14 634.56L408.6 634.56z" /></clipPath><clipPath id="16"><path id="" clip-rule="evenodd" transform="matrix(1 0 0 1 0 0)" d="M0 0.02001953L595.2 0.02001953L595.2 0.02001953L595.2 842L595.2 842L0 842z" /></clipPath><clipPath id="17"><path id="" clip-rule="evenodd" transform="matrix(1 0 0 1 0 0)" d="M288.54 646.8L301.08 646.8L301.08 646.8L301.08 660.78L301.08 660.78L288.54 660.78z" /></clipPath><clipPath id="18"><path id="" clip-rule="evenodd" transform="matrix(1 0 0 1 0 0)" d="M0 0.02001953L595.2 0.02001953L595.2 0.02001953L595.2 842L595.2 842L0 842z" /></clipPath><clipPath id="19"><path id="" clip-rule="evenodd" transform="matrix(1 0 0 1 0 0)" d="M289.56 647.76L300.12 647.76L300.12 647.76L300.12 659.76L300.12 659.76L289.56 659.76z" /></clipPath><clipPath id="20"><path id="" clip-rule="evenodd" transform="matrix(1 0 0 1 0 0)" d="M288.54 646.8L301.08 646.8L301.08 646.8L301.08 660.78L301.08 660.78L288.54 660.78z" /></clipPath><clipPath id="21"><path id="" clip-rule="evenodd" transform="matrix(1 0 0 1 0 0)" d="M0 0.02001953L595.2 0.02001953L595.2 0.02001953L595.2 842L595.2 842L0 842z" /></clipPath></defs><g transform="matrix(1.333333 0 0 1.333333 0 0)"><g clip-path="url(#1)"><g clip-path="url(#2)"><g clip-path="url(#3)"><path id="613" transform="matrix(1 0 0 -1 0 842)" d="M225.96 455.66L456.6 455.66L456.6 724.94L225.96 724.94z" stroke="none" fill="#FFFFFF" fill-rule="nonzero" /></g></g><g clip-path="url(#4)"><g clip-path="url(#5)"><g clip-path="url(#6)"><g transform="matrix(0.48 0 0 0.48 225.96 117.06)"><g transform="matrix(1 0 0 1 0 0)"><image x="0" y="0" xlink:href="img_450.png" width="481" height="561" /></g></g></g></g></g><g clip-path="url(#7)"><g clip-path="url(#8)"><path id="615" transform="matrix(1 0 0 -1 0 842)" d="M225.96 278.48L491.16 278.48L491.16 405.68L225.96 405.68z" stroke="none" fill="#FFFFFF" fill-rule="nonzero" /></g></g><g clip-path="url(#9)"><g clip-path="url(#10)"><g clip-path="url(#11)"><g transform="matrix(0.48 0 0 0.48 225.96 436.32)"><g transform="matrix(1 0 0 1 0 0)"><image x="0" y="0" xlink:href="img_451.png" width="553" height="265" /></g></g></g></g></g><g clip-path="url(#12)"><g clip-path="url(#13)"><path id="617" transform="matrix(1 0 0 -1 0 842)" d="M409.56 208.46L420.12 208.46L420.12 220.46L409.56 220.46z" stroke="none" fill="#FFFFFF" fill-rule="nonzero" /></g></g><g clip-path="url(#14)"><g clip-path="url(#15)"><g clip-path="url(#16)"><g transform="matrix(0.48 0 0 0.48 409.56 621.54)"><g transform="matrix(1 0 0 1 0 0)"><image x="0" y="0" xlink:href="img_67.png" width="22" height="25" /></g></g></g></g></g><g clip-path="url(#17)"><g clip-path="url(#18)"><path id="619" transform="matrix(1 0 0 -1 0 842)" d="M289.56 182.24L300.12 182.24L300.12 194.24L289.56 194.24z" stroke="none" fill="#FFFFFF" fill-rule="nonzero" /></g></g><g clip-path="url(#19)"><g clip-path="url(#20)"><g clip-path="url(#21)"><g transform="matrix(0.48 0 0 0.48 289.56 647.76)"><g transform="matrix(1 0 0 1 0 0)"><image x="0" y="0" xlink:href="img_67.png" width="22" height="25" /></g></g></g></g></g></g></g></svg>