<svg xmlns="http://www.w3.org/2000/svg" xmlns:xlink="http://www.w3.org/1999/xlink" id="body_184" preserveAspectRatio="xMinYMin meet" viewBox="0 0 793 1123"><defs><clipPath id="1"><path id="" clip-rule="evenodd" transform="matrix(1 0 0 1 0 0)" d="M0 842L0 0L0 0L595 0L595 0L595 842L595 842L0 842z" /></clipPath><clipPath id="2"><path id="" clip-rule="evenodd" transform="matrix(1 0 0 1 0 0)" d="M224.94 172.02L552.36 172.02L552.36 172.02L552.36 369.06L552.36 369.06L224.94 369.06z" /></clipPath><clipPath id="3"><path id="" clip-rule="evenodd" transform="matrix(1 0 0 1 0 0)" d="M0 0.02001953L595.2 0.02001953L595.2 0.02001953L595.2 842L595.2 842L0 842z" /></clipPath><clipPath id="4"><path id="" clip-rule="evenodd" transform="matrix(1 0 0 1 0 0)" d="M225.96 173.04L551.34 173.04L551.34 173.04L551.34 368.04L551.34 368.04L225.96 368.04z" /></clipPath><clipPath id="5"><path id="" clip-rule="evenodd" transform="matrix(1 0 0 1 0 0)" d="M224.94 172.02L552.36 172.02L552.36 172.02L552.36 369.06L552.36 369.06L224.94 369.06z" /></clipPath><clipPath id="6"><path id="" clip-rule="evenodd" transform="matrix(1 0 0 1 0 0)" d="M0 0.02001953L595.2 0.02001953L595.2 0.02001953L595.2 842L595.2 842L0 842z" /></clipPath><clipPath id="7"><path id="" clip-rule="evenodd" transform="matrix(1 0 0 1 0 0)" d="M343.08 468L361.62 468L361.62 468L361.62 485.82L361.62 485.82L343.08 485.82z" /></clipPath><clipPath id="8"><path id="" clip-rule="evenodd" transform="matrix(1 0 0 1 0 0)" d="M0 0.02001953L595.2 0.02001953L595.2 0.02001953L595.2 842L595.2 842L0 842z" /></clipPath><clipPath id="9"><path id="" clip-rule="evenodd" transform="matrix(1 0 0 1 0 0)" d="M344.04 468.96L360.6 468.96L360.6 468.96L360.6 484.8L360.6 484.8L344.04 484.8z" /></clipPath><clipPath id="10"><path id="" clip-rule="evenodd" transform="matrix(1 0 0 1 0 0)" d="M343.08 468L361.62 468L361.62 468L361.62 485.82L361.62 485.82L343.08 485.82z" /></clipPath><clipPath id="11"><path id="" clip-rule="evenodd" transform="matrix(1 0 0 1 0 0)" d="M0 0.02001953L595.2 0.02001953L595.2 0.02001953L595.2 842L595.2 842L0 842z" /></clipPath><clipPath id="12"><path id="" clip-rule="evenodd" transform="matrix(1 0 0 1 0 0)" d="M185.52 498.72L206.94 498.72L206.94 498.72L206.94 518.76L206.94 518.76L185.52 518.76z" /></clipPath><clipPath id="13"><path id="" clip-rule="evenodd" transform="matrix(1 0 0 1 0 0)" d="M0 0.02001953L595.2 0.02001953L595.2 0.02001953L595.2 842L595.2 842L0 842z" /></clipPath><clipPath id="14"><path id="" clip-rule="evenodd" transform="matrix(1 0 0 1 0 0)" d="M186.54 499.74L205.98 499.74L205.98 499.74L205.98 517.74L205.98 517.74L186.54 517.74z" /></clipPath><clipPath id="15"><path id="" clip-rule="evenodd" transform="matrix(1 0 0 1 0 0)" d="M185.52 498.72L206.94 498.72L206.94 498.72L206.94 518.76L206.94 518.76L185.52 518.76z" /></clipPath><clipPath id="16"><path id="" clip-rule="evenodd" transform="matrix(1 0 0 1 0 0)" d="M0 0.02001953L595.2 0.02001953L595.2 0.02001953L595.2 842L595.2 842L0 842z" /></clipPath><clipPath id="17"><path id="" clip-rule="evenodd" transform="matrix(1 0 0 1 0 0)" d="M348.66 560.22L364.8 560.22L364.8 560.22L364.8 576.42L364.8 576.42L348.66 576.42z" /></clipPath><clipPath id="18"><path id="" clip-rule="evenodd" transform="matrix(1 0 0 1 0 0)" d="M0 0.02001953L595.2 0.02001953L595.2 0.02001953L595.2 842L595.2 842L0 842z" /></clipPath><clipPath id="19"><path id="" clip-rule="evenodd" transform="matrix(1 0 0 1 0 0)" d="M349.62 561.24L363.78 561.24L363.78 561.24L363.78 575.4L363.78 575.4L349.62 575.4z" /></clipPath><clipPath id="20"><path id="" clip-rule="evenodd" transform="matrix(1 0 0 1 0 0)" d="M348.66 560.22L364.8 560.22L364.8 560.22L364.8 576.42L364.8 576.42L348.66 576.42z" /></clipPath><clipPath id="21"><path id="" clip-rule="evenodd" transform="matrix(1 0 0 1 0 0)" d="M0 0.02001953L595.2 0.02001953L595.2 0.02001953L595.2 842L595.2 842L0 842z" /></clipPath><clipPath id="22"><path id="" clip-rule="evenodd" transform="matrix(1 0 0 1 0 0)" d="M270.9 673.56L289.5 673.56L289.5 673.56L289.5 691.44L289.5 691.44L270.9 691.44z" /></clipPath><clipPath id="23"><path id="" clip-rule="evenodd" transform="matrix(1 0 0 1 0 0)" d="M0 0.02001953L595.2 0.02001953L595.2 0.02001953L595.2 842L595.2 842L0 842z" /></clipPath><clipPath id="24"><path id="" clip-rule="evenodd" transform="matrix(1 0 0 1 0 0)" d="M271.92 674.58L288.48 674.58L288.48 674.58L288.48 690.42L288.48 690.42L271.92 690.42z" /></clipPath><clipPath id="25"><path id="" clip-rule="evenodd" transform="matrix(1 0 0 1 0 0)" d="M270.9 673.56L289.5 673.56L289.5 673.56L289.5 691.44L289.5 691.44L270.9 691.44z" /></clipPath><clipPath id="26"><path id="" clip-rule="evenodd" transform="matrix(1 0 0 1 0 0)" d="M0 0.02001953L595.2 0.02001953L595.2 0.02001953L595.2 842L595.2 842L0 842z" /></clipPath><clipPath id="27"><path id="" clip-rule="evenodd" transform="matrix(1 0 0 1 0 0)" d="M343.08 720.3L361.62 720.3L361.62 720.3L361.62 738.18L361.62 738.18L343.08 738.18z" /></clipPath><clipPath id="28"><path id="" clip-rule="evenodd" transform="matrix(1 0 0 1 0 0)" d="M0 0.02001953L595.2 0.02001953L595.2 0.02001953L595.2 842L595.2 842L0 842z" /></clipPath><clipPath id="29"><path id="" clip-rule="evenodd" transform="matrix(1 0 0 1 0 0)" d="M344.04 721.32L360.6 721.32L360.6 721.32L360.6 737.16L360.6 737.16L344.04 737.16z" /></clipPath><clipPath id="30"><path id="" clip-rule="evenodd" transform="matrix(1 0 0 1 0 0)" d="M343.08 720.3L361.62 720.3L361.62 720.3L361.62 738.18L361.62 738.18L343.08 738.18z" /></clipPath><clipPath id="31"><path id="" clip-rule="evenodd" transform="matrix(1 0 0 1 0 0)" d="M0 0.02001953L595.2 0.02001953L595.2 0.02001953L595.2 842L595.2 842L0 842z" /></clipPath></defs><g transform="matrix(1.333333 0 0 1.333333 0 0)"><g clip-path="url(#1)"><g clip-path="url(#2)"><g clip-path="url(#3)"><path id="1112" transform="matrix(1 0 0 -1 0 842)" d="M225.96 668.96L551.34 668.96L551.34 473.96L225.96 473.96" stroke="none" fill="#FFFFFF" fill-rule="nonzero" /></g></g><g clip-path="url(#4)"><g clip-path="url(#5)"><g clip-path="url(#6)"><g transform="matrix(0.4795994 0 0 0.4791155 225.96 173.04)"><g transform="matrix(1 0 0 1 0 0)"><image x="0" y="0" xlink:href="img_457.png" width="679" height="407" /></g></g></g></g></g><g clip-path="url(#7)"><g clip-path="url(#8)"><path id="1114" transform="matrix(1 0 0 -1 0 842)" d="M344.04 357.2L360.6 357.2L360.6 373.04L344.04 373.04z" stroke="none" fill="#FFFFFF" fill-rule="nonzero" /></g></g><g clip-path="url(#9)"><g clip-path="url(#10)"><g clip-path="url(#11)"><g transform="matrix(0.48 0 0 0.48 344.04 468.96)"><g transform="matrix(1 0 0 1 0 0)"><image x="0" y="0" xlink:href="img_296.png" width="35" height="33" /></g></g></g></g></g><g clip-path="url(#12)"><g clip-path="url(#13)"><path id="1116" transform="matrix(1 0 0 -1 0 842)" d="M186.54 324.26L205.98 324.26L205.98 342.26L186.54 342.26z" stroke="none" fill="#FFFFFF" fill-rule="nonzero" /></g></g><g clip-path="url(#14)"><g clip-path="url(#15)"><g clip-path="url(#16)"><g transform="matrix(0.48 0 0 0.4736842 186.54 499.74)"><g transform="matrix(1 0 0 1 0 0)"><image x="0" y="0" xlink:href="img_228.png" width="41" height="38" /></g></g></g></g></g><g clip-path="url(#17)"><g clip-path="url(#18)"><path id="1118" transform="matrix(1 0 0 -1 0 842)" d="M349.62 266.6L363.78 266.6L363.78 280.76L349.62 280.76z" stroke="none" fill="#FFFFFF" fill-rule="nonzero" /></g></g><g clip-path="url(#19)"><g clip-path="url(#20)"><g clip-path="url(#21)"><g transform="matrix(0.48 0 0 0.472 349.62 561.24)"><g transform="matrix(1 0 0 1 0 0)"><image x="0" y="0" xlink:href="img_458.png" width="30" height="30" /></g></g></g></g></g><g clip-path="url(#22)"><g clip-path="url(#23)"><path id="1120" transform="matrix(1 0 0 -1 0 842)" d="M271.92 151.58L288.48 151.58L288.48 167.42L271.92 167.42z" stroke="none" fill="#FFFFFF" fill-rule="nonzero" /></g></g><g clip-path="url(#24)"><g clip-path="url(#25)"><g clip-path="url(#26)"><g transform="matrix(0.48 0 0 0.48 271.92 674.58)"><g transform="matrix(1 0 0 1 0 0)"><image x="0" y="0" xlink:href="img_300.png" width="35" height="33" /></g></g></g></g></g><g clip-path="url(#27)"><g clip-path="url(#28)"><path id="1122" transform="matrix(1 0 0 -1 0 842)" d="M344.04 104.84L360.6 104.84L360.6 120.68L344.04 120.68z" stroke="none" fill="#FFFFFF" fill-rule="nonzero" /></g></g><g clip-path="url(#29)"><g clip-path="url(#30)"><g clip-path="url(#31)"><g transform="matrix(0.48 0 0 0.48 344.04 721.32)"><g transform="matrix(1 0 0 1 0 0)"><image x="0" y="0" xlink:href="img_298.png" width="35" height="33" /></g></g></g></g></g></g></g></svg>