<svg xmlns="http://www.w3.org/2000/svg" xmlns:xlink="http://www.w3.org/1999/xlink" id="body_249" preserveAspectRatio="xMinYMin meet" viewBox="0 0 793 1123"><defs><clipPath id="1"><path id="" clip-rule="evenodd" transform="matrix(1 0 0 1 0 0)" d="M0 842L0 0L0 0L595 0L595 0L595 842L595 842L0 842z" /></clipPath><clipPath id="2"><path id="" clip-rule="evenodd" transform="matrix(1 0 0 1 0 0)" d="M215.94 140.04L285.42 140.04L285.42 140.04L285.42 252.18L285.42 252.18L215.94 252.18z" /></clipPath><clipPath id="3"><path id="" clip-rule="evenodd" transform="matrix(1 0 0 1 0 0)" d="M0 0.02001953L595.2 0.02001953L595.2 0.02001953L595.2 842L595.2 842L0 842z" /></clipPath><clipPath id="4"><path id="" clip-rule="evenodd" transform="matrix(1 0 0 1 0 0)" d="M216.96 141.06L284.4 141.06L284.4 141.06L284.4 251.22L284.4 251.22L216.96 251.22z" /></clipPath><clipPath id="5"><path id="" clip-rule="evenodd" transform="matrix(1 0 0 1 0 0)" d="M215.94 140.04L285.42 140.04L285.42 140.04L285.42 252.18L285.42 252.18L215.94 252.18z" /></clipPath><clipPath id="6"><path id="" clip-rule="evenodd" transform="matrix(1 0 0 1 0 0)" d="M0 0.02001953L595.2 0.02001953L595.2 0.02001953L595.2 842L595.2 842L0 842z" /></clipPath><clipPath id="7"><path id="" clip-rule="evenodd" transform="matrix(1 0 0 1 0 0)" d="M215.94 338.22L550.62 338.22L550.62 338.22L550.62 419.7L550.62 419.7L215.94 419.7z" /></clipPath><clipPath id="8"><path id="" clip-rule="evenodd" transform="matrix(1 0 0 1 0 0)" d="M0 0.02001953L595.2 0.02001953L595.2 0.02001953L595.2 842L595.2 842L0 842z" /></clipPath><clipPath id="9"><path id="" clip-rule="evenodd" transform="matrix(1 0 0 1 0 0)" d="M216.96 338.22L381.54 338.22L381.54 338.22L381.54 417.72L381.54 417.72L216.96 417.72z" /></clipPath><clipPath id="10"><path id="" clip-rule="evenodd" transform="matrix(1 0 0 1 0 0)" d="M215.94 338.22L550.62 338.22L550.62 338.22L550.62 419.7L550.62 419.7L215.94 419.7z" /></clipPath><clipPath id="11"><path id="" clip-rule="evenodd" transform="matrix(1 0 0 1 0 0)" d="M0 0.02001953L595.2 0.02001953L595.2 0.02001953L595.2 842L595.2 842L0 842z" /></clipPath><clipPath id="12"><path id="" clip-rule="evenodd" transform="matrix(1 0 0 1 0 0)" d="M215.94 338.22L550.62 338.22L550.62 338.22L550.62 419.7L550.62 419.7L215.94 419.7z" /></clipPath><clipPath id="13"><path id="" clip-rule="evenodd" transform="matrix(1 0 0 1 0 0)" d="M0 0.02001953L595.2 0.02001953L595.2 0.02001953L595.2 842L595.2 842L0 842z" /></clipPath><clipPath id="14"><path id="" clip-rule="evenodd" transform="matrix(1 0 0 1 0 0)" d="M385.02 338.22L549.6 338.22L549.6 338.22L549.6 417.48L549.6 417.48L385.02 417.48z" /></clipPath><clipPath id="15"><path id="" clip-rule="evenodd" transform="matrix(1 0 0 1 0 0)" d="M215.94 338.22L550.62 338.22L550.62 338.22L550.62 419.7L550.62 419.7L215.94 419.7z" /></clipPath><clipPath id="16"><path id="" clip-rule="evenodd" transform="matrix(1 0 0 1 0 0)" d="M0 0.02001953L595.2 0.02001953L595.2 0.02001953L595.2 842L595.2 842L0 842z" /></clipPath></defs><g transform="matrix(1.333333 0 0 1.333333 0 0)"><g clip-path="url(#1)"><g clip-path="url(#2)"><g clip-path="url(#3)"><path id="1052" transform="matrix(1 0 0 -1 0 842)" d="M216.96 590.78L284.4 590.78L284.4 700.9401L216.96 700.9401z" stroke="none" fill="#FFFFFF" fill-rule="nonzero" /></g></g><g clip-path="url(#4)"><g clip-path="url(#5)"><g clip-path="url(#6)"><g transform="matrix(0.48 0 0 0.4789565 216.96 141.0599)"><g transform="matrix(1 0 0 1 0 0)"><image x="0" y="0" xlink:href="img_591.png" width="141" height="230" /></g></g></g></g></g><g clip-path="url(#7)"><g clip-path="url(#8)"><path id="1054" transform="matrix(1 0 0 -1 0 842)" d="M216.96 424.28L381.54 424.28L381.54 503.78L216.96 503.78z" stroke="none" fill="#FFFFFF" fill-rule="nonzero" /></g></g><g clip-path="url(#9)"><g clip-path="url(#10)"><g clip-path="url(#11)"><g transform="matrix(0.4804111 0 0 0.4789156 216.96 338.22)"><g transform="matrix(1 0 0 1 0 0)"><image x="0" y="0" xlink:href="img_592.png" width="343" height="166" /></g></g></g></g></g><g clip-path="url(#12)"><g clip-path="url(#13)"><path id="1056" transform="matrix(1 0 0 -1 0 842)" d="M385.02 503.78L549.6 503.78L549.6 424.52L385.02 424.52" stroke="none" fill="#FFFFFF" fill-rule="nonzero" /></g></g><g clip-path="url(#14)"><g clip-path="url(#15)"><g clip-path="url(#16)"><g transform="matrix(0.4804111 0 0 0.4774699 385.02 338.22)"><g transform="matrix(1 0 0 1 0 0)"><image x="0" y="0" xlink:href="img_593.png" width="343" height="166" /></g></g></g></g></g></g></g></svg>