<svg xmlns="http://www.w3.org/2000/svg" xmlns:xlink="http://www.w3.org/1999/xlink" id="body_213" preserveAspectRatio="xMinYMin meet" viewBox="0 0 793 1123"><defs><clipPath id="1"><path id="" clip-rule="evenodd" transform="matrix(1 0 0 1 0 0)" d="M0 842L0 0L0 0L595 0L595 0L595 842L595 842L0 842z" /></clipPath><clipPath id="2"><path id="" clip-rule="evenodd" transform="matrix(1 0 0 1 0 0)" d="M387.6 282.3L403.8 282.3L403.8 282.3L403.8 297.06L403.8 297.06L387.6 297.06z" /></clipPath><clipPath id="3"><path id="" clip-rule="evenodd" transform="matrix(1 0 0 1 0 0)" d="M0 0.02001953L595.2 0.02001953L595.2 0.02001953L595.2 842L595.2 842L0 842z" /></clipPath><clipPath id="4"><path id="" clip-rule="evenodd" transform="matrix(1 0 0 1 0 0)" d="M388.62 283.32L402.78 283.32L402.78 283.32L402.78 296.04L402.78 296.04L388.62 296.04z" /></clipPath><clipPath id="5"><path id="" clip-rule="evenodd" transform="matrix(1 0 0 1 0 0)" d="M387.6 282.3L403.8 282.3L403.8 282.3L403.8 297.06L403.8 297.06L387.6 297.06z" /></clipPath><clipPath id="6"><path id="" clip-rule="evenodd" transform="matrix(1 0 0 1 0 0)" d="M0 0.02001953L595.2 0.02001953L595.2 0.02001953L595.2 842L595.2 842L0 842z" /></clipPath><clipPath id="7"><path id="" clip-rule="evenodd" transform="matrix(1 0 0 1 0 0)" d="M387.6 386.34L403.8 386.34L403.8 386.34L403.8 401.04L403.8 401.04L387.6 401.04z" /></clipPath><clipPath id="8"><path id="" clip-rule="evenodd" transform="matrix(1 0 0 1 0 0)" d="M0 0.02001953L595.2 0.02001953L595.2 0.02001953L595.2 842L595.2 842L0 842z" /></clipPath><clipPath id="9"><path id="" clip-rule="evenodd" transform="matrix(1 0 0 1 0 0)" d="M388.62 387.3L402.78 387.3L402.78 387.3L402.78 400.02L402.78 400.02L388.62 400.02z" /></clipPath><clipPath id="10"><path id="" clip-rule="evenodd" transform="matrix(1 0 0 1 0 0)" d="M387.6 386.34L403.8 386.34L403.8 386.34L403.8 401.04L403.8 401.04L387.6 401.04z" /></clipPath><clipPath id="11"><path id="" clip-rule="evenodd" transform="matrix(1 0 0 1 0 0)" d="M0 0.02001953L595.2 0.02001953L595.2 0.02001953L595.2 842L595.2 842L0 842z" /></clipPath></defs><g transform="matrix(1.333333 0 0 1.333333 0 0)"><g clip-path="url(#1)"><g clip-path="url(#2)"><g clip-path="url(#3)"><path id="1795" transform="matrix(1 0 0 -1 0 842)" d="M388.62 545.96L402.78 545.96L402.78 558.68L388.62 558.68z" stroke="none" fill="#FFFFFF" fill-rule="nonzero" /></g></g><g clip-path="url(#4)"><g clip-path="url(#5)"><g clip-path="url(#6)"><g transform="matrix(0.48 0 0 0.4711111 388.62 283.32)"><g transform="matrix(1 0 0 1 0 0)"><image x="0" y="0" xlink:href="img_115.png" width="30" height="27" /></g></g></g></g></g><g clip-path="url(#7)"><g clip-path="url(#8)"><path id="1797" transform="matrix(1 0 0 -1 0 842)" d="M388.62 441.98L402.78 441.98L402.78 454.7L388.62 454.7z" stroke="none" fill="#FFFFFF" fill-rule="nonzero" /></g></g><g clip-path="url(#9)"><g clip-path="url(#10)"><g clip-path="url(#11)"><g transform="matrix(0.48 0 0 0.4711111 388.62 387.3)"><g transform="matrix(1 0 0 1 0 0)"><image x="0" y="0" xlink:href="img_201.png" width="30" height="27" /></g></g></g></g></g></g></g></svg>