<svg xmlns="http://www.w3.org/2000/svg" xmlns:xlink="http://www.w3.org/1999/xlink" id="body_21" preserveAspectRatio="xMinYMin meet" viewBox="0 0 793 1123"><defs><clipPath id="1"><path id="" clip-rule="evenodd" transform="matrix(1 0 0 1 0 0)" d="M0 842L0 0L0 0L595 0L595 0L595 842L595 842L0 842z" /></clipPath></defs><g transform="matrix(1.333333 0 0 1.333333 0 0)"><g clip-path="url(#1)"><path id="190" transform="matrix(1 0 0 -1 0 842)" d="M35.94 691.94L88.5 691.94L88.5 709.94L35.94 709.94z" stroke="none" fill="#C4DFF7" fill-rule="nonzero" /><path id="200" transform="matrix(1 0 0 -1 0 842)" d="M88.5 691.94L162.96 691.94L162.96 709.94L88.5 709.94z" stroke="none" fill="#C4DFF7" fill-rule="nonzero" /><path id="209" transform="matrix(1 0 0 -1 0 842)" d="M162.96 709.94L549 709.94L549 691.94L162.96 691.94" stroke="none" fill="#C4DFF7" fill-rule="nonzero" /><path id="2017" transform="matrix(1 0 0 -1 0 842)" d="M35.94 608.72L549 608.72L549 609.2L35.94 609.2z" stroke="none" fill="#000000" fill-rule="nonzero" /><path id="2018" transform="matrix(1 0 0 -1 0 842)" d="M35.94 546.74L549 546.74L549 547.22L35.94 547.22z" stroke="none" fill="#000000" fill-rule="nonzero" /><path id="2019" transform="matrix(1 0 0 -1 0 842)" d="M35.94 470.72L549 470.72L549 471.2L35.94 471.2z" stroke="none" fill="#000000" fill-rule="nonzero" /><path id="2020" transform="matrix(1 0 0 -1 0 842)" d="M35.94 331.7L549 331.7L549 332.18L35.94 332.18z" stroke="none" fill="#000000" fill-rule="nonzero" /><path id="2021" transform="matrix(1 0 0 -1 0 842)" d="M35.94 283.7L549 283.7L549 284.18L35.94 284.18z" stroke="none" fill="#000000" fill-rule="nonzero" /><path id="2022" transform="matrix(1 0 0 -1 0 842)" d="M35.94 207.14L549 207.14L549 208.64L35.94 208.64z" stroke="none" fill="#000000" fill-rule="nonzero" /></g></g></svg>