<svg xmlns="http://www.w3.org/2000/svg" xmlns:xlink="http://www.w3.org/1999/xlink" id="body_88" preserveAspectRatio="xMinYMin meet" viewBox="0 0 793 1123"><defs><clipPath id="1"><path id="" clip-rule="evenodd" transform="matrix(1 0 0 1 0 0)" d="M0 842L0 0L0 0L595 0L595 0L595 842L595 842L0 842z" /></clipPath><clipPath id="2"><path id="" clip-rule="evenodd" transform="matrix(1 0 0 1 0 0)" d="M44.94 159.06L558.66 159.06L558.66 159.06L558.66 293.52L558.66 293.52L44.94 293.52z" /></clipPath><clipPath id="3"><path id="" clip-rule="evenodd" transform="matrix(1 0 0 1 0 0)" d="M0 0.02001953L595.2 0.02001953L595.2 0.02001953L595.2 842L595.2 842L0 842z" /></clipPath><clipPath id="4"><path id="" clip-rule="evenodd" transform="matrix(1 0 0 1 0 0)" d="M45.96 160.02L557.64 160.02L557.64 160.02L557.64 292.5L557.64 292.5L45.96 292.5z" /></clipPath><clipPath id="5"><path id="" clip-rule="evenodd" transform="matrix(1 0 0 1 0 0)" d="M44.94 159.06L558.66 159.06L558.66 159.06L558.66 293.52L558.66 293.52L44.94 293.52z" /></clipPath><clipPath id="6"><path id="" clip-rule="evenodd" transform="matrix(1 0 0 1 0 0)" d="M0 0.02001953L595.2 0.02001953L595.2 0.02001953L595.2 842L595.2 842L0 842z" /></clipPath><clipPath id="7"><path id="" clip-rule="evenodd" transform="matrix(1 0 0 1 0 0)" d="M224.94 421.5L241.8 421.5L241.8 421.5L241.8 439.08L241.8 439.08L224.94 439.08z" /></clipPath><clipPath id="8"><path id="" clip-rule="evenodd" transform="matrix(1 0 0 1 0 0)" d="M0 0.02001953L595.2 0.02001953L595.2 0.02001953L595.2 842L595.2 842L0 842z" /></clipPath><clipPath id="9"><path id="" clip-rule="evenodd" transform="matrix(1 0 0 1 0 0)" d="M225.96 422.52L242.52 422.52L242.52 422.52L242.52 438.36L242.52 438.36L225.96 438.36z" /></clipPath><clipPath id="10"><path id="" clip-rule="evenodd" transform="matrix(1 0 0 1 0 0)" d="M224.94 421.5L241.8 421.5L241.8 421.5L241.8 439.08L241.8 439.08L224.94 439.08z" /></clipPath><clipPath id="11"><path id="" clip-rule="evenodd" transform="matrix(1 0 0 1 0 0)" d="M0 0.02001953L595.2 0.02001953L595.2 0.02001953L595.2 842L595.2 842L0 842z" /></clipPath><clipPath id="12"><path id="" clip-rule="evenodd" transform="matrix(1 0 0 1 0 0)" d="M224.94 455.52L243.54 455.52L243.54 455.52L243.54 473.4L243.54 473.4L224.94 473.4z" /></clipPath><clipPath id="13"><path id="" clip-rule="evenodd" transform="matrix(1 0 0 1 0 0)" d="M0 0.02001953L595.2 0.02001953L595.2 0.02001953L595.2 842L595.2 842L0 842z" /></clipPath><clipPath id="14"><path id="" clip-rule="evenodd" transform="matrix(1 0 0 1 0 0)" d="M225.96 456.54L242.52 456.54L242.52 456.54L242.52 472.38L242.52 472.38L225.96 472.38z" /></clipPath><clipPath id="15"><path id="" clip-rule="evenodd" transform="matrix(1 0 0 1 0 0)" d="M224.94 455.52L243.54 455.52L243.54 455.52L243.54 473.4L243.54 473.4L224.94 473.4z" /></clipPath><clipPath id="16"><path id="" clip-rule="evenodd" transform="matrix(1 0 0 1 0 0)" d="M0 0.02001953L595.2 0.02001953L595.2 0.02001953L595.2 842L595.2 842L0 842z" /></clipPath><clipPath id="17"><path id="" clip-rule="evenodd" transform="matrix(1 0 0 1 0 0)" d="M224.94 541.5L243.54 541.5L243.54 541.5L243.54 559.38L243.54 559.38L224.94 559.38z" /></clipPath><clipPath id="18"><path id="" clip-rule="evenodd" transform="matrix(1 0 0 1 0 0)" d="M0 0.02001953L595.2 0.02001953L595.2 0.02001953L595.2 842L595.2 842L0 842z" /></clipPath><clipPath id="19"><path id="" clip-rule="evenodd" transform="matrix(1 0 0 1 0 0)" d="M225.96 542.52L242.52 542.52L242.52 542.52L242.52 558.36L242.52 558.36L225.96 558.36z" /></clipPath><clipPath id="20"><path id="" clip-rule="evenodd" transform="matrix(1 0 0 1 0 0)" d="M224.94 541.5L243.54 541.5L243.54 541.5L243.54 559.38L243.54 559.38L224.94 559.38z" /></clipPath><clipPath id="21"><path id="" clip-rule="evenodd" transform="matrix(1 0 0 1 0 0)" d="M0 0.02001953L595.2 0.02001953L595.2 0.02001953L595.2 842L595.2 842L0 842z" /></clipPath><clipPath id="22"><path id="" clip-rule="evenodd" transform="matrix(1 0 0 1 0 0)" d="M224.94 569.4L243.54 569.4L243.54 569.4L243.54 587.22L243.54 587.22L224.94 587.22z" /></clipPath><clipPath id="23"><path id="" clip-rule="evenodd" transform="matrix(1 0 0 1 0 0)" d="M0 0.02001953L595.2 0.02001953L595.2 0.02001953L595.2 842L595.2 842L0 842z" /></clipPath><clipPath id="24"><path id="" clip-rule="evenodd" transform="matrix(1 0 0 1 0 0)" d="M225.96 570.36L242.52 570.36L242.52 570.36L242.52 586.2L242.52 586.2L225.96 586.2z" /></clipPath><clipPath id="25"><path id="" clip-rule="evenodd" transform="matrix(1 0 0 1 0 0)" d="M224.94 569.4L243.54 569.4L243.54 569.4L243.54 587.22L243.54 587.22L224.94 587.22z" /></clipPath><clipPath id="26"><path id="" clip-rule="evenodd" transform="matrix(1 0 0 1 0 0)" d="M0 0.02001953L595.2 0.02001953L595.2 0.02001953L595.2 842L595.2 842L0 842z" /></clipPath><clipPath id="27"><path id="" clip-rule="evenodd" transform="matrix(1 0 0 1 0 0)" d="M224.94 597.24L243.54 597.24L243.54 597.24L243.54 615.12L243.54 615.12L224.94 615.12z" /></clipPath><clipPath id="28"><path id="" clip-rule="evenodd" transform="matrix(1 0 0 1 0 0)" d="M0 0.02001953L595.2 0.02001953L595.2 0.02001953L595.2 842L595.2 842L0 842z" /></clipPath><clipPath id="29"><path id="" clip-rule="evenodd" transform="matrix(1 0 0 1 0 0)" d="M225.96 598.26L242.52 598.26L242.52 598.26L242.52 614.1L242.52 614.1L225.96 614.1z" /></clipPath><clipPath id="30"><path id="" clip-rule="evenodd" transform="matrix(1 0 0 1 0 0)" d="M224.94 597.24L243.54 597.24L243.54 597.24L243.54 615.12L243.54 615.12L224.94 615.12z" /></clipPath><clipPath id="31"><path id="" clip-rule="evenodd" transform="matrix(1 0 0 1 0 0)" d="M0 0.02001953L595.2 0.02001953L595.2 0.02001953L595.2 842L595.2 842L0 842z" /></clipPath><clipPath id="32"><path id="" clip-rule="evenodd" transform="matrix(1 0 0 1 0 0)" d="M224.94 625.08L243.54 625.08L243.54 625.08L243.54 642.96L243.54 642.96L224.94 642.96z" /></clipPath><clipPath id="33"><path id="" clip-rule="evenodd" transform="matrix(1 0 0 1 0 0)" d="M0 0.02001953L595.2 0.02001953L595.2 0.02001953L595.2 842L595.2 842L0 842z" /></clipPath><clipPath id="34"><path id="" clip-rule="evenodd" transform="matrix(1 0 0 1 0 0)" d="M225.96 626.1L242.52 626.1L242.52 626.1L242.52 641.94L242.52 641.94L225.96 641.94z" /></clipPath><clipPath id="35"><path id="" clip-rule="evenodd" transform="matrix(1 0 0 1 0 0)" d="M224.94 625.08L243.54 625.08L243.54 625.08L243.54 642.96L243.54 642.96L224.94 642.96z" /></clipPath><clipPath id="36"><path id="" clip-rule="evenodd" transform="matrix(1 0 0 1 0 0)" d="M0 0.02001953L595.2 0.02001953L595.2 0.02001953L595.2 842L595.2 842L0 842z" /></clipPath><clipPath id="37"><path id="" clip-rule="evenodd" transform="matrix(1 0 0 1 0 0)" d="M224.94 659.1L289.86 659.1L289.86 659.1L289.86 709.8L289.86 709.8L224.94 709.8z" /></clipPath><clipPath id="38"><path id="" clip-rule="evenodd" transform="matrix(1 0 0 1 0 0)" d="M0 0.02001953L595.2 0.02001953L595.2 0.02001953L595.2 842L595.2 842L0 842z" /></clipPath><clipPath id="39"><path id="" clip-rule="evenodd" transform="matrix(1 0 0 1 0 0)" d="M225.96 660.12L288.84 660.12L288.84 660.12L288.84 708.84L288.84 708.84L225.96 708.84z" /></clipPath><clipPath id="40"><path id="" clip-rule="evenodd" transform="matrix(1 0 0 1 0 0)" d="M224.94 659.1L289.86 659.1L289.86 659.1L289.86 709.8L289.86 709.8L224.94 709.8z" /></clipPath><clipPath id="41"><path id="" clip-rule="evenodd" transform="matrix(1 0 0 1 0 0)" d="M0 0.02001953L595.2 0.02001953L595.2 0.02001953L595.2 842L595.2 842L0 842z" /></clipPath></defs><g transform="matrix(1.333333 0 0 1.333333 0 0)"><g clip-path="url(#1)"><g clip-path="url(#2)"><g clip-path="url(#3)"><path id="345" transform="matrix(1 0 0 -1 0 842)" d="M45.96 549.5L557.64 549.5L557.64 681.98L45.96 681.98z" stroke="none" fill="#FFFFFF" fill-rule="nonzero" /></g></g><g clip-path="url(#4)"><g clip-path="url(#5)"><g clip-path="url(#6)"><g transform="matrix(0.48 0 0 0.48 45.96 160.02)"><g transform="matrix(1 0 0 1 0 0)"><image x="0" y="0" xlink:href="img_206.png" width="1066" height="276" /></g></g></g></g></g><path id="347" transform="matrix(1 0 0 -1 0 842)" d="M224.94 426.5L296.64 426.5L296.64 444.5L224.94 444.5z" stroke="none" fill="#C4DFF7" fill-rule="nonzero" /><path id="354" transform="matrix(1 0 0 -1 0 842)" d="M296.64 426.5L558 426.5L558 444.5L296.64 444.5z" stroke="none" fill="#C4DFF7" fill-rule="nonzero" /><path id="829" transform="matrix(1 0 0 -1 0 842)" d="M224.94 392.24L558 392.24L558 392.72L224.94 392.72z" stroke="none" fill="#000000" fill-rule="nonzero" /><path id="830" transform="matrix(1 0 0 -1 0 842)" d="M224.94 306.26L558 306.26L558 306.74L224.94 306.74z" stroke="none" fill="#000000" fill-rule="nonzero" /><path id="831" transform="matrix(1 0 0 -1 0 842)" d="M224.94 278.36L558 278.36L558 278.84L224.94 278.84z" stroke="none" fill="#000000" fill-rule="nonzero" /><path id="832" transform="matrix(1 0 0 -1 0 842)" d="M224.94 250.52L558 250.52L558 251L224.94 251z" stroke="none" fill="#000000" fill-rule="nonzero" /><path id="833" transform="matrix(1 0 0 -1 0 842)" d="M224.94 222.68L558 222.68L558 223.16L224.94 223.16z" stroke="none" fill="#000000" fill-rule="nonzero" /><path id="834" transform="matrix(1 0 0 -1 0 842)" d="M224.94 188.66L558 188.66L558 189.14L224.94 189.14z" stroke="none" fill="#000000" fill-rule="nonzero" /><path id="835" transform="matrix(1 0 0 -1 0 842)" d="M224.94 127.4L558 127.4L558 128.9L224.94 128.9z" stroke="none" fill="#000000" fill-rule="nonzero" /><g clip-path="url(#7)"><g clip-path="url(#8)"><path id="836" transform="matrix(1 0 0 -1 0 842)" d="M225.96 403.64L241.8 403.64L241.8 419.48L225.96 419.48z" stroke="none" fill="#FFFFFF" fill-rule="nonzero" /></g></g><g clip-path="url(#9)"><g clip-path="url(#10)"><g clip-path="url(#11)"><g transform="matrix(0.48 0 0 0.48 225.96 422.52)"><g transform="matrix(1 0 0 1 0 0)"><image x="0" y="0" xlink:href="img_100.png" width="35" height="33" /></g></g></g></g></g><g clip-path="url(#12)"><g clip-path="url(#13)"><path id="838" transform="matrix(1 0 0 -1 0 842)" d="M225.96 369.62L242.52 369.62L242.52 385.46L225.96 385.46z" stroke="none" fill="#FFFFFF" fill-rule="nonzero" /></g></g><g clip-path="url(#14)"><g clip-path="url(#15)"><g clip-path="url(#16)"><g transform="matrix(0.48 0 0 0.48 225.96 456.54)"><g transform="matrix(1 0 0 1 0 0)"><image x="0" y="0" xlink:href="img_207.png" width="35" height="33" /></g></g></g></g></g><g clip-path="url(#17)"><g clip-path="url(#18)"><path id="840" transform="matrix(1 0 0 -1 0 842)" d="M225.96 283.64L242.52 283.64L242.52 299.48L225.96 299.48z" stroke="none" fill="#FFFFFF" fill-rule="nonzero" /></g></g><g clip-path="url(#19)"><g clip-path="url(#20)"><g clip-path="url(#21)"><g transform="matrix(0.48 0 0 0.48 225.96 542.52)"><g transform="matrix(1 0 0 1 0 0)"><image x="0" y="0" xlink:href="img_208.png" width="35" height="33" /></g></g></g></g></g><g clip-path="url(#22)"><g clip-path="url(#23)"><path id="842" transform="matrix(1 0 0 -1 0 842)" d="M225.96 255.8L242.52 255.8L242.52 271.64L225.96 271.64z" stroke="none" fill="#FFFFFF" fill-rule="nonzero" /></g></g><g clip-path="url(#24)"><g clip-path="url(#25)"><g clip-path="url(#26)"><g transform="matrix(0.48 0 0 0.48 225.96 570.36)"><g transform="matrix(1 0 0 1 0 0)"><image x="0" y="0" xlink:href="img_209.png" width="35" height="33" /></g></g></g></g></g><g clip-path="url(#27)"><g clip-path="url(#28)"><path id="844" transform="matrix(1 0 0 -1 0 842)" d="M225.96 227.9L242.52 227.9L242.52 243.74L225.96 243.74z" stroke="none" fill="#FFFFFF" fill-rule="nonzero" /></g></g><g clip-path="url(#29)"><g clip-path="url(#30)"><g clip-path="url(#31)"><g transform="matrix(0.48 0 0 0.48 225.96 598.26)"><g transform="matrix(1 0 0 1 0 0)"><image x="0" y="0" xlink:href="img_210.png" width="35" height="33" /></g></g></g></g></g><g clip-path="url(#32)"><g clip-path="url(#33)"><path id="846" transform="matrix(1 0 0 -1 0 842)" d="M225.96 200.06L242.52 200.06L242.52 215.9L225.96 215.9z" stroke="none" fill="#FFFFFF" fill-rule="nonzero" /></g></g><g clip-path="url(#34)"><g clip-path="url(#35)"><g clip-path="url(#36)"><g transform="matrix(0.48 0 0 0.48 225.96 626.1)"><g transform="matrix(1 0 0 1 0 0)"><image x="0" y="0" xlink:href="img_211.png" width="35" height="33" /></g></g></g></g></g><g clip-path="url(#37)"><g clip-path="url(#38)"><path id="848" transform="matrix(1 0 0 -1 0 842)" d="M225.96 133.16L288.84 133.16L288.84 181.88L225.96 181.88z" stroke="none" fill="#FFFFFF" fill-rule="nonzero" /></g></g><g clip-path="url(#39)"><g clip-path="url(#40)"><g clip-path="url(#41)"><g transform="matrix(0.48 0 0 0.4776471 225.96 660.12)"><g transform="matrix(1 0 0 1 0 0)"><image x="0" y="0" xlink:href="img_212.png" width="131" height="102" /></g></g></g></g></g></g></g></svg>