<svg xmlns="http://www.w3.org/2000/svg" xmlns:xlink="http://www.w3.org/1999/xlink" id="body_31" preserveAspectRatio="xMinYMin meet" viewBox="0 0 793 1123"><defs><clipPath id="1"><path id="" clip-rule="evenodd" transform="matrix(1 0 0 1 0 0)" d="M0 842L0 0L0 0L595 0L595 0L595 842L595 842L0 842z" /></clipPath><clipPath id="2"><path id="" clip-rule="evenodd" transform="matrix(1 0 0 1 0 0)" d="M35.94 117.06L390.18 117.06L390.18 117.06L390.18 205.5L390.18 205.5L35.94 205.5z" /></clipPath><clipPath id="3"><path id="" clip-rule="evenodd" transform="matrix(1 0 0 1 0 0)" d="M0 0.02001953L595.2 0.02001953L595.2 0.02001953L595.2 842L595.2 842L0 842z" /></clipPath><clipPath id="4"><path id="" clip-rule="evenodd" transform="matrix(1 0 0 1 0 0)" d="M36.96 118.02L389.16 118.02L389.16 118.02L389.16 204.48L389.16 204.48L36.96 204.48z" /></clipPath><clipPath id="5"><path id="" clip-rule="evenodd" transform="matrix(1 0 0 1 0 0)" d="M35.94 117.06L390.18 117.06L390.18 117.06L390.18 205.5L390.18 205.5L35.94 205.5z" /></clipPath><clipPath id="6"><path id="" clip-rule="evenodd" transform="matrix(1 0 0 1 0 0)" d="M0 0.02001953L595.2 0.02001953L595.2 0.02001953L595.2 842L595.2 842L0 842z" /></clipPath><clipPath id="7"><path id="" clip-rule="evenodd" transform="matrix(1 0 0 1 0 0)" d="M215.94 318.48L515.46 318.48L515.46 318.48L515.46 541.68L515.46 541.68L215.94 541.68z" /></clipPath><clipPath id="8"><path id="" clip-rule="evenodd" transform="matrix(1 0 0 1 0 0)" d="M0 0.02001953L595.2 0.02001953L595.2 0.02001953L595.2 842L595.2 842L0 842z" /></clipPath><clipPath id="9"><path id="" clip-rule="evenodd" transform="matrix(1 0 0 1 0 0)" d="M216.96 319.5L514.44 319.5L514.44 319.5L514.44 540.66L514.44 540.66L216.96 540.66z" /></clipPath><clipPath id="10"><path id="" clip-rule="evenodd" transform="matrix(1 0 0 1 0 0)" d="M215.94 318.48L515.46 318.48L515.46 318.48L515.46 541.68L515.46 541.68L215.94 541.68z" /></clipPath><clipPath id="11"><path id="" clip-rule="evenodd" transform="matrix(1 0 0 1 0 0)" d="M0 0.02001953L595.2 0.02001953L595.2 0.02001953L595.2 842L595.2 842L0 842z" /></clipPath><clipPath id="12"><path id="" clip-rule="evenodd" transform="matrix(1 0 0 1 0 0)" d="M35.94 614.7L449.82 614.7L449.82 614.7L449.82 726.12L449.82 726.12L35.94 726.12z" /></clipPath><clipPath id="13"><path id="" clip-rule="evenodd" transform="matrix(1 0 0 1 0 0)" d="M0 0.02001953L595.2 0.02001953L595.2 0.02001953L595.2 842L595.2 842L0 842z" /></clipPath><clipPath id="14"><path id="" clip-rule="evenodd" transform="matrix(1 0 0 1 0 0)" d="M36.96 615.66L448.8 615.66L448.8 615.66L448.8 725.1L448.8 725.1L36.96 725.1z" /></clipPath><clipPath id="15"><path id="" clip-rule="evenodd" transform="matrix(1 0 0 1 0 0)" d="M35.94 614.7L449.82 614.7L449.82 614.7L449.82 726.12L449.82 726.12L35.94 726.12z" /></clipPath><clipPath id="16"><path id="" clip-rule="evenodd" transform="matrix(1 0 0 1 0 0)" d="M0 0.02001953L595.2 0.02001953L595.2 0.02001953L595.2 842L595.2 842L0 842z" /></clipPath></defs><g transform="matrix(1.333333 0 0 1.333333 0 0)"><g clip-path="url(#1)"><g clip-path="url(#2)"><g clip-path="url(#3)"><path id="495" transform="matrix(1 0 0 -1 0 842)" d="M36.96 637.52L389.16 637.52L389.16 723.98L36.96 723.98z" stroke="none" fill="#FFFFFF" fill-rule="nonzero" /></g></g><g clip-path="url(#4)"><g clip-path="url(#5)"><g clip-path="url(#6)"><g transform="matrix(0.4795728 0 0 0.4776796 36.96 118.02)"><g transform="matrix(1 0 0 1 0 0)"><image x="0" y="0" xlink:href="img_62.png" width="735" height="181" /></g></g></g></g></g><g clip-path="url(#7)"><g clip-path="url(#8)"><path id="540" transform="matrix(1 0 0 -1 0 842)" d="M216.96 301.34L514.44 301.34L514.44 522.5L216.96 522.5z" stroke="none" fill="#FFFFFF" fill-rule="nonzero" /></g></g><g clip-path="url(#9)"><g clip-path="url(#10)"><g clip-path="url(#11)"><g transform="matrix(0.4805016 0 0 0.4797397 216.96 319.5)"><g transform="matrix(1 0 0 1 0 0)"><image x="0" y="0" xlink:href="img_63.png" width="620" height="461" /></g></g></g></g></g><g clip-path="url(#12)"><g clip-path="url(#13)"><path id="573" transform="matrix(1 0 0 -1 0 842)" d="M36.96 116.9L448.8 116.9L448.8 226.34L36.96 226.34z" stroke="none" fill="#FFFFFF" fill-rule="nonzero" /></g></g><g clip-path="url(#14)"><g clip-path="url(#15)"><g clip-path="url(#16)"><g transform="matrix(0.48 0 0 0.48 36.96 615.66)"><g transform="matrix(1 0 0 1 0 0)"><image x="0" y="0" xlink:href="img_64.png" width="858" height="228" /></g></g></g></g></g></g></g></svg>