<svg xmlns="http://www.w3.org/2000/svg" xmlns:xlink="http://www.w3.org/1999/xlink" id="body_104" preserveAspectRatio="xMinYMin meet" viewBox="0 0 793 1123"><defs><clipPath id="1"><path id="" clip-rule="evenodd" transform="matrix(1 0 0 1 0 0)" d="M0 842L0 0L0 0L595 0L595 0L595 842L595 842L0 842z" /></clipPath></defs><g transform="matrix(1.333333 0 0 1.333333 0 0)"><g clip-path="url(#1)"><path id="1848" transform="matrix(1 0 0 -1 0 842)" d="M35.94 751.94L158.04 751.94L158.04 769.94L35.94 769.94z" stroke="none" fill="#C4DFF7" fill-rule="nonzero" /><path id="1858" transform="matrix(1 0 0 -1 0 842)" d="M158.04 769.94L549 769.94L549 751.94L158.04 751.94" stroke="none" fill="#C4DFF7" fill-rule="nonzero" /><path id="1870" transform="matrix(1 0 0 -1 0 842)" d="M35.94 633.74L549 633.74L549 634.22L35.94 634.22z" stroke="none" fill="#000000" fill-rule="nonzero" /><path id="1871" transform="matrix(1 0 0 -1 0 842)" d="M35.94 615.74L549 615.74L549 616.22L35.94 616.22z" stroke="none" fill="#000000" fill-rule="nonzero" /><path id="1872" transform="matrix(1 0 0 -1 0 842)" d="M35.94 595.7L549 595.7L549 596.18L35.94 596.18z" stroke="none" fill="#000000" fill-rule="nonzero" /><path id="1873" transform="matrix(1 0 0 -1 0 842)" d="M35.94 547.7L549 547.7L549 548.18L35.94 548.18z" stroke="none" fill="#000000" fill-rule="nonzero" /><path id="1874" transform="matrix(1 0 0 -1 0 842)" d="M35.94 499.7L549 499.7L549 500.18L35.94 500.18z" stroke="none" fill="#000000" fill-rule="nonzero" /><path id="1875" transform="matrix(1 0 0 -1 0 842)" d="M35.94 402.74L549 402.74L549 403.22L35.94 403.22z" stroke="none" fill="#000000" fill-rule="nonzero" /><path id="1876" transform="matrix(1 0 0 -1 0 842)" d="M35.94 384.74L549 384.74L549 385.22L35.94 385.22z" stroke="none" fill="#000000" fill-rule="nonzero" /><path id="1877" transform="matrix(1 0 0 -1 0 842)" d="M35.94 315.74L549 315.74L549 316.22L35.94 316.22z" stroke="none" fill="#000000" fill-rule="nonzero" /><path id="1878" transform="matrix(1 0 0 -1 0 842)" d="M35.94 281.72L549 281.72L549 282.2L35.94 282.2z" stroke="none" fill="#000000" fill-rule="nonzero" /><path id="1879" transform="matrix(1 0 0 -1 0 842)" d="M35.94 247.7L549 247.7L549 248.18L35.94 248.18z" stroke="none" fill="#000000" fill-rule="nonzero" /><path id="1880" transform="matrix(1 0 0 -1 0 842)" d="M35.94 213.68L549 213.68L549 214.16L35.94 214.16z" stroke="none" fill="#000000" fill-rule="nonzero" /><path id="1881" transform="matrix(1 0 0 -1 0 842)" d="M35.94 179.72L549 179.72L549 180.2L35.94 180.2z" stroke="none" fill="#000000" fill-rule="nonzero" /><path id="1882" transform="matrix(1 0 0 -1 0 842)" d="M35.94 145.16L549 145.16L549 146.66L35.94 146.66z" stroke="none" fill="#000000" fill-rule="nonzero" /></g></g></svg>