<svg xmlns="http://www.w3.org/2000/svg" xmlns:xlink="http://www.w3.org/1999/xlink" id="body_94" preserveAspectRatio="xMinYMin meet" viewBox="0 0 793 1123"><defs><clipPath id="1"><path id="" clip-rule="evenodd" transform="matrix(1 0 0 1 0 0)" d="M0 842L0 0L0 0L595 0L595 0L595 842L595 842L0 842z" /></clipPath><clipPath id="2"><path id="" clip-rule="evenodd" transform="matrix(1 0 0 1 0 0)" d="M327.48 207.84L348.96 207.84L348.96 207.84L348.96 227.82L348.96 227.82L327.48 227.82z" /></clipPath><clipPath id="3"><path id="" clip-rule="evenodd" transform="matrix(1 0 0 1 0 0)" d="M0 0.02001953L595.2 0.02001953L595.2 0.02001953L595.2 842L595.2 842L0 842z" /></clipPath><clipPath id="4"><path id="" clip-rule="evenodd" transform="matrix(1 0 0 1 0 0)" d="M328.5 208.86L347.94 208.86L347.94 208.86L347.94 226.86L347.94 226.86L328.5 226.86z" /></clipPath><clipPath id="5"><path id="" clip-rule="evenodd" transform="matrix(1 0 0 1 0 0)" d="M327.48 207.84L348.96 207.84L348.96 207.84L348.96 227.82L348.96 227.82L327.48 227.82z" /></clipPath><clipPath id="6"><path id="" clip-rule="evenodd" transform="matrix(1 0 0 1 0 0)" d="M0 0.02001953L595.2 0.02001953L595.2 0.02001953L595.2 842L595.2 842L0 842z" /></clipPath><clipPath id="7"><path id="" clip-rule="evenodd" transform="matrix(1 0 0 1 0 0)" d="M288.54 300.3L303.24 300.3L303.24 300.3L303.24 314.34L303.24 314.34L288.54 314.34z" /></clipPath><clipPath id="8"><path id="" clip-rule="evenodd" transform="matrix(1 0 0 1 0 0)" d="M0 0.02001953L595.2 0.02001953L595.2 0.02001953L595.2 842L595.2 842L0 842z" /></clipPath><clipPath id="9"><path id="" clip-rule="evenodd" transform="matrix(1 0 0 1 0 0)" d="M289.56 301.32L302.28 301.32L302.28 301.32L302.28 313.32L302.28 313.32L289.56 313.32z" /></clipPath><clipPath id="10"><path id="" clip-rule="evenodd" transform="matrix(1 0 0 1 0 0)" d="M288.54 300.3L303.24 300.3L303.24 300.3L303.24 314.34L303.24 314.34L288.54 314.34z" /></clipPath><clipPath id="11"><path id="" clip-rule="evenodd" transform="matrix(1 0 0 1 0 0)" d="M0 0.02001953L595.2 0.02001953L595.2 0.02001953L595.2 842L595.2 842L0 842z" /></clipPath><clipPath id="12"><path id="" clip-rule="evenodd" transform="matrix(1 0 0 1 0 0)" d="M224.94 516.06L548.16 516.06L548.16 516.06L548.16 741.12L548.16 741.12L224.94 741.12z" /></clipPath><clipPath id="13"><path id="" clip-rule="evenodd" transform="matrix(1 0 0 1 0 0)" d="M0 0.02001953L595.2 0.02001953L595.2 0.02001953L595.2 842L595.2 842L0 842z" /></clipPath><clipPath id="14"><path id="" clip-rule="evenodd" transform="matrix(1 0 0 1 0 0)" d="M225.96 517.02L547.14 517.02L547.14 517.02L547.14 740.1L547.14 740.1L225.96 740.1z" /></clipPath><clipPath id="15"><path id="" clip-rule="evenodd" transform="matrix(1 0 0 1 0 0)" d="M224.94 516.06L548.16 516.06L548.16 516.06L548.16 741.12L548.16 741.12L224.94 741.12z" /></clipPath><clipPath id="16"><path id="" clip-rule="evenodd" transform="matrix(1 0 0 1 0 0)" d="M0 0.02001953L595.2 0.02001953L595.2 0.02001953L595.2 842L595.2 842L0 842z" /></clipPath><clipPath id="17"><path id="" clip-rule="evenodd" transform="matrix(1 0 0 1 0 0)" d="M224.94 516.06L548.16 516.06L548.16 516.06L548.16 741.12L548.16 741.12L224.94 741.12z" /></clipPath><clipPath id="18"><path id="" clip-rule="evenodd" transform="matrix(1 0 0 1 0 0)" d="M0 0.02001953L595.2 0.02001953L595.2 0.02001953L595.2 842L595.2 842L0 842z" /></clipPath></defs><g transform="matrix(1.333333 0 0 1.333333 0 0)"><g clip-path="url(#1)"><g clip-path="url(#2)"><g clip-path="url(#3)"><path id="1023" transform="matrix(1 0 0 -1 0 842)" d="M328.5 615.14L347.94 615.14L347.94 633.14L328.5 633.14z" stroke="none" fill="#FFFFFF" fill-rule="nonzero" /></g></g><g clip-path="url(#4)"><g clip-path="url(#5)"><g clip-path="url(#6)"><g transform="matrix(0.48 0 0 0.4736842 328.5 208.86)"><g transform="matrix(1 0 0 1 0 0)"><image x="0" y="0" xlink:href="img_228.png" width="41" height="38" /></g></g></g></g></g><g clip-path="url(#7)"><g clip-path="url(#8)"><path id="1025" transform="matrix(1 0 0 -1 0 842)" d="M289.56 528.68L302.28 528.68L302.28 540.68L289.56 540.68z" stroke="none" fill="#FFFFFF" fill-rule="nonzero" /></g></g><g clip-path="url(#9)"><g clip-path="url(#10)"><g clip-path="url(#11)"><g transform="matrix(0.48 0 0 0.48 289.56 301.32)"><g transform="matrix(1 0 0 1 0 0)"><image x="0" y="0" xlink:href="img_229.png" width="27" height="25" /></g></g></g></g></g><g clip-path="url(#12)"><g clip-path="url(#13)"><path id="1060" transform="matrix(1 0 0 -1 0 842)" d="M225.96 324.98L547.14 324.98L547.14 101.9L225.96 101.9" stroke="none" fill="#FFFFFF" fill-rule="nonzero" /></g></g><g clip-path="url(#14)"><g clip-path="url(#15)"><g clip-path="url(#16)"><g transform="matrix(0.4795702 0 0 0.4787124 225.96 517.02)"><g transform="matrix(1 0 0 1 0 0)"><image x="0" y="0" xlink:href="img_230.png" width="670" height="466" /></g></g></g></g></g><g clip-path="url(#17)"><g clip-path="url(#18)"><path id="1062" transform="matrix(1 0 0 -1 0 842)" d="M251.34 280.94L250.56 280.88L250.56 280.88L249.84 280.82L249.84 280.82L249.9 280.88L249.9 280.88L249.24 280.7L249.24 280.7L249.3 280.7L249.3 280.7L248.64 280.46L248.64 280.46L248.7 280.46L248.7 280.46L248.04 280.1L248.04 280.1L248.1 280.16L248.1 280.16L247.56 279.8L247.56 279.8L247.56 279.74L247.56 279.74L246.96 279.38L246.96 279.38L247.02 279.5L247.02 279.5L246.54 279.02L246.54 279.02L246.6 279.02L246.6 279.02L246.12 278.48L246.12 278.48L246.12 278.54L246.12 278.54L245.7 278L245.7 278L245.76 278L245.76 278L245.4 277.4L245.4 277.4L245.4 277.46L245.4 277.46L245.1 276.86L245.1 276.86L245.1 276.92L245.1 276.92L244.86 276.26L244.86 276.26L244.86 276.32L244.86 276.32L244.68 275.6L244.68 275.6L244.74 275.6L244.74 275.6L244.62 274.88L244.62 274.88L244.62 275L244.62 275L244.62 269.96L244.62 269.96L244.62 270.02L244.62 270.02L244.74 269.3L244.74 269.3L244.68 269.36L244.68 269.36L244.86 268.64L244.86 268.64L244.86 268.7L244.86 268.7L245.1 268.04L245.1 268.04L245.1 268.1L245.1 268.1L245.4 267.5L245.4 267.5L245.76 266.9L245.76 266.9L245.7 266.96L245.7 266.96L246.12 266.42L246.12 266.42L246.6 265.88L246.6 265.88L246.54 265.94L246.54 265.94L247.02 265.46L247.02 265.46L246.96 265.52L246.96 265.52L247.56 265.1L247.56 265.1L248.1 264.74L248.1 264.74L248.04 264.74L248.04 264.74L248.7 264.44L248.7 264.44L248.64 264.5L248.64 264.5L249.3 264.26L249.3 264.26L249.24 264.26L249.24 264.26L249.9 264.08L249.9 264.08L249.84 264.08L249.84 264.08L250.56 264.02L250.56 264.02L251.34 263.96L251.34 263.96L251.28 263.96L251.28 263.96L292.32 263.96L292.32 263.96L293.76 264.08L293.76 264.08L293.64 264.08L293.64 264.08L294.3 264.26L294.3 264.26L294.24 264.26L294.24 264.26L294.9 264.5L294.9 264.5L294.9 264.44L294.9 264.44L295.56 264.74L295.56 264.74L295.5 264.74L295.5 264.74L296.04 263.84L296.04 263.84L295.98 263.84L295.98 263.84L295.32 263.54L295.32 263.54L295.26 263.54L295.26 263.54L294.6 263.3L294.6 263.3L294.54 263.3L294.54 263.3L293.88 263.12L293.88 263.12L293.82 263.06L293.82 263.06L292.38 262.94L292.38 262.94L251.28 262.94L251.28 262.94L250.5 263L250.5 263L249.78 263.06L249.78 263.06L249.66 263.12L249.66 263.12L249 263.3L249 263.3L248.94 263.3L248.94 263.3L248.28 263.54L248.28 263.54L247.62 263.84L247.62 263.84L247.56 263.9L247.56 263.9L247.02 264.26L247.02 264.26L246.96 264.26L246.96 264.26L246.36 264.68L246.36 264.68L245.82 265.22L245.82 265.22L245.34 265.76L245.34 265.76L245.34 265.82L245.34 265.82L244.92 266.36L244.92 266.36L244.86 266.36L244.86 266.36L244.5 266.96L244.5 266.96L244.5 267.02L244.5 267.02L244.2 267.62C 243.939 267.878 243.582 269.662 243.6 269.96L243.6 269.96L243.6 272.48C 243.663 274.309 243.414 274.914 243.9 276.56L243.9 276.56L243.9 276.62L243.9 276.62L244.14 277.28L244.14 277.28L244.2 277.34C 245.189 279.584 247.354 281.431 249.78 281.84L249.78 281.84L250.5 281.9L250.5 281.9L251.28 281.96" stroke="none" fill="#FF0000" fill-rule="nonzero" /><path id="1063" transform="matrix(1 0 0 -1 0 842)" d="M295.5 264.74L296.1 265.1L296.1 265.1L296.04 265.04L296.04 265.04L296.58 265.46L296.58 265.46L296.52 265.46L296.52 265.46L297 265.94L297 265.94L297 265.88L297 265.88L297.48 266.42L297.48 266.42L297.9 266.96L297.9 266.96L297.84 266.9L297.84 266.9L298.2 267.5L298.2 267.5L298.5 268.1L298.5 268.1L298.44 268.04L298.44 268.04L298.68 268.7L298.68 268.7L298.68 268.64L298.68 268.64L298.86 269.36L298.86 269.36L298.86 269.3L298.86 269.3L298.98 270.02L298.98 270.02L298.98 269.96L298.98 269.96L299.04 270.68L299.04 270.68L299.04 274.28L299.04 274.28L299.04 274.22L299.04 274.22L298.98 274.94L298.98 274.94L298.98 274.88L298.98 274.88L298.86 275.6L298.86 275.6L298.68 276.32L298.68 276.32L298.68 276.26L298.68 276.26L298.44 276.92L298.44 276.92L298.5 276.86L298.5 276.86L298.2 277.46L298.2 277.46L298.2 277.4L298.2 277.4L297.84 278L297.84 278L297.9 278L297.9 278L297.48 278.54L297.48 278.54L297.48 278.48L297.48 278.48L297 279.02L297 279.02L296.52 279.5L296.52 279.5L296.64 279.44L296.64 279.44L296.1 279.8L296.1 279.8L296.1 279.74L296.1 279.74L295.5 280.1L295.5 280.1L294.84 280.46L294.84 280.46L294.9 280.46L294.9 280.46L294.24 280.7L294.24 280.7L294.3 280.7L294.3 280.7L293.64 280.88L293.64 280.88L293.76 280.82L293.76 280.82L292.32 280.94L292.32 280.94L251.28 280.94L251.28 280.94L251.34 280.94L251.34 280.94L251.28 281.96L251.28 281.96L271.8 281.96C 284.564 279.993 301.917 288.458 300 269.84L300 269.84L299.88 269.12L299.88 269.12L299.82 269.12L299.82 269.12L299.64 268.4L299.64 268.4L299.64 268.34L299.64 268.34L299.4 267.68L299.4 267.68L299.4 267.62L299.4 267.62L299.1 267.02L299.1 267.02L299.1 266.96L299.1 266.96L298.74 266.36L298.74 266.36L298.68 266.36C 298.139 265.552 297.438 264.841 296.64 264.26L296.64 264.26L296.64 264.2L296.64 264.2L296.04 263.84" stroke="none" fill="#FF0000" fill-rule="nonzero" /><path id="1064" transform="matrix(1 0 0 -1 0 842)" d="M254.28 223.76L253.44 223.7L253.44 223.7L253.5 223.7L253.5 223.7L252.72 223.58L252.72 223.58L252.78 223.64L252.78 223.64L251.22 223.16L251.22 223.16L251.28 223.16L251.28 223.16L250.62 222.8L250.62 222.8L250.68 222.8L250.68 222.8L249.96 222.38L249.96 222.38L249.96 222.44L249.96 222.44L249.36 222.02L249.36 222.02L249.42 222.02L249.42 222.02L248.82 221.48L248.82 221.48L248.88 221.54L248.88 221.54L247.92 220.34L247.92 220.34L247.92 220.4L247.92 220.4L247.5 219.74L247.5 219.74L247.56 219.8L247.56 219.8L247.2 219.08L247.2 219.08L247.2 219.14L247.2 219.14L246.96 218.42L246.96 218.42L247.02 218.48L247.02 218.48L246.84 217.7L246.84 217.7L246.84 217.76L246.84 217.76L246.72 216.92L246.72 216.92L246.66 216.14L246.66 216.14L246.66 216.2L246.66 216.2L246.72 215.36L246.72 215.36L246.72 215.42L246.72 215.42L246.84 214.58L246.84 214.58L246.84 214.64L246.84 214.64L247.02 213.86L247.02 213.86L246.96 213.86L246.96 213.86L247.2 213.14L247.2 213.14L247.2 213.26L247.2 213.26L247.56 212.54L247.56 212.54L247.5 212.54L247.5 212.54L247.92 211.88L247.92 211.88L247.92 211.94L247.92 211.94L248.88 210.74L248.88 210.74L248.82 210.8L248.82 210.8L249.42 210.26L249.42 210.26L249.36 210.32L249.36 210.32L249.96 209.9L249.96 209.9L250.68 209.48L250.68 209.48L250.62 209.48L250.62 209.48L251.28 209.12L251.28 209.12L251.22 209.18L251.22 209.18L252.78 208.7L252.78 208.7L252.72 208.7L252.72 208.7L253.5 208.58L253.5 208.58L253.38 208.58L253.38 208.58L288.06 208.58L288.06 208.58L288 208.58L288 208.58L288.78 208.7L288.78 208.7L288.72 208.7L288.72 208.7L289.5 208.94L289.5 208.94L290.22 209.18L290.22 209.18L290.1 209.12L290.1 209.12L290.82 209.48L290.82 209.48L291.36 208.64L291.36 208.64L291.3 208.58L291.3 208.58L290.58 208.22L290.58 208.22L290.52 208.22L290.52 208.22L289.8 207.98L289.8 207.98L289.02 207.74L289.02 207.74L288.96 207.68L288.96 207.68L288.18 207.56L288.18 207.56L253.32 207.56L253.32 207.56L252.54 207.68L252.54 207.68L252.48 207.74L252.48 207.74L250.92 208.22L250.92 208.22L250.8 208.22L250.8 208.22L250.14 208.58L250.14 208.58L249.42 209L249.42 209L249.36 209.06L249.36 209.06L248.76 209.48L248.76 209.48L248.16 210.02L248.16 210.02L248.1 210.08L248.1 210.08L247.14 211.28L247.14 211.28L247.08 211.34C 244.843 214.625 245.224 219.414 248.16 222.26L248.16 222.26L248.76 222.8L248.76 222.8L248.76 222.86L248.76 222.86L249.36 223.28L249.36 223.28L249.42 223.28L249.42 223.28L250.14 223.7L250.14 223.7L250.8 224.06L250.8 224.06L250.92 224.12L250.92 224.12L252.48 224.6L252.48 224.6L252.54 224.6L252.54 224.6L253.32 224.72L253.32 224.72L253.38 224.72L253.38 224.72L254.22 224.78" stroke="none" fill="#FF0000" fill-rule="nonzero" /><path id="1065" transform="matrix(1 0 0 -1 0 842)" d="M290.82 209.48L292.14 210.32L292.14 210.32L292.02 210.26L292.02 210.26L292.56 210.8L292.56 210.8L292.56 210.74L292.56 210.74L293.1 211.34L293.1 211.34L293.58 211.94L293.58 211.94L293.52 211.88L293.52 211.88L293.94 212.54L293.94 212.54L293.88 212.48L293.88 212.48L294.48 213.92L294.48 213.92L294.48 213.86L294.48 213.86L294.66 214.64L294.66 214.64L294.66 214.58L294.66 214.58L294.78 215.42L294.78 215.42L294.78 215.36L294.78 215.36L294.84 216.2L294.84 216.2L294.84 216.14L294.84 216.14L294.78 216.92L294.78 216.92L294.66 217.76L294.66 217.76L294.66 217.7L294.66 217.7L294.48 218.48L294.48 218.48L294.48 218.36L294.48 218.36L293.88 219.8L293.88 219.8L293.94 219.74L293.94 219.74L293.52 220.4L293.52 220.4L293.58 220.34L293.58 220.34L293.1 220.94L293.1 220.94L292.56 221.54L292.56 221.54L292.02 222.08L292.02 222.08L292.14 222.02L292.14 222.02L290.82 222.86L290.82 222.86L290.82 222.8L290.82 222.8L290.1 223.16L290.1 223.16L290.22 223.16L290.22 223.16L289.5 223.4L289.5 223.4L288.72 223.64L288.72 223.64L288.78 223.58L288.78 223.58L288 223.7L288 223.7L288.06 223.7L288.06 223.7L287.22 223.76L287.22 223.76L254.22 223.76L254.22 223.76L254.28 223.76L254.28 223.76L254.22 224.78L254.22 224.78L287.22 224.78C 290.6 224.777 293.895 222.659 295.14 219.5L295.14 219.5L295.44 218.78L295.44 218.78L295.5 218.72C 296.437 215.143 295.478 211.865 292.68 209.48L292.68 209.48L291.36 208.64" stroke="none" fill="#FF0000" fill-rule="nonzero" /></g></g></g></g></svg>