<svg xmlns="http://www.w3.org/2000/svg" xmlns:xlink="http://www.w3.org/1999/xlink" id="body_182" preserveAspectRatio="xMinYMin meet" viewBox="0 0 793 1123"><defs><clipPath id="1"><path id="" clip-rule="evenodd" transform="matrix(1 0 0 1 0 0)" d="M0 842L0 0L0 0L595 0L595 0L595 842L595 842L0 842z" /></clipPath><clipPath id="2"><path id="" clip-rule="evenodd" transform="matrix(1 0 0 1 0 0)" d="M215.94 140.04L536.34 140.04L536.34 140.04L536.34 492.54L536.34 492.54L215.94 492.54z" /></clipPath><clipPath id="3"><path id="" clip-rule="evenodd" transform="matrix(1 0 0 1 0 0)" d="M0 0.02001953L595.2 0.02001953L595.2 0.02001953L595.2 842L595.2 842L0 842z" /></clipPath><clipPath id="4"><path id="" clip-rule="evenodd" transform="matrix(1 0 0 1 0 0)" d="M216.96 141.06L535.32 141.06L535.32 141.06L535.32 491.52L535.32 491.52L216.96 491.52z" /></clipPath><clipPath id="5"><path id="" clip-rule="evenodd" transform="matrix(1 0 0 1 0 0)" d="M215.94 140.04L536.34 140.04L536.34 140.04L536.34 492.54L536.34 492.54L215.94 492.54z" /></clipPath><clipPath id="6"><path id="" clip-rule="evenodd" transform="matrix(1 0 0 1 0 0)" d="M0 0.02001953L595.2 0.02001953L595.2 0.02001953L595.2 842L595.2 842L0 842z" /></clipPath><clipPath id="7"><path id="" clip-rule="evenodd" transform="matrix(1 0 0 1 0 0)" d="M414.66 608.82L430.86 608.82L430.86 608.82L430.86 623.52L430.86 623.52L414.66 623.52z" /></clipPath><clipPath id="8"><path id="" clip-rule="evenodd" transform="matrix(1 0 0 1 0 0)" d="M0 0.02001953L595.2 0.02001953L595.2 0.02001953L595.2 842L595.2 842L0 842z" /></clipPath><clipPath id="9"><path id="" clip-rule="evenodd" transform="matrix(1 0 0 1 0 0)" d="M415.68 609.78L429.84 609.78L429.84 609.78L429.84 622.5L429.84 622.5L415.68 622.5z" /></clipPath><clipPath id="10"><path id="" clip-rule="evenodd" transform="matrix(1 0 0 1 0 0)" d="M414.66 608.82L430.86 608.82L430.86 608.82L430.86 623.52L430.86 623.52L414.66 623.52z" /></clipPath><clipPath id="11"><path id="" clip-rule="evenodd" transform="matrix(1 0 0 1 0 0)" d="M0 0.02001953L595.2 0.02001953L595.2 0.02001953L595.2 842L595.2 842L0 842z" /></clipPath></defs><g transform="matrix(1.333333 0 0 1.333333 0 0)"><g clip-path="url(#1)"><g clip-path="url(#2)"><g clip-path="url(#3)"><path id="536" transform="matrix(1 0 0 -1 0 842)" d="M216.96 350.48L535.32 350.48L535.32 700.94L216.96 700.94z" stroke="none" fill="#FFFFFF" fill-rule="nonzero" /></g></g><g clip-path="url(#4)"><g clip-path="url(#5)"><g clip-path="url(#6)"><g transform="matrix(0.4802006 0 0 0.4800822 216.96 141.06)"><g transform="matrix(1 0 0 1 0 0)"><image x="0" y="0" xlink:href="img_453.png" width="663" height="730" /></g></g></g></g></g><g clip-path="url(#7)"><g clip-path="url(#8)"><path id="538" transform="matrix(1 0 0 -1 0 842)" d="M415.68 219.5L429.84 219.5L429.84 232.22L415.68 232.22z" stroke="none" fill="#FFFFFF" fill-rule="nonzero" /></g></g><g clip-path="url(#9)"><g clip-path="url(#10)"><g clip-path="url(#11)"><g transform="matrix(0.48 0 0 0.4711111 415.68 609.78)"><g transform="matrix(1 0 0 1 0 0)"><image x="0" y="0" xlink:href="img_115.png" width="30" height="27" /></g></g></g></g></g></g></g></svg>