<svg xmlns="http://www.w3.org/2000/svg" xmlns:xlink="http://www.w3.org/1999/xlink" id="body_80" preserveAspectRatio="xMinYMin meet" viewBox="0 0 793 1123"><defs><clipPath id="1"><path id="" clip-rule="evenodd" transform="matrix(1 0 0 1 0 0)" d="M0 842L0 0L0 0L595 0L595 0L595 842L595 842L0 842z" /></clipPath><clipPath id="2"><path id="" clip-rule="evenodd" transform="matrix(1 0 0 1 0 0)" d="M215.94 186.06L417.18 186.06L417.18 186.06L417.18 385.8L417.18 385.8L215.94 385.8z" /></clipPath><clipPath id="3"><path id="" clip-rule="evenodd" transform="matrix(1 0 0 1 0 0)" d="M0 0.02001953L595.2 0.02001953L595.2 0.02001953L595.2 842L595.2 842L0 842z" /></clipPath><clipPath id="4"><path id="" clip-rule="evenodd" transform="matrix(1 0 0 1 0 0)" d="M216.96 187.02L416.16 187.02L416.16 187.02L416.16 384.78L416.16 384.78L216.96 384.78z" /></clipPath><clipPath id="5"><path id="" clip-rule="evenodd" transform="matrix(1 0 0 1 0 0)" d="M215.94 186.06L417.18 186.06L417.18 186.06L417.18 385.8L417.18 385.8L215.94 385.8z" /></clipPath><clipPath id="6"><path id="" clip-rule="evenodd" transform="matrix(1 0 0 1 0 0)" d="M0 0.02001953L595.2 0.02001953L595.2 0.02001953L595.2 842L595.2 842L0 842z" /></clipPath></defs><g transform="matrix(1.333333 0 0 1.333333 0 0)"><g clip-path="url(#1)"><path id="610" transform="matrix(1 0 0 -1 0 842)" d="M215.94 364.22L298.32 364.22L298.32 382.22L215.94 382.22z" stroke="none" fill="#C4DFF7" fill-rule="nonzero" /><path id="620" transform="matrix(1 0 0 -1 0 842)" d="M298.32 364.22L549 364.22L549 382.22L298.32 382.22z" stroke="none" fill="#C4DFF7" fill-rule="nonzero" /><path id="756" transform="matrix(1 0 0 -1 0 842)" d="M215.94 343.94L549 343.94L549 344.42L215.94 344.42z" stroke="none" fill="#000000" fill-rule="nonzero" /><path id="757" transform="matrix(1 0 0 -1 0 842)" d="M215.94 309.44L549 309.44L549 310.94L215.94 310.94z" stroke="none" fill="#000000" fill-rule="nonzero" /><g clip-path="url(#2)"><g clip-path="url(#3)"><path id="758" transform="matrix(1 0 0 -1 0 842)" d="M216.96 457.22L416.16 457.22L416.16 654.98L216.96 654.98z" stroke="none" fill="#FFFFFF" fill-rule="nonzero" /></g></g><g clip-path="url(#4)"><g clip-path="url(#5)"><g clip-path="url(#6)"><g transform="matrix(0.48 0 0 0.48 216.96 187.02)"><g transform="matrix(1 0 0 1 0 0)"><image x="0" y="0" xlink:href="img_194.png" width="415" height="412" /></g></g></g></g></g></g></g></svg>