<svg xmlns="http://www.w3.org/2000/svg" xmlns:xlink="http://www.w3.org/1999/xlink" id="body_91" preserveAspectRatio="xMinYMin meet" viewBox="0 0 793 1123"><defs><clipPath id="1"><path id="" clip-rule="evenodd" transform="matrix(1 0 0 1 0 0)" d="M0 842L0 0L0 0L595 0L595 0L595 842L595 842L0 842z" /></clipPath><clipPath id="2"><path id="" clip-rule="evenodd" transform="matrix(1 0 0 1 0 0)" d="M215.94 140.04L540.9 140.04L540.9 140.04L540.9 287.64L540.9 287.64L215.94 287.64z" /></clipPath><clipPath id="3"><path id="" clip-rule="evenodd" transform="matrix(1 0 0 1 0 0)" d="M0 0.02001953L595.2 0.02001953L595.2 0.02001953L595.2 842L595.2 842L0 842z" /></clipPath><clipPath id="4"><path id="" clip-rule="evenodd" transform="matrix(1 0 0 1 0 0)" d="M216.96 141.06L539.88 141.06L539.88 141.06L539.88 286.62L539.88 286.62L216.96 286.62z" /></clipPath><clipPath id="5"><path id="" clip-rule="evenodd" transform="matrix(1 0 0 1 0 0)" d="M215.94 140.04L540.9 140.04L540.9 140.04L540.9 287.64L540.9 287.64L215.94 287.64z" /></clipPath><clipPath id="6"><path id="" clip-rule="evenodd" transform="matrix(1 0 0 1 0 0)" d="M0 0.02001953L595.2 0.02001953L595.2 0.02001953L595.2 842L595.2 842L0 842z" /></clipPath><clipPath id="7"><path id="" clip-rule="evenodd" transform="matrix(1 0 0 1 0 0)" d="M215.94 411.66L543.66 411.66L543.66 411.66L543.66 565.56L543.66 565.56L215.94 565.56z" /></clipPath><clipPath id="8"><path id="" clip-rule="evenodd" transform="matrix(1 0 0 1 0 0)" d="M0 0.02001953L595.2 0.02001953L595.2 0.02001953L595.2 842L595.2 842L0 842z" /></clipPath><clipPath id="9"><path id="" clip-rule="evenodd" transform="matrix(1 0 0 1 0 0)" d="M216.96 412.62L542.64 412.62L542.64 412.62L542.64 564.54L542.64 564.54L216.96 564.54z" /></clipPath><clipPath id="10"><path id="" clip-rule="evenodd" transform="matrix(1 0 0 1 0 0)" d="M215.94 411.66L543.66 411.66L543.66 411.66L543.66 565.56L543.66 565.56L215.94 565.56z" /></clipPath><clipPath id="11"><path id="" clip-rule="evenodd" transform="matrix(1 0 0 1 0 0)" d="M0 0.02001953L595.2 0.02001953L595.2 0.02001953L595.2 842L595.2 842L0 842z" /></clipPath></defs><g transform="matrix(1.333333 0 0 1.333333 0 0)"><g clip-path="url(#1)"><g clip-path="url(#2)"><g clip-path="url(#3)"><path id="691" transform="matrix(1 0 0 -1 0 842)" d="M216.96 555.38L539.88 555.38L539.88 700.94L216.96 700.94z" stroke="none" fill="#FFFFFF" fill-rule="nonzero" /></g></g><g clip-path="url(#4)"><g clip-path="url(#5)"><g clip-path="url(#6)"><g transform="matrix(0.4799331 0 0 0.4788158 216.96 141.06)"><g transform="matrix(1 0 0 1 0 0)"><image x="0" y="0" xlink:href="img_219.png" width="673" height="304" /></g></g></g></g></g><g clip-path="url(#7)"><g clip-path="url(#8)"><path id="742" transform="matrix(1 0 0 -1 0 842)" d="M216.96 277.46L542.64 277.46L542.64 429.38L216.96 429.38z" stroke="none" fill="#FFFFFF" fill-rule="nonzero" /></g></g><g clip-path="url(#9)"><g clip-path="url(#10)"><g clip-path="url(#11)"><g transform="matrix(0.48 0 0 0.4792429 216.96 412.62)"><g transform="matrix(1 0 0 1 0 0)"><image x="0" y="0" xlink:href="img_220.png" width="679" height="317" /></g></g></g></g></g></g></g></svg>