<svg xmlns="http://www.w3.org/2000/svg" xmlns:xlink="http://www.w3.org/1999/xlink" id="body_130" preserveAspectRatio="xMinYMin meet" viewBox="0 0 793 1123"><defs><clipPath id="1"><path id="" clip-rule="evenodd" transform="matrix(1 0 0 1 0 0)" d="M0 842L0 0L0 0L595 0L595 0L595 842L595 842L0 842z" /></clipPath><clipPath id="2"><path id="" clip-rule="evenodd" transform="matrix(1 0 0 1 0 0)" d="M318.18 217.56L329.04 217.56L329.04 217.56L329.04 230.82L329.04 230.82L318.18 230.82z" /></clipPath><clipPath id="3"><path id="" clip-rule="evenodd" transform="matrix(1 0 0 1 0 0)" d="M0 0.02001953L595.2 0.02001953L595.2 0.02001953L595.2 842L595.2 842L0 842z" /></clipPath><clipPath id="4"><path id="" clip-rule="evenodd" transform="matrix(1 0 0 1 0 0)" d="M319.2 218.58L328.08 218.58L328.08 218.58L328.08 229.86L328.08 229.86L319.2 229.86z" /></clipPath><clipPath id="5"><path id="" clip-rule="evenodd" transform="matrix(1 0 0 1 0 0)" d="M318.18 217.56L329.04 217.56L329.04 217.56L329.04 230.82L329.04 230.82L318.18 230.82z" /></clipPath><clipPath id="6"><path id="" clip-rule="evenodd" transform="matrix(1 0 0 1 0 0)" d="M0 0.02001953L595.2 0.02001953L595.2 0.02001953L595.2 842L595.2 842L0 842z" /></clipPath><clipPath id="7"><path id="" clip-rule="evenodd" transform="matrix(1 0 0 1 0 0)" d="M215.94 352.02L367.74 352.02L367.74 352.02L367.74 543.42L367.74 543.42L215.94 543.42z" /></clipPath><clipPath id="8"><path id="" clip-rule="evenodd" transform="matrix(1 0 0 1 0 0)" d="M0 0.02001953L595.2 0.02001953L595.2 0.02001953L595.2 842L595.2 842L0 842z" /></clipPath><clipPath id="9"><path id="" clip-rule="evenodd" transform="matrix(1 0 0 1 0 0)" d="M216.96 353.04L366.72 353.04L366.72 353.04L366.72 542.4L366.72 542.4L216.96 542.4z" /></clipPath><clipPath id="10"><path id="" clip-rule="evenodd" transform="matrix(1 0 0 1 0 0)" d="M215.94 352.02L367.74 352.02L367.74 352.02L367.74 543.42L367.74 543.42L215.94 543.42z" /></clipPath><clipPath id="11"><path id="" clip-rule="evenodd" transform="matrix(1 0 0 1 0 0)" d="M0 0.02001953L595.2 0.02001953L595.2 0.02001953L595.2 842L595.2 842L0 842z" /></clipPath></defs><g transform="matrix(1.333333 0 0 1.333333 0 0)"><g clip-path="url(#1)"><g clip-path="url(#2)"><g clip-path="url(#3)"><path id="757" transform="matrix(1 0 0 -1 0 842)" d="M319.2 612.14L328.08 612.14L328.08 623.42L319.2 623.42z" stroke="none" fill="#FFFFFF" fill-rule="nonzero" /></g></g><g clip-path="url(#4)"><g clip-path="url(#5)"><g clip-path="url(#6)"><g transform="matrix(0.48 0 0 0.47 319.2 218.58)"><g transform="matrix(1 0 0 1 0 0)"><image x="0" y="0" xlink:href="img_335.png" width="19" height="24" /></g></g></g></g></g><g clip-path="url(#7)"><g clip-path="url(#8)"><path id="759" transform="matrix(1 0 0 -1 0 842)" d="M216.96 299.6L366.72 299.6L366.72 488.96L216.96 488.96z" stroke="none" fill="#FFFFFF" fill-rule="nonzero" /></g></g><g clip-path="url(#9)"><g clip-path="url(#10)"><g clip-path="url(#11)"><g transform="matrix(0.48 0 0 0.4793924 216.96 353.04)"><g transform="matrix(1 0 0 1 0 0)"><image x="0" y="0" xlink:href="img_336.png" width="312" height="395" /></g></g></g></g></g></g></g></svg>