<svg xmlns="http://www.w3.org/2000/svg" xmlns:xlink="http://www.w3.org/1999/xlink" id="body_50" preserveAspectRatio="xMinYMin meet" viewBox="0 0 793 1123"><defs><clipPath id="1"><path id="" clip-rule="evenodd" transform="matrix(1 0 0 1 0 0)" d="M0 842L0 0L0 0L595 0L595 0L595 842L595 842L0 842z" /></clipPath></defs><g transform="matrix(1.333333 0 0 1.333333 0 0)"><g clip-path="url(#1)"><path id="1463" transform="matrix(1 0 0 -1 0 842)" d="M35.94 751.94L223.5 751.94L223.5 769.94L35.94 769.94z" stroke="none" fill="#C4DFF7" fill-rule="nonzero" /><path id="1471" transform="matrix(1 0 0 -1 0 842)" d="M223.5 769.94L549 769.94L549 751.94L223.5 751.94" stroke="none" fill="#C4DFF7" fill-rule="nonzero" /><path id="1483" transform="matrix(1 0 0 -1 0 842)" d="M35.94 693.74L549 693.74L549 694.22L35.94 694.22z" stroke="none" fill="#000000" fill-rule="nonzero" /><path id="1484" transform="matrix(1 0 0 -1 0 842)" d="M35.94 621.74L549 621.74L549 622.22L35.94 622.22z" stroke="none" fill="#000000" fill-rule="nonzero" /><path id="1485" transform="matrix(1 0 0 -1 0 842)" d="M35.94 549.74L549 549.74L549 550.22L35.94 550.22z" stroke="none" fill="#000000" fill-rule="nonzero" /><path id="1486" transform="matrix(1 0 0 -1 0 842)" d="M35.94 463.7L549 463.7L549 464.18L35.94 464.18z" stroke="none" fill="#000000" fill-rule="nonzero" /><path id="1487" transform="matrix(1 0 0 -1 0 842)" d="M35.94 405.74L549 405.74L549 406.22L35.94 406.22z" stroke="none" fill="#000000" fill-rule="nonzero" /><path id="1488" transform="matrix(1 0 0 -1 0 842)" d="M35.94 347.72L549 347.72L549 348.2L35.94 348.2z" stroke="none" fill="#000000" fill-rule="nonzero" /><path id="1489" transform="matrix(1 0 0 -1 0 842)" d="M35.94 289.7L549 289.7L549 290.18L35.94 290.18z" stroke="none" fill="#000000" fill-rule="nonzero" /><path id="1490" transform="matrix(1 0 0 -1 0 842)" d="M35.94 241.16L549 241.16L549 242.66L35.94 242.66z" stroke="none" fill="#000000" fill-rule="nonzero" /></g></g></svg>