<svg xmlns="http://www.w3.org/2000/svg" xmlns:xlink="http://www.w3.org/1999/xlink" id="body_30" preserveAspectRatio="xMinYMin meet" viewBox="0 0 793 1123"><defs><clipPath id="1"><path id="" clip-rule="evenodd" transform="matrix(1 0 0 1 0 0)" d="M0 842L0 0L0 0L595 0L595 0L595 842L595 842L0 842z" /></clipPath><clipPath id="2"><path id="" clip-rule="evenodd" transform="matrix(1 0 0 1 0 0)" d="M224.94 130.02L541.98 130.02L541.98 130.02L541.98 366.24L541.98 366.24L224.94 366.24z" /></clipPath><clipPath id="3"><path id="" clip-rule="evenodd" transform="matrix(1 0 0 1 0 0)" d="M0 0.02001953L595.2 0.02001953L595.2 0.02001953L595.2 842L595.2 842L0 842z" /></clipPath><clipPath id="4"><path id="" clip-rule="evenodd" transform="matrix(1 0 0 1 0 0)" d="M225.96 131.04L540.96 131.04L540.96 131.04L540.96 365.22L540.96 365.22L225.96 365.22z" /></clipPath><clipPath id="5"><path id="" clip-rule="evenodd" transform="matrix(1 0 0 1 0 0)" d="M224.94 130.02L541.98 130.02L541.98 130.02L541.98 366.24L541.98 366.24L224.94 366.24z" /></clipPath><clipPath id="6"><path id="" clip-rule="evenodd" transform="matrix(1 0 0 1 0 0)" d="M0 0.02001953L595.2 0.02001953L595.2 0.02001953L595.2 842L595.2 842L0 842z" /></clipPath><clipPath id="7"><path id="" clip-rule="evenodd" transform="matrix(1 0 0 1 0 0)" d="M44.94 439.2L537.12 439.2L537.12 439.2L537.12 589.56L537.12 589.56L44.94 589.56z" /></clipPath><clipPath id="8"><path id="" clip-rule="evenodd" transform="matrix(1 0 0 1 0 0)" d="M0 0.02001953L595.2 0.02001953L595.2 0.02001953L595.2 842L595.2 842L0 842z" /></clipPath><clipPath id="9"><path id="" clip-rule="evenodd" transform="matrix(1 0 0 1 0 0)" d="M45.96 440.22L536.1 440.22L536.1 440.22L536.1 588.54L536.1 588.54L45.96 588.54z" /></clipPath><clipPath id="10"><path id="" clip-rule="evenodd" transform="matrix(1 0 0 1 0 0)" d="M44.94 439.2L537.12 439.2L537.12 439.2L537.12 589.56L537.12 589.56L44.94 589.56z" /></clipPath><clipPath id="11"><path id="" clip-rule="evenodd" transform="matrix(1 0 0 1 0 0)" d="M0 0.02001953L595.2 0.02001953L595.2 0.02001953L595.2 842L595.2 842L0 842z" /></clipPath></defs><g transform="matrix(1.333333 0 0 1.333333 0 0)"><g clip-path="url(#1)"><g clip-path="url(#2)"><g clip-path="url(#3)"><path id="333" transform="matrix(1 0 0 -1 0 842)" d="M225.96 476.78L540.96 476.78L540.96 710.96L225.96 710.96z" stroke="none" fill="#FFFFFF" fill-rule="nonzero" /></g></g><g clip-path="url(#4)"><g clip-path="url(#5)"><g clip-path="url(#6)"><g transform="matrix(0.48 0 0 0.479877 225.96 131.04)"><g transform="matrix(1 0 0 1 0 0)"><image x="0" y="0" xlink:href="img_59.png" width="657" height="488" /></g></g></g></g></g><g clip-path="url(#7)"><g clip-path="url(#8)"><path id="370" transform="matrix(1 0 0 -1 0 842)" d="M45.96 253.46L536.1 253.46L536.1 401.78L45.96 401.78z" stroke="none" fill="#FFFFFF" fill-rule="nonzero" /></g></g><g clip-path="url(#9)"><g clip-path="url(#10)"><g clip-path="url(#11)"><g transform="matrix(0.4799432 0 0 0.4784516 45.96 440.22)"><g transform="matrix(1 0 0 1 0 0)"><image x="0" y="0" xlink:href="img_60.png" width="1022" height="310" /></g></g></g></g></g></g></g></svg>