<svg xmlns="http://www.w3.org/2000/svg" xmlns:xlink="http://www.w3.org/1999/xlink" id="body_97" preserveAspectRatio="xMinYMin meet" viewBox="0 0 793 1123"><defs><clipPath id="1"><path id="" clip-rule="evenodd" transform="matrix(1 0 0 1 0 0)" d="M0 842L0 0L0 0L595 0L595 0L595 842L595 842L0 842z" /></clipPath><clipPath id="2"><path id="" clip-rule="evenodd" transform="matrix(1 0 0 1 0 0)" d="M215.94 153.06L548.1 153.06L548.1 153.06L548.1 199.92L548.1 199.92L215.94 199.92z" /></clipPath><clipPath id="3"><path id="" clip-rule="evenodd" transform="matrix(1 0 0 1 0 0)" d="M0 0.02001953L595.2 0.02001953L595.2 0.02001953L595.2 842L595.2 842L0 842z" /></clipPath><clipPath id="4"><path id="" clip-rule="evenodd" transform="matrix(1 0 0 1 0 0)" d="M216.96 154.02L343.44 154.02L343.44 154.02L343.44 198.9L343.44 198.9L216.96 198.9z" /></clipPath><clipPath id="5"><path id="" clip-rule="evenodd" transform="matrix(1 0 0 1 0 0)" d="M215.94 153.06L548.1 153.06L548.1 153.06L548.1 199.92L548.1 199.92L215.94 199.92z" /></clipPath><clipPath id="6"><path id="" clip-rule="evenodd" transform="matrix(1 0 0 1 0 0)" d="M0 0.02001953L595.2 0.02001953L595.2 0.02001953L595.2 842L595.2 842L0 842z" /></clipPath><clipPath id="7"><path id="" clip-rule="evenodd" transform="matrix(1 0 0 1 0 0)" d="M215.94 153.06L548.1 153.06L548.1 153.06L548.1 199.92L548.1 199.92L215.94 199.92z" /></clipPath><clipPath id="8"><path id="" clip-rule="evenodd" transform="matrix(1 0 0 1 0 0)" d="M0 0.02001953L595.2 0.02001953L595.2 0.02001953L595.2 842L595.2 842L0 842z" /></clipPath><clipPath id="9"><path id="" clip-rule="evenodd" transform="matrix(1 0 0 1 0 0)" d="M413.16 154.02L547.08 154.02L547.08 154.02L547.08 196.74L547.08 196.74L413.16 196.74z" /></clipPath><clipPath id="10"><path id="" clip-rule="evenodd" transform="matrix(1 0 0 1 0 0)" d="M215.94 153.06L548.1 153.06L548.1 153.06L548.1 199.92L548.1 199.92L215.94 199.92z" /></clipPath><clipPath id="11"><path id="" clip-rule="evenodd" transform="matrix(1 0 0 1 0 0)" d="M0 0.02001953L595.2 0.02001953L595.2 0.02001953L595.2 842L595.2 842L0 842z" /></clipPath><clipPath id="12"><path id="" clip-rule="evenodd" transform="matrix(1 0 0 1 0 0)" d="M215.94 153.06L548.1 153.06L548.1 153.06L548.1 199.92L548.1 199.92L215.94 199.92z" /></clipPath><clipPath id="13"><path id="" clip-rule="evenodd" transform="matrix(1 0 0 1 0 0)" d="M0 0.02001953L595.2 0.02001953L595.2 0.02001953L595.2 842L595.2 842L0 842z" /></clipPath><clipPath id="14"><path id="" clip-rule="evenodd" transform="matrix(1 0 0 1 0 0)" d="M215.94 367.92L358.86 367.92L358.86 367.92L358.86 619.32L358.86 619.32L215.94 619.32z" /></clipPath><clipPath id="15"><path id="" clip-rule="evenodd" transform="matrix(1 0 0 1 0 0)" d="M0 0.02001953L595.2 0.02001953L595.2 0.02001953L595.2 842L595.2 842L0 842z" /></clipPath><clipPath id="16"><path id="" clip-rule="evenodd" transform="matrix(1 0 0 1 0 0)" d="M216.96 368.94L357.84 368.94L357.84 368.94L357.84 618.3L357.84 618.3L216.96 618.3z" /></clipPath><clipPath id="17"><path id="" clip-rule="evenodd" transform="matrix(1 0 0 1 0 0)" d="M215.94 367.92L358.86 367.92L358.86 367.92L358.86 619.32L358.86 619.32L215.94 619.32z" /></clipPath><clipPath id="18"><path id="" clip-rule="evenodd" transform="matrix(1 0 0 1 0 0)" d="M0 0.02001953L595.2 0.02001953L595.2 0.02001953L595.2 842L595.2 842L0 842z" /></clipPath></defs><g transform="matrix(1.333333 0 0 1.333333 0 0)"><g clip-path="url(#1)"><g clip-path="url(#2)"><g clip-path="url(#3)"><path id="681" transform="matrix(1 0 0 -1 0 842)" d="M216.96 643.1L343.44 643.1L343.44 687.98L216.96 687.98z" stroke="none" fill="#FFFFFF" fill-rule="nonzero" /></g></g><g clip-path="url(#4)"><g clip-path="url(#5)"><g clip-path="url(#6)"><g transform="matrix(0.48 0 0 0.4774468 216.96 154.02)"><g transform="matrix(1 0 0 1 0 0)"><image x="0" y="0" xlink:href="img_238.png" width="264" height="94" /></g></g></g></g></g><g clip-path="url(#7)"><g clip-path="url(#8)"><path id="683" transform="matrix(1 0 0 -1 0 842)" d="M413.16 645.26L547.08 645.26L547.08 687.98L413.16 687.98z" stroke="none" fill="#FFFFFF" fill-rule="nonzero" /></g></g><g clip-path="url(#9)"><g clip-path="url(#10)"><g clip-path="url(#11)"><g transform="matrix(0.48 0 0 0.48 413.16 154.02)"><g transform="matrix(1 0 0 1 0 0)"><image x="0" y="0" xlink:href="img_239.png" width="279" height="89" /></g></g></g></g></g><g clip-path="url(#12)"><g clip-path="url(#13)"><path id="685" transform="matrix(1 0 0 -1 0 842)" d="M386.82 665.54L386.82 669.68L387.48 669.5L399.6 666.02L401.28 665.54L399.6 665.06L387.48 661.58L386.82 661.4L386.82 662.06L387.18 662.54L399.3 666.02L399.6 665.06L399.3 665.06L387.18 668.54L387.48 669.5L387.84 669.02L387.84 665.54" stroke="none" fill="#000000" fill-rule="nonzero" /><path id="686" transform="matrix(1 0 0 -1 0 842)" d="M386.82 662.06L387.84 662.06L387.84 665.54L386.82 665.54z" stroke="none" fill="#000000" fill-rule="nonzero" /><path id="687" transform="matrix(1 0 0 -1 0 842)" d="M387.3 665.54L387.3 669.02L387.3 669.02L399.42 665.54L399.42 665.54L387.3 662.06" stroke="none" fill="#000000" fill-rule="evenodd" /><path id="688" transform="matrix(1 0 0 -1 0 842)" d="M356.22 665L386.82 665L386.82 666.02L356.22 666.02z" stroke="none" fill="#000000" fill-rule="nonzero" /></g></g><g clip-path="url(#14)"><g clip-path="url(#15)"><path id="718" transform="matrix(1 0 0 -1 0 842)" d="M216.96 223.7L357.84 223.7L357.84 473.06L216.96 473.06z" stroke="none" fill="#FFFFFF" fill-rule="nonzero" /></g></g><g clip-path="url(#16)"><g clip-path="url(#17)"><g clip-path="url(#18)"><g transform="matrix(0.48 0 0 0.4795385 216.96 368.94)"><g transform="matrix(1 0 0 1 0 0)"><image x="0" y="0" xlink:href="img_240.png" width="294" height="520" /></g></g></g></g></g></g></g></svg>