<svg xmlns="http://www.w3.org/2000/svg" xmlns:xlink="http://www.w3.org/1999/xlink" id="body_244" preserveAspectRatio="xMinYMin meet" viewBox="0 0 793 1123"><defs><clipPath id="1"><path id="" clip-rule="evenodd" transform="matrix(1 0 0 1 0 0)" d="M0 842L0 0L0 0L595 0L595 0L595 842L595 842L0 842z" /></clipPath><clipPath id="2"><path id="" clip-rule="evenodd" transform="matrix(1 0 0 1 0 0)" d="M215.94 199.02L550.5 199.02L550.5 199.02L550.5 266.34L550.5 266.34L215.94 266.34z" /></clipPath><clipPath id="3"><path id="" clip-rule="evenodd" transform="matrix(1 0 0 1 0 0)" d="M0 0.02001953L595.2 0.02001953L595.2 0.02001953L595.2 842L595.2 842L0 842z" /></clipPath><clipPath id="4"><path id="" clip-rule="evenodd" transform="matrix(1 0 0 1 0 0)" d="M216.96 200.04L381.48 200.04L381.48 200.04L381.48 265.3199L381.48 265.3199L216.96 265.3199z" /></clipPath><clipPath id="5"><path id="" clip-rule="evenodd" transform="matrix(1 0 0 1 0 0)" d="M215.94 199.02L550.5 199.02L550.5 199.02L550.5 266.34L550.5 266.34L215.94 266.34z" /></clipPath><clipPath id="6"><path id="" clip-rule="evenodd" transform="matrix(1 0 0 1 0 0)" d="M0 0.02001953L595.2 0.02001953L595.2 0.02001953L595.2 842L595.2 842L0 842z" /></clipPath><clipPath id="7"><path id="" clip-rule="evenodd" transform="matrix(1 0 0 1 0 0)" d="M215.94 199.02L550.5 199.02L550.5 199.02L550.5 266.34L550.5 266.34L215.94 266.34z" /></clipPath><clipPath id="8"><path id="" clip-rule="evenodd" transform="matrix(1 0 0 1 0 0)" d="M0 0.02001953L595.2 0.02001953L595.2 0.02001953L595.2 842L595.2 842L0 842z" /></clipPath><clipPath id="9"><path id="" clip-rule="evenodd" transform="matrix(1 0 0 1 0 0)" d="M384.96 200.04L549.48 200.04L549.48 200.04L549.48 265.3199L549.48 265.3199L384.96 265.3199z" /></clipPath><clipPath id="10"><path id="" clip-rule="evenodd" transform="matrix(1 0 0 1 0 0)" d="M215.94 199.02L550.5 199.02L550.5 199.02L550.5 266.34L550.5 266.34L215.94 266.34z" /></clipPath><clipPath id="11"><path id="" clip-rule="evenodd" transform="matrix(1 0 0 1 0 0)" d="M0 0.02001953L595.2 0.02001953L595.2 0.02001953L595.2 842L595.2 842L0 842z" /></clipPath><clipPath id="12"><path id="" clip-rule="evenodd" transform="matrix(1 0 0 1 0 0)" d="M288.18 431.34L476.76 431.34L476.76 431.34L476.76 465.18L476.76 465.18L288.18 465.18z" /></clipPath><clipPath id="13"><path id="" clip-rule="evenodd" transform="matrix(1 0 0 1 0 0)" d="M0 0.02001953L595.2 0.02001953L595.2 0.02001953L595.2 842L595.2 842L0 842z" /></clipPath><clipPath id="14"><path id="" clip-rule="evenodd" transform="matrix(1 0 0 1 0 0)" d="M286.68 624.18L478.26 624.18L478.26 624.18L478.26 658.02L478.26 658.02L286.68 658.02z" /></clipPath><clipPath id="15"><path id="" clip-rule="evenodd" transform="matrix(1 0 0 1 0 0)" d="M0 0.02001953L595.2 0.02001953L595.2 0.02001953L595.2 842L595.2 842L0 842z" /></clipPath></defs><g transform="matrix(1.333333 0 0 1.333333 0 0)"><g clip-path="url(#1)"><g clip-path="url(#2)"><g clip-path="url(#3)"><path id="1038" transform="matrix(1 0 0 -1 0 842)" d="M216.96 576.68L381.48 576.68L381.48 641.96L216.96 641.96z" stroke="none" fill="#FFFFFF" fill-rule="nonzero" /></g></g><g clip-path="url(#4)"><g clip-path="url(#5)"><g clip-path="url(#6)"><g transform="matrix(0.4805335 0 0 0.48 216.96 200.04)"><g transform="matrix(1 0 0 1 0 0)"><image x="0" y="0" xlink:href="img_581.png" width="343" height="136" /></g></g></g></g></g><g clip-path="url(#7)"><g clip-path="url(#8)"><path id="1040" transform="matrix(1 0 0 -1 0 842)" d="M384.96 641.96L549.48 641.96L549.48 576.6801L384.96 576.6801" stroke="none" fill="#FFFFFF" fill-rule="nonzero" /></g></g><g clip-path="url(#9)"><g clip-path="url(#10)"><g clip-path="url(#11)"><g transform="matrix(0.4805335 0 0 0.48 384.96 200.04)"><g transform="matrix(1 0 0 1 0 0)"><image x="0" y="0" xlink:href="img_582.png" width="343" height="136" /></g></g></g></g></g><g clip-path="url(#12)"><g clip-path="url(#13)"></g></g><g clip-path="url(#14)"><g clip-path="url(#15)"></g></g></g></g></svg>