<svg xmlns="http://www.w3.org/2000/svg" xmlns:xlink="http://www.w3.org/1999/xlink" id="body_45" preserveAspectRatio="xMinYMin meet" viewBox="0 0 793 1123"><defs><clipPath id="1"><path id="" clip-rule="evenodd" transform="matrix(1 0 0 1 0 0)" d="M0 842L0 0L0 0L595 0L595 0L595 842L595 842L0 842z" /></clipPath><clipPath id="2"><path id="" clip-rule="evenodd" transform="matrix(1 0 0 1 0 0)" d="M44.94 170.04L64.25999 170.04L64.25999 170.04L64.25999 191.52L64.25999 191.52L44.94 191.52z" /></clipPath><clipPath id="3"><path id="" clip-rule="evenodd" transform="matrix(1 0 0 1 0 0)" d="M0 0.02001953L595.2 0.02001953L595.2 0.02001953L595.2 842L595.2 842L0 842z" /></clipPath><clipPath id="4"><path id="" clip-rule="evenodd" transform="matrix(1 0 0 1 0 0)" d="M45.96 171.06L62.52 171.06L62.52 171.06L62.52 186.9L62.52 186.9L45.96 186.9z" /></clipPath><clipPath id="5"><path id="" clip-rule="evenodd" transform="matrix(1 0 0 1 0 0)" d="M44.94 170.04L64.25999 170.04L64.25999 170.04L64.25999 191.52L64.25999 191.52L44.94 191.52z" /></clipPath><clipPath id="6"><path id="" clip-rule="evenodd" transform="matrix(1 0 0 1 0 0)" d="M0 0.02001953L595.2 0.02001953L595.2 0.02001953L595.2 842L595.2 842L0 842z" /></clipPath><clipPath id="7"><path id="" clip-rule="evenodd" transform="matrix(1 0 0 1 0 0)" d="M44.94 204.06L64.25999 204.06L64.25999 204.06L64.25999 225.48L64.25999 225.48L44.94 225.48z" /></clipPath><clipPath id="8"><path id="" clip-rule="evenodd" transform="matrix(1 0 0 1 0 0)" d="M0 0.02001953L595.2 0.02001953L595.2 0.02001953L595.2 842L595.2 842L0 842z" /></clipPath><clipPath id="9"><path id="" clip-rule="evenodd" transform="matrix(1 0 0 1 0 0)" d="M45.96 205.02L62.52 205.02L62.52 205.02L62.52 220.86L62.52 220.86L45.96 220.86z" /></clipPath><clipPath id="10"><path id="" clip-rule="evenodd" transform="matrix(1 0 0 1 0 0)" d="M44.94 204.06L64.25999 204.06L64.25999 204.06L64.25999 225.48L64.25999 225.48L44.94 225.48z" /></clipPath><clipPath id="11"><path id="" clip-rule="evenodd" transform="matrix(1 0 0 1 0 0)" d="M0 0.02001953L595.2 0.02001953L595.2 0.02001953L595.2 842L595.2 842L0 842z" /></clipPath><clipPath id="12"><path id="" clip-rule="evenodd" transform="matrix(1 0 0 1 0 0)" d="M44.94 238.02L64.25999 238.02L64.25999 238.02L64.25999 256.62L64.25999 256.62L44.94 256.62z" /></clipPath><clipPath id="13"><path id="" clip-rule="evenodd" transform="matrix(1 0 0 1 0 0)" d="M0 0.02001953L595.2 0.02001953L595.2 0.02001953L595.2 842L595.2 842L0 842z" /></clipPath><clipPath id="14"><path id="" clip-rule="evenodd" transform="matrix(1 0 0 1 0 0)" d="M45.96 239.04L62.52 239.04L62.52 239.04L62.52 254.88L62.52 254.88L45.96 254.88z" /></clipPath><clipPath id="15"><path id="" clip-rule="evenodd" transform="matrix(1 0 0 1 0 0)" d="M44.94 238.02L64.25999 238.02L64.25999 238.02L64.25999 256.62L64.25999 256.62L44.94 256.62z" /></clipPath><clipPath id="16"><path id="" clip-rule="evenodd" transform="matrix(1 0 0 1 0 0)" d="M0 0.02001953L595.2 0.02001953L595.2 0.02001953L595.2 842L595.2 842L0 842z" /></clipPath><clipPath id="17"><path id="" clip-rule="evenodd" transform="matrix(1 0 0 1 0 0)" d="M44.94 440.64L63.54 440.64L63.54 440.64L63.54 458.46L63.54 458.46L44.94 458.46z" /></clipPath><clipPath id="18"><path id="" clip-rule="evenodd" transform="matrix(1 0 0 1 0 0)" d="M0 0.02001953L595.2 0.02001953L595.2 0.02001953L595.2 842L595.2 842L0 842z" /></clipPath><clipPath id="19"><path id="" clip-rule="evenodd" transform="matrix(1 0 0 1 0 0)" d="M45.96 441.6L62.52 441.6L62.52 441.6L62.52 457.44L62.52 457.44L45.96 457.44z" /></clipPath><clipPath id="20"><path id="" clip-rule="evenodd" transform="matrix(1 0 0 1 0 0)" d="M44.94 440.64L63.54 440.64L63.54 440.64L63.54 458.46L63.54 458.46L44.94 458.46z" /></clipPath><clipPath id="21"><path id="" clip-rule="evenodd" transform="matrix(1 0 0 1 0 0)" d="M0 0.02001953L595.2 0.02001953L595.2 0.02001953L595.2 842L595.2 842L0 842z" /></clipPath><clipPath id="22"><path id="" clip-rule="evenodd" transform="matrix(1 0 0 1 0 0)" d="M44.94 508.62L63.54 508.62L63.54 508.62L63.54 526.5L63.54 526.5L44.94 526.5z" /></clipPath><clipPath id="23"><path id="" clip-rule="evenodd" transform="matrix(1 0 0 1 0 0)" d="M0 0.02001953L595.2 0.02001953L595.2 0.02001953L595.2 842L595.2 842L0 842z" /></clipPath><clipPath id="24"><path id="" clip-rule="evenodd" transform="matrix(1 0 0 1 0 0)" d="M45.96 509.64L62.52 509.64L62.52 509.64L62.52 525.48L62.52 525.48L45.96 525.48z" /></clipPath><clipPath id="25"><path id="" clip-rule="evenodd" transform="matrix(1 0 0 1 0 0)" d="M44.94 508.62L63.54 508.62L63.54 508.62L63.54 526.5L63.54 526.5L44.94 526.5z" /></clipPath><clipPath id="26"><path id="" clip-rule="evenodd" transform="matrix(1 0 0 1 0 0)" d="M0 0.02001953L595.2 0.02001953L595.2 0.02001953L595.2 842L595.2 842L0 842z" /></clipPath></defs><g transform="matrix(1.333333 0 0 1.333333 0 0)"><g clip-path="url(#1)"><path id="198" transform="matrix(1 0 0 -1 0 842)" d="M44.94 677.96L236.34 677.96L236.34 695.96L44.94 695.96z" stroke="none" fill="#C4DFF7" fill-rule="nonzero" /><path id="206" transform="matrix(1 0 0 -1 0 842)" d="M236.34 695.96L558 695.96L558 677.96L236.34 677.96" stroke="none" fill="#C4DFF7" fill-rule="nonzero" /><path id="1747" transform="matrix(1 0 0 -1 0 842)" d="M44.94 643.7L558 643.7L558 644.18L44.94 644.18z" stroke="none" fill="#000000" fill-rule="nonzero" /><path id="1748" transform="matrix(1 0 0 -1 0 842)" d="M44.94 609.74L558 609.74L558 610.22L44.94 610.22z" stroke="none" fill="#000000" fill-rule="nonzero" /><path id="1749" transform="matrix(1 0 0 -1 0 842)" d="M44.94 581.12L558 581.12L558 581.6L44.94 581.6z" stroke="none" fill="#000000" fill-rule="nonzero" /><path id="1750" transform="matrix(1 0 0 -1 0 842)" d="M44.94 547.16L558 547.16L558 547.64L44.94 547.64z" stroke="none" fill="#000000" fill-rule="nonzero" /><path id="1751" transform="matrix(1 0 0 -1 0 842)" d="M44.94 513.14L558 513.14L558 513.62L44.94 513.62z" stroke="none" fill="#000000" fill-rule="nonzero" /><path id="1752" transform="matrix(1 0 0 -1 0 842)" d="M44.94 441.14L558 441.14L558 441.62L44.94 441.62z" stroke="none" fill="#000000" fill-rule="nonzero" /><path id="1753" transform="matrix(1 0 0 -1 0 842)" d="M44.94 407.12L558 407.12L558 407.6L44.94 407.6z" stroke="none" fill="#000000" fill-rule="nonzero" /><path id="1754" transform="matrix(1 0 0 -1 0 842)" d="M44.94 373.16L558 373.16L558 373.64L44.94 373.64z" stroke="none" fill="#000000" fill-rule="nonzero" /><path id="1755" transform="matrix(1 0 0 -1 0 842)" d="M44.94 339.14L558 339.14L558 339.62L44.94 339.62z" stroke="none" fill="#000000" fill-rule="nonzero" /><path id="1756" transform="matrix(1 0 0 -1 0 842)" d="M44.94 305.12L558 305.12L558 305.6L44.94 305.6z" stroke="none" fill="#000000" fill-rule="nonzero" /><path id="1757" transform="matrix(1 0 0 -1 0 842)" d="M44.94 271.16L558 271.16L558 271.64L44.94 271.64z" stroke="none" fill="#000000" fill-rule="nonzero" /><path id="1758" transform="matrix(1 0 0 -1 0 842)" d="M44.94 237.14L558 237.14L558 237.62L44.94 237.62z" stroke="none" fill="#000000" fill-rule="nonzero" /><path id="1759" transform="matrix(1 0 0 -1 0 842)" d="M44.94 203.12L558 203.12L558 203.6L44.94 203.6z" stroke="none" fill="#000000" fill-rule="nonzero" /><path id="1760" transform="matrix(1 0 0 -1 0 842)" d="M44.94 130.58L558 130.58L558 132.08L44.94 132.08z" stroke="none" fill="#000000" fill-rule="nonzero" /><g clip-path="url(#2)"><g clip-path="url(#3)"><path id="1761" transform="matrix(1 0 0 -1 0 842)" d="M45.96 655.1L62.52 655.1L62.52 670.94L45.96 670.94z" stroke="none" fill="#FFFFFF" fill-rule="nonzero" /></g></g><g clip-path="url(#4)"><g clip-path="url(#5)"><g clip-path="url(#6)"><g transform="matrix(0.48 0 0 0.48 45.96 171.06)"><g transform="matrix(1 0 0 1 0 0)"><image x="0" y="0" xlink:href="img_108.png" width="35" height="33" /></g></g></g></g></g><g clip-path="url(#7)"><g clip-path="url(#8)"><path id="1763" transform="matrix(1 0 0 -1 0 842)" d="M45.96 621.14L62.52 621.14L62.52 636.98L45.96 636.98z" stroke="none" fill="#FFFFFF" fill-rule="nonzero" /></g></g><g clip-path="url(#9)"><g clip-path="url(#10)"><g clip-path="url(#11)"><g transform="matrix(0.48 0 0 0.48 45.96 205.02)"><g transform="matrix(1 0 0 1 0 0)"><image x="0" y="0" xlink:href="img_109.png" width="35" height="33" /></g></g></g></g></g><g clip-path="url(#12)"><g clip-path="url(#13)"><path id="1765" transform="matrix(1 0 0 -1 0 842)" d="M45.96 587.12L62.52 587.12L62.52 602.96L45.96 602.96z" stroke="none" fill="#FFFFFF" fill-rule="nonzero" /></g></g><g clip-path="url(#14)"><g clip-path="url(#15)"><g clip-path="url(#16)"><g transform="matrix(0.48 0 0 0.48 45.96 239.04)"><g transform="matrix(1 0 0 1 0 0)"><image x="0" y="0" xlink:href="img_110.png" width="35" height="33" /></g></g></g></g></g><g clip-path="url(#17)"><g clip-path="url(#18)"><path id="1767" transform="matrix(1 0 0 -1 0 842)" d="M45.96 384.56L62.52 384.56L62.52 400.4L45.96 400.4z" stroke="none" fill="#FFFFFF" fill-rule="nonzero" /></g></g><g clip-path="url(#19)"><g clip-path="url(#20)"><g clip-path="url(#21)"><g transform="matrix(0.48 0 0 0.48 45.96 441.6)"><g transform="matrix(1 0 0 1 0 0)"><image x="0" y="0" xlink:href="img_106.png" width="35" height="33" /></g></g></g></g></g><g clip-path="url(#22)"><g clip-path="url(#23)"><path id="1769" transform="matrix(1 0 0 -1 0 842)" d="M45.96 316.52L62.52 316.52L62.52 332.36L45.96 332.36z" stroke="none" fill="#FFFFFF" fill-rule="nonzero" /></g></g><g clip-path="url(#24)"><g clip-path="url(#25)"><g clip-path="url(#26)"><g transform="matrix(0.48 0 0 0.48 45.96 509.64)"><g transform="matrix(1 0 0 1 0 0)"><image x="0" y="0" xlink:href="img_106.png" width="35" height="33" /></g></g></g></g></g></g></g></svg>