<svg xmlns="http://www.w3.org/2000/svg" xmlns:xlink="http://www.w3.org/1999/xlink" id="body_1" preserveAspectRatio="xMinYMin meet" viewBox="0 0 793 1123"><defs><clipPath id="1"><path id="" clip-rule="evenodd" transform="matrix(1 0 0 1 0 0)" d="M0 842L0 0L0 0L595 0L595 0L595 842L595 842L0 842z" /></clipPath><clipPath id="2"><path id="" clip-rule="evenodd" transform="matrix(1 0 0 1 0 0)" d="M602.752 293.843L-7.5534 293.843L-7.5534 293.843L-7.5534 289.132L-7.5534 289.132L602.752 289.132L602.752 289.132L602.752 293.843" /></clipPath><clipPath id="3"><path id="" clip-rule="evenodd" transform="matrix(1 0 0 1 0 0)" d="M-8.58 -8.460022L603.78 -8.460022L603.78 -8.460022L603.78 850.44L603.78 850.44L-8.58 850.44z" /></clipPath><clipPath id="4"><path id="" clip-rule="evenodd" transform="matrix(1 0 0 1 0 0)" d="M0 0.02001953L595.2 0.02001953L595.2 0.02001953L595.2 842L595.2 842L0 842z" /></clipPath><pattern patternTransform="matrix(1 0 0 1 0 0)" id="812" x="0" y="0" width="595" height="842" patternUnits="userSpaceOnUse"><image x="0" y="0" width="595" height="842" xlink:href="img_01.png" /></pattern><clipPath id="5"><path id="" clip-rule="evenodd" transform="matrix(1 0 0 1 0 0)" d="M603.752 294.843L-8.5535 294.843L-8.5535 294.843L-8.5535 294.343L-8.5535 294.343L-8.0536 294.343L-8.0536 294.343L-8.5535 294.343L-8.5535 294.343L-8.5535 -8.474976L-8.5535 -8.474976L603.752 -8.474976L603.752 -8.474976L-8.5535 -8.474976L-8.5535 -8.474976L-8.5535 289.132L-8.5535 289.132L-7.5534 289.132L-7.5534 289.132L-7.5534 293.843L-7.5534 293.843L602.752 293.843L602.752 293.843L602.752 289.132L602.752 289.132L603.753 289.132L603.753 289.132L603.752 294.843" /></clipPath><clipPath id="6"><path id="" clip-rule="evenodd" transform="matrix(1 0 0 1 0 0)" d="M-8.5535 850.4547L603.752 850.4547L603.752 850.4547L603.752 -8.474976L603.752 -8.474976L-8.5535 -8.474976L-8.5535 -8.474976L-8.5535 850.4547" /></clipPath><clipPath id="7"><path id="" clip-rule="evenodd" transform="matrix(1 0 0 1 0 0)" d="M-8.58 -8.460022L603.78 -8.460022L603.78 -8.460022L603.78 850.44L603.78 850.44L-8.58 850.44z" /></clipPath><clipPath id="8"><path id="" clip-rule="evenodd" transform="matrix(1 0 0 1 0 0)" d="M0 0.02001953L595.2 0.02001953L595.2 0.02001953L595.2 842L595.2 842L0 842z" /></clipPath><linearGradient gradientUnits="userSpaceOnUse" transform="matrix(1 0 0 1 0 0)" id="2266" x1="-8.5535" y1="547.157" x2="603.7525" y2="547.157"><stop stop-color="#FFFEFE" offset="0%" /><stop stop-color="#FFFEFE" offset="1%" /><stop stop-color="#FFFEFE" offset="2%" /><stop stop-color="#FFFEFE" offset="3%" /><stop stop-color="#FFFEFE" offset="4%" /><stop stop-color="#FFFEFE" offset="5%" /><stop stop-color="#FFFEFE" offset="6%" /><stop stop-color="#FFFEFE" offset="7%" /><stop stop-color="#FFFEFE" offset="8%" /><stop stop-color="#FFFEFE" offset="9%" /><stop stop-color="#FFFEFE" offset="10%" /><stop stop-color="#FFFEFE" offset="11%" /><stop stop-color="#FFFEFE" offset="12%" /><stop stop-color="#FFFEFE" offset="13%" /><stop stop-color="#FFFEFE" offset="14%" /><stop stop-color="#FFFEFE" offset="15%" /><stop stop-color="#FFFEFE" offset="16%" /><stop stop-color="#FFFEFE" offset="17%" /><stop stop-color="#FFFEFE" offset="18%" /><stop stop-color="#FFFEFE" offset="19%" /><stop stop-color="#FFFEFE" offset="20%" /><stop stop-color="#FFFEFE" offset="21%" /><stop stop-color="#FFFEFE" offset="22%" /><stop stop-color="#FFFEFE" offset="23%" /><stop stop-color="#FDFDFD" offset="24%" /><stop stop-color="#FCFCFC" offset="25%" /><stop stop-color="#FCFCFC" offset="26%" /><stop stop-color="#F9FAFA" offset="27%" /><stop stop-color="#F8F8F9" offset="28%" /><stop stop-color="#F7F7F8" offset="29%" /><stop stop-color="#F6F6F7" offset="30%" /><stop stop-color="#F5F5F6" offset="31%" /><stop stop-color="#F4F4F5" offset="32%" /><stop stop-color="#F3F4F5" offset="33%" /><stop stop-color="#F2F3F3" offset="34%" /><stop stop-color="#F1F2F3" offset="35%" /><stop stop-color="#F0F1F2" offset="36%" /><stop stop-color="#F0F0F1" offset="37%" /><stop stop-color="#EFEFF0" offset="38%" /><stop stop-color="#EDEDEE" offset="39%" /><stop stop-color="#ECECEE" offset="40%" /><stop stop-color="#EBECED" offset="41%" /><stop stop-color="#EAEAEC" offset="42%" /><stop stop-color="#E9EAEB" offset="43%" /><stop stop-color="#E8E9EA" offset="44%" /><stop stop-color="#E7E7E9" offset="45%" /><stop stop-color="#E6E6E8" offset="46%" /><stop stop-color="#E4E5E6" offset="47%" /><stop stop-color="#E3E4E6" offset="48%" /><stop stop-color="#E2E3E5" offset="49%" /><stop stop-color="#E0E1E3" offset="50%" /><stop stop-color="#E0E0E2" offset="51%" /><stop stop-color="#DEDFE1" offset="52%" /><stop stop-color="#DEDFE0" offset="53%" /><stop stop-color="#DCDDDF" offset="54%" /><stop stop-color="#DBDCDE" offset="55%" /><stop stop-color="#DADADC" offset="56%" /><stop stop-color="#D9DADB" offset="57%" /><stop stop-color="#D7D8DA" offset="58%" /><stop stop-color="#D7D7D9" offset="59%" /><stop stop-color="#D5D6D8" offset="60%" /><stop stop-color="#D5D5D7" offset="61%" /><stop stop-color="#D3D4D6" offset="62%" /><stop stop-color="#D1D2D4" offset="63%" /><stop stop-color="#D1D1D3" offset="64%" /><stop stop-color="#CFD0D2" offset="65%" /><stop stop-color="#CECFD1" offset="66%" /><stop stop-color="#CDCDCF" offset="67%" /><stop stop-color="#CBCCCE" offset="68%" /><stop stop-color="#CBCBCD" offset="69%" /><stop stop-color="#C9CACC" offset="70%" /><stop stop-color="#C8C9CB" offset="71%" /><stop stop-color="#C7C7C9" offset="72%" /><stop stop-color="#C5C6C8" offset="73%" /><stop stop-color="#C4C5C7" offset="74%" /><stop stop-color="#C2C3C5" offset="75%" /><stop stop-color="#C1C2C4" offset="76%" /><stop stop-color="#BFC0C2" offset="77%" /><stop stop-color="#BEBFC1" offset="78%" /><stop stop-color="#BCBDC0" offset="79%" /><stop stop-color="#BBBCBF" offset="80%" /><stop stop-color="#BBBCBE" offset="81%" /><stop stop-color="#B9BABD" offset="82%" /><stop stop-color="#B7B8BB" offset="83%" /><stop stop-color="#B5B7BA" offset="84%" /><stop stop-color="#B5B6B9" offset="85%" /><stop stop-color="#B3B4B7" offset="86%" /><stop stop-color="#B1B2B6" offset="87%" /><stop stop-color="#AFB1B4" offset="88%" /><stop stop-color="#AFB0B3" offset="89%" /><stop stop-color="#ADAFB2" offset="90%" /><stop stop-color="#ACADB1" offset="91%" /><stop stop-color="#AAACAF" offset="92%" /><stop stop-color="#A9AAAE" offset="93%" /><stop stop-color="#A8A9AD" offset="94%" /><stop stop-color="#A6A8AB" offset="95%" /><stop stop-color="#A4A5A9" offset="96%" /><stop stop-color="#A4A5A9" offset="97%" /><stop stop-color="#A4A5A9" offset="98%" /><stop stop-color="#A4A5A9" offset="99%" /><stop stop-color="#A4A5A9" offset="100%" /></linearGradient><clipPath id="9"><path id="" clip-rule="evenodd" transform="matrix(1 0 0 1 0 0)" d="M-8.5535 281.151L603.752 281.151L603.752 281.151L603.752 221.139L603.752 221.139L-8.5535 221.139L-8.5535 221.139L-8.5535 281.151M603.753 289.132L-8.5535 289.132L-8.5535 289.132L-8.5535 -8.474976L-8.5535 -8.474976L603.753 -8.474976L603.753 -8.474976L603.752 289.132" /></clipPath><clipPath id="10"><path id="" clip-rule="evenodd" transform="matrix(1 0 0 1 0 0)" d="M-8.5535 289.132L603.753 289.132L603.753 289.132L603.753 -8.474976L603.753 -8.474976L-8.5535 -8.474976L-8.5535 -8.474976L-8.5535 289.132" /></clipPath><clipPath id="11"><path id="" clip-rule="evenodd" transform="matrix(1 0 0 1 0 0)" d="M-8.58 -8.460022L603.78 -8.460022L603.78 -8.460022L603.78 850.44L603.78 850.44L-8.58 850.44z" /></clipPath><clipPath id="12"><path id="" clip-rule="evenodd" transform="matrix(1 0 0 1 0 0)" d="M0 0.02001953L595.2 0.02001953L595.2 0.02001953L595.2 842L595.2 842L0 842z" /></clipPath><clipPath id="13"><path id="" clip-rule="evenodd" transform="matrix(1 0 0 1 0 0)" d="M603.752 281.151L-8.5535 281.151L-8.5535 281.151L-8.5535 221.139L-8.5535 221.139L603.752 221.139L603.752 221.139L603.752 281.151" /></clipPath><clipPath id="14"><path id="" clip-rule="evenodd" transform="matrix(1 0 0 1 0 0)" d="M-8.58 -8.460022L603.78 -8.460022L603.78 -8.460022L603.78 850.44L603.78 850.44L-8.58 850.44z" /></clipPath><clipPath id="15"><path id="" clip-rule="evenodd" transform="matrix(1 0 0 1 0 0)" d="M0 0.02001953L595.2 0.02001953L595.2 0.02001953L595.2 842L595.2 842L0 842z" /></clipPath><clipPath id="16"><path id="" clip-rule="evenodd" transform="matrix(1 0 0 1 0 0)" d="M-8.58 -8.460022L603.78 -8.460022L603.78 -8.460022L603.78 850.44L603.78 850.44L-8.58 850.44z" /></clipPath><clipPath id="17"><path id="" clip-rule="evenodd" transform="matrix(1 0 0 1 0 0)" d="M0 0.02001953L595.2 0.02001953L595.2 0.02001953L595.2 842L595.2 842L0 842z" /></clipPath><clipPath id="18"><path id="" clip-rule="evenodd" transform="matrix(1 0 0 1 0 0)" d="M-8.5535 281.151L603.7535 281.151L603.7535 281.151L603.7535 297.111L603.7535 297.111L-8.5535 297.111z" /></clipPath><clipPath id="19"><path id="" clip-rule="evenodd" transform="matrix(1 0 0 1 0 0)" d="M-8.58 -8.460022L603.78 -8.460022L603.78 -8.460022L603.78 850.44L603.78 850.44L-8.58 850.44z" /></clipPath><clipPath id="20"><path id="" clip-rule="evenodd" transform="matrix(1 0 0 1 0 0)" d="M0 0.02001953L595.2 0.02001953L595.2 0.02001953L595.2 842L595.2 842L0 842z" /></clipPath><linearGradient gradientUnits="userSpaceOnUse" transform="matrix(1 0 0 1 0 0)" id="9277" x1="-8.5535" y1="544.889" x2="603.7525" y2="544.889"><stop stop-color="#FFFEFE" offset="0%" /><stop stop-color="#FFFEFE" offset="1%" /><stop stop-color="#FFFEFE" offset="2%" /><stop stop-color="#FFFEFE" offset="3%" /><stop stop-color="#FFFEFE" offset="4%" /><stop stop-color="#FFFEFE" offset="5%" /><stop stop-color="#FFFEFE" offset="6%" /><stop stop-color="#FFFEFE" offset="7%" /><stop stop-color="#FFFEFE" offset="8%" /><stop stop-color="#FFFEFE" offset="9%" /><stop stop-color="#FFFEFE" offset="10%" /><stop stop-color="#FFFEFE" offset="11%" /><stop stop-color="#FFFEFE" offset="12%" /><stop stop-color="#FFFEFE" offset="13%" /><stop stop-color="#FFFEFE" offset="14%" /><stop stop-color="#FFFEFE" offset="15%" /><stop stop-color="#FFFEFE" offset="16%" /><stop stop-color="#FFFEFE" offset="17%" /><stop stop-color="#FFFEFE" offset="18%" /><stop stop-color="#FFFEFE" offset="19%" /><stop stop-color="#FFFEFE" offset="20%" /><stop stop-color="#FFFEFE" offset="21%" /><stop stop-color="#FFFEFE" offset="22%" /><stop stop-color="#FDFEFF" offset="23%" /><stop stop-color="#FCFEFF" offset="24%" /><stop stop-color="#FBFDFD" offset="25%" /><stop stop-color="#FAFDFD" offset="26%" /><stop stop-color="#FAFDFD" offset="27%" /><stop stop-color="#F7FCFD" offset="28%" /><stop stop-color="#F5FBFB" offset="29%" /><stop stop-color="#F4FBFB" offset="30%" /><stop stop-color="#F3FAFB" offset="31%" /><stop stop-color="#F1FAFA" offset="32%" /><stop stop-color="#F0F9FA" offset="33%" /><stop stop-color="#EFF9FA" offset="34%" /><stop stop-color="#EEF8FA" offset="35%" /><stop stop-color="#ECF8F9" offset="36%" /><stop stop-color="#EBF7F8" offset="37%" /><stop stop-color="#E9F6F7" offset="38%" /><stop stop-color="#E8F6F7" offset="39%" /><stop stop-color="#E6F5F7" offset="40%" /><stop stop-color="#E5F4F6" offset="41%" /><stop stop-color="#E3F4F6" offset="42%" /><stop stop-color="#E1F3F6" offset="43%" /><stop stop-color="#E0F3F5" offset="44%" /><stop stop-color="#E0F2F5" offset="45%" /><stop stop-color="#DEF2F5" offset="46%" /><stop stop-color="#DCF1F5" offset="47%" /><stop stop-color="#DBF0F5" offset="48%" /><stop stop-color="#D9F0F4" offset="49%" /><stop stop-color="#D7EFF4" offset="50%" /><stop stop-color="#D6EFF3" offset="51%" /><stop stop-color="#D4EEF3" offset="52%" /><stop stop-color="#D2EDF3" offset="53%" /><stop stop-color="#D0ECF2" offset="54%" /><stop stop-color="#CFECF2" offset="55%" /><stop stop-color="#CDEBF2" offset="56%" /><stop stop-color="#CCEBF2" offset="57%" /><stop stop-color="#CAEAF1" offset="58%" /><stop stop-color="#C8E9F1" offset="59%" /><stop stop-color="#C6E8F1" offset="60%" /><stop stop-color="#C4E8F0" offset="61%" /><stop stop-color="#C3E7F0" offset="62%" /><stop stop-color="#C1E6EF" offset="63%" /><stop stop-color="#BFE6EF" offset="64%" /><stop stop-color="#BDE5EE" offset="65%" /><stop stop-color="#BBE4EE" offset="66%" /><stop stop-color="#B9E4ED" offset="67%" /><stop stop-color="#B6E2ED" offset="68%" /><stop stop-color="#B6E3EC" offset="69%" /><stop stop-color="#B3E1EC" offset="70%" /><stop stop-color="#B2E1EB" offset="71%" /><stop stop-color="#B0E0EB" offset="72%" /><stop stop-color="#AEE0EA" offset="73%" /><stop stop-color="#ACDFEA" offset="74%" /><stop stop-color="#AADEE9" offset="75%" /><stop stop-color="#A8DEE8" offset="76%" /><stop stop-color="#A7DDE8" offset="77%" /><stop stop-color="#A5DCE8" offset="78%" /><stop stop-color="#A3DCE8" offset="79%" /><stop stop-color="#A0DBE7" offset="80%" /><stop stop-color="#9EDAE6" offset="81%" /><stop stop-color="#9DDAE6" offset="82%" /><stop stop-color="#9AD9E5" offset="83%" /><stop stop-color="#99D8E5" offset="84%" /><stop stop-color="#97D8E4" offset="85%" /><stop stop-color="#95D7E4" offset="86%" /><stop stop-color="#92D6E4" offset="87%" /><stop stop-color="#91D6E3" offset="88%" /><stop stop-color="#8FD5E2" offset="89%" /><stop stop-color="#8DD4E2" offset="90%" /><stop stop-color="#89D2E1" offset="91%" /><stop stop-color="#87D3E1" offset="92%" /><stop stop-color="#85D2E1" offset="93%" /><stop stop-color="#83D1E1" offset="94%" /><stop stop-color="#80D1E0" offset="95%" /><stop stop-color="#7DD0E0" offset="96%" /><stop stop-color="#7DD0E0" offset="97%" /><stop stop-color="#7DD0E0" offset="98%" /><stop stop-color="#7DD0E0" offset="99%" /><stop stop-color="#7DD0E0" offset="100%" /></linearGradient></defs><g transform="matrix(1.333333 0 0 1.333333 0 0)"><g clip-path="url(#1)"><path id="1" transform="matrix(1 0 0 -1 0 842)" d="M0 0.14032L595.02 0.14032L595.02 841.9803L0 841.9803z" stroke="none" fill="#FFFFFF" fill-rule="nonzero" /><g clip-path="url(#2)"><g clip-path="url(#3)"><g clip-path="url(#4)"><g><path id="2" transform="matrix(1 0 0 -1 0 842)" d="M0 0L0 842L0 842L595 842L595 842L595 0" stroke="none" fill="url(#812)" /></g></g></g></g><g clip-path="url(#5)"><g clip-path="url(#6)"><g clip-path="url(#7)"><g clip-path="url(#8)"><g><path id="3" transform="matrix(1 0 0 -1 0 842)" d="M-8.5535 0L-8.5535 842L-8.5535 842L603.7525 842L603.7525 842L603.7525 0" stroke="none" fill="url(#2266)" /></g></g></g></g></g><g clip-path="url(#9)"><g clip-path="url(#10)"><g clip-path="url(#11)"><g clip-path="url(#12)"><g transform="matrix(0.4799154 0 0 0.4798261 -8.586 -8.685974)"><g transform="matrix(1 0 0 1 0 0)"><image x="0" y="0" xlink:href="img_02.png" width="1276" height="621" /></g></g></g></g></g></g><g clip-path="url(#13)"><g clip-path="url(#14)"><g clip-path="url(#15)"><g transform="matrix(0.4799154 0 0 0.4805714 -8.826 220.874)"><g transform="matrix(1 0 0 1 0 0)"><image x="0" y="0" xlink:href="img_03.png" width="1277" height="126" /></g></g></g></g></g><g clip-path="url(#16)"><g clip-path="url(#17)"><path id="8" transform="matrix(1 0 0 -1 0 842)" d="M448.489 57.138L454.286 57.138L454.286 73.861L460.604 73.861L460.604 78.005L442.172 78.005L442.172 73.861L448.489 73.861M495.326 57.138L500.688 57.138L500.688 57.138L500.688 63.775C 500.688 65.89 502.079 67.195 504.196 67.195C 504.6 67.195 505.093 67.195 505.673 67.136L505.673 67.136L505.673 71.773L505.673 71.773L505.266 71.773C 502.891 71.773 501.327 70.818 500.514 68.761L500.514 68.761L500.514 71.687L500.514 71.687L495.096 71.687C 495.24 70.326 495.326 69.283 495.326 68.527zM477.414 66.441C 477.414 70.064 475.531 71.919 471.994 71.919C 470.051 71.919 468.372 71.077 467.444 69.658L467.444 69.658L467.444 78.005L467.444 78.005L462.083 78.005L462.083 78.005L462.083 57.138L462.083 57.138L467.444 57.138L467.444 57.138L467.444 65.427C 467.444 67.427 468.343 68.499 469.848 68.499C 471.791 68.499 472.052 67.05 472.052 64.443L472.052 64.443L472.052 57.138L472.052 57.138L477.635 57.138C 477.492 58.507 477.414 59.558 477.414 60.312zM507.098 57.138L512.401 57.138L512.401 57.138L512.401 65.427C 512.401 67.427 513.302 68.499 514.807 68.499C 516.72 68.499 516.981 67.05 516.981 64.443L516.981 64.443L516.981 57.138L516.981 57.138L522.255 57.138L522.255 57.138L522.255 65.427C 522.255 67.427 523.124 68.499 524.633 68.499C 526.545 68.499 526.806 67.05 526.806 64.443L526.806 64.443L526.806 57.138L526.806 57.138L532.342 57.138C 532.176 58.507 532.109 60.29 532.109 60.29L532.109 60.29L532.109 66.441C 532.109 70.064 530.283 71.919 526.777 71.919C 524.719 71.919 523.182 71.048 521.821 69.165C 521.126 70.933 519.387 71.919 516.923 71.919C 514.925 71.919 513.184 70.992 512.315 69.484L512.315 69.484L512.257 71.687L512.257 71.687L507.089 71.687C 507.089 70.324 507.098 69.283 507.098 68.527zM533.562 64.413C 533.562 59.544 536.547 56.761 541.937 56.761C 547.328 56.761 550.284 59.544 550.284 64.413C 550.284 69.283 547.328 72.064 541.937 72.064C 536.547 72.064 533.562 69.283 533.562 64.413M539.213 64.443C 539.213 67.601 539.937 69.107 541.908 69.107C 543.908 69.107 544.633 67.601 544.633 64.443C 544.633 61.283 543.908 59.804 541.908 59.804C 539.937 59.804 539.213 61.283 539.213 64.443M493.816 61.833L488.949 61.833C 488.689 60.443 487.906 59.718 486.572 59.718C 484.719 59.718 483.791 60.906 483.791 63.197L483.791 63.197L493.845 63.197C 493.875 63.515 493.875 63.833 493.875 64.152C 493.875 69.31 491.326 72.034 486.457 72.034C 481.617 72.034 478.863 69.283 478.863 64.267C 478.863 59.37 481.443 56.79 486.34 56.79C 490.746 56.79 493.353 58.617 493.816 61.833M483.847 66.181C 484.109 68.208 484.949 69.136 486.543 69.136C 487.963 69.136 488.832 68.122 489.006 66.181z" stroke="none" fill="#EE4143" fill-rule="nonzero" /><path id="9" transform="matrix(1 0 0 -1 0 842)" d="M465.899 45.746C 465.368 45.375 464.448 45.123 463.563 45.123C 461.379 45.123 459.737 46.322 459.737 48.461C 459.737 50.627 461.579 51.926 463.631 51.926C 464.379 51.926 465.206 51.687 465.721 51.342L465.721 51.342L465.151 50.662C 464.688 50.92 464.188 51.096 463.643 51.096C 462.928 51.096 462.186 50.92 461.639 50.353C 461.153 49.851 460.95 49.24 460.95 48.424C 460.95 47.521 461.239 47.016 461.713 46.545C 462.2 46.064 462.963 45.928 463.7 45.928C 464.297 45.928 464.891 46.152 465.354 46.402M485.232 45.223L480.233 45.223L480.233 51.801L485.109 51.801L484.959 50.961L481.335 50.961L481.335 49.08L484.427 49.08L484.427 48.24L481.349 48.24L481.349 46.1L485.232 46.1zM528.008 51.801L527.858 50.973L524.29 50.973L524.29 49.105L527.315 49.105L527.315 48.277L524.29 48.277L524.29 45.223L523.188 45.223L523.188 51.801zM473.18 45.223L472.078 45.223L472.078 51.8013L473.18 51.8013zM497.263 45.223L496.107 45.223L496.107 45.223L493.533 48.723C 493.05 49.379 492.226 50.713 492.226 50.713C 492.226 50.713 492.328 49.562 492.347 48.598L492.347 48.598L492.414 45.223L492.414 45.223L491.285 45.223L491.285 45.223L491.285 51.801L491.285 51.801L492.564 51.801L492.564 51.801L495.166 48.226C 495.671 47.531 496.377 46.396 496.377 46.396C 496.377 46.396 496.226 47.621 496.214 48.486L496.214 48.486L496.173 51.801L496.173 51.801L497.263 51.801zM453.621 47.164C 453.621 46.484 453.187 45.824 452.451 45.457C 451.949 45.207 451.322 45.084 450.601 45.084C 449.662 45.084 448.711 45.297 447.921 45.691L447.921 45.691L448.382 46.484C 449.146 46.1 449.867 45.928 450.669 45.928C 451.185 45.928 451.525 46.014 451.839 46.185C 452.205 46.387 452.396 46.656 452.396 47.004C 452.396 47.521 452.002 47.855 450.996 48.092L450.996 48.092L449.933 48.338C 448.873 48.586 448.193 49.254 448.193 50.045C 448.193 51.183 449.308 51.975 450.873 51.975C 451.798 51.975 452.791 51.74 453.416 51.332L453.416 51.332L452.914 50.601C 452.273 50.961 451.607 51.133 450.927 51.133C 450.002 51.133 449.39 50.775 449.39 50.193C 449.39 49.748 449.755 49.473 450.669 49.254L450.669 49.254L451.648 49.017C 452.207 48.885 452.777 48.646 453.104 48.35C 453.416 48.066 453.621 47.609 453.621 47.164M509.229 51.801L509.108 50.961L506.683 50.961L506.683 45.223L505.609 45.223L505.609 50.961L503.199 50.961L503.199 51.801zM516.133 45.223L515.0309 45.223L515.0309 51.8013L516.133 51.8013zM535.238 45.223L534.1359 45.223L534.1359 51.8013L535.238 51.8013zM548.062 45.746C 547.531 45.375 546.611 45.123 545.724 45.123C 543.545 45.123 541.898 46.322 541.898 48.461C 541.898 50.627 543.742 51.926 545.795 51.926C 546.543 51.926 547.369 51.687 547.884 51.342L547.884 51.342L547.314 50.662C 546.851 50.92 546.351 51.096 545.808 51.096C 545.091 51.096 544.351 50.92 543.802 50.353C 543.316 49.851 543.113 49.24 543.113 48.424C 543.113 47.521 543.4 47.016 543.877 46.545C 544.363 46.064 545.127 45.928 545.863 45.928C 546.461 45.928 547.054 46.152 547.517 46.402z" stroke="none" fill="#373535" fill-rule="nonzero" /></g></g><g clip-path="url(#18)"><g clip-path="url(#19)"><g clip-path="url(#20)"><g><path id="10" transform="matrix(1 0 0 -1 0 842)" d="M-8.5535 560.8488L603.7525 560.8488L603.7525 560.8488L603.7525 544.889L603.7525 544.889L-8.5535 544.889" stroke="none" fill="url(#9277)" /></g></g></g></g></g></g></svg>