<svg xmlns="http://www.w3.org/2000/svg" xmlns:xlink="http://www.w3.org/1999/xlink" id="body_44" preserveAspectRatio="xMinYMin meet" viewBox="0 0 793 1123"><defs><clipPath id="1"><path id="" clip-rule="evenodd" transform="matrix(1 0 0 1 0 0)" d="M0 842L0 0L0 0L595 0L595 0L595 842L595 842L0 842z" /></clipPath><clipPath id="2"><path id="" clip-rule="evenodd" transform="matrix(1 0 0 1 0 0)" d="M35.94 170.04L54.54 170.04L54.54 170.04L54.54 187.92L54.54 187.92L35.94 187.92z" /></clipPath><clipPath id="3"><path id="" clip-rule="evenodd" transform="matrix(1 0 0 1 0 0)" d="M0 0.02001953L595.2 0.02001953L595.2 0.02001953L595.2 842L595.2 842L0 842z" /></clipPath><clipPath id="4"><path id="" clip-rule="evenodd" transform="matrix(1 0 0 1 0 0)" d="M36.96 171.06L53.52 171.06L53.52 171.06L53.52 186.9L53.52 186.9L36.96 186.9z" /></clipPath><clipPath id="5"><path id="" clip-rule="evenodd" transform="matrix(1 0 0 1 0 0)" d="M35.94 170.04L54.54 170.04L54.54 170.04L54.54 187.92L54.54 187.92L35.94 187.92z" /></clipPath><clipPath id="6"><path id="" clip-rule="evenodd" transform="matrix(1 0 0 1 0 0)" d="M0 0.02001953L595.2 0.02001953L595.2 0.02001953L595.2 842L595.2 842L0 842z" /></clipPath><clipPath id="7"><path id="" clip-rule="evenodd" transform="matrix(1 0 0 1 0 0)" d="M35.94 218.04L54.54 218.04L54.54 218.04L54.54 235.92L54.54 235.92L35.94 235.92z" /></clipPath><clipPath id="8"><path id="" clip-rule="evenodd" transform="matrix(1 0 0 1 0 0)" d="M0 0.02001953L595.2 0.02001953L595.2 0.02001953L595.2 842L595.2 842L0 842z" /></clipPath><clipPath id="9"><path id="" clip-rule="evenodd" transform="matrix(1 0 0 1 0 0)" d="M36.96 219.06L53.52 219.06L53.52 219.06L53.52 234.9L53.52 234.9L36.96 234.9z" /></clipPath><clipPath id="10"><path id="" clip-rule="evenodd" transform="matrix(1 0 0 1 0 0)" d="M35.94 218.04L54.54 218.04L54.54 218.04L54.54 235.92L54.54 235.92L35.94 235.92z" /></clipPath><clipPath id="11"><path id="" clip-rule="evenodd" transform="matrix(1 0 0 1 0 0)" d="M0 0.02001953L595.2 0.02001953L595.2 0.02001953L595.2 842L595.2 842L0 842z" /></clipPath><clipPath id="12"><path id="" clip-rule="evenodd" transform="matrix(1 0 0 1 0 0)" d="M35.94 252.06L54.54 252.06L54.54 252.06L54.54 269.88L54.54 269.88L35.94 269.88z" /></clipPath><clipPath id="13"><path id="" clip-rule="evenodd" transform="matrix(1 0 0 1 0 0)" d="M0 0.02001953L595.2 0.02001953L595.2 0.02001953L595.2 842L595.2 842L0 842z" /></clipPath><clipPath id="14"><path id="" clip-rule="evenodd" transform="matrix(1 0 0 1 0 0)" d="M36.96 253.02L53.52 253.02L53.52 253.02L53.52 268.86L53.52 268.86L36.96 268.86z" /></clipPath><clipPath id="15"><path id="" clip-rule="evenodd" transform="matrix(1 0 0 1 0 0)" d="M35.94 252.06L54.54 252.06L54.54 252.06L54.54 269.88L54.54 269.88L35.94 269.88z" /></clipPath><clipPath id="16"><path id="" clip-rule="evenodd" transform="matrix(1 0 0 1 0 0)" d="M0 0.02001953L595.2 0.02001953L595.2 0.02001953L595.2 842L595.2 842L0 842z" /></clipPath><clipPath id="17"><path id="" clip-rule="evenodd" transform="matrix(1 0 0 1 0 0)" d="M35.94 334.02L54.54 334.02L54.54 334.02L54.54 351.9L54.54 351.9L35.94 351.9z" /></clipPath><clipPath id="18"><path id="" clip-rule="evenodd" transform="matrix(1 0 0 1 0 0)" d="M0 0.02001953L595.2 0.02001953L595.2 0.02001953L595.2 842L595.2 842L0 842z" /></clipPath><clipPath id="19"><path id="" clip-rule="evenodd" transform="matrix(1 0 0 1 0 0)" d="M36.96 335.04L53.52 335.04L53.52 335.04L53.52 350.88L53.52 350.88L36.96 350.88z" /></clipPath><clipPath id="20"><path id="" clip-rule="evenodd" transform="matrix(1 0 0 1 0 0)" d="M35.94 334.02L54.54 334.02L54.54 334.02L54.54 351.9L54.54 351.9L35.94 351.9z" /></clipPath><clipPath id="21"><path id="" clip-rule="evenodd" transform="matrix(1 0 0 1 0 0)" d="M0 0.02001953L595.2 0.02001953L595.2 0.02001953L595.2 842L595.2 842L0 842z" /></clipPath><clipPath id="22"><path id="" clip-rule="evenodd" transform="matrix(1 0 0 1 0 0)" d="M35.94 368.04L54.54 368.04L54.54 368.04L54.54 385.92L54.54 385.92L35.94 385.92z" /></clipPath><clipPath id="23"><path id="" clip-rule="evenodd" transform="matrix(1 0 0 1 0 0)" d="M0 0.02001953L595.2 0.02001953L595.2 0.02001953L595.2 842L595.2 842L0 842z" /></clipPath><clipPath id="24"><path id="" clip-rule="evenodd" transform="matrix(1 0 0 1 0 0)" d="M36.96 369.06L53.52 369.06L53.52 369.06L53.52 384.9L53.52 384.9L36.96 384.9z" /></clipPath><clipPath id="25"><path id="" clip-rule="evenodd" transform="matrix(1 0 0 1 0 0)" d="M35.94 368.04L54.54 368.04L54.54 368.04L54.54 385.92L54.54 385.92L35.94 385.92z" /></clipPath><clipPath id="26"><path id="" clip-rule="evenodd" transform="matrix(1 0 0 1 0 0)" d="M0 0.02001953L595.2 0.02001953L595.2 0.02001953L595.2 842L595.2 842L0 842z" /></clipPath><clipPath id="27"><path id="" clip-rule="evenodd" transform="matrix(1 0 0 1 0 0)" d="M35.94 450.06L54.54 450.06L54.54 450.06L54.54 467.88L54.54 467.88L35.94 467.88z" /></clipPath><clipPath id="28"><path id="" clip-rule="evenodd" transform="matrix(1 0 0 1 0 0)" d="M0 0.02001953L595.2 0.02001953L595.2 0.02001953L595.2 842L595.2 842L0 842z" /></clipPath><clipPath id="29"><path id="" clip-rule="evenodd" transform="matrix(1 0 0 1 0 0)" d="M36.96 451.02L53.52 451.02L53.52 451.02L53.52 466.86L53.52 466.86L36.96 466.86z" /></clipPath><clipPath id="30"><path id="" clip-rule="evenodd" transform="matrix(1 0 0 1 0 0)" d="M35.94 450.06L54.54 450.06L54.54 450.06L54.54 467.88L54.54 467.88L35.94 467.88z" /></clipPath><clipPath id="31"><path id="" clip-rule="evenodd" transform="matrix(1 0 0 1 0 0)" d="M0 0.02001953L595.2 0.02001953L595.2 0.02001953L595.2 842L595.2 842L0 842z" /></clipPath><clipPath id="32"><path id="" clip-rule="evenodd" transform="matrix(1 0 0 1 0 0)" d="M35.94 484.02L54.54 484.02L54.54 484.02L54.54 501.9L54.54 501.9L35.94 501.9z" /></clipPath><clipPath id="33"><path id="" clip-rule="evenodd" transform="matrix(1 0 0 1 0 0)" d="M0 0.02001953L595.2 0.02001953L595.2 0.02001953L595.2 842L595.2 842L0 842z" /></clipPath><clipPath id="34"><path id="" clip-rule="evenodd" transform="matrix(1 0 0 1 0 0)" d="M36.96 485.04L53.52 485.04L53.52 485.04L53.52 500.88L53.52 500.88L36.96 500.88z" /></clipPath><clipPath id="35"><path id="" clip-rule="evenodd" transform="matrix(1 0 0 1 0 0)" d="M35.94 484.02L54.54 484.02L54.54 484.02L54.54 501.9L54.54 501.9L35.94 501.9z" /></clipPath><clipPath id="36"><path id="" clip-rule="evenodd" transform="matrix(1 0 0 1 0 0)" d="M0 0.02001953L595.2 0.02001953L595.2 0.02001953L595.2 842L595.2 842L0 842z" /></clipPath></defs><g transform="matrix(1.333333 0 0 1.333333 0 0)"><g clip-path="url(#1)"><path id="186" transform="matrix(1 0 0 -1 0 842)" d="M35.94 677.96L195.42 677.96L195.42 695.96L35.94 695.96z" stroke="none" fill="#C4DFF7" fill-rule="nonzero" /><path id="194" transform="matrix(1 0 0 -1 0 842)" d="M195.42 677.96L549 677.96L549 695.96L195.42 695.96z" stroke="none" fill="#C4DFF7" fill-rule="nonzero" /><path id="1867" transform="matrix(1 0 0 -1 0 842)" d="M35.94 629.72L549 629.72L549 630.2L35.94 630.2z" stroke="none" fill="#000000" fill-rule="nonzero" /><path id="1868" transform="matrix(1 0 0 -1 0 842)" d="M35.94 595.7L549 595.7L549 596.18L35.94 596.18z" stroke="none" fill="#000000" fill-rule="nonzero" /><path id="1869" transform="matrix(1 0 0 -1 0 842)" d="M35.94 547.7L549 547.7L549 548.18L35.94 548.18z" stroke="none" fill="#000000" fill-rule="nonzero" /><path id="1870" transform="matrix(1 0 0 -1 0 842)" d="M35.94 513.74L549 513.74L549 514.22L35.94 514.22z" stroke="none" fill="#000000" fill-rule="nonzero" /><path id="1871" transform="matrix(1 0 0 -1 0 842)" d="M35.94 479.72L549 479.72L549 480.2L35.94 480.2z" stroke="none" fill="#000000" fill-rule="nonzero" /><path id="1872" transform="matrix(1 0 0 -1 0 842)" d="M35.94 445.7L549 445.7L549 446.18L35.94 446.18z" stroke="none" fill="#000000" fill-rule="nonzero" /><path id="1873" transform="matrix(1 0 0 -1 0 842)" d="M35.94 397.7L549 397.7L549 398.18L35.94 398.18z" stroke="none" fill="#000000" fill-rule="nonzero" /><path id="1874" transform="matrix(1 0 0 -1 0 842)" d="M35.94 363.74L549 363.74L549 364.22L35.94 364.22z" stroke="none" fill="#000000" fill-rule="nonzero" /><path id="1875" transform="matrix(1 0 0 -1 0 842)" d="M35.94 335.84L549 335.84L549 336.32L35.94 336.32z" stroke="none" fill="#000000" fill-rule="nonzero" /><path id="1876" transform="matrix(1 0 0 -1 0 842)" d="M35.94 301.88L549 301.88L549 302.36L35.94 302.36z" stroke="none" fill="#000000" fill-rule="nonzero" /><path id="1877" transform="matrix(1 0 0 -1 0 842)" d="M35.94 281.84L549 281.84L549 282.32L35.94 282.32z" stroke="none" fill="#000000" fill-rule="nonzero" /><path id="1878" transform="matrix(1 0 0 -1 0 842)" d="M35.94 261.86L549 261.86L549 262.34L35.94 262.34z" stroke="none" fill="#000000" fill-rule="nonzero" /><path id="1879" transform="matrix(1 0 0 -1 0 842)" d="M35.94 227.84L549 227.84L549 228.32L35.94 228.32z" stroke="none" fill="#000000" fill-rule="nonzero" /><path id="1880" transform="matrix(1 0 0 -1 0 842)" d="M35.94 193.82L549 193.82L549 194.3L35.94 194.3z" stroke="none" fill="#000000" fill-rule="nonzero" /><path id="1881" transform="matrix(1 0 0 -1 0 842)" d="M35.94 159.32L549 159.32L549 160.82L35.94 160.82z" stroke="none" fill="#000000" fill-rule="nonzero" /><g clip-path="url(#2)"><g clip-path="url(#3)"><path id="1882" transform="matrix(1 0 0 -1 0 842)" d="M36.96 655.1L53.52 655.1L53.52 670.94L36.96 670.94z" stroke="none" fill="#FFFFFF" fill-rule="nonzero" /></g></g><g clip-path="url(#4)"><g clip-path="url(#5)"><g clip-path="url(#6)"><g transform="matrix(0.48 0 0 0.48 36.96 171.06)"><g transform="matrix(1 0 0 1 0 0)"><image x="0" y="0" xlink:href="img_76.png" width="35" height="33" /></g></g></g></g></g><g clip-path="url(#7)"><g clip-path="url(#8)"><path id="1884" transform="matrix(1 0 0 -1 0 842)" d="M36.96 607.1L53.52 607.1L53.52 622.94L36.96 622.94z" stroke="none" fill="#FFFFFF" fill-rule="nonzero" /></g></g><g clip-path="url(#9)"><g clip-path="url(#10)"><g clip-path="url(#11)"><g transform="matrix(0.48 0 0 0.48 36.96 219.06)"><g transform="matrix(1 0 0 1 0 0)"><image x="0" y="0" xlink:href="img_104.png" width="35" height="33" /></g></g></g></g></g><g clip-path="url(#12)"><g clip-path="url(#13)"><path id="1886" transform="matrix(1 0 0 -1 0 842)" d="M36.96 573.14L53.52 573.14L53.52 588.98L36.96 588.98z" stroke="none" fill="#FFFFFF" fill-rule="nonzero" /></g></g><g clip-path="url(#14)"><g clip-path="url(#15)"><g clip-path="url(#16)"><g transform="matrix(0.48 0 0 0.48 36.96 253.02)"><g transform="matrix(1 0 0 1 0 0)"><image x="0" y="0" xlink:href="img_105.png" width="35" height="33" /></g></g></g></g></g><g clip-path="url(#17)"><g clip-path="url(#18)"><path id="1888" transform="matrix(1 0 0 -1 0 842)" d="M36.96 491.12L53.52 491.12L53.52 506.96L36.96 506.96z" stroke="none" fill="#FFFFFF" fill-rule="nonzero" /></g></g><g clip-path="url(#19)"><g clip-path="url(#20)"><g clip-path="url(#21)"><g transform="matrix(0.48 0 0 0.48 36.96 335.04)"><g transform="matrix(1 0 0 1 0 0)"><image x="0" y="0" xlink:href="img_95.png" width="35" height="33" /></g></g></g></g></g><g clip-path="url(#22)"><g clip-path="url(#23)"><path id="1890" transform="matrix(1 0 0 -1 0 842)" d="M36.96 457.1L53.52 457.1L53.52 472.94L36.96 472.94z" stroke="none" fill="#FFFFFF" fill-rule="nonzero" /></g></g><g clip-path="url(#24)"><g clip-path="url(#25)"><g clip-path="url(#26)"><g transform="matrix(0.48 0 0 0.48 36.96 369.06)"><g transform="matrix(1 0 0 1 0 0)"><image x="0" y="0" xlink:href="img_96.png" width="35" height="33" /></g></g></g></g></g><g clip-path="url(#27)"><g clip-path="url(#28)"><path id="1892" transform="matrix(1 0 0 -1 0 842)" d="M36.96 375.14L53.52 375.14L53.52 390.98L36.96 390.98z" stroke="none" fill="#FFFFFF" fill-rule="nonzero" /></g></g><g clip-path="url(#29)"><g clip-path="url(#30)"><g clip-path="url(#31)"><g transform="matrix(0.48 0 0 0.48 36.96 451.02)"><g transform="matrix(1 0 0 1 0 0)"><image x="0" y="0" xlink:href="img_106.png" width="35" height="33" /></g></g></g></g></g><g clip-path="url(#32)"><g clip-path="url(#33)"><path id="1894" transform="matrix(1 0 0 -1 0 842)" d="M36.96 341.12L53.52 341.12L53.52 356.96L36.96 356.96z" stroke="none" fill="#FFFFFF" fill-rule="nonzero" /></g></g><g clip-path="url(#34)"><g clip-path="url(#35)"><g clip-path="url(#36)"><g transform="matrix(0.48 0 0 0.48 36.96 485.04)"><g transform="matrix(1 0 0 1 0 0)"><image x="0" y="0" xlink:href="img_106.png" width="35" height="33" /></g></g></g></g></g></g></g></svg>