<svg xmlns="http://www.w3.org/2000/svg" xmlns:xlink="http://www.w3.org/1999/xlink" id="body_81" preserveAspectRatio="xMinYMin meet" viewBox="0 0 793 1123"><defs><clipPath id="1"><path id="" clip-rule="evenodd" transform="matrix(1 0 0 1 0 0)" d="M0 842L0 0L0 0L595 0L595 0L595 842L595 842L0 842z" /></clipPath><clipPath id="2"><path id="" clip-rule="evenodd" transform="matrix(1 0 0 1 0 0)" d="M224.94 144.06L413.46 144.06L413.46 144.06L413.46 263.64L413.46 263.64L224.94 263.64z" /></clipPath><clipPath id="3"><path id="" clip-rule="evenodd" transform="matrix(1 0 0 1 0 0)" d="M0 0.02001953L595.2 0.02001953L595.2 0.02001953L595.2 842L595.2 842L0 842z" /></clipPath><clipPath id="4"><path id="" clip-rule="evenodd" transform="matrix(1 0 0 1 0 0)" d="M225.96 145.02L412.44 145.02L412.44 145.02L412.44 262.62L412.44 262.62L225.96 262.62z" /></clipPath><clipPath id="5"><path id="" clip-rule="evenodd" transform="matrix(1 0 0 1 0 0)" d="M224.94 144.06L413.46 144.06L413.46 144.06L413.46 263.64L413.46 263.64L224.94 263.64z" /></clipPath><clipPath id="6"><path id="" clip-rule="evenodd" transform="matrix(1 0 0 1 0 0)" d="M0 0.02001953L595.2 0.02001953L595.2 0.02001953L595.2 842L595.2 842L0 842z" /></clipPath></defs><g transform="matrix(1.333333 0 0 1.333333 0 0)"><g clip-path="url(#1)"><path id="423" transform="matrix(1 0 0 -1 0 842)" d="M224.94 486.38L307.32 486.38L307.32 504.38L224.94 504.38z" stroke="none" fill="#C4DFF7" fill-rule="nonzero" /><path id="433" transform="matrix(1 0 0 -1 0 842)" d="M307.32 486.38L558 486.38L558 504.38L307.32 504.38z" stroke="none" fill="#C4DFF7" fill-rule="nonzero" /><path id="569" transform="matrix(1 0 0 -1 0 842)" d="M224.94 413.6L558 413.6L558 415.1L224.94 415.1z" stroke="none" fill="#000000" fill-rule="nonzero" /><g clip-path="url(#2)"><g clip-path="url(#3)"><path id="570" transform="matrix(1 0 0 -1 0 842)" d="M225.96 579.38L412.44 579.38L412.44 696.98L225.96 696.98z" stroke="none" fill="#FFFFFF" fill-rule="nonzero" /></g></g><g clip-path="url(#4)"><g clip-path="url(#5)"><g clip-path="url(#6)"><g transform="matrix(0.48 0 0 0.48 225.96 145.02)"><g transform="matrix(1 0 0 1 0 0)"><image x="0" y="0" xlink:href="img_196.png" width="389" height="245" /></g></g></g></g></g></g></g></svg>