<svg xmlns="http://www.w3.org/2000/svg" xmlns:xlink="http://www.w3.org/1999/xlink" id="body_170" preserveAspectRatio="xMinYMin meet" viewBox="0 0 793 1123"><defs><clipPath id="1"><path id="" clip-rule="evenodd" transform="matrix(1 0 0 1 0 0)" d="M0 842L0 0L0 0L595 0L595 0L595 842L595 842L0 842z" /></clipPath><clipPath id="2"><path id="" clip-rule="evenodd" transform="matrix(1 0 0 1 0 0)" d="M35.94 79.02002L549.66 79.02002L549.66 79.02002L549.66 344.58L549.66 344.58L35.94 344.58z" /></clipPath><clipPath id="3"><path id="" clip-rule="evenodd" transform="matrix(1 0 0 1 0 0)" d="M0 0.02001953L595.2 0.02001953L595.2 0.02001953L595.2 842L595.2 842L0 842z" /></clipPath><clipPath id="4"><path id="" clip-rule="evenodd" transform="matrix(1 0 0 1 0 0)" d="M36.96 80.03998L548.64 80.03998L548.64 80.03998L548.64 343.56L548.64 343.56L36.96 343.56z" /></clipPath><clipPath id="5"><path id="" clip-rule="evenodd" transform="matrix(1 0 0 1 0 0)" d="M35.94 79.02002L549.66 79.02002L549.66 79.02002L549.66 344.58L549.66 344.58L35.94 344.58z" /></clipPath><clipPath id="6"><path id="" clip-rule="evenodd" transform="matrix(1 0 0 1 0 0)" d="M0 0.02001953L595.2 0.02001953L595.2 0.02001953L595.2 842L595.2 842L0 842z" /></clipPath><clipPath id="7"><path id="" clip-rule="evenodd" transform="matrix(1 0 0 1 0 0)" d="M35.94 79.02002L549.66 79.02002L549.66 79.02002L549.66 344.58L549.66 344.58L35.94 344.58z" /></clipPath><clipPath id="8"><path id="" clip-rule="evenodd" transform="matrix(1 0 0 1 0 0)" d="M0 0.02001953L595.2 0.02001953L595.2 0.02001953L595.2 842L595.2 842L0 842z" /></clipPath><clipPath id="9"><path id="" clip-rule="evenodd" transform="matrix(1 0 0 1 0 0)" d="M261.9 680.16L277.38 680.16L277.38 680.16L277.38 695.58L277.38 695.58L261.9 695.58z" /></clipPath><clipPath id="10"><path id="" clip-rule="evenodd" transform="matrix(1 0 0 1 0 0)" d="M0 0.02001953L595.2 0.02001953L595.2 0.02001953L595.2 842L595.2 842L0 842z" /></clipPath><clipPath id="11"><path id="" clip-rule="evenodd" transform="matrix(1 0 0 1 0 0)" d="M262.92 681.12L276.36 681.12L276.36 681.12L276.36 694.56L276.36 694.56L262.92 694.56z" /></clipPath><clipPath id="12"><path id="" clip-rule="evenodd" transform="matrix(1 0 0 1 0 0)" d="M261.9 680.16L277.38 680.16L277.38 680.16L277.38 695.58L277.38 695.58L261.9 695.58z" /></clipPath><clipPath id="13"><path id="" clip-rule="evenodd" transform="matrix(1 0 0 1 0 0)" d="M0 0.02001953L595.2 0.02001953L595.2 0.02001953L595.2 842L595.2 842L0 842z" /></clipPath></defs><g transform="matrix(1.333333 0 0 1.333333 0 0)"><g clip-path="url(#1)"><g clip-path="url(#2)"><g clip-path="url(#3)"><path id="877" transform="matrix(1 0 0 -1 0 842)" d="M36.96 498.44L548.64 498.44L548.64 761.96L36.96 761.96z" stroke="none" fill="#FFFFFF" fill-rule="nonzero" /></g></g><g clip-path="url(#4)"><g clip-path="url(#5)"><g clip-path="url(#6)"><g transform="matrix(0.48 0 0 0.48 36.96 80.04004)"><g transform="matrix(1 0 0 1 0 0)"><image x="0" y="0" xlink:href="img_422.png" width="1066" height="549" /></g></g></g></g></g><g clip-path="url(#7)"><g clip-path="url(#8)"><path id="879" transform="matrix(1 0 0 -1 0 842)" d="M72.96 736.7L72.24 736.7L72.24 736.7L72.36 736.7L72.36 736.7L71.64 736.58L71.64 736.58L71.64 736.64L71.64 736.64L70.98 736.46L70.98 736.46L71.04 736.46L71.04 736.46L70.38 736.22L70.38 736.22L70.44 736.22L70.44 736.22L69.78 735.92L69.78 735.92L69.84 735.92L69.84 735.92L69.24 735.56L69.24 735.56L69.24 735.62L69.24 735.62L68.7 735.2L68.7 735.2L68.76 735.2L68.76 735.2L68.22 734.72L68.22 734.72L68.28 734.78L68.28 734.78L67.86 734.3L67.86 734.3L67.86 734.36L67.86 734.36L67.44 733.82L67.44 733.82L67.5 733.82L67.5 733.82L67.14 733.22L67.14 733.22L67.14 733.28L67.14 733.28L66.84 732.62L66.84 732.62L66.84 732.68L66.84 732.68L66.6 732.02L66.6 732.02L66.6 732.08L66.6 732.08L66.42 731.42L66.42 731.42L66.48 731.42L66.48 731.42L66.36 730.7L66.36 730.7L66.36 730.76L66.36 730.76L66.3 729.98L66.3 729.98L66.3 730.04L66.3 730.04L66.3 708.62L66.3 708.62L66.36 707.9L66.36 707.9L66.36 707.96L66.36 707.96L66.48 707.24L66.48 707.24L66.42 707.3L66.42 707.3L66.6 706.64L66.6 706.64L66.6 706.7L66.6 706.7L66.84 706.04L66.84 706.04L67.14 705.38L67.14 705.38L67.14 705.44L67.14 705.44L67.5 704.84L67.5 704.84L67.44 704.9L67.44 704.9L67.86 704.36L67.86 704.36L68.28 703.88L68.28 703.88L68.22 703.94L68.22 703.94L68.76 703.46L68.76 703.46L68.7 703.46L68.7 703.46L69.24 703.04L69.24 703.04L69.24 703.1L69.24 703.1L69.84 702.74L69.84 702.74L69.78 702.74L69.78 702.74L70.44 702.44L70.44 702.44L70.38 702.5L70.38 702.5L71.04 702.26L71.04 702.26L70.98 702.26L70.98 702.26L71.64 702.08L71.64 702.08L72.36 701.96L72.36 701.96L72.3 701.96L72.3 701.96L73.02 701.9L73.02 701.9L72.96 701.9L72.96 701.9L169.44 701.9L169.44 701.9L170.16 701.96L170.16 701.96L170.1 701.96L170.1 701.96L170.82 702.08L170.82 702.08L170.76 702.08L170.76 702.08L171.48 702.26L171.48 702.26L171.42 702.26L171.42 702.26L172.08 702.5L172.08 702.5L172.02 702.44L172.02 702.44L172.62 702.74L172.62 702.74L173.16 701.84L173.16 701.84L173.1 701.84L173.1 701.84L172.5 701.54L172.5 701.54L172.44 701.54L172.44 701.54L171.78 701.3L171.78 701.3L171.72 701.3L171.72 701.3L171 701.12L171 701.12L171 701.06L171 701.06L170.28 700.94L170.28 700.94L170.22 700.94L170.22 700.94L169.5 700.88L169.5 700.88L72.96 700.88L72.96 700.88L72.24 700.94L72.24 700.94L72.18 700.94L72.18 700.94L71.46 701.06L71.46 701.06L71.4 701.12L71.4 701.12L70.74 701.3L70.74 701.3L70.68 701.3L70.68 701.3L70.02 701.54L70.02 701.54L69.36 701.84L69.36 701.84L69.3 701.84L69.3 701.84L68.7 702.2L68.7 702.2L68.64 702.26L68.64 702.26L68.1 702.68L68.1 702.68L67.56 703.16L67.56 703.16L67.5 703.22L67.5 703.22L67.08 703.7L67.08 703.7L67.08 703.76L67.08 703.76L66.66 704.3L66.66 704.3L66.6 704.3L66.6 704.3L66.24 704.9L66.24 704.9L66.24 704.96C 65.756 705.881 65.441 706.789 65.34 707.84L65.34 707.84L65.28 708.56L65.28 708.56L65.28 730.04L65.28 730.04L65.34 730.82L65.34 730.82L65.34 730.88L65.34 730.88L65.46 731.6L65.46 731.6L65.46 731.66L65.46 731.66L65.64 732.32L65.64 732.32L65.64 732.38L65.64 732.38L65.88 733.04L65.88 733.04L65.94 733.04L65.94 733.04L66.24 733.7L66.24 733.7L66.24 733.76L66.24 733.76L66.6 734.36L66.6 734.36L66.66 734.42L66.66 734.42L67.08 734.96L67.08 734.96L67.5 735.44L67.5 735.44L67.56 735.5L67.56 735.5L68.1 735.98L68.1 735.98L68.64 736.4L68.64 736.4L68.7 736.46L68.7 736.46L69.3 736.82L69.3 736.82L69.36 736.82L69.36 736.82L70.02 737.12L70.02 737.12L70.02 737.18L70.02 737.18L70.68 737.42L70.68 737.42L70.74 737.42L70.74 737.42L71.4 737.6L71.4 737.6L71.46 737.6L71.46 737.6L72.18 737.72L72.18 737.72L72.96 737.72" stroke="none" fill="#FF0000" fill-rule="nonzero" /><path id="880" transform="matrix(1 0 0 -1 0 842)" d="M172.62 702.74L173.22 703.1L173.22 703.1L173.16 703.04L173.16 703.04L173.7 703.46L173.7 703.46L174.24 703.94L174.24 703.94L174.18 703.88L174.18 703.88L174.6 704.36L174.6 704.36L175.02 704.9L175.02 704.9L174.96 704.84L174.96 704.84L175.32 705.44L175.32 705.44L175.32 705.38L175.32 705.38L175.92 706.7L175.92 706.7L175.86 706.58L175.86 706.58L175.98 707.24L175.98 707.24L176.1 707.96L176.1 707.96L176.1 707.9L176.1 707.9L176.16 708.62L176.16 708.62L176.16 730.04L176.16 730.04L176.16 729.98L176.16 729.98L176.1 730.76L176.1 730.76L176.1 730.7L176.1 730.7L175.98 731.42L175.98 731.42L175.86 732.08L175.86 732.08L175.92 731.96L175.92 731.96L175.32 733.28L175.32 733.28L175.32 733.22L175.32 733.22L174.96 733.82L174.96 733.82L175.02 733.82L175.02 733.82L174.6 734.36L174.6 734.36L174.6 734.3L174.6 734.3L174.18 734.78L174.18 734.78L174.24 734.72L174.24 734.72L173.7 735.2L173.7 735.2L173.16 735.62L173.16 735.62L173.22 735.56L173.22 735.56L172.62 735.92L172.62 735.92L172.02 736.22L172.02 736.22L172.08 736.22L172.08 736.22L171.42 736.46L171.42 736.46L171.48 736.46L171.48 736.46L170.76 736.64L170.76 736.64L170.82 736.58L170.82 736.58L170.1 736.7L170.1 736.7L170.16 736.7L170.16 736.7L72.95999 736.7L72.95999 736.7L72.95999 737.72L72.95999 737.72L170.28 737.72L170.28 737.72L171 737.6L171 737.6L171.72 737.42L171.72 737.42L171.78 737.42L171.78 737.42L172.44 737.18L172.44 737.18L172.5 737.12L172.5 737.12L173.1 736.82L173.1 736.82L173.16 736.82L173.16 736.82L173.76 736.46L173.76 736.46L173.76 736.4L173.76 736.4L174.3 735.98L174.3 735.98L174.36 735.98L174.36 735.98L174.9 735.5L174.9 735.5L174.96 735.44L174.96 735.44L175.38 734.96L175.38 734.96L175.8 734.42L175.8 734.42L175.86 734.36L175.86 734.36L176.22 733.76L176.22 733.76L176.22 733.7L176.22 733.7L176.82 732.38L176.82 732.38L176.88 732.26L176.88 732.26L177 731.6L177 731.6L177.12 730.88L177.12 730.88L177.12 730.82L177.12 730.82L177.18 730.04L177.18 730.04L177.18 708.56L177.18 708.56L177.12 707.84L177.12 707.84L177.12 707.78L177.12 707.78L177 707.06L177 707.06L176.88 706.4L176.88 706.4L176.82 706.28L176.82 706.28L176.22 704.96L176.22 704.96L176.22 704.9L176.22 704.9L175.86 704.3L175.86 704.3L175.8 704.3C 175.071 703.26 174.807 702.996 173.76 702.26L173.76 702.26L173.76 702.2L173.76 702.2L173.16 701.84" stroke="none" fill="#FF0000" fill-rule="nonzero" /><path id="881" transform="matrix(1 0 0 -1 0 842)" d="M215.94 720.44L215.22 720.44L215.22 720.44L215.34 720.44L215.34 720.44L214.62 720.32L214.62 720.32L214.62 720.38L214.62 720.38L213.9 720.2L213.9 720.2L213.96 720.2L213.96 720.2L213.3 719.96L213.3 719.96L213.36 719.96L213.36 719.96L212.76 719.66L212.76 719.66L212.82 719.66L212.82 719.66L212.22 719.3L212.22 719.3L212.22 719.36L212.22 719.36L211.68 718.94L211.68 718.94L211.74 718.94L211.74 718.94L211.2 718.46L211.2 718.46L211.2 718.52L211.2 718.52L210.72 718.04L210.72 718.04L210.78 718.1L210.78 718.1L210.36 717.5L210.36 717.5L210 716.96L210 716.96L210.06 717.02L210.06 717.02L209.76 716.36L209.76 716.36L209.76 716.42L209.76 716.42L209.52 715.76L209.52 715.76L209.52 715.82L209.52 715.82L209.34 715.16L209.34 715.16L209.4 715.22L209.4 715.22L209.34 714.5L209.34 714.5L209.28 713.72L209.28 713.72L209.28 713.78L209.28 713.78L209.28 692.6L209.28 692.6L209.4 691.16L209.4 691.16L209.34 691.28L209.34 691.28L209.52 690.62L209.52 690.62L209.52 690.68L209.52 690.68L209.76 690.02L209.76 690.02L210.06 689.36L210.06 689.36L210.06 689.42L210.06 689.42L210.42 688.82L210.42 688.82L210.36 688.88L210.36 688.88L210.78 688.34L210.78 688.34L210.72 688.4L210.72 688.4L211.2 687.92L211.2 687.92L211.74 687.44L211.74 687.44L211.68 687.44L211.68 687.44L212.22 687.02L212.22 687.02L212.22 687.08L212.22 687.08L212.82 686.72L212.82 686.72L212.76 686.72L212.76 686.72L213.36 686.42L213.36 686.42L213.3 686.48L213.3 686.48L213.96 686.24L213.96 686.24L213.9 686.24L213.9 686.24L214.62 686.06L214.62 686.06L215.34 685.94L215.34 685.94L215.28 685.94L215.28 685.94L216 685.88L216 685.88L215.94 685.88L215.94 685.88L296.34 685.88L296.34 685.88L297.06 685.94L297.06 685.94L297 685.94L297 685.94L297.72 686.06L297.72 686.06L297.66 686.06L297.66 686.06L298.38 686.24L298.38 686.24L298.32 686.24L298.32 686.24L298.98 686.48L298.98 686.48L298.92 686.42L298.92 686.42L299.52 686.72L299.52 686.72L300.06 685.82L300.06 685.82L300 685.82L300 685.82L299.4 685.52L299.4 685.52L299.34 685.52L299.34 685.52L298.68 685.28L298.68 685.28L298.62 685.28L298.62 685.28L297.9 685.1L297.9 685.1L297.9 685.04L297.9 685.04L297.18 684.92L297.18 684.92L297.12 684.92L297.12 684.92L296.4 684.86L296.4 684.86L215.94 684.86L215.94 684.86L215.22 684.92L215.22 684.92L215.16 684.92L215.16 684.92L214.44 685.04L214.44 685.04L214.38 685.1L214.38 685.1L213.66 685.28L213.66 685.28L213.6 685.28L213.6 685.28L212.94 685.52L212.94 685.52L212.88 685.52L212.88 685.52L212.28 685.82L212.28 685.82L211.68 686.18L211.68 686.18L211.62 686.24L211.62 686.24L211.08 686.66L211.08 686.66L210.54 687.14L210.54 687.14L210.48 687.2L210.48 687.2L210 687.68L210 687.68L210 687.74L210 687.74L209.58 688.28L209.58 688.28L209.52 688.28L209.52 688.28L209.16 688.88L209.16 688.88L209.16 688.94C 208.809 689.626 208.5 690.333 208.38 691.1L208.38 691.1L208.32 691.82L208.32 691.82L208.26 692.54L208.26 692.54L208.26 713.78L208.26 713.78L208.32 714.56L208.32 714.56L208.38 715.28L208.38 715.28L208.38 715.4L208.38 715.4L208.56 716.06L208.56 716.06L208.56 716.12L208.56 716.12L208.8 716.78L208.8 716.78L208.86 716.78L208.86 716.78L209.16 717.44L209.16 717.44L209.16 717.5C 209.939 718.764 209.925 718.778 211.08 719.72L211.08 719.72L211.62 720.14L211.62 720.14L211.68 720.2C 212.963 721.023 213.669 721.26 215.16 721.46L215.16 721.46L215.94 721.46" stroke="none" fill="#FF0000" fill-rule="nonzero" /><path id="882" transform="matrix(1 0 0 -1 0 842)" d="M299.52 686.72L300.12 687.08L300.12 687.08L300.06 687.02L300.06 687.02L300.6 687.4399L300.6 687.4399L301.14 687.92L301.14 687.92L301.08 687.92L301.08 687.92L301.56 688.4L301.56 688.4L301.56 688.34L301.56 688.34L301.98 688.8799L301.98 688.8799L301.92 688.8199L301.92 688.8199L302.28 689.42L302.28 689.42L302.28 689.36L302.28 689.36L302.58 690.02L302.58 690.02L302.52 690.02L302.52 690.02L302.76 690.68L302.76 690.68L302.76 690.62L302.76 690.62L302.94 691.28L302.94 691.28L302.94 691.16L302.94 691.16L303.06 692.6L303.06 692.6L303.06 713.78L303.06 713.78L303.06 713.72L303.06 713.72L303 714.5L303 714.5L302.94 715.22L302.94 715.22L302.94 715.16L302.94 715.16L302.76 715.8199L302.76 715.8199L302.76 715.7599L302.76 715.7599L302.52 716.42L302.52 716.42L302.58 716.36L302.58 716.36L302.28 717.02L302.28 717.02L302.28 716.96L302.28 716.96L301.92 717.5L301.92 717.5L301.5 718.1L301.5 718.1L301.56 718.04L301.56 718.04L301.08 718.52L301.08 718.52L301.14 718.46L301.14 718.46L300.6 718.9399L300.6 718.9399L300.06 719.36L300.06 719.36L300.12 719.3L300.12 719.3L299.52 719.66L299.52 719.66L298.92 719.96L298.92 719.96L298.98 719.96L298.98 719.96L298.32 720.2L298.32 720.2L298.38 720.2L298.38 720.2L297.66 720.3799L297.66 720.3799L297.72 720.3199L297.72 720.3199L297 720.4399L297 720.4399L297.06 720.4399L297.06 720.4399L215.94 720.4399L215.94 720.4399L215.94 721.46L215.94 721.46L297.18 721.46L297.18 721.46L297.9 721.34L297.9 721.34L298.62 721.16L298.62 721.16L298.68 721.16L298.68 721.16L299.34 720.92L299.34 720.92L299.4 720.86L299.4 720.86L300 720.56L300 720.56L300.06 720.56L300.06 720.56L300.66 720.2L300.66 720.2L300.66 720.14L300.66 720.14L301.2 719.72L301.2 719.72L301.26 719.72L301.26 719.72L301.8 719.24L301.8 719.24L302.34 718.7L302.34 718.7L302.76 718.1L302.76 718.1L302.76 718.04L302.76 718.04L303.12 717.5L303.12 717.5L303.18 717.4399L303.18 717.4399L303.48 716.78L303.48 716.78L303.72 716.12L303.72 716.12L303.72 716.06L303.72 716.06L303.9 715.4L303.9 715.4L303.96 715.28L303.96 715.28L304.02 714.56L304.02 714.56L304.08 713.78L304.08 713.78L304.08 692.54L304.08 692.54L303.96 691.1L303.96 691.1L303.9 691.04L303.9 691.04L303.72 690.3799L303.72 690.3799L303.72 690.3199L303.72 690.3199L303.48 689.66L303.48 689.66L303.48 689.6L303.48 689.6L303.18 688.9399L303.18 688.9399L303.18 688.8799L303.18 688.8799L302.82 688.28L302.82 688.28L302.76 688.28C 302.179 687.482 301.468 686.7809 300.66 686.24L300.66 686.24L300.66 686.18L300.66 686.18L300.06 685.8199" stroke="none" fill="#FF0000" fill-rule="nonzero" /><path id="883" transform="matrix(1 0 0 -1 0 842)" d="M78.06 528.8L77.28 528.74L77.28 528.74L76.56 528.68L76.56 528.68L76.62 528.74L76.62 528.74L75.96 528.56L75.96 528.56L76.02 528.56L76.02 528.56L75.36 528.32L75.36 528.32L75.42 528.32L75.42 528.32L74.75999 528.02L74.75999 528.02L74.82 528.08L74.82 528.08L74.28 527.72L74.28 527.72L73.68 527.3L73.68 527.3L73.74 527.36L73.74 527.36L73.25999 526.88L73.25999 526.88L73.32 526.88L73.32 526.88L72.84 526.34L72.84 526.34L72.84 526.4L72.84 526.4L72.42 525.86L72.42 525.86L72.48 525.86L72.48 525.86L72.12 525.26L72.12 525.26L72.12 525.32L72.12 525.32L71.82 524.72L71.82 524.72L71.82 524.78L71.82 524.78L71.57999 524.12L71.57999 524.12L71.57999 524.18L71.57999 524.18L71.39999 523.46L71.39999 523.46L71.46 523.46L71.46 523.46L71.34 522.74L71.34 522.74L71.34 522.86L71.34 522.86L71.34 521.24L71.34 521.24L71.34 521.3L71.34 521.3L71.46 520.58L71.46 520.58L71.39999 520.64L71.39999 520.64L71.57999 519.92L71.57999 519.92L71.57999 519.98L71.57999 519.98L71.82 519.32L71.82 519.32L71.82 519.38L71.82 519.38L72.12 518.78L72.12 518.78L72.48 518.18L72.48 518.18L72.42 518.24L72.42 518.24L72.84 517.7L72.84 517.7L73.32 517.16L73.32 517.16L73.25999 517.22L73.25999 517.22L73.74 516.8L73.74 516.8L73.68 516.86L73.68 516.86L74.28 516.44L74.28 516.44L74.82 516.08L74.82 516.08L74.75999 516.08L74.75999 516.08L76.07999 515.48L76.07999 515.48L75.96 515.54L75.96 515.54L76.62 515.42L76.62 515.42L77.34 515.3L77.34 515.3L77.28 515.3L77.28 515.3L78.06 515.24L78.06 515.24L78 515.24L78 515.24L158.16 515.24L158.16 515.24L158.94 515.3L158.94 515.3L158.88 515.3L158.88 515.3L159.6 515.42L159.6 515.42L160.26 515.54L160.26 515.54L160.14 515.48L160.14 515.48L161.46 516.08L161.46 516.08L161.4 516.08L161.4 516.08L161.94 515.24L161.94 515.24L161.88 515.18L161.88 515.18L160.56 514.58L160.56 514.58L160.44 514.52L160.44 514.52L159.78 514.4L159.78 514.4L159.06 514.28L159.06 514.28L159 514.28L159 514.28L158.22 514.22L158.22 514.22L78 514.22L78 514.22L77.22 514.28L77.22 514.28L77.16 514.28L77.16 514.28L76.43999 514.4L76.43999 514.4L75.78 514.52L75.78 514.52L75.66 514.58L75.66 514.58L74.34 515.18L74.34 515.18L74.28 515.24L74.28 515.24L73.74 515.6L73.74 515.6L73.68 515.6L73.68 515.6L73.07999 516.02L73.07999 516.02L72.6 516.44L72.6 516.44L72.54 516.5L72.54 516.5L72.06 517.04L72.06 517.04L72.06 517.1L72.06 517.1L71.64 517.64L71.64 517.64L71.57999 517.64L71.57999 517.64L71.22 518.24L71.22 518.24L71.22 518.3C 70.27299 519.816 70.147 521.905 70.43999 523.64L70.43999 523.64L70.43999 523.7L70.43999 523.7L70.62 524.42L70.62 524.42L70.62 524.48C 70.771 525.028 71.314 526.045 71.64 526.46L71.64 526.46L72.06 527L72.06 527L72.54 527.54L72.54 527.54L72.54 527.6L72.54 527.6L73.07999 528.14L73.07999 528.14L73.68 528.56L73.68 528.56L73.74 528.56L73.74 528.56L74.28 528.92L74.28 528.92L74.34 528.92L74.34 528.92L75 529.22L75 529.22L75 529.28L75 529.28L75.66 529.52L75.66 529.52L75.72 529.52L75.72 529.52L76.38 529.7L76.38 529.7L76.5 529.7L76.5 529.7L77.22 529.76L77.22 529.76L78 529.82" stroke="none" fill="#FF0000" fill-rule="nonzero" /><path id="884" transform="matrix(1 0 0 -1 0 842)" d="M161.4 516.08L161.94 516.44L161.94 516.44L161.88 516.44L161.88 516.44L162.48 516.86L162.48 516.86L162.48 516.8L162.48 516.8L162.96 517.22L162.96 517.22L162.9 517.16L162.9 517.16L163.38 517.7L163.38 517.7L163.8 518.24L163.8 518.24L163.74 518.18L163.74 518.18L164.1 518.78L164.1 518.78L164.4 519.38L164.4 519.38L164.34 519.32L164.34 519.32L164.58 519.98L164.58 519.98L164.58 519.92L164.58 519.92L164.76 520.64L164.76 520.64L164.76 520.58L164.76 520.58L164.88 521.3L164.88 521.3L164.88 521.24L164.88 521.24L164.88 522.86L164.88 522.86L164.88 522.74L164.88 522.74L164.76 523.46L164.76 523.46L164.58 524.18L164.58 524.18L164.58 524.12L164.58 524.12L164.34 524.78L164.34 524.78L164.4 524.72L164.4 524.72L164.1 525.32L164.1 525.32L164.1 525.26L164.1 525.26L163.74 525.86L163.74 525.86L163.8 525.86L163.8 525.86L163.38 526.4L163.38 526.4L163.38 526.34L163.38 526.34L162.9 526.88L162.9 526.88L162.42 527.36L162.42 527.36L162.48 527.3L162.48 527.3L161.88 527.72L161.88 527.72L161.94 527.72L161.94 527.72L161.4 528.08L161.4 528.08L161.46 528.02L161.46 528.02L160.8 528.32L160.8 528.32L160.14 528.56L160.14 528.56L160.2 528.56L160.2 528.56L159.54 528.74L159.54 528.74L159.66 528.68L159.66 528.68L158.94 528.74L158.94 528.74L158.16 528.8L158.16 528.8L77.99999 528.8L77.99999 528.8L78.06 528.8L78.06 528.8L77.99999 529.82L77.99999 529.82L158.16 529.82C 160.188 529.86 162.233 529.095 163.62 527.6L163.62 527.6L163.68 527.54L163.68 527.54L164.16 527C 165.547 525.425 166.034 523.292 165.9 521.24L165.9 521.24L165.9 521.12L165.9 521.12L165.78 520.4L165.78 520.4L165.72 520.4L165.72 520.4L165.54 519.68L165.54 519.68L165.54 519.62L165.54 519.62L165.3 518.96L165.3 518.96L165.3 518.9L165.3 518.9L165 518.3L165 518.3L165 518.24L165 518.24L164.64 517.64L164.64 517.64L164.58 517.64C 163.864 516.633 163.549 516.252 162.48 515.6L162.48 515.6L161.94 515.24" stroke="none" fill="#FF0000" fill-rule="nonzero" /><path id="885" transform="matrix(1 0 0 -1 0 842)" d="M359.76 692.36L359.04 692.3L359.04 692.3L359.1 692.3L359.1 692.3L358.38 692.18L358.38 692.18L358.38 692.24L358.38 692.24L357.66 692.06L357.66 692.06L357.72 692.06L357.72 692.06L357.06 691.82L357.06 691.82L357.12 691.82L357.12 691.82L356.52 691.52L356.52 691.52L356.58 691.52L356.58 691.52L355.98 691.16L355.98 691.16L355.98 691.22L355.98 691.22L355.44 690.8L355.44 690.8L355.5 690.8L355.5 690.8L354.96 690.32L354.96 690.32L354.96 690.38L354.96 690.38L354.48 689.9L354.48 689.9L354.54 689.96L354.54 689.96L354.12 689.42L354.12 689.42L354.18 689.42L354.18 689.42L353.82 688.82L353.82 688.82L353.82 688.88L353.82 688.88L353.52 688.22L353.52 688.22L353.52 688.28L353.52 688.28L353.28 687.62L353.28 687.62L353.28 687.68L353.28 687.68L353.1 687.02L353.1 687.02L353.16 687.02L353.16 687.02L353.04 686.3L353.04 686.3L353.04 686.42L353.04 686.42L353.04 656.9L353.04 656.9L353.04 656.96L353.04 656.96L353.16 656.24L353.16 656.24L353.1 656.3L353.1 656.3L353.28 655.58L353.28 655.58L353.28 655.64L353.28 655.64L353.52 654.98L353.52 654.98L353.52 655.04L353.52 655.04L353.82 654.44L353.82 654.44L354.18 653.84L354.18 653.84L354.12 653.9L354.12 653.9L354.54 653.36L354.54 653.36L355.02 652.82L355.02 652.82L354.96 652.88L354.96 652.88L355.5 652.4L355.5 652.4L355.44 652.46L355.44 652.46L355.98 652.1L355.98 652.1L357.18 651.38L357.18 651.38L357.06 651.44L357.06 651.44L357.72 651.2L357.72 651.2L357.66 651.2L357.66 651.2L358.38 651.02L358.38 651.02L358.32 651.02L358.32 651.02L359.76 650.9L359.76 650.9L359.7 650.9L359.7 650.9L533.88 650.9L533.88 650.9L535.32 651.02L535.32 651.02L535.2 651.02L535.2 651.02L535.86 651.2L535.86 651.2L535.8 651.2L535.8 651.2L536.46 651.44L536.46 651.44L536.4 651.38L536.4 651.38L537.06 651.74L537.06 651.74L537.6 650.84L537.6 650.84L537.54 650.84L537.54 650.84L536.88 650.48L536.88 650.48L536.82 650.48L536.82 650.48L536.16 650.24L536.16 650.24L536.1 650.24L536.1 650.24L535.44 650.06L535.44 650.06L535.38 650L535.38 650L533.94 649.88L533.94 649.88L359.7 649.88L359.7 649.88L358.26 650L358.26 650L358.14 650.06L358.14 650.06L357.42 650.24L357.42 650.24L357.36 650.24L357.36 650.24L356.7 650.48L356.7 650.48L356.64 650.48L356.64 650.48L355.44 651.2L355.44 651.2L355.44 651.26L355.44 651.26L354.9 651.62L354.9 651.62L354.84 651.62L354.84 651.62L354.3 652.1L354.3 652.1L354.24 652.16L354.24 652.16L353.76 652.7L353.76 652.7L353.76 652.76L353.76 652.76L353.34 653.3L353.34 653.3L353.28 653.3L353.28 653.3L352.92 653.9L352.92 653.9L352.92 653.96C 352.361 654.894 352.177 655.696 352.02 656.78L352.02 656.78L352.02 686.48L352.02 686.48L352.14 687.2L352.14 687.2L352.14 687.26L352.14 687.26L352.32 687.92L352.32 687.92L352.32 687.98L352.32 687.98L352.56 688.64L352.56 688.64L352.62 688.64L352.62 688.64L352.92 689.3L352.92 689.3L352.92 689.36C 353.491 690.361 353.947 690.882 354.84 691.58L354.84 691.58L355.38 692L355.38 692L355.44 692.06C 356.723 692.883 357.429 693.12 358.92 693.32L358.92 693.32L358.98 693.32L358.98 693.32L359.7 693.38" stroke="none" fill="#FF0000" fill-rule="nonzero" /><path id="886" transform="matrix(1 0 0 -1 0 842)" d="M537.06 651.74L537.66 652.1L537.66 652.1L538.2 652.46L538.2 652.46L538.08 652.4L538.08 652.4L538.56 652.88L538.56 652.88L538.56 652.82L538.56 652.82L539.04 653.36L539.04 653.36L539.46 653.9L539.46 653.9L539.4 653.84L539.4 653.84L539.76 654.44L539.76 654.44L540.06 655.04L540.06 655.04L540 654.98L540 654.98L540.24 655.64L540.24 655.64L540.24 655.58L540.24 655.58L540.42 656.3L540.42 656.3L540.42 656.24L540.42 656.24L540.54 656.96L540.54 656.96L540.54 656.9L540.54 656.9L540.6 657.62L540.6 657.62L540.6 685.7L540.6 685.7L540.6 685.64L540.6 685.64L540.54 686.36L540.54 686.36L540.54 686.3L540.54 686.3L540.42 687.02L540.42 687.02L540.24 687.68L540.24 687.68L540.24 687.62L540.24 687.62L540 688.28L540 688.28L540.06 688.22L540.06 688.22L539.76 688.88L539.76 688.88L539.76 688.82L539.76 688.82L539.4 689.42L539.4 689.42L539.46 689.42L539.46 689.42L539.04 689.96L539.04 689.96L539.04 689.9L539.04 689.9L538.08 690.86L538.08 690.86L538.14 690.8L538.14 690.8L537.6 691.22L537.6 691.22L537.66 691.16L537.66 691.16L537.06 691.52L537.06 691.52L537.12 691.52L537.12 691.52L536.46 691.82L536.46 691.82L535.8 692.06L535.8 692.06L535.86 692.06L535.86 692.06L535.2 692.24L535.2 692.24L535.26 692.18L535.26 692.18L534.54 692.3L534.54 692.3L534.6 692.3L534.6 692.3L533.88 692.36L533.88 692.36L359.7 692.36L359.7 692.36L359.76 692.36L359.76 692.36L359.7 693.38L359.7 693.38L533.94 693.38L533.94 693.38L534.66 693.32L534.66 693.32L534.72 693.32L534.72 693.32L535.44 693.2L535.44 693.2L536.1 693.02L536.1 693.02L536.16 693.02L536.16 693.02L536.82 692.78L536.82 692.78L536.88 692.72L536.88 692.72L537.54 692.42L537.54 692.42L537.6 692.42L537.6 692.42L538.2 692.06L538.2 692.06L538.2 692L538.2 692L538.74 691.58L538.74 691.58L538.8 691.58L538.8 691.58L539.82 690.56L539.82 690.56L540.24 690.02L540.24 690.02L540.3 689.96L540.3 689.96L540.66 689.36L540.66 689.36L540.66 689.3L540.66 689.3L540.96 688.64L540.96 688.64L541.2 687.98L541.2 687.98L541.2 687.92L541.2 687.92L541.38 687.26L541.38 687.26L541.44 687.2L541.44 687.2L541.56 686.48L541.56 686.48L541.56 686.42L541.56 686.42L541.62 685.7L541.62 685.7L541.62 657.56L541.62 657.56L541.56 656.84L541.56 656.84L541.56 656.78L541.56 656.78L541.44 656.06L541.44 656.06L541.38 656.06L541.38 656.06L541.2 655.34L541.2 655.34L541.2 655.28L541.2 655.28L540.96 654.62L540.96 654.62L540.96 654.56L540.96 654.56L540.66 653.96L540.66 653.96L540.66 653.9L540.66 653.9L540.3 653.3L540.3 653.3L540.24 653.3C 539.773 652.608 539.355 652.176 538.74 651.62L538.74 651.62L538.2 651.26L538.2 651.26L538.2 651.2L538.2 651.2L537.6 650.84" stroke="none" fill="#FF0000" fill-rule="nonzero" /></g></g><g clip-path="url(#9)"><g clip-path="url(#10)"><path id="887" transform="matrix(1 0 0 -1 0 842)" d="M262.92 147.44L276.36 147.44L276.36 160.88L262.92 160.88z" stroke="none" fill="#FFFFFF" fill-rule="nonzero" /></g></g><g clip-path="url(#11)"><g clip-path="url(#12)"><g clip-path="url(#13)"><g transform="matrix(0.48 0 0 0.48 262.92 681.12)"><g transform="matrix(1 0 0 1 0 0)"><image x="0" y="0" xlink:href="img_217.png" width="28" height="28" /></g></g></g></g></g></g></g></svg>