<svg xmlns="http://www.w3.org/2000/svg" xmlns:xlink="http://www.w3.org/1999/xlink" id="body_123" preserveAspectRatio="xMinYMin meet" viewBox="0 0 793 1123"><defs><clipPath id="1"><path id="" clip-rule="evenodd" transform="matrix(1 0 0 1 0 0)" d="M0 842L0 0L0 0L595 0L595 0L595 842L595 842L0 842z" /></clipPath></defs><g transform="matrix(1.333333 0 0 1.333333 0 0)"><g clip-path="url(#1)"><path id="1316" transform="matrix(1 0 0 -1 0 842)" d="M35.94 751.94L131.82 751.94L131.82 769.94L35.94 769.94z" stroke="none" fill="#C4DFF7" fill-rule="nonzero" /><path id="1326" transform="matrix(1 0 0 -1 0 842)" d="M131.82 769.94L549 769.94L549 751.94L131.82 751.94" stroke="none" fill="#C4DFF7" fill-rule="nonzero" /><path id="1339" transform="matrix(1 0 0 -1 0 842)" d="M35.94 647.72L549 647.72L549 648.2L35.94 648.2z" stroke="none" fill="#000000" fill-rule="nonzero" /><path id="1340" transform="matrix(1 0 0 -1 0 842)" d="M35.94 627.74L549 627.74L549 628.22L35.94 628.22z" stroke="none" fill="#000000" fill-rule="nonzero" /><path id="1341" transform="matrix(1 0 0 -1 0 842)" d="M35.94 537.74L549 537.74L549 538.22L35.94 538.22z" stroke="none" fill="#000000" fill-rule="nonzero" /><path id="1342" transform="matrix(1 0 0 -1 0 842)" d="M35.94 447.74L549 447.74L549 448.22L35.94 448.22z" stroke="none" fill="#000000" fill-rule="nonzero" /><path id="1343" transform="matrix(1 0 0 -1 0 842)" d="M35.94 427.7L549 427.7L549 428.18L35.94 428.18z" stroke="none" fill="#000000" fill-rule="nonzero" /><path id="1344" transform="matrix(1 0 0 -1 0 842)" d="M35.94 407.72L549 407.72L549 408.2L35.94 408.2z" stroke="none" fill="#000000" fill-rule="nonzero" /><path id="1345" transform="matrix(1 0 0 -1 0 842)" d="M35.94 387.74L549 387.74L549 388.22L35.94 388.22z" stroke="none" fill="#000000" fill-rule="nonzero" /><path id="1346" transform="matrix(1 0 0 -1 0 842)" d="M35.94 367.7L549 367.7L549 368.18L35.94 368.18z" stroke="none" fill="#000000" fill-rule="nonzero" /><path id="1347" transform="matrix(1 0 0 -1 0 842)" d="M35.94 347.72L549 347.72L549 348.2L35.94 348.2z" stroke="none" fill="#000000" fill-rule="nonzero" /><path id="1348" transform="matrix(1 0 0 -1 0 842)" d="M35.94 327.74L549 327.74L549 328.22L35.94 328.22z" stroke="none" fill="#000000" fill-rule="nonzero" /><path id="1349" transform="matrix(1 0 0 -1 0 842)" d="M35.94 307.7L549 307.7L549 308.18L35.94 308.18z" stroke="none" fill="#000000" fill-rule="nonzero" /><path id="1350" transform="matrix(1 0 0 -1 0 842)" d="M35.94 287.72L549 287.72L549 288.2L35.94 288.2z" stroke="none" fill="#000000" fill-rule="nonzero" /><path id="1351" transform="matrix(1 0 0 -1 0 842)" d="M35.94 267.68L549 267.68L549 268.16L35.94 268.16z" stroke="none" fill="#000000" fill-rule="nonzero" /><path id="1352" transform="matrix(1 0 0 -1 0 842)" d="M35.94 247.16L549 247.16L549 248.66L35.94 248.66z" stroke="none" fill="#000000" fill-rule="nonzero" /></g></g></svg>