<svg xmlns="http://www.w3.org/2000/svg" xmlns:xlink="http://www.w3.org/1999/xlink" id="body_132" preserveAspectRatio="xMinYMin meet" viewBox="0 0 793 1123"><defs><clipPath id="1"><path id="" clip-rule="evenodd" transform="matrix(1 0 0 1 0 0)" d="M0 842L0 0L0 0L595 0L595 0L595 842L595 842L0 842z" /></clipPath><clipPath id="2"><path id="" clip-rule="evenodd" transform="matrix(1 0 0 1 0 0)" d="M179.4 152.04L197.94 152.04L197.94 152.04L197.94 169.92L197.94 169.92L179.4 169.92z" /></clipPath><clipPath id="3"><path id="" clip-rule="evenodd" transform="matrix(1 0 0 1 0 0)" d="M0 0.02001953L595.2 0.02001953L595.2 0.02001953L595.2 842L595.2 842L0 842z" /></clipPath><clipPath id="4"><path id="" clip-rule="evenodd" transform="matrix(1 0 0 1 0 0)" d="M180.36 153.06L196.92 153.06L196.92 153.06L196.92 168.9L196.92 168.9L180.36 168.9z" /></clipPath><clipPath id="5"><path id="" clip-rule="evenodd" transform="matrix(1 0 0 1 0 0)" d="M179.4 152.04L197.94 152.04L197.94 152.04L197.94 169.92L197.94 169.92L179.4 169.92z" /></clipPath><clipPath id="6"><path id="" clip-rule="evenodd" transform="matrix(1 0 0 1 0 0)" d="M0 0.02001953L595.2 0.02001953L595.2 0.02001953L595.2 842L595.2 842L0 842z" /></clipPath><clipPath id="7"><path id="" clip-rule="evenodd" transform="matrix(1 0 0 1 0 0)" d="M179.4 189.36L197.94 189.36L197.94 189.36L197.94 207.24L197.94 207.24L179.4 207.24z" /></clipPath><clipPath id="8"><path id="" clip-rule="evenodd" transform="matrix(1 0 0 1 0 0)" d="M0 0.02001953L595.2 0.02001953L595.2 0.02001953L595.2 842L595.2 842L0 842z" /></clipPath><clipPath id="9"><path id="" clip-rule="evenodd" transform="matrix(1 0 0 1 0 0)" d="M180.36 190.38L196.92 190.38L196.92 190.38L196.92 206.22L196.92 206.22L180.36 206.22z" /></clipPath><clipPath id="10"><path id="" clip-rule="evenodd" transform="matrix(1 0 0 1 0 0)" d="M179.4 189.36L197.94 189.36L197.94 189.36L197.94 207.24L197.94 207.24L179.4 207.24z" /></clipPath><clipPath id="11"><path id="" clip-rule="evenodd" transform="matrix(1 0 0 1 0 0)" d="M0 0.02001953L595.2 0.02001953L595.2 0.02001953L595.2 842L595.2 842L0 842z" /></clipPath><clipPath id="12"><path id="" clip-rule="evenodd" transform="matrix(1 0 0 1 0 0)" d="M215.94 232.68L545.94 232.68L545.94 232.68L545.94 362.34L545.94 362.34L215.94 362.34z" /></clipPath><clipPath id="13"><path id="" clip-rule="evenodd" transform="matrix(1 0 0 1 0 0)" d="M0 0.02001953L595.2 0.02001953L595.2 0.02001953L595.2 842L595.2 842L0 842z" /></clipPath><clipPath id="14"><path id="" clip-rule="evenodd" transform="matrix(1 0 0 1 0 0)" d="M216.96 233.7L559.2 233.7L559.2 233.7L559.2 366.9L559.2 366.9L216.96 366.9z" /></clipPath><clipPath id="15"><path id="" clip-rule="evenodd" transform="matrix(1 0 0 1 0 0)" d="M215.94 232.68L545.94 232.68L545.94 232.68L545.94 362.34L545.94 362.34L215.94 362.34z" /></clipPath><clipPath id="16"><path id="" clip-rule="evenodd" transform="matrix(1 0 0 1 0 0)" d="M0 0.02001953L595.2 0.02001953L595.2 0.02001953L595.2 842L595.2 842L0 842z" /></clipPath></defs><g transform="matrix(1.333333 0 0 1.333333 0 0)"><g clip-path="url(#1)"><g clip-path="url(#2)"><g clip-path="url(#3)"><path id="439" transform="matrix(1 0 0 -1 0 842)" d="M180.36 673.1L196.92 673.1L196.92 688.94L180.36 688.94z" stroke="none" fill="#FFFFFF" fill-rule="nonzero" /></g></g><g clip-path="url(#4)"><g clip-path="url(#5)"><g clip-path="url(#6)"><g transform="matrix(0.48 0 0 0.48 180.36 153.06)"><g transform="matrix(1 0 0 1 0 0)"><image x="0" y="0" xlink:href="img_128.png" width="35" height="33" /></g></g></g></g></g><g clip-path="url(#7)"><g clip-path="url(#8)"><path id="441" transform="matrix(1 0 0 -1 0 842)" d="M180.36 635.78L196.92 635.78L196.92 651.6201L180.36 651.6201z" stroke="none" fill="#FFFFFF" fill-rule="nonzero" /></g></g><g clip-path="url(#9)"><g clip-path="url(#10)"><g clip-path="url(#11)"><g transform="matrix(0.48 0 0 0.48 180.36 190.3799)"><g transform="matrix(1 0 0 1 0 0)"><image x="0" y="0" xlink:href="img_129.png" width="35" height="33" /></g></g></g></g></g><g clip-path="url(#12)"><g clip-path="url(#13)"><path id="494" transform="matrix(1 0 0 -1 0 842)" d="M216.96 608.3L559.2 608.3L559.2 475.1L216.96 475.1" stroke="none" fill="#FFFFFF" fill-rule="nonzero" /></g></g><g clip-path="url(#14)"><g clip-path="url(#15)"><g clip-path="url(#16)"><g transform="matrix(0.48 0 0 0.4791367 216.96 233.7)"><g transform="matrix(1 0 0 1 0 0)"><image x="0" y="0" xlink:href="img_339.png" width="713" height="278" /></g></g></g></g></g><path id="496" transform="matrix(1 0 0 -1 0 842)" d="M35.94 392.66L151.8 392.66L151.8 410.66L35.94 410.66z" stroke="none" fill="#C4DFF7" fill-rule="nonzero" /><path id="506" transform="matrix(1 0 0 -1 0 842)" d="M151.8 410.66L549 410.66L549 392.66L151.8 392.66" stroke="none" fill="#C4DFF7" fill-rule="nonzero" /><path id="1525" transform="matrix(1 0 0 -1 0 842)" d="M35.94 302.42L549 302.42L549 302.9L35.94 302.9z" stroke="none" fill="#000000" fill-rule="nonzero" /><path id="1526" transform="matrix(1 0 0 -1 0 842)" d="M35.94 202.4L549 202.4L549 202.88L35.94 202.88z" stroke="none" fill="#000000" fill-rule="nonzero" /><path id="1527" transform="matrix(1 0 0 -1 0 842)" d="M35.94 101.84L549 101.84L549 103.34L35.94 103.34z" stroke="none" fill="#000000" fill-rule="nonzero" /></g></g></svg>