<svg xmlns="http://www.w3.org/2000/svg" xmlns:xlink="http://www.w3.org/1999/xlink" id="body_49" preserveAspectRatio="xMinYMin meet" viewBox="0 0 793 1123"><defs><clipPath id="1"><path id="" clip-rule="evenodd" transform="matrix(1 0 0 1 0 0)" d="M0 842L0 0L0 0L595 0L595 0L595 842L595 842L0 842z" /></clipPath></defs><g transform="matrix(1.333333 0 0 1.333333 0 0)"><g clip-path="url(#1)"><path id="1788" transform="matrix(1 0 0 -1 0 842)" d="M44.94 751.94L232.5 751.94L232.5 769.94L44.94 769.94z" stroke="none" fill="#C4DFF7" fill-rule="nonzero" /><path id="1796" transform="matrix(1 0 0 -1 0 842)" d="M232.5 769.94L558 769.94L558 751.94L232.5 751.94" stroke="none" fill="#C4DFF7" fill-rule="nonzero" /><path id="1808" transform="matrix(1 0 0 -1 0 842)" d="M44.94 693.74L558 693.74L558 694.22L44.94 694.22z" stroke="none" fill="#000000" fill-rule="nonzero" /><path id="1809" transform="matrix(1 0 0 -1 0 842)" d="M44.94 621.74L558 621.74L558 622.22L44.94 622.22z" stroke="none" fill="#000000" fill-rule="nonzero" /><path id="1810" transform="matrix(1 0 0 -1 0 842)" d="M44.94 563.72L558 563.72L558 564.2L44.94 564.2z" stroke="none" fill="#000000" fill-rule="nonzero" /><path id="1811" transform="matrix(1 0 0 -1 0 842)" d="M44.94 505.7L558 505.7L558 506.18L44.94 506.18z" stroke="none" fill="#000000" fill-rule="nonzero" /><path id="1812" transform="matrix(1 0 0 -1 0 842)" d="M44.94 447.74L558 447.74L558 448.22L44.94 448.22z" stroke="none" fill="#000000" fill-rule="nonzero" /><path id="1813" transform="matrix(1 0 0 -1 0 842)" d="M44.94 389.72L558 389.72L558 390.2L44.94 390.2z" stroke="none" fill="#000000" fill-rule="nonzero" /><path id="1814" transform="matrix(1 0 0 -1 0 842)" d="M44.94 331.7L558 331.7L558 332.18L44.94 332.18z" stroke="none" fill="#000000" fill-rule="nonzero" /><path id="1815" transform="matrix(1 0 0 -1 0 842)" d="M44.94 273.68L558 273.68L558 274.16L44.94 274.16z" stroke="none" fill="#000000" fill-rule="nonzero" /><path id="1816" transform="matrix(1 0 0 -1 0 842)" d="M44.94 201.68L558 201.68L558 202.16L44.94 202.16z" stroke="none" fill="#000000" fill-rule="nonzero" /><path id="1817" transform="matrix(1 0 0 -1 0 842)" d="M44.94 129.14L558 129.14L558 130.64L44.94 130.64z" stroke="none" fill="#000000" fill-rule="nonzero" /></g></g></svg>