<svg xmlns="http://www.w3.org/2000/svg" xmlns:xlink="http://www.w3.org/1999/xlink" id="body_19" preserveAspectRatio="xMinYMin meet" viewBox="0 0 793 1123"><defs><clipPath id="1"><path id="" clip-rule="evenodd" transform="matrix(1 0 0 1 0 0)" d="M0 842L0 0L0 0L595 0L595 0L595 842L595 842L0 842z" /></clipPath><clipPath id="2"><path id="" clip-rule="evenodd" transform="matrix(1 0 0 1 0 0)" d="M224.94 179.04L521.58 179.04L521.58 179.04L521.58 332.94L521.58 332.94L224.94 332.94z" /></clipPath><clipPath id="3"><path id="" clip-rule="evenodd" transform="matrix(1 0 0 1 0 0)" d="M0 0.02001953L595.2 0.02001953L595.2 0.02001953L595.2 842L595.2 842L0 842z" /></clipPath><clipPath id="4"><path id="" clip-rule="evenodd" transform="matrix(1 0 0 1 0 0)" d="M225.96 180.06L359.16 180.06L359.16 180.06L359.16 331.98L359.16 331.98L225.96 331.98z" /></clipPath><clipPath id="5"><path id="" clip-rule="evenodd" transform="matrix(1 0 0 1 0 0)" d="M224.94 179.04L521.58 179.04L521.58 179.04L521.58 332.94L521.58 332.94L224.94 332.94z" /></clipPath><clipPath id="6"><path id="" clip-rule="evenodd" transform="matrix(1 0 0 1 0 0)" d="M0 0.02001953L595.2 0.02001953L595.2 0.02001953L595.2 842L595.2 842L0 842z" /></clipPath><clipPath id="7"><path id="" clip-rule="evenodd" transform="matrix(1 0 0 1 0 0)" d="M224.94 179.04L521.58 179.04L521.58 179.04L521.58 332.94L521.58 332.94L224.94 332.94z" /></clipPath><clipPath id="8"><path id="" clip-rule="evenodd" transform="matrix(1 0 0 1 0 0)" d="M0 0.02001953L595.2 0.02001953L595.2 0.02001953L595.2 842L595.2 842L0 842z" /></clipPath></defs><g transform="matrix(1.333333 0 0 1.333333 0 0)"><g clip-path="url(#1)"><g clip-path="url(#2)"><g clip-path="url(#3)"><path id="386" transform="matrix(1 0 0 -1 0 842)" d="M225.96 510.02L359.16 510.02L359.16 661.94L225.96 661.94z" stroke="none" fill="#FFFFFF" fill-rule="nonzero" /></g></g><g clip-path="url(#4)"><g clip-path="url(#5)"><g clip-path="url(#6)"><g transform="matrix(0.48 0 0 0.4792429 225.96 180.06)"><g transform="matrix(1 0 0 1 0 0)"><image x="0" y="0" xlink:href="img_39.png" width="278" height="317" /></g></g></g></g></g><g clip-path="url(#7)"><g clip-path="url(#8)"><path id="388" transform="matrix(1 0 0 -1 0 842)" d="M370.26 644.06L370.74 644.06L370.74 645.08L370.26 645.08z" stroke="none" fill="#000000" fill-rule="nonzero" /><path id="389" transform="matrix(1 0 0 -1 0 842)" d="M317.34 643.64L317.82 643.64L317.82 644.66L317.34 644.66z" stroke="none" fill="#000000" fill-rule="nonzero" /><path id="390" transform="matrix(1 0 0 -1 0 842)" d="M370.26 644.06L370.26 645.08L317.82 644.66L317.82 643.64" stroke="none" fill="#000000" fill-rule="nonzero" /><path id="391" transform="matrix(1 0 0 -1 0 842)" d="M370.26 619.64L370.74 619.64L370.74 620.66L370.26 620.66z" stroke="none" fill="#000000" fill-rule="nonzero" /><path id="392" transform="matrix(1 0 0 -1 0 842)" d="M332.94 619.64L370.26 619.64L370.26 620.66L332.94 620.66z" stroke="none" fill="#000000" fill-rule="nonzero" /><path id="393" transform="matrix(1 0 0 -1 0 842)" d="M370.26 594.86L370.74 594.86L370.74 595.88L370.26 595.88z" stroke="none" fill="#000000" fill-rule="nonzero" /><path id="394" transform="matrix(1 0 0 -1 0 842)" d="M350.88 594.5L351.36 594.5L351.36 595.52L350.88 595.52z" stroke="none" fill="#000000" fill-rule="nonzero" /><path id="395" transform="matrix(1 0 0 -1 0 842)" d="M370.26 594.86L370.26 595.88L351.36 595.52L351.36 594.5" stroke="none" fill="#000000" fill-rule="nonzero" /></g></g></g></g></svg>