<svg xmlns="http://www.w3.org/2000/svg" xmlns:xlink="http://www.w3.org/1999/xlink" id="body_209" preserveAspectRatio="xMinYMin meet" viewBox="0 0 793 1123"><defs><clipPath id="1"><path id="" clip-rule="evenodd" transform="matrix(1 0 0 1 0 0)" d="M0 842L0 0L0 0L595 0L595 0L595 842L595 842L0 842z" /></clipPath><clipPath id="2"><path id="" clip-rule="evenodd" transform="matrix(1 0 0 1 0 0)" d="M224.94 116.04L559.44 116.04L559.44 116.04L559.44 365.22L559.44 365.22L224.94 365.22z" /></clipPath><clipPath id="3"><path id="" clip-rule="evenodd" transform="matrix(1 0 0 1 0 0)" d="M0 0.02001953L595.2 0.02001953L595.2 0.02001953L595.2 842L595.2 842L0 842z" /></clipPath><clipPath id="4"><path id="" clip-rule="evenodd" transform="matrix(1 0 0 1 0 0)" d="M225.96 117.06L558.48 117.06L558.48 117.06L558.48 364.2L558.48 364.2L225.96 364.2z" /></clipPath><clipPath id="5"><path id="" clip-rule="evenodd" transform="matrix(1 0 0 1 0 0)" d="M224.94 116.04L559.44 116.04L559.44 116.04L559.44 365.22L559.44 365.22L224.94 365.22z" /></clipPath><clipPath id="6"><path id="" clip-rule="evenodd" transform="matrix(1 0 0 1 0 0)" d="M0 0.02001953L595.2 0.02001953L595.2 0.02001953L595.2 842L595.2 842L0 842z" /></clipPath><clipPath id="7"><path id="" clip-rule="evenodd" transform="matrix(1 0 0 1 0 0)" d="M44.94 452.22L431.22 452.22L431.22 452.22L431.22 548.52L431.22 548.52L44.94 548.52z" /></clipPath><clipPath id="8"><path id="" clip-rule="evenodd" transform="matrix(1 0 0 1 0 0)" d="M0 0.02001953L595.2 0.02001953L595.2 0.02001953L595.2 842L595.2 842L0 842z" /></clipPath><clipPath id="9"><path id="" clip-rule="evenodd" transform="matrix(1 0 0 1 0 0)" d="M45.96 453.24L430.2 453.24L430.2 453.24L430.2 547.56L430.2 547.56L45.96 547.56z" /></clipPath><clipPath id="10"><path id="" clip-rule="evenodd" transform="matrix(1 0 0 1 0 0)" d="M44.94 452.22L431.22 452.22L431.22 452.22L431.22 548.52L431.22 548.52L44.94 548.52z" /></clipPath><clipPath id="11"><path id="" clip-rule="evenodd" transform="matrix(1 0 0 1 0 0)" d="M0 0.02001953L595.2 0.02001953L595.2 0.02001953L595.2 842L595.2 842L0 842z" /></clipPath></defs><g transform="matrix(1.333333 0 0 1.333333 0 0)"><g clip-path="url(#1)"><g clip-path="url(#2)"><g clip-path="url(#3)"><path id="367" transform="matrix(1 0 0 -1 0 842)" d="M225.96 724.94L558.48 724.94L558.48 477.8L225.96 477.8" stroke="none" fill="#FFFFFF" fill-rule="nonzero" /></g></g><g clip-path="url(#4)"><g clip-path="url(#5)"><g clip-path="url(#6)"><g transform="matrix(0.4800952 0 0 0.4798835 225.96 117.06)"><g transform="matrix(1 0 0 1 0 0)"><image x="0" y="0" xlink:href="img_521.png" width="693" height="515" /></g></g></g></g></g><g clip-path="url(#7)"><g clip-path="url(#8)"><path id="412" transform="matrix(1 0 0 -1 0 842)" d="M45.96 294.44L430.2 294.44L430.2 388.76L45.96 388.76z" stroke="none" fill="#FFFFFF" fill-rule="nonzero" /></g></g><g clip-path="url(#9)"><g clip-path="url(#10)"><g clip-path="url(#11)"><g transform="matrix(0.48 0 0 0.4787817 45.96 453.24)"><g transform="matrix(1 0 0 1 0 0)"><image x="0" y="0" xlink:href="img_522.png" width="801" height="197" /></g></g></g></g></g></g></g></svg>