<svg xmlns="http://www.w3.org/2000/svg" xmlns:xlink="http://www.w3.org/1999/xlink" id="body_71" preserveAspectRatio="xMinYMin meet" viewBox="0 0 793 1123"><defs><clipPath id="1"><path id="" clip-rule="evenodd" transform="matrix(1 0 0 1 0 0)" d="M0 842L0 0L0 0L595 0L595 0L595 842L595 842L0 842z" /></clipPath><clipPath id="2"><path id="" clip-rule="evenodd" transform="matrix(1 0 0 1 0 0)" d="M224.94 158.04L545.94 158.04L545.94 158.04L545.94 428.82L545.94 428.82L224.94 428.82z" /></clipPath><clipPath id="3"><path id="" clip-rule="evenodd" transform="matrix(1 0 0 1 0 0)" d="M0 0.02001953L595.2 0.02001953L595.2 0.02001953L595.2 842L595.2 842L0 842z" /></clipPath><clipPath id="4"><path id="" clip-rule="evenodd" transform="matrix(1 0 0 1 0 0)" d="M225.96 159.06L544.92 159.06L544.92 159.06L544.92 427.86L544.92 427.86L225.96 427.86z" /></clipPath><clipPath id="5"><path id="" clip-rule="evenodd" transform="matrix(1 0 0 1 0 0)" d="M224.94 158.04L545.94 158.04L545.94 158.04L545.94 428.82L545.94 428.82L224.94 428.82z" /></clipPath><clipPath id="6"><path id="" clip-rule="evenodd" transform="matrix(1 0 0 1 0 0)" d="M0 0.02001953L595.2 0.02001953L595.2 0.02001953L595.2 842L595.2 842L0 842z" /></clipPath><clipPath id="7"><path id="" clip-rule="evenodd" transform="matrix(1 0 0 1 0 0)" d="M211.92 642.9L223.68 642.9L223.68 642.9L223.68 654.72L223.68 654.72L211.92 654.72z" /></clipPath><clipPath id="8"><path id="" clip-rule="evenodd" transform="matrix(1 0 0 1 0 0)" d="M0 0.02001953L595.2 0.02001953L595.2 0.02001953L595.2 842L595.2 842L0 842z" /></clipPath><clipPath id="9"><path id="" clip-rule="evenodd" transform="matrix(1 0 0 1 0 0)" d="M212.88 643.92L222.72 643.92L222.72 643.92L222.72 653.76L222.72 653.76L212.88 653.76z" /></clipPath><clipPath id="10"><path id="" clip-rule="evenodd" transform="matrix(1 0 0 1 0 0)" d="M211.92 642.9L223.68 642.9L223.68 642.9L223.68 654.72L223.68 654.72L211.92 654.72z" /></clipPath><clipPath id="11"><path id="" clip-rule="evenodd" transform="matrix(1 0 0 1 0 0)" d="M0 0.02001953L595.2 0.02001953L595.2 0.02001953L595.2 842L595.2 842L0 842z" /></clipPath><clipPath id="12"><path id="" clip-rule="evenodd" transform="matrix(1 0 0 1 0 0)" d="M176.52 656.16L188.4 656.16L188.4 656.16L188.4 668.7L188.4 668.7L176.52 668.7z" /></clipPath><clipPath id="13"><path id="" clip-rule="evenodd" transform="matrix(1 0 0 1 0 0)" d="M0 0.02001953L595.2 0.02001953L595.2 0.02001953L595.2 842L595.2 842L0 842z" /></clipPath><clipPath id="14"><path id="" clip-rule="evenodd" transform="matrix(1 0 0 1 0 0)" d="M177.54 657.18L187.38 657.18L187.38 657.18L187.38 667.74L187.38 667.74L177.54 667.74z" /></clipPath><clipPath id="15"><path id="" clip-rule="evenodd" transform="matrix(1 0 0 1 0 0)" d="M176.52 656.16L188.4 656.16L188.4 656.16L188.4 668.7L188.4 668.7L176.52 668.7z" /></clipPath><clipPath id="16"><path id="" clip-rule="evenodd" transform="matrix(1 0 0 1 0 0)" d="M0 0.02001953L595.2 0.02001953L595.2 0.02001953L595.2 842L595.2 842L0 842z" /></clipPath><clipPath id="17"><path id="" clip-rule="evenodd" transform="matrix(1 0 0 1 0 0)" d="M164.46 670.2L176.34 670.2L176.34 670.2L176.34 682.74L176.34 682.74L164.46 682.74z" /></clipPath><clipPath id="18"><path id="" clip-rule="evenodd" transform="matrix(1 0 0 1 0 0)" d="M0 0.02001953L595.2 0.02001953L595.2 0.02001953L595.2 842L595.2 842L0 842z" /></clipPath><clipPath id="19"><path id="" clip-rule="evenodd" transform="matrix(1 0 0 1 0 0)" d="M165.48 671.16L175.32 671.16L175.32 671.16L175.32 681.72L175.32 681.72L165.48 681.72z" /></clipPath><clipPath id="20"><path id="" clip-rule="evenodd" transform="matrix(1 0 0 1 0 0)" d="M164.46 670.2L176.34 670.2L176.34 670.2L176.34 682.74L176.34 682.74L164.46 682.74z" /></clipPath><clipPath id="21"><path id="" clip-rule="evenodd" transform="matrix(1 0 0 1 0 0)" d="M0 0.02001953L595.2 0.02001953L595.2 0.02001953L595.2 842L595.2 842L0 842z" /></clipPath><clipPath id="22"><path id="" clip-rule="evenodd" transform="matrix(1 0 0 1 0 0)" d="M183.06 683.04L194.94 683.04L194.94 683.04L194.94 694.86L194.94 694.86L183.06 694.86z" /></clipPath><clipPath id="23"><path id="" clip-rule="evenodd" transform="matrix(1 0 0 1 0 0)" d="M0 0.02001953L595.2 0.02001953L595.2 0.02001953L595.2 842L595.2 842L0 842z" /></clipPath><clipPath id="24"><path id="" clip-rule="evenodd" transform="matrix(1 0 0 1 0 0)" d="M184.08 685.92L193.92 685.92L193.92 685.92L193.92 695.76L193.92 695.76L184.08 695.76z" /></clipPath><clipPath id="25"><path id="" clip-rule="evenodd" transform="matrix(1 0 0 1 0 0)" d="M183.06 683.04L194.94 683.04L194.94 683.04L194.94 694.86L194.94 694.86L183.06 694.86z" /></clipPath><clipPath id="26"><path id="" clip-rule="evenodd" transform="matrix(1 0 0 1 0 0)" d="M0 0.02001953L595.2 0.02001953L595.2 0.02001953L595.2 842L595.2 842L0 842z" /></clipPath><clipPath id="27"><path id="" clip-rule="evenodd" transform="matrix(1 0 0 1 0 0)" d="M192.84 698.88L204.66 698.88L204.66 698.88L204.66 710.76L204.66 710.76L192.84 710.76z" /></clipPath><clipPath id="28"><path id="" clip-rule="evenodd" transform="matrix(1 0 0 1 0 0)" d="M0 0.02001953L595.2 0.02001953L595.2 0.02001953L595.2 842L595.2 842L0 842z" /></clipPath><clipPath id="29"><path id="" clip-rule="evenodd" transform="matrix(1 0 0 1 0 0)" d="M193.86 699.9L203.7 699.9L203.7 699.9L203.7 709.74L203.7 709.74L193.86 709.74z" /></clipPath><clipPath id="30"><path id="" clip-rule="evenodd" transform="matrix(1 0 0 1 0 0)" d="M192.84 698.88L204.66 698.88L204.66 698.88L204.66 710.76L204.66 710.76L192.84 710.76z" /></clipPath><clipPath id="31"><path id="" clip-rule="evenodd" transform="matrix(1 0 0 1 0 0)" d="M0 0.02001953L595.2 0.02001953L595.2 0.02001953L595.2 842L595.2 842L0 842z" /></clipPath><clipPath id="32"><path id="" clip-rule="evenodd" transform="matrix(1 0 0 1 0 0)" d="M174.06 712.92L185.94 712.92L185.94 712.92L185.94 724.74L185.94 724.74L174.06 724.74z" /></clipPath><clipPath id="33"><path id="" clip-rule="evenodd" transform="matrix(1 0 0 1 0 0)" d="M0 0.02001953L595.2 0.02001953L595.2 0.02001953L595.2 842L595.2 842L0 842z" /></clipPath><clipPath id="34"><path id="" clip-rule="evenodd" transform="matrix(1 0 0 1 0 0)" d="M175.08 713.88L184.92 713.88L184.92 713.88L184.92 723.72L184.92 723.72L175.08 723.72z" /></clipPath><clipPath id="35"><path id="" clip-rule="evenodd" transform="matrix(1 0 0 1 0 0)" d="M174.06 712.92L185.94 712.92L185.94 712.92L185.94 724.74L185.94 724.74L174.06 724.74z" /></clipPath><clipPath id="36"><path id="" clip-rule="evenodd" transform="matrix(1 0 0 1 0 0)" d="M0 0.02001953L595.2 0.02001953L595.2 0.02001953L595.2 842L595.2 842L0 842z" /></clipPath><clipPath id="37"><path id="" clip-rule="evenodd" transform="matrix(1 0 0 1 0 0)" d="M202.86 726.9L214.74 726.9L214.74 726.9L214.74 738.72L214.74 738.72L202.86 738.72z" /></clipPath><clipPath id="38"><path id="" clip-rule="evenodd" transform="matrix(1 0 0 1 0 0)" d="M0 0.02001953L595.2 0.02001953L595.2 0.02001953L595.2 842L595.2 842L0 842z" /></clipPath><clipPath id="39"><path id="" clip-rule="evenodd" transform="matrix(1 0 0 1 0 0)" d="M203.88 727.92L213.72 727.92L213.72 727.92L213.72 737.76L213.72 737.76L203.88 737.76z" /></clipPath><clipPath id="40"><path id="" clip-rule="evenodd" transform="matrix(1 0 0 1 0 0)" d="M202.86 726.9L214.74 726.9L214.74 726.9L214.74 738.72L214.74 738.72L202.86 738.72z" /></clipPath><clipPath id="41"><path id="" clip-rule="evenodd" transform="matrix(1 0 0 1 0 0)" d="M0 0.02001953L595.2 0.02001953L595.2 0.02001953L595.2 842L595.2 842L0 842z" /></clipPath><clipPath id="42"><path id="" clip-rule="evenodd" transform="matrix(1 0 0 1 0 0)" d="M201.3 740.88L213.18 740.88L213.18 740.88L213.18 752.76L213.18 752.76L201.3 752.76z" /></clipPath><clipPath id="43"><path id="" clip-rule="evenodd" transform="matrix(1 0 0 1 0 0)" d="M0 0.02001953L595.2 0.02001953L595.2 0.02001953L595.2 842L595.2 842L0 842z" /></clipPath><clipPath id="44"><path id="" clip-rule="evenodd" transform="matrix(1 0 0 1 0 0)" d="M202.32 741.9L212.16 741.9L212.16 741.9L212.16 751.74L212.16 751.74L202.32 751.74z" /></clipPath><clipPath id="45"><path id="" clip-rule="evenodd" transform="matrix(1 0 0 1 0 0)" d="M201.3 740.88L213.18 740.88L213.18 740.88L213.18 752.76L213.18 752.76L201.3 752.76z" /></clipPath><clipPath id="46"><path id="" clip-rule="evenodd" transform="matrix(1 0 0 1 0 0)" d="M0 0.02001953L595.2 0.02001953L595.2 0.02001953L595.2 842L595.2 842L0 842z" /></clipPath></defs><g transform="matrix(1.333333 0 0 1.333333 0 0)"><g clip-path="url(#1)"><g clip-path="url(#2)"><g clip-path="url(#3)"><path id="353" transform="matrix(1 0 0 -1 0 842)" d="M225.96 682.94L544.92 682.94L544.92 414.14L225.96 414.14" stroke="none" fill="#FFFFFF" fill-rule="nonzero" /></g></g><g clip-path="url(#4)"><g clip-path="url(#5)"><g clip-path="url(#6)"><g transform="matrix(0.48 0 0 0.48 225.96 159.06)"><g transform="matrix(1 0 0 1 0 0)"><image x="0" y="0" xlink:href="img_165.png" width="665" height="560" /></g></g></g></g></g><path id="355" transform="matrix(1 0 0 -1 0 842)" d="M44.94 321.14L123.06 321.14L123.06 339.14L44.94 339.14z" stroke="none" fill="#C4DFF7" fill-rule="nonzero" /><path id="365" transform="matrix(1 0 0 -1 0 842)" d="M123.06 339.14L558 339.14L558 321.14L123.06 321.14" stroke="none" fill="#C4DFF7" fill-rule="nonzero" /><path id="764" transform="matrix(1 0 0 -1 0 842)" d="M44.94 300.92L558 300.92L558 301.4L44.94 301.4z" stroke="none" fill="#000000" fill-rule="nonzero" /><path id="765" transform="matrix(1 0 0 -1 0 842)" d="M44.94 282.92L558 282.92L558 283.4L44.94 283.4z" stroke="none" fill="#000000" fill-rule="nonzero" /><path id="766" transform="matrix(1 0 0 -1 0 842)" d="M44.94 262.88L558 262.88L558 263.36L44.94 263.36z" stroke="none" fill="#000000" fill-rule="nonzero" /><path id="767" transform="matrix(1 0 0 -1 0 842)" d="M44.94 242.9L558 242.9L558 243.38L44.94 243.38z" stroke="none" fill="#000000" fill-rule="nonzero" /><path id="768" transform="matrix(1 0 0 -1 0 842)" d="M44.94 82.34L558 82.34L558 83.84L44.94 83.84z" stroke="none" fill="#000000" fill-rule="nonzero" /><g clip-path="url(#7)"><g clip-path="url(#8)"><path id="769" transform="matrix(1 0 0 -1 0 842)" d="M212.88 188.24L222.72 188.24L222.72 198.08L212.88 198.08z" stroke="none" fill="#FFFFFF" fill-rule="nonzero" /></g></g><g clip-path="url(#9)"><g clip-path="url(#10)"><g clip-path="url(#11)"><g transform="matrix(0.48 0 0 0.4685715 212.88 643.92)"><g transform="matrix(1 0 0 1 0 0)"><image x="0" y="0" xlink:href="img_166.png" width="21" height="21" /></g></g></g></g></g><g clip-path="url(#12)"><g clip-path="url(#13)"><path id="771" transform="matrix(1 0 0 -1 0 842)" d="M177.54 174.26L187.38 174.26L187.38 184.82L177.54 184.82z" stroke="none" fill="#FFFFFF" fill-rule="nonzero" /></g></g><g clip-path="url(#14)"><g clip-path="url(#15)"><g clip-path="url(#16)"><g transform="matrix(0.48 0 0 0.48 177.54 657.18)"><g transform="matrix(1 0 0 1 0 0)"><image x="0" y="0" xlink:href="img_167.png" width="21" height="22" /></g></g></g></g></g><g clip-path="url(#17)"><g clip-path="url(#18)"><path id="773" transform="matrix(1 0 0 -1 0 842)" d="M165.48 160.28L175.32 160.28L175.32 170.84L165.48 170.84z" stroke="none" fill="#FFFFFF" fill-rule="nonzero" /></g></g><g clip-path="url(#19)"><g clip-path="url(#20)"><g clip-path="url(#21)"><g transform="matrix(0.48 0 0 0.48 165.48 671.16)"><g transform="matrix(1 0 0 1 0 0)"><image x="0" y="0" xlink:href="img_168.png" width="21" height="22" /></g></g></g></g></g><g clip-path="url(#22)"><g clip-path="url(#23)"><path id="775" transform="matrix(1 0 0 -1 0 842)" d="M184.08 147.12L193.92 147.12L193.92 156.0804L184.08 156.0804z" stroke="none" fill="#FFFFFF" fill-rule="nonzero" /></g></g><g clip-path="url(#24)"><g clip-path="url(#25)"><g clip-path="url(#26)"><g transform="matrix(0.48 0 0 0.4685715 184.08 685.92)"><g transform="matrix(1 0 0 1 0 0)"><image x="0" y="0" xlink:href="img_169.png" width="21" height="21" /></g></g></g></g></g><g clip-path="url(#27)"><g clip-path="url(#28)"><path id="777" transform="matrix(1 0 0 -1 0 842)" d="M193.86 132.26L203.7 132.26L203.7 142.1L193.86 142.1z" stroke="none" fill="#FFFFFF" fill-rule="nonzero" /></g></g><g clip-path="url(#29)"><g clip-path="url(#30)"><g clip-path="url(#31)"><g transform="matrix(0.48 0 0 0.4685715 193.86 699.9)"><g transform="matrix(1 0 0 1 0 0)"><image x="0" y="0" xlink:href="img_170.png" width="21" height="21" /></g></g></g></g></g><g clip-path="url(#32)"><g clip-path="url(#33)"><path id="779" transform="matrix(1 0 0 -1 0 842)" d="M175.08 118.28L184.92 118.28L184.92 128.12L175.08 128.12z" stroke="none" fill="#FFFFFF" fill-rule="nonzero" /></g></g><g clip-path="url(#34)"><g clip-path="url(#35)"><g clip-path="url(#36)"><g transform="matrix(0.48 0 0 0.4685715 175.08 713.88)"><g transform="matrix(1 0 0 1 0 0)"><image x="0" y="0" xlink:href="img_171.png" width="21" height="21" /></g></g></g></g></g><g clip-path="url(#37)"><g clip-path="url(#38)"><path id="781" transform="matrix(1 0 0 -1 0 842)" d="M203.88 104.24L213.72 104.24L213.72 114.08L203.88 114.08z" stroke="none" fill="#FFFFFF" fill-rule="nonzero" /></g></g><g clip-path="url(#39)"><g clip-path="url(#40)"><g clip-path="url(#41)"><g transform="matrix(0.48 0 0 0.4685715 203.88 727.92)"><g transform="matrix(1 0 0 1 0 0)"><image x="0" y="0" xlink:href="img_172.png" width="21" height="21" /></g></g></g></g></g><g clip-path="url(#42)"><g clip-path="url(#43)"><path id="783" transform="matrix(1 0 0 -1 0 842)" d="M202.32 90.26L212.16 90.26L212.16 100.1L202.32 100.1z" stroke="none" fill="#FFFFFF" fill-rule="nonzero" /></g></g><g clip-path="url(#44)"><g clip-path="url(#45)"><g clip-path="url(#46)"><g transform="matrix(0.48 0 0 0.4685715 202.32 741.9)"><g transform="matrix(1 0 0 1 0 0)"><image x="0" y="0" xlink:href="img_173.png" width="21" height="21" /></g></g></g></g></g></g></g></svg>