<svg xmlns="http://www.w3.org/2000/svg" xmlns:xlink="http://www.w3.org/1999/xlink" id="body_153" preserveAspectRatio="xMinYMin meet" viewBox="0 0 793 1123"><defs><clipPath id="1"><path id="" clip-rule="evenodd" transform="matrix(1 0 0 1 0 0)" d="M0 842L0 0L0 0L595 0L595 0L595 842L595 842L0 842z" /></clipPath><clipPath id="2"><path id="" clip-rule="evenodd" transform="matrix(1 0 0 1 0 0)" d="M224.94 397.02L555.66 397.02L555.66 397.02L555.66 600.78L555.66 600.78L224.94 600.78z" /></clipPath><clipPath id="3"><path id="" clip-rule="evenodd" transform="matrix(1 0 0 1 0 0)" d="M0 0.02001953L595.2 0.02001953L595.2 0.02001953L595.2 842L595.2 842L0 842z" /></clipPath><clipPath id="4"><path id="" clip-rule="evenodd" transform="matrix(1 0 0 1 0 0)" d="M302.52 398.04L459.6 398.04L459.6 398.04L459.6 599.76L459.6 599.76L302.52 599.76z" /></clipPath><clipPath id="5"><path id="" clip-rule="evenodd" transform="matrix(1 0 0 1 0 0)" d="M224.94 397.02L555.66 397.02L555.66 397.02L555.66 600.78L555.66 600.78L224.94 600.78z" /></clipPath><clipPath id="6"><path id="" clip-rule="evenodd" transform="matrix(1 0 0 1 0 0)" d="M0 0.02001953L595.2 0.02001953L595.2 0.02001953L595.2 842L595.2 842L0 842z" /></clipPath><clipPath id="7"><path id="" clip-rule="evenodd" transform="matrix(1 0 0 1 0 0)" d="M224.94 397.02L555.66 397.02L555.66 397.02L555.66 600.78L555.66 600.78L224.94 600.78z" /></clipPath><clipPath id="8"><path id="" clip-rule="evenodd" transform="matrix(1 0 0 1 0 0)" d="M0 0.02001953L595.2 0.02001953L595.2 0.02001953L595.2 842L595.2 842L0 842z" /></clipPath></defs><g transform="matrix(1.333333 0 0 1.333333 0 0)"><g clip-path="url(#1)"><g clip-path="url(#2)"><g clip-path="url(#3)"><path id="1032" transform="matrix(1 0 0 -1 0 842)" d="M302.52 242.24L459.6 242.24L459.6 443.96L302.52 443.96z" stroke="none" fill="#FFFFFF" fill-rule="nonzero" /></g></g><g clip-path="url(#4)"><g clip-path="url(#5)"><g clip-path="url(#6)"><g transform="matrix(0.4796006 0 0 0.4791449 302.52 398.04)"><g transform="matrix(1 0 0 1 0 0)"><image x="0" y="0" xlink:href="img_383.png" width="328" height="421" /></g></g></g></g></g><g clip-path="url(#7)"><g clip-path="url(#8)"><path id="1051" transform="matrix(1 0 0 -1 0 842)" d="M284.88 410.54L285.36 410.54L285.36 411.56L284.88 411.56z" stroke="none" fill="#000000" fill-rule="nonzero" /><path id="1052" transform="matrix(1 0 0 -1 0 842)" d="M285.36 410.54L311.04 410.54L311.04 411.56L285.36 411.56z" stroke="none" fill="#000000" fill-rule="nonzero" /><path id="1066" transform="matrix(1 0 0 -1 0 842)" d="M284.88 382.1L285.36 382.1L285.36 383.12L284.88 383.12z" stroke="none" fill="#000000" fill-rule="nonzero" /><path id="1067" transform="matrix(1 0 0 -1 0 842)" d="M285.36 382.1L311.04 382.1L311.04 383.12L285.36 383.12z" stroke="none" fill="#000000" fill-rule="nonzero" /><path id="1068" transform="matrix(1 0 0 -1 0 842)" d="M475.02 272.54L475.5 272.54L475.5 273.56L475.02 273.56z" stroke="none" fill="#000000" fill-rule="nonzero" /><path id="1069" transform="matrix(1 0 0 -1 0 842)" d="M438.12 272.54L475.02 272.54L475.02 273.56L438.12 273.56z" stroke="none" fill="#000000" fill-rule="nonzero" /><path id="1079" transform="matrix(1 0 0 -1 0 842)" d="M475.02 422.96L475.5 422.96L475.5 423.98L475.02 423.98z" stroke="none" fill="#000000" fill-rule="nonzero" /><path id="1080" transform="matrix(1 0 0 -1 0 842)" d="M454.92 423.2L455.4 423.2L455.4 424.22L454.92 424.22z" stroke="none" fill="#000000" fill-rule="nonzero" /><path id="1081" transform="matrix(1 0 0 -1 0 842)" d="M475.02 422.96L475.02 423.98L455.4 424.22L455.4 423.2" stroke="none" fill="#000000" fill-rule="nonzero" /></g></g></g></g></svg>