<svg xmlns="http://www.w3.org/2000/svg" xmlns:xlink="http://www.w3.org/1999/xlink" id="body_53" preserveAspectRatio="xMinYMin meet" viewBox="0 0 793 1123"><defs><clipPath id="1"><path id="" clip-rule="evenodd" transform="matrix(1 0 0 1 0 0)" d="M0 842L0 0L0 0L595 0L595 0L595 842L595 842L0 842z" /></clipPath><clipPath id="2"><path id="" clip-rule="evenodd" transform="matrix(1 0 0 1 0 0)" d="M224.94 198.06L243.54 198.06L243.54 198.06L243.54 215.88L243.54 215.88L224.94 215.88z" /></clipPath><clipPath id="3"><path id="" clip-rule="evenodd" transform="matrix(1 0 0 1 0 0)" d="M0 0.02001953L595.2 0.02001953L595.2 0.02001953L595.2 842L595.2 842L0 842z" /></clipPath><clipPath id="4"><path id="" clip-rule="evenodd" transform="matrix(1 0 0 1 0 0)" d="M225.96 199.02L242.52 199.02L242.52 199.02L242.52 214.86L242.52 214.86L225.96 214.86z" /></clipPath><clipPath id="5"><path id="" clip-rule="evenodd" transform="matrix(1 0 0 1 0 0)" d="M224.94 198.06L243.54 198.06L243.54 198.06L243.54 215.88L243.54 215.88L224.94 215.88z" /></clipPath><clipPath id="6"><path id="" clip-rule="evenodd" transform="matrix(1 0 0 1 0 0)" d="M0 0.02001953L595.2 0.02001953L595.2 0.02001953L595.2 842L595.2 842L0 842z" /></clipPath><clipPath id="7"><path id="" clip-rule="evenodd" transform="matrix(1 0 0 1 0 0)" d="M224.94 225.9L243.54 225.9L243.54 225.9L243.54 243.72L243.54 243.72L224.94 243.72z" /></clipPath><clipPath id="8"><path id="" clip-rule="evenodd" transform="matrix(1 0 0 1 0 0)" d="M0 0.02001953L595.2 0.02001953L595.2 0.02001953L595.2 842L595.2 842L0 842z" /></clipPath><clipPath id="9"><path id="" clip-rule="evenodd" transform="matrix(1 0 0 1 0 0)" d="M225.96 226.92L242.52 226.92L242.52 226.92L242.52 242.76L242.52 242.76L225.96 242.76z" /></clipPath><clipPath id="10"><path id="" clip-rule="evenodd" transform="matrix(1 0 0 1 0 0)" d="M224.94 225.9L243.54 225.9L243.54 225.9L243.54 243.72L243.54 243.72L224.94 243.72z" /></clipPath><clipPath id="11"><path id="" clip-rule="evenodd" transform="matrix(1 0 0 1 0 0)" d="M0 0.02001953L595.2 0.02001953L595.2 0.02001953L595.2 842L595.2 842L0 842z" /></clipPath><clipPath id="12"><path id="" clip-rule="evenodd" transform="matrix(1 0 0 1 0 0)" d="M224.94 253.74L243.54 253.74L243.54 253.74L243.54 271.62L243.54 271.62L224.94 271.62z" /></clipPath><clipPath id="13"><path id="" clip-rule="evenodd" transform="matrix(1 0 0 1 0 0)" d="M0 0.02001953L595.2 0.02001953L595.2 0.02001953L595.2 842L595.2 842L0 842z" /></clipPath><clipPath id="14"><path id="" clip-rule="evenodd" transform="matrix(1 0 0 1 0 0)" d="M225.96 254.76L242.52 254.76L242.52 254.76L242.52 270.6L242.52 270.6L225.96 270.6z" /></clipPath><clipPath id="15"><path id="" clip-rule="evenodd" transform="matrix(1 0 0 1 0 0)" d="M224.94 253.74L243.54 253.74L243.54 253.74L243.54 271.62L243.54 271.62L224.94 271.62z" /></clipPath><clipPath id="16"><path id="" clip-rule="evenodd" transform="matrix(1 0 0 1 0 0)" d="M0 0.02001953L595.2 0.02001953L595.2 0.02001953L595.2 842L595.2 842L0 842z" /></clipPath><clipPath id="17"><path id="" clip-rule="evenodd" transform="matrix(1 0 0 1 0 0)" d="M224.94 281.58L243.54 281.58L243.54 281.58L243.54 299.46L243.54 299.46L224.94 299.46z" /></clipPath><clipPath id="18"><path id="" clip-rule="evenodd" transform="matrix(1 0 0 1 0 0)" d="M0 0.02001953L595.2 0.02001953L595.2 0.02001953L595.2 842L595.2 842L0 842z" /></clipPath><clipPath id="19"><path id="" clip-rule="evenodd" transform="matrix(1 0 0 1 0 0)" d="M225.96 282.6L242.52 282.6L242.52 282.6L242.52 298.44L242.52 298.44L225.96 298.44z" /></clipPath><clipPath id="20"><path id="" clip-rule="evenodd" transform="matrix(1 0 0 1 0 0)" d="M224.94 281.58L243.54 281.58L243.54 281.58L243.54 299.46L243.54 299.46L224.94 299.46z" /></clipPath><clipPath id="21"><path id="" clip-rule="evenodd" transform="matrix(1 0 0 1 0 0)" d="M0 0.02001953L595.2 0.02001953L595.2 0.02001953L595.2 842L595.2 842L0 842z" /></clipPath><clipPath id="22"><path id="" clip-rule="evenodd" transform="matrix(1 0 0 1 0 0)" d="M224.94 309.48L243.54 309.48L243.54 309.48L243.54 327.3L243.54 327.3L224.94 327.3z" /></clipPath><clipPath id="23"><path id="" clip-rule="evenodd" transform="matrix(1 0 0 1 0 0)" d="M0 0.02001953L595.2 0.02001953L595.2 0.02001953L595.2 842L595.2 842L0 842z" /></clipPath><clipPath id="24"><path id="" clip-rule="evenodd" transform="matrix(1 0 0 1 0 0)" d="M225.96 310.44L242.52 310.44L242.52 310.44L242.52 326.28L242.52 326.28L225.96 326.28z" /></clipPath><clipPath id="25"><path id="" clip-rule="evenodd" transform="matrix(1 0 0 1 0 0)" d="M224.94 309.48L243.54 309.48L243.54 309.48L243.54 327.3L243.54 327.3L224.94 327.3z" /></clipPath><clipPath id="26"><path id="" clip-rule="evenodd" transform="matrix(1 0 0 1 0 0)" d="M0 0.02001953L595.2 0.02001953L595.2 0.02001953L595.2 842L595.2 842L0 842z" /></clipPath><clipPath id="27"><path id="" clip-rule="evenodd" transform="matrix(1 0 0 1 0 0)" d="M224.94 343.44L243.54 343.44L243.54 343.44L243.54 361.32L243.54 361.32L224.94 361.32z" /></clipPath><clipPath id="28"><path id="" clip-rule="evenodd" transform="matrix(1 0 0 1 0 0)" d="M0 0.02001953L595.2 0.02001953L595.2 0.02001953L595.2 842L595.2 842L0 842z" /></clipPath><clipPath id="29"><path id="" clip-rule="evenodd" transform="matrix(1 0 0 1 0 0)" d="M225.96 344.46L242.52 344.46L242.52 344.46L242.52 360.3L242.52 360.3L225.96 360.3z" /></clipPath><clipPath id="30"><path id="" clip-rule="evenodd" transform="matrix(1 0 0 1 0 0)" d="M224.94 343.44L243.54 343.44L243.54 343.44L243.54 361.32L243.54 361.32L224.94 361.32z" /></clipPath><clipPath id="31"><path id="" clip-rule="evenodd" transform="matrix(1 0 0 1 0 0)" d="M0 0.02001953L595.2 0.02001953L595.2 0.02001953L595.2 842L595.2 842L0 842z" /></clipPath><clipPath id="32"><path id="" clip-rule="evenodd" transform="matrix(1 0 0 1 0 0)" d="M224.94 371.34L241.8 371.34L241.8 371.34L241.8 388.92L241.8 388.92L224.94 388.92z" /></clipPath><clipPath id="33"><path id="" clip-rule="evenodd" transform="matrix(1 0 0 1 0 0)" d="M0 0.02001953L595.2 0.02001953L595.2 0.02001953L595.2 842L595.2 842L0 842z" /></clipPath><clipPath id="34"><path id="" clip-rule="evenodd" transform="matrix(1 0 0 1 0 0)" d="M225.96 372.3L242.52 372.3L242.52 372.3L242.52 388.14L242.52 388.14L225.96 388.14z" /></clipPath><clipPath id="35"><path id="" clip-rule="evenodd" transform="matrix(1 0 0 1 0 0)" d="M224.94 371.34L241.8 371.34L241.8 371.34L241.8 388.92L241.8 388.92L224.94 388.92z" /></clipPath><clipPath id="36"><path id="" clip-rule="evenodd" transform="matrix(1 0 0 1 0 0)" d="M0 0.02001953L595.2 0.02001953L595.2 0.02001953L595.2 842L595.2 842L0 842z" /></clipPath><clipPath id="37"><path id="" clip-rule="evenodd" transform="matrix(1 0 0 1 0 0)" d="M224.94 398.88L243.54 398.88L243.54 398.88L243.54 416.76L243.54 416.76L224.94 416.76z" /></clipPath><clipPath id="38"><path id="" clip-rule="evenodd" transform="matrix(1 0 0 1 0 0)" d="M0 0.02001953L595.2 0.02001953L595.2 0.02001953L595.2 842L595.2 842L0 842z" /></clipPath><clipPath id="39"><path id="" clip-rule="evenodd" transform="matrix(1 0 0 1 0 0)" d="M225.96 399.9L242.52 399.9L242.52 399.9L242.52 415.74L242.52 415.74L225.96 415.74z" /></clipPath><clipPath id="40"><path id="" clip-rule="evenodd" transform="matrix(1 0 0 1 0 0)" d="M224.94 398.88L243.54 398.88L243.54 398.88L243.54 416.76L243.54 416.76L224.94 416.76z" /></clipPath><clipPath id="41"><path id="" clip-rule="evenodd" transform="matrix(1 0 0 1 0 0)" d="M0 0.02001953L595.2 0.02001953L595.2 0.02001953L595.2 842L595.2 842L0 842z" /></clipPath><clipPath id="42"><path id="" clip-rule="evenodd" transform="matrix(1 0 0 1 0 0)" d="M224.94 426.72L243.54 426.72L243.54 426.72L243.54 444.6L243.54 444.6L224.94 444.6z" /></clipPath><clipPath id="43"><path id="" clip-rule="evenodd" transform="matrix(1 0 0 1 0 0)" d="M0 0.02001953L595.2 0.02001953L595.2 0.02001953L595.2 842L595.2 842L0 842z" /></clipPath><clipPath id="44"><path id="" clip-rule="evenodd" transform="matrix(1 0 0 1 0 0)" d="M225.96 427.74L242.52 427.74L242.52 427.74L242.52 443.58L242.52 443.58L225.96 443.58z" /></clipPath><clipPath id="45"><path id="" clip-rule="evenodd" transform="matrix(1 0 0 1 0 0)" d="M224.94 426.72L243.54 426.72L243.54 426.72L243.54 444.6L243.54 444.6L224.94 444.6z" /></clipPath><clipPath id="46"><path id="" clip-rule="evenodd" transform="matrix(1 0 0 1 0 0)" d="M0 0.02001953L595.2 0.02001953L595.2 0.02001953L595.2 842L595.2 842L0 842z" /></clipPath><clipPath id="47"><path id="" clip-rule="evenodd" transform="matrix(1 0 0 1 0 0)" d="M224.94 454.62L243.54 454.62L243.54 454.62L243.54 472.44L243.54 472.44L224.94 472.44z" /></clipPath><clipPath id="48"><path id="" clip-rule="evenodd" transform="matrix(1 0 0 1 0 0)" d="M0 0.02001953L595.2 0.02001953L595.2 0.02001953L595.2 842L595.2 842L0 842z" /></clipPath><clipPath id="49"><path id="" clip-rule="evenodd" transform="matrix(1 0 0 1 0 0)" d="M225.96 455.58L242.52 455.58L242.52 455.58L242.52 471.42L242.52 471.42L225.96 471.42z" /></clipPath><clipPath id="50"><path id="" clip-rule="evenodd" transform="matrix(1 0 0 1 0 0)" d="M224.94 454.62L243.54 454.62L243.54 454.62L243.54 472.44L243.54 472.44L224.94 472.44z" /></clipPath><clipPath id="51"><path id="" clip-rule="evenodd" transform="matrix(1 0 0 1 0 0)" d="M0 0.02001953L595.2 0.02001953L595.2 0.02001953L595.2 842L595.2 842L0 842z" /></clipPath><clipPath id="52"><path id="" clip-rule="evenodd" transform="matrix(1 0 0 1 0 0)" d="M224.94 482.46L243.54 482.46L243.54 482.46L243.54 500.34L243.54 500.34L224.94 500.34z" /></clipPath><clipPath id="53"><path id="" clip-rule="evenodd" transform="matrix(1 0 0 1 0 0)" d="M0 0.02001953L595.2 0.02001953L595.2 0.02001953L595.2 842L595.2 842L0 842z" /></clipPath><clipPath id="54"><path id="" clip-rule="evenodd" transform="matrix(1 0 0 1 0 0)" d="M225.96 483.48L242.52 483.48L242.52 483.48L242.52 499.32L242.52 499.32L225.96 499.32z" /></clipPath><clipPath id="55"><path id="" clip-rule="evenodd" transform="matrix(1 0 0 1 0 0)" d="M224.94 482.46L243.54 482.46L243.54 482.46L243.54 500.34L243.54 500.34L224.94 500.34z" /></clipPath><clipPath id="56"><path id="" clip-rule="evenodd" transform="matrix(1 0 0 1 0 0)" d="M0 0.02001953L595.2 0.02001953L595.2 0.02001953L595.2 842L595.2 842L0 842z" /></clipPath><clipPath id="57"><path id="" clip-rule="evenodd" transform="matrix(1 0 0 1 0 0)" d="M224.94 530.46L243.54 530.46L243.54 530.46L243.54 548.34L243.54 548.34L224.94 548.34z" /></clipPath><clipPath id="58"><path id="" clip-rule="evenodd" transform="matrix(1 0 0 1 0 0)" d="M0 0.02001953L595.2 0.02001953L595.2 0.02001953L595.2 842L595.2 842L0 842z" /></clipPath><clipPath id="59"><path id="" clip-rule="evenodd" transform="matrix(1 0 0 1 0 0)" d="M225.96 531.48L242.52 531.48L242.52 531.48L242.52 547.32L242.52 547.32L225.96 547.32z" /></clipPath><clipPath id="60"><path id="" clip-rule="evenodd" transform="matrix(1 0 0 1 0 0)" d="M224.94 530.46L243.54 530.46L243.54 530.46L243.54 548.34L243.54 548.34L224.94 548.34z" /></clipPath><clipPath id="61"><path id="" clip-rule="evenodd" transform="matrix(1 0 0 1 0 0)" d="M0 0.02001953L595.2 0.02001953L595.2 0.02001953L595.2 842L595.2 842L0 842z" /></clipPath><clipPath id="62"><path id="" clip-rule="evenodd" transform="matrix(1 0 0 1 0 0)" d="M224.94 558.3L243.54 558.3L243.54 558.3L243.54 576.18L243.54 576.18L224.94 576.18z" /></clipPath><clipPath id="63"><path id="" clip-rule="evenodd" transform="matrix(1 0 0 1 0 0)" d="M0 0.02001953L595.2 0.02001953L595.2 0.02001953L595.2 842L595.2 842L0 842z" /></clipPath><clipPath id="64"><path id="" clip-rule="evenodd" transform="matrix(1 0 0 1 0 0)" d="M225.96 559.32L242.52 559.32L242.52 559.32L242.52 575.16L242.52 575.16L225.96 575.16z" /></clipPath><clipPath id="65"><path id="" clip-rule="evenodd" transform="matrix(1 0 0 1 0 0)" d="M224.94 558.3L243.54 558.3L243.54 558.3L243.54 576.18L243.54 576.18L224.94 576.18z" /></clipPath><clipPath id="66"><path id="" clip-rule="evenodd" transform="matrix(1 0 0 1 0 0)" d="M0 0.02001953L595.2 0.02001953L595.2 0.02001953L595.2 842L595.2 842L0 842z" /></clipPath><clipPath id="67"><path id="" clip-rule="evenodd" transform="matrix(1 0 0 1 0 0)" d="M224.94 586.2L243.54 586.2L243.54 586.2L243.54 604.02L243.54 604.02L224.94 604.02z" /></clipPath><clipPath id="68"><path id="" clip-rule="evenodd" transform="matrix(1 0 0 1 0 0)" d="M0 0.02001953L595.2 0.02001953L595.2 0.02001953L595.2 842L595.2 842L0 842z" /></clipPath><clipPath id="69"><path id="" clip-rule="evenodd" transform="matrix(1 0 0 1 0 0)" d="M225.96 587.16L242.52 587.16L242.52 587.16L242.52 603L242.52 603L225.96 603z" /></clipPath><clipPath id="70"><path id="" clip-rule="evenodd" transform="matrix(1 0 0 1 0 0)" d="M224.94 586.2L243.54 586.2L243.54 586.2L243.54 604.02L243.54 604.02L224.94 604.02z" /></clipPath><clipPath id="71"><path id="" clip-rule="evenodd" transform="matrix(1 0 0 1 0 0)" d="M0 0.02001953L595.2 0.02001953L595.2 0.02001953L595.2 842L595.2 842L0 842z" /></clipPath><clipPath id="72"><path id="" clip-rule="evenodd" transform="matrix(1 0 0 1 0 0)" d="M224.94 614.04L243.54 614.04L243.54 614.04L243.54 631.92L243.54 631.92L224.94 631.92z" /></clipPath><clipPath id="73"><path id="" clip-rule="evenodd" transform="matrix(1 0 0 1 0 0)" d="M0 0.02001953L595.2 0.02001953L595.2 0.02001953L595.2 842L595.2 842L0 842z" /></clipPath><clipPath id="74"><path id="" clip-rule="evenodd" transform="matrix(1 0 0 1 0 0)" d="M225.96 615.06L242.52 615.06L242.52 615.06L242.52 630.9L242.52 630.9L225.96 630.9z" /></clipPath><clipPath id="75"><path id="" clip-rule="evenodd" transform="matrix(1 0 0 1 0 0)" d="M224.94 614.04L243.54 614.04L243.54 614.04L243.54 631.92L243.54 631.92L224.94 631.92z" /></clipPath><clipPath id="76"><path id="" clip-rule="evenodd" transform="matrix(1 0 0 1 0 0)" d="M0 0.02001953L595.2 0.02001953L595.2 0.02001953L595.2 842L595.2 842L0 842z" /></clipPath><clipPath id="77"><path id="" clip-rule="evenodd" transform="matrix(1 0 0 1 0 0)" d="M224.94 641.88L243.54 641.88L243.54 641.88L243.54 659.76L243.54 659.76L224.94 659.76z" /></clipPath><clipPath id="78"><path id="" clip-rule="evenodd" transform="matrix(1 0 0 1 0 0)" d="M0 0.02001953L595.2 0.02001953L595.2 0.02001953L595.2 842L595.2 842L0 842z" /></clipPath><clipPath id="79"><path id="" clip-rule="evenodd" transform="matrix(1 0 0 1 0 0)" d="M225.96 642.9L242.52 642.9L242.52 642.9L242.52 658.74L242.52 658.74L225.96 658.74z" /></clipPath><clipPath id="80"><path id="" clip-rule="evenodd" transform="matrix(1 0 0 1 0 0)" d="M224.94 641.88L243.54 641.88L243.54 641.88L243.54 659.76L243.54 659.76L224.94 659.76z" /></clipPath><clipPath id="81"><path id="" clip-rule="evenodd" transform="matrix(1 0 0 1 0 0)" d="M0 0.02001953L595.2 0.02001953L595.2 0.02001953L595.2 842L595.2 842L0 842z" /></clipPath><clipPath id="82"><path id="" clip-rule="evenodd" transform="matrix(1 0 0 1 0 0)" d="M224.94 669.78L243.54 669.78L243.54 669.78L243.54 687.6L243.54 687.6L224.94 687.6z" /></clipPath><clipPath id="83"><path id="" clip-rule="evenodd" transform="matrix(1 0 0 1 0 0)" d="M0 0.02001953L595.2 0.02001953L595.2 0.02001953L595.2 842L595.2 842L0 842z" /></clipPath><clipPath id="84"><path id="" clip-rule="evenodd" transform="matrix(1 0 0 1 0 0)" d="M225.96 670.74L242.52 670.74L242.52 670.74L242.52 686.58L242.52 686.58L225.96 686.58z" /></clipPath><clipPath id="85"><path id="" clip-rule="evenodd" transform="matrix(1 0 0 1 0 0)" d="M224.94 669.78L243.54 669.78L243.54 669.78L243.54 687.6L243.54 687.6L224.94 687.6z" /></clipPath><clipPath id="86"><path id="" clip-rule="evenodd" transform="matrix(1 0 0 1 0 0)" d="M0 0.02001953L595.2 0.02001953L595.2 0.02001953L595.2 842L595.2 842L0 842z" /></clipPath><clipPath id="87"><path id="" clip-rule="evenodd" transform="matrix(1 0 0 1 0 0)" d="M224.94 703.74L243.54 703.74L243.54 703.74L243.54 721.62L243.54 721.62L224.94 721.62z" /></clipPath><clipPath id="88"><path id="" clip-rule="evenodd" transform="matrix(1 0 0 1 0 0)" d="M0 0.02001953L595.2 0.02001953L595.2 0.02001953L595.2 842L595.2 842L0 842z" /></clipPath><clipPath id="89"><path id="" clip-rule="evenodd" transform="matrix(1 0 0 1 0 0)" d="M225.96 704.76L242.52 704.76L242.52 704.76L242.52 720.6L242.52 720.6L225.96 720.6z" /></clipPath><clipPath id="90"><path id="" clip-rule="evenodd" transform="matrix(1 0 0 1 0 0)" d="M224.94 703.74L243.54 703.74L243.54 703.74L243.54 721.62L243.54 721.62L224.94 721.62z" /></clipPath><clipPath id="91"><path id="" clip-rule="evenodd" transform="matrix(1 0 0 1 0 0)" d="M0 0.02001953L595.2 0.02001953L595.2 0.02001953L595.2 842L595.2 842L0 842z" /></clipPath><clipPath id="92"><path id="" clip-rule="evenodd" transform="matrix(1 0 0 1 0 0)" d="M224.94 731.58L243.54 731.58L243.54 731.58L243.54 749.46L243.54 749.46L224.94 749.46z" /></clipPath><clipPath id="93"><path id="" clip-rule="evenodd" transform="matrix(1 0 0 1 0 0)" d="M0 0.02001953L595.2 0.02001953L595.2 0.02001953L595.2 842L595.2 842L0 842z" /></clipPath><clipPath id="94"><path id="" clip-rule="evenodd" transform="matrix(1 0 0 1 0 0)" d="M225.96 732.6L242.52 732.6L242.52 732.6L242.52 748.44L242.52 748.44L225.96 748.44z" /></clipPath><clipPath id="95"><path id="" clip-rule="evenodd" transform="matrix(1 0 0 1 0 0)" d="M224.94 731.58L243.54 731.58L243.54 731.58L243.54 749.46L243.54 749.46L224.94 749.46z" /></clipPath><clipPath id="96"><path id="" clip-rule="evenodd" transform="matrix(1 0 0 1 0 0)" d="M0 0.02001953L595.2 0.02001953L595.2 0.02001953L595.2 842L595.2 842L0 842z" /></clipPath></defs><g transform="matrix(1.333333 0 0 1.333333 0 0)"><g clip-path="url(#1)"><path id="351" transform="matrix(1 0 0 -1 0 842)" d="M224.94 649.94L271.02 649.94L271.02 667.94L224.94 667.94z" stroke="none" fill="#C4DFF7" fill-rule="nonzero" /><path id="358" transform="matrix(1 0 0 -1 0 842)" d="M271.02 649.94L558 649.94L558 667.94L271.02 667.94z" stroke="none" fill="#C4DFF7" fill-rule="nonzero" /><path id="1147" transform="matrix(1 0 0 -1 0 842)" d="M224.94 621.86L558 621.86L558 622.34L224.94 622.34z" stroke="none" fill="#000000" fill-rule="nonzero" /><path id="1148" transform="matrix(1 0 0 -1 0 842)" d="M224.94 594.02L558 594.02L558 594.5001L224.94 594.5001z" stroke="none" fill="#000000" fill-rule="nonzero" /><path id="1149" transform="matrix(1 0 0 -1 0 842)" d="M224.94 566.18L558 566.18L558 566.66L224.94 566.66z" stroke="none" fill="#000000" fill-rule="nonzero" /><path id="1150" transform="matrix(1 0 0 -1 0 842)" d="M224.94 538.28L558 538.28L558 538.76L224.94 538.76z" stroke="none" fill="#000000" fill-rule="nonzero" /><path id="1151" transform="matrix(1 0 0 -1 0 842)" d="M224.94 504.32L558 504.32L558 504.8L224.94 504.8z" stroke="none" fill="#000000" fill-rule="nonzero" /><path id="1152" transform="matrix(1 0 0 -1 0 842)" d="M224.94 476.42L558 476.42L558 476.9L224.94 476.9z" stroke="none" fill="#000000" fill-rule="nonzero" /><path id="1153" transform="matrix(1 0 0 -1 0 842)" d="M224.94 448.88L558 448.88L558 449.36L224.94 449.36z" stroke="none" fill="#000000" fill-rule="nonzero" /><path id="1154" transform="matrix(1 0 0 -1 0 842)" d="M224.94 421.04L558 421.04L558 421.52L224.94 421.52z" stroke="none" fill="#000000" fill-rule="nonzero" /><path id="1155" transform="matrix(1 0 0 -1 0 842)" d="M224.94 393.14L558 393.14L558 393.62L224.94 393.62z" stroke="none" fill="#000000" fill-rule="nonzero" /><path id="1156" transform="matrix(1 0 0 -1 0 842)" d="M224.94 365.3L558 365.3L558 365.78L224.94 365.78z" stroke="none" fill="#000000" fill-rule="nonzero" /><path id="1157" transform="matrix(1 0 0 -1 0 842)" d="M224.94 317.3L558 317.3L558 317.78L224.94 317.78z" stroke="none" fill="#000000" fill-rule="nonzero" /><path id="1158" transform="matrix(1 0 0 -1 0 842)" d="M224.94 289.46L558 289.46L558 289.94L224.94 289.94z" stroke="none" fill="#000000" fill-rule="nonzero" /><path id="1159" transform="matrix(1 0 0 -1 0 842)" d="M224.94 261.56L558 261.56L558 262.04L224.94 262.04z" stroke="none" fill="#000000" fill-rule="nonzero" /><path id="1160" transform="matrix(1 0 0 -1 0 842)" d="M224.94 233.72L558 233.72L558 234.2L224.94 234.2z" stroke="none" fill="#000000" fill-rule="nonzero" /><path id="1161" transform="matrix(1 0 0 -1 0 842)" d="M224.94 205.88L558 205.88L558 206.36L224.94 206.36z" stroke="none" fill="#000000" fill-rule="nonzero" /><path id="1162" transform="matrix(1 0 0 -1 0 842)" d="M224.94 177.98L558 177.98L558 178.46L224.94 178.46z" stroke="none" fill="#000000" fill-rule="nonzero" /><path id="1163" transform="matrix(1 0 0 -1 0 842)" d="M224.94 144.02L558 144.02L558 144.5L224.94 144.5z" stroke="none" fill="#000000" fill-rule="nonzero" /><path id="1164" transform="matrix(1 0 0 -1 0 842)" d="M224.94 116.18L558 116.18L558 116.66L224.94 116.66z" stroke="none" fill="#000000" fill-rule="nonzero" /><path id="1165" transform="matrix(1 0 0 -1 0 842)" d="M224.94 81.62L558 81.62L558 83.12L224.94 83.12z" stroke="none" fill="#000000" fill-rule="nonzero" /><g clip-path="url(#2)"><g clip-path="url(#3)"><path id="1166" transform="matrix(1 0 0 -1 0 842)" d="M225.96 627.14L242.52 627.14L242.52 642.98L225.96 642.98z" stroke="none" fill="#FFFFFF" fill-rule="nonzero" /></g></g><g clip-path="url(#4)"><g clip-path="url(#5)"><g clip-path="url(#6)"><g transform="matrix(0.48 0 0 0.48 225.96 199.02)"><g transform="matrix(1 0 0 1 0 0)"><image x="0" y="0" xlink:href="img_88.png" width="35" height="33" /></g></g></g></g></g><g clip-path="url(#7)"><g clip-path="url(#8)"><path id="1168" transform="matrix(1 0 0 -1 0 842)" d="M225.96 599.24L242.52 599.24L242.52 615.08L225.96 615.08z" stroke="none" fill="#FFFFFF" fill-rule="nonzero" /></g></g><g clip-path="url(#9)"><g clip-path="url(#10)"><g clip-path="url(#11)"><g transform="matrix(0.48 0 0 0.48 225.96 226.92)"><g transform="matrix(1 0 0 1 0 0)"><image x="0" y="0" xlink:href="img_89.png" width="35" height="33" /></g></g></g></g></g><g clip-path="url(#12)"><g clip-path="url(#13)"><path id="1170" transform="matrix(1 0 0 -1 0 842)" d="M225.96 571.4L242.52 571.4L242.52 587.2401L225.96 587.2401z" stroke="none" fill="#FFFFFF" fill-rule="nonzero" /></g></g><g clip-path="url(#14)"><g clip-path="url(#15)"><g clip-path="url(#16)"><g transform="matrix(0.48 0 0 0.48 225.96 254.7599)"><g transform="matrix(1 0 0 1 0 0)"><image x="0" y="0" xlink:href="img_81.png" width="35" height="33" /></g></g></g></g></g><g clip-path="url(#17)"><g clip-path="url(#18)"><path id="1172" transform="matrix(1 0 0 -1 0 842)" d="M225.96 543.56L242.52 543.56L242.52 559.4L225.96 559.4z" stroke="none" fill="#FFFFFF" fill-rule="nonzero" /></g></g><g clip-path="url(#19)"><g clip-path="url(#20)"><g clip-path="url(#21)"><g transform="matrix(0.48 0 0 0.48 225.96 282.6)"><g transform="matrix(1 0 0 1 0 0)"><image x="0" y="0" xlink:href="img_90.png" width="35" height="33" /></g></g></g></g></g><g clip-path="url(#22)"><g clip-path="url(#23)"><path id="1174" transform="matrix(1 0 0 -1 0 842)" d="M225.96 515.72L242.52 515.72L242.52 531.56L225.96 531.56z" stroke="none" fill="#FFFFFF" fill-rule="nonzero" /></g></g><g clip-path="url(#24)"><g clip-path="url(#25)"><g clip-path="url(#26)"><g transform="matrix(0.48 0 0 0.48 225.96 310.44)"><g transform="matrix(1 0 0 1 0 0)"><image x="0" y="0" xlink:href="img_91.png" width="35" height="33" /></g></g></g></g></g><g clip-path="url(#27)"><g clip-path="url(#28)"><path id="1176" transform="matrix(1 0 0 -1 0 842)" d="M225.96 481.7L242.52 481.7L242.52 497.54L225.96 497.54z" stroke="none" fill="#FFFFFF" fill-rule="nonzero" /></g></g><g clip-path="url(#29)"><g clip-path="url(#30)"><g clip-path="url(#31)"><g transform="matrix(0.48 0 0 0.48 225.96 344.46)"><g transform="matrix(1 0 0 1 0 0)"><image x="0" y="0" xlink:href="img_99.png" width="35" height="33" /></g></g></g></g></g><g clip-path="url(#32)"><g clip-path="url(#33)"><path id="1178" transform="matrix(1 0 0 -1 0 842)" d="M225.96 453.86L241.8 453.86L241.8 469.7L225.96 469.7z" stroke="none" fill="#FFFFFF" fill-rule="nonzero" /></g></g><g clip-path="url(#34)"><g clip-path="url(#35)"><g clip-path="url(#36)"><g transform="matrix(0.48 0 0 0.48 225.96 372.3)"><g transform="matrix(1 0 0 1 0 0)"><image x="0" y="0" xlink:href="img_100.png" width="35" height="33" /></g></g></g></g></g><g clip-path="url(#37)"><g clip-path="url(#38)"><path id="1180" transform="matrix(1 0 0 -1 0 842)" d="M225.96 426.26L242.52 426.26L242.52 442.1L225.96 442.1z" stroke="none" fill="#FFFFFF" fill-rule="nonzero" /></g></g><g clip-path="url(#39)"><g clip-path="url(#40)"><g clip-path="url(#41)"><g transform="matrix(0.48 0 0 0.48 225.96 399.9)"><g transform="matrix(1 0 0 1 0 0)"><image x="0" y="0" xlink:href="img_101.png" width="35" height="33" /></g></g></g></g></g><g clip-path="url(#42)"><g clip-path="url(#43)"><path id="1182" transform="matrix(1 0 0 -1 0 842)" d="M225.96 398.42L242.52 398.42L242.52 414.26L225.96 414.26z" stroke="none" fill="#FFFFFF" fill-rule="nonzero" /></g></g><g clip-path="url(#44)"><g clip-path="url(#45)"><g clip-path="url(#46)"><g transform="matrix(0.48 0 0 0.48 225.96 427.74)"><g transform="matrix(1 0 0 1 0 0)"><image x="0" y="0" xlink:href="img_94.png" width="35" height="33" /></g></g></g></g></g><g clip-path="url(#47)"><g clip-path="url(#48)"><path id="1184" transform="matrix(1 0 0 -1 0 842)" d="M225.96 370.58L242.52 370.58L242.52 386.42L225.96 386.42z" stroke="none" fill="#FFFFFF" fill-rule="nonzero" /></g></g><g clip-path="url(#49)"><g clip-path="url(#50)"><g clip-path="url(#51)"><g transform="matrix(0.48 0 0 0.48 225.96 455.58)"><g transform="matrix(1 0 0 1 0 0)"><image x="0" y="0" xlink:href="img_117.png" width="35" height="33" /></g></g></g></g></g><g clip-path="url(#52)"><g clip-path="url(#53)"><path id="1186" transform="matrix(1 0 0 -1 0 842)" d="M225.96 342.68L242.52 342.68L242.52 358.52L225.96 358.52z" stroke="none" fill="#FFFFFF" fill-rule="nonzero" /></g></g><g clip-path="url(#54)"><g clip-path="url(#55)"><g clip-path="url(#56)"><g transform="matrix(0.48 0 0 0.48 225.96 483.48)"><g transform="matrix(1 0 0 1 0 0)"><image x="0" y="0" xlink:href="img_76.png" width="35" height="33" /></g></g></g></g></g><g clip-path="url(#57)"><g clip-path="url(#58)"><path id="1188" transform="matrix(1 0 0 -1 0 842)" d="M225.96 294.68L242.52 294.68L242.52 310.52L225.96 310.52z" stroke="none" fill="#FFFFFF" fill-rule="nonzero" /></g></g><g clip-path="url(#59)"><g clip-path="url(#60)"><g clip-path="url(#61)"><g transform="matrix(0.48 0 0 0.48 225.96 531.48)"><g transform="matrix(1 0 0 1 0 0)"><image x="0" y="0" xlink:href="img_104.png" width="35" height="33" /></g></g></g></g></g><g clip-path="url(#62)"><g clip-path="url(#63)"><path id="1190" transform="matrix(1 0 0 -1 0 842)" d="M225.96 266.84L242.52 266.84L242.52 282.68L225.96 282.68z" stroke="none" fill="#FFFFFF" fill-rule="nonzero" /></g></g><g clip-path="url(#64)"><g clip-path="url(#65)"><g clip-path="url(#66)"><g transform="matrix(0.48 0 0 0.48 225.96 559.32)"><g transform="matrix(1 0 0 1 0 0)"><image x="0" y="0" xlink:href="img_124.png" width="35" height="33" /></g></g></g></g></g><g clip-path="url(#67)"><g clip-path="url(#68)"><path id="1192" transform="matrix(1 0 0 -1 0 842)" d="M225.96 239L242.52 239L242.52 254.84L225.96 254.84z" stroke="none" fill="#FFFFFF" fill-rule="nonzero" /></g></g><g clip-path="url(#69)"><g clip-path="url(#70)"><g clip-path="url(#71)"><g transform="matrix(0.48 0 0 0.48 225.96 587.16)"><g transform="matrix(1 0 0 1 0 0)"><image x="0" y="0" xlink:href="img_106.png" width="35" height="33" /></g></g></g></g></g><g clip-path="url(#72)"><g clip-path="url(#73)"><path id="1194" transform="matrix(1 0 0 -1 0 842)" d="M225.96 211.1L242.52 211.1L242.52 226.94L225.96 226.94z" stroke="none" fill="#FFFFFF" fill-rule="nonzero" /></g></g><g clip-path="url(#74)"><g clip-path="url(#75)"><g clip-path="url(#76)"><g transform="matrix(0.48 0 0 0.48 225.96 615.06)"><g transform="matrix(1 0 0 1 0 0)"><image x="0" y="0" xlink:href="img_109.png" width="35" height="33" /></g></g></g></g></g><g clip-path="url(#77)"><g clip-path="url(#78)"><path id="1196" transform="matrix(1 0 0 -1 0 842)" d="M225.96 183.26L242.52 183.26L242.52 199.1L225.96 199.1z" stroke="none" fill="#FFFFFF" fill-rule="nonzero" /></g></g><g clip-path="url(#79)"><g clip-path="url(#80)"><g clip-path="url(#81)"><g transform="matrix(0.48 0 0 0.48 225.96 642.9)"><g transform="matrix(1 0 0 1 0 0)"><image x="0" y="0" xlink:href="img_110.png" width="35" height="33" /></g></g></g></g></g><g clip-path="url(#82)"><g clip-path="url(#83)"><path id="1198" transform="matrix(1 0 0 -1 0 842)" d="M225.96 155.42L242.52 155.42L242.52 171.26L225.96 171.26z" stroke="none" fill="#FFFFFF" fill-rule="nonzero" /></g></g><g clip-path="url(#84)"><g clip-path="url(#85)"><g clip-path="url(#86)"><g transform="matrix(0.48 0 0 0.48 225.96 670.74)"><g transform="matrix(1 0 0 1 0 0)"><image x="0" y="0" xlink:href="img_108.png" width="35" height="33" /></g></g></g></g></g><g clip-path="url(#87)"><g clip-path="url(#88)"><path id="1200" transform="matrix(1 0 0 -1 0 842)" d="M225.96 121.4L242.52 121.4L242.52 137.24L225.96 137.24z" stroke="none" fill="#FFFFFF" fill-rule="nonzero" /></g></g><g clip-path="url(#89)"><g clip-path="url(#90)"><g clip-path="url(#91)"><g transform="matrix(0.48 0 0 0.48 225.96 704.76)"><g transform="matrix(1 0 0 1 0 0)"><image x="0" y="0" xlink:href="img_112.png" width="35" height="33" /></g></g></g></g></g><g clip-path="url(#92)"><g clip-path="url(#93)"><path id="1202" transform="matrix(1 0 0 -1 0 842)" d="M225.96 93.56L242.52 93.56L242.52 109.4L225.96 109.4z" stroke="none" fill="#FFFFFF" fill-rule="nonzero" /></g></g><g clip-path="url(#94)"><g clip-path="url(#95)"><g clip-path="url(#96)"><g transform="matrix(0.48 0 0 0.48 225.96 732.6)"><g transform="matrix(1 0 0 1 0 0)"><image x="0" y="0" xlink:href="img_125.png" width="35" height="33" /></g></g></g></g></g></g></g></svg>