<svg xmlns="http://www.w3.org/2000/svg" xmlns:xlink="http://www.w3.org/1999/xlink" id="body_46" preserveAspectRatio="xMinYMin meet" viewBox="0 0 793 1123"><defs><clipPath id="1"><path id="" clip-rule="evenodd" transform="matrix(1 0 0 1 0 0)" d="M0 842L0 0L0 0L595 0L595 0L595 842L595 842L0 842z" /></clipPath><clipPath id="2"><path id="" clip-rule="evenodd" transform="matrix(1 0 0 1 0 0)" d="M35.94 404.04L54.54 404.04L54.54 404.04L54.54 421.92L54.54 421.92L35.94 421.92z" /></clipPath><clipPath id="3"><path id="" clip-rule="evenodd" transform="matrix(1 0 0 1 0 0)" d="M0 0.02001953L595.2 0.02001953L595.2 0.02001953L595.2 842L595.2 842L0 842z" /></clipPath><clipPath id="4"><path id="" clip-rule="evenodd" transform="matrix(1 0 0 1 0 0)" d="M36.96 405.06L53.52 405.06L53.52 405.06L53.52 420.9L53.52 420.9L36.96 420.9z" /></clipPath><clipPath id="5"><path id="" clip-rule="evenodd" transform="matrix(1 0 0 1 0 0)" d="M35.94 404.04L54.54 404.04L54.54 404.04L54.54 421.92L54.54 421.92L35.94 421.92z" /></clipPath><clipPath id="6"><path id="" clip-rule="evenodd" transform="matrix(1 0 0 1 0 0)" d="M0 0.02001953L595.2 0.02001953L595.2 0.02001953L595.2 842L595.2 842L0 842z" /></clipPath></defs><g transform="matrix(1.333333 0 0 1.333333 0 0)"><g clip-path="url(#1)"><path id="1536" transform="matrix(1 0 0 -1 0 842)" d="M35.94 751.94L227.34 751.94L227.34 769.94L35.94 769.94z" stroke="none" fill="#C4DFF7" fill-rule="nonzero" /><path id="1544" transform="matrix(1 0 0 -1 0 842)" d="M227.34 769.94L549 769.94L549 751.94L227.34 751.94" stroke="none" fill="#C4DFF7" fill-rule="nonzero" /><path id="1556" transform="matrix(1 0 0 -1 0 842)" d="M35.94 679.7L549 679.7L549 680.18L35.94 680.18z" stroke="none" fill="#000000" fill-rule="nonzero" /><path id="1557" transform="matrix(1 0 0 -1 0 842)" d="M35.94 607.7L549 607.7L549 608.18L35.94 608.18z" stroke="none" fill="#000000" fill-rule="nonzero" /><path id="1558" transform="matrix(1 0 0 -1 0 842)" d="M35.94 535.7L549 535.7L549 536.18L35.94 536.18z" stroke="none" fill="#000000" fill-rule="nonzero" /><path id="1559" transform="matrix(1 0 0 -1 0 842)" d="M35.94 477.74L549 477.74L549 478.22L35.94 478.22z" stroke="none" fill="#000000" fill-rule="nonzero" /><path id="1560" transform="matrix(1 0 0 -1 0 842)" d="M35.94 443.72L549 443.72L549 444.2L35.94 444.2z" stroke="none" fill="#000000" fill-rule="nonzero" /><path id="1561" transform="matrix(1 0 0 -1 0 842)" d="M35.94 343.7L549 343.7L549 344.18L35.94 344.18z" stroke="none" fill="#000000" fill-rule="nonzero" /><path id="1562" transform="matrix(1 0 0 -1 0 842)" d="M35.94 309.74L549 309.74L549 310.22L35.94 310.22z" stroke="none" fill="#000000" fill-rule="nonzero" /><path id="1563" transform="matrix(1 0 0 -1 0 842)" d="M35.94 275.72L549 275.72L549 276.2L35.94 276.2z" stroke="none" fill="#000000" fill-rule="nonzero" /><path id="1564" transform="matrix(1 0 0 -1 0 842)" d="M35.94 217.16L549 217.16L549 218.66L35.94 218.66z" stroke="none" fill="#000000" fill-rule="nonzero" /><g clip-path="url(#2)"><g clip-path="url(#3)"><path id="1565" transform="matrix(1 0 0 -1 0 842)" d="M36.96 421.1L53.52 421.1L53.52 436.94L36.96 436.94z" stroke="none" fill="#FFFFFF" fill-rule="nonzero" /></g></g><g clip-path="url(#4)"><g clip-path="url(#5)"><g clip-path="url(#6)"><g transform="matrix(0.48 0 0 0.48 36.96 405.06)"><g transform="matrix(1 0 0 1 0 0)"><image x="0" y="0" xlink:href="img_112.png" width="35" height="33" /></g></g></g></g></g></g></g></svg>