<svg xmlns="http://www.w3.org/2000/svg" xmlns:xlink="http://www.w3.org/1999/xlink" id="body_183" preserveAspectRatio="xMinYMin meet" viewBox="0 0 793 1123"><defs><clipPath id="1"><path id="" clip-rule="evenodd" transform="matrix(1 0 0 1 0 0)" d="M0 842L0 0L0 0L595 0L595 0L595 842L595 842L0 842z" /></clipPath><clipPath id="2"><path id="" clip-rule="evenodd" transform="matrix(1 0 0 1 0 0)" d="M323.22 439.74L342.54 439.74L342.54 439.74L342.54 459.06L342.54 459.06L323.22 459.06z" /></clipPath><clipPath id="3"><path id="" clip-rule="evenodd" transform="matrix(1 0 0 1 0 0)" d="M0 0.02001953L595.2 0.02001953L595.2 0.02001953L595.2 842L595.2 842L0 842z" /></clipPath><clipPath id="4"><path id="" clip-rule="evenodd" transform="matrix(1 0 0 1 0 0)" d="M324.24 440.76L341.52 440.76L341.52 440.76L341.52 458.04L341.52 458.04L324.24 458.04z" /></clipPath><clipPath id="5"><path id="" clip-rule="evenodd" transform="matrix(1 0 0 1 0 0)" d="M323.22 439.74L342.54 439.74L342.54 439.74L342.54 459.06L342.54 459.06L323.22 459.06z" /></clipPath><clipPath id="6"><path id="" clip-rule="evenodd" transform="matrix(1 0 0 1 0 0)" d="M0 0.02001953L595.2 0.02001953L595.2 0.02001953L595.2 842L595.2 842L0 842z" /></clipPath><clipPath id="7"><path id="" clip-rule="evenodd" transform="matrix(1 0 0 1 0 0)" d="M306.54 541.74L318.36 541.74L318.36 541.74L318.36 553.56L318.36 553.56L306.54 553.56z" /></clipPath><clipPath id="8"><path id="" clip-rule="evenodd" transform="matrix(1 0 0 1 0 0)" d="M0 0.02001953L595.2 0.02001953L595.2 0.02001953L595.2 842L595.2 842L0 842z" /></clipPath><clipPath id="9"><path id="" clip-rule="evenodd" transform="matrix(1 0 0 1 0 0)" d="M307.56 542.7L317.4 542.7L317.4 542.7L317.4 552.54L317.4 552.54L307.56 552.54z" /></clipPath><clipPath id="10"><path id="" clip-rule="evenodd" transform="matrix(1 0 0 1 0 0)" d="M306.54 541.74L318.36 541.74L318.36 541.74L318.36 553.56L318.36 553.56L306.54 553.56z" /></clipPath><clipPath id="11"><path id="" clip-rule="evenodd" transform="matrix(1 0 0 1 0 0)" d="M0 0.02001953L595.2 0.02001953L595.2 0.02001953L595.2 842L595.2 842L0 842z" /></clipPath><clipPath id="12"><path id="" clip-rule="evenodd" transform="matrix(1 0 0 1 0 0)" d="M288.54 659.76L307.8 659.76L307.8 659.76L307.8 679.08L307.8 679.08L288.54 679.08z" /></clipPath><clipPath id="13"><path id="" clip-rule="evenodd" transform="matrix(1 0 0 1 0 0)" d="M0 0.02001953L595.2 0.02001953L595.2 0.02001953L595.2 842L595.2 842L0 842z" /></clipPath><clipPath id="14"><path id="" clip-rule="evenodd" transform="matrix(1 0 0 1 0 0)" d="M289.56 660.78L306.84 660.78L306.84 660.78L306.84 678.06L306.84 678.06L289.56 678.06z" /></clipPath><clipPath id="15"><path id="" clip-rule="evenodd" transform="matrix(1 0 0 1 0 0)" d="M288.54 659.76L307.8 659.76L307.8 659.76L307.8 679.08L307.8 679.08L288.54 679.08z" /></clipPath><clipPath id="16"><path id="" clip-rule="evenodd" transform="matrix(1 0 0 1 0 0)" d="M0 0.02001953L595.2 0.02001953L595.2 0.02001953L595.2 842L595.2 842L0 842z" /></clipPath></defs><g transform="matrix(1.333333 0 0 1.333333 0 0)"><g clip-path="url(#1)"><g clip-path="url(#2)"><g clip-path="url(#3)"><path id="1430" transform="matrix(1 0 0 -1 0 842)" d="M324.24 383.96L341.52 383.96L341.52 401.24L324.24 401.24z" stroke="none" fill="#FFFFFF" fill-rule="nonzero" /></g></g><g clip-path="url(#4)"><g clip-path="url(#5)"><g clip-path="url(#6)"><g transform="matrix(0.48 0 0 0.48 324.24 440.76)"><g transform="matrix(1 0 0 1 0 0)"><image x="0" y="0" xlink:href="img_156.png" width="36" height="36" /></g></g></g></g></g><g clip-path="url(#7)"><g clip-path="url(#8)"><path id="1432" transform="matrix(1 0 0 -1 0 842)" d="M307.56 289.46L317.4 289.46L317.4 299.3L307.56 299.3z" stroke="none" fill="#FFFFFF" fill-rule="nonzero" /></g></g><g clip-path="url(#9)"><g clip-path="url(#10)"><g clip-path="url(#11)"><g transform="matrix(0.48 0 0 0.4685715 307.56 542.7)"><g transform="matrix(1 0 0 1 0 0)"><image x="0" y="0" xlink:href="img_455.png" width="21" height="21" /></g></g></g></g></g><g clip-path="url(#12)"><g clip-path="url(#13)"><path id="1434" transform="matrix(1 0 0 -1 0 842)" d="M289.56 163.94L306.84 163.94L306.84 181.22L289.56 181.22z" stroke="none" fill="#FFFFFF" fill-rule="nonzero" /></g></g><g clip-path="url(#14)"><g clip-path="url(#15)"><g clip-path="url(#16)"><g transform="matrix(0.48 0 0 0.48 289.56 660.78)"><g transform="matrix(1 0 0 1 0 0)"><image x="0" y="0" xlink:href="img_156.png" width="36" height="36" /></g></g></g></g></g></g></g></svg>