<svg xmlns="http://www.w3.org/2000/svg" xmlns:xlink="http://www.w3.org/1999/xlink" id="body_206" preserveAspectRatio="xMinYMin meet" viewBox="0 0 793 1123"><defs><clipPath id="1"><path id="" clip-rule="evenodd" transform="matrix(1 0 0 1 0 0)" d="M0 842L0 0L0 0L595 0L595 0L595 842L595 842L0 842z" /></clipPath><clipPath id="2"><path id="" clip-rule="evenodd" transform="matrix(1 0 0 1 0 0)" d="M288.54 194.94L307.08 194.94L307.08 194.94L307.08 212.76L307.08 212.76L288.54 212.76z" /></clipPath><clipPath id="3"><path id="" clip-rule="evenodd" transform="matrix(1 0 0 1 0 0)" d="M0 0.02001953L595.2 0.02001953L595.2 0.02001953L595.2 842L595.2 842L0 842z" /></clipPath><clipPath id="4"><path id="" clip-rule="evenodd" transform="matrix(1 0 0 1 0 0)" d="M289.56 195.96L306.12 195.96L306.12 195.96L306.12 211.8L306.12 211.8L289.56 211.8z" /></clipPath><clipPath id="5"><path id="" clip-rule="evenodd" transform="matrix(1 0 0 1 0 0)" d="M288.54 194.94L307.08 194.94L307.08 194.94L307.08 212.76L307.08 212.76L288.54 212.76z" /></clipPath><clipPath id="6"><path id="" clip-rule="evenodd" transform="matrix(1 0 0 1 0 0)" d="M0 0.02001953L595.2 0.02001953L595.2 0.02001953L595.2 842L595.2 842L0 842z" /></clipPath><clipPath id="7"><path id="" clip-rule="evenodd" transform="matrix(1 0 0 1 0 0)" d="M44.94 270.06L558.96 270.06L558.96 270.06L558.96 381.48L558.96 381.48L44.94 381.48z" /></clipPath><clipPath id="8"><path id="" clip-rule="evenodd" transform="matrix(1 0 0 1 0 0)" d="M0 0.02001953L595.2 0.02001953L595.2 0.02001953L595.2 842L595.2 842L0 842z" /></clipPath><clipPath id="9"><path id="" clip-rule="evenodd" transform="matrix(1 0 0 1 0 0)" d="M45.96 271.02L123.72 271.02L123.72 271.02L123.72 321.18L123.72 321.18L45.96 321.18z" /></clipPath><clipPath id="10"><path id="" clip-rule="evenodd" transform="matrix(1 0 0 1 0 0)" d="M44.94 270.06L558.96 270.06L558.96 270.06L558.96 381.48L558.96 381.48L44.94 381.48z" /></clipPath><clipPath id="11"><path id="" clip-rule="evenodd" transform="matrix(1 0 0 1 0 0)" d="M0 0.02001953L595.2 0.02001953L595.2 0.02001953L595.2 842L595.2 842L0 842z" /></clipPath><clipPath id="12"><path id="" clip-rule="evenodd" transform="matrix(1 0 0 1 0 0)" d="M44.94 270.06L558.96 270.06L558.96 270.06L558.96 381.48L558.96 381.48L44.94 381.48z" /></clipPath><clipPath id="13"><path id="" clip-rule="evenodd" transform="matrix(1 0 0 1 0 0)" d="M0 0.02001953L595.2 0.02001953L595.2 0.02001953L595.2 842L595.2 842L0 842z" /></clipPath><clipPath id="14"><path id="" clip-rule="evenodd" transform="matrix(1 0 0 1 0 0)" d="M148.02 271.02L558 271.02L558 271.02L558 380.46L558 380.46L148.02 380.46z" /></clipPath><clipPath id="15"><path id="" clip-rule="evenodd" transform="matrix(1 0 0 1 0 0)" d="M44.94 270.06L558.96 270.06L558.96 270.06L558.96 381.48L558.96 381.48L44.94 381.48z" /></clipPath><clipPath id="16"><path id="" clip-rule="evenodd" transform="matrix(1 0 0 1 0 0)" d="M0 0.02001953L595.2 0.02001953L595.2 0.02001953L595.2 842L595.2 842L0 842z" /></clipPath><clipPath id="17"><path id="" clip-rule="evenodd" transform="matrix(1 0 0 1 0 0)" d="M44.94 571.5L418.5 571.5L418.5 571.5L418.5 677.64L418.5 677.64L44.94 677.64z" /></clipPath><clipPath id="18"><path id="" clip-rule="evenodd" transform="matrix(1 0 0 1 0 0)" d="M0 0.02001953L595.2 0.02001953L595.2 0.02001953L595.2 842L595.2 842L0 842z" /></clipPath><clipPath id="19"><path id="" clip-rule="evenodd" transform="matrix(1 0 0 1 0 0)" d="M45.96 572.52L417.48 572.52L417.48 572.52L417.48 676.68L417.48 676.68L45.96 676.68z" /></clipPath><clipPath id="20"><path id="" clip-rule="evenodd" transform="matrix(1 0 0 1 0 0)" d="M44.94 571.5L418.5 571.5L418.5 571.5L418.5 677.64L418.5 677.64L44.94 677.64z" /></clipPath><clipPath id="21"><path id="" clip-rule="evenodd" transform="matrix(1 0 0 1 0 0)" d="M0 0.02001953L595.2 0.02001953L595.2 0.02001953L595.2 842L595.2 842L0 842z" /></clipPath></defs><g transform="matrix(1.333333 0 0 1.333333 0 0)"><g clip-path="url(#1)"><g clip-path="url(#2)"><g clip-path="url(#3)"><path id="858" transform="matrix(1 0 0 -1 0 842)" d="M289.56 630.2L306.12 630.2L306.12 646.04L289.56 646.04z" stroke="none" fill="#FFFFFF" fill-rule="nonzero" /></g></g><g clip-path="url(#4)"><g clip-path="url(#5)"><g clip-path="url(#6)"><g transform="matrix(0.48 0 0 0.48 289.56 195.96)"><g transform="matrix(1 0 0 1 0 0)"><image x="0" y="0" xlink:href="img_128.png" width="35" height="33" /></g></g></g></g></g><g clip-path="url(#7)"><g clip-path="url(#8)"><path id="889" transform="matrix(1 0 0 -1 0 842)" d="M45.96 520.82L123.72 520.82L123.72 570.98L45.96 570.98z" stroke="none" fill="#FFFFFF" fill-rule="nonzero" /></g></g><g clip-path="url(#9)"><g clip-path="url(#10)"><g clip-path="url(#11)"><g transform="matrix(0.48 0 0 0.4777143 45.96 271.02)"><g transform="matrix(1 0 0 1 0 0)"><image x="0" y="0" xlink:href="img_514.png" width="162" height="105" /></g></g></g></g></g><g clip-path="url(#12)"><g clip-path="url(#13)"><path id="891" transform="matrix(1 0 0 -1 0 842)" d="M148.02 570.98L558 570.98L558 461.54L148.02 461.54" stroke="none" fill="#FFFFFF" fill-rule="nonzero" /></g></g><g clip-path="url(#14)"><g clip-path="url(#15)"><g clip-path="url(#16)"><g transform="matrix(0.4800703 0 0 0.48 148.02 271.02)"><g transform="matrix(1 0 0 1 0 0)"><image x="0" y="0" xlink:href="img_515.png" width="854" height="228" /></g></g></g></g></g><g clip-path="url(#17)"><g clip-path="url(#18)"><path id="920" transform="matrix(1 0 0 -1 0 842)" d="M45.96 165.32L417.48 165.32L417.48 269.48L45.96 269.48z" stroke="none" fill="#FFFFFF" fill-rule="nonzero" /></g></g><g clip-path="url(#19)"><g clip-path="url(#20)"><g clip-path="url(#21)"><g transform="matrix(0.48 0 0 0.48 45.96 572.52)"><g transform="matrix(1 0 0 1 0 0)"><image x="0" y="0" xlink:href="img_516.png" width="774" height="217" /></g></g></g></g></g></g></g></svg>