<svg xmlns="http://www.w3.org/2000/svg" xmlns:xlink="http://www.w3.org/1999/xlink" id="body_47" preserveAspectRatio="xMinYMin meet" viewBox="0 0 793 1123"><defs><clipPath id="1"><path id="" clip-rule="evenodd" transform="matrix(1 0 0 1 0 0)" d="M0 842L0 0L0 0L595 0L595 0L595 842L595 842L0 842z" /></clipPath><clipPath id="2"><path id="" clip-rule="evenodd" transform="matrix(1 0 0 1 0 0)" d="M44.94 170.04L63.54 170.04L63.54 170.04L63.54 187.92L63.54 187.92L44.94 187.92z" /></clipPath><clipPath id="3"><path id="" clip-rule="evenodd" transform="matrix(1 0 0 1 0 0)" d="M0 0.02001953L595.2 0.02001953L595.2 0.02001953L595.2 842L595.2 842L0 842z" /></clipPath><clipPath id="4"><path id="" clip-rule="evenodd" transform="matrix(1 0 0 1 0 0)" d="M45.96 171.06L62.52 171.06L62.52 171.06L62.52 186.9L62.52 186.9L45.96 186.9z" /></clipPath><clipPath id="5"><path id="" clip-rule="evenodd" transform="matrix(1 0 0 1 0 0)" d="M44.94 170.04L63.54 170.04L63.54 170.04L63.54 187.92L63.54 187.92L44.94 187.92z" /></clipPath><clipPath id="6"><path id="" clip-rule="evenodd" transform="matrix(1 0 0 1 0 0)" d="M0 0.02001953L595.2 0.02001953L595.2 0.02001953L595.2 842L595.2 842L0 842z" /></clipPath><clipPath id="7"><path id="" clip-rule="evenodd" transform="matrix(1 0 0 1 0 0)" d="M44.94 204.06L63.54 204.06L63.54 204.06L63.54 221.88L63.54 221.88L44.94 221.88z" /></clipPath><clipPath id="8"><path id="" clip-rule="evenodd" transform="matrix(1 0 0 1 0 0)" d="M0 0.02001953L595.2 0.02001953L595.2 0.02001953L595.2 842L595.2 842L0 842z" /></clipPath><clipPath id="9"><path id="" clip-rule="evenodd" transform="matrix(1 0 0 1 0 0)" d="M45.96 205.02L62.52 205.02L62.52 205.02L62.52 220.86L62.52 220.86L45.96 220.86z" /></clipPath><clipPath id="10"><path id="" clip-rule="evenodd" transform="matrix(1 0 0 1 0 0)" d="M44.94 204.06L63.54 204.06L63.54 204.06L63.54 221.88L63.54 221.88L44.94 221.88z" /></clipPath><clipPath id="11"><path id="" clip-rule="evenodd" transform="matrix(1 0 0 1 0 0)" d="M0 0.02001953L595.2 0.02001953L595.2 0.02001953L595.2 842L595.2 842L0 842z" /></clipPath><clipPath id="12"><path id="" clip-rule="evenodd" transform="matrix(1 0 0 1 0 0)" d="M299.22 414.3L315.42 414.3L315.42 414.3L315.42 429.06L315.42 429.06L299.22 429.06z" /></clipPath><clipPath id="13"><path id="" clip-rule="evenodd" transform="matrix(1 0 0 1 0 0)" d="M0 0.02001953L595.2 0.02001953L595.2 0.02001953L595.2 842L595.2 842L0 842z" /></clipPath><clipPath id="14"><path id="" clip-rule="evenodd" transform="matrix(1 0 0 1 0 0)" d="M300.24 415.32L314.4 415.32L314.4 415.32L314.4 428.04L314.4 428.04L300.24 428.04z" /></clipPath><clipPath id="15"><path id="" clip-rule="evenodd" transform="matrix(1 0 0 1 0 0)" d="M299.22 414.3L315.42 414.3L315.42 414.3L315.42 429.06L315.42 429.06L299.22 429.06z" /></clipPath><clipPath id="16"><path id="" clip-rule="evenodd" transform="matrix(1 0 0 1 0 0)" d="M0 0.02001953L595.2 0.02001953L595.2 0.02001953L595.2 842L595.2 842L0 842z" /></clipPath><clipPath id="17"><path id="" clip-rule="evenodd" transform="matrix(1 0 0 1 0 0)" d="M368.04 500.34L384.24 500.34L384.24 500.34L384.24 515.04L384.24 515.04L368.04 515.04z" /></clipPath><clipPath id="18"><path id="" clip-rule="evenodd" transform="matrix(1 0 0 1 0 0)" d="M0 0.02001953L595.2 0.02001953L595.2 0.02001953L595.2 842L595.2 842L0 842z" /></clipPath><clipPath id="19"><path id="" clip-rule="evenodd" transform="matrix(1 0 0 1 0 0)" d="M369.06 501.3L383.22 501.3L383.22 501.3L383.22 514.02L383.22 514.02L369.06 514.02z" /></clipPath><clipPath id="20"><path id="" clip-rule="evenodd" transform="matrix(1 0 0 1 0 0)" d="M368.04 500.34L384.24 500.34L384.24 500.34L384.24 515.04L384.24 515.04L368.04 515.04z" /></clipPath><clipPath id="21"><path id="" clip-rule="evenodd" transform="matrix(1 0 0 1 0 0)" d="M0 0.02001953L595.2 0.02001953L595.2 0.02001953L595.2 842L595.2 842L0 842z" /></clipPath></defs><g transform="matrix(1.333333 0 0 1.333333 0 0)"><g clip-path="url(#1)"><path id="299" transform="matrix(1 0 0 -1 0 842)" d="M44.94 677.96L236.34 677.96L236.34 695.96L44.94 695.96z" stroke="none" fill="#C4DFF7" fill-rule="nonzero" /><path id="307" transform="matrix(1 0 0 -1 0 842)" d="M236.34 695.96L558 695.96L558 677.96L236.34 677.96" stroke="none" fill="#C4DFF7" fill-rule="nonzero" /><path id="675" transform="matrix(1 0 0 -1 0 842)" d="M44.94 643.7L558 643.7L558 644.18L44.94 644.18z" stroke="none" fill="#000000" fill-rule="nonzero" /><path id="676" transform="matrix(1 0 0 -1 0 842)" d="M44.94 609.74L558 609.74L558 610.22L44.94 610.22z" stroke="none" fill="#000000" fill-rule="nonzero" /><path id="677" transform="matrix(1 0 0 -1 0 842)" d="M44.94 561.2L558 561.2L558 562.7L44.94 562.7z" stroke="none" fill="#000000" fill-rule="nonzero" /><g clip-path="url(#2)"><g clip-path="url(#3)"><path id="678" transform="matrix(1 0 0 -1 0 842)" d="M45.96 655.1L62.52 655.1L62.52 670.94L45.96 670.94z" stroke="none" fill="#FFFFFF" fill-rule="nonzero" /></g></g><g clip-path="url(#4)"><g clip-path="url(#5)"><g clip-path="url(#6)"><g transform="matrix(0.48 0 0 0.48 45.96 171.06)"><g transform="matrix(1 0 0 1 0 0)"><image x="0" y="0" xlink:href="img_105.png" width="35" height="33" /></g></g></g></g></g><g clip-path="url(#7)"><g clip-path="url(#8)"><path id="680" transform="matrix(1 0 0 -1 0 842)" d="M45.96 621.14L62.52 621.14L62.52 636.98L45.96 636.98z" stroke="none" fill="#FFFFFF" fill-rule="nonzero" /></g></g><g clip-path="url(#9)"><g clip-path="url(#10)"><g clip-path="url(#11)"><g transform="matrix(0.48 0 0 0.48 45.96 205.02)"><g transform="matrix(1 0 0 1 0 0)"><image x="0" y="0" xlink:href="img_114.png" width="35" height="33" /></g></g></g></g></g><path id="682" transform="matrix(1 0 0 -1 0 842)" d="M44.94 443.96L208.2 443.96L208.2 461.96L44.94 461.96z" stroke="none" fill="#C4DFF7" fill-rule="nonzero" /><path id="690" transform="matrix(1 0 0 -1 0 842)" d="M208.2 443.96L558 443.96L558 461.96L208.2 461.96z" stroke="none" fill="#C4DFF7" fill-rule="nonzero" /><path id="1864" transform="matrix(1 0 0 -1 0 842)" d="M44.94 357.74L558 357.74L558 358.22L44.94 358.22z" stroke="none" fill="#000000" fill-rule="nonzero" /><path id="1865" transform="matrix(1 0 0 -1 0 842)" d="M44.94 271.7L558 271.7L558 272.18L44.94 272.18z" stroke="none" fill="#000000" fill-rule="nonzero" /><path id="1866" transform="matrix(1 0 0 -1 0 842)" d="M44.94 237.68L558 237.68L558 238.16L44.94 238.16z" stroke="none" fill="#000000" fill-rule="nonzero" /><path id="1867" transform="matrix(1 0 0 -1 0 842)" d="M44.94 203.72L558 203.72L558 204.2L44.94 204.2z" stroke="none" fill="#000000" fill-rule="nonzero" /><path id="1868" transform="matrix(1 0 0 -1 0 842)" d="M44.94 183.68L558 183.68L558 184.16L44.94 184.16z" stroke="none" fill="#000000" fill-rule="nonzero" /><path id="1869" transform="matrix(1 0 0 -1 0 842)" d="M44.94 149.72L558 149.72L558 150.2L44.94 150.2z" stroke="none" fill="#000000" fill-rule="nonzero" /><path id="1870" transform="matrix(1 0 0 -1 0 842)" d="M44.94 115.16L558 115.16L558 116.66L44.94 116.66z" stroke="none" fill="#000000" fill-rule="nonzero" /><g clip-path="url(#12)"><g clip-path="url(#13)"><path id="1871" transform="matrix(1 0 0 -1 0 842)" d="M300.24 413.96L314.4 413.96L314.4 426.68L300.24 426.68z" stroke="none" fill="#FFFFFF" fill-rule="nonzero" /></g></g><g clip-path="url(#14)"><g clip-path="url(#15)"><g clip-path="url(#16)"><g transform="matrix(0.48 0 0 0.4711111 300.24 415.32)"><g transform="matrix(1 0 0 1 0 0)"><image x="0" y="0" xlink:href="img_115.png" width="30" height="27" /></g></g></g></g></g><g clip-path="url(#17)"><g clip-path="url(#18)"><path id="1873" transform="matrix(1 0 0 -1 0 842)" d="M369.06 327.98L383.22 327.98L383.22 340.7L369.06 340.7z" stroke="none" fill="#FFFFFF" fill-rule="nonzero" /></g></g><g clip-path="url(#19)"><g clip-path="url(#20)"><g clip-path="url(#21)"><g transform="matrix(0.48 0 0 0.4711111 369.06 501.3)"><g transform="matrix(1 0 0 1 0 0)"><image x="0" y="0" xlink:href="img_115.png" width="30" height="27" /></g></g></g></g></g></g></g></svg>