<svg xmlns="http://www.w3.org/2000/svg" xmlns:xlink="http://www.w3.org/1999/xlink" id="body_196" preserveAspectRatio="xMinYMin meet" viewBox="0 0 793 1123"><defs><clipPath id="1"><path id="" clip-rule="evenodd" transform="matrix(1 0 0 1 0 0)" d="M0 842L0 0L0 0L595 0L595 0L595 842L595 842L0 842z" /></clipPath><clipPath id="2"><path id="" clip-rule="evenodd" transform="matrix(1 0 0 1 0 0)" d="M385.26 224.64L395.4 224.64L395.4 224.64L395.4 235.56L395.4 235.56L385.26 235.56z" /></clipPath><clipPath id="3"><path id="" clip-rule="evenodd" transform="matrix(1 0 0 1 0 0)" d="M0 0.02001953L595.2 0.02001953L595.2 0.02001953L595.2 842L595.2 842L0 842z" /></clipPath><clipPath id="4"><path id="" clip-rule="evenodd" transform="matrix(1 0 0 1 0 0)" d="M386.28 225.66L394.44 225.66L394.44 225.66L394.44 234.54L394.44 234.54L386.28 234.54z" /></clipPath><clipPath id="5"><path id="" clip-rule="evenodd" transform="matrix(1 0 0 1 0 0)" d="M385.26 224.64L395.4 224.64L395.4 224.64L395.4 235.56L395.4 235.56L385.26 235.56z" /></clipPath><clipPath id="6"><path id="" clip-rule="evenodd" transform="matrix(1 0 0 1 0 0)" d="M0 0.02001953L595.2 0.02001953L595.2 0.02001953L595.2 842L595.2 842L0 842z" /></clipPath><clipPath id="7"><path id="" clip-rule="evenodd" transform="matrix(1 0 0 1 0 0)" d="M44.94 270.06L558.9 270.06L558.9 270.06L558.9 537L558.9 537L44.94 537z" /></clipPath><clipPath id="8"><path id="" clip-rule="evenodd" transform="matrix(1 0 0 1 0 0)" d="M0 0.02001953L595.2 0.02001953L595.2 0.02001953L595.2 842L595.2 842L0 842z" /></clipPath><clipPath id="9"><path id="" clip-rule="evenodd" transform="matrix(1 0 0 1 0 0)" d="M45.96 271.02L557.88 271.02L557.88 271.02L557.88 535.98L557.88 535.98L45.96 535.98z" /></clipPath><clipPath id="10"><path id="" clip-rule="evenodd" transform="matrix(1 0 0 1 0 0)" d="M44.94 270.06L558.9 270.06L558.9 270.06L558.9 537L558.9 537L44.94 537z" /></clipPath><clipPath id="11"><path id="" clip-rule="evenodd" transform="matrix(1 0 0 1 0 0)" d="M0 0.02001953L595.2 0.02001953L595.2 0.02001953L595.2 842L595.2 842L0 842z" /></clipPath><clipPath id="12"><path id="" clip-rule="evenodd" transform="matrix(1 0 0 1 0 0)" d="M44.94 270.06L558.9 270.06L558.9 270.06L558.9 537L558.9 537L44.94 537z" /></clipPath><clipPath id="13"><path id="" clip-rule="evenodd" transform="matrix(1 0 0 1 0 0)" d="M0 0.02001953L595.2 0.02001953L595.2 0.02001953L595.2 842L595.2 842L0 842z" /></clipPath><clipPath id="14"><path id="" clip-rule="evenodd" transform="matrix(1 0 0 1 0 0)" d="M463.92 638.64L474.06 638.64L474.06 638.64L474.06 649.5L474.06 649.5L463.92 649.5z" /></clipPath><clipPath id="15"><path id="" clip-rule="evenodd" transform="matrix(1 0 0 1 0 0)" d="M0 0.02001953L595.2 0.02001953L595.2 0.02001953L595.2 842L595.2 842L0 842z" /></clipPath><clipPath id="16"><path id="" clip-rule="evenodd" transform="matrix(1 0 0 1 0 0)" d="M464.94 639.66L473.1 639.66L473.1 639.66L473.1 648.54L473.1 648.54L464.94 648.54z" /></clipPath><clipPath id="17"><path id="" clip-rule="evenodd" transform="matrix(1 0 0 1 0 0)" d="M463.92 638.64L474.06 638.64L474.06 638.64L474.06 649.5L474.06 649.5L463.92 649.5z" /></clipPath><clipPath id="18"><path id="" clip-rule="evenodd" transform="matrix(1 0 0 1 0 0)" d="M0 0.02001953L595.2 0.02001953L595.2 0.02001953L595.2 842L595.2 842L0 842z" /></clipPath><clipPath id="19"><path id="" clip-rule="evenodd" transform="matrix(1 0 0 1 0 0)" d="M242.94 680.64L253.14 680.64L253.14 680.64L253.14 691.5L253.14 691.5L242.94 691.5z" /></clipPath><clipPath id="20"><path id="" clip-rule="evenodd" transform="matrix(1 0 0 1 0 0)" d="M0 0.02001953L595.2 0.02001953L595.2 0.02001953L595.2 842L595.2 842L0 842z" /></clipPath><clipPath id="21"><path id="" clip-rule="evenodd" transform="matrix(1 0 0 1 0 0)" d="M243.96 681.66L252.12 681.66L252.12 681.66L252.12 690.54L252.12 690.54L243.96 690.54z" /></clipPath><clipPath id="22"><path id="" clip-rule="evenodd" transform="matrix(1 0 0 1 0 0)" d="M242.94 680.64L253.14 680.64L253.14 680.64L253.14 691.5L253.14 691.5L242.94 691.5z" /></clipPath><clipPath id="23"><path id="" clip-rule="evenodd" transform="matrix(1 0 0 1 0 0)" d="M0 0.02001953L595.2 0.02001953L595.2 0.02001953L595.2 842L595.2 842L0 842z" /></clipPath></defs><g transform="matrix(1.333333 0 0 1.333333 0 0)"><g clip-path="url(#1)"><g clip-path="url(#2)"><g clip-path="url(#3)"><path id="839" transform="matrix(1 0 0 -1 0 842)" d="M386.28 607.46L394.44 607.46L394.44 616.34L386.28 616.34z" stroke="none" fill="#FFFFFF" fill-rule="nonzero" /></g></g><g clip-path="url(#4)"><g clip-path="url(#5)"><g clip-path="url(#6)"><g transform="matrix(0.48 0 0 0.4673684 386.28 225.66)"><g transform="matrix(1 0 0 1 0 0)"><image x="0" y="0" xlink:href="img_244.png" width="17" height="19" /></g></g></g></g></g><g clip-path="url(#7)"><g clip-path="url(#8)"><path id="883" transform="matrix(1 0 0 -1 0 842)" d="M45.96 306.02L557.88 306.02L557.88 570.98L45.96 570.98z" stroke="none" fill="#FFFFFF" fill-rule="nonzero" /></g></g><g clip-path="url(#9)"><g clip-path="url(#10)"><g clip-path="url(#11)"><g transform="matrix(0.48 0 0 0.48 45.96 271.02)"><g transform="matrix(1 0 0 1 0 0)"><image x="0" y="0" xlink:href="img_484.png" width="1067" height="552" /></g></g></g></g></g><g clip-path="url(#12)"><g clip-path="url(#13)"><path id="885" transform="matrix(1 0 0 -1 0 842)" d="M78.24 432.26L76.8 432.14L76.8 432.14L76.86 432.2L76.86 432.2L76.14 432.02L76.14 432.02L76.2 432.02L76.2 432.02L75.54 431.78L75.54 431.78L75.6 431.78L75.6 431.78L75 431.48L75 431.48L75.06 431.48L75.06 431.48L74.46 431.12L74.46 431.12L74.46 431.18L74.46 431.18L73.92 430.76L73.92 430.76L73.98 430.76L73.98 430.76L73.43999 430.28L73.43999 430.28L73.5 430.34L73.5 430.34L73.02 429.8L73.02 429.8L73.02 429.86L73.02 429.86L72.6 429.32L72.6 429.32L72.66 429.32L72.66 429.32L72.3 428.72L72.3 428.72L72.3 428.78L72.3 428.78L72 428.18L72 428.18L72 428.24L72 428.24L71.75999 427.58L71.75999 427.58L71.75999 427.64L71.75999 427.64L71.58 426.92L71.58 426.92L71.64 426.98L71.64 426.98L71.52 425.54L71.52 425.54L71.52 425.6L71.52 425.6L71.52 405.2L71.52 405.2L71.64 403.76L71.64 403.76L71.58 403.88L71.58 403.88L71.75999 403.16L71.75999 403.16L71.75999 403.22L71.75999 403.22L72 402.56L72 402.56L72 402.62L72 402.62L72.3 402.02L72.3 402.02L72.66 401.42L72.66 401.42L72.6 401.48L72.6 401.48L73.02 400.94L73.02 400.94L73.5 400.4L73.5 400.4L73.43999 400.46L73.43999 400.46L73.98 399.98L73.98 399.98L73.92 400.04L73.92 400.04L74.46 399.68L74.46 399.68L75.66 398.96L75.66 398.96L75.54 399.02L75.54 399.02L76.2 398.78L76.2 398.78L76.14 398.78L76.14 398.78L76.86 398.6L76.86 398.6L76.8 398.6L76.8 398.6L78.24 398.48L78.24 398.48L78.18 398.48L78.18 398.48L169.86 398.48L169.86 398.48L171.3 398.6L171.3 398.6L171.18 398.6L171.18 398.6L171.84 398.78L171.84 398.78L171.78 398.78L171.78 398.78L172.44 399.02L172.44 399.02L172.38 398.96L172.38 398.96L173.04 399.32L173.04 399.32L173.58 398.42L173.58 398.42L173.52 398.42L173.52 398.42L172.86 398.06L172.86 398.06L172.8 398.06L172.8 398.06L172.14 397.82L172.14 397.82L172.08 397.82L172.08 397.82L171.42 397.64L171.42 397.64L171.36 397.58L171.36 397.58L169.92 397.46L169.92 397.46L78.18 397.46L78.18 397.46L76.74 397.58L76.74 397.58L76.62 397.64L76.62 397.64L75.9 397.82L75.9 397.82L75.84 397.82L75.84 397.82L75.18 398.06L75.18 398.06L75.12 398.06L75.12 398.06L73.92 398.78L73.92 398.78L73.92 398.84L73.92 398.84L73.38 399.2L73.38 399.2L73.32 399.2L73.32 399.2L72.78 399.68L72.78 399.68L72.72 399.74L72.72 399.74L72.24 400.28L72.24 400.28L72.24 400.34L72.24 400.34L71.82 400.88L71.82 400.88L71.75999 400.88L71.75999 400.88L71.39999 401.48L71.39999 401.48L71.39999 401.54L71.39999 401.54L71.1 402.14C 70.807 402.558 70.527 403.886 70.56 404.42L70.56 404.42L70.5 405.14L70.5 405.14L70.5 425.6L70.5 425.6L70.62 427.04L70.62 427.04L70.62 427.16L70.62 427.16L70.8 427.88L70.8 427.88L70.8 427.94L70.8 427.94L71.04 428.6L71.04 428.6L71.1 428.66C 71.993 430.764 74.433 432.907 76.74 433.16L76.74 433.16L78.18 433.28" stroke="none" fill="#FF0000" fill-rule="nonzero" /><path id="886" transform="matrix(1 0 0 -1 0 842)" d="M173.04 399.32L173.64 399.68L173.64 399.68L174.18 400.04L174.18 400.04L174.06 399.98L174.06 399.98L174.54 400.46L174.54 400.46L174.54 400.4L174.54 400.4L175.02 400.94L175.02 400.94L175.44 401.48L175.44 401.48L175.38 401.42L175.38 401.42L175.74 402.02L175.74 402.02L176.04 402.62L176.04 402.62L175.98 402.56L175.98 402.56L176.22 403.22L176.22 403.22L176.22 403.16L176.22 403.16L176.4 403.88L176.4 403.88L176.4 403.82L176.4 403.82L176.52 404.54L176.52 404.54L176.52 404.48L176.52 404.48L176.58 405.2L176.58 405.2L176.58 425.6L176.58 425.6L176.58 425.54L176.58 425.54L176.52 426.26L176.52 426.26L176.52 426.2L176.52 426.2L176.4 426.92L176.4 426.92L176.22 427.64L176.22 427.64L176.22 427.58L176.22 427.58L175.98 428.24L175.98 428.24L176.04 428.18L176.04 428.18L175.74 428.78L175.74 428.78L175.74 428.72L175.74 428.72L175.38 429.32L175.38 429.32L175.44 429.32L175.44 429.32L175.02 429.86L175.02 429.86L175.02 429.8L175.02 429.8L174.54 430.34L174.54 430.34L174.06 430.82L174.06 430.82L174.12 430.76L174.12 430.76L173.58 431.18L173.58 431.18L173.64 431.12L173.64 431.12L173.04 431.48L173.04 431.48L173.1 431.48L173.1 431.48L172.44 431.78L172.44 431.78L171.78 432.02L171.78 432.02L171.84 432.02L171.84 432.02L171.18 432.2L171.18 432.2L171.3 432.14L171.3 432.14L169.86 432.26L169.86 432.26L78.17999 432.26L78.17999 432.26L78.23999 432.26L78.23999 432.26L78.17999 433.28L78.17999 433.28L169.92 433.28L169.92 433.28L171.36 433.16L171.36 433.16L171.42 433.16L171.42 433.16L172.08 432.98L172.08 432.98L172.14 432.98L172.14 432.98L172.8 432.74L172.8 432.74L172.86 432.68L172.86 432.68L173.52 432.38L173.52 432.38L173.58 432.38L173.58 432.38L174.18 432.02L174.18 432.02L174.18 431.96L174.18 431.96L174.72 431.54L174.72 431.54L174.78 431.54L174.78 431.54L175.32 431L175.32 431L175.8 430.46L175.8 430.46L176.22 429.92L176.22 429.92L176.28 429.86L176.28 429.86L176.64 429.26L176.64 429.26L176.94 428.66L176.94 428.66L176.94 428.6L176.94 428.6L177.18 427.94L177.18 427.94L177.18 427.88L177.18 427.88L177.36 427.16L177.36 427.16L177.42 427.1L177.42 427.1L177.54 426.38L177.54 426.38L177.54 426.32L177.54 426.32L177.6 425.6L177.6 425.6L177.6 405.14L177.6 405.14L177.54 404.42L177.54 404.42L177.54 404.36L177.54 404.36L177.42 403.64L177.42 403.64L177.36 403.64L177.36 403.64L177.18 402.92L177.18 402.92L177.18 402.86L177.18 402.86L176.94 402.2L176.94 402.2L176.94 402.14L176.94 402.14L176.64 401.54L176.64 401.54L176.64 401.48L176.64 401.48L176.28 400.88L176.28 400.88L176.22 400.88C 175.753 400.188 175.335 399.756 174.72 399.2L174.72 399.2L174.18 398.84L174.18 398.84L174.18 398.78L174.18 398.78L173.58 398.42" stroke="none" fill="#FF0000" fill-rule="nonzero" /><path id="887" transform="matrix(1 0 0 -1 0 842)" d="M461.04 396.92L460.32 396.86L460.32 396.86L460.38 396.86L460.38 396.86L459.66 396.74L459.66 396.74L459.66 396.8L459.66 396.8L459 396.62L459 396.62L459.06 396.62L459.06 396.62L458.4 396.38L458.4 396.38L458.46 396.38L458.46 396.38L457.8 396.08L457.8 396.08L457.86 396.08L457.86 396.08L457.26 395.72L457.26 395.72L457.26 395.78L457.26 395.78L456.18 394.94L456.18 394.94L456.3 395.06L456.3 395.06L455.46 393.98L455.46 393.98L455.52 393.98L455.52 393.98L455.16 393.38L455.16 393.38L455.16 393.44L455.16 393.44L454.86 392.84L454.86 392.84L454.86 392.9L454.86 392.9L454.62 392.24L454.62 392.24L454.62 392.3L454.62 392.3L454.44 391.58L454.44 391.58L454.5 391.58L454.5 391.58L454.38 390.86L454.38 390.86L454.38 390.92L454.38 390.92L454.32 390.2L454.32 390.2L454.32 390.26L454.32 390.26L454.32 326.48L454.32 326.48L454.38 325.76L454.38 325.76L454.38 325.82L454.38 325.82L454.5 325.1L454.5 325.1L454.44 325.16L454.44 325.16L454.62 324.5L454.62 324.5L454.62 324.56L454.62 324.56L454.86 323.9L454.86 323.9L455.16 323.24L455.16 323.24L455.16 323.3L455.16 323.3L455.52 322.7L455.52 322.7L455.46 322.76L455.46 322.76L456.3 321.68L456.3 321.68L456.18 321.74L456.18 321.74L457.26 320.9L457.26 320.9L457.26 320.96L457.26 320.96L457.86 320.6L457.86 320.6L457.8 320.6L457.8 320.6L458.46 320.3L458.46 320.3L458.4 320.36L458.4 320.36L459.06 320.12L459.06 320.12L459 320.12L459 320.12L459.66 319.94L459.66 319.94L460.38 319.82L460.38 319.82L460.32 319.82L460.32 319.82L461.04 319.76L461.04 319.76L460.98 319.76L460.98 319.76L550.08 319.76L550.08 319.76L550.86 319.82L550.86 319.82L550.8 319.82L550.8 319.82L551.52 319.94L551.52 319.94L551.46 319.94L551.46 319.94L552.12 320.12L552.12 320.12L552.06 320.12L552.06 320.12L552.72 320.36L552.72 320.36L552.72 320.3L552.72 320.3L553.38 320.6L553.38 320.6L553.32 320.6L553.32 320.6L553.86 319.76L553.86 319.76L553.8 319.7L553.8 319.7L553.14 319.4L553.14 319.4L553.08 319.4L553.08 319.4L552.42 319.16L552.42 319.16L552.36 319.16L552.36 319.16L551.7 318.98L551.7 318.98L551.7 318.92L551.7 318.92L550.98 318.8L550.98 318.8L550.92 318.8L550.92 318.8L550.14 318.74L550.14 318.74L460.98 318.74L460.98 318.74L460.26 318.8L460.26 318.8L460.2 318.8L460.2 318.8L459.48 318.92L459.48 318.92L459.42 318.98L459.42 318.98L458.76 319.16L458.76 319.16L458.7 319.16C 457.437 319.514 455.784 320.489 455.1 321.62L455.1 321.62L454.68 322.16L454.68 322.16L454.62 322.16L454.62 322.16L454.26 322.76L454.26 322.76L454.26 322.82L454.26 322.82L453.96 323.48L453.96 323.48L453.9 323.54L453.9 323.54L453.66 324.2L453.66 324.2L453.66 324.26L453.66 324.26L453.48 324.92L453.48 324.92L453.36 325.64L453.36 325.64L453.36 325.7L453.36 325.7L453.3 326.42L453.3 326.42L453.3 390.26L453.3 390.26L453.36 390.98L453.36 390.98L453.36 391.04L453.36 391.04L453.48 391.76L453.48 391.76L453.48 391.82C 453.895 393.99 455.385 395.922 457.32 396.98L457.32 396.98L457.38 396.98L457.38 396.98L458.04 397.28L458.04 397.28L458.04 397.34L458.04 397.34L458.7 397.58L458.7 397.58L458.76 397.58L458.76 397.58L459.42 397.76L459.42 397.76L459.48 397.76L459.48 397.76L460.2 397.88L460.2 397.88L460.26 397.88L460.26 397.88L460.98 397.94" stroke="none" fill="#FF0000" fill-rule="nonzero" /><path id="888" transform="matrix(1 0 0 -1 0 842)" d="M553.32 320.6L553.86 320.96L553.86 320.96L553.8 320.96L553.8 320.96L554.4 321.38L554.4 321.38L554.4 321.32L554.4 321.32L554.88 321.74L554.88 321.74L554.82 321.68L554.82 321.68L555.3 322.22L555.3 322.22L555.72 322.76L555.72 322.76L555.66 322.7L555.66 322.7L556.02 323.3L556.02 323.3L556.02 323.24L556.02 323.24L556.32 323.9L556.32 323.9L556.26 323.9L556.26 323.9L556.5 324.56L556.5 324.56L556.5 324.5L556.5 324.5L556.68 325.16L556.68 325.16L556.68 325.1L556.68 325.1L556.8 325.82L556.8 325.82L556.8 325.76L556.8 325.76L556.8 390.98L556.8 390.98L556.8 390.86L556.8 390.86L556.68 391.58L556.68 391.58L556.5 392.3L556.5 392.3L556.5 392.24L556.5 392.24L556.26 392.9L556.26 392.9L556.32 392.84L556.32 392.84L556.02 393.44L556.02 393.44L556.02 393.38L556.02 393.38L555.66 393.98L555.66 393.98L555.72 393.98L555.72 393.98L555.3 394.52L555.3 394.52L555.3 394.46L555.3 394.46L554.82 395L554.82 395L554.88 394.94L554.88 394.94L554.4 395.36L554.4 395.36L553.8 395.78L553.8 395.78L553.86 395.78L553.86 395.78L553.32 396.14L553.32 396.14L553.38 396.08L553.38 396.08L552.72 396.38L552.72 396.38L552.06 396.62L552.06 396.62L552.12 396.62L552.12 396.62L551.46 396.8L551.46 396.8L551.52 396.74L551.52 396.74L550.8 396.86L550.8 396.86L550.86 396.86L550.86 396.86L550.08 396.92L550.08 396.92L460.98 396.92L460.98 396.92L461.04 396.92L461.04 396.92L460.98 397.94L460.98 397.94L550.08 397.94C 552.126 397.912 554.067 397.138 555.54 395.72L555.54 395.72L555.6 395.66L555.6 395.66L556.08 395.12L556.08 395.12L556.5 394.58C 556.95 393.996 557.247 393.302 557.46 392.6L557.46 392.6L557.46 392.54L557.46 392.54L557.64 391.82L557.64 391.82L557.7 391.76L557.7 391.76L557.82 391.04L557.82 391.04L557.82 325.64L557.82 325.64L557.7 324.92L557.7 324.92L557.64 324.92L557.64 324.92L557.46 324.26L557.46 324.26L557.46 324.2L557.46 324.2L557.22 323.54L557.22 323.54L557.22 323.48L557.22 323.48L556.92 322.82L556.92 322.82L556.92 322.76L556.92 322.76L556.56 322.16L556.56 322.16L556.5 322.16C 555.784 321.153 555.469 320.772 554.4 320.12L554.4 320.12L553.86 319.76" stroke="none" fill="#FF0000" fill-rule="nonzero" /></g></g><g clip-path="url(#14)"><g clip-path="url(#15)"><path id="889" transform="matrix(1 0 0 -1 0 842)" d="M464.94 193.46L473.1 193.46L473.1 202.34L464.94 202.34z" stroke="none" fill="#FFFFFF" fill-rule="nonzero" /></g></g><g clip-path="url(#16)"><g clip-path="url(#17)"><g clip-path="url(#18)"><g transform="matrix(0.48 0 0 0.4673684 464.94 639.66)"><g transform="matrix(1 0 0 1 0 0)"><image x="0" y="0" xlink:href="img_249.png" width="17" height="19" /></g></g></g></g></g><g clip-path="url(#19)"><g clip-path="url(#20)"><path id="891" transform="matrix(1 0 0 -1 0 842)" d="M243.96 151.46L252.12 151.46L252.12 160.34L243.96 160.34z" stroke="none" fill="#FFFFFF" fill-rule="nonzero" /></g></g><g clip-path="url(#21)"><g clip-path="url(#22)"><g clip-path="url(#23)"><g transform="matrix(0.48 0 0 0.4673684 243.96 681.66)"><g transform="matrix(1 0 0 1 0 0)"><image x="0" y="0" xlink:href="img_248.png" width="17" height="19" /></g></g></g></g></g></g></g></svg>