<svg xmlns="http://www.w3.org/2000/svg" xmlns:xlink="http://www.w3.org/1999/xlink" id="body_79" preserveAspectRatio="xMinYMin meet" viewBox="0 0 793 1123"><defs><clipPath id="1"><path id="" clip-rule="evenodd" transform="matrix(1 0 0 1 0 0)" d="M0 842L0 0L0 0L595 0L595 0L595 842L595 842L0 842z" /></clipPath><clipPath id="2"><path id="" clip-rule="evenodd" transform="matrix(1 0 0 1 0 0)" d="M224.94 172.02L413.46 172.02L413.46 172.02L413.46 291.66L413.46 291.66L224.94 291.66z" /></clipPath><clipPath id="3"><path id="" clip-rule="evenodd" transform="matrix(1 0 0 1 0 0)" d="M0 0.02001953L595.2 0.02001953L595.2 0.02001953L595.2 842L595.2 842L0 842z" /></clipPath><clipPath id="4"><path id="" clip-rule="evenodd" transform="matrix(1 0 0 1 0 0)" d="M225.96 173.04L412.44 173.04L412.44 173.04L412.44 290.64L412.44 290.64L225.96 290.64z" /></clipPath><clipPath id="5"><path id="" clip-rule="evenodd" transform="matrix(1 0 0 1 0 0)" d="M224.94 172.02L413.46 172.02L413.46 172.02L413.46 291.66L413.46 291.66L224.94 291.66z" /></clipPath><clipPath id="6"><path id="" clip-rule="evenodd" transform="matrix(1 0 0 1 0 0)" d="M0 0.02001953L595.2 0.02001953L595.2 0.02001953L595.2 842L595.2 842L0 842z" /></clipPath></defs><g transform="matrix(1.333333 0 0 1.333333 0 0)"><g clip-path="url(#1)"><path id="657" transform="matrix(1 0 0 -1 0 842)" d="M224.94 458.36L307.32 458.36L307.32 476.36L224.94 476.36z" stroke="none" fill="#C4DFF7" fill-rule="nonzero" /><path id="667" transform="matrix(1 0 0 -1 0 842)" d="M307.32 458.36L558 458.36L558 476.36L307.32 476.36z" stroke="none" fill="#C4DFF7" fill-rule="nonzero" /><path id="744" transform="matrix(1 0 0 -1 0 842)" d="M224.94 423.56L558 423.56L558 425.06L224.94 425.06z" stroke="none" fill="#000000" fill-rule="nonzero" /><g clip-path="url(#2)"><g clip-path="url(#3)"><path id="745" transform="matrix(1 0 0 -1 0 842)" d="M225.96 551.36L412.44 551.36L412.44 668.96L225.96 668.96z" stroke="none" fill="#FFFFFF" fill-rule="nonzero" /></g></g><g clip-path="url(#4)"><g clip-path="url(#5)"><g clip-path="url(#6)"><g transform="matrix(0.48 0 0 0.48 225.96 173.04)"><g transform="matrix(1 0 0 1 0 0)"><image x="0" y="0" xlink:href="img_192.png" width="389" height="245" /></g></g></g></g></g></g></g></svg>