<svg xmlns="http://www.w3.org/2000/svg" xmlns:xlink="http://www.w3.org/1999/xlink" id="body_136" preserveAspectRatio="xMinYMin meet" viewBox="0 0 793 1123"><defs><clipPath id="1"><path id="" clip-rule="evenodd" transform="matrix(1 0 0 1 0 0)" d="M0 842L0 0L0 0L595 0L595 0L595 842L595 842L0 842z" /></clipPath><clipPath id="2"><path id="" clip-rule="evenodd" transform="matrix(1 0 0 1 0 0)" d="M44.94 103.02L393.36 103.02L393.36 103.02L393.36 326.64L393.36 326.64L44.94 326.64z" /></clipPath><clipPath id="3"><path id="" clip-rule="evenodd" transform="matrix(1 0 0 1 0 0)" d="M0 0.02001953L595.2 0.02001953L595.2 0.02001953L595.2 842L595.2 842L0 842z" /></clipPath><clipPath id="4"><path id="" clip-rule="evenodd" transform="matrix(1 0 0 1 0 0)" d="M45.96 104.04L392.34 104.04L392.34 104.04L392.34 325.62L392.34 325.62L45.96 325.62z" /></clipPath><clipPath id="5"><path id="" clip-rule="evenodd" transform="matrix(1 0 0 1 0 0)" d="M44.94 103.02L393.36 103.02L393.36 103.02L393.36 326.64L393.36 326.64L44.94 326.64z" /></clipPath><clipPath id="6"><path id="" clip-rule="evenodd" transform="matrix(1 0 0 1 0 0)" d="M0 0.02001953L595.2 0.02001953L595.2 0.02001953L595.2 842L595.2 842L0 842z" /></clipPath><clipPath id="7"><path id="" clip-rule="evenodd" transform="matrix(1 0 0 1 0 0)" d="M44.94 488.64L451.08 488.64L451.08 488.64L451.08 741.84L451.08 741.84L44.94 741.84z" /></clipPath><clipPath id="8"><path id="" clip-rule="evenodd" transform="matrix(1 0 0 1 0 0)" d="M0 0.02001953L595.2 0.02001953L595.2 0.02001953L595.2 842L595.2 842L0 842z" /></clipPath><clipPath id="9"><path id="" clip-rule="evenodd" transform="matrix(1 0 0 1 0 0)" d="M45.96 489.66L450.06 489.66L450.06 489.66L450.06 740.82L450.06 740.82L45.96 740.82z" /></clipPath><clipPath id="10"><path id="" clip-rule="evenodd" transform="matrix(1 0 0 1 0 0)" d="M44.94 488.64L451.08 488.64L451.08 488.64L451.08 741.84L451.08 741.84L44.94 741.84z" /></clipPath><clipPath id="11"><path id="" clip-rule="evenodd" transform="matrix(1 0 0 1 0 0)" d="M0 0.02001953L595.2 0.02001953L595.2 0.02001953L595.2 842L595.2 842L0 842z" /></clipPath></defs><g transform="matrix(1.333333 0 0 1.333333 0 0)"><g clip-path="url(#1)"><g clip-path="url(#2)"><g clip-path="url(#3)"><path id="504" transform="matrix(1 0 0 -1 0 842)" d="M45.96 516.38L392.34 516.38L392.34 737.96L45.96 737.96z" stroke="none" fill="#FFFFFF" fill-rule="nonzero" /></g></g><g clip-path="url(#4)"><g clip-path="url(#5)"><g clip-path="url(#6)"><g transform="matrix(0.4799723 0 0 0.4796104 45.96 104.04)"><g transform="matrix(1 0 0 1 0 0)"><image x="0" y="0" xlink:href="img_347.png" width="722" height="462" /></g></g></g></g></g><g clip-path="url(#7)"><g clip-path="url(#8)"><path id="539" transform="matrix(1 0 0 -1 0 842)" d="M45.96 101.18L450.06 101.18L450.06 352.34L45.96 352.34z" stroke="none" fill="#FFFFFF" fill-rule="nonzero" /></g></g><g clip-path="url(#9)"><g clip-path="url(#10)"><g clip-path="url(#11)"><g transform="matrix(0.4800309 0 0 0.479313 45.96 489.66)"><g transform="matrix(1 0 0 1 0 0)"><image x="0" y="0" xlink:href="img_348.png" width="842" height="524" /></g></g></g></g></g></g></g></svg>