<svg xmlns="http://www.w3.org/2000/svg" xmlns:xlink="http://www.w3.org/1999/xlink" id="body_40" preserveAspectRatio="xMinYMin meet" viewBox="0 0 793 1123"><defs><clipPath id="1"><path id="" clip-rule="evenodd" transform="matrix(1 0 0 1 0 0)" d="M0 842L0 0L0 0L595 0L595 0L595 842L595 842L0 842z" /></clipPath><clipPath id="2"><path id="" clip-rule="evenodd" transform="matrix(1 0 0 1 0 0)" d="M35.94 502.02L54.54 502.02L54.54 502.02L54.54 519.9L54.54 519.9L35.94 519.9z" /></clipPath><clipPath id="3"><path id="" clip-rule="evenodd" transform="matrix(1 0 0 1 0 0)" d="M0 0.02001953L595.2 0.02001953L595.2 0.02001953L595.2 842L595.2 842L0 842z" /></clipPath><clipPath id="4"><path id="" clip-rule="evenodd" transform="matrix(1 0 0 1 0 0)" d="M36.96 503.04L53.52 503.04L53.52 503.04L53.52 518.88L53.52 518.88L36.96 518.88z" /></clipPath><clipPath id="5"><path id="" clip-rule="evenodd" transform="matrix(1 0 0 1 0 0)" d="M35.94 502.02L54.54 502.02L54.54 502.02L54.54 519.9L54.54 519.9L35.94 519.9z" /></clipPath><clipPath id="6"><path id="" clip-rule="evenodd" transform="matrix(1 0 0 1 0 0)" d="M0 0.02001953L595.2 0.02001953L595.2 0.02001953L595.2 842L595.2 842L0 842z" /></clipPath><clipPath id="7"><path id="" clip-rule="evenodd" transform="matrix(1 0 0 1 0 0)" d="M35.94 536.04L54.54 536.04L54.54 536.04L54.54 553.92L54.54 553.92L35.94 553.92z" /></clipPath><clipPath id="8"><path id="" clip-rule="evenodd" transform="matrix(1 0 0 1 0 0)" d="M0 0.02001953L595.2 0.02001953L595.2 0.02001953L595.2 842L595.2 842L0 842z" /></clipPath><clipPath id="9"><path id="" clip-rule="evenodd" transform="matrix(1 0 0 1 0 0)" d="M36.96 537.06L53.52 537.06L53.52 537.06L53.52 552.9L53.52 552.9L36.96 552.9z" /></clipPath><clipPath id="10"><path id="" clip-rule="evenodd" transform="matrix(1 0 0 1 0 0)" d="M35.94 536.04L54.54 536.04L54.54 536.04L54.54 553.92L54.54 553.92L35.94 553.92z" /></clipPath><clipPath id="11"><path id="" clip-rule="evenodd" transform="matrix(1 0 0 1 0 0)" d="M0 0.02001953L595.2 0.02001953L595.2 0.02001953L595.2 842L595.2 842L0 842z" /></clipPath><clipPath id="12"><path id="" clip-rule="evenodd" transform="matrix(1 0 0 1 0 0)" d="M35.94 584.04L54.54 584.04L54.54 584.04L54.54 601.92L54.54 601.92L35.94 601.92z" /></clipPath><clipPath id="13"><path id="" clip-rule="evenodd" transform="matrix(1 0 0 1 0 0)" d="M0 0.02001953L595.2 0.02001953L595.2 0.02001953L595.2 842L595.2 842L0 842z" /></clipPath><clipPath id="14"><path id="" clip-rule="evenodd" transform="matrix(1 0 0 1 0 0)" d="M36.96 585.06L53.52 585.06L53.52 585.06L53.52 600.9L53.52 600.9L36.96 600.9z" /></clipPath><clipPath id="15"><path id="" clip-rule="evenodd" transform="matrix(1 0 0 1 0 0)" d="M35.94 584.04L54.54 584.04L54.54 584.04L54.54 601.92L54.54 601.92L35.94 601.92z" /></clipPath><clipPath id="16"><path id="" clip-rule="evenodd" transform="matrix(1 0 0 1 0 0)" d="M0 0.02001953L595.2 0.02001953L595.2 0.02001953L595.2 842L595.2 842L0 842z" /></clipPath><clipPath id="17"><path id="" clip-rule="evenodd" transform="matrix(1 0 0 1 0 0)" d="M35.94 666.06L54.54 666.06L54.54 666.06L54.54 683.94L54.54 683.94L35.94 683.94z" /></clipPath><clipPath id="18"><path id="" clip-rule="evenodd" transform="matrix(1 0 0 1 0 0)" d="M0 0.02001953L595.2 0.02001953L595.2 0.02001953L595.2 842L595.2 842L0 842z" /></clipPath><clipPath id="19"><path id="" clip-rule="evenodd" transform="matrix(1 0 0 1 0 0)" d="M36.96 667.08L53.52 667.08L53.52 667.08L53.52 682.92L53.52 682.92L36.96 682.92z" /></clipPath><clipPath id="20"><path id="" clip-rule="evenodd" transform="matrix(1 0 0 1 0 0)" d="M35.94 666.06L54.54 666.06L54.54 666.06L54.54 683.94L54.54 683.94L35.94 683.94z" /></clipPath><clipPath id="21"><path id="" clip-rule="evenodd" transform="matrix(1 0 0 1 0 0)" d="M0 0.02001953L595.2 0.02001953L595.2 0.02001953L595.2 842L595.2 842L0 842z" /></clipPath></defs><g transform="matrix(1.333333 0 0 1.333333 0 0)"><g clip-path="url(#1)"><path id="507" transform="matrix(1 0 0 -1 0 842)" d="M35.94 345.98L209.82 345.98L209.82 363.98L35.94 363.98z" stroke="none" fill="#C4DFF7" fill-rule="nonzero" /><path id="515" transform="matrix(1 0 0 -1 0 842)" d="M209.82 345.98L549 345.98L549 363.98L209.82 363.98z" stroke="none" fill="#C4DFF7" fill-rule="nonzero" /><path id="1156" transform="matrix(1 0 0 -1 0 842)" d="M35.94 311.72L549 311.72L549 312.2L35.94 312.2z" stroke="none" fill="#000000" fill-rule="nonzero" /><path id="1157" transform="matrix(1 0 0 -1 0 842)" d="M35.94 263.72L549 263.72L549 264.2L35.94 264.2z" stroke="none" fill="#000000" fill-rule="nonzero" /><path id="1158" transform="matrix(1 0 0 -1 0 842)" d="M35.94 229.7L549 229.7L549 230.18L35.94 230.18z" stroke="none" fill="#000000" fill-rule="nonzero" /><path id="1159" transform="matrix(1 0 0 -1 0 842)" d="M35.94 181.7L549 181.7L549 182.18L35.94 182.18z" stroke="none" fill="#000000" fill-rule="nonzero" /><path id="1160" transform="matrix(1 0 0 -1 0 842)" d="M35.94 123.14L549 123.14L549 124.64L35.94 124.64z" stroke="none" fill="#000000" fill-rule="nonzero" /><g clip-path="url(#2)"><g clip-path="url(#3)"><path id="1161" transform="matrix(1 0 0 -1 0 842)" d="M36.96 323.12L53.52 323.12L53.52 338.96L36.96 338.96z" stroke="none" fill="#FFFFFF" fill-rule="nonzero" /></g></g><g clip-path="url(#4)"><g clip-path="url(#5)"><g clip-path="url(#6)"><g transform="matrix(0.48 0 0 0.48 36.96 503.04)"><g transform="matrix(1 0 0 1 0 0)"><image x="0" y="0" xlink:href="img_88.png" width="35" height="33" /></g></g></g></g></g><g clip-path="url(#7)"><g clip-path="url(#8)"><path id="1163" transform="matrix(1 0 0 -1 0 842)" d="M36.96 289.1L53.52 289.1L53.52 304.94L36.96 304.94z" stroke="none" fill="#FFFFFF" fill-rule="nonzero" /></g></g><g clip-path="url(#9)"><g clip-path="url(#10)"><g clip-path="url(#11)"><g transform="matrix(0.48 0 0 0.48 36.96 537.06)"><g transform="matrix(1 0 0 1 0 0)"><image x="0" y="0" xlink:href="img_89.png" width="35" height="33" /></g></g></g></g></g><g clip-path="url(#12)"><g clip-path="url(#13)"><path id="1165" transform="matrix(1 0 0 -1 0 842)" d="M36.96 241.1L53.52 241.1L53.52 256.94L36.96 256.94z" stroke="none" fill="#FFFFFF" fill-rule="nonzero" /></g></g><g clip-path="url(#14)"><g clip-path="url(#15)"><g clip-path="url(#16)"><g transform="matrix(0.48 0 0 0.48 36.96 585.06)"><g transform="matrix(1 0 0 1 0 0)"><image x="0" y="0" xlink:href="img_90.png" width="35" height="33" /></g></g></g></g></g><g clip-path="url(#17)"><g clip-path="url(#18)"><path id="1167" transform="matrix(1 0 0 -1 0 842)" d="M36.96 159.08L53.52 159.08L53.52 174.92L36.96 174.92z" stroke="none" fill="#FFFFFF" fill-rule="nonzero" /></g></g><g clip-path="url(#19)"><g clip-path="url(#20)"><g clip-path="url(#21)"><g transform="matrix(0.48 0 0 0.48 36.96 667.08)"><g transform="matrix(1 0 0 1 0 0)"><image x="0" y="0" xlink:href="img_91.png" width="35" height="33" /></g></g></g></g></g></g></g></svg>