<svg xmlns="http://www.w3.org/2000/svg" xmlns:xlink="http://www.w3.org/1999/xlink" id="body_155" preserveAspectRatio="xMinYMin meet" viewBox="0 0 793 1123"><defs><clipPath id="1"><path id="" clip-rule="evenodd" transform="matrix(1 0 0 1 0 0)" d="M0 842L0 0L0 0L595 0L595 0L595 842L595 842L0 842z" /></clipPath><clipPath id="2"><path id="" clip-rule="evenodd" transform="matrix(1 0 0 1 0 0)" d="M275.4 214.68L285.54 214.68L285.54 214.68L285.54 225.54L285.54 225.54L275.4 225.54z" /></clipPath><clipPath id="3"><path id="" clip-rule="evenodd" transform="matrix(1 0 0 1 0 0)" d="M0 0.02001953L595.2 0.02001953L595.2 0.02001953L595.2 842L595.2 842L0 842z" /></clipPath><clipPath id="4"><path id="" clip-rule="evenodd" transform="matrix(1 0 0 1 0 0)" d="M276.42 215.64L284.58 215.64L284.58 215.64L284.58 224.52L284.58 224.52L276.42 224.52z" /></clipPath><clipPath id="5"><path id="" clip-rule="evenodd" transform="matrix(1 0 0 1 0 0)" d="M275.4 214.68L285.54 214.68L285.54 214.68L285.54 225.54L285.54 225.54L275.4 225.54z" /></clipPath><clipPath id="6"><path id="" clip-rule="evenodd" transform="matrix(1 0 0 1 0 0)" d="M0 0.02001953L595.2 0.02001953L595.2 0.02001953L595.2 842L595.2 842L0 842z" /></clipPath><clipPath id="7"><path id="" clip-rule="evenodd" transform="matrix(1 0 0 1 0 0)" d="M44.94 260.04L557.94 260.04L557.94 260.04L557.94 442.26L557.94 442.26L44.94 442.26z" /></clipPath><clipPath id="8"><path id="" clip-rule="evenodd" transform="matrix(1 0 0 1 0 0)" d="M0 0.02001953L595.2 0.02001953L595.2 0.02001953L595.2 842L595.2 842L0 842z" /></clipPath><clipPath id="9"><path id="" clip-rule="evenodd" transform="matrix(1 0 0 1 0 0)" d="M45.96 261.06L556.92 261.06L556.92 261.06L556.92 441.3L556.92 441.3L45.96 441.3z" /></clipPath><clipPath id="10"><path id="" clip-rule="evenodd" transform="matrix(1 0 0 1 0 0)" d="M44.94 260.04L557.94 260.04L557.94 260.04L557.94 442.26L557.94 442.26L44.94 442.26z" /></clipPath><clipPath id="11"><path id="" clip-rule="evenodd" transform="matrix(1 0 0 1 0 0)" d="M0 0.02001953L595.2 0.02001953L595.2 0.02001953L595.2 842L595.2 842L0 842z" /></clipPath><clipPath id="12"><path id="" clip-rule="evenodd" transform="matrix(1 0 0 1 0 0)" d="M44.94 260.04L557.94 260.04L557.94 260.04L557.94 442.26L557.94 442.26L44.94 442.26z" /></clipPath><clipPath id="13"><path id="" clip-rule="evenodd" transform="matrix(1 0 0 1 0 0)" d="M0 0.02001953L595.2 0.02001953L595.2 0.02001953L595.2 842L595.2 842L0 842z" /></clipPath><clipPath id="14"><path id="" clip-rule="evenodd" transform="matrix(1 0 0 1 0 0)" d="M464.34 543.9L474.48 543.9L474.48 543.9L474.48 554.82L474.48 554.82L464.34 554.82z" /></clipPath><clipPath id="15"><path id="" clip-rule="evenodd" transform="matrix(1 0 0 1 0 0)" d="M0 0.02001953L595.2 0.02001953L595.2 0.02001953L595.2 842L595.2 842L0 842z" /></clipPath><clipPath id="16"><path id="" clip-rule="evenodd" transform="matrix(1 0 0 1 0 0)" d="M465.36 544.92L473.52 544.92L473.52 544.92L473.52 553.8L473.52 553.8L465.36 553.8z" /></clipPath><clipPath id="17"><path id="" clip-rule="evenodd" transform="matrix(1 0 0 1 0 0)" d="M464.34 543.9L474.48 543.9L474.48 543.9L474.48 554.82L474.48 554.82L464.34 554.82z" /></clipPath><clipPath id="18"><path id="" clip-rule="evenodd" transform="matrix(1 0 0 1 0 0)" d="M0 0.02001953L595.2 0.02001953L595.2 0.02001953L595.2 842L595.2 842L0 842z" /></clipPath><clipPath id="19"><path id="" clip-rule="evenodd" transform="matrix(1 0 0 1 0 0)" d="M396.72 571.92L406.86 571.92L406.86 571.92L406.86 582.78L406.86 582.78L396.72 582.78z" /></clipPath><clipPath id="20"><path id="" clip-rule="evenodd" transform="matrix(1 0 0 1 0 0)" d="M0 0.02001953L595.2 0.02001953L595.2 0.02001953L595.2 842L595.2 842L0 842z" /></clipPath><clipPath id="21"><path id="" clip-rule="evenodd" transform="matrix(1 0 0 1 0 0)" d="M397.68 572.94L405.84 572.94L405.84 572.94L405.84 581.82L405.84 581.82L397.68 581.82z" /></clipPath><clipPath id="22"><path id="" clip-rule="evenodd" transform="matrix(1 0 0 1 0 0)" d="M396.72 571.92L406.86 571.92L406.86 571.92L406.86 582.78L406.86 582.78L396.72 582.78z" /></clipPath><clipPath id="23"><path id="" clip-rule="evenodd" transform="matrix(1 0 0 1 0 0)" d="M0 0.02001953L595.2 0.02001953L595.2 0.02001953L595.2 842L595.2 842L0 842z" /></clipPath><clipPath id="24"><path id="" clip-rule="evenodd" transform="matrix(1 0 0 1 0 0)" d="M270.72 634.92L280.86 634.92L280.86 634.92L280.86 645.78L280.86 645.78L270.72 645.78z" /></clipPath><clipPath id="25"><path id="" clip-rule="evenodd" transform="matrix(1 0 0 1 0 0)" d="M0 0.02001953L595.2 0.02001953L595.2 0.02001953L595.2 842L595.2 842L0 842z" /></clipPath><clipPath id="26"><path id="" clip-rule="evenodd" transform="matrix(1 0 0 1 0 0)" d="M271.74 635.94L279.9 635.94L279.9 635.94L279.9 644.82L279.9 644.82L271.74 644.82z" /></clipPath><clipPath id="27"><path id="" clip-rule="evenodd" transform="matrix(1 0 0 1 0 0)" d="M270.72 634.92L280.86 634.92L280.86 634.92L280.86 645.78L280.86 645.78L270.72 645.78z" /></clipPath><clipPath id="28"><path id="" clip-rule="evenodd" transform="matrix(1 0 0 1 0 0)" d="M0 0.02001953L595.2 0.02001953L595.2 0.02001953L595.2 842L595.2 842L0 842z" /></clipPath></defs><g transform="matrix(1.333333 0 0 1.333333 0 0)"><g clip-path="url(#1)"><g clip-path="url(#2)"><g clip-path="url(#3)"><path id="1106" transform="matrix(1 0 0 -1 0 842)" d="M276.42 617.48L284.58 617.48L284.58 626.36L276.42 626.36z" stroke="none" fill="#FFFFFF" fill-rule="nonzero" /></g></g><g clip-path="url(#4)"><g clip-path="url(#5)"><g clip-path="url(#6)"><g transform="matrix(0.48 0 0 0.4673684 276.42 215.64)"><g transform="matrix(1 0 0 1 0 0)"><image x="0" y="0" xlink:href="img_249.png" width="17" height="19" /></g></g></g></g></g><g clip-path="url(#7)"><g clip-path="url(#8)"><path id="1142" transform="matrix(1 0 0 -1 0 842)" d="M45.96 400.7L556.92 400.7L556.92 580.94L45.96 580.94z" stroke="none" fill="#FFFFFF" fill-rule="nonzero" /></g></g><g clip-path="url(#9)"><g clip-path="url(#10)"><g clip-path="url(#11)"><g transform="matrix(0.48 0 0 0.4793617 45.96 261.06)"><g transform="matrix(1 0 0 1 0 0)"><image x="0" y="0" xlink:href="img_387.png" width="1065" height="376" /></g></g></g></g></g><g clip-path="url(#12)"><g clip-path="url(#13)"><path id="1144" transform="matrix(1 0 0 -1 0 842)" d="M92.46 458.24L91.74 458.24L91.74 458.24L91.86 458.24L91.86 458.24L91.14 458.12L91.14 458.12L91.14 458.18L91.14 458.18L90.42 458L90.42 458L90.48 458L90.48 458L89.82 457.76L89.82 457.76L89.88 457.76L89.88 457.76L89.28 457.46L89.28 457.46L89.34 457.46L89.34 457.46L88.74 457.1L88.74 457.1L88.74 457.16L88.74 457.16L88.2 456.74L88.2 456.74L88.26 456.74L88.26 456.74L87.72 456.26L87.72 456.26L87.72 456.32L87.72 456.32L87.24 455.84L87.24 455.84L87.3 455.9L87.3 455.9L86.88 455.3L86.88 455.3L86.52 454.76L86.52 454.76L86.58 454.82L86.58 454.82L86.28 454.16L86.28 454.16L86.28 454.22L86.28 454.22L86.04 453.56L86.04 453.56L86.04 453.62L86.04 453.62L85.86 452.96L85.86 452.96L85.92 453.02L85.92 453.02L85.86 452.3L85.86 452.3L85.8 451.52L85.8 451.52L85.8 451.58L85.8 451.58L85.8 448.58L85.8 448.58L85.92 447.14L85.92 447.14L85.86 447.26L85.86 447.26L86.04 446.6L86.04 446.6L86.04 446.66L86.04 446.66L86.28 446L86.28 446L86.58 445.34L86.58 445.34L86.58 445.4L86.58 445.4L86.94 444.8L86.94 444.8L86.88 444.86L86.88 444.86L87.3 444.32L87.3 444.32L87.24 444.38L87.24 444.38L87.72 443.9L87.72 443.9L88.26 443.42L88.26 443.42L88.2 443.42L88.2 443.42L88.74 443L88.74 443L88.74 443.06L88.74 443.06L89.34 442.7L89.34 442.7L89.28 442.7L89.28 442.7L89.88 442.4L89.88 442.4L89.82 442.46L89.82 442.46L90.48 442.22L90.48 442.22L90.42 442.22L90.42 442.22L91.14 442.04L91.14 442.04L91.86 441.92L91.86 441.92L91.8 441.92L91.8 441.92L92.52 441.86L92.52 441.86L92.46 441.86L92.46 441.86L139.26 441.86L139.26 441.86L139.98 441.92L139.98 441.92L139.92 441.92L139.92 441.92L140.64 442.04L140.64 442.04L140.58 442.04L140.58 442.04L141.3 442.22L141.3 442.22L141.24 442.22L141.24 442.22L141.9 442.46L141.9 442.46L141.84 442.4L141.84 442.4L142.44 442.7L142.44 442.7L142.98 441.8L142.98 441.8L142.92 441.8L142.92 441.8L142.32 441.5L142.32 441.5L142.26 441.5L142.26 441.5L141.6 441.26L141.6 441.26L141.54 441.26L141.54 441.26L140.82 441.08L140.82 441.08L140.82 441.02L140.82 441.02L140.1 440.9L140.1 440.9L140.04 440.9L140.04 440.9L139.32 440.84L139.32 440.84L92.46 440.84L92.46 440.84L91.74 440.9L91.74 440.9L91.68 440.9L91.68 440.9L90.96 441.02L90.96 441.02L90.9 441.08L90.9 441.08L90.18 441.26L90.18 441.26L90.12 441.26L90.12 441.26L89.46 441.5L89.46 441.5L89.4 441.5L89.4 441.5L88.8 441.8L88.8 441.8L88.2 442.16L88.2 442.16L88.14 442.22L88.14 442.22L87.6 442.64L87.6 442.64L87.06 443.12L87.06 443.12L86.52 443.66L86.52 443.66L86.52 443.72L86.52 443.72L86.1 444.26L86.1 444.26L86.04 444.26L86.04 444.26L85.68 444.86L85.68 444.86L85.68 444.92C 85.329 445.606 85.02 446.313 84.9 447.08L84.9 447.08L84.78 448.52C 84.844 449.998 84.607 452.4 85.08 453.86L85.08 453.86L85.08 453.92L85.08 453.92L85.32 454.58L85.32 454.58L85.38 454.58L85.38 454.58L85.68 455.24L85.68 455.24L85.68 455.3C 86.459 456.564 86.445 456.578 87.6 457.52L87.6 457.52L88.14 457.94L88.14 457.94L88.2 458C 89.484 458.823 90.188 459.06 91.68 459.26L91.68 459.26L92.46 459.26" stroke="none" fill="#FF0000" fill-rule="nonzero" /><path id="1145" transform="matrix(1 0 0 -1 0 842)" d="M142.44 442.7L143.04 443.06L143.04 443.06L142.98 443L142.98 443L143.52 443.42L143.52 443.42L144.06 443.9L144.06 443.9L144 443.9L144 443.9L144.48 444.38L144.48 444.38L144.42 444.26L144.42 444.26L144.78 444.8L144.78 444.8L145.14 445.4L145.14 445.4L145.5 446.06L145.5 446.06L145.44 446L145.44 446L145.68 446.66L145.68 446.66L145.68 446.6L145.68 446.6L145.86 447.26L145.86 447.26L145.86 447.14L145.86 447.14L145.98 448.58L145.98 448.58L145.98 451.58L145.98 451.58L145.98 451.52L145.98 451.52L145.92 452.3L145.92 452.3L145.86 453.02L145.86 453.02L145.86 452.96L145.86 452.96L145.68 453.62L145.68 453.62L145.68 453.56L145.68 453.56L145.44 454.22L145.44 454.22L145.5 454.16L145.5 454.16L145.14 454.82L145.14 454.82L145.14 454.76L145.14 454.76L144.78 455.3L144.78 455.3L144.42 455.9L144.42 455.9L144.48 455.84L144.48 455.84L144 456.32L144 456.32L144.06 456.26L144.06 456.26L143.52 456.74L143.52 456.74L142.98 457.16L142.98 457.16L143.04 457.1L143.04 457.1L142.44 457.46L142.44 457.46L141.84 457.76L141.84 457.76L141.9 457.76L141.9 457.76L141.24 458L141.24 458L141.3 458L141.3 458L140.58 458.18L140.58 458.18L140.64 458.12L140.64 458.12L139.92 458.24L139.92 458.24L139.98 458.24L139.98 458.24L92.46001 458.24L92.46001 458.24L92.46001 459.26L92.46001 459.26L140.1 459.26L140.1 459.26L140.82 459.14L140.82 459.14L141.54 458.96L141.54 458.96L141.6 458.96L141.6 458.96L142.26 458.72L142.26 458.72L142.32 458.66L142.32 458.66L142.92 458.36L142.92 458.36L142.98 458.36L142.98 458.36L143.58 458L143.58 458L143.58 457.94C 144.259 457.465 144.735 457.066 145.32 456.44L145.32 456.44L145.68 455.84L145.68 455.84L145.62 455.84L145.62 455.84L145.98 455.3L145.98 455.3L146.04 455.3L146.04 455.3L146.4 454.64L146.4 454.64L146.4 454.58C 147.054 452.966 147.012 451.869 147 450.08L147 450.08L147 448.52C 146.965 447.266 146.682 446.009 146.04 444.92L146.04 444.92L146.04 444.86L146.04 444.86L145.68 444.26L145.68 444.26L145.62 444.26L145.62 444.26L145.26 443.72C 144.704 443.105 144.272 442.687 143.58 442.22L143.58 442.22L143.58 442.16L143.58 442.16L142.98 441.8" stroke="none" fill="#FF0000" fill-rule="nonzero" /><path id="1146" transform="matrix(1 0 0 -1 0 842)" d="M361.2 517.46L359.76 517.34L359.76 517.34L359.82 517.4L359.82 517.4L359.16 517.22L359.16 517.22L359.22 517.22L359.22 517.22L358.56 516.98L358.56 516.98L358.62 516.98L358.62 516.98L357.96 516.68L357.96 516.68L358.02 516.68L358.02 516.68L357.42 516.32L357.42 516.32L357.42 516.38L357.42 516.38L356.88 515.96L356.88 515.96L356.94 516.02L356.94 516.02L356.46 515.54L356.46 515.54L356.52 515.54L356.52 515.54L356.04 515L356.04 515L356.04 515.06L356.04 515.06L355.62 514.52L355.62 514.52L355.68 514.52L355.68 514.52L355.32 513.92L355.32 513.92L355.32 513.98L355.32 513.98L355.02 513.38L355.02 513.38L355.02 513.44L355.02 513.44L354.78 512.78L354.78 512.78L354.78 512.84L354.78 512.84L354.6 512.12L354.6 512.12L354.66 512.12L354.66 512.12L354.54 511.4L354.54 511.4L354.54 511.46L354.54 511.46L354.48 510.74L354.48 510.74L354.48 510.8L354.48 510.8L354.48 417.32L354.48 417.32L354.54 416.6L354.54 416.6L354.54 416.66L354.54 416.66L354.66 415.94L354.66 415.94L354.6 416L354.6 416L354.78 415.28L354.78 415.28L354.78 415.34L354.78 415.34L355.02 414.68L355.02 414.68L355.02 414.74L355.02 414.74L355.32 414.14L355.32 414.14L355.68 413.54L355.68 413.54L355.62 413.6L355.62 413.6L356.04 413.06L356.04 413.06L356.52 412.52L356.52 412.52L356.46 412.58L356.46 412.58L356.94 412.1L356.94 412.1L356.88 412.16L356.88 412.16L357.42 411.8L357.42 411.8L358.02 411.44L358.02 411.44L357.96 411.44L357.96 411.44L359.28 410.84L359.28 410.84L359.16 410.9L359.16 410.9L359.82 410.78L359.82 410.78L360.54 410.66L360.54 410.66L360.48 410.66L360.48 410.66L361.2 410.6L361.2 410.6L361.14 410.6L361.14 410.6L509.88 410.6L509.88 410.6L510.66 410.66L510.66 410.66L510.6 410.66L510.6 410.66L511.32 410.78L511.32 410.78L511.98 410.9L511.98 410.9L511.86 410.84L511.86 410.84L513.18 411.44L513.18 411.44L513.12 411.44L513.12 411.44L513.66 410.6L513.66 410.6L513.6 410.54L513.6 410.54L512.94 410.24C 512.194 409.737 510.771 409.627 509.88 409.58L509.88 409.58L361.14 409.58C 359.457 409.71 359.054 409.767 357.54 410.54L357.54 410.54L357.48 410.54L357.48 410.54L356.88 410.9L356.88 410.9L356.88 410.96L356.88 410.96L356.34 411.32C 355.713 411.738 355.287 412.413 354.84 413L354.84 413L354.78 413L354.78 413L354.42 413.6L354.42 413.6L354.42 413.66L354.42 413.66L354.12 414.26L354.12 414.26L354.06 414.32L354.06 414.32L353.82 414.98L353.82 414.98L353.82 415.04L353.82 415.04L353.64 415.76L353.64 415.76L353.52 416.48L353.52 416.48L353.52 416.54L353.52 416.54L353.46 417.26L353.46 417.26L353.46 510.8L353.46 510.8L353.52 511.52L353.52 511.52L353.52 511.58L353.52 511.58L353.64 512.3L353.64 512.3L353.64 512.36L353.64 512.36L353.82 513.08L353.82 513.08L353.82 513.14C 353.971 513.688 354.514 514.705 354.84 515.12L354.84 515.12L355.26 515.66L355.26 515.66L355.74 516.2L355.74 516.2L355.74 516.26L355.74 516.26L356.22 516.7401L356.22 516.7401L356.28 516.7401L356.28 516.7401L356.82 517.16L356.82 517.16L356.88 517.22L356.88 517.22L357.48 517.58L357.48 517.58L357.54 517.58L357.54 517.58L358.2 517.88L358.2 517.88L358.2 517.94L358.2 517.94L358.86 518.18L358.86 518.18L358.92 518.18L358.92 518.18L359.58 518.36L359.58 518.36L359.7 518.36L359.7 518.36L361.14 518.48" stroke="none" fill="#FF0000" fill-rule="nonzero" /><path id="1147" transform="matrix(1 0 0 -1 0 842)" d="M513.12 411.44L513.66 411.8L513.66 411.8L514.26 412.16L514.26 412.16L514.14 412.1L514.14 412.1L514.62 412.58L514.62 412.58L514.62 412.52L514.62 412.52L515.1 413.06L515.1 413.06L515.52 413.6L515.52 413.6L515.46 413.54L515.46 413.54L515.82 414.14L515.82 414.14L516.12 414.74L516.12 414.74L516.06 414.68L516.06 414.68L516.3 415.34L516.3 415.34L516.3 415.28L516.3 415.28L516.48 416L516.48 416L516.48 415.94L516.48 415.94L516.6 416.66L516.6 416.66L516.6 416.6L516.6 416.6L516.6 511.52L516.6 511.52L516.6 511.4L516.6 511.4L516.48 512.12L516.48 512.12L516.3 512.84L516.3 512.84L516.3 512.78L516.3 512.78L516.06 513.44L516.06 513.44L516.12 513.38L516.12 513.38L515.82 513.98L515.82 513.98L515.82 513.92L515.82 513.92L515.46 514.52L515.46 514.52L515.52 514.52L515.52 514.52L515.1 515.06L515.1 515.06L515.1 515L515.1 515L514.62 515.54L514.62 515.54L514.14 516.02L514.14 516.02L514.2 515.96L514.2 515.96L513.6 516.38L513.6 516.38L513.66 516.38L513.66 516.38L513.12 516.74L513.12 516.74L513.18 516.68L513.18 516.68L512.52 516.98L512.52 516.98L511.86 517.22L511.86 517.22L511.92 517.22L511.92 517.22L511.26 517.4L511.26 517.4L511.38 517.34L511.38 517.34L510.66 517.4L510.66 517.4L509.88 517.46L509.88 517.46L361.14 517.46L361.14 517.46L361.2 517.46L361.2 517.46L361.14 518.48L361.14 518.48L509.88 518.48C 511.908 518.52 513.953 517.755 515.34 516.26L515.34 516.26L515.4 516.2L515.4 516.2L515.88 515.66L515.88 515.66L516.3 515.12C 516.75 514.536 517.047 513.842 517.26 513.14L517.26 513.14L517.26 513.08L517.26 513.08L517.44 512.36L517.44 512.36L517.5 512.3L517.5 512.3L517.62 511.58L517.62 511.58L517.62 416.48L517.62 416.48L517.5 415.76L517.5 415.76L517.44 415.76L517.44 415.76L517.26 415.04L517.26 415.04L517.26 414.98L517.26 414.98L517.02 414.32L517.02 414.32L517.02 414.26L517.02 414.26L516.72 413.66L516.72 413.66L516.72 413.6L516.72 413.6L516.36 413L516.36 413L516.3 413L516.3 413L515.88 412.46L515.88 412.46L515.88 412.4L515.88 412.4L515.4 411.86L515.4 411.86L515.34 411.86L515.34 411.86L514.86 411.38L514.86 411.38L514.8 411.26L514.8 411.26L514.2 410.9L514.2 410.9L514.2 410.96L514.2 410.96L513.66 410.6" stroke="none" fill="#FF0000" fill-rule="nonzero" /></g></g><g clip-path="url(#14)"><g clip-path="url(#15)"><path id="1148" transform="matrix(1 0 0 -1 0 842)" d="M465.36 288.2L473.52 288.2L473.52 297.08L465.36 297.08z" stroke="none" fill="#FFFFFF" fill-rule="nonzero" /></g></g><g clip-path="url(#16)"><g clip-path="url(#17)"><g clip-path="url(#18)"><g transform="matrix(0.48 0 0 0.4673684 465.36 544.92)"><g transform="matrix(1 0 0 1 0 0)"><image x="0" y="0" xlink:href="img_249.png" width="17" height="19" /></g></g></g></g></g><g clip-path="url(#19)"><g clip-path="url(#20)"><path id="1150" transform="matrix(1 0 0 -1 0 842)" d="M397.68 260.18L405.84 260.18L405.84 269.06L397.68 269.06z" stroke="none" fill="#FFFFFF" fill-rule="nonzero" /></g></g><g clip-path="url(#21)"><g clip-path="url(#22)"><g clip-path="url(#23)"><g transform="matrix(0.48 0 0 0.4673684 397.68 572.94)"><g transform="matrix(1 0 0 1 0 0)"><image x="0" y="0" xlink:href="img_248.png" width="17" height="19" /></g></g></g></g></g><g clip-path="url(#24)"><g clip-path="url(#25)"><path id="1152" transform="matrix(1 0 0 -1 0 842)" d="M271.74 197.18L279.9 197.18L279.9 206.06L271.74 206.06z" stroke="none" fill="#FFFFFF" fill-rule="nonzero" /></g></g><g clip-path="url(#26)"><g clip-path="url(#27)"><g clip-path="url(#28)"><g transform="matrix(0.48 0 0 0.4673684 271.74 635.94)"><g transform="matrix(1 0 0 1 0 0)"><image x="0" y="0" xlink:href="img_249.png" width="17" height="19" /></g></g></g></g></g></g></g></svg>