<svg xmlns="http://www.w3.org/2000/svg" xmlns:xlink="http://www.w3.org/1999/xlink" id="body_111" preserveAspectRatio="xMinYMin meet" viewBox="0 0 793 1123"><defs><clipPath id="1"><path id="" clip-rule="evenodd" transform="matrix(1 0 0 1 0 0)" d="M0 842L0 0L0 0L595 0L595 0L595 842L595 842L0 842z" /></clipPath><clipPath id="2"><path id="" clip-rule="evenodd" transform="matrix(1 0 0 1 0 0)" d="M224.94 252.06L376.74 252.06L376.74 252.06L376.74 466.68L376.74 466.68L224.94 466.68z" /></clipPath><clipPath id="3"><path id="" clip-rule="evenodd" transform="matrix(1 0 0 1 0 0)" d="M0 0.02001953L595.2 0.02001953L595.2 0.02001953L595.2 842L595.2 842L0 842z" /></clipPath><clipPath id="4"><path id="" clip-rule="evenodd" transform="matrix(1 0 0 1 0 0)" d="M225.96 253.02L375.72 253.02L375.72 253.02L375.72 465.66L375.72 465.66L225.96 465.66z" /></clipPath><clipPath id="5"><path id="" clip-rule="evenodd" transform="matrix(1 0 0 1 0 0)" d="M224.94 252.06L376.74 252.06L376.74 252.06L376.74 466.68L376.74 466.68L224.94 466.68z" /></clipPath><clipPath id="6"><path id="" clip-rule="evenodd" transform="matrix(1 0 0 1 0 0)" d="M0 0.02001953L595.2 0.02001953L595.2 0.02001953L595.2 842L595.2 842L0 842z" /></clipPath><clipPath id="7"><path id="" clip-rule="evenodd" transform="matrix(1 0 0 1 0 0)" d="M44.94 592.68L63.54 592.68L63.54 592.68L63.54 610.56L63.54 610.56L44.94 610.56z" /></clipPath><clipPath id="8"><path id="" clip-rule="evenodd" transform="matrix(1 0 0 1 0 0)" d="M0 0.02001953L595.2 0.02001953L595.2 0.02001953L595.2 842L595.2 842L0 842z" /></clipPath><clipPath id="9"><path id="" clip-rule="evenodd" transform="matrix(1 0 0 1 0 0)" d="M45.96 593.7L62.52 593.7L62.52 593.7L62.52 609.54L62.52 609.54L45.96 609.54z" /></clipPath><clipPath id="10"><path id="" clip-rule="evenodd" transform="matrix(1 0 0 1 0 0)" d="M44.94 592.68L63.54 592.68L63.54 592.68L63.54 610.56L63.54 610.56L44.94 610.56z" /></clipPath><clipPath id="11"><path id="" clip-rule="evenodd" transform="matrix(1 0 0 1 0 0)" d="M0 0.02001953L595.2 0.02001953L595.2 0.02001953L595.2 842L595.2 842L0 842z" /></clipPath><clipPath id="12"><path id="" clip-rule="evenodd" transform="matrix(1 0 0 1 0 0)" d="M44.94 678.72L63.54 678.72L63.54 678.72L63.54 696.54L63.54 696.54L44.94 696.54z" /></clipPath><clipPath id="13"><path id="" clip-rule="evenodd" transform="matrix(1 0 0 1 0 0)" d="M0 0.02001953L595.2 0.02001953L595.2 0.02001953L595.2 842L595.2 842L0 842z" /></clipPath><clipPath id="14"><path id="" clip-rule="evenodd" transform="matrix(1 0 0 1 0 0)" d="M45.96 679.68L62.52 679.68L62.52 679.68L62.52 695.52L62.52 695.52L45.96 695.52z" /></clipPath><clipPath id="15"><path id="" clip-rule="evenodd" transform="matrix(1 0 0 1 0 0)" d="M44.94 678.72L63.54 678.72L63.54 678.72L63.54 696.54L63.54 696.54L44.94 696.54z" /></clipPath><clipPath id="16"><path id="" clip-rule="evenodd" transform="matrix(1 0 0 1 0 0)" d="M0 0.02001953L595.2 0.02001953L595.2 0.02001953L595.2 842L595.2 842L0 842z" /></clipPath></defs><g transform="matrix(1.333333 0 0 1.333333 0 0)"><g clip-path="url(#1)"><g clip-path="url(#2)"><g clip-path="url(#3)"><path id="719" transform="matrix(1 0 0 -1 0 842)" d="M225.96 376.34L375.72 376.34L375.72 588.98L225.96 588.98z" stroke="none" fill="#FFFFFF" fill-rule="nonzero" /></g></g><g clip-path="url(#4)"><g clip-path="url(#5)"><g clip-path="url(#6)"><g transform="matrix(0.48 0 0 0.48 225.96 253.02)"><g transform="matrix(1 0 0 1 0 0)"><image x="0" y="0" xlink:href="img_267.png" width="312" height="443" /></g></g></g></g></g><path id="721" transform="matrix(1 0 0 -1 0 842)" d="M44.94 255.32L89.22 255.32L89.22 273.32L44.94 273.32z" stroke="none" fill="#C4DFF7" fill-rule="nonzero" /><path id="728" transform="matrix(1 0 0 -1 0 842)" d="M89.22 255.32L558 255.32L558 273.32L89.22 273.32z" stroke="none" fill="#C4DFF7" fill-rule="nonzero" /><path id="1142" transform="matrix(1 0 0 -1 0 842)" d="M44.94 169.04L558 169.04L558 169.52L44.94 169.52z" stroke="none" fill="#000000" fill-rule="nonzero" /><path id="1143" transform="matrix(1 0 0 -1 0 842)" d="M44.94 110.54L558 110.54L558 112.04L44.94 112.04z" stroke="none" fill="#000000" fill-rule="nonzero" /><g clip-path="url(#7)"><g clip-path="url(#8)"><path id="1144" transform="matrix(1 0 0 -1 0 842)" d="M45.96 232.46L62.52 232.46L62.52 248.3L45.96 248.3z" stroke="none" fill="#FFFFFF" fill-rule="nonzero" /></g></g><g clip-path="url(#9)"><g clip-path="url(#10)"><g clip-path="url(#11)"><g transform="matrix(0.48 0 0 0.48 45.96 593.7)"><g transform="matrix(1 0 0 1 0 0)"><image x="0" y="0" xlink:href="img_268.png" width="35" height="33" /></g></g></g></g></g><g clip-path="url(#12)"><g clip-path="url(#13)"><path id="1146" transform="matrix(1 0 0 -1 0 842)" d="M45.96 146.48L62.52 146.48L62.52 162.32L45.96 162.32z" stroke="none" fill="#FFFFFF" fill-rule="nonzero" /></g></g><g clip-path="url(#14)"><g clip-path="url(#15)"><g clip-path="url(#16)"><g transform="matrix(0.48 0 0 0.48 45.96 679.68)"><g transform="matrix(1 0 0 1 0 0)"><image x="0" y="0" xlink:href="img_98.png" width="35" height="33" /></g></g></g></g></g></g></g></svg>