<svg xmlns="http://www.w3.org/2000/svg" xmlns:xlink="http://www.w3.org/1999/xlink" id="body_99" preserveAspectRatio="xMinYMin meet" viewBox="0 0 793 1123"><defs><clipPath id="1"><path id="" clip-rule="evenodd" transform="matrix(1 0 0 1 0 0)" d="M0 842L0 0L0 0L595 0L595 0L595 842L595 842L0 842z" /></clipPath><clipPath id="2"><path id="" clip-rule="evenodd" transform="matrix(1 0 0 1 0 0)" d="M457.14 238.14L467.28 238.14L467.28 238.14L467.28 249.06L467.28 249.06L457.14 249.06z" /></clipPath><clipPath id="3"><path id="" clip-rule="evenodd" transform="matrix(1 0 0 1 0 0)" d="M0 0.02001953L595.2 0.02001953L595.2 0.02001953L595.2 842L595.2 842L0 842z" /></clipPath><clipPath id="4"><path id="" clip-rule="evenodd" transform="matrix(1 0 0 1 0 0)" d="M458.16 239.16L466.32 239.16L466.32 239.16L466.32 248.04L466.32 248.04L458.16 248.04z" /></clipPath><clipPath id="5"><path id="" clip-rule="evenodd" transform="matrix(1 0 0 1 0 0)" d="M457.14 238.14L467.28 238.14L467.28 238.14L467.28 249.06L467.28 249.06L457.14 249.06z" /></clipPath><clipPath id="6"><path id="" clip-rule="evenodd" transform="matrix(1 0 0 1 0 0)" d="M0 0.02001953L595.2 0.02001953L595.2 0.02001953L595.2 842L595.2 842L0 842z" /></clipPath><clipPath id="7"><path id="" clip-rule="evenodd" transform="matrix(1 0 0 1 0 0)" d="M215.94 266.04L346.86 266.04L346.86 266.04L346.86 386.1L346.86 386.1L215.94 386.1z" /></clipPath><clipPath id="8"><path id="" clip-rule="evenodd" transform="matrix(1 0 0 1 0 0)" d="M0 0.02001953L595.2 0.02001953L595.2 0.02001953L595.2 842L595.2 842L0 842z" /></clipPath><clipPath id="9"><path id="" clip-rule="evenodd" transform="matrix(1 0 0 1 0 0)" d="M216.96 267.06L345.84 267.06L345.84 267.06L345.84 385.14L345.84 385.14L216.96 385.14z" /></clipPath><clipPath id="10"><path id="" clip-rule="evenodd" transform="matrix(1 0 0 1 0 0)" d="M215.94 266.04L346.86 266.04L346.86 266.04L346.86 386.1L346.86 386.1L215.94 386.1z" /></clipPath><clipPath id="11"><path id="" clip-rule="evenodd" transform="matrix(1 0 0 1 0 0)" d="M0 0.02001953L595.2 0.02001953L595.2 0.02001953L595.2 842L595.2 842L0 842z" /></clipPath><clipPath id="12"><path id="" clip-rule="evenodd" transform="matrix(1 0 0 1 0 0)" d="M215.94 550.14L225.42 550.14L225.42 550.14L225.42 559.5601L225.42 559.5601L215.94 559.5601z" /></clipPath><clipPath id="13"><path id="" clip-rule="evenodd" transform="matrix(1 0 0 1 0 0)" d="M0 0.02001953L595.2 0.02001953L595.2 0.02001953L595.2 842L595.2 842L0 842z" /></clipPath><clipPath id="14"><path id="" clip-rule="evenodd" transform="matrix(1 0 0 1 0 0)" d="M216.96 551.16L224.4 551.16L224.4 551.16L224.4 558.6L224.4 558.6L216.96 558.6z" /></clipPath><clipPath id="15"><path id="" clip-rule="evenodd" transform="matrix(1 0 0 1 0 0)" d="M215.94 550.14L225.42 550.14L225.42 550.14L225.42 559.5601L225.42 559.5601L215.94 559.5601z" /></clipPath><clipPath id="16"><path id="" clip-rule="evenodd" transform="matrix(1 0 0 1 0 0)" d="M0 0.02001953L595.2 0.02001953L595.2 0.02001953L595.2 842L595.2 842L0 842z" /></clipPath><clipPath id="17"><path id="" clip-rule="evenodd" transform="matrix(1 0 0 1 0 0)" d="M215.94 550.14L225.42 550.14L225.42 550.14L225.42 559.5601L225.42 559.5601L215.94 559.5601z" /></clipPath><clipPath id="18"><path id="" clip-rule="evenodd" transform="matrix(1 0 0 1 0 0)" d="M0 0.02001953L595.2 0.02001953L595.2 0.02001953L595.2 842L595.2 842L0 842z" /></clipPath><clipPath id="19"><path id="" clip-rule="evenodd" transform="matrix(1 0 0 1 0 0)" d="M216.96 551.16L224.4 551.16L224.4 551.16L224.4 558.6L224.4 558.6L216.96 558.6z" /></clipPath><clipPath id="20"><path id="" clip-rule="evenodd" transform="matrix(1 0 0 1 0 0)" d="M215.94 550.14L225.42 550.14L225.42 550.14L225.42 559.5601L225.42 559.5601L215.94 559.5601z" /></clipPath><clipPath id="21"><path id="" clip-rule="evenodd" transform="matrix(1 0 0 1 0 0)" d="M0 0.02001953L595.2 0.02001953L595.2 0.02001953L595.2 842L595.2 842L0 842z" /></clipPath><clipPath id="22"><path id="" clip-rule="evenodd" transform="matrix(1 0 0 1 0 0)" d="M215.94 584.16L226.14 584.16L226.14 584.16L226.14 595.02L226.14 595.02L215.94 595.02z" /></clipPath><clipPath id="23"><path id="" clip-rule="evenodd" transform="matrix(1 0 0 1 0 0)" d="M0 0.02001953L595.2 0.02001953L595.2 0.02001953L595.2 842L595.2 842L0 842z" /></clipPath><clipPath id="24"><path id="" clip-rule="evenodd" transform="matrix(1 0 0 1 0 0)" d="M216.96 585.12L225.12 585.12L225.12 585.12L225.12 594L225.12 594L216.96 594z" /></clipPath><clipPath id="25"><path id="" clip-rule="evenodd" transform="matrix(1 0 0 1 0 0)" d="M215.94 584.16L226.14 584.16L226.14 584.16L226.14 595.02L226.14 595.02L215.94 595.02z" /></clipPath><clipPath id="26"><path id="" clip-rule="evenodd" transform="matrix(1 0 0 1 0 0)" d="M0 0.02001953L595.2 0.02001953L595.2 0.02001953L595.2 842L595.2 842L0 842z" /></clipPath><clipPath id="27"><path id="" clip-rule="evenodd" transform="matrix(1 0 0 1 0 0)" d="M215.94 618.12L226.14 618.12L226.14 618.12L226.14 628.98L226.14 628.98L215.94 628.98z" /></clipPath><clipPath id="28"><path id="" clip-rule="evenodd" transform="matrix(1 0 0 1 0 0)" d="M0 0.02001953L595.2 0.02001953L595.2 0.02001953L595.2 842L595.2 842L0 842z" /></clipPath><clipPath id="29"><path id="" clip-rule="evenodd" transform="matrix(1 0 0 1 0 0)" d="M216.96 619.14L225.12 619.14L225.12 619.14L225.12 628.02L225.12 628.02L216.96 628.02z" /></clipPath><clipPath id="30"><path id="" clip-rule="evenodd" transform="matrix(1 0 0 1 0 0)" d="M215.94 618.12L226.14 618.12L226.14 618.12L226.14 628.98L226.14 628.98L215.94 628.98z" /></clipPath><clipPath id="31"><path id="" clip-rule="evenodd" transform="matrix(1 0 0 1 0 0)" d="M0 0.02001953L595.2 0.02001953L595.2 0.02001953L595.2 842L595.2 842L0 842z" /></clipPath><clipPath id="32"><path id="" clip-rule="evenodd" transform="matrix(1 0 0 1 0 0)" d="M215.94 652.14L226.14 652.14L226.14 652.14L226.14 663L226.14 663L215.94 663z" /></clipPath><clipPath id="33"><path id="" clip-rule="evenodd" transform="matrix(1 0 0 1 0 0)" d="M0 0.02001953L595.2 0.02001953L595.2 0.02001953L595.2 842L595.2 842L0 842z" /></clipPath><clipPath id="34"><path id="" clip-rule="evenodd" transform="matrix(1 0 0 1 0 0)" d="M216.96 653.16L225.12 653.16L225.12 653.16L225.12 662.04L225.12 662.04L216.96 662.04z" /></clipPath><clipPath id="35"><path id="" clip-rule="evenodd" transform="matrix(1 0 0 1 0 0)" d="M215.94 652.14L226.14 652.14L226.14 652.14L226.14 663L226.14 663L215.94 663z" /></clipPath><clipPath id="36"><path id="" clip-rule="evenodd" transform="matrix(1 0 0 1 0 0)" d="M0 0.02001953L595.2 0.02001953L595.2 0.02001953L595.2 842L595.2 842L0 842z" /></clipPath><clipPath id="37"><path id="" clip-rule="evenodd" transform="matrix(1 0 0 1 0 0)" d="M215.94 673.02L226.14 673.02L226.14 673.02L226.14 683.88L226.14 683.88L215.94 683.88z" /></clipPath><clipPath id="38"><path id="" clip-rule="evenodd" transform="matrix(1 0 0 1 0 0)" d="M0 0.02001953L595.2 0.02001953L595.2 0.02001953L595.2 842L595.2 842L0 842z" /></clipPath><clipPath id="39"><path id="" clip-rule="evenodd" transform="matrix(1 0 0 1 0 0)" d="M216.96 673.98L225.12 673.98L225.12 673.98L225.12 682.86L225.12 682.86L216.96 682.86z" /></clipPath><clipPath id="40"><path id="" clip-rule="evenodd" transform="matrix(1 0 0 1 0 0)" d="M215.94 673.02L226.14 673.02L226.14 673.02L226.14 683.88L226.14 683.88L215.94 683.88z" /></clipPath><clipPath id="41"><path id="" clip-rule="evenodd" transform="matrix(1 0 0 1 0 0)" d="M0 0.02001953L595.2 0.02001953L595.2 0.02001953L595.2 842L595.2 842L0 842z" /></clipPath></defs><g transform="matrix(1.333333 0 0 1.333333 0 0)"><g clip-path="url(#1)"><g clip-path="url(#2)"><g clip-path="url(#3)"><path id="1138" transform="matrix(1 0 0 -1 0 842)" d="M458.16 593.96L466.32 593.96L466.32 602.84L458.16 602.84z" stroke="none" fill="#FFFFFF" fill-rule="nonzero" /></g></g><g clip-path="url(#4)"><g clip-path="url(#5)"><g clip-path="url(#6)"><g transform="matrix(0.48 0 0 0.4673684 458.16 239.16)"><g transform="matrix(1 0 0 1 0 0)"><image x="0" y="0" xlink:href="img_244.png" width="17" height="19" /></g></g></g></g></g><g clip-path="url(#7)"><g clip-path="url(#8)"><path id="1140" transform="matrix(1 0 0 -1 0 842)" d="M216.96 456.86L345.84 456.86L345.84 574.94L216.96 574.94z" stroke="none" fill="#FFFFFF" fill-rule="nonzero" /></g></g><g clip-path="url(#9)"><g clip-path="url(#10)"><g clip-path="url(#11)"><g transform="matrix(0.48 0 0 0.48 216.96 267.06)"><g transform="matrix(1 0 0 1 0 0)"><image x="0" y="0" xlink:href="img_245.png" width="269" height="246" /></g></g></g></g></g><path id="1142" transform="matrix(1 0 0 -1 0 842)" d="M215.94 297.86L254.52 297.86L254.52 315.86L215.94 315.86z" stroke="none" fill="#C4DFF7" fill-rule="nonzero" /><path id="1148" transform="matrix(1 0 0 -1 0 842)" d="M254.52 297.86L549 297.86L549 315.86L254.52 315.86z" stroke="none" fill="#C4DFF7" fill-rule="nonzero" /><path id="1368" transform="matrix(1 0 0 -1 0 842)" d="M215.94 263.6L549 263.6L549 264.08L215.94 264.08z" stroke="none" fill="#000000" fill-rule="nonzero" /><path id="1369" transform="matrix(1 0 0 -1 0 842)" d="M215.94 229.64L549 229.64L549 230.12L215.94 230.12z" stroke="none" fill="#000000" fill-rule="nonzero" /><path id="1370" transform="matrix(1 0 0 -1 0 842)" d="M215.94 195.62L549 195.62L549 196.1L215.94 196.1z" stroke="none" fill="#000000" fill-rule="nonzero" /><path id="1371" transform="matrix(1 0 0 -1 0 842)" d="M215.94 174.74L549 174.74L549 175.22L215.94 175.22z" stroke="none" fill="#000000" fill-rule="nonzero" /><path id="1372" transform="matrix(1 0 0 -1 0 842)" d="M215.94 153.32L549 153.32L549 154.82L215.94 154.82z" stroke="none" fill="#000000" fill-rule="nonzero" /><g clip-path="url(#12)"><g clip-path="url(#13)"><path id="1373" transform="matrix(1 0 0 -1 0 842)" d="M216.96 283.4L224.4 283.4L224.4 290.84L216.96 290.84z" stroke="none" fill="#FFFFFF" fill-rule="nonzero" /></g></g><g clip-path="url(#14)"><g clip-path="url(#15)"><g clip-path="url(#16)"><g transform="matrix(0.48 0 0 0.465 216.96 551.16)"><g transform="matrix(1 0 0 1 0 0)"><image x="0" y="0" xlink:href="img_246.png" width="16" height="16" /></g></g></g></g></g><g clip-path="url(#17)"><g clip-path="url(#18)"><path id="1375" transform="matrix(1 0 0 -1 0 842)" d="M216.96 283.4L224.4 283.4L224.4 290.84L216.96 290.84z" stroke="none" fill="#FFFFFF" fill-rule="nonzero" /></g></g><g clip-path="url(#19)"><g clip-path="url(#20)"><g clip-path="url(#21)"><g transform="matrix(0.48 0 0 0.465 216.96 551.16)"><g transform="matrix(1 0 0 1 0 0)"><image x="0" y="0" xlink:href="img_246.png" width="16" height="16" /></g></g></g></g></g><g clip-path="url(#22)"><g clip-path="url(#23)"><path id="1377" transform="matrix(1 0 0 -1 0 842)" d="M216.96 248L225.12 248L225.12 256.88L216.96 256.88z" stroke="none" fill="#FFFFFF" fill-rule="nonzero" /></g></g><g clip-path="url(#24)"><g clip-path="url(#25)"><g clip-path="url(#26)"><g transform="matrix(0.48 0 0 0.4673684 216.96 585.12)"><g transform="matrix(1 0 0 1 0 0)"><image x="0" y="0" xlink:href="img_244.png" width="17" height="19" /></g></g></g></g></g><g clip-path="url(#27)"><g clip-path="url(#28)"><path id="1379" transform="matrix(1 0 0 -1 0 842)" d="M216.96 213.98L225.12 213.98L225.12 222.86L216.96 222.86z" stroke="none" fill="#FFFFFF" fill-rule="nonzero" /></g></g><g clip-path="url(#29)"><g clip-path="url(#30)"><g clip-path="url(#31)"><g transform="matrix(0.48 0 0 0.4673684 216.96 619.14)"><g transform="matrix(1 0 0 1 0 0)"><image x="0" y="0" xlink:href="img_247.png" width="17" height="19" /></g></g></g></g></g><g clip-path="url(#32)"><g clip-path="url(#33)"><path id="1381" transform="matrix(1 0 0 -1 0 842)" d="M216.96 179.96L225.12 179.96L225.12 188.84L216.96 188.84z" stroke="none" fill="#FFFFFF" fill-rule="nonzero" /></g></g><g clip-path="url(#34)"><g clip-path="url(#35)"><g clip-path="url(#36)"><g transform="matrix(0.48 0 0 0.4673684 216.96 653.16)"><g transform="matrix(1 0 0 1 0 0)"><image x="0" y="0" xlink:href="img_248.png" width="17" height="19" /></g></g></g></g></g><g clip-path="url(#37)"><g clip-path="url(#38)"><path id="1383" transform="matrix(1 0 0 -1 0 842)" d="M216.96 159.14L225.12 159.14L225.12 168.02L216.96 168.02z" stroke="none" fill="#FFFFFF" fill-rule="nonzero" /></g></g><g clip-path="url(#39)"><g clip-path="url(#40)"><g clip-path="url(#41)"><g transform="matrix(0.48 0 0 0.4673684 216.96 673.98)"><g transform="matrix(1 0 0 1 0 0)"><image x="0" y="0" xlink:href="img_249.png" width="17" height="19" /></g></g></g></g></g></g></g></svg>