<svg xmlns="http://www.w3.org/2000/svg" xmlns:xlink="http://www.w3.org/1999/xlink" id="body_85" preserveAspectRatio="xMinYMin meet" viewBox="0 0 793 1123"><defs><clipPath id="1"><path id="" clip-rule="evenodd" transform="matrix(1 0 0 1 0 0)" d="M0 842L0 0L0 0L595 0L595 0L595 842L595 842L0 842z" /></clipPath></defs><g transform="matrix(1.333333 0 0 1.333333 0 0)"><g clip-path="url(#1)"><path id="2320" transform="matrix(1 0 0 -1 0 842)" d="M44.94 751.94L140.82 751.94L140.82 769.94L44.94 769.94z" stroke="none" fill="#C4DFF7" fill-rule="nonzero" /><path id="2330" transform="matrix(1 0 0 -1 0 842)" d="M140.82 769.94L558 769.94L558 751.94L140.82 751.94" stroke="none" fill="#C4DFF7" fill-rule="nonzero" /><path id="2342" transform="matrix(1 0 0 -1 0 842)" d="M44.94 549.74L558 549.74L558 550.22L44.94 550.22z" stroke="none" fill="#000000" fill-rule="nonzero" /><path id="2343" transform="matrix(1 0 0 -1 0 842)" d="M44.94 200.72L558 200.72L558 201.2L44.94 201.2z" stroke="none" fill="#000000" fill-rule="nonzero" /><path id="2344" transform="matrix(1 0 0 -1 0 842)" d="M44.94 152.72L558 152.72L558 153.2L44.94 153.2z" stroke="none" fill="#000000" fill-rule="nonzero" /><path id="2345" transform="matrix(1 0 0 -1 0 842)" d="M44.94 104.18L558 104.18L558 105.68L44.94 105.68z" stroke="none" fill="#000000" fill-rule="nonzero" /></g></g></svg>