<svg xmlns="http://www.w3.org/2000/svg" xmlns:xlink="http://www.w3.org/1999/xlink" id="body_73" preserveAspectRatio="xMinYMin meet" viewBox="0 0 793 1123"><defs><clipPath id="1"><path id="" clip-rule="evenodd" transform="matrix(1 0 0 1 0 0)" d="M0 842L0 0L0 0L595 0L595 0L595 842L595 842L0 842z" /></clipPath><clipPath id="2"><path id="" clip-rule="evenodd" transform="matrix(1 0 0 1 0 0)" d="M168.48 134.04L512.52 134.04L512.52 134.04L512.52 328.02L512.52 328.02L168.48 328.02z" /></clipPath><clipPath id="3"><path id="" clip-rule="evenodd" transform="matrix(1 0 0 1 0 0)" d="M0 0.02001953L595.2 0.02001953L595.2 0.02001953L595.2 842L595.2 842L0 842z" /></clipPath><clipPath id="4"><path id="" clip-rule="evenodd" transform="matrix(1 0 0 1 0 0)" d="M169.5 135.06L511.5 135.06L511.5 135.06L511.5 327.06L511.5 327.06L169.5 327.06z" /></clipPath><clipPath id="5"><path id="" clip-rule="evenodd" transform="matrix(1 0 0 1 0 0)" d="M168.48 134.04L512.52 134.04L512.52 134.04L512.52 328.02L512.52 328.02L168.48 328.02z" /></clipPath><clipPath id="6"><path id="" clip-rule="evenodd" transform="matrix(1 0 0 1 0 0)" d="M0 0.02001953L595.2 0.02001953L595.2 0.02001953L595.2 842L595.2 842L0 842z" /></clipPath><clipPath id="7"><path id="" clip-rule="evenodd" transform="matrix(1 0 0 1 0 0)" d="M175.62 413.04L505.38 413.04L505.38 413.04L505.38 598.98L505.38 598.98L175.62 598.98z" /></clipPath><clipPath id="8"><path id="" clip-rule="evenodd" transform="matrix(1 0 0 1 0 0)" d="M0 0.02001953L595.2 0.02001953L595.2 0.02001953L595.2 842L595.2 842L0 842z" /></clipPath><clipPath id="9"><path id="" clip-rule="evenodd" transform="matrix(1 0 0 1 0 0)" d="M176.64 414L504.36 414L504.36 414L504.36 598.02L504.36 598.02L176.64 598.02z" /></clipPath><clipPath id="10"><path id="" clip-rule="evenodd" transform="matrix(1 0 0 1 0 0)" d="M175.62 413.04L505.38 413.04L505.38 413.04L505.38 598.98L505.38 598.98L175.62 598.98z" /></clipPath><clipPath id="11"><path id="" clip-rule="evenodd" transform="matrix(1 0 0 1 0 0)" d="M0 0.02001953L595.2 0.02001953L595.2 0.02001953L595.2 842L595.2 842L0 842z" /></clipPath><clipPath id="12"><path id="" clip-rule="evenodd" transform="matrix(1 0 0 1 0 0)" d="M175.62 413.04L505.38 413.04L505.38 413.04L505.38 598.98L505.38 598.98L175.62 598.98z" /></clipPath><clipPath id="13"><path id="" clip-rule="evenodd" transform="matrix(1 0 0 1 0 0)" d="M0 0.02001953L595.2 0.02001953L595.2 0.02001953L595.2 842L595.2 842L0 842z" /></clipPath><clipPath id="14"><path id="" clip-rule="evenodd" transform="matrix(1 0 0 1 0 0)" d="M238.8 446.52L370.08 446.52L370.08 446.52L370.08 525.48L370.08 525.48L238.8 525.48z" /></clipPath><clipPath id="15"><path id="" clip-rule="evenodd" transform="matrix(1 0 0 1 0 0)" d="M175.62 413.04L505.38 413.04L505.38 413.04L505.38 598.98L505.38 598.98L175.62 598.98z" /></clipPath><clipPath id="16"><path id="" clip-rule="evenodd" transform="matrix(1 0 0 1 0 0)" d="M0 0.02001953L595.2 0.02001953L595.2 0.02001953L595.2 842L595.2 842L0 842z" /></clipPath><clipPath id="17"><path id="" clip-rule="evenodd" transform="matrix(1 0 0 1 0 0)" d="M288.54 709.92L302.52 709.92L302.52 709.92L302.52 722.52L302.52 722.52L288.54 722.52z" /></clipPath><clipPath id="18"><path id="" clip-rule="evenodd" transform="matrix(1 0 0 1 0 0)" d="M0 0.02001953L595.2 0.02001953L595.2 0.02001953L595.2 842L595.2 842L0 842z" /></clipPath><clipPath id="19"><path id="" clip-rule="evenodd" transform="matrix(1 0 0 1 0 0)" d="M289.56 710.94L306.12 710.94L306.12 710.94L306.12 726.78L306.12 726.78L289.56 726.78z" /></clipPath><clipPath id="20"><path id="" clip-rule="evenodd" transform="matrix(1 0 0 1 0 0)" d="M288.54 709.92L302.52 709.92L302.52 709.92L302.52 722.52L302.52 722.52L288.54 722.52z" /></clipPath><clipPath id="21"><path id="" clip-rule="evenodd" transform="matrix(1 0 0 1 0 0)" d="M0 0.02001953L595.2 0.02001953L595.2 0.02001953L595.2 842L595.2 842L0 842z" /></clipPath></defs><g transform="matrix(1.333333 0 0 1.333333 0 0)"><g clip-path="url(#1)"><path id="692" transform="matrix(1 0 0 -1 0 842)" d="M44.94 751.94L123.06 751.94L123.06 769.94L44.94 769.94z" stroke="none" fill="#C5E0F7" fill-rule="nonzero" /><path id="702" transform="matrix(1 0 0 -1 0 842)" d="M123.06 769.94L558 769.94L558 751.94L123.06 751.94" stroke="none" fill="#C5E0F7" fill-rule="nonzero" /><path id="714" transform="matrix(1 0 0 -1 0 842)" d="M44.94 472.76L558 472.76L558 473.24L44.94 473.24z" stroke="none" fill="#000000" fill-rule="nonzero" /><path id="715" transform="matrix(1 0 0 -1 0 842)" d="M44.94 204.2L558 204.2L558 205.7L44.94 205.7z" stroke="none" fill="#000000" fill-rule="nonzero" /><g clip-path="url(#2)"><g clip-path="url(#3)"><path id="716" transform="matrix(1 0 0 -1 0 842)" d="M169.5 514.94L511.5 514.94L511.5 706.94L169.5 706.94z" stroke="none" fill="#FFFFFF" fill-rule="nonzero" /></g></g><g clip-path="url(#4)"><g clip-path="url(#5)"><g clip-path="url(#6)"><g transform="matrix(0.48 0 0 0.48 169.5 135.06)"><g transform="matrix(1 0 0 1 0 0)"><image x="0" y="0" xlink:href="img_176.png" width="713" height="400" /></g></g></g></g></g><g clip-path="url(#7)"><g clip-path="url(#8)"><path id="718" transform="matrix(1 0 0 -1 0 842)" d="M176.64 243.98L504.36 243.98L504.36 428L176.64 428z" stroke="none" fill="#FFFFFF" fill-rule="nonzero" /></g></g><g clip-path="url(#9)"><g clip-path="url(#10)"><g clip-path="url(#11)"><g transform="matrix(0.4798887 0 0 0.4792188 176.64 414)"><g transform="matrix(1 0 0 1 0 0)"><image x="0" y="0" xlink:href="img_177.png" width="683" height="384" /></g></g></g></g></g><g clip-path="url(#12)"><g clip-path="url(#13)"><path id="720" transform="matrix(1 0 0 -1 0 842)" d="M238.8 316.52L370.08 316.52L370.08 395.48L238.8 395.48z" stroke="none" fill="#FFFFFF" fill-rule="nonzero" /></g></g><g clip-path="url(#14)"><g clip-path="url(#15)"><g clip-path="url(#16)"><g transform="matrix(0.48 0 0 0.4785454 238.8 446.52)"><g transform="matrix(1 0 0 1 0 0)"><image x="0" y="0" xlink:href="img_178.png" width="274" height="165" /></g></g></g></g></g><g clip-path="url(#17)"><g clip-path="url(#18)"><path id="722" transform="matrix(1 0 0 -1 0 842)" d="M289.56 119.46L302.52 119.46L302.52 131.06L289.56 131.06z" stroke="none" fill="#FFFFFF" fill-rule="nonzero" /></g></g><g clip-path="url(#19)"><g clip-path="url(#20)"><g clip-path="url(#21)"><g transform="matrix(0.48 0 0 0.4707692 289.56 710.94)"><g transform="matrix(1 0 0 1 0 0)"><image x="0" y="0" xlink:href="img_179.png" width="29" height="26" /></g></g></g></g></g></g></g></svg>