<svg xmlns="http://www.w3.org/2000/svg" xmlns:xlink="http://www.w3.org/1999/xlink" id="body_56" preserveAspectRatio="xMinYMin meet" viewBox="0 0 793 1123"><defs><clipPath id="1"><path id="" clip-rule="evenodd" transform="matrix(1 0 0 1 0 0)" d="M0 842L0 0L0 0L595 0L595 0L595 842L595 842L0 842z" /></clipPath></defs><g transform="matrix(1.333333 0 0 1.333333 0 0)"><g clip-path="url(#1)"><path id="443" transform="matrix(1 0 0 -1 0 842)" d="M35.94 597.98L201.12 597.98L201.12 615.98L35.94 615.98z" stroke="none" fill="#C4DFF7" fill-rule="nonzero" /><path id="451" transform="matrix(1 0 0 -1 0 842)" d="M201.12 615.98L549 615.98L549 597.98L201.12 597.98" stroke="none" fill="#C4DFF7" fill-rule="nonzero" /><path id="2056" transform="matrix(1 0 0 -1 0 842)" d="M35.94 549.74L549 549.74L549 550.22L35.94 550.22z" stroke="none" fill="#000000" fill-rule="nonzero" /><path id="2057" transform="matrix(1 0 0 -1 0 842)" d="M35.94 515.72L549 515.72L549 516.2L35.94 516.2z" stroke="none" fill="#000000" fill-rule="nonzero" /><path id="2058" transform="matrix(1 0 0 -1 0 842)" d="M35.94 481.7L549 481.7L549 482.18L35.94 482.18z" stroke="none" fill="#000000" fill-rule="nonzero" /><path id="2059" transform="matrix(1 0 0 -1 0 842)" d="M35.94 433.7L549 433.7L549 434.18L35.94 434.18z" stroke="none" fill="#000000" fill-rule="nonzero" /><path id="2060" transform="matrix(1 0 0 -1 0 842)" d="M35.94 399.74L549 399.74L549 400.22L35.94 400.22z" stroke="none" fill="#000000" fill-rule="nonzero" /><path id="2061" transform="matrix(1 0 0 -1 0 842)" d="M35.94 351.74L549 351.74L549 352.22L35.94 352.22z" stroke="none" fill="#000000" fill-rule="nonzero" /><path id="2062" transform="matrix(1 0 0 -1 0 842)" d="M35.94 317.72L549 317.72L549 318.2L35.94 318.2z" stroke="none" fill="#000000" fill-rule="nonzero" /><path id="2063" transform="matrix(1 0 0 -1 0 842)" d="M35.94 283.7L549 283.7L549 284.18L35.94 284.18z" stroke="none" fill="#000000" fill-rule="nonzero" /><path id="2064" transform="matrix(1 0 0 -1 0 842)" d="M35.94 249.68L549 249.68L549 250.16L35.94 250.16z" stroke="none" fill="#000000" fill-rule="nonzero" /><path id="2065" transform="matrix(1 0 0 -1 0 842)" d="M35.94 229.7L549 229.7L549 230.18L35.94 230.18z" stroke="none" fill="#000000" fill-rule="nonzero" /><path id="2066" transform="matrix(1 0 0 -1 0 842)" d="M35.94 167.72L549 167.72L549 168.2L35.94 168.2z" stroke="none" fill="#000000" fill-rule="nonzero" /><path id="2067" transform="matrix(1 0 0 -1 0 842)" d="M35.94 133.7L549 133.7L549 134.18L35.94 134.18z" stroke="none" fill="#000000" fill-rule="nonzero" /><path id="2068" transform="matrix(1 0 0 -1 0 842)" d="M35.94 113.18L549 113.18L549 114.68L35.94 114.68z" stroke="none" fill="#000000" fill-rule="nonzero" /></g></g></svg>