<svg xmlns="http://www.w3.org/2000/svg" xmlns:xlink="http://www.w3.org/1999/xlink" id="body_229" preserveAspectRatio="xMinYMin meet" viewBox="0 0 793 1123"><defs><clipPath id="1"><path id="" clip-rule="evenodd" transform="matrix(1 0 0 1 0 0)" d="M0 842L0 0L0 0L595 0L595 0L595 842L595 842L0 842z" /></clipPath></defs><g transform="matrix(1.333333 0 0 1.333333 0 0)"><g clip-path="url(#1)"><path id="1720" transform="matrix(1 0 0 -1 0 842)" d="M44.94 751.94L210.48 751.94L210.48 769.94L44.94 769.94z" stroke="none" fill="#C4DFF7" fill-rule="nonzero" /><path id="1730" transform="matrix(1 0 0 -1 0 842)" d="M210.48 751.94L558 751.94L558 769.94L210.48 769.94z" stroke="none" fill="#C4DFF7" fill-rule="nonzero" /><path id="1742" transform="matrix(1 0 0 -1 0 842)" d="M44.94 640.7L558 640.7L558 641.18L44.94 641.18z" stroke="none" fill="#000000" fill-rule="nonzero" /><path id="1743" transform="matrix(1 0 0 -1 0 842)" d="M44.94 494.72L558 494.72L558 495.2L44.94 495.2z" stroke="none" fill="#000000" fill-rule="nonzero" /><path id="1744" transform="matrix(1 0 0 -1 0 842)" d="M44.94 460.7L558 460.7L558 461.18L44.94 461.18z" stroke="none" fill="#000000" fill-rule="nonzero" /><path id="1745" transform="matrix(1 0 0 -1 0 842)" d="M44.94 426.74L558 426.74L558 427.22L44.94 427.22z" stroke="none" fill="#000000" fill-rule="nonzero" /><path id="1746" transform="matrix(1 0 0 -1 0 842)" d="M44.94 378.74L558 378.74L558 379.22L44.94 379.22z" stroke="none" fill="#000000" fill-rule="nonzero" /><path id="1747" transform="matrix(1 0 0 -1 0 842)" d="M44.94 330.74L558 330.74L558 331.22L44.94 331.22z" stroke="none" fill="#000000" fill-rule="nonzero" /><path id="1748" transform="matrix(1 0 0 -1 0 842)" d="M44.94 254.18L558 254.18L558 255.68L44.94 255.68z" stroke="none" fill="#000000" fill-rule="nonzero" /></g></g></svg>