<svg xmlns="http://www.w3.org/2000/svg" xmlns:xlink="http://www.w3.org/1999/xlink" id="body_165" preserveAspectRatio="xMinYMin meet" viewBox="0 0 793 1123"><defs><clipPath id="1"><path id="" clip-rule="evenodd" transform="matrix(1 0 0 1 0 0)" d="M0 842L0 0L0 0L595 0L595 0L595 842L595 842L0 842z" /></clipPath><clipPath id="2"><path id="" clip-rule="evenodd" transform="matrix(1 0 0 1 0 0)" d="M329.7 174.78L342.24 174.78L342.24 174.78L342.24 188.76L342.24 188.76L329.7 188.76z" /></clipPath><clipPath id="3"><path id="" clip-rule="evenodd" transform="matrix(1 0 0 1 0 0)" d="M0 0.02001953L595.2 0.02001953L595.2 0.02001953L595.2 842L595.2 842L0 842z" /></clipPath><clipPath id="4"><path id="" clip-rule="evenodd" transform="matrix(1 0 0 1 0 0)" d="M330.72 175.8L341.28 175.8L341.28 175.8L341.28 187.8L341.28 187.8L330.72 187.8z" /></clipPath><clipPath id="5"><path id="" clip-rule="evenodd" transform="matrix(1 0 0 1 0 0)" d="M329.7 174.78L342.24 174.78L342.24 174.78L342.24 188.76L342.24 188.76L329.7 188.76z" /></clipPath><clipPath id="6"><path id="" clip-rule="evenodd" transform="matrix(1 0 0 1 0 0)" d="M0 0.02001953L595.2 0.02001953L595.2 0.02001953L595.2 842L595.2 842L0 842z" /></clipPath><clipPath id="7"><path id="" clip-rule="evenodd" transform="matrix(1 0 0 1 0 0)" d="M270.9 440.58L286.38 440.58L286.38 440.58L286.38 456.06L286.38 456.06L270.9 456.06z" /></clipPath><clipPath id="8"><path id="" clip-rule="evenodd" transform="matrix(1 0 0 1 0 0)" d="M0 0.02001953L595.2 0.02001953L595.2 0.02001953L595.2 842L595.2 842L0 842z" /></clipPath><clipPath id="9"><path id="" clip-rule="evenodd" transform="matrix(1 0 0 1 0 0)" d="M271.92 441.6L285.36 441.6L285.36 441.6L285.36 455.04L285.36 455.04L271.92 455.04z" /></clipPath><clipPath id="10"><path id="" clip-rule="evenodd" transform="matrix(1 0 0 1 0 0)" d="M270.9 440.58L286.38 440.58L286.38 440.58L286.38 456.06L286.38 456.06L270.9 456.06z" /></clipPath><clipPath id="11"><path id="" clip-rule="evenodd" transform="matrix(1 0 0 1 0 0)" d="M0 0.02001953L595.2 0.02001953L595.2 0.02001953L595.2 842L595.2 842L0 842z" /></clipPath><clipPath id="12"><path id="" clip-rule="evenodd" transform="matrix(1 0 0 1 0 0)" d="M224.94 487.02L548.16 487.02L548.16 487.02L548.16 712.14L548.16 712.14L224.94 712.14z" /></clipPath><clipPath id="13"><path id="" clip-rule="evenodd" transform="matrix(1 0 0 1 0 0)" d="M0 0.02001953L595.2 0.02001953L595.2 0.02001953L595.2 842L595.2 842L0 842z" /></clipPath><clipPath id="14"><path id="" clip-rule="evenodd" transform="matrix(1 0 0 1 0 0)" d="M225.96 488.04L547.14 488.04L547.14 488.04L547.14 711.12L547.14 711.12L225.96 711.12z" /></clipPath><clipPath id="15"><path id="" clip-rule="evenodd" transform="matrix(1 0 0 1 0 0)" d="M224.94 487.02L548.16 487.02L548.16 487.02L548.16 712.14L548.16 712.14L224.94 712.14z" /></clipPath><clipPath id="16"><path id="" clip-rule="evenodd" transform="matrix(1 0 0 1 0 0)" d="M0 0.02001953L595.2 0.02001953L595.2 0.02001953L595.2 842L595.2 842L0 842z" /></clipPath><clipPath id="17"><path id="" clip-rule="evenodd" transform="matrix(1 0 0 1 0 0)" d="M224.94 487.02L548.16 487.02L548.16 487.02L548.16 712.14L548.16 712.14L224.94 712.14z" /></clipPath><clipPath id="18"><path id="" clip-rule="evenodd" transform="matrix(1 0 0 1 0 0)" d="M0 0.02001953L595.2 0.02001953L595.2 0.02001953L595.2 842L595.2 842L0 842z" /></clipPath></defs><g transform="matrix(1.333333 0 0 1.333333 0 0)"><g clip-path="url(#1)"><g clip-path="url(#2)"><g clip-path="url(#3)"><path id="1069" transform="matrix(1 0 0 -1 0 842)" d="M330.72 654.2L341.28 654.2L341.28 666.2L330.72 666.2z" stroke="none" fill="#FFFFFF" fill-rule="nonzero" /></g></g><g clip-path="url(#4)"><g clip-path="url(#5)"><g clip-path="url(#6)"><g transform="matrix(0.48 0 0 0.48 330.72 175.8)"><g transform="matrix(1 0 0 1 0 0)"><image x="0" y="0" xlink:href="img_67.png" width="22" height="25" /></g></g></g></g></g><g clip-path="url(#7)"><g clip-path="url(#8)"><path id="1071" transform="matrix(1 0 0 -1 0 842)" d="M271.92 386.96L285.36 386.96L285.36 400.4L271.92 400.4z" stroke="none" fill="#FFFFFF" fill-rule="nonzero" /></g></g><g clip-path="url(#9)"><g clip-path="url(#10)"><g clip-path="url(#11)"><g transform="matrix(0.48 0 0 0.48 271.92 441.6)"><g transform="matrix(1 0 0 1 0 0)"><image x="0" y="0" xlink:href="img_217.png" width="28" height="28" /></g></g></g></g></g><g clip-path="url(#12)"><g clip-path="url(#13)"><path id="1073" transform="matrix(1 0 0 -1 0 842)" d="M225.96 353.96L547.14 353.96L547.14 130.88L225.96 130.88" stroke="none" fill="#FFFFFF" fill-rule="nonzero" /></g></g><g clip-path="url(#14)"><g clip-path="url(#15)"><g clip-path="url(#16)"><g transform="matrix(0.4795702 0 0 0.4787124 225.96 488.04)"><g transform="matrix(1 0 0 1 0 0)"><image x="0" y="0" xlink:href="img_230.png" width="670" height="466" /></g></g></g></g></g><g clip-path="url(#17)"><g clip-path="url(#18)"><path id="1075" transform="matrix(1 0 0 -1 0 842)" d="M250.8 251.42L249.36 251.3L249.36 251.3L249.42 251.36L249.42 251.36L248.7 251.18L248.7 251.18L248.76 251.18L248.76 251.18L248.1 250.94L248.1 250.94L248.16 250.94L248.16 250.94L247.56 250.64L247.56 250.64L247.62 250.64L247.62 250.64L247.02 250.28L247.02 250.28L247.02 250.34L247.02 250.34L246.48 249.92L246.48 249.92L246.54 249.92L246.54 249.92L246 249.44L246 249.44L246.06 249.56L246.06 249.56L245.22 248.48L245.22 248.48L245.28 248.48L245.28 248.48L244.92 247.88L244.92 247.88L244.92 247.94L244.92 247.94L244.62 247.34L244.62 247.34L244.62 247.4L244.62 247.4L244.38 246.74L244.38 246.74L244.38 246.8L244.38 246.8L244.2 246.08L244.2 246.08L244.26 246.08L244.26 246.08L244.14 245.36L244.14 245.36L244.14 245.42L244.14 245.42L244.08 244.7L244.08 244.7L244.08 244.76L244.08 244.76L244.08 241.16L244.08 241.16L244.14 240.44L244.14 240.44L244.14 240.5L244.14 240.5L244.26 239.78L244.26 239.78L244.2 239.84L244.2 239.84L244.38 239.12L244.38 239.12L244.38 239.18L244.38 239.18L244.62 238.52L244.62 238.52L244.62 238.58L244.62 238.58L244.92 237.98L244.92 237.98L245.28 237.38L245.28 237.38L245.22 237.44L245.22 237.44L246.06 236.36L246.06 236.36L246 236.42L246 236.42L246.54 235.94L246.54 235.94L246.48 236L246.48 236L247.02 235.64L247.02 235.64L247.62 235.28L247.62 235.28L247.56 235.28L247.56 235.28L248.16 234.98L248.16 234.98L248.82 234.68L248.82 234.68L248.7 234.74L248.7 234.74L250.14 234.5L250.14 234.5L250.08 234.5L250.08 234.5L250.8 234.44L250.8 234.44L250.74 234.44L250.74 234.44L291.78 234.44L291.78 234.44L292.5 234.5L292.5 234.5L292.44 234.5L292.44 234.5L293.88 234.74L293.88 234.74L293.76 234.68L293.76 234.68L294.42 234.98L294.42 234.98L294.36 234.98L294.36 234.98L294.96 235.28L294.96 235.28L295.5 234.38L295.5 234.38L295.44 234.38L295.44 234.38L294.84 234.08L294.84 234.08L294.18 233.78L294.18 233.78L294.06 233.72L294.06 233.72L292.62 233.48L292.62 233.48L292.56 233.48L292.56 233.48L291.84 233.42L291.84 233.42L250.74 233.42L250.74 233.42L250.02 233.48L250.02 233.48L249.96 233.48L249.96 233.48L248.52 233.72L248.52 233.72L248.4 233.78L248.4 233.78L247.74 234.08L247.74 234.08L247.68 234.08L247.68 234.08L247.08 234.38L247.08 234.38L246.48 234.74L246.48 234.74L246.48 234.8L246.48 234.8L245.94 235.16L245.94 235.16L245.88 235.16L245.88 235.16L245.34 235.64L245.34 235.64L245.28 235.76L245.28 235.76L244.44 236.84L244.44 236.84L244.38 236.84L244.38 236.84L244.02 237.44L244.02 237.44L244.02 237.5C 242.566 240.34 242.837 243.989 243.42 247.04L243.42 247.04L243.42 247.1L243.42 247.1L243.66 247.76L243.66 247.76L243.72 247.82C 244.171 248.857 244.645 249.354 245.34 250.22L245.34 250.22L245.88 250.7L245.88 250.7L246.42 251.12C 247.261 251.716 248.16 252.147 249.18 252.32L249.18 252.32L249.3 252.32L249.3 252.32L250.74 252.44" stroke="none" fill="#FF0000" fill-rule="nonzero" /><path id="1076" transform="matrix(1 0 0 -1 0 842)" d="M294.96 235.28L295.56 235.64L295.56 235.64L296.1 236L296.1 236L296.04 235.94L296.04 235.94L296.58 236.42L296.58 236.42L296.52 236.36L296.52 236.36L297 236.9L297 236.9L297.42 237.44L297.42 237.44L297.36 237.38L297.36 237.38L297.72 237.98L297.72 237.98L298.02 238.58L298.02 238.58L297.96 238.52L297.96 238.52L298.2 239.18L298.2 239.18L298.2 239.12L298.2 239.12L298.38 239.84L298.38 239.84L298.38 239.72L298.38 239.72L298.5 241.16L298.5 241.16L298.5 244.76L298.5 244.76L298.5 244.7L298.5 244.7L298.38 246.14L298.38 246.14L298.38 246.08L298.38 246.08L298.2 246.8L298.2 246.8L298.2 246.74L298.2 246.74L297.96 247.4L297.96 247.4L298.02 247.34L298.02 247.34L297.72 247.94L297.72 247.94L297.72 247.88L297.72 247.88L297.36 248.48L297.36 248.48L297.42 248.48L297.42 248.48L297 249.02L297 249.02L297 248.96L297 248.96L296.52 249.5L296.52 249.5L296.58 249.44L296.58 249.44L296.04 249.92L296.04 249.92L295.5 250.34L295.5 250.34L295.56 250.28L295.56 250.28L294.96 250.64L294.96 250.64L294.36 250.94L294.36 250.94L294.42 250.94L294.42 250.94L293.76 251.18L293.76 251.18L293.82 251.18L293.82 251.18L293.1 251.36L293.1 251.36L293.22 251.3L293.22 251.3L291.78 251.42L291.78 251.42L250.74 251.42L250.74 251.42L250.8 251.42L250.8 251.42L250.74 252.44L250.74 252.44L291.84 252.44L291.84 252.44L293.28 252.32L293.28 252.32L293.34 252.32L293.34 252.32L294.06 252.14L294.06 252.14L294.12 252.14L294.12 252.14L294.78 251.9L294.78 251.9L294.84 251.84L294.84 251.84L295.44 251.54L295.44 251.54L295.5 251.54L295.5 251.54L296.1 251.18L296.1 251.18L296.1 251.12L296.1 251.12L296.64 250.7L296.64 250.7L296.7 250.7L296.7 250.7L297.24 250.22L297.24 250.22L297.3 250.16L297.3 250.16L297.78 249.62L297.78 249.62L298.2 249.08L298.2 249.08L298.26 249.02L298.26 249.02L298.62 248.42L298.62 248.42L298.92 247.82L298.92 247.82L298.92 247.76L298.92 247.76L299.16 247.1L299.16 247.1L299.16 247.04L299.16 247.04L299.34 246.32L299.34 246.32L299.4 246.2L299.4 246.2L299.46 245.48C 299.5 242.872 299.906 239.844 298.62 237.5L298.62 237.5L298.62 237.44L298.62 237.44L298.26 236.84L298.26 236.84L298.2 236.84L298.2 236.84L297.78 236.3L297.78 236.3L297.78 236.24L297.78 236.24L297.3 235.7L297.3 235.7L297.24 235.64L297.24 235.64L296.7 235.16L296.7 235.16L296.64 235.16L296.64 235.16L296.1 234.8L296.1 234.8L296.1 234.74L296.1 234.74L295.5 234.38" stroke="none" fill="#FF0000" fill-rule="nonzero" /><path id="1077" transform="matrix(1 0 0 -1 0 842)" d="M309.3 173.9L308.7 173.9L308.7 173.9L308.76 173.9L308.76 173.9L308.1 173.84L308.1 173.84L307.5 173.78L307.5 173.78L307.56 173.78L307.56 173.78L306.36 173.54L306.36 173.54L306.42 173.6L306.42 173.6L305.82 173.42L305.82 173.42L305.28 173.24L305.28 173.24L304.68 173L304.68 173L304.74 173L304.74 173L304.2 172.76L304.2 172.76L304.26 172.82L304.26 172.82L303.78 172.52L303.78 172.52L303.72 172.46L303.72 172.46L303.18 172.16L303.18 172.16L303.24 172.22L303.24 172.22L302.76 171.92L302.76 171.92L301.32 170.84L301.32 170.84L301.38 170.9L301.38 170.9L300.54 170.06L300.54 170.06L300.6 170.12L300.6 170.12L300.24 169.64L300.24 169.64L300.24 169.58L300.24 169.58L299.88 169.16L299.88 169.16L299.88 169.22L299.88 169.22L299.52 168.74L299.52 168.74L299.58 168.8L299.58 168.8L299.28 168.26L299.28 168.26L299.22 168.2L299.22 168.2L298.92 167.72L298.92 167.72L298.98 167.78L298.98 167.78L298.68 167.24L298.68 167.24L298.44 166.7L298.44 166.7L298.44 166.76L298.44 166.76L298.26 166.22L298.26 166.22L298.02 165.62L298.02 165.62L298.08 165.68L298.08 165.68L297.96 165.08L297.96 165.08L297.9 165.02L297.9 165.02L297.72 164.42L297.72 164.42L297.78 164.54L297.78 164.54L297.72 163.94L297.72 163.94L297.72 163.88L297.72 163.88L297.6 163.28L297.6 163.28L297.6 163.34L297.6 163.34L297.54 162.74L297.54 162.74L297.54 162.8L297.54 162.8L297.54 161.48L297.54 161.48L297.54 161.54L297.54 161.54L297.6 160.94L297.6 160.94L297.72 160.34L297.72 160.34L297.78 159.74L297.78 159.74L297.72 159.8L297.72 159.8L297.9 159.2L297.9 159.2L297.96 159.14L297.96 159.14L298.08 158.54L298.08 158.54L298.02 158.66L298.02 158.66L298.26 158.12L298.26 158.12L298.26 158.06L298.26 158.06L297.3 157.76L297.3 157.76L297.3 157.7L297.3 157.7L297.06 158.24L297.06 158.24L297.06 158.36L297.06 158.36L296.94 158.96L296.94 158.96L296.94 158.9L296.94 158.9L296.76 159.5L296.76 159.5L296.76 159.62L296.76 159.62L296.7 160.22L296.7 160.22L296.7 160.16L296.7 160.16L296.58 160.76C 296.403 162.348 296.552 163.178 296.76 164.72L296.76 164.72L296.94 165.32L296.94 165.32L296.94 165.26L296.94 165.26L297.06 165.86L297.06 165.86L297.06 165.98L297.06 165.98L297.3 166.58L297.3 166.58L297.3 166.52L297.3 166.52L297.48 167.06L297.48 167.06L297.48 167.12L297.48 167.12L297.72 167.66L297.72 167.66L297.78 167.72L297.78 167.72L298.08 168.26L298.08 168.26L298.38 168.74L298.38 168.74L298.68 169.28L298.68 169.28L298.68 169.34L298.68 169.34L299.04 169.82L299.04 169.82L299.1 169.82L299.1 169.82L299.46 170.24L299.46 170.24L299.4 170.24L299.4 170.24L299.76 170.72C 302.086 173.166 305.28 174.83 308.7 174.92L308.7 174.92L309.3 174.92" stroke="none" fill="#FF0000" fill-rule="nonzero" /><path id="1078" transform="matrix(1 0 0 -1 0 842)" d="M298.26 158.06L298.44 157.46L298.44 157.46L298.44 157.52L298.44 157.52L298.68 156.98L298.68 156.98L298.68 157.04L298.68 157.04L298.98 156.5L298.98 156.5L298.92 156.5L298.92 156.5L299.22 156.02L299.22 156.02L299.28 156.02L299.28 156.02L299.58 155.48L299.58 155.48L299.52 155.54L299.52 155.54L299.88 155.06L299.88 155.06L300.24 154.64L300.24 154.64L300.6 154.16L300.6 154.16L300.54 154.22L300.54 154.22L301.38 153.38L301.38 153.38L301.32 153.44L301.32 153.44L302.76 152.36L302.76 152.36L303.24 152.06L303.24 152.06L303.18 152.06L303.18 152.06L303.72 151.76L303.72 151.76L303.78 151.76L303.78 151.76L304.26 151.46L304.26 151.46L304.2 151.52L304.2 151.52L304.74 151.28L304.74 151.28L304.68 151.28L304.68 151.28L305.28 151.04L305.28 151.04L305.82 150.86L305.82 150.86L306.42 150.68L306.42 150.68L306.36 150.68L306.36 150.68L307.56 150.44L307.56 150.44L307.5 150.44L307.5 150.44L308.1 150.38L308.1 150.38L308.76 150.32L308.76 150.32L308.7 150.32L308.7 150.32L389.16 150.32L389.16 150.32L389.1 150.32L389.1 150.32L389.7 150.38L389.7 150.38L390.36 150.44L390.36 150.44L391.56 150.68L391.56 150.68L391.5 150.68L391.5 150.68L392.04 150.86L392.04 150.86L392.64 151.04L392.64 151.04L392.58 151.04L392.58 151.04L393.66 151.52L393.66 151.52L393.6 151.46L393.6 151.46L394.68 152.06L394.68 152.06L395.16 152.36L395.16 152.36L395.1 152.36L395.1 152.36L396.06 153.08L396.06 153.08L396.06 153.02L396.06 153.02L396.72 152.24L396.72 152.24L396.66 152.24L396.66 152.24L396.18 151.88C 394.521 150.561 391.94 149.474 389.82 149.36L389.82 149.36L389.22 149.3L389.22 149.3L308.64 149.3L308.64 149.3L307.98 149.36L307.98 149.36L307.38 149.42L307.38 149.42L306.78 149.54C 306.022 149.691 305.059 150.036 304.32 150.32L304.32 150.32L303.78 150.56L303.78 150.56L303.72 150.62L303.72 150.62L303.24 150.92L303.24 150.92L303.24 150.86L303.24 150.86L302.7 151.16L302.7 151.16L302.7 151.22L302.7 151.22L302.22 151.52L302.22 151.52L302.16 151.52L302.16 151.52L300.72 152.6L300.72 152.6L299.76 153.56L299.76 153.56L299.4 154.04L299.4 154.04L299.46 153.98L299.46 153.98L299.1 154.4L299.1 154.4L299.04 154.46L299.04 154.46L298.68 154.94L298.68 154.94L298.68 155L298.68 155L298.38 155.54L298.38 155.54L298.38 155.48L298.38 155.48L298.08 155.96L298.08 155.96L298.08 156.02L298.08 156.02L297.78 156.56L297.78 156.56L297.72 156.56L297.72 156.56L297.48 157.1L297.48 157.1L297.48 157.16L297.48 157.16L297.3 157.76" stroke="none" fill="#FF0000" fill-rule="nonzero" /><path id="1079" transform="matrix(1 0 0 -1 0 842)" d="M396.06 153.02L396.48 153.38L396.48 153.38L396.42 153.38L396.42 153.38L397.26 154.22L397.26 154.22L397.26 154.16L397.26 154.16L397.68 154.64L397.68 154.64L398.04 155.06L398.04 155.06L397.98 155L397.98 155L398.28 155.48L398.28 155.48L398.64 156.02L398.64 156.02L398.94 156.5L398.94 156.5L398.88 156.44L398.88 156.44L399.36 157.52L399.36 157.52L399.6 158.12L399.6 158.12L399.6 158.06L399.6 158.06L399.78 158.6L399.78 158.6L399.96 159.2L399.96 159.2L399.96 159.14L399.96 159.14L400.2 160.34L400.2 160.34L400.32 161.54L400.32 161.54L400.32 161.48L400.32 161.48L400.32 162.8L400.32 162.8L400.32 162.74L400.32 162.74L400.26 163.34L400.26 163.34L400.2 163.94L400.2 163.94L400.2 163.88L400.2 163.88L399.96 165.08L399.96 165.08L399.96 165.02L399.96 165.02L399.6 166.22L399.6 166.22L399.6 166.16L399.6 166.16L398.88 167.78L398.88 167.78L398.94 167.72L398.94 167.72L398.64 168.2L398.64 168.2L398.28 168.74L398.28 168.74L397.98 169.22L397.98 169.22L398.04 169.16L398.04 169.16L397.68 169.58L397.68 169.58L397.26 170.06L397.26 170.06L396.42 170.9L396.42 170.9L396.48 170.84L396.48 170.84L396.06 171.2L396.06 171.2L395.1 171.92L395.1 171.92L395.16 171.92L395.16 171.92L394.68 172.22L394.68 172.22L394.68 172.16L394.68 172.16L395.16 173.06L395.16 173.06L395.22 173.06L395.22 173.06L395.7 172.76C 398.852 170.6 400.865 167.239 401.28 163.46L401.28 163.46L401.34 162.86L401.34 162.86L401.34 162.8C 401.565 159.11 399.946 155.038 397.14 152.66L397.14 152.66L397.14 152.6L397.14 152.6L396.72 152.24" stroke="none" fill="#FF0000" fill-rule="nonzero" /><path id="1080" transform="matrix(1 0 0 -1 0 842)" d="M394.68 172.16L393.6 172.76L393.6 172.76L393.66 172.76L393.66 172.76L392.58 173.24L392.58 173.24L392.64 173.24L392.64 173.24L392.04 173.42L392.04 173.42L391.5 173.6L391.5 173.6L391.56 173.54L391.56 173.54L390.36 173.78L390.36 173.78L389.7 173.84L389.7 173.84L389.1 173.9L389.1 173.9L389.16 173.9L389.16 173.9L309.3 173.9L309.3 173.9L309.3 174.92L309.3 174.92L389.22 174.92L389.22 174.92L389.82 174.86L389.82 174.86L390.48 174.8L390.48 174.8L390.54 174.8L390.54 174.8L391.14 174.68C 391.733 174.654 392.472 174.277 393 174.2L393 174.2L394.08 173.72L394.08 173.72L394.08 173.66L394.08 173.66L395.16 173.06" stroke="none" fill="#FF0000" fill-rule="nonzero" /></g></g></g></g></svg>