<svg xmlns="http://www.w3.org/2000/svg" xmlns:xlink="http://www.w3.org/1999/xlink" id="body_118" preserveAspectRatio="xMinYMin meet" viewBox="0 0 793 1123"><defs><clipPath id="1"><path id="" clip-rule="evenodd" transform="matrix(1 0 0 1 0 0)" d="M0 842L0 0L0 0L595 0L595 0L595 842L595 842L0 842z" /></clipPath><clipPath id="2"><path id="" clip-rule="evenodd" transform="matrix(1 0 0 1 0 0)" d="M224.94 96.06L243.54 96.06L243.54 96.06L243.54 113.88L243.54 113.88L224.94 113.88z" /></clipPath><clipPath id="3"><path id="" clip-rule="evenodd" transform="matrix(1 0 0 1 0 0)" d="M0 0.02001953L595.2 0.02001953L595.2 0.02001953L595.2 842L595.2 842L0 842z" /></clipPath><clipPath id="4"><path id="" clip-rule="evenodd" transform="matrix(1 0 0 1 0 0)" d="M225.96 97.02002L242.52 97.02002L242.52 97.02002L242.52 112.86L242.52 112.86L225.96 112.86z" /></clipPath><clipPath id="5"><path id="" clip-rule="evenodd" transform="matrix(1 0 0 1 0 0)" d="M224.94 96.06L243.54 96.06L243.54 96.06L243.54 113.88L243.54 113.88L224.94 113.88z" /></clipPath><clipPath id="6"><path id="" clip-rule="evenodd" transform="matrix(1 0 0 1 0 0)" d="M0 0.02001953L595.2 0.02001953L595.2 0.02001953L595.2 842L595.2 842L0 842z" /></clipPath><clipPath id="7"><path id="" clip-rule="evenodd" transform="matrix(1 0 0 1 0 0)" d="M224.94 123.9L243.54 123.9L243.54 123.9L243.54 141.72L243.54 141.72L224.94 141.72z" /></clipPath><clipPath id="8"><path id="" clip-rule="evenodd" transform="matrix(1 0 0 1 0 0)" d="M0 0.02001953L595.2 0.02001953L595.2 0.02001953L595.2 842L595.2 842L0 842z" /></clipPath><clipPath id="9"><path id="" clip-rule="evenodd" transform="matrix(1 0 0 1 0 0)" d="M225.96 124.86L242.52 124.86L242.52 124.86L242.52 140.7L242.52 140.7L225.96 140.7z" /></clipPath><clipPath id="10"><path id="" clip-rule="evenodd" transform="matrix(1 0 0 1 0 0)" d="M224.94 123.9L243.54 123.9L243.54 123.9L243.54 141.72L243.54 141.72L224.94 141.72z" /></clipPath><clipPath id="11"><path id="" clip-rule="evenodd" transform="matrix(1 0 0 1 0 0)" d="M0 0.02001953L595.2 0.02001953L595.2 0.02001953L595.2 842L595.2 842L0 842z" /></clipPath><clipPath id="12"><path id="" clip-rule="evenodd" transform="matrix(1 0 0 1 0 0)" d="M224.94 151.74L243.54 151.74L243.54 151.74L243.54 169.62L243.54 169.62L224.94 169.62z" /></clipPath><clipPath id="13"><path id="" clip-rule="evenodd" transform="matrix(1 0 0 1 0 0)" d="M0 0.02001953L595.2 0.02001953L595.2 0.02001953L595.2 842L595.2 842L0 842z" /></clipPath><clipPath id="14"><path id="" clip-rule="evenodd" transform="matrix(1 0 0 1 0 0)" d="M225.96 152.76L242.52 152.76L242.52 152.76L242.52 168.6L242.52 168.6L225.96 168.6z" /></clipPath><clipPath id="15"><path id="" clip-rule="evenodd" transform="matrix(1 0 0 1 0 0)" d="M224.94 151.74L243.54 151.74L243.54 151.74L243.54 169.62L243.54 169.62L224.94 169.62z" /></clipPath><clipPath id="16"><path id="" clip-rule="evenodd" transform="matrix(1 0 0 1 0 0)" d="M0 0.02001953L595.2 0.02001953L595.2 0.02001953L595.2 842L595.2 842L0 842z" /></clipPath><clipPath id="17"><path id="" clip-rule="evenodd" transform="matrix(1 0 0 1 0 0)" d="M224.94 179.58L243.54 179.58L243.54 179.58L243.54 197.46L243.54 197.46L224.94 197.46z" /></clipPath><clipPath id="18"><path id="" clip-rule="evenodd" transform="matrix(1 0 0 1 0 0)" d="M0 0.02001953L595.2 0.02001953L595.2 0.02001953L595.2 842L595.2 842L0 842z" /></clipPath><clipPath id="19"><path id="" clip-rule="evenodd" transform="matrix(1 0 0 1 0 0)" d="M225.96 180.6L242.52 180.6L242.52 180.6L242.52 196.44L242.52 196.44L225.96 196.44z" /></clipPath><clipPath id="20"><path id="" clip-rule="evenodd" transform="matrix(1 0 0 1 0 0)" d="M224.94 179.58L243.54 179.58L243.54 179.58L243.54 197.46L243.54 197.46L224.94 197.46z" /></clipPath><clipPath id="21"><path id="" clip-rule="evenodd" transform="matrix(1 0 0 1 0 0)" d="M0 0.02001953L595.2 0.02001953L595.2 0.02001953L595.2 842L595.2 842L0 842z" /></clipPath><clipPath id="22"><path id="" clip-rule="evenodd" transform="matrix(1 0 0 1 0 0)" d="M224.94 207.48L243.54 207.48L243.54 207.48L243.54 225.3L243.54 225.3L224.94 225.3z" /></clipPath><clipPath id="23"><path id="" clip-rule="evenodd" transform="matrix(1 0 0 1 0 0)" d="M0 0.02001953L595.2 0.02001953L595.2 0.02001953L595.2 842L595.2 842L0 842z" /></clipPath><clipPath id="24"><path id="" clip-rule="evenodd" transform="matrix(1 0 0 1 0 0)" d="M225.96 208.44L242.52 208.44L242.52 208.44L242.52 224.28L242.52 224.28L225.96 224.28z" /></clipPath><clipPath id="25"><path id="" clip-rule="evenodd" transform="matrix(1 0 0 1 0 0)" d="M224.94 207.48L243.54 207.48L243.54 207.48L243.54 225.3L243.54 225.3L224.94 225.3z" /></clipPath><clipPath id="26"><path id="" clip-rule="evenodd" transform="matrix(1 0 0 1 0 0)" d="M0 0.02001953L595.2 0.02001953L595.2 0.02001953L595.2 842L595.2 842L0 842z" /></clipPath><clipPath id="27"><path id="" clip-rule="evenodd" transform="matrix(1 0 0 1 0 0)" d="M224.94 235.32L243.54 235.32L243.54 235.32L243.54 253.2L243.54 253.2L224.94 253.2z" /></clipPath><clipPath id="28"><path id="" clip-rule="evenodd" transform="matrix(1 0 0 1 0 0)" d="M0 0.02001953L595.2 0.02001953L595.2 0.02001953L595.2 842L595.2 842L0 842z" /></clipPath><clipPath id="29"><path id="" clip-rule="evenodd" transform="matrix(1 0 0 1 0 0)" d="M225.96 236.34L242.52 236.34L242.52 236.34L242.52 252.1801L242.52 252.1801L225.96 252.1801z" /></clipPath><clipPath id="30"><path id="" clip-rule="evenodd" transform="matrix(1 0 0 1 0 0)" d="M224.94 235.32L243.54 235.32L243.54 235.32L243.54 253.2L243.54 253.2L224.94 253.2z" /></clipPath><clipPath id="31"><path id="" clip-rule="evenodd" transform="matrix(1 0 0 1 0 0)" d="M0 0.02001953L595.2 0.02001953L595.2 0.02001953L595.2 842L595.2 842L0 842z" /></clipPath><clipPath id="32"><path id="" clip-rule="evenodd" transform="matrix(1 0 0 1 0 0)" d="M224.94 263.16L243.54 263.16L243.54 263.16L243.54 281.04L243.54 281.04L224.94 281.04z" /></clipPath><clipPath id="33"><path id="" clip-rule="evenodd" transform="matrix(1 0 0 1 0 0)" d="M0 0.02001953L595.2 0.02001953L595.2 0.02001953L595.2 842L595.2 842L0 842z" /></clipPath><clipPath id="34"><path id="" clip-rule="evenodd" transform="matrix(1 0 0 1 0 0)" d="M225.96 264.18L242.52 264.18L242.52 264.18L242.52 280.02L242.52 280.02L225.96 280.02z" /></clipPath><clipPath id="35"><path id="" clip-rule="evenodd" transform="matrix(1 0 0 1 0 0)" d="M224.94 263.16L243.54 263.16L243.54 263.16L243.54 281.04L243.54 281.04L224.94 281.04z" /></clipPath><clipPath id="36"><path id="" clip-rule="evenodd" transform="matrix(1 0 0 1 0 0)" d="M0 0.02001953L595.2 0.02001953L595.2 0.02001953L595.2 842L595.2 842L0 842z" /></clipPath><clipPath id="37"><path id="" clip-rule="evenodd" transform="matrix(1 0 0 1 0 0)" d="M224.94 291.06L243.54 291.06L243.54 291.06L243.54 308.88L243.54 308.88L224.94 308.88z" /></clipPath><clipPath id="38"><path id="" clip-rule="evenodd" transform="matrix(1 0 0 1 0 0)" d="M0 0.02001953L595.2 0.02001953L595.2 0.02001953L595.2 842L595.2 842L0 842z" /></clipPath><clipPath id="39"><path id="" clip-rule="evenodd" transform="matrix(1 0 0 1 0 0)" d="M225.96 292.02L242.52 292.02L242.52 292.02L242.52 307.86L242.52 307.86L225.96 307.86z" /></clipPath><clipPath id="40"><path id="" clip-rule="evenodd" transform="matrix(1 0 0 1 0 0)" d="M224.94 291.06L243.54 291.06L243.54 291.06L243.54 308.88L243.54 308.88L224.94 308.88z" /></clipPath><clipPath id="41"><path id="" clip-rule="evenodd" transform="matrix(1 0 0 1 0 0)" d="M0 0.02001953L595.2 0.02001953L595.2 0.02001953L595.2 842L595.2 842L0 842z" /></clipPath><clipPath id="42"><path id="" clip-rule="evenodd" transform="matrix(1 0 0 1 0 0)" d="M224.94 318.9L243.54 318.9L243.54 318.9L243.54 336.72L243.54 336.72L224.94 336.72z" /></clipPath><clipPath id="43"><path id="" clip-rule="evenodd" transform="matrix(1 0 0 1 0 0)" d="M0 0.02001953L595.2 0.02001953L595.2 0.02001953L595.2 842L595.2 842L0 842z" /></clipPath><clipPath id="44"><path id="" clip-rule="evenodd" transform="matrix(1 0 0 1 0 0)" d="M225.96 319.86L242.52 319.86L242.52 319.86L242.52 335.7L242.52 335.7L225.96 335.7z" /></clipPath><clipPath id="45"><path id="" clip-rule="evenodd" transform="matrix(1 0 0 1 0 0)" d="M224.94 318.9L243.54 318.9L243.54 318.9L243.54 336.72L243.54 336.72L224.94 336.72z" /></clipPath><clipPath id="46"><path id="" clip-rule="evenodd" transform="matrix(1 0 0 1 0 0)" d="M0 0.02001953L595.2 0.02001953L595.2 0.02001953L595.2 842L595.2 842L0 842z" /></clipPath><clipPath id="47"><path id="" clip-rule="evenodd" transform="matrix(1 0 0 1 0 0)" d="M224.94 346.74L243.54 346.74L243.54 346.74L243.54 364.62L243.54 364.62L224.94 364.62z" /></clipPath><clipPath id="48"><path id="" clip-rule="evenodd" transform="matrix(1 0 0 1 0 0)" d="M0 0.02001953L595.2 0.02001953L595.2 0.02001953L595.2 842L595.2 842L0 842z" /></clipPath><clipPath id="49"><path id="" clip-rule="evenodd" transform="matrix(1 0 0 1 0 0)" d="M225.96 347.76L242.52 347.76L242.52 347.76L242.52 363.6L242.52 363.6L225.96 363.6z" /></clipPath><clipPath id="50"><path id="" clip-rule="evenodd" transform="matrix(1 0 0 1 0 0)" d="M224.94 346.74L243.54 346.74L243.54 346.74L243.54 364.62L243.54 364.62L224.94 364.62z" /></clipPath><clipPath id="51"><path id="" clip-rule="evenodd" transform="matrix(1 0 0 1 0 0)" d="M0 0.02001953L595.2 0.02001953L595.2 0.02001953L595.2 842L595.2 842L0 842z" /></clipPath><clipPath id="52"><path id="" clip-rule="evenodd" transform="matrix(1 0 0 1 0 0)" d="M224.94 374.58L243.54 374.58L243.54 374.58L243.54 392.46L243.54 392.46L224.94 392.46z" /></clipPath><clipPath id="53"><path id="" clip-rule="evenodd" transform="matrix(1 0 0 1 0 0)" d="M0 0.02001953L595.2 0.02001953L595.2 0.02001953L595.2 842L595.2 842L0 842z" /></clipPath><clipPath id="54"><path id="" clip-rule="evenodd" transform="matrix(1 0 0 1 0 0)" d="M225.96 375.6L242.52 375.6L242.52 375.6L242.52 391.44L242.52 391.44L225.96 391.44z" /></clipPath><clipPath id="55"><path id="" clip-rule="evenodd" transform="matrix(1 0 0 1 0 0)" d="M224.94 374.58L243.54 374.58L243.54 374.58L243.54 392.46L243.54 392.46L224.94 392.46z" /></clipPath><clipPath id="56"><path id="" clip-rule="evenodd" transform="matrix(1 0 0 1 0 0)" d="M0 0.02001953L595.2 0.02001953L595.2 0.02001953L595.2 842L595.2 842L0 842z" /></clipPath><clipPath id="57"><path id="" clip-rule="evenodd" transform="matrix(1 0 0 1 0 0)" d="M224.94 422.58L243.54 422.58L243.54 422.58L243.54 440.46L243.54 440.46L224.94 440.46z" /></clipPath><clipPath id="58"><path id="" clip-rule="evenodd" transform="matrix(1 0 0 1 0 0)" d="M0 0.02001953L595.2 0.02001953L595.2 0.02001953L595.2 842L595.2 842L0 842z" /></clipPath><clipPath id="59"><path id="" clip-rule="evenodd" transform="matrix(1 0 0 1 0 0)" d="M225.96 423.6L242.52 423.6L242.52 423.6L242.52 439.44L242.52 439.44L225.96 439.44z" /></clipPath><clipPath id="60"><path id="" clip-rule="evenodd" transform="matrix(1 0 0 1 0 0)" d="M224.94 422.58L243.54 422.58L243.54 422.58L243.54 440.46L243.54 440.46L224.94 440.46z" /></clipPath><clipPath id="61"><path id="" clip-rule="evenodd" transform="matrix(1 0 0 1 0 0)" d="M0 0.02001953L595.2 0.02001953L595.2 0.02001953L595.2 842L595.2 842L0 842z" /></clipPath><clipPath id="62"><path id="" clip-rule="evenodd" transform="matrix(1 0 0 1 0 0)" d="M224.94 450.48L239.64 450.48L239.64 450.48L239.64 464.46L239.64 464.46L224.94 464.46z" /></clipPath><clipPath id="63"><path id="" clip-rule="evenodd" transform="matrix(1 0 0 1 0 0)" d="M0 0.02001953L595.2 0.02001953L595.2 0.02001953L595.2 842L595.2 842L0 842z" /></clipPath><clipPath id="64"><path id="" clip-rule="evenodd" transform="matrix(1 0 0 1 0 0)" d="M225.96 451.44L238.68 451.44L238.68 451.44L238.68 463.44L238.68 463.44L225.96 463.44z" /></clipPath><clipPath id="65"><path id="" clip-rule="evenodd" transform="matrix(1 0 0 1 0 0)" d="M224.94 450.48L239.64 450.48L239.64 450.48L239.64 464.46L239.64 464.46L224.94 464.46z" /></clipPath><clipPath id="66"><path id="" clip-rule="evenodd" transform="matrix(1 0 0 1 0 0)" d="M0 0.02001953L595.2 0.02001953L595.2 0.02001953L595.2 842L595.2 842L0 842z" /></clipPath><clipPath id="67"><path id="" clip-rule="evenodd" transform="matrix(1 0 0 1 0 0)" d="M224.94 474.42L243.54 474.42L243.54 474.42L243.54 492.3L243.54 492.3L224.94 492.3z" /></clipPath><clipPath id="68"><path id="" clip-rule="evenodd" transform="matrix(1 0 0 1 0 0)" d="M0 0.02001953L595.2 0.02001953L595.2 0.02001953L595.2 842L595.2 842L0 842z" /></clipPath><clipPath id="69"><path id="" clip-rule="evenodd" transform="matrix(1 0 0 1 0 0)" d="M225.96 475.44L242.52 475.44L242.52 475.44L242.52 491.28L242.52 491.28L225.96 491.28z" /></clipPath><clipPath id="70"><path id="" clip-rule="evenodd" transform="matrix(1 0 0 1 0 0)" d="M224.94 474.42L243.54 474.42L243.54 474.42L243.54 492.3L243.54 492.3L224.94 492.3z" /></clipPath><clipPath id="71"><path id="" clip-rule="evenodd" transform="matrix(1 0 0 1 0 0)" d="M0 0.02001953L595.2 0.02001953L595.2 0.02001953L595.2 842L595.2 842L0 842z" /></clipPath><clipPath id="72"><path id="" clip-rule="evenodd" transform="matrix(1 0 0 1 0 0)" d="M224.94 502.26L243.54 502.26L243.54 502.26L243.54 520.14L243.54 520.14L224.94 520.14z" /></clipPath><clipPath id="73"><path id="" clip-rule="evenodd" transform="matrix(1 0 0 1 0 0)" d="M0 0.02001953L595.2 0.02001953L595.2 0.02001953L595.2 842L595.2 842L0 842z" /></clipPath><clipPath id="74"><path id="" clip-rule="evenodd" transform="matrix(1 0 0 1 0 0)" d="M225.96 503.28L242.52 503.28L242.52 503.28L242.52 519.12L242.52 519.12L225.96 519.12z" /></clipPath><clipPath id="75"><path id="" clip-rule="evenodd" transform="matrix(1 0 0 1 0 0)" d="M224.94 502.26L243.54 502.26L243.54 502.26L243.54 520.14L243.54 520.14L224.94 520.14z" /></clipPath><clipPath id="76"><path id="" clip-rule="evenodd" transform="matrix(1 0 0 1 0 0)" d="M0 0.02001953L595.2 0.02001953L595.2 0.02001953L595.2 842L595.2 842L0 842z" /></clipPath><clipPath id="77"><path id="" clip-rule="evenodd" transform="matrix(1 0 0 1 0 0)" d="M224.94 530.16L243.54 530.16L243.54 530.16L243.54 547.98L243.54 547.98L224.94 547.98z" /></clipPath><clipPath id="78"><path id="" clip-rule="evenodd" transform="matrix(1 0 0 1 0 0)" d="M0 0.02001953L595.2 0.02001953L595.2 0.02001953L595.2 842L595.2 842L0 842z" /></clipPath><clipPath id="79"><path id="" clip-rule="evenodd" transform="matrix(1 0 0 1 0 0)" d="M225.96 531.12L242.52 531.12L242.52 531.12L242.52 546.96L242.52 546.96L225.96 546.96z" /></clipPath><clipPath id="80"><path id="" clip-rule="evenodd" transform="matrix(1 0 0 1 0 0)" d="M224.94 530.16L243.54 530.16L243.54 530.16L243.54 547.98L243.54 547.98L224.94 547.98z" /></clipPath><clipPath id="81"><path id="" clip-rule="evenodd" transform="matrix(1 0 0 1 0 0)" d="M0 0.02001953L595.2 0.02001953L595.2 0.02001953L595.2 842L595.2 842L0 842z" /></clipPath><clipPath id="82"><path id="" clip-rule="evenodd" transform="matrix(1 0 0 1 0 0)" d="M224.94 558L243.54 558L243.54 558L243.54 575.88L243.54 575.88L224.94 575.88z" /></clipPath><clipPath id="83"><path id="" clip-rule="evenodd" transform="matrix(1 0 0 1 0 0)" d="M0 0.02001953L595.2 0.02001953L595.2 0.02001953L595.2 842L595.2 842L0 842z" /></clipPath><clipPath id="84"><path id="" clip-rule="evenodd" transform="matrix(1 0 0 1 0 0)" d="M225.96 559.02L242.52 559.02L242.52 559.02L242.52 574.86L242.52 574.86L225.96 574.86z" /></clipPath><clipPath id="85"><path id="" clip-rule="evenodd" transform="matrix(1 0 0 1 0 0)" d="M224.94 558L243.54 558L243.54 558L243.54 575.88L243.54 575.88L224.94 575.88z" /></clipPath><clipPath id="86"><path id="" clip-rule="evenodd" transform="matrix(1 0 0 1 0 0)" d="M0 0.02001953L595.2 0.02001953L595.2 0.02001953L595.2 842L595.2 842L0 842z" /></clipPath><clipPath id="87"><path id="" clip-rule="evenodd" transform="matrix(1 0 0 1 0 0)" d="M224.94 585.84L243.54 585.84L243.54 585.84L243.54 603.72L243.54 603.72L224.94 603.72z" /></clipPath><clipPath id="88"><path id="" clip-rule="evenodd" transform="matrix(1 0 0 1 0 0)" d="M0 0.02001953L595.2 0.02001953L595.2 0.02001953L595.2 842L595.2 842L0 842z" /></clipPath><clipPath id="89"><path id="" clip-rule="evenodd" transform="matrix(1 0 0 1 0 0)" d="M225.96 586.86L242.52 586.86L242.52 586.86L242.52 602.7L242.52 602.7L225.96 602.7z" /></clipPath><clipPath id="90"><path id="" clip-rule="evenodd" transform="matrix(1 0 0 1 0 0)" d="M224.94 585.84L243.54 585.84L243.54 585.84L243.54 603.72L243.54 603.72L224.94 603.72z" /></clipPath><clipPath id="91"><path id="" clip-rule="evenodd" transform="matrix(1 0 0 1 0 0)" d="M0 0.02001953L595.2 0.02001953L595.2 0.02001953L595.2 842L595.2 842L0 842z" /></clipPath><clipPath id="92"><path id="" clip-rule="evenodd" transform="matrix(1 0 0 1 0 0)" d="M224.94 613.74L243.54 613.74L243.54 613.74L243.54 631.56L243.54 631.56L224.94 631.56z" /></clipPath><clipPath id="93"><path id="" clip-rule="evenodd" transform="matrix(1 0 0 1 0 0)" d="M0 0.02001953L595.2 0.02001953L595.2 0.02001953L595.2 842L595.2 842L0 842z" /></clipPath><clipPath id="94"><path id="" clip-rule="evenodd" transform="matrix(1 0 0 1 0 0)" d="M225.96 614.7L242.52 614.7L242.52 614.7L242.52 630.54L242.52 630.54L225.96 630.54z" /></clipPath><clipPath id="95"><path id="" clip-rule="evenodd" transform="matrix(1 0 0 1 0 0)" d="M224.94 613.74L243.54 613.74L243.54 613.74L243.54 631.56L243.54 631.56L224.94 631.56z" /></clipPath><clipPath id="96"><path id="" clip-rule="evenodd" transform="matrix(1 0 0 1 0 0)" d="M0 0.02001953L595.2 0.02001953L595.2 0.02001953L595.2 842L595.2 842L0 842z" /></clipPath><clipPath id="97"><path id="" clip-rule="evenodd" transform="matrix(1 0 0 1 0 0)" d="M224.94 641.58L243.18 641.58L243.18 641.58L243.18 660.54L243.18 660.54L224.94 660.54z" /></clipPath><clipPath id="98"><path id="" clip-rule="evenodd" transform="matrix(1 0 0 1 0 0)" d="M0 0.02001953L595.2 0.02001953L595.2 0.02001953L595.2 842L595.2 842L0 842z" /></clipPath><clipPath id="99"><path id="" clip-rule="evenodd" transform="matrix(1 0 0 1 0 0)" d="M225.96 642.6L242.16 642.6L242.16 642.6L242.16 659.52L242.16 659.52L225.96 659.52z" /></clipPath><clipPath id="100"><path id="" clip-rule="evenodd" transform="matrix(1 0 0 1 0 0)" d="M224.94 641.58L243.18 641.58L243.18 641.58L243.18 660.54L243.18 660.54L224.94 660.54z" /></clipPath><clipPath id="101"><path id="" clip-rule="evenodd" transform="matrix(1 0 0 1 0 0)" d="M0 0.02001953L595.2 0.02001953L595.2 0.02001953L595.2 842L595.2 842L0 842z" /></clipPath></defs><g transform="matrix(1.333333 0 0 1.333333 0 0)"><g clip-path="url(#1)"><path id="722" transform="matrix(1 0 0 -1 0 842)" d="M224.94 751.94L273.18 751.94L273.18 769.94L224.94 769.94z" stroke="none" fill="#C4DFF7" fill-rule="nonzero" /><path id="729" transform="matrix(1 0 0 -1 0 842)" d="M273.18 751.94L558 751.94L558 769.94L273.18 769.94z" stroke="none" fill="#C4DFF7" fill-rule="nonzero" /><path id="741" transform="matrix(1 0 0 -1 0 842)" d="M224.94 723.86L558 723.86L558 724.34L224.94 724.34z" stroke="none" fill="#000000" fill-rule="nonzero" /><path id="742" transform="matrix(1 0 0 -1 0 842)" d="M224.94 696.02L558 696.02L558 696.5001L224.94 696.5001z" stroke="none" fill="#000000" fill-rule="nonzero" /><path id="743" transform="matrix(1 0 0 -1 0 842)" d="M224.94 668.18L558 668.18L558 668.66L224.94 668.66z" stroke="none" fill="#000000" fill-rule="nonzero" /><path id="744" transform="matrix(1 0 0 -1 0 842)" d="M224.94 640.28L558 640.28L558 640.76L224.94 640.76z" stroke="none" fill="#000000" fill-rule="nonzero" /><path id="745" transform="matrix(1 0 0 -1 0 842)" d="M224.94 612.44L558 612.44L558 612.92L224.94 612.92z" stroke="none" fill="#000000" fill-rule="nonzero" /><path id="746" transform="matrix(1 0 0 -1 0 842)" d="M224.94 584.6L558 584.6L558 585.08L224.94 585.08z" stroke="none" fill="#000000" fill-rule="nonzero" /><path id="747" transform="matrix(1 0 0 -1 0 842)" d="M224.94 556.7L558 556.7L558 557.18L224.94 557.18z" stroke="none" fill="#000000" fill-rule="nonzero" /><path id="748" transform="matrix(1 0 0 -1 0 842)" d="M224.94 528.86L558 528.86L558 529.34L224.94 529.34z" stroke="none" fill="#000000" fill-rule="nonzero" /><path id="749" transform="matrix(1 0 0 -1 0 842)" d="M224.94 501.02L558 501.02L558 501.5L224.94 501.5z" stroke="none" fill="#000000" fill-rule="nonzero" /><path id="750" transform="matrix(1 0 0 -1 0 842)" d="M224.94 473.18L558 473.18L558 473.66L224.94 473.66z" stroke="none" fill="#000000" fill-rule="nonzero" /><path id="751" transform="matrix(1 0 0 -1 0 842)" d="M224.94 425.18L558 425.18L558 425.66L224.94 425.66z" stroke="none" fill="#000000" fill-rule="nonzero" /><path id="752" transform="matrix(1 0 0 -1 0 842)" d="M224.94 397.28L558 397.28L558 397.76L224.94 397.76z" stroke="none" fill="#000000" fill-rule="nonzero" /><path id="753" transform="matrix(1 0 0 -1 0 842)" d="M224.94 373.34L558 373.34L558 373.82L224.94 373.82z" stroke="none" fill="#000000" fill-rule="nonzero" /><path id="754" transform="matrix(1 0 0 -1 0 842)" d="M224.94 345.5L558 345.5L558 345.98L224.94 345.98z" stroke="none" fill="#000000" fill-rule="nonzero" /><path id="755" transform="matrix(1 0 0 -1 0 842)" d="M224.94 317.6L558 317.6L558 318.08L224.94 318.08z" stroke="none" fill="#000000" fill-rule="nonzero" /><path id="756" transform="matrix(1 0 0 -1 0 842)" d="M224.94 289.76L558 289.76L558 290.24L224.94 290.24z" stroke="none" fill="#000000" fill-rule="nonzero" /><path id="757" transform="matrix(1 0 0 -1 0 842)" d="M224.94 261.92L558 261.92L558 262.4L224.94 262.4z" stroke="none" fill="#000000" fill-rule="nonzero" /><path id="758" transform="matrix(1 0 0 -1 0 842)" d="M224.94 234.02L558 234.02L558 234.5L224.94 234.5z" stroke="none" fill="#000000" fill-rule="nonzero" /><path id="759" transform="matrix(1 0 0 -1 0 842)" d="M224.94 206.18L558 206.18L558 206.66L224.94 206.66z" stroke="none" fill="#000000" fill-rule="nonzero" /><path id="760" transform="matrix(1 0 0 -1 0 842)" d="M224.94 176.72L558 176.72L558 178.22L224.94 178.22z" stroke="none" fill="#000000" fill-rule="nonzero" /><g clip-path="url(#2)"><g clip-path="url(#3)"><path id="761" transform="matrix(1 0 0 -1 0 842)" d="M225.96 729.14L242.52 729.14L242.52 744.98L225.96 744.98z" stroke="none" fill="#FFFFFF" fill-rule="nonzero" /></g></g><g clip-path="url(#4)"><g clip-path="url(#5)"><g clip-path="url(#6)"><g transform="matrix(0.48 0 0 0.48 225.96 97.01996)"><g transform="matrix(1 0 0 1 0 0)"><image x="0" y="0" xlink:href="img_291.png" width="35" height="33" /></g></g></g></g></g><g clip-path="url(#7)"><g clip-path="url(#8)"><path id="763" transform="matrix(1 0 0 -1 0 842)" d="M225.96 701.3L242.52 701.3L242.52 717.14L225.96 717.14z" stroke="none" fill="#FFFFFF" fill-rule="nonzero" /></g></g><g clip-path="url(#9)"><g clip-path="url(#10)"><g clip-path="url(#11)"><g transform="matrix(0.48 0 0 0.48 225.96 124.86)"><g transform="matrix(1 0 0 1 0 0)"><image x="0" y="0" xlink:href="img_292.png" width="35" height="33" /></g></g></g></g></g><g clip-path="url(#12)"><g clip-path="url(#13)"><path id="765" transform="matrix(1 0 0 -1 0 842)" d="M225.96 673.4L242.52 673.4L242.52 689.2401L225.96 689.2401z" stroke="none" fill="#FFFFFF" fill-rule="nonzero" /></g></g><g clip-path="url(#14)"><g clip-path="url(#15)"><g clip-path="url(#16)"><g transform="matrix(0.48 0 0 0.48 225.96 152.7599)"><g transform="matrix(1 0 0 1 0 0)"><image x="0" y="0" xlink:href="img_293.png" width="35" height="33" /></g></g></g></g></g><g clip-path="url(#17)"><g clip-path="url(#18)"><path id="767" transform="matrix(1 0 0 -1 0 842)" d="M225.96 645.56L242.52 645.56L242.52 661.4L225.96 661.4z" stroke="none" fill="#FFFFFF" fill-rule="nonzero" /></g></g><g clip-path="url(#19)"><g clip-path="url(#20)"><g clip-path="url(#21)"><g transform="matrix(0.48 0 0 0.48 225.96 180.6)"><g transform="matrix(1 0 0 1 0 0)"><image x="0" y="0" xlink:href="img_294.png" width="35" height="33" /></g></g></g></g></g><g clip-path="url(#22)"><g clip-path="url(#23)"><path id="769" transform="matrix(1 0 0 -1 0 842)" d="M225.96 617.72L242.52 617.72L242.52 633.56L225.96 633.56z" stroke="none" fill="#FFFFFF" fill-rule="nonzero" /></g></g><g clip-path="url(#24)"><g clip-path="url(#25)"><g clip-path="url(#26)"><g transform="matrix(0.48 0 0 0.48 225.96 208.44)"><g transform="matrix(1 0 0 1 0 0)"><image x="0" y="0" xlink:href="img_295.png" width="35" height="33" /></g></g></g></g></g><g clip-path="url(#27)"><g clip-path="url(#28)"><path id="771" transform="matrix(1 0 0 -1 0 842)" d="M225.96 589.82L242.52 589.82L242.52 605.66L225.96 605.66z" stroke="none" fill="#FFFFFF" fill-rule="nonzero" /></g></g><g clip-path="url(#29)"><g clip-path="url(#30)"><g clip-path="url(#31)"><g transform="matrix(0.48 0 0 0.48 225.96 236.34)"><g transform="matrix(1 0 0 1 0 0)"><image x="0" y="0" xlink:href="img_132.png" width="35" height="33" /></g></g></g></g></g><g clip-path="url(#32)"><g clip-path="url(#33)"><path id="773" transform="matrix(1 0 0 -1 0 842)" d="M225.96 561.98L242.52 561.98L242.52 577.82L225.96 577.82z" stroke="none" fill="#FFFFFF" fill-rule="nonzero" /></g></g><g clip-path="url(#34)"><g clip-path="url(#35)"><g clip-path="url(#36)"><g transform="matrix(0.48 0 0 0.48 225.96 264.18)"><g transform="matrix(1 0 0 1 0 0)"><image x="0" y="0" xlink:href="img_133.png" width="35" height="33" /></g></g></g></g></g><g clip-path="url(#37)"><g clip-path="url(#38)"><path id="775" transform="matrix(1 0 0 -1 0 842)" d="M225.96 534.14L242.52 534.14L242.52 549.98L225.96 549.98z" stroke="none" fill="#FFFFFF" fill-rule="nonzero" /></g></g><g clip-path="url(#39)"><g clip-path="url(#40)"><g clip-path="url(#41)"><g transform="matrix(0.48 0 0 0.48 225.96 292.02)"><g transform="matrix(1 0 0 1 0 0)"><image x="0" y="0" xlink:href="img_296.png" width="35" height="33" /></g></g></g></g></g><g clip-path="url(#42)"><g clip-path="url(#43)"><path id="777" transform="matrix(1 0 0 -1 0 842)" d="M225.96 506.3L242.52 506.3L242.52 522.14L225.96 522.14z" stroke="none" fill="#FFFFFF" fill-rule="nonzero" /></g></g><g clip-path="url(#44)"><g clip-path="url(#45)"><g clip-path="url(#46)"><g transform="matrix(0.48 0 0 0.48 225.96 319.86)"><g transform="matrix(1 0 0 1 0 0)"><image x="0" y="0" xlink:href="img_297.png" width="35" height="33" /></g></g></g></g></g><g clip-path="url(#47)"><g clip-path="url(#48)"><path id="779" transform="matrix(1 0 0 -1 0 842)" d="M225.96 478.4L242.52 478.4L242.52 494.24L225.96 494.24z" stroke="none" fill="#FFFFFF" fill-rule="nonzero" /></g></g><g clip-path="url(#49)"><g clip-path="url(#50)"><g clip-path="url(#51)"><g transform="matrix(0.48 0 0 0.48 225.96 347.76)"><g transform="matrix(1 0 0 1 0 0)"><image x="0" y="0" xlink:href="img_298.png" width="35" height="33" /></g></g></g></g></g><g clip-path="url(#52)"><g clip-path="url(#53)"><path id="781" transform="matrix(1 0 0 -1 0 842)" d="M225.96 450.56L242.52 450.56L242.52 466.4L225.96 466.4z" stroke="none" fill="#FFFFFF" fill-rule="nonzero" /></g></g><g clip-path="url(#54)"><g clip-path="url(#55)"><g clip-path="url(#56)"><g transform="matrix(0.48 0 0 0.48 225.96 375.6)"><g transform="matrix(1 0 0 1 0 0)"><image x="0" y="0" xlink:href="img_299.png" width="35" height="33" /></g></g></g></g></g><g clip-path="url(#57)"><g clip-path="url(#58)"><path id="783" transform="matrix(1 0 0 -1 0 842)" d="M225.96 402.56L242.52 402.56L242.52 418.4L225.96 418.4z" stroke="none" fill="#FFFFFF" fill-rule="nonzero" /></g></g><g clip-path="url(#59)"><g clip-path="url(#60)"><g clip-path="url(#61)"><g transform="matrix(0.48 0 0 0.48 225.96 423.6)"><g transform="matrix(1 0 0 1 0 0)"><image x="0" y="0" xlink:href="img_300.png" width="35" height="33" /></g></g></g></g></g><g clip-path="url(#62)"><g clip-path="url(#63)"><path id="785" transform="matrix(1 0 0 -1 0 842)" d="M225.96 378.56L238.68 378.56L238.68 390.56L225.96 390.56z" stroke="none" fill="#FFFFFF" fill-rule="nonzero" /></g></g><g clip-path="url(#64)"><g clip-path="url(#65)"><g clip-path="url(#66)"><g transform="matrix(0.48 0 0 0.48 225.96 451.44)"><g transform="matrix(1 0 0 1 0 0)"><image x="0" y="0" xlink:href="img_301.png" width="27" height="25" /></g></g></g></g></g><g clip-path="url(#67)"><g clip-path="url(#68)"><path id="787" transform="matrix(1 0 0 -1 0 842)" d="M225.96 350.72L242.52 350.72L242.52 366.56L225.96 366.56z" stroke="none" fill="#FFFFFF" fill-rule="nonzero" /></g></g><g clip-path="url(#69)"><g clip-path="url(#70)"><g clip-path="url(#71)"><g transform="matrix(0.48 0 0 0.48 225.96 475.44)"><g transform="matrix(1 0 0 1 0 0)"><image x="0" y="0" xlink:href="img_302.png" width="35" height="33" /></g></g></g></g></g><g clip-path="url(#72)"><g clip-path="url(#73)"><path id="789" transform="matrix(1 0 0 -1 0 842)" d="M225.96 322.88L242.52 322.88L242.52 338.72L225.96 338.72z" stroke="none" fill="#FFFFFF" fill-rule="nonzero" /></g></g><g clip-path="url(#74)"><g clip-path="url(#75)"><g clip-path="url(#76)"><g transform="matrix(0.48 0 0 0.48 225.96 503.28)"><g transform="matrix(1 0 0 1 0 0)"><image x="0" y="0" xlink:href="img_131.png" width="35" height="33" /></g></g></g></g></g><g clip-path="url(#77)"><g clip-path="url(#78)"><path id="791" transform="matrix(1 0 0 -1 0 842)" d="M225.96 295.04L242.52 295.04L242.52 310.88L225.96 310.88z" stroke="none" fill="#FFFFFF" fill-rule="nonzero" /></g></g><g clip-path="url(#79)"><g clip-path="url(#80)"><g clip-path="url(#81)"><g transform="matrix(0.48 0 0 0.48 225.96 531.12)"><g transform="matrix(1 0 0 1 0 0)"><image x="0" y="0" xlink:href="img_303.png" width="35" height="33" /></g></g></g></g></g><g clip-path="url(#82)"><g clip-path="url(#83)"><path id="793" transform="matrix(1 0 0 -1 0 842)" d="M225.96 267.14L242.52 267.14L242.52 282.98L225.96 282.98z" stroke="none" fill="#FFFFFF" fill-rule="nonzero" /></g></g><g clip-path="url(#84)"><g clip-path="url(#85)"><g clip-path="url(#86)"><g transform="matrix(0.48 0 0 0.48 225.96 559.02)"><g transform="matrix(1 0 0 1 0 0)"><image x="0" y="0" xlink:href="img_304.png" width="35" height="33" /></g></g></g></g></g><g clip-path="url(#87)"><g clip-path="url(#88)"><path id="795" transform="matrix(1 0 0 -1 0 842)" d="M225.96 239.3L242.52 239.3L242.52 255.14L225.96 255.14z" stroke="none" fill="#FFFFFF" fill-rule="nonzero" /></g></g><g clip-path="url(#89)"><g clip-path="url(#90)"><g clip-path="url(#91)"><g transform="matrix(0.48 0 0 0.48 225.96 586.86)"><g transform="matrix(1 0 0 1 0 0)"><image x="0" y="0" xlink:href="img_134.png" width="35" height="33" /></g></g></g></g></g><g clip-path="url(#92)"><g clip-path="url(#93)"><path id="797" transform="matrix(1 0 0 -1 0 842)" d="M225.96 211.46L242.52 211.46L242.52 227.3L225.96 227.3z" stroke="none" fill="#FFFFFF" fill-rule="nonzero" /></g></g><g clip-path="url(#94)"><g clip-path="url(#95)"><g clip-path="url(#96)"><g transform="matrix(0.48 0 0 0.48 225.96 614.7)"><g transform="matrix(1 0 0 1 0 0)"><image x="0" y="0" xlink:href="img_305.png" width="35" height="33" /></g></g></g></g></g><g clip-path="url(#97)"><g clip-path="url(#98)"><path id="799" transform="matrix(1 0 0 -1 0 842)" d="M225.96 182.48L242.16 182.48L242.16 199.4L225.96 199.4z" stroke="none" fill="#FFFFFF" fill-rule="nonzero" /></g></g><g clip-path="url(#99)"><g clip-path="url(#100)"><g clip-path="url(#101)"><g transform="matrix(0.4805294 0 0 0.47 225.96 642.6)"><g transform="matrix(1 0 0 1 0 0)"><image x="0" y="0" xlink:href="img_306.png" width="34" height="36" /></g></g></g></g></g></g></g></svg>