<svg xmlns="http://www.w3.org/2000/svg" xmlns:xlink="http://www.w3.org/1999/xlink" id="body_87" preserveAspectRatio="xMinYMin meet" viewBox="0 0 793 1123"><defs><clipPath id="1"><path id="" clip-rule="evenodd" transform="matrix(1 0 0 1 0 0)" d="M0 842L0 0L0 0L595 0L595 0L595 842L595 842L0 842z" /></clipPath></defs><g transform="matrix(1.333333 0 0 1.333333 0 0)"><g clip-path="url(#1)"><path id="1175" transform="matrix(1 0 0 -1 0 842)" d="M44.94 751.94L140.82 751.94L140.82 769.94L44.94 769.94z" stroke="none" fill="#C4DFF7" fill-rule="nonzero" /><path id="1185" transform="matrix(1 0 0 -1 0 842)" d="M140.82 769.94L558 769.94L558 751.94L140.82 751.94" stroke="none" fill="#C4DFF7" fill-rule="nonzero" /><path id="1197" transform="matrix(1 0 0 -1 0 842)" d="M44.94 637.7L558 637.7L558 638.18L44.94 638.18z" stroke="none" fill="#000000" fill-rule="nonzero" /><path id="1198" transform="matrix(1 0 0 -1 0 842)" d="M44.94 495.2L558 495.2L558 496.7L44.94 496.7z" stroke="none" fill="#000000" fill-rule="nonzero" /></g></g></svg>