<svg xmlns="http://www.w3.org/2000/svg" xmlns:xlink="http://www.w3.org/1999/xlink" id="body_36" preserveAspectRatio="xMinYMin meet" viewBox="0 0 793 1123"><defs><clipPath id="1"><path id="" clip-rule="evenodd" transform="matrix(1 0 0 1 0 0)" d="M0 842L0 0L0 0L595 0L595 0L595 842L595 842L0 842z" /></clipPath><clipPath id="2"><path id="" clip-rule="evenodd" transform="matrix(1 0 0 1 0 0)" d="M299.7 121.32L315.9 121.32L315.9 121.32L315.9 136.02L315.9 136.02L299.7 136.02z" /></clipPath><clipPath id="3"><path id="" clip-rule="evenodd" transform="matrix(1 0 0 1 0 0)" d="M0 0.02001953L595.2 0.02001953L595.2 0.02001953L595.2 842L595.2 842L0 842z" /></clipPath><clipPath id="4"><path id="" clip-rule="evenodd" transform="matrix(1 0 0 1 0 0)" d="M300.72 122.34L314.88 122.34L314.88 122.34L314.88 135.06L314.88 135.06L300.72 135.06z" /></clipPath><clipPath id="5"><path id="" clip-rule="evenodd" transform="matrix(1 0 0 1 0 0)" d="M299.7 121.32L315.9 121.32L315.9 121.32L315.9 136.02L315.9 136.02L299.7 136.02z" /></clipPath><clipPath id="6"><path id="" clip-rule="evenodd" transform="matrix(1 0 0 1 0 0)" d="M0 0.02001953L595.2 0.02001953L595.2 0.02001953L595.2 842L595.2 842L0 842z" /></clipPath><clipPath id="7"><path id="" clip-rule="evenodd" transform="matrix(1 0 0 1 0 0)" d="M44.94 210.06L557.46 210.06L557.46 210.06L557.46 423.24L557.46 423.24L44.94 423.24z" /></clipPath><clipPath id="8"><path id="" clip-rule="evenodd" transform="matrix(1 0 0 1 0 0)" d="M0 0.02001953L595.2 0.02001953L595.2 0.02001953L595.2 842L595.2 842L0 842z" /></clipPath><clipPath id="9"><path id="" clip-rule="evenodd" transform="matrix(1 0 0 1 0 0)" d="M45.96 211.02L556.44 211.02L556.44 211.02L556.44 422.22L556.44 422.22L45.96 422.22z" /></clipPath><clipPath id="10"><path id="" clip-rule="evenodd" transform="matrix(1 0 0 1 0 0)" d="M44.94 210.06L557.46 210.06L557.46 210.06L557.46 423.24L557.46 423.24L44.94 423.24z" /></clipPath><clipPath id="11"><path id="" clip-rule="evenodd" transform="matrix(1 0 0 1 0 0)" d="M0 0.02001953L595.2 0.02001953L595.2 0.02001953L595.2 842L595.2 842L0 842z" /></clipPath><clipPath id="12"><path id="" clip-rule="evenodd" transform="matrix(1 0 0 1 0 0)" d="M288.48 483.42L307.08 483.42L307.08 483.42L307.08 501.24L307.08 501.24L288.48 501.24z" /></clipPath><clipPath id="13"><path id="" clip-rule="evenodd" transform="matrix(1 0 0 1 0 0)" d="M0 0.02001953L595.2 0.02001953L595.2 0.02001953L595.2 842L595.2 842L0 842z" /></clipPath><clipPath id="14"><path id="" clip-rule="evenodd" transform="matrix(1 0 0 1 0 0)" d="M289.5 484.38L306.06 484.38L306.06 484.38L306.06 500.22L306.06 500.22L289.5 500.22z" /></clipPath><clipPath id="15"><path id="" clip-rule="evenodd" transform="matrix(1 0 0 1 0 0)" d="M288.48 483.42L307.08 483.42L307.08 483.42L307.08 501.24L307.08 501.24L288.48 501.24z" /></clipPath><clipPath id="16"><path id="" clip-rule="evenodd" transform="matrix(1 0 0 1 0 0)" d="M0 0.02001953L595.2 0.02001953L595.2 0.02001953L595.2 842L595.2 842L0 842z" /></clipPath></defs><g transform="matrix(1.333333 0 0 1.333333 0 0)"><g clip-path="url(#1)"><g clip-path="url(#2)"><g clip-path="url(#3)"><path id="708" transform="matrix(1 0 0 -1 0 842)" d="M300.72 706.94L314.88 706.94L314.88 719.66L300.72 719.66z" stroke="none" fill="#FFFFFF" fill-rule="nonzero" /></g></g><g clip-path="url(#4)"><g clip-path="url(#5)"><g clip-path="url(#6)"><g transform="matrix(0.48 0 0 0.4711111 300.72 122.34)"><g transform="matrix(1 0 0 1 0 0)"><image x="0" y="0" xlink:href="img_77.png" width="30" height="27" /></g></g></g></g></g><g clip-path="url(#7)"><g clip-path="url(#8)"><path id="736" transform="matrix(1 0 0 -1 0 842)" d="M45.96 419.78L556.44 419.78L556.44 630.98L45.96 630.98z" stroke="none" fill="#FFFFFF" fill-rule="nonzero" /></g></g><g clip-path="url(#9)"><g clip-path="url(#10)"><g clip-path="url(#11)"><g transform="matrix(0.48 0 0 0.48 45.96 211.02)"><g transform="matrix(1 0 0 1 0 0)"><image x="0" y="0" xlink:href="img_80.png" width="1064" height="440" /></g></g></g></g></g><g clip-path="url(#12)"><g clip-path="url(#13)"><path id="738" transform="matrix(1 0 0 -1 0 842)" d="M289.5 341.78L306.06 341.78L306.06 357.62L289.5 357.62z" stroke="none" fill="#FFFFFF" fill-rule="nonzero" /></g></g><g clip-path="url(#14)"><g clip-path="url(#15)"><g clip-path="url(#16)"><g transform="matrix(0.48 0 0 0.48 289.5 484.38)"><g transform="matrix(1 0 0 1 0 0)"><image x="0" y="0" xlink:href="img_81.png" width="35" height="33" /></g></g></g></g></g></g></g></svg>