<svg xmlns="http://www.w3.org/2000/svg" xmlns:xlink="http://www.w3.org/1999/xlink" id="body_121" preserveAspectRatio="xMinYMin meet" viewBox="0 0 793 1123"><defs><clipPath id="1"><path id="" clip-rule="evenodd" transform="matrix(1 0 0 1 0 0)" d="M0 842L0 0L0 0L595 0L595 0L595 842L595 842L0 842z" /></clipPath><clipPath id="2"><path id="" clip-rule="evenodd" transform="matrix(1 0 0 1 0 0)" d="M215.94 172.02L540.3 172.02L540.3 172.02L540.3 445.38L540.3 445.38L215.94 445.38z" /></clipPath><clipPath id="3"><path id="" clip-rule="evenodd" transform="matrix(1 0 0 1 0 0)" d="M0 0.02001953L595.2 0.02001953L595.2 0.02001953L595.2 842L595.2 842L0 842z" /></clipPath><clipPath id="4"><path id="" clip-rule="evenodd" transform="matrix(1 0 0 1 0 0)" d="M216.96 173.04L539.28 173.04L539.28 173.04L539.28 444.36L539.28 444.36L216.96 444.36z" /></clipPath><clipPath id="5"><path id="" clip-rule="evenodd" transform="matrix(1 0 0 1 0 0)" d="M215.94 172.02L540.3 172.02L540.3 172.02L540.3 445.38L540.3 445.38L215.94 445.38z" /></clipPath><clipPath id="6"><path id="" clip-rule="evenodd" transform="matrix(1 0 0 1 0 0)" d="M0 0.02001953L595.2 0.02001953L595.2 0.02001953L595.2 842L595.2 842L0 842z" /></clipPath><clipPath id="7"><path id="" clip-rule="evenodd" transform="matrix(1 0 0 1 0 0)" d="M215.94 669.36L234.54 669.36L234.54 669.36L234.54 687.24L234.54 687.24L215.94 687.24z" /></clipPath><clipPath id="8"><path id="" clip-rule="evenodd" transform="matrix(1 0 0 1 0 0)" d="M0 0.02001953L595.2 0.02001953L595.2 0.02001953L595.2 842L595.2 842L0 842z" /></clipPath><clipPath id="9"><path id="" clip-rule="evenodd" transform="matrix(1 0 0 1 0 0)" d="M216.96 670.38L233.52 670.38L233.52 670.38L233.52 686.22L233.52 686.22L216.96 686.22z" /></clipPath><clipPath id="10"><path id="" clip-rule="evenodd" transform="matrix(1 0 0 1 0 0)" d="M215.94 669.36L234.54 669.36L234.54 669.36L234.54 687.24L234.54 687.24L215.94 687.24z" /></clipPath><clipPath id="11"><path id="" clip-rule="evenodd" transform="matrix(1 0 0 1 0 0)" d="M0 0.02001953L595.2 0.02001953L595.2 0.02001953L595.2 842L595.2 842L0 842z" /></clipPath><clipPath id="12"><path id="" clip-rule="evenodd" transform="matrix(1 0 0 1 0 0)" d="M215.94 697.2L234.54 697.2L234.54 697.2L234.54 715.08L234.54 715.08L215.94 715.08z" /></clipPath><clipPath id="13"><path id="" clip-rule="evenodd" transform="matrix(1 0 0 1 0 0)" d="M0 0.02001953L595.2 0.02001953L595.2 0.02001953L595.2 842L595.2 842L0 842z" /></clipPath><clipPath id="14"><path id="" clip-rule="evenodd" transform="matrix(1 0 0 1 0 0)" d="M216.96 698.22L233.52 698.22L233.52 698.22L233.52 714.06L233.52 714.06L216.96 714.06z" /></clipPath><clipPath id="15"><path id="" clip-rule="evenodd" transform="matrix(1 0 0 1 0 0)" d="M215.94 697.2L234.54 697.2L234.54 697.2L234.54 715.08L234.54 715.08L215.94 715.08z" /></clipPath><clipPath id="16"><path id="" clip-rule="evenodd" transform="matrix(1 0 0 1 0 0)" d="M0 0.02001953L595.2 0.02001953L595.2 0.02001953L595.2 842L595.2 842L0 842z" /></clipPath><clipPath id="17"><path id="" clip-rule="evenodd" transform="matrix(1 0 0 1 0 0)" d="M215.94 725.1L234.54 725.1L234.54 725.1L234.54 742.92L234.54 742.92L215.94 742.92z" /></clipPath><clipPath id="18"><path id="" clip-rule="evenodd" transform="matrix(1 0 0 1 0 0)" d="M0 0.02001953L595.2 0.02001953L595.2 0.02001953L595.2 842L595.2 842L0 842z" /></clipPath><clipPath id="19"><path id="" clip-rule="evenodd" transform="matrix(1 0 0 1 0 0)" d="M216.96 726.06L233.52 726.06L233.52 726.06L233.52 741.9L233.52 741.9L216.96 741.9z" /></clipPath><clipPath id="20"><path id="" clip-rule="evenodd" transform="matrix(1 0 0 1 0 0)" d="M215.94 725.1L234.54 725.1L234.54 725.1L234.54 742.92L234.54 742.92L215.94 742.92z" /></clipPath><clipPath id="21"><path id="" clip-rule="evenodd" transform="matrix(1 0 0 1 0 0)" d="M0 0.02001953L595.2 0.02001953L595.2 0.02001953L595.2 842L595.2 842L0 842z" /></clipPath></defs><g transform="matrix(1.333333 0 0 1.333333 0 0)"><g clip-path="url(#1)"><path id="685" transform="matrix(1 0 0 -1 0 842)" d="M215.94 178.64L262.02 178.64L262.02 196.64L215.94 196.64z" stroke="none" fill="#C4DFF7" fill-rule="nonzero" /><path id="692" transform="matrix(1 0 0 -1 0 842)" d="M262.02 178.64L549 178.64L549 196.64L262.02 196.64z" stroke="none" fill="#C4DFF7" fill-rule="nonzero" /><path id="840" transform="matrix(1 0 0 -1 0 842)" d="M215.94 150.56L549 150.56L549 151.04L215.94 151.04z" stroke="none" fill="#000000" fill-rule="nonzero" /><path id="841" transform="matrix(1 0 0 -1 0 842)" d="M215.94 122.66L549 122.66L549 123.14L215.94 123.14z" stroke="none" fill="#000000" fill-rule="nonzero" /><path id="842" transform="matrix(1 0 0 -1 0 842)" d="M215.94 94.28L549 94.28L549 95.78L215.94 95.78z" stroke="none" fill="#000000" fill-rule="nonzero" /><g clip-path="url(#2)"><g clip-path="url(#3)"><path id="843" transform="matrix(1 0 0 -1 0 842)" d="M216.96 397.64L539.28 397.64L539.28 668.96L216.96 668.96z" stroke="none" fill="#FFFFFF" fill-rule="nonzero" /></g></g><g clip-path="url(#4)"><g clip-path="url(#5)"><g clip-path="url(#6)"><g transform="matrix(0.4804978 0 0 0.4802124 216.96 173.04)"><g transform="matrix(1 0 0 1 0 0)"><image x="0" y="0" xlink:href="img_312.png" width="671" height="565" /></g></g></g></g></g><g clip-path="url(#7)"><g clip-path="url(#8)"><path id="845" transform="matrix(1 0 0 -1 0 842)" d="M216.96 155.78L233.52 155.78L233.52 171.62L216.96 171.62z" stroke="none" fill="#FFFFFF" fill-rule="nonzero" /></g></g><g clip-path="url(#9)"><g clip-path="url(#10)"><g clip-path="url(#11)"><g transform="matrix(0.48 0 0 0.48 216.96 670.38)"><g transform="matrix(1 0 0 1 0 0)"><image x="0" y="0" xlink:href="img_288.png" width="35" height="33" /></g></g></g></g></g><g clip-path="url(#12)"><g clip-path="url(#13)"><path id="847" transform="matrix(1 0 0 -1 0 842)" d="M216.96 127.94L233.52 127.94L233.52 143.78L216.96 143.78z" stroke="none" fill="#FFFFFF" fill-rule="nonzero" /></g></g><g clip-path="url(#14)"><g clip-path="url(#15)"><g clip-path="url(#16)"><g transform="matrix(0.48 0 0 0.48 216.96 698.22)"><g transform="matrix(1 0 0 1 0 0)"><image x="0" y="0" xlink:href="img_100.png" width="35" height="33" /></g></g></g></g></g><g clip-path="url(#17)"><g clip-path="url(#18)"><path id="849" transform="matrix(1 0 0 -1 0 842)" d="M216.96 100.1L233.52 100.1L233.52 115.94L216.96 115.94z" stroke="none" fill="#FFFFFF" fill-rule="nonzero" /></g></g><g clip-path="url(#19)"><g clip-path="url(#20)"><g clip-path="url(#21)"><g transform="matrix(0.48 0 0 0.48 216.96 726.06)"><g transform="matrix(1 0 0 1 0 0)"><image x="0" y="0" xlink:href="img_313.png" width="35" height="33" /></g></g></g></g></g></g></g></svg>