<svg xmlns="http://www.w3.org/2000/svg" xmlns:xlink="http://www.w3.org/1999/xlink" id="body_125" preserveAspectRatio="xMinYMin meet" viewBox="0 0 793 1123"><defs><clipPath id="1"><path id="" clip-rule="evenodd" transform="matrix(1 0 0 1 0 0)" d="M0 842L0 0L0 0L595 0L595 0L595 842L595 842L0 842z" /></clipPath><clipPath id="2"><path id="" clip-rule="evenodd" transform="matrix(1 0 0 1 0 0)" d="M292.74 358.26L305.28 358.26L305.28 358.26L305.28 370.86L305.28 370.86L292.74 370.86z" /></clipPath><clipPath id="3"><path id="" clip-rule="evenodd" transform="matrix(1 0 0 1 0 0)" d="M0 0.02001953L595.2 0.02001953L595.2 0.02001953L595.2 842L595.2 842L0 842z" /></clipPath><clipPath id="4"><path id="" clip-rule="evenodd" transform="matrix(1 0 0 1 0 0)" d="M293.7 359.28L304.26 359.28L304.26 359.28L304.26 369.84L304.26 369.84L293.7 369.84z" /></clipPath><clipPath id="5"><path id="" clip-rule="evenodd" transform="matrix(1 0 0 1 0 0)" d="M292.74 358.26L305.28 358.26L305.28 358.26L305.28 370.86L305.28 370.86L292.74 370.86z" /></clipPath><clipPath id="6"><path id="" clip-rule="evenodd" transform="matrix(1 0 0 1 0 0)" d="M0 0.02001953L595.2 0.02001953L595.2 0.02001953L595.2 842L595.2 842L0 842z" /></clipPath><clipPath id="7"><path id="" clip-rule="evenodd" transform="matrix(1 0 0 1 0 0)" d="M224.94 388.02L360.9 388.02L360.9 388.02L360.9 474.78L360.9 474.78L224.94 474.78z" /></clipPath><clipPath id="8"><path id="" clip-rule="evenodd" transform="matrix(1 0 0 1 0 0)" d="M0 0.02001953L595.2 0.02001953L595.2 0.02001953L595.2 842L595.2 842L0 842z" /></clipPath><clipPath id="9"><path id="" clip-rule="evenodd" transform="matrix(1 0 0 1 0 0)" d="M225.96 389.04L359.88 389.04L359.88 389.04L359.88 473.76L359.88 473.76L225.96 473.76z" /></clipPath><clipPath id="10"><path id="" clip-rule="evenodd" transform="matrix(1 0 0 1 0 0)" d="M224.94 388.02L360.9 388.02L360.9 388.02L360.9 474.78L360.9 474.78L224.94 474.78z" /></clipPath><clipPath id="11"><path id="" clip-rule="evenodd" transform="matrix(1 0 0 1 0 0)" d="M0 0.02001953L595.2 0.02001953L595.2 0.02001953L595.2 842L595.2 842L0 842z" /></clipPath></defs><g transform="matrix(1.333333 0 0 1.333333 0 0)"><g clip-path="url(#1)"><g clip-path="url(#2)"><g clip-path="url(#3)"><path id="1138" transform="matrix(1 0 0 -1 0 842)" d="M293.7 472.16L304.26 472.16L304.26 482.72L293.7 482.72z" stroke="none" fill="#FFFFFF" fill-rule="nonzero" /></g></g><g clip-path="url(#4)"><g clip-path="url(#5)"><g clip-path="url(#6)"><g transform="matrix(0.48 0 0 0.48 293.7 359.28)"><g transform="matrix(1 0 0 1 0 0)"><image x="0" y="0" xlink:href="img_321.png" width="22" height="22" /></g></g></g></g></g><g clip-path="url(#7)"><g clip-path="url(#8)"><path id="1140" transform="matrix(1 0 0 -1 0 842)" d="M225.96 368.24L359.88 368.24L359.88 452.96L225.96 452.96z" stroke="none" fill="#FFFFFF" fill-rule="nonzero" /></g></g><g clip-path="url(#9)"><g clip-path="url(#10)"><g clip-path="url(#11)"><g transform="matrix(0.48 0 0 0.4786441 225.96 389.04)"><g transform="matrix(1 0 0 1 0 0)"><image x="0" y="0" xlink:href="img_322.png" width="279" height="177" /></g></g></g></g></g></g></g></svg>