<svg xmlns="http://www.w3.org/2000/svg" xmlns:xlink="http://www.w3.org/1999/xlink" id="body_74" preserveAspectRatio="xMinYMin meet" viewBox="0 0 793 1123"><defs><clipPath id="1"><path id="" clip-rule="evenodd" transform="matrix(1 0 0 1 0 0)" d="M0 842L0 0L0 0L595 0L595 0L595 842L595 842L0 842z" /></clipPath><clipPath id="2"><path id="" clip-rule="evenodd" transform="matrix(1 0 0 1 0 0)" d="M215.94 144.06L435.9 144.06L435.9 144.06L435.9 256.2L435.9 256.2L215.94 256.2z" /></clipPath><clipPath id="3"><path id="" clip-rule="evenodd" transform="matrix(1 0 0 1 0 0)" d="M0 0.02001953L595.2 0.02001953L595.2 0.02001953L595.2 842L595.2 842L0 842z" /></clipPath><clipPath id="4"><path id="" clip-rule="evenodd" transform="matrix(1 0 0 1 0 0)" d="M216.96 145.02L434.88 145.02L434.88 145.02L434.88 255.1801L434.88 255.1801L216.96 255.1801z" /></clipPath><clipPath id="5"><path id="" clip-rule="evenodd" transform="matrix(1 0 0 1 0 0)" d="M215.94 144.06L435.9 144.06L435.9 144.06L435.9 256.2L435.9 256.2L215.94 256.2z" /></clipPath><clipPath id="6"><path id="" clip-rule="evenodd" transform="matrix(1 0 0 1 0 0)" d="M0 0.02001953L595.2 0.02001953L595.2 0.02001953L595.2 842L595.2 842L0 842z" /></clipPath><clipPath id="7"><path id="" clip-rule="evenodd" transform="matrix(1 0 0 1 0 0)" d="M279.54 487.92L298.8 487.92L298.8 487.92L298.8 507.18L298.8 507.18L279.54 507.18z" /></clipPath><clipPath id="8"><path id="" clip-rule="evenodd" transform="matrix(1 0 0 1 0 0)" d="M0 0.02001953L595.2 0.02001953L595.2 0.02001953L595.2 842L595.2 842L0 842z" /></clipPath><clipPath id="9"><path id="" clip-rule="evenodd" transform="matrix(1 0 0 1 0 0)" d="M280.56 488.94L297.84 488.94L297.84 488.94L297.84 506.22L297.84 506.22L280.56 506.22z" /></clipPath><clipPath id="10"><path id="" clip-rule="evenodd" transform="matrix(1 0 0 1 0 0)" d="M279.54 487.92L298.8 487.92L298.8 487.92L298.8 507.18L298.8 507.18L279.54 507.18z" /></clipPath><clipPath id="11"><path id="" clip-rule="evenodd" transform="matrix(1 0 0 1 0 0)" d="M0 0.02001953L595.2 0.02001953L595.2 0.02001953L595.2 842L595.2 842L0 842z" /></clipPath><clipPath id="12"><path id="" clip-rule="evenodd" transform="matrix(1 0 0 1 0 0)" d="M215.94 606.24L394.62 606.24L394.62 606.24L394.62 695.82L394.62 695.82L215.94 695.82z" /></clipPath><clipPath id="13"><path id="" clip-rule="evenodd" transform="matrix(1 0 0 1 0 0)" d="M0 0.02001953L595.2 0.02001953L595.2 0.02001953L595.2 842L595.2 842L0 842z" /></clipPath><clipPath id="14"><path id="" clip-rule="evenodd" transform="matrix(1 0 0 1 0 0)" d="M216.96 607.2L393.6 607.2L393.6 607.2L393.6 694.8L393.6 694.8L216.96 694.8z" /></clipPath><clipPath id="15"><path id="" clip-rule="evenodd" transform="matrix(1 0 0 1 0 0)" d="M215.94 606.24L394.62 606.24L394.62 606.24L394.62 695.82L394.62 695.82L215.94 695.82z" /></clipPath><clipPath id="16"><path id="" clip-rule="evenodd" transform="matrix(1 0 0 1 0 0)" d="M0 0.02001953L595.2 0.02001953L595.2 0.02001953L595.2 842L595.2 842L0 842z" /></clipPath></defs><g transform="matrix(1.333333 0 0 1.333333 0 0)"><g clip-path="url(#1)"><path id="599" transform="matrix(1 0 0 -1 0 842)" d="M215.94 493.82L298.32 493.82L298.32 511.82L215.94 511.82z" stroke="none" fill="#C4DFF7" fill-rule="nonzero" /><path id="609" transform="matrix(1 0 0 -1 0 842)" d="M298.32 493.82L549 493.82L549 511.82L298.32 511.82z" stroke="none" fill="#C4DFF7" fill-rule="nonzero" /><path id="681" transform="matrix(1 0 0 -1 0 842)" d="M215.94 459.02L549 459.02L549 460.52L215.94 460.52z" stroke="none" fill="#000000" fill-rule="nonzero" /><g clip-path="url(#2)"><g clip-path="url(#3)"><path id="682" transform="matrix(1 0 0 -1 0 842)" d="M216.96 586.82L434.88 586.82L434.88 696.98L216.96 696.98z" stroke="none" fill="#FFFFFF" fill-rule="nonzero" /></g></g><g clip-path="url(#4)"><g clip-path="url(#5)"><g clip-path="url(#6)"><g transform="matrix(0.48 0 0 0.4789565 216.96 145.02)"><g transform="matrix(1 0 0 1 0 0)"><image x="0" y="0" xlink:href="img_181.png" width="454" height="230" /></g></g></g></g></g><g clip-path="url(#7)"><g clip-path="url(#8)"><path id="684" transform="matrix(1 0 0 -1 0 842)" d="M280.56 335.78L297.84 335.78L297.84 353.06L280.56 353.06z" stroke="none" fill="#FFFFFF" fill-rule="nonzero" /></g></g><g clip-path="url(#9)"><g clip-path="url(#10)"><g clip-path="url(#11)"><g transform="matrix(0.48 0 0 0.48 280.56 488.94)"><g transform="matrix(1 0 0 1 0 0)"><image x="0" y="0" xlink:href="img_155.png" width="36" height="36" /></g></g></g></g></g><g clip-path="url(#12)"><g clip-path="url(#13)"><path id="726" transform="matrix(1 0 0 -1 0 842)" d="M216.96 147.2L393.6 147.2L393.6 234.8L216.96 234.8z" stroke="none" fill="#FFFFFF" fill-rule="nonzero" /></g></g><g clip-path="url(#14)"><g clip-path="url(#15)"><g clip-path="url(#16)"><g transform="matrix(0.48 0 0 0.4786885 216.96 607.2)"><g transform="matrix(1 0 0 1 0 0)"><image x="0" y="0" xlink:href="img_182.png" width="368" height="183" /></g></g></g></g></g></g></g></svg>