<svg xmlns="http://www.w3.org/2000/svg" xmlns:xlink="http://www.w3.org/1999/xlink" id="body_108" preserveAspectRatio="xMinYMin meet" viewBox="0 0 793 1123"><defs><clipPath id="1"><path id="" clip-rule="evenodd" transform="matrix(1 0 0 1 0 0)" d="M0 842L0 0L0 0L595 0L595 0L595 842L595 842L0 842z" /></clipPath></defs><g transform="matrix(1.333333 0 0 1.333333 0 0)"><g clip-path="url(#1)"><path id="1070" transform="matrix(1 0 0 -1 0 842)" d="M35.94 751.94L172.44 751.94L172.44 769.94L35.94 769.94z" stroke="none" fill="#C4DFF7" fill-rule="nonzero" /><path id="1080" transform="matrix(1 0 0 -1 0 842)" d="M172.44 769.94L549 769.94L549 751.94L172.44 751.94" stroke="none" fill="#C4DFF7" fill-rule="nonzero" /><path id="1092" transform="matrix(1 0 0 -1 0 842)" d="M35.94 563.72L549 563.72L549 564.2L35.94 564.2z" stroke="none" fill="#000000" fill-rule="nonzero" /><path id="1093" transform="matrix(1 0 0 -1 0 842)" d="M35.94 515.72L549 515.72L549 516.2L35.94 516.2z" stroke="none" fill="#000000" fill-rule="nonzero" /><path id="1094" transform="matrix(1 0 0 -1 0 842)" d="M35.94 439.16L549 439.16L549 440.66L35.94 440.66z" stroke="none" fill="#000000" fill-rule="nonzero" /></g></g></svg>