<svg xmlns="http://www.w3.org/2000/svg" xmlns:xlink="http://www.w3.org/1999/xlink" id="body_95" preserveAspectRatio="xMinYMin meet" viewBox="0 0 793 1123"><defs><clipPath id="1"><path id="" clip-rule="evenodd" transform="matrix(1 0 0 1 0 0)" d="M0 842L0 0L0 0L595 0L595 0L595 842L595 842L0 842z" /></clipPath><clipPath id="2"><path id="" clip-rule="evenodd" transform="matrix(1 0 0 1 0 0)" d="M35.94 169.02L529.98 169.02L529.98 169.02L529.98 414.42L529.98 414.42L35.94 414.42z" /></clipPath><clipPath id="3"><path id="" clip-rule="evenodd" transform="matrix(1 0 0 1 0 0)" d="M0 0.02001953L595.2 0.02001953L595.2 0.02001953L595.2 842L595.2 842L0 842z" /></clipPath><clipPath id="4"><path id="" clip-rule="evenodd" transform="matrix(1 0 0 1 0 0)" d="M36.96 170.04L528.96 170.04L528.96 170.04L528.96 413.4L528.96 413.4L36.96 413.4z" /></clipPath><clipPath id="5"><path id="" clip-rule="evenodd" transform="matrix(1 0 0 1 0 0)" d="M35.94 169.02L529.98 169.02L529.98 169.02L529.98 414.42L529.98 414.42L35.94 414.42z" /></clipPath><clipPath id="6"><path id="" clip-rule="evenodd" transform="matrix(1 0 0 1 0 0)" d="M0 0.02001953L595.2 0.02001953L595.2 0.02001953L595.2 842L595.2 842L0 842z" /></clipPath><clipPath id="7"><path id="" clip-rule="evenodd" transform="matrix(1 0 0 1 0 0)" d="M35.94 169.02L529.98 169.02L529.98 169.02L529.98 414.42L529.98 414.42L35.94 414.42z" /></clipPath><clipPath id="8"><path id="" clip-rule="evenodd" transform="matrix(1 0 0 1 0 0)" d="M0 0.02001953L595.2 0.02001953L595.2 0.02001953L595.2 842L595.2 842L0 842z" /></clipPath></defs><g transform="matrix(1.333333 0 0 1.333333 0 0)"><g clip-path="url(#1)"><g clip-path="url(#2)"><g clip-path="url(#3)"><path id="549" transform="matrix(1 0 0 -1 0 842)" d="M36.96 428.6L528.96 428.6L528.96 671.96L36.96 671.96z" stroke="none" fill="#FFFFFF" fill-rule="nonzero" /></g></g><g clip-path="url(#4)"><g clip-path="url(#5)"><g clip-path="url(#6)"><g transform="matrix(0.48 0 0 0.48 36.96 170.04)"><g transform="matrix(1 0 0 1 0 0)"><image x="0" y="0" xlink:href="img_232.png" width="1025" height="507" /></g></g></g></g></g><g clip-path="url(#7)"><g clip-path="url(#8)"><path id="551" transform="matrix(1 0 0 -1 0 842)" d="M72.9 556.34L70.56001 556.16L70.56001 556.16L70.62 556.22L70.62 556.22L69.9 556.04L69.9 556.04L69.9 555.98L69.9 555.98L69.12 555.86L69.12 555.86L69.18 555.92L69.18 555.92L68.46 555.6801L68.46 555.6801L67.8 555.44L67.8 555.44L67.08 555.2L67.08 555.2L67.14 555.2L67.14 555.2L66.48 554.9L66.48 554.9L65.16 554.1801L65.16 554.1801L65.22 554.2401L65.22 554.2401L64.02 553.4L64.02 553.4L64.08 553.4L64.08 553.4L63.48 552.92L63.48 552.92L62.4 551.96L62.4 551.96L62.4 552.02L62.4 552.02L61.86 551.48L61.86 551.48L61.92 551.48L61.92 551.48L61.44 550.94L61.44 550.94L61.44 551L61.44 551L60.18 549.2L60.18 549.2L60.24 549.26L60.24 549.26L59.52 547.94L59.52 547.94L59.22 547.28L59.22 547.28L59.22 547.34L59.22 547.34L58.5 545.1801L58.5 545.1801L58.5 545.2401L58.5 545.2401L58.32 544.52L58.32 544.52L58.38 544.52L58.38 544.52L58.26 543.7401L58.26 543.7401L58.26 543.8L58.26 543.8L58.2 543.08L58.2 543.08L58.14 542.3L58.14 542.3L58.08 541.52L58.08 541.52L58.08 541.58L58.08 541.58L58.14 540.8L58.14 540.8L58.26 539.2401L58.26 539.2401L58.26 539.3L58.26 539.3L58.38 538.52L58.38 538.52L58.32 538.58L58.32 538.58L58.5 537.86L58.5 537.86L58.98 536.42L58.98 536.42L58.02 536.1201L58.02 536.1201L57.78 536.84C 56.28 541.625 57.189 546.989 60.18 551L60.18 551L60.6 551.6L60.6 551.6L60.66 551.6C 61.424 552.608 62.436 553.3571 63.42 554.1801L63.42 554.1801L63.42 554.2401L63.42 554.2401L64.62 555.08L64.62 555.08L64.68 555.08L64.68 555.08L66 555.8L66 555.8L66.06 555.8L66.06 555.8L66.72 556.1L66.72 556.1L66.78 556.16L66.78 556.16L67.5 556.4L67.5 556.4L67.44 556.4L67.44 556.4L68.1 556.64L68.1 556.64L68.16 556.64L68.16 556.64L68.88 556.88L68.88 556.88L68.94 556.88L68.94 556.88L69.72 557L69.72 557L69.66 557L69.66 557L70.38 557.1801L70.38 557.1801L70.5 557.1801L70.5 557.1801L72.84 557.36" stroke="none" fill="#FF0000" fill-rule="nonzero" /><path id="552" transform="matrix(1 0 0 -1 0 842)" d="M58.98 536.42L59.22 535.7L59.22 535.7L59.22 535.76L59.22 535.76L59.52 535.1L59.52 535.1L59.52 535.16L59.52 535.16L60.24 533.84L60.24 533.84L60.18 533.9L60.18 533.9L61.44 532.1L61.44 532.1L61.92 531.56L61.92 531.56L61.86 531.62L61.86 531.62L62.4 531.08L62.4 531.08L63.48 530.12L63.48 530.12L64.08 529.64L64.08 529.64L64.02 529.7L64.02 529.7L64.62 529.28L64.62 529.28L65.22 528.92L65.22 528.92L65.88 528.5L65.88 528.5L65.82 528.5L65.82 528.5L67.14 527.9L67.14 527.9L67.14 527.96L67.14 527.96L67.86 527.66L67.86 527.66L67.8 527.66L67.8 527.66L68.46 527.42L68.46 527.42L68.4 527.42L68.4 527.42L69.12 527.24L69.12 527.24L69.9 527.06L69.9 527.06L70.62 526.94L70.62 526.94L71.4 526.82L71.4 526.82L71.34 526.82L71.34 526.82L72.12 526.76L72.12 526.76L72.06 526.76L72.06 526.76L466.08 526.76L466.08 526.76L466.86 526.82L466.86 526.82L466.8 526.82L466.8 526.82L467.52 526.94L467.52 526.94L468.3 527.06L468.3 527.06L468.24 527.06L468.24 527.06L469.68 527.42L469.68 527.42L470.4 527.66L470.4 527.66L470.34 527.66L470.34 527.66L471.06 527.96L471.06 527.96L471.06 527.9L471.06 527.9L472.38 528.5L472.38 528.5L472.32 528.5L472.32 528.5L472.98 528.92L472.98 528.92L473.58 529.28L473.58 529.28L473.52 529.28L473.52 529.28L474.12 529.7L474.12 529.7L474.12 529.64L474.12 529.64L474.72 530.12L474.72 530.12L475.38 529.34L475.38 529.34L474.78 528.86L474.78 528.86L474.72 528.86L474.72 528.86L474.12 528.44L474.12 528.44L474.12 528.38L474.12 528.38L473.52 528.02L473.52 528.02L473.52 528.08L473.52 528.08L472.86 527.66L472.86 527.66L472.8 527.6L472.8 527.6L471.48 527L471.48 527L470.76 526.7L470.76 526.7L470.7 526.7L470.7 526.7L469.98 526.46L469.98 526.46L469.92 526.46L469.92 526.46L468.48 526.1L468.48 526.1L468.48 526.04L468.48 526.04L467.7 525.92L467.7 525.92L466.98 525.8L466.98 525.8L466.92 525.8L466.92 525.8L466.14 525.74L466.14 525.74L72.84 525.74C 71.725 525.689 70.807 525.85 69.72 526.04L69.72 526.04L69.66 526.04L69.66 526.04L68.88 526.22L68.88 526.22L68.88 526.28L68.88 526.28L68.16 526.46L68.16 526.46L68.1 526.46L68.1 526.46L67.44 526.7L67.44 526.7L66.72 527L66.72 527L65.4 527.6L65.4 527.6L65.34 527.66L65.34 527.66L64.68 528.08L64.68 528.08L64.68 528.02L64.68 528.02L64.08 528.38L64.08 528.38L64.02 528.44C 63.03 529.093 61.978 530.042 61.14 530.9L61.14 530.9L60.66 531.44L60.66 531.44L60.6 531.5C 59.615 532.843 58.995 533.802 58.32 535.34L58.32 535.34L58.26 535.4L58.26 535.4L58.02 536.12" stroke="none" fill="#FF0000" fill-rule="nonzero" /><path id="553" transform="matrix(1 0 0 -1 0 842)" d="M474.72 530.12L475.8 531.08L475.8 531.08L475.74 531.02L475.74 531.02L476.7 532.1L476.7 532.1L477.18 532.7L477.18 532.7L477.12 532.7L477.12 532.7L477.96 533.9L477.96 533.9L477.96 533.84L477.96 533.84L478.32 534.5L478.32 534.5L478.32 534.44L478.32 534.44L478.92 535.76L478.92 535.76L478.86 535.76L478.86 535.76L479.16 536.48L479.16 536.48L479.16 536.42L479.16 536.42L479.4 537.14L479.4 537.14L479.76 538.58L479.76 538.58L479.94 539.36L479.94 539.36L479.94 539.24L479.94 539.24L480.06 540.8L480.06 540.8L480.12 541.58L480.12 541.58L480.12 541.52L480.12 541.52L480.06 542.3L480.06 542.3L480 543.08L480 543.08L479.94 543.8L479.94 543.8L479.94 543.74L479.94 543.74L479.76 544.52L479.76 544.52L479.58 545.24L479.58 545.24L479.4 545.96L479.4 545.96L479.4 545.9L479.4 545.9L479.16 546.62L479.16 546.62L479.16 546.56L479.16 546.56L478.86 547.28L478.86 547.28L478.92 547.28L478.92 547.28L478.32 548.6L478.32 548.6L477.96 549.26L477.96 549.26L477.96 549.2L477.96 549.2L477.12 550.4L477.12 550.4L477.18 550.34L477.18 550.34L476.7 550.94L476.7 550.94L475.74 552.02L475.74 552.02L475.8 551.96L475.8 551.96L474.72 552.92L474.72 552.92L474.12 553.4L474.12 553.4L472.92 554.24L472.92 554.24L472.98 554.18L472.98 554.18L473.46 555.08L473.46 555.08L473.52 555.08C 477.081 552.729 479.551 549.664 480.54 545.48L480.54 545.48L480.72 544.76L480.72 544.76L480.78 544.76L480.78 544.76L480.96 543.98C 481.169 541.821 481.173 541.283 480.96 539.12L480.96 539.12L480.78 538.34L480.78 538.34L480.72 538.34L480.72 538.34L480.54 537.62C 479.952 534.741 478.115 531.753 475.92 529.82L475.92 529.82L475.38 529.34" stroke="none" fill="#FF0000" fill-rule="nonzero" /><path id="554" transform="matrix(1 0 0 -1 0 842)" d="M472.98 554.18L471.66 554.9L471.66 554.9L471.72 554.9L471.72 554.9L471.06 555.2L471.06 555.2L471.12 555.2L471.12 555.2L468.96 555.92L468.96 555.92L469.02 555.86L469.02 555.86L468.3 555.98L468.3 555.98L468.24 555.98L468.24 555.98L467.46 556.16L467.46 556.16L467.58 556.16L467.58 556.16L466.86 556.22L466.86 556.22L466.08 556.28L466.08 556.28L465.24 556.34L465.24 556.34L72.84 556.34L72.84 556.34L72.90002 556.34L72.90002 556.34L72.84 557.36L72.84 557.36L465.24 557.36C 466.053 557.319 466.888 557.235 467.7 557.18L467.7 557.18L468.48 557L468.48 557L469.2 556.88L469.2 556.88L469.26 556.88L469.26 556.88L471.42 556.16L471.42 556.16L471.48 556.1L471.48 556.1L472.14 555.8L472.14 555.8L473.46 555.08" stroke="none" fill="#FF0000" fill-rule="nonzero" /></g></g><path id="555" transform="matrix(1 0 0 -1 0 842)" d="M35.94 336.62L96.6 336.62L96.6 354.62L35.94 354.62z" stroke="none" fill="#C4DFF7" fill-rule="nonzero" /><path id="565" transform="matrix(1 0 0 -1 0 842)" d="M96.6 336.62L549 336.62L549 354.62L96.6 354.62z" stroke="none" fill="#C4DFF7" fill-rule="nonzero" /><path id="1204" transform="matrix(1 0 0 -1 0 842)" d="M35.94 302.36L549 302.36L549 302.84L35.94 302.84z" stroke="none" fill="#000000" fill-rule="nonzero" /><path id="1205" transform="matrix(1 0 0 -1 0 842)" d="M35.94 282.38L549 282.38L549 282.86L35.94 282.86z" stroke="none" fill="#000000" fill-rule="nonzero" /><path id="1206" transform="matrix(1 0 0 -1 0 842)" d="M35.94 210.32L549 210.32L549 210.8L35.94 210.8z" stroke="none" fill="#000000" fill-rule="nonzero" /><path id="1207" transform="matrix(1 0 0 -1 0 842)" d="M35.94 151.82L549 151.82L549 153.32L35.94 153.32z" stroke="none" fill="#000000" fill-rule="nonzero" /></g></g></svg>