<svg xmlns="http://www.w3.org/2000/svg" xmlns:xlink="http://www.w3.org/1999/xlink" id="body_103" preserveAspectRatio="xMinYMin meet" viewBox="0 0 793 1123"><defs><clipPath id="1"><path id="" clip-rule="evenodd" transform="matrix(1 0 0 1 0 0)" d="M0 842L0 0L0 0L595 0L595 0L595 842L595 842L0 842z" /></clipPath></defs><g transform="matrix(1.333333 0 0 1.333333 0 0)"><g clip-path="url(#1)"><path id="1619" transform="matrix(1 0 0 -1 0 842)" d="M44.94 751.94L167.04 751.94L167.04 769.94L44.94 769.94z" stroke="none" fill="#C4DFF7" fill-rule="nonzero" /><path id="1629" transform="matrix(1 0 0 -1 0 842)" d="M167.04 769.94L558 769.94L558 751.94L167.04 751.94" stroke="none" fill="#C4DFF7" fill-rule="nonzero" /><path id="1641" transform="matrix(1 0 0 -1 0 842)" d="M44.94 733.7L558 733.7L558 734.18L44.94 734.18z" stroke="none" fill="#000000" fill-rule="nonzero" /><path id="1642" transform="matrix(1 0 0 -1 0 842)" d="M44.94 661.7L558 661.7L558 662.18L44.94 662.18z" stroke="none" fill="#000000" fill-rule="nonzero" /><path id="1643" transform="matrix(1 0 0 -1 0 842)" d="M44.94 641.72L558 641.72L558 642.2L44.94 642.2z" stroke="none" fill="#000000" fill-rule="nonzero" /><path id="1644" transform="matrix(1 0 0 -1 0 842)" d="M44.94 621.74L558 621.74L558 622.22L44.94 622.22z" stroke="none" fill="#000000" fill-rule="nonzero" /><path id="1645" transform="matrix(1 0 0 -1 0 842)" d="M44.94 601.7L558 601.7L558 602.18L44.94 602.18z" stroke="none" fill="#000000" fill-rule="nonzero" /><path id="1646" transform="matrix(1 0 0 -1 0 842)" d="M44.94 539.72L558 539.72L558 540.2L44.94 540.2z" stroke="none" fill="#000000" fill-rule="nonzero" /><path id="1647" transform="matrix(1 0 0 -1 0 842)" d="M44.94 449.72L558 449.72L558 450.2L44.94 450.2z" stroke="none" fill="#000000" fill-rule="nonzero" /><path id="1648" transform="matrix(1 0 0 -1 0 842)" d="M44.94 401.72L558 401.72L558 402.2L44.94 402.2z" stroke="none" fill="#000000" fill-rule="nonzero" /><path id="1649" transform="matrix(1 0 0 -1 0 842)" d="M44.94 383.72L558 383.72L558 384.2L44.94 384.2z" stroke="none" fill="#000000" fill-rule="nonzero" /><path id="1650" transform="matrix(1 0 0 -1 0 842)" d="M44.94 311.72L558 311.72L558 312.2L44.94 312.2z" stroke="none" fill="#000000" fill-rule="nonzero" /><path id="1651" transform="matrix(1 0 0 -1 0 842)" d="M44.94 179.18L558 179.18L558 180.68L44.94 180.68z" stroke="none" fill="#000000" fill-rule="nonzero" /></g></g></svg>