<svg xmlns="http://www.w3.org/2000/svg" xmlns:xlink="http://www.w3.org/1999/xlink" id="body_158" preserveAspectRatio="xMinYMin meet" viewBox="0 0 793 1123"><defs><clipPath id="1"><path id="" clip-rule="evenodd" transform="matrix(1 0 0 1 0 0)" d="M0 842L0 0L0 0L595 0L595 0L595 842L595 842L0 842z" /></clipPath><clipPath id="2"><path id="" clip-rule="evenodd" transform="matrix(1 0 0 1 0 0)" d="M392.7 348.6L408.12 348.6L408.12 348.6L408.12 364.02L408.12 364.02L392.7 364.02z" /></clipPath><clipPath id="3"><path id="" clip-rule="evenodd" transform="matrix(1 0 0 1 0 0)" d="M0 0.02001953L595.2 0.02001953L595.2 0.02001953L595.2 842L595.2 842L0 842z" /></clipPath><clipPath id="4"><path id="" clip-rule="evenodd" transform="matrix(1 0 0 1 0 0)" d="M393.66 349.62L407.1 349.62L407.1 349.62L407.1 363.06L407.1 363.06L393.66 363.06z" /></clipPath><clipPath id="5"><path id="" clip-rule="evenodd" transform="matrix(1 0 0 1 0 0)" d="M392.7 348.6L408.12 348.6L408.12 348.6L408.12 364.02L408.12 364.02L392.7 364.02z" /></clipPath><clipPath id="6"><path id="" clip-rule="evenodd" transform="matrix(1 0 0 1 0 0)" d="M0 0.02001953L595.2 0.02001953L595.2 0.02001953L595.2 842L595.2 842L0 842z" /></clipPath><clipPath id="7"><path id="" clip-rule="evenodd" transform="matrix(1 0 0 1 0 0)" d="M261.9 535.62L277.38 535.62L277.38 535.62L277.38 551.04L277.38 551.04L261.9 551.04z" /></clipPath><clipPath id="8"><path id="" clip-rule="evenodd" transform="matrix(1 0 0 1 0 0)" d="M0 0.02001953L595.2 0.02001953L595.2 0.02001953L595.2 842L595.2 842L0 842z" /></clipPath><clipPath id="9"><path id="" clip-rule="evenodd" transform="matrix(1 0 0 1 0 0)" d="M262.92 536.58L276.36 536.58L276.36 536.58L276.36 550.08L276.36 550.08L262.92 550.08z" /></clipPath><clipPath id="10"><path id="" clip-rule="evenodd" transform="matrix(1 0 0 1 0 0)" d="M261.9 535.62L277.38 535.62L277.38 535.62L277.38 551.04L277.38 551.04L261.9 551.04z" /></clipPath><clipPath id="11"><path id="" clip-rule="evenodd" transform="matrix(1 0 0 1 0 0)" d="M0 0.02001953L595.2 0.02001953L595.2 0.02001953L595.2 842L595.2 842L0 842z" /></clipPath><clipPath id="12"><path id="" clip-rule="evenodd" transform="matrix(1 0 0 1 0 0)" d="M261.9 646.62L277.38 646.62L277.38 646.62L277.38 662.04L277.38 662.04L261.9 662.04z" /></clipPath><clipPath id="13"><path id="" clip-rule="evenodd" transform="matrix(1 0 0 1 0 0)" d="M0 0.02001953L595.2 0.02001953L595.2 0.02001953L595.2 842L595.2 842L0 842z" /></clipPath><clipPath id="14"><path id="" clip-rule="evenodd" transform="matrix(1 0 0 1 0 0)" d="M262.92 647.64L276.36 647.64L276.36 647.64L276.36 661.08L276.36 661.08L262.92 661.08z" /></clipPath><clipPath id="15"><path id="" clip-rule="evenodd" transform="matrix(1 0 0 1 0 0)" d="M261.9 646.62L277.38 646.62L277.38 646.62L277.38 662.04L277.38 662.04L261.9 662.04z" /></clipPath><clipPath id="16"><path id="" clip-rule="evenodd" transform="matrix(1 0 0 1 0 0)" d="M0 0.02001953L595.2 0.02001953L595.2 0.02001953L595.2 842L595.2 842L0 842z" /></clipPath></defs><g transform="matrix(1.333333 0 0 1.333333 0 0)"><g clip-path="url(#1)"><g clip-path="url(#2)"><g clip-path="url(#3)"><path id="1202" transform="matrix(1 0 0 -1 0 842)" d="M393.66 478.94L407.1 478.94L407.1 492.38L393.66 492.38z" stroke="none" fill="#FFFFFF" fill-rule="nonzero" /></g></g><g clip-path="url(#4)"><g clip-path="url(#5)"><g clip-path="url(#6)"><g transform="matrix(0.48 0 0 0.48 393.66 349.62)"><g transform="matrix(1 0 0 1 0 0)"><image x="0" y="0" xlink:href="img_217.png" width="28" height="28" /></g></g></g></g></g><g clip-path="url(#7)"><g clip-path="url(#8)"><path id="1204" transform="matrix(1 0 0 -1 0 842)" d="M262.92 291.92L276.36 291.92L276.36 305.42L262.92 305.42z" stroke="none" fill="#FFFFFF" fill-rule="nonzero" /></g></g><g clip-path="url(#9)"><g clip-path="url(#10)"><g clip-path="url(#11)"><g transform="matrix(0.48 0 0 0.4655173 262.92 536.58)"><g transform="matrix(1 0 0 1 0 0)"><image x="0" y="0" xlink:href="img_394.png" width="28" height="29" /></g></g></g></g></g><g clip-path="url(#12)"><g clip-path="url(#13)"><path id="1206" transform="matrix(1 0 0 -1 0 842)" d="M262.92 180.92L276.36 180.92L276.36 194.36L262.92 194.36z" stroke="none" fill="#FFFFFF" fill-rule="nonzero" /></g></g><g clip-path="url(#14)"><g clip-path="url(#15)"><g clip-path="url(#16)"><g transform="matrix(0.48 0 0 0.48 262.92 647.64)"><g transform="matrix(1 0 0 1 0 0)"><image x="0" y="0" xlink:href="img_217.png" width="28" height="28" /></g></g></g></g></g></g></g></svg>