<svg xmlns="http://www.w3.org/2000/svg" xmlns:xlink="http://www.w3.org/1999/xlink" id="body_64" preserveAspectRatio="xMinYMin meet" viewBox="0 0 793 1123"><defs><clipPath id="1"><path id="" clip-rule="evenodd" transform="matrix(1 0 0 1 0 0)" d="M0 842L0 0L0 0L595 0L595 0L595 842L595 842L0 842z" /></clipPath><clipPath id="2"><path id="" clip-rule="evenodd" transform="matrix(1 0 0 1 0 0)" d="M35.94 159.06L455.1 159.06L455.1 159.06L455.1 465.84L455.1 465.84L35.94 465.84z" /></clipPath><clipPath id="3"><path id="" clip-rule="evenodd" transform="matrix(1 0 0 1 0 0)" d="M0 0.02001953L595.2 0.02001953L595.2 0.02001953L595.2 842L595.2 842L0 842z" /></clipPath><clipPath id="4"><path id="" clip-rule="evenodd" transform="matrix(1 0 0 1 0 0)" d="M36.96 160.02L454.08 160.02L454.08 160.02L454.08 464.82L454.08 464.82L36.96 464.82z" /></clipPath><clipPath id="5"><path id="" clip-rule="evenodd" transform="matrix(1 0 0 1 0 0)" d="M35.94 159.06L455.1 159.06L455.1 159.06L455.1 465.84L455.1 465.84L35.94 465.84z" /></clipPath><clipPath id="6"><path id="" clip-rule="evenodd" transform="matrix(1 0 0 1 0 0)" d="M0 0.02001953L595.2 0.02001953L595.2 0.02001953L595.2 842L595.2 842L0 842z" /></clipPath></defs><g transform="matrix(1.333333 0 0 1.333333 0 0)"><g clip-path="url(#1)"><g clip-path="url(#2)"><g clip-path="url(#3)"><path id="365" transform="matrix(1 0 0 -1 0 842)" d="M36.96 377.18L454.08 377.18L454.08 681.98L36.96 681.98z" stroke="none" fill="#FFFFFF" fill-rule="nonzero" /></g></g><g clip-path="url(#4)"><g clip-path="url(#5)"><g clip-path="url(#6)"><g transform="matrix(0.48 0 0 0.48 36.96 160.02)"><g transform="matrix(1 0 0 1 0 0)"><image x="0" y="0" xlink:href="img_148.png" width="869" height="635" /></g></g></g></g></g><path id="367" transform="matrix(1 0 0 -1 0 842)" d="M215.94 285.14L322.68 285.14L322.68 303.14L215.94 303.14z" stroke="none" fill="#C4DFF7" fill-rule="nonzero" /><path id="377" transform="matrix(1 0 0 -1 0 842)" d="M322.68 303.14L549 303.14L549 285.14L322.68 285.14" stroke="none" fill="#C4DFF7" fill-rule="nonzero" /><path id="732" transform="matrix(1 0 0 -1 0 842)" d="M215.94 264.92L549 264.92L549 265.4L215.94 265.4z" stroke="none" fill="#000000" fill-rule="nonzero" /><path id="733" transform="matrix(1 0 0 -1 0 842)" d="M215.94 216.92L549 216.92L549 217.4L215.94 217.4z" stroke="none" fill="#000000" fill-rule="nonzero" /><path id="734" transform="matrix(1 0 0 -1 0 842)" d="M215.94 196.88L549 196.88L549 197.36L215.94 197.36z" stroke="none" fill="#000000" fill-rule="nonzero" /><path id="735" transform="matrix(1 0 0 -1 0 842)" d="M215.94 162.92L549 162.92L549 163.4L215.94 163.4z" stroke="none" fill="#000000" fill-rule="nonzero" /><path id="736" transform="matrix(1 0 0 -1 0 842)" d="M215.94 142.88L549 142.88L549 143.36L215.94 143.36z" stroke="none" fill="#000000" fill-rule="nonzero" /><path id="737" transform="matrix(1 0 0 -1 0 842)" d="M215.94 122.36L549 122.36L549 123.86L215.94 123.86z" stroke="none" fill="#000000" fill-rule="nonzero" /></g></g></svg>