<svg xmlns="http://www.w3.org/2000/svg" xmlns:xlink="http://www.w3.org/1999/xlink" id="body_105" preserveAspectRatio="xMinYMin meet" viewBox="0 0 793 1123"><defs><clipPath id="1"><path id="" clip-rule="evenodd" transform="matrix(1 0 0 1 0 0)" d="M0 842L0 0L0 0L595 0L595 0L595 842L595 842L0 842z" /></clipPath></defs><g transform="matrix(1.333333 0 0 1.333333 0 0)"><g clip-path="url(#1)"><path id="410" transform="matrix(1 0 0 -1 0 842)" d="M44.94 751.94L167.04 751.94L167.04 769.94L44.94 769.94z" stroke="none" fill="#C4DFF7" fill-rule="nonzero" /><path id="420" transform="matrix(1 0 0 -1 0 842)" d="M167.04 769.94L558 769.94L558 751.94L167.04 751.94" stroke="none" fill="#C4DFF7" fill-rule="nonzero" /><path id="432" transform="matrix(1 0 0 -1 0 842)" d="M44.94 717.74L558 717.74L558 718.22L44.94 718.22z" stroke="none" fill="#000000" fill-rule="nonzero" /><path id="433" transform="matrix(1 0 0 -1 0 842)" d="M44.94 634.16L558 634.16L558 635.66L44.94 635.66z" stroke="none" fill="#000000" fill-rule="nonzero" /></g></g></svg>