<svg xmlns="http://www.w3.org/2000/svg" xmlns:xlink="http://www.w3.org/1999/xlink" id="body_93" preserveAspectRatio="xMinYMin meet" viewBox="0 0 793 1123"><defs><clipPath id="1"><path id="" clip-rule="evenodd" transform="matrix(1 0 0 1 0 0)" d="M0 842L0 0L0 0L595 0L595 0L595 842L595 842L0 842z" /></clipPath><clipPath id="2"><path id="" clip-rule="evenodd" transform="matrix(1 0 0 1 0 0)" d="M359.04 117.6L369.18 117.6L369.18 117.6L369.18 127.0199L369.18 127.0199L359.04 127.0199z" /></clipPath><clipPath id="3"><path id="" clip-rule="evenodd" transform="matrix(1 0 0 1 0 0)" d="M0 0.02001953L595.2 0.02001953L595.2 0.02001953L595.2 842L595.2 842L0 842z" /></clipPath><clipPath id="4"><path id="" clip-rule="evenodd" transform="matrix(1 0 0 1 0 0)" d="M360 118.62L368.16 118.62L368.16 118.62L368.16 126.06L368.16 126.06L360 126.06z" /></clipPath><clipPath id="5"><path id="" clip-rule="evenodd" transform="matrix(1 0 0 1 0 0)" d="M359.04 117.6L369.18 117.6L369.18 117.6L369.18 127.0199L369.18 127.0199L359.04 127.0199z" /></clipPath><clipPath id="6"><path id="" clip-rule="evenodd" transform="matrix(1 0 0 1 0 0)" d="M0 0.02001953L595.2 0.02001953L595.2 0.02001953L595.2 842L595.2 842L0 842z" /></clipPath><clipPath id="7"><path id="" clip-rule="evenodd" transform="matrix(1 0 0 1 0 0)" d="M35.94 230.04L548.82 230.04L548.82 230.04L548.82 465.24L548.82 465.24L35.94 465.24z" /></clipPath><clipPath id="8"><path id="" clip-rule="evenodd" transform="matrix(1 0 0 1 0 0)" d="M0 0.02001953L595.2 0.02001953L595.2 0.02001953L595.2 842L595.2 842L0 842z" /></clipPath><clipPath id="9"><path id="" clip-rule="evenodd" transform="matrix(1 0 0 1 0 0)" d="M36.96 231.06L547.8 231.06L547.8 231.06L547.8 464.28L547.8 464.28L36.96 464.28z" /></clipPath><clipPath id="10"><path id="" clip-rule="evenodd" transform="matrix(1 0 0 1 0 0)" d="M35.94 230.04L548.82 230.04L548.82 230.04L548.82 465.24L548.82 465.24L35.94 465.24z" /></clipPath><clipPath id="11"><path id="" clip-rule="evenodd" transform="matrix(1 0 0 1 0 0)" d="M0 0.02001953L595.2 0.02001953L595.2 0.02001953L595.2 842L595.2 842L0 842z" /></clipPath><clipPath id="12"><path id="" clip-rule="evenodd" transform="matrix(1 0 0 1 0 0)" d="M112.92 718.44L197.94 718.44L197.94 718.44L197.94 736.98L197.94 736.98L112.92 736.98z" /></clipPath><clipPath id="13"><path id="" clip-rule="evenodd" transform="matrix(1 0 0 1 0 0)" d="M0 0.02001953L595.2 0.02001953L595.2 0.02001953L595.2 842L595.2 842L0 842z" /></clipPath><clipPath id="14"><path id="" clip-rule="evenodd" transform="matrix(1 0 0 1 0 0)" d="M113.94 719.46L196.98 719.46L196.98 719.46L196.98 736.02L196.98 736.02L113.94 736.02z" /></clipPath><clipPath id="15"><path id="" clip-rule="evenodd" transform="matrix(1 0 0 1 0 0)" d="M112.92 718.44L197.94 718.44L197.94 718.44L197.94 736.98L197.94 736.98L112.92 736.98z" /></clipPath><clipPath id="16"><path id="" clip-rule="evenodd" transform="matrix(1 0 0 1 0 0)" d="M0 0.02001953L595.2 0.02001953L595.2 0.02001953L595.2 842L595.2 842L0 842z" /></clipPath></defs><g transform="matrix(1.333333 0 0 1.333333 0 0)"><g clip-path="url(#1)"><g clip-path="url(#2)"><g clip-path="url(#3)"><path id="1033" transform="matrix(1 0 0 -1 0 842)" d="M360 715.94L368.16 715.94L368.16 723.38L360 723.38z" stroke="none" fill="#FFFFFF" fill-rule="nonzero" /></g></g><g clip-path="url(#4)"><g clip-path="url(#5)"><g clip-path="url(#6)"><g transform="matrix(0.48 0 0 0.465 360 118.62)"><g transform="matrix(1 0 0 1 0 0)"><image x="0" y="0" xlink:href="img_102.png" width="17" height="16" /></g></g></g></g></g><g clip-path="url(#7)"><g clip-path="url(#8)"><path id="1065" transform="matrix(1 0 0 -1 0 842)" d="M36.96 377.72L547.8 377.72L547.8 610.94L36.96 610.94z" stroke="none" fill="#FFFFFF" fill-rule="nonzero" /></g></g><g clip-path="url(#9)"><g clip-path="url(#10)"><g clip-path="url(#11)"><g transform="matrix(0.4797568 0 0 0.4788912 36.96 231.06)"><g transform="matrix(1 0 0 1 0 0)"><image x="0" y="0" xlink:href="img_225.png" width="1065" height="487" /></g></g></g></g></g><g clip-path="url(#12)"><g clip-path="url(#13)"><path id="1067" transform="matrix(1 0 0 -1 0 842)" d="M113.94 105.98L196.98 105.98L196.98 122.54L113.94 122.54z" stroke="none" fill="#FFFFFF" fill-rule="nonzero" /></g></g><g clip-path="url(#14)"><g clip-path="url(#15)"><g clip-path="url(#16)"><g transform="matrix(0.48 0 0 0.4731428 113.94 719.46)"><g transform="matrix(1 0 0 1 0 0)"><image x="0" y="0" xlink:href="img_226.png" width="173" height="35" /></g></g></g></g></g></g></g></svg>