<svg xmlns="http://www.w3.org/2000/svg" xmlns:xlink="http://www.w3.org/1999/xlink" id="body_140" preserveAspectRatio="xMinYMin meet" viewBox="0 0 793 1123"><defs><clipPath id="1"><path id="" clip-rule="evenodd" transform="matrix(1 0 0 1 0 0)" d="M0 842L0 0L0 0L595 0L595 0L595 842L595 842L0 842z" /></clipPath><clipPath id="2"><path id="" clip-rule="evenodd" transform="matrix(1 0 0 1 0 0)" d="M44.94 117.06L558.42 117.06L558.42 117.06L558.42 376.8L558.42 376.8L44.94 376.8z" /></clipPath><clipPath id="3"><path id="" clip-rule="evenodd" transform="matrix(1 0 0 1 0 0)" d="M0 0.02001953L595.2 0.02001953L595.2 0.02001953L595.2 842L595.2 842L0 842z" /></clipPath><clipPath id="4"><path id="" clip-rule="evenodd" transform="matrix(1 0 0 1 0 0)" d="M45.96 118.02L557.4 118.02L557.4 118.02L557.4 375.78L557.4 375.78L45.96 375.78z" /></clipPath><clipPath id="5"><path id="" clip-rule="evenodd" transform="matrix(1 0 0 1 0 0)" d="M44.94 117.06L558.42 117.06L558.42 117.06L558.42 376.8L558.42 376.8L44.94 376.8z" /></clipPath><clipPath id="6"><path id="" clip-rule="evenodd" transform="matrix(1 0 0 1 0 0)" d="M0 0.02001953L595.2 0.02001953L595.2 0.02001953L595.2 842L595.2 842L0 842z" /></clipPath><clipPath id="7"><path id="" clip-rule="evenodd" transform="matrix(1 0 0 1 0 0)" d="M44.94 117.06L558.42 117.06L558.42 117.06L558.42 376.8L558.42 376.8L44.94 376.8z" /></clipPath><clipPath id="8"><path id="" clip-rule="evenodd" transform="matrix(1 0 0 1 0 0)" d="M0 0.02001953L595.2 0.02001953L595.2 0.02001953L595.2 842L595.2 842L0 842z" /></clipPath></defs><g transform="matrix(1.333333 0 0 1.333333 0 0)"><g clip-path="url(#1)"><g clip-path="url(#2)"><g clip-path="url(#3)"><path id="785" transform="matrix(1 0 0 -1 0 842)" d="M45.96 466.22L557.4 466.22L557.4 723.98L45.96 723.98z" stroke="none" fill="#FFFFFF" fill-rule="nonzero" /></g></g><g clip-path="url(#4)"><g clip-path="url(#5)"><g clip-path="url(#6)"><g transform="matrix(0.48 0 0 0.48 45.96 118.02)"><g transform="matrix(1 0 0 1 0 0)"><image x="0" y="0" xlink:href="img_354.png" width="1066" height="537" /></g></g></g></g></g><g clip-path="url(#7)"><g clip-path="url(#8)"><path id="787" transform="matrix(1 0 0 -1 0 842)" d="M454.2 558.68L496.8 558.68L496.8 559.7L454.2 559.7z" stroke="none" fill="#FF0000" fill-rule="nonzero" /><path id="788" transform="matrix(1 0 0 -1 0 842)" d="M495.78 469.64L496.8 469.64L496.8 559.22L495.78 559.22z" stroke="none" fill="#FF0000" fill-rule="nonzero" /><path id="789" transform="matrix(1 0 0 -1 0 842)" d="M453.72 469.64L496.26 469.64L496.26 470.66L453.72 470.66z" stroke="none" fill="#FF0000" fill-rule="nonzero" /><path id="790" transform="matrix(1 0 0 -1 0 842)" d="M453.72 470.18L454.74 470.18L454.74 559.7L453.72 559.7z" stroke="none" fill="#FF0000" fill-rule="nonzero" /><path id="791" transform="matrix(1 0 0 -1 0 842)" d="M76.74 680.96L76.02 680.96L76.02 680.96L76.14 680.96L76.14 680.96L75.42 680.84L75.42 680.84L75.42 680.9L75.42 680.9L74.75999 680.72L74.75999 680.72L74.82 680.72L74.82 680.72L74.16 680.48L74.16 680.48L74.22 680.48L74.22 680.48L73.56 680.18L73.56 680.18L73.62 680.18L73.62 680.18L73.02 679.82L73.02 679.82L73.02 679.88L73.02 679.88L72.48 679.46L72.48 679.46L72.54 679.46L72.54 679.46L72 678.98L72 678.98L72.06 679.04L72.06 679.04L71.64 678.56L71.64 678.56L71.64 678.62L71.64 678.62L71.22 678.02L71.22 678.02L71.28 678.02L71.28 678.02L70.92 677.42L70.92 677.42L70.92 677.48L70.92 677.48L70.62 676.88L70.62 676.88L70.62 676.94L70.62 676.94L70.38 676.28L70.38 676.28L70.38 676.34L70.38 676.34L70.2 675.62L70.2 675.62L70.25999 675.62L70.25999 675.62L70.14 674.96L70.14 674.96L70.14 675.02L70.14 675.02L70.08 674.2401L70.08 674.2401L70.08 674.3L70.08 674.3L70.08 665.9L70.08 665.9L70.14 665.18L70.14 665.18L70.14 665.2401L70.14 665.2401L70.25999 664.52L70.25999 664.52L70.2 664.58L70.2 664.58L70.38 663.92L70.38 663.92L70.38 663.98L70.38 663.98L70.62 663.32L70.62 663.32L70.92 662.66L70.92 662.66L70.92 662.72L70.92 662.72L71.28 662.12L71.28 662.12L71.22 662.18L71.22 662.18L72.06 661.1L72.06 661.1L71.93999 661.16L71.93999 661.16L73.02 660.32L73.02 660.32L73.02 660.38L73.02 660.38L73.62 660.02L73.62 660.02L73.56 660.02L73.56 660.02L74.22 659.72L74.22 659.72L74.16 659.78L74.16 659.78L74.82 659.54L74.82 659.54L74.75999 659.54L74.75999 659.54L75.42 659.36L75.42 659.36L76.14 659.2401L76.14 659.2401L76.07999 659.2401L76.07999 659.2401L76.8 659.18L76.8 659.18L76.74 659.18L76.74 659.18L166.14 659.18L166.14 659.18L166.92 659.2401L166.92 659.2401L166.86 659.2401L166.86 659.2401L167.52 659.36L167.52 659.36L167.46 659.36L167.46 659.36L168.18 659.54L168.18 659.54L168.12 659.54L168.12 659.54L168.78 659.78L168.78 659.78L168.78 659.72L168.78 659.72L169.44 660.02L169.44 660.02L169.38 660.02L169.38 660.02L169.92 659.18L169.92 659.18L169.86 659.12L169.86 659.12L169.2 658.82L169.2 658.82L169.14 658.82L169.14 658.82L168.48 658.58L168.48 658.58L168.42 658.58L168.42 658.58L167.7 658.4L167.7 658.4L167.7 658.34L167.7 658.34L167.04 658.22L167.04 658.22L166.98 658.22L166.98 658.22L166.2 658.16L166.2 658.16L76.74 658.16L76.74 658.16L76.02 658.22L76.02 658.22L75.96 658.22L75.96 658.22L75.24 658.34L75.24 658.34L75.18 658.4L75.18 658.4L74.52 658.58L74.52 658.58L74.46 658.58C 73.197 658.934 71.544 659.908 70.86 661.04L70.86 661.04L70.43999 661.58L70.43999 661.58L70.38 661.58L70.38 661.58L70.02 662.18L70.02 662.18L70.02 662.2401C 69.384 663.433 69.10699 664.536 69.06 665.9L69.06 665.9L69.06 674.3C 69.111 675.818 69.49 677.312 70.38 678.56L70.38 678.56L70.38 678.62L70.38 678.62L70.8 679.22L70.8 679.22L70.86 679.22L70.86 679.22L71.28 679.7L71.28 679.7L71.34 679.76L71.34 679.76L71.88 680.2401L71.88 680.2401L72.42 680.66L72.42 680.66L72.48 680.72L72.48 680.72L73.07999 681.08L73.07999 681.08L73.14 681.08L73.14 681.08L73.8 681.38L73.8 681.38L73.8 681.44L73.8 681.44L74.46 681.68L74.46 681.68L74.52 681.68L74.52 681.68L75.18 681.86L75.18 681.86L75.24 681.86L75.24 681.86L75.96 681.98L75.96 681.98L76.74 681.98" stroke="none" fill="#FF0000" fill-rule="nonzero" /><path id="792" transform="matrix(1 0 0 -1 0 842)" d="M169.38 660.02L169.92 660.38L169.92 660.38L169.86 660.38L169.86 660.38L170.46 660.8L170.46 660.8L170.46 660.74L170.46 660.74L170.94 661.16L170.94 661.16L170.88 661.1L170.88 661.1L171.36 661.64L171.36 661.64L171.78 662.18L171.78 662.18L171.72 662.12L171.72 662.12L172.08 662.72L172.08 662.72L172.08 662.66L172.08 662.66L172.38 663.32L172.38 663.32L172.32 663.32L172.32 663.32L172.56 663.98L172.56 663.98L172.56 663.92L172.56 663.92L172.74 664.58L172.74 664.58L172.74 664.52L172.74 664.52L172.86 665.24L172.86 665.24L172.86 665.18L172.86 665.18L172.86 675.08L172.86 675.08L172.86 674.96L172.86 674.96L172.74 675.62L172.74 675.62L172.56 676.34L172.56 676.34L172.56 676.28L172.56 676.28L172.32 676.94L172.32 676.94L172.38 676.88L172.38 676.88L172.08 677.48L172.08 677.48L172.08 677.42L172.08 677.42L171.72 678.02L171.72 678.02L171.3 678.62L171.3 678.62L171.36 678.56L171.36 678.56L170.4 679.52L170.4 679.52L170.46 679.46L170.46 679.46L169.86 679.88L169.86 679.88L169.92 679.88L169.92 679.88L169.38 680.24L169.38 680.24L169.44 680.18L169.44 680.18L168.78 680.48L168.78 680.48L168.12 680.72L168.12 680.72L168.18 680.72L168.18 680.72L167.46 680.9L167.46 680.9L167.52 680.84L167.52 680.84L166.86 680.96L166.86 680.96L166.92 680.96L166.92 680.96L76.74001 680.96L76.74001 680.96L76.74001 681.98L76.74001 681.98L166.14 681.98C 168.398 682.091 170.634 680.989 172.08 679.28L172.08 679.28L172.14 679.22L172.14 679.22L172.56 678.62L172.56 678.62L172.62 678.56L172.62 678.56L172.98 677.96L172.98 677.96L173.28 677.36L173.28 677.36L173.28 677.3L173.28 677.3L173.52 676.64L173.52 676.64L173.52 676.58L173.52 676.58L173.7 675.86L173.7 675.86L173.76 675.8C 174.239 672.891 173.626 668.826 173.88 665.9L173.88 665.9L173.88 665.06L173.88 665.06L173.76 664.34L173.76 664.34L173.7 664.34L173.7 664.34L173.52 663.68L173.52 663.68L173.52 663.62L173.52 663.62L173.28 662.96L173.28 662.96L173.28 662.9L173.28 662.9L172.98 662.24L172.98 662.24L172.98 662.18L172.98 662.18L172.62 661.58L172.62 661.58L172.56 661.58C 171.844 660.573 171.529 660.192 170.46 659.54L170.46 659.54L169.92 659.18" stroke="none" fill="#FF0000" fill-rule="nonzero" /><path id="793" transform="matrix(1 0 0 -1 0 842)" d="M439.5 539.78L439.56 543.26L439.62 543.92L440.22 543.7401L452.28 540.2L453.96 539.72L452.28 539.2401L440.16 535.88L439.5 535.7L439.5 536.36L439.86 536.84L451.98 540.2L452.28 539.2401L451.98 539.2401L439.92 542.78L440.22 543.7401L440.58 543.26L440.52 539.78" stroke="none" fill="#FF0000" fill-rule="nonzero" /><path id="794" transform="matrix(1 0 0 -1 0 842)" d="M439.5 536.36L440.52 536.36L440.52 539.78L439.5 539.78z" stroke="none" fill="#FF0000" fill-rule="nonzero" /><path id="795" transform="matrix(1 0 0 -1 0 842)" d="M439.98 539.78L440.04 543.26L440.04 543.26L452.1 539.72L452.1 539.72L439.98 536.36" stroke="none" fill="#FF0000" fill-rule="evenodd" /><path id="796" transform="matrix(1 0 0 -1 0 842)" d="M439.5 539.24L439.98 539.24L439.98 540.26L439.5 540.26z" stroke="none" fill="#FF0000" fill-rule="nonzero" /><path id="797" transform="matrix(1 0 0 -1 0 842)" d="M439.5 539.24L430.68 539.36C 369.907 540.396 308.018 546.446 248.82 560.54L248.82 560.54L242.1 562.16L242.1 562.16L242.1 562.22L242.1 562.22L235.5 563.9C 208.667 571.123 181.917 580.005 157.14 592.7L157.14 592.7L154.86 593.9L154.86 593.9L155.34 594.8L155.34 594.8L157.62 593.6L157.62 593.6L162.24 591.26L162.24 591.26L167.04 588.98L167.04 588.98L172.02 586.7L172.02 586.7L172.02 586.76L172.02 586.76L177.12 584.54L177.12 584.54L177.06 584.54L177.06 584.54L182.28 582.38C 197.714 576.241 213.294 571.031 229.32 566.66L229.32 566.66L235.8 564.86L235.8 564.86L235.74 564.86L235.74 564.86L242.34 563.18C 261.139 558.473 280.097 554.67 299.22 551.54L299.22 551.54L306.78 550.4L306.78 550.4L306.72 550.4L306.72 550.4L314.4 549.26C 344.287 544.916 374.419 542.472 404.58 541.1L404.58 541.1L413.22 540.8L413.22 540.8L413.16 540.8L413.16 540.8L421.92 540.56L421.92 540.56L430.68 540.38L430.68 540.38L439.5 540.26" stroke="none" fill="#FF0000" fill-rule="nonzero" /><path id="798" transform="matrix(1 0 0 -1 0 842)" d="M154.86 593.9L152.64 595.1L152.64 595.1L148.32 597.5L148.32 597.5L146.22 598.7L146.22 598.7L146.22 598.76L146.22 598.76L144.18 600.02L144.18 600.02L144.18 599.96L144.18 599.96L142.14 601.16L142.14 601.16L142.14 601.22L142.14 601.22L140.22 602.48C 134.184 606.226 128.064 610.765 122.7 615.44L122.7 615.44L121.26 616.82L121.26 616.82L121.32 616.76L121.32 616.76L119.88 618.08C 116.203 621.436 112.901 625.222 109.92 629.1801L109.92 629.1801L109.86 629.1801L109.86 629.1801L108.84 630.56C 106.926 633.32 105.263 636.186 103.8 639.2L103.8 639.2L103.14 640.64L103.14 640.64L103.08 640.64L103.08 640.64L102.48 642.08C 101.685 643.887 100.995 646.091 100.56 648.02L100.56 648.02L100.2 649.52L100.2 649.52L101.22 649.7L101.22 649.7L101.22 649.76L101.22 649.76L101.58 648.26L101.58 648.26L101.52 648.26L101.52 648.26L101.88 646.82L101.88 646.82L102.36 645.32L102.36 645.32L102.84 643.88L102.84 643.88L102.84 643.94L102.84 643.94L104.04 641.06L104.04 641.06L104.7 639.62L104.7 639.62L104.7 639.6801L104.7 639.6801L105.42 638.2401L105.42 638.2401L106.2 636.8L106.2 636.8L107.88 633.92L107.88 633.92L107.82 633.92L107.82 633.92L108.72 632.54L108.72 632.54L109.68 631.1L109.68 631.1L109.68 631.16L109.68 631.16L110.7 629.78L110.7 629.78L111.78 628.4L111.78 628.4L112.92 627.02L112.92 627.02L114.06 625.58L114.06 625.58L115.26 624.26L115.26 624.26L116.52 622.88L116.52 622.88L116.46 622.94L116.46 622.94L117.78 621.56C 120.431 618.827 123.609 615.955 126.54 613.52L126.54 613.52L128.16 612.2L128.16 612.2L128.1 612.26L128.1 612.26L129.78 611C 134.526 607.366 139.576 603.903 144.72 600.86L144.72 600.86L146.76 599.6L146.76 599.6L146.7 599.6L146.7 599.6L148.8 598.4L148.8 598.4L153.12 596L153.12 596L155.34 594.8" stroke="none" fill="#FF0000" fill-rule="nonzero" /><path id="799" transform="matrix(1 0 0 -1 0 842)" d="M100.2 649.52L99.89999 650.96L99.42 653.96L99.42 654.02L99.3 655.52L99.24 657.02L100.26 657.08L100.32 655.58L100.44 654.08L100.44 654.14L100.92 651.14L101.22 649.7" stroke="none" fill="#FF0000" fill-rule="nonzero" /><path id="800" transform="matrix(1 0 0 -1 0 842)" d="M99.18 658.52L99.18 659L100.2 659.06L100.2 658.58" stroke="none" fill="#FF0000" fill-rule="nonzero" /><path id="801" transform="matrix(1 0 0 -1 0 842)" d="M99.24 657.02L100.26 657.08L100.2 658.58L99.18 658.52" stroke="none" fill="#FF0000" fill-rule="nonzero" /></g></g></g></g></svg>