<svg xmlns="http://www.w3.org/2000/svg" xmlns:xlink="http://www.w3.org/1999/xlink" id="body_272" preserveAspectRatio="xMinYMin meet" viewBox="0 0 793 1123"><defs><clipPath id="1"><path id="" clip-rule="evenodd" transform="matrix(1 0 0 1 0 0)" d="M0 842L0 0L0 0L595 0L595 0L595 842L595 842L0 842z" /></clipPath><clipPath id="2"><path id="" clip-rule="evenodd" transform="matrix(1 0 0 1 0 0)" d="M225.96 115.02L472.2 115.02L472.2 115.02L472.2 280.44L472.2 280.44L225.96 280.44z" /></clipPath><clipPath id="3"><path id="" clip-rule="evenodd" transform="matrix(1 0 0 1 0 0)" d="M224.94 114L473.22 114L473.22 114L473.22 281.4L473.22 281.4L224.94 281.4z" /></clipPath><clipPath id="4"><path id="" clip-rule="evenodd" transform="matrix(1 0 0 1 0 0)" d="M0 0.02001953L595.2 0.02001953L595.2 0.02001953L595.2 842L595.2 842L0 842z" /></clipPath><clipPath id="5"><path id="" clip-rule="evenodd" transform="matrix(1 0 0 1 0 0)" d="M224.94 114L473.22 114L473.22 114L473.22 281.4L473.22 281.4L224.94 281.4z" /></clipPath><clipPath id="6"><path id="" clip-rule="evenodd" transform="matrix(1 0 0 1 0 0)" d="M0 0.02001953L595.2 0.02001953L595.2 0.02001953L595.2 842L595.2 842L0 842z" /></clipPath><clipPath id="7"><path id="" clip-rule="evenodd" transform="matrix(1 0 0 1 0 0)" d="M225.96 329.4L472.2 329.4L472.2 329.4L472.2 528.9L472.2 528.9L225.96 528.9z" /></clipPath><clipPath id="8"><path id="" clip-rule="evenodd" transform="matrix(1 0 0 1 0 0)" d="M224.94 328.44L473.22 328.44L473.22 328.44L473.22 529.86L473.22 529.86L224.94 529.86z" /></clipPath><clipPath id="9"><path id="" clip-rule="evenodd" transform="matrix(1 0 0 1 0 0)" d="M0 0.02001953L595.2 0.02001953L595.2 0.02001953L595.2 842L595.2 842L0 842z" /></clipPath></defs><g transform="matrix(1.333333 0 0 1.333333 0 0)"><g clip-path="url(#1)"><g clip-path="url(#2)"><g clip-path="url(#3)"><g clip-path="url(#4)"><g transform="matrix(0.48 0 0 0.4794783 225.96 115.02)"><g transform="matrix(1 0 0 1 0 0)"><image x="0" y="0" xlink:href="img_848.png" width="513" height="345" /></g></g></g></g></g><g clip-path="url(#5)"><g clip-path="url(#6)"><path id="169" transform="matrix(1 0 0 -1 0 842)" d="M385.26 594.98L385.26 595.1L385.26 595.1L385.32 595.22L385.32 595.22L385.32 595.7L385.32 595.7L385.26 595.82L385.26 595.82L385.26 595.94L385.26 595.94L385.2 596.12L385.2 596.12L385.14 596.24L385.14 596.24L385.08 596.36L385.08 596.36L384.96 596.48L384.96 596.48L384.84 596.54L384.84 596.54L384.78 596.66L384.78 596.66L384.66 596.72L384.66 596.72L384.48 596.84L384.48 596.84L384.24 596.96L384.24 596.96L383.46 596.96L383.46 596.96L382.98 596.72L382.98 596.72L382.86 596.6L382.86 596.6L382.74 596.54L382.74 596.54L382.62 596.42L382.62 596.42L382.56 596.3L382.56 596.3L382.5 596.18L382.5 596.18L382.44 596L382.44 596L382.38 595.88L382.38 595.88L382.32 595.7L382.32 595.7L382.32 595.28L382.32 595.28L382.38 595.16L382.38 595.16L382.38 594.98L382.38 594.98L382.5 594.74L382.5 594.74L382.62 594.62L382.62 594.62L382.68 594.5L382.68 594.5L382.8 594.38L382.8 594.38L382.92 594.32L382.92 594.32L383.04 594.2L383.04 594.2L383.28 594.08L383.28 594.08L383.46 594.02L383.46 594.02L383.58 594.02L383.58 594.02L383.76 593.96L383.76 593.96L383.88 593.96L383.88 593.96L384.06 594.02L384.06 594.02L384.18 594.02L384.18 594.02L384.42 594.14L384.42 594.14L384.6 594.2L384.6 594.2L384.84 594.32L384.84 594.32L384.9 594.44L384.9 594.44L385.02 594.56L385.02 594.56L385.08 594.68L385.08 594.68L385.2 594.8L385.2 594.8L385.26 594.98" stroke="none" fill="#FF0000" fill-rule="evenodd" /><path id="170" transform="matrix(1 0 0 -1 0 842)" d="M383.88 595.46L385.68 600.26L385.92 600.86L386.46 600.44L401.4 589.34L402.78 588.32L401.04 588.44L382.5 589.94L381.84 590.06L382.08 590.66L382.56 590.96L401.1 589.46L401.04 588.44L400.74 588.56L385.8 599.66L386.46 600.44L386.58 599.9L384.78 595.1" stroke="none" fill="#FF0000" fill-rule="nonzero" /><path id="171" transform="matrix(1 0 0 -1 0 842)" d="M382.08 590.66L383.88 595.46L384.78 595.1L382.98 590.3" stroke="none" fill="#FF0000" fill-rule="nonzero" /><path id="172" transform="matrix(1 0 0 -1 0 842)" d="M384.3 595.28L386.1 600.08L386.1 600.08L401.04 588.98L401.04 588.98L382.5 590.48" stroke="none" fill="#FF0000" fill-rule="evenodd" /><path id="173" transform="matrix(1 0 0 -1 0 842)" d="M357.48 606.98L356.1 607.52L355.02 604.7L356.4 604.16" stroke="none" fill="#FF0000" fill-rule="nonzero" /><path id="174" transform="matrix(1 0 0 -1 0 842)" d="M384.36 596.84L385.74 596.3L384.66 593.48L383.28 594.02" stroke="none" fill="#FF0000" fill-rule="nonzero" /><path id="175" transform="matrix(1 0 0 -1 0 842)" d="M357.48 606.98L356.4 604.16L383.28 594.02L384.36 596.84" stroke="none" fill="#FF0000" fill-rule="nonzero" /><path id="176" transform="matrix(1 0 0 -1 0 842)" d="M439.14 666.8L438.3 667.34L407.52 619.34L408.36 618.8" stroke="none" fill="#000000" fill-rule="nonzero" /><path id="177" transform="matrix(1 0 0 -1 0 842)" d="M440.82 661.64L452.1 661.64L452.1 671L440.82 671z" stroke="none" fill="#FFFFFF" fill-rule="nonzero" /></g></g><g clip-path="url(#7)"><g clip-path="url(#8)"><g clip-path="url(#9)"><g transform="matrix(0.48 0 0 0.4795673 225.96 329.4)"><g transform="matrix(1 0 0 1 0 0)"><image x="0" y="0" xlink:href="img_849.png" width="513" height="416" /></g></g></g></g></g></g></g></svg>