<svg xmlns="http://www.w3.org/2000/svg" xmlns:xlink="http://www.w3.org/1999/xlink" id="body_220" preserveAspectRatio="xMinYMin meet" viewBox="0 0 793 1123"><defs><clipPath id="1"><path id="" clip-rule="evenodd" transform="matrix(1 0 0 1 0 0)" d="M0 842L0 0L0 0L595 0L595 0L595 842L595 842L0 842z" /></clipPath><clipPath id="2"><path id="" clip-rule="evenodd" transform="matrix(1 0 0 1 0 0)" d="M225.96 137.04L300.6 137.04L300.6 137.04L300.6 284.64L300.6 284.64L225.96 284.64z" /></clipPath><clipPath id="3"><path id="" clip-rule="evenodd" transform="matrix(1 0 0 1 0 0)" d="M224.94 136.02L558.54 136.02L558.54 136.02L558.54 285.66L558.54 285.66L224.94 285.66z" /></clipPath><clipPath id="4"><path id="" clip-rule="evenodd" transform="matrix(1 0 0 1 0 0)" d="M0 0.02001953L595.2 0.02001953L595.2 0.02001953L595.2 842L595.2 842L0 842z" /></clipPath><clipPath id="5"><path id="" clip-rule="evenodd" transform="matrix(1 0 0 1 0 0)" d="M322.62 137.28L557.52 137.28L557.52 137.28L557.52 284.4L557.52 284.4L322.62 284.4z" /></clipPath><clipPath id="6"><path id="" clip-rule="evenodd" transform="matrix(1 0 0 1 0 0)" d="M224.94 136.02L558.54 136.02L558.54 136.02L558.54 285.66L558.54 285.66L224.94 285.66z" /></clipPath><clipPath id="7"><path id="" clip-rule="evenodd" transform="matrix(1 0 0 1 0 0)" d="M0 0.02001953L595.2 0.02001953L595.2 0.02001953L595.2 842L595.2 842L0 842z" /></clipPath><clipPath id="8"><path id="" clip-rule="evenodd" transform="matrix(1 0 0 1 0 0)" d="M224.94 136.02L558.54 136.02L558.54 136.02L558.54 285.66L558.54 285.66L224.94 285.66z" /></clipPath><clipPath id="9"><path id="" clip-rule="evenodd" transform="matrix(1 0 0 1 0 0)" d="M0 0.02001953L595.2 0.02001953L595.2 0.02001953L595.2 842L595.2 842L0 842z" /></clipPath><clipPath id="10"><path id="" clip-rule="evenodd" transform="matrix(1 0 0 1 0 0)" d="M64.98 387.66L469.2 387.66L469.2 387.66L469.2 723.12L469.2 723.12L64.98 723.12z" /></clipPath><clipPath id="11"><path id="" clip-rule="evenodd" transform="matrix(1 0 0 1 0 0)" d="M44.94 386.64L470.16 386.64L470.16 386.64L470.16 724.14L470.16 724.14L44.94 724.14z" /></clipPath><clipPath id="12"><path id="" clip-rule="evenodd" transform="matrix(1 0 0 1 0 0)" d="M0 0.02001953L595.2 0.02001953L595.2 0.02001953L595.2 842L595.2 842L0 842z" /></clipPath><clipPath id="13"><path id="" clip-rule="evenodd" transform="matrix(1 0 0 1 0 0)" d="M44.94 386.64L470.16 386.64L470.16 386.64L470.16 724.14L470.16 724.14L44.94 724.14z" /></clipPath><clipPath id="14"><path id="" clip-rule="evenodd" transform="matrix(1 0 0 1 0 0)" d="M0 0.02001953L595.2 0.02001953L595.2 0.02001953L595.2 842L595.2 842L0 842z" /></clipPath></defs><g transform="matrix(1.333333 0 0 1.333333 0 0)"><g clip-path="url(#1)"><path id="123" transform="matrix(1 0 0 -1 0 842)" d="M242.94 769.94L558 769.94L558 722L242.94 722" stroke="none" fill="#ECF5FC" fill-rule="nonzero" /><g clip-path="url(#2)"><g clip-path="url(#3)"><g clip-path="url(#4)"><g transform="matrix(0.4799487 0 0 0.4792208 225.96 137.04)"><g transform="matrix(1 0 0 1 0 0)"><image x="0" y="0" xlink:href="img_598.png" width="156" height="308" /></g></g></g></g></g><g clip-path="url(#5)"><g clip-path="url(#6)"><g clip-path="url(#7)"><g transform="matrix(0.4784114 0 0 0.4792182 322.62 137.28)"><g transform="matrix(1 0 0 1 0 0)"><image x="0" y="0" xlink:href="img_599.png" width="491" height="307" /></g></g></g></g></g><g clip-path="url(#8)"><g clip-path="url(#9)"><path id="199" transform="matrix(1 0 0 -1 0 842)" d="M314.82 669.86L314.76 670.04L314.76 670.04L314.7 670.22L314.7 670.22L314.64 670.4L314.64 670.4L314.52 670.58L314.52 670.58L314.34 670.7L314.34 670.7L313.98 670.82L313.98 670.82L313.62 670.82L313.62 670.82L313.38 670.76L313.38 670.76L313.26 670.7L313.26 670.7L313.08 670.58L313.08 670.58L312.96 670.4L312.96 670.4L312.9 670.22L312.9 670.22L312.84 670.04L312.84 670.04L312.78 669.86L312.78 669.86L312.84 669.62L312.84 669.62L312.9 669.44L312.9 669.44L312.96 669.26L312.96 669.26L313.08 669.14L313.08 669.14L313.26 669.02L313.26 669.02L313.38 668.9L313.38 668.9L313.62 668.84L313.62 668.84L313.98 668.84L313.98 668.84L314.16 668.9L314.16 668.9L314.52 669.14L314.52 669.14L314.64 669.26L314.64 669.26L314.76 669.62L314.76 669.62L314.82 669.86" stroke="none" fill="#000000" fill-rule="evenodd" /><path id="200" transform="matrix(1 0 0 -1 0 842)" d="M313.8 669.86L313.8 674.3L314.52 673.88L320.82 670.28L321.6 669.8L320.88 669.38L314.58 665.72L313.8 665.24L313.8 666.2L314.04 666.62L320.34 670.28L320.88 669.38L320.34 669.38L314.04 672.98L314.52 673.88L314.82 673.46L314.82 669.86" stroke="none" fill="#000000" fill-rule="nonzero" /><path id="201" transform="matrix(1 0 0 -1 0 842)" d="M313.8 666.2L314.82 666.2L314.82 669.86L313.8 669.86z" stroke="none" fill="#000000" fill-rule="nonzero" /><path id="202" transform="matrix(1 0 0 -1 0 842)" d="M314.28 669.86L314.28 673.46L314.28 673.46L320.58 669.86L320.58 669.86L314.28 666.2" stroke="none" fill="#000000" fill-rule="evenodd" /><path id="203" transform="matrix(1 0 0 -1 0 842)" d="M300.84 668.84L301.8 668.84L301.8 670.82L300.84 670.82z" stroke="none" fill="#000000" fill-rule="nonzero" /><path id="204" transform="matrix(1 0 0 -1 0 842)" d="M301.8 668.84L314.76 668.84L314.76 670.82L301.8 670.82z" stroke="none" fill="#000000" fill-rule="nonzero" /><path id="205" transform="matrix(1 0 0 -1 0 842)" d="M233.94 571.76L293.94 571.76L293.94 608.48L233.94 608.48z" stroke="none" fill="#FFFFFF" fill-rule="nonzero" /><path id="218" transform="matrix(1 0 0 -1 0 842)" d="M254.76 609.8L256.74 609.8L256.74 610.76L254.76 610.76z" stroke="none" fill="#000000" fill-rule="nonzero" /><path id="219" transform="matrix(1 0 0 -1 0 842)" d="M254.76 610.76L256.74 610.76L256.74 631.94L254.76 631.94z" stroke="none" fill="#000000" fill-rule="nonzero" /><path id="220" transform="matrix(1 0 0 -1 0 842)" d="M250.44 660.98L288.96 660.98L288.96 672.26L250.44 672.26z" stroke="none" fill="#FFFFFF" fill-rule="nonzero" /><path id="224" transform="matrix(1 0 0 -1 0 842)" d="M254.82 688.04L254.04 688.58L252.9 686.96L253.68 686.42" stroke="none" fill="#000000" fill-rule="nonzero" /><path id="225" transform="matrix(1 0 0 -1 0 842)" d="M274.32 674.54L275.1 674L273.96 672.38L273.18 672.92" stroke="none" fill="#000000" fill-rule="nonzero" /><path id="226" transform="matrix(1 0 0 -1 0 842)" d="M254.82 688.04L253.68 686.42L273.18 672.92L274.32 674.54" stroke="none" fill="#000000" fill-rule="nonzero" /><path id="227" transform="matrix(1 0 0 -1 0 842)" d="M370.98 682.94L554.52 682.94L554.52 683.96L370.98 683.96z" stroke="none" fill="#000000" fill-rule="nonzero" /><path id="228" transform="matrix(1 0 0 -1 0 842)" d="M553.5 587.72L554.52 587.72L554.52 683.48L553.5 683.48z" stroke="none" fill="#000000" fill-rule="nonzero" /><path id="229" transform="matrix(1 0 0 -1 0 842)" d="M370.5 587.72L553.98 587.72L553.98 588.74L370.5 588.74z" stroke="none" fill="#000000" fill-rule="nonzero" /><path id="230" transform="matrix(1 0 0 -1 0 842)" d="M370.5 588.26L371.52 588.26L371.52 683.96L370.5 683.96z" stroke="none" fill="#000000" fill-rule="nonzero" /><path id="231" transform="matrix(1 0 0 -1 0 842)" d="M430.98 560.96L487.98 560.96L487.98 573.02L430.98 573.02z" stroke="none" fill="#FFFFFF" fill-rule="nonzero" /><path id="237" transform="matrix(1 0 0 -1 0 842)" d="M450.72 574.28L451.74 574.28L451.74 574.76L450.72 574.76z" stroke="none" fill="#000000" fill-rule="nonzero" /><path id="238" transform="matrix(1 0 0 -1 0 842)" d="M450.72 574.76L451.74 574.76L451.74 588.74L450.72 588.74z" stroke="none" fill="#000000" fill-rule="nonzero" /><path id="239" transform="matrix(1 0 0 -1 0 842)" d="M325.2 561.98L385.2 561.98L385.2 573.98L325.2 573.98z" stroke="none" fill="#FFFFFF" fill-rule="nonzero" /><path id="244" transform="matrix(1 0 0 -1 0 842)" d="M325.86 592.34L338.46 592.34L338.46 601.94L325.86 601.94z" stroke="none" fill="#FFFFFF" fill-rule="nonzero" /><path id="247" transform="matrix(1 0 0 -1 0 842)" d="M324.24 689.06L382.8 689.06L382.8 699.26L324.24 699.26z" stroke="none" fill="#FFFFFF" fill-rule="nonzero" /></g></g><g clip-path="url(#10)"><g clip-path="url(#11)"><g clip-path="url(#12)"><g transform="matrix(0.4800713 0 0 0.4799142 64.98 387.66)"><g transform="matrix(1 0 0 1 0 0)"><image x="0" y="0" xlink:href="img_600.png" width="842" height="699" /></g></g></g></g></g><g clip-path="url(#13)"><g clip-path="url(#14)"><path id="274" transform="matrix(1 0 0 -1 0 842)" d="M344.52 261.32L466.56 261.32L466.56 262.34L344.52 262.34z" stroke="none" fill="#000000" fill-rule="nonzero" /><path id="275" transform="matrix(1 0 0 -1 0 842)" d="M465.54 160.82L466.56 160.82L466.56 261.86L465.54 261.86z" stroke="none" fill="#000000" fill-rule="nonzero" /><path id="276" transform="matrix(1 0 0 -1 0 842)" d="M344.04 160.82L466.02 160.82L466.02 161.84L344.04 161.84z" stroke="none" fill="#000000" fill-rule="nonzero" /><path id="277" transform="matrix(1 0 0 -1 0 842)" d="M344.04 161.36L345.06 161.36L345.06 262.34L344.04 262.34z" stroke="none" fill="#000000" fill-rule="nonzero" /><path id="278" transform="matrix(1 0 0 -1 0 842)" d="M397.5 142.88L462.3 142.88L462.3 121.1L397.5 121.1" stroke="none" fill="#FFFFFF" fill-rule="nonzero" /><path id="289" transform="matrix(1 0 0 -1 0 842)" d="M235.74 343.1L358.56 343.1L358.56 344.12L235.74 344.12z" stroke="none" fill="#000000" fill-rule="nonzero" /><path id="290" transform="matrix(1 0 0 -1 0 842)" d="M357.54 244.04L358.56 244.04L358.56 343.64L357.54 343.64z" stroke="none" fill="#000000" fill-rule="nonzero" /><path id="291" transform="matrix(1 0 0 -1 0 842)" d="M235.26 244.04L358.02 244.04L358.02 245.06L235.26 245.06z" stroke="none" fill="#000000" fill-rule="nonzero" /><path id="292" transform="matrix(1 0 0 -1 0 842)" d="M235.26 244.58L236.28 244.58L236.28 344.12L235.26 344.12z" stroke="none" fill="#000000" fill-rule="nonzero" /><path id="293" transform="matrix(1 0 0 -1 0 842)" d="M328.32 344.78L327.9 344.54L328.44 343.7L328.86 343.94" stroke="none" fill="#000000" fill-rule="nonzero" /><path id="294" transform="matrix(1 0 0 -1 0 842)" d="M358.26 364.52L358.68 364.76L359.22 363.92L358.8 363.68" stroke="none" fill="#000000" fill-rule="nonzero" /><path id="295" transform="matrix(1 0 0 -1 0 842)" d="M328.32 344.78L328.86 343.94L358.8 363.68L358.26 364.52" stroke="none" fill="#000000" fill-rule="nonzero" /><path id="296" transform="matrix(1 0 0 -1 0 842)" d="M360 356.12L408 356.12L408 378.62L360 378.62z" stroke="none" fill="#FFFFFF" fill-rule="nonzero" /><path id="304" transform="matrix(1 0 0 -1 0 842)" d="M377.88 161.72L377.52 162.08L376.8 161.36L377.16 161" stroke="none" fill="#000000" fill-rule="nonzero" /><path id="305" transform="matrix(1 0 0 -1 0 842)" d="M396.6 142.94L396.96 142.58L396.24 141.86L395.88 142.22" stroke="none" fill="#000000" fill-rule="nonzero" /><path id="306" transform="matrix(1 0 0 -1 0 842)" d="M377.88 161.72L377.16 161L395.88 142.22L396.6 142.94" stroke="none" fill="#000000" fill-rule="nonzero" /><path id="307" transform="matrix(1 0 0 -1 0 842)" d="M142.02 256.04L189.06 256.04L189.06 257.06L142.02 257.06z" stroke="none" fill="#000000" fill-rule="nonzero" /><path id="308" transform="matrix(1 0 0 -1 0 842)" d="M188.04 121.04L189.06 121.04L189.06 256.58L188.04 256.58z" stroke="none" fill="#000000" fill-rule="nonzero" /><path id="309" transform="matrix(1 0 0 -1 0 842)" d="M141.54 121.04L188.52 121.04L188.52 122.06L141.54 122.06z" stroke="none" fill="#000000" fill-rule="nonzero" /><path id="310" transform="matrix(1 0 0 -1 0 842)" d="M141.54 121.58L142.56 121.58L142.56 257.06L141.54 257.06z" stroke="none" fill="#000000" fill-rule="nonzero" /><path id="311" transform="matrix(1 0 0 -1 0 842)" d="M45.96 164.72L119.76 164.72L119.76 211.34L45.96 211.34z" stroke="none" fill="#FFFFFF" fill-rule="nonzero" /><path id="337" transform="matrix(1 0 0 -1 0 842)" d="M142.02 194.54L142.5 194.54L142.5 195.56L142.02 195.56z" stroke="none" fill="#000000" fill-rule="nonzero" /><path id="338" transform="matrix(1 0 0 -1 0 842)" d="M119.76 194.54L142.02 194.54L142.02 195.56L119.76 195.56z" stroke="none" fill="#000000" fill-rule="nonzero" /><path id="339" transform="matrix(1 0 0 -1 0 842)" d="M184.02 452.6L225.78 452.6L225.78 453.62L184.02 453.62z" stroke="none" fill="#000000" fill-rule="nonzero" /><path id="340" transform="matrix(1 0 0 -1 0 842)" d="M224.76 363.32L225.78 363.32L225.78 453.14L224.76 453.14z" stroke="none" fill="#000000" fill-rule="nonzero" /><path id="341" transform="matrix(1 0 0 -1 0 842)" d="M183.54 363.32L225.24 363.32L225.24 364.34L183.54 364.34z" stroke="none" fill="#000000" fill-rule="nonzero" /><path id="342" transform="matrix(1 0 0 -1 0 842)" d="M183.54 363.86L184.56 363.86L184.56 453.62L183.54 453.62z" stroke="none" fill="#000000" fill-rule="nonzero" /><path id="343" transform="matrix(1 0 0 -1 0 842)" d="M65.76 386.24L140.76 386.24L140.76 434.12L65.76 434.12z" stroke="none" fill="#FFFFFF" fill-rule="nonzero" /><path id="366" transform="matrix(1 0 0 -1 0 842)" d="M140.04 410.6L140.52 410.6L140.52 411.62L140.04 411.62z" stroke="none" fill="#000000" fill-rule="nonzero" /><path id="367" transform="matrix(1 0 0 -1 0 842)" d="M140.52 410.6L185.22 410.6L185.22 411.62L140.52 411.62z" stroke="none" fill="#000000" fill-rule="nonzero" /></g></g></g></g></svg>