<svg xmlns="http://www.w3.org/2000/svg" xmlns:xlink="http://www.w3.org/1999/xlink" id="body_196" preserveAspectRatio="xMinYMin meet" viewBox="0 0 793 1123"><defs><clipPath id="1"><path id="" clip-rule="evenodd" transform="matrix(1 0 0 1 0 0)" d="M0 842L0 0L0 0L595 0L595 0L595 842L595 842L0 842z" /></clipPath><clipPath id="2"><path id="" clip-rule="evenodd" transform="matrix(1 0 0 1 0 0)" d="M196.5 309.06L45.96001 309.06L45.96001 309.06L45.96001 79.02002L45.96001 79.02002L196.5 79.02002z" /></clipPath><clipPath id="3"><path id="" clip-rule="evenodd" transform="matrix(1 0 0 1 0 0)" d="M44.94 78.06L414.18 78.06L414.18 78.06L414.18 310.02L414.18 310.02L44.94 310.02z" /></clipPath><clipPath id="4"><path id="" clip-rule="evenodd" transform="matrix(1 0 0 1 0 0)" d="M0 0.02001953L595.2 0.02001953L595.2 0.02001953L595.2 842L595.2 842L0 842z" /></clipPath><clipPath id="5"><path id="" clip-rule="evenodd" transform="matrix(1 0 0 1 0 0)" d="M207.66 79.02002L257.58 79.02002L257.58 79.02002L257.58 304.62L257.58 304.62L207.66 304.62z" /></clipPath><clipPath id="6"><path id="" clip-rule="evenodd" transform="matrix(1 0 0 1 0 0)" d="M44.94 78.06L414.18 78.06L414.18 78.06L414.18 310.02L414.18 310.02L44.94 310.02z" /></clipPath><clipPath id="7"><path id="" clip-rule="evenodd" transform="matrix(1 0 0 1 0 0)" d="M0 0.02001953L595.2 0.02001953L595.2 0.02001953L595.2 842L595.2 842L0 842z" /></clipPath><clipPath id="8"><path id="" clip-rule="evenodd" transform="matrix(1 0 0 1 0 0)" d="M270.18 79.02002L413.16 79.02002L413.16 79.02002L413.16 308.64L413.16 308.64L270.18 308.64z" /></clipPath><clipPath id="9"><path id="" clip-rule="evenodd" transform="matrix(1 0 0 1 0 0)" d="M44.94 78.06L414.18 78.06L414.18 78.06L414.18 310.02L414.18 310.02L44.94 310.02z" /></clipPath><clipPath id="10"><path id="" clip-rule="evenodd" transform="matrix(1 0 0 1 0 0)" d="M0 0.02001953L595.2 0.02001953L595.2 0.02001953L595.2 842L595.2 842L0 842z" /></clipPath><clipPath id="11"><path id="" clip-rule="evenodd" transform="matrix(1 0 0 1 0 0)" d="M44.94 78.06L414.18 78.06L414.18 78.06L414.18 310.02L414.18 310.02L44.94 310.02z" /></clipPath><clipPath id="12"><path id="" clip-rule="evenodd" transform="matrix(1 0 0 1 0 0)" d="M0 0.02001953L595.2 0.02001953L595.2 0.02001953L595.2 842L595.2 842L0 842z" /></clipPath><clipPath id="13"><path id="" clip-rule="evenodd" transform="matrix(1 0 0 1 0 0)" d="M225.96 408L274.86 408L274.86 408L274.86 637.74L274.86 637.74L225.96 637.74z" /></clipPath><clipPath id="14"><path id="" clip-rule="evenodd" transform="matrix(1 0 0 1 0 0)" d="M224.94 406.98L556.44 406.98L556.44 406.98L556.44 638.76L556.44 638.76L224.94 638.76z" /></clipPath><clipPath id="15"><path id="" clip-rule="evenodd" transform="matrix(1 0 0 1 0 0)" d="M0 0.02001953L595.2 0.02001953L595.2 0.02001953L595.2 842L595.2 842L0 842z" /></clipPath><clipPath id="16"><path id="" clip-rule="evenodd" transform="matrix(1 0 0 1 0 0)" d="M314.22 408L353.94 408L353.94 408L353.94 637.74L353.94 637.74L314.22 637.74z" /></clipPath><clipPath id="17"><path id="" clip-rule="evenodd" transform="matrix(1 0 0 1 0 0)" d="M224.94 406.98L556.44 406.98L556.44 406.98L556.44 638.76L556.44 638.76L224.94 638.76z" /></clipPath><clipPath id="18"><path id="" clip-rule="evenodd" transform="matrix(1 0 0 1 0 0)" d="M0 0.02001953L595.2 0.02001953L595.2 0.02001953L595.2 842L595.2 842L0 842z" /></clipPath><clipPath id="19"><path id="" clip-rule="evenodd" transform="matrix(1 0 0 1 0 0)" d="M393.3 408.72L555.48 408.72L555.48 408.72L555.48 637.02L555.48 637.02L393.3 637.02z" /></clipPath><clipPath id="20"><path id="" clip-rule="evenodd" transform="matrix(1 0 0 1 0 0)" d="M224.94 406.98L556.44 406.98L556.44 406.98L556.44 638.76L556.44 638.76L224.94 638.76z" /></clipPath><clipPath id="21"><path id="" clip-rule="evenodd" transform="matrix(1 0 0 1 0 0)" d="M0 0.02001953L595.2 0.02001953L595.2 0.02001953L595.2 842L595.2 842L0 842z" /></clipPath><clipPath id="22"><path id="" clip-rule="evenodd" transform="matrix(1 0 0 1 0 0)" d="M224.94 406.98L556.44 406.98L556.44 406.98L556.44 638.76L556.44 638.76L224.94 638.76z" /></clipPath><clipPath id="23"><path id="" clip-rule="evenodd" transform="matrix(1 0 0 1 0 0)" d="M0 0.02001953L595.2 0.02001953L595.2 0.02001953L595.2 842L595.2 842L0 842z" /></clipPath></defs><g transform="matrix(1.333333 0 0 1.333333 0 0)"><g clip-path="url(#1)"><g clip-path="url(#2)"><g clip-path="url(#3)"><g clip-path="url(#4)"><g transform="matrix(-0.4794267 0 0 -0.47925 196.44 309.06)"><g transform="matrix(1 0 0 1 0 0)"><image x="0" y="0" xlink:href="img_514.png" width="314" height="480" /></g></g></g></g></g><g clip-path="url(#5)"><g clip-path="url(#6)"><g clip-path="url(#7)"><g transform="matrix(0.48 0 0 0.48 207.66 79.02002)"><g transform="matrix(1 0 0 1 0 0)"><image x="0" y="0" xlink:href="img_515.png" width="104" height="470" /></g></g></g></g></g><g clip-path="url(#8)"><g clip-path="url(#9)"><g clip-path="url(#10)"><g transform="matrix(0.4797986 0 0 0.4793737 270.18 79.02002)"><g transform="matrix(1 0 0 1 0 0)"><image x="0" y="0" xlink:href="img_516.png" width="298" height="479" /></g></g></g></g></g><g clip-path="url(#11)"><g clip-path="url(#12)"><path id="234" transform="matrix(1 0 0 -1 0 842)" d="M68.58 583.34L68.22 583.94L66.96 583.16L67.32 582.56" stroke="none" fill="#FF0000" fill-rule="nonzero" /><path id="235" transform="matrix(1 0 0 -1 0 842)" d="M87.3 554.12L87.66 553.52L86.4 552.74L86.04 553.34" stroke="none" fill="#FF0000" fill-rule="nonzero" /><path id="236" transform="matrix(1 0 0 -1 0 842)" d="M68.58 583.34L67.32 582.56L86.04 553.34L87.3 554.1201" stroke="none" fill="#FF0000" fill-rule="nonzero" /><path id="237" transform="matrix(1 0 0 -1 0 842)" d="M89.4 543.74L99.9 543.74L99.9 555.74L89.4 555.74z" stroke="none" fill="#FFFFFF" fill-rule="nonzero" /><path id="239" transform="matrix(1 0 0 -1 0 842)" d="M101.4 744.74L111.9 744.74L111.9 756.74L101.4 756.74z" stroke="none" fill="#FFFFFF" fill-rule="nonzero" /><path id="241" transform="matrix(1 0 0 -1 0 842)" d="M101.4 577.76L111.9 577.76L111.9 589.76L101.4 589.76z" stroke="none" fill="#FFFFFF" fill-rule="nonzero" /><path id="243" transform="matrix(1 0 0 -1 0 842)" d="M142.44 744.74L152.94 744.74L152.94 756.74L142.44 756.74z" stroke="none" fill="#FFFFFF" fill-rule="nonzero" /><path id="245" transform="matrix(1 0 0 -1 0 842)" d="M146.4 570.74L156.9 570.74L156.9 582.74L146.4 582.74z" stroke="none" fill="#FFFFFF" fill-rule="nonzero" /><path id="247" transform="matrix(1 0 0 -1 0 842)" d="M174.42 744.74L184.92 744.74L184.92 756.74L174.42 756.74z" stroke="none" fill="#FFFFFF" fill-rule="nonzero" /><path id="249" transform="matrix(1 0 0 -1 0 842)" d="M286.44 542.66L296.94 542.66L296.94 554.66L286.44 554.66z" stroke="none" fill="#FFFFFF" fill-rule="nonzero" /><path id="251" transform="matrix(1 0 0 -1 0 842)" d="M331.44 545.66L344.94 545.66L344.94 557.66L331.44 557.66z" stroke="none" fill="#FFFFFF" fill-rule="nonzero" /><path id="253" transform="matrix(1 0 0 -1 0 842)" d="M387.42 543.68L401.7 543.68L401.7 555.68L387.42 555.68z" stroke="none" fill="#FFFFFF" fill-rule="nonzero" /><path id="256" transform="matrix(1 0 0 -1 0 842)" d="M237.72 617.84L248.22 617.84L248.22 629.84L237.72 629.84z" stroke="none" fill="#FFFFFF" fill-rule="nonzero" /></g></g><g clip-path="url(#13)"><g clip-path="url(#14)"><g clip-path="url(#15)"><g transform="matrix(0.4794118 0 0 0.478625 225.96 408)"><g transform="matrix(1 0 0 1 0 0)"><image x="0" y="0" xlink:href="img_517.png" width="102" height="480" /></g></g></g></g></g><g clip-path="url(#16)"><g clip-path="url(#17)"><g clip-path="url(#18)"><g transform="matrix(0.479771 0 0 0.4796242 314.22 408)"><g transform="matrix(1 0 0 1 0 0)"><image x="0" y="0" xlink:href="img_518.png" width="83" height="479" /></g></g></g></g></g><g clip-path="url(#19)"><g clip-path="url(#20)"><g clip-path="url(#21)"><g transform="matrix(0.4798225 0 0 0.4796219 393.3 408.72)"><g transform="matrix(1 0 0 1 0 0)"><image x="0" y="0" xlink:href="img_519.png" width="338" height="476" /></g></g></g></g></g><g clip-path="url(#22)"><g clip-path="url(#23)"><path id="280" transform="matrix(1 0 0 -1 0 842)" d="M252.24 231.74L262.74 231.74L262.74 241.46L252.24 241.46z" stroke="none" fill="#FFFFFF" fill-rule="nonzero" /><path id="282" transform="matrix(1 0 0 -1 0 842)" d="M330.24 220.7L340.74 220.7L340.74 230.48L330.24 230.48z" stroke="none" fill="#FFFFFF" fill-rule="nonzero" /><path id="284" transform="matrix(1 0 0 -1 0 842)" d="M403.2 389.72L413.7 389.72L413.7 399.5L403.2 399.5z" stroke="none" fill="#FFFFFF" fill-rule="nonzero" /><path id="286" transform="matrix(1 0 0 -1 0 842)" d="M439.2 389.72L449.7 389.72L449.7 399.5L439.2 399.5z" stroke="none" fill="#FFFFFF" fill-rule="nonzero" /><path id="288" transform="matrix(1 0 0 -1 0 842)" d="M504.24 270.74L514.74 270.74L514.74 280.46L504.24 280.46z" stroke="none" fill="#FFFFFF" fill-rule="nonzero" /></g></g></g></g></svg>