<svg xmlns="http://www.w3.org/2000/svg" xmlns:xlink="http://www.w3.org/1999/xlink" id="body_179" preserveAspectRatio="xMinYMin meet" viewBox="0 0 793 1123"><defs><clipPath id="1"><path id="" clip-rule="evenodd" transform="matrix(1 0 0 1 0 0)" d="M0 842L0 0L0 0L595 0L595 0L595 842L595 842L0 842z" /></clipPath><clipPath id="2"><path id="" clip-rule="evenodd" transform="matrix(1 0 0 1 0 0)" d="M224.94 324.96L558.36 324.96L558.36 324.96L558.36 479.76L558.36 479.76L224.94 479.76z" /></clipPath><clipPath id="3"><path id="" clip-rule="evenodd" transform="matrix(1 0 0 1 0 0)" d="M0 0.02001953L595.2 0.02001953L595.2 0.02001953L595.2 842L595.2 842L0 842z" /></clipPath><clipPath id="4"><path id="" clip-rule="evenodd" transform="matrix(1 0 0 1 0 0)" d="M225.96 343.86L554.76 343.86L554.76 343.86L554.76 461.94L554.76 461.94L225.96 461.94z" /></clipPath><clipPath id="5"><path id="" clip-rule="evenodd" transform="matrix(1 0 0 1 0 0)" d="M224.94 324.96L558.36 324.96L558.36 324.96L558.36 479.76L558.36 479.76L224.94 479.76z" /></clipPath><clipPath id="6"><path id="" clip-rule="evenodd" transform="matrix(1 0 0 1 0 0)" d="M0 0.02001953L595.2 0.02001953L595.2 0.02001953L595.2 842L595.2 842L0 842z" /></clipPath><clipPath id="7"><path id="" clip-rule="evenodd" transform="matrix(1 0 0 1 0 0)" d="M224.94 324.96L558.36 324.96L558.36 324.96L558.36 479.76L558.36 479.76L224.94 479.76z" /></clipPath><clipPath id="8"><path id="" clip-rule="evenodd" transform="matrix(1 0 0 1 0 0)" d="M0 0.02001953L595.2 0.02001953L595.2 0.02001953L595.2 842L595.2 842L0 842z" /></clipPath></defs><g transform="matrix(1.333333 0 0 1.333333 0 0)"><g clip-path="url(#1)"><g clip-path="url(#2)"><g clip-path="url(#3)"><path id="539" transform="matrix(1 0 0 -1 0 842)" d="M287.34 506.42L338.4 506.42L338.4 516.02L287.34 516.02z" stroke="none" fill="#FFFFFF" fill-rule="nonzero" /><path id="544" transform="matrix(1 0 0 -1 0 842)" d="M356.16 505.82L384.96 505.82L384.96 516.02L356.16 516.02z" stroke="none" fill="#FFFFFF" fill-rule="nonzero" /></g></g><g clip-path="url(#4)"><g clip-path="url(#5)"><g clip-path="url(#6)"><g transform="matrix(0.48 0 0 0.48 225.96 343.86)"><g transform="matrix(1 0 0 1 0 0)"><image x="0" y="0" xlink:href="img_483.png" width="685" height="246" /></g></g></g></g></g><g clip-path="url(#7)"><g clip-path="url(#8)"><path id="548" transform="matrix(1 0 0 -1 0 842)" d="M534.9 505.22L535.92 505.22L535.92 505.7L534.9 505.7z" stroke="none" fill="#000000" fill-rule="nonzero" /><path id="549" transform="matrix(1 0 0 -1 0 842)" d="M534.9 450.44L535.92 450.44L535.92 505.22L534.9 505.22z" stroke="none" fill="#000000" fill-rule="nonzero" /><path id="550" transform="matrix(1 0 0 -1 0 842)" d="M347.04 472.64L346.62 472.4L347.1 471.5L347.52 471.74" stroke="none" fill="#000000" fill-rule="nonzero" /><path id="551" transform="matrix(1 0 0 -1 0 842)" d="M347.04 472.64L347.52 471.74L366.3 481.94L366.6 482.12L366.6 482.36L365.82 482.84" stroke="none" fill="#000000" fill-rule="nonzero" /><path id="552" transform="matrix(1 0 0 -1 0 842)" d="M366.66 506.42L366.66 506.9L367.68 506.84L367.68 506.36" stroke="none" fill="#000000" fill-rule="nonzero" /><path id="553" transform="matrix(1 0 0 -1 0 842)" d="M365.58 482.42L366.6 482.36L367.68 506.36L366.66 506.42" stroke="none" fill="#000000" fill-rule="nonzero" /><path id="554" transform="matrix(1 0 0 -1 0 842)" d="M326.64 472.22L327 471.92L327.66 472.7L327.3 473" stroke="none" fill="#000000" fill-rule="nonzero" /><path id="555" transform="matrix(1 0 0 -1 0 842)" d="M326.64 472.22L327.3 473L312.3 485.78L311.46 485.42L311.46 485.18L311.64 485" stroke="none" fill="#000000" fill-rule="nonzero" /><path id="556" transform="matrix(1 0 0 -1 0 842)" d="M311.46 485.42L312.48 485.42L312.48 506.9L311.46 506.9z" stroke="none" fill="#000000" fill-rule="nonzero" /><path id="557" transform="matrix(1 0 0 -1 0 842)" d="M480.36 505.82L557.4 505.82L557.4 516.02L480.36 516.02z" stroke="none" fill="#FFFFFF" fill-rule="nonzero" /><path id="565" transform="matrix(1 0 0 -1 0 842)" d="M386.46 401.06L387.48 401.06L387.48 401.54L386.46 401.54z" stroke="none" fill="#000000" fill-rule="nonzero" /><path id="566" transform="matrix(1 0 0 -1 0 842)" d="M386.46 374.78L387.48 374.78L387.48 401.06L386.46 401.06z" stroke="none" fill="#000000" fill-rule="nonzero" /></g></g></g></g></svg>