<svg xmlns="http://www.w3.org/2000/svg" xmlns:xlink="http://www.w3.org/1999/xlink" id="body_289" preserveAspectRatio="xMinYMin meet" viewBox="0 0 793 1123"><defs><clipPath id="1"><path id="" clip-rule="evenodd" transform="matrix(1 0 0 1 0 0)" d="M0 842L0 0L0 0L595 0L595 0L595 842L595 842L0 842z" /></clipPath><clipPath id="2"><path id="" clip-rule="evenodd" transform="matrix(1 0 0 1 0 0)" d="M216.96 264.42L549.84 264.42L549.84 264.42L549.84 442.74L549.84 442.74L216.96 442.74z" /></clipPath><clipPath id="3"><path id="" clip-rule="evenodd" transform="matrix(1 0 0 1 0 0)" d="M215.94 246L550.86 246L550.86 246L550.86 459.3L550.86 459.3L215.94 459.3z" /></clipPath><clipPath id="4"><path id="" clip-rule="evenodd" transform="matrix(1 0 0 1 0 0)" d="M0 0.02001953L595.2 0.02001953L595.2 0.02001953L595.2 842L595.2 842L0 842z" /></clipPath><clipPath id="5"><path id="" clip-rule="evenodd" transform="matrix(1 0 0 1 0 0)" d="M215.94 246L550.86 246L550.86 246L550.86 459.3L550.86 459.3L215.94 459.3z" /></clipPath><clipPath id="6"><path id="" clip-rule="evenodd" transform="matrix(1 0 0 1 0 0)" d="M0 0.02001953L595.2 0.02001953L595.2 0.02001953L595.2 842L595.2 842L0 842z" /></clipPath><clipPath id="7"><path id="" clip-rule="evenodd" transform="matrix(1 0 0 1 0 0)" d="M216.96 587.22L342.48 587.22L342.48 587.22L342.48 734.76L342.48 734.76L216.96 734.76z" /></clipPath><clipPath id="8"><path id="" clip-rule="evenodd" transform="matrix(1 0 0 1 0 0)" d="M215.94 586.26L475.86 586.26L475.86 586.26L475.86 735.78L475.86 735.78L215.94 735.78z" /></clipPath><clipPath id="9"><path id="" clip-rule="evenodd" transform="matrix(1 0 0 1 0 0)" d="M0 0.02001953L595.2 0.02001953L595.2 0.02001953L595.2 842L595.2 842L0 842z" /></clipPath><clipPath id="10"><path id="" clip-rule="evenodd" transform="matrix(1 0 0 1 0 0)" d="M394.5 625.74L474.9 625.74L474.9 625.74L474.9 696.78L474.9 696.78L394.5 696.78z" /></clipPath><clipPath id="11"><path id="" clip-rule="evenodd" transform="matrix(1 0 0 1 0 0)" d="M215.94 586.26L475.86 586.26L475.86 586.26L475.86 735.78L475.86 735.78L215.94 735.78z" /></clipPath><clipPath id="12"><path id="" clip-rule="evenodd" transform="matrix(1 0 0 1 0 0)" d="M0 0.02001953L595.2 0.02001953L595.2 0.02001953L595.2 842L595.2 842L0 842z" /></clipPath><clipPath id="13"><path id="" clip-rule="evenodd" transform="matrix(1 0 0 1 0 0)" d="M215.94 586.26L475.86 586.26L475.86 586.26L475.86 735.78L475.86 735.78L215.94 735.78z" /></clipPath><clipPath id="14"><path id="" clip-rule="evenodd" transform="matrix(1 0 0 1 0 0)" d="M0 0.02001953L595.2 0.02001953L595.2 0.02001953L595.2 842L595.2 842L0 842z" /></clipPath></defs><g transform="matrix(1.333333 0 0 1.333333 0 0)"><g clip-path="url(#1)"><g clip-path="url(#2)"><g clip-path="url(#3)"><g clip-path="url(#4)"><g transform="matrix(0.4796542 0 0 0.4793549 216.96 264.42)"><g transform="matrix(1 0 0 1 0 0)"><image x="0" y="0" xlink:href="img_887.png" width="694" height="372" /></g></g></g></g></g><g clip-path="url(#5)"><g clip-path="url(#6)"><path id="466" transform="matrix(1 0 0 -1 0 842)" d="M447.36 383.72L508.2 383.72L508.2 393.14L447.36 393.14z" stroke="none" fill="#FFFFFF" fill-rule="nonzero" /><path id="472" transform="matrix(1 0 0 -1 0 842)" d="M309.72 583.76L366.72 583.76L366.72 595.04L309.72 595.04z" stroke="none" fill="#FFFFFF" fill-rule="nonzero" /><path id="478" transform="matrix(1 0 0 -1 0 842)" d="M348.06 393.14L427.26 393.14L427.26 383.72L348.06 383.72" stroke="none" fill="#FFFFFF" fill-rule="nonzero" /><path id="484" transform="matrix(1 0 0 -1 0 842)" d="M370.2 395.18L370.5 394.76L371.34 395.36L371.04 395.78" stroke="none" fill="#000000" fill-rule="nonzero" /><path id="485" transform="matrix(1 0 0 -1 0 842)" d="M310.32 480.32L310.02 480.74L310.86 481.34L311.16 480.92" stroke="none" fill="#000000" fill-rule="nonzero" /><path id="486" transform="matrix(1 0 0 -1 0 842)" d="M370.2 395.18L371.04 395.78L311.16 480.92L310.32 480.32" stroke="none" fill="#000000" fill-rule="nonzero" /><path id="487" transform="matrix(1 0 0 -1 0 842)" d="M382.68 396.32L382.44 395.9L383.34 395.36L383.58 395.78" stroke="none" fill="#000000" fill-rule="nonzero" /><path id="488" transform="matrix(1 0 0 -1 0 842)" d="M442.98 499.46L443.22 499.88L444.12 499.34L443.88 498.92" stroke="none" fill="#000000" fill-rule="nonzero" /><path id="489" transform="matrix(1 0 0 -1 0 842)" d="M382.68 396.32L383.58 395.78L443.88 498.92L442.98 499.46" stroke="none" fill="#000000" fill-rule="nonzero" /><path id="490" transform="matrix(1 0 0 -1 0 842)" d="M366.42 590.78L365.94 590.84L365.76 589.82L366.24 589.76" stroke="none" fill="#000000" fill-rule="nonzero" /><path id="491" transform="matrix(1 0 0 -1 0 842)" d="M490.92 569.3L491.4 569.24L491.22 568.22L490.74 568.28" stroke="none" fill="#000000" fill-rule="nonzero" /><path id="492" transform="matrix(1 0 0 -1 0 842)" d="M366.42 590.78L366.24 589.76L490.74 568.28L490.92 569.3" stroke="none" fill="#000000" fill-rule="nonzero" /><path id="493" transform="matrix(1 0 0 -1 0 842)" d="M339.6 585.68L339.96 585.98L339.36 586.76L339 586.46" stroke="none" fill="#000000" fill-rule="nonzero" /><path id="494" transform="matrix(1 0 0 -1 0 842)" d="M282.84 542L282.48 541.7L281.88 542.48L282.24 542.78" stroke="none" fill="#000000" fill-rule="nonzero" /><path id="495" transform="matrix(1 0 0 -1 0 842)" d="M339.6 585.68L339 586.46L282.24 542.78L282.84 542" stroke="none" fill="#000000" fill-rule="nonzero" /><path id="496" transform="matrix(1 0 0 -1 0 842)" d="M473.04 393.56L474.06 393.56L474.06 416.12L473.04 416.12z" stroke="none" fill="#000000" fill-rule="nonzero" /><path id="497" transform="matrix(1 0 0 -1 0 842)" d="M253.02 383.72L323.28 383.72L323.28 393.14L253.02 393.14z" stroke="none" fill="#FFFFFF" fill-rule="nonzero" /><path id="503" transform="matrix(1 0 0 -1 0 842)" d="M281.04 393.56L282.06 393.56L282.06 394.04L281.04 394.04z" stroke="none" fill="#000000" fill-rule="nonzero" /><path id="504" transform="matrix(1 0 0 -1 0 842)" d="M281.04 394.04L282.06 394.04L282.06 430.1L281.04 430.1z" stroke="none" fill="#000000" fill-rule="nonzero" /></g></g><g clip-path="url(#7)"><g clip-path="url(#8)"><g clip-path="url(#9)"><g transform="matrix(0.479084 0 0 0.479026 216.96 587.22)"><g transform="matrix(1 0 0 1 0 0)"><image x="0" y="0" xlink:href="img_888.png" width="262" height="308" /></g></g></g></g></g><g clip-path="url(#10)"><g clip-path="url(#11)"><g clip-path="url(#12)"><g transform="matrix(0.4785714 0 0 0.48 394.5 625.74)"><g transform="matrix(1 0 0 1 0 0)"><image x="0" y="0" xlink:href="img_889.png" width="168" height="148" /></g></g></g></g></g><g clip-path="url(#13)"><g clip-path="url(#14)"><path id="507" transform="matrix(1 0 0 -1 0 842)" d="M344.7 221.36L402.48 221.36L402.48 231.86L344.7 231.86z" stroke="none" fill="#FFFFFF" fill-rule="nonzero" /><path id="512" transform="matrix(1 0 0 -1 0 842)" d="M344.28 126.86L401.28 126.86L401.28 138.08L344.28 138.08z" stroke="none" fill="#FFFFFF" fill-rule="nonzero" /><path id="517" transform="matrix(1 0 0 -1 0 842)" d="M356.4 219.68L356.88 219.8L356.58 220.76L356.1 220.64" stroke="none" fill="#000000" fill-rule="nonzero" /><path id="518" transform="matrix(1 0 0 -1 0 842)" d="M323.76 209.96L323.28 209.84L322.98 210.8L323.46 210.92" stroke="none" fill="#000000" fill-rule="nonzero" /><path id="519" transform="matrix(1 0 0 -1 0 842)" d="M356.4 219.68L356.1 220.64L323.46 210.92L323.76 209.96" stroke="none" fill="#000000" fill-rule="nonzero" /><path id="520" transform="matrix(1 0 0 -1 0 842)" d="M374.94 220.88L374.58 221.18L373.92 220.4L374.28 220.1" stroke="none" fill="#000000" fill-rule="nonzero" /><path id="521" transform="matrix(1 0 0 -1 0 842)" d="M399.9 198.02L400.26 197.72L399.6 196.94L399.24 197.24" stroke="none" fill="#000000" fill-rule="nonzero" /><path id="522" transform="matrix(1 0 0 -1 0 842)" d="M374.94 220.88L374.28 220.1L399.24 197.24L399.9 198.02" stroke="none" fill="#000000" fill-rule="nonzero" /><path id="523" transform="matrix(1 0 0 -1 0 842)" d="M383.94 141.32L383.64 140.9L384.48 140.3L384.78 140.72" stroke="none" fill="#000000" fill-rule="nonzero" /><path id="524" transform="matrix(1 0 0 -1 0 842)" d="M401.52 165.32L401.82 165.74L402.66 165.14L402.36 164.72" stroke="none" fill="#000000" fill-rule="nonzero" /><path id="525" transform="matrix(1 0 0 -1 0 842)" d="M383.94 141.32L384.78 140.72L402.36 164.72L401.52 165.32" stroke="none" fill="#000000" fill-rule="nonzero" /><path id="526" transform="matrix(1 0 0 -1 0 842)" d="M355.62 140.96L356.04 140.72L356.52 141.62L356.1 141.86" stroke="none" fill="#000000" fill-rule="nonzero" /><path id="527" transform="matrix(1 0 0 -1 0 842)" d="M321.84 159.68L321.42 159.92L321.9 160.82L322.32 160.58" stroke="none" fill="#000000" fill-rule="nonzero" /><path id="528" transform="matrix(1 0 0 -1 0 842)" d="M355.62 140.96L356.1 141.86L322.32 160.58L321.84 159.68" stroke="none" fill="#000000" fill-rule="nonzero" /></g></g></g></g></svg>