<svg xmlns="http://www.w3.org/2000/svg" xmlns:xlink="http://www.w3.org/1999/xlink" id="body_126" preserveAspectRatio="xMinYMin meet" viewBox="0 0 793 1123"><defs><clipPath id="1"><path id="" clip-rule="evenodd" transform="matrix(1 0 0 1 0 0)" d="M0 842L0 0L0 0L595 0L595 0L595 842L595 842L0 842z" /></clipPath><clipPath id="2"><path id="" clip-rule="evenodd" transform="matrix(1 0 0 1 0 0)" d="M225.96 213L490.56 213L490.56 213L490.56 456.36L490.56 456.36L225.96 456.36z" /></clipPath><clipPath id="3"><path id="" clip-rule="evenodd" transform="matrix(1 0 0 1 0 0)" d="M224.94 211.98L491.58 211.98L491.58 211.98L491.58 457.32L491.58 457.32L224.94 457.32z" /></clipPath><clipPath id="4"><path id="" clip-rule="evenodd" transform="matrix(1 0 0 1 0 0)" d="M0 0.02001953L595.2 0.02001953L595.2 0.02001953L595.2 842L595.2 842L0 842z" /></clipPath><clipPath id="5"><path id="" clip-rule="evenodd" transform="matrix(1 0 0 1 0 0)" d="M224.94 211.98L491.58 211.98L491.58 211.98L491.58 457.32L491.58 457.32L224.94 457.32z" /></clipPath><clipPath id="6"><path id="" clip-rule="evenodd" transform="matrix(1 0 0 1 0 0)" d="M0 0.02001953L595.2 0.02001953L595.2 0.02001953L595.2 842L595.2 842L0 842z" /></clipPath><clipPath id="7"><path id="" clip-rule="evenodd" transform="matrix(1 0 0 1 0 0)" d="M225.96 642.3L500.76 642.3L500.76 642.3L500.76 718.62L500.76 718.62L225.96 718.62z" /></clipPath><clipPath id="8"><path id="" clip-rule="evenodd" transform="matrix(1 0 0 1 0 0)" d="M224.94 641.28L547.2 641.28L547.2 641.28L547.2 738.9L547.2 738.9L224.94 738.9z" /></clipPath><clipPath id="9"><path id="" clip-rule="evenodd" transform="matrix(1 0 0 1 0 0)" d="M0 0.02001953L595.2 0.02001953L595.2 0.02001953L595.2 842L595.2 842L0 842z" /></clipPath><clipPath id="10"><path id="" clip-rule="evenodd" transform="matrix(1 0 0 1 0 0)" d="M224.94 641.28L547.2 641.28L547.2 641.28L547.2 738.9L547.2 738.9L224.94 738.9z" /></clipPath><clipPath id="11"><path id="" clip-rule="evenodd" transform="matrix(1 0 0 1 0 0)" d="M0 0.02001953L595.2 0.02001953L595.2 0.02001953L595.2 842L595.2 842L0 842z" /></clipPath></defs><g transform="matrix(1.333333 0 0 1.333333 0 0)"><g clip-path="url(#1)"><g clip-path="url(#2)"><g clip-path="url(#3)"><g clip-path="url(#4)"><g transform="matrix(0.4316477 0 0 0.4314893 225.96 213)"><g transform="matrix(1 0 0 1 0 0)"><image x="0" y="0" xlink:href="img_20.png" width="613" height="564" /></g></g></g></g></g><g clip-path="url(#5)"><g clip-path="url(#6)"><path id="446" transform="matrix(1 0 0 -1 0 842)" d="M267.42 582.98L308.16 582.98L308.16 584L267.42 584z" stroke="none" fill="#FF0000" fill-rule="nonzero" /><path id="447" transform="matrix(1 0 0 -1 0 842)" d="M307.14 564.98L308.16 564.98L308.16 583.52L307.14 583.52z" stroke="none" fill="#FF0000" fill-rule="nonzero" /><path id="448" transform="matrix(1 0 0 -1 0 842)" d="M266.94 564.98L307.62 564.98L307.62 566L266.94 566z" stroke="none" fill="#FF0000" fill-rule="nonzero" /><path id="449" transform="matrix(1 0 0 -1 0 842)" d="M266.94 565.52L267.96 565.52L267.96 584L266.94 584z" stroke="none" fill="#FF0000" fill-rule="nonzero" /><path id="450" transform="matrix(1 0 0 -1 0 842)" d="M347.22 573.38L347.94 573.38L347.94 574.88L347.22 574.88z" stroke="none" fill="#FF0000" fill-rule="nonzero" /><path id="451" transform="matrix(1 0 0 -1 0 842)" d="M310.5 573.38L347.22 573.38L347.22 574.88L310.5 574.88z" stroke="none" fill="#FF0000" fill-rule="nonzero" /><path id="452" transform="matrix(1 0 0 -1 0 842)" d="M351.6 565.94L438 565.94L438 577.94L351.6 577.94z" stroke="none" fill="#FFFFFF" fill-rule="nonzero" /></g></g><g clip-path="url(#7)"><g clip-path="url(#8)"><g clip-path="url(#9)"><g transform="matrix(0.4795811 0 0 0.48 225.96 642.3)"><g transform="matrix(1 0 0 1 0 0)"><image x="0" y="0" xlink:href="img_358.png" width="573" height="159" /></g></g></g></g></g><g clip-path="url(#10)"><g clip-path="url(#11)"><path id="461" transform="matrix(1 0 0 -1 0 842)" d="M284.28 117.98L284.22 117.5L285.24 117.32L285.3 117.8" stroke="none" fill="#000000" fill-rule="nonzero" /><path id="462" transform="matrix(1 0 0 -1 0 842)" d="M291.42 156.98L291.48 157.46L292.5 157.28L292.44 156.8" stroke="none" fill="#000000" fill-rule="nonzero" /><path id="463" transform="matrix(1 0 0 -1 0 842)" d="M284.28 117.98L285.3 117.8L292.44 156.8L291.42 156.98" stroke="none" fill="#000000" fill-rule="nonzero" /><path id="464" transform="matrix(1 0 0 -1 0 842)" d="M456.72 117.56L457.02 117.2L457.8 117.86L457.5 118.22" stroke="none" fill="#000000" fill-rule="nonzero" /><path id="465" transform="matrix(1 0 0 -1 0 842)" d="M425.46 155.6L425.16 155.96L425.94 156.62L426.24 156.26" stroke="none" fill="#000000" fill-rule="nonzero" /><path id="466" transform="matrix(1 0 0 -1 0 842)" d="M456.72 117.56L457.5 118.22L426.24 156.26L425.46 155.6" stroke="none" fill="#000000" fill-rule="nonzero" /><path id="467" transform="matrix(1 0 0 -1 0 842)" d="M358.38 117.8L359.4 117.8L359.4 118.28L358.38 118.28z" stroke="none" fill="#000000" fill-rule="nonzero" /><path id="468" transform="matrix(1 0 0 -1 0 842)" d="M358.14 150.92L359.16 150.92L359.16 151.4L358.14 151.4z" stroke="none" fill="#000000" fill-rule="nonzero" /><path id="469" transform="matrix(1 0 0 -1 0 842)" d="M358.38 118.28L359.4 118.28L359.16 150.92L358.14 150.92" stroke="none" fill="#000000" fill-rule="nonzero" /></g></g></g></g></svg>