<svg xmlns="http://www.w3.org/2000/svg" xmlns:xlink="http://www.w3.org/1999/xlink" id="body_134" preserveAspectRatio="xMinYMin meet" viewBox="0 0 793 1123"><defs><clipPath id="1"><path id="" clip-rule="evenodd" transform="matrix(1 0 0 1 0 0)" d="M0 842L0 0L0 0L595 0L595 0L595 842L595 842L0 842z" /></clipPath><clipPath id="2"><path id="" clip-rule="evenodd" transform="matrix(1 0 0 1 0 0)" d="M225.96 77.03998L554.16 77.03998L554.16 77.03998L554.16 207.06L554.16 207.06L225.96 207.06z" /></clipPath><clipPath id="3"><path id="" clip-rule="evenodd" transform="matrix(1 0 0 1 0 0)" d="M224.94 76.02002L555.18 76.02002L555.18 76.02002L555.18 208.08L555.18 208.08L224.94 208.08z" /></clipPath><clipPath id="4"><path id="" clip-rule="evenodd" transform="matrix(1 0 0 1 0 0)" d="M0 0.02001953L595.2 0.02001953L595.2 0.02001953L595.2 842L595.2 842L0 842z" /></clipPath><clipPath id="5"><path id="" clip-rule="evenodd" transform="matrix(1 0 0 1 0 0)" d="M224.94 76.02002L555.18 76.02002L555.18 76.02002L555.18 208.08L555.18 208.08L224.94 208.08z" /></clipPath><clipPath id="6"><path id="" clip-rule="evenodd" transform="matrix(1 0 0 1 0 0)" d="M0 0.02001953L595.2 0.02001953L595.2 0.02001953L595.2 842L595.2 842L0 842z" /></clipPath><clipPath id="7"><path id="" clip-rule="evenodd" transform="matrix(1 0 0 1 0 0)" d="M225.96 294.06L380.76 294.06L380.76 294.06L380.76 472.26L380.76 472.26L225.96 472.26z" /></clipPath><clipPath id="8"><path id="" clip-rule="evenodd" transform="matrix(1 0 0 1 0 0)" d="M224.94 293.1L491.16 293.1L491.16 293.1L491.16 473.28L491.16 473.28L224.94 473.28z" /></clipPath><clipPath id="9"><path id="" clip-rule="evenodd" transform="matrix(1 0 0 1 0 0)" d="M0 0.02001953L595.2 0.02001953L595.2 0.02001953L595.2 842L595.2 842L0 842z" /></clipPath><clipPath id="10"><path id="" clip-rule="evenodd" transform="matrix(1 0 0 1 0 0)" d="M224.94 293.1L491.16 293.1L491.16 293.1L491.16 473.28L491.16 473.28L224.94 473.28z" /></clipPath><clipPath id="11"><path id="" clip-rule="evenodd" transform="matrix(1 0 0 1 0 0)" d="M0 0.02001953L595.2 0.02001953L595.2 0.02001953L595.2 842L595.2 842L0 842z" /></clipPath><clipPath id="12"><path id="" clip-rule="evenodd" transform="matrix(1 0 0 1 0 0)" d="M225.96 583.26L374.82 583.26L374.82 583.26L374.82 662.04L374.82 662.04L225.96 662.04z" /></clipPath><clipPath id="13"><path id="" clip-rule="evenodd" transform="matrix(1 0 0 1 0 0)" d="M224.94 582.24L540.18 582.24L540.18 582.24L540.18 663.06L540.18 663.06L224.94 663.06z" /></clipPath><clipPath id="14"><path id="" clip-rule="evenodd" transform="matrix(1 0 0 1 0 0)" d="M0 0.02001953L595.2 0.02001953L595.2 0.02001953L595.2 842L595.2 842L0 842z" /></clipPath><clipPath id="15"><path id="" clip-rule="evenodd" transform="matrix(1 0 0 1 0 0)" d="M224.94 582.24L540.18 582.24L540.18 582.24L540.18 663.06L540.18 663.06L224.94 663.06z" /></clipPath><clipPath id="16"><path id="" clip-rule="evenodd" transform="matrix(1 0 0 1 0 0)" d="M0 0.02001953L595.2 0.02001953L595.2 0.02001953L595.2 842L595.2 842L0 842z" /></clipPath></defs><g transform="matrix(1.333333 0 0 1.333333 0 0)"><g clip-path="url(#1)"><g clip-path="url(#2)"><g clip-path="url(#3)"><g clip-path="url(#4)"><g transform="matrix(0.48 0 0 0.4797786 225.96 77.03998)"><g transform="matrix(1 0 0 1 0 0)"><image x="0" y="0" xlink:href="img_379.png" width="684" height="271" /></g></g></g></g></g><g clip-path="url(#5)"><g clip-path="url(#6)"><path id="201" transform="matrix(1 0 0 -1 0 842)" d="M310.86 690.2L355.86 690.2L355.86 691.22L310.86 691.22z" stroke="none" fill="#FF1721" fill-rule="nonzero" /><path id="202" transform="matrix(1 0 0 -1 0 842)" d="M354.84 663.44L355.86 663.44L355.86 690.74L354.84 690.74z" stroke="none" fill="#FF1721" fill-rule="nonzero" /><path id="203" transform="matrix(1 0 0 -1 0 842)" d="M310.38 663.44L355.32 663.44L355.32 664.46L310.38 664.46z" stroke="none" fill="#FF1721" fill-rule="nonzero" /><path id="204" transform="matrix(1 0 0 -1 0 842)" d="M310.38 663.98L311.4 663.98L311.4 691.22L310.38 691.22z" stroke="none" fill="#FF1721" fill-rule="nonzero" /></g></g><g clip-path="url(#7)"><g clip-path="url(#8)"><g clip-path="url(#9)"><g transform="matrix(0.479257 0 0 0.4790322 225.96 294.06)"><g transform="matrix(1 0 0 1 0 0)"><image x="0" y="0" xlink:href="img_380.png" width="323" height="372" /></g></g></g></g></g><g clip-path="url(#10)"><g clip-path="url(#11)"><path id="206" transform="matrix(1 0 0 -1 0 842)" d="M390.84 512.42L391.32 512.42L391.32 513.44L390.84 513.44z" stroke="none" fill="#000000" fill-rule="nonzero" /><path id="207" transform="matrix(1 0 0 -1 0 842)" d="M354.96 512.42L390.84 512.42L390.84 513.44L354.96 513.44z" stroke="none" fill="#000000" fill-rule="nonzero" /><path id="208" transform="matrix(1 0 0 -1 0 842)" d="M390.84 495.2L391.32 495.2L391.32 496.22L390.84 496.22z" stroke="none" fill="#000000" fill-rule="nonzero" /><path id="209" transform="matrix(1 0 0 -1 0 842)" d="M354.36 495.2L390.84 495.2L390.84 496.22L354.36 496.22z" stroke="none" fill="#000000" fill-rule="nonzero" /><path id="210" transform="matrix(1 0 0 -1 0 842)" d="M390.06 401.54L392.04 401.54L391.98 405.56L390 405.56" stroke="none" fill="#FFFFFF" fill-rule="nonzero" /><path id="211" transform="matrix(1 0 0 -1 0 842)" d="M338.22 400.94L336.24 400.94L336.18 404.96L338.16 404.96" stroke="none" fill="#FFFFFF" fill-rule="nonzero" /><path id="212" transform="matrix(1 0 0 -1 0 842)" d="M390.06 401.54L390 405.56L338.16 404.96L338.22 400.94" stroke="none" fill="#FFFFFF" fill-rule="nonzero" /><path id="213" transform="matrix(1 0 0 -1 0 842)" d="M390.84 402.56L391.32 402.56L391.32 403.58L390.84 403.58z" stroke="none" fill="#000000" fill-rule="nonzero" /><path id="214" transform="matrix(1 0 0 -1 0 842)" d="M338.46 401.96L338.94 401.96L338.94 402.98L338.46 402.98z" stroke="none" fill="#000000" fill-rule="nonzero" /><path id="215" transform="matrix(1 0 0 -1 0 842)" d="M390.84 402.56L390.84 403.58L338.94 402.98L338.94 401.96" stroke="none" fill="#000000" fill-rule="nonzero" /></g></g><g clip-path="url(#12)"><g clip-path="url(#13)"><g clip-path="url(#14)"><g transform="matrix(0.4801936 0 0 0.4774545 225.96 583.26)"><g transform="matrix(1 0 0 1 0 0)"><image x="0" y="0" xlink:href="img_381.png" width="310" height="165" /></g></g></g></g></g><g clip-path="url(#15)"><g clip-path="url(#16)"><path id="230" transform="matrix(1 0 0 -1 0 842)" d="M380.46 248.06L380.94 248.06L380.94 249.08L380.46 249.08z" stroke="none" fill="#000000" fill-rule="nonzero" /><path id="231" transform="matrix(1 0 0 -1 0 842)" d="M282.48 248.06L380.46 248.06L380.46 249.08L282.48 249.08z" stroke="none" fill="#000000" fill-rule="nonzero" /><path id="232" transform="matrix(1 0 0 -1 0 842)" d="M382.44 219.02L382.92 219.02L382.92 220.04L382.44 220.04z" stroke="none" fill="#000000" fill-rule="nonzero" /><path id="233" transform="matrix(1 0 0 -1 0 842)" d="M352.62 219.02L382.44 219.02L382.44 220.04L352.62 220.04z" stroke="none" fill="#000000" fill-rule="nonzero" /></g></g></g></g></svg>