<svg xmlns="http://www.w3.org/2000/svg" xmlns:xlink="http://www.w3.org/1999/xlink" id="body_165" preserveAspectRatio="xMinYMin meet" viewBox="0 0 793 1123"><defs><clipPath id="1"><path id="" clip-rule="evenodd" transform="matrix(1 0 0 1 0 0)" d="M0 842L0 0L0 0L595 0L595 0L595 842L595 842L0 842z" /></clipPath><clipPath id="2"><path id="" clip-rule="evenodd" transform="matrix(1 0 0 1 0 0)" d="M294.84 435.9L361.8 435.9L361.8 435.9L361.8 580.14L361.8 580.14L294.84 580.14z" /></clipPath><clipPath id="3"><path id="" clip-rule="evenodd" transform="matrix(1 0 0 1 0 0)" d="M224.94 434.94L470.94 434.94L470.94 434.94L470.94 582.84L470.94 582.84L224.94 582.84z" /></clipPath><clipPath id="4"><path id="" clip-rule="evenodd" transform="matrix(1 0 0 1 0 0)" d="M0 0.02001953L595.2 0.02001953L595.2 0.02001953L595.2 842L595.2 842L0 842z" /></clipPath><clipPath id="5"><path id="" clip-rule="evenodd" transform="matrix(1 0 0 1 0 0)" d="M224.94 434.94L470.94 434.94L470.94 434.94L470.94 582.84L470.94 582.84L224.94 582.84z" /></clipPath><clipPath id="6"><path id="" clip-rule="evenodd" transform="matrix(1 0 0 1 0 0)" d="M0 0.02001953L595.2 0.02001953L595.2 0.02001953L595.2 842L595.2 842L0 842z" /></clipPath><clipPath id="7"><path id="" clip-rule="evenodd" transform="matrix(1 0 0 1 0 0)" d="M407.58 439.02L469.98 439.02L469.98 439.02L469.98 581.82L469.98 581.82L407.58 581.82z" /></clipPath><clipPath id="8"><path id="" clip-rule="evenodd" transform="matrix(1 0 0 1 0 0)" d="M224.94 434.94L470.94 434.94L470.94 434.94L470.94 582.84L470.94 582.84L224.94 582.84z" /></clipPath><clipPath id="9"><path id="" clip-rule="evenodd" transform="matrix(1 0 0 1 0 0)" d="M0 0.02001953L595.2 0.02001953L595.2 0.02001953L595.2 842L595.2 842L0 842z" /></clipPath><clipPath id="10"><path id="" clip-rule="evenodd" transform="matrix(1 0 0 1 0 0)" d="M224.94 434.94L470.94 434.94L470.94 434.94L470.94 582.84L470.94 582.84L224.94 582.84z" /></clipPath><clipPath id="11"><path id="" clip-rule="evenodd" transform="matrix(1 0 0 1 0 0)" d="M0 0.02001953L595.2 0.02001953L595.2 0.02001953L595.2 842L595.2 842L0 842z" /></clipPath></defs><g transform="matrix(1.333333 0 0 1.333333 0 0)"><g clip-path="url(#1)"><path id="523" transform="matrix(1 0 0 -1 0 842)" d="M224.94 652.04L558 652.04L558 632L224.94 632" stroke="none" fill="#ECF5FC" fill-rule="nonzero" /><g clip-path="url(#2)"><g clip-path="url(#3)"><g clip-path="url(#4)"><g transform="matrix(0.4782857 0 0 0.4792027 294.84 435.9)"><g transform="matrix(1 0 0 1 0 0)"><image x="0" y="0" xlink:href="img_207.png" width="140" height="301" /></g></g></g></g></g><g clip-path="url(#5)"><g clip-path="url(#6)"><path id="559" transform="matrix(1 0 0 -1 0 842)" d="M284.7 349.28L284.22 349.22L284.4 348.2L284.88 348.26" stroke="none" fill="#000000" fill-rule="nonzero" /><path id="560" transform="matrix(1 0 0 -1 0 842)" d="M325.68 356.48L326.16 356.54L326.34 355.52L325.86 355.46" stroke="none" fill="#000000" fill-rule="nonzero" /><path id="561" transform="matrix(1 0 0 -1 0 842)" d="M284.7 349.28L284.88 348.26L325.86 355.46L325.68 356.48" stroke="none" fill="#000000" fill-rule="nonzero" /><path id="562" transform="matrix(1 0 0 -1 0 842)" d="M285.9 387.08L285.42 387.02L285.54 386L286.02 386.06" stroke="none" fill="#000000" fill-rule="nonzero" /><path id="563" transform="matrix(1 0 0 -1 0 842)" d="M310.08 389.48L310.56 389.54L310.68 388.52L310.2 388.46" stroke="none" fill="#000000" fill-rule="nonzero" /><path id="564" transform="matrix(1 0 0 -1 0 842)" d="M285.9 387.08L286.02 386.06L310.2 388.46L310.08 389.48" stroke="none" fill="#000000" fill-rule="nonzero" /></g></g><g clip-path="url(#7)"><g clip-path="url(#8)"><g clip-path="url(#9)"><g transform="matrix(0.48 0 0 0.4791946 407.58 439.02)"><g transform="matrix(1 0 0 1 0 0)"><image x="0" y="0" xlink:href="img_208.png" width="130" height="298" /></g></g></g></g></g><g clip-path="url(#10)"><g clip-path="url(#11)"><path id="576" transform="matrix(1 0 0 -1 0 842)" d="M383.88 333.2L383.88 333.5L383.88 333.5L383.82 333.62L383.82 333.62L383.76 333.8L383.76 333.8L383.64 334.04L383.64 334.04L383.52 334.16L383.52 334.16L383.46 334.28L383.46 334.28L383.34 334.34L383.34 334.34L383.22 334.46L383.22 334.46L382.98 334.58L382.98 334.58L382.8 334.64L382.8 334.64L382.68 334.64L382.68 334.64L382.56 334.7L382.56 334.7L382.2 334.7L382.2 334.7L382.08 334.64L382.08 334.64L381.96 334.64L381.96 334.64L381.78 334.58L381.78 334.58L381.54 334.46L381.54 334.46L381.42 334.34L381.42 334.34L381.3 334.28L381.3 334.28L381.24 334.16L381.24 334.16L381.12 334.04L381.12 334.04L381.06 333.92L381.06 333.92L381 333.8L381 333.8L380.94 333.62L380.94 333.62L380.94 333.5L380.94 333.5L380.88 333.32L380.88 333.32L380.88 333.02L380.88 333.02L380.94 332.9L380.94 332.9L380.94 332.72L380.94 332.72L381 332.6L381 332.6L381.06 332.48L381.06 332.48L381.12 332.36L381.12 332.36L381.24 332.24L381.24 332.24L381.3 332.12L381.3 332.12L381.42 332.06L381.42 332.06L381.54 331.94L381.54 331.94L381.78 331.82L381.78 331.82L381.96 331.76L381.96 331.76L382.08 331.7L382.08 331.7L382.68 331.7L382.68 331.7L382.8 331.76L382.8 331.76L382.98 331.82L382.98 331.82L383.22 331.94L383.22 331.94L383.34 332.06L383.34 332.06L383.46 332.12L383.46 332.12L383.52 332.24L383.52 332.24L383.64 332.36L383.64 332.36L383.82 332.72L383.82 332.72L383.88 332.9L383.88 332.9L383.88 333.2" stroke="none" fill="#000000" fill-rule="evenodd" /><path id="577" transform="matrix(1 0 0 -1 0 842)" d="M382.38 333.2L382.38 338.96L383.04 338.78L402.6 333.2L400.92 332.72L383.04 327.56L382.38 327.38L382.38 328.04L382.74 328.52L400.62 333.68L400.92 332.72L400.62 332.72L382.74 337.82L383.04 338.78L383.4 338.3L383.4 333.2" stroke="none" fill="#000000" fill-rule="nonzero" /><path id="578" transform="matrix(1 0 0 -1 0 842)" d="M382.38 328.04L383.4 328.04L383.4 333.2L382.38 333.2z" stroke="none" fill="#000000" fill-rule="nonzero" /><path id="579" transform="matrix(1 0 0 -1 0 842)" d="M382.86 333.2L382.86 338.3L382.86 338.3L400.74 333.2L400.74 333.2L382.86 328.04" stroke="none" fill="#000000" fill-rule="evenodd" /><path id="580" transform="matrix(1 0 0 -1 0 842)" d="M365.04 331.7L366.54 331.7L366.54 334.7L365.04 334.7z" stroke="none" fill="#000000" fill-rule="nonzero" /><path id="581" transform="matrix(1 0 0 -1 0 842)" d="M366.54 331.7L383.88 331.7L383.88 334.7L366.54 334.7z" stroke="none" fill="#000000" fill-rule="nonzero" /></g></g></g></g></svg>