<svg xmlns="http://www.w3.org/2000/svg" xmlns:xlink="http://www.w3.org/1999/xlink" id="body_70" preserveAspectRatio="xMinYMin meet" viewBox="0 0 793 1123"><defs><clipPath id="1"><path id="" clip-rule="evenodd" transform="matrix(1 0 0 1 0 0)" d="M0 842L0 0L0 0L595 0L595 0L595 842L595 842L0 842z" /></clipPath><clipPath id="2"><path id="" clip-rule="evenodd" transform="matrix(1 0 0 1 0 0)" d="M426.66 73.02002L556.98 73.02002L556.98 73.02002L556.98 167.58L556.98 167.58L426.66 167.58z" /></clipPath><clipPath id="3"><path id="" clip-rule="evenodd" transform="matrix(1 0 0 1 0 0)" d="M425.64 72.06L558 72.06L558 72.06L558 168.6L558 168.6L425.64 168.6z" /></clipPath><clipPath id="4"><path id="" clip-rule="evenodd" transform="matrix(1 0 0 1 0 0)" d="M0 0.02001953L595.2 0.02001953L595.2 0.02001953L595.2 842L595.2 842L0 842z" /></clipPath><clipPath id="5"><path id="" clip-rule="evenodd" transform="matrix(1 0 0 1 0 0)" d="M225.96 363.54L557.88 363.54L557.88 363.54L557.88 569.7L557.88 569.7L225.96 569.7z" /></clipPath><clipPath id="6"><path id="" clip-rule="evenodd" transform="matrix(1 0 0 1 0 0)" d="M224.94 340.92L558.9 340.92L558.9 340.92L558.9 586.56L558.9 586.56L224.94 586.56z" /></clipPath><clipPath id="7"><path id="" clip-rule="evenodd" transform="matrix(1 0 0 1 0 0)" d="M0 0.02001953L595.2 0.02001953L595.2 0.02001953L595.2 842L595.2 842L0 842z" /></clipPath><clipPath id="8"><path id="" clip-rule="evenodd" transform="matrix(1 0 0 1 0 0)" d="M224.94 340.92L558.9 340.92L558.9 340.92L558.9 586.56L558.9 586.56L224.94 586.56z" /></clipPath><clipPath id="9"><path id="" clip-rule="evenodd" transform="matrix(1 0 0 1 0 0)" d="M0 0.02001953L595.2 0.02001953L595.2 0.02001953L595.2 842L595.2 842L0 842z" /></clipPath></defs><g transform="matrix(1.333333 0 0 1.333333 0 0)"><g clip-path="url(#1)"><path id="398" transform="matrix(1 0 0 -1 0 842)" d="M224.94 662L558 662L558 628.04L224.94 628.04" stroke="none" fill="#ECF5FC" fill-rule="nonzero" /><g clip-path="url(#2)"><g clip-path="url(#3)"><g clip-path="url(#4)"><g transform="matrix(0.4791177 0 0 0.48 426.66 73.02002)"><g transform="matrix(1 0 0 1 0 0)"><image x="0" y="0" xlink:href="img_193.png" width="272" height="197" /></g></g></g></g></g><g clip-path="url(#5)"><g clip-path="url(#6)"><g clip-path="url(#7)"><g transform="matrix(0.4796532 0 0 0.4794419 225.96 363.54)"><g transform="matrix(1 0 0 1 0 0)"><image x="0" y="0" xlink:href="img_194.png" width="692" height="430" /></g></g></g></g></g><g clip-path="url(#8)"><g clip-path="url(#9)"><path id="475" transform="matrix(1 0 0 -1 0 842)" d="M316.26 490.64L317.28 490.64L317.28 491.12L316.26 491.12z" stroke="none" fill="#000000" fill-rule="nonzero" /><path id="476" transform="matrix(1 0 0 -1 0 842)" d="M316.26 464.78L317.28 464.78L317.28 490.64L316.26 490.64z" stroke="none" fill="#000000" fill-rule="nonzero" /><path id="493" transform="matrix(1 0 0 -1 0 842)" d="M350.52 265.76L350.76 265.34L351.6 265.88L351.36 266.3" stroke="none" fill="#000000" fill-rule="nonzero" /><path id="494" transform="matrix(1 0 0 -1 0 842)" d="M320.52 314.36L320.28 314.78L321.12 315.32L321.36 314.9" stroke="none" fill="#000000" fill-rule="nonzero" /><path id="495" transform="matrix(1 0 0 -1 0 842)" d="M350.52 265.76L351.36 266.3L321.36 314.9L320.52 314.36" stroke="none" fill="#000000" fill-rule="nonzero" /><path id="503" transform="matrix(1 0 0 -1 0 842)" d="M361.86 266.84L361.68 266.36L362.64 265.94L362.82 266.42" stroke="none" fill="#000000" fill-rule="nonzero" /><path id="504" transform="matrix(1 0 0 -1 0 842)" d="M382.86 316.22L383.04 316.7L384 316.28L383.82 315.8" stroke="none" fill="#000000" fill-rule="nonzero" /><path id="505" transform="matrix(1 0 0 -1 0 842)" d="M361.86 266.84L362.82 266.42L383.82 315.8L382.86 316.22" stroke="none" fill="#000000" fill-rule="nonzero" /><path id="506" transform="matrix(1 0 0 -1 0 842)" d="M516.06 266.78L517.08 266.78L517.08 267.26L516.06 267.26z" stroke="none" fill="#000000" fill-rule="nonzero" /><path id="507" transform="matrix(1 0 0 -1 0 842)" d="M516.06 267.26L517.08 267.26L517.08 321.32L516.06 321.32z" stroke="none" fill="#000000" fill-rule="nonzero" /><path id="508" transform="matrix(1 0 0 -1 0 842)" d="M455.52 266.36L456.54 266.36L456.54 266.84L455.52 266.84z" stroke="none" fill="#000000" fill-rule="nonzero" /><path id="509" transform="matrix(1 0 0 -1 0 842)" d="M455.52 266.84L456.54 266.84L456.54 321.92L455.52 321.92z" stroke="none" fill="#000000" fill-rule="nonzero" /></g></g></g></g></svg>