<svg xmlns="http://www.w3.org/2000/svg" xmlns:xlink="http://www.w3.org/1999/xlink" id="body_205" preserveAspectRatio="xMinYMin meet" viewBox="0 0 793 1123"><defs><clipPath id="1"><path id="" clip-rule="evenodd" transform="matrix(1 0 0 1 0 0)" d="M0 842L0 0L0 0L595 0L595 0L595 842L595 842L0 842z" /></clipPath><clipPath id="2"><path id="" clip-rule="evenodd" transform="matrix(1 0 0 1 0 0)" d="M216.96 166.98L504.9 166.98L504.9 166.98L504.9 415.14L504.9 415.14L216.96 415.14z" /></clipPath><clipPath id="3"><path id="" clip-rule="evenodd" transform="matrix(1 0 0 1 0 0)" d="M215.94 166.02L505.86 166.02L505.86 166.02L505.86 416.1L505.86 416.1L215.94 416.1z" /></clipPath><clipPath id="4"><path id="" clip-rule="evenodd" transform="matrix(1 0 0 1 0 0)" d="M0 0.02001953L595.2 0.02001953L595.2 0.02001953L595.2 842L595.2 842L0 842z" /></clipPath></defs><g transform="matrix(1.333333 0 0 1.333333 0 0)"><g clip-path="url(#1)"><g clip-path="url(#2)"><g clip-path="url(#3)"><g clip-path="url(#4)"><g transform="matrix(0.4799 0 0 0.4790733 216.96 166.98)"><g transform="matrix(1 0 0 1 0 0)"><image x="0" y="0" xlink:href="img_540.png" width="600" height="518" /></g></g></g></g></g><path id="360" transform="matrix(1 0 0 -1 0 842)" d="M215.94 248.9L339.36 248.9L339.36 266.9L215.94 266.9z" stroke="none" fill="#C5E0F7" fill-rule="nonzero" /><path id="366" transform="matrix(1 0 0 -1 0 842)" d="M339.36 248.9L480 248.9L480 266.9L339.36 266.9z" stroke="none" fill="#C5E0F7" fill-rule="nonzero" /><path id="390" transform="matrix(1 0 0 -1 0 842)" d="M480 248.9L549 248.9L549 266.9L480 266.9z" stroke="none" fill="#C5E0F7" fill-rule="nonzero" /><path id="523" transform="matrix(1 0 0 -1 0 842)" d="M215.94 228.68L549 228.68L549 229.16L215.94 229.16z" stroke="none" fill="#3D96E3" fill-rule="nonzero" /><path id="524" transform="matrix(1 0 0 -1 0 842)" d="M215.94 208.7L549 208.7L549 209.18L215.94 209.18z" stroke="none" fill="#3D96E3" fill-rule="nonzero" /><path id="525" transform="matrix(1 0 0 -1 0 842)" d="M215.94 188.66L549 188.66L549 189.14L215.94 189.14z" stroke="none" fill="#3D96E3" fill-rule="nonzero" /><path id="526" transform="matrix(1 0 0 -1 0 842)" d="M215.94 168.68L549 168.68L549 169.16L215.94 169.16z" stroke="none" fill="#3D96E3" fill-rule="nonzero" /><path id="527" transform="matrix(1 0 0 -1 0 842)" d="M215.94 148.7L549 148.7L549 149.18L215.94 149.18z" stroke="none" fill="#3D96E3" fill-rule="nonzero" /><path id="528" transform="matrix(1 0 0 -1 0 842)" d="M215.94 128.66L549 128.66L549 129.14L215.94 129.14z" stroke="none" fill="#3D96E3" fill-rule="nonzero" /><path id="529" transform="matrix(1 0 0 -1 0 842)" d="M215.94 108.14L549 108.14L549 109.64L215.94 109.64z" stroke="none" fill="#3D96E3" fill-rule="nonzero" /></g></g></svg>