<svg xmlns="http://www.w3.org/2000/svg" xmlns:xlink="http://www.w3.org/1999/xlink" id="body_112" preserveAspectRatio="xMinYMin meet" viewBox="0 0 793 1123"><defs><clipPath id="1"><path id="" clip-rule="evenodd" transform="matrix(1 0 0 1 0 0)" d="M0 842L0 0L0 0L595 0L595 0L595 842L595 842L0 842z" /></clipPath></defs><g transform="matrix(1.333333 0 0 1.333333 0 0)"><g clip-path="url(#1)"><path id="209" transform="matrix(1 0 0 -1 0 842)" d="M35.94 731.96L90.84 731.96L90.84 749.96L35.94 749.96z" stroke="none" fill="#C5E0F7" fill-rule="nonzero" /><path id="212" transform="matrix(1 0 0 -1 0 842)" d="M90.84 731.96L258.48 731.96L258.48 749.96L90.84 749.96z" stroke="none" fill="#C5E0F7" fill-rule="nonzero" /><path id="215" transform="matrix(1 0 0 -1 0 842)" d="M258.48 731.96L347.4 731.96L347.4 749.96L258.48 749.96z" stroke="none" fill="#C5E0F7" fill-rule="nonzero" /><path id="220" transform="matrix(1 0 0 -1 0 842)" d="M347.4 731.96L551.46 731.96L551.46 749.96L347.4 749.96z" stroke="none" fill="#C5E0F7" fill-rule="nonzero" /><path id="373" transform="matrix(1 0 0 -1 0 842)" d="M35.94 594.02L551.46 594.02L551.46 642.02L35.94 642.02z" stroke="none" fill="#ECF5FC" fill-rule="nonzero" /><path id="992" transform="matrix(1 0 0 -1 0 842)" d="M35.94 593.78L551.46 593.78L551.46 594.26L35.94 594.26z" stroke="none" fill="#3D96E3" fill-rule="nonzero" /><path id="993" transform="matrix(1 0 0 -1 0 842)" d="M35.94 545.78L258.48 545.78L258.48 546.26L35.94 546.26z" stroke="none" fill="#3D96E3" fill-rule="nonzero" /><path id="994" transform="matrix(1 0 0 -1 0 842)" d="M347.4 545.78L551.46 545.78L551.46 546.26L347.4 546.26z" stroke="none" fill="#3D96E3" fill-rule="nonzero" /><path id="995" transform="matrix(1 0 0 -1 0 842)" d="M35.94 497.84L258.48 497.84L258.48 498.32L35.94 498.32z" stroke="none" fill="#3D96E3" fill-rule="nonzero" /><path id="996" transform="matrix(1 0 0 -1 0 842)" d="M347.4 497.84L551.46 497.84L551.46 498.32L347.4 498.32z" stroke="none" fill="#3D96E3" fill-rule="nonzero" /><path id="997" transform="matrix(1 0 0 -1 0 842)" d="M35.94 449.84L258.48 449.84L258.48 450.32L35.94 450.32z" stroke="none" fill="#3D96E3" fill-rule="nonzero" /><path id="998" transform="matrix(1 0 0 -1 0 842)" d="M347.4 449.84L551.46 449.84L551.46 450.32L347.4 450.32z" stroke="none" fill="#3D96E3" fill-rule="nonzero" /><path id="999" transform="matrix(1 0 0 -1 0 842)" d="M35.94 387.86L551.46 387.86L551.46 388.34L35.94 388.34z" stroke="none" fill="#3D96E3" fill-rule="nonzero" /><path id="1000" transform="matrix(1 0 0 -1 0 842)" d="M35.94 339.86L551.46 339.86L551.46 340.34L35.94 340.34z" stroke="none" fill="#3D96E3" fill-rule="nonzero" /><path id="1001" transform="matrix(1 0 0 -1 0 842)" d="M35.94 291.92L551.46 291.92L551.46 292.4L35.94 292.4z" stroke="none" fill="#3D96E3" fill-rule="nonzero" /><path id="1002" transform="matrix(1 0 0 -1 0 842)" d="M35.94 243.38L551.46 243.38L551.46 244.88L35.94 244.88z" stroke="none" fill="#3D96E3" fill-rule="nonzero" /></g></g></svg>