<svg xmlns="http://www.w3.org/2000/svg" xmlns:xlink="http://www.w3.org/1999/xlink" id="body_258" preserveAspectRatio="xMinYMin meet" viewBox="0 0 793 1123"><defs><clipPath id="1"><path id="" clip-rule="evenodd" transform="matrix(1 0 0 1 0 0)" d="M0 842L0 0L0 0L595 0L595 0L595 842L595 842L0 842z" /></clipPath><clipPath id="2"><path id="" clip-rule="evenodd" transform="matrix(1 0 0 1 0 0)" d="M225.96 77.03998L458.34 77.03998L458.34 77.03998L458.34 230.76L458.34 230.76L225.96 230.76z" /></clipPath><clipPath id="3"><path id="" clip-rule="evenodd" transform="matrix(1 0 0 1 0 0)" d="M224.94 76.02002L459.3 76.02002L459.3 76.02002L459.3 231.78L459.3 231.78L224.94 231.78z" /></clipPath><clipPath id="4"><path id="" clip-rule="evenodd" transform="matrix(1 0 0 1 0 0)" d="M0 0.02001953L595.2 0.02001953L595.2 0.02001953L595.2 842L595.2 842L0 842z" /></clipPath><clipPath id="5"><path id="" clip-rule="evenodd" transform="matrix(1 0 0 1 0 0)" d="M224.94 76.02002L459.3 76.02002L459.3 76.02002L459.3 231.78L459.3 231.78L224.94 231.78z" /></clipPath><clipPath id="6"><path id="" clip-rule="evenodd" transform="matrix(1 0 0 1 0 0)" d="M0 0.02001953L595.2 0.02001953L595.2 0.02001953L595.2 842L595.2 842L0 842z" /></clipPath><clipPath id="7"><path id="" clip-rule="evenodd" transform="matrix(1 0 0 1 0 0)" d="M124.56 318.72L202.98 318.72L202.98 318.72L202.98 333.12L202.98 333.12L124.56 333.12z" /></clipPath><clipPath id="8"><path id="" clip-rule="evenodd" transform="matrix(1 0 0 1 0 0)" d="M0 0.02001953L595.2 0.02001953L595.2 0.02001953L595.2 842L595.2 842L0 842z" /></clipPath><clipPath id="9"><path id="" clip-rule="evenodd" transform="matrix(1 0 0 1 0 0)" d="M124.98 319.2L198.36 319.2L198.36 319.2L198.36 333L198.36 333L124.98 333z" /></clipPath><clipPath id="10"><path id="" clip-rule="evenodd" transform="matrix(1 0 0 1 0 0)" d="M124.56 318.72L202.98 318.72L202.98 318.72L202.98 333.12L202.98 333.12L124.56 333.12z" /></clipPath><clipPath id="11"><path id="" clip-rule="evenodd" transform="matrix(1 0 0 1 0 0)" d="M0 0.02001953L595.2 0.02001953L595.2 0.02001953L595.2 842L595.2 842L0 842z" /></clipPath><clipPath id="12"><path id="" clip-rule="evenodd" transform="matrix(1 0 0 1 0 0)" d="M225.96 379.74L458.16 379.74L458.16 379.74L458.16 521.16L458.16 521.16L225.96 521.16z" /></clipPath><clipPath id="13"><path id="" clip-rule="evenodd" transform="matrix(1 0 0 1 0 0)" d="M224.94 378.72L459.12 378.72L459.12 378.72L459.12 522.18L459.12 522.18L224.94 522.18z" /></clipPath><clipPath id="14"><path id="" clip-rule="evenodd" transform="matrix(1 0 0 1 0 0)" d="M0 0.02001953L595.2 0.02001953L595.2 0.02001953L595.2 842L595.2 842L0 842z" /></clipPath><clipPath id="15"><path id="" clip-rule="evenodd" transform="matrix(1 0 0 1 0 0)" d="M224.94 378.72L459.12 378.72L459.12 378.72L459.12 522.18L459.12 522.18L224.94 522.18z" /></clipPath><clipPath id="16"><path id="" clip-rule="evenodd" transform="matrix(1 0 0 1 0 0)" d="M0 0.02001953L595.2 0.02001953L595.2 0.02001953L595.2 842L595.2 842L0 842z" /></clipPath><clipPath id="17"><path id="" clip-rule="evenodd" transform="matrix(1 0 0 1 0 0)" d="M124.56 571.2L202.98 571.2L202.98 571.2L202.98 585.6L202.98 585.6L124.56 585.6z" /></clipPath><clipPath id="18"><path id="" clip-rule="evenodd" transform="matrix(1 0 0 1 0 0)" d="M0 0.02001953L595.2 0.02001953L595.2 0.02001953L595.2 842L595.2 842L0 842z" /></clipPath><clipPath id="19"><path id="" clip-rule="evenodd" transform="matrix(1 0 0 1 0 0)" d="M124.98 571.68L198.36 571.68L198.36 571.68L198.36 585.48L198.36 585.48L124.98 585.48z" /></clipPath><clipPath id="20"><path id="" clip-rule="evenodd" transform="matrix(1 0 0 1 0 0)" d="M124.56 571.2L202.98 571.2L202.98 571.2L202.98 585.6L202.98 585.6L124.56 585.6z" /></clipPath><clipPath id="21"><path id="" clip-rule="evenodd" transform="matrix(1 0 0 1 0 0)" d="M0 0.02001953L595.2 0.02001953L595.2 0.02001953L595.2 842L595.2 842L0 842z" /></clipPath></defs><g transform="matrix(1.333333 0 0 1.333333 0 0)"><g clip-path="url(#1)"><g clip-path="url(#2)"><g clip-path="url(#3)"><g clip-path="url(#4)"><g transform="matrix(0.480124 0 0 0.480375 225.96 77.04004)"><g transform="matrix(1 0 0 1 0 0)"><image x="0" y="0" xlink:href="img_788.png" width="484" height="320" /></g></g></g></g></g><g clip-path="url(#5)"><g clip-path="url(#6)"><path id="172" transform="matrix(1 0 0 -1 0 842)" d="M280.74 694.04L343.98 694.04L343.98 732.08L280.74 732.08z" stroke="none" fill="#FFFFFF" fill-rule="nonzero" /><path id="184" transform="matrix(1 0 0 -1 0 842)" d="M395.22 706.52L395.7 706.52L395.7 707.54L395.22 707.54z" stroke="none" fill="#000000" fill-rule="nonzero" /><path id="185" transform="matrix(1 0 0 -1 0 842)" d="M340.74 706.52L395.22 706.52L395.22 707.54L340.74 707.54z" stroke="none" fill="#000000" fill-rule="nonzero" /></g></g><g clip-path="url(#7)"><g clip-path="url(#8)"><path id="186" transform="matrix(1 0 0 -1 0 842)" d="M124.56 508.88L202.98 508.88L202.98 523.28L124.56 523.28z" stroke="none" fill="#FFFFFF" fill-rule="nonzero" /></g></g><g clip-path="url(#9)"><g clip-path="url(#10)"><g clip-path="url(#11)"><g transform="matrix(0.7265346 0 0 0.7263158 124.98 319.2)"><g transform="matrix(1 0 0 1 0 0)"><image x="0" y="0" xlink:href="img_09.png" width="101" height="19" /></g></g></g></g></g><path id="188" transform="matrix(1 0 0 -1 0 842)" d="M242.94 527.24L558 527.24L558 479.3L242.94 479.3" stroke="none" fill="#ECF5FC" fill-rule="nonzero" /><g clip-path="url(#12)"><g clip-path="url(#13)"><g clip-path="url(#14)"><g transform="matrix(0.479752 0 0 0.4793898 225.96 379.74)"><g transform="matrix(1 0 0 1 0 0)"><image x="0" y="0" xlink:href="img_789.png" width="484" height="295" /></g></g></g></g></g><g clip-path="url(#15)"><g clip-path="url(#16)"><path id="281" transform="matrix(1 0 0 -1 0 842)" d="M375.6 384.08L375 383.3L376.56 382.1L377.16 382.88" stroke="none" fill="#000000" fill-rule="nonzero" /><path id="282" transform="matrix(1 0 0 -1 0 842)" d="M411.3 429.86L411.9 430.64L413.46 429.44L412.86 428.66" stroke="none" fill="#000000" fill-rule="nonzero" /><path id="283" transform="matrix(1 0 0 -1 0 842)" d="M375.6 384.08L377.16 382.88L412.86 428.66L411.3 429.86" stroke="none" fill="#000000" fill-rule="nonzero" /><path id="284" transform="matrix(1 0 0 -1 0 842)" d="M385.74 431.84L454.74 431.84L454.74 455.06L385.74 455.06z" stroke="none" fill="#FFFFFF" fill-rule="nonzero" /><path id="297" transform="matrix(1 0 0 -1 0 842)" d="M258.66 426.14L259.32 426.8L257.94 428.18L257.28 427.52" stroke="none" fill="#000000" fill-rule="nonzero" /><path id="298" transform="matrix(1 0 0 -1 0 842)" d="M233.16 400.58L232.5 399.92L231.12 401.3L231.78 401.96" stroke="none" fill="#000000" fill-rule="nonzero" /><path id="299" transform="matrix(1 0 0 -1 0 842)" d="M258.66 426.14L257.28 427.52L231.78 401.96L233.16 400.58" stroke="none" fill="#000000" fill-rule="nonzero" /><path id="300" transform="matrix(1 0 0 -1 0 842)" d="M229.2 383.3L259.98 383.3L259.98 396.08L229.2 396.08z" stroke="none" fill="#FFFFFF" fill-rule="nonzero" /><path id="303" transform="matrix(1 0 0 -1 0 842)" d="M229.2 351.56L278.7 351.56L278.7 364.34L229.2 364.34z" stroke="none" fill="#FFFFFF" fill-rule="nonzero" /><path id="307" transform="matrix(1 0 0 -1 0 842)" d="M292.8 449L320.28 438.98L321.24 438.62L320.94 437.72L301.14 383.54L300.78 382.58L299.82 382.88L272.34 392.84L271.44 393.2L271.8 394.16L273 394.7L300.48 384.74L299.82 382.88L299.28 384.2L319.08 438.44L320.94 437.72L319.62 437.12L292.14 447.14" stroke="none" fill="#000000" fill-rule="nonzero" /><path id="308" transform="matrix(1 0 0 -1 0 842)" d="M271.8 394.16L291.6 448.46L291.9 449.36L292.8 449L293.46 447.74L273.66 393.5" stroke="none" fill="#000000" fill-rule="nonzero" /><path id="309" transform="matrix(1 0 0 -1 0 842)" d="M284.94 399.86L285.6 400.52L284.22 401.9L283.56 401.24" stroke="none" fill="#000000" fill-rule="nonzero" /><path id="310" transform="matrix(1 0 0 -1 0 842)" d="M251.16 366.08L250.5 365.42L249.12 366.8L249.78 367.46" stroke="none" fill="#000000" fill-rule="nonzero" /><path id="311" transform="matrix(1 0 0 -1 0 842)" d="M284.94 399.86L283.56 401.24L249.78 367.46L251.16 366.08" stroke="none" fill="#000000" fill-rule="nonzero" /></g></g><g clip-path="url(#17)"><g clip-path="url(#18)"><path id="312" transform="matrix(1 0 0 -1 0 842)" d="M124.56 256.4L202.98 256.4L202.98 270.8L124.56 270.8z" stroke="none" fill="#FFFFFF" fill-rule="nonzero" /></g></g><g clip-path="url(#19)"><g clip-path="url(#20)"><g clip-path="url(#21)"><g transform="matrix(0.7265346 0 0 0.7263158 124.98 571.6801)"><g transform="matrix(1 0 0 1 0 0)"><image x="0" y="0" xlink:href="img_09.png" width="101" height="19" /></g></g></g></g></g><path id="314" transform="matrix(1 0 0 -1 0 842)" d="M242.94 274.82L558 274.82L558 226.82L242.94 226.82" stroke="none" fill="#ECF5FC" fill-rule="nonzero" /></g></g></svg>