<svg xmlns="http://www.w3.org/2000/svg" xmlns:xlink="http://www.w3.org/1999/xlink" id="body_231" preserveAspectRatio="xMinYMin meet" viewBox="0 0 793 1123"><defs><clipPath id="1"><path id="" clip-rule="evenodd" transform="matrix(1 0 0 1 0 0)" d="M0 842L0 0L0 0L595 0L595 0L595 842L595 842L0 842z" /></clipPath><clipPath id="2"><path id="" clip-rule="evenodd" transform="matrix(1 0 0 1 0 0)" d="M225.96 219.96L418.56 219.96L418.56 219.96L418.56 308.94L418.56 308.94L225.96 308.94z" /></clipPath><clipPath id="3"><path id="" clip-rule="evenodd" transform="matrix(1 0 0 1 0 0)" d="M224.94 219L555.06 219L555.06 219L555.06 348.78L555.06 348.78L224.94 348.78z" /></clipPath><clipPath id="4"><path id="" clip-rule="evenodd" transform="matrix(1 0 0 1 0 0)" d="M0 0.02001953L595.2 0.02001953L595.2 0.02001953L595.2 842L595.2 842L0 842z" /></clipPath><clipPath id="5"><path id="" clip-rule="evenodd" transform="matrix(1 0 0 1 0 0)" d="M443.7 219.96L554.04 219.96L554.04 219.96L554.04 347.76L554.04 347.76L443.7 347.76z" /></clipPath><clipPath id="6"><path id="" clip-rule="evenodd" transform="matrix(1 0 0 1 0 0)" d="M224.94 219L555.06 219L555.06 219L555.06 348.78L555.06 348.78L224.94 348.78z" /></clipPath><clipPath id="7"><path id="" clip-rule="evenodd" transform="matrix(1 0 0 1 0 0)" d="M0 0.02001953L595.2 0.02001953L595.2 0.02001953L595.2 842L595.2 842L0 842z" /></clipPath><clipPath id="8"><path id="" clip-rule="evenodd" transform="matrix(1 0 0 1 0 0)" d="M224.94 219L555.06 219L555.06 219L555.06 348.78L555.06 348.78L224.94 348.78z" /></clipPath><clipPath id="9"><path id="" clip-rule="evenodd" transform="matrix(1 0 0 1 0 0)" d="M0 0.02001953L595.2 0.02001953L595.2 0.02001953L595.2 842L595.2 842L0 842z" /></clipPath></defs><g transform="matrix(1.333333 0 0 1.333333 0 0)"><g clip-path="url(#1)"><path id="528" transform="matrix(1 0 0 -1 0 842)" d="M242.94 426.26L558 426.26L558 392.24L242.94 392.24" stroke="none" fill="#ECF5FC" fill-rule="nonzero" /><path id="570" transform="matrix(1 0 0 -1 0 842)" d="M242.94 314.3L558 314.3L558 252.32L242.94 252.32" stroke="none" fill="#ECF5FC" fill-rule="nonzero" /><g clip-path="url(#2)"><g clip-path="url(#3)"><g clip-path="url(#4)"><g transform="matrix(0.4791045 0 0 0.4783871 225.96 219.96)"><g transform="matrix(1 0 0 1 0 0)"><image x="0" y="0" xlink:href="img_638.png" width="402" height="186" /></g></g></g></g></g><g clip-path="url(#5)"><g clip-path="url(#6)"><g clip-path="url(#7)"><g transform="matrix(0.4797391 0 0 0.4786517 443.7 219.96)"><g transform="matrix(1 0 0 1 0 0)"><image x="0" y="0" xlink:href="img_639.png" width="230" height="267" /></g></g></g></g></g><g clip-path="url(#8)"><g clip-path="url(#9)"><path id="660" transform="matrix(1 0 0 -1 0 842)" d="M256.74 595.82L363.96 595.82L363.96 616.82L256.74 616.82z" stroke="none" fill="#FFFFFF" fill-rule="nonzero" /><path id="677" transform="matrix(1 0 0 -1 0 842)" d="M388.62 602.72L388.74 602.6L388.74 602.6L389.1 602.36L389.1 602.36L389.28 602.36L389.28 602.36L389.46 602.3L389.46 602.3L389.64 602.36L389.64 602.36L389.82 602.42L389.82 602.42L390.18 602.66L390.18 602.66L390.3 602.84L390.3 602.84L390.42 603.2L390.42 603.2L390.42 603.3799L390.42 603.3799L390.3 603.74L390.3 603.74L390.18 603.92L390.18 603.92L390.06 604.1L390.06 604.1L389.88 604.22L389.88 604.22L389.52 604.34L389.52 604.34L389.34 604.34L389.34 604.34L388.98 604.22L388.98 604.22L388.62 603.98L388.62 603.98L388.56 603.8L388.56 603.8L388.44 603.62L388.44 603.62L388.44 603.4399L388.44 603.4399L388.38 603.2599L388.38 603.2599L388.5 602.9L388.5 602.9L388.62 602.72" stroke="none" fill="#000000" fill-rule="evenodd" /><path id="678" transform="matrix(1 0 0 -1 0 842)" d="M389.34 603.32L391.56 600.44L392.1 599.78L391.26 599.66L384.06 598.7L383.22 598.64L383.52 599.42L386.34 606.14L386.64 606.92L387.18 606.2L387.24 605.72L384.42 599L383.52 599.42L383.88 599.72L391.08 600.68L391.26 599.66L390.78 599.84L388.56 602.72" stroke="none" fill="#000000" fill-rule="nonzero" /><path id="679" transform="matrix(1 0 0 -1 0 842)" d="M387.18 606.2L389.34 603.32L388.56 602.72L386.4 605.6" stroke="none" fill="#000000" fill-rule="nonzero" /><path id="680" transform="matrix(1 0 0 -1 0 842)" d="M388.98 603.02L391.2 600.14L391.2 600.14L384 599.18L384 599.18L386.82 605.9" stroke="none" fill="#000000" fill-rule="evenodd" /><path id="681" transform="matrix(1 0 0 -1 0 842)" d="M406.32 615.08L407.1 615.68L405.9 617.24L405.12 616.64" stroke="none" fill="#000000" fill-rule="nonzero" /><path id="682" transform="matrix(1 0 0 -1 0 842)" d="M390 602.54L389.22 601.94L388.02 603.5L388.8 604.1" stroke="none" fill="#000000" fill-rule="nonzero" /><path id="683" transform="matrix(1 0 0 -1 0 842)" d="M406.32 615.08L405.12 616.64L388.8 604.1L390 602.54" stroke="none" fill="#000000" fill-rule="nonzero" /><path id="684" transform="matrix(1 0 0 -1 0 842)" d="M480.24 606.56L511.74 606.56L511.74 618.56L480.24 618.56z" stroke="none" fill="#FFFFFF" fill-rule="nonzero" /><path id="688" transform="matrix(1 0 0 -1 0 842)" d="M482.7 556.58L515.7 556.58L515.7 567.08L482.7 567.08z" stroke="none" fill="#FFFFFF" fill-rule="nonzero" /><path id="692" transform="matrix(1 0 0 -1 0 842)" d="M532.62 531.08L533.4 530.48L534.66 532.04L533.88 532.64" stroke="none" fill="#000000" fill-rule="nonzero" /><path id="693" transform="matrix(1 0 0 -1 0 842)" d="M504.9 553.58L504.12 554.18L505.38 555.74L506.16 555.14" stroke="none" fill="#000000" fill-rule="nonzero" /><path id="694" transform="matrix(1 0 0 -1 0 842)" d="M532.62 531.08L533.88 532.64L506.16 555.14L504.9 553.58" stroke="none" fill="#000000" fill-rule="nonzero" /><path id="695" transform="matrix(1 0 0 -1 0 842)" d="M464.52 532.7L464.28 531.74L466.2 531.26L466.44 532.22" stroke="none" fill="#000000" fill-rule="nonzero" /><path id="696" transform="matrix(1 0 0 -1 0 842)" d="M483 604.7L483.24 605.66L485.16 605.18L484.92 604.22" stroke="none" fill="#000000" fill-rule="nonzero" /><path id="697" transform="matrix(1 0 0 -1 0 842)" d="M464.52 532.7L466.44 532.22L484.92 604.22L483 604.7" stroke="none" fill="#000000" fill-rule="nonzero" /></g></g></g></g></svg>