<svg xmlns="http://www.w3.org/2000/svg" xmlns:xlink="http://www.w3.org/1999/xlink" id="body_65" preserveAspectRatio="xMinYMin meet" viewBox="0 0 793 1123"><defs><clipPath id="1"><path id="" clip-rule="evenodd" transform="matrix(1 0 0 1 0 0)" d="M0 842L0 0L0 0L595 0L595 0L595 842L595 842L0 842z" /></clipPath><clipPath id="2"><path id="" clip-rule="evenodd" transform="matrix(1 0 0 1 0 0)" d="M295.98 354.96L446.46 354.96L446.46 354.96L446.46 538.8L446.46 538.8L295.98 538.8z" /></clipPath><clipPath id="3"><path id="" clip-rule="evenodd" transform="matrix(1 0 0 1 0 0)" d="M215.94 353.94L523.98 353.94L523.98 353.94L523.98 539.82L523.98 539.82L215.94 539.82z" /></clipPath><clipPath id="4"><path id="" clip-rule="evenodd" transform="matrix(1 0 0 1 0 0)" d="M0 0.02001953L595.2 0.02001953L595.2 0.02001953L595.2 842L595.2 842L0 842z" /></clipPath><clipPath id="5"><path id="" clip-rule="evenodd" transform="matrix(1 0 0 1 0 0)" d="M215.94 353.94L523.98 353.94L523.98 353.94L523.98 539.82L523.98 539.82L215.94 539.82z" /></clipPath><clipPath id="6"><path id="" clip-rule="evenodd" transform="matrix(1 0 0 1 0 0)" d="M0 0.02001953L595.2 0.02001953L595.2 0.02001953L595.2 842L595.2 842L0 842z" /></clipPath></defs><g transform="matrix(1.333333 0 0 1.333333 0 0)"><g clip-path="url(#1)"><path id="331" transform="matrix(1 0 0 -1 0 842)" d="M215.94 604.04L549 604.04L549 570.02L215.94 570.02" stroke="none" fill="#ECF5FC" fill-rule="nonzero" /><path id="384" transform="matrix(1 0 0 -1 0 842)" d="M215.94 259.22L549 259.22L549 211.22L215.94 211.22" stroke="none" fill="#ECF5FC" fill-rule="nonzero" /><g clip-path="url(#2)"><g clip-path="url(#3)"><g clip-path="url(#4)"><g transform="matrix(0.4792356 0 0 0.48 295.98 354.96)"><g transform="matrix(1 0 0 1 0 0)"><image x="0" y="0" xlink:href="img_184.png" width="314" height="383" /></g></g></g></g></g><g clip-path="url(#5)"><g clip-path="url(#6)"><path id="462" transform="matrix(1 0 0 -1 0 842)" d="M286.26 389.36L286.74 389.36L286.74 390.38L286.26 390.38z" stroke="none" fill="#000000" fill-rule="nonzero" /><path id="463" transform="matrix(1 0 0 -1 0 842)" d="M321.54 388.82L322.02 388.82L322.02 389.84L321.54 389.84z" stroke="none" fill="#000000" fill-rule="nonzero" /><path id="464" transform="matrix(1 0 0 -1 0 842)" d="M286.74 390.38L286.74 389.36L321.54 388.82L321.54 389.84" stroke="none" fill="#000000" fill-rule="nonzero" /><path id="465" transform="matrix(1 0 0 -1 0 842)" d="M453 389.12L453.48 389.12L453.48 390.14L453 390.14z" stroke="none" fill="#000000" fill-rule="nonzero" /><path id="466" transform="matrix(1 0 0 -1 0 842)" d="M418.32 389.12L453 389.12L453 390.14L418.32 390.14z" stroke="none" fill="#000000" fill-rule="nonzero" /></g></g></g></g></svg>