<svg xmlns="http://www.w3.org/2000/svg" xmlns:xlink="http://www.w3.org/1999/xlink" id="body_91" preserveAspectRatio="xMinYMin meet" viewBox="0 0 793 1123"><defs><clipPath id="1"><path id="" clip-rule="evenodd" transform="matrix(1 0 0 1 0 0)" d="M0 842L0 0L0 0L595 0L595 0L595 842L595 842L0 842z" /></clipPath><clipPath id="2"><path id="" clip-rule="evenodd" transform="matrix(1 0 0 1 0 0)" d="M49.98 195L265.32 195L265.32 195L265.32 283.98L265.32 283.98L49.98 283.98z" /></clipPath><clipPath id="3"><path id="" clip-rule="evenodd" transform="matrix(1 0 0 1 0 0)" d="M48.96 193.98L266.34 193.98L266.34 193.98L266.34 285L266.34 285L48.96 285z" /></clipPath><clipPath id="4"><path id="" clip-rule="evenodd" transform="matrix(1 0 0 1 0 0)" d="M0 0.02001953L595.2 0.02001953L595.2 0.02001953L595.2 842L595.2 842L0 842z" /></clipPath><clipPath id="5"><path id="" clip-rule="evenodd" transform="matrix(1 0 0 1 0 0)" d="M49.98 296.4L266.22 296.4L266.22 296.4L266.22 400.92L266.22 400.92L49.98 400.92z" /></clipPath><clipPath id="6"><path id="" clip-rule="evenodd" transform="matrix(1 0 0 1 0 0)" d="M48.96 295.38L267.24 295.38L267.24 295.38L267.24 401.88L267.24 401.88L48.96 401.88z" /></clipPath><clipPath id="7"><path id="" clip-rule="evenodd" transform="matrix(1 0 0 1 0 0)" d="M0 0.02001953L595.2 0.02001953L595.2 0.02001953L595.2 842L595.2 842L0 842z" /></clipPath><clipPath id="8"><path id="" clip-rule="evenodd" transform="matrix(1 0 0 1 0 0)" d="M49.98 413.28L268.86 413.28L268.86 413.28L268.86 522.36L268.86 522.36L49.98 522.36z" /></clipPath><clipPath id="9"><path id="" clip-rule="evenodd" transform="matrix(1 0 0 1 0 0)" d="M48.96 412.26L269.82 412.26L269.82 412.26L269.82 523.38L269.82 523.38L48.96 523.38z" /></clipPath><clipPath id="10"><path id="" clip-rule="evenodd" transform="matrix(1 0 0 1 0 0)" d="M0 0.02001953L595.2 0.02001953L595.2 0.02001953L595.2 842L595.2 842L0 842z" /></clipPath><clipPath id="11"><path id="" clip-rule="evenodd" transform="matrix(1 0 0 1 0 0)" d="M49.98 534.78L266.22 534.78L266.22 534.78L266.22 606.72L266.22 606.72L49.98 606.72z" /></clipPath><clipPath id="12"><path id="" clip-rule="evenodd" transform="matrix(1 0 0 1 0 0)" d="M48.96 533.76L267.24 533.76L267.24 533.76L267.24 607.74L267.24 607.74L48.96 607.74z" /></clipPath><clipPath id="13"><path id="" clip-rule="evenodd" transform="matrix(1 0 0 1 0 0)" d="M0 0.02001953L595.2 0.02001953L595.2 0.02001953L595.2 842L595.2 842L0 842z" /></clipPath><clipPath id="14"><path id="" clip-rule="evenodd" transform="matrix(1 0 0 1 0 0)" d="M49.528 690.11L265.434 690.11L265.434 690.11L265.434 618.708L265.434 618.708L49.528 618.708L49.528 618.708L49.528 690.11" /></clipPath><clipPath id="15"><path id="" clip-rule="evenodd" transform="matrix(1 0 0 1 0 0)" d="M264.638 619.12L49.953 619.12L49.953 619.12L49.953 689.407L49.953 689.407L264.638 689.407z" /></clipPath><clipPath id="16"><path id="" clip-rule="evenodd" transform="matrix(1 0 0 1 0 0)" d="M49.98 619.14L264.66 619.14L264.66 619.14L264.66 689.4L264.66 689.4L49.98 689.4z" /></clipPath><clipPath id="17"><path id="" clip-rule="evenodd" transform="matrix(1 0 0 1 0 0)" d="M48.96 618.12L265.62 618.12L265.62 618.12L265.62 690.42L265.62 690.42L48.96 690.42z" /></clipPath><clipPath id="18"><path id="" clip-rule="evenodd" transform="matrix(1 0 0 1 0 0)" d="M0 0.02001953L595.2 0.02001953L595.2 0.02001953L595.2 842L595.2 842L0 842z" /></clipPath><clipPath id="19"><path id="" clip-rule="evenodd" transform="matrix(1 0 0 1 0 0)" d="M112.429 627.052L58.264 627.052L58.264 627.052L58.264 654.23L58.264 654.23L112.429 654.23z" /></clipPath><clipPath id="20"><path id="" clip-rule="evenodd" transform="matrix(1 0 0 1 0 0)" d="M112.356 670.56L90.045 631.916C 89.078 630.242 87.278 629.203 85.346 629.203C 83.414 629.203 81.613 630.242 80.647 631.916L80.647 631.916L58.337 670.558L58.337 670.558L58.337 627.17L58.337 627.17L112.356 627.17L112.356 627.17L112.356 670.56M112.356 681.147L58.337 681.147L58.337 681.147L58.337 676.781C 59.343 678.231 61.013 679.114 62.795 679.114L62.795 679.114L107.897 679.114C 109.679 679.114 111.35 678.23 112.356 676.779L112.356 676.779L112.356 681.147" /></clipPath><clipPath id="21"><path id="" clip-rule="evenodd" transform="matrix(1 0 0 1 0 0)" d="M112.429 654.135L58.264 654.135L58.264 654.135L58.264 681.265L58.264 681.265L112.429 681.265z" /></clipPath><clipPath id="22"><path id="" clip-rule="evenodd" transform="matrix(1 0 0 1 0 0)" d="M112.356 670.56L90.045 631.916C 89.078 630.242 87.278 629.203 85.346 629.203C 83.414 629.203 81.613 630.242 80.647 631.916L80.647 631.916L58.337 670.558L58.337 670.558L58.337 627.17L58.337 627.17L112.356 627.17L112.356 627.17L112.356 670.56M112.356 681.147L58.337 681.147L58.337 681.147L58.337 676.781C 59.343 678.231 61.013 679.114 62.795 679.114L62.795 679.114L107.897 679.114C 109.679 679.114 111.35 678.23 112.356 676.779L112.356 676.779L112.356 681.147" /></clipPath><clipPath id="23"><path id="" clip-rule="evenodd" transform="matrix(1 0 0 1 0 0)" d="M112.429 629.091L58.264 629.091L58.264 629.091L58.264 654.229L58.264 654.229L112.429 654.229z" /></clipPath><clipPath id="24"><path id="" clip-rule="evenodd" transform="matrix(1 0 0 1 0 0)" d="M85.346 631.842C 84.377 631.842 83.481 632.359 82.996 633.199L82.996 633.199L60.445 672.259C 59.961 673.098 59.961 674.133 60.445 674.972C 60.93 675.811 61.826 676.328 62.795 676.328L62.795 676.328L107.897 676.328C 108.867 676.328 109.762 675.811 110.246 674.972C 110.731 674.133 110.731 673.098 110.246 672.259L110.246 672.259L87.695 633.199C 87.211 632.359 86.315 631.842 85.346 631.842M107.897 679.114L62.795 679.114C 61.013 679.114 59.343 678.231 58.337 676.781L58.337 676.781L58.337 670.558L58.337 670.558L80.647 631.916C 81.613 630.242 83.414 629.203 85.346 629.203C 87.278 629.203 89.078 630.242 90.045 631.916L90.045 631.916L112.356 670.56L112.356 670.56L112.356 676.779C 111.35 678.23 109.679 679.114 107.897 679.114" /></clipPath><clipPath id="25"><path id="" clip-rule="evenodd" transform="matrix(1 0 0 1 0 0)" d="M112.429 654.135L58.264 654.135L58.264 654.135L58.264 679.226L58.264 679.226L112.429 679.226z" /></clipPath><clipPath id="26"><path id="" clip-rule="evenodd" transform="matrix(1 0 0 1 0 0)" d="M85.346 631.842C 84.377 631.842 83.481 632.359 82.996 633.199L82.996 633.199L60.445 672.259C 59.961 673.098 59.961 674.133 60.445 674.972C 60.93 675.811 61.826 676.328 62.795 676.328L62.795 676.328L107.897 676.328C 108.867 676.328 109.762 675.811 110.246 674.972C 110.731 674.133 110.731 673.098 110.246 672.259L110.246 672.259L87.695 633.199C 87.211 632.359 86.315 631.842 85.346 631.842M107.897 679.114L62.795 679.114C 61.013 679.114 59.343 678.231 58.337 676.781L58.337 676.781L58.337 670.558L58.337 670.558L80.647 631.916C 81.613 630.242 83.414 629.203 85.346 629.203C 87.278 629.203 89.078 630.242 90.045 631.916L90.045 631.916L112.356 670.56L112.356 670.56L112.356 676.779C 111.35 678.23 109.679 679.114 107.897 679.114" /></clipPath><clipPath id="27"><path id="" clip-rule="evenodd" transform="matrix(1 0 0 1 0 0)" d="M107.897 673.689L85.346 634.628L85.346 634.628L62.794 673.689L62.794 673.689L107.897 673.689M107.897 676.328L62.795 676.328C 61.826 676.328 60.93 675.811 60.445 674.972C 59.961 674.133 59.961 673.098 60.445 672.259L60.445 672.259L82.996 633.199C 83.481 632.359 84.377 631.842 85.346 631.842C 86.315 631.842 87.211 632.359 87.695 633.199L87.695 633.199L110.246 672.259C 110.731 673.098 110.731 674.133 110.246 674.972C 109.762 675.811 108.867 676.328 107.897 676.328" /></clipPath><clipPath id="28"><path id="" clip-rule="evenodd" transform="matrix(1 0 0 1 0 0)" d="M107.897 673.689L62.794 673.689L62.794 673.689L85.346 634.628L85.346 634.628L107.897 673.689" /></clipPath><clipPath id="29"><path id="" clip-rule="evenodd" transform="matrix(1 0 0 1 0 0)" d="M49.528 690.11L265.434 690.11L265.434 690.11L265.434 618.708L265.434 618.708L49.528 618.708L49.528 618.708L49.528 690.11" /></clipPath><clipPath id="30"><path id="" clip-rule="evenodd" transform="matrix(1 0 0 1 0 0)" d="M264.638 619.12L49.953 619.12L49.953 619.12L49.953 689.407L49.953 689.407L264.638 689.407z" /></clipPath><clipPath id="31"><path id="" clip-rule="evenodd" transform="matrix(1 0 0 1 0 0)" d="M49.98 619.14L264.66 619.14L264.66 619.14L264.66 689.4L264.66 689.4L49.98 689.4z" /></clipPath><clipPath id="32"><path id="" clip-rule="evenodd" transform="matrix(1 0 0 1 0 0)" d="M48.96 618.12L265.62 618.12L265.62 618.12L265.62 690.42L265.62 690.42L48.96 690.42z" /></clipPath><clipPath id="33"><path id="" clip-rule="evenodd" transform="matrix(1 0 0 1 0 0)" d="M0 0.02001953L595.2 0.02001953L595.2 0.02001953L595.2 842L595.2 842L0 842z" /></clipPath><clipPath id="34"><path id="" clip-rule="evenodd" transform="matrix(1 0 0 1 0 0)" d="M229.37 630.285L205.509 630.285L205.509 630.285L205.509 651.708L205.509 651.708L229.37 651.708z" /></clipPath><clipPath id="35"><path id="" clip-rule="evenodd" transform="matrix(1 0 0 1 0 0)" d="M237.371 631.7C 234.828 630.791 232.121 630.318 229.34 630.318C 227.28 630.318 225.259 630.578 223.315 631.083C 225.259 630.578 227.28 630.318 229.34 630.318C 232.121 630.318 234.828 630.791 237.371 631.7M237.376 631.702C 237.375 631.702 237.374 631.701 237.373 631.701C 237.374 631.701 237.375 631.702 237.376 631.702M247.499 638.731C 247.077 638.235 246.634 637.754 246.168 637.288C 245.077 636.197 243.899 635.225 242.649 634.379C 243.899 635.225 245.077 636.197 246.168 637.288C 246.634 637.753 247.077 638.235 247.499 638.731M251.468 662.91C 252.565 660.149 253.138 657.176 253.138 654.116C 253.138 652.248 252.924 650.412 252.509 648.637C 252.924 650.412 253.138 652.248 253.138 654.117C 253.138 657.177 252.565 660.149 251.468 662.91M246.168 670.944C 246.168 670.943 246.17 670.943 246.17 670.942C 246.17 670.943 246.169 670.943 246.168 670.944M214.895 673.034C 214.062 672.396 213.266 671.698 212.512 670.944C 208.017 666.449 205.541 660.473 205.541 654.117C 205.541 647.759 208.017 641.784 212.512 637.288C 213.52 636.28 214.603 635.374 215.747 634.574C 214.603 635.374 213.52 636.28 212.512 637.288C 208.017 641.783 205.542 647.759 205.542 654.116C 205.542 660.473 208.017 666.449 212.512 670.944C 213.266 671.698 214.063 672.396 214.895 673.034" /></clipPath><clipPath id="36"><path id="" clip-rule="evenodd" transform="matrix(1 0 0 1 0 0)" d="M212.512 637.288C 208.017 641.784 205.541 647.759 205.541 654.117C 205.541 660.473 208.017 666.449 212.512 670.944C 217.007 675.439 222.984 677.914 229.34 677.914C 235.697 677.914 241.673 675.439 246.168 670.944C 250.662 666.449 253.138 660.473 253.138 654.117C 253.138 647.759 250.662 641.784 246.168 637.288C 241.673 632.794 235.697 630.318 229.34 630.318C 222.984 630.318 217.007 632.794 212.512 637.288" /></clipPath><clipPath id="37"><path id="" clip-rule="evenodd" transform="matrix(1 0 0 1 0 0)" d="M253.171 630.285L229.33 630.285L229.33 630.285L229.33 651.708L229.33 651.708L253.171 651.708z" /></clipPath><clipPath id="38"><path id="" clip-rule="evenodd" transform="matrix(1 0 0 1 0 0)" d="M237.371 631.7C 234.828 630.791 232.121 630.318 229.34 630.318C 227.28 630.318 225.259 630.578 223.315 631.083C 225.259 630.578 227.28 630.318 229.34 630.318C 232.121 630.318 234.828 630.791 237.371 631.7M237.376 631.702C 237.375 631.702 237.374 631.701 237.373 631.701C 237.374 631.701 237.375 631.702 237.376 631.702M247.499 638.731C 247.077 638.235 246.634 637.754 246.168 637.288C 245.077 636.197 243.899 635.225 242.649 634.379C 243.899 635.225 245.077 636.197 246.168 637.288C 246.634 637.753 247.077 638.235 247.499 638.731M251.468 662.91C 252.565 660.149 253.138 657.176 253.138 654.116C 253.138 652.248 252.924 650.412 252.509 648.637C 252.924 650.412 253.138 652.248 253.138 654.117C 253.138 657.177 252.565 660.149 251.468 662.91M246.168 670.944C 246.168 670.943 246.17 670.943 246.17 670.942C 246.17 670.943 246.169 670.943 246.168 670.944M214.895 673.034C 214.062 672.396 213.266 671.698 212.512 670.944C 208.017 666.449 205.541 660.473 205.541 654.117C 205.541 647.759 208.017 641.784 212.512 637.288C 213.52 636.28 214.603 635.374 215.747 634.574C 214.603 635.374 213.52 636.28 212.512 637.288C 208.017 641.783 205.542 647.759 205.542 654.116C 205.542 660.473 208.017 666.449 212.512 670.944C 213.266 671.698 214.063 672.396 214.895 673.034" /></clipPath><clipPath id="39"><path id="" clip-rule="evenodd" transform="matrix(1 0 0 1 0 0)" d="M212.512 637.288C 208.017 641.784 205.541 647.759 205.541 654.117C 205.541 660.473 208.017 666.449 212.512 670.944C 217.007 675.439 222.984 677.914 229.34 677.914C 235.697 677.914 241.673 675.439 246.168 670.944C 250.662 666.449 253.138 660.473 253.138 654.117C 253.138 647.759 250.662 641.784 246.168 637.288C 241.673 632.794 235.697 630.318 229.34 630.318C 222.984 630.318 217.007 632.794 212.512 637.288" /></clipPath><clipPath id="40"><path id="" clip-rule="evenodd" transform="matrix(1 0 0 1 0 0)" d="M229.37 651.667L205.509 651.667L205.509 651.667L205.509 673.069L205.509 673.069L229.37 673.069z" /></clipPath><clipPath id="41"><path id="" clip-rule="evenodd" transform="matrix(1 0 0 1 0 0)" d="M237.371 631.7C 234.828 630.791 232.121 630.318 229.34 630.318C 227.28 630.318 225.259 630.578 223.315 631.083C 225.259 630.578 227.28 630.318 229.34 630.318C 232.121 630.318 234.828 630.791 237.371 631.7M237.376 631.702C 237.375 631.702 237.374 631.701 237.373 631.701C 237.374 631.701 237.375 631.702 237.376 631.702M247.499 638.731C 247.077 638.235 246.634 637.754 246.168 637.288C 245.077 636.197 243.899 635.225 242.649 634.379C 243.899 635.225 245.077 636.197 246.168 637.288C 246.634 637.753 247.077 638.235 247.499 638.731M251.468 662.91C 252.565 660.149 253.138 657.176 253.138 654.116C 253.138 652.248 252.924 650.412 252.509 648.637C 252.924 650.412 253.138 652.248 253.138 654.117C 253.138 657.177 252.565 660.149 251.468 662.91M246.168 670.944C 246.168 670.943 246.17 670.943 246.17 670.942C 246.17 670.943 246.169 670.943 246.168 670.944M214.895 673.034C 214.062 672.396 213.266 671.698 212.512 670.944C 208.017 666.449 205.541 660.473 205.541 654.117C 205.541 647.759 208.017 641.784 212.512 637.288C 213.52 636.28 214.603 635.374 215.747 634.574C 214.603 635.374 213.52 636.28 212.512 637.288C 208.017 641.783 205.542 647.759 205.542 654.116C 205.542 660.473 208.017 666.449 212.512 670.944C 213.266 671.698 214.063 672.396 214.895 673.034" /></clipPath><clipPath id="42"><path id="" clip-rule="evenodd" transform="matrix(1 0 0 1 0 0)" d="M212.512 637.288C 208.017 641.784 205.541 647.759 205.541 654.117C 205.541 660.473 208.017 666.449 212.512 670.944C 217.007 675.439 222.984 677.914 229.34 677.914C 235.697 677.914 241.673 675.439 246.168 670.944C 250.662 666.449 253.138 660.473 253.138 654.117C 253.138 647.759 250.662 641.784 246.168 637.288C 241.673 632.794 235.697 630.318 229.34 630.318C 222.984 630.318 217.007 632.794 212.512 637.288" /></clipPath><clipPath id="43"><path id="" clip-rule="evenodd" transform="matrix(1 0 0 1 0 0)" d="M253.171 651.667L229.33 651.667L229.33 651.667L229.33 673.069L229.33 673.069L253.171 673.069z" /></clipPath><clipPath id="44"><path id="" clip-rule="evenodd" transform="matrix(1 0 0 1 0 0)" d="M237.371 631.7C 234.828 630.791 232.121 630.318 229.34 630.318C 227.28 630.318 225.259 630.578 223.315 631.083C 225.259 630.578 227.28 630.318 229.34 630.318C 232.121 630.318 234.828 630.791 237.371 631.7M237.376 631.702C 237.375 631.702 237.374 631.701 237.373 631.701C 237.374 631.701 237.375 631.702 237.376 631.702M247.499 638.731C 247.077 638.235 246.634 637.754 246.168 637.288C 245.077 636.197 243.899 635.225 242.649 634.379C 243.899 635.225 245.077 636.197 246.168 637.288C 246.634 637.753 247.077 638.235 247.499 638.731M251.468 662.91C 252.565 660.149 253.138 657.176 253.138 654.116C 253.138 652.248 252.924 650.412 252.509 648.637C 252.924 650.412 253.138 652.248 253.138 654.117C 253.138 657.177 252.565 660.149 251.468 662.91M246.168 670.944C 246.168 670.943 246.17 670.943 246.17 670.942C 246.17 670.943 246.169 670.943 246.168 670.944M214.895 673.034C 214.062 672.396 213.266 671.698 212.512 670.944C 208.017 666.449 205.541 660.473 205.541 654.117C 205.541 647.759 208.017 641.784 212.512 637.288C 213.52 636.28 214.603 635.374 215.747 634.574C 214.603 635.374 213.52 636.28 212.512 637.288C 208.017 641.783 205.542 647.759 205.542 654.116C 205.542 660.473 208.017 666.449 212.512 670.944C 213.266 671.698 214.063 672.396 214.895 673.034" /></clipPath><clipPath id="45"><path id="" clip-rule="evenodd" transform="matrix(1 0 0 1 0 0)" d="M212.512 637.288C 208.017 641.784 205.541 647.759 205.541 654.117C 205.541 660.473 208.017 666.449 212.512 670.944C 217.007 675.439 222.984 677.914 229.34 677.914C 235.697 677.914 241.673 675.439 246.168 670.944C 250.662 666.449 253.138 660.473 253.138 654.117C 253.138 647.759 250.662 641.784 246.168 637.288C 241.673 632.794 235.697 630.318 229.34 630.318C 222.984 630.318 217.007 632.794 212.512 637.288" /></clipPath><clipPath id="46"><path id="" clip-rule="evenodd" transform="matrix(1 0 0 1 0 0)" d="M229.351 630.285L205.51 630.285L205.51 630.285L205.51 654.126L205.51 654.126L229.351 654.126z" /></clipPath><clipPath id="47"><path id="" clip-rule="evenodd" transform="matrix(1 0 0 1 0 0)" d="M229.34 677.914C 224.051 677.914 219.024 676.2 214.895 673.034C 214.063 672.396 213.266 671.698 212.512 670.944C 208.017 666.449 205.542 660.473 205.542 654.116C 205.542 647.759 208.017 641.783 212.512 637.288C 213.52 636.28 214.603 635.374 215.747 634.574C 218.052 632.964 220.608 631.786 223.315 631.083C 225.259 630.578 227.28 630.318 229.34 630.318C 232.121 630.318 234.828 630.791 237.371 631.7C 237.371 631.701 237.372 631.701 237.373 631.701C 237.374 631.701 237.375 631.702 237.376 631.702C 239.234 632.367 241.004 633.264 242.649 634.379C 243.899 635.225 245.077 636.197 246.168 637.288C 246.634 637.754 247.077 638.235 247.499 638.731C 249.952 641.617 251.655 645 252.509 648.637C 252.924 650.412 253.138 652.248 253.138 654.116C 253.138 657.176 252.565 660.149 251.468 662.91C 250.287 665.883 248.5 668.611 246.17 670.942C 246.17 670.943 246.168 670.943 246.168 670.944C 241.673 675.439 235.697 677.914 229.34 677.914" /></clipPath><clipPath id="48"><path id="" clip-rule="evenodd" transform="matrix(1 0 0 1 0 0)" d="M212.512 637.288C 208.017 641.784 205.541 647.759 205.541 654.117C 205.541 660.473 208.017 666.449 212.512 670.944C 217.007 675.439 222.984 677.914 229.34 677.914C 235.697 677.914 241.673 675.439 246.168 670.944C 250.662 666.449 253.138 660.473 253.138 654.117C 253.138 647.759 250.662 641.784 246.168 637.288C 241.673 632.794 235.697 630.318 229.34 630.318C 222.984 630.318 217.007 632.794 212.512 637.288" /></clipPath><clipPath id="49"><path id="" clip-rule="evenodd" transform="matrix(1 0 0 1 0 0)" d="M253.171 630.285L229.31 630.285L229.31 630.285L229.31 654.126L229.31 654.126L253.171 654.126z" /></clipPath><clipPath id="50"><path id="" clip-rule="evenodd" transform="matrix(1 0 0 1 0 0)" d="M229.34 677.914C 224.051 677.914 219.024 676.2 214.895 673.034C 214.063 672.396 213.266 671.698 212.512 670.944C 208.017 666.449 205.542 660.473 205.542 654.116C 205.542 647.759 208.017 641.783 212.512 637.288C 213.52 636.28 214.603 635.374 215.747 634.574C 218.052 632.964 220.608 631.786 223.315 631.083C 225.259 630.578 227.28 630.318 229.34 630.318C 232.121 630.318 234.828 630.791 237.371 631.7C 237.371 631.701 237.372 631.701 237.373 631.701C 237.374 631.701 237.375 631.702 237.376 631.702C 239.234 632.367 241.004 633.264 242.649 634.379C 243.899 635.225 245.077 636.197 246.168 637.288C 246.634 637.754 247.077 638.235 247.499 638.731C 249.952 641.617 251.655 645 252.509 648.637C 252.924 650.412 253.138 652.248 253.138 654.116C 253.138 657.176 252.565 660.149 251.468 662.91C 250.287 665.883 248.5 668.611 246.17 670.942C 246.17 670.943 246.168 670.943 246.168 670.944C 241.673 675.439 235.697 677.914 229.34 677.914" /></clipPath><clipPath id="51"><path id="" clip-rule="evenodd" transform="matrix(1 0 0 1 0 0)" d="M212.512 637.288C 208.017 641.784 205.541 647.759 205.541 654.117C 205.541 660.473 208.017 666.449 212.512 670.944C 217.007 675.439 222.984 677.914 229.34 677.914C 235.697 677.914 241.673 675.439 246.168 670.944C 250.662 666.449 253.138 660.473 253.138 654.117C 253.138 647.759 250.662 641.784 246.168 637.288C 241.673 632.794 235.697 630.318 229.34 630.318C 222.984 630.318 217.007 632.794 212.512 637.288" /></clipPath><clipPath id="52"><path id="" clip-rule="evenodd" transform="matrix(1 0 0 1 0 0)" d="M229.351 654.086L205.51 654.086L205.51 654.086L205.51 677.947L205.51 677.947L229.351 677.947z" /></clipPath><clipPath id="53"><path id="" clip-rule="evenodd" transform="matrix(1 0 0 1 0 0)" d="M229.34 677.914C 224.051 677.914 219.024 676.2 214.895 673.034C 214.063 672.396 213.266 671.698 212.512 670.944C 208.017 666.449 205.542 660.473 205.542 654.116C 205.542 647.759 208.017 641.783 212.512 637.288C 213.52 636.28 214.603 635.374 215.747 634.574C 218.052 632.964 220.608 631.786 223.315 631.083C 225.259 630.578 227.28 630.318 229.34 630.318C 232.121 630.318 234.828 630.791 237.371 631.7C 237.371 631.701 237.372 631.701 237.373 631.701C 237.374 631.701 237.375 631.702 237.376 631.702C 239.234 632.367 241.004 633.264 242.649 634.379C 243.899 635.225 245.077 636.197 246.168 637.288C 246.634 637.754 247.077 638.235 247.499 638.731C 249.952 641.617 251.655 645 252.509 648.637C 252.924 650.412 253.138 652.248 253.138 654.116C 253.138 657.176 252.565 660.149 251.468 662.91C 250.287 665.883 248.5 668.611 246.17 670.942C 246.17 670.943 246.168 670.943 246.168 670.944C 241.673 675.439 235.697 677.914 229.34 677.914" /></clipPath><clipPath id="54"><path id="" clip-rule="evenodd" transform="matrix(1 0 0 1 0 0)" d="M212.512 637.288C 208.017 641.784 205.541 647.759 205.541 654.117C 205.541 660.473 208.017 666.449 212.512 670.944C 217.007 675.439 222.984 677.914 229.34 677.914C 235.697 677.914 241.673 675.439 246.168 670.944C 250.662 666.449 253.138 660.473 253.138 654.117C 253.138 647.759 250.662 641.784 246.168 637.288C 241.673 632.794 235.697 630.318 229.34 630.318C 222.984 630.318 217.007 632.794 212.512 637.288" /></clipPath><clipPath id="55"><path id="" clip-rule="evenodd" transform="matrix(1 0 0 1 0 0)" d="M253.171 654.086L229.31 654.086L229.31 654.086L229.31 677.947L229.31 677.947L253.171 677.947z" /></clipPath><clipPath id="56"><path id="" clip-rule="evenodd" transform="matrix(1 0 0 1 0 0)" d="M229.34 677.914C 224.051 677.914 219.024 676.2 214.895 673.034C 214.063 672.396 213.266 671.698 212.512 670.944C 208.017 666.449 205.542 660.473 205.542 654.116C 205.542 647.759 208.017 641.783 212.512 637.288C 213.52 636.28 214.603 635.374 215.747 634.574C 218.052 632.964 220.608 631.786 223.315 631.083C 225.259 630.578 227.28 630.318 229.34 630.318C 232.121 630.318 234.828 630.791 237.371 631.7C 237.371 631.701 237.372 631.701 237.373 631.701C 237.374 631.701 237.375 631.702 237.376 631.702C 239.234 632.367 241.004 633.264 242.649 634.379C 243.899 635.225 245.077 636.197 246.168 637.288C 246.634 637.754 247.077 638.235 247.499 638.731C 249.952 641.617 251.655 645 252.509 648.637C 252.924 650.412 253.138 652.248 253.138 654.116C 253.138 657.176 252.565 660.149 251.468 662.91C 250.287 665.883 248.5 668.611 246.17 670.942C 246.17 670.943 246.168 670.943 246.168 670.944C 241.673 675.439 235.697 677.914 229.34 677.914" /></clipPath><clipPath id="57"><path id="" clip-rule="evenodd" transform="matrix(1 0 0 1 0 0)" d="M212.512 637.288C 208.017 641.784 205.541 647.759 205.541 654.117C 205.541 660.473 208.017 666.449 212.512 670.944C 217.007 675.439 222.984 677.914 229.34 677.914C 235.697 677.914 241.673 675.439 246.168 670.944C 250.662 666.449 253.138 660.473 253.138 654.117C 253.138 647.759 250.662 641.784 246.168 637.288C 241.673 632.794 235.697 630.318 229.34 630.318C 222.984 630.318 217.007 632.794 212.512 637.288" /></clipPath><clipPath id="58"><path id="" clip-rule="evenodd" transform="matrix(1 0 0 1 0 0)" d="M49.528 690.11L265.434 690.11L265.434 690.11L265.434 618.708L265.434 618.708L49.528 618.708L49.528 618.708L49.528 690.11" /></clipPath><clipPath id="59"><path id="" clip-rule="evenodd" transform="matrix(1 0 0 1 0 0)" d="M264.638 619.12L49.953 619.12L49.953 619.12L49.953 689.407L49.953 689.407L264.638 689.407z" /></clipPath><clipPath id="60"><path id="" clip-rule="evenodd" transform="matrix(1 0 0 1 0 0)" d="M49.98 619.14L264.66 619.14L264.66 619.14L264.66 689.4L264.66 689.4L49.98 689.4z" /></clipPath><clipPath id="61"><path id="" clip-rule="evenodd" transform="matrix(1 0 0 1 0 0)" d="M48.96 618.12L265.62 618.12L265.62 618.12L265.62 690.42L265.62 690.42L48.96 690.42z" /></clipPath><clipPath id="62"><path id="" clip-rule="evenodd" transform="matrix(1 0 0 1 0 0)" d="M0 0.02001953L595.2 0.02001953L595.2 0.02001953L595.2 842L595.2 842L0 842z" /></clipPath><clipPath id="63"><path id="" clip-rule="evenodd" transform="matrix(1 0 0 1 0 0)" d="M136.575 624.038L122.426 624.038L122.426 624.038L122.426 638.187L122.426 638.187L136.575 638.187z" /></clipPath><clipPath id="64"><path id="" clip-rule="evenodd" transform="matrix(1 0 0 1 0 0)" d="M129.501 625.276C 129.248 625.276 129.014 625.412 128.887 625.631L128.887 625.631L122.997 635.834C 122.87 636.053 122.87 636.323 122.997 636.543C 123.123 636.762 123.357 636.896 123.61 636.896L123.61 636.896L135.392 636.896C 135.645 636.896 135.878 636.762 136.006 636.543C 136.132 636.323 136.132 636.053 136.006 635.834L136.006 635.834L130.115 625.631C 129.988 625.412 129.754 625.276 129.501 625.276M136.556 638.156L122.446 638.156L122.446 638.156L122.446 624.056L122.446 624.056L136.556 624.056L136.556 624.056L136.556 638.156" /></clipPath><clipPath id="65"><path id="" clip-rule="evenodd" transform="matrix(1 0 0 1 0 0)" d="M135.392 636.207L129.501 626.004L129.501 626.004L123.611 636.207L123.611 636.207L135.392 636.207M135.392 636.896L123.61 636.896C 123.357 636.896 123.123 636.762 122.997 636.543C 122.87 636.323 122.87 636.053 122.997 635.834L122.997 635.834L128.887 625.631C 129.014 625.412 129.248 625.276 129.501 625.276C 129.754 625.276 129.988 625.412 130.115 625.631L130.115 625.631L136.006 635.834C 136.132 636.053 136.132 636.323 136.006 636.543C 135.878 636.762 135.645 636.896 135.392 636.896" /></clipPath><clipPath id="66"><path id="" clip-rule="evenodd" transform="matrix(1 0 0 1 0 0)" d="M135.392 636.207L123.611 636.207L123.611 636.207L129.501 626.004L129.501 626.004L135.392 636.207" /></clipPath><clipPath id="67"><path id="" clip-rule="evenodd" transform="matrix(1 0 0 1 0 0)" d="M18.077 1336.98L559.777 1336.98L559.777 1336.98L559.777 585.651L559.777 585.651L18.077 585.651L18.077 585.651L18.077 1336.98" /></clipPath><clipPath id="68"><path id="" clip-rule="evenodd" transform="matrix(1 0 0 1 0 0)" d="M49.528 690.11L265.434 690.11L265.434 690.11L265.434 618.708L265.434 618.708L49.528 618.708L49.528 618.708L49.528 690.11" /></clipPath><clipPath id="69"><path id="" clip-rule="evenodd" transform="matrix(1 0 0 1 0 0)" d="M264.638 619.12L49.953 619.12L49.953 619.12L49.953 689.407L49.953 689.407L264.638 689.407z" /></clipPath><clipPath id="70"><path id="" clip-rule="evenodd" transform="matrix(1 0 0 1 0 0)" d="M49.98 619.14L264.66 619.14L264.66 619.14L264.66 689.4L264.66 689.4L49.98 689.4z" /></clipPath><clipPath id="71"><path id="" clip-rule="evenodd" transform="matrix(1 0 0 1 0 0)" d="M48.96 618.12L265.62 618.12L265.62 618.12L265.62 690.42L265.62 690.42L48.96 690.42z" /></clipPath><clipPath id="72"><path id="" clip-rule="evenodd" transform="matrix(1 0 0 1 0 0)" d="M0 0.02001953L595.2 0.02001953L595.2 0.02001953L595.2 842L595.2 842L0 842z" /></clipPath></defs><g transform="matrix(1.333333 0 0 1.333333 0 0)"><g clip-path="url(#1)"><path id="153" transform="matrix(1 0 0 -1 0 842)" d="M44.94 651.98L275.7 651.98L275.7 669.98L44.94 669.98z" stroke="none" fill="#C5E0F7" fill-rule="nonzero" /><path id="156" transform="matrix(1 0 0 -1 0 842)" d="M275.7 651.98L558 651.98L558 669.98L275.7 669.98z" stroke="none" fill="#C5E0F7" fill-rule="nonzero" /><path id="458" transform="matrix(1 0 0 -1 0 842)" d="M44.94 550.34L558 550.34L558 550.82L44.94 550.82z" stroke="none" fill="#3D96E3" fill-rule="nonzero" /><path id="459" transform="matrix(1 0 0 -1 0 842)" d="M44.94 433.46L558 433.46L558 433.94L44.94 433.94z" stroke="none" fill="#3D96E3" fill-rule="nonzero" /><path id="460" transform="matrix(1 0 0 -1 0 842)" d="M44.94 312.02L558 312.02L558 312.5L44.94 312.5z" stroke="none" fill="#3D96E3" fill-rule="nonzero" /><path id="461" transform="matrix(1 0 0 -1 0 842)" d="M44.94 227.66L558 227.66L558 228.14L44.94 228.14z" stroke="none" fill="#3D96E3" fill-rule="nonzero" /><path id="462" transform="matrix(1 0 0 -1 0 842)" d="M44.94 144.44L558 144.44L558 145.94L44.94 145.94z" stroke="none" fill="#3D96E3" fill-rule="nonzero" /><g clip-path="url(#2)"><g clip-path="url(#3)"><g clip-path="url(#4)"><g transform="matrix(0.4798664 0 0 0.4783871 49.98 195)"><g transform="matrix(1 0 0 1 0 0)"><image x="0" y="0" xlink:href="img_277.png" width="449" height="186" /></g></g></g></g></g><g clip-path="url(#5)"><g clip-path="url(#6)"><g clip-path="url(#7)"><g transform="matrix(0.479867 0 0 0.4794495 49.98 296.4)"><g transform="matrix(1 0 0 1 0 0)"><image x="0" y="0" xlink:href="img_278.png" width="451" height="218" /></g></g></g></g></g><g clip-path="url(#8)"><g clip-path="url(#9)"><g clip-path="url(#10)"><g transform="matrix(0.48 0 0 0.4784211 49.98 413.28)"><g transform="matrix(1 0 0 1 0 0)"><image x="0" y="0" xlink:href="img_279.png" width="456" height="228" /></g></g></g></g></g><g clip-path="url(#11)"><g clip-path="url(#12)"><g clip-path="url(#13)"><g transform="matrix(0.4794679 0 0 0.4796 49.98 534.78)"><g transform="matrix(1 0 0 1 0 0)"><image x="0" y="0" xlink:href="img_280.png" width="451" height="150" /></g></g></g></g></g><g clip-path="url(#14)"><g clip-path="url(#15)"><g clip-path="url(#16)"><g clip-path="url(#17)"><g clip-path="url(#18)"><path id="467" transform="matrix(1 0 0 -1 0 842)" d="M49.98 152.58L264.66 152.58L264.66 222.9L49.98 222.9z" stroke="none" fill="#FFFFFF" fill-rule="nonzero" /><path id="468" transform="matrix(1 0 0 -1 0 842)" d="M49.045 151.862L265.689 151.862L265.689 151.862L265.689 223.935L265.689 223.935L49.045 223.935z" stroke="#ED008C" stroke-width="0.213" fill="none" /><path id="609" transform="matrix(1 0 0 -1 0 842)" d="M52.089 154.59L118.705 154.59L118.705 154.59L118.705 221.207L118.705 221.207L52.089 221.207z" stroke="#221E1F" stroke-width="1.7" fill="none" /><path id="610" transform="matrix(1 0 0 -1 0 842)" d="M118.716 154.59L118.716 155.44L195.183 155.44L195.183 220.357L119.566 220.357L119.566 154.59L118.716 154.59L118.716 155.44L118.716 154.59L117.866 154.59L117.866 222.057L196.883 222.057L196.883 153.74L117.866 153.74L117.866 154.59L118.716 154.59" stroke="none" fill="#221E1F" fill-rule="nonzero" /><path id="611" transform="matrix(1 0 0 -1 0 842)" d="M196.029 154.59L196.029 155.44L261.795 155.44L261.795 220.357L196.879 220.357L196.879 154.59L196.029 154.59L196.029 155.44L196.029 154.59L195.179 154.59L195.179 222.057L263.495 222.057L263.495 153.74L195.179 153.74L195.179 154.59L196.029 154.59" stroke="none" fill="#221E1F" fill-rule="nonzero" /><path id="612" transform="matrix(1 0 0 -1 0 842)" d="M118.697 200.581L196.023 200.581L196.023 221.207L118.697 221.207z" stroke="none" fill="#F8971C" fill-rule="nonzero" /><path id="613" transform="matrix(1 0 0 -1 0 842)" d="M118.697 200.581L118.697 201.431L195.173 201.431L195.173 220.357L119.547 220.357L119.547 200.581L118.697 200.581L118.697 201.431L118.697 200.581L117.847 200.581L117.847 222.057L196.873 222.057L196.873 199.731L117.847 199.731L117.847 200.581L118.697 200.581" stroke="none" fill="#221E1F" fill-rule="nonzero" /><path id="614" transform="matrix(1 0 0 -1 0 842)" d="M85.346 212.797C 83.414 212.797 81.614 211.758 80.647 210.084L80.647 210.084L58.096 171.024C 57.129 169.351 57.129 167.271 58.096 165.599C 59.062 163.925 60.863 162.885 62.795 162.885L62.795 162.885L107.897 162.885C 109.829 162.885 111.63 163.925 112.596 165.599C 113.563 167.271 113.563 169.351 112.596 171.024L112.596 171.024L90.045 210.084C 89.078 211.758 87.278 212.797 85.346 212.797" stroke="none" fill="#F4C832" fill-rule="nonzero" /><path id="615" transform="matrix(1 0 0 -1 0 842)" d="M85.346 210.158C 86.315 210.158 87.211 209.641 87.695 208.801L87.695 208.801L110.247 169.741C 110.731 168.902 110.731 167.867 110.247 167.028C 109.762 166.189 108.867 165.672 107.897 165.672L107.897 165.672L62.795 165.672C 61.826 165.672 60.93 166.189 60.445 167.028C 59.961 167.867 59.961 168.902 60.445 169.741L60.445 169.741L82.996 208.801C 83.481 209.641 84.377 210.158 85.346 210.158" stroke="none" fill="#221E1F" fill-rule="nonzero" /><path id="616" transform="matrix(1 0 0 -1 0 842)" d="M107.897 168.311L62.794 168.311L85.346 207.371L107.897 168.311" stroke="none" fill="#F4C832" fill-rule="nonzero" /></g></g></g></g></g><g clip-path="url(#19)"><g clip-path="url(#20)"><g transform="matrix(0.4799115 0 0 0.4781053 58.254 627.014)"><g transform="matrix(1 0 0 1 0 0)"><image x="0" y="0" xlink:href="img_281.png" width="113" height="57" /></g></g></g></g><g clip-path="url(#21)"><g clip-path="url(#22)"><g transform="matrix(0.4799115 0 0 0.4781053 58.254 654.074)"><g transform="matrix(1 0 0 1 0 0)"><image x="0" y="0" xlink:href="img_282.png" width="113" height="57" /></g></g></g></g><g clip-path="url(#23)"><g clip-path="url(#24)"><g transform="matrix(0.47992 0 0 0.4756981 67.365 629.054)"><g transform="matrix(1 0 0 1 0 0)"><image x="0" y="0" xlink:href="img_283.png" width="75" height="53" /></g></g></g></g><g clip-path="url(#25)"><g clip-path="url(#26)"><g transform="matrix(0.4799115 0 0 0.4756981 58.254 654.074)"><g transform="matrix(1 0 0 1 0 0)"><image x="0" y="0" xlink:href="img_284.png" width="113" height="53" /></g></g></g></g><g clip-path="url(#27)"><g transform="matrix(0.4778037 0 0 0.480129 59.874 631.754)"><g transform="matrix(1 0 0 1 0 0)"><image x="0" y="0" xlink:href="img_285.png" width="107" height="93" /></g></g></g><g clip-path="url(#28)"><g transform="matrix(0.4775579 0 0 0.4779512 62.754 634.574)"><g transform="matrix(1 0 0 1 0 0)"><image x="0" y="0" xlink:href="img_286.png" width="95" height="82" /></g></g></g><g clip-path="url(#29)"><g clip-path="url(#30)"><g clip-path="url(#31)"><g clip-path="url(#32)"><g clip-path="url(#33)"><path id="623" transform="matrix(1 0 0 -1 0 842)" d="M229.34 164.086C 222.983 164.086 217.007 166.561 212.512 171.056C 208.017 175.551 205.542 181.528 205.542 187.884C 205.542 194.241 208.017 200.217 212.512 204.712C 217.007 209.207 222.983 211.682 229.34 211.682C 235.696 211.682 241.673 209.207 246.168 204.712C 250.663 200.217 253.138 194.241 253.138 187.884C 253.138 181.528 250.663 175.551 246.168 171.056C 241.673 166.561 235.696 164.086 229.34 164.086" stroke="none" fill="#005386" fill-rule="nonzero" /></g></g></g></g></g><g clip-path="url(#34)"><g clip-path="url(#35)"><g clip-path="url(#36)"><g transform="matrix(0.48 0 0 0.4776 205.494 630.254)"><g transform="matrix(1 0 0 1 0 0)"><image x="0" y="0" xlink:href="img_287.png" width="50" height="45" /></g></g></g></g></g><g clip-path="url(#37)"><g clip-path="url(#38)"><g clip-path="url(#39)"><g transform="matrix(0.48 0 0 0.4776 229.314 630.254)"><g transform="matrix(1 0 0 1 0 0)"><image x="0" y="0" xlink:href="img_287.png" width="50" height="45" /></g></g></g></g></g><g clip-path="url(#40)"><g clip-path="url(#41)"><g clip-path="url(#42)"><g transform="matrix(0.4685619 0 0 0.4776 205.494 651.614)"><g transform="matrix(1 0 0 1 0 0)"><image x="0" y="0" xlink:href="img_288.png" width="21" height="45" /></g></g></g></g></g><g clip-path="url(#43)"><g clip-path="url(#44)"><g clip-path="url(#45)"><g transform="matrix(0.4649937 0 0 0.4688333 245.814 651.614)"><g transform="matrix(1 0 0 1 0 0)"><image x="0" y="0" xlink:href="img_289.png" width="16" height="42" /></g></g></g></g></g><g clip-path="url(#46)"><g clip-path="url(#47)"><g clip-path="url(#48)"><g transform="matrix(0.48 0 0 0.47784 205.494 630.254)"><g transform="matrix(1 0 0 1 0 0)"><image x="0" y="0" xlink:href="img_290.png" width="50" height="50" /></g></g></g></g></g><g clip-path="url(#49)"><g clip-path="url(#50)"><g clip-path="url(#51)"><g transform="matrix(0.47998 0 0 0.47784 229.254 630.254)"><g transform="matrix(1 0 0 1 0 0)"><image x="0" y="0" xlink:href="img_291.png" width="50" height="50" /></g></g></g></g></g><g clip-path="url(#52)"><g clip-path="url(#53)"><g clip-path="url(#54)"><g transform="matrix(0.48 0 0 0.47784 205.494 654.074)"><g transform="matrix(1 0 0 1 0 0)"><image x="0" y="0" xlink:href="img_292.png" width="50" height="50" /></g></g></g></g></g><g clip-path="url(#55)"><g clip-path="url(#56)"><g clip-path="url(#57)"><g transform="matrix(0.47998 0 0 0.47784 229.254 654.074)"><g transform="matrix(1 0 0 1 0 0)"><image x="0" y="0" xlink:href="img_293.png" width="50" height="50" /></g></g></g></g></g><g clip-path="url(#58)"><g clip-path="url(#59)"><g clip-path="url(#60)"><g clip-path="url(#61)"><g clip-path="url(#62)"><path id="632" transform="matrix(1 0 0 -1 0 842)" d="M229.34 211.977C 226.088 211.977 222.933 211.34 219.962 210.084C 217.093 208.87 214.516 207.134 212.304 204.921C 210.091 202.708 208.354 200.132 207.141 197.263C 205.884 194.292 205.247 191.137 205.247 187.885C 205.247 184.633 205.884 181.477 207.141 178.506C 208.354 175.637 210.091 173.06 212.304 170.848C 214.516 168.636 217.093 166.898 219.962 165.685C 222.933 164.428 226.088 163.792 229.34 163.792C 232.592 163.792 235.747 164.428 238.718 165.685C 241.587 166.898 244.164 168.636 246.376 170.848C 248.589 173.06 250.326 175.637 251.539 178.506C 252.796 181.477 253.433 184.633 253.433 187.885C 253.433 191.137 252.796 194.292 251.539 197.263C 250.326 200.132 248.589 202.708 246.376 204.921C 244.164 207.134 241.587 208.87 238.718 210.084C 235.747 211.34 232.592 211.977 229.34 211.977M229.34 211.388C 242.321 211.388 252.844 200.865 252.844 187.885C 252.844 174.904 242.321 164.381 229.34 164.381C 216.359 164.381 205.836 174.904 205.836 187.885C 205.836 200.865 216.359 211.388 229.34 211.388" stroke="none" fill="#FFFFFF" fill-rule="nonzero" /><path id="640" transform="matrix(1 0 0 -1 0 842)" d="M129.501 216.724C 129.754 216.724 129.988 216.589 130.115 216.37L130.115 216.37L136.006 206.167C 136.132 205.947 136.132 205.677 136.006 205.458C 135.878 205.238 135.644 205.104 135.392 205.104L135.392 205.104L123.61 205.104C 123.357 205.104 123.123 205.238 122.996 205.458C 122.87 205.677 122.87 205.947 122.996 206.167L122.996 206.167L128.887 216.37C 129.014 216.589 129.248 216.724 129.501 216.724" stroke="none" fill="#221E1F" fill-rule="nonzero" /><path id="641" transform="matrix(1 0 0 -1 0 842)" d="M135.392 205.793L123.61 205.793L129.501 215.996L135.392 205.793" stroke="none" fill="#F4C832" fill-rule="nonzero" /></g></g></g></g></g><g clip-path="url(#63)"><g clip-path="url(#64)"><g transform="matrix(0.4799667 0 0 0.4744 122.394 624.014)"><g transform="matrix(1 0 0 1 0 0)"><image x="0" y="0" xlink:href="img_294.png" width="30" height="30" /></g></g></g></g><g clip-path="url(#65)"><g transform="matrix(0.4799643 0 0 0.46848 122.814 625.214)"><g transform="matrix(1 0 0 1 0 0)"><image x="0" y="0" xlink:href="img_295.png" width="28" height="25" /></g></g></g><g clip-path="url(#66)"><g transform="matrix(0.48 0 0 0.4696364 123.594 625.934)"><g transform="matrix(1 0 0 1 0 0)"><image x="0" y="0" xlink:href="img_296.png" width="25" height="22" /></g></g></g><g clip-path="url(#67)"><g clip-path="url(#68)"><g clip-path="url(#69)"><g clip-path="url(#70)"><g clip-path="url(#71)"><g clip-path="url(#72)"></g></g></g></g></g></g></g></g></svg>