<svg xmlns="http://www.w3.org/2000/svg" xmlns:xlink="http://www.w3.org/1999/xlink" id="body_178" preserveAspectRatio="xMinYMin meet" viewBox="0 0 793 1123"><defs><clipPath id="1"><path id="" clip-rule="evenodd" transform="matrix(1 0 0 1 0 0)" d="M0 842L0 0L0 0L595 0L595 0L595 842L595 842L0 842z" /></clipPath><clipPath id="2"><path id="" clip-rule="evenodd" transform="matrix(1 0 0 1 0 0)" d="M216.96 412.92L515.28 412.92L515.28 412.92L515.28 527.88L515.28 527.88L216.96 527.88z" /></clipPath><clipPath id="3"><path id="" clip-rule="evenodd" transform="matrix(1 0 0 1 0 0)" d="M215.94 411.9L516.3 411.9L516.3 411.9L516.3 528.9L516.3 528.9L215.94 528.9z" /></clipPath><clipPath id="4"><path id="" clip-rule="evenodd" transform="matrix(1 0 0 1 0 0)" d="M0 0.02001953L595.2 0.02001953L595.2 0.02001953L595.2 842L595.2 842L0 842z" /></clipPath><clipPath id="5"><path id="" clip-rule="evenodd" transform="matrix(1 0 0 1 0 0)" d="M215.94 411.9L516.3 411.9L516.3 411.9L516.3 528.9L516.3 528.9L215.94 528.9z" /></clipPath><clipPath id="6"><path id="" clip-rule="evenodd" transform="matrix(1 0 0 1 0 0)" d="M0 0.02001953L595.2 0.02001953L595.2 0.02001953L595.2 842L595.2 842L0 842z" /></clipPath><clipPath id="7"><path id="" clip-rule="evenodd" transform="matrix(1 0 0 1 0 0)" d="M115.56 615.9L193.98 615.9L193.98 615.9L193.98 630.3L193.98 630.3L115.56 630.3z" /></clipPath><clipPath id="8"><path id="" clip-rule="evenodd" transform="matrix(1 0 0 1 0 0)" d="M0 0.02001953L595.2 0.02001953L595.2 0.02001953L595.2 842L595.2 842L0 842z" /></clipPath><clipPath id="9"><path id="" clip-rule="evenodd" transform="matrix(1 0 0 1 0 0)" d="M115.98 616.38L189.36 616.38L189.36 616.38L189.36 630.18L189.36 630.18L115.98 630.18z" /></clipPath><clipPath id="10"><path id="" clip-rule="evenodd" transform="matrix(1 0 0 1 0 0)" d="M115.56 615.9L193.98 615.9L193.98 615.9L193.98 630.3L193.98 630.3L115.56 630.3z" /></clipPath><clipPath id="11"><path id="" clip-rule="evenodd" transform="matrix(1 0 0 1 0 0)" d="M0 0.02001953L595.2 0.02001953L595.2 0.02001953L595.2 842L595.2 842L0 842z" /></clipPath></defs><g transform="matrix(1.333333 0 0 1.333333 0 0)"><g clip-path="url(#1)"><g clip-path="url(#2)"><g clip-path="url(#3)"><g clip-path="url(#4)"><g transform="matrix(0.4796141 0 0 0.479 216.96 412.92)"><g transform="matrix(1 0 0 1 0 0)"><image x="0" y="0" xlink:href="img_223.png" width="622" height="240" /></g></g></g></g></g><g clip-path="url(#5)"><g clip-path="url(#6)"><path id="549" transform="matrix(1 0 0 -1 0 842)" d="M239.88 408.38L240.9 408.38L240.9 408.86L239.88 408.86z" stroke="none" fill="#000000" fill-rule="nonzero" /><path id="550" transform="matrix(1 0 0 -1 0 842)" d="M240.24 376.4L241.26 376.4L241.26 376.88L240.24 376.88z" stroke="none" fill="#000000" fill-rule="nonzero" /><path id="551" transform="matrix(1 0 0 -1 0 842)" d="M240.9 408.38L239.88 408.38L240.24 376.88L241.26 376.88" stroke="none" fill="#000000" fill-rule="nonzero" /><path id="552" transform="matrix(1 0 0 -1 0 842)" d="M224.94 410.3L263.34 410.3L263.34 421.1L224.94 421.1z" stroke="none" fill="#FFFFFF" fill-rule="nonzero" /><path id="556" transform="matrix(1 0 0 -1 0 842)" d="M312.6 414.74L313.62 414.74L313.62 415.22L312.6 415.22z" stroke="none" fill="#000000" fill-rule="nonzero" /><path id="557" transform="matrix(1 0 0 -1 0 842)" d="M312.06 342.5L313.08 342.5L313.08 342.98L312.06 342.98z" stroke="none" fill="#000000" fill-rule="nonzero" /><path id="558" transform="matrix(1 0 0 -1 0 842)" d="M313.62 414.74L312.6 414.74L312.06 342.98L313.08 342.98" stroke="none" fill="#000000" fill-rule="nonzero" /><path id="559" transform="matrix(1 0 0 -1 0 842)" d="M291.36 329.96L356.94 329.96L356.94 340.76L291.36 340.76z" stroke="none" fill="#FFFFFF" fill-rule="nonzero" /><path id="566" transform="matrix(1 0 0 -1 0 842)" d="M343.86 353.9L370.26 353.9L370.26 364.7L343.86 364.7z" stroke="none" fill="#FFFFFF" fill-rule="nonzero" /><path id="569" transform="matrix(1 0 0 -1 0 842)" d="M331.38 360.56L332.4 360.56L332.4 410.36L331.38 410.36z" stroke="none" fill="#000000" fill-rule="nonzero" /><path id="570" transform="matrix(1 0 0 -1 0 842)" d="M331.86 360.56L342.06 360.56L342.06 361.58L331.86 361.58z" stroke="none" fill="#000000" fill-rule="nonzero" /></g></g><g clip-path="url(#7)"><g clip-path="url(#8)"><path id="571" transform="matrix(1 0 0 -1 0 842)" d="M115.56 211.7L193.98 211.7L193.98 226.1L115.56 226.1z" stroke="none" fill="#FFFFFF" fill-rule="nonzero" /></g></g><g clip-path="url(#9)"><g clip-path="url(#10)"><g clip-path="url(#11)"><g transform="matrix(0.7265346 0 0 0.7263158 115.98 616.38)"><g transform="matrix(1 0 0 1 0 0)"><image x="0" y="0" xlink:href="img_09.png" width="101" height="19" /></g></g></g></g></g><path id="573" transform="matrix(1 0 0 -1 0 842)" d="M215.94 230.12L549 230.12L549 98.17999L215.94 98.17999" stroke="none" fill="#ECF5FC" fill-rule="nonzero" /></g></g></svg>