<svg xmlns="http://www.w3.org/2000/svg" xmlns:xlink="http://www.w3.org/1999/xlink" id="body_44" preserveAspectRatio="xMinYMin meet" viewBox="0 0 793 1123"><defs><clipPath id="1"><path id="" clip-rule="evenodd" transform="matrix(1 0 0 1 0 0)" d="M0 842L0 0L0 0L595 0L595 0L595 842L595 842L0 842z" /></clipPath><clipPath id="2"><path id="" clip-rule="evenodd" transform="matrix(1 0 0 1 0 0)" d="M36.96 274.08L245.76 274.08L245.76 274.08L245.76 456.84L245.76 456.84L36.96 456.84z" /></clipPath><clipPath id="3"><path id="" clip-rule="evenodd" transform="matrix(1 0 0 1 0 0)" d="M35.94 271.98L504.84 271.98L504.84 271.98L504.84 458.94L504.84 458.94L35.94 458.94z" /></clipPath><clipPath id="4"><path id="" clip-rule="evenodd" transform="matrix(1 0 0 1 0 0)" d="M0 0.02001953L595.2 0.02001953L595.2 0.02001953L595.2 842L595.2 842L0 842z" /></clipPath><clipPath id="5"><path id="" clip-rule="evenodd" transform="matrix(1 0 0 1 0 0)" d="M285.24 272.94L503.82 272.94L503.82 272.94L503.82 457.92L503.82 457.92L285.24 457.92z" /></clipPath><clipPath id="6"><path id="" clip-rule="evenodd" transform="matrix(1 0 0 1 0 0)" d="M35.94 271.98L504.84 271.98L504.84 271.98L504.84 458.94L504.84 458.94L35.94 458.94z" /></clipPath><clipPath id="7"><path id="" clip-rule="evenodd" transform="matrix(1 0 0 1 0 0)" d="M0 0.02001953L595.2 0.02001953L595.2 0.02001953L595.2 842L595.2 842L0 842z" /></clipPath><clipPath id="8"><path id="" clip-rule="evenodd" transform="matrix(1 0 0 1 0 0)" d="M35.94 271.98L504.84 271.98L504.84 271.98L504.84 458.94L504.84 458.94L35.94 458.94z" /></clipPath><clipPath id="9"><path id="" clip-rule="evenodd" transform="matrix(1 0 0 1 0 0)" d="M0 0.02001953L595.2 0.02001953L595.2 0.02001953L595.2 842L595.2 842L0 842z" /></clipPath><clipPath id="10"><path id="" clip-rule="evenodd" transform="matrix(1 0 0 1 0 0)" d="M216.96 575.94L365.46 575.94L365.46 575.94L365.46 735L365.46 735L216.96 735z" /></clipPath><clipPath id="11"><path id="" clip-rule="evenodd" transform="matrix(1 0 0 1 0 0)" d="M215.94 574.92L366.48 574.92L366.48 574.92L366.48 735.96L366.48 735.96L215.94 735.96z" /></clipPath><clipPath id="12"><path id="" clip-rule="evenodd" transform="matrix(1 0 0 1 0 0)" d="M0 0.02001953L595.2 0.02001953L595.2 0.02001953L595.2 842L595.2 842L0 842z" /></clipPath></defs><g transform="matrix(1.333333 0 0 1.333333 0 0)"><g clip-path="url(#1)"><g clip-path="url(#2)"><g clip-path="url(#3)"><g clip-path="url(#4)"><g transform="matrix(0.48 0 0 0.479685 36.96 274.08)"><g transform="matrix(1 0 0 1 0 0)"><image x="0" y="0" xlink:href="img_110.png" width="435" height="381" /></g></g></g></g></g><g clip-path="url(#5)"><g clip-path="url(#6)"><g clip-path="url(#7)"><g transform="matrix(0.4793421 0 0 0.4792228 285.24 272.94)"><g transform="matrix(1 0 0 1 0 0)"><image x="0" y="0" xlink:href="img_111.png" width="456" height="386" /></g></g></g></g></g><g clip-path="url(#8)"><g clip-path="url(#9)"><path id="379" transform="matrix(1 0 0 -1 0 842)" d="M171.12 532.58L213.84 532.58L213.84 544.58L171.12 544.58z" stroke="none" fill="#FFFFFF" fill-rule="nonzero" /><path id="382" transform="matrix(1 0 0 -1 0 842)" d="M308.1 514.58L346.38 514.58L346.38 526.58L308.1 526.58z" stroke="none" fill="#FFFFFF" fill-rule="nonzero" /><path id="385" transform="matrix(1 0 0 -1 0 842)" d="M393.96 487.28L394.92 487.28L394.92 489.26L393.96 489.26z" stroke="none" fill="#FFFFFF" fill-rule="nonzero" /><path id="386" transform="matrix(1 0 0 -1 0 842)" d="M394.92 487.28L420.72 487.28L420.72 489.26L394.92 489.26z" stroke="none" fill="#FFFFFF" fill-rule="nonzero" /><path id="387" transform="matrix(1 0 0 -1 0 842)" d="M127.62 508.28L128.58 508.28L128.58 510.26L127.62 510.26z" stroke="none" fill="#FFFFFF" fill-rule="nonzero" /><path id="388" transform="matrix(1 0 0 -1 0 842)" d="M128.58 508.28L157.14 508.28L157.14 510.26L128.58 510.26z" stroke="none" fill="#FFFFFF" fill-rule="nonzero" /><path id="389" transform="matrix(1 0 0 -1 0 842)" d="M422.64 478.04L484.86 478.04L484.86 501.32L422.64 501.32z" stroke="none" fill="#FFFFFF" fill-rule="nonzero" /><path id="399" transform="matrix(1 0 0 -1 0 842)" d="M157.62 498.32L211.62 498.32L211.62 522.32L157.62 522.32z" stroke="none" fill="#FFFFFF" fill-rule="nonzero" /><path id="410" transform="matrix(1 0 0 -1 0 842)" d="M258.18 494.3L258.18 494.12L258.18 494.12L258.24 493.94L258.24 493.94L258.3 493.76L258.3 493.76L258.42 493.58L258.42 493.58L258.6 493.46L258.6 493.46L258.96 493.34L258.96 493.34L259.38 493.34L259.38 493.34L259.74 493.46L259.74 493.46L259.86 493.58L259.86 493.58L260.1 493.94L260.1 493.94L260.16 494.12L260.16 494.12L260.16 494.54L260.16 494.54L260.1 494.72L260.1 494.72L259.98 494.84L259.98 494.84L259.86 495.02L259.86 495.02L259.74 495.14L259.74 495.14L259.56 495.26L259.56 495.26L259.38 495.26L259.38 495.26L259.14 495.32L259.14 495.32L258.96 495.26L258.96 495.26L258.78 495.26L258.78 495.26L258.42 495.02L258.42 495.02L258.3 494.84L258.3 494.84L258.24 494.72L258.24 494.72L258.18 494.54L258.18 494.54L258.18 494.3" stroke="none" fill="#000000" fill-rule="evenodd" /><path id="411" transform="matrix(1 0 0 -1 0 842)" d="M259.14 494.3L259.14 489.86L258.42 490.28L252.12 493.88L251.34 494.36L252.06 494.78L258.36 498.44L259.14 498.92L259.14 497.96L258.9 497.54L252.6 493.88L252.06 494.78L252.6 494.78L258.9 491.18L258.42 490.28L258.12 490.7L258.12 494.3" stroke="none" fill="#000000" fill-rule="nonzero" /><path id="412" transform="matrix(1 0 0 -1 0 842)" d="M258.12 494.3L259.14 494.3L259.14 497.96L258.12 497.96z" stroke="none" fill="#000000" fill-rule="nonzero" /><path id="413" transform="matrix(1 0 0 -1 0 842)" d="M258.66 494.3L258.66 490.7L258.66 490.7L252.36 494.3L252.36 494.3L258.66 497.96" stroke="none" fill="#000000" fill-rule="evenodd" /><path id="414" transform="matrix(1 0 0 -1 0 842)" d="M271.56 494.3L271.56 494.54L271.56 494.54L271.5 494.72L271.5 494.72L271.38 494.84L271.38 494.84L271.26 495.02L271.26 495.02L271.14 495.14L271.14 495.14L270.96 495.26L270.96 495.26L270.78 495.26L270.78 495.26L270.54 495.32L270.54 495.32L270.36 495.26L270.36 495.26L270.18 495.26L270.18 495.26L270 495.14L270 495.14L269.88 495.02L269.88 495.02L269.76 494.84L269.76 494.84L269.64 494.72L269.64 494.72L269.58 494.54L269.58 494.54L269.58 494.12L269.58 494.12L269.64 493.94L269.64 493.94L269.88 493.58L269.88 493.58L270 493.46L270 493.46L270.36 493.34L270.36 493.34L270.78 493.34L270.78 493.34L271.14 493.46L271.14 493.46L271.26 493.58L271.26 493.58L271.5 493.94L271.5 493.94L271.56 494.12L271.56 494.12L271.56 494.3" stroke="none" fill="#000000" fill-rule="evenodd" /><path id="415" transform="matrix(1 0 0 -1 0 842)" d="M270.6 494.3L270.6 498.86L271.38 498.38L277.68 494.72L278.46 494.3L271.32 490.22L270.6 489.8L270.6 490.7L270.84 491.12L277.14 494.72L277.62 493.82L277.14 493.82L270.84 497.48L271.38 498.38L271.62 497.96L271.62 494.3" stroke="none" fill="#000000" fill-rule="nonzero" /><path id="416" transform="matrix(1 0 0 -1 0 842)" d="M270.6 490.7L271.62 490.7L271.62 494.3L270.6 494.3z" stroke="none" fill="#000000" fill-rule="nonzero" /><path id="417" transform="matrix(1 0 0 -1 0 842)" d="M271.08 494.3L271.08 497.96L271.08 497.96L277.38 494.3L277.38 494.3L271.08 490.7" stroke="none" fill="#000000" fill-rule="evenodd" /><path id="418" transform="matrix(1 0 0 -1 0 842)" d="M258.18 493.28L259.14 493.28L259.14 495.26L258.18 495.26z" stroke="none" fill="#000000" fill-rule="nonzero" /><path id="419" transform="matrix(1 0 0 -1 0 842)" d="M259.14 493.28L271.5 493.28L271.5 495.26L259.14 495.26z" stroke="none" fill="#000000" fill-rule="nonzero" /></g></g><g clip-path="url(#10)"><g clip-path="url(#11)"><g clip-path="url(#12)"><g transform="matrix(0.4790322 0 0 0.4790964 216.96 575.94)"><g transform="matrix(1 0 0 1 0 0)"><image x="0" y="0" xlink:href="img_112.png" width="310" height="332" /></g></g></g></g></g></g></g></svg>