<svg xmlns="http://www.w3.org/2000/svg" xmlns:xlink="http://www.w3.org/1999/xlink" id="body_250" preserveAspectRatio="xMinYMin meet" viewBox="0 0 793 1123"><defs><clipPath id="1"><path id="" clip-rule="evenodd" transform="matrix(1 0 0 1 0 0)" d="M0 842L0 0L0 0L595 0L595 0L595 842L595 842L0 842z" /></clipPath><clipPath id="2"><path id="" clip-rule="evenodd" transform="matrix(1 0 0 1 0 0)" d="M225.96 115.02L343.26 115.02L343.26 115.02L343.26 248.4L343.26 248.4L225.96 248.4z" /></clipPath><clipPath id="3"><path id="" clip-rule="evenodd" transform="matrix(1 0 0 1 0 0)" d="M224.94 114L344.28 114L344.28 114L344.28 249.42L344.28 249.42L224.94 249.42z" /></clipPath><clipPath id="4"><path id="" clip-rule="evenodd" transform="matrix(1 0 0 1 0 0)" d="M0 0.02001953L595.2 0.02001953L595.2 0.02001953L595.2 842L595.2 842L0 842z" /></clipPath><clipPath id="5"><path id="" clip-rule="evenodd" transform="matrix(1 0 0 1 0 0)" d="M225.96 383.4L378.36 383.4L378.36 383.4L378.36 487.44L378.36 487.44L225.96 487.44z" /></clipPath><clipPath id="6"><path id="" clip-rule="evenodd" transform="matrix(1 0 0 1 0 0)" d="M224.94 382.38L547.8 382.38L547.8 382.38L547.8 495.48L547.8 495.48L224.94 495.48z" /></clipPath><clipPath id="7"><path id="" clip-rule="evenodd" transform="matrix(1 0 0 1 0 0)" d="M0 0.02001953L595.2 0.02001953L595.2 0.02001953L595.2 842L595.2 842L0 842z" /></clipPath><clipPath id="8"><path id="" clip-rule="evenodd" transform="matrix(1 0 0 1 0 0)" d="M408.54 383.4L546.78 383.4L546.78 383.4L546.78 494.46L546.78 494.46L408.54 494.46z" /></clipPath><clipPath id="9"><path id="" clip-rule="evenodd" transform="matrix(1 0 0 1 0 0)" d="M224.94 382.38L547.8 382.38L547.8 382.38L547.8 495.48L547.8 495.48L224.94 495.48z" /></clipPath><clipPath id="10"><path id="" clip-rule="evenodd" transform="matrix(1 0 0 1 0 0)" d="M0 0.02001953L595.2 0.02001953L595.2 0.02001953L595.2 842L595.2 842L0 842z" /></clipPath><clipPath id="11"><path id="" clip-rule="evenodd" transform="matrix(1 0 0 1 0 0)" d="M224.94 382.38L547.8 382.38L547.8 382.38L547.8 495.48L547.8 495.48L224.94 495.48z" /></clipPath><clipPath id="12"><path id="" clip-rule="evenodd" transform="matrix(1 0 0 1 0 0)" d="M0 0.02001953L595.2 0.02001953L595.2 0.02001953L595.2 842L595.2 842L0 842z" /></clipPath><clipPath id="13"><path id="" clip-rule="evenodd" transform="matrix(1 0 0 1 0 0)" d="M225.96 605.46L328.26 605.46L328.26 605.46L328.26 735.12L328.26 735.12L225.96 735.12z" /></clipPath><clipPath id="14"><path id="" clip-rule="evenodd" transform="matrix(1 0 0 1 0 0)" d="M224.94 604.44L454.38 604.44L454.38 604.44L454.38 736.14L454.38 736.14L224.94 736.14z" /></clipPath><clipPath id="15"><path id="" clip-rule="evenodd" transform="matrix(1 0 0 1 0 0)" d="M0 0.02001953L595.2 0.02001953L595.2 0.02001953L595.2 842L595.2 842L0 842z" /></clipPath><clipPath id="16"><path id="" clip-rule="evenodd" transform="matrix(1 0 0 1 0 0)" d="M366.9 605.46L453.36 605.46L453.36 605.46L453.36 733.74L453.36 733.74L366.9 733.74z" /></clipPath><clipPath id="17"><path id="" clip-rule="evenodd" transform="matrix(1 0 0 1 0 0)" d="M224.94 604.44L454.38 604.44L454.38 604.44L454.38 736.14L454.38 736.14L224.94 736.14z" /></clipPath><clipPath id="18"><path id="" clip-rule="evenodd" transform="matrix(1 0 0 1 0 0)" d="M0 0.02001953L595.2 0.02001953L595.2 0.02001953L595.2 842L595.2 842L0 842z" /></clipPath><clipPath id="19"><path id="" clip-rule="evenodd" transform="matrix(1 0 0 1 0 0)" d="M224.94 604.44L454.38 604.44L454.38 604.44L454.38 736.14L454.38 736.14L224.94 736.14z" /></clipPath><clipPath id="20"><path id="" clip-rule="evenodd" transform="matrix(1 0 0 1 0 0)" d="M0 0.02001953L595.2 0.02001953L595.2 0.02001953L595.2 842L595.2 842L0 842z" /></clipPath></defs><g transform="matrix(1.333333 0 0 1.333333 0 0)"><g clip-path="url(#1)"><g clip-path="url(#2)"><g clip-path="url(#3)"><g clip-path="url(#4)"><g transform="matrix(0.4794489 0 0 0.4797842 225.96 115.02)"><g transform="matrix(1 0 0 1 0 0)"><image x="0" y="0" xlink:href="img_729.png" width="245" height="278" /></g></g></g></g></g><g clip-path="url(#5)"><g clip-path="url(#6)"><g clip-path="url(#7)"><g transform="matrix(0.4792452 0 0 0.479447 225.96 383.4)"><g transform="matrix(1 0 0 1 0 0)"><image x="0" y="0" xlink:href="img_730.png" width="318" height="217" /></g></g></g></g></g><g clip-path="url(#8)"><g clip-path="url(#9)"><g clip-path="url(#10)"><g transform="matrix(0.4783391 0 0 0.4787069 408.54 383.4)"><g transform="matrix(1 0 0 1 0 0)"><image x="0" y="0" xlink:href="img_731.png" width="289" height="232" /></g></g></g></g></g><g clip-path="url(#11)"><g clip-path="url(#12)"><path id="288" transform="matrix(1 0 0 -1 0 842)" d="M398.88 405.98L398.88 406.16L398.88 406.16L398.82 406.34L398.82 406.34L398.58 406.7L398.58 406.7L398.46 406.82L398.46 406.82L398.1 406.94L398.1 406.94L397.86 407L397.86 407L397.32 406.82L397.32 406.82L397.2 406.7L397.2 406.7L396.96 406.34L396.96 406.34L396.9 406.16L396.9 406.16L396.9 405.8L396.9 405.8L396.96 405.62L396.96 405.62L397.2 405.26L397.2 405.26L397.32 405.14L397.32 405.14L397.86 404.96L397.86 404.96L398.1 405.02L398.1 405.02L398.46 405.14L398.46 405.14L398.58 405.26L398.58 405.26L398.82 405.62L398.82 405.62L398.88 405.8L398.88 405.8L398.88 405.98" stroke="none" fill="#000000" fill-rule="evenodd" /><path id="289" transform="matrix(1 0 0 -1 0 842)" d="M397.92 405.98L397.92 410.54L398.7 410.06L405 406.4L405.84 405.98L405 405.5L398.7 401.84L397.92 401.36L397.92 402.32L398.16 402.74L404.46 406.4L405 405.5L404.46 405.5L398.16 409.16L398.7 410.06L398.94 409.64L398.94 405.98" stroke="none" fill="#000000" fill-rule="nonzero" /><path id="290" transform="matrix(1 0 0 -1 0 842)" d="M397.92 402.32L398.94 402.32L398.94 405.98L397.92 405.98z" stroke="none" fill="#000000" fill-rule="nonzero" /><path id="291" transform="matrix(1 0 0 -1 0 842)" d="M398.4 405.98L398.4 409.64L398.4 409.64L404.7 405.98L404.7 405.98L398.4 402.32" stroke="none" fill="#000000" fill-rule="evenodd" /><path id="292" transform="matrix(1 0 0 -1 0 842)" d="M382.32 404.96L383.28 404.96L383.28 406.94L382.32 406.94z" stroke="none" fill="#000000" fill-rule="nonzero" /><path id="293" transform="matrix(1 0 0 -1 0 842)" d="M383.28 404.96L398.82 404.96L398.82 406.94L383.28 406.94z" stroke="none" fill="#000000" fill-rule="nonzero" /></g></g><g clip-path="url(#13)"><g clip-path="url(#14)"><g clip-path="url(#15)"><g transform="matrix(0.4784673 0 0 0.4784502 225.96 605.46)"><g transform="matrix(1 0 0 1 0 0)"><image x="0" y="0" xlink:href="img_732.png" width="214" height="271" /></g></g></g></g></g><g clip-path="url(#16)"><g clip-path="url(#17)"><g clip-path="url(#18)"><g transform="matrix(0.4783702 0 0 0.4786567 366.9 605.46)"><g transform="matrix(1 0 0 1 0 0)"><image x="0" y="0" xlink:href="img_733.png" width="181" height="268" /></g></g></g></g></g><g clip-path="url(#19)"><g clip-path="url(#20)"><path id="296" transform="matrix(1 0 0 -1 0 842)" d="M354.18 175.1L354.18 175.28L354.18 175.28L354.12 175.52L354.12 175.52L354 175.64L354 175.64L353.88 175.82L353.88 175.82L353.76 175.94L353.76 175.94L353.4 176.06L353.4 176.06L353.16 176.12L353.16 176.12L352.62 175.94L352.62 175.94L352.44 175.82L352.44 175.82L352.32 175.64L352.32 175.64L352.26 175.52L352.26 175.52L352.2 175.28L352.2 175.28L352.2 174.92L352.2 174.92L352.32 174.56L352.32 174.56L352.44 174.38L352.44 174.38L352.62 174.26L352.62 174.26L353.16 174.08L353.16 174.08L353.4 174.14L353.4 174.14L353.76 174.26L353.76 174.26L353.88 174.38L353.88 174.38L354 174.56L354 174.56L354.12 174.74L354.12 174.74L354.18 174.92L354.18 174.92L354.18 175.1" stroke="none" fill="#000000" fill-rule="evenodd" /><path id="297" transform="matrix(1 0 0 -1 0 842)" d="M353.22 175.1L353.22 179.66L354 179.18L360.24 175.52L361.02 175.1L360.18 174.62L353.94 171.02L353.22 170.6L353.22 171.5L353.46 171.92L359.7 175.52L360.18 174.62L359.7 174.62L353.46 178.28L354 179.18L354.24 178.76L354.24 175.1" stroke="none" fill="#000000" fill-rule="nonzero" /><path id="298" transform="matrix(1 0 0 -1 0 842)" d="M353.22 171.5L354.24 171.5L354.24 175.1L353.22 175.1z" stroke="none" fill="#000000" fill-rule="nonzero" /><path id="299" transform="matrix(1 0 0 -1 0 842)" d="M353.7 175.1L353.7 178.76L353.7 178.76L359.94 175.1L359.94 175.1L353.7 171.5" stroke="none" fill="#000000" fill-rule="evenodd" /><path id="300" transform="matrix(1 0 0 -1 0 842)" d="M332.28 174.08L333.24 174.08L333.24 176.06L332.28 176.06z" stroke="none" fill="#000000" fill-rule="nonzero" /><path id="301" transform="matrix(1 0 0 -1 0 842)" d="M333.24 174.08L354.12 174.08L354.12 176.06L333.24 176.06z" stroke="none" fill="#000000" fill-rule="nonzero" /></g></g></g></g></svg>