<svg xmlns="http://www.w3.org/2000/svg" xmlns:xlink="http://www.w3.org/1999/xlink" id="body_197" preserveAspectRatio="xMinYMin meet" viewBox="0 0 793 1123"><defs><clipPath id="1"><path id="" clip-rule="evenodd" transform="matrix(1 0 0 1 0 0)" d="M0 842L0 0L0 0L595 0L595 0L595 842L595 842L0 842z" /></clipPath><clipPath id="2"><path id="" clip-rule="evenodd" transform="matrix(1 0 0 1 0 0)" d="M291.78 442.92L494.76 442.92L494.76 442.92L494.76 672.72L494.76 672.72L291.78 672.72z" /></clipPath><clipPath id="3"><path id="" clip-rule="evenodd" transform="matrix(1 0 0 1 0 0)" d="M35.94 441.9L495.72 441.9L495.72 441.9L495.72 673.74L495.72 673.74L35.94 673.74z" /></clipPath><clipPath id="4"><path id="" clip-rule="evenodd" transform="matrix(1 0 0 1 0 0)" d="M0 0.02001953L595.2 0.02001953L595.2 0.02001953L595.2 842L595.2 842L0 842z" /></clipPath><clipPath id="5"><path id="" clip-rule="evenodd" transform="matrix(1 0 0 1 0 0)" d="M36.96 443.1L277.86 443.1L277.86 443.1L277.86 672.54L277.86 672.54L36.96 672.54z" /></clipPath><clipPath id="6"><path id="" clip-rule="evenodd" transform="matrix(1 0 0 1 0 0)" d="M35.94 441.9L495.72 441.9L495.72 441.9L495.72 673.74L495.72 673.74L35.94 673.74z" /></clipPath><clipPath id="7"><path id="" clip-rule="evenodd" transform="matrix(1 0 0 1 0 0)" d="M0 0.02001953L595.2 0.02001953L595.2 0.02001953L595.2 842L595.2 842L0 842z" /></clipPath><clipPath id="8"><path id="" clip-rule="evenodd" transform="matrix(1 0 0 1 0 0)" d="M35.94 441.9L495.72 441.9L495.72 441.9L495.72 673.74L495.72 673.74L35.94 673.74z" /></clipPath><clipPath id="9"><path id="" clip-rule="evenodd" transform="matrix(1 0 0 1 0 0)" d="M0 0.02001953L595.2 0.02001953L595.2 0.02001953L595.2 842L595.2 842L0 842z" /></clipPath></defs><g transform="matrix(1.333333 0 0 1.333333 0 0)"><g clip-path="url(#1)"><g clip-path="url(#2)"><g clip-path="url(#3)"><g clip-path="url(#4)"><g transform="matrix(0.4787264 0 0 0.4797495 291.78 442.92)"><g transform="matrix(1 0 0 1 0 0)"><image x="0" y="0" xlink:href="img_521.png" width="424" height="479" /></g></g></g></g></g><g clip-path="url(#5)"><g clip-path="url(#6)"><g clip-path="url(#7)"><g transform="matrix(0.4798805 0 0 0.48 36.96 443.1)"><g transform="matrix(1 0 0 1 0 0)"><image x="0" y="0" xlink:href="img_522.png" width="502" height="478" /></g></g></g></g></g><g clip-path="url(#8)"><g clip-path="url(#9)"><path id="580" transform="matrix(1 0 0 -1 0 842)" d="M175.44 180.08L185.22 180.08L185.22 189.86L175.44 189.86z" stroke="none" fill="#FFFFFF" fill-rule="nonzero" /><path id="582" transform="matrix(1 0 0 -1 0 842)" d="M327.48 186.32L337.2 186.32L337.2 196.82L327.48 196.82z" stroke="none" fill="#FFFFFF" fill-rule="nonzero" /><path id="584" transform="matrix(1 0 0 -1 0 842)" d="M389.46 182.06L399.24 182.06L399.24 191.84L389.46 191.84z" stroke="none" fill="#FFFFFF" fill-rule="nonzero" /><path id="586" transform="matrix(1 0 0 -1 0 842)" d="M448.44 190.1L458.22 190.1L458.22 199.82L448.44 199.82z" stroke="none" fill="#FFFFFF" fill-rule="nonzero" /></g></g></g></g></svg>