<svg xmlns="http://www.w3.org/2000/svg" xmlns:xlink="http://www.w3.org/1999/xlink" id="body_273" preserveAspectRatio="xMinYMin meet" viewBox="0 0 793 1123"><defs><clipPath id="1"><path id="" clip-rule="evenodd" transform="matrix(1 0 0 1 0 0)" d="M0 842L0 0L0 0L595 0L595 0L595 842L595 842L0 842z" /></clipPath><clipPath id="2"><path id="" clip-rule="evenodd" transform="matrix(1 0 0 1 0 0)" d="M217.92 77.03998L449.7 77.03998L449.7 77.03998L449.7 376.38L449.7 376.38L217.92 376.38z" /></clipPath><clipPath id="3"><path id="" clip-rule="evenodd" transform="matrix(1 0 0 1 0 0)" d="M215.94 76.02002L450.66 76.02002L450.66 76.02002L450.66 377.34L450.66 377.34L215.94 377.34z" /></clipPath><clipPath id="4"><path id="" clip-rule="evenodd" transform="matrix(1 0 0 1 0 0)" d="M0 0.02001953L595.2 0.02001953L595.2 0.02001953L595.2 842L595.2 842L0 842z" /></clipPath><clipPath id="5"><path id="" clip-rule="evenodd" transform="matrix(1 0 0 1 0 0)" d="M215.94 76.02002L450.66 76.02002L450.66 76.02002L450.66 377.34L450.66 377.34L215.94 377.34z" /></clipPath><clipPath id="6"><path id="" clip-rule="evenodd" transform="matrix(1 0 0 1 0 0)" d="M0 0.02001953L595.2 0.02001953L595.2 0.02001953L595.2 842L595.2 842L0 842z" /></clipPath><clipPath id="7"><path id="" clip-rule="evenodd" transform="matrix(1 0 0 1 0 0)" d="M216.96 463.38L506.4 463.38L506.4 463.38L506.4 694.02L506.4 694.02L216.96 694.02z" /></clipPath><clipPath id="8"><path id="" clip-rule="evenodd" transform="matrix(1 0 0 1 0 0)" d="M215.94 462.36L507.42 462.36L507.42 462.36L507.42 694.98L507.42 694.98L215.94 694.98z" /></clipPath><clipPath id="9"><path id="" clip-rule="evenodd" transform="matrix(1 0 0 1 0 0)" d="M0 0.02001953L595.2 0.02001953L595.2 0.02001953L595.2 842L595.2 842L0 842z" /></clipPath><clipPath id="10"><path id="" clip-rule="evenodd" transform="matrix(1 0 0 1 0 0)" d="M215.94 462.36L507.42 462.36L507.42 462.36L507.42 694.98L507.42 694.98L215.94 694.98z" /></clipPath><clipPath id="11"><path id="" clip-rule="evenodd" transform="matrix(1 0 0 1 0 0)" d="M0 0.02001953L595.2 0.02001953L595.2 0.02001953L595.2 842L595.2 842L0 842z" /></clipPath></defs><g transform="matrix(1.333333 0 0 1.333333 0 0)"><g clip-path="url(#1)"><g clip-path="url(#2)"><g clip-path="url(#3)"><g clip-path="url(#4)"><g transform="matrix(0.4798758 0 0 0.4797115 217.92 77.04004)"><g transform="matrix(1 0 0 1 0 0)"><image x="0" y="0" xlink:href="img_851.png" width="483" height="624" /></g></g></g></g></g><g clip-path="url(#5)"><g clip-path="url(#6)"><path id="140" transform="matrix(1 0 0 -1 0 842)" d="M375.96 530.72L376.98 530.72L376.98 581.96L375.96 581.96z" stroke="none" fill="#000000" fill-rule="nonzero" /><path id="141" transform="matrix(1 0 0 -1 0 842)" d="M374.34 517.94L385.2 517.94L385.2 528.44L374.34 528.44z" stroke="none" fill="#FFFFFF" fill-rule="nonzero" /></g></g><g clip-path="url(#7)"><g clip-path="url(#8)"><g clip-path="url(#9)"><g transform="matrix(0.48 0 0 0.479501 216.96 463.38)"><g transform="matrix(1 0 0 1 0 0)"><image x="0" y="0" xlink:href="img_852.png" width="603" height="481" /></g></g></g></g></g><g clip-path="url(#10)"><g clip-path="url(#11)"><path id="144" transform="matrix(1 0 0 -1 0 842)" d="M284.1 248.36L285.12 248.36L284.7 311.12L283.68 311.12" stroke="none" fill="#000000" fill-rule="nonzero" /><path id="145" transform="matrix(1 0 0 -1 0 842)" d="M282.24 236.24L292.32 236.24L292.32 245.96L282.24 245.96z" stroke="none" fill="#FFFFFF" fill-rule="nonzero" /></g></g></g></g></svg>