<svg xmlns="http://www.w3.org/2000/svg" xmlns:xlink="http://www.w3.org/1999/xlink" id="body_214" preserveAspectRatio="xMinYMin meet" viewBox="0 0 793 1123"><defs><clipPath id="1"><path id="" clip-rule="evenodd" transform="matrix(1 0 0 1 0 0)" d="M0 842L0 0L0 0L595 0L595 0L595 842L595 842L0 842z" /></clipPath><clipPath id="2"><path id="" clip-rule="evenodd" transform="matrix(1 0 0 1 0 0)" d="M124.56 76.02002L202.98 76.02002L202.98 76.02002L202.98 90.42004L202.98 90.42004L124.56 90.42004z" /></clipPath><clipPath id="3"><path id="" clip-rule="evenodd" transform="matrix(1 0 0 1 0 0)" d="M0 0.02001953L595.2 0.02001953L595.2 0.02001953L595.2 842L595.2 842L0 842z" /></clipPath><clipPath id="4"><path id="" clip-rule="evenodd" transform="matrix(1 0 0 1 0 0)" d="M124.98 76.5L198.36 76.5L198.36 76.5L198.36 90.29999L198.36 90.29999L124.98 90.29999z" /></clipPath><clipPath id="5"><path id="" clip-rule="evenodd" transform="matrix(1 0 0 1 0 0)" d="M124.56 76.02002L202.98 76.02002L202.98 76.02002L202.98 90.42004L202.98 90.42004L124.56 90.42004z" /></clipPath><clipPath id="6"><path id="" clip-rule="evenodd" transform="matrix(1 0 0 1 0 0)" d="M0 0.02001953L595.2 0.02001953L595.2 0.02001953L595.2 842L595.2 842L0 842z" /></clipPath><clipPath id="7"><path id="" clip-rule="evenodd" transform="matrix(1 0 0 1 0 0)" d="M45.96 240.3L252.12 240.3L252.12 240.3L252.12 399.3L252.12 399.3L45.96 399.3z" /></clipPath><clipPath id="8"><path id="" clip-rule="evenodd" transform="matrix(1 0 0 1 0 0)" d="M44.94 204L510.66 204L510.66 204L510.66 436.38L510.66 436.38L44.94 436.38z" /></clipPath><clipPath id="9"><path id="" clip-rule="evenodd" transform="matrix(1 0 0 1 0 0)" d="M0 0.02001953L595.2 0.02001953L595.2 0.02001953L595.2 842L595.2 842L0 842z" /></clipPath><clipPath id="10"><path id="" clip-rule="evenodd" transform="matrix(1 0 0 1 0 0)" d="M44.94 204L510.66 204L510.66 204L510.66 436.38L510.66 436.38L44.94 436.38z" /></clipPath><clipPath id="11"><path id="" clip-rule="evenodd" transform="matrix(1 0 0 1 0 0)" d="M0 0.02001953L595.2 0.02001953L595.2 0.02001953L595.2 842L595.2 842L0 842z" /></clipPath><clipPath id="12"><path id="" clip-rule="evenodd" transform="matrix(1 0 0 1 0 0)" d="M284.7 205.02L516.66 205.02L516.66 205.02L516.66 434.64L516.66 434.64L284.7 434.64z" /></clipPath><clipPath id="13"><path id="" clip-rule="evenodd" transform="matrix(1 0 0 1 0 0)" d="M44.94 204L510.66 204L510.66 204L510.66 436.38L510.66 436.38L44.94 436.38z" /></clipPath><clipPath id="14"><path id="" clip-rule="evenodd" transform="matrix(1 0 0 1 0 0)" d="M0 0.02001953L595.2 0.02001953L595.2 0.02001953L595.2 842L595.2 842L0 842z" /></clipPath><clipPath id="15"><path id="" clip-rule="evenodd" transform="matrix(1 0 0 1 0 0)" d="M44.94 204L510.66 204L510.66 204L510.66 436.38L510.66 436.38L44.94 436.38z" /></clipPath><clipPath id="16"><path id="" clip-rule="evenodd" transform="matrix(1 0 0 1 0 0)" d="M0 0.02001953L595.2 0.02001953L595.2 0.02001953L595.2 842L595.2 842L0 842z" /></clipPath></defs><g transform="matrix(1.333333 0 0 1.333333 0 0)"><g clip-path="url(#1)"><g clip-path="url(#2)"><g clip-path="url(#3)"><path id="312" transform="matrix(1 0 0 -1 0 842)" d="M124.56 751.58L202.98 751.58L202.98 765.98L124.56 765.98z" stroke="none" fill="#FFFFFF" fill-rule="nonzero" /></g></g><g clip-path="url(#4)"><g clip-path="url(#5)"><g clip-path="url(#6)"><g transform="matrix(0.7265346 0 0 0.7263158 124.98 76.5)"><g transform="matrix(1 0 0 1 0 0)"><image x="0" y="0" xlink:href="img_09.png" width="101" height="19" /></g></g></g></g></g><path id="314" transform="matrix(1 0 0 -1 0 842)" d="M242.94 769.94L558 769.94L558 693.98L242.94 693.98" stroke="none" fill="#ECF5FC" fill-rule="nonzero" /><g clip-path="url(#7)"><g clip-path="url(#8)"><g clip-path="url(#9)"><g transform="matrix(0.4794419 0 0 0.4803625 45.96 240.3)"><g transform="matrix(1 0 0 1 0 0)"><image x="0" y="0" xlink:href="img_573.png" width="430" height="331" /></g></g></g></g></g><g clip-path="url(#10)"><g clip-path="url(#11)"><path id="428" transform="matrix(1 0 0 -1 0 842)" d="M155.22 583.82L225.72 583.82L225.72 595.82L155.22 595.82z" stroke="none" fill="#FFFFFF" fill-rule="nonzero" /><path id="433" transform="matrix(1 0 0 -1 0 842)" d="M188.46 516.32L189.48 516.32L189.48 583.28L188.46 583.28z" stroke="none" fill="#000000" fill-rule="nonzero" /><path id="434" transform="matrix(1 0 0 -1 0 842)" d="M79.26 461.78L78.84 461.6L79.26 460.7L79.68 460.88" stroke="none" fill="#000000" fill-rule="nonzero" /><path id="435" transform="matrix(1 0 0 -1 0 842)" d="M180 509.24L180.42 509.42L180.84 508.52L180.42 508.34" stroke="none" fill="#000000" fill-rule="nonzero" /><path id="436" transform="matrix(1 0 0 -1 0 842)" d="M79.26 461.78L79.68 460.88L180.42 508.34L180 509.24" stroke="none" fill="#000000" fill-rule="nonzero" /><path id="437" transform="matrix(1 0 0 -1 0 842)" d="M175.38 532.46L175.8 532.22L176.34 533.06L175.92 533.3" stroke="none" fill="#000000" fill-rule="nonzero" /><path id="438" transform="matrix(1 0 0 -1 0 842)" d="M115.8 569.6L115.38 569.84L115.92 570.68L116.34 570.44" stroke="none" fill="#000000" fill-rule="nonzero" /><path id="439" transform="matrix(1 0 0 -1 0 842)" d="M175.38 532.46L175.92 533.3L116.34 570.44L115.8 569.6" stroke="none" fill="#000000" fill-rule="nonzero" /></g></g><g clip-path="url(#12)"><g clip-path="url(#13)"><g clip-path="url(#14)"><g transform="matrix(0.4792562 0 0 0.4793737 284.7 205.02)"><g transform="matrix(1 0 0 1 0 0)"><image x="0" y="0" xlink:href="img_574.png" width="484" height="479" /></g></g></g></g></g><g clip-path="url(#15)"><g clip-path="url(#16)"><path id="441" transform="matrix(1 0 0 -1 0 842)" d="M276.9 530.36L276.9 530.6L276.9 530.6L276.84 530.78L276.84 530.78L276.72 530.96L276.72 530.96L276.48 531.2L276.48 531.2L276.3 531.32L276.3 531.32L276.12 531.38L276.12 531.38L275.7 531.38L275.7 531.38L275.52 531.32L275.52 531.32L275.34 531.2L275.34 531.2L275.1 530.96L275.1 530.96L274.98 530.78L274.98 530.78L274.92 530.6L274.92 530.6L274.92 530.18L274.92 530.18L274.98 530L274.98 530L275.1 529.82L275.1 529.82L275.34 529.58L275.34 529.58L275.52 529.46L275.52 529.46L275.7 529.4L275.7 529.4L276.12 529.4L276.12 529.4L276.3 529.46L276.3 529.46L276.48 529.58L276.48 529.58L276.72 529.82L276.72 529.82L276.84 530L276.84 530L276.9 530.18L276.9 530.18L276.9 530.36" stroke="none" fill="#000000" fill-rule="evenodd" /><path id="442" transform="matrix(1 0 0 -1 0 842)" d="M275.94 530.36L275.94 534.92L276.72 534.44L283.02 530.78L283.8 530.36L276.66 526.28L275.94 525.86L275.94 526.76L276.18 527.18L282.48 530.78L282.96 529.88L282.48 529.88L276.18 533.54L276.72 534.44L276.96 534.02L276.96 530.36" stroke="none" fill="#000000" fill-rule="nonzero" /><path id="443" transform="matrix(1 0 0 -1 0 842)" d="M275.94 526.76L276.96 526.76L276.96 530.36L275.94 530.36z" stroke="none" fill="#000000" fill-rule="nonzero" /><path id="444" transform="matrix(1 0 0 -1 0 842)" d="M276.42 530.36L276.42 534.02L276.42 534.02L282.72 530.36L282.72 530.36L276.42 526.76" stroke="none" fill="#000000" fill-rule="evenodd" /><path id="445" transform="matrix(1 0 0 -1 0 842)" d="M253.5 529.34L276.84 529.34L276.84 531.32L253.5 531.32z" stroke="none" fill="#000000" fill-rule="nonzero" /><path id="446" transform="matrix(1 0 0 -1 0 842)" d="M286.44 616.88L350.76 616.88L350.76 617.9L286.44 617.9z" stroke="none" fill="#000000" fill-rule="nonzero" /><path id="447" transform="matrix(1 0 0 -1 0 842)" d="M349.74 409.82L350.76 409.82L350.76 617.42L349.74 617.42z" stroke="none" fill="#000000" fill-rule="nonzero" /><path id="448" transform="matrix(1 0 0 -1 0 842)" d="M285.96 409.82L350.22 409.82L350.22 410.84L285.96 410.84z" stroke="none" fill="#000000" fill-rule="nonzero" /><path id="449" transform="matrix(1 0 0 -1 0 842)" d="M285.96 410.36L286.98 410.36L286.98 617.9L285.96 617.9z" stroke="none" fill="#000000" fill-rule="nonzero" /><path id="450" transform="matrix(1 0 0 -1 0 842)" d="M383.94 426.62L478.86 426.62L478.86 416.12L383.94 416.12" stroke="none" fill="#FFFFFF" fill-rule="nonzero" /><path id="459" transform="matrix(1 0 0 -1 0 842)" d="M350.76 420.32L383.22 420.32L383.22 421.34L350.76 421.34z" stroke="none" fill="#000000" fill-rule="nonzero" /><path id="460" transform="matrix(1 0 0 -1 0 842)" d="M342.24 627.62L374.7 627.62L374.7 628.64L342.24 628.64z" stroke="none" fill="#000000" fill-rule="nonzero" /><path id="461" transform="matrix(1 0 0 -1 0 842)" d="M376.44 621.92L431.22 621.92L431.22 632.42L376.44 632.42z" stroke="none" fill="#FFFFFF" fill-rule="nonzero" /><path id="467" transform="matrix(1 0 0 -1 0 842)" d="M98.22 571.58L131.22 571.58L131.22 594.8L98.22 594.8z" stroke="none" fill="#FFFFFF" fill-rule="nonzero" /><path id="473" transform="matrix(1 0 0 -1 0 842)" d="M48.18 446.54L87.48 446.54L87.48 469.82L48.18 469.82z" stroke="none" fill="#FFFFFF" fill-rule="nonzero" /><path id="479" transform="matrix(1 0 0 -1 0 842)" d="M337.2 412.4L350.7 412.4L350.7 423.62L337.2 423.62z" stroke="none" fill="#FFFFFF" fill-rule="nonzero" /><path id="482" transform="matrix(1 0 0 -1 0 842)" d="M288.48 593.12L301.98 593.12L301.98 604.4L288.48 604.4z" stroke="none" fill="#FFFFFF" fill-rule="nonzero" /><path id="485" transform="matrix(1 0 0 -1 0 842)" d="M333.48 458.12L346.98 458.12L346.98 469.4L333.48 469.4z" stroke="none" fill="#FFFFFF" fill-rule="nonzero" /><path id="488" transform="matrix(1 0 0 -1 0 842)" d="M288.24 522.86L301.74 522.86L301.74 534.14L288.24 534.14z" stroke="none" fill="#FFFFFF" fill-rule="nonzero" /><path id="491" transform="matrix(1 0 0 -1 0 842)" d="M288.24 558.38L301.74 558.38L301.74 569.66L288.24 569.66z" stroke="none" fill="#FFFFFF" fill-rule="nonzero" /></g></g><path id="494" transform="matrix(1 0 0 -1 0 842)" d="M242.94 184.7L558 184.7L558 150.74L242.94 150.74" stroke="none" fill="#ECF5FC" fill-rule="nonzero" /></g></g></svg>