<svg xmlns="http://www.w3.org/2000/svg" xmlns:xlink="http://www.w3.org/1999/xlink" id="body_187" preserveAspectRatio="xMinYMin meet" viewBox="0 0 793 1123"><defs><clipPath id="1"><path id="" clip-rule="evenodd" transform="matrix(1 0 0 1 0 0)" d="M0 842L0 0L0 0L595 0L595 0L595 842L595 842L0 842z" /></clipPath><clipPath id="2"><path id="" clip-rule="evenodd" transform="matrix(1 0 0 1 0 0)" d="M224.94 100.02L400.98 100.02L400.98 100.02L400.98 312.9L400.98 312.9L224.94 312.9z" /></clipPath><clipPath id="3"><path id="" clip-rule="evenodd" transform="matrix(1 0 0 1 0 0)" d="M0 0.02001953L595.2 0.02001953L595.2 0.02001953L595.2 842L595.2 842L0 842z" /></clipPath><clipPath id="4"><path id="" clip-rule="evenodd" transform="matrix(1 0 0 1 0 0)" d="M225.96 101.04L399.96 101.04L399.96 101.04L399.96 311.88L399.96 311.88L225.96 311.88z" /></clipPath><clipPath id="5"><path id="" clip-rule="evenodd" transform="matrix(1 0 0 1 0 0)" d="M224.94 100.02L400.98 100.02L400.98 100.02L400.98 312.9L400.98 312.9L224.94 312.9z" /></clipPath><clipPath id="6"><path id="" clip-rule="evenodd" transform="matrix(1 0 0 1 0 0)" d="M0 0.02001953L595.2 0.02001953L595.2 0.02001953L595.2 842L595.2 842L0 842z" /></clipPath><clipPath id="7"><path id="" clip-rule="evenodd" transform="matrix(1 0 0 1 0 0)" d="M224.94 482.82L450.42 482.82L450.42 482.82L450.42 708.06L450.42 708.06L224.94 708.06z" /></clipPath><clipPath id="8"><path id="" clip-rule="evenodd" transform="matrix(1 0 0 1 0 0)" d="M0 0.02001953L595.2 0.02001953L595.2 0.02001953L595.2 842L595.2 842L0 842z" /></clipPath><clipPath id="9"><path id="" clip-rule="evenodd" transform="matrix(1 0 0 1 0 0)" d="M327.96 483.84L449.4 483.84L449.4 483.84L449.4 707.04L449.4 707.04L327.96 707.04z" /></clipPath><clipPath id="10"><path id="" clip-rule="evenodd" transform="matrix(1 0 0 1 0 0)" d="M224.94 482.82L450.42 482.82L450.42 482.82L450.42 708.06L450.42 708.06L224.94 708.06z" /></clipPath><clipPath id="11"><path id="" clip-rule="evenodd" transform="matrix(1 0 0 1 0 0)" d="M0 0.02001953L595.2 0.02001953L595.2 0.02001953L595.2 842L595.2 842L0 842z" /></clipPath><clipPath id="12"><path id="" clip-rule="evenodd" transform="matrix(1 0 0 1 0 0)" d="M224.94 482.82L450.42 482.82L450.42 482.82L450.42 708.06L450.42 708.06L224.94 708.06z" /></clipPath><clipPath id="13"><path id="" clip-rule="evenodd" transform="matrix(1 0 0 1 0 0)" d="M0 0.02001953L595.2 0.02001953L595.2 0.02001953L595.2 842L595.2 842L0 842z" /></clipPath></defs><g transform="matrix(1.333333 0 0 1.333333 0 0)"><g clip-path="url(#1)"><g clip-path="url(#2)"><g clip-path="url(#3)"><path id="240" transform="matrix(1 0 0 -1 0 842)" d="M224.94 529.1L400.98 529.1L400.98 741.98L224.94 741.98z" stroke="none" fill="#FFFFFF" fill-rule="nonzero" /></g></g><g clip-path="url(#4)"><g clip-path="url(#5)"><g clip-path="url(#6)"><g transform="matrix(0.4796777 0 0 0.4791818 225.96 101.04)"><g transform="matrix(1 0 0 1 0 0)"><image x="0" y="0" xlink:href="img_491.png" width="363" height="440" /></g></g></g></g></g><g clip-path="url(#7)"><g clip-path="url(#8)"><path id="242" transform="matrix(1 0 0 -1 0 842)" d="M224.94 133.94L450.42 133.94L450.42 359.18L224.94 359.18z" stroke="none" fill="#FFFFFF" fill-rule="nonzero" /></g></g><g clip-path="url(#9)"><g clip-path="url(#10)"><g clip-path="url(#11)"><g transform="matrix(0.48 0 0 0.48 327.96 483.84)"><g transform="matrix(1 0 0 1 0 0)"><image x="0" y="0" xlink:href="img_502.png" width="253" height="465" /></g></g></g></g></g><g clip-path="url(#12)"><g clip-path="url(#13)"><path id="244" transform="matrix(1 0 0 -1 0 842)" d="M307.02 256.1L306.96 255.08L353.22 251.9L353.28 252.92" stroke="none" fill="#000000" fill-rule="nonzero" /><path id="250" transform="matrix(1 0 0 -1 0 842)" d="M353.58 255.62L366.96 255.62L366.96 256.1L353.58 256.1z" stroke="none" fill="#FF0000" fill-rule="nonzero" /><path id="251" transform="matrix(1 0 0 -1 0 842)" d="M366.48 246.8L366.96 246.8L366.96 255.86L366.48 255.86z" stroke="none" fill="#FF0000" fill-rule="nonzero" /><path id="252" transform="matrix(1 0 0 -1 0 842)" d="M353.34 246.8L366.72 246.8L366.72 247.28L353.34 247.28z" stroke="none" fill="#FF0000" fill-rule="nonzero" /><path id="253" transform="matrix(1 0 0 -1 0 842)" d="M353.34 247.04L353.82 247.04L353.82 256.1L353.34 256.1z" stroke="none" fill="#FF0000" fill-rule="nonzero" /><path id="254" transform="matrix(1 0 0 -1 0 842)" d="M362.58 227.12L375.96 227.12L375.96 227.6L362.58 227.6z" stroke="none" fill="#FF0000" fill-rule="nonzero" /><path id="255" transform="matrix(1 0 0 -1 0 842)" d="M375.48 218.3L375.96 218.3L375.96 227.36L375.48 227.36z" stroke="none" fill="#FF0000" fill-rule="nonzero" /><path id="256" transform="matrix(1 0 0 -1 0 842)" d="M362.34 218.3L375.72 218.3L375.72 218.78L362.34 218.78z" stroke="none" fill="#FF0000" fill-rule="nonzero" /><path id="257" transform="matrix(1 0 0 -1 0 842)" d="M362.34 218.54L362.82 218.54L362.82 227.6L362.34 227.6z" stroke="none" fill="#FF0000" fill-rule="nonzero" /><path id="258" transform="matrix(1 0 0 -1 0 842)" d="M315 227.12L314.94 226.1L361.2 222.92L361.26 223.94" stroke="none" fill="#000000" fill-rule="nonzero" /></g></g></g></g></svg>