<svg xmlns="http://www.w3.org/2000/svg" xmlns:xlink="http://www.w3.org/1999/xlink" id="body_27" preserveAspectRatio="xMinYMin meet" viewBox="0 0 793 1123"><defs><clipPath id="1"><path id="" clip-rule="evenodd" transform="matrix(1 0 0 1 0 0)" d="M0 842L0 0L0 0L595 0L595 0L595 842L595 842L0 842z" /></clipPath><clipPath id="2"><path id="" clip-rule="evenodd" transform="matrix(1 0 0 1 0 0)" d="M225.96 77.03998L557.4 77.03998L557.4 77.03998L557.4 315.12L557.4 315.12L225.96 315.12z" /></clipPath><clipPath id="3"><path id="" clip-rule="evenodd" transform="matrix(1 0 0 1 0 0)" d="M224.94 76.02002L558.42 76.02002L558.42 76.02002L558.42 333.84L558.42 333.84L224.94 333.84z" /></clipPath><clipPath id="4"><path id="" clip-rule="evenodd" transform="matrix(1 0 0 1 0 0)" d="M0 0.02001953L595.2 0.02001953L595.2 0.02001953L595.2 842L595.2 842L0 842z" /></clipPath><clipPath id="5"><path id="" clip-rule="evenodd" transform="matrix(1 0 0 1 0 0)" d="M224.94 76.02002L558.42 76.02002L558.42 76.02002L558.42 333.84L558.42 333.84L224.94 333.84z" /></clipPath><clipPath id="6"><path id="" clip-rule="evenodd" transform="matrix(1 0 0 1 0 0)" d="M0 0.02001953L595.2 0.02001953L595.2 0.02001953L595.2 842L595.2 842L0 842z" /></clipPath></defs><g transform="matrix(1.333333 0 0 1.333333 0 0)"><g clip-path="url(#1)"><g clip-path="url(#2)"><g clip-path="url(#3)"><g clip-path="url(#4)"><g transform="matrix(0.4796527 0 0 0.48 225.96 77.03998)"><g transform="matrix(1 0 0 1 0 0)"><image x="0" y="0" xlink:href="img_52.png" width="691" height="496" /></g></g></g></g></g><g clip-path="url(#5)"><g clip-path="url(#6)"><path id="613" transform="matrix(1 0 0 -1 0 842)" d="M311.7 520.46L312.72 520.46L312.72 520.94L311.7 520.94z" stroke="none" fill="#000000" fill-rule="nonzero" /><path id="614" transform="matrix(1 0 0 -1 0 842)" d="M311.7 520.94L312.72 520.94L312.72 604.46L311.7 604.46z" stroke="none" fill="#000000" fill-rule="nonzero" /><path id="615" transform="matrix(1 0 0 -1 0 842)" d="M501.3 520.46L502.32 520.46L502.32 520.94L501.3 520.94z" stroke="none" fill="#000000" fill-rule="nonzero" /><path id="616" transform="matrix(1 0 0 -1 0 842)" d="M500.7 574.94L501.72 574.94L501.72 575.42L500.7 575.42z" stroke="none" fill="#000000" fill-rule="nonzero" /><path id="617" transform="matrix(1 0 0 -1 0 842)" d="M501.3 520.94L502.32 520.94L501.72 574.94L500.7 574.94" stroke="none" fill="#000000" fill-rule="nonzero" /><path id="630" transform="matrix(1 0 0 -1 0 842)" d="M458.28 520.46L459.3 520.46L459.3 520.94L458.28 520.94z" stroke="none" fill="#000000" fill-rule="nonzero" /><path id="631" transform="matrix(1 0 0 -1 0 842)" d="M457.86 583.58L458.88 583.58L458.88 584.06L457.86 584.06z" stroke="none" fill="#000000" fill-rule="nonzero" /><path id="632" transform="matrix(1 0 0 -1 0 842)" d="M458.28 520.94L459.3 520.94L458.88 583.58L457.86 583.58" stroke="none" fill="#000000" fill-rule="nonzero" /></g></g></g></g></svg>