<svg xmlns="http://www.w3.org/2000/svg" xmlns:xlink="http://www.w3.org/1999/xlink" id="body_186" preserveAspectRatio="xMinYMin meet" viewBox="0 0 793 1123"><defs><clipPath id="1"><path id="" clip-rule="evenodd" transform="matrix(1 0 0 1 0 0)" d="M0 842L0 0L0 0L595 0L595 0L595 842L595 842L0 842z" /></clipPath><clipPath id="2"><path id="" clip-rule="evenodd" transform="matrix(1 0 0 1 0 0)" d="M160.32 78.06L529.32 78.06L529.32 78.06L529.32 222.96L529.32 222.96L160.32 222.96z" /></clipPath><clipPath id="3"><path id="" clip-rule="evenodd" transform="matrix(1 0 0 1 0 0)" d="M0 0.02001953L595.2 0.02001953L595.2 0.02001953L595.2 842L595.2 842L0 842z" /></clipPath><clipPath id="4"><path id="" clip-rule="evenodd" transform="matrix(1 0 0 1 0 0)" d="M161.34 79.02002L446.64 79.02002L446.64 79.02002L446.64 191.52L446.64 191.52L161.34 191.52z" /></clipPath><clipPath id="5"><path id="" clip-rule="evenodd" transform="matrix(1 0 0 1 0 0)" d="M160.32 78.06L529.32 78.06L529.32 78.06L529.32 222.96L529.32 222.96L160.32 222.96z" /></clipPath><clipPath id="6"><path id="" clip-rule="evenodd" transform="matrix(1 0 0 1 0 0)" d="M0 0.02001953L595.2 0.02001953L595.2 0.02001953L595.2 842L595.2 842L0 842z" /></clipPath><clipPath id="7"><path id="" clip-rule="evenodd" transform="matrix(1 0 0 1 0 0)" d="M160.32 78.06L529.32 78.06L529.32 78.06L529.32 222.96L529.32 222.96L160.32 222.96z" /></clipPath><clipPath id="8"><path id="" clip-rule="evenodd" transform="matrix(1 0 0 1 0 0)" d="M0 0.02001953L595.2 0.02001953L595.2 0.02001953L595.2 842L595.2 842L0 842z" /></clipPath><clipPath id="9"><path id="" clip-rule="evenodd" transform="matrix(1 0 0 1 0 0)" d="M115.56 359.88L193.98 359.88L193.98 359.88L193.98 374.28L193.98 374.28L115.56 374.28z" /></clipPath><clipPath id="10"><path id="" clip-rule="evenodd" transform="matrix(1 0 0 1 0 0)" d="M0 0.02001953L595.2 0.02001953L595.2 0.02001953L595.2 842L595.2 842L0 842z" /></clipPath><clipPath id="11"><path id="" clip-rule="evenodd" transform="matrix(1 0 0 1 0 0)" d="M116.16 359.94L190.86 359.94L190.86 359.94L190.86 373.98L190.86 373.98L116.16 373.98z" /></clipPath><clipPath id="12"><path id="" clip-rule="evenodd" transform="matrix(1 0 0 1 0 0)" d="M115.56 359.88L193.98 359.88L193.98 359.88L193.98 374.28L193.98 374.28L115.56 374.28z" /></clipPath><clipPath id="13"><path id="" clip-rule="evenodd" transform="matrix(1 0 0 1 0 0)" d="M0 0.02001953L595.2 0.02001953L595.2 0.02001953L595.2 842L595.2 842L0 842z" /></clipPath><clipPath id="14"><path id="" clip-rule="evenodd" transform="matrix(1 0 0 1 0 0)" d="M115.56 456.9L193.98 456.9L193.98 456.9L193.98 471.3L193.98 471.3L115.56 471.3z" /></clipPath><clipPath id="15"><path id="" clip-rule="evenodd" transform="matrix(1 0 0 1 0 0)" d="M0 0.02001953L595.2 0.02001953L595.2 0.02001953L595.2 842L595.2 842L0 842z" /></clipPath><clipPath id="16"><path id="" clip-rule="evenodd" transform="matrix(1 0 0 1 0 0)" d="M115.8 456.96L191.04 456.96L191.04 456.96L191.04 471.12L191.04 471.12L115.8 471.12z" /></clipPath><clipPath id="17"><path id="" clip-rule="evenodd" transform="matrix(1 0 0 1 0 0)" d="M115.56 456.9L193.98 456.9L193.98 456.9L193.98 471.3L193.98 471.3L115.56 471.3z" /></clipPath><clipPath id="18"><path id="" clip-rule="evenodd" transform="matrix(1 0 0 1 0 0)" d="M0 0.02001953L595.2 0.02001953L595.2 0.02001953L595.2 842L595.2 842L0 842z" /></clipPath></defs><g transform="matrix(1.333333 0 0 1.333333 0 0)"><g clip-path="url(#1)"><g clip-path="url(#2)"><g clip-path="url(#3)"><path id="363" transform="matrix(1 0 0 -1 0 842)" d="M160.32 619.04L529.32 619.04L529.32 763.9399L160.32 763.9399z" stroke="none" fill="#FFFFFF" fill-rule="nonzero" /></g></g><g clip-path="url(#4)"><g clip-path="url(#5)"><g clip-path="url(#6)"><g transform="matrix(0.4795966 0 0 0.4787234 161.34 79.02002)"><g transform="matrix(1 0 0 1 0 0)"><image x="0" y="0" xlink:href="img_500.png" width="595" height="235" /></g></g></g></g></g><g clip-path="url(#7)"><g clip-path="url(#8)"><path id="365" transform="matrix(1 0 0 -1 0 842)" d="M179.16 739.88L427.62 739.88L427.62 740.9L179.16 740.9z" stroke="none" fill="#FF0000" fill-rule="nonzero" /><path id="366" transform="matrix(1 0 0 -1 0 842)" d="M426.6 664.64L427.62 664.64L427.62 740.42L426.6 740.42z" stroke="none" fill="#FF0000" fill-rule="nonzero" /><path id="367" transform="matrix(1 0 0 -1 0 842)" d="M178.68 664.64L427.08 664.64L427.08 665.66L178.68 665.66z" stroke="none" fill="#FF0000" fill-rule="nonzero" /><path id="368" transform="matrix(1 0 0 -1 0 842)" d="M178.68 665.18L179.7 665.18L179.7 740.9L178.68 740.9z" stroke="none" fill="#FF0000" fill-rule="nonzero" /><path id="369" transform="matrix(1 0 0 -1 0 842)" d="M463.74 743.78L463.26 744.6801L426.96 725.2401L427.44 724.34" stroke="none" fill="#000000" fill-rule="nonzero" /><path id="378" transform="matrix(1 0 0 -1 0 842)" d="M233.58 687.32L230.1 687.26L229.44 687.32L229.62 687.92L232.98 700.1L233.46 701.78L233.94 700.1L237.54 687.98L237.72 687.32L237.06 687.32L236.58 687.68L232.98 699.8L233.94 700.1L233.94 699.8L230.58 687.62L229.62 687.92L230.1 688.28L233.58 688.34" stroke="none" fill="#FF0000" fill-rule="nonzero" /><path id="379" transform="matrix(1 0 0 -1 0 842)" d="M233.58 687.32L237.06 687.32L237.06 688.34L233.58 688.34z" stroke="none" fill="#FF0000" fill-rule="nonzero" /><path id="380" transform="matrix(1 0 0 -1 0 842)" d="M233.58 687.8L230.1 687.74L230.1 687.74L233.46 699.92L233.46 699.92L237.06 687.8" stroke="none" fill="#FF0000" fill-rule="evenodd" /><path id="381" transform="matrix(1 0 0 -1 0 842)" d="M233.58 633.56L234.6 633.56L234.12 687.32L233.1 687.32" stroke="none" fill="#FF0000" fill-rule="nonzero" /><path id="396" transform="matrix(1 0 0 -1 0 842)" d="M315.66 686.66L312.42 685.34L311.82 685.04L311.7 685.7599L310.38 698.3L310.2 700.04L311.28 698.66L319.02 688.7599L319.44 688.22L318.84 687.98L318.24 688.1L310.5 698L311.28 698.66L311.4 698.36L312.72 685.8199L311.7 685.7599L312.06 686.24L315.3 687.56" stroke="none" fill="#FF0000" fill-rule="nonzero" /><path id="397" transform="matrix(1 0 0 -1 0 842)" d="M318.84 687.98L315.66 686.66L315.3 687.56L318.48 688.88" stroke="none" fill="#FF0000" fill-rule="nonzero" /><path id="398" transform="matrix(1 0 0 -1 0 842)" d="M315.48 687.08L312.24 685.76L312.24 685.76L310.92 698.3L310.92 698.3L318.66 688.4" stroke="none" fill="#FF0000" fill-rule="evenodd" /><path id="399" transform="matrix(1 0 0 -1 0 842)" d="M337.98 630.26L338.94 630.62L316.14 686.78L315.18 686.42" stroke="none" fill="#FF0000" fill-rule="nonzero" /></g></g><g clip-path="url(#9)"><g clip-path="url(#10)"><path id="400" transform="matrix(1 0 0 -1 0 842)" d="M115.56 467.72L193.98 467.72L193.98 482.12L115.56 482.12z" stroke="none" fill="#FFFFFF" fill-rule="nonzero" /></g></g><g clip-path="url(#11)"><g clip-path="url(#12)"><g clip-path="url(#13)"><g transform="matrix(0.7396039 0 0 0.7389474 116.16 359.94)"><g transform="matrix(1 0 0 1 0 0)"><image x="0" y="0" xlink:href="img_250.png" width="101" height="19" /></g></g></g></g></g><path id="402" transform="matrix(1 0 0 -1 0 842)" d="M215.94 486.08L549 486.08L549 452.12L215.94 452.12" stroke="none" fill="#ECF5FC" fill-rule="nonzero" /><g clip-path="url(#14)"><g clip-path="url(#15)"><path id="447" transform="matrix(1 0 0 -1 0 842)" d="M115.56 370.7L193.98 370.7L193.98 385.1L115.56 385.1z" stroke="none" fill="#FFFFFF" fill-rule="nonzero" /></g></g><g clip-path="url(#16)"><g clip-path="url(#17)"><g clip-path="url(#18)"><g transform="matrix(0.7449505 0 0 0.7452632 115.8 456.96)"><g transform="matrix(1 0 0 1 0 0)"><image x="0" y="0" xlink:href="img_275.png" width="101" height="19" /></g></g></g></g></g><path id="449" transform="matrix(1 0 0 -1 0 842)" d="M233.94 389.12L548.28 389.12L548.28 355.1L233.94 355.1" stroke="none" fill="#ECF5FC" fill-rule="nonzero" /></g></g></svg>