<svg xmlns="http://www.w3.org/2000/svg" xmlns:xlink="http://www.w3.org/1999/xlink" id="body_92" preserveAspectRatio="xMinYMin meet" viewBox="0 0 793 1123"><defs><clipPath id="1"><path id="" clip-rule="evenodd" transform="matrix(1 0 0 1 0 0)" d="M0 842L0 0L0 0L595 0L595 0L595 842L595 842L0 842z" /></clipPath><clipPath id="2"><path id="" clip-rule="evenodd" transform="matrix(1 0 0 1 0 0)" d="M216.959 320.807L461.199 320.807L461.199 320.807L461.199 198.988L461.199 198.988L216.959 198.988z" /></clipPath><clipPath id="3"><path id="" clip-rule="evenodd" transform="matrix(1 0 0 1 0 0)" d="M215.94 198L462.18 198L462.18 198L462.18 321.78L462.18 321.78L215.94 321.78z" /></clipPath><clipPath id="4"><path id="" clip-rule="evenodd" transform="matrix(1 0 0 1 0 0)" d="M0 0.02001953L595.2 0.02001953L595.2 0.02001953L595.2 842L595.2 842L0 842z" /></clipPath></defs><g transform="matrix(1.333333 0 0 1.333333 0 0)"><g clip-path="url(#1)"><g clip-path="url(#2)"><g transform="matrix(0.4802593 0 0 0.479811 216.894 198.974)"><g transform="matrix(1 0 0 1 0 0)"><image x="0" y="0" xlink:href="img_298.png" width="509" height="254" /></g></g></g><g clip-path="url(#3)"><g clip-path="url(#4)"><path id="258" transform="matrix(1 0 0 -1 0 842)" d="M216.96 642.5L461.76 642.5L461.76 643.52L216.96 643.52z" stroke="none" fill="#000000" fill-rule="nonzero" /><path id="259" transform="matrix(1 0 0 -1 0 842)" d="M460.74 520.64L461.76 520.64L461.76 643.04L460.74 643.04z" stroke="none" fill="#000000" fill-rule="nonzero" /><path id="260" transform="matrix(1 0 0 -1 0 842)" d="M216.48 520.64L461.22 520.64L461.22 521.66L216.48 521.66z" stroke="none" fill="#000000" fill-rule="nonzero" /><path id="261" transform="matrix(1 0 0 -1 0 842)" d="M216.48 521.18L217.5 521.18L217.5 643.52L216.48 643.52z" stroke="none" fill="#000000" fill-rule="nonzero" /></g></g></g></g></svg>