<svg xmlns="http://www.w3.org/2000/svg" xmlns:xlink="http://www.w3.org/1999/xlink" id="body_261" preserveAspectRatio="xMinYMin meet" viewBox="0 0 793 1123"><defs><clipPath id="1"><path id="" clip-rule="evenodd" transform="matrix(1 0 0 1 0 0)" d="M0 842L0 0L0 0L595 0L595 0L595 842L595 842L0 842z" /></clipPath><clipPath id="2"><path id="" clip-rule="evenodd" transform="matrix(1 0 0 1 0 0)" d="M216.96 163.98L330.84 163.98L330.84 163.98L330.84 255.66L330.84 255.66L216.96 255.66z" /></clipPath><clipPath id="3"><path id="" clip-rule="evenodd" transform="matrix(1 0 0 1 0 0)" d="M215.94 163.02L331.8 163.02L331.8 163.02L331.8 256.62L331.8 256.62L215.94 256.62z" /></clipPath><clipPath id="4"><path id="" clip-rule="evenodd" transform="matrix(1 0 0 1 0 0)" d="M0 0.02001953L595.2 0.02001953L595.2 0.02001953L595.2 842L595.2 842L0 842z" /></clipPath><clipPath id="5"><path id="" clip-rule="evenodd" transform="matrix(1 0 0 1 0 0)" d="M215.94 163.02L331.8 163.02L331.8 163.02L331.8 256.62L331.8 256.62L215.94 256.62z" /></clipPath><clipPath id="6"><path id="" clip-rule="evenodd" transform="matrix(1 0 0 1 0 0)" d="M0 0.02001953L595.2 0.02001953L595.2 0.02001953L595.2 842L595.2 842L0 842z" /></clipPath><clipPath id="7"><path id="" clip-rule="evenodd" transform="matrix(1 0 0 1 0 0)" d="M216.96 328.62L323.52 328.62L323.52 328.62L323.52 426.6L323.52 426.6L216.96 426.6z" /></clipPath><clipPath id="8"><path id="" clip-rule="evenodd" transform="matrix(1 0 0 1 0 0)" d="M215.94 327.6L324.48 327.6L324.48 327.6L324.48 427.62L324.48 427.62L215.94 427.62z" /></clipPath><clipPath id="9"><path id="" clip-rule="evenodd" transform="matrix(1 0 0 1 0 0)" d="M0 0.02001953L595.2 0.02001953L595.2 0.02001953L595.2 842L595.2 842L0 842z" /></clipPath><clipPath id="10"><path id="" clip-rule="evenodd" transform="matrix(1 0 0 1 0 0)" d="M215.94 327.6L324.48 327.6L324.48 327.6L324.48 427.62L324.48 427.62L215.94 427.62z" /></clipPath><clipPath id="11"><path id="" clip-rule="evenodd" transform="matrix(1 0 0 1 0 0)" d="M0 0.02001953L595.2 0.02001953L595.2 0.02001953L595.2 842L595.2 842L0 842z" /></clipPath><clipPath id="12"><path id="" clip-rule="evenodd" transform="matrix(1 0 0 1 0 0)" d="M208.86 501.6L309.24 501.6L309.24 501.6L309.24 627.54L309.24 627.54L208.86 627.54z" /></clipPath><clipPath id="13"><path id="" clip-rule="evenodd" transform="matrix(1 0 0 1 0 0)" d="M35.94 500.58L467.34 500.58L467.34 500.58L467.34 628.5L467.34 628.5L35.94 628.5z" /></clipPath><clipPath id="14"><path id="" clip-rule="evenodd" transform="matrix(1 0 0 1 0 0)" d="M0 0.02001953L595.2 0.02001953L595.2 0.02001953L595.2 842L595.2 842L0 842z" /></clipPath><clipPath id="15"><path id="" clip-rule="evenodd" transform="matrix(1 0 0 1 0 0)" d="M36.96 501.6L188.64 501.6L188.64 501.6L188.64 618.84L188.64 618.84L36.96 618.84z" /></clipPath><clipPath id="16"><path id="" clip-rule="evenodd" transform="matrix(1 0 0 1 0 0)" d="M35.94 500.58L467.34 500.58L467.34 500.58L467.34 628.5L467.34 628.5L35.94 628.5z" /></clipPath><clipPath id="17"><path id="" clip-rule="evenodd" transform="matrix(1 0 0 1 0 0)" d="M0 0.02001953L595.2 0.02001953L595.2 0.02001953L595.2 842L595.2 842L0 842z" /></clipPath><clipPath id="18"><path id="" clip-rule="evenodd" transform="matrix(1 0 0 1 0 0)" d="M35.94 500.58L467.34 500.58L467.34 500.58L467.34 628.5L467.34 628.5L35.94 628.5z" /></clipPath><clipPath id="19"><path id="" clip-rule="evenodd" transform="matrix(1 0 0 1 0 0)" d="M0 0.02001953L595.2 0.02001953L595.2 0.02001953L595.2 842L595.2 842L0 842z" /></clipPath><clipPath id="20"><path id="" clip-rule="evenodd" transform="matrix(1 0 0 1 0 0)" d="M328.26 501.6L466.32 501.6L466.32 501.6L466.32 596.34L466.32 596.34L328.26 596.34z" /></clipPath><clipPath id="21"><path id="" clip-rule="evenodd" transform="matrix(1 0 0 1 0 0)" d="M35.94 500.58L467.34 500.58L467.34 500.58L467.34 628.5L467.34 628.5L35.94 628.5z" /></clipPath><clipPath id="22"><path id="" clip-rule="evenodd" transform="matrix(1 0 0 1 0 0)" d="M0 0.02001953L595.2 0.02001953L595.2 0.02001953L595.2 842L595.2 842L0 842z" /></clipPath><clipPath id="23"><path id="" clip-rule="evenodd" transform="matrix(1 0 0 1 0 0)" d="M35.94 500.58L467.34 500.58L467.34 500.58L467.34 628.5L467.34 628.5L35.94 628.5z" /></clipPath><clipPath id="24"><path id="" clip-rule="evenodd" transform="matrix(1 0 0 1 0 0)" d="M0 0.02001953L595.2 0.02001953L595.2 0.02001953L595.2 842L595.2 842L0 842z" /></clipPath></defs><g transform="matrix(1.333333 0 0 1.333333 0 0)"><g clip-path="url(#1)"><g clip-path="url(#2)"><g clip-path="url(#3)"><g clip-path="url(#4)"><g transform="matrix(0.4789118 0 0 0.48 216.96 163.98)"><g transform="matrix(1 0 0 1 0 0)"><image x="0" y="0" xlink:href="img_796.png" width="238" height="191" /></g></g></g></g></g><g clip-path="url(#5)"><g clip-path="url(#6)"><path id="219" transform="matrix(1 0 0 -1 0 842)" d="M269.16 652.22L269.34 652.28L269.34 652.28L269.64 652.58L269.64 652.58L269.7 652.7L269.7 652.7L269.76 652.8799L269.76 652.8799L269.82 653.12L269.82 653.12L269.82 653.3L269.82 653.3L269.76 653.48L269.76 653.48L269.7 653.66L269.7 653.66L269.58 653.84L269.58 653.84L269.46 653.96L269.46 653.96L269.28 654.08L269.28 654.08L268.92 654.2L268.92 654.2L268.68 654.14L268.68 654.14L268.5 654.14L268.5 654.14L268.14 653.9L268.14 653.9L268.02 653.78L268.02 653.78L267.96 653.6L267.96 653.6L267.84 653.42L267.84 653.42L267.84 653.06L267.84 653.06L267.96 652.7L267.96 652.7L268.08 652.52L268.08 652.52L268.2 652.4L268.2 652.4L268.38 652.28L268.38 652.28L268.74 652.16L268.74 652.16L268.92 652.16L268.92 652.16L269.16 652.22" stroke="none" fill="#000000" fill-rule="evenodd" /><path id="220" transform="matrix(1 0 0 -1 0 842)" d="M268.86 653.18L272.94 654.5L273.54 654.68L273.6 654.02L274.2 638.48L274.26 636.74L273.24 638.18L264.48 651.08L264.12 651.62L264.78 651.86L265.32 651.62L274.08 638.72L273.24 638.18L273.18 638.42L272.58 653.96L273.6 654.02L273.24 653.48L269.16 652.16" stroke="none" fill="#000000" fill-rule="nonzero" /><path id="221" transform="matrix(1 0 0 -1 0 842)" d="M264.78 651.86L268.86 653.18L269.16 652.16L265.08 650.84" stroke="none" fill="#000000" fill-rule="nonzero" /><path id="222" transform="matrix(1 0 0 -1 0 842)" d="M268.98 652.7L273.06 654.02L273.06 654.02L273.66 638.48L273.66 638.48L264.9 651.38" stroke="none" fill="#000000" fill-rule="evenodd" /><path id="223" transform="matrix(1 0 0 -1 0 842)" d="M245.52 663.5L246.48 663.5L246.48 665.48L245.52 665.48z" stroke="none" fill="#000000" fill-rule="nonzero" /><path id="224" transform="matrix(1 0 0 -1 0 842)" d="M246.48 665.48L248.28 665.48L249.12 665.42L250.02 665.36L250.08 665.36L250.92 665.24L250.86 665.24L251.76 665.18L251.82 665.18L252.72 665.06L252.78 665L253.62 664.82L254.52 664.64L255.36 664.46L255.42 664.46L257.94 663.74L258.06 663.74L258.84 663.44L258.78 663.44L259.62 663.14L259.68 663.14L260.46 662.84L260.52 662.78L261.24 662.42L262.02 662.06L262.08 662.06L262.8 661.64L262.86 661.58L263.52 661.16L264.84 660.2L264.9 660.14L265.5 659.66L265.56 659.66L266.16 659.12L266.16 659.06L266.76 658.46L267.3 657.86L267.36 657.86L267.84 657.26L267.84 657.2L268.26 656.6L268.32 656.54L268.74 655.88L268.8 655.82L269.16 655.1L269.16 655.04L267.36 654.26L267.36 654.2L267 654.92L267.06 654.8L266.64 655.46L266.22 656.06L266.28 656L265.8 656.6L265.8 656.54L265.26 657.14L265.32 657.14L264.78 657.68L264.84 657.62L264.24 658.16L264.24 658.1L263.64 658.58L263.7 658.58L262.38 659.54L262.44 659.48L261.78 659.9L261.06 660.32L261.18 660.26L260.4 660.62L260.34 660.62L259.62 660.98L259.74 660.98L258.96 661.28L258.12 661.58L257.34 661.88L257.4 661.82L254.88 662.54L254.94 662.54L254.1 662.72L254.16 662.72L253.26 662.9L253.2 662.9L252.36 663.08L252.48 663.08L251.58 663.2L251.64 663.2L250.74 663.26L250.62 663.26L249.78 663.38L249.9 663.38L249 663.44L248.16 663.5L248.22 663.5L246.48 663.5" stroke="none" fill="#000000" fill-rule="nonzero" /><path id="225" transform="matrix(1 0 0 -1 0 842)" d="M269.16 655.04L269.46 654.32L269.46 654.2L267.6 653.6L267.66 653.54L267.36 654.2599" stroke="none" fill="#000000" fill-rule="nonzero" /><path id="226" transform="matrix(1 0 0 -1 0 842)" d="M269.7 653.48L270 652.58L268.14 651.98L267.84 652.88" stroke="none" fill="#000000" fill-rule="nonzero" /><path id="227" transform="matrix(1 0 0 -1 0 842)" d="M269.46 654.2L267.6 653.6L267.84 652.88L269.7 653.48" stroke="none" fill="#000000" fill-rule="nonzero" /></g></g><g clip-path="url(#7)"><g clip-path="url(#8)"><g clip-path="url(#9)"><g transform="matrix(0.4788745 0 0 0.4802941 216.96 328.62)"><g transform="matrix(1 0 0 1 0 0)"><image x="0" y="0" xlink:href="img_794.png" width="223" height="204" /></g></g></g></g></g><g clip-path="url(#10)"><g clip-path="url(#11)"><path id="229" transform="matrix(1 0 0 -1 0 842)" d="M242.22 474.62L242.4 474.62L242.4 474.62L242.58 474.68L242.58 474.68L242.94 474.92L242.94 474.92L243.06 475.04L243.06 475.04L243.12 475.22L243.12 475.22L243.18 475.4L243.18 475.4L243.24 475.64L243.24 475.64L243.18 475.82L243.18 475.82L243.12 476L243.12 476L243.06 476.18L243.06 476.18L242.94 476.36L242.94 476.36L242.76 476.48L242.76 476.48L242.4 476.6L242.4 476.6L241.98 476.6L241.98 476.6L241.8 476.54L241.8 476.54L241.68 476.48L241.68 476.48L241.5 476.36L241.5 476.36L241.26 476L241.26 476L241.26 475.82L241.26 475.82L241.2 475.64L241.2 475.64L241.26 475.4L241.26 475.4L241.26 475.22L241.26 475.22L241.38 475.04L241.38 475.04L241.5 474.92L241.5 474.92L241.68 474.8L241.68 474.8L241.8 474.68L241.8 474.68L241.98 474.62L241.98 474.62L242.22 474.62" stroke="none" fill="#000000" fill-rule="evenodd" /><path id="230" transform="matrix(1 0 0 -1 0 842)" d="M242.22 475.58L247.14 475.58L246.96 474.92L242.7 459.98L242.22 458.3L241.74 459.98L237.42 474.92L237.24 475.58L237.9 475.58L238.38 475.22L242.7 460.28L241.74 459.98L241.74 460.28L246 475.22L246.96 474.92L246.48 474.56L242.22 474.56" stroke="none" fill="#000000" fill-rule="nonzero" /><path id="231" transform="matrix(1 0 0 -1 0 842)" d="M237.9 474.56L242.22 474.56L242.22 475.58L237.9 475.58z" stroke="none" fill="#000000" fill-rule="nonzero" /><path id="232" transform="matrix(1 0 0 -1 0 842)" d="M242.22 475.1L246.48 475.1L246.48 475.1L242.22 460.16L242.22 460.16L237.9 475.1" stroke="none" fill="#000000" fill-rule="evenodd" /><path id="233" transform="matrix(1 0 0 -1 0 842)" d="M241.26 507.8L243.24 507.8L243.24 508.76L241.26 508.76z" stroke="none" fill="#000000" fill-rule="nonzero" /><path id="234" transform="matrix(1 0 0 -1 0 842)" d="M241.26 474.68L243.24 474.68L243.24 507.8L241.26 507.8z" stroke="none" fill="#000000" fill-rule="nonzero" /></g></g><g clip-path="url(#12)"><g clip-path="url(#13)"><g clip-path="url(#14)"><g transform="matrix(0.4790334 0 0 0.4788593 208.86 501.6)"><g transform="matrix(1 0 0 1 0 0)"><image x="0" y="0" xlink:href="img_792.png" width="210" height="263" /></g></g></g></g></g><g clip-path="url(#15)"><g clip-path="url(#16)"><g clip-path="url(#17)"><g transform="matrix(0.4784858 0 0 0.4785306 36.96 501.6)"><g transform="matrix(1 0 0 1 0 0)"><image x="0" y="0" xlink:href="img_793.png" width="317" height="245" /></g></g></g></g></g><g clip-path="url(#18)"><g clip-path="url(#19)"><path id="248" transform="matrix(1 0 0 -1 0 842)" d="M199.86 278.84L199.86 279.08L199.86 279.08L199.8 279.26L199.8 279.26L199.68 279.44L199.68 279.44L199.44 279.68L199.44 279.68L199.26 279.8L199.26 279.8L199.08 279.86L199.08 279.86L198.66 279.86L198.66 279.86L198.48 279.8L198.48 279.8L198.3 279.68L198.3 279.68L198.06 279.44L198.06 279.44L197.94 279.26L197.94 279.26L197.88 279.08L197.88 279.08L197.88 278.66L197.88 278.66L197.94 278.48L197.94 278.48L198.06 278.3L198.06 278.3L198.3 278.06L198.3 278.06L198.48 277.94L198.48 277.94L198.66 277.88L198.66 277.88L199.08 277.88L199.08 277.88L199.26 277.94L199.26 277.94L199.44 278.06L199.44 278.06L199.68 278.3L199.68 278.3L199.8 278.48L199.8 278.48L199.86 278.66L199.86 278.66L199.86 278.84" stroke="none" fill="#000000" fill-rule="evenodd" /><path id="249" transform="matrix(1 0 0 -1 0 842)" d="M198.9 278.84L198.9 283.4L199.68 282.92L205.98 279.26L206.76 278.84L199.62 274.76L198.9 274.34L198.9 275.24L199.14 275.66L205.44 279.26L205.92 278.36L205.44 278.36L199.14 282.02L199.68 282.92L199.92 282.5L199.92 278.84" stroke="none" fill="#000000" fill-rule="nonzero" /><path id="250" transform="matrix(1 0 0 -1 0 842)" d="M198.9 275.24L199.92 275.24L199.92 278.84L198.9 278.84z" stroke="none" fill="#000000" fill-rule="nonzero" /><path id="251" transform="matrix(1 0 0 -1 0 842)" d="M199.38 278.84L199.38 282.5L199.38 282.5L205.68 278.84L205.68 278.84L199.38 275.24" stroke="none" fill="#000000" fill-rule="evenodd" /><path id="252" transform="matrix(1 0 0 -1 0 842)" d="M191.82 277.82L192.78 277.82L192.78 279.8L191.82 279.8z" stroke="none" fill="#000000" fill-rule="nonzero" /><path id="253" transform="matrix(1 0 0 -1 0 842)" d="M192.78 277.82L199.86 277.82L199.86 279.8L192.78 279.8z" stroke="none" fill="#000000" fill-rule="nonzero" /><path id="254" transform="matrix(1 0 0 -1 0 842)" d="M270.06 324.62L270.24 324.62L270.24 324.62L270.48 324.56L270.48 324.56L271.02 324.74L271.02 324.74L271.14 324.92L271.14 324.92L271.26 325.04L271.26 325.04L271.38 325.4L271.38 325.4L271.44 325.64L271.44 325.64L271.38 325.82L271.38 325.82L271.32 326L271.32 326L271.2 326.18L271.2 326.18L270.96 326.42L270.96 326.42L270.78 326.54L270.78 326.54L270.54 326.54L270.54 326.54L270.36 326.6L270.36 326.6L269.82 326.42L269.82 326.42L269.7 326.24L269.7 326.24L269.58 326.12L269.58 326.12L269.46 325.94L269.46 325.94L269.4 325.76L269.4 325.76L269.4 325.52L269.4 325.52L269.46 325.34L269.46 325.34L269.52 325.16L269.52 325.16L269.58 324.98L269.58 324.98L269.7 324.86L269.7 324.86L270.06 324.62" stroke="none" fill="#000000" fill-rule="evenodd" /><path id="255" transform="matrix(1 0 0 -1 0 842)" d="M270.42 325.52L274.44 324.08L275.04 323.84L274.62 323.24L265.38 310.7L264.36 309.32L264.48 311.06L265.68 326.6L265.8 327.26L266.4 327.02L266.7 326.54L265.5 311L264.48 311.06L264.6 311.36L273.84 323.9L274.62 323.24L274.08 323.12L270.06 324.62" stroke="none" fill="#000000" fill-rule="nonzero" /><path id="256" transform="matrix(1 0 0 -1 0 842)" d="M266.4 327.02L270.42 325.52L270.06 324.62L266.04 326.12" stroke="none" fill="#000000" fill-rule="nonzero" /><path id="257" transform="matrix(1 0 0 -1 0 842)" d="M270.24 325.1L274.26 323.6L274.26 323.6L265.02 311.06L265.02 311.06L266.22 326.6" stroke="none" fill="#000000" fill-rule="evenodd" /><path id="258" transform="matrix(1 0 0 -1 0 842)" d="M269.46 325.94L269.1 325.04L270.96 324.32L271.32 325.22" stroke="none" fill="#000000" fill-rule="nonzero" /><path id="259" transform="matrix(1 0 0 -1 0 842)" d="M269.46 325.94L269.7 326.54L269.76 326.66L270.36 327.74L270.42 327.8L270.78 328.34L270.84 328.4L271.2 328.88L271.2 328.94L272.04 329.9L272.16 330.02L273.12 330.86L273.24 330.92L274.86 332L274.92 332.06L276.24 332.72L276.9 332.96L276.78 332.9L277.5 333.26L278.16 333.5L278.22 333.5L278.88 333.68L278.82 333.68L279.48 333.92L279.6 333.92L281.04 334.28L281.1 334.28L281.76 334.4L281.76 334.46L283.92 334.82L283.98 334.82L284.7 334.88L286.14 335.06L286.2 335.06L286.26 333.08L286.38 333.08L284.94 332.9L284.88 332.9L284.16 332.84L284.22 332.84L282.06 332.48L282.12 332.48L281.46 332.36L281.52 332.36L280.08 332L280.14 332.06L279.48 331.82L279.42 331.76L278.76 331.58L278.82 331.64L278.16 331.4L278.28 331.4L277.68 331.1L277.56 331.1L276.9 330.86L277.02 330.86L275.82 330.26L275.94 330.38L274.32 329.3L274.44 329.36L273.48 328.52L273.54 328.58L272.7 327.62L272.76 327.68L272.4 327.2L272.4 327.26L272.04 326.72L272.1 326.78L271.5 325.7L271.56 325.82L271.32 325.22" stroke="none" fill="#000000" fill-rule="nonzero" /><path id="260" transform="matrix(1 0 0 -1 0 842)" d="M286.2 335.06L287.64 335.12L287.7 335.12L287.7 333.14L286.26 333.08" stroke="none" fill="#000000" fill-rule="nonzero" /><path id="261" transform="matrix(1 0 0 -1 0 842)" d="M287.7 333.14L290.1 333.14L290.1 335.12L287.7 335.12z" stroke="none" fill="#000000" fill-rule="nonzero" /><path id="262" transform="matrix(1 0 0 -1 0 842)" d="M164.58 322.34L189.06 322.34L189.06 334.34L164.58 334.34z" stroke="none" fill="#FFFFFF" fill-rule="nonzero" /><path id="265" transform="matrix(1 0 0 -1 0 842)" d="M130.68 293L130.02 292.34L131.4 290.96L132.06 291.62" stroke="none" fill="#000000" fill-rule="nonzero" /><path id="266" transform="matrix(1 0 0 -1 0 842)" d="M162.18 324.5L162.84 325.16L164.22 323.78L163.56 323.12" stroke="none" fill="#000000" fill-rule="nonzero" /><path id="267" transform="matrix(1 0 0 -1 0 842)" d="M130.68 293L132.06 291.62L163.56 323.12L162.18 324.5" stroke="none" fill="#000000" fill-rule="nonzero" /><path id="268" transform="matrix(1 0 0 -1 0 842)" d="M87.9 297.8L87.24 297.14L88.62 295.76L89.28 296.42" stroke="none" fill="#000000" fill-rule="nonzero" /><path id="269" transform="matrix(1 0 0 -1 0 842)" d="M115.68 325.52L116.34 326.18L117.72 324.8L117.06 324.14" stroke="none" fill="#000000" fill-rule="nonzero" /><path id="270" transform="matrix(1 0 0 -1 0 842)" d="M87.9 297.8L89.28 296.42L117.06 324.14L115.68 325.52" stroke="none" fill="#000000" fill-rule="nonzero" /><path id="271" transform="matrix(1 0 0 -1 0 842)" d="M116.58 315.14L146.58 315.14L146.58 338.36L116.58 338.36z" stroke="none" fill="#FFFFFF" fill-rule="nonzero" /></g></g><g clip-path="url(#20)"><g clip-path="url(#21)"><g clip-path="url(#22)"><g transform="matrix(0.479375 0 0 0.4784848 328.26 501.6)"><g transform="matrix(1 0 0 1 0 0)"><image x="0" y="0" xlink:href="img_799.png" width="288" height="198" /></g></g></g></g></g><g clip-path="url(#23)"><g clip-path="url(#24)"><path id="277" transform="matrix(1 0 0 -1 0 842)" d="M319.86 278.84L319.86 279.08L319.86 279.08L319.8 279.26L319.8 279.26L319.74 279.44L319.74 279.44L319.62 279.56L319.62 279.56L319.26 279.8L319.26 279.8L319.08 279.86L319.08 279.86L318.66 279.86L318.66 279.86L318.48 279.8L318.48 279.8L318.3 279.68L318.3 279.68L318.06 279.44L318.06 279.44L317.94 279.26L317.94 279.26L317.88 279.08L317.88 279.08L317.88 278.66L317.88 278.66L317.94 278.48L317.94 278.48L318.06 278.3L318.06 278.3L318.3 278.06L318.3 278.06L318.48 277.94L318.48 277.94L318.66 277.88L318.66 277.88L319.08 277.88L319.08 277.88L319.26 277.94L319.26 277.94L319.62 278.18L319.62 278.18L319.74 278.3L319.74 278.3L319.86 278.66L319.86 278.66L319.86 278.84" stroke="none" fill="#000000" fill-rule="evenodd" /><path id="278" transform="matrix(1 0 0 -1 0 842)" d="M318.9 278.84L318.9 283.4L319.68 282.92L325.98 279.26L326.76 278.84L319.62 274.76L318.9 274.34L318.9 275.24L319.14 275.66L325.44 279.26L325.92 278.36L325.44 278.36L319.14 282.02L319.68 282.92L319.92 282.5L319.92 278.84" stroke="none" fill="#000000" fill-rule="nonzero" /><path id="279" transform="matrix(1 0 0 -1 0 842)" d="M318.9 275.24L319.92 275.24L319.92 278.84L318.9 278.84z" stroke="none" fill="#000000" fill-rule="nonzero" /><path id="280" transform="matrix(1 0 0 -1 0 842)" d="M319.38 278.84L319.38 282.5L319.38 282.5L325.68 278.84L325.68 278.84L319.38 275.24" stroke="none" fill="#000000" fill-rule="evenodd" /><path id="281" transform="matrix(1 0 0 -1 0 842)" d="M311.82 277.82L312.78 277.82L312.78 279.8L311.82 279.8z" stroke="none" fill="#000000" fill-rule="nonzero" /><path id="282" transform="matrix(1 0 0 -1 0 842)" d="M312.78 277.82L319.86 277.82L319.86 279.8L312.78 279.8z" stroke="none" fill="#000000" fill-rule="nonzero" /></g></g></g></g></svg>