<svg xmlns="http://www.w3.org/2000/svg" xmlns:xlink="http://www.w3.org/1999/xlink" id="body_100" preserveAspectRatio="xMinYMin meet" viewBox="0 0 793 1123"><defs><clipPath id="1"><path id="" clip-rule="evenodd" transform="matrix(1 0 0 1 0 0)" d="M0 842L0 0L0 0L595 0L595 0L595 842L595 842L0 842z" /></clipPath><clipPath id="2"><path id="" clip-rule="evenodd" transform="matrix(1 0 0 1 0 0)" d="M115.56 144L193.98 144L193.98 144L193.98 158.4L193.98 158.4L115.56 158.4z" /></clipPath><clipPath id="3"><path id="" clip-rule="evenodd" transform="matrix(1 0 0 1 0 0)" d="M0 0.02001953L595.2 0.02001953L595.2 0.02001953L595.2 842L595.2 842L0 842z" /></clipPath><clipPath id="4"><path id="" clip-rule="evenodd" transform="matrix(1 0 0 1 0 0)" d="M115.44 144.24L190.5 144.24L190.5 144.24L190.5 158.34L190.5 158.34L115.44 158.34z" /></clipPath><clipPath id="5"><path id="" clip-rule="evenodd" transform="matrix(1 0 0 1 0 0)" d="M115.56 144L193.98 144L193.98 144L193.98 158.4L193.98 158.4L115.56 158.4z" /></clipPath><clipPath id="6"><path id="" clip-rule="evenodd" transform="matrix(1 0 0 1 0 0)" d="M0 0.02001953L595.2 0.02001953L595.2 0.02001953L595.2 842L595.2 842L0 842z" /></clipPath><clipPath id="7"><path id="" clip-rule="evenodd" transform="matrix(1 0 0 1 0 0)" d="M115.56 258L193.98 258L193.98 258L193.98 272.4L193.98 272.4L115.56 272.4z" /></clipPath><clipPath id="8"><path id="" clip-rule="evenodd" transform="matrix(1 0 0 1 0 0)" d="M0 0.02001953L595.2 0.02001953L595.2 0.02001953L595.2 842L595.2 842L0 842z" /></clipPath><clipPath id="9"><path id="" clip-rule="evenodd" transform="matrix(1 0 0 1 0 0)" d="M115.44 258.24L190.5 258.24L190.5 258.24L190.5 272.34L190.5 272.34L115.44 272.34z" /></clipPath><clipPath id="10"><path id="" clip-rule="evenodd" transform="matrix(1 0 0 1 0 0)" d="M115.56 258L193.98 258L193.98 258L193.98 272.4L193.98 272.4L115.56 272.4z" /></clipPath><clipPath id="11"><path id="" clip-rule="evenodd" transform="matrix(1 0 0 1 0 0)" d="M0 0.02001953L595.2 0.02001953L595.2 0.02001953L595.2 842L595.2 842L0 842z" /></clipPath><clipPath id="12"><path id="" clip-rule="evenodd" transform="matrix(1 0 0 1 0 0)" d="M115.56 361.98L193.98 361.98L193.98 361.98L193.98 376.38L193.98 376.38L115.56 376.38z" /></clipPath><clipPath id="13"><path id="" clip-rule="evenodd" transform="matrix(1 0 0 1 0 0)" d="M0 0.02001953L595.2 0.02001953L595.2 0.02001953L595.2 842L595.2 842L0 842z" /></clipPath><clipPath id="14"><path id="" clip-rule="evenodd" transform="matrix(1 0 0 1 0 0)" d="M115.44 362.22L190.5 362.22L190.5 362.22L190.5 376.38L190.5 376.38L115.44 376.38z" /></clipPath><clipPath id="15"><path id="" clip-rule="evenodd" transform="matrix(1 0 0 1 0 0)" d="M115.56 361.98L193.98 361.98L193.98 361.98L193.98 376.38L193.98 376.38L115.56 376.38z" /></clipPath><clipPath id="16"><path id="" clip-rule="evenodd" transform="matrix(1 0 0 1 0 0)" d="M0 0.02001953L595.2 0.02001953L595.2 0.02001953L595.2 842L595.2 842L0 842z" /></clipPath><clipPath id="17"><path id="" clip-rule="evenodd" transform="matrix(1 0 0 1 0 0)" d="M115.56 517.98L193.98 517.98L193.98 517.98L193.98 532.38L193.98 532.38L115.56 532.38z" /></clipPath><clipPath id="18"><path id="" clip-rule="evenodd" transform="matrix(1 0 0 1 0 0)" d="M0 0.02001953L595.2 0.02001953L595.2 0.02001953L595.2 842L595.2 842L0 842z" /></clipPath><clipPath id="19"><path id="" clip-rule="evenodd" transform="matrix(1 0 0 1 0 0)" d="M115.44 518.22L190.5 518.22L190.5 518.22L190.5 532.32L190.5 532.32L115.44 532.32z" /></clipPath><clipPath id="20"><path id="" clip-rule="evenodd" transform="matrix(1 0 0 1 0 0)" d="M115.56 517.98L193.98 517.98L193.98 517.98L193.98 532.38L193.98 532.38L115.56 532.38z" /></clipPath><clipPath id="21"><path id="" clip-rule="evenodd" transform="matrix(1 0 0 1 0 0)" d="M0 0.02001953L595.2 0.02001953L595.2 0.02001953L595.2 842L595.2 842L0 842z" /></clipPath><clipPath id="22"><path id="" clip-rule="evenodd" transform="matrix(1 0 0 1 0 0)" d="M115.56 579.96L193.98 579.96L193.98 579.96L193.98 594.36L193.98 594.36L115.56 594.36z" /></clipPath><clipPath id="23"><path id="" clip-rule="evenodd" transform="matrix(1 0 0 1 0 0)" d="M0 0.02001953L595.2 0.02001953L595.2 0.02001953L595.2 842L595.2 842L0 842z" /></clipPath><clipPath id="24"><path id="" clip-rule="evenodd" transform="matrix(1 0 0 1 0 0)" d="M115.44 580.2L190.5 580.2L190.5 580.2L190.5 594.36L190.5 594.36L115.44 594.36z" /></clipPath><clipPath id="25"><path id="" clip-rule="evenodd" transform="matrix(1 0 0 1 0 0)" d="M115.56 579.96L193.98 579.96L193.98 579.96L193.98 594.36L193.98 594.36L115.56 594.36z" /></clipPath><clipPath id="26"><path id="" clip-rule="evenodd" transform="matrix(1 0 0 1 0 0)" d="M0 0.02001953L595.2 0.02001953L595.2 0.02001953L595.2 842L595.2 842L0 842z" /></clipPath><clipPath id="27"><path id="" clip-rule="evenodd" transform="matrix(1 0 0 1 0 0)" d="M115.56 655.98L193.98 655.98L193.98 655.98L193.98 670.38L193.98 670.38L115.56 670.38z" /></clipPath><clipPath id="28"><path id="" clip-rule="evenodd" transform="matrix(1 0 0 1 0 0)" d="M0 0.02001953L595.2 0.02001953L595.2 0.02001953L595.2 842L595.2 842L0 842z" /></clipPath><clipPath id="29"><path id="" clip-rule="evenodd" transform="matrix(1 0 0 1 0 0)" d="M115.44 656.22L190.5 656.22L190.5 656.22L190.5 670.32L190.5 670.32L115.44 670.32z" /></clipPath><clipPath id="30"><path id="" clip-rule="evenodd" transform="matrix(1 0 0 1 0 0)" d="M115.56 655.98L193.98 655.98L193.98 655.98L193.98 670.38L193.98 670.38L115.56 670.38z" /></clipPath><clipPath id="31"><path id="" clip-rule="evenodd" transform="matrix(1 0 0 1 0 0)" d="M0 0.02001953L595.2 0.02001953L595.2 0.02001953L595.2 842L595.2 842L0 842z" /></clipPath></defs><g transform="matrix(1.333333 0 0 1.333333 0 0)"><g clip-path="url(#1)"><g clip-path="url(#2)"><g clip-path="url(#3)"><path id="89" transform="matrix(1 0 0 -1 0 842)" d="M115.56 683.6L193.98 683.6L193.98 698L115.56 698z" stroke="none" fill="#FFFFFF" fill-rule="nonzero" /></g></g><g clip-path="url(#4)"><g clip-path="url(#5)"><g clip-path="url(#6)"><g transform="matrix(0.7431683 0 0 0.7421053 115.44 144.2401)"><g transform="matrix(1 0 0 1 0 0)"><image x="0" y="0" xlink:href="img_274.png" width="101" height="19" /></g></g></g></g></g><path id="91" transform="matrix(1 0 0 -1 0 842)" d="M215.94 701.96L549 701.96L549 602L215.94 602" stroke="none" fill="#ECF5FC" fill-rule="nonzero" /><g clip-path="url(#7)"><g clip-path="url(#8)"><path id="220" transform="matrix(1 0 0 -1 0 842)" d="M115.56 569.6L193.98 569.6L193.98 584L115.56 584z" stroke="none" fill="#FFFFFF" fill-rule="nonzero" /></g></g><g clip-path="url(#9)"><g clip-path="url(#10)"><g clip-path="url(#11)"><g transform="matrix(0.7431683 0 0 0.7421053 115.44 258.2401)"><g transform="matrix(1 0 0 1 0 0)"><image x="0" y="0" xlink:href="img_274.png" width="101" height="19" /></g></g></g></g></g><path id="222" transform="matrix(1 0 0 -1 0 842)" d="M215.94 588.02L549 588.02L549 498.02L215.94 498.02" stroke="none" fill="#ECF5FC" fill-rule="nonzero" /><g clip-path="url(#12)"><g clip-path="url(#13)"><path id="366" transform="matrix(1 0 0 -1 0 842)" d="M115.56 465.62L193.98 465.62L193.98 480.02L115.56 480.02z" stroke="none" fill="#FFFFFF" fill-rule="nonzero" /></g></g><g clip-path="url(#14)"><g clip-path="url(#15)"><g clip-path="url(#16)"><g transform="matrix(0.7431683 0 0 0.7452632 115.44 362.22)"><g transform="matrix(1 0 0 1 0 0)"><image x="0" y="0" xlink:href="img_274.png" width="101" height="19" /></g></g></g></g></g><path id="368" transform="matrix(1 0 0 -1 0 842)" d="M215.94 483.98L549 483.98L549 342.02L215.94 342.02" stroke="none" fill="#ECF5FC" fill-rule="nonzero" /><g clip-path="url(#17)"><g clip-path="url(#18)"><path id="570" transform="matrix(1 0 0 -1 0 842)" d="M115.56 309.62L193.98 309.62L193.98 324.02L115.56 324.02z" stroke="none" fill="#FFFFFF" fill-rule="nonzero" /></g></g><g clip-path="url(#19)"><g clip-path="url(#20)"><g clip-path="url(#21)"><g transform="matrix(0.7431683 0 0 0.7421053 115.44 518.22)"><g transform="matrix(1 0 0 1 0 0)"><image x="0" y="0" xlink:href="img_274.png" width="101" height="19" /></g></g></g></g></g><path id="572" transform="matrix(1 0 0 -1 0 842)" d="M215.94 328.04L549 328.04L549 280.04L215.94 280.04" stroke="none" fill="#ECF5FC" fill-rule="nonzero" /><g clip-path="url(#22)"><g clip-path="url(#23)"><path id="629" transform="matrix(1 0 0 -1 0 842)" d="M115.56 247.64L193.98 247.64L193.98 262.04L115.56 262.04z" stroke="none" fill="#FFFFFF" fill-rule="nonzero" /></g></g><g clip-path="url(#24)"><g clip-path="url(#25)"><g clip-path="url(#26)"><g transform="matrix(0.7431683 0 0 0.7452632 115.44 580.2)"><g transform="matrix(1 0 0 1 0 0)"><image x="0" y="0" xlink:href="img_274.png" width="101" height="19" /></g></g></g></g></g><path id="631" transform="matrix(1 0 0 -1 0 842)" d="M215.94 266L549 266L549 204.02L215.94 204.02" stroke="none" fill="#ECF5FC" fill-rule="nonzero" /><g clip-path="url(#27)"><g clip-path="url(#28)"><path id="727" transform="matrix(1 0 0 -1 0 842)" d="M115.56 171.62L193.98 171.62L193.98 186.02L115.56 186.02z" stroke="none" fill="#FFFFFF" fill-rule="nonzero" /></g></g><g clip-path="url(#29)"><g clip-path="url(#30)"><g clip-path="url(#31)"><g transform="matrix(0.7431683 0 0 0.7421053 115.44 656.22)"><g transform="matrix(1 0 0 1 0 0)"><image x="0" y="0" xlink:href="img_274.png" width="101" height="19" /></g></g></g></g></g><path id="729" transform="matrix(1 0 0 -1 0 842)" d="M215.94 190.04L549 190.04L549 128L215.94 128" stroke="none" fill="#ECF5FC" fill-rule="nonzero" /></g></g></svg>