<svg xmlns="http://www.w3.org/2000/svg" xmlns:xlink="http://www.w3.org/1999/xlink" id="body_283" preserveAspectRatio="xMinYMin meet" viewBox="0 0 793 1123"><defs><clipPath id="1"><path id="" clip-rule="evenodd" transform="matrix(1 0 0 1 0 0)" d="M0 842L0 0L0 0L595 0L595 0L595 842L595 842L0 842z" /></clipPath><clipPath id="2"><path id="" clip-rule="evenodd" transform="matrix(1 0 0 1 0 0)" d="M216.96 77.03998L361.44 77.03998L361.44 77.03998L361.44 330L361.44 330L216.96 330z" /></clipPath><clipPath id="3"><path id="" clip-rule="evenodd" transform="matrix(1 0 0 1 0 0)" d="M215.94 76.02002L362.46 76.02002L362.46 76.02002L362.46 331.02L362.46 331.02L215.94 331.02z" /></clipPath><clipPath id="4"><path id="" clip-rule="evenodd" transform="matrix(1 0 0 1 0 0)" d="M0 0.02001953L595.2 0.02001953L595.2 0.02001953L595.2 842L595.2 842L0 842z" /></clipPath><clipPath id="5"><path id="" clip-rule="evenodd" transform="matrix(1 0 0 1 0 0)" d="M414.24 420.18L549.96 420.18L549.96 420.18L549.96 618.66L549.96 618.66L414.24 618.66z" /></clipPath><clipPath id="6"><path id="" clip-rule="evenodd" transform="matrix(1 0 0 1 0 0)" d="M215.94 415.98L549.96 415.98L549.96 415.98L549.96 616.44L549.96 616.44L215.94 616.44z" /></clipPath><clipPath id="7"><path id="" clip-rule="evenodd" transform="matrix(1 0 0 1 0 0)" d="M0 0.02001953L595.2 0.02001953L595.2 0.02001953L595.2 842L595.2 842L0 842z" /></clipPath><clipPath id="8"><path id="" clip-rule="evenodd" transform="matrix(1 0 0 1 0 0)" d="M215.94 421.08L367.08 421.08L367.08 421.08L367.08 617.76L367.08 617.76L215.94 617.76z" /></clipPath><clipPath id="9"><path id="" clip-rule="evenodd" transform="matrix(1 0 0 1 0 0)" d="M215.94 415.98L549.96 415.98L549.96 415.98L549.96 616.44L549.96 616.44L215.94 616.44z" /></clipPath><clipPath id="10"><path id="" clip-rule="evenodd" transform="matrix(1 0 0 1 0 0)" d="M0 0.02001953L595.2 0.02001953L595.2 0.02001953L595.2 842L595.2 842L0 842z" /></clipPath><clipPath id="11"><path id="" clip-rule="evenodd" transform="matrix(1 0 0 1 0 0)" d="M215.94 415.98L549.96 415.98L549.96 415.98L549.96 616.44L549.96 616.44L215.94 616.44z" /></clipPath><clipPath id="12"><path id="" clip-rule="evenodd" transform="matrix(1 0 0 1 0 0)" d="M0 0.02001953L595.2 0.02001953L595.2 0.02001953L595.2 842L595.2 842L0 842z" /></clipPath></defs><g transform="matrix(1.333333 0 0 1.333333 0 0)"><g clip-path="url(#1)"><g clip-path="url(#2)"><g clip-path="url(#3)"><g clip-path="url(#4)"><g transform="matrix(0.48 0 0 0.48 216.96 77.03998)"><g transform="matrix(1 0 0 1 0 0)"><image x="0" y="0" xlink:href="img_877.png" width="301" height="527" /></g></g></g></g></g><g clip-path="url(#5)"><g clip-path="url(#6)"><g clip-path="url(#7)"><g transform="matrix(0.4778873 0 0 0.4794203 414.24 420.18)"><g transform="matrix(1 0 0 1 0 0)"><image x="0" y="0" xlink:href="img_835.png" width="284" height="414" /></g></g></g></g></g><g clip-path="url(#8)"><g clip-path="url(#9)"><g clip-path="url(#10)"><g transform="matrix(0.4782912 0 0 0.4785401 215.94 421.08)"><g transform="matrix(1 0 0 1 0 0)"><image x="0" y="0" xlink:href="img_836.png" width="316" height="411" /></g></g></g></g></g><g clip-path="url(#11)"><g clip-path="url(#12)"><path id="173" transform="matrix(1 0 0 -1 0 842)" d="M392.88 322.58L392.88 326.72L393.54 326.54L405.66 323.06L407.34 322.58L405.66 322.1L393.54 318.62L392.88 318.44L392.88 319.1L393.24 319.58L405.36 323.06L405.66 322.1L405.36 322.1L393.24 325.58L393.54 326.54L393.9 326.06L393.9 322.58" stroke="none" fill="#000000" fill-rule="nonzero" /><path id="174" transform="matrix(1 0 0 -1 0 842)" d="M392.88 319.1L393.9 319.1L393.9 322.58L392.88 322.58z" stroke="none" fill="#000000" fill-rule="nonzero" /><path id="175" transform="matrix(1 0 0 -1 0 842)" d="M393.36 322.58L393.36 326.06L393.36 326.06L405.48 322.58L405.48 322.58L393.36 319.1" stroke="none" fill="#000000" fill-rule="evenodd" /><path id="176" transform="matrix(1 0 0 -1 0 842)" d="M371.82 322.04L392.88 322.04L392.88 323.06L371.82 323.06z" stroke="none" fill="#000000" fill-rule="nonzero" /></g></g></g></g></svg>