<svg xmlns="http://www.w3.org/2000/svg" xmlns:xlink="http://www.w3.org/1999/xlink" id="body_125" preserveAspectRatio="xMinYMin meet" viewBox="0 0 793 1123"><defs><clipPath id="1"><path id="" clip-rule="evenodd" transform="matrix(1 0 0 1 0 0)" d="M0 842L0 0L0 0L595 0L595 0L595 842L595 842L0 842z" /></clipPath><clipPath id="2"><path id="" clip-rule="evenodd" transform="matrix(1 0 0 1 0 0)" d="M124.56 265.98L202.98 265.98L202.98 265.98L202.98 280.38L202.98 280.38L124.56 280.38z" /></clipPath><clipPath id="3"><path id="" clip-rule="evenodd" transform="matrix(1 0 0 1 0 0)" d="M0 0.02001953L595.2 0.02001953L595.2 0.02001953L595.2 842L595.2 842L0 842z" /></clipPath><clipPath id="4"><path id="" clip-rule="evenodd" transform="matrix(1 0 0 1 0 0)" d="M124.98 266.46L198.36 266.46L198.36 266.46L198.36 280.26L198.36 280.26L124.98 280.26z" /></clipPath><clipPath id="5"><path id="" clip-rule="evenodd" transform="matrix(1 0 0 1 0 0)" d="M124.56 265.98L202.98 265.98L202.98 265.98L202.98 280.38L202.98 280.38L124.56 280.38z" /></clipPath><clipPath id="6"><path id="" clip-rule="evenodd" transform="matrix(1 0 0 1 0 0)" d="M0 0.02001953L595.2 0.02001953L595.2 0.02001953L595.2 842L595.2 842L0 842z" /></clipPath></defs><g transform="matrix(1.333333 0 0 1.333333 0 0)"><g clip-path="url(#1)"><g clip-path="url(#2)"><g clip-path="url(#3)"><path id="810" transform="matrix(1 0 0 -1 0 842)" d="M124.56 561.62L202.98 561.62L202.98 576.02L124.56 576.02z" stroke="none" fill="#FFFFFF" fill-rule="nonzero" /></g></g><g clip-path="url(#4)"><g clip-path="url(#5)"><g clip-path="url(#6)"><g transform="matrix(0.7265346 0 0 0.7263158 124.98 266.46)"><g transform="matrix(1 0 0 1 0 0)"><image x="0" y="0" xlink:href="img_09.png" width="101" height="19" /></g></g></g></g></g><path id="812" transform="matrix(1 0 0 -1 0 842)" d="M224.94 580.04L558 580.04L558 532.04L224.94 532.04" stroke="none" fill="#ECF5FC" fill-rule="nonzero" /></g></g></svg>