<svg xmlns="http://www.w3.org/2000/svg" xmlns:xlink="http://www.w3.org/1999/xlink" id="body_277" preserveAspectRatio="xMinYMin meet" viewBox="0 0 793 1123"><defs><clipPath id="1"><path id="" clip-rule="evenodd" transform="matrix(1 0 0 1 0 0)" d="M0 842L0 0L0 0L595 0L595 0L595 842L595 842L0 842z" /></clipPath><clipPath id="2"><path id="" clip-rule="evenodd" transform="matrix(1 0 0 1 0 0)" d="M216.96 77.03998L427.26 77.03998L427.26 77.03998L427.26 265.3199L427.26 265.3199L216.96 265.3199z" /></clipPath><clipPath id="3"><path id="" clip-rule="evenodd" transform="matrix(1 0 0 1 0 0)" d="M215.94 76.02002L428.28 76.02002L428.28 76.02002L428.28 266.28L428.28 266.28L215.94 266.28z" /></clipPath><clipPath id="4"><path id="" clip-rule="evenodd" transform="matrix(1 0 0 1 0 0)" d="M0 0.02001953L595.2 0.02001953L595.2 0.02001953L595.2 842L595.2 842L0 842z" /></clipPath><clipPath id="5"><path id="" clip-rule="evenodd" transform="matrix(1 0 0 1 0 0)" d="M215.94 76.02002L428.28 76.02002L428.28 76.02002L428.28 266.28L428.28 266.28L215.94 266.28z" /></clipPath><clipPath id="6"><path id="" clip-rule="evenodd" transform="matrix(1 0 0 1 0 0)" d="M0 0.02001953L595.2 0.02001953L595.2 0.02001953L595.2 842L595.2 842L0 842z" /></clipPath><clipPath id="7"><path id="" clip-rule="evenodd" transform="matrix(1 0 0 1 0 0)" d="M216.96 375.3L475.74 375.3L475.74 375.3L475.74 582.84L475.74 582.84L216.96 582.84z" /></clipPath><clipPath id="8"><path id="" clip-rule="evenodd" transform="matrix(1 0 0 1 0 0)" d="M215.94 374.28L476.76 374.28L476.76 374.28L476.76 583.86L476.76 583.86L215.94 583.86z" /></clipPath><clipPath id="9"><path id="" clip-rule="evenodd" transform="matrix(1 0 0 1 0 0)" d="M0 0.02001953L595.2 0.02001953L595.2 0.02001953L595.2 842L595.2 842L0 842z" /></clipPath><clipPath id="10"><path id="" clip-rule="evenodd" transform="matrix(1 0 0 1 0 0)" d="M215.94 374.28L476.76 374.28L476.76 374.28L476.76 583.86L476.76 583.86L215.94 583.86z" /></clipPath><clipPath id="11"><path id="" clip-rule="evenodd" transform="matrix(1 0 0 1 0 0)" d="M0 0.02001953L595.2 0.02001953L595.2 0.02001953L595.2 842L595.2 842L0 842z" /></clipPath></defs><g transform="matrix(1.333333 0 0 1.333333 0 0)"><g clip-path="url(#1)"><g clip-path="url(#2)"><g clip-path="url(#3)"><g clip-path="url(#4)"><g transform="matrix(0.480137 0 0 0.479084 216.96 77.04004)"><g transform="matrix(1 0 0 1 0 0)"><image x="0" y="0" xlink:href="img_864.png" width="438" height="393" /></g></g></g></g></g><g clip-path="url(#5)"><g clip-path="url(#6)"><path id="197" transform="matrix(1 0 0 -1 0 842)" d="M363.18 675.68L362.94 675.92L362.94 675.92L362.58 676.1L362.58 676.1L362.4 676.16L362.4 676.16L362.28 676.16L362.28 676.16L362.1 676.22L362.1 676.22L361.98 676.22L361.98 676.22L361.86 676.16L361.86 676.16L361.68 676.16L361.68 676.16L361.44 676.04L361.44 676.04L361.26 675.98L361.26 675.98L361.14 675.92L361.14 675.92L361.02 675.8L361.02 675.8L360.96 675.68L360.96 675.68L360.84 675.62L360.84 675.62L360.78 675.5L360.78 675.5L360.66 675.32L360.66 675.32L360.6 675.2L360.6 675.2L360.6 675.08L360.6 675.08L360.54 674.9L360.54 674.9L360.54 674.48L360.54 674.48L360.6 674.36L360.6 674.36L360.6 674.24L360.6 674.24L360.66 674.06L360.66 674.06L360.72 673.94L360.72 673.94L360.84 673.82L360.84 673.82L360.9 673.7L360.9 673.7L361.02 673.58L361.02 673.58L361.14 673.52L361.14 673.52L361.26 673.4L361.26 673.4L361.38 673.34L361.38 673.34L361.5 673.28L361.5 673.28L361.68 673.22L361.68 673.22L362.4 673.22L362.4 673.22L362.52 673.28L362.52 673.28L362.64 673.34L362.64 673.34L362.76 673.4L362.76 673.4L362.94 673.46L362.94 673.46L363.06 673.58L363.06 673.58L363.12 673.7L363.12 673.7L363.24 673.82L363.24 673.82L363.3 673.94L363.3 673.94L363.42 674.06L363.42 674.06L363.42 674.18L363.42 674.18L363.48 674.3L363.48 674.3L363.54 674.48L363.54 674.48L363.54 674.9L363.54 674.9L363.48 675.02L363.48 675.02L363.48 675.2L363.48 675.2L363.36 675.44L363.36 675.44L363.24 675.56L363.24 675.56L363.18 675.68" stroke="none" fill="#FF0000" fill-rule="evenodd" /><path id="198" transform="matrix(1 0 0 -1 0 842)" d="M362.04 674.72L358.62 678.56L358.2 679.1L358.8 679.34L375.6 687.3799L377.16 688.16L376.26 686.66L366.3 670.9399L365.88 670.34L365.46 670.8799L365.4 671.48L375.36 687.2L376.26 686.66L376.02 686.48L359.22 678.4399L358.8 679.34L359.4 679.22L362.82 675.3799" stroke="none" fill="#FF0000" fill-rule="nonzero" /><path id="199" transform="matrix(1 0 0 -1 0 842)" d="M365.46 670.88L362.04 674.72L362.82 675.38L366.24 671.54" stroke="none" fill="#FF0000" fill-rule="nonzero" /><path id="200" transform="matrix(1 0 0 -1 0 842)" d="M362.4 675.02L358.98 678.86L358.98 678.86L375.78 686.9L375.78 686.9L365.82 671.18" stroke="none" fill="#FF0000" fill-rule="evenodd" /><path id="201" transform="matrix(1 0 0 -1 0 842)" d="M291.6 614L290.52 613.04L292.5 610.82L293.58 611.78" stroke="none" fill="#FF0000" fill-rule="nonzero" /><path id="202" transform="matrix(1 0 0 -1 0 842)" d="M361.08 675.8L362.16 676.76L364.14 674.54L363.06 673.58" stroke="none" fill="#FF0000" fill-rule="nonzero" /><path id="203" transform="matrix(1 0 0 -1 0 842)" d="M291.6 614L293.58 611.78L363.06 673.58L361.08 675.8" stroke="none" fill="#FF0000" fill-rule="nonzero" /></g></g><g clip-path="url(#7)"><g clip-path="url(#8)"><g clip-path="url(#9)"><g transform="matrix(0.4792222 0 0 0.4793071 216.96 375.3)"><g transform="matrix(1 0 0 1 0 0)"><image x="0" y="0" xlink:href="img_865.png" width="540" height="433" /></g></g></g></g></g><g clip-path="url(#10)"><g clip-path="url(#11)"><path id="206" transform="matrix(1 0 0 -1 0 842)" d="M332.16 409.7L332.28 409.94L332.28 409.94L332.28 410.12L332.28 410.12L332.34 410.24L332.34 410.24L332.28 410.42L332.28 410.42L332.28 410.72L332.28 410.72L332.1 411.08L332.1 411.08L331.98 411.2L331.98 411.2L331.92 411.32L331.92 411.32L331.8 411.44L331.8 411.44L331.56 411.56L331.56 411.56L331.38 411.68L331.38 411.68L331.26 411.68L331.26 411.68L331.14 411.74L331.14 411.74L330.96 411.74L330.96 411.74L330.84 411.8L330.84 411.8L330.66 411.74L330.66 411.74L330.42 411.74L330.42 411.74L330.24 411.68L330.24 411.68L330 411.56L330 411.56L329.88 411.44L329.88 411.44L329.76 411.38L329.76 411.38L329.7 411.26L329.7 411.26L329.58 411.14L329.58 411.14L329.46 410.9L329.46 410.9L329.4 410.72L329.4 410.72L329.34 410.6L329.34 410.6L329.34 410L329.34 410L329.4 409.88L329.4 409.88L329.4 409.7L329.4 409.7L329.46 409.58L329.46 409.58L329.52 409.46L329.52 409.46L329.64 409.34L329.64 409.34L329.7 409.22L329.7 409.22L329.82 409.16L329.82 409.16L329.94 409.04L329.94 409.04L330.06 408.98L330.06 408.98L330.24 408.92L330.24 408.92L330.48 408.8L330.48 408.8L331.08 408.8L331.08 408.8L331.2 408.86L331.2 408.86L331.38 408.86L331.38 408.86L331.5 408.92L331.5 408.92L331.62 409.04L331.62 409.04L331.74 409.1L331.74 409.1L332.04 409.4L332.04 409.4L332.1 409.52L332.1 409.52L332.16 409.7" stroke="none" fill="#FF0000" fill-rule="evenodd" /><path id="207" transform="matrix(1 0 0 -1 0 842)" d="M330.84 410.24L332.88 414.98L333.18 415.58L333.66 415.16L348.06 403.34L349.38 402.26L347.7 402.44L329.22 404.84L328.5 404.96L328.8 405.56L329.28 405.86L347.76 403.46L347.7 402.44L347.4 402.56L333 414.38L333.66 415.16L333.78 414.56L331.74 409.82" stroke="none" fill="#FF0000" fill-rule="nonzero" /><path id="208" transform="matrix(1 0 0 -1 0 842)" d="M328.8 405.56L330.84 410.24L331.74 409.82L329.7 405.14" stroke="none" fill="#FF0000" fill-rule="nonzero" /><path id="209" transform="matrix(1 0 0 -1 0 842)" d="M331.26 410.06L333.3 414.8L333.3 414.8L347.7 402.98L347.7 402.98L329.22 405.38" stroke="none" fill="#FF0000" fill-rule="evenodd" /><path id="210" transform="matrix(1 0 0 -1 0 842)" d="M271.92 437.42L270.54 438.02L269.34 435.26L270.72 434.66" stroke="none" fill="#FF0000" fill-rule="nonzero" /><path id="211" transform="matrix(1 0 0 -1 0 842)" d="M331.44 411.68L332.82 411.08L331.62 408.32L330.24 408.92" stroke="none" fill="#FF0000" fill-rule="nonzero" /><path id="212" transform="matrix(1 0 0 -1 0 842)" d="M271.92 437.42L270.72 434.66L330.24 408.92L331.44 411.68" stroke="none" fill="#FF0000" fill-rule="nonzero" /><path id="214" transform="matrix(1 0 0 -1 0 842)" d="M335.4 321.38L335.34 321.56L335.34 321.56L335.22 321.8L335.22 321.8L335.16 321.98L335.16 321.98L335.1 322.1L335.1 322.1L334.98 322.16L334.98 322.16L334.86 322.28L334.86 322.28L334.8 322.4L334.8 322.4L334.68 322.46L334.68 322.46L334.5 322.52L334.5 322.52L334.26 322.64L334.26 322.64L333.54 322.64L333.54 322.64L333.36 322.58L333.36 322.58L333.12 322.46L333.12 322.46L333 322.34L333 322.34L332.88 322.28L332.88 322.28L332.76 322.16L332.76 322.16L332.7 322.04L332.7 322.04L332.58 321.92L332.58 321.92L332.46 321.68L332.46 321.68L332.46 321.56L332.46 321.56L332.4 321.38L332.4 321.38L332.4 320.96L332.4 320.96L332.46 320.78L332.46 320.78L332.46 320.66L332.46 320.66L332.52 320.54L332.52 320.54L332.64 320.36L332.64 320.36L332.7 320.24L332.7 320.24L333 319.94L333 319.94L333.36 319.76L333.36 319.76L333.54 319.7L333.54 319.7L334.26 319.7L334.26 319.7L334.44 319.76L334.44 319.76L334.68 319.88L334.68 319.88L334.8 320L334.8 320L334.92 320.06L334.92 320.06L334.98 320.18L334.98 320.18L335.1 320.3L335.1 320.3L335.34 320.78L335.34 320.78L335.4 320.96L335.4 320.96L335.4 321.38" stroke="none" fill="#FF0000" fill-rule="evenodd" /><path id="215" transform="matrix(1 0 0 -1 0 842)" d="M333.9 321.2L333.12 326.24L333 326.9L333.72 326.78L352.14 324.44L353.88 324.26L352.26 323.54L335.4 315.74L334.8 315.44L334.68 316.1L334.98 316.64L351.84 324.44L352.26 323.54L351.96 323.48L333.54 325.82L333.72 326.78L334.14 326.36L334.92 321.32" stroke="none" fill="#FF0000" fill-rule="nonzero" /><path id="216" transform="matrix(1 0 0 -1 0 842)" d="M334.68 316.1L333.9 321.2L334.92 321.32L335.7 316.22" stroke="none" fill="#FF0000" fill-rule="nonzero" /><path id="217" transform="matrix(1 0 0 -1 0 842)" d="M334.38 321.26L333.6 326.3L333.6 326.3L352.02 323.96L352.02 323.96L335.16 316.16" stroke="none" fill="#FF0000" fill-rule="evenodd" /><path id="218" transform="matrix(1 0 0 -1 0 842)" d="M264.48 311.9L263.04 311.66L263.52 308.72L264.96 308.96" stroke="none" fill="#FF0000" fill-rule="nonzero" /><path id="219" transform="matrix(1 0 0 -1 0 842)" d="M333.66 322.64L335.1 322.88L335.58 319.94L334.14 319.7" stroke="none" fill="#FF0000" fill-rule="nonzero" /><path id="220" transform="matrix(1 0 0 -1 0 842)" d="M264.48 311.9L264.96 308.96L334.14 319.7L333.66 322.64" stroke="none" fill="#FF0000" fill-rule="nonzero" /></g></g></g></g></svg>