<svg xmlns="http://www.w3.org/2000/svg" xmlns:xlink="http://www.w3.org/1999/xlink" id="body_136" preserveAspectRatio="xMinYMin meet" viewBox="0 0 793 1123"><defs><clipPath id="1"><path id="" clip-rule="evenodd" transform="matrix(1 0 0 1 0 0)" d="M0 842L0 0L0 0L595 0L595 0L595 842L595 842L0 842z" /></clipPath><clipPath id="2"><path id="" clip-rule="evenodd" transform="matrix(1 0 0 1 0 0)" d="M377.1 92.34003L527.1 92.34003L527.1 92.34003L527.1 237.66L527.1 237.66L377.1 237.66z" /></clipPath><clipPath id="3"><path id="" clip-rule="evenodd" transform="matrix(1 0 0 1 0 0)" d="M224.94 76.02002L528.12 76.02002L528.12 76.02002L528.12 298.98L528.12 298.98L224.94 298.98z" /></clipPath><clipPath id="4"><path id="" clip-rule="evenodd" transform="matrix(1 0 0 1 0 0)" d="M0 0.02001953L595.2 0.02001953L595.2 0.02001953L595.2 842L595.2 842L0 842z" /></clipPath><clipPath id="5"><path id="" clip-rule="evenodd" transform="matrix(1 0 0 1 0 0)" d="M224.94 76.02002L528.12 76.02002L528.12 76.02002L528.12 298.98L528.12 298.98L224.94 298.98z" /></clipPath><clipPath id="6"><path id="" clip-rule="evenodd" transform="matrix(1 0 0 1 0 0)" d="M0 0.02001953L595.2 0.02001953L595.2 0.02001953L595.2 842L595.2 842L0 842z" /></clipPath><clipPath id="7"><path id="" clip-rule="evenodd" transform="matrix(1 0 0 1 0 0)" d="M225.96 92.34003L372.24 92.34003L372.24 92.34003L372.24 299.4L372.24 299.4L225.96 299.4z" /></clipPath><clipPath id="8"><path id="" clip-rule="evenodd" transform="matrix(1 0 0 1 0 0)" d="M224.94 76.02002L528.12 76.02002L528.12 76.02002L528.12 298.98L528.12 298.98L224.94 298.98z" /></clipPath><clipPath id="9"><path id="" clip-rule="evenodd" transform="matrix(1 0 0 1 0 0)" d="M0 0.02001953L595.2 0.02001953L595.2 0.02001953L595.2 842L595.2 842L0 842z" /></clipPath><clipPath id="10"><path id="" clip-rule="evenodd" transform="matrix(1 0 0 1 0 0)" d="M224.94 76.02002L528.12 76.02002L528.12 76.02002L528.12 298.98L528.12 298.98L224.94 298.98z" /></clipPath><clipPath id="11"><path id="" clip-rule="evenodd" transform="matrix(1 0 0 1 0 0)" d="M0 0.02001953L595.2 0.02001953L595.2 0.02001953L595.2 842L595.2 842L0 842z" /></clipPath><clipPath id="12"><path id="" clip-rule="evenodd" transform="matrix(1 0 0 1 0 0)" d="M225.96 413.22L484.74 413.22L484.74 413.22L484.74 523.2L484.74 523.2L225.96 523.2z" /></clipPath><clipPath id="13"><path id="" clip-rule="evenodd" transform="matrix(1 0 0 1 0 0)" d="M224.94 411.96L557.88 411.96L557.88 411.96L557.88 558.48L557.88 558.48L224.94 558.48z" /></clipPath><clipPath id="14"><path id="" clip-rule="evenodd" transform="matrix(1 0 0 1 0 0)" d="M0 0.02001953L595.2 0.02001953L595.2 0.02001953L595.2 842L595.2 842L0 842z" /></clipPath><clipPath id="15"><path id="" clip-rule="evenodd" transform="matrix(1 0 0 1 0 0)" d="M491.52 413.22L556.86 413.22L556.86 413.22L556.86 557.46L556.86 557.46L491.52 557.46z" /></clipPath><clipPath id="16"><path id="" clip-rule="evenodd" transform="matrix(1 0 0 1 0 0)" d="M224.94 411.96L557.88 411.96L557.88 411.96L557.88 558.48L557.88 558.48L224.94 558.48z" /></clipPath><clipPath id="17"><path id="" clip-rule="evenodd" transform="matrix(1 0 0 1 0 0)" d="M0 0.02001953L595.2 0.02001953L595.2 0.02001953L595.2 842L595.2 842L0 842z" /></clipPath><clipPath id="18"><path id="" clip-rule="evenodd" transform="matrix(1 0 0 1 0 0)" d="M225.96 639.48L406.5 639.48L406.5 639.48L406.5 728.64L406.5 728.64L225.96 728.64z" /></clipPath><clipPath id="19"><path id="" clip-rule="evenodd" transform="matrix(1 0 0 1 0 0)" d="M224.94 638.46L407.52 638.46L407.52 638.46L407.52 729.66L407.52 729.66L224.94 729.66z" /></clipPath><clipPath id="20"><path id="" clip-rule="evenodd" transform="matrix(1 0 0 1 0 0)" d="M0 0.02001953L595.2 0.02001953L595.2 0.02001953L595.2 842L595.2 842L0 842z" /></clipPath></defs><g transform="matrix(1.333333 0 0 1.333333 0 0)"><g clip-path="url(#1)"><g clip-path="url(#2)"><g clip-path="url(#3)"><g clip-path="url(#4)"><g transform="matrix(0.4792332 0 0 0.479604 377.1 92.33997)"><g transform="matrix(1 0 0 1 0 0)"><image x="0" y="0" xlink:href="img_386.png" width="313" height="303" /></g></g></g></g></g><g clip-path="url(#5)"><g clip-path="url(#6)"><path id="237" transform="matrix(1 0 0 -1 0 842)" d="M465.66 676.46L485.04 676.46L485.04 701.48L465.66 701.48z" stroke="none" fill="#FFFFFF" fill-rule="nonzero" /></g></g><g clip-path="url(#7)"><g clip-path="url(#8)"><g clip-path="url(#9)"><g transform="matrix(0.4780392 0 0 0.4793056 225.96 92.34003)"><g transform="matrix(1 0 0 1 0 0)"><image x="0" y="0" xlink:href="img_387.png" width="306" height="432" /></g></g></g></g></g><g clip-path="url(#10)"><g clip-path="url(#11)"><path id="251" transform="matrix(1 0 0 -1 0 842)" d="M445.56 707.42L445.2 707.72L444.54 706.94L444.9 706.64" stroke="none" fill="#FF1721" fill-rule="nonzero" /><path id="252" transform="matrix(1 0 0 -1 0 842)" d="M464.94 690.56L465.3 690.26L464.64 689.48L464.28 689.78" stroke="none" fill="#FF1721" fill-rule="nonzero" /><path id="253" transform="matrix(1 0 0 -1 0 842)" d="M445.56 707.42L444.9 706.64L464.28 689.78L464.94 690.56" stroke="none" fill="#FF1721" fill-rule="nonzero" /><path id="254" transform="matrix(1 0 0 -1 0 842)" d="M465.3 687.2L465.78 687.2L465.72 688.22L465.24 688.22" stroke="none" fill="#FF1721" fill-rule="nonzero" /><path id="255" transform="matrix(1 0 0 -1 0 842)" d="M432.18 685.28L431.7 685.28L431.64 686.3L432.12 686.3" stroke="none" fill="#FF1721" fill-rule="nonzero" /><path id="256" transform="matrix(1 0 0 -1 0 842)" d="M465.3 687.2L465.24 688.22L432.12 686.3L432.18 685.28" stroke="none" fill="#FF1721" fill-rule="nonzero" /><path id="257" transform="matrix(1 0 0 -1 0 842)" d="M380.46 581.78L380.76 581.42L381.54 582.08L381.24 582.44" stroke="none" fill="#000000" fill-rule="nonzero" /><path id="258" transform="matrix(1 0 0 -1 0 842)" d="M338.58 629.9L338.28 630.26L339.06 630.92L339.36 630.56" stroke="none" fill="#000000" fill-rule="nonzero" /><path id="259" transform="matrix(1 0 0 -1 0 842)" d="M380.46 581.78L381.24 582.44L339.36 630.5601L338.58 629.9" stroke="none" fill="#000000" fill-rule="nonzero" /><path id="261" transform="matrix(1 0 0 -1 0 842)" d="M321.36 655.34L343.86 655.34L343.86 680.36L321.36 680.36z" stroke="none" fill="#FFFFFF" fill-rule="nonzero" /></g></g><g clip-path="url(#12)"><g clip-path="url(#13)"><g clip-path="url(#14)"><g transform="matrix(0.4795777 0 0 0.4781739 225.96 413.22)"><g transform="matrix(1 0 0 1 0 0)"><image x="0" y="0" xlink:href="img_388.png" width="540" height="230" /></g></g></g></g></g><g clip-path="url(#15)"><g clip-path="url(#16)"><g clip-path="url(#17)"><g transform="matrix(0.4779854 0 0 0.4792027 491.52 413.22)"><g transform="matrix(1 0 0 1 0 0)"><image x="0" y="0" xlink:href="img_389.png" width="137" height="301" /></g></g></g></g></g><g clip-path="url(#18)"><g clip-path="url(#19)"><g clip-path="url(#20)"><g transform="matrix(0.4794165 0 0 0.4793549 225.96 639.48)"><g transform="matrix(1 0 0 1 0 0)"><image x="0" y="0" xlink:href="img_390.png" width="377" height="186" /></g></g></g></g></g></g></g></svg>