<svg xmlns="http://www.w3.org/2000/svg" xmlns:xlink="http://www.w3.org/1999/xlink" id="body_49" preserveAspectRatio="xMinYMin meet" viewBox="0 0 793 1123"><defs><clipPath id="1"><path id="" clip-rule="evenodd" transform="matrix(1 0 0 1 0 0)" d="M0 842L0 0L0 0L595 0L595 0L595 842L595 842L0 842z" /></clipPath><clipPath id="2"><path id="" clip-rule="evenodd" transform="matrix(1 0 0 1 0 0)" d="M216.96 430.92L350.7 430.92L350.7 430.92L350.7 560.52L350.7 560.52L216.96 560.52z" /></clipPath><clipPath id="3"><path id="" clip-rule="evenodd" transform="matrix(1 0 0 1 0 0)" d="M215.94 429.9L489.66 429.9L489.66 429.9L489.66 561.54L489.66 561.54L215.94 561.54z" /></clipPath><clipPath id="4"><path id="" clip-rule="evenodd" transform="matrix(1 0 0 1 0 0)" d="M0 0.02001953L595.2 0.02001953L595.2 0.02001953L595.2 842L595.2 842L0 842z" /></clipPath><clipPath id="5"><path id="" clip-rule="evenodd" transform="matrix(1 0 0 1 0 0)" d="M215.94 429.9L489.66 429.9L489.66 429.9L489.66 561.54L489.66 561.54L215.94 561.54z" /></clipPath><clipPath id="6"><path id="" clip-rule="evenodd" transform="matrix(1 0 0 1 0 0)" d="M0 0.02001953L595.2 0.02001953L595.2 0.02001953L595.2 842L595.2 842L0 842z" /></clipPath><clipPath id="7"><path id="" clip-rule="evenodd" transform="matrix(1 0 0 1 0 0)" d="M353.82 430.92L488.64 430.92L488.64 430.92L488.64 541.44L488.64 541.44L353.82 541.44z" /></clipPath><clipPath id="8"><path id="" clip-rule="evenodd" transform="matrix(1 0 0 1 0 0)" d="M215.94 429.9L489.66 429.9L489.66 429.9L489.66 561.54L489.66 561.54L215.94 561.54z" /></clipPath><clipPath id="9"><path id="" clip-rule="evenodd" transform="matrix(1 0 0 1 0 0)" d="M0 0.02001953L595.2 0.02001953L595.2 0.02001953L595.2 842L595.2 842L0 842z" /></clipPath><clipPath id="10"><path id="" clip-rule="evenodd" transform="matrix(1 0 0 1 0 0)" d="M215.94 429.9L489.66 429.9L489.66 429.9L489.66 561.54L489.66 561.54L215.94 561.54z" /></clipPath><clipPath id="11"><path id="" clip-rule="evenodd" transform="matrix(1 0 0 1 0 0)" d="M0 0.02001953L595.2 0.02001953L595.2 0.02001953L595.2 842L595.2 842L0 842z" /></clipPath></defs><g transform="matrix(1.333333 0 0 1.333333 0 0)"><g clip-path="url(#1)"><g clip-path="url(#2)"><g clip-path="url(#3)"><g clip-path="url(#4)"><g transform="matrix(0.4793549 0 0 0.48 216.96 430.92)"><g transform="matrix(1 0 0 1 0 0)"><image x="0" y="0" xlink:href="img_140.png" width="279" height="270" /></g></g></g></g></g><g clip-path="url(#5)"><g clip-path="url(#6)"><path id="782" transform="matrix(1 0 0 -1 0 842)" d="M284.64 386.54L284.16 386.36L284.52 385.4L285 385.58" stroke="none" fill="#000000" fill-rule="nonzero" /><path id="783" transform="matrix(1 0 0 -1 0 842)" d="M323.64 401.54L324.12 401.72L324.48 400.76L324 400.58" stroke="none" fill="#000000" fill-rule="nonzero" /><path id="784" transform="matrix(1 0 0 -1 0 842)" d="M284.64 386.54L285 385.58L324 400.58L323.64 401.54" stroke="none" fill="#000000" fill-rule="nonzero" /><path id="785" transform="matrix(1 0 0 -1 0 842)" d="M327.54 397.82L338.04 397.82L338.04 408.32L327.54 408.32z" stroke="none" fill="#FFFFFF" fill-rule="nonzero" /><path id="787" transform="matrix(1 0 0 -1 0 842)" d="M261.24 327.8L261.54 328.22L260.7 328.82L260.4 328.4" stroke="none" fill="#000000" fill-rule="nonzero" /><path id="788" transform="matrix(1 0 0 -1 0 842)" d="M246.24 306.8L245.94 306.38L245.1 306.98L245.4 307.4" stroke="none" fill="#000000" fill-rule="nonzero" /><path id="789" transform="matrix(1 0 0 -1 0 842)" d="M261.24 327.8L260.4 328.4L245.4 307.4L246.24 306.8" stroke="none" fill="#000000" fill-rule="nonzero" /><path id="790" transform="matrix(1 0 0 -1 0 842)" d="M240.54 292.82L251.82 292.82L251.82 303.32L240.54 303.32z" stroke="none" fill="#FFFFFF" fill-rule="nonzero" /><path id="792" transform="matrix(1 0 0 -1 0 842)" d="M315 337.04L315.3 337.46L314.46 338.06L314.16 337.64" stroke="none" fill="#000000" fill-rule="nonzero" /><path id="793" transform="matrix(1 0 0 -1 0 842)" d="M292.5 305.54L292.2 305.12L291.36 305.72L291.66 306.14" stroke="none" fill="#000000" fill-rule="nonzero" /><path id="794" transform="matrix(1 0 0 -1 0 842)" d="M315 337.04L314.16 337.64L291.66 306.14L292.5 305.54" stroke="none" fill="#000000" fill-rule="nonzero" /><path id="795" transform="matrix(1 0 0 -1 0 842)" d="M284.58 290.06L295.08 290.06L295.08 301.34L284.58 301.34z" stroke="none" fill="#FFFFFF" fill-rule="nonzero" /></g></g><g clip-path="url(#7)"><g clip-path="url(#8)"><g clip-path="url(#9)"><g transform="matrix(0.4797865 0 0 0.4784415 353.82 430.92)"><g transform="matrix(1 0 0 1 0 0)"><image x="0" y="0" xlink:href="img_141.png" width="281" height="231" /></g></g></g></g></g><g clip-path="url(#10)"><g clip-path="url(#11)"><path id="798" transform="matrix(1 0 0 -1 0 842)" d="M432.6 386.3L431.64 386.06L432.18 384.14L433.14 384.38" stroke="none" fill="#000000" fill-rule="nonzero" /><path id="799" transform="matrix(1 0 0 -1 0 842)" d="M471.6 397.52L472.56 397.76L473.1 395.84L472.14 395.6" stroke="none" fill="#000000" fill-rule="nonzero" /><path id="800" transform="matrix(1 0 0 -1 0 842)" d="M432.6 386.3L433.14 384.38L472.14 395.6L471.6 397.52" stroke="none" fill="#000000" fill-rule="nonzero" /><path id="801" transform="matrix(1 0 0 -1 0 842)" d="M389.34 347.36L389.58 347.78L388.68 348.26L388.44 347.84" stroke="none" fill="#000000" fill-rule="nonzero" /><path id="802" transform="matrix(1 0 0 -1 0 842)" d="M372.06 317.36L371.82 316.94L370.92 317.42L371.16 317.84" stroke="none" fill="#000000" fill-rule="nonzero" /><path id="803" transform="matrix(1 0 0 -1 0 842)" d="M389.34 347.36L388.44 347.84L371.16 317.84L372.06 317.36" stroke="none" fill="#000000" fill-rule="nonzero" /><path id="804" transform="matrix(1 0 0 -1 0 842)" d="M361.86 305.6L373.08 305.6L373.08 315.32L361.86 315.32z" stroke="none" fill="#FFFFFF" fill-rule="nonzero" /><path id="806" transform="matrix(1 0 0 -1 0 842)" d="M474.36 392.6L485.58 392.6L485.58 403.1L474.36 403.1z" stroke="none" fill="#FFFFFF" fill-rule="nonzero" /><path id="808" transform="matrix(1 0 0 -1 0 842)" d="M465.12 338.18L465.48 338.48L464.88 339.26L464.52 338.96" stroke="none" fill="#000000" fill-rule="nonzero" /><path id="809" transform="matrix(1 0 0 -1 0 842)" d="M428.16 309.68L427.8 309.38L427.2 310.16L427.56 310.46" stroke="none" fill="#000000" fill-rule="nonzero" /><path id="810" transform="matrix(1 0 0 -1 0 842)" d="M465.12 338.18L464.52 338.96L427.56 310.46L428.16 309.68" stroke="none" fill="#000000" fill-rule="nonzero" /><path id="811" transform="matrix(1 0 0 -1 0 842)" d="M416.82 302.84L426.6 302.84L426.6 313.34L416.82 313.34z" stroke="none" fill="#FFFFFF" fill-rule="nonzero" /></g></g></g></g></svg>