<svg xmlns="http://www.w3.org/2000/svg" xmlns:xlink="http://www.w3.org/1999/xlink" id="body_12" preserveAspectRatio="xMinYMin meet" viewBox="0 0 793 1123"><defs><clipPath id="1"><path id="" clip-rule="evenodd" transform="matrix(1 0 0 1 0 0)" d="M0 842L0 0L0 0L595 0L595 0L595 842L595 842L0 842z" /></clipPath><clipPath id="2"><path id="" clip-rule="evenodd" transform="matrix(1 0 0 1 0 0)" d="M216.96 214.98L368.64 214.98L368.64 214.98L368.64 496.5L368.64 496.5L216.96 496.5z" /></clipPath><clipPath id="3"><path id="" clip-rule="evenodd" transform="matrix(1 0 0 1 0 0)" d="M215.94 214.02L512.7 214.02L512.7 214.02L512.7 497.52L512.7 497.52L215.94 497.52z" /></clipPath><clipPath id="4"><path id="" clip-rule="evenodd" transform="matrix(1 0 0 1 0 0)" d="M0 0.02001953L595.2 0.02001953L595.2 0.02001953L595.2 842L595.2 842L0 842z" /></clipPath><clipPath id="5"><path id="" clip-rule="evenodd" transform="matrix(1 0 0 1 0 0)" d="M215.94 214.02L512.7 214.02L512.7 214.02L512.7 497.52L512.7 497.52L215.94 497.52z" /></clipPath><clipPath id="6"><path id="" clip-rule="evenodd" transform="matrix(1 0 0 1 0 0)" d="M0 0.02001953L595.2 0.02001953L595.2 0.02001953L595.2 842L595.2 842L0 842z" /></clipPath></defs><g transform="matrix(1.333333 0 0 1.333333 0 0)"><g clip-path="url(#1)"><path id="231" transform="matrix(1 0 0 -1 0 842)" d="M215.94 249.5L549 249.5L549 215.48L215.94 215.48" stroke="none" fill="#ECF5FC" fill-rule="nonzero" /><g clip-path="url(#2)"><g clip-path="url(#3)"><g clip-path="url(#4)"><g transform="matrix(0.48 0 0 0.4795911 216.96 214.98)"><g transform="matrix(1 0 0 1 0 0)"><image x="0" y="0" xlink:href="img_22.png" width="316" height="587" /></g></g></g></g></g><g clip-path="url(#5)"><g clip-path="url(#6)"><path id="266" transform="matrix(1 0 0 -1 0 842)" d="M377.94 588.86L378.42 588.86L378.42 589.88L377.94 589.88z" stroke="none" fill="#000000" fill-rule="nonzero" /><path id="267" transform="matrix(1 0 0 -1 0 842)" d="M322.26 588.86L377.94 588.86L377.94 589.88L322.26 589.88z" stroke="none" fill="#000000" fill-rule="nonzero" /><path id="274" transform="matrix(1 0 0 -1 0 842)" d="M377.94 542.48L378.42 542.48L378.42 543.5L377.94 543.5z" stroke="none" fill="#000000" fill-rule="nonzero" /><path id="275" transform="matrix(1 0 0 -1 0 842)" d="M317.1 542.48L377.94 542.48L377.94 543.5L317.1 543.5z" stroke="none" fill="#000000" fill-rule="nonzero" /><path id="286" transform="matrix(1 0 0 -1 0 842)" d="M377.94 467.66L378.42 467.66L378.42 468.68L377.94 468.68z" stroke="none" fill="#000000" fill-rule="nonzero" /><path id="287" transform="matrix(1 0 0 -1 0 842)" d="M299.28 467.24L299.76 467.24L299.76 468.26L299.28 468.26z" stroke="none" fill="#000000" fill-rule="nonzero" /><path id="288" transform="matrix(1 0 0 -1 0 842)" d="M377.94 467.66L377.94 468.68L299.76 468.26L299.76 467.24" stroke="none" fill="#000000" fill-rule="nonzero" /></g></g></g></g></svg>