<svg xmlns="http://www.w3.org/2000/svg" xmlns:xlink="http://www.w3.org/1999/xlink" id="body_246" preserveAspectRatio="xMinYMin meet" viewBox="0 0 793 1123"><defs><clipPath id="1"><path id="" clip-rule="evenodd" transform="matrix(1 0 0 1 0 0)" d="M0 842L0 0L0 0L595 0L595 0L595 842L595 842L0 842z" /></clipPath><clipPath id="2"><path id="" clip-rule="evenodd" transform="matrix(1 0 0 1 0 0)" d="M224.94 730.98L558 730.98L558 730.98L558 745.98L558 745.98L224.94 745.98z" /></clipPath><clipPath id="3"><path id="" clip-rule="evenodd" transform="matrix(1 0 0 1 0 0)" d="M0 0.02001953L595.2 0.02001953L595.2 0.02001953L595.2 842L595.2 842L0 842z" /></clipPath><clipPath id="4"><path id="" clip-rule="evenodd" transform="matrix(1 0 0 1 0 0)" d="M124.56 376.92L202.98 376.92L202.98 376.92L202.98 391.32L202.98 391.32L124.56 391.32z" /></clipPath><clipPath id="5"><path id="" clip-rule="evenodd" transform="matrix(1 0 0 1 0 0)" d="M0 0.02001953L595.2 0.02001953L595.2 0.02001953L595.2 842L595.2 842L0 842z" /></clipPath><clipPath id="6"><path id="" clip-rule="evenodd" transform="matrix(1 0 0 1 0 0)" d="M124.98 377.4L198.36 377.4L198.36 377.4L198.36 391.2L198.36 391.2L124.98 391.2z" /></clipPath><clipPath id="7"><path id="" clip-rule="evenodd" transform="matrix(1 0 0 1 0 0)" d="M124.56 376.92L202.98 376.92L202.98 376.92L202.98 391.32L202.98 391.32L124.56 391.32z" /></clipPath><clipPath id="8"><path id="" clip-rule="evenodd" transform="matrix(1 0 0 1 0 0)" d="M0 0.02001953L595.2 0.02001953L595.2 0.02001953L595.2 842L595.2 842L0 842z" /></clipPath><clipPath id="9"><path id="" clip-rule="evenodd" transform="matrix(1 0 0 1 0 0)" d="M124.56 572.88L202.98 572.88L202.98 572.88L202.98 587.28L202.98 587.28L124.56 587.28z" /></clipPath><clipPath id="10"><path id="" clip-rule="evenodd" transform="matrix(1 0 0 1 0 0)" d="M0 0.02001953L595.2 0.02001953L595.2 0.02001953L595.2 842L595.2 842L0 842z" /></clipPath><clipPath id="11"><path id="" clip-rule="evenodd" transform="matrix(1 0 0 1 0 0)" d="M125.16 572.94L199.86 572.94L199.86 572.94L199.86 586.98L199.86 586.98L125.16 586.98z" /></clipPath><clipPath id="12"><path id="" clip-rule="evenodd" transform="matrix(1 0 0 1 0 0)" d="M124.56 572.88L202.98 572.88L202.98 572.88L202.98 587.28L202.98 587.28L124.56 587.28z" /></clipPath><clipPath id="13"><path id="" clip-rule="evenodd" transform="matrix(1 0 0 1 0 0)" d="M0 0.02001953L595.2 0.02001953L595.2 0.02001953L595.2 842L595.2 842L0 842z" /></clipPath></defs><g transform="matrix(1.333333 0 0 1.333333 0 0)"><g clip-path="url(#1)"><path id="490" transform="matrix(1 0 0 -1 0 842)" d="M260.94 559.04L558 559.04L558 607.04L260.94 607.04z" stroke="none" fill="#ECF5FC" fill-rule="nonzero" /><g clip-path="url(#2)"><g clip-path="url(#3)"><path id="549" transform="matrix(1 0 0 -1 0 842)" d="M225.36 103.82L369.9 103.82L369.9 104.3L225.36 104.3z" stroke="none" fill="#000000" fill-rule="nonzero" /></g></g><g clip-path="url(#4)"><g clip-path="url(#5)"><path id="594" transform="matrix(1 0 0 -1 0 842)" d="M124.56 450.68L202.98 450.68L202.98 465.08L124.56 465.08z" stroke="none" fill="#FFFFFF" fill-rule="nonzero" /></g></g><g clip-path="url(#6)"><g clip-path="url(#7)"><g clip-path="url(#8)"><g transform="matrix(0.7265346 0 0 0.7263158 124.98 377.4)"><g transform="matrix(1 0 0 1 0 0)"><image x="0" y="0" xlink:href="img_09.png" width="101" height="19" /></g></g></g></g></g><path id="596" transform="matrix(1 0 0 -1 0 842)" d="M242.94 469.04L558 469.04L558 435.08L242.94 435.08" stroke="none" fill="#ECF5FC" fill-rule="nonzero" /><g clip-path="url(#9)"><g clip-path="url(#10)"><path id="625" transform="matrix(1 0 0 -1 0 842)" d="M124.56 254.72L202.98 254.72L202.98 269.12L124.56 269.12z" stroke="none" fill="#FFFFFF" fill-rule="nonzero" /></g></g><g clip-path="url(#11)"><g clip-path="url(#12)"><g clip-path="url(#13)"><g transform="matrix(0.7396039 0 0 0.7389474 125.16 572.94)"><g transform="matrix(1 0 0 1 0 0)"><image x="0" y="0" xlink:href="img_250.png" width="101" height="19" /></g></g></g></g></g><path id="627" transform="matrix(1 0 0 -1 0 842)" d="M242.94 273.08L558 273.08L558 155.12L242.94 155.12" stroke="none" fill="#ECF5FC" fill-rule="nonzero" /></g></g></svg>