<svg xmlns="http://www.w3.org/2000/svg" xmlns:xlink="http://www.w3.org/1999/xlink" id="body_148" preserveAspectRatio="xMinYMin meet" viewBox="0 0 793 1123"><defs><clipPath id="1"><path id="" clip-rule="evenodd" transform="matrix(1 0 0 1 0 0)" d="M0 842L0 0L0 0L595 0L595 0L595 842L595 842L0 842z" /></clipPath><clipPath id="2"><path id="" clip-rule="evenodd" transform="matrix(1 0 0 1 0 0)" d="M216.96 77.03998L396.72 77.03998L396.72 77.03998L396.72 224.4L396.72 224.4L216.96 224.4z" /></clipPath><clipPath id="3"><path id="" clip-rule="evenodd" transform="matrix(1 0 0 1 0 0)" d="M215.94 76.02002L523.32 76.02002L523.32 76.02002L523.32 225.42L523.32 225.42L215.94 225.42z" /></clipPath><clipPath id="4"><path id="" clip-rule="evenodd" transform="matrix(1 0 0 1 0 0)" d="M0 0.02001953L595.2 0.02001953L595.2 0.02001953L595.2 842L595.2 842L0 842z" /></clipPath><clipPath id="5"><path id="" clip-rule="evenodd" transform="matrix(1 0 0 1 0 0)" d="M215.94 76.02002L523.32 76.02002L523.32 76.02002L523.32 225.42L523.32 225.42L215.94 225.42z" /></clipPath><clipPath id="6"><path id="" clip-rule="evenodd" transform="matrix(1 0 0 1 0 0)" d="M0 0.02001953L595.2 0.02001953L595.2 0.02001953L595.2 842L595.2 842L0 842z" /></clipPath><clipPath id="7"><path id="" clip-rule="evenodd" transform="matrix(1 0 0 1 0 0)" d="M216.96 493.32L547.98 493.32L547.98 493.32L547.98 720.84L547.98 720.84L216.96 720.84z" /></clipPath><clipPath id="8"><path id="" clip-rule="evenodd" transform="matrix(1 0 0 1 0 0)" d="M215.94 492.3L549 492.3L549 492.3L549 721.86L549 721.86L215.94 721.86z" /></clipPath><clipPath id="9"><path id="" clip-rule="evenodd" transform="matrix(1 0 0 1 0 0)" d="M0 0.02001953L595.2 0.02001953L595.2 0.02001953L595.2 842L595.2 842L0 842z" /></clipPath></defs><g transform="matrix(1.333333 0 0 1.333333 0 0)"><g clip-path="url(#1)"><path id="237" transform="matrix(1 0 0 -1 0 842)" d="M215.94 573.62L549 573.62L549 497.66L215.94 497.66" stroke="none" fill="#ECF5FC" fill-rule="nonzero" /><g clip-path="url(#2)"><g clip-path="url(#3)"><g clip-path="url(#4)"><g transform="matrix(0.47936 0 0 0.48 216.96 77.04004)"><g transform="matrix(1 0 0 1 0 0)"><image x="0" y="0" xlink:href="img_413.png" width="375" height="307" /></g></g></g></g></g><g clip-path="url(#5)"><g clip-path="url(#6)"><path id="364" transform="matrix(1 0 0 -1 0 842)" d="M405.78 746.9L406.26 746.9L406.26 747.92L405.78 747.92z" stroke="none" fill="#000000" fill-rule="nonzero" /><path id="365" transform="matrix(1 0 0 -1 0 842)" d="M327.84 747.26L328.32 747.26L328.32 748.28L327.84 748.28z" stroke="none" fill="#000000" fill-rule="nonzero" /><path id="366" transform="matrix(1 0 0 -1 0 842)" d="M405.78 746.9L405.78 747.92L328.32 748.28L328.32 747.26" stroke="none" fill="#000000" fill-rule="nonzero" /><path id="367" transform="matrix(1 0 0 -1 0 842)" d="M405.78 681.26L406.26 681.26L406.26 682.28L405.78 682.28z" stroke="none" fill="#000000" fill-rule="nonzero" /><path id="368" transform="matrix(1 0 0 -1 0 842)" d="M365.82 680.96L366.3 680.96L366.3 681.98L365.82 681.98z" stroke="none" fill="#000000" fill-rule="nonzero" /><path id="369" transform="matrix(1 0 0 -1 0 842)" d="M405.78 681.26L405.78 682.28L366.3 681.98L366.3 680.96" stroke="none" fill="#000000" fill-rule="nonzero" /><path id="370" transform="matrix(1 0 0 -1 0 842)" d="M405.78 665.6L406.26 665.6L406.26 666.62L405.78 666.62z" stroke="none" fill="#000000" fill-rule="nonzero" /><path id="371" transform="matrix(1 0 0 -1 0 842)" d="M275.46 666.62L275.94 666.62L275.94 667.64L275.46 667.64z" stroke="none" fill="#000000" fill-rule="nonzero" /><path id="372" transform="matrix(1 0 0 -1 0 842)" d="M405.78 665.6L405.78 666.62L275.94 667.64L275.94 666.62" stroke="none" fill="#000000" fill-rule="nonzero" /></g></g><g clip-path="url(#7)"><g clip-path="url(#8)"><g clip-path="url(#9)"><g transform="matrix(0.4797391 0 0 0.48 216.96 493.32)"><g transform="matrix(1 0 0 1 0 0)"><image x="0" y="0" xlink:href="img_414.png" width="690" height="474" /></g></g></g></g></g></g></g></svg>