<svg xmlns="http://www.w3.org/2000/svg" xmlns:xlink="http://www.w3.org/1999/xlink" id="body_31" preserveAspectRatio="xMinYMin meet" viewBox="0 0 793 1123"><defs><clipPath id="1"><path id="" clip-rule="evenodd" transform="matrix(1 0 0 1 0 0)" d="M0 842L0 0L0 0L595 0L595 0L595 842L595 842L0 842z" /></clipPath><clipPath id="2"><path id="" clip-rule="evenodd" transform="matrix(1 0 0 1 0 0)" d="M43.44 75.06L526.44 75.06L526.44 75.06L526.44 576.06L526.44 576.06L43.44 576.06z" /></clipPath><clipPath id="3"><path id="" clip-rule="evenodd" transform="matrix(1 0 0 1 0 0)" d="M35.94 74.03998L528.96 74.03998L528.96 74.03998L528.96 606.54L528.96 606.54L35.94 606.54z" /></clipPath><clipPath id="4"><path id="" clip-rule="evenodd" transform="matrix(1 0 0 1 0 0)" d="M0 0.02001953L595.2 0.02001953L595.2 0.02001953L595.2 842L595.2 842L0 842z" /></clipPath><clipPath id="5"><path id="" clip-rule="evenodd" transform="matrix(1 0 0 1 0 0)" d="M35.94 74.03998L528.96 74.03998L528.96 74.03998L528.96 606.54L528.96 606.54L35.94 606.54z" /></clipPath><clipPath id="6"><path id="" clip-rule="evenodd" transform="matrix(1 0 0 1 0 0)" d="M0 0.02001953L595.2 0.02001953L595.2 0.02001953L595.2 842L595.2 842L0 842z" /></clipPath></defs><g transform="matrix(1.333333 0 0 1.333333 0 0)"><g clip-path="url(#1)"><g clip-path="url(#2)"><g clip-path="url(#3)"><g clip-path="url(#4)"><path id="206" transform="matrix(1 0 0 -1 0 842)" d="M367.865 746.424L367.659 745.589L367.659 745.589L367.247 744.727L367.247 744.727L366.655 743.946L366.655 743.946L365.935 743.354L365.935 743.354L365.111 742.923L365.111 742.923L364.313 742.681L364.313 742.681L363.463 742.573L363.463 742.573L362.64 742.681L362.64 742.681L361.816 742.923L361.816 742.923L360.992 743.354L360.992 743.354L360.297 743.946L360.297 743.946L359.705 744.727L359.705 744.727L359.319 745.589L359.319 745.589L359.036 746.424L359.036 746.424L358.985 747.313L358.985 747.313L359.036 748.148L359.036 748.148L359.319 749.036L359.319 749.036L359.705 749.871L359.705 749.871L360.297 750.625L360.297 750.625L360.992 751.244L360.992 751.244L361.816 751.648L361.816 751.648L362.64 751.891L362.64 751.891L363.463 751.999L363.463 751.999L364.313 751.891L364.313 751.891L365.111 751.648L365.111 751.648L365.935 751.244L365.935 751.244L366.655 750.625L366.655 750.625L367.247 749.871L367.247 749.871L367.659 749.036L367.659 749.036L367.865 748.148L367.865 748.148L367.994 747.313L367.994 747.313L367.865 746.424" stroke="none" fill="#221E1F" fill-rule="evenodd" /><path id="207" transform="matrix(1 0 0 -1 0 842)" d="M455.563 752.026L455.563 742.6L455.563 742.6L455.151 742.6L455.151 742.6L454.765 742.573L454.765 742.573L454.353 742.573L454.353 742.573L454.353 751.999L454.353 751.999L454.765 751.999L454.765 751.999L455.151 752.026L455.151 752.026L455.563 752.026" stroke="none" fill="#221E1F" fill-rule="evenodd" /><path id="208" transform="matrix(1 0 0 -1 0 842)" d="M366.192 745.939L454.662 745.939L454.662 748.632L366.192 748.632z" stroke="none" fill="#221E1F" fill-rule="nonzero" /><path id="209" transform="matrix(1 0 0 -1 0 842)" d="M330.31 748.713L330.49 747.824L330.49 747.824L330.516 746.882L330.516 746.882L330.361 745.912L330.361 745.912L329.975 745.024L329.975 745.024L329.46 744.243L329.46 744.243L328.843 743.65L328.843 743.65L328.148 743.139L328.148 743.139L327.401 742.842L327.401 742.842L326.526 742.627L326.526 742.627L325.625 742.6L325.625 742.6L324.724 742.788L324.724 742.788L323.875 743.192L323.875 743.192L323.154 743.731L323.154 743.731L322.511 744.35L322.511 744.35L322.073 745.104L322.073 745.104L321.738 745.885L321.738 745.885L321.584 746.801L321.584 746.801L321.584 747.717L321.584 747.717L321.738 748.686L321.738 748.686L322.099 749.548L322.099 749.548L322.614 750.329L322.614 750.329L323.257 750.948L323.257 750.948L323.926 751.46L323.926 751.46L324.699 751.756L324.699 751.756L325.548 751.945L325.548 751.945L326.449 751.972L326.449 751.972L327.375 751.81L327.375 751.81L328.225 751.406L328.225 751.406L328.946 750.894L328.946 750.894L329.538 750.221L329.538 750.221L330.027 749.521L330.027 749.521L330.31 748.713" stroke="none" fill="#221E1F" fill-rule="evenodd" /><path id="210" transform="matrix(1 0 0 -1 0 842)" d="M327.427 749.602L356.9 766.003L356.9 766.003L358.11 763.606L358.11 763.606L328.637 747.205L328.637 747.205L327.427 749.602" stroke="none" fill="#221E1F" fill-rule="evenodd" /><path id="211" transform="matrix(1 0 0 -1 0 842)" d="M339.551 740.58L342.125 740.58L342.125 754.503L339.551 754.503z" stroke="none" fill="#221E1F" fill-rule="nonzero" /><path id="212" transform="matrix(1 0 0 -1 0 842)" d="M344.699 740.553L347.273 740.553L347.273 758.004L344.699 758.004z" stroke="none" fill="#221E1F" fill-rule="nonzero" /><path id="213" transform="matrix(1 0 0 -1 0 842)" d="M337.131 739.234L349.641 739.234L349.641 741.927L337.131 741.927z" stroke="none" fill="#221E1F" fill-rule="nonzero" /><path id="214" transform="matrix(1 0 0 -1 0 842)" d="M326.063 745.966L48.65799 745.966L48.65799 745.966L48.65799 747.312L48.65799 747.312L47.371 747.312L47.371 747.312L47.371 747.528L47.371 747.528L47.42297 747.743L47.42297 747.743L47.5 747.932L47.5 747.932L47.603 748.12L47.603 748.12L47.73099 748.282L47.73099 748.282L47.88599 748.417L47.88599 748.417L48.06598 748.524L48.06598 748.524L48.246 748.605L48.246 748.605L48.65799 748.659L48.65799 748.659L326.063 748.659L326.063 748.659L326.063 745.966" stroke="none" fill="#221E1F" fill-rule="evenodd" /><path id="215" transform="matrix(1 0 0 -1 0 842)" d="M48.658 747.313L49.919 747.34L49.919 747.34L49.945 406.269L49.945 406.269L47.397 406.242L47.397 406.242L47.371 747.313L47.371 747.313L48.658 747.313" stroke="none" fill="#221E1F" fill-rule="evenodd" /><path id="216" transform="matrix(1 0 0 -1 0 842)" d="M285.779 741.738L284.981 741.953L284.981 741.953L284.157 742.384L284.157 742.384L283.437 743.004L283.437 743.004L282.844 743.758L282.844 743.758L282.433 744.619L282.433 744.619L282.227 745.454L282.227 745.454L282.098 746.343L282.098 746.343L282.227 747.205L282.227 747.205L282.433 748.067L282.433 748.067L282.844 748.928L282.844 748.928L283.437 749.655L283.437 749.655L284.157 750.275L284.157 750.275L284.981 750.679L284.981 750.679L285.779 750.975L285.779 750.975L286.628 751.056L286.628 751.056L287.452 750.975L287.452 750.975L288.276 750.679L288.276 750.679L289.074 750.275L289.074 750.275L289.794 749.655L289.794 749.655L290.386 748.928L290.386 748.928L290.798 748.067L290.798 748.067L291.004 747.205L291.004 747.205L291.107 746.343L291.107 746.343L291.004 745.454L291.004 745.454L290.798 744.619L290.798 744.619L290.386 743.758L290.386 743.758L289.794 743.004L289.794 743.004L289.074 742.384L289.074 742.384L288.276 741.953L288.276 741.953L287.452 741.738L287.452 741.738L286.628 741.63L286.628 741.63L285.779 741.738" stroke="none" fill="#221E1F" fill-rule="evenodd" /><path id="217" transform="matrix(1 0 0 -1 0 842)" d="M426.708 673.685L435.666 677.859L435.666 677.859L435.923 678.075L435.923 678.075L436.052 678.344L436.052 678.344L435.923 678.667L435.923 678.667L435.691 678.856L435.691 678.856L426.708 683.03L426.708 683.03L426.579 683.084L426.579 683.084L426.502 683.084L426.502 683.084L426.322 683.03L426.322 683.03L426.142 682.922L426.142 682.922L426.013 682.761L426.013 682.761L425.987 682.572L425.987 682.572L425.987 674.17L425.987 674.17L426.013 673.954L426.013 673.954L426.142 673.766L426.142 673.766L426.322 673.685L426.322 673.685L426.502 673.658L426.502 673.658L426.579 673.658L426.579 673.658L426.708 673.685" stroke="none" fill="#221E1F" fill-rule="evenodd" /><path id="218" transform="matrix(1 0 0 -1 0 842)" d="M287.915 743.973L287.915 678.344L287.915 678.344L286.628 678.344L286.628 678.344L286.628 676.997L286.628 676.997L286.422 677.024L286.422 677.024L286.216 677.078L286.216 677.078L286.036 677.159L286.036 677.159L285.856 677.267L285.856 677.267L285.701 677.401L285.701 677.401L285.573 677.563L285.573 677.563L285.47 677.752L285.47 677.752L285.393 677.94L285.393 677.94L285.341 678.344L285.341 678.344L285.341 743.973L285.341 743.973L287.915 743.973" stroke="none" fill="#221E1F" fill-rule="evenodd" /><path id="219" transform="matrix(1 0 0 -1 0 842)" d="M286.628 678.344L286.628 679.69L286.628 679.69L427.995 679.69L427.995 679.69L427.995 676.998L427.995 676.998L286.628 676.998L286.628 676.998L286.628 678.344" stroke="none" fill="#221E1F" fill-rule="evenodd" /><path id="220" transform="matrix(1 0 0 -1 0 842)" d="M480.531 649.664L436.051 649.664L436.051 649.664L435.846 649.691L435.846 649.691L435.639 649.745L435.639 649.745L435.459 649.826L435.459 649.826L435.279 649.933L435.279 649.933L435.125 650.068L435.125 650.068L434.996 650.23L434.996 650.23L434.893 650.418L434.893 650.418L434.816 650.607L434.816 650.607L434.764 651.011L434.764 651.011L436.051 651.011L436.051 651.011L436.051 652.357L436.051 652.357L480.531 652.357L480.531 652.357L480.531 649.664" stroke="none" fill="#221E1F" fill-rule="evenodd" /><path id="221" transform="matrix(1 0 0 -1 0 842)" d="M434.765 651.01L434.765 707.429L434.765 707.429L434.817 707.644L434.817 707.644L434.894 707.833L434.894 707.833L434.997 708.021L434.997 708.021L435.125 708.183L435.125 708.183L435.28 708.317L435.28 708.317L435.46 708.425L435.46 708.425L435.64 708.506L435.64 708.506L436.052 708.56L436.052 708.56L436.052 707.213L436.052 707.213L437.339 707.213L437.339 707.213L437.339 651.01L437.339 651.01L434.765 651.01" stroke="none" fill="#221E1F" fill-rule="evenodd" /><path id="222" transform="matrix(1 0 0 -1 0 842)" d="M436.052 708.56L525.191 708.56L525.191 708.56L525.397 708.506L525.397 708.506L525.577 708.425L525.577 708.425L525.757 708.318L525.757 708.318L525.912 708.183L525.912 708.183L526.041 708.021L526.041 708.021L526.144 707.833L526.144 707.833L526.221 707.644L526.221 707.644L526.298 707.214L526.298 707.214L525.011 707.214L525.011 707.214L525.011 705.867L525.011 705.867L436.052 705.867L436.052 705.867L436.052 708.56" stroke="none" fill="#221E1F" fill-rule="evenodd" /><path id="223" transform="matrix(1 0 0 -1 0 842)" d="M526.298 707.214L526.298 651.011L526.298 651.011L526.272 650.822L526.272 650.822L526.2209 650.607L526.2209 650.607L526.144 650.418L526.144 650.418L526.041 650.23L526.041 650.23L525.912 650.068L525.912 650.068L525.757 649.933L525.757 649.933L525.577 649.826L525.577 649.826L525.397 649.745L525.397 649.745L525.011 649.664L525.011 649.664L525.011 651.011L525.011 651.011L523.724 651.011L523.724 651.011L523.724 707.214L523.724 707.214L526.298 707.214" stroke="none" fill="#221E1F" fill-rule="evenodd" /><path id="224" transform="matrix(1 0 0 -1 0 842)" d="M525.011 651.01L525.011 649.663L525.011 649.663L480.532 649.663L480.532 649.663L480.532 652.356L480.532 652.356L525.011 652.356L525.011 652.356L525.011 651.01" stroke="none" fill="#221E1F" fill-rule="evenodd" /><path id="225" transform="matrix(1 0 0 -1 0 842)" d="M53.034 607.356L52.828 606.521L52.828 606.521L52.416 605.659L52.416 605.659L51.824 604.905L51.824 604.905L51.104 604.286L51.104 604.286L50.28 603.855L50.28 603.855L49.482 603.64L49.482 603.64L48.632 603.505L48.632 603.505L47.809 603.64L47.809 603.64L46.985 603.855L46.985 603.855L46.161 604.286L46.161 604.286L45.466 604.905L45.466 604.905L44.874 605.659L44.874 605.659L44.488 606.521L44.488 606.521L44.205 607.356L44.205 607.356L44.128 608.245L44.128 608.245L44.205 609.106L44.205 609.106L44.488 609.968L44.488 609.968L44.874 610.803L44.874 610.803L45.466 611.557L45.466 611.557L46.161 612.177L46.161 612.177L46.985 612.607L46.985 612.607L47.809 612.823L47.809 612.823L48.632 612.931L48.632 612.931L49.482 612.823L49.482 612.823L50.28 612.607L50.28 612.607L51.104 612.177L51.104 612.177L51.824 611.557L51.824 611.557L52.416 610.803L52.416 610.803L52.828 609.968L52.828 609.968L53.034 609.106L53.034 609.106L53.137 608.245L53.137 608.245L53.034 607.356" stroke="none" fill="#221E1F" fill-rule="evenodd" /><path id="226" transform="matrix(1 0 0 -1 0 842)" d="M50.897 606.872L75.84 606.872L75.84 609.565L50.897 609.565z" stroke="none" fill="#221E1F" fill-rule="nonzero" /><path id="227" transform="matrix(1 0 0 -1 0 842)" d="M80.087 609.565L80.267 608.676L80.267 608.676L80.293 607.734L80.293 607.734L80.138 606.764L80.138 606.764L79.752 605.876L79.752 605.876L79.237 605.095L79.237 605.095L78.62 604.502L78.62 604.502L77.925 603.991L77.925 603.991L77.178 603.694L77.178 603.694L76.303 603.479L76.303 603.479L75.402 603.452L75.402 603.452L74.501 603.64L74.501 603.64L73.652 604.044L73.652 604.044L72.931 604.583L72.931 604.583L72.28699 605.202L72.28699 605.202L71.85 605.956L71.85 605.956L71.515 606.737L71.515 606.737L71.361 607.653L71.361 607.653L71.361 608.569L71.361 608.569L71.515 609.538L71.515 609.538L71.876 610.4L71.876 610.4L72.391 611.181L72.391 611.181L73.034 611.8L73.034 611.8L73.703 612.312L73.703 612.312L74.476 612.608L74.476 612.608L75.325 612.797L75.325 612.797L76.226 612.824L76.226 612.824L77.152 612.662L77.152 612.662L78.002 612.258L78.002 612.258L78.723 611.746L78.723 611.746L79.31499 611.073L79.31499 611.073L79.804 610.373L79.804 610.373L80.087 609.565" stroke="none" fill="#221E1F" fill-rule="evenodd" /><path id="228" transform="matrix(1 0 0 -1 0 842)" d="M77.204 610.453L106.677 626.854L106.677 626.854L107.887 624.457L107.887 624.457L78.414 608.056L78.414 608.056L77.204 610.453" stroke="none" fill="#221E1F" fill-rule="evenodd" /><path id="229" transform="matrix(1 0 0 -1 0 842)" d="M89.328 601.432L91.902 601.432L91.902 615.355L89.328 615.355z" stroke="none" fill="#221E1F" fill-rule="nonzero" /><path id="230" transform="matrix(1 0 0 -1 0 842)" d="M94.476 601.405L97.05 601.405L97.05 618.856L94.476 618.856z" stroke="none" fill="#221E1F" fill-rule="nonzero" /><path id="231" transform="matrix(1 0 0 -1 0 842)" d="M86.908 600.085L99.418 600.085L99.418 602.778L86.908 602.778z" stroke="none" fill="#221E1F" fill-rule="nonzero" /><path id="232" transform="matrix(1 0 0 -1 0 842)" d="M112.597 607.276L112.391 606.441L112.391 606.441L111.979 605.579L111.979 605.579L111.387 604.825L111.387 604.825L110.667 604.206L110.667 604.206L109.843 603.775L109.843 603.775L109.045 603.56L109.045 603.56L108.195 603.425L108.195 603.425L107.372 603.56L107.372 603.56L106.548 603.775L106.548 603.775L105.724 604.206L105.724 604.206L105.029 604.825L105.029 604.825L104.437 605.579L104.437 605.579L104.051 606.441L104.051 606.441L103.768 607.276L103.768 607.276L103.691 608.165L103.691 608.165L103.768 609.026L103.768 609.026L104.051 609.888L104.051 609.888L104.437 610.723L104.437 610.723L105.029 611.477L105.029 611.477L105.724 612.096L105.724 612.096L106.548 612.527L106.548 612.527L107.372 612.743L107.372 612.743L108.195 612.851L108.195 612.851L109.045 612.743L109.045 612.743L109.843 612.527L109.843 612.527L110.667 612.096L110.667 612.096L111.387 611.477L111.387 611.477L111.979 610.723L111.979 610.723L112.391 609.888L112.391 609.888L112.597 609.026L112.597 609.026L112.7 608.165L112.7 608.165L112.597 607.276" stroke="none" fill="#221E1F" fill-rule="evenodd" /><path id="233" transform="matrix(1 0 0 -1 0 842)" d="M110.461 606.791L178.622 606.791L178.622 609.484L110.461 609.484z" stroke="none" fill="#221E1F" fill-rule="nonzero" /><path id="234" transform="matrix(1 0 0 -1 0 842)" d="M183.589 608.137L183.512 607.248L183.512 607.248L183.28 606.333L183.28 606.333L182.843 605.471L182.843 605.471L182.225 604.744L182.225 604.744L181.478 604.178L181.478 604.178L180.732 603.774L180.732 603.774L179.934 603.505L179.934 603.505L179.11 603.478L179.11 603.478L178.235 603.532L178.235 603.532L177.36 603.801L177.36 603.801L176.562 604.259L176.562 604.259L175.867 604.905L175.867 604.905L175.326 605.686L175.326 605.686L174.915 606.467L174.915 606.467L174.683 607.329L174.683 607.329L174.606 608.164L174.606 608.164L174.734 609.08L174.734 609.08L174.966 609.968L174.966 609.968L175.404 610.83L175.404 610.83L175.996 611.557L175.996 611.557L176.716 612.123L176.716 612.123L177.514 612.527L177.514 612.527L178.287 612.796L178.287 612.796L179.136 612.823L179.136 612.823L179.985 612.742L179.985 612.742L180.861 612.5L180.861 612.5L181.684 612.0421L181.684 612.0421L182.379 611.396L182.379 611.396L182.92 610.668L182.92 610.668L183.306 609.834L183.306 609.834L183.538 609.026L183.538 609.026L183.589 608.137" stroke="none" fill="#221E1F" fill-rule="evenodd" /><path id="235" transform="matrix(1 0 0 -1 0 842)" d="M181.118 609.888L209.278 615.328L209.278 615.328L209.767 612.662L209.767 612.662L181.581 607.249L181.581 607.249L181.118 609.888" stroke="none" fill="#221E1F" fill-rule="evenodd" /><path id="236" transform="matrix(1 0 0 -1 0 842)" d="M379.14 607.653L378.908 606.818L378.908 606.818L378.497 605.956L378.497 605.956L377.93 605.202L377.93 605.202L377.184 604.61L377.184 604.61L376.36 604.179L376.36 604.179L375.536 603.937L375.536 603.937L374.713 603.856L374.713 603.856L373.889 603.964L373.889 603.964L373.065 604.206L373.065 604.206L372.242 604.637L372.242 604.637L371.546 605.229L371.546 605.229L370.98 606.01L370.98 606.01L370.568 606.872L370.568 606.872L370.311 607.734L370.311 607.734L370.26 608.596L370.26 608.596L370.337 609.457L370.337 609.457L370.594 610.319L370.594 610.319L371.006 611.154L371.006 611.154L371.572 611.908L371.572 611.908L372.293 612.5L372.293 612.5L373.117 612.931L373.117 612.931L373.966 613.174L373.966 613.174L374.764 613.255L374.764 613.255L375.614 613.147L375.614 613.147L376.412 612.904L376.412 612.904L377.235 612.473L377.235 612.473L377.956 611.881L377.956 611.881L378.522 611.1L378.522 611.1L378.934 610.265L378.934 610.265L379.166 609.377L379.166 609.377L379.269 608.542L379.269 608.542L379.14 607.653" stroke="none" fill="#221E1F" fill-rule="evenodd" /><path id="237" transform="matrix(1 0 0 -1 0 842)" d="M426.322 603.532L435.305 607.625L435.305 607.625L435.563 607.841L435.563 607.841L435.666 608.11L435.666 608.11L435.563 608.433L435.563 608.433L435.331 608.622L435.331 608.622L426.373 612.85L426.373 612.85L426.245 612.904L426.245 612.904L426.193 612.904L426.193 612.904L425.987 612.85L425.987 612.85L425.807 612.742L425.807 612.742L425.704 612.607L425.704 612.607L425.653 612.392L425.653 612.392L425.601 603.99L425.601 603.99L425.627 603.801L425.627 603.801L425.756 603.613L425.756 603.613L425.936 603.532L425.936 603.532L426.116 603.478L426.116 603.478L426.193 603.478L426.193 603.478L426.322 603.532" stroke="none" fill="#221E1F" fill-rule="evenodd" /><path id="238" transform="matrix(1 0 0 -1 0 842)" d="M377.003 609.888L427.66 609.538L427.66 609.538L427.635 606.845L427.635 606.845L377.003 607.195L377.003 607.195L377.003 609.888" stroke="none" fill="#221E1F" fill-rule="evenodd" /><path id="239" transform="matrix(1 0 0 -1 0 842)" d="M480.171 584.923L435.692 584.923L435.692 584.923L435.486 584.95L435.486 584.95L435.28 585.004L435.28 585.004L435.099 585.085L435.099 585.085L434.919 585.192L434.919 585.192L434.765 585.327L434.765 585.327L434.636 585.489L434.636 585.489L434.533 585.677L434.533 585.677L434.456 585.866L434.456 585.866L434.405 586.269L434.405 586.269L435.692 586.269L435.692 586.269L435.692 587.616L435.692 587.616L480.171 587.616L480.171 587.616L480.171 584.923" stroke="none" fill="#221E1F" fill-rule="evenodd" /><path id="240" transform="matrix(1 0 0 -1 0 842)" d="M434.404 586.27L434.404 629.843L434.404 629.843L434.455 630.059L434.455 630.059L434.533 630.247L434.533 630.247L434.636 630.436L434.636 630.436L434.764 630.597L434.764 630.597L434.919 630.732L434.919 630.732L435.099 630.84L435.099 630.84L435.279 630.92L435.279 630.92L435.691 630.974L435.691 630.974L435.691 629.6281L435.691 629.6281L436.978 629.6281L436.978 629.6281L436.978 586.27L436.978 586.27L434.404 586.27" stroke="none" fill="#221E1F" fill-rule="evenodd" /><path id="241" transform="matrix(1 0 0 -1 0 842)" d="M435.691 630.974L524.83 630.974L524.83 630.974L525.036 630.92L525.036 630.92L525.217 630.839L525.217 630.839L525.397 630.732L525.397 630.732L525.551 630.597L525.551 630.597L525.68 630.435L525.68 630.435L525.783 630.247L525.783 630.247L525.86 630.058L525.86 630.058L525.937 629.627L525.937 629.627L524.65 629.627L524.65 629.627L524.65 628.281L524.65 628.281L435.691 628.281L435.691 628.281L435.691 630.974" stroke="none" fill="#221E1F" fill-rule="evenodd" /><path id="242" transform="matrix(1 0 0 -1 0 842)" d="M525.937 629.628L525.937 586.27L525.937 586.27L525.911 586.082L525.911 586.082L525.86 585.866L525.86 585.866L525.783 585.678L525.783 585.678L525.68 585.489L525.68 585.489L525.551 585.328L525.551 585.328L525.396 585.193L525.396 585.193L525.216 585.086L525.216 585.086L525.036 585.005L525.036 585.005L524.65 584.924L524.65 584.924L524.65 586.27L524.65 586.27L523.363 586.27L523.363 586.27L523.363 629.628L523.363 629.628L525.937 629.628" stroke="none" fill="#221E1F" fill-rule="evenodd" /><path id="243" transform="matrix(1 0 0 -1 0 842)" d="M524.65 586.27L524.65 584.924L524.65 584.924L480.17 584.924L480.17 584.924L480.17 587.617L480.17 587.617L524.65 587.617L524.65 587.617L524.65 586.27" stroke="none" fill="#221E1F" fill-rule="evenodd" /><path id="244" transform="matrix(1 0 0 -1 0 842)" d="M213.912 607.276L213.68 606.441L213.68 606.441L213.294 605.579L213.294 605.579L212.702 604.825L212.702 604.825L211.982 604.206L211.982 604.206L211.158 603.775L211.158 603.775L210.334 603.56L210.334 603.56L209.51 603.452L209.51 603.452L208.687 603.56L208.687 603.56L207.863 603.802L207.863 603.802L207.039 604.206L207.039 604.206L206.344 604.825L206.344 604.825L205.752 605.579L205.752 605.579L205.366 606.441L205.366 606.441L205.083 607.303L205.083 607.303L205.032 608.165L205.032 608.165L205.083 609.026L205.083 609.026L205.366 609.888L205.366 609.888L205.752 610.723L205.752 610.723L206.344 611.477L206.344 611.477L207.039 612.096L207.039 612.096L207.863 612.527L207.863 612.527L208.712 612.743L208.712 612.743L209.51 612.877L209.51 612.877L210.36 612.743L210.36 612.743L211.158 612.5L211.158 612.5L211.982 612.096L211.982 612.096L212.702 611.477L212.702 611.477L213.294 610.723L213.294 610.723L213.706 609.888L213.706 609.888L213.912 608.999L213.912 608.999L214.041 608.165L214.041 608.165L213.912 607.276" stroke="none" fill="#221E1F" fill-rule="evenodd" /><path id="245" transform="matrix(1 0 0 -1 0 842)" d="M343.849 606.791L211.775 606.791L211.775 606.791L211.775 609.484L211.775 609.484L343.875 609.457L343.875 609.457L343.849 606.791" stroke="none" fill="#221E1F" fill-rule="evenodd" /><path id="246" transform="matrix(1 0 0 -1 0 842)" d="M348.328 608.11L348.251 607.221L348.251 607.221L348.019 606.306L348.019 606.306L347.582 605.444L347.582 605.444L346.964 604.717L346.964 604.717L346.217 604.151L346.217 604.151L345.471 603.747L345.471 603.747L344.673 603.478L344.673 603.478L343.849 603.451L343.849 603.451L342.974 603.505L342.974 603.505L342.099 603.774L342.099 603.774L341.301 604.232L341.301 604.232L340.606 604.878L340.606 604.878L340.065 605.659L340.065 605.659L339.653 606.44L339.653 606.44L339.422 607.302L339.422 607.302L339.345 608.137L339.345 608.137L339.473 609.053L339.473 609.053L339.705 609.941L339.705 609.941L340.143 610.803L340.143 610.803L340.735 611.53L340.735 611.53L341.455 612.096L341.455 612.096L342.253 612.5L342.253 612.5L343.025 612.769L343.025 612.769L343.875 612.796L343.875 612.796L344.724 612.715L344.724 612.715L345.6 612.473L345.6 612.473L346.423 612.015L346.423 612.015L347.118 611.369L347.118 611.369L347.659 610.641L347.659 610.641L348.045 609.807L348.045 609.807L348.276 608.999L348.276 608.999L348.328 608.11" stroke="none" fill="#221E1F" fill-rule="evenodd" /><path id="247" transform="matrix(1 0 0 -1 0 842)" d="M345.857 609.861L374.017 615.301L374.017 615.301L374.506 612.635L374.506 612.635L346.32 607.222L346.32 607.222L345.857 609.861" stroke="none" fill="#221E1F" fill-rule="evenodd" /><path id="248" transform="matrix(1 0 0 -1 0 842)" d="M194.0655 620.1451L158.4151 620.1451L158.4151 620.1451L158.4151 643.8966L158.4151 643.8966L229.7423 643.8966L229.7423 643.8966L229.7423 620.1451L229.7423 620.1451L194.0655 620.1451" stroke="#221E1F" stroke-width="0.9334521" fill="none" /><path id="249" transform="matrix(1 0 0 -1 0 842)" d="M360.3743 620.1451L313.8093 620.1451L313.8093 620.1451L313.8093 643.8966L313.8093 643.8966L406.9383 643.8966L406.9383 643.8966L406.9383 620.1451L406.9383 620.1451L360.3743 620.1451" stroke="#221E1F" stroke-width="0.9334521" fill="none" /><path id="250" transform="matrix(1 0 0 -1 0 842)" d="M53.034 499.608L52.828 498.773L52.828 498.773L52.416 497.911L52.416 497.911L51.824 497.157L51.824 497.157L51.104 496.538L51.104 496.538L50.28 496.107L50.28 496.107L49.482 495.892L49.482 495.892L48.632 495.757L48.632 495.757L47.809 495.892L47.809 495.892L46.985 496.107L46.985 496.107L46.161 496.538L46.161 496.538L45.466 497.157L45.466 497.157L44.874 497.911L44.874 497.911L44.488 498.773L44.488 498.773L44.205 499.608L44.205 499.608L44.128 500.497L44.128 500.497L44.205 501.358L44.205 501.358L44.488 502.22L44.488 502.22L44.874 503.055L44.874 503.055L45.466 503.809L45.466 503.809L46.161 504.428L46.161 504.428L46.985 504.859L46.985 504.859L47.809 505.075L47.809 505.075L48.632 505.183L48.632 505.183L49.482 505.075L49.482 505.075L50.28 504.859L50.28 504.859L51.104 504.428L51.104 504.428L51.824 503.809L51.824 503.809L52.416 503.055L52.416 503.055L52.828 502.22L52.828 502.22L53.034 501.358L53.034 501.358L53.137 500.497L53.137 500.497L53.034 499.608" stroke="none" fill="#221E1F" fill-rule="evenodd" /><path id="251" transform="matrix(1 0 0 -1 0 842)" d="M50.897 499.124L75.84 499.124L75.84 501.817L50.897 501.817z" stroke="none" fill="#221E1F" fill-rule="nonzero" /><path id="252" transform="matrix(1 0 0 -1 0 842)" d="M80.087 501.817L80.267 500.928L80.267 500.928L80.293 499.986L80.293 499.986L80.138 499.016L80.138 499.016L79.752 498.128L79.752 498.128L79.237 497.347L79.237 497.347L78.62 496.754L78.62 496.754L77.925 496.242L77.925 496.242L77.178 495.946L77.178 495.946L76.303 495.731L76.303 495.731L75.402 495.704L75.402 495.704L74.501 495.892L74.501 495.892L73.652 496.296L73.652 496.296L72.931 496.835L72.931 496.835L72.28699 497.454L72.28699 497.454L71.85 498.208L71.85 498.208L71.515 498.989L71.515 498.989L71.361 499.905L71.361 499.905L71.361 500.821L71.361 500.821L71.515 501.79L71.515 501.79L71.876 502.652L71.876 502.652L72.391 503.433L72.391 503.433L73.034 504.052L73.034 504.052L73.703 504.564L73.703 504.564L74.476 504.86L74.476 504.86L75.325 505.049L75.325 505.049L76.226 505.076L76.226 505.076L77.152 504.914L77.152 504.914L78.002 504.51L78.002 504.51L78.723 503.998L78.723 503.998L79.31499 503.325L79.31499 503.325L79.804 502.625L79.804 502.625L80.087 501.817" stroke="none" fill="#221E1F" fill-rule="evenodd" /><path id="253" transform="matrix(1 0 0 -1 0 842)" d="M77.204 502.705L106.677 519.106L106.677 519.106L107.887 516.709L107.887 516.709L78.414 500.308L78.414 500.308L77.204 502.705" stroke="none" fill="#221E1F" fill-rule="evenodd" /><path id="254" transform="matrix(1 0 0 -1 0 842)" d="M89.328 493.684L91.902 493.684L91.902 507.607L89.328 507.607z" stroke="none" fill="#221E1F" fill-rule="nonzero" /><path id="255" transform="matrix(1 0 0 -1 0 842)" d="M94.476 493.657L97.05 493.657L97.05 511.108L94.476 511.108z" stroke="none" fill="#221E1F" fill-rule="nonzero" /><path id="256" transform="matrix(1 0 0 -1 0 842)" d="M86.908 492.337L99.418 492.337L99.418 495.03L86.908 495.03z" stroke="none" fill="#221E1F" fill-rule="nonzero" /><path id="257" transform="matrix(1 0 0 -1 0 842)" d="M112.597 499.528L112.391 498.693L112.391 498.693L111.979 497.831L111.979 497.831L111.387 497.077L111.387 497.077L110.667 496.458L110.667 496.458L109.843 496.027L109.843 496.027L109.045 495.812L109.045 495.812L108.195 495.677L108.195 495.677L107.372 495.812L107.372 495.812L106.548 496.027L106.548 496.027L105.724 496.458L105.724 496.458L105.029 497.077L105.029 497.077L104.437 497.831L104.437 497.831L104.051 498.693L104.051 498.693L103.768 499.528L103.768 499.528L103.691 500.417L103.691 500.417L103.768 501.278L103.768 501.278L104.051 502.14L104.051 502.14L104.437 502.975L104.437 502.975L105.029 503.729L105.029 503.729L105.724 504.349L105.724 504.349L106.548 504.779L106.548 504.779L107.372 504.995L107.372 504.995L108.195 505.103L108.195 505.103L109.045 504.995L109.045 504.995L109.843 504.779L109.843 504.779L110.667 504.349L110.667 504.349L111.387 503.729L111.387 503.729L111.979 502.975L111.979 502.975L112.391 502.14L112.391 502.14L112.597 501.278L112.597 501.278L112.7 500.417L112.7 500.417L112.597 499.528" stroke="none" fill="#221E1F" fill-rule="evenodd" /><path id="258" transform="matrix(1 0 0 -1 0 842)" d="M110.461 499.043L178.622 499.043L178.622 501.736L110.461 501.736z" stroke="none" fill="#221E1F" fill-rule="nonzero" /><path id="259" transform="matrix(1 0 0 -1 0 842)" d="M183.589 500.389L183.512 499.5L183.512 499.5L183.28 498.585L183.28 498.585L182.843 497.723L182.843 497.723L182.225 496.996L182.225 496.996L181.478 496.43L181.478 496.43L180.732 496.026L180.732 496.026L179.934 495.757L179.934 495.757L179.11 495.73L179.11 495.73L178.235 495.784L178.235 495.784L177.36 496.053L177.36 496.053L176.562 496.511L176.562 496.511L175.867 497.157L175.867 497.157L175.326 497.938L175.326 497.938L174.915 498.719L174.915 498.719L174.683 499.581L174.683 499.581L174.606 500.416L174.606 500.416L174.734 501.332L174.734 501.332L174.966 502.22L174.966 502.22L175.404 503.082L175.404 503.082L175.996 503.809L175.996 503.809L176.716 504.375L176.716 504.375L177.514 504.779L177.514 504.779L178.287 505.048L178.287 505.048L179.136 505.075L179.136 505.075L179.985 504.994L179.985 504.994L180.861 504.752L180.861 504.752L181.684 504.294L181.684 504.294L182.379 503.648L182.379 503.648L182.92 502.92L182.92 502.92L183.306 502.086L183.306 502.086L183.538 501.278L183.538 501.278L183.589 500.389" stroke="none" fill="#221E1F" fill-rule="evenodd" /><path id="260" transform="matrix(1 0 0 -1 0 842)" d="M181.118 502.14L209.278 507.58L209.278 507.58L209.767 504.914L209.767 504.914L181.581 499.501L181.581 499.501L181.118 502.14" stroke="none" fill="#221E1F" fill-rule="evenodd" /><path id="261" transform="matrix(1 0 0 -1 0 842)" d="M379.14 499.905L378.908 499.07L378.908 499.07L378.497 498.208L378.497 498.208L377.93 497.454L377.93 497.454L377.184 496.862L377.184 496.862L376.36 496.431L376.36 496.431L375.536 496.189L375.536 496.189L374.713 496.108L374.713 496.108L373.889 496.216L373.889 496.216L373.065 496.458L373.065 496.458L372.242 496.889L372.242 496.889L371.546 497.481L371.546 497.481L370.98 498.262L370.98 498.262L370.568 499.124L370.568 499.124L370.311 499.986L370.311 499.986L370.26 500.848L370.26 500.848L370.337 501.709L370.337 501.709L370.594 502.571L370.594 502.571L371.006 503.406L371.006 503.406L371.572 504.16L371.572 504.16L372.293 504.752L372.293 504.752L373.117 505.183L373.117 505.183L373.966 505.426L373.966 505.426L374.764 505.506L374.764 505.506L375.614 505.399L375.614 505.399L376.412 505.156L376.412 505.156L377.235 504.725L377.235 504.725L377.956 504.133L377.956 504.133L378.522 503.352L378.522 503.352L378.934 502.517L378.934 502.517L379.166 501.629L379.166 501.629L379.269 500.794L379.269 500.794L379.14 499.905" stroke="none" fill="#221E1F" fill-rule="evenodd" /><path id="262" transform="matrix(1 0 0 -1 0 842)" d="M426.322 495.784L435.305 499.877L435.305 499.877L435.563 500.093L435.563 500.093L435.666 500.362L435.666 500.362L435.563 500.685L435.563 500.685L435.331 500.874L435.331 500.874L426.373 505.102L426.373 505.102L426.245 505.156L426.245 505.156L426.193 505.156L426.193 505.156L425.987 505.102L425.987 505.102L425.807 504.994L425.807 504.994L425.704 504.86L425.704 504.86L425.653 504.644L425.653 504.644L425.601 496.242L425.601 496.242L425.627 496.053L425.627 496.053L425.756 495.865L425.756 495.865L425.936 495.784L425.936 495.784L426.116 495.73L426.116 495.73L426.193 495.73L426.193 495.73L426.322 495.784" stroke="none" fill="#221E1F" fill-rule="evenodd" /><path id="263" transform="matrix(1 0 0 -1 0 842)" d="M377.003 502.14L427.66 501.79L427.66 501.79L427.635 499.097L427.635 499.097L377.003 499.447L377.003 499.447L377.003 502.14" stroke="none" fill="#221E1F" fill-rule="evenodd" /><path id="264" transform="matrix(1 0 0 -1 0 842)" d="M480.171 477.176L435.692 477.176L435.692 477.176L435.486 477.203L435.486 477.203L435.28 477.257L435.28 477.257L435.099 477.338L435.099 477.338L434.919 477.445L434.919 477.445L434.765 477.58L434.765 477.58L434.636 477.742L434.636 477.742L434.533 477.93L434.533 477.93L434.456 478.119L434.456 478.119L434.405 478.523L434.405 478.523L435.692 478.523L435.692 478.523L435.692 479.869L435.692 479.869L480.171 479.869L480.171 479.869L480.171 477.176" stroke="none" fill="#221E1F" fill-rule="evenodd" /><path id="265" transform="matrix(1 0 0 -1 0 842)" d="M434.404 478.522L434.404 522.095L434.404 522.095L434.455 522.311L434.455 522.311L434.533 522.499L434.533 522.499L434.636 522.688L434.636 522.688L434.764 522.849L434.764 522.849L434.919 522.984L434.919 522.984L435.099 523.092L435.099 523.092L435.279 523.172L435.279 523.172L435.691 523.226L435.691 523.226L435.691 521.88L435.691 521.88L436.978 521.88L436.978 521.88L436.978 478.522L436.978 478.522L434.404 478.522" stroke="none" fill="#221E1F" fill-rule="evenodd" /><path id="266" transform="matrix(1 0 0 -1 0 842)" d="M435.691 523.226L524.83 523.226L524.83 523.226L525.036 523.172L525.036 523.172L525.217 523.091L525.217 523.091L525.397 522.984L525.397 522.984L525.551 522.849L525.551 522.849L525.68 522.687L525.68 522.687L525.783 522.499L525.783 522.499L525.86 522.31L525.86 522.31L525.937 521.88L525.937 521.88L524.65 521.88L524.65 521.88L524.65 520.533L524.65 520.533L435.691 520.533L435.691 520.533L435.691 523.226" stroke="none" fill="#221E1F" fill-rule="evenodd" /><path id="267" transform="matrix(1 0 0 -1 0 842)" d="M525.937 521.88L525.937 478.522L525.937 478.522L525.911 478.334L525.911 478.334L525.86 478.118L525.86 478.118L525.783 477.93L525.783 477.93L525.68 477.741L525.68 477.741L525.551 477.58L525.551 477.58L525.396 477.445L525.396 477.445L525.216 477.337L525.216 477.337L525.036 477.257L525.036 477.257L524.65 477.176L524.65 477.176L524.65 478.522L524.65 478.522L523.363 478.522L523.363 478.522L523.363 521.88L523.363 521.88L525.937 521.88" stroke="none" fill="#221E1F" fill-rule="evenodd" /><path id="268" transform="matrix(1 0 0 -1 0 842)" d="M524.65 478.522L524.65 477.175L524.65 477.175L480.17 477.175L480.17 477.175L480.17 479.869L480.17 479.869L524.65 479.869L524.65 479.869L524.65 478.522" stroke="none" fill="#221E1F" fill-rule="evenodd" /><path id="269" transform="matrix(1 0 0 -1 0 842)" d="M213.912 499.528L213.68 498.693L213.68 498.693L213.294 497.831L213.294 497.831L212.702 497.077L212.702 497.077L211.982 496.458L211.982 496.458L211.158 496.027L211.158 496.027L210.334 495.812L210.334 495.812L209.51 495.704L209.51 495.704L208.687 495.812L208.687 495.812L207.863 496.054L207.863 496.054L207.039 496.458L207.039 496.458L206.344 497.077L206.344 497.077L205.752 497.831L205.752 497.831L205.366 498.693L205.366 498.693L205.083 499.555L205.083 499.555L205.032 500.417L205.032 500.417L205.083 501.278L205.083 501.278L205.366 502.14L205.366 502.14L205.752 502.975L205.752 502.975L206.344 503.729L206.344 503.729L207.039 504.349L207.039 504.349L207.863 504.779L207.863 504.779L208.712 504.995L208.712 504.995L209.51 505.13L209.51 505.13L210.36 504.995L210.36 504.995L211.158 504.752L211.158 504.752L211.982 504.349L211.982 504.349L212.702 503.729L212.702 503.729L213.294 502.975L213.294 502.975L213.706 502.14L213.706 502.14L213.912 501.252L213.912 501.252L214.041 500.417L214.041 500.417L213.912 499.528" stroke="none" fill="#221E1F" fill-rule="evenodd" /><path id="270" transform="matrix(1 0 0 -1 0 842)" d="M343.849 499.043L211.775 499.043L211.775 499.043L211.775 501.736L211.775 501.736L343.875 501.709L343.875 501.709L343.849 499.043" stroke="none" fill="#221E1F" fill-rule="evenodd" /><path id="271" transform="matrix(1 0 0 -1 0 842)" d="M348.328 500.362L348.251 499.473L348.251 499.473L348.019 498.558L348.019 498.558L347.582 497.696L347.582 497.696L346.964 496.969L346.964 496.969L346.217 496.403L346.217 496.403L345.471 495.999L345.471 495.999L344.673 495.73L344.673 495.73L343.849 495.703L343.849 495.703L342.974 495.757L342.974 495.757L342.099 496.026L342.099 496.026L341.301 496.484L341.301 496.484L340.606 497.13L340.606 497.13L340.065 497.911L340.065 497.911L339.653 498.692L339.653 498.692L339.422 499.554L339.422 499.554L339.345 500.389L339.345 500.389L339.473 501.305L339.473 501.305L339.705 502.193L339.705 502.193L340.143 503.055L340.143 503.055L340.735 503.782L340.735 503.782L341.455 504.348L341.455 504.348L342.253 504.752L342.253 504.752L343.025 505.021L343.025 505.021L343.875 505.048L343.875 505.048L344.724 504.967L344.724 504.967L345.6 504.725L345.6 504.725L346.423 504.267L346.423 504.267L347.118 503.621L347.118 503.621L347.659 502.893L347.659 502.893L348.045 502.059L348.045 502.059L348.276 501.251L348.276 501.251L348.328 500.362" stroke="none" fill="#221E1F" fill-rule="evenodd" /><path id="272" transform="matrix(1 0 0 -1 0 842)" d="M345.857 502.113L374.017 507.553L374.017 507.553L374.506 504.887L374.506 504.887L346.32 499.474L346.32 499.474L345.857 502.113" stroke="none" fill="#221E1F" fill-rule="evenodd" /><path id="273" transform="matrix(1 0 0 -1 0 842)" d="M196.0971 512.4023L160.4467 512.4023L160.4467 512.4023L160.4467 536.1538L160.4467 536.1538L231.7739 536.1538L231.7739 536.1538L231.7739 512.4023L231.7739 512.4023L196.0971 512.4023" stroke="#221E1F" stroke-width="0.9334521" fill="none" /><path id="274" transform="matrix(1 0 0 -1 0 842)" d="M360.3752 512.4023L313.8103 512.4023L313.8103 512.4023L313.8103 536.1538L313.8103 536.1538L406.9392 536.1538L406.9392 536.1538L406.9392 512.4023L406.9392 512.4023L360.3752 512.4023" stroke="#221E1F" stroke-width="0.9334521" fill="none" /><path id="275" transform="matrix(1 0 0 -1 0 842)" d="M53.059 405.38L52.853 404.545L52.853 404.545L52.441 403.683L52.441 403.683L51.849 402.929L51.849 402.929L51.128 402.31L51.128 402.31L50.305 401.879L50.305 401.879L49.507 401.664L49.507 401.664L48.657 401.529L48.657 401.529L47.834 401.664L47.834 401.664L47.01 401.879L47.01 401.879L46.186 402.31L46.186 402.31L45.491 402.929L45.491 402.929L44.899 403.683L44.899 403.683L44.513 404.545L44.513 404.545L44.23 405.38L44.23 405.38L44.153 406.269L44.153 406.269L44.23 407.13L44.23 407.13L44.513 407.992L44.513 407.992L44.899 408.827L44.899 408.827L45.491 409.581L45.491 409.581L46.186 410.201L46.186 410.201L47.01 410.631L47.01 410.631L47.834 410.847L47.834 410.847L48.657 410.955L48.657 410.955L49.507 410.847L49.507 410.847L50.305 410.631L50.305 410.631L51.128 410.201L51.128 410.201L51.849 409.581L51.849 409.581L52.441 408.827L52.441 408.827L52.853 407.992L52.853 407.992L53.059 407.13L53.059 407.13L53.162 406.269L53.162 406.269L53.059 405.38" stroke="none" fill="#221E1F" fill-rule="evenodd" /><path id="276" transform="matrix(1 0 0 -1 0 842)" d="M50.923 404.895L75.866 404.895L75.866 407.588L50.923 407.588z" stroke="none" fill="#221E1F" fill-rule="nonzero" /><path id="277" transform="matrix(1 0 0 -1 0 842)" d="M80.112 407.588L80.292 406.699L80.292 406.699L80.318 405.757L80.318 405.757L80.164 404.787L80.164 404.787L79.778 403.899L79.778 403.899L79.263 403.118L79.263 403.118L78.645 402.525L78.645 402.525L77.95 402.013L77.95 402.013L77.204 401.717L77.204 401.717L76.328 401.502L76.328 401.502L75.427 401.475L75.427 401.475L74.526 401.663L74.526 401.663L73.677 402.067L73.677 402.067L72.956 402.606L72.956 402.606L72.313 403.225L72.313 403.225L71.875 403.979L71.875 403.979L71.541 404.76L71.541 404.76L71.386 405.676L71.386 405.676L71.386 406.592L71.386 406.592L71.541 407.561L71.541 407.561L71.901 408.423L71.901 408.423L72.416 409.204L72.416 409.204L73.059 409.823L73.059 409.823L73.728 410.335L73.728 410.335L74.501 410.631L74.501 410.631L75.35 410.82L75.35 410.82L76.251 410.847L76.251 410.847L77.178 410.685L77.178 410.685L78.027 410.281L78.027 410.281L78.748 409.769L78.748 409.769L79.34 409.096L79.34 409.096L79.829 408.396L79.829 408.396L80.112 407.588" stroke="none" fill="#221E1F" fill-rule="evenodd" /><path id="278" transform="matrix(1 0 0 -1 0 842)" d="M77.23 408.477L106.703 424.877L106.703 424.877L107.913 422.481L107.913 422.481L78.44 406.08L78.44 406.08L77.23 408.477" stroke="none" fill="#221E1F" fill-rule="evenodd" /><path id="279" transform="matrix(1 0 0 -1 0 842)" d="M87.809 396.547L87.809 396.251L87.809 396.251L87.91199 395.901L87.91199 395.901L88.144 395.631L88.144 395.631L88.452 395.443L88.452 395.443L88.813 395.416L88.813 395.416L89.044 395.47L89.044 395.47L89.276 395.658L89.276 395.658L89.48199 395.874L89.48199 395.874L89.585 396.17L89.585 396.17L92.339 409.016L92.339 409.016L95.068 396.251L95.068 396.251L95.171 395.901L95.171 395.901L95.402 395.631L95.402 395.631L95.711 395.443L95.711 395.443L96.046 395.416L96.046 395.416L96.38 395.524L96.38 395.524L96.664 395.766L96.664 395.766L96.818 396.116L96.818 396.116L96.818 396.547L96.818 396.547L96.792 396.52L96.792 396.52L93.266 413.298L93.266 413.298L93.189 413.648L93.189 413.648L92.983 413.971L92.983 413.971L92.674 414.186L92.674 414.186L92.339 414.24L92.339 414.24L92.004 414.186L92.004 414.186L91.696 413.971L91.696 413.971L91.49 413.648L91.49 413.648L91.41299 413.298L91.41299 413.298L87.809 396.547" stroke="none" fill="#221E1F" fill-rule="evenodd" /><path id="280" transform="matrix(1 0 0 -1 0 842)" d="M91.078 388.979L93.652 388.979L93.652 399.186L91.078 399.186z" stroke="none" fill="#221E1F" fill-rule="nonzero" /><path id="281" transform="matrix(1 0 0 -1 0 842)" d="M112.623 405.272L112.417 404.437L112.417 404.437L112.005 403.575L112.005 403.575L111.413 402.821L111.413 402.821L110.692 402.202L110.692 402.202L109.869 401.771L109.869 401.771L109.071 401.556L109.071 401.556L108.221 401.421L108.221 401.421L107.398 401.556L107.398 401.556L106.574 401.771L106.574 401.771L105.75 402.202L105.75 402.202L105.055 402.821L105.055 402.821L104.463 403.575L104.463 403.575L104.077 404.437L104.077 404.437L103.794 405.272L103.794 405.272L103.717 406.161L103.717 406.161L103.794 407.022L103.794 407.022L104.077 407.884L104.077 407.884L104.463 408.719L104.463 408.719L105.055 409.473L105.055 409.473L105.75 410.093L105.75 410.093L106.574 410.523L106.574 410.523L107.398 410.739L107.398 410.739L108.221 410.847L108.221 410.847L109.071 410.739L109.071 410.739L109.869 410.523L109.869 410.523L110.692 410.093L110.692 410.093L111.413 409.473L111.413 409.473L112.005 408.719L112.005 408.719L112.417 407.884L112.417 407.884L112.623 407.022L112.623 407.022L112.726 406.161L112.726 406.161L112.623 405.272" stroke="none" fill="#221E1F" fill-rule="evenodd" /><path id="282" transform="matrix(1 0 0 -1 0 842)" d="M110.486 404.787L199.754 404.787L199.754 407.48L110.486 407.48z" stroke="none" fill="#221E1F" fill-rule="nonzero" /><path id="283" transform="matrix(1 0 0 -1 0 842)" d="M204.207 406.107L204.13 405.218L204.13 405.218L203.898 404.303L203.898 404.303L203.461 403.441L203.461 403.441L202.843 402.714L202.843 402.714L202.096 402.148L202.096 402.148L201.35 401.744L201.35 401.744L200.552 401.475L200.552 401.475L199.728 401.448L199.728 401.448L198.853 401.502L198.853 401.502L197.978 401.771L197.978 401.771L197.18 402.229L197.18 402.229L196.485 402.875L196.485 402.875L195.945 403.656L195.945 403.656L195.533 404.437L195.533 404.437L195.301 405.299L195.301 405.299L195.224 406.134L195.224 406.134L195.352 407.05L195.352 407.05L195.584 407.938L195.584 407.938L196.022 408.8L196.022 408.8L196.614 409.527L196.614 409.527L197.334 410.093L197.334 410.093L198.132 410.497L198.132 410.497L198.905 410.766L198.905 410.766L199.754 410.793L199.754 410.793L200.603 410.712L200.603 410.712L201.479 410.47L201.479 410.47L202.302 410.012L202.302 410.012L202.997 409.366L202.997 409.366L203.538 408.638L203.538 408.638L203.924 407.804L203.924 407.804L204.156 406.996L204.156 406.996L204.207 406.107" stroke="none" fill="#221E1F" fill-rule="evenodd" /><path id="284" transform="matrix(1 0 0 -1 0 842)" d="M201.736 407.857L229.896 413.297L229.896 413.297L230.385 410.631L230.385 410.631L202.199 405.218L202.199 405.218L201.736 407.857" stroke="none" fill="#221E1F" fill-rule="evenodd" /><path id="285" transform="matrix(1 0 0 -1 0 842)" d="M234.504 405.272L234.272 404.437L234.272 404.437L233.886 403.575L233.886 403.575L233.294 402.821L233.294 402.821L232.574 402.202L232.574 402.202L231.75 401.771L231.75 401.771L230.952 401.556L230.952 401.556L230.102 401.448L230.102 401.448L229.279 401.556L229.279 401.556L228.455 401.798L228.455 401.798L227.631 402.202L227.631 402.202L226.936 402.821L226.936 402.821L226.344 403.575L226.344 403.575L225.958 404.437L225.958 404.437L225.675 405.272L225.675 405.272L225.624 406.161L225.624 406.161L225.675 407.022L225.675 407.022L225.958 407.884L225.958 407.884L226.344 408.719L226.344 408.719L226.936 409.473L226.936 409.473L227.631 410.093L227.631 410.093L228.455 410.523L228.455 410.523L229.279 410.739L229.279 410.739L230.102 410.874L230.102 410.874L230.952 410.739L230.952 410.739L231.75 410.496L231.75 410.496L232.574 410.093L232.574 410.093L233.294 409.473L233.294 409.473L233.886 408.719L233.886 408.719L234.298 407.884L234.298 407.884L234.504 407.022L234.504 407.022L234.633 406.161L234.633 406.161L234.504 405.272" stroke="none" fill="#221E1F" fill-rule="evenodd" /><path id="286" transform="matrix(1 0 0 -1 0 842)" d="M426.347 401.448L435.305 405.622L435.305 405.622L435.562 405.838L435.562 405.838L435.665 406.107L435.665 406.107L435.562 406.43L435.562 406.43L435.331 406.619L435.331 406.619L426.347 410.793L426.347 410.793L426.218 410.847L426.218 410.847L426.141 410.847L426.141 410.847L425.961 410.793L425.961 410.793L425.781 410.685L425.781 410.685L425.652 410.524L425.652 410.524L425.626 410.335L425.626 410.335L425.626 401.933L425.626 401.933L425.652 401.717L425.652 401.717L425.781 401.529L425.781 401.529L425.961 401.448L425.961 401.448L426.141 401.421L426.141 401.421L426.218 401.421L426.218 401.421L426.347 401.448" stroke="none" fill="#221E1F" fill-rule="evenodd" /><path id="287" transform="matrix(1 0 0 -1 0 842)" d="M232.368 404.787L427.635 404.787L427.635 407.48L232.368 407.48z" stroke="none" fill="#221E1F" fill-rule="nonzero" /><path id="288" transform="matrix(1 0 0 -1 0 842)" d="M480.171 382.92L435.692 382.92L435.692 382.92L435.486 382.947L435.486 382.947L435.28 383.001L435.28 383.001L435.099 383.082L435.099 383.082L434.919 383.189L434.919 383.189L434.765 383.324L434.765 383.324L434.636 383.485L434.636 383.485L434.533 383.674L434.533 383.674L434.456 383.863L434.456 383.863L434.405 384.267L434.405 384.267L435.692 384.267L435.692 384.267L435.692 385.613L435.692 385.613L480.171 385.613L480.171 385.613L480.171 382.92" stroke="none" fill="#221E1F" fill-rule="evenodd" /><path id="289" transform="matrix(1 0 0 -1 0 842)" d="M434.404 384.266L434.404 427.839L434.404 427.839L434.455 428.055L434.455 428.055L434.533 428.243L434.533 428.243L434.636 428.432L434.636 428.432L434.764 428.593L434.764 428.593L434.919 428.728L434.919 428.728L435.099 428.835L435.099 428.835L435.279 428.916L435.279 428.916L435.691 428.97L435.691 428.97L435.691 427.624L435.691 427.624L436.978 427.624L436.978 427.624L436.978 384.266L436.978 384.266L434.404 384.266" stroke="none" fill="#221E1F" fill-rule="evenodd" /><path id="290" transform="matrix(1 0 0 -1 0 842)" d="M435.691 428.97L524.83 428.97L524.83 428.97L525.036 428.916L525.036 428.916L525.217 428.835L525.217 428.835L525.397 428.728L525.397 428.728L525.551 428.593L525.551 428.593L525.68 428.431L525.68 428.431L525.783 428.243L525.783 428.243L525.86 428.054L525.86 428.054L525.937 427.624L525.937 427.624L524.65 427.624L524.65 427.624L524.65 426.277L524.65 426.277L435.691 426.277L435.691 426.277L435.691 428.97" stroke="none" fill="#221E1F" fill-rule="evenodd" /><path id="291" transform="matrix(1 0 0 -1 0 842)" d="M525.937 427.624L525.937 384.266L525.937 384.266L525.911 384.078L525.911 384.078L525.86 383.862L525.86 383.862L525.783 383.674L525.783 383.674L525.68 383.485L525.68 383.485L525.551 383.324L525.551 383.324L525.396 383.189L525.396 383.189L525.216 383.081L525.216 383.081L525.036 383.001L525.036 383.001L524.65 382.92L524.65 382.92L524.65 384.266L524.65 384.266L523.363 384.266L523.363 384.266L523.363 427.624L523.363 427.624L525.937 427.624" stroke="none" fill="#221E1F" fill-rule="evenodd" /><path id="292" transform="matrix(1 0 0 -1 0 842)" d="M524.65 384.266L524.65 382.919L524.65 382.919L480.17 382.919L480.17 382.919L480.17 385.612L480.17 385.612L524.65 385.612L524.65 385.612L524.65 384.266" stroke="none" fill="#221E1F" fill-rule="evenodd" /><path id="293" transform="matrix(1 0 0 -1 0 842)" d="M267.786 400.694L266.988 400.909L266.988 400.909L266.164 401.34L266.164 401.34L265.443 401.96L265.443 401.96L264.851 402.714L264.851 402.714L264.44 403.576L264.44 403.576L264.234 404.41L264.234 404.41L264.105 405.299L264.105 405.299L264.234 406.161L264.234 406.161L264.44 407.023L264.44 407.023L264.851 407.884L264.851 407.884L265.443 408.611L265.443 408.611L266.164 409.231L266.164 409.231L266.988 409.635L266.988 409.635L267.786 409.931L267.786 409.931L268.635 409.985L268.635 409.985L269.459 409.931L269.459 409.931L270.283 409.635L270.283 409.635L271.081 409.231L271.081 409.231L271.801 408.611L271.801 408.611L272.393 407.884L272.393 407.884L272.805 407.023L272.805 407.023L273.011 406.161L273.011 406.161L273.114 405.299L273.114 405.299L273.011 404.41L273.011 404.41L272.805 403.576L272.805 403.576L272.393 402.714L272.393 402.714L271.801 401.96L271.801 401.96L271.081 401.34L271.081 401.34L270.283 400.909L270.283 400.909L269.459 400.694L269.459 400.694L268.635 400.559L268.635 400.559L267.786 400.694" stroke="none" fill="#221E1F" fill-rule="evenodd" /><path id="294" transform="matrix(1 0 0 -1 0 842)" d="M269.923 402.929L269.923 335.684L269.923 335.684L268.636 335.684L268.636 335.684L268.61 334.365L268.61 334.365L268.404 334.365L268.404 334.365L268.173 334.445L268.173 334.445L267.967 334.526L267.967 334.526L267.787 334.661L267.787 334.661L267.632 334.822L267.632 334.822L267.504 335.038L267.504 335.038L267.426 335.226L267.426 335.226L267.349 335.684L267.349 335.684L267.349 402.929L267.349 402.929L269.923 402.929" stroke="none" fill="#221E1F" fill-rule="evenodd" /><path id="295" transform="matrix(1 0 0 -1 0 842)" d="M268.636 335.684L268.636 337.03L268.636 337.03L279.241 337.004L279.241 337.004L279.215 334.337L279.215 334.337L268.61 334.364L268.61 334.364L268.636 335.684" stroke="none" fill="#221E1F" fill-rule="evenodd" /><path id="296" transform="matrix(1 0 0 -1 0 842)" d="M283.488 337.085L283.668 336.196L283.668 336.196L283.694 335.254L283.694 335.254L283.54 334.284L283.54 334.284L283.153 333.396L283.153 333.396L282.639 332.615L282.639 332.615L282.021 332.022L282.021 332.022L281.326 331.51L281.326 331.51L280.58 331.214L280.58 331.214L279.704 330.999L279.704 330.999L278.803 330.972L278.803 330.972L277.902 331.16L277.902 331.16L277.053 331.564L277.053 331.564L276.332 332.103L276.332 332.103L275.689 332.722L275.689 332.722L275.251 333.476L275.251 333.476L274.917 334.257L274.917 334.257L274.762 335.173L274.762 335.173L274.762 336.089L274.762 336.089L274.917 337.058L274.917 337.058L275.277 337.92L275.277 337.92L275.792 338.701L275.792 338.701L276.435 339.32L276.435 339.32L277.104 339.832L277.104 339.832L277.877 340.128L277.877 340.128L278.726 340.317L278.726 340.317L279.627 340.344L279.627 340.344L280.554 340.182L280.554 340.182L281.403 339.778L281.403 339.778L282.124 339.266L282.124 339.266L282.716 338.593L282.716 338.593L283.205 337.893L283.205 337.893L283.488 337.085" stroke="none" fill="#221E1F" fill-rule="evenodd" /><path id="297" transform="matrix(1 0 0 -1 0 842)" d="M280.605 337.973L310.078 354.373L310.078 354.373L311.288 351.977L311.288 351.977L281.815 335.576L281.815 335.576L280.605 337.973" stroke="none" fill="#221E1F" fill-rule="evenodd" /><path id="298" transform="matrix(1 0 0 -1 0 842)" d="M291.184 326.043L291.184 325.747L291.184 325.747L291.287 325.397L291.287 325.397L291.519 325.127L291.519 325.127L291.827 324.939L291.827 324.939L292.188 324.912L292.188 324.912L292.42 324.966L292.42 324.966L292.651 325.154L292.651 325.154L292.857 325.37L292.857 325.37L292.96 325.666L292.96 325.666L295.715 338.512L295.715 338.512L298.443 325.747L298.443 325.747L298.546 325.397L298.546 325.397L298.777 325.127L298.777 325.127L299.086 324.939L299.086 324.939L299.421 324.912L299.421 324.912L299.756 325.02L299.756 325.02L300.039 325.262L300.039 325.262L300.193 325.612L300.193 325.612L300.193 326.043L300.193 326.043L300.168 326.016L300.168 326.016L296.641 342.794L296.641 342.794L296.564 343.144L296.564 343.144L296.358 343.467L296.358 343.467L296.049 343.682L296.049 343.682L295.715 343.736L295.715 343.736L295.38 343.682L295.38 343.682L295.071 343.467L295.071 343.467L294.865 343.144L294.865 343.144L294.788 342.794L294.788 342.794L291.184 326.043" stroke="none" fill="#221E1F" fill-rule="evenodd" /><path id="299" transform="matrix(1 0 0 -1 0 842)" d="M294.453 318.476L297.027 318.476L297.027 328.683L294.453 328.683z" stroke="none" fill="#221E1F" fill-rule="nonzero" /><path id="300" transform="matrix(1 0 0 -1 0 842)" d="M315.071 334.795L314.839 333.96L314.839 333.96L314.453 333.098L314.453 333.098L313.861 332.344L313.861 332.344L313.141 331.725L313.141 331.725L312.317 331.294L312.317 331.294L311.493 331.079L311.493 331.079L310.669 330.971L310.669 330.971L309.846 331.079L309.846 331.079L309.022 331.321L309.022 331.321L308.198 331.725L308.198 331.725L307.503 332.344L307.503 332.344L306.911 333.098L306.911 333.098L306.525 333.96L306.525 333.96L306.242 334.822L306.242 334.822L306.191 335.684L306.191 335.684L306.242 336.545L306.242 336.545L306.525 337.407L306.525 337.407L306.911 338.242L306.911 338.242L307.503 338.996L307.503 338.996L308.198 339.615L308.198 339.615L309.022 340.046L309.022 340.046L309.871 340.262L309.871 340.262L310.669 340.397L310.669 340.397L311.519 340.262L311.519 340.262L312.317 340.019L312.317 340.019L313.141 339.615L313.141 339.615L313.861 338.996L313.861 338.996L314.453 338.242L314.453 338.242L314.865 337.407L314.865 337.407L315.071 336.519L315.071 336.519L315.2 335.684L315.2 335.684L315.071 334.795" stroke="none" fill="#221E1F" fill-rule="evenodd" /><path id="301" transform="matrix(1 0 0 -1 0 842)" d="M364.545 334.311L312.935 334.311L312.935 334.311L312.935 337.004L312.935 337.004L364.571 336.977L364.571 336.977L364.545 334.311" stroke="none" fill="#221E1F" fill-rule="evenodd" /><path id="302" transform="matrix(1 0 0 -1 0 842)" d="M369.023 335.63L368.946 334.741L368.946 334.741L368.714 333.826L368.714 333.826L368.277 332.964L368.277 332.964L367.659 332.237L367.659 332.237L366.913 331.671L366.913 331.671L366.166 331.267L366.166 331.267L365.368 330.998L365.368 330.998L364.544 330.971L364.544 330.971L363.669 331.025L363.669 331.025L362.794 331.294L362.794 331.294L361.996 331.752L361.996 331.752L361.301 332.398L361.301 332.398L360.761 333.179L360.761 333.179L360.349 333.96L360.349 333.96L360.117 334.822L360.117 334.822L360.04 335.657L360.04 335.657L360.168 336.573L360.168 336.573L360.4 337.461L360.4 337.461L360.838 338.323L360.838 338.323L361.43 339.05L361.43 339.05L362.15 339.616L362.15 339.616L362.948 340.02L362.948 340.02L363.721 340.289L363.721 340.289L364.57 340.316L364.57 340.316L365.419 340.235L365.419 340.235L366.295 339.993L366.295 339.993L367.118 339.535L367.118 339.535L367.813 338.889L367.813 338.889L368.354 338.161L368.354 338.161L368.74 337.327L368.74 337.327L368.972 336.519L368.972 336.519L369.023 335.63" stroke="none" fill="#221E1F" fill-rule="evenodd" /><path id="303" transform="matrix(1 0 0 -1 0 842)" d="M366.552 337.381L394.712 342.821L394.712 342.821L395.201 340.155L395.201 340.155L367.015 334.742L367.015 334.742L366.552 337.381" stroke="none" fill="#221E1F" fill-rule="evenodd" /><path id="304" transform="matrix(1 0 0 -1 0 842)" d="M399.346 334.795L399.14 333.96L399.14 333.96L398.728 333.098L398.728 333.098L398.136 332.344L398.136 332.344L397.416 331.725L397.416 331.725L396.592 331.294L396.592 331.294L395.794 331.079L395.794 331.079L394.944 330.944L394.944 330.944L394.121 331.079L394.121 331.079L393.297 331.294L393.297 331.294L392.473 331.725L392.473 331.725L391.778 332.344L391.778 332.344L391.186 333.098L391.186 333.098L390.8 333.96L390.8 333.96L390.517 334.795L390.517 334.795L390.466 335.684L390.466 335.684L390.517 336.545L390.517 336.545L390.8 337.407L390.8 337.407L391.186 338.242L391.186 338.242L391.778 338.996L391.778 338.996L392.473 339.615L392.473 339.615L393.297 340.046L393.297 340.046L394.121 340.262L394.121 340.262L394.944 340.37L394.944 340.37L395.794 340.262L395.794 340.262L396.592 340.046L396.592 340.046L397.416 339.615L397.416 339.615L398.136 338.996L398.136 338.996L398.728 338.242L398.728 338.242L399.14 337.407L399.14 337.407L399.346 336.545L399.346 336.545L399.475 335.684L399.475 335.684L399.346 334.795" stroke="none" fill="#221E1F" fill-rule="evenodd" /><path id="305" transform="matrix(1 0 0 -1 0 842)" d="M426.579 330.998L435.537 335.172L435.537 335.172L435.794 335.388L435.794 335.388L435.923 335.657L435.923 335.657L435.794 335.98L435.794 335.98L435.562 336.169L435.562 336.169L426.579 340.343L426.579 340.343L426.45 340.397L426.45 340.397L426.373 340.397L426.373 340.397L426.193 340.343L426.193 340.343L426.013 340.235L426.013 340.235L425.884 340.073L425.884 340.073L425.858 339.885L425.858 339.885L425.858 331.483L425.858 331.483L425.884 331.267L425.884 331.267L426.013 331.079L426.013 331.079L426.193 330.998L426.193 330.998L426.373 330.971L426.373 330.971L426.45 330.971L426.45 330.971L426.579 330.998" stroke="none" fill="#221E1F" fill-rule="evenodd" /><path id="306" transform="matrix(1 0 0 -1 0 842)" d="M397.209 334.311L427.866 334.311L427.866 337.004L397.209 337.004z" stroke="none" fill="#221E1F" fill-rule="nonzero" /><path id="307" transform="matrix(1 0 0 -1 0 842)" d="M480.171 312.901L435.692 312.901L435.692 312.901L435.486 312.928L435.486 312.928L435.28 312.982L435.28 312.982L435.099 313.063L435.099 313.063L434.919 313.17L434.919 313.17L434.765 313.305L434.765 313.305L434.636 313.467L434.636 313.467L434.533 313.655L434.533 313.655L434.456 313.844L434.456 313.844L434.405 314.248L434.405 314.248L435.692 314.248L435.692 314.248L435.692 315.594L435.692 315.594L480.171 315.594L480.171 315.594L480.171 312.901" stroke="none" fill="#221E1F" fill-rule="evenodd" /><path id="308" transform="matrix(1 0 0 -1 0 842)" d="M434.404 314.248L434.404 357.821L434.404 357.821L434.455 358.037L434.455 358.037L434.533 358.225L434.533 358.225L434.636 358.414L434.636 358.414L434.764 358.575L434.764 358.575L434.919 358.71L434.919 358.71L435.099 358.817L435.099 358.817L435.279 358.898L435.279 358.898L435.691 358.952L435.691 358.952L435.691 357.606L435.691 357.606L436.978 357.606L436.978 357.606L436.978 314.248L436.978 314.248L434.404 314.248" stroke="none" fill="#221E1F" fill-rule="evenodd" /><path id="309" transform="matrix(1 0 0 -1 0 842)" d="M435.691 358.952L524.83 358.952L524.83 358.952L525.036 358.898L525.036 358.898L525.217 358.817L525.217 358.817L525.397 358.71L525.397 358.71L525.551 358.575L525.551 358.575L525.68 358.413L525.68 358.413L525.783 358.225L525.783 358.225L525.86 358.036L525.86 358.036L525.937 357.606L525.937 357.606L524.65 357.606L524.65 357.606L524.65 356.259L524.65 356.259L435.691 356.259L435.691 356.259L435.691 358.952" stroke="none" fill="#221E1F" fill-rule="evenodd" /><path id="310" transform="matrix(1 0 0 -1 0 842)" d="M525.937 357.605L525.937 314.247L525.937 314.247L525.911 314.059L525.911 314.059L525.86 313.843L525.86 313.843L525.783 313.655L525.783 313.655L525.68 313.466L525.68 313.466L525.551 313.305L525.551 313.305L525.396 313.17L525.396 313.17L525.216 313.062L525.216 313.062L525.036 312.982L525.036 312.982L524.65 312.901L524.65 312.901L524.65 314.247L524.65 314.247L523.363 314.247L523.363 314.247L523.363 357.605L523.363 357.605L525.937 357.605" stroke="none" fill="#221E1F" fill-rule="evenodd" /><path id="311" transform="matrix(1 0 0 -1 0 842)" d="M524.65 314.248L524.65 312.901L524.65 312.901L480.17 312.901L480.17 312.901L480.17 315.594L480.17 315.594L524.65 315.594L524.65 315.594L524.65 314.248" stroke="none" fill="#221E1F" fill-rule="evenodd" /><path id="312" transform="matrix(1 0 0 -1 0 842)" d="M53.935 282.671L54.115 281.782L54.115 281.782L54.141 280.84L54.141 280.84L53.986 279.87L53.986 279.87L53.6 278.982L53.6 278.982L53.085 278.201L53.085 278.201L52.468 277.608L52.468 277.608L51.773 277.096L51.773 277.096L51.026 276.8L51.026 276.8L50.151 276.585L50.151 276.585L49.25 276.558L49.25 276.558L48.349 276.746L48.349 276.746L47.5 277.15L47.5 277.15L46.779 277.689L46.779 277.689L46.136 278.308L46.136 278.308L45.698 279.062L45.698 279.062L45.364 279.843L45.364 279.843L45.209 280.759L45.209 280.759L45.209 281.675L45.209 281.675L45.364 282.644L45.364 282.644L45.724 283.506L45.724 283.506L46.239 284.287L46.239 284.287L46.882 284.906L46.882 284.906L47.551 285.418L47.551 285.418L48.324 285.714L48.324 285.714L49.173 285.903L49.173 285.903L50.074 285.93L50.074 285.93L51 285.768L51 285.768L51.85 285.364L51.85 285.364L52.571 284.852L52.571 284.852L53.163 284.179L53.163 284.179L53.652 283.479L53.652 283.479L53.935 282.671" stroke="none" fill="#221E1F" fill-rule="evenodd" /><path id="313" transform="matrix(1 0 0 -1 0 842)" d="M51.052 283.56L80.52499 299.961L80.52499 299.961L81.735 297.564L81.735 297.564L52.262 281.163L52.262 281.163L51.052 283.56" stroke="none" fill="#221E1F" fill-rule="evenodd" /><path id="314" transform="matrix(1 0 0 -1 0 842)" d="M63.175 274.538L65.749 274.538L65.749 288.461L63.175 288.461z" stroke="none" fill="#221E1F" fill-rule="nonzero" /><path id="315" transform="matrix(1 0 0 -1 0 842)" d="M68.324 274.511L70.89799 274.511L70.89799 291.962L68.324 291.962z" stroke="none" fill="#221E1F" fill-rule="nonzero" /><path id="316" transform="matrix(1 0 0 -1 0 842)" d="M60.756 273.192L73.266 273.192L73.266 275.885L60.756 275.885z" stroke="none" fill="#221E1F" fill-rule="nonzero" /><path id="317" transform="matrix(1 0 0 -1 0 842)" d="M86.445 280.382L86.239 279.547L86.239 279.547L85.827 278.685L85.827 278.685L85.235 277.931L85.235 277.931L84.515 277.312L84.515 277.312L83.691 276.881L83.691 276.881L82.893 276.666L82.893 276.666L82.043 276.531L82.043 276.531L81.22 276.666L81.22 276.666L80.396 276.881L80.396 276.881L79.572 277.312L79.572 277.312L78.877 277.931L78.877 277.931L78.285 278.685L78.285 278.685L77.899 279.547L77.899 279.547L77.616 280.382L77.616 280.382L77.539 281.271L77.539 281.271L77.616 282.132L77.616 282.132L77.899 282.994L77.899 282.994L78.285 283.829L78.285 283.829L78.877 284.583L78.877 284.583L79.572 285.203L79.572 285.203L80.396 285.633L80.396 285.633L81.22 285.849L81.22 285.849L82.043 285.957L82.043 285.957L82.893 285.849L82.893 285.849L83.691 285.633L83.691 285.633L84.515 285.203L84.515 285.203L85.235 284.583L85.235 284.583L85.827 283.829L85.827 283.829L86.239 282.994L86.239 282.994L86.445 282.132L86.445 282.132L86.548 281.271L86.548 281.271L86.445 280.382" stroke="none" fill="#221E1F" fill-rule="evenodd" /><path id="318" transform="matrix(1 0 0 -1 0 842)" d="M192.744 284.537L192.667 283.648L192.667 283.648L192.435 282.733L192.435 282.733L191.998 281.871L191.998 281.871L191.38 281.144L191.38 281.144L190.633 280.578L190.633 280.578L189.887 280.174L189.887 280.174L189.089 279.905L189.089 279.905L188.265 279.878L188.265 279.878L187.39 279.932L187.39 279.932L186.515 280.201L186.515 280.201L185.717 280.659L185.717 280.659L185.022 281.305L185.022 281.305L184.481 282.086L184.481 282.086L184.07 282.867L184.07 282.867L183.838 283.729L183.838 283.729L183.761 284.564L183.761 284.564L183.889 285.48L183.889 285.48L184.121 286.368L184.121 286.368L184.559 287.23L184.559 287.23L185.15 287.957L185.15 287.957L185.871 288.523L185.871 288.523L186.669 288.927L186.669 288.927L187.442 289.196L187.442 289.196L188.291 289.223L188.291 289.223L189.14 289.142L189.14 289.142L190.016 288.9L190.016 288.9L190.839 288.442L190.839 288.442L191.534 287.796L191.534 287.796L192.075 287.068L192.075 287.068L192.461 286.234L192.461 286.234L192.693 285.426L192.693 285.426L192.744 284.537" stroke="none" fill="#221E1F" fill-rule="evenodd" /><path id="319" transform="matrix(1 0 0 -1 0 842)" d="M190.273 286.288L218.433 291.728L218.433 291.728L218.922 289.062L218.922 289.062L190.736 283.649L190.736 283.649L190.273 286.288" stroke="none" fill="#221E1F" fill-rule="evenodd" /><path id="320" transform="matrix(1 0 0 -1 0 842)" d="M223.066 283.702L222.86 282.867L222.86 282.867L222.448 282.005L222.448 282.005L221.856 281.251L221.856 281.251L221.136 280.632L221.136 280.632L220.312 280.201L220.312 280.201L219.514 279.986L219.514 279.986L218.664 279.851L218.664 279.851L217.841 279.986L217.841 279.986L217.017 280.201L217.017 280.201L216.193 280.632L216.193 280.632L215.498 281.251L215.498 281.251L214.906 282.005L214.906 282.005L214.52 282.867L214.52 282.867L214.237 283.702L214.237 283.702L214.186 284.591L214.186 284.591L214.237 285.452L214.237 285.452L214.52 286.314L214.52 286.314L214.906 287.149L214.906 287.149L215.498 287.903L215.498 287.903L216.193 288.522L216.193 288.522L217.017 288.953L217.017 288.953L217.841 289.169L217.841 289.169L218.664 289.277L218.664 289.277L219.514 289.169L219.514 289.169L220.312 288.953L220.312 288.953L221.136 288.522L221.136 288.522L221.856 287.903L221.856 287.903L222.448 287.149L222.448 287.149L222.86 286.314L222.86 286.314L223.066 285.452L223.066 285.452L223.195 284.591L223.195 284.591L223.066 283.702" stroke="none" fill="#221E1F" fill-rule="evenodd" /><path id="321" transform="matrix(1 0 0 -1 0 842)" d="M124.43 285.058L124.61 284.169L124.61 284.169L124.636 283.227L124.636 283.227L124.481 282.257L124.481 282.257L124.095 281.369L124.095 281.369L123.58 280.588L123.58 280.588L122.963 279.995L122.963 279.995L122.268 279.483L122.268 279.483L121.521 279.187L121.521 279.187L120.646 278.972L120.646 278.972L119.745 278.945L119.745 278.945L118.844 279.133L118.844 279.133L117.995 279.537L117.995 279.537L117.274 280.076L117.274 280.076L116.631 280.695L116.631 280.695L116.193 281.449L116.193 281.449L115.858 282.23L115.858 282.23L115.704 283.146L115.704 283.146L115.704 284.062L115.704 284.062L115.858 285.031L115.858 285.031L116.219 285.893L116.219 285.893L116.734 286.674L116.734 286.674L117.377 287.293L117.377 287.293L118.046 287.805L118.046 287.805L118.819 288.101L118.819 288.101L119.668 288.29L119.668 288.29L120.569 288.317L120.569 288.317L121.495 288.155L121.495 288.155L122.345 287.751L122.345 287.751L123.066 287.239L123.066 287.239L123.658 286.566L123.658 286.566L124.147 285.866L124.147 285.866L124.43 285.058" stroke="none" fill="#221E1F" fill-rule="evenodd" /><path id="322" transform="matrix(1 0 0 -1 0 842)" d="M121.547 285.947L151.02 302.348L151.02 302.348L152.23 299.951L152.23 299.951L122.757 283.55L122.757 283.55L121.547 285.947" stroke="none" fill="#221E1F" fill-rule="evenodd" /><path id="323" transform="matrix(1 0 0 -1 0 842)" d="M132.126 274.017L132.126 273.721L132.126 273.721L132.229 273.371L132.229 273.371L132.461 273.101L132.461 273.101L132.77 272.913L132.77 272.913L133.13 272.886L133.13 272.886L133.361 272.94L133.361 272.94L133.593 273.128L133.593 273.128L133.799 273.344L133.799 273.344L133.902 273.64L133.902 273.64L136.656 286.486L136.656 286.486L139.385 273.721L139.385 273.721L139.488 273.371L139.488 273.371L139.719 273.101L139.719 273.101L140.028 272.913L140.028 272.913L140.363 272.886L140.363 272.886L140.697 272.994L140.697 272.994L140.981 273.236L140.981 273.236L141.135 273.586L141.135 273.586L141.135 274.017L141.135 274.017L141.109 273.99L141.109 273.99L137.583 290.768L137.583 290.768L137.506 291.118L137.506 291.118L137.3 291.441L137.3 291.441L136.991 291.656L136.991 291.656L136.656 291.71L136.656 291.71L136.322 291.656L136.322 291.656L136.013 291.441L136.013 291.441L135.807 291.118L135.807 291.118L135.73 290.768L135.73 290.768L132.126 274.017" stroke="none" fill="#221E1F" fill-rule="evenodd" /><path id="324" transform="matrix(1 0 0 -1 0 842)" d="M135.395 266.45L137.969 266.45L137.969 276.657L135.395 276.657z" stroke="none" fill="#221E1F" fill-rule="nonzero" /><path id="325" transform="matrix(1 0 0 -1 0 842)" d="M156.94 282.742L156.734 281.907L156.734 281.907L156.322 281.045L156.322 281.045L155.73 280.291L155.73 280.291L155.01 279.672L155.01 279.672L154.186 279.241L154.186 279.241L153.388 279.026L153.388 279.026L152.538 278.891L152.538 278.891L151.715 279.026L151.715 279.026L150.891 279.241L150.891 279.241L150.067 279.672L150.067 279.672L149.372 280.291L149.372 280.291L148.78 281.045L148.78 281.045L148.394 281.907L148.394 281.907L148.111 282.742L148.111 282.742L148.034 283.631L148.034 283.631L148.111 284.492L148.111 284.492L148.394 285.354L148.394 285.354L148.78 286.189L148.78 286.189L149.372 286.943L149.372 286.943L150.067 287.562L150.067 287.562L150.891 287.993L150.891 287.993L151.715 288.209L151.715 288.209L152.538 288.317L152.538 288.317L153.388 288.209L153.388 288.209L154.186 287.993L154.186 287.993L155.01 287.562L155.01 287.562L155.73 286.943L155.73 286.943L156.322 286.189L156.322 286.189L156.734 285.354L156.734 285.354L156.94 284.492L156.94 284.492L157.043 283.631L157.043 283.631L156.94 282.742" stroke="none" fill="#221E1F" fill-rule="evenodd" /></g></g></g><g clip-path="url(#5)"><g clip-path="url(#6)"></g></g></g></g></svg>