<svg xmlns="http://www.w3.org/2000/svg" xmlns:xlink="http://www.w3.org/1999/xlink" id="body_90" preserveAspectRatio="xMinYMin meet" viewBox="0 0 793 1123"><defs><clipPath id="1"><path id="" clip-rule="evenodd" transform="matrix(1 0 0 1 0 0)" d="M0 842L0 0L0 0L595 0L595 0L595 842L595 842L0 842z" /></clipPath><clipPath id="2"><path id="" clip-rule="evenodd" transform="matrix(1 0 0 1 0 0)" d="M180.36 144L193.98 144L193.98 144L193.98 158.4L193.98 158.4L180.36 158.4z" /></clipPath><clipPath id="3"><path id="" clip-rule="evenodd" transform="matrix(1 0 0 1 0 0)" d="M0 0.02001953L595.2 0.02001953L595.2 0.02001953L595.2 842L595.2 842L0 842z" /></clipPath><clipPath id="4"><path id="" clip-rule="evenodd" transform="matrix(1 0 0 1 0 0)" d="M180.36 145.2L194.34 145.2L194.34 145.2L194.34 157.2L194.34 157.2L180.36 157.2z" /></clipPath><clipPath id="5"><path id="" clip-rule="evenodd" transform="matrix(1 0 0 1 0 0)" d="M180.36 144L193.98 144L193.98 144L193.98 158.4L193.98 158.4L180.36 158.4z" /></clipPath><clipPath id="6"><path id="" clip-rule="evenodd" transform="matrix(1 0 0 1 0 0)" d="M0 0.02001953L595.2 0.02001953L595.2 0.02001953L595.2 842L595.2 842L0 842z" /></clipPath><clipPath id="7"><path id="" clip-rule="evenodd" transform="matrix(1 0 0 1 0 0)" d="M115.56 178.02L193.98 178.02L193.98 178.02L193.98 192.42L193.98 192.42L115.56 192.42z" /></clipPath><clipPath id="8"><path id="" clip-rule="evenodd" transform="matrix(1 0 0 1 0 0)" d="M0 0.02001953L595.2 0.02001953L595.2 0.02001953L595.2 842L595.2 842L0 842z" /></clipPath><clipPath id="9"><path id="" clip-rule="evenodd" transform="matrix(1 0 0 1 0 0)" d="M116.16 178.08L190.86 178.08L190.86 178.08L190.86 192.12L190.86 192.12L116.16 192.12z" /></clipPath><clipPath id="10"><path id="" clip-rule="evenodd" transform="matrix(1 0 0 1 0 0)" d="M115.56 178.02L193.98 178.02L193.98 178.02L193.98 192.42L193.98 192.42L115.56 192.42z" /></clipPath><clipPath id="11"><path id="" clip-rule="evenodd" transform="matrix(1 0 0 1 0 0)" d="M0 0.02001953L595.2 0.02001953L595.2 0.02001953L595.2 842L595.2 842L0 842z" /></clipPath><clipPath id="12"><path id="" clip-rule="evenodd" transform="matrix(1 0 0 1 0 0)" d="M115.56 226.02L193.98 226.02L193.98 226.02L193.98 240.42L193.98 240.42L115.56 240.42z" /></clipPath><clipPath id="13"><path id="" clip-rule="evenodd" transform="matrix(1 0 0 1 0 0)" d="M0 0.02001953L595.2 0.02001953L595.2 0.02001953L595.2 842L595.2 842L0 842z" /></clipPath><clipPath id="14"><path id="" clip-rule="evenodd" transform="matrix(1 0 0 1 0 0)" d="M115.44 226.26L190.5 226.26L190.5 226.26L190.5 240.36L190.5 240.36L115.44 240.36z" /></clipPath><clipPath id="15"><path id="" clip-rule="evenodd" transform="matrix(1 0 0 1 0 0)" d="M115.56 226.02L193.98 226.02L193.98 226.02L193.98 240.42L193.98 240.42L115.56 240.42z" /></clipPath><clipPath id="16"><path id="" clip-rule="evenodd" transform="matrix(1 0 0 1 0 0)" d="M0 0.02001953L595.2 0.02001953L595.2 0.02001953L595.2 842L595.2 842L0 842z" /></clipPath><clipPath id="17"><path id="" clip-rule="evenodd" transform="matrix(1 0 0 1 0 0)" d="M115.56 273.96L193.98 273.96L193.98 273.96L193.98 288.42L193.98 288.42L115.56 288.42z" /></clipPath><clipPath id="18"><path id="" clip-rule="evenodd" transform="matrix(1 0 0 1 0 0)" d="M0 0.02001953L595.2 0.02001953L595.2 0.02001953L595.2 842L595.2 842L0 842z" /></clipPath><clipPath id="19"><path id="" clip-rule="evenodd" transform="matrix(1 0 0 1 0 0)" d="M115.62 274.02L190.26 274.02L190.26 274.02L190.26 288.06L190.26 288.06L115.62 288.06z" /></clipPath><clipPath id="20"><path id="" clip-rule="evenodd" transform="matrix(1 0 0 1 0 0)" d="M115.56 273.96L193.98 273.96L193.98 273.96L193.98 288.42L193.98 288.42L115.56 288.42z" /></clipPath><clipPath id="21"><path id="" clip-rule="evenodd" transform="matrix(1 0 0 1 0 0)" d="M0 0.02001953L595.2 0.02001953L595.2 0.02001953L595.2 842L595.2 842L0 842z" /></clipPath><clipPath id="22"><path id="" clip-rule="evenodd" transform="matrix(1 0 0 1 0 0)" d="M180.36 387.96L193.98 387.96L193.98 387.96L193.98 402.36L193.98 402.36L180.36 402.36z" /></clipPath><clipPath id="23"><path id="" clip-rule="evenodd" transform="matrix(1 0 0 1 0 0)" d="M0 0.02001953L595.2 0.02001953L595.2 0.02001953L595.2 842L595.2 842L0 842z" /></clipPath><clipPath id="24"><path id="" clip-rule="evenodd" transform="matrix(1 0 0 1 0 0)" d="M180.36 389.16L194.34 389.16L194.34 389.16L194.34 401.16L194.34 401.16L180.36 401.16z" /></clipPath><clipPath id="25"><path id="" clip-rule="evenodd" transform="matrix(1 0 0 1 0 0)" d="M180.36 387.96L193.98 387.96L193.98 387.96L193.98 402.36L193.98 402.36L180.36 402.36z" /></clipPath><clipPath id="26"><path id="" clip-rule="evenodd" transform="matrix(1 0 0 1 0 0)" d="M0 0.02001953L595.2 0.02001953L595.2 0.02001953L595.2 842L595.2 842L0 842z" /></clipPath></defs><g transform="matrix(1.333333 0 0 1.333333 0 0)"><g clip-path="url(#1)"><path id="202" transform="matrix(1 0 0 -1 0 842)" d="M176.34 681.98L197.94 681.98L197.94 701.96L176.34 701.96z" stroke="none" fill="#FFFFFF" fill-rule="nonzero" /><g clip-path="url(#2)"><g clip-path="url(#3)"><path id="203" transform="matrix(1 0 0 -1 0 842)" d="M180.36 683.6L193.98 683.6L193.98 698L180.36 698z" stroke="none" fill="#FFFFFF" fill-rule="nonzero" /></g></g><g clip-path="url(#4)"><g clip-path="url(#5)"><g clip-path="url(#6)"><path id="204" transform="matrix(1 0 0 -1 0 842)" d="M187.678 695.688L193.483 685.694C 193.538 685.6 193.538 685.491 193.484 685.397C 193.429 685.302 193.336 685.248 193.226 685.248L193.226 685.248L181.616 685.248C 181.507 685.248 181.413 685.302 181.358 685.396C 181.304 685.491 181.304 685.6 181.359 685.694L181.359 685.694L187.164 695.688C 187.219 695.782 187.312 695.836 187.421 695.836C 187.53 695.836 187.623 695.782 187.678 695.688z" stroke="#000000" stroke-width="0.5" fill="#FFFF00" fill-rule="evenodd" /><path id="205" transform="matrix(1 0 0 -1 0 842)" d="M187.429 687.839C 187.661 687.839 187.86 687.757 188.024 687.592C 188.189 687.427 188.272 687.226 188.272 686.992C 188.272 686.759 188.189 686.56 188.024 686.395C 187.86 686.23 187.661 686.148 187.429 686.148C 187.196 686.148 186.997 686.23 186.832 686.395C 186.668 686.56 186.585 686.759 186.585 686.992C 186.585 687.222 186.667 687.423 186.83 687.589C 186.994 687.755 187.193 687.839 187.429 687.839M187.537 688.583L187.31 688.583C 187.285 688.979 187.205 689.457 187.07 690.02L187.07 690.02L186.798 691.153C 186.637 691.833 186.555 692.32 186.555 692.617C 186.555 692.883 186.635 693.098 186.793 693.262C 186.953 693.425 187.162 693.505 187.418 693.505C 187.669 693.505 187.875 693.423 188.04 693.258C 188.205 693.095 188.287 692.885 188.287 692.631C 188.287 692.368 188.2 691.876 188.027 691.153L188.027 691.153L187.752 690.02C 187.654 689.617 187.583 689.139 187.537 688.583z" stroke="none" fill="#000000" fill-rule="nonzero" /></g></g></g><path id="206" transform="matrix(1 0 0 -1 0 842)" d="M197.94 681.98L215.94 681.98L215.94 701.96L197.94 701.96z" stroke="none" fill="#FFFFFF" fill-rule="nonzero" /><path id="207" transform="matrix(1 0 0 -1 0 842)" d="M215.94 701.96L549 701.96L549 681.98L215.94 681.98" stroke="none" fill="#ECF5FC" fill-rule="nonzero" /><g clip-path="url(#7)"><g clip-path="url(#8)"><path id="231" transform="matrix(1 0 0 -1 0 842)" d="M115.56 649.58L193.98 649.58L193.98 663.98L115.56 663.98z" stroke="none" fill="#FFFFFF" fill-rule="nonzero" /></g></g><g clip-path="url(#9)"><g clip-path="url(#10)"><g clip-path="url(#11)"><g transform="matrix(0.7396039 0 0 0.7389474 116.16 178.08)"><g transform="matrix(1 0 0 1 0 0)"><image x="0" y="0" xlink:href="img_250.png" width="101" height="19" /></g></g></g></g></g><path id="233" transform="matrix(1 0 0 -1 0 842)" d="M215.94 668L549 668L549 633.98L215.94 633.98" stroke="none" fill="#ECF5FC" fill-rule="nonzero" /><g clip-path="url(#12)"><g clip-path="url(#13)"><path id="264" transform="matrix(1 0 0 -1 0 842)" d="M115.56 601.58L193.98 601.58L193.98 615.98L115.56 615.98z" stroke="none" fill="#FFFFFF" fill-rule="nonzero" /></g></g><g clip-path="url(#14)"><g clip-path="url(#15)"><g clip-path="url(#16)"><g transform="matrix(0.7431683 0 0 0.7421053 115.44 226.26)"><g transform="matrix(1 0 0 1 0 0)"><image x="0" y="0" xlink:href="img_274.png" width="101" height="19" /></g></g></g></g></g><path id="266" transform="matrix(1 0 0 -1 0 842)" d="M215.94 620L549 620L549 586.04L215.94 586.04" stroke="none" fill="#ECF5FC" fill-rule="nonzero" /><g clip-path="url(#17)"><g clip-path="url(#18)"><path id="302" transform="matrix(1 0 0 -1 0 842)" d="M115.56 553.58L193.98 553.58L193.98 568.04L115.56 568.04z" stroke="none" fill="#FFFFFF" fill-rule="nonzero" /></g></g><g clip-path="url(#19)"><g clip-path="url(#20)"><g clip-path="url(#21)"><g transform="matrix(0.7390099 0 0 0.7389474 115.62 274.02)"><g transform="matrix(1 0 0 1 0 0)"><image x="0" y="0" xlink:href="img_275.png" width="101" height="19" /></g></g></g></g></g><path id="304" transform="matrix(1 0 0 -1 0 842)" d="M215.94 572L549 572L549 538.04L215.94 538.04" stroke="none" fill="#ECF5FC" fill-rule="nonzero" /><path id="338" transform="matrix(1 0 0 -1 0 842)" d="M176.34 438.02L197.94 438.02L197.94 458.06L176.34 458.06z" stroke="none" fill="#FFFFFF" fill-rule="nonzero" /><g clip-path="url(#22)"><g clip-path="url(#23)"><path id="339" transform="matrix(1 0 0 -1 0 842)" d="M180.36 439.64L193.98 439.64L193.98 454.04L180.36 454.04z" stroke="none" fill="#FFFFFF" fill-rule="nonzero" /></g></g><g clip-path="url(#24)"><g clip-path="url(#25)"><g clip-path="url(#26)"><path id="340" transform="matrix(1 0 0 -1 0 842)" d="M187.678 451.732L193.483 441.738C 193.538 441.644 193.538 441.535 193.484 441.441C 193.429 441.346 193.336 441.292 193.226 441.292L193.226 441.292L181.616 441.292C 181.507 441.292 181.413 441.346 181.358 441.44C 181.304 441.535 181.304 441.644 181.359 441.738L181.359 441.738L187.164 451.732C 187.219 451.826 187.312 451.88 187.421 451.88C 187.53 451.88 187.623 451.826 187.678 451.732z" stroke="#000000" stroke-width="0.5" fill="#FFFF00" fill-rule="evenodd" /><path id="341" transform="matrix(1 0 0 -1 0 842)" d="M187.429 443.883C 187.661 443.883 187.86 443.801 188.024 443.636C 188.189 443.471 188.272 443.27 188.272 443.036C 188.272 442.803 188.189 442.604 188.024 442.439C 187.86 442.274 187.661 442.192 187.429 442.192C 187.196 442.192 186.997 442.274 186.832 442.439C 186.668 442.604 186.585 442.803 186.585 443.036C 186.585 443.266 186.667 443.467 186.83 443.633C 186.994 443.799 187.193 443.883 187.429 443.883M187.537 444.627L187.31 444.627C 187.285 445.023 187.205 445.501 187.07 446.064L187.07 446.064L186.798 447.197C 186.637 447.877 186.555 448.364 186.555 448.661C 186.555 448.927 186.635 449.142 186.793 449.306C 186.953 449.469 187.162 449.549 187.418 449.549C 187.669 449.549 187.875 449.467 188.04 449.302C 188.205 449.139 188.287 448.929 188.287 448.675C 188.287 448.412 188.2 447.92 188.027 447.197L188.027 447.197L187.752 446.064C 187.654 445.661 187.583 445.183 187.537 444.627z" stroke="none" fill="#000000" fill-rule="nonzero" /></g></g></g><path id="342" transform="matrix(1 0 0 -1 0 842)" d="M197.94 438.02L215.94 438.02L215.94 458.06L197.94 458.06z" stroke="none" fill="#FFFFFF" fill-rule="nonzero" /><path id="343" transform="matrix(1 0 0 -1 0 842)" d="M215.94 458.06L549 458.06L549 438.02L215.94 438.02" stroke="none" fill="#ECF5FC" fill-rule="nonzero" /></g></g></svg>