<svg xmlns="http://www.w3.org/2000/svg" xmlns:xlink="http://www.w3.org/1999/xlink" id="body_7" preserveAspectRatio="xMinYMin meet" viewBox="0 0 793 1123"><defs><clipPath id="1"><path id="" clip-rule="evenodd" transform="matrix(1 0 0 1 0 0)" d="M0 842L0 0L0 0L595 0L595 0L595 842L595 842L0 842z" /></clipPath><clipPath id="2"><path id="" clip-rule="evenodd" transform="matrix(1 0 0 1 0 0)" d="M488.76 177L555.72 177L555.72 177L555.72 243.96L555.72 243.96L488.76 243.96z" /></clipPath><clipPath id="3"><path id="" clip-rule="evenodd" transform="matrix(1 0 0 1 0 0)" d="M487.8 175.98L556.74 175.98L556.74 175.98L556.74 244.98L556.74 244.98L487.8 244.98z" /></clipPath><clipPath id="4"><path id="" clip-rule="evenodd" transform="matrix(1 0 0 1 0 0)" d="M0 0.02001953L595.2 0.02001953L595.2 0.02001953L595.2 842L595.2 842L0 842z" /></clipPath><clipPath id="5"><path id="" clip-rule="evenodd" transform="matrix(1 0 0 1 0 0)" d="M488.76 256.38L555.72 256.38L555.72 256.38L555.72 323.34L555.72 323.34L488.76 323.34z" /></clipPath><clipPath id="6"><path id="" clip-rule="evenodd" transform="matrix(1 0 0 1 0 0)" d="M487.8 255.36L554.88 255.36L554.88 255.36L554.88 322.44L554.88 322.44L487.8 322.44z" /></clipPath><clipPath id="7"><path id="" clip-rule="evenodd" transform="matrix(1 0 0 1 0 0)" d="M0 0.02001953L595.2 0.02001953L595.2 0.02001953L595.2 842L595.2 842L0 842z" /></clipPath><clipPath id="8"><path id="" clip-rule="evenodd" transform="matrix(1 0 0 1 0 0)" d="M488.76 333.84L555.72 333.84L555.72 333.84L555.72 400.8L555.72 400.8L488.76 400.8z" /></clipPath><clipPath id="9"><path id="" clip-rule="evenodd" transform="matrix(1 0 0 1 0 0)" d="M487.8 332.88L556.74 332.88L556.74 332.88L556.74 401.82L556.74 401.82L487.8 401.82z" /></clipPath><clipPath id="10"><path id="" clip-rule="evenodd" transform="matrix(1 0 0 1 0 0)" d="M0 0.02001953L595.2 0.02001953L595.2 0.02001953L595.2 842L595.2 842L0 842z" /></clipPath><clipPath id="11"><path id="" clip-rule="evenodd" transform="matrix(1 0 0 1 0 0)" d="M488.76 413.22L555.72 413.22L555.72 413.22L555.72 480.18L555.72 480.18L488.76 480.18z" /></clipPath><clipPath id="12"><path id="" clip-rule="evenodd" transform="matrix(1 0 0 1 0 0)" d="M487.8 412.2L554.88 412.2L554.88 412.2L554.88 479.34L554.88 479.34L487.8 479.34z" /></clipPath><clipPath id="13"><path id="" clip-rule="evenodd" transform="matrix(1 0 0 1 0 0)" d="M0 0.02001953L595.2 0.02001953L595.2 0.02001953L595.2 842L595.2 842L0 842z" /></clipPath><clipPath id="14"><path id="" clip-rule="evenodd" transform="matrix(1 0 0 1 0 0)" d="M488.76 602.16L555.72 602.16L555.72 602.16L555.72 669.12L555.72 669.12L488.76 669.12z" /></clipPath><clipPath id="15"><path id="" clip-rule="evenodd" transform="matrix(1 0 0 1 0 0)" d="M487.8 601.14L554.88 601.14L554.88 601.14L554.88 668.28L554.88 668.28L487.8 668.28z" /></clipPath><clipPath id="16"><path id="" clip-rule="evenodd" transform="matrix(1 0 0 1 0 0)" d="M0 0.02001953L595.2 0.02001953L595.2 0.02001953L595.2 842L595.2 842L0 842z" /></clipPath></defs><g transform="matrix(1.333333 0 0 1.333333 0 0)"><g clip-path="url(#1)"><path id="139" transform="matrix(1 0 0 -1 0 842)" d="M44.94 669.98L173.34 669.98L173.34 687.98L44.94 687.98z" stroke="none" fill="#C5E0F7" fill-rule="nonzero" /><path id="143" transform="matrix(1 0 0 -1 0 842)" d="M173.34 669.98L483.78 669.98L483.78 687.98L173.34 687.98z" stroke="none" fill="#C5E0F7" fill-rule="nonzero" /><path id="149" transform="matrix(1 0 0 -1 0 842)" d="M483.78 669.98L558 669.98L558 687.98L483.78 687.98z" stroke="none" fill="#C5E0F7" fill-rule="nonzero" /><path id="776" transform="matrix(1 0 0 -1 0 842)" d="M44.94 590.42L558 590.42L558 590.9L44.94 590.9z" stroke="none" fill="#3D96E3" fill-rule="nonzero" /><path id="777" transform="matrix(1 0 0 -1 0 842)" d="M44.94 512.9L558 512.9L558 513.38L44.94 513.38z" stroke="none" fill="#3D96E3" fill-rule="nonzero" /><path id="778" transform="matrix(1 0 0 -1 0 842)" d="M44.94 433.52L558 433.52L558 434L44.94 434z" stroke="none" fill="#3D96E3" fill-rule="nonzero" /><path id="779" transform="matrix(1 0 0 -1 0 842)" d="M44.94 244.58L558 244.58L558 245.06L44.94 245.06z" stroke="none" fill="#3D96E3" fill-rule="nonzero" /><path id="780" transform="matrix(1 0 0 -1 0 842)" d="M44.94 107.12L558 107.12L558 108.62L44.94 108.62z" stroke="none" fill="#3D96E3" fill-rule="nonzero" /><g clip-path="url(#2)"><g clip-path="url(#3)"><g clip-path="url(#4)"><g transform="matrix(0.36 0 0 0.36 488.76 177)"><g transform="matrix(1 0 0 1 0 0)"><image x="0" y="0" xlink:href="img_11.png" width="186" height="186" /></g></g></g></g></g><g clip-path="url(#5)"><g clip-path="url(#6)"><g clip-path="url(#7)"><g transform="matrix(0.36 0 0 0.36 488.76 256.38)"><g transform="matrix(1 0 0 1 0 0)"><image x="0" y="0" xlink:href="img_12.png" width="186" height="186" /></g></g></g></g></g><g clip-path="url(#8)"><g clip-path="url(#9)"><g clip-path="url(#10)"><g transform="matrix(0.36 0 0 0.36 488.76 333.84)"><g transform="matrix(1 0 0 1 0 0)"><image x="0" y="0" xlink:href="img_13.png" width="186" height="186" /></g></g></g></g></g><g clip-path="url(#11)"><g clip-path="url(#12)"><g clip-path="url(#13)"><g transform="matrix(0.36 0 0 0.36 488.76 413.22)"><g transform="matrix(1 0 0 1 0 0)"><image x="0" y="0" xlink:href="img_14.png" width="186" height="186" /></g></g></g></g></g><g clip-path="url(#14)"><g clip-path="url(#15)"><g clip-path="url(#16)"><g transform="matrix(0.36 0 0 0.36 488.76 602.16)"><g transform="matrix(1 0 0 1 0 0)"><image x="0" y="0" xlink:href="img_15.png" width="186" height="186" /></g></g></g></g></g></g></g></svg>