<svg xmlns="http://www.w3.org/2000/svg" xmlns:xlink="http://www.w3.org/1999/xlink" id="body_115" preserveAspectRatio="xMinYMin meet" viewBox="0 0 793 1123"><defs><clipPath id="1"><path id="" clip-rule="evenodd" transform="matrix(1 0 0 1 0 0)" d="M0 842L0 0L0 0L595 0L595 0L595 842L595 842L0 842z" /></clipPath></defs><g transform="matrix(1.333333 0 0 1.333333 0 0)"><g clip-path="url(#1)"><path id="517" transform="matrix(1 0 0 -1 0 842)" d="M224.94 640.04L371.28 640.04L371.28 657.98L224.94 657.98z" stroke="none" fill="#C5E0F7" fill-rule="nonzero" /><path id="520" transform="matrix(1 0 0 -1 0 842)" d="M371.28 640.04L557.46 640.04L557.46 657.98L371.28 657.98z" stroke="none" fill="#C5E0F7" fill-rule="nonzero" /><path id="628" transform="matrix(1 0 0 -1 0 842)" d="M224.94 619.76L557.46 619.76L557.46 620.24L224.94 620.24z" stroke="none" fill="#3D96E3" fill-rule="nonzero" /><path id="629" transform="matrix(1 0 0 -1 0 842)" d="M224.94 599.78L557.46 599.78L557.46 600.26L224.94 600.26z" stroke="none" fill="#3D96E3" fill-rule="nonzero" /><path id="630" transform="matrix(1 0 0 -1 0 842)" d="M224.94 579.74L557.46 579.74L557.46 580.22L224.94 580.22z" stroke="none" fill="#3D96E3" fill-rule="nonzero" /><path id="631" transform="matrix(1 0 0 -1 0 842)" d="M224.94 559.76L557.46 559.76L557.46 560.24L224.94 560.24z" stroke="none" fill="#3D96E3" fill-rule="nonzero" /><path id="632" transform="matrix(1 0 0 -1 0 842)" d="M224.94 525.74L557.46 525.74L557.46 526.22L224.94 526.22z" stroke="none" fill="#3D96E3" fill-rule="nonzero" /><path id="633" transform="matrix(1 0 0 -1 0 842)" d="M224.94 505.22L557.46 505.22L557.46 506.72L224.94 506.72z" stroke="none" fill="#3D96E3" fill-rule="nonzero" /></g></g></svg>