<svg xmlns="http://www.w3.org/2000/svg" xmlns:xlink="http://www.w3.org/1999/xlink" id="body_300" preserveAspectRatio="xMinYMin meet" viewBox="0 0 793 1123"><defs><clipPath id="1"><path id="" clip-rule="evenodd" transform="matrix(1 0 0 1 0 0)" d="M0 842L0 0L0 0L595 0L595 0L595 842L595 842L0 842z" /></clipPath><clipPath id="2"><path id="" clip-rule="evenodd" transform="matrix(1 0 0 1 0 0)" d="M44.94 36L558 36L558 36L558 87.29999L558 87.29999L44.94 87.29999z" /></clipPath><clipPath id="3"><path id="" clip-rule="evenodd" transform="matrix(1 0 0 1 0 0)" d="M0 0.02001953L595.2 0.02001953L595.2 0.02001953L595.2 842L595.2 842L0 842z" /></clipPath></defs><g transform="matrix(1.333333 0 0 1.333333 0 0)"><g clip-path="url(#1)"><g clip-path="url(#2)"><g clip-path="url(#3)"><g transform="matrix(0.4799439 0 0 0.4794392 44.94 36)"><g transform="matrix(1 0 0 1 0 0)"><image x="0" y="0" xlink:href="img_05.png" width="1069" height="107" /></g></g></g></g><path id="876" transform="matrix(1 0 0 -1 0 842)" d="M44.94 612.98L64.68 612.98L64.68 630.98L44.94 630.98z" stroke="none" fill="#C5E0F7" fill-rule="nonzero" /><path id="878" transform="matrix(1 0 0 -1 0 842)" d="M64.68 612.98L84.42 612.98L84.42 630.98L64.68 630.98z" stroke="none" fill="#C5E0F7" fill-rule="nonzero" /><path id="880" transform="matrix(1 0 0 -1 0 842)" d="M84.42 612.98L104.16 612.98L104.16 630.98L84.42 630.98z" stroke="none" fill="#C5E0F7" fill-rule="nonzero" /><path id="882" transform="matrix(1 0 0 -1 0 842)" d="M104.16 612.98L123.9 612.98L123.9 630.98L104.16 630.98z" stroke="none" fill="#C5E0F7" fill-rule="nonzero" /><path id="884" transform="matrix(1 0 0 -1 0 842)" d="M123.9 612.98L143.64 612.98L143.64 630.98L123.9 630.98z" stroke="none" fill="#C5E0F7" fill-rule="nonzero" /><path id="886" transform="matrix(1 0 0 -1 0 842)" d="M143.64 612.98L163.32 612.98L163.32 630.98L143.64 630.98z" stroke="none" fill="#C5E0F7" fill-rule="nonzero" /><path id="888" transform="matrix(1 0 0 -1 0 842)" d="M163.32 612.98L183.06 612.98L183.06 630.98L163.32 630.98z" stroke="none" fill="#C5E0F7" fill-rule="nonzero" /><path id="890" transform="matrix(1 0 0 -1 0 842)" d="M183.06 612.98L202.8 612.98L202.8 630.98L183.06 630.98z" stroke="none" fill="#C5E0F7" fill-rule="nonzero" /><path id="892" transform="matrix(1 0 0 -1 0 842)" d="M202.8 612.98L222.54 612.98L222.54 630.98L202.8 630.98z" stroke="none" fill="#C5E0F7" fill-rule="nonzero" /><path id="894" transform="matrix(1 0 0 -1 0 842)" d="M222.54 612.98L242.28 612.98L242.28 630.98L222.54 630.98z" stroke="none" fill="#C5E0F7" fill-rule="nonzero" /><path id="896" transform="matrix(1 0 0 -1 0 842)" d="M242.28 612.98L262.02 612.98L262.02 630.98L242.28 630.98z" stroke="none" fill="#C5E0F7" fill-rule="nonzero" /><path id="898" transform="matrix(1 0 0 -1 0 842)" d="M262.02 612.98L281.76 612.98L281.76 630.98L262.02 630.98z" stroke="none" fill="#C5E0F7" fill-rule="nonzero" /><path id="900" transform="matrix(1 0 0 -1 0 842)" d="M281.76 612.98L301.44 612.98L301.44 630.98L281.76 630.98z" stroke="none" fill="#C5E0F7" fill-rule="nonzero" /><path id="902" transform="matrix(1 0 0 -1 0 842)" d="M301.44 612.98L321.18 612.98L321.18 630.98L301.44 630.98z" stroke="none" fill="#C5E0F7" fill-rule="nonzero" /><path id="904" transform="matrix(1 0 0 -1 0 842)" d="M321.18 612.98L340.92 612.98L340.92 630.98L321.18 630.98z" stroke="none" fill="#C5E0F7" fill-rule="nonzero" /><path id="906" transform="matrix(1 0 0 -1 0 842)" d="M340.92 612.98L360.66 612.98L360.66 630.98L340.92 630.98z" stroke="none" fill="#C5E0F7" fill-rule="nonzero" /><path id="908" transform="matrix(1 0 0 -1 0 842)" d="M360.66 612.98L380.4 612.98L380.4 630.98L360.66 630.98z" stroke="none" fill="#C5E0F7" fill-rule="nonzero" /><path id="910" transform="matrix(1 0 0 -1 0 842)" d="M380.4 612.98L400.14 612.98L400.14 630.98L380.4 630.98z" stroke="none" fill="#C5E0F7" fill-rule="nonzero" /><path id="912" transform="matrix(1 0 0 -1 0 842)" d="M400.14 612.98L419.88 612.98L419.88 630.98L400.14 630.98z" stroke="none" fill="#C5E0F7" fill-rule="nonzero" /><path id="914" transform="matrix(1 0 0 -1 0 842)" d="M419.88 612.98L439.56 612.98L439.56 630.98L419.88 630.98z" stroke="none" fill="#C5E0F7" fill-rule="nonzero" /><path id="916" transform="matrix(1 0 0 -1 0 842)" d="M439.56 612.98L459.3 612.98L459.3 630.98L439.56 630.98z" stroke="none" fill="#C5E0F7" fill-rule="nonzero" /><path id="918" transform="matrix(1 0 0 -1 0 842)" d="M459.3 612.98L479.04 612.98L479.04 630.98L459.3 630.98z" stroke="none" fill="#C5E0F7" fill-rule="nonzero" /><path id="920" transform="matrix(1 0 0 -1 0 842)" d="M479.04 612.98L498.78 612.98L498.78 630.98L479.04 630.98z" stroke="none" fill="#C5E0F7" fill-rule="nonzero" /><path id="922" transform="matrix(1 0 0 -1 0 842)" d="M498.78 612.98L518.52 612.98L518.52 630.98L498.78 630.98z" stroke="none" fill="#C5E0F7" fill-rule="nonzero" /><path id="924" transform="matrix(1 0 0 -1 0 842)" d="M518.52 612.98L538.26 612.98L538.26 630.98L518.52 630.98z" stroke="none" fill="#C5E0F7" fill-rule="nonzero" /><path id="926" transform="matrix(1 0 0 -1 0 842)" d="M538.26 612.98L558 612.98L558 630.98L538.26 630.98z" stroke="none" fill="#C5E0F7" fill-rule="nonzero" /></g></g></svg>