<svg xmlns="http://www.w3.org/2000/svg" xmlns:xlink="http://www.w3.org/1999/xlink" id="body_275" preserveAspectRatio="xMinYMin meet" viewBox="0 0 793 1123"><defs><clipPath id="1"><path id="" clip-rule="evenodd" transform="matrix(1 0 0 1 0 0)" d="M0 842L0 0L0 0L595 0L595 0L595 842L595 842L0 842z" /></clipPath><clipPath id="2"><path id="" clip-rule="evenodd" transform="matrix(1 0 0 1 0 0)" d="M216.96 117.24L346.68 117.24L346.68 117.24L346.68 318.24L346.68 318.24L216.96 318.24z" /></clipPath><clipPath id="3"><path id="" clip-rule="evenodd" transform="matrix(1 0 0 1 0 0)" d="M215.94 114L549 114L549 114L549 321.54L549 321.54L215.94 321.54z" /></clipPath><clipPath id="4"><path id="" clip-rule="evenodd" transform="matrix(1 0 0 1 0 0)" d="M0 0.02001953L595.2 0.02001953L595.2 0.02001953L595.2 842L595.2 842L0 842z" /></clipPath><clipPath id="5"><path id="" clip-rule="evenodd" transform="matrix(1 0 0 1 0 0)" d="M215.94 114L549 114L549 114L549 321.54L549 321.54L215.94 321.54z" /></clipPath><clipPath id="6"><path id="" clip-rule="evenodd" transform="matrix(1 0 0 1 0 0)" d="M0 0.02001953L595.2 0.02001953L595.2 0.02001953L595.2 842L595.2 842L0 842z" /></clipPath><clipPath id="7"><path id="" clip-rule="evenodd" transform="matrix(1 0 0 1 0 0)" d="M369.12 115.02L549 115.02L549 115.02L549 320.52L549 320.52L369.12 320.52z" /></clipPath><clipPath id="8"><path id="" clip-rule="evenodd" transform="matrix(1 0 0 1 0 0)" d="M215.94 114L549 114L549 114L549 321.54L549 321.54L215.94 321.54z" /></clipPath><clipPath id="9"><path id="" clip-rule="evenodd" transform="matrix(1 0 0 1 0 0)" d="M0 0.02001953L595.2 0.02001953L595.2 0.02001953L595.2 842L595.2 842L0 842z" /></clipPath><clipPath id="10"><path id="" clip-rule="evenodd" transform="matrix(1 0 0 1 0 0)" d="M215.94 114L549 114L549 114L549 321.54L549 321.54L215.94 321.54z" /></clipPath><clipPath id="11"><path id="" clip-rule="evenodd" transform="matrix(1 0 0 1 0 0)" d="M0 0.02001953L595.2 0.02001953L595.2 0.02001953L595.2 842L595.2 842L0 842z" /></clipPath><clipPath id="12"><path id="" clip-rule="evenodd" transform="matrix(1 0 0 1 0 0)" d="M115.56 438.54L193.98 438.54L193.98 438.54L193.98 452.94L193.98 452.94L115.56 452.94z" /></clipPath><clipPath id="13"><path id="" clip-rule="evenodd" transform="matrix(1 0 0 1 0 0)" d="M0 0.02001953L595.2 0.02001953L595.2 0.02001953L595.2 842L595.2 842L0 842z" /></clipPath><clipPath id="14"><path id="" clip-rule="evenodd" transform="matrix(1 0 0 1 0 0)" d="M115.98 439.02L189.36 439.02L189.36 439.02L189.36 452.82L189.36 452.82L115.98 452.82z" /></clipPath><clipPath id="15"><path id="" clip-rule="evenodd" transform="matrix(1 0 0 1 0 0)" d="M115.56 438.54L193.98 438.54L193.98 438.54L193.98 452.94L193.98 452.94L115.56 452.94z" /></clipPath><clipPath id="16"><path id="" clip-rule="evenodd" transform="matrix(1 0 0 1 0 0)" d="M0 0.02001953L595.2 0.02001953L595.2 0.02001953L595.2 842L595.2 842L0 842z" /></clipPath><clipPath id="17"><path id="" clip-rule="evenodd" transform="matrix(1 0 0 1 0 0)" d="M216.96 562.5L365.1 562.5L365.1 562.5L365.1 697.98L365.1 697.98L216.96 697.98z" /></clipPath><clipPath id="18"><path id="" clip-rule="evenodd" transform="matrix(1 0 0 1 0 0)" d="M215.94 561.48L366.12 561.48L366.12 561.48L366.12 699L366.12 699L215.94 699z" /></clipPath><clipPath id="19"><path id="" clip-rule="evenodd" transform="matrix(1 0 0 1 0 0)" d="M0 0.02001953L595.2 0.02001953L595.2 0.02001953L595.2 842L595.2 842L0 842z" /></clipPath></defs><g transform="matrix(1.333333 0 0 1.333333 0 0)"><g clip-path="url(#1)"><g clip-path="url(#2)"><g clip-path="url(#3)"><g clip-path="url(#4)"><g transform="matrix(0.4790037 0 0 0.4797136 216.96 117.24)"><g transform="matrix(1 0 0 1 0 0)"><image x="0" y="0" xlink:href="img_857.png" width="271" height="419" /></g></g></g></g></g><g clip-path="url(#5)"><g clip-path="url(#6)"><path id="203" transform="matrix(1 0 0 -1 0 842)" d="M234.48 677.6L247.32 677.6L247.32 689.42L234.48 689.42z" stroke="none" fill="#FFFFFF" fill-rule="nonzero" /><path id="205" transform="matrix(1 0 0 -1 0 842)" d="M245.58 686.48L245.58 685.46L279.3 684.92L279.3 685.94" stroke="none" fill="#000000" fill-rule="nonzero" /><path id="206" transform="matrix(1 0 0 -1 0 842)" d="M327.9 671.18L338.04 671.18L338.04 681.38L327.9 681.38z" stroke="none" fill="#FFFFFF" fill-rule="nonzero" /><path id="208" transform="matrix(1 0 0 -1 0 842)" d="M297.6 687.26L297.3 686.3L326.88 676.94L327.18 677.9" stroke="none" fill="#000000" fill-rule="nonzero" /></g></g><g clip-path="url(#7)"><g clip-path="url(#8)"><g clip-path="url(#9)"><g transform="matrix(0.47968 0 0 0.479021 369.12 115.02)"><g transform="matrix(1 0 0 1 0 0)"><image x="0" y="0" xlink:href="img_858.png" width="375" height="429" /></g></g></g></g></g><g clip-path="url(#10)"><g clip-path="url(#11)"><path id="210" transform="matrix(1 0 0 -1 0 842)" d="M372.36 622.88L372.36 627.02L373.02 626.84L385.14 623.36L386.82 622.88L385.14 622.4L373.02 618.98L372.36 618.8L372.36 619.46L372.72 619.94L384.84 623.36L385.14 622.4L384.84 622.4L372.72 625.88L373.02 626.84L373.38 626.36L373.38 622.88" stroke="none" fill="#000000" fill-rule="nonzero" /><path id="211" transform="matrix(1 0 0 -1 0 842)" d="M372.36 619.46L373.38 619.46L373.38 622.88L372.36 622.88z" stroke="none" fill="#000000" fill-rule="nonzero" /><path id="212" transform="matrix(1 0 0 -1 0 842)" d="M372.84 622.88L372.84 626.36L372.84 626.36L384.96 622.88L384.96 622.88L372.84 619.46" stroke="none" fill="#000000" fill-rule="evenodd" /><path id="213" transform="matrix(1 0 0 -1 0 842)" d="M339.06 622.34L372.36 622.34L372.36 623.36L339.06 623.36z" stroke="none" fill="#000000" fill-rule="nonzero" /></g></g><g clip-path="url(#12)"><g clip-path="url(#13)"><path id="214" transform="matrix(1 0 0 -1 0 842)" d="M115.56 389.06L193.98 389.06L193.98 403.46L115.56 403.46z" stroke="none" fill="#FFFFFF" fill-rule="nonzero" /></g></g><g clip-path="url(#14)"><g clip-path="url(#15)"><g clip-path="url(#16)"><g transform="matrix(0.7265346 0 0 0.7263158 115.98 439.02)"><g transform="matrix(1 0 0 1 0 0)"><image x="0" y="0" xlink:href="img_09.png" width="101" height="19" /></g></g></g></g></g><path id="216" transform="matrix(1 0 0 -1 0 842)" d="M215.94 407.48L549 407.48L549 359.48L215.94 359.48" stroke="none" fill="#ECF5FC" fill-rule="nonzero" /><g clip-path="url(#17)"><g clip-path="url(#18)"><g clip-path="url(#19)"><g transform="matrix(0.4797864 0 0 0.4787279 216.96 562.5)"><g transform="matrix(1 0 0 1 0 0)"><image x="0" y="0" xlink:href="img_859.png" width="309" height="283" /></g></g></g></g></g></g></g></svg>