<svg xmlns="http://www.w3.org/2000/svg" xmlns:xlink="http://www.w3.org/1999/xlink" id="body_166" preserveAspectRatio="xMinYMin meet" viewBox="0 0 793 1123"><defs><clipPath id="1"><path id="" clip-rule="evenodd" transform="matrix(1 0 0 1 0 0)" d="M0 842L0 0L0 0L595 0L595 0L595 842L595 842L0 842z" /></clipPath><clipPath id="2"><path id="" clip-rule="evenodd" transform="matrix(1 0 0 1 0 0)" d="M216.96 314.94L313.92 314.94L313.92 314.94L313.92 510L313.92 510L216.96 510z" /></clipPath><clipPath id="3"><path id="" clip-rule="evenodd" transform="matrix(1 0 0 1 0 0)" d="M215.94 313.98L427.8 313.98L427.8 313.98L427.8 511.02L427.8 511.02L215.94 511.02z" /></clipPath><clipPath id="4"><path id="" clip-rule="evenodd" transform="matrix(1 0 0 1 0 0)" d="M0 0.02001953L595.2 0.02001953L595.2 0.02001953L595.2 842L595.2 842L0 842z" /></clipPath><clipPath id="5"><path id="" clip-rule="evenodd" transform="matrix(1 0 0 1 0 0)" d="M215.94 313.98L427.8 313.98L427.8 313.98L427.8 511.02L427.8 511.02L215.94 511.02z" /></clipPath><clipPath id="6"><path id="" clip-rule="evenodd" transform="matrix(1 0 0 1 0 0)" d="M0 0.02001953L595.2 0.02001953L595.2 0.02001953L595.2 842L595.2 842L0 842z" /></clipPath><clipPath id="7"><path id="" clip-rule="evenodd" transform="matrix(1 0 0 1 0 0)" d="M115.56 598.02L193.98 598.02L193.98 598.02L193.98 612.42L193.98 612.42L115.56 612.42z" /></clipPath><clipPath id="8"><path id="" clip-rule="evenodd" transform="matrix(1 0 0 1 0 0)" d="M0 0.02001953L595.2 0.02001953L595.2 0.02001953L595.2 842L595.2 842L0 842z" /></clipPath><clipPath id="9"><path id="" clip-rule="evenodd" transform="matrix(1 0 0 1 0 0)" d="M115.98 598.5L189.36 598.5L189.36 598.5L189.36 612.3L189.36 612.3L115.98 612.3z" /></clipPath><clipPath id="10"><path id="" clip-rule="evenodd" transform="matrix(1 0 0 1 0 0)" d="M115.56 598.02L193.98 598.02L193.98 598.02L193.98 612.42L193.98 612.42L115.56 612.42z" /></clipPath><clipPath id="11"><path id="" clip-rule="evenodd" transform="matrix(1 0 0 1 0 0)" d="M0 0.02001953L595.2 0.02001953L595.2 0.02001953L595.2 842L595.2 842L0 842z" /></clipPath></defs><g transform="matrix(1.333333 0 0 1.333333 0 0)"><g clip-path="url(#1)"><path id="132" transform="matrix(1 0 0 -1 0 842)" d="M233.94 769.94L549 769.94L549 628.04L233.94 628.04" stroke="none" fill="#ECF5FC" fill-rule="nonzero" /><path id="339" transform="matrix(1 0 0 -1 0 842)" d="M233.94 578.06L549 578.06L549 544.04L233.94 544.04" stroke="none" fill="#ECF5FC" fill-rule="nonzero" /><g clip-path="url(#2)"><g clip-path="url(#3)"><g clip-path="url(#4)"><g transform="matrix(0.4776354 0 0 0.4792629 216.96 314.94)"><g transform="matrix(1 0 0 1 0 0)"><image x="0" y="0" xlink:href="img_449.png" width="203" height="407" /></g></g></g></g></g><g clip-path="url(#5)"><g clip-path="url(#6)"><path id="399" transform="matrix(1 0 0 -1 0 842)" d="M265.74 483.74L348.54 483.74L348.54 484.76L265.74 484.76z" stroke="none" fill="#000000" fill-rule="nonzero" /></g></g><g clip-path="url(#7)"><g clip-path="url(#8)"><path id="405" transform="matrix(1 0 0 -1 0 842)" d="M115.56 229.58L193.98 229.58L193.98 243.98L115.56 243.98z" stroke="none" fill="#FFFFFF" fill-rule="nonzero" /></g></g><g clip-path="url(#9)"><g clip-path="url(#10)"><g clip-path="url(#11)"><g transform="matrix(0.7265346 0 0 0.7263158 115.98 598.5)"><g transform="matrix(1 0 0 1 0 0)"><image x="0" y="0" xlink:href="img_09.png" width="101" height="19" /></g></g></g></g></g><path id="407" transform="matrix(1 0 0 -1 0 842)" d="M215.94 248L549 248L549 200L215.94 200" stroke="none" fill="#ECF5FC" fill-rule="nonzero" /></g></g></svg>