<svg xmlns="http://www.w3.org/2000/svg" xmlns:xlink="http://www.w3.org/1999/xlink" id="body_127" preserveAspectRatio="xMinYMin meet" viewBox="0 0 793 1123"><defs><clipPath id="1"><path id="" clip-rule="evenodd" transform="matrix(1 0 0 1 0 0)" d="M0 842L0 0L0 0L595 0L595 0L595 842L595 842L0 842z" /></clipPath><clipPath id="2"><path id="" clip-rule="evenodd" transform="matrix(1 0 0 1 0 0)" d="M153.96 363.78L196.92 363.78L196.92 363.78L196.92 393.96L196.92 393.96L153.96 393.96z" /></clipPath><clipPath id="3"><path id="" clip-rule="evenodd" transform="matrix(1 0 0 1 0 0)" d="M152.94 362.76L197.94 362.76L197.94 362.76L197.94 394.92L197.94 394.92L152.94 394.92z" /></clipPath><clipPath id="4"><path id="" clip-rule="evenodd" transform="matrix(1 0 0 1 0 0)" d="M0 0.02001953L595.2 0.02001953L595.2 0.02001953L595.2 842L595.2 842L0 842z" /></clipPath><clipPath id="5"><path id="" clip-rule="evenodd" transform="matrix(1 0 0 1 0 0)" d="M216.96 433.92L543.66 433.92L543.66 433.92L543.66 587.04L543.66 587.04L216.96 587.04z" /></clipPath><clipPath id="6"><path id="" clip-rule="evenodd" transform="matrix(1 0 0 1 0 0)" d="M215.94 432.96L544.68 432.96L544.68 432.96L544.68 588.06L544.68 588.06L215.94 588.06z" /></clipPath><clipPath id="7"><path id="" clip-rule="evenodd" transform="matrix(1 0 0 1 0 0)" d="M0 0.02001953L595.2 0.02001953L595.2 0.02001953L595.2 842L595.2 842L0 842z" /></clipPath></defs><g transform="matrix(1.333333 0 0 1.333333 0 0)"><g clip-path="url(#1)"><g clip-path="url(#2)"><g clip-path="url(#3)"><g clip-path="url(#4)"><g transform="matrix(1.161081 0 0 1.160769 153.96 363.78)"><g transform="matrix(1 0 0 1 0 0)"><image x="0" y="0" xlink:href="img_360.png" width="37" height="26" /></g></g></g></g></g><g clip-path="url(#5)"><g clip-path="url(#6)"><g clip-path="url(#7)"><g transform="matrix(0.4790323 0 0 0.4785 216.96 433.92)"><g transform="matrix(1 0 0 1 0 0)"><image x="0" y="0" xlink:href="img_361.png" width="682" height="320" /></g></g></g></g></g></g></g></svg>