<svg xmlns="http://www.w3.org/2000/svg" xmlns:xlink="http://www.w3.org/1999/xlink" id="body_240" preserveAspectRatio="xMinYMin meet" viewBox="0 0 793 1123"><defs><clipPath id="1"><path id="" clip-rule="evenodd" transform="matrix(1 0 0 1 0 0)" d="M0 842L0 0L0 0L595 0L595 0L595 842L595 842L0 842z" /></clipPath><clipPath id="2"><path id="" clip-rule="evenodd" transform="matrix(1 0 0 1 0 0)" d="M45.96 79.02002L438.3 79.02002L438.3 79.02002L438.3 362.16L438.3 362.16L45.96 362.16z" /></clipPath><clipPath id="3"><path id="" clip-rule="evenodd" transform="matrix(1 0 0 1 0 0)" d="M44.94 78.06L439.32 78.06L439.32 78.06L439.32 363.12L439.32 363.12L44.94 363.12z" /></clipPath><clipPath id="4"><path id="" clip-rule="evenodd" transform="matrix(1 0 0 1 0 0)" d="M0 0.02001953L595.2 0.02001953L595.2 0.02001953L595.2 842L595.2 842L0 842z" /></clipPath><clipPath id="5"><path id="" clip-rule="evenodd" transform="matrix(1 0 0 1 0 0)" d="M44.94 78.06L439.32 78.06L439.32 78.06L439.32 363.12L439.32 363.12L44.94 363.12z" /></clipPath><clipPath id="6"><path id="" clip-rule="evenodd" transform="matrix(1 0 0 1 0 0)" d="M0 0.02001953L595.2 0.02001953L595.2 0.02001953L595.2 842L595.2 842L0 842z" /></clipPath><clipPath id="7"><path id="" clip-rule="evenodd" transform="matrix(1 0 0 1 0 0)" d="M225.96 543.12L390.18 543.12L390.18 543.12L390.18 627.42L390.18 627.42L225.96 627.42z" /></clipPath><clipPath id="8"><path id="" clip-rule="evenodd" transform="matrix(1 0 0 1 0 0)" d="M224.94 542.1L556.2 542.1L556.2 542.1L556.2 636L556.2 636L224.94 636z" /></clipPath><clipPath id="9"><path id="" clip-rule="evenodd" transform="matrix(1 0 0 1 0 0)" d="M0 0.02001953L595.2 0.02001953L595.2 0.02001953L595.2 842L595.2 842L0 842z" /></clipPath><clipPath id="10"><path id="" clip-rule="evenodd" transform="matrix(1 0 0 1 0 0)" d="M414.96 543.12L555.24 543.12L555.24 543.12L555.24 634.98L555.24 634.98L414.96 634.98z" /></clipPath><clipPath id="11"><path id="" clip-rule="evenodd" transform="matrix(1 0 0 1 0 0)" d="M224.94 542.1L556.2 542.1L556.2 542.1L556.2 636L556.2 636L224.94 636z" /></clipPath><clipPath id="12"><path id="" clip-rule="evenodd" transform="matrix(1 0 0 1 0 0)" d="M0 0.02001953L595.2 0.02001953L595.2 0.02001953L595.2 842L595.2 842L0 842z" /></clipPath><clipPath id="13"><path id="" clip-rule="evenodd" transform="matrix(1 0 0 1 0 0)" d="M224.94 542.1L556.2 542.1L556.2 542.1L556.2 636L556.2 636L224.94 636z" /></clipPath><clipPath id="14"><path id="" clip-rule="evenodd" transform="matrix(1 0 0 1 0 0)" d="M0 0.02001953L595.2 0.02001953L595.2 0.02001953L595.2 842L595.2 842L0 842z" /></clipPath></defs><g transform="matrix(1.333333 0 0 1.333333 0 0)"><g clip-path="url(#1)"><g clip-path="url(#2)"><g clip-path="url(#3)"><g clip-path="url(#4)"><g transform="matrix(0.4796333 0 0 0.4790863 45.96 79.02002)"><g transform="matrix(1 0 0 1 0 0)"><image x="0" y="0" xlink:href="img_670.png" width="818" height="591" /></g></g></g></g></g><g clip-path="url(#5)"><g clip-path="url(#6)"><path id="251" transform="matrix(1 0 0 -1 0 842)" d="M107.94 569.48L108.6 570.14L107.22 571.52L106.56 570.86" stroke="none" fill="#000000" fill-rule="nonzero" /><path id="252" transform="matrix(1 0 0 -1 0 842)" d="M74.16 535.76L73.5 535.1L72.12 536.48L72.78001 537.14" stroke="none" fill="#000000" fill-rule="nonzero" /><path id="253" transform="matrix(1 0 0 -1 0 842)" d="M107.94 569.48L106.56 570.86L72.78 537.14L74.16 535.76" stroke="none" fill="#000000" fill-rule="nonzero" /><path id="254" transform="matrix(1 0 0 -1 0 842)" d="M61.98 519.68L87.96 519.68L87.96 530.96L61.98 530.96z" stroke="none" fill="#FFFFFF" fill-rule="nonzero" /><path id="257" transform="matrix(1 0 0 -1 0 842)" d="M307.26 603.98L309.24 603.98L309.24 604.94L307.26 604.94z" stroke="none" fill="#000000" fill-rule="nonzero" /><path id="258" transform="matrix(1 0 0 -1 0 842)" d="M307.26 570.02L309.24 570.02L309.24 603.98L307.26 603.98z" stroke="none" fill="#000000" fill-rule="nonzero" /><path id="259" transform="matrix(1 0 0 -1 0 842)" d="M343.98 681.74L345.96 681.74L345.96 682.7L343.98 682.7z" stroke="none" fill="#000000" fill-rule="nonzero" /><path id="260" transform="matrix(1 0 0 -1 0 842)" d="M343.98 682.7L345.96 682.7L345.96 716.66L343.98 716.66z" stroke="none" fill="#000000" fill-rule="nonzero" /><path id="261" transform="matrix(1 0 0 -1 0 842)" d="M355.38 600.8L355.74 601.7L353.94 602.48L353.58 601.58" stroke="none" fill="#000000" fill-rule="nonzero" /><path id="262" transform="matrix(1 0 0 -1 0 842)" d="M327.12 534.56L326.76 533.66L324.96 534.44L325.32 535.34" stroke="none" fill="#000000" fill-rule="nonzero" /><path id="263" transform="matrix(1 0 0 -1 0 842)" d="M355.38 600.8L353.58 601.58L325.32 535.34L327.12 534.56" stroke="none" fill="#000000" fill-rule="nonzero" /><path id="264" transform="matrix(1 0 0 -1 0 842)" d="M384.9 554.36L385.2 555.26L383.34 555.86L383.04 554.96" stroke="none" fill="#000000" fill-rule="nonzero" /><path id="265" transform="matrix(1 0 0 -1 0 842)" d="M368.4 503.18L368.1 502.28L366.24 502.88L366.54 503.78" stroke="none" fill="#000000" fill-rule="nonzero" /><path id="266" transform="matrix(1 0 0 -1 0 842)" d="M384.9 554.36L383.04 554.96L366.54 503.78L368.4 503.18" stroke="none" fill="#000000" fill-rule="nonzero" /><path id="267" transform="matrix(1 0 0 -1 0 842)" d="M408.12 716.96L407.64 717.8L405.9 716.78L406.38 715.94" stroke="none" fill="#000000" fill-rule="nonzero" /><path id="268" transform="matrix(1 0 0 -1 0 842)" d="M427.86 682.94L428.34 682.1L426.6 681.08L426.12 681.92" stroke="none" fill="#000000" fill-rule="nonzero" /><path id="269" transform="matrix(1 0 0 -1 0 842)" d="M408.12 716.96L406.38 715.94L426.12 681.92L427.86 682.94" stroke="none" fill="#000000" fill-rule="nonzero" /><path id="270" transform="matrix(1 0 0 -1 0 842)" d="M275.94 555.68L334.44 555.68L334.44 566.96L275.94 566.96z" stroke="none" fill="#FFFFFF" fill-rule="nonzero" /><path id="277" transform="matrix(1 0 0 -1 0 842)" d="M282.96 520.94L355.86 520.94L355.86 533.72L282.96 533.72z" stroke="none" fill="#FFFFFF" fill-rule="nonzero" /><path id="284" transform="matrix(1 0 0 -1 0 842)" d="M324.96 718.46L369.24 718.46L369.24 729.7401L324.96 729.7401z" stroke="none" fill="#FFFFFF" fill-rule="nonzero" /><path id="289" transform="matrix(1 0 0 -1 0 842)" d="M334.44 491.18L412.44 491.18L412.44 503.96L334.44 503.96z" stroke="none" fill="#FFFFFF" fill-rule="nonzero" /><path id="297" transform="matrix(1 0 0 -1 0 842)" d="M391.98 718.46L419.34 718.46L419.34 729.7401L391.98 729.7401z" stroke="none" fill="#FFFFFF" fill-rule="nonzero" /></g></g><g clip-path="url(#7)"><g clip-path="url(#8)"><g clip-path="url(#9)"><g transform="matrix(0.4804152 0 0 0.4789773 225.96 543.12)"><g transform="matrix(1 0 0 1 0 0)"><image x="0" y="0" xlink:href="img_671.png" width="342" height="176" /></g></g></g></g></g><g clip-path="url(#10)"><g clip-path="url(#11)"><g clip-path="url(#12)"><g transform="matrix(0.4795665 0 0 0.4784375 414.96 543.12)"><g transform="matrix(1 0 0 1 0 0)"><image x="0" y="0" xlink:href="img_672.png" width="293" height="192" /></g></g></g></g></g><g clip-path="url(#13)"><g clip-path="url(#14)"><path id="313" transform="matrix(1 0 0 -1 0 842)" d="M406.44 256.58L406.38 256.76L406.38 256.76L406.32 256.94L406.32 256.94L406.26 257.12L406.26 257.12L406.14 257.24L406.14 257.24L405.96 257.36L405.96 257.36L405.84 257.48L405.84 257.48L405.6 257.54L405.6 257.54L405.24 257.54L405.24 257.54L405.06 257.48L405.06 257.48L404.7 257.24L404.7 257.24L404.58 257.12L404.58 257.12L404.52 256.94L404.52 256.94L404.46 256.76L404.46 256.76L404.4 256.58L404.4 256.58L404.46 256.34L404.46 256.34L404.58 255.98L404.58 255.98L404.7 255.86L404.7 255.86L405.06 255.62L405.06 255.62L405.24 255.56L405.24 255.56L405.6 255.56L405.6 255.56L405.84 255.62L405.84 255.62L405.96 255.74L405.96 255.74L406.14 255.86L406.14 255.86L406.26 255.98L406.26 255.98L406.38 256.34L406.38 256.34L406.44 256.58" stroke="none" fill="#000000" fill-rule="evenodd" /><path id="314" transform="matrix(1 0 0 -1 0 842)" d="M405.42 256.58L405.42 261.02L406.14 260.6L412.44 257L413.22 256.52L412.5 256.1L406.2 252.44L405.42 251.96L405.42 252.92L405.66 253.34L411.96 257L412.5 256.1L411.96 256.1L405.66 259.7L406.14 260.6L406.44 260.18L406.44 256.58" stroke="none" fill="#000000" fill-rule="nonzero" /><path id="315" transform="matrix(1 0 0 -1 0 842)" d="M405.42 252.92L406.44 252.92L406.44 256.58L405.42 256.58z" stroke="none" fill="#000000" fill-rule="nonzero" /><path id="316" transform="matrix(1 0 0 -1 0 842)" d="M405.9 256.58L405.9 260.18L405.9 260.18L412.2 256.58L412.2 256.58L405.9 252.92" stroke="none" fill="#000000" fill-rule="evenodd" /><path id="317" transform="matrix(1 0 0 -1 0 842)" d="M391.14 255.56L392.1 255.56L392.1 257.54L391.14 257.54z" stroke="none" fill="#000000" fill-rule="nonzero" /><path id="318" transform="matrix(1 0 0 -1 0 842)" d="M392.1 255.56L406.38 255.56L406.38 257.54L392.1 257.54z" stroke="none" fill="#000000" fill-rule="nonzero" /></g></g></g></g></svg>