<svg xmlns="http://www.w3.org/2000/svg" xmlns:xlink="http://www.w3.org/1999/xlink" id="body_260" preserveAspectRatio="xMinYMin meet" viewBox="0 0 793 1123"><defs><clipPath id="1"><path id="" clip-rule="evenodd" transform="matrix(1 0 0 1 0 0)" d="M0 842L0 0L0 0L595 0L595 0L595 842L595 842L0 842z" /></clipPath><clipPath id="2"><path id="" clip-rule="evenodd" transform="matrix(1 0 0 1 0 0)" d="M225.96 77.03998L374.28 77.03998L374.28 77.03998L374.28 160.3199L374.28 160.3199L225.96 160.3199z" /></clipPath><clipPath id="3"><path id="" clip-rule="evenodd" transform="matrix(1 0 0 1 0 0)" d="M224.94 76.02002L377.7 76.02002L377.7 76.02002L377.7 205.26L377.7 205.26L224.94 205.26z" /></clipPath><clipPath id="4"><path id="" clip-rule="evenodd" transform="matrix(1 0 0 1 0 0)" d="M0 0.02001953L595.2 0.02001953L595.2 0.02001953L595.2 842L595.2 842L0 842z" /></clipPath><clipPath id="5"><path id="" clip-rule="evenodd" transform="matrix(1 0 0 1 0 0)" d="M224.94 76.02002L377.7 76.02002L377.7 76.02002L377.7 205.26L377.7 205.26L224.94 205.26z" /></clipPath><clipPath id="6"><path id="" clip-rule="evenodd" transform="matrix(1 0 0 1 0 0)" d="M0 0.02001953L595.2 0.02001953L595.2 0.02001953L595.2 842L595.2 842L0 842z" /></clipPath><clipPath id="7"><path id="" clip-rule="evenodd" transform="matrix(1 0 0 1 0 0)" d="M225.96 291.24L339.84 291.24L339.84 291.24L339.84 382.86L339.84 382.86L225.96 382.86z" /></clipPath><clipPath id="8"><path id="" clip-rule="evenodd" transform="matrix(1 0 0 1 0 0)" d="M224.94 290.22L340.8 290.22L340.8 290.22L340.8 383.82L340.8 383.82L224.94 383.82z" /></clipPath><clipPath id="9"><path id="" clip-rule="evenodd" transform="matrix(1 0 0 1 0 0)" d="M0 0.02001953L595.2 0.02001953L595.2 0.02001953L595.2 842L595.2 842L0 842z" /></clipPath><clipPath id="10"><path id="" clip-rule="evenodd" transform="matrix(1 0 0 1 0 0)" d="M224.94 290.22L340.8 290.22L340.8 290.22L340.8 383.82L340.8 383.82L224.94 383.82z" /></clipPath><clipPath id="11"><path id="" clip-rule="evenodd" transform="matrix(1 0 0 1 0 0)" d="M0 0.02001953L595.2 0.02001953L595.2 0.02001953L595.2 842L595.2 842L0 842z" /></clipPath><clipPath id="12"><path id="" clip-rule="evenodd" transform="matrix(1 0 0 1 0 0)" d="M225.96 469.86L523.86 469.86L523.86 469.86L523.86 569.8199L523.86 569.8199L225.96 569.8199z" /></clipPath><clipPath id="13"><path id="" clip-rule="evenodd" transform="matrix(1 0 0 1 0 0)" d="M224.94 468.84L524.82 468.84L524.82 468.84L524.82 570.84L524.82 570.84L224.94 570.84z" /></clipPath><clipPath id="14"><path id="" clip-rule="evenodd" transform="matrix(1 0 0 1 0 0)" d="M0 0.02001953L595.2 0.02001953L595.2 0.02001953L595.2 842L595.2 842L0 842z" /></clipPath><clipPath id="15"><path id="" clip-rule="evenodd" transform="matrix(1 0 0 1 0 0)" d="M224.94 468.84L524.82 468.84L524.82 468.84L524.82 570.84L524.82 570.84L224.94 570.84z" /></clipPath><clipPath id="16"><path id="" clip-rule="evenodd" transform="matrix(1 0 0 1 0 0)" d="M0 0.02001953L595.2 0.02001953L595.2 0.02001953L595.2 842L595.2 842L0 842z" /></clipPath></defs><g transform="matrix(1.333333 0 0 1.333333 0 0)"><g clip-path="url(#1)"><g clip-path="url(#2)"><g clip-path="url(#3)"><g clip-path="url(#4)"><g transform="matrix(0.48 0 0 0.4786207 225.96 77.04004)"><g transform="matrix(1 0 0 1 0 0)"><image x="0" y="0" xlink:href="img_433.png" width="309" height="174" /></g></g></g></g></g><g clip-path="url(#5)"><g clip-path="url(#6)"><path id="282" transform="matrix(1 0 0 -1 0 842)" d="M244.98 747.2L281.22 747.2L281.22 759.98L244.98 759.98z" stroke="none" fill="#FFFFFF" fill-rule="nonzero" /><path id="288" transform="matrix(1 0 0 -1 0 842)" d="M324.48 747.2L363.24 747.2L363.24 759.98L324.48 759.98z" stroke="none" fill="#FFFFFF" fill-rule="nonzero" /></g></g><g clip-path="url(#7)"><g clip-path="url(#8)"><g clip-path="url(#9)"><g transform="matrix(0.4789118 0 0 0.4796859 225.96 291.24)"><g transform="matrix(1 0 0 1 0 0)"><image x="0" y="0" xlink:href="img_796.png" width="238" height="191" /></g></g></g></g></g><g clip-path="url(#10)"><g clip-path="url(#11)"><path id="295" transform="matrix(1 0 0 -1 0 842)" d="M233.52 530.78L233.34 530.72L233.34 530.72L233.22 530.6L233.22 530.6L233.04 530.48L233.04 530.48L232.98 530.3L232.98 530.3L232.86 530.1201L232.86 530.1201L232.86 529.7L232.86 529.7L232.98 529.34L232.98 529.34L233.1 529.16L233.1 529.16L233.22 529.04L233.22 529.04L233.4 528.98L233.4 528.98L233.58 528.86L233.58 528.86L233.94 528.86L233.94 528.86L234.18 528.92L234.18 528.92L234.36 528.98L234.36 528.98L234.48 529.1L234.48 529.1L234.66 529.22L234.66 529.22L234.72 529.4L234.72 529.4L234.84 529.58L234.84 529.58L234.84 529.94L234.84 529.94L234.78 530.1801L234.78 530.1801L234.72 530.36L234.72 530.36L234.6 530.48L234.6 530.48L234.48 530.66L234.48 530.66L233.94 530.84L233.94 530.84L233.76 530.84L233.76 530.84L233.52 530.78" stroke="none" fill="#000000" fill-rule="evenodd" /><path id="296" transform="matrix(1 0 0 -1 0 842)" d="M233.82 529.82L229.74 528.5L229.14 528.38L229.08 528.98L228.48 544.58L228.42 546.32L229.44 544.88L238.2 531.98L238.56 531.44L237.9 531.2L237.36 531.44L228.6 544.34L229.44 544.88L229.5 544.64L230.1 529.04L229.08 528.98L229.44 529.52L233.52 530.84" stroke="none" fill="#000000" fill-rule="nonzero" /><path id="297" transform="matrix(1 0 0 -1 0 842)" d="M237.9 531.2L233.82 529.82L233.52 530.84L237.6 532.22" stroke="none" fill="#000000" fill-rule="nonzero" /><path id="298" transform="matrix(1 0 0 -1 0 842)" d="M233.7 530.3L229.62 528.98L229.62 528.98L229.02 544.58L229.02 544.58L237.78 531.68" stroke="none" fill="#000000" fill-rule="evenodd" /><path id="299" transform="matrix(1 0 0 -1 0 842)" d="M256.2 517.52L257.16 517.52L257.16 519.5L256.2 519.5z" stroke="none" fill="#000000" fill-rule="nonzero" /><path id="300" transform="matrix(1 0 0 -1 0 842)" d="M256.2 517.52L254.4 517.52L253.56 517.58L252.66 517.64L252.6 517.64L251.7 517.76L250.86 517.88L249.96 518L249.12 518.12L249.06 518.18L248.16 518.36L247.32 518.54L247.26 518.54L244.74 519.26L244.68 519.26L243.84 519.56L243.78 519.56L242.22 520.16L242.16 520.22L241.38 520.58L241.32 520.58L240.6 521L240.66 521L239.82 521.42L239.16 521.84L238.44 522.32L238.38 522.38L237.18 523.34L237.12 523.34L236.52 523.88L236.52 523.94L235.92 524.54L235.38 525.14L235.32 525.14L234.84 525.74L234.78 525.86L233.94 527.18L233.94 527.24L233.58 527.9L233.52 527.96L235.32 528.74L235.32 528.86L235.68 528.2L235.62 528.26L236.46 526.94L236.4 527L236.88 526.4L236.88 526.46L237.42 525.86L237.36 525.86L237.9 525.32L237.84 525.38L238.44 524.84L238.44 524.9L239.64 523.94L239.52 523.94L240.24 523.46L240.24 523.52L240.9 523.1L240.84 523.16L241.56 522.8L241.62 522.74L242.34 522.32L242.22 522.38L243 522.02L242.94 522.02L244.5 521.42L245.34 521.12L245.28 521.18L247.8 520.46L247.74 520.46L248.58 520.28L248.52 520.28L249.42 520.1L250.26 519.98L250.2 519.98L251.1 519.86L251.16 519.86L252 519.74L251.94 519.74L252.84 519.62L252.78 519.62L253.68 519.56L254.52 519.5L254.46 519.5L256.2 519.5" stroke="none" fill="#000000" fill-rule="nonzero" /><path id="301" transform="matrix(1 0 0 -1 0 842)" d="M233.52 527.96L233.22 528.68L235.02 529.46L235.32 528.7401" stroke="none" fill="#000000" fill-rule="nonzero" /><path id="302" transform="matrix(1 0 0 -1 0 842)" d="M232.92 529.4L232.56 530.3L234.36 531.08L234.72 530.1801" stroke="none" fill="#000000" fill-rule="nonzero" /><path id="303" transform="matrix(1 0 0 -1 0 842)" d="M233.22 528.68L235.02 529.46L234.72 530.18L232.92 529.4" stroke="none" fill="#000000" fill-rule="nonzero" /></g></g><g clip-path="url(#12)"><g clip-path="url(#13)"><g clip-path="url(#14)"><g transform="matrix(0.4789389 0 0 0.4782775 225.96 469.86)"><g transform="matrix(1 0 0 1 0 0)"><image x="0" y="0" xlink:href="img_797.png" width="622" height="209" /></g></g></g></g></g><g clip-path="url(#15)"><g clip-path="url(#16)"><path id="305" transform="matrix(1 0 0 -1 0 842)" d="M388.2 276.44L442.32 276.44L442.32 288.44L388.2 288.44z" stroke="none" fill="#FFFFFF" fill-rule="nonzero" /><path id="310" transform="matrix(1 0 0 -1 0 842)" d="M325.32 353.42L363.96 353.42L363.96 365.42L325.32 365.42z" stroke="none" fill="#FFFFFF" fill-rule="nonzero" /><path id="316" transform="matrix(1 0 0 -1 0 842)" d="M231.36 346.4L295.86 346.4L295.86 370.4L231.36 370.4z" stroke="none" fill="#FFFFFF" fill-rule="nonzero" /><path id="328" transform="matrix(1 0 0 -1 0 842)" d="M474 350.54L502.08 350.54L502.08 364.82L474 364.82z" stroke="none" fill="#FFFFFF" fill-rule="nonzero" /></g></g></g></g></svg>