<svg xmlns="http://www.w3.org/2000/svg" xmlns:xlink="http://www.w3.org/1999/xlink" id="body_201" preserveAspectRatio="xMinYMin meet" viewBox="0 0 793 1123"><defs><clipPath id="1"><path id="" clip-rule="evenodd" transform="matrix(1 0 0 1 0 0)" d="M0 842L0 0L0 0L595 0L595 0L595 842L595 842L0 842z" /></clipPath><clipPath id="2"><path id="" clip-rule="evenodd" transform="matrix(1 0 0 1 0 0)" d="M115.56 275.94L193.98 275.94L193.98 275.94L193.98 290.34L193.98 290.34L115.56 290.34z" /></clipPath><clipPath id="3"><path id="" clip-rule="evenodd" transform="matrix(1 0 0 1 0 0)" d="M0 0.02001953L595.2 0.02001953L595.2 0.02001953L595.2 842L595.2 842L0 842z" /></clipPath><clipPath id="4"><path id="" clip-rule="evenodd" transform="matrix(1 0 0 1 0 0)" d="M115.44 276.18L190.5 276.18L190.5 276.18L190.5 290.34L190.5 290.34L115.44 290.34z" /></clipPath><clipPath id="5"><path id="" clip-rule="evenodd" transform="matrix(1 0 0 1 0 0)" d="M115.56 275.94L193.98 275.94L193.98 275.94L193.98 290.34L193.98 290.34L115.56 290.34z" /></clipPath><clipPath id="6"><path id="" clip-rule="evenodd" transform="matrix(1 0 0 1 0 0)" d="M0 0.02001953L595.2 0.02001953L595.2 0.02001953L595.2 842L595.2 842L0 842z" /></clipPath></defs><g transform="matrix(1.333333 0 0 1.333333 0 0)"><g clip-path="url(#1)"><g clip-path="url(#2)"><g clip-path="url(#3)"><path id="670" transform="matrix(1 0 0 -1 0 842)" d="M115.56 551.66L193.98 551.66L193.98 566.06L115.56 566.06z" stroke="none" fill="#FFFFFF" fill-rule="nonzero" /></g></g><g clip-path="url(#4)"><g clip-path="url(#5)"><g clip-path="url(#6)"><g transform="matrix(0.7431683 0 0 0.7452632 115.44 276.1801)"><g transform="matrix(1 0 0 1 0 0)"><image x="0" y="0" xlink:href="img_274.png" width="101" height="19" /></g></g></g></g></g><path id="672" transform="matrix(1 0 0 -1 0 842)" d="M215.94 570.02L549 570.02L549 480.02L215.94 480.02" stroke="none" fill="#ECF5FC" fill-rule="nonzero" /></g></g></svg>