<svg xmlns="http://www.w3.org/2000/svg" xmlns:xlink="http://www.w3.org/1999/xlink" id="body_280" preserveAspectRatio="xMinYMin meet" viewBox="0 0 793 1123"><defs><clipPath id="1"><path id="" clip-rule="evenodd" transform="matrix(1 0 0 1 0 0)" d="M0 842L0 0L0 0L595 0L595 0L595 842L595 842L0 842z" /></clipPath><clipPath id="2"><path id="" clip-rule="evenodd" transform="matrix(1 0 0 1 0 0)" d="M225.96 77.03998L460.44 77.03998L460.44 77.03998L460.44 263.88L460.44 263.88L225.96 263.88z" /></clipPath><clipPath id="3"><path id="" clip-rule="evenodd" transform="matrix(1 0 0 1 0 0)" d="M224.94 76.02002L461.4 76.02002L461.4 76.02002L461.4 264.84L461.4 264.84L224.94 264.84z" /></clipPath><clipPath id="4"><path id="" clip-rule="evenodd" transform="matrix(1 0 0 1 0 0)" d="M0 0.02001953L595.2 0.02001953L595.2 0.02001953L595.2 842L595.2 842L0 842z" /></clipPath><clipPath id="5"><path id="" clip-rule="evenodd" transform="matrix(1 0 0 1 0 0)" d="M224.94 76.02002L461.4 76.02002L461.4 76.02002L461.4 264.84L461.4 264.84L224.94 264.84z" /></clipPath><clipPath id="6"><path id="" clip-rule="evenodd" transform="matrix(1 0 0 1 0 0)" d="M0 0.02001953L595.2 0.02001953L595.2 0.02001953L595.2 842L595.2 842L0 842z" /></clipPath><clipPath id="7"><path id="" clip-rule="evenodd" transform="matrix(1 0 0 1 0 0)" d="M225.96 350.82L342.42 350.82L342.42 350.82L342.42 452.88L342.42 452.88L225.96 452.88z" /></clipPath><clipPath id="8"><path id="" clip-rule="evenodd" transform="matrix(1 0 0 1 0 0)" d="M224.94 349.86L343.38 349.86L343.38 349.86L343.38 453.9L343.38 453.9L224.94 453.9z" /></clipPath><clipPath id="9"><path id="" clip-rule="evenodd" transform="matrix(1 0 0 1 0 0)" d="M0 0.02001953L595.2 0.02001953L595.2 0.02001953L595.2 842L595.2 842L0 842z" /></clipPath><clipPath id="10"><path id="" clip-rule="evenodd" transform="matrix(1 0 0 1 0 0)" d="M224.94 349.86L343.38 349.86L343.38 349.86L343.38 453.9L343.38 453.9L224.94 453.9z" /></clipPath><clipPath id="11"><path id="" clip-rule="evenodd" transform="matrix(1 0 0 1 0 0)" d="M0 0.02001953L595.2 0.02001953L595.2 0.02001953L595.2 842L595.2 842L0 842z" /></clipPath><clipPath id="12"><path id="" clip-rule="evenodd" transform="matrix(1 0 0 1 0 0)" d="M225.96 539.88L447.6 539.88L447.6 539.88L447.6 688.74L447.6 688.74L225.96 688.74z" /></clipPath><clipPath id="13"><path id="" clip-rule="evenodd" transform="matrix(1 0 0 1 0 0)" d="M224.94 538.86L448.56 538.86L448.56 538.86L448.56 689.76L448.56 689.76L224.94 689.76z" /></clipPath><clipPath id="14"><path id="" clip-rule="evenodd" transform="matrix(1 0 0 1 0 0)" d="M0 0.02001953L595.2 0.02001953L595.2 0.02001953L595.2 842L595.2 842L0 842z" /></clipPath><clipPath id="15"><path id="" clip-rule="evenodd" transform="matrix(1 0 0 1 0 0)" d="M224.94 538.86L448.56 538.86L448.56 538.86L448.56 689.76L448.56 689.76L224.94 689.76z" /></clipPath><clipPath id="16"><path id="" clip-rule="evenodd" transform="matrix(1 0 0 1 0 0)" d="M0 0.02001953L595.2 0.02001953L595.2 0.02001953L595.2 842L595.2 842L0 842z" /></clipPath></defs><g transform="matrix(1.333333 0 0 1.333333 0 0)"><g clip-path="url(#1)"><g clip-path="url(#2)"><g clip-path="url(#3)"><g clip-path="url(#4)"><g transform="matrix(0.3888557 0 0 0.3884408 225.96 77.04004)"><g transform="matrix(1 0 0 1 0 0)"><image x="0" y="0" xlink:href="img_852.png" width="603" height="481" /></g></g></g></g></g><g clip-path="url(#5)"><g clip-path="url(#6)"><path id="244" transform="matrix(1 0 0 -1 0 842)" d="M281.7 653.54L282.72 653.54L282 711.62L280.98 711.62" stroke="none" fill="#000000" fill-rule="nonzero" /><path id="245" transform="matrix(1 0 0 -1 0 842)" d="M279.96 641.66L291.66 641.66L291.66 651.5L279.96 651.5z" stroke="none" fill="#FFFFFF" fill-rule="nonzero" /></g></g><g clip-path="url(#7)"><g clip-path="url(#8)"><g clip-path="url(#9)"><g transform="matrix(0.4792593 0 0 0.4791549 225.96 350.82)"><g transform="matrix(1 0 0 1 0 0)"><image x="0" y="0" xlink:href="img_871.png" width="243" height="213" /></g></g></g></g></g><g clip-path="url(#10)"><g clip-path="url(#11)"><path id="248" transform="matrix(1 0 0 -1 0 842)" d="M319.02 435.68L319.62 435.68L319.62 435.68L320.1 435.92L320.1 435.92L320.22 436.04L320.22 436.04L320.34 436.1L320.34 436.1L320.46 436.22L320.46 436.22L320.64 436.58L320.64 436.58L320.7 436.76L320.7 436.76L320.76 436.88L320.76 436.88L320.76 437.36L320.76 437.36L320.7 437.48L320.7 437.48L320.7 437.6L320.7 437.6L320.64 437.78L320.64 437.78L320.52 438.02L320.52 438.02L320.1 438.44L320.1 438.44L319.98 438.5L319.98 438.5L319.8 438.56L319.8 438.56L319.68 438.62L319.68 438.62L319.5 438.62L319.5 438.62L319.38 438.68L319.38 438.68L319.2 438.68L319.2 438.68L319.08 438.62L319.08 438.62L318.9 438.62L318.9 438.62L318.3 438.32L318.3 438.32L318.06 438.08L318.06 438.08L317.88 437.72L317.88 437.72L317.82 437.54L317.82 437.54L317.76 437.42L317.76 437.42L317.76 436.94L317.76 436.94L317.82 436.82L317.82 436.82L317.82 436.7L317.82 436.7L317.88 436.52L317.88 436.52L317.94 436.4L317.94 436.4L318.06 436.28L318.06 436.28L318.12 436.16L318.12 436.16L318.24 436.1L318.24 436.1L318.3 435.98L318.3 435.98L318.42 435.92L318.42 435.92L318.6 435.8L318.6 435.8L318.72 435.74L318.72 435.74L318.84 435.74L318.84 435.74L319.02 435.68" stroke="none" fill="#FF0000" fill-rule="evenodd" /><path id="249" transform="matrix(1 0 0 -1 0 842)" d="M319.26 437.12L324.3 436.22L324.96 436.1L324.66 435.5L316.44 418.82L315.72 417.26L315.54 419L313.62 437.42L313.56 438.14L314.16 438.02L314.58 437.6L316.5 419.12L315.54 419L315.54 419.24L323.76 435.92L324.66 435.5L324.12 435.2L319.08 436.1" stroke="none" fill="#FF0000" fill-rule="nonzero" /><path id="250" transform="matrix(1 0 0 -1 0 842)" d="M314.16 438.02L319.26 437.12L319.08 436.1L313.98 437" stroke="none" fill="#FF0000" fill-rule="nonzero" /><path id="251" transform="matrix(1 0 0 -1 0 842)" d="M319.2 436.64L324.24 435.74L324.24 435.74L316.02 419.06L316.02 419.06L314.1 437.54" stroke="none" fill="#FF0000" fill-rule="evenodd" /><path id="252" transform="matrix(1 0 0 -1 0 842)" d="M325.74 464.78L325.98 466.22L323.04 466.76L322.8 465.32" stroke="none" fill="#FF0000" fill-rule="nonzero" /><path id="253" transform="matrix(1 0 0 -1 0 842)" d="M320.76 436.88L320.52 435.44L317.58 435.98L317.82 437.42" stroke="none" fill="#FF0000" fill-rule="nonzero" /><path id="254" transform="matrix(1 0 0 -1 0 842)" d="M325.74 464.78L322.8 465.32L317.82 437.42L320.76 436.88" stroke="none" fill="#FF0000" fill-rule="nonzero" /></g></g><g clip-path="url(#12)"><g clip-path="url(#13)"><g clip-path="url(#14)"><g transform="matrix(0.4320468 0 0 0.4314783 225.96 539.88)"><g transform="matrix(1 0 0 1 0 0)"><image x="0" y="0" xlink:href="img_848.png" width="513" height="345" /></g></g></g></g></g><g clip-path="url(#15)"><g clip-path="url(#16)"><path id="257" transform="matrix(1 0 0 -1 0 842)" d="M386.1 244.88L386.04 244.76L386.04 244.76L385.98 244.58L385.98 244.58L385.98 244.16L385.98 244.16L386.04 244.04L386.04 244.04L386.04 243.86L386.04 243.86L386.16 243.62L386.16 243.62L386.28 243.5L386.28 243.5L386.34 243.38L386.34 243.38L386.46 243.26L386.46 243.26L386.58 243.2L386.58 243.2L386.7 243.08L386.7 243.08L387.06 242.9L387.06 242.9L387.24 242.9L387.24 242.9L387.36 242.84L387.36 242.84L387.66 242.84L387.66 242.84L387.84 242.9L387.84 242.9L387.96 242.9L387.96 242.9L388.2 243.02L388.2 243.02L388.32 243.14L388.32 243.14L388.44 243.2L388.44 243.2L388.68 243.44L388.68 243.44L388.86 243.8L388.86 243.8L388.92 243.98L388.92 243.98L388.98 244.1L388.98 244.1L388.98 244.52L388.98 244.52L388.92 244.7L388.92 244.7L388.92 244.82L388.92 244.82L388.74 245.18L388.74 245.18L388.5 245.42L388.5 245.42L388.44 245.54L388.44 245.54L388.32 245.6L388.32 245.6L388.14 245.66L388.14 245.66L388.02 245.78L388.02 245.78L387.9 245.78L387.9 245.78L387.72 245.84L387.72 245.84L387.12 245.84L387.12 245.84L386.64 245.6L386.64 245.6L386.52 245.48L386.52 245.48L386.4 245.42L386.4 245.42L386.28 245.3L386.28 245.3L386.16 245.06L386.16 245.06L386.1 244.88" stroke="none" fill="#FF0000" fill-rule="evenodd" /><path id="258" transform="matrix(1 0 0 -1 0 842)" d="M387.42 244.34L385.56 239.6L385.32 239L384.78 239.42L369.96 250.64L368.58 251.66L370.32 251.54L388.86 249.86L389.52 249.74L389.28 249.14L388.8 248.84L370.26 250.52L370.32 251.54L370.62 251.42L385.44 240.2L384.78 239.42L384.66 239.96L386.52 244.7" stroke="none" fill="#FF0000" fill-rule="nonzero" /><path id="259" transform="matrix(1 0 0 -1 0 842)" d="M389.28 249.14L387.42 244.34L386.52 244.7L388.38 249.5" stroke="none" fill="#FF0000" fill-rule="nonzero" /><path id="260" transform="matrix(1 0 0 -1 0 842)" d="M387 244.52L385.14 239.78L385.14 239.78L370.32 251L370.32 251L388.86 249.32" stroke="none" fill="#FF0000" fill-rule="evenodd" /><path id="261" transform="matrix(1 0 0 -1 0 842)" d="M424.38 228.44L425.76 227.9L426.84 230.72L425.46 231.26" stroke="none" fill="#FF0000" fill-rule="nonzero" /><path id="262" transform="matrix(1 0 0 -1 0 842)" d="M386.94 242.9L385.56 243.44L386.64 246.26L388.02 245.72" stroke="none" fill="#FF0000" fill-rule="nonzero" /><path id="263" transform="matrix(1 0 0 -1 0 842)" d="M424.38 228.44L425.46 231.26L388.02 245.72L386.94 242.9" stroke="none" fill="#FF0000" fill-rule="nonzero" /></g></g></g></g></svg>