<svg xmlns="http://www.w3.org/2000/svg" xmlns:xlink="http://www.w3.org/1999/xlink" id="body_73" preserveAspectRatio="xMinYMin meet" viewBox="0 0 793 1123"><defs><clipPath id="1"><path id="" clip-rule="evenodd" transform="matrix(1 0 0 1 0 0)" d="M0 842L0 0L0 0L595 0L595 0L595 842L595 842L0 842z" /></clipPath><clipPath id="2"><path id="" clip-rule="evenodd" transform="matrix(1 0 0 1 0 0)" d="M312.36 77.03998L442.2 77.03998L442.2 77.03998L442.2 257.28L442.2 257.28L312.36 257.28z" /></clipPath><clipPath id="3"><path id="" clip-rule="evenodd" transform="matrix(1 0 0 1 0 0)" d="M224.94 76.02002L524.28 76.02002L524.28 76.02002L524.28 258.3L524.28 258.3L224.94 258.3z" /></clipPath><clipPath id="4"><path id="" clip-rule="evenodd" transform="matrix(1 0 0 1 0 0)" d="M0 0.02001953L595.2 0.02001953L595.2 0.02001953L595.2 842L595.2 842L0 842z" /></clipPath><clipPath id="5"><path id="" clip-rule="evenodd" transform="matrix(1 0 0 1 0 0)" d="M224.94 76.02002L524.28 76.02002L524.28 76.02002L524.28 258.3L524.28 258.3L224.94 258.3z" /></clipPath><clipPath id="6"><path id="" clip-rule="evenodd" transform="matrix(1 0 0 1 0 0)" d="M0 0.02001953L595.2 0.02001953L595.2 0.02001953L595.2 842L595.2 842L0 842z" /></clipPath><clipPath id="7"><path id="" clip-rule="evenodd" transform="matrix(1 0 0 1 0 0)" d="M249.18 379.86L493.74 379.86L493.74 379.86L493.74 594.18L493.74 594.18L249.18 594.18z" /></clipPath><clipPath id="8"><path id="" clip-rule="evenodd" transform="matrix(1 0 0 1 0 0)" d="M224.94 371.22L550.98 371.22L550.98 371.22L550.98 595.2L550.98 595.2L224.94 595.2z" /></clipPath><clipPath id="9"><path id="" clip-rule="evenodd" transform="matrix(1 0 0 1 0 0)" d="M0 0.02001953L595.2 0.02001953L595.2 0.02001953L595.2 842L595.2 842L0 842z" /></clipPath><clipPath id="10"><path id="" clip-rule="evenodd" transform="matrix(1 0 0 1 0 0)" d="M224.94 371.22L550.98 371.22L550.98 371.22L550.98 595.2L550.98 595.2L224.94 595.2z" /></clipPath><clipPath id="11"><path id="" clip-rule="evenodd" transform="matrix(1 0 0 1 0 0)" d="M0 0.02001953L595.2 0.02001953L595.2 0.02001953L595.2 842L595.2 842L0 842z" /></clipPath></defs><g transform="matrix(1.333333 0 0 1.333333 0 0)"><g clip-path="url(#1)"><g clip-path="url(#2)"><g clip-path="url(#3)"><g clip-path="url(#4)"><g transform="matrix(0.4791144 0 0 0.4793617 312.36 77.04004)"><g transform="matrix(1 0 0 1 0 0)"><image x="0" y="0" xlink:href="img_198.png" width="271" height="376" /></g></g></g></g></g><g clip-path="url(#5)"><g clip-path="url(#6)"><path id="355" transform="matrix(1 0 0 -1 0 842)" d="M447.36 611.12L447.84 611.12L447.84 612.14L447.36 612.14z" stroke="none" fill="#000000" fill-rule="nonzero" /><path id="356" transform="matrix(1 0 0 -1 0 842)" d="M374.46 610.82L374.94 610.82L374.94 611.84L374.46 611.84z" stroke="none" fill="#000000" fill-rule="nonzero" /><path id="357" transform="matrix(1 0 0 -1 0 842)" d="M447.36 611.12L447.36 612.14L374.94 611.84L374.94 610.82" stroke="none" fill="#000000" fill-rule="nonzero" /><path id="364" transform="matrix(1 0 0 -1 0 842)" d="M290.7 646.82L291.18 646.82L291.18 647.84L290.7 647.84z" stroke="none" fill="#000000" fill-rule="nonzero" /><path id="365" transform="matrix(1 0 0 -1 0 842)" d="M335.34 646.34L335.82 646.34L335.82 647.36L335.34 647.36z" stroke="none" fill="#000000" fill-rule="nonzero" /><path id="366" transform="matrix(1 0 0 -1 0 842)" d="M291.18 647.84L291.18 646.82L335.34 646.34L335.34 647.36" stroke="none" fill="#000000" fill-rule="nonzero" /><path id="374" transform="matrix(1 0 0 -1 0 842)" d="M284.7 704.42L285.18 704.42L285.18 705.44L284.7 705.44z" stroke="none" fill="#000000" fill-rule="nonzero" /><path id="375" transform="matrix(1 0 0 -1 0 842)" d="M312.96 703.94L313.44 703.94L313.44 704.96L312.96 704.96z" stroke="none" fill="#000000" fill-rule="nonzero" /><path id="376" transform="matrix(1 0 0 -1 0 842)" d="M285.18 705.44L285.18 704.42L312.96 703.94L312.96 704.96" stroke="none" fill="#000000" fill-rule="nonzero" /><path id="383" transform="matrix(1 0 0 -1 0 842)" d="M450.78 684.2L451.26 684.2L451.26 685.22L450.78 685.22z" stroke="none" fill="#000000" fill-rule="nonzero" /><path id="384" transform="matrix(1 0 0 -1 0 842)" d="M360.66 684.2L450.78 684.2L450.78 685.22L360.66 685.22z" stroke="none" fill="#000000" fill-rule="nonzero" /><path id="392" transform="matrix(1 0 0 -1 0 842)" d="M367.14 749.54L367.62 749.54L367.62 750.56L367.14 750.56z" stroke="none" fill="#000000" fill-rule="nonzero" /><path id="393" transform="matrix(1 0 0 -1 0 842)" d="M300.06 749.54L367.14 749.54L367.14 750.56L300.06 750.56z" stroke="none" fill="#000000" fill-rule="nonzero" /><path id="398" transform="matrix(1 0 0 -1 0 842)" d="M448.38 665.54L448.86 665.54L448.86 666.56L448.38 666.56z" stroke="none" fill="#000000" fill-rule="nonzero" /><path id="399" transform="matrix(1 0 0 -1 0 842)" d="M363.06 665.54L448.38 665.54L448.38 666.56L363.06 666.56z" stroke="none" fill="#000000" fill-rule="nonzero" /></g></g><g clip-path="url(#7)"><g clip-path="url(#8)"><g clip-path="url(#9)"><g transform="matrix(0.4795294 0 0 0.4794631 249.18 379.86)"><g transform="matrix(1 0 0 1 0 0)"><image x="0" y="0" xlink:href="img_199.png" width="510" height="447" /></g></g></g></g></g><g clip-path="url(#10)"><g clip-path="url(#11)"><path id="439" transform="matrix(1 0 0 -1 0 842)" d="M430.92 316.1L430.56 316.46L429.84 315.74L430.2 315.38" stroke="none" fill="#000000" fill-rule="nonzero" /><path id="440" transform="matrix(1 0 0 -1 0 842)" d="M448.32 299.3L448.68 298.94L447.96 298.22L447.6 298.58" stroke="none" fill="#000000" fill-rule="nonzero" /><path id="441" transform="matrix(1 0 0 -1 0 842)" d="M430.92 316.1L430.2 315.38L447.6 298.58L448.32 299.3" stroke="none" fill="#000000" fill-rule="nonzero" /><path id="446" transform="matrix(1 0 0 -1 0 842)" d="M375.78 301.82L376.08 302.24L375.24 302.84L374.94 302.42" stroke="none" fill="#000000" fill-rule="nonzero" /><path id="447" transform="matrix(1 0 0 -1 0 842)" d="M361.26 282.62L360.96 282.2L360.12 282.8L360.42 283.22" stroke="none" fill="#000000" fill-rule="nonzero" /><path id="448" transform="matrix(1 0 0 -1 0 842)" d="M375.78 301.82L374.94 302.42L360.42 283.22L361.26 282.62" stroke="none" fill="#000000" fill-rule="nonzero" /></g></g></g></g></svg>