<svg xmlns="http://www.w3.org/2000/svg" xmlns:xlink="http://www.w3.org/1999/xlink" id="body_109" preserveAspectRatio="xMinYMin meet" viewBox="0 0 793 1123"><defs><clipPath id="1"><path id="" clip-rule="evenodd" transform="matrix(1 0 0 1 0 0)" d="M0 842L0 0L0 0L595 0L595 0L595 842L595 842L0 842z" /></clipPath></defs><g transform="matrix(1.333333 0 0 1.333333 0 0)"><g clip-path="url(#1)"><path id="556" transform="matrix(1 0 0 -1 0 842)" d="M224.94 562.04L441.84 562.04L441.84 580.04L224.94 580.04z" stroke="none" fill="#C5E0F7" fill-rule="nonzero" /><path id="559" transform="matrix(1 0 0 -1 0 842)" d="M441.84 562.04L558 562.04L558 580.04L441.84 580.04z" stroke="none" fill="#C5E0F7" fill-rule="nonzero" /><path id="597" transform="matrix(1 0 0 -1 0 842)" d="M224.94 502.04L558 502.04L558 454.04L224.94 454.04" stroke="none" fill="#ECF5FC" fill-rule="nonzero" /><path id="669" transform="matrix(1 0 0 -1 0 842)" d="M224.94 541.76L558 541.76L558 542.24L224.94 542.24z" stroke="none" fill="#3D96E3" fill-rule="nonzero" /><path id="670" transform="matrix(1 0 0 -1 0 842)" d="M224.94 521.78L558 521.78L558 522.26L224.94 522.26z" stroke="none" fill="#3D96E3" fill-rule="nonzero" /><path id="671" transform="matrix(1 0 0 -1 0 842)" d="M224.94 501.8L558 501.8L558 502.28L224.94 502.28z" stroke="none" fill="#3D96E3" fill-rule="nonzero" /><path id="672" transform="matrix(1 0 0 -1 0 842)" d="M224.94 453.26L558 453.26L558 454.76L224.94 454.76z" stroke="none" fill="#3D96E3" fill-rule="nonzero" /></g></g></svg>