<svg xmlns="http://www.w3.org/2000/svg" xmlns:xlink="http://www.w3.org/1999/xlink" id="body_219" preserveAspectRatio="xMinYMin meet" viewBox="0 0 793 1123"><defs><clipPath id="1"><path id="" clip-rule="evenodd" transform="matrix(1 0 0 1 0 0)" d="M0 842L0 0L0 0L595 0L595 0L595 842L595 842L0 842z" /></clipPath><clipPath id="2"><path id="" clip-rule="evenodd" transform="matrix(1 0 0 1 0 0)" d="M215.94 717.96L549 717.96L549 717.96L549 732.96L549 732.96L215.94 732.96z" /></clipPath><clipPath id="3"><path id="" clip-rule="evenodd" transform="matrix(1 0 0 1 0 0)" d="M0 0.02001953L595.2 0.02001953L595.2 0.02001953L595.2 842L595.2 842L0 842z" /></clipPath><clipPath id="4"><path id="" clip-rule="evenodd" transform="matrix(1 0 0 1 0 0)" d="M216.96 171.12L352.92 171.12L352.92 171.12L352.92 299.94L352.92 299.94L216.96 299.94z" /></clipPath><clipPath id="5"><path id="" clip-rule="evenodd" transform="matrix(1 0 0 1 0 0)" d="M215.94 114L547.86 114L547.86 114L547.86 308.1L547.86 308.1L215.94 308.1z" /></clipPath><clipPath id="6"><path id="" clip-rule="evenodd" transform="matrix(1 0 0 1 0 0)" d="M0 0.02001953L595.2 0.02001953L595.2 0.02001953L595.2 842L595.2 842L0 842z" /></clipPath><clipPath id="7"><path id="" clip-rule="evenodd" transform="matrix(1 0 0 1 0 0)" d="M215.94 114L547.86 114L547.86 114L547.86 308.1L547.86 308.1L215.94 308.1z" /></clipPath><clipPath id="8"><path id="" clip-rule="evenodd" transform="matrix(1 0 0 1 0 0)" d="M0 0.02001953L595.2 0.02001953L595.2 0.02001953L595.2 842L595.2 842L0 842z" /></clipPath><clipPath id="9"><path id="" clip-rule="evenodd" transform="matrix(1 0 0 1 0 0)" d="M376.32 115.02L546.84 115.02L546.84 115.02L546.84 307.08L546.84 307.08L376.32 307.08z" /></clipPath><clipPath id="10"><path id="" clip-rule="evenodd" transform="matrix(1 0 0 1 0 0)" d="M215.94 114L547.86 114L547.86 114L547.86 308.1L547.86 308.1L215.94 308.1z" /></clipPath><clipPath id="11"><path id="" clip-rule="evenodd" transform="matrix(1 0 0 1 0 0)" d="M0 0.02001953L595.2 0.02001953L595.2 0.02001953L595.2 842L595.2 842L0 842z" /></clipPath><clipPath id="12"><path id="" clip-rule="evenodd" transform="matrix(1 0 0 1 0 0)" d="M215.94 114L547.86 114L547.86 114L547.86 308.1L547.86 308.1L215.94 308.1z" /></clipPath><clipPath id="13"><path id="" clip-rule="evenodd" transform="matrix(1 0 0 1 0 0)" d="M0 0.02001953L595.2 0.02001953L595.2 0.02001953L595.2 842L595.2 842L0 842z" /></clipPath><clipPath id="14"><path id="" clip-rule="evenodd" transform="matrix(1 0 0 1 0 0)" d="M36.96 446.04L109.62 446.04L109.62 446.04L109.62 591.66L109.62 591.66L36.96 591.66z" /></clipPath><clipPath id="15"><path id="" clip-rule="evenodd" transform="matrix(1 0 0 1 0 0)" d="M35.94 443.04L512.52 443.04L512.52 443.04L512.52 591.42L512.52 591.42L35.94 591.42z" /></clipPath><clipPath id="16"><path id="" clip-rule="evenodd" transform="matrix(1 0 0 1 0 0)" d="M0 0.02001953L595.2 0.02001953L595.2 0.02001953L595.2 842L595.2 842L0 842z" /></clipPath><clipPath id="17"><path id="" clip-rule="evenodd" transform="matrix(1 0 0 1 0 0)" d="M137.7 447.24L511.5 447.24L511.5 447.24L511.5 590.46L511.5 590.46L137.7 590.46z" /></clipPath><clipPath id="18"><path id="" clip-rule="evenodd" transform="matrix(1 0 0 1 0 0)" d="M35.94 443.04L512.52 443.04L512.52 443.04L512.52 591.42L512.52 591.42L35.94 591.42z" /></clipPath><clipPath id="19"><path id="" clip-rule="evenodd" transform="matrix(1 0 0 1 0 0)" d="M0 0.02001953L595.2 0.02001953L595.2 0.02001953L595.2 842L595.2 842L0 842z" /></clipPath><clipPath id="20"><path id="" clip-rule="evenodd" transform="matrix(1 0 0 1 0 0)" d="M35.94 443.04L512.52 443.04L512.52 443.04L512.52 591.42L512.52 591.42L35.94 591.42z" /></clipPath><clipPath id="21"><path id="" clip-rule="evenodd" transform="matrix(1 0 0 1 0 0)" d="M0 0.02001953L595.2 0.02001953L595.2 0.02001953L595.2 842L595.2 842L0 842z" /></clipPath></defs><g transform="matrix(1.333333 0 0 1.333333 0 0)"><g clip-path="url(#1)"><g clip-path="url(#2)"><g clip-path="url(#3)"><path id="261" transform="matrix(1 0 0 -1 0 842)" d="M216.36 116.78L216.6 116.78L216.6 117.26L216.36 117.26z" stroke="none" fill="#000000" fill-rule="nonzero" /><path id="262" transform="matrix(1 0 0 -1 0 842)" d="M216.6 116.78L360.9 116.78L360.9 117.26L216.6 117.26z" stroke="none" fill="#000000" fill-rule="nonzero" /></g></g><g clip-path="url(#4)"><g clip-path="url(#5)"><g clip-path="url(#6)"><g transform="matrix(0.4791338 0 0 0.4788848 216.96 171.12)"><g transform="matrix(1 0 0 1 0 0)"><image x="0" y="0" xlink:href="img_593.png" width="284" height="269" /></g></g></g></g></g><g clip-path="url(#7)"><g clip-path="url(#8)"><path id="291" transform="matrix(1 0 0 -1 0 842)" d="M255.48 660.8L255.42 660.98L255.42 660.98L255.36 661.16L255.36 661.16L255.24 661.34L255.24 661.34L255.12 661.46L255.12 661.46L254.94 661.58L254.94 661.58L254.76 661.64L254.76 661.64L254.16 661.64L254.16 661.64L253.8 661.4L253.8 661.4L253.68 661.28L253.68 661.28L253.62 661.1L253.62 661.1L253.5 660.92L253.5 660.92L253.5 660.5L253.5 660.5L253.56 660.32L253.56 660.32L253.62 660.14L253.62 660.14L253.86 659.9L253.86 659.9L254.04 659.78L254.04 659.78L254.4 659.66L254.4 659.66L254.64 659.66L254.64 659.66L255 659.78L255 659.78L255.18 659.9L255.18 659.9L255.3 660.08L255.3 660.08L255.48 660.44L255.48 660.44L255.48 660.8" stroke="none" fill="#000000" fill-rule="evenodd" /><path id="292" transform="matrix(1 0 0 -1 0 842)" d="M254.52 660.68L253.98 664.28L253.8 665.18L254.7 664.82L261.48 662.06L262.32 661.76L261.54 661.16L255.78 656.72L255.12 656.18L255 657.08L255.18 657.5L260.94 661.94L261.54 661.16L261.06 661.1L254.28 663.86L254.7 664.82L255 664.4L255.54 660.8" stroke="none" fill="#000000" fill-rule="nonzero" /><path id="293" transform="matrix(1 0 0 -1 0 842)" d="M255 657.08L254.52 660.68L255.54 660.8L256.02 657.2" stroke="none" fill="#000000" fill-rule="nonzero" /><path id="294" transform="matrix(1 0 0 -1 0 842)" d="M255 660.74L254.46 664.34L254.46 664.34L261.24 661.58L261.24 661.58L255.48 657.14" stroke="none" fill="#000000" fill-rule="evenodd" /><path id="295" transform="matrix(1 0 0 -1 0 842)" d="M236.52 639.02L238.5 639.02L238.5 639.98L236.52 639.98z" stroke="none" fill="#000000" fill-rule="nonzero" /><path id="296" transform="matrix(1 0 0 -1 0 842)" d="M236.52 639.98L236.52 640.94L236.58 641.84L236.58 641.9L236.82 643.7L236.82 643.76L237 644.66L237.18 645.56L237.18 645.62L237.42 646.46L237.48 646.52L237.78 647.42L238.08 648.26L238.08 648.32L238.44 649.16L238.5 649.28L238.92 650.06L238.86 650L239.28 650.84L239.34 650.9L239.76 651.68L239.82 651.74L240.3 652.46L240.84 653.24L240.84 653.3L241.92 654.74L242.04 654.8L244.02 656.78L244.74 657.38L244.74 657.44L245.4 657.98L245.52 658.04L246.3 658.52L246.24 658.46L247.02 659L247.08 659.06L248.64 659.9L248.76 659.96L249.6 660.32L250.5 660.68L250.56 660.68L251.4 660.98L251.46 661.04L252.36 661.28L252.42 661.28L252.78 659.36L252.9 659.36L252 659.12L252.06 659.12L251.22 658.82L250.32 658.46L250.38 658.52L249.54 658.16L249.6 658.16L248.04 657.32L248.16 657.38L247.38 656.84L247.32 656.84L246.54 656.36L246.66 656.42L246 655.88L245.28 655.28L245.34 655.34L243.42 653.42L243.48 653.54L242.4 652.1L242.46 652.1L241.92 651.32L241.92 651.38L241.44 650.66L241.5 650.72L241.08 649.94L240.66 649.1L240.24 648.32L240.24 648.38L239.88 647.54L239.94 647.6L239.64 646.76L239.64 646.82L239.34 645.92L239.1 645.08L239.1 645.2L238.74 643.4L238.8 643.46L238.56 641.66L238.56 641.72L238.5 640.82L238.5 640.88L238.5 639.98" stroke="none" fill="#000000" fill-rule="nonzero" /><path id="297" transform="matrix(1 0 0 -1 0 842)" d="M252.42 661.28L253.38 661.46L253.74 659.54L252.78 659.36" stroke="none" fill="#000000" fill-rule="nonzero" /><path id="298" transform="matrix(1 0 0 -1 0 842)" d="M254.34 661.64L255.3 661.82L255.66 659.9L254.7 659.72" stroke="none" fill="#000000" fill-rule="nonzero" /><path id="299" transform="matrix(1 0 0 -1 0 842)" d="M253.38 661.46L253.74 659.54L254.7 659.72L254.34 661.64" stroke="none" fill="#000000" fill-rule="nonzero" /><path id="300" transform="matrix(1 0 0 -1 0 842)" d="M278.46 662.78L278.46 663.02L278.46 663.02L278.34 663.2L278.34 663.2L278.1 663.44L278.1 663.44L277.92 663.5601L277.92 663.5601L277.56 663.6801L277.56 663.6801L277.38 663.6801L277.38 663.6801L277.14 663.6201L277.14 663.6201L276.96 663.5L276.96 663.5L276.84 663.44L276.84 663.44L276.6 663.08L276.6 663.08L276.48 662.72L276.48 662.72L276.48 662.54L276.48 662.54L276.54 662.36L276.54 662.36L276.66 662.1801L276.66 662.1801L276.72 662L276.72 662L277.08 661.76L277.08 661.76L277.44 661.64L277.44 661.64L277.62 661.7L277.62 661.7L277.8 661.7L277.8 661.7L278.16 661.94L278.16 661.94L278.28 662.0601L278.28 662.0601L278.4 662.2401L278.4 662.2401L278.46 662.42L278.46 662.42L278.46 662.78" stroke="none" fill="#000000" fill-rule="evenodd" /><path id="301" transform="matrix(1 0 0 -1 0 842)" d="M277.5 662.66L277.02 666.2599L276.9 667.1L277.68 666.74L284.4 664.04L285.24 663.68L284.58 663.2L278.82 658.7L278.1 658.1L277.98 659.06L278.16 659.48L283.92 663.98L284.58 663.2L284.04 663.14L277.32 665.84L277.68 666.74L278.04 666.3799L278.52 662.78" stroke="none" fill="#000000" fill-rule="nonzero" /><path id="302" transform="matrix(1 0 0 -1 0 842)" d="M277.98 659.06L277.5 662.66L278.52 662.78L279 659.18" stroke="none" fill="#000000" fill-rule="nonzero" /><path id="303" transform="matrix(1 0 0 -1 0 842)" d="M277.98 662.72L277.5 666.3199L277.5 666.3199L284.22 663.62L284.22 663.62L278.46 659.12" stroke="none" fill="#000000" fill-rule="evenodd" /><path id="304" transform="matrix(1 0 0 -1 0 842)" d="M259.5 641.06L261.48 641.06L261.48 642.02L259.5 642.02z" stroke="none" fill="#000000" fill-rule="nonzero" /><path id="305" transform="matrix(1 0 0 -1 0 842)" d="M259.5 642.02L259.5 642.98L259.56 643.88L259.56 643.94L259.68 644.84L259.8 645.74L259.8 645.8L259.98 646.64L259.98 646.7L260.46 648.5L260.7 649.34L260.76 649.46L261.84 651.98L261.9 652.1L262.32 652.88L263.28 654.44L263.34 654.5L263.82 655.22L263.82 655.28L264.36 656L264.42 656L265.02 656.72L265.02 656.78L266.22 658.1L266.28 658.16L266.94 658.76L267 658.76L267.72 659.36L267.72 659.42L269.16 660.5L269.28 660.56L270.06 661.04L270.84 661.46L270.9 661.52L272.58 662.36L272.7 662.36L273.54 662.66L274.44 662.96L274.5 663.02L275.4 663.26L275.94 661.34L275.04 661.1L274.14 660.8L274.2 660.8L273.36 660.5L273.48 660.56L271.8 659.72L271.02 659.3L271.08 659.36L270.3 658.88L270.36 658.94L268.92 657.86L268.98 657.86L268.26 657.26L268.26 657.32L267.6 656.72L267.66 656.78L266.46 655.46L266.52 655.46L265.92 654.74L265.92 654.8L265.38 654.08L265.44 654.14L264.96 653.42L264 651.86L264.06 651.92L263.64 651.14L263.64 651.2L262.56 648.68L262.62 648.8L262.38 647.96L262.14 647.06L261.9 646.16L261.9 646.22L261.72 645.38L261.78 645.5L261.66 644.6L261.54 643.7L261.54 643.76L261.48 642.86L261.48 642.92L261.48 642.02" stroke="none" fill="#000000" fill-rule="nonzero" /><path id="306" transform="matrix(1 0 0 -1 0 842)" d="M275.4 663.26L276.3 663.5L276.42 663.5L276.66 661.52L276.84 661.58L275.94 661.34" stroke="none" fill="#000000" fill-rule="nonzero" /><path id="307" transform="matrix(1 0 0 -1 0 842)" d="M277.38 663.62L278.34 663.74L278.58 661.76L277.62 661.64" stroke="none" fill="#000000" fill-rule="nonzero" /><path id="308" transform="matrix(1 0 0 -1 0 842)" d="M276.42 663.5L276.66 661.52L277.62 661.64L277.38 663.62" stroke="none" fill="#000000" fill-rule="nonzero" /><path id="309" transform="matrix(1 0 0 -1 0 842)" d="M304.74 655.76L342 655.76L342 666.62L304.74 666.62z" stroke="none" fill="#FFFFFF" fill-rule="nonzero" /><path id="313" transform="matrix(1 0 0 -1 0 842)" d="M314.28 638.36L341.16 638.36L341.16 648.98L314.28 648.98z" stroke="none" fill="#FFFFFF" fill-rule="nonzero" /><path id="316" transform="matrix(1 0 0 -1 0 842)" d="M288.48 577.76L320.7 577.76L320.7 588.26L288.48 588.26z" stroke="none" fill="#FFFFFF" fill-rule="nonzero" /><path id="319" transform="matrix(1 0 0 -1 0 842)" d="M237.96 543.74L326.46 543.74L326.46 553.52L237.96 553.52z" stroke="none" fill="#FFFFFF" fill-rule="nonzero" /></g></g><g clip-path="url(#9)"><g clip-path="url(#10)"><g clip-path="url(#11)"><g transform="matrix(0.4789888 0 0 0.48015 376.32 115.02)"><g transform="matrix(1 0 0 1 0 0)"><image x="0" y="0" xlink:href="img_594.png" width="356" height="400" /></g></g></g></g></g><g clip-path="url(#12)"><g clip-path="url(#13)"><path id="329" transform="matrix(1 0 0 -1 0 842)" d="M368.64 620.24L368.58 620.42L368.58 620.42L368.52 620.6L368.52 620.6L368.46 620.78L368.46 620.78L368.34 620.96L368.34 620.96L368.16 621.08L368.16 621.08L368.04 621.14L368.04 621.14L367.8 621.2L367.8 621.2L367.44 621.2L367.44 621.2L367.08 621.08L367.08 621.08L366.9 620.96L366.9 620.96L366.78 620.78L366.78 620.78L366.72 620.6L366.72 620.6L366.66 620.42L366.66 620.42L366.6 620.24L366.6 620.24L366.66 620L366.66 620L366.78 619.64L366.78 619.64L366.9 619.52L366.9 619.52L367.26 619.28L367.26 619.28L367.44 619.22L367.44 619.22L367.8 619.22L367.8 619.22L368.04 619.28L368.04 619.28L368.16 619.4L368.16 619.4L368.34 619.52L368.34 619.52L368.46 619.64L368.46 619.64L368.52 619.82L368.52 619.82L368.58 620L368.58 620L368.64 620.24" stroke="none" fill="#000000" fill-rule="evenodd" /><path id="330" transform="matrix(1 0 0 -1 0 842)" d="M367.62 620.24L367.62 624.68L368.34 624.26L374.64 620.66L375.42 620.18L374.7 619.76L368.4 616.1L367.62 615.62L367.62 616.58L367.86 617L374.16 620.66L374.7 619.76L374.16 619.76L367.86 623.36L368.34 624.26L368.64 623.84L368.64 620.24" stroke="none" fill="#000000" fill-rule="nonzero" /><path id="331" transform="matrix(1 0 0 -1 0 842)" d="M367.62 616.58L368.64 616.58L368.64 620.24L367.62 620.24z" stroke="none" fill="#000000" fill-rule="nonzero" /><path id="332" transform="matrix(1 0 0 -1 0 842)" d="M368.1 620.24L368.1 623.84L368.1 623.84L374.4 620.24L374.4 620.24L368.1 616.58" stroke="none" fill="#000000" fill-rule="evenodd" /><path id="333" transform="matrix(1 0 0 -1 0 842)" d="M352.86 619.22L353.82 619.22L353.82 621.2L352.86 621.2z" stroke="none" fill="#000000" fill-rule="nonzero" /><path id="334" transform="matrix(1 0 0 -1 0 842)" d="M353.82 619.22L368.58 619.22L368.58 621.2L353.82 621.2z" stroke="none" fill="#000000" fill-rule="nonzero" /><path id="335" transform="matrix(1 0 0 -1 0 842)" d="M391.56 554.24L449.34 554.24L449.34 564.74L391.56 564.74z" stroke="none" fill="#FFFFFF" fill-rule="nonzero" /><path id="341" transform="matrix(1 0 0 -1 0 842)" d="M482.1 558.44L483.06 558.44L483.06 560.42L482.1 560.42z" stroke="none" fill="#000000" fill-rule="nonzero" /><path id="342" transform="matrix(1 0 0 -1 0 842)" d="M449.64 558.44L482.1 558.44L482.1 560.42L449.64 560.42z" stroke="none" fill="#000000" fill-rule="nonzero" /><path id="343" transform="matrix(1 0 0 -1 0 842)" d="M452.7 723.92L527.52 723.92L527.52 724.94L452.7 724.94z" stroke="none" fill="#000000" fill-rule="nonzero" /><path id="344" transform="matrix(1 0 0 -1 0 842)" d="M526.5 629.42L527.52 629.42L527.52 724.46L526.5 724.46z" stroke="none" fill="#000000" fill-rule="nonzero" /><path id="345" transform="matrix(1 0 0 -1 0 842)" d="M452.22 629.42L526.98 629.42L526.98 630.44L452.22 630.44z" stroke="none" fill="#000000" fill-rule="nonzero" /><path id="346" transform="matrix(1 0 0 -1 0 842)" d="M452.22 629.96L453.24 629.96L453.24 724.94L452.22 724.94z" stroke="none" fill="#000000" fill-rule="nonzero" /><path id="347" transform="matrix(1 0 0 -1 0 842)" d="M390.24 584.24L436.74 584.24L436.74 610.7L390.24 610.7z" stroke="none" fill="#FFFFFF" fill-rule="nonzero" /><path id="355" transform="matrix(1 0 0 -1 0 842)" d="M453.06 628.28L453.96 628.64L453.24 630.5L452.34 630.14" stroke="none" fill="#000000" fill-rule="nonzero" /><path id="356" transform="matrix(1 0 0 -1 0 842)" d="M405.06 610.28L404.16 609.92L403.44 611.78L404.34 612.14" stroke="none" fill="#000000" fill-rule="nonzero" /><path id="357" transform="matrix(1 0 0 -1 0 842)" d="M453.06 628.28L452.34 630.14L404.34 612.14L405.06 610.28" stroke="none" fill="#000000" fill-rule="nonzero" /></g></g><g clip-path="url(#14)"><g clip-path="url(#15)"><g clip-path="url(#16)"><g transform="matrix(0.4787895 0 0 0.4805941 36.96 446.04)"><g transform="matrix(1 0 0 1 0 0)"><image x="0" y="0" xlink:href="img_595.png" width="152" height="303" /></g></g></g></g></g><g clip-path="url(#17)"><g clip-path="url(#18)"><g clip-path="url(#19)"><g transform="matrix(0.4804627 0 0 0.4789967 137.7 447.24)"><g transform="matrix(1 0 0 1 0 0)"><image x="0" y="0" xlink:href="img_596.png" width="778" height="299" /></g></g></g></g></g><g clip-path="url(#20)"><g clip-path="url(#21)"><path id="375" transform="matrix(1 0 0 -1 0 842)" d="M284.28 339.62L284.1 340.16L284.1 340.16L283.98 340.34L283.98 340.34L283.8 340.46L283.8 340.46L283.44 340.58L283.44 340.58L283.08 340.58L283.08 340.58L282.84 340.52L282.84 340.52L282.72 340.46L282.72 340.46L282.54 340.34L282.54 340.34L282.42 340.16L282.42 340.16L282.24 339.62L282.24 339.62L282.3 339.38L282.3 339.38L282.42 339.02L282.42 339.02L282.54 338.9L282.54 338.9L282.72 338.78L282.72 338.78L282.84 338.66L282.84 338.66L283.08 338.6L283.08 338.6L283.44 338.6L283.44 338.6L283.62 338.66L283.62 338.66L283.98 338.9L283.98 338.9L284.1 339.02L284.1 339.02L284.22 339.38L284.22 339.38L284.28 339.62" stroke="none" fill="#000000" fill-rule="evenodd" /><path id="376" transform="matrix(1 0 0 -1 0 842)" d="M283.26 339.62L283.26 344.06L283.98 343.64L290.28 340.04L291.06 339.56L290.34 339.14L284.04 335.48L283.26 335L283.26 335.96L283.5 336.38L289.8 340.04L290.34 339.14L289.8 339.14L283.5 342.74L283.98 343.64L284.28 343.22L284.28 339.62" stroke="none" fill="#000000" fill-rule="nonzero" /><path id="377" transform="matrix(1 0 0 -1 0 842)" d="M283.26 335.96L284.28 335.96L284.28 339.62L283.26 339.62z" stroke="none" fill="#000000" fill-rule="nonzero" /><path id="378" transform="matrix(1 0 0 -1 0 842)" d="M283.74 339.62L283.74 343.22L283.74 343.22L290.04 339.62L290.04 339.62L283.74 335.96" stroke="none" fill="#000000" fill-rule="evenodd" /><path id="379" transform="matrix(1 0 0 -1 0 842)" d="M249.9 338.6L250.86 338.6L250.86 340.58L249.9 340.58z" stroke="none" fill="#000000" fill-rule="nonzero" /><path id="380" transform="matrix(1 0 0 -1 0 842)" d="M250.86 338.6L284.22 338.6L284.22 340.58L250.86 340.58z" stroke="none" fill="#000000" fill-rule="nonzero" /><path id="381" transform="matrix(1 0 0 -1 0 842)" d="M129.66 328.52L129.6 328.7L129.6 328.7L129.6 328.88L129.6 328.88L129.48 329.06L129.48 329.06L129.36 329.18L129.36 329.18L129.18 329.3L129.18 329.3L129.06 329.42L129.06 329.42L128.88 329.48L128.88 329.48L128.46 329.48L128.46 329.48L128.28 329.42L128.28 329.42L127.92 329.18L127.92 329.18L127.8 329.06L127.8 329.06L127.74 328.88L127.74 328.88L127.68 328.7L127.68 328.7L127.62 328.52L127.62 328.52L127.68 328.28L127.68 328.28L127.74 328.1L127.74 328.1L127.8 327.92L127.8 327.92L127.92 327.8L127.92 327.8L128.28 327.56L128.28 327.56L128.46 327.5L128.46 327.5L128.88 327.5L128.88 327.5L129.06 327.56L129.06 327.56L129.18 327.68L129.18 327.68L129.36 327.8L129.36 327.8L129.48 327.92L129.48 327.92L129.6 328.1L129.6 328.1L129.6 328.28L129.6 328.28L129.66 328.52" stroke="none" fill="#000000" fill-rule="evenodd" /><path id="382" transform="matrix(1 0 0 -1 0 842)" d="M128.64 328.52L128.64 332.96L129.36 332.54L135.66 328.94L136.44 328.46L135.72 328.04L129.42 324.38L128.64 323.9L128.64 324.86L128.88 325.28L135.18 328.94L135.72 328.04L135.18 328.04L128.88 331.64L129.36 332.54L129.66 332.12L129.66 328.52" stroke="none" fill="#000000" fill-rule="nonzero" /><path id="383" transform="matrix(1 0 0 -1 0 842)" d="M128.64 324.86L129.66 324.86L129.66 328.52L128.64 328.52z" stroke="none" fill="#000000" fill-rule="nonzero" /><path id="384" transform="matrix(1 0 0 -1 0 842)" d="M129.12 328.52L129.12 332.12L129.12 332.12L135.42 328.52L135.42 328.52L129.12 324.86" stroke="none" fill="#000000" fill-rule="evenodd" /><path id="385" transform="matrix(1 0 0 -1 0 842)" d="M111.78 327.5L112.74 327.5L112.74 329.48L111.78 329.48z" stroke="none" fill="#000000" fill-rule="nonzero" /><path id="386" transform="matrix(1 0 0 -1 0 842)" d="M112.74 327.5L129.6 327.5L129.6 329.48L112.74 329.48z" stroke="none" fill="#000000" fill-rule="nonzero" /><path id="387" transform="matrix(1 0 0 -1 0 842)" d="M51.72 359.48L99.72 359.48L99.72 393.26L51.72 393.26z" stroke="none" fill="#FFFFFF" fill-rule="nonzero" /><path id="397" transform="matrix(1 0 0 -1 0 842)" d="M76.74 358.94L78.72 358.94L78.72 359.9L76.74 359.9z" stroke="none" fill="#000000" fill-rule="nonzero" /><path id="398" transform="matrix(1 0 0 -1 0 842)" d="M76.74 340.58L78.72 340.58L78.72 358.94L76.74 358.94z" stroke="none" fill="#000000" fill-rule="nonzero" /><path id="399" transform="matrix(1 0 0 -1 0 842)" d="M44.94 254.72L102.72 254.72L102.72 278.72L44.94 278.72z" stroke="none" fill="#FFFFFF" fill-rule="nonzero" /><path id="406" transform="matrix(1 0 0 -1 0 842)" d="M50.1 282.14L49.2 281.78L49.98 279.98L50.88 280.34" stroke="none" fill="#000000" fill-rule="nonzero" /><path id="407" transform="matrix(1 0 0 -1 0 842)" d="M80.82 294.92L81.72 295.28L82.5 293.48L81.6 293.12" stroke="none" fill="#000000" fill-rule="nonzero" /><path id="408" transform="matrix(1 0 0 -1 0 842)" d="M50.1 282.14L50.88 280.34L81.6 293.12L80.82 294.92" stroke="none" fill="#000000" fill-rule="nonzero" /></g></g></g></g></svg>