<svg xmlns="http://www.w3.org/2000/svg" xmlns:xlink="http://www.w3.org/1999/xlink" id="body_247" preserveAspectRatio="xMinYMin meet" viewBox="0 0 793 1123"><defs><clipPath id="1"><path id="" clip-rule="evenodd" transform="matrix(1 0 0 1 0 0)" d="M0 842L0 0L0 0L595 0L595 0L595 842L595 842L0 842z" /></clipPath><clipPath id="2"><path id="" clip-rule="evenodd" transform="matrix(1 0 0 1 0 0)" d="M216.96 226.02L548.64 226.02L548.64 226.02L548.64 312.66L548.64 312.66L216.96 312.66z" /></clipPath><clipPath id="3"><path id="" clip-rule="evenodd" transform="matrix(1 0 0 1 0 0)" d="M215.94 225L549.66 225L549.66 225L549.66 313.62L549.66 313.62L215.94 313.62z" /></clipPath><clipPath id="4"><path id="" clip-rule="evenodd" transform="matrix(1 0 0 1 0 0)" d="M0 0.02001953L595.2 0.02001953L595.2 0.02001953L595.2 842L595.2 842L0 842z" /></clipPath><clipPath id="5"><path id="" clip-rule="evenodd" transform="matrix(1 0 0 1 0 0)" d="M215.94 225L549.66 225L549.66 225L549.66 313.62L549.66 313.62L215.94 313.62z" /></clipPath><clipPath id="6"><path id="" clip-rule="evenodd" transform="matrix(1 0 0 1 0 0)" d="M0 0.02001953L595.2 0.02001953L595.2 0.02001953L595.2 842L595.2 842L0 842z" /></clipPath><clipPath id="7"><path id="" clip-rule="evenodd" transform="matrix(1 0 0 1 0 0)" d="M36.96 441.06L172.56 441.06L172.56 441.06L172.56 569.4L172.56 569.4L36.96 569.4z" /></clipPath><clipPath id="8"><path id="" clip-rule="evenodd" transform="matrix(1 0 0 1 0 0)" d="M35.94 438.6L512.28 438.6L512.28 438.6L512.28 571.86L512.28 571.86L35.94 571.86z" /></clipPath><clipPath id="9"><path id="" clip-rule="evenodd" transform="matrix(1 0 0 1 0 0)" d="M0 0.02001953L595.2 0.02001953L595.2 0.02001953L595.2 842L595.2 842L0 842z" /></clipPath><clipPath id="10"><path id="" clip-rule="evenodd" transform="matrix(1 0 0 1 0 0)" d="M215.34 441.54L352.68 441.54L352.68 441.54L352.68 568.92L352.68 568.92L215.34 568.92z" /></clipPath><clipPath id="11"><path id="" clip-rule="evenodd" transform="matrix(1 0 0 1 0 0)" d="M35.94 438.6L512.28 438.6L512.28 438.6L512.28 571.86L512.28 571.86L35.94 571.86z" /></clipPath><clipPath id="12"><path id="" clip-rule="evenodd" transform="matrix(1 0 0 1 0 0)" d="M0 0.02001953L595.2 0.02001953L595.2 0.02001953L595.2 842L595.2 842L0 842z" /></clipPath><clipPath id="13"><path id="" clip-rule="evenodd" transform="matrix(1 0 0 1 0 0)" d="M35.94 438.6L512.28 438.6L512.28 438.6L512.28 571.86L512.28 571.86L35.94 571.86z" /></clipPath><clipPath id="14"><path id="" clip-rule="evenodd" transform="matrix(1 0 0 1 0 0)" d="M0 0.02001953L595.2 0.02001953L595.2 0.02001953L595.2 842L595.2 842L0 842z" /></clipPath><clipPath id="15"><path id="" clip-rule="evenodd" transform="matrix(1 0 0 1 0 0)" d="M398.16 439.62L511.26 439.62L511.26 439.62L511.26 570.84L511.26 570.84L398.16 570.84z" /></clipPath><clipPath id="16"><path id="" clip-rule="evenodd" transform="matrix(1 0 0 1 0 0)" d="M35.94 438.6L512.28 438.6L512.28 438.6L512.28 571.86L512.28 571.86L35.94 571.86z" /></clipPath><clipPath id="17"><path id="" clip-rule="evenodd" transform="matrix(1 0 0 1 0 0)" d="M0 0.02001953L595.2 0.02001953L595.2 0.02001953L595.2 842L595.2 842L0 842z" /></clipPath><clipPath id="18"><path id="" clip-rule="evenodd" transform="matrix(1 0 0 1 0 0)" d="M35.94 438.6L512.28 438.6L512.28 438.6L512.28 571.86L512.28 571.86L35.94 571.86z" /></clipPath><clipPath id="19"><path id="" clip-rule="evenodd" transform="matrix(1 0 0 1 0 0)" d="M0 0.02001953L595.2 0.02001953L595.2 0.02001953L595.2 842L595.2 842L0 842z" /></clipPath></defs><g transform="matrix(1.333333 0 0 1.333333 0 0)"><g clip-path="url(#1)"><g clip-path="url(#2)"><g clip-path="url(#3)"><g clip-path="url(#4)"><g transform="matrix(0.48 0 0 0.4786741 216.96 226.02)"><g transform="matrix(1 0 0 1 0 0)"><image x="0" y="0" xlink:href="img_709.png" width="691" height="181" /></g></g></g></g></g><g clip-path="url(#5)"><g clip-path="url(#6)"><path id="414" transform="matrix(1 0 0 -1 0 842)" d="M273.54 596.48L273.54 596.3L273.54 596.3L273.6 596.12L273.6 596.12L273.66 595.94L273.66 595.94L273.96 595.64L273.96 595.64L274.32 595.52L274.32 595.52L274.74 595.52L274.74 595.52L275.1 595.64L275.1 595.64L275.22 595.82L275.22 595.82L275.34 595.94L275.34 595.94L275.46 596.12L275.46 596.12L275.52 596.3L275.52 596.3L275.52 596.72L275.52 596.72L275.46 596.9L275.46 596.9L275.34 597.08L275.34 597.08L275.1 597.32L275.1 597.32L274.92 597.44L274.92 597.44L274.74 597.5L274.74 597.5L274.32 597.5L274.32 597.5L274.14 597.44L274.14 597.44L273.78 597.2L273.78 597.2L273.66 597.08L273.66 597.08L273.54 596.72L273.54 596.72L273.54 596.48" stroke="none" fill="#000000" fill-rule="evenodd" /><path id="415" transform="matrix(1 0 0 -1 0 842)" d="M274.5 596.48L274.5 591.56L273.84 591.74L258.84 596L257.16 596.48L258.84 596.96L273.84 601.28L274.5 601.46L274.5 600.8L274.14 600.32L259.14 596L258.84 596.96L259.14 596.96L274.14 592.7L273.84 591.74L273.48 592.22L273.48 596.48" stroke="none" fill="#000000" fill-rule="nonzero" /><path id="416" transform="matrix(1 0 0 -1 0 842)" d="M273.48 596.48L274.5 596.48L274.5 600.8L273.48 600.8z" stroke="none" fill="#000000" fill-rule="nonzero" /><path id="417" transform="matrix(1 0 0 -1 0 842)" d="M274.02 596.48L274.02 592.22L274.02 592.22L259.02 596.48L259.02 596.48L274.02 600.8" stroke="none" fill="#000000" fill-rule="evenodd" /><path id="418" transform="matrix(1 0 0 -1 0 842)" d="M273.54 595.46L274.5 595.46L274.5 597.44L273.54 597.44z" stroke="none" fill="#000000" fill-rule="nonzero" /><path id="419" transform="matrix(1 0 0 -1 0 842)" d="M274.5 595.46L332.4 595.46L332.4 597.44L274.5 597.44z" stroke="none" fill="#000000" fill-rule="nonzero" /></g></g><g clip-path="url(#7)"><g clip-path="url(#8)"><g clip-path="url(#9)"><g transform="matrix(0.4797138 0 0 0.4788806 36.96 441.06)"><g transform="matrix(1 0 0 1 0 0)"><image x="0" y="0" xlink:href="img_710.png" width="283" height="268" /></g></g></g></g></g><g clip-path="url(#10)"><g clip-path="url(#11)"><g clip-path="url(#12)"><g transform="matrix(0.4785366 0 0 0.4788722 215.34 441.54)"><g transform="matrix(1 0 0 1 0 0)"><image x="0" y="0" xlink:href="img_711.png" width="287" height="266" /></g></g></g></g></g><g clip-path="url(#13)"><g clip-path="url(#14)"><path id="448" transform="matrix(1 0 0 -1 0 842)" d="M201 336.74L201 340.52L201.78 340.04L206.76 337.16L207.6 336.74L206.76 336.26L201.78 333.38L201 332.9L201 333.86L201.24 334.28L206.22 337.16L206.76 336.26L206.22 336.26L201.24 339.14L201.78 340.04L202.02 339.62L202.02 336.74" stroke="none" fill="#000000" fill-rule="nonzero" /><path id="449" transform="matrix(1 0 0 -1 0 842)" d="M201 333.86L202.02 333.86L202.02 336.74L201 336.74z" stroke="none" fill="#000000" fill-rule="nonzero" /><path id="450" transform="matrix(1 0 0 -1 0 842)" d="M201.48 336.74L201.48 339.62L201.48 339.62L206.46 336.74L206.46 336.74L201.48 333.86" stroke="none" fill="#000000" fill-rule="evenodd" /><path id="451" transform="matrix(1 0 0 -1 0 842)" d="M179.22 336.2L179.7 336.2L179.7 337.22L179.22 337.22z" stroke="none" fill="#000000" fill-rule="nonzero" /><path id="452" transform="matrix(1 0 0 -1 0 842)" d="M179.7 336.2L201.42 336.2L201.42 337.22L179.7 337.22z" stroke="none" fill="#000000" fill-rule="nonzero" /></g></g><g clip-path="url(#15)"><g clip-path="url(#16)"><g clip-path="url(#17)"><g transform="matrix(0.4798178 0 0 0.4789051 398.16 439.62)"><g transform="matrix(1 0 0 1 0 0)"><image x="0" y="0" xlink:href="img_712.png" width="236" height="274" /></g></g></g></g></g><g clip-path="url(#18)"><g clip-path="url(#19)"><path id="454" transform="matrix(1 0 0 -1 0 842)" d="M382.98 336.74L382.98 340.52L383.76 340.04L388.74 337.16L389.58 336.74L388.74 336.26L383.76 333.38L382.98 332.9L382.98 333.86L383.22 334.28L388.2 337.16L388.74 336.26L388.2 336.26L383.22 339.14L383.76 340.04L384 339.62L384 336.74" stroke="none" fill="#000000" fill-rule="nonzero" /><path id="455" transform="matrix(1 0 0 -1 0 842)" d="M382.98 333.86L384 333.86L384 336.74L382.98 336.74z" stroke="none" fill="#000000" fill-rule="nonzero" /><path id="456" transform="matrix(1 0 0 -1 0 842)" d="M383.46 336.74L383.46 339.62L383.46 339.62L388.44 336.74L388.44 336.74L383.46 333.86" stroke="none" fill="#000000" fill-rule="evenodd" /><path id="457" transform="matrix(1 0 0 -1 0 842)" d="M361.26 336.2L361.74 336.2L361.74 337.22L361.26 337.22z" stroke="none" fill="#000000" fill-rule="nonzero" /><path id="458" transform="matrix(1 0 0 -1 0 842)" d="M361.74 336.2L383.46 336.2L383.46 337.22L361.74 337.22z" stroke="none" fill="#000000" fill-rule="nonzero" /></g></g></g></g></svg>