<svg xmlns="http://www.w3.org/2000/svg" xmlns:xlink="http://www.w3.org/1999/xlink" id="body_117" preserveAspectRatio="xMinYMin meet" viewBox="0 0 793 1123"><defs><clipPath id="1"><path id="" clip-rule="evenodd" transform="matrix(1 0 0 1 0 0)" d="M0 842L0 0L0 0L595 0L595 0L595 842L595 842L0 842z" /></clipPath><clipPath id="2"><path id="" clip-rule="evenodd" transform="matrix(1 0 0 1 0 0)" d="M189.36 347.94L202.98 347.94L202.98 347.94L202.98 362.34L202.98 362.34L189.36 362.34z" /></clipPath><clipPath id="3"><path id="" clip-rule="evenodd" transform="matrix(1 0 0 1 0 0)" d="M0 0.02001953L595.2 0.02001953L595.2 0.02001953L595.2 842L595.2 842L0 842z" /></clipPath><clipPath id="4"><path id="" clip-rule="evenodd" transform="matrix(1 0 0 1 0 0)" d="M189.36 349.14L203.34 349.14L203.34 349.14L203.34 361.14L203.34 361.14L189.36 361.14z" /></clipPath><clipPath id="5"><path id="" clip-rule="evenodd" transform="matrix(1 0 0 1 0 0)" d="M189.36 347.94L202.98 347.94L202.98 347.94L202.98 362.34L202.98 362.34L189.36 362.34z" /></clipPath><clipPath id="6"><path id="" clip-rule="evenodd" transform="matrix(1 0 0 1 0 0)" d="M0 0.02001953L595.2 0.02001953L595.2 0.02001953L595.2 842L595.2 842L0 842z" /></clipPath></defs><g transform="matrix(1.333333 0 0 1.333333 0 0)"><g clip-path="url(#1)"><path id="761" transform="matrix(1 0 0 -1 0 842)" d="M185.34 450.08L206.94 450.08L206.94 498.08L185.34 498.08z" stroke="none" fill="#FFFFFF" fill-rule="nonzero" /><g clip-path="url(#2)"><g clip-path="url(#3)"><path id="762" transform="matrix(1 0 0 -1 0 842)" d="M189.36 479.66L202.98 479.66L202.98 494.06L189.36 494.06z" stroke="none" fill="#FFFFFF" fill-rule="nonzero" /></g></g><g clip-path="url(#4)"><g clip-path="url(#5)"><g clip-path="url(#6)"><path id="763" transform="matrix(1 0 0 -1 0 842)" d="M196.679 491.754L202.484 481.76C 202.539 481.666 202.539 481.557 202.485 481.463C 202.43 481.368 202.337 481.314 202.227 481.314L202.227 481.314L190.617 481.314C 190.508 481.314 190.414 481.368 190.359 481.462C 190.305 481.557 190.305 481.666 190.36 481.76L190.36 481.76L196.165 491.754C 196.22 491.848 196.313 491.902 196.422 491.902C 196.531 491.902 196.624 491.848 196.679 491.754z" stroke="#000000" stroke-width="0.5" fill="#FFFF00" fill-rule="evenodd" /><path id="764" transform="matrix(1 0 0 -1 0 842)" d="M196.43 483.905C 196.662 483.905 196.861 483.823 197.025 483.658C 197.19 483.493 197.273 483.292 197.273 483.058C 197.273 482.825 197.19 482.626 197.025 482.461C 196.861 482.296 196.662 482.214 196.43 482.214C 196.197 482.214 195.998 482.296 195.833 482.461C 195.669 482.626 195.586 482.825 195.586 483.058C 195.586 483.288 195.668 483.489 195.831 483.655C 195.995 483.821 196.194 483.905 196.43 483.905M196.538 484.649L196.311 484.649C 196.286 485.045 196.206 485.523 196.071 486.086L196.071 486.086L195.799 487.219C 195.638 487.899 195.556 488.386 195.556 488.683C 195.556 488.949 195.636 489.164 195.794 489.328C 195.954 489.491 196.163 489.571 196.419 489.571C 196.67 489.571 196.876 489.489 197.041 489.324C 197.206 489.161 197.288 488.951 197.288 488.697C 197.288 488.434 197.201 487.942 197.028 487.219L197.028 487.219L196.753 486.086C 196.655 485.683 196.584 485.205 196.538 484.649z" stroke="none" fill="#000000" fill-rule="nonzero" /></g></g></g><path id="765" transform="matrix(1 0 0 -1 0 842)" d="M206.94 450.08L224.94 450.08L224.94 498.08L206.94 498.08z" stroke="none" fill="#FFFFFF" fill-rule="nonzero" /><path id="766" transform="matrix(1 0 0 -1 0 842)" d="M224.94 498.08L558 498.08L558 450.08L224.94 450.08" stroke="none" fill="#ECF5FC" fill-rule="nonzero" /></g></g></svg>