<svg xmlns="http://www.w3.org/2000/svg" xmlns:xlink="http://www.w3.org/1999/xlink" id="body_223" preserveAspectRatio="xMinYMin meet" viewBox="0 0 793 1123"><defs><clipPath id="1"><path id="" clip-rule="evenodd" transform="matrix(1 0 0 1 0 0)" d="M0 842L0 0L0 0L595 0L595 0L595 842L595 842L0 842z" /></clipPath><clipPath id="2"><path id="" clip-rule="evenodd" transform="matrix(1 0 0 1 0 0)" d="M216.96 77.03998L379.2 77.03998L379.2 77.03998L379.2 152.8199L379.2 152.8199L216.96 152.8199z" /></clipPath><clipPath id="3"><path id="" clip-rule="evenodd" transform="matrix(1 0 0 1 0 0)" d="M215.94 76.02002L380.16 76.02002L380.16 76.02002L380.16 153.84L380.16 153.84L215.94 153.84z" /></clipPath><clipPath id="4"><path id="" clip-rule="evenodd" transform="matrix(1 0 0 1 0 0)" d="M0 0.02001953L595.2 0.02001953L595.2 0.02001953L595.2 842L595.2 842L0 842z" /></clipPath><clipPath id="5"><path id="" clip-rule="evenodd" transform="matrix(1 0 0 1 0 0)" d="M215.94 76.02002L380.16 76.02002L380.16 76.02002L380.16 153.84L380.16 153.84L215.94 153.84z" /></clipPath><clipPath id="6"><path id="" clip-rule="evenodd" transform="matrix(1 0 0 1 0 0)" d="M0 0.02001953L595.2 0.02001953L595.2 0.02001953L595.2 842L595.2 842L0 842z" /></clipPath><clipPath id="7"><path id="" clip-rule="evenodd" transform="matrix(1 0 0 1 0 0)" d="M115.56 202.86L193.98 202.86L193.98 202.86L193.98 217.26L193.98 217.26L115.56 217.26z" /></clipPath><clipPath id="8"><path id="" clip-rule="evenodd" transform="matrix(1 0 0 1 0 0)" d="M0 0.02001953L595.2 0.02001953L595.2 0.02001953L595.2 842L595.2 842L0 842z" /></clipPath><clipPath id="9"><path id="" clip-rule="evenodd" transform="matrix(1 0 0 1 0 0)" d="M115.98 203.34L189.36 203.34L189.36 203.34L189.36 217.14L189.36 217.14L115.98 217.14z" /></clipPath><clipPath id="10"><path id="" clip-rule="evenodd" transform="matrix(1 0 0 1 0 0)" d="M115.56 202.86L193.98 202.86L193.98 202.86L193.98 217.26L193.98 217.26L115.56 217.26z" /></clipPath><clipPath id="11"><path id="" clip-rule="evenodd" transform="matrix(1 0 0 1 0 0)" d="M0 0.02001953L595.2 0.02001953L595.2 0.02001953L595.2 842L595.2 842L0 842z" /></clipPath><clipPath id="12"><path id="" clip-rule="evenodd" transform="matrix(1 0 0 1 0 0)" d="M115.56 476.76L193.98 476.76L193.98 476.76L193.98 491.16L193.98 491.16L115.56 491.16z" /></clipPath><clipPath id="13"><path id="" clip-rule="evenodd" transform="matrix(1 0 0 1 0 0)" d="M0 0.02001953L595.2 0.02001953L595.2 0.02001953L595.2 842L595.2 842L0 842z" /></clipPath><clipPath id="14"><path id="" clip-rule="evenodd" transform="matrix(1 0 0 1 0 0)" d="M115.98 477.24L189.36 477.24L189.36 477.24L189.36 491.04L189.36 491.04L115.98 491.04z" /></clipPath><clipPath id="15"><path id="" clip-rule="evenodd" transform="matrix(1 0 0 1 0 0)" d="M115.56 476.76L193.98 476.76L193.98 476.76L193.98 491.16L193.98 491.16L115.56 491.16z" /></clipPath><clipPath id="16"><path id="" clip-rule="evenodd" transform="matrix(1 0 0 1 0 0)" d="M0 0.02001953L595.2 0.02001953L595.2 0.02001953L595.2 842L595.2 842L0 842z" /></clipPath><clipPath id="17"><path id="" clip-rule="evenodd" transform="matrix(1 0 0 1 0 0)" d="M115.56 538.74L193.98 538.74L193.98 538.74L193.98 553.14L193.98 553.14L115.56 553.14z" /></clipPath><clipPath id="18"><path id="" clip-rule="evenodd" transform="matrix(1 0 0 1 0 0)" d="M0 0.02001953L595.2 0.02001953L595.2 0.02001953L595.2 842L595.2 842L0 842z" /></clipPath><clipPath id="19"><path id="" clip-rule="evenodd" transform="matrix(1 0 0 1 0 0)" d="M116.16 538.8L190.86 538.8L190.86 538.8L190.86 552.84L190.86 552.84L116.16 552.84z" /></clipPath><clipPath id="20"><path id="" clip-rule="evenodd" transform="matrix(1 0 0 1 0 0)" d="M115.56 538.74L193.98 538.74L193.98 538.74L193.98 553.14L193.98 553.14L115.56 553.14z" /></clipPath><clipPath id="21"><path id="" clip-rule="evenodd" transform="matrix(1 0 0 1 0 0)" d="M0 0.02001953L595.2 0.02001953L595.2 0.02001953L595.2 842L595.2 842L0 842z" /></clipPath></defs><g transform="matrix(1.333333 0 0 1.333333 0 0)"><g clip-path="url(#1)"><g clip-path="url(#2)"><g clip-path="url(#3)"><g clip-path="url(#4)"><g transform="matrix(0.4785841 0 0 0.4766037 216.96 77.04004)"><g transform="matrix(1 0 0 1 0 0)"><image x="0" y="0" xlink:href="img_604.png" width="339" height="159" /></g></g></g></g></g><g clip-path="url(#5)"><g clip-path="url(#6)"><path id="386" transform="matrix(1 0 0 -1 0 842)" d="M223.2 694.94L283.2 694.94L283.2 706.16L223.2 706.16z" stroke="none" fill="#FFFFFF" fill-rule="nonzero" /><path id="392" transform="matrix(1 0 0 -1 0 842)" d="M247.56 707.36L246.9 706.7L248.28 705.32L248.94 705.98" stroke="none" fill="#000000" fill-rule="nonzero" /><path id="393" transform="matrix(1 0 0 -1 0 842)" d="M273.78 733.58L274.44 734.24L275.82 732.86L275.16 732.2" stroke="none" fill="#000000" fill-rule="nonzero" /><path id="394" transform="matrix(1 0 0 -1 0 842)" d="M247.56 707.36L248.94 705.98L275.16 732.2L273.78 733.58" stroke="none" fill="#000000" fill-rule="nonzero" /></g></g><g clip-path="url(#7)"><g clip-path="url(#8)"><path id="395" transform="matrix(1 0 0 -1 0 842)" d="M115.56 624.74L193.98 624.74L193.98 639.14L115.56 639.14z" stroke="none" fill="#FFFFFF" fill-rule="nonzero" /></g></g><g clip-path="url(#9)"><g clip-path="url(#10)"><g clip-path="url(#11)"><g transform="matrix(0.7265346 0 0 0.7263158 115.98 203.34)"><g transform="matrix(1 0 0 1 0 0)"><image x="0" y="0" xlink:href="img_09.png" width="101" height="19" /></g></g></g></g></g><path id="397" transform="matrix(1 0 0 -1 0 842)" d="M233.94 643.16L549 643.16L549 529.22L233.94 529.22" stroke="none" fill="#ECF5FC" fill-rule="nonzero" /><g clip-path="url(#12)"><g clip-path="url(#13)"><path id="540" transform="matrix(1 0 0 -1 0 842)" d="M115.56 350.84L193.98 350.84L193.98 365.24L115.56 365.24z" stroke="none" fill="#FFFFFF" fill-rule="nonzero" /></g></g><g clip-path="url(#14)"><g clip-path="url(#15)"><g clip-path="url(#16)"><g transform="matrix(0.7265346 0 0 0.7263158 115.98 477.24)"><g transform="matrix(1 0 0 1 0 0)"><image x="0" y="0" xlink:href="img_09.png" width="101" height="19" /></g></g></g></g></g><path id="542" transform="matrix(1 0 0 -1 0 842)" d="M251.94 321.26L549 321.26L549 369.26L251.94 369.26z" stroke="none" fill="#ECF5FC" fill-rule="nonzero" /><g clip-path="url(#17)"><g clip-path="url(#18)"><path id="599" transform="matrix(1 0 0 -1 0 842)" d="M115.56 288.86L193.98 288.86L193.98 303.26L115.56 303.26z" stroke="none" fill="#FFFFFF" fill-rule="nonzero" /></g></g><g clip-path="url(#19)"><g clip-path="url(#20)"><g clip-path="url(#21)"><g transform="matrix(0.7396039 0 0 0.7389474 116.16 538.8)"><g transform="matrix(1 0 0 1 0 0)"><image x="0" y="0" xlink:href="img_250.png" width="101" height="19" /></g></g></g></g></g><path id="601" transform="matrix(1 0 0 -1 0 842)" d="M251.94 189.26L549 189.26L549 307.28L251.94 307.28z" stroke="none" fill="#ECF5FC" fill-rule="nonzero" /></g></g></svg>