<svg xmlns="http://www.w3.org/2000/svg" xmlns:xlink="http://www.w3.org/1999/xlink" id="body_103" preserveAspectRatio="xMinYMin meet" viewBox="0 0 793 1123"><defs><clipPath id="1"><path id="" clip-rule="evenodd" transform="matrix(1 0 0 1 0 0)" d="M0 842L0 0L0 0L595 0L595 0L595 842L595 842L0 842z" /></clipPath><clipPath id="2"><path id="" clip-rule="evenodd" transform="matrix(1 0 0 1 0 0)" d="M44.94 36L558 36L558 36L558 87.29999L558 87.29999L44.94 87.29999z" /></clipPath><clipPath id="3"><path id="" clip-rule="evenodd" transform="matrix(1 0 0 1 0 0)" d="M0 0.02001953L595.2 0.02001953L595.2 0.02001953L595.2 842L595.2 842L0 842z" /></clipPath><clipPath id="4"><path id="" clip-rule="evenodd" transform="matrix(1 0 0 1 0 0)" d="M189.36 470.94L202.98 470.94L202.98 470.94L202.98 485.34L202.98 485.34L189.36 485.34z" /></clipPath><clipPath id="5"><path id="" clip-rule="evenodd" transform="matrix(1 0 0 1 0 0)" d="M0 0.02001953L595.2 0.02001953L595.2 0.02001953L595.2 842L595.2 842L0 842z" /></clipPath><clipPath id="6"><path id="" clip-rule="evenodd" transform="matrix(1 0 0 1 0 0)" d="M189.36 472.14L203.34 472.14L203.34 472.14L203.34 484.14L203.34 484.14L189.36 484.14z" /></clipPath><clipPath id="7"><path id="" clip-rule="evenodd" transform="matrix(1 0 0 1 0 0)" d="M189.36 470.94L202.98 470.94L202.98 470.94L202.98 485.34L202.98 485.34L189.36 485.34z" /></clipPath><clipPath id="8"><path id="" clip-rule="evenodd" transform="matrix(1 0 0 1 0 0)" d="M0 0.02001953L595.2 0.02001953L595.2 0.02001953L595.2 842L595.2 842L0 842z" /></clipPath></defs><g transform="matrix(1.333333 0 0 1.333333 0 0)"><g clip-path="url(#1)"><g clip-path="url(#2)"><g clip-path="url(#3)"><g transform="matrix(0.4799439 0 0 0.4794392 44.94 36)"><g transform="matrix(1 0 0 1 0 0)"><image x="0" y="0" xlink:href="img_05.png" width="1069" height="107" /></g></g></g></g><path id="312" transform="matrix(1 0 0 -1 0 842)" d="M185.34 327.08L206.94 327.08L206.94 375.08L185.34 375.08z" stroke="none" fill="#FFFFFF" fill-rule="nonzero" /><g clip-path="url(#4)"><g clip-path="url(#5)"><path id="313" transform="matrix(1 0 0 -1 0 842)" d="M189.36 356.66L202.98 356.66L202.98 371.06L189.36 371.06z" stroke="none" fill="#FFFFFF" fill-rule="nonzero" /></g></g><g clip-path="url(#6)"><g clip-path="url(#7)"><g clip-path="url(#8)"><path id="314" transform="matrix(1 0 0 -1 0 842)" d="M196.679 368.757L202.484 358.763C 202.539 358.669 202.539 358.56 202.485 358.466C 202.43 358.371 202.337 358.317 202.227 358.317L202.227 358.317L190.617 358.317C 190.508 358.317 190.414 358.371 190.359 358.465C 190.305 358.56 190.305 358.669 190.36 358.763L190.36 358.763L196.165 368.757C 196.22 368.851 196.313 368.905 196.422 368.905C 196.531 368.905 196.624 368.851 196.679 368.757z" stroke="#000000" stroke-width="0.5" fill="#FFFF00" fill-rule="evenodd" /><path id="315" transform="matrix(1 0 0 -1 0 842)" d="M196.43 360.908C 196.662 360.908 196.861 360.826 197.025 360.661C 197.19 360.496 197.273 360.295 197.273 360.061C 197.273 359.828 197.19 359.629 197.025 359.464C 196.861 359.299 196.662 359.217 196.43 359.217C 196.197 359.217 195.998 359.299 195.833 359.464C 195.669 359.629 195.586 359.828 195.586 360.061C 195.586 360.291 195.668 360.492 195.831 360.658C 195.995 360.824 196.194 360.908 196.43 360.908M196.538 361.652L196.311 361.652C 196.286 362.048 196.206 362.526 196.071 363.089L196.071 363.089L195.799 364.222C 195.638 364.902 195.556 365.389 195.556 365.686C 195.556 365.952 195.636 366.167 195.794 366.331C 195.954 366.494 196.163 366.574 196.419 366.574C 196.67 366.574 196.876 366.492 197.041 366.327C 197.206 366.164 197.288 365.954 197.288 365.7C 197.288 365.437 197.201 364.945 197.028 364.222L197.028 364.222L196.753 363.089C 196.655 362.686 196.584 362.208 196.538 361.652z" stroke="none" fill="#000000" fill-rule="nonzero" /></g></g></g><path id="316" transform="matrix(1 0 0 -1 0 842)" d="M206.94 327.08L224.94 327.08L224.94 375.08L206.94 375.08z" stroke="none" fill="#FFFFFF" fill-rule="nonzero" /><path id="317" transform="matrix(1 0 0 -1 0 842)" d="M224.94 375.08L558 375.08L558 327.08L224.94 327.08" stroke="none" fill="#ECF5FC" fill-rule="nonzero" /></g></g></svg>