<svg xmlns="http://www.w3.org/2000/svg" xmlns:xlink="http://www.w3.org/1999/xlink" id="body_14" preserveAspectRatio="xMinYMin meet" viewBox="0 0 793 1123"><defs><clipPath id="1"><path id="" clip-rule="evenodd" transform="matrix(1 0 0 1 0 0)" d="M0 842L0 0L0 0L595 0L595 0L595 842L595 842L0 842z" /></clipPath></defs><g transform="matrix(1.333333 0 0 1.333333 0 0)"><g clip-path="url(#1)"><path id="78" transform="matrix(1 0 0 -1 0 842)" d="M35.94 734L113.52 734L113.52 752L35.94 752z" stroke="none" fill="#C5E0F7" fill-rule="nonzero" /><path id="81" transform="matrix(1 0 0 -1 0 842)" d="M113.52 734L213.9 734L213.9 752L113.52 752z" stroke="none" fill="#C5E0F7" fill-rule="nonzero" /><path id="87" transform="matrix(1 0 0 -1 0 842)" d="M213.9 752L549 752L549 734L213.9 734" stroke="none" fill="#C5E0F7" fill-rule="nonzero" /><path id="93" transform="matrix(1 0 0 -1 0 842)" d="M40.55754 512.7488L40.55754 507.4186C 40.55754 507.2435 40.63859 507.156 40.8007 507.156C 40.9693 507.156 41.05359 507.2435 41.05359 507.4186L41.05359 507.4186L41.05359 512.671C 41.05359 512.8525 41.09574 512.9952 41.18004 513.0989C 41.26434 513.2092 41.38754 513.2643 41.54965 513.2643L41.54965 513.2643L43.68949 513.2643C 44.15636 513.2643 44.59406 513.1962 45.00258 513.06C 45.33976 512.9433 45.61859 512.7974 45.83906 512.6223C 45.9882 512.5056 46.12113 512.5218 46.23785 512.671C 46.36105 512.8136 46.35781 512.9498 46.22812 513.0795C 45.97523 513.287 45.61859 513.462 45.1582 513.6047C 44.67188 513.7668 44.18879 513.8479 43.70894 513.8479L43.70894 513.8479L41.52047 513.8479C 41.2157 513.8479 40.97578 513.7474 40.8007 513.5463C 40.63859 513.3453 40.55754 513.0795 40.55754 512.7488zM43.66031 508.5469L47.26887 508.5469L47.26887 508.5469L47.26887 506.7864C 47.26887 506.6956 47.29156 506.6243 47.33695 506.5724C 47.38883 506.527 47.44719 506.5011 47.51203 506.4946C 47.57687 506.4881 47.63523 506.5043 47.68711 506.5432C 47.73898 506.5821 47.76492 506.6372 47.76492 506.7086L47.76492 506.7086L47.76492 514.3439C 47.76492 514.4282 47.73898 514.4963 47.68711 514.5482C 47.63523 514.6 47.57687 514.626 47.51203 514.626C 47.44719 514.626 47.38883 514.6 47.33695 514.5482C 47.29156 514.4963 47.26887 514.425 47.26887 514.3342L47.26887 514.3342L47.26887 511.3871L47.26887 511.3871L43.67976 511.3871C 43.50468 511.3871 43.41715 511.2898 43.41715 511.0952C 43.41715 510.9072 43.50144 510.8132 43.67004 510.8132L43.67004 510.8132L47.26887 510.8132L47.26887 510.8132L47.26887 509.1305L47.26887 509.1305L43.69922 509.1305C 43.60844 509.1305 43.53711 509.0981 43.48523 509.0332C 43.43336 508.9814 43.40742 508.9165 43.40742 508.8387C 43.40094 508.7544 43.42039 508.6863 43.46578 508.6344C 43.51117 508.5761 43.57602 508.5469 43.66031 508.5469z" stroke="#000000" stroke-width="1" fill="#000000" fill-rule="evenodd" /><path id="94" transform="matrix(1 0 0 -1 0 842)" d="M41.54965 521.4197L41.54965 516.9746C 41.54965 516.7931 41.63395 516.7023 41.80254 516.7023C 41.97113 516.7023 42.05543 516.7931 42.05543 516.9746L42.05543 516.9746L42.05543 521.4489C 42.05543 521.5331 42.02625 521.6012 41.96789 521.6531C 41.9225 521.6985 41.86738 521.7212 41.80254 521.7212C 41.73121 521.7147 41.67285 521.6888 41.62746 521.6434C 41.57558 521.585 41.54965 521.5104 41.54965 521.4197zM40.57699 520.4276L40.57699 517.9667C 40.57699 517.7787 40.65805 517.6847 40.82016 517.6847C 40.98227 517.6847 41.06332 517.7787 41.06332 517.9667L41.06332 517.9667L41.06332 520.447C 41.06332 520.6285 40.98227 520.7161 40.82016 520.7096C 40.65805 520.7096 40.57699 520.6156 40.57699 520.4276zM42.44449 519.2117C 42.44449 518.4595 42.53527 517.8889 42.71684 517.4999C 42.88543 517.1432 43.11887 516.9649 43.41715 516.9649C 43.70246 516.9649 43.92941 517.1432 44.09801 517.4999C 44.27957 517.8824 44.37035 518.4531 44.37035 519.2117C 44.37035 519.9575 44.27957 520.5216 44.09801 520.9042C 43.92941 521.2608 43.70246 521.4391 43.41715 521.4391C 43.11887 521.4391 42.88543 521.2608 42.71684 520.9042C 42.53527 520.5216 42.44449 519.9575 42.44449 519.2117zM42.94054 519.2117C 42.94054 519.7823 42.97945 520.2006 43.05727 520.4664C 43.13508 520.7323 43.25504 520.8652 43.41715 520.8652C 43.56629 520.8652 43.67976 520.7323 43.75758 520.4664C 43.84187 520.1941 43.88402 519.7759 43.88402 519.2117C 43.88402 518.6216 43.84187 518.1904 43.75758 517.9181C 43.67976 517.6652 43.56629 517.5388 43.41715 517.5388C 43.24855 517.5388 43.12859 517.6652 43.05727 517.9181C 42.97945 518.1904 42.94054 518.6216 42.94054 519.2117zM45.17765 519.6105L44.31199 519.6105L44.31199 519.6105L44.31199 519.0367L44.31199 519.0367L45.21656 519.0367C 45.23602 518.7513 45.25222 518.2942 45.26519 517.6652C 45.27168 517.328 45.27492 516.926 45.27492 516.4591C 45.27492 516.3683 45.29762 516.297 45.34301 516.2451C 45.39488 516.1932 45.45324 516.1705 45.51809 516.1771C 45.58293 516.1771 45.64129 516.203 45.69316 516.2549C 45.74504 516.3132 45.77097 516.3943 45.77097 516.498C 45.77097 517.6069 45.73207 518.6379 45.65425 519.5911C 45.56996 520.5897 45.45324 521.4099 45.3041 522.0519C 45.28465 522.1297 45.24574 522.1848 45.18738 522.2172C 45.12902 522.2432 45.06742 522.2464 45.00258 522.227C 44.93773 522.2075 44.8891 522.1686 44.85668 522.1102C 44.82426 522.0454 44.82101 521.9708 44.84695 521.8865C 44.92476 521.5947 44.99285 521.2349 45.05121 520.8069C 45.10308 520.4308 45.14523 520.032 45.17765 519.6105zM43.5825 523.1899L40.54781 523.1899C 40.37922 523.1899 40.29492 523.0927 40.29492 522.8981C 40.29492 522.7101 40.38246 522.616 40.55754 522.616L40.55754 522.616L46.0725 522.616C 46.16328 522.616 46.23785 522.6452 46.29621 522.7036C 46.3416 522.7554 46.3643 522.8203 46.3643 522.8981C 46.3643 522.9759 46.3416 523.0408 46.29621 523.0927C 46.24434 523.1575 46.17301 523.1899 46.08223 523.1899L46.08223 523.1899L44.06882 523.1899L44.06882 523.1899L44.06882 524.2695C 44.06882 524.4316 43.98777 524.5095 43.82566 524.503C 43.66355 524.4965 43.5825 524.4057 43.5825 524.2307zM46.26703 517.7625C 46.17625 517.7625 46.10492 517.73 46.05305 517.6652C 46.00766 517.6133 45.98496 517.5485 45.98496 517.4707C 45.98496 517.3929 46.00766 517.328 46.05305 517.2761C 46.10492 517.2178 46.17625 517.1886 46.26703 517.1886L46.26703 517.1886L47.3564 517.1886C 47.60929 517.1886 47.81355 517.2664 47.96918 517.4221C 48.1248 517.5842 48.20262 517.8014 48.20262 518.0737L48.20262 518.0737L48.20262 523.326C 48.20262 523.4817 48.11832 523.5595 47.94973 523.5595C 47.78762 523.5595 47.70656 523.4817 47.70656 523.326L47.70656 523.326L47.70656 518.2294C 47.70656 518.0478 47.67738 517.9246 47.61902 517.8597C 47.55418 517.7949 47.43422 517.7625 47.25914 517.7625z" stroke="#000000" stroke-width="1" fill="#000000" fill-rule="evenodd" /><path id="96" transform="matrix(1 0 0 -1 0 842)" d="M40.52836 533.4628L40.52836 529.0469C 40.52836 528.8653 40.60941 528.7745 40.77152 528.7745C 40.94012 528.7681 41.02441 528.8556 41.02441 529.0372L41.02441 529.0372L41.02441 530.963L41.02441 530.963L41.34539 530.963C 42.02625 530.963 42.60984 530.7393 43.09617 530.2919C 43.4982 529.9223 43.84187 529.3906 44.12719 528.6967C 44.15961 528.6124 44.21148 528.5573 44.28281 528.5314C 44.34766 528.5119 44.4125 528.5184 44.47734 528.5508C 44.54867 528.5897 44.59731 528.6416 44.62324 528.7065C 44.65566 528.7778 44.65891 528.8556 44.63297 528.9399C 44.40601 529.5235 44.10449 530.0195 43.7284 530.428C 43.3523 530.8236 42.94703 531.0959 42.51258 531.2451C 42.89515 531.3553 43.28098 531.6342 43.67004 532.0815C 44.02668 532.4966 44.31847 532.9699 44.54543 533.5016C 44.58434 533.5924 44.59082 533.68 44.56488 533.7643C 44.53894 533.8421 44.49031 533.9005 44.41898 533.9393C 44.34766 533.9717 44.27633 533.9783 44.205 533.9588C 44.13367 533.9329 44.08179 533.8777 44.04937 533.7935C 43.79 533.145 43.46578 532.6328 43.07672 532.2567C 42.5839 531.7768 42.00031 531.5369 41.32594 531.5369L41.32594 531.5369L41.02441 531.5369L41.02441 531.5369L41.02441 533.4628C 41.02441 533.6249 40.94012 533.7059 40.77152 533.7059C 40.60941 533.7059 40.52836 533.6249 40.52836 533.4628zM42.64875 535.2524L40.55754 535.2524C 40.38246 535.2524 40.29492 535.1552 40.29492 534.9606C 40.29492 534.7726 40.38246 534.6786 40.55754 534.6786L40.55754 534.6786L44.45789 534.6786C 44.54867 534.6786 44.62 534.7078 44.67188 534.7661C 44.72375 534.818 44.74969 534.8828 44.74969 534.9606C 44.74969 535.0385 44.72375 535.1033 44.67188 535.1552C 44.62 535.22 44.54867 535.2524 44.45789 535.2524L44.45789 535.2524L43.1448 535.2524L43.1448 535.2524L43.1448 536.3126C 43.1448 536.4812 43.0605 536.5655 42.89191 536.5655C 42.7298 536.5655 42.64875 536.4812 42.64875 536.3126zM46.23785 534.6786L47.39531 534.6786C 47.50555 534.6786 47.5866 534.6429 47.63847 534.5716C 47.68386 534.5067 47.70656 534.403 47.70656 534.2603L47.70656 534.2603L47.70656 530.2627C 47.70656 530.1006 47.68062 529.9871 47.62875 529.9223C 47.57687 529.8574 47.48609 529.825 47.3564 529.825L47.3564 529.825L46.25731 529.825C 46.1341 529.825 46.04656 529.851 45.99469 529.9028C 45.93633 529.9677 45.90715 530.0746 45.90715 530.2238L45.90715 530.2238L45.90715 534.2408C 45.90715 534.3965 45.92984 534.5067 45.97523 534.5716C 46.02711 534.6429 46.11465 534.6786 46.23785 534.6786zM45.41109 534.377L45.41109 530.039C 45.41109 529.7991 45.47918 529.6078 45.61535 529.4651C 45.75152 529.3224 45.92336 529.2512 46.13086 529.2512L46.13086 529.2512L47.40504 529.2512C 47.66441 529.2512 47.85894 529.3192 47.98863 529.4554C 48.13129 529.5981 48.20262 529.8347 48.20262 530.1655L48.20262 530.1655L48.20262 534.416C 48.20262 534.6753 48.14101 534.8763 48.01781 535.019C 47.88812 535.1746 47.70008 535.2524 47.45367 535.2524L47.45367 535.2524L46.09195 535.2524C 45.88445 535.2524 45.7191 535.1746 45.5959 535.019C 45.47269 534.8633 45.41109 534.6494 45.41109 534.377z" stroke="#000000" stroke-width="1" fill="#000000" fill-rule="evenodd" /><path id="97" transform="matrix(1 0 0 -1 0 842)" d="M40.45055 544.4402L40.45055 539.1003C 40.45055 538.9253 40.53484 538.8377 40.70344 538.8377C 40.87203 538.8377 40.95633 538.9253 40.95633 539.1003L40.95633 539.1003L40.95633 544.3527C 40.95633 544.5342 40.99847 544.6769 41.08277 544.7806C 41.17355 544.8909 41.29676 544.946 41.45238 544.946L41.45238 544.946L41.85117 544.946C 42.25969 544.946 42.60012 544.9136 42.87246 544.8488C 43.22261 544.7645 43.57926 544.6088 43.94238 544.3819L43.94238 544.3819L43.94238 544.9655C 43.61816 545.16 43.27773 545.3059 42.92109 545.4031C 42.59687 545.4875 42.24672 545.5296 41.87062 545.5296L41.87062 545.5296L41.40375 545.5296C 41.09898 545.5296 40.8623 545.4291 40.69371 545.2281C 40.5316 545.0336 40.45055 544.7709 40.45055 544.4402zM43.60195 546.0159L43.60195 538.4681C 43.60195 538.2801 43.68301 538.1828 43.84512 538.1763C 44.01371 538.1633 44.09801 538.2444 44.09801 538.4195L44.09801 538.4195L44.09801 546.0256C 44.09801 546.11 44.07207 546.178 44.0202 546.2299C 43.96832 546.2818 43.90996 546.3077 43.84512 546.3077C 43.78027 546.3077 43.72191 546.2818 43.67004 546.2299C 43.62465 546.178 43.60195 546.1067 43.60195 546.0159zM45.48891 544.6736L45.48891 539.7715C 45.48891 539.5186 45.55699 539.3176 45.69316 539.1685C 45.82933 539.0258 46.01738 538.9545 46.25731 538.9545L46.25731 538.9545L47.47313 538.9545C 47.70008 538.9545 47.8784 539.0258 48.00808 539.1685C 48.13777 539.3046 48.20262 539.5024 48.20262 539.7618L48.20262 539.7618L48.20262 544.7515C 48.20262 544.9849 48.13129 545.173 47.98863 545.3156C 47.85246 545.4583 47.67414 545.5296 47.45367 545.5296L47.45367 545.5296L46.17949 545.5296C 45.97199 545.5296 45.80664 545.4485 45.68344 545.2864C 45.55375 545.1308 45.48891 544.9266 45.48891 544.6736zM46.31566 544.946L47.39531 544.946C 47.50555 544.946 47.5866 544.9103 47.63847 544.8391C 47.68386 544.7742 47.70656 544.6704 47.70656 544.5278L47.70656 544.5278L47.70656 539.9758C 47.70656 539.8071 47.68062 539.6904 47.62875 539.6256C 47.57687 539.5672 47.48609 539.538 47.3564 539.538L47.3564 539.538L46.34484 539.538C 46.21516 539.538 46.12437 539.564 46.0725 539.6158C 46.01414 539.6807 45.98496 539.791 45.98496 539.9465L45.98496 539.9465L45.98496 544.5083C 45.98496 544.6575 46.0109 544.7677 46.06277 544.8391C 46.10816 544.9103 46.19246 544.946 46.31566 544.946z" stroke="#000000" stroke-width="1" fill="#000000" fill-rule="evenodd" /><path id="99" transform="matrix(1 0 0 -1 0 842)" d="M40.52836 555.3051L40.52836 550.8892C 40.52836 550.7076 40.60941 550.6168 40.77152 550.6168C 40.94012 550.6104 41.02441 550.6979 41.02441 550.8795L41.02441 550.8795L41.02441 552.8053L41.02441 552.8053L41.34539 552.8053C 42.02625 552.8053 42.60984 552.5816 43.09617 552.1342C 43.4982 551.7646 43.84187 551.2328 44.12719 550.539C 44.15961 550.4547 44.21148 550.3996 44.28281 550.3737C 44.34766 550.3542 44.4125 550.3607 44.47734 550.3931C 44.54867 550.432 44.59731 550.4839 44.62324 550.5488C 44.65566 550.6201 44.65891 550.6979 44.63297 550.7822C 44.40601 551.3658 44.10449 551.8618 43.7284 552.2703C 43.3523 552.6659 42.94703 552.9382 42.51258 553.0873C 42.89515 553.1976 43.28098 553.4764 43.67004 553.9238C 44.02668 554.3389 44.31847 554.8122 44.54543 555.3439C 44.58434 555.4347 44.59082 555.5223 44.56488 555.6066C 44.53894 555.6844 44.49031 555.7427 44.41898 555.7816C 44.34766 555.814 44.27633 555.8206 44.205 555.8011C 44.13367 555.7751 44.08179 555.72 44.04937 555.6357C 43.79 554.9873 43.46578 554.475 43.07672 554.0989C 42.5839 553.6191 42.00031 553.3792 41.32594 553.3792L41.32594 553.3792L41.02441 553.3792L41.02441 553.3792L41.02441 555.3051C 41.02441 555.4672 40.94012 555.5482 40.77152 555.5482C 40.60941 555.5482 40.52836 555.4672 40.52836 555.3051zM42.64875 557.0947L40.54781 557.0947C 40.37922 557.0947 40.29492 556.9974 40.29492 556.8029C 40.29492 556.6149 40.38246 556.5209 40.55754 556.5209L40.55754 556.5209L45.03176 556.5209C 45.12254 556.5209 45.19711 556.55 45.25547 556.6084C 45.30086 556.6603 45.32355 556.7251 45.32355 556.8029C 45.32355 556.8807 45.30086 556.9456 45.25547 556.9974C 45.20359 557.0623 45.13226 557.0947 45.04148 557.0947L45.04148 557.0947L43.1448 557.0947L43.1448 557.0947L43.1448 558.1744C 43.1448 558.2457 43.11887 558.3041 43.06699 558.3494C 43.01511 558.3884 42.95676 558.4078 42.89191 558.4078C 42.82707 558.4013 42.76871 558.3754 42.71684 558.33C 42.67144 558.2846 42.64875 558.2197 42.64875 558.1354zM45.48891 554.0989C 45.48891 553.0549 45.6348 552.2542 45.9266 551.6965C 46.19246 551.1907 46.54586 550.9378 46.9868 550.9378C 47.41476 550.9378 47.75843 551.1907 48.01781 551.6965C 48.30961 552.2542 48.45551 553.0549 48.45551 554.0989C 48.45551 555.1364 48.30961 555.934 48.01781 556.4916C 47.75843 556.9974 47.41476 557.2504 46.9868 557.2504C 46.54586 557.2504 46.19246 556.9974 45.9266 556.4916C 45.6348 555.934 45.48891 555.1364 45.48891 554.0989zM45.99469 554.0989C 45.99469 554.9549 46.08547 555.6066 46.26703 556.054C 46.44211 556.469 46.68203 556.6765 46.9868 556.6765C 47.27859 556.6765 47.50879 556.469 47.67738 556.054C 47.86543 555.6066 47.95945 554.9549 47.95945 554.0989C 47.95945 553.2365 47.86543 552.5784 47.67738 552.1245C 47.50879 551.7159 47.27859 551.5117 46.9868 551.5117C 46.68203 551.5117 46.44211 551.7159 46.26703 552.1245C 46.08547 552.5718 45.99469 553.23 45.99469 554.0989z" stroke="#000000" stroke-width="1" fill="#000000" fill-rule="evenodd" /><path id="100" transform="matrix(1 0 0 -1 0 842)" d="M40.53809 564.1729L40.53809 561.6829C 40.53809 561.4948 40.61914 561.4008 40.78125 561.4008C 40.94984 561.4008 41.03414 561.4948 41.03414 561.6829L41.03414 561.6829L41.03414 564.2117C 41.03414 564.3674 40.94984 564.442 40.78125 564.4355C 40.61914 564.429 40.53809 564.3414 40.53809 564.1729zM41.91926 565.1455L41.91926 560.7297C 41.91926 560.5481 42.00031 560.4573 42.16242 560.4573C 42.33101 560.4508 42.41531 560.5383 42.41531 560.7199L42.41531 560.7199L42.41531 562.6458L42.41531 562.6458L43.4366 562.6458C 44.31199 562.6458 45.0966 562.4156 45.79043 561.9552C 46.40644 561.5467 46.8798 561.015 47.21051 560.36C 47.24941 560.2758 47.30453 560.2239 47.37586 560.2044C 47.44719 560.1849 47.51527 560.1947 47.58012 560.2336C 47.64496 560.2725 47.69035 560.3244 47.71629 560.3892C 47.74223 560.467 47.73574 560.5449 47.69683 560.6227C 47.42449 561.1674 47.04191 561.6537 46.5491 562.0817C 46.06277 562.4902 45.55699 562.7722 45.03176 562.9279C 45.56996 563.0705 46.06277 563.3267 46.51019 563.6962C 46.99004 564.0918 47.38559 564.5911 47.69683 565.1942C 47.74223 565.2914 47.75195 565.3822 47.72601 565.4665C 47.70008 565.5443 47.65144 565.5994 47.58012 565.6318C 47.50879 565.6707 47.43746 565.6805 47.36613 565.661C 47.28832 565.6351 47.2332 565.58 47.20078 565.4957C 46.92195 564.8472 46.46156 564.3155 45.81961 563.9005C 45.11281 563.4466 44.31847 563.2197 43.4366 563.2197L43.4366 563.2197L42.41531 563.2197L42.41531 563.2197L42.41531 565.1455C 42.41531 565.3076 42.33101 565.3887 42.16242 565.3887C 42.00031 565.3887 41.91926 565.3076 41.91926 565.1455zM48.13453 567.2173L40.56726 567.2173C 40.48297 567.2173 40.41488 567.1848 40.36301 567.12C 40.3241 567.0681 40.30465 567.0033 40.30465 566.9255C 40.30465 566.8412 40.3241 566.7731 40.36301 566.7212C 40.41488 566.6628 40.48297 566.6337 40.56726 566.6337L40.56726 566.6337L48.13453 566.6337C 48.22531 566.6337 48.29988 566.6628 48.35824 566.7212C 48.41011 566.7731 48.43605 566.8412 48.43605 566.9255C 48.43605 567.0033 48.41011 567.0681 48.35824 567.12C 48.29988 567.1848 48.22531 567.2173 48.13453 567.2173z" stroke="#000000" stroke-width="1" fill="#000000" fill-rule="evenodd" /><path id="553" transform="matrix(1 0 0 -1 0 842)" d="M40.52836 234.1321L40.52836 229.9497C 40.52836 229.7681 40.60941 229.6773 40.77152 229.6773C 40.94012 229.6773 41.02441 229.7681 41.02441 229.9497L41.02441 229.9497L41.02441 234.1321C 41.02441 234.3201 40.94012 234.4174 40.77152 234.4239C 40.60941 234.4239 40.52836 234.3266 40.52836 234.1321zM41.715 230.5138C 42.08461 230.5138 42.50933 230.5397 42.98918 230.5916C 43.40418 230.637 43.85484 230.7051 44.34117 230.7959L44.34117 230.7959L44.36062 229.687C 44.36062 229.499 44.43843 229.405 44.59406 229.405C 44.75617 229.405 44.83723 229.499 44.83723 229.687C 44.83723 230.7116 44.80804 231.6421 44.74969 232.4786C 44.68484 233.341 44.59731 234.0607 44.48707 234.6379C 44.44168 234.8194 44.34117 234.9005 44.18555 234.881C 44.02992 234.8616 43.97156 234.7611 44.01047 234.5795C 44.06234 234.2942 44.09801 234.0835 44.11746 233.9473C 44.14988 233.7463 44.1823 233.5388 44.21473 233.3248C 43.80621 233.4091 43.37824 233.4772 42.93082 233.529C 42.50285 233.5744 42.08785 233.5971 41.68582 233.5971C 41.51074 233.5971 41.4232 233.5031 41.4232 233.315C 41.4232 233.127 41.5075 233.033 41.67609 233.033C 42.12351 233.033 42.53851 233.0135 42.92109 232.9746C 43.41391 232.9357 43.8516 232.8676 44.23418 232.7704L44.23418 232.7704L44.2439 232.5856C 44.26984 232.3067 44.2893 232.0992 44.30227 231.9631C 44.32172 231.7426 44.33144 231.5416 44.33144 231.36C 43.89051 231.2692 43.4366 231.2011 42.96973 231.1557C 42.5223 231.1168 42.09758 231.0974 41.69555 231.0974C 41.61125 231.0974 41.54641 231.065 41.50101 231.0001C 41.46211 230.9482 41.44265 230.8834 41.44265 230.8056C 41.44265 230.7213 41.46535 230.6532 41.51074 230.6013C 41.56261 230.543 41.6307 230.5138 41.715 230.5138zM44.43843 236.6124L40.57699 236.6124C 40.48621 236.6124 40.41488 236.5799 40.36301 236.5151C 40.31762 236.4632 40.29492 236.3984 40.29492 236.3206C 40.29492 236.2363 40.32086 236.1682 40.37273 236.1163C 40.42461 236.0579 40.49594 236.0288 40.58672 236.0288L40.58672 236.0288L42.27914 236.0288L42.27914 236.0288L42.27914 234.3655C 42.27914 234.2747 42.30183 234.2066 42.34723 234.1613C 42.3991 234.1159 42.45746 234.0932 42.5223 234.0932C 42.58715 234.0997 42.64551 234.1288 42.69738 234.1807C 42.74926 234.2391 42.77519 234.3169 42.77519 234.4142L42.77519 234.4142L42.77519 236.0288L42.77519 236.0288L44.43843 236.0288C 44.52922 236.0288 44.60379 236.0579 44.66215 236.1163C 44.71402 236.1682 44.73996 236.2363 44.73996 236.3206C 44.73996 236.3984 44.71402 236.4632 44.66215 236.5151C 44.60379 236.5799 44.52922 236.6124 44.43843 236.6124zM46.23785 236.0288L47.39531 236.0288C 47.50555 236.0288 47.5866 235.9931 47.63847 235.9218C 47.68386 235.8569 47.70656 235.7499 47.70656 235.6008L47.70656 235.6008L47.70656 231.3892C 47.70656 231.2206 47.68062 231.1039 47.62875 231.039C 47.57687 230.9807 47.48609 230.9515 47.3564 230.9515L47.3564 230.9515L46.25731 230.9515C 46.1341 230.9515 46.04656 230.9774 45.99469 231.0293C 45.93633 231.0941 45.90715 231.2044 45.90715 231.36L45.90715 231.36L45.90715 235.5911C 45.90715 235.7467 45.92984 235.8569 45.97523 235.9218C 46.02711 235.9931 46.11465 236.0288 46.23785 236.0288zM45.41109 235.7272L45.41109 231.1557C 45.41109 230.9158 45.47918 230.7245 45.61535 230.5819C 45.75152 230.4392 45.92336 230.3679 46.13086 230.3679L46.13086 230.3679L47.40504 230.3679C 47.66441 230.3679 47.85894 230.436 47.98863 230.5722C 48.13129 230.7213 48.20262 230.958 48.20262 231.2822L48.20262 231.2822L48.20262 235.7661C 48.20262 236.0255 48.14101 236.2298 48.01781 236.3789C 47.88812 236.5345 47.70008 236.6124 47.45367 236.6124L47.45367 236.6124L46.09195 236.6124C 45.88445 236.6124 45.7191 236.5345 45.5959 236.3789C 45.47269 236.2168 45.41109 235.9996 45.41109 235.7272z" stroke="#000000" stroke-width="1" fill="#000000" fill-rule="evenodd" /><path id="554" transform="matrix(1 0 0 -1 0 842)" d="M44.42871 246.4626L44.42871 245.2565L44.42871 245.2565L41.79281 245.558C 41.69555 245.5645 41.61773 245.5385 41.55937 245.4802C 41.51398 245.4348 41.48804 245.3732 41.48156 245.2954C 41.47507 245.2176 41.49129 245.1495 41.53019 245.0911C 41.57558 245.0327 41.64367 245.0003 41.73445 244.9939L41.73445 244.9939L44.42871 244.6826L44.42871 244.6826L44.42871 241.9592L44.42871 241.9592L41.72472 241.6576C 41.63395 241.6447 41.56586 241.6058 41.52047 241.5409C 41.48156 241.4826 41.46535 241.4145 41.47184 241.3367C 41.47832 241.2589 41.50426 241.1973 41.54965 241.1519C 41.60801 241.0935 41.68258 241.0708 41.77336 241.0838L41.77336 241.0838L44.42871 241.3853L44.42871 241.3853L44.42871 240.1792C 44.42871 240.0106 44.50977 239.9263 44.67188 239.9263C 44.84047 239.9198 44.92476 239.9944 44.92476 240.15L44.92476 240.15L44.92476 246.482C 44.92476 246.6441 44.84047 246.7219 44.67188 246.7155C 44.50977 246.7155 44.42871 246.6311 44.42871 246.4626zM40.55754 246.4236L40.55754 240.1889C 40.55754 240.0074 40.64183 239.9198 40.81043 239.9263C 40.97902 239.9263 41.06332 240.0138 41.06332 240.1889L41.06332 240.1889L41.06332 246.4626C 41.06332 246.5404 41.03414 246.602 40.97578 246.6474C 40.93039 246.6927 40.87527 246.7122 40.81043 246.7057C 40.7391 246.7057 40.68074 246.683 40.63535 246.6376C 40.58348 246.5793 40.55754 246.5079 40.55754 246.4236zM47.26887 247.0851L47.26887 239.547C 47.26887 239.4562 47.29156 239.3849 47.33695 239.333C 47.38883 239.2876 47.44719 239.2617 47.51203 239.2552C 47.57687 239.2487 47.63523 239.2649 47.68711 239.3038C 47.73898 239.3427 47.76492 239.3978 47.76492 239.4692L47.76492 239.4692L47.76492 247.1629C 47.76492 247.2342 47.73898 247.2893 47.68711 247.3282C 47.63523 247.3671 47.57687 247.3866 47.51203 247.3866C 47.44719 247.3801 47.38883 247.3509 47.33695 247.299C 47.29156 247.2472 47.26887 247.1758 47.26887 247.0851z" stroke="#000000" stroke-width="1" fill="#000000" fill-rule="evenodd" /><path id="770" transform="matrix(1 0 0 -1 0 842)" d="M113.52 675.74L549 675.74L549 676.22L113.52 676.22z" stroke="none" fill="#3D96E3" fill-rule="nonzero" /><path id="771" transform="matrix(1 0 0 -1 0 842)" d="M113.52 641.78L549 641.78L549 642.26L113.52 642.26z" stroke="none" fill="#3D96E3" fill-rule="nonzero" /><path id="772" transform="matrix(1 0 0 -1 0 842)" d="M54.96 583.76L549 583.76L549 584.24L54.96 584.24z" stroke="none" fill="#3D96E3" fill-rule="nonzero" /><path id="773" transform="matrix(1 0 0 -1 0 842)" d="M113.52 563.78L549 563.78L549 564.26L113.52 564.26z" stroke="none" fill="#3D96E3" fill-rule="nonzero" /><path id="774" transform="matrix(1 0 0 -1 0 842)" d="M113.52 529.82L549 529.82L549 530.3L113.52 530.3z" stroke="none" fill="#3D96E3" fill-rule="nonzero" /><path id="775" transform="matrix(1 0 0 -1 0 842)" d="M113.52 485.78L549 485.78L549 486.26L113.52 486.26z" stroke="none" fill="#3D96E3" fill-rule="nonzero" /><path id="776" transform="matrix(1 0 0 -1 0 842)" d="M35.94 343.88L549 343.88L549 344.36L35.94 344.36z" stroke="none" fill="#3D96E3" fill-rule="nonzero" /><path id="777" transform="matrix(1 0 0 -1 0 842)" d="M113.52 323.84L549 323.84L549 324.32L113.52 324.32z" stroke="none" fill="#3D96E3" fill-rule="nonzero" /><path id="778" transform="matrix(1 0 0 -1 0 842)" d="M113.52 303.86L549 303.86L549 304.34L113.52 304.34z" stroke="none" fill="#3D96E3" fill-rule="nonzero" /><path id="779" transform="matrix(1 0 0 -1 0 842)" d="M113.52 259.88L549 259.88L549 260.36L113.52 260.36z" stroke="none" fill="#3D96E3" fill-rule="nonzero" /><path id="780" transform="matrix(1 0 0 -1 0 842)" d="M54.96 239.9L549 239.9L549 240.38L54.96 240.38z" stroke="none" fill="#3D96E3" fill-rule="nonzero" /><path id="781" transform="matrix(1 0 0 -1 0 842)" d="M113.52 219.92L549 219.92L549 220.4L113.52 220.4z" stroke="none" fill="#3D96E3" fill-rule="nonzero" /><path id="782" transform="matrix(1 0 0 -1 0 842)" d="M113.52 199.88L549 199.88L549 200.36L113.52 200.36z" stroke="none" fill="#3D96E3" fill-rule="nonzero" /><path id="783" transform="matrix(1 0 0 -1 0 842)" d="M113.52 155.9L549 155.9L549 156.38L113.52 156.38z" stroke="none" fill="#3D96E3" fill-rule="nonzero" /><path id="784" transform="matrix(1 0 0 -1 0 842)" d="M35.94 135.38L549 135.38L549 136.88L35.94 136.88z" stroke="none" fill="#3D96E3" fill-rule="nonzero" /></g></g></svg>