<svg xmlns="http://www.w3.org/2000/svg" xmlns:xlink="http://www.w3.org/1999/xlink" id="body_40" preserveAspectRatio="xMinYMin meet" viewBox="0 0 793 1123"><defs><clipPath id="1"><path id="" clip-rule="evenodd" transform="matrix(1 0 0 1 0 0)" d="M0 842L0 0L0 0L595 0L595 0L595 842L595 842L0 842z" /></clipPath><clipPath id="2"><path id="" clip-rule="evenodd" transform="matrix(1 0 0 1 0 0)" d="M247.14 443.22L473.46 443.22L473.46 443.22L473.46 578.82L473.46 578.82L247.14 578.82z" /></clipPath><clipPath id="3"><path id="" clip-rule="evenodd" transform="matrix(1 0 0 1 0 0)" d="M215.94 429.9L535.08 429.9L535.08 429.9L535.08 595.74L535.08 595.74L215.94 595.74z" /></clipPath><clipPath id="4"><path id="" clip-rule="evenodd" transform="matrix(1 0 0 1 0 0)" d="M0 0.02001953L595.2 0.02001953L595.2 0.02001953L595.2 842L595.2 842L0 842z" /></clipPath><clipPath id="5"><path id="" clip-rule="evenodd" transform="matrix(1 0 0 1 0 0)" d="M215.94 429.9L535.08 429.9L535.08 429.9L535.08 595.74L535.08 595.74L215.94 595.74z" /></clipPath><clipPath id="6"><path id="" clip-rule="evenodd" transform="matrix(1 0 0 1 0 0)" d="M0 0.02001953L595.2 0.02001953L595.2 0.02001953L595.2 842L595.2 842L0 842z" /></clipPath></defs><g transform="matrix(1.333333 0 0 1.333333 0 0)"><g clip-path="url(#1)"><g clip-path="url(#2)"><g clip-path="url(#3)"><g clip-path="url(#4)"><g transform="matrix(0.4794915 0 0 0.479152 247.14 443.22)"><g transform="matrix(1 0 0 1 0 0)"><image x="0" y="0" xlink:href="img_99.png" width="472" height="283" /></g></g></g></g></g><g clip-path="url(#5)"><g clip-path="url(#6)"><path id="587" transform="matrix(1 0 0 -1 0 842)" d="M434.7 381.5L435.72 381.5L435.72 401.84L434.7 401.84z" stroke="none" fill="#000000" fill-rule="nonzero" /><path id="592" transform="matrix(1 0 0 -1 0 842)" d="M351.66 401.36L352.68 401.36L352.68 401.84L351.66 401.84z" stroke="none" fill="#000000" fill-rule="nonzero" /><path id="593" transform="matrix(1 0 0 -1 0 842)" d="M352.44 342.8L353.46 342.8L353.46 343.28L352.44 343.28z" stroke="none" fill="#000000" fill-rule="nonzero" /><path id="594" transform="matrix(1 0 0 -1 0 842)" d="M352.68 401.36L351.66 401.36L352.44 343.28L353.46 343.28" stroke="none" fill="#000000" fill-rule="nonzero" /><path id="603" transform="matrix(1 0 0 -1 0 842)" d="M324.48 281.42L324.48 281.9L323.46 281.96L323.46 281.48" stroke="none" fill="#000000" fill-rule="nonzero" /><path id="604" transform="matrix(1 0 0 -1 0 842)" d="M323.7 258.8L323.7 258.32L322.68 258.38L322.68 258.86" stroke="none" fill="#000000" fill-rule="nonzero" /><path id="605" transform="matrix(1 0 0 -1 0 842)" d="M324.48 281.42L323.46 281.48L322.68 258.86L323.7 258.8" stroke="none" fill="#000000" fill-rule="nonzero" /><path id="611" transform="matrix(1 0 0 -1 0 842)" d="M278.4 331.52L278.76 328.7L278.88 327.86L278.1 328.22L272.76 330.38L271.92 330.74L272.58 331.22L277.14 334.76L277.86 335.3L277.98 334.4L277.8 333.98L273.24 330.44L272.58 331.22L273.12 331.28L278.46 329.12L278.1 328.22L277.74 328.58L277.38 331.4" stroke="none" fill="#FF0000" fill-rule="nonzero" /><path id="612" transform="matrix(1 0 0 -1 0 842)" d="M277.98 334.4L278.4 331.52L277.38 331.4L276.96 334.28" stroke="none" fill="#FF0000" fill-rule="nonzero" /><path id="613" transform="matrix(1 0 0 -1 0 842)" d="M277.92 331.46L278.28 328.64L278.28 328.64L272.94 330.8L272.94 330.8L277.5 334.34" stroke="none" fill="#FF0000" fill-rule="evenodd" /><path id="614" transform="matrix(1 0 0 -1 0 842)" d="M317.7 336.2L317.58 337.22L278.34 332L278.46 330.98" stroke="none" fill="#FF0000" fill-rule="nonzero" /><path id="615" transform="matrix(1 0 0 -1 0 842)" d="M479.34 355.94L479.04 358.82L478.92 359.66L479.7 359.3L484.98 357.08L485.88 356.78L485.1 356.24L480.48 352.76L479.82 352.22L479.7 353.12L479.88 353.54L484.5 357.02L485.1 356.24L484.62 356.18L479.34 358.4L479.7 359.3L480.06 358.94L480.36 356.06" stroke="none" fill="#FF0000" fill-rule="nonzero" /><path id="616" transform="matrix(1 0 0 -1 0 842)" d="M479.7 353.12L479.34 355.94L480.36 356.06L480.72 353.24" stroke="none" fill="#FF0000" fill-rule="nonzero" /><path id="617" transform="matrix(1 0 0 -1 0 842)" d="M479.82 356L479.52 358.88L479.52 358.88L484.8 356.66L484.8 356.66L480.18 353.18" stroke="none" fill="#FF0000" fill-rule="evenodd" /><path id="618" transform="matrix(1 0 0 -1 0 842)" d="M469.62 355.22L469.74 354.2L479.4 355.4L479.28 356.42" stroke="none" fill="#FF0000" fill-rule="nonzero" /><path id="619" transform="matrix(1 0 0 -1 0 842)" d="M254.52 281.42L254.52 281.9L253.5 281.96L253.5 281.48" stroke="none" fill="#000000" fill-rule="nonzero" /><path id="620" transform="matrix(1 0 0 -1 0 842)" d="M253.68 258.8L253.68 258.32L252.66 258.38L252.66 258.86" stroke="none" fill="#000000" fill-rule="nonzero" /><path id="621" transform="matrix(1 0 0 -1 0 842)" d="M254.52 281.42L253.5 281.48L252.66 258.86L253.68 258.8" stroke="none" fill="#000000" fill-rule="nonzero" /><path id="626" transform="matrix(1 0 0 -1 0 842)" d="M383.94 300.38L383.94 300.86L382.92 300.92L382.92 300.44" stroke="none" fill="#000000" fill-rule="nonzero" /><path id="627" transform="matrix(1 0 0 -1 0 842)" d="M382.68 258.8L382.68 258.32L381.66 258.38L381.66 258.86" stroke="none" fill="#000000" fill-rule="nonzero" /><path id="628" transform="matrix(1 0 0 -1 0 842)" d="M383.94 300.38L382.92 300.44L381.66 258.86L382.68 258.8" stroke="none" fill="#000000" fill-rule="nonzero" /><path id="634" transform="matrix(1 0 0 -1 0 842)" d="M425.88 325.28L425.94 322.4L425.94 321.56L425.22 321.98L420.18 324.8L419.34 325.22L420.18 325.7L425.16 328.64L425.88 329.06L425.88 328.16L425.64 327.74L420.66 324.8L420.18 325.7L420.66 325.7L425.7 322.88L425.22 321.98L424.92 322.4L424.86 325.28" stroke="none" fill="#000000" fill-rule="nonzero" /><path id="635" transform="matrix(1 0 0 -1 0 842)" d="M424.86 325.28L425.88 325.28L425.88 328.16L424.86 328.16z" stroke="none" fill="#000000" fill-rule="nonzero" /><path id="636" transform="matrix(1 0 0 -1 0 842)" d="M425.4 325.28L425.46 322.4L425.46 322.4L420.42 325.22L420.42 325.22L425.4 328.16" stroke="none" fill="#000000" fill-rule="evenodd" /><path id="637" transform="matrix(1 0 0 -1 0 842)" d="M480.78 325.34L480.78 326.36L425.94 325.76L425.94 324.74" stroke="none" fill="#000000" fill-rule="nonzero" /><path id="641" transform="matrix(1 0 0 -1 0 842)" d="M216.96 318.98L269.1 318.98L269.1 339.98L216.96 339.98z" stroke="none" fill="#FFFFFF" fill-rule="nonzero" /></g></g></g></g></svg>