<svg xmlns="http://www.w3.org/2000/svg" xmlns:xlink="http://www.w3.org/1999/xlink" id="body_4" preserveAspectRatio="xMinYMin meet" viewBox="0 0 793 1123"><defs><clipPath id="1"><path id="" clip-rule="evenodd" transform="matrix(1 0 0 1 0 0)" d="M0 842L0 0L0 0L595 0L595 0L595 842L595 842L0 842z" /></clipPath><clipPath id="2"><path id="" clip-rule="evenodd" transform="matrix(1 0 0 1 0 0)" d="M44.94 36L558 36L558 36L558 87.29999L558 87.29999L44.94 87.29999z" /></clipPath><clipPath id="3"><path id="" clip-rule="evenodd" transform="matrix(1 0 0 1 0 0)" d="M0 0.02001953L595.2 0.02001953L595.2 0.02001953L595.2 842L595.2 842L0 842z" /></clipPath></defs><g transform="matrix(1.333333 0 0 1.333333 0 0)"><g clip-path="url(#1)"><g clip-path="url(#2)"><g clip-path="url(#3)"><g transform="matrix(0.4799439 0 0 0.4794392 44.94 36)"><g transform="matrix(1 0 0 1 0 0)"><image x="0" y="0" xlink:href="img_05.png" width="1069" height="107" /></g></g></g></g><path id="145" transform="matrix(1 0 0 -1 0 842)" d="M44.94 621.56L139.98 621.56L139.98 635L44.94 635z" stroke="none" fill="#C5E0F7" fill-rule="nonzero" /><path id="150" transform="matrix(1 0 0 -1 0 842)" d="M139.98 621.56L290.94 621.56L290.94 635L139.98 635z" stroke="none" fill="#C5E0F7" fill-rule="nonzero" /><path id="153" transform="matrix(1 0 0 -1 0 842)" d="M290.94 621.56L559.02 621.56L559.02 635L290.94 635z" stroke="none" fill="#C5E0F7" fill-rule="nonzero" /><path id="155" transform="matrix(1 0 0 -1 0 842)" d="M44.94 608.18L559.02 608.18L559.02 621.56L44.94 621.56z" stroke="none" fill="#EEF6FC" fill-rule="nonzero" /><path id="160" transform="matrix(1 0 0 -1 0 842)" d="M44.94 559.94L139.98 559.94L139.98 608.18L44.94 608.18z" stroke="none" fill="#EEF6FC" fill-rule="nonzero" /><path id="217" transform="matrix(1 0 0 -1 0 842)" d="M44.94 546.56L559.02 546.56L559.02 559.94L44.94 559.94z" stroke="none" fill="#EEF6FC" fill-rule="nonzero" /><path id="224" transform="matrix(1 0 0 -1 0 842)" d="M44.94 446.06L139.98 446.06L139.98 546.56L44.94 546.56z" stroke="none" fill="#EEF6FC" fill-rule="nonzero" /><path id="378" transform="matrix(1 0 0 -1 0 842)" d="M44.94 432.68L559.02 432.68L559.02 446.06L44.94 446.06z" stroke="none" fill="#EEF6FC" fill-rule="nonzero" /><path id="387" transform="matrix(1 0 0 -1 0 842)" d="M44.94 416.84L139.98 416.84L139.98 432.68L44.94 432.68z" stroke="none" fill="#EEF6FC" fill-rule="nonzero" /><path id="406" transform="matrix(1 0 0 -1 0 842)" d="M44.94 403.4L559.02 403.4L559.02 416.84L44.94 416.84z" stroke="none" fill="#EEF6FC" fill-rule="nonzero" /><path id="413" transform="matrix(1 0 0 -1 0 842)" d="M44.94 389L139.98 389L139.98 403.4L44.94 403.4z" stroke="none" fill="#EEF6FC" fill-rule="nonzero" /><path id="438" transform="matrix(1 0 0 -1 0 842)" d="M44.94 374.6L139.98 374.6L139.98 389L44.94 389z" stroke="none" fill="#EEF6FC" fill-rule="nonzero" /><path id="441" transform="matrix(1 0 0 -1 0 842)" d="M44.94 360.2L139.98 360.2L139.98 374.6L44.94 374.6z" stroke="none" fill="#EEF6FC" fill-rule="nonzero" /><path id="444" transform="matrix(1 0 0 -1 0 842)" d="M44.94 346.82L559.02 346.82L559.02 360.2L44.94 360.2z" stroke="none" fill="#EEF6FC" fill-rule="nonzero" /><path id="452" transform="matrix(1 0 0 -1 0 842)" d="M44.94 270.44L139.98 270.44L139.98 346.82L44.94 346.82z" stroke="none" fill="#EEF6FC" fill-rule="nonzero" /><path id="548" transform="matrix(1 0 0 -1 0 842)" d="M44.94 212.84L139.98 212.84L139.98 270.44L44.94 270.44z" stroke="none" fill="#EEF6FC" fill-rule="nonzero" /><path id="592" transform="matrix(1 0 0 -1 0 842)" d="M44.94 199.46L559.02 199.46L559.02 212.84L44.94 212.84z" stroke="none" fill="#EEF6FC" fill-rule="nonzero" /><path id="597" transform="matrix(1 0 0 -1 0 842)" d="M44.94 185.06L139.98 185.06L139.98 199.46L44.94 199.46z" stroke="none" fill="#EEF6FC" fill-rule="nonzero" /><path id="610" transform="matrix(1 0 0 -1 0 842)" d="M44.94 170.66L139.98 170.66L139.98 185.06L44.94 185.06z" stroke="none" fill="#EEF6FC" fill-rule="nonzero" /><path id="625" transform="matrix(1 0 0 -1 0 842)" d="M44.94 156.26L139.98 156.26L139.98 170.66L44.94 170.66z" stroke="none" fill="#EEF6FC" fill-rule="nonzero" /><path id="645" transform="matrix(1 0 0 -1 0 842)" d="M44.94 125.48L139.98 125.48L139.98 156.26L44.94 156.26z" stroke="none" fill="#EEF6FC" fill-rule="nonzero" /><path id="690" transform="matrix(1 0 0 -1 0 842)" d="M139.98 503.42L559.02 503.42L559.02 503.9L139.98 503.9z" stroke="none" fill="#3D96E3" fill-rule="nonzero" /><path id="691" transform="matrix(1 0 0 -1 0 842)" d="M44.94 270.2L559.02 270.2L559.02 270.68L44.94 270.68z" stroke="none" fill="#3D96E3" fill-rule="nonzero" /><path id="692" transform="matrix(1 0 0 -1 0 842)" d="M44.94 156.02L559.02 156.02L559.02 156.5L44.94 156.5z" stroke="none" fill="#3D96E3" fill-rule="nonzero" /><path id="693" transform="matrix(1 0 0 -1 0 842)" d="M44.94 124.7L559.02 124.7L559.02 126.2L44.94 126.2z" stroke="none" fill="#3D96E3" fill-rule="nonzero" /></g></g></svg>