<svg xmlns="http://www.w3.org/2000/svg" xmlns:xlink="http://www.w3.org/1999/xlink" id="body_263" preserveAspectRatio="xMinYMin meet" viewBox="0 0 793 1123"><defs><clipPath id="1"><path id="" clip-rule="evenodd" transform="matrix(1 0 0 1 0 0)" d="M0 842L0 0L0 0L595 0L595 0L595 842L595 842L0 842z" /></clipPath><clipPath id="2"><path id="" clip-rule="evenodd" transform="matrix(1 0 0 1 0 0)" d="M216.96 77.03998L405.18 77.03998L405.18 77.03998L405.18 201.54L405.18 201.54L216.96 201.54z" /></clipPath><clipPath id="3"><path id="" clip-rule="evenodd" transform="matrix(1 0 0 1 0 0)" d="M215.94 76.02002L547.14 76.02002L547.14 76.02002L547.14 202.56L547.14 202.56L215.94 202.56z" /></clipPath><clipPath id="4"><path id="" clip-rule="evenodd" transform="matrix(1 0 0 1 0 0)" d="M0 0.02001953L595.2 0.02001953L595.2 0.02001953L595.2 842L595.2 842L0 842z" /></clipPath><clipPath id="5"><path id="" clip-rule="evenodd" transform="matrix(1 0 0 1 0 0)" d="M215.94 76.02002L547.14 76.02002L547.14 76.02002L547.14 202.56L547.14 202.56L215.94 202.56z" /></clipPath><clipPath id="6"><path id="" clip-rule="evenodd" transform="matrix(1 0 0 1 0 0)" d="M0 0.02001953L595.2 0.02001953L595.2 0.02001953L595.2 842L595.2 842L0 842z" /></clipPath><clipPath id="7"><path id="" clip-rule="evenodd" transform="matrix(1 0 0 1 0 0)" d="M441.18 77.03998L544.74 77.03998L544.74 77.03998L544.74 160.74L544.74 160.74L441.18 160.74z" /></clipPath><clipPath id="8"><path id="" clip-rule="evenodd" transform="matrix(1 0 0 1 0 0)" d="M215.94 76.02002L547.14 76.02002L547.14 76.02002L547.14 202.56L547.14 202.56L215.94 202.56z" /></clipPath><clipPath id="9"><path id="" clip-rule="evenodd" transform="matrix(1 0 0 1 0 0)" d="M0 0.02001953L595.2 0.02001953L595.2 0.02001953L595.2 842L595.2 842L0 842z" /></clipPath><clipPath id="10"><path id="" clip-rule="evenodd" transform="matrix(1 0 0 1 0 0)" d="M215.94 76.02002L547.14 76.02002L547.14 76.02002L547.14 202.56L547.14 202.56L215.94 202.56z" /></clipPath><clipPath id="11"><path id="" clip-rule="evenodd" transform="matrix(1 0 0 1 0 0)" d="M0 0.02001953L595.2 0.02001953L595.2 0.02001953L595.2 842L595.2 842L0 842z" /></clipPath><clipPath id="12"><path id="" clip-rule="evenodd" transform="matrix(1 0 0 1 0 0)" d="M216.96 334.5L313.86 334.5L313.86 334.5L313.86 490.8L313.86 490.8L216.96 490.8z" /></clipPath><clipPath id="13"><path id="" clip-rule="evenodd" transform="matrix(1 0 0 1 0 0)" d="M215.94 333.54L542.94 333.54L542.94 333.54L542.94 491.82L542.94 491.82L215.94 491.82z" /></clipPath><clipPath id="14"><path id="" clip-rule="evenodd" transform="matrix(1 0 0 1 0 0)" d="M0 0.02001953L595.2 0.02001953L595.2 0.02001953L595.2 842L595.2 842L0 842z" /></clipPath><clipPath id="15"><path id="" clip-rule="evenodd" transform="matrix(1 0 0 1 0 0)" d="M215.94 333.54L542.94 333.54L542.94 333.54L542.94 491.82L542.94 491.82L215.94 491.82z" /></clipPath><clipPath id="16"><path id="" clip-rule="evenodd" transform="matrix(1 0 0 1 0 0)" d="M0 0.02001953L595.2 0.02001953L595.2 0.02001953L595.2 842L595.2 842L0 842z" /></clipPath><clipPath id="17"><path id="" clip-rule="evenodd" transform="matrix(1 0 0 1 0 0)" d="M338.64 334.5L473.52 334.5L473.52 334.5L473.52 445.02L473.52 445.02L338.64 445.02z" /></clipPath><clipPath id="18"><path id="" clip-rule="evenodd" transform="matrix(1 0 0 1 0 0)" d="M215.94 333.54L542.94 333.54L542.94 333.54L542.94 491.82L542.94 491.82L215.94 491.82z" /></clipPath><clipPath id="19"><path id="" clip-rule="evenodd" transform="matrix(1 0 0 1 0 0)" d="M0 0.02001953L595.2 0.02001953L595.2 0.02001953L595.2 842L595.2 842L0 842z" /></clipPath><clipPath id="20"><path id="" clip-rule="evenodd" transform="matrix(1 0 0 1 0 0)" d="M215.94 333.54L542.94 333.54L542.94 333.54L542.94 491.82L542.94 491.82L215.94 491.82z" /></clipPath><clipPath id="21"><path id="" clip-rule="evenodd" transform="matrix(1 0 0 1 0 0)" d="M0 0.02001953L595.2 0.02001953L595.2 0.02001953L595.2 842L595.2 842L0 842z" /></clipPath></defs><g transform="matrix(1.333333 0 0 1.333333 0 0)"><g clip-path="url(#1)"><path id="138" transform="matrix(1 0 0 -1 0 842)" d="M233.94 558.44L549 558.44L549 524.48L233.94 524.48" stroke="none" fill="#ECF5FC" fill-rule="nonzero" /><g clip-path="url(#2)"><g clip-path="url(#3)"><g clip-path="url(#4)"><g transform="matrix(0.4793537 0 0 0.4788462 216.96 77.03998)"><g transform="matrix(1 0 0 1 0 0)"><image x="0" y="0" xlink:href="img_805.png" width="393" height="260" /></g></g></g></g></g><g clip-path="url(#5)"><g clip-path="url(#6)"><path id="245" transform="matrix(1 0 0 -1 0 842)" d="M357.18 718.22L357.9 718.4L357.48 719.84L356.76 719.66" stroke="none" fill="#000000" fill-rule="nonzero" /><path id="246" transform="matrix(1 0 0 -1 0 842)" d="M261.18 688.22L260.46 688.04L260.04 689.48L260.76 689.66" stroke="none" fill="#000000" fill-rule="nonzero" /><path id="247" transform="matrix(1 0 0 -1 0 842)" d="M357.18 718.22L356.76 719.66L260.76 689.66L261.18 688.22" stroke="none" fill="#000000" fill-rule="nonzero" /><path id="248" transform="matrix(1 0 0 -1 0 842)" d="M218.76 672.38L269.04 672.38L269.04 708.32L218.76 708.32z" stroke="none" fill="#FFFFFF" fill-rule="nonzero" /></g></g><g clip-path="url(#7)"><g clip-path="url(#8)"><g clip-path="url(#9)"><g transform="matrix(0.4801574 0 0 0.4782857 441.18 77.03998)"><g transform="matrix(1 0 0 1 0 0)"><image x="0" y="0" xlink:href="img_806.png" width="216" height="175" /></g></g></g></g></g><g clip-path="url(#10)"><g clip-path="url(#11)"><path id="261" transform="matrix(1 0 0 -1 0 842)" d="M420.96 730.7L420.9 730.94L420.9 730.94L420.78 731.3L420.78 731.3L420.66 731.42L420.66 731.42L420.48 731.54L420.48 731.54L420.36 731.66L420.36 731.66L420.12 731.72L420.12 731.72L419.76 731.72L419.76 731.72L419.58 731.66L419.58 731.66L419.22 731.42L419.22 731.42L419.1 731.3L419.1 731.3L418.98 730.94L418.98 730.94L418.92 730.7L418.92 730.7L418.98 730.52L418.98 730.52L419.04 730.34L419.04 730.34L419.1 730.16L419.1 730.16L419.22 729.98L419.22 729.98L419.4 729.86L419.4 729.86L419.76 729.74L419.76 729.74L420.12 729.74L420.12 729.74L420.36 729.8L420.36 729.8L420.48 729.86L420.48 729.86L420.66 729.98L420.66 729.98L420.78 730.16L420.78 730.16L420.84 730.34L420.84 730.34L420.9 730.52L420.9 730.52L420.96 730.7" stroke="none" fill="#000000" fill-rule="evenodd" /><path id="262" transform="matrix(1 0 0 -1 0 842)" d="M419.94 730.7L419.94 735.68L420.6 735.5L435.6 731.18L437.28 730.7L435.6 730.22L420.6 725.96L419.94 725.78L419.94 726.44L420.3 726.92L435.3 731.18L435.6 730.22L435.3 730.22L420.3 734.54L420.6 735.5L420.96 735.02L420.96 730.7" stroke="none" fill="#000000" fill-rule="nonzero" /><path id="263" transform="matrix(1 0 0 -1 0 842)" d="M419.94 726.44L420.96 726.44L420.96 730.7L419.94 730.7z" stroke="none" fill="#000000" fill-rule="nonzero" /><path id="264" transform="matrix(1 0 0 -1 0 842)" d="M420.42 730.7L420.42 735.02L420.42 735.02L435.42 730.7L435.42 730.7L420.42 726.44" stroke="none" fill="#000000" fill-rule="evenodd" /><path id="265" transform="matrix(1 0 0 -1 0 842)" d="M407.46 729.68L408.42 729.68L408.42 731.66L407.46 731.66z" stroke="none" fill="#000000" fill-rule="nonzero" /><path id="266" transform="matrix(1 0 0 -1 0 842)" d="M408.42 729.68L420.9 729.68L420.9 731.66L408.42 731.66z" stroke="none" fill="#000000" fill-rule="nonzero" /><path id="267" transform="matrix(1 0 0 -1 0 842)" d="M519.48 689.66L520.2 689.66L520.2 691.16L519.48 691.16z" stroke="none" fill="#000000" fill-rule="nonzero" /><path id="268" transform="matrix(1 0 0 -1 0 842)" d="M484.26 689.66L519.48 689.66L519.48 691.16L484.26 691.16z" stroke="none" fill="#000000" fill-rule="nonzero" /><path id="269" transform="matrix(1 0 0 -1 0 842)" d="M521.46 685.46L544.08 685.46L544.08 695.96L521.46 695.96z" stroke="none" fill="#FFFFFF" fill-rule="nonzero" /><path id="272" transform="matrix(1 0 0 -1 0 842)" d="M441.72 688.22L465.72 688.22L465.72 697.9399L441.72 697.9399z" stroke="none" fill="#FFFFFF" fill-rule="nonzero" /><path id="275" transform="matrix(1 0 0 -1 0 842)" d="M515.64 729.56L516.24 729.98L515.4 731.24L514.8 730.82" stroke="none" fill="#000000" fill-rule="nonzero" /><path id="276" transform="matrix(1 0 0 -1 0 842)" d="M466.92 696.56L466.32 696.14L465.48 697.4L466.08 697.82" stroke="none" fill="#000000" fill-rule="nonzero" /><path id="277" transform="matrix(1 0 0 -1 0 842)" d="M515.64 729.56L514.8 730.82L466.08 697.82L466.92 696.56" stroke="none" fill="#000000" fill-rule="nonzero" /><path id="278" transform="matrix(1 0 0 -1 0 842)" d="M221.22 728.72L243.72 728.72L243.72 739.9399L221.22 739.9399z" stroke="none" fill="#FFFFFF" fill-rule="nonzero" /><path id="281" transform="matrix(1 0 0 -1 0 842)" d="M365.94 733.16L366.66 733.16L366.66 734.66L365.94 734.66z" stroke="none" fill="#000000" fill-rule="nonzero" /><path id="282" transform="matrix(1 0 0 -1 0 842)" d="M244.5 734.66L245.22 734.66L245.22 736.16L244.5 736.16z" stroke="none" fill="#000000" fill-rule="nonzero" /><path id="283" transform="matrix(1 0 0 -1 0 842)" d="M365.94 733.16L365.94 734.66L245.22 736.16L245.22 734.66" stroke="none" fill="#000000" fill-rule="nonzero" /></g></g><g clip-path="url(#12)"><g clip-path="url(#13)"><g clip-path="url(#14)"><g transform="matrix(0.4797871 0 0 0.4794478 216.96 334.5)"><g transform="matrix(1 0 0 1 0 0)"><image x="0" y="0" xlink:href="img_807.png" width="202" height="326" /></g></g></g></g></g><g clip-path="url(#15)"><g clip-path="url(#16)"><path id="285" transform="matrix(1 0 0 -1 0 842)" d="M221.1 489.86L258.66 489.86L258.66 498.44L221.1 498.44z" stroke="none" fill="#FFFFFF" fill-rule="nonzero" /></g></g><g clip-path="url(#17)"><g clip-path="url(#18)"><g clip-path="url(#19)"><g transform="matrix(0.48 0 0 0.4784415 338.64 334.5)"><g transform="matrix(1 0 0 1 0 0)"><image x="0" y="0" xlink:href="img_141.png" width="281" height="231" /></g></g></g></g></g><g clip-path="url(#20)"><g clip-path="url(#21)"><path id="290" transform="matrix(1 0 0 -1 0 842)" d="M411.54 489.2L411.06 489.08L411.36 488.12L411.84 488.24" stroke="none" fill="#000000" fill-rule="nonzero" /><path id="291" transform="matrix(1 0 0 -1 0 842)" d="M450.54 500.48L451.02 500.6L451.32 499.64L450.84 499.52" stroke="none" fill="#000000" fill-rule="nonzero" /><path id="292" transform="matrix(1 0 0 -1 0 842)" d="M411.54 489.2L411.84 488.24L450.84 499.52L450.54 500.48" stroke="none" fill="#000000" fill-rule="nonzero" /><path id="293" transform="matrix(1 0 0 -1 0 842)" d="M368.16 450.74L368.4 451.16L367.5 451.64L367.26 451.22" stroke="none" fill="#000000" fill-rule="nonzero" /><path id="294" transform="matrix(1 0 0 -1 0 842)" d="M350.88 420.74L350.64 420.32L349.74 420.8L349.98 421.22" stroke="none" fill="#000000" fill-rule="nonzero" /><path id="295" transform="matrix(1 0 0 -1 0 842)" d="M368.16 450.74L367.26 451.22L349.98 421.22L350.88 420.74" stroke="none" fill="#000000" fill-rule="nonzero" /><path id="296" transform="matrix(1 0 0 -1 0 842)" d="M340.68 407.48L351.18 407.48L351.18 418.7L340.68 418.7z" stroke="none" fill="#FFFFFF" fill-rule="nonzero" /><path id="298" transform="matrix(1 0 0 -1 0 842)" d="M453.18 495.98L465.18 495.98L465.18 506.48L453.18 506.48z" stroke="none" fill="#FFFFFF" fill-rule="nonzero" /><path id="300" transform="matrix(1 0 0 -1 0 842)" d="M444 441.56L444.36 441.86L443.76 442.64L443.4 442.34" stroke="none" fill="#000000" fill-rule="nonzero" /><path id="301" transform="matrix(1 0 0 -1 0 842)" d="M406.98 413.06L406.62 412.76L406.02 413.54L406.38 413.84" stroke="none" fill="#000000" fill-rule="nonzero" /><path id="302" transform="matrix(1 0 0 -1 0 842)" d="M444 441.56L443.4 442.34L406.38 413.84L406.98 413.06" stroke="none" fill="#000000" fill-rule="nonzero" /><path id="303" transform="matrix(1 0 0 -1 0 842)" d="M395.64 406.22L406.14 406.22L406.14 416.72L395.64 416.72z" stroke="none" fill="#FFFFFF" fill-rule="nonzero" /><path id="305" transform="matrix(1 0 0 -1 0 842)" d="M328.68 452.24L328.68 452.42L328.68 452.42L328.62 452.6L328.62 452.6L328.38 452.96L328.38 452.96L328.2 453.08L328.2 453.08L328.08 453.14L328.08 453.14L327.9 453.2L327.9 453.2L327.66 453.26L327.66 453.26L327.12 453.08L327.12 453.08L326.94 452.96L326.94 452.96L326.82 452.78L326.82 452.78L326.76 452.6L326.76 452.6L326.7 452.42L326.7 452.42L326.7 452.06L326.7 452.06L326.76 451.82L326.76 451.82L326.82 451.7L326.82 451.7L326.94 451.52L326.94 451.52L327.12 451.4L327.12 451.4L327.66 451.22L327.66 451.22L327.9 451.28L327.9 451.28L328.08 451.34L328.08 451.34L328.2 451.4L328.2 451.4L328.38 451.52L328.38 451.52L328.5 451.7L328.5 451.7L328.62 451.82L328.62 451.82L328.68 452.06L328.68 452.06L328.68 452.24" stroke="none" fill="#000000" fill-rule="evenodd" /><path id="306" transform="matrix(1 0 0 -1 0 842)" d="M327.72 452.24L327.72 456.8L328.5 456.32L334.74 452.66L335.58 452.24L334.74 451.76L328.5 448.1L327.72 447.62L327.72 448.58L327.96 449L334.2 452.66L334.74 451.76L334.2 451.76L327.96 455.42L328.5 456.32L328.74 455.9L328.74 452.24" stroke="none" fill="#000000" fill-rule="nonzero" /><path id="307" transform="matrix(1 0 0 -1 0 842)" d="M327.72 448.58L328.74 448.58L328.74 452.24L327.72 452.24z" stroke="none" fill="#000000" fill-rule="nonzero" /><path id="308" transform="matrix(1 0 0 -1 0 842)" d="M328.2 452.24L328.2 455.9L328.2 455.9L334.44 452.24L334.44 452.24L328.2 448.58" stroke="none" fill="#000000" fill-rule="evenodd" /><path id="309" transform="matrix(1 0 0 -1 0 842)" d="M315.78 451.22L316.74 451.22L316.74 453.2L315.78 453.2z" stroke="none" fill="#000000" fill-rule="nonzero" /><path id="310" transform="matrix(1 0 0 -1 0 842)" d="M316.74 451.22L328.62 451.22L328.62 453.2L316.74 453.2z" stroke="none" fill="#000000" fill-rule="nonzero" /><path id="311" transform="matrix(1 0 0 -1 0 842)" d="M398.04 442.34L398.4 442.7L397.68 443.42L397.32 443.06" stroke="none" fill="#000000" fill-rule="nonzero" /><path id="312" transform="matrix(1 0 0 -1 0 842)" d="M373.56 417.86L373.2 417.5L372.48 418.22L372.84 418.58" stroke="none" fill="#000000" fill-rule="nonzero" /><path id="313" transform="matrix(1 0 0 -1 0 842)" d="M398.04 442.34L397.32 443.06L372.84 418.58L373.56 417.86" stroke="none" fill="#000000" fill-rule="nonzero" /><path id="314" transform="matrix(1 0 0 -1 0 842)" d="M366.66 405.2L377.16 405.2L377.16 415.7L366.66 415.7z" stroke="none" fill="#FFFFFF" fill-rule="nonzero" /><path id="316" transform="matrix(1 0 0 -1 0 842)" d="M239.46 486.5L240.48 486.5L240.48 486.98L239.46 486.98z" stroke="none" fill="#000000" fill-rule="nonzero" /><path id="317" transform="matrix(1 0 0 -1 0 842)" d="M239.46 444.02L240.48 444.02L240.48 486.5L239.46 486.5z" stroke="none" fill="#000000" fill-rule="nonzero" /></g></g></g></g></svg>