<svg xmlns="http://www.w3.org/2000/svg" xmlns:xlink="http://www.w3.org/1999/xlink" id="body_259" preserveAspectRatio="xMinYMin meet" viewBox="0 0 793 1123"><defs><clipPath id="1"><path id="" clip-rule="evenodd" transform="matrix(1 0 0 1 0 0)" d="M0 842L0 0L0 0L595 0L595 0L595 842L595 842L0 842z" /></clipPath><clipPath id="2"><path id="" clip-rule="evenodd" transform="matrix(1 0 0 1 0 0)" d="M216.96 77.03998L367.5 77.03998L367.5 77.03998L367.5 206.04L367.5 206.04L216.96 206.04z" /></clipPath><clipPath id="3"><path id="" clip-rule="evenodd" transform="matrix(1 0 0 1 0 0)" d="M215.94 76.02002L368.52 76.02002L368.52 76.02002L368.52 207.06L368.52 207.06L215.94 207.06z" /></clipPath><clipPath id="4"><path id="" clip-rule="evenodd" transform="matrix(1 0 0 1 0 0)" d="M0 0.02001953L595.2 0.02001953L595.2 0.02001953L595.2 842L595.2 842L0 842z" /></clipPath><clipPath id="5"><path id="" clip-rule="evenodd" transform="matrix(1 0 0 1 0 0)" d="M215.94 76.02002L368.52 76.02002L368.52 76.02002L368.52 207.06L368.52 207.06L215.94 207.06z" /></clipPath><clipPath id="6"><path id="" clip-rule="evenodd" transform="matrix(1 0 0 1 0 0)" d="M0 0.02001953L595.2 0.02001953L595.2 0.02001953L595.2 842L595.2 842L0 842z" /></clipPath><clipPath id="7"><path id="" clip-rule="evenodd" transform="matrix(1 0 0 1 0 0)" d="M216.96 334.98L317.34 334.98L317.34 334.98L317.34 460.92L317.34 460.92L216.96 460.92z" /></clipPath><clipPath id="8"><path id="" clip-rule="evenodd" transform="matrix(1 0 0 1 0 0)" d="M215.94 330.06L547.14 330.06L547.14 330.06L547.14 457.98L547.14 457.98L215.94 457.98z" /></clipPath><clipPath id="9"><path id="" clip-rule="evenodd" transform="matrix(1 0 0 1 0 0)" d="M0 0.02001953L595.2 0.02001953L595.2 0.02001953L595.2 842L595.2 842L0 842z" /></clipPath><clipPath id="10"><path id="" clip-rule="evenodd" transform="matrix(1 0 0 1 0 0)" d="M353.34 334.98L505.08 334.98L505.08 334.98L505.08 452.22L505.08 452.22L353.34 452.22z" /></clipPath><clipPath id="11"><path id="" clip-rule="evenodd" transform="matrix(1 0 0 1 0 0)" d="M215.94 330.06L547.14 330.06L547.14 330.06L547.14 457.98L547.14 457.98L215.94 457.98z" /></clipPath><clipPath id="12"><path id="" clip-rule="evenodd" transform="matrix(1 0 0 1 0 0)" d="M0 0.02001953L595.2 0.02001953L595.2 0.02001953L595.2 842L595.2 842L0 842z" /></clipPath><clipPath id="13"><path id="" clip-rule="evenodd" transform="matrix(1 0 0 1 0 0)" d="M215.94 330.06L547.14 330.06L547.14 330.06L547.14 457.98L547.14 457.98L215.94 457.98z" /></clipPath><clipPath id="14"><path id="" clip-rule="evenodd" transform="matrix(1 0 0 1 0 0)" d="M0 0.02001953L595.2 0.02001953L595.2 0.02001953L595.2 842L595.2 842L0 842z" /></clipPath><clipPath id="15"><path id="" clip-rule="evenodd" transform="matrix(1 0 0 1 0 0)" d="M216.96 529.98L323.52 529.98L323.52 529.98L323.52 627.9L323.52 627.9L216.96 627.9z" /></clipPath><clipPath id="16"><path id="" clip-rule="evenodd" transform="matrix(1 0 0 1 0 0)" d="M215.94 528.96L324.48 528.96L324.48 528.96L324.48 628.92L324.48 628.92L215.94 628.92z" /></clipPath><clipPath id="17"><path id="" clip-rule="evenodd" transform="matrix(1 0 0 1 0 0)" d="M0 0.02001953L595.2 0.02001953L595.2 0.02001953L595.2 842L595.2 842L0 842z" /></clipPath><clipPath id="18"><path id="" clip-rule="evenodd" transform="matrix(1 0 0 1 0 0)" d="M215.94 528.96L324.48 528.96L324.48 528.96L324.48 628.92L324.48 628.92L215.94 628.92z" /></clipPath><clipPath id="19"><path id="" clip-rule="evenodd" transform="matrix(1 0 0 1 0 0)" d="M0 0.02001953L595.2 0.02001953L595.2 0.02001953L595.2 842L595.2 842L0 842z" /></clipPath></defs><g transform="matrix(1.333333 0 0 1.333333 0 0)"><g clip-path="url(#1)"><g clip-path="url(#2)"><g clip-path="url(#3)"><g clip-path="url(#4)"><g transform="matrix(0.4794267 0 0 0.4795539 216.96 77.03998)"><g transform="matrix(1 0 0 1 0 0)"><image x="0" y="0" xlink:href="img_791.png" width="314" height="269" /></g></g></g></g></g><g clip-path="url(#5)"><g clip-path="url(#6)"><path id="309" transform="matrix(1 0 0 -1 0 842)" d="M257.64 719.18L257.88 719.6L257.04 720.14L256.8 719.72" stroke="none" fill="#000000" fill-rule="nonzero" /><path id="310" transform="matrix(1 0 0 -1 0 842)" d="M226.14 668.18L225.9 667.76L225.06 668.3L225.3 668.72" stroke="none" fill="#000000" fill-rule="nonzero" /><path id="311" transform="matrix(1 0 0 -1 0 842)" d="M257.64 719.18L256.8 719.72L225.3 668.72L226.14 668.18" stroke="none" fill="#000000" fill-rule="nonzero" /><path id="312" transform="matrix(1 0 0 -1 0 842)" d="M218.94 651.98L239.94 651.98L239.94 663.2L218.94 663.2z" stroke="none" fill="#FFFFFF" fill-rule="nonzero" /><path id="315" transform="matrix(1 0 0 -1 0 842)" d="M295.8 685.7L296.04 686.12L295.2 686.66L294.96 686.24" stroke="none" fill="#000000" fill-rule="nonzero" /><path id="316" transform="matrix(1 0 0 -1 0 842)" d="M275.94 653.6L275.7 653.18L274.86 653.72L275.1 654.14" stroke="none" fill="#000000" fill-rule="nonzero" /><path id="317" transform="matrix(1 0 0 -1 0 842)" d="M295.8 685.7L294.96 686.24L275.1 654.14L275.94 653.6" stroke="none" fill="#000000" fill-rule="nonzero" /><path id="318" transform="matrix(1 0 0 -1 0 842)" d="M258.96 641.24L291.96 641.24L291.96 651.74L258.96 651.74z" stroke="none" fill="#FFFFFF" fill-rule="nonzero" /><path id="322" transform="matrix(1 0 0 -1 0 842)" d="M344.82 708.74L345.06 709.16L344.22 709.7L343.98 709.28" stroke="none" fill="#000000" fill-rule="nonzero" /><path id="323" transform="matrix(1 0 0 -1 0 842)" d="M324.96 676.58L324.72 676.16L323.88 676.7L324.12 677.12" stroke="none" fill="#000000" fill-rule="nonzero" /><path id="324" transform="matrix(1 0 0 -1 0 842)" d="M344.82 708.74L343.98 709.28L324.12 677.12L324.96 676.58" stroke="none" fill="#000000" fill-rule="nonzero" /><path id="325" transform="matrix(1 0 0 -1 0 842)" d="M337.98 709.7L361.2 709.7L361.2 731.48L337.98 731.48z" stroke="none" fill="#FFFFFF" fill-rule="nonzero" /></g></g><g clip-path="url(#7)"><g clip-path="url(#8)"><g clip-path="url(#9)"><g transform="matrix(0.4790334 0 0 0.4788593 216.96 334.98)"><g transform="matrix(1 0 0 1 0 0)"><image x="0" y="0" xlink:href="img_792.png" width="210" height="263" /></g></g></g></g></g><g clip-path="url(#10)"><g clip-path="url(#11)"><g clip-path="url(#12)"><g transform="matrix(0.4786751 0 0 0.4785306 353.34 334.98)"><g transform="matrix(1 0 0 1 0 0)"><image x="0" y="0" xlink:href="img_793.png" width="317" height="245" /></g></g></g></g></g><g clip-path="url(#13)"><g clip-path="url(#14)"><path id="331" transform="matrix(1 0 0 -1 0 842)" d="M334.32 440.24L334.32 444.38L334.98 444.2L347.1 440.72L348.78 440.24L347.1 439.76L334.98 436.28L334.32 436.1L334.32 436.76L334.68 437.24L346.8 440.72L347.1 439.76L346.8 439.76L334.68 443.24L334.98 444.2L335.34 443.72L335.34 440.24" stroke="none" fill="#000000" fill-rule="nonzero" /><path id="332" transform="matrix(1 0 0 -1 0 842)" d="M334.32 436.76L335.34 436.76L335.34 440.24L334.32 440.24z" stroke="none" fill="#000000" fill-rule="nonzero" /><path id="333" transform="matrix(1 0 0 -1 0 842)" d="M334.8 440.24L334.8 443.72L334.8 443.72L346.92 440.24L346.92 440.24L334.8 436.76" stroke="none" fill="#000000" fill-rule="evenodd" /><path id="334" transform="matrix(1 0 0 -1 0 842)" d="M320.46 439.7L320.94 439.7L320.94 440.72L320.46 440.72z" stroke="none" fill="#000000" fill-rule="nonzero" /><path id="335" transform="matrix(1 0 0 -1 0 842)" d="M320.94 439.7L334.8 439.7L334.8 440.72L320.94 440.72z" stroke="none" fill="#000000" fill-rule="nonzero" /><path id="336" transform="matrix(1 0 0 -1 0 842)" d="M310.02 492.92L306.72 493.94L306.06 494.24L306.42 494.72L313.26 505.28L314.22 506.78L314.22 504.98L314.04 492.44L313.98 491.72L313.38 491.9L313.02 492.38L313.2 504.98L314.22 504.98L314.1 504.74L307.26 494.18L306.42 494.72L307.02 494.96L310.32 493.94" stroke="none" fill="#000000" fill-rule="nonzero" /><path id="337" transform="matrix(1 0 0 -1 0 842)" d="M313.38 491.9L310.02 492.92L310.32 493.94L313.68 492.92" stroke="none" fill="#000000" fill-rule="nonzero" /><path id="338" transform="matrix(1 0 0 -1 0 842)" d="M310.14 493.4L306.84 494.42L306.84 494.42L313.68 504.98L313.68 504.98L313.5 492.38" stroke="none" fill="#000000" fill-rule="evenodd" /><path id="339" transform="matrix(1 0 0 -1 0 842)" d="M310.5 492.74L310.68 493.22L309.72 493.58L309.54 493.1" stroke="none" fill="#000000" fill-rule="nonzero" /><path id="340" transform="matrix(1 0 0 -1 0 842)" d="M310.5 492.74L310.26 492.08L310.26 492.02L309.96 491.3L309.66 490.64L309.66 490.58L309.3 489.98L309.24 489.98L308.4 488.78L308.4 488.72L307.44 487.64L307.38 487.58L306.3 486.62L305.7 486.14L305.64 486.14L305.04 485.72L304.38 485.3L303.78 484.88L303.72 484.82L303 484.46L302.34 484.1L302.28 484.1L300.78 483.5L299.28 482.96L299.22 482.96L296.1 482.12L296.04 482.06L294.42 481.82L292.74 481.58L292.68 482.6L292.62 482.6L294.3 482.84L295.92 483.08L295.86 483.08L298.98 483.92L298.92 483.92L300.42 484.46L301.92 485.06L301.86 485L302.52 485.36L303.24 485.72L303.18 485.72L303.78 486.14L303.84 486.14L304.5 486.56L304.44 486.56L305.04 486.98L305.04 486.92L305.64 487.4L306.72 488.36L306.66 488.3L307.62 489.38L307.56 489.38L308.4 490.58L308.4 490.52L308.76 491.12L308.76 491.06L309.06 491.72L309 491.72L309.3 492.44L309.54 493.1" stroke="none" fill="#000000" fill-rule="nonzero" /><path id="341" transform="matrix(1 0 0 -1 0 842)" d="M292.74 481.58L291.12 481.46L291.06 481.46L291.06 482.48L292.68 482.6" stroke="none" fill="#000000" fill-rule="nonzero" /><path id="342" transform="matrix(1 0 0 -1 0 842)" d="M288.96 481.46L291.06 481.46L291.06 482.48L288.96 482.48z" stroke="none" fill="#000000" fill-rule="nonzero" /><path id="343" transform="matrix(1 0 0 -1 0 842)" d="M480 488.96L503.1 488.96L503.1 500.96L480 500.96z" stroke="none" fill="#FFFFFF" fill-rule="nonzero" /><path id="346" transform="matrix(1 0 0 -1 0 842)" d="M447.36 459.32L447 458.96L447.72 458.24L448.08 458.6" stroke="none" fill="#000000" fill-rule="nonzero" /><path id="347" transform="matrix(1 0 0 -1 0 842)" d="M478.86 490.82L479.22 491.18L479.94 490.46L479.58 490.1" stroke="none" fill="#000000" fill-rule="nonzero" /><path id="348" transform="matrix(1 0 0 -1 0 842)" d="M447.36 459.32L448.08 458.6L479.58 490.1L478.86 490.82" stroke="none" fill="#000000" fill-rule="nonzero" /><path id="349" transform="matrix(1 0 0 -1 0 842)" d="M404.58 464.12L404.22 463.76L404.94 463.04L405.3 463.4" stroke="none" fill="#000000" fill-rule="nonzero" /><path id="350" transform="matrix(1 0 0 -1 0 842)" d="M432.36 491.84L432.72 492.2L433.44 491.48L433.08 491.12" stroke="none" fill="#000000" fill-rule="nonzero" /><path id="351" transform="matrix(1 0 0 -1 0 842)" d="M404.58 464.12L405.3 463.4L433.08 491.12L432.36 491.84" stroke="none" fill="#000000" fill-rule="nonzero" /><path id="352" transform="matrix(1 0 0 -1 0 842)" d="M432.96 481.76L462.96 481.76L462.96 504.98L432.96 504.98z" stroke="none" fill="#FFFFFF" fill-rule="nonzero" /></g></g><g clip-path="url(#15)"><g clip-path="url(#16)"><g clip-path="url(#17)"><g transform="matrix(0.4788745 0 0 0.48 216.96 529.98)"><g transform="matrix(1 0 0 1 0 0)"><image x="0" y="0" xlink:href="img_794.png" width="223" height="204" /></g></g></g></g></g><g clip-path="url(#18)"><g clip-path="url(#19)"><path id="358" transform="matrix(1 0 0 -1 0 842)" d="M242.22 290.18L241.98 290.18L241.98 290.18L241.8 290.12L241.8 290.12L241.68 290L241.68 290L241.5 289.88L241.5 289.88L241.38 289.76L241.38 289.76L241.26 289.58L241.26 289.58L241.26 289.4L241.26 289.4L241.2 289.22L241.2 289.22L241.26 288.98L241.26 288.98L241.26 288.8L241.26 288.8L241.38 288.62L241.38 288.62L241.5 288.5L241.5 288.5L241.68 288.38L241.68 288.38L241.8 288.26L241.8 288.26L241.98 288.2L241.98 288.2L242.4 288.2L242.4 288.2L242.58 288.26L242.58 288.26L242.94 288.5L242.94 288.5L243.06 288.62L243.06 288.62L243.18 288.98L243.18 288.98L243.24 289.22L243.24 289.22L243.18 289.4L243.18 289.4L243.12 289.58L243.12 289.58L243.06 289.76L243.06 289.76L242.94 289.88L242.94 289.88L242.58 290.12L242.58 290.12L242.4 290.18L242.4 290.18L242.22 290.18" stroke="none" fill="#000000" fill-rule="evenodd" /><path id="359" transform="matrix(1 0 0 -1 0 842)" d="M242.22 289.22L237.24 289.22L237.42 289.88L241.74 304.88L242.22 306.56L242.7 304.88L246.96 289.88L247.14 289.22L246.48 289.22L246 289.58L241.74 304.58L242.7 304.88L242.7 304.58L238.38 289.58L237.42 289.88L237.9 290.24L242.22 290.24" stroke="none" fill="#000000" fill-rule="nonzero" /><path id="360" transform="matrix(1 0 0 -1 0 842)" d="M242.22 289.22L246.48 289.22L246.48 290.24L242.22 290.24z" stroke="none" fill="#000000" fill-rule="nonzero" /><path id="361" transform="matrix(1 0 0 -1 0 842)" d="M242.22 289.7L237.9 289.7L237.9 289.7L242.22 304.7L242.22 304.7L246.48 289.7" stroke="none" fill="#000000" fill-rule="evenodd" /><path id="362" transform="matrix(1 0 0 -1 0 842)" d="M241.26 256.04L243.24 256.04L243.24 257L241.26 257z" stroke="none" fill="#000000" fill-rule="nonzero" /><path id="363" transform="matrix(1 0 0 -1 0 842)" d="M241.26 257L243.24 257L243.24 290.18L241.26 290.18z" stroke="none" fill="#000000" fill-rule="nonzero" /></g></g></g></g></svg>