<svg xmlns="http://www.w3.org/2000/svg" xmlns:xlink="http://www.w3.org/1999/xlink" id="body_23" preserveAspectRatio="xMinYMin meet" viewBox="0 0 793 1123"><defs><clipPath id="1"><path id="" clip-rule="evenodd" transform="matrix(1 0 0 1 0 0)" d="M0 842L0 0L0 0L595 0L595 0L595 842L595 842L0 842z" /></clipPath><clipPath id="2"><path id="" clip-rule="evenodd" transform="matrix(1 0 0 1 0 0)" d="M225.96 427.92L541.08 427.92L541.08 427.92L541.08 676.32L541.08 676.32L225.96 676.32z" /></clipPath><clipPath id="3"><path id="" clip-rule="evenodd" transform="matrix(1 0 0 1 0 0)" d="M224.94 407.94L542.1 407.94L542.1 407.94L542.1 695.52L542.1 695.52L224.94 695.52z" /></clipPath><clipPath id="4"><path id="" clip-rule="evenodd" transform="matrix(1 0 0 1 0 0)" d="M0 0.02001953L595.2 0.02001953L595.2 0.02001953L595.2 842L595.2 842L0 842z" /></clipPath><clipPath id="5"><path id="" clip-rule="evenodd" transform="matrix(1 0 0 1 0 0)" d="M224.94 407.94L542.1 407.94L542.1 407.94L542.1 695.52L542.1 695.52L224.94 695.52z" /></clipPath><clipPath id="6"><path id="" clip-rule="evenodd" transform="matrix(1 0 0 1 0 0)" d="M0 0.02001953L595.2 0.02001953L595.2 0.02001953L595.2 842L595.2 842L0 842z" /></clipPath></defs><g transform="matrix(1.333333 0 0 1.333333 0 0)"><g clip-path="url(#1)"><g clip-path="url(#2)"><g clip-path="url(#3)"><g clip-path="url(#4)"><g transform="matrix(0.4796347 0 0 0.4795367 225.96 427.92)"><g transform="matrix(1 0 0 1 0 0)"><image x="0" y="0" xlink:href="img_43.png" width="657" height="518" /></g></g></g></g></g><g clip-path="url(#5)"><g clip-path="url(#6)"><path id="419" transform="matrix(1 0 0 -1 0 842)" d="M476.46 397.4L477.48 397.4L477.48 422.84L476.46 422.84z" stroke="none" fill="#000000" fill-rule="nonzero" /><path id="424" transform="matrix(1 0 0 -1 0 842)" d="M287.7 362.36L288.72 362.36L288.72 422.84L287.7 422.84z" stroke="none" fill="#000000" fill-rule="nonzero" /><path id="436" transform="matrix(1 0 0 -1 0 842)" d="M268.86 159.2L269.88 159.2L269.88 238.16L268.86 238.16z" stroke="none" fill="#000000" fill-rule="nonzero" /><path id="462" transform="matrix(1 0 0 -1 0 842)" d="M396.9 160.4L397.92 160.4L397.92 160.88L396.9 160.88z" stroke="none" fill="#000000" fill-rule="nonzero" /><path id="463" transform="matrix(1 0 0 -1 0 842)" d="M396.9 160.88L397.92 160.88L397.92 234.92L396.9 234.92z" stroke="none" fill="#000000" fill-rule="nonzero" /><path id="464" transform="matrix(1 0 0 -1 0 842)" d="M475.86 160.4L476.88 160.4L476.88 160.88L475.86 160.88z" stroke="none" fill="#000000" fill-rule="nonzero" /><path id="465" transform="matrix(1 0 0 -1 0 842)" d="M475.86 160.88L476.88 160.88L476.88 276.92L475.86 276.92z" stroke="none" fill="#000000" fill-rule="nonzero" /><path id="466" transform="matrix(1 0 0 -1 0 842)" d="M369.3 423.2L370.32 423.2L370.32 423.68L369.3 423.68z" stroke="none" fill="#000000" fill-rule="nonzero" /><path id="467" transform="matrix(1 0 0 -1 0 842)" d="M369.3 378.2L370.32 378.2L370.32 423.2L369.3 423.2z" stroke="none" fill="#000000" fill-rule="nonzero" /><path id="473" transform="matrix(1 0 0 -1 0 842)" d="M344.46 162.26L344.28 161.78L345.24 161.36L345.42 161.84" stroke="none" fill="#000000" fill-rule="nonzero" /><path id="474" transform="matrix(1 0 0 -1 0 842)" d="M385.26 254.06L385.44 254.54L386.4 254.12L386.22 253.64" stroke="none" fill="#000000" fill-rule="nonzero" /><path id="475" transform="matrix(1 0 0 -1 0 842)" d="M344.46 162.26L345.42 161.84L386.22 253.64L385.26 254.06" stroke="none" fill="#000000" fill-rule="nonzero" /></g></g></g></g></svg>