<svg xmlns="http://www.w3.org/2000/svg" xmlns:xlink="http://www.w3.org/1999/xlink" id="body_16" preserveAspectRatio="xMinYMin meet" viewBox="0 0 793 1123"><defs><clipPath id="1"><path id="" clip-rule="evenodd" transform="matrix(1 0 0 1 0 0)" d="M0 842L0 0L0 0L595 0L595 0L595 842L595 842L0 842z" /></clipPath><clipPath id="2"><path id="" clip-rule="evenodd" transform="matrix(1 0 0 1 0 0)" d="M216.96 143.04L529.5 143.04L529.5 143.04L529.5 402.24L529.5 402.24L216.96 402.24z" /></clipPath><clipPath id="3"><path id="" clip-rule="evenodd" transform="matrix(1 0 0 1 0 0)" d="M215.94 142.02L530.46 142.02L530.46 142.02L530.46 430.8L530.46 430.8L215.94 430.8z" /></clipPath><clipPath id="4"><path id="" clip-rule="evenodd" transform="matrix(1 0 0 1 0 0)" d="M0 0.02001953L595.2 0.02001953L595.2 0.02001953L595.2 842L595.2 842L0 842z" /></clipPath><clipPath id="5"><path id="" clip-rule="evenodd" transform="matrix(1 0 0 1 0 0)" d="M215.94 142.02L530.46 142.02L530.46 142.02L530.46 430.8L530.46 430.8L215.94 430.8z" /></clipPath><clipPath id="6"><path id="" clip-rule="evenodd" transform="matrix(1 0 0 1 0 0)" d="M0 0.02001953L595.2 0.02001953L595.2 0.02001953L595.2 842L595.2 842L0 842z" /></clipPath></defs><g transform="matrix(1.333333 0 0 1.333333 0 0)"><g clip-path="url(#1)"><g clip-path="url(#2)"><g clip-path="url(#3)"><g clip-path="url(#4)"><g transform="matrix(0.4793558 0 0 0.48 216.96 143.04)"><g transform="matrix(1 0 0 1 0 0)"><image x="0" y="0" xlink:href="img_29.png" width="652" height="540" /></g></g></g></g></g><g clip-path="url(#5)"><g clip-path="url(#6)"><path id="408" transform="matrix(1 0 0 -1 0 842)" d="M376.26 425.48L377.28 425.48L377.28 425.96L376.26 425.96z" stroke="none" fill="#000000" fill-rule="nonzero" /><path id="409" transform="matrix(1 0 0 -1 0 842)" d="M375.66 464.36L376.68 464.36L376.68 464.84L375.66 464.84z" stroke="none" fill="#000000" fill-rule="nonzero" /><path id="410" transform="matrix(1 0 0 -1 0 842)" d="M376.26 425.96L377.28 425.96L376.68 464.36L375.66 464.36" stroke="none" fill="#000000" fill-rule="nonzero" /><path id="415" transform="matrix(1 0 0 -1 0 842)" d="M456.3 425.48L457.32 425.48L457.32 425.96L456.3 425.96z" stroke="none" fill="#000000" fill-rule="nonzero" /><path id="416" transform="matrix(1 0 0 -1 0 842)" d="M454.92 482.18L455.94 482.18L455.94 482.66L454.92 482.66z" stroke="none" fill="#000000" fill-rule="nonzero" /><path id="417" transform="matrix(1 0 0 -1 0 842)" d="M456.3 425.96L457.32 425.96L455.94 482.18L454.92 482.18" stroke="none" fill="#000000" fill-rule="nonzero" /></g></g></g></g></svg>