<svg xmlns="http://www.w3.org/2000/svg" xmlns:xlink="http://www.w3.org/1999/xlink" id="body_248" preserveAspectRatio="xMinYMin meet" viewBox="0 0 793 1123"><defs><clipPath id="1"><path id="" clip-rule="evenodd" transform="matrix(1 0 0 1 0 0)" d="M0 842L0 0L0 0L595 0L595 0L595 842L595 842L0 842z" /></clipPath><clipPath id="2"><path id="" clip-rule="evenodd" transform="matrix(1 0 0 1 0 0)" d="M225.96 77.09998L360.96 77.09998L360.96 77.09998L360.96 203.8199L360.96 203.8199L225.96 203.8199z" /></clipPath><clipPath id="3"><path id="" clip-rule="evenodd" transform="matrix(1 0 0 1 0 0)" d="M224.94 76.02002L540.3 76.02002L540.3 76.02002L540.3 204.84L540.3 204.84L224.94 204.84z" /></clipPath><clipPath id="4"><path id="" clip-rule="evenodd" transform="matrix(1 0 0 1 0 0)" d="M0 0.02001953L595.2 0.02001953L595.2 0.02001953L595.2 842L595.2 842L0 842z" /></clipPath><clipPath id="5"><path id="" clip-rule="evenodd" transform="matrix(1 0 0 1 0 0)" d="M397.14 77.03998L539.28 77.03998L539.28 77.03998L539.28 203.88L539.28 203.88L397.14 203.88z" /></clipPath><clipPath id="6"><path id="" clip-rule="evenodd" transform="matrix(1 0 0 1 0 0)" d="M224.94 76.02002L540.3 76.02002L540.3 76.02002L540.3 204.84L540.3 204.84L224.94 204.84z" /></clipPath><clipPath id="7"><path id="" clip-rule="evenodd" transform="matrix(1 0 0 1 0 0)" d="M0 0.02001953L595.2 0.02001953L595.2 0.02001953L595.2 842L595.2 842L0 842z" /></clipPath><clipPath id="8"><path id="" clip-rule="evenodd" transform="matrix(1 0 0 1 0 0)" d="M224.94 76.02002L540.3 76.02002L540.3 76.02002L540.3 204.84L540.3 204.84L224.94 204.84z" /></clipPath><clipPath id="9"><path id="" clip-rule="evenodd" transform="matrix(1 0 0 1 0 0)" d="M0 0.02001953L595.2 0.02001953L595.2 0.02001953L595.2 842L595.2 842L0 842z" /></clipPath><clipPath id="10"><path id="" clip-rule="evenodd" transform="matrix(1 0 0 1 0 0)" d="M45.96 301.92L190.14 301.92L190.14 301.92L190.14 439.62L190.14 439.62L45.96 439.62z" /></clipPath><clipPath id="11"><path id="" clip-rule="evenodd" transform="matrix(1 0 0 1 0 0)" d="M44.94 300.84L552.9 300.84L552.9 300.84L552.9 440.7L552.9 440.7L44.94 440.7z" /></clipPath><clipPath id="12"><path id="" clip-rule="evenodd" transform="matrix(1 0 0 1 0 0)" d="M0 0.02001953L595.2 0.02001953L595.2 0.02001953L595.2 842L595.2 842L0 842z" /></clipPath><clipPath id="13"><path id="" clip-rule="evenodd" transform="matrix(1 0 0 1 0 0)" d="M227.04 301.86L373.74 301.86L373.74 301.86L373.74 439.68L373.74 439.68L227.04 439.68z" /></clipPath><clipPath id="14"><path id="" clip-rule="evenodd" transform="matrix(1 0 0 1 0 0)" d="M44.94 300.84L552.9 300.84L552.9 300.84L552.9 440.7L552.9 440.7L44.94 440.7z" /></clipPath><clipPath id="15"><path id="" clip-rule="evenodd" transform="matrix(1 0 0 1 0 0)" d="M0 0.02001953L595.2 0.02001953L595.2 0.02001953L595.2 842L595.2 842L0 842z" /></clipPath><clipPath id="16"><path id="" clip-rule="evenodd" transform="matrix(1 0 0 1 0 0)" d="M413.46 301.86L551.88 301.86L551.88 301.86L551.88 439.68L551.88 439.68L413.46 439.68z" /></clipPath><clipPath id="17"><path id="" clip-rule="evenodd" transform="matrix(1 0 0 1 0 0)" d="M44.94 300.84L552.9 300.84L552.9 300.84L552.9 440.7L552.9 440.7L44.94 440.7z" /></clipPath><clipPath id="18"><path id="" clip-rule="evenodd" transform="matrix(1 0 0 1 0 0)" d="M0 0.02001953L595.2 0.02001953L595.2 0.02001953L595.2 842L595.2 842L0 842z" /></clipPath><clipPath id="19"><path id="" clip-rule="evenodd" transform="matrix(1 0 0 1 0 0)" d="M44.94 300.84L552.9 300.84L552.9 300.84L552.9 440.7L552.9 440.7L44.94 440.7z" /></clipPath><clipPath id="20"><path id="" clip-rule="evenodd" transform="matrix(1 0 0 1 0 0)" d="M0 0.02001953L595.2 0.02001953L595.2 0.02001953L595.2 842L595.2 842L0 842z" /></clipPath></defs><g transform="matrix(1.333333 0 0 1.333333 0 0)"><g clip-path="url(#1)"><g clip-path="url(#2)"><g clip-path="url(#3)"><g clip-path="url(#4)"><g transform="matrix(0.4787234 0 0 0.48 225.96 77.09998)"><g transform="matrix(1 0 0 1 0 0)"><image x="0" y="0" xlink:href="img_714.png" width="282" height="264" /></g></g></g></g></g><g clip-path="url(#5)"><g clip-path="url(#6)"><g clip-path="url(#7)"><g transform="matrix(0.4785858 0 0 0.4786415 397.14 77.04004)"><g transform="matrix(1 0 0 1 0 0)"><image x="0" y="0" xlink:href="img_715.png" width="297" height="265" /></g></g></g></g></g><g clip-path="url(#8)"><g clip-path="url(#9)"><path id="294" transform="matrix(1 0 0 -1 0 842)" d="M388.98 701.54L388.98 705.32L389.76 704.84L394.74 701.96L395.58 701.54L394.74 701.06L389.76 698.18L388.98 697.7L388.98 698.66L389.22 699.08L394.2 701.96L394.74 701.06L394.2 701.06L389.22 703.94L389.76 704.84L390 704.42L390 701.54" stroke="none" fill="#000000" fill-rule="nonzero" /><path id="295" transform="matrix(1 0 0 -1 0 842)" d="M388.98 698.66L390 698.66L390 701.54L388.98 701.54z" stroke="none" fill="#000000" fill-rule="nonzero" /><path id="296" transform="matrix(1 0 0 -1 0 842)" d="M389.46 701.54L389.46 704.42L389.46 704.42L394.44 701.54L394.44 701.54L389.46 698.66" stroke="none" fill="#000000" fill-rule="evenodd" /><path id="297" transform="matrix(1 0 0 -1 0 842)" d="M363.48 701L363.96 701L363.96 702.02L363.48 702.02z" stroke="none" fill="#000000" fill-rule="nonzero" /><path id="298" transform="matrix(1 0 0 -1 0 842)" d="M363.96 701L389.46 701L389.46 702.02L363.96 702.02z" stroke="none" fill="#000000" fill-rule="nonzero" /></g></g><g clip-path="url(#10)"><g clip-path="url(#11)"><g clip-path="url(#12)"><g transform="matrix(0.4790033 0 0 0.4797909 45.96 301.92)"><g transform="matrix(1 0 0 1 0 0)"><image x="0" y="0" xlink:href="img_716.png" width="301" height="287" /></g></g></g></g></g><g clip-path="url(#13)"><g clip-path="url(#14)"><g clip-path="url(#15)"><g transform="matrix(0.4794118 0 0 0.4802091 227.04 301.86)"><g transform="matrix(1 0 0 1 0 0)"><image x="0" y="0" xlink:href="img_717.png" width="306" height="287" /></g></g></g></g></g><g clip-path="url(#16)"><g clip-path="url(#17)"><g clip-path="url(#18)"><g transform="matrix(0.4789619 0 0 0.4802091 413.46 301.86)"><g transform="matrix(1 0 0 1 0 0)"><image x="0" y="0" xlink:href="img_718.png" width="289" height="287" /></g></g></g></g></g><g clip-path="url(#19)"><g clip-path="url(#20)"><path id="314" transform="matrix(1 0 0 -1 0 842)" d="M217.74 471.26L217.74 475.04L218.52 474.56L223.5 471.68L224.34 471.26L223.5 470.78L218.52 467.84L217.74 467.36L217.74 468.32L217.98 468.74L222.96 471.68L223.5 470.78L222.96 470.78L217.98 473.66L218.52 474.56L218.76 474.14L218.76 471.26" stroke="none" fill="#000000" fill-rule="nonzero" /><path id="315" transform="matrix(1 0 0 -1 0 842)" d="M217.74 468.32L218.76 468.32L218.76 471.26L217.74 471.26z" stroke="none" fill="#000000" fill-rule="nonzero" /><path id="316" transform="matrix(1 0 0 -1 0 842)" d="M218.22 471.26L218.22 474.14L218.22 474.14L223.2 471.26L223.2 471.26L218.22 468.32" stroke="none" fill="#000000" fill-rule="evenodd" /><path id="317" transform="matrix(1 0 0 -1 0 842)" d="M192.24 470.72L192.72 470.72L192.72 471.74L192.24 471.74z" stroke="none" fill="#000000" fill-rule="nonzero" /><path id="318" transform="matrix(1 0 0 -1 0 842)" d="M192.72 470.72L218.22 470.72L218.22 471.74L192.72 471.74z" stroke="none" fill="#000000" fill-rule="nonzero" /><path id="319" transform="matrix(1 0 0 -1 0 842)" d="M402.72 471.26L402.72 474.98L403.44 474.56L408.48 471.68L409.26 471.2L403.5 467.84L402.72 467.36L402.72 468.32L402.96 468.74L408 471.68L408.54 470.78L408 470.78L402.96 473.66L403.44 474.56L403.74 474.14L403.74 471.26" stroke="none" fill="#000000" fill-rule="nonzero" /><path id="320" transform="matrix(1 0 0 -1 0 842)" d="M402.72 468.32L403.74 468.32L403.74 471.26L402.72 471.26z" stroke="none" fill="#000000" fill-rule="nonzero" /><path id="321" transform="matrix(1 0 0 -1 0 842)" d="M403.2 471.26L403.2 474.14L403.2 474.14L408.24 471.26L408.24 471.26L403.2 468.32" stroke="none" fill="#000000" fill-rule="evenodd" /><path id="322" transform="matrix(1 0 0 -1 0 842)" d="M377.22 470.72L377.7 470.72L377.7 471.74L377.22 471.74z" stroke="none" fill="#000000" fill-rule="nonzero" /><path id="323" transform="matrix(1 0 0 -1 0 842)" d="M377.7 470.72L403.2 470.72L403.2 471.74L377.7 471.74z" stroke="none" fill="#000000" fill-rule="nonzero" /></g></g></g></g></svg>