<svg xmlns="http://www.w3.org/2000/svg" xmlns:xlink="http://www.w3.org/1999/xlink" id="body_146" preserveAspectRatio="xMinYMin meet" viewBox="0 0 793 1123"><defs><clipPath id="1"><path id="" clip-rule="evenodd" transform="matrix(1 0 0 1 0 0)" d="M0 842L0 0L0 0L595 0L595 0L595 842L595 842L0 842z" /></clipPath><clipPath id="2"><path id="" clip-rule="evenodd" transform="matrix(1 0 0 1 0 0)" d="M329.76 401.94L435.18 401.94L435.18 401.94L435.18 421.44L435.18 421.44L329.76 421.44z" /></clipPath><clipPath id="3"><path id="" clip-rule="evenodd" transform="matrix(1 0 0 1 0 0)" d="M0 0.02001953L595.2 0.02001953L595.2 0.02001953L595.2 842L595.2 842L0 842z" /></clipPath><clipPath id="4"><path id="" clip-rule="evenodd" transform="matrix(1 0 0 1 0 0)" d="M325.08 531.42L439.86 531.42L439.86 531.42L439.86 550.92L439.86 550.92L325.08 550.92z" /></clipPath><clipPath id="5"><path id="" clip-rule="evenodd" transform="matrix(1 0 0 1 0 0)" d="M0 0.02001953L595.2 0.02001953L595.2 0.02001953L595.2 842L595.2 842L0 842z" /></clipPath><clipPath id="6"><path id="" clip-rule="evenodd" transform="matrix(1 0 0 1 0 0)" d="M302.58 586.92L462.36 586.92L462.36 586.92L462.36 609.24L462.36 609.24L302.58 609.24z" /></clipPath><clipPath id="7"><path id="" clip-rule="evenodd" transform="matrix(1 0 0 1 0 0)" d="M0 0.02001953L595.2 0.02001953L595.2 0.02001953L595.2 842L595.2 842L0 842z" /></clipPath><clipPath id="8"><path id="" clip-rule="evenodd" transform="matrix(1 0 0 1 0 0)" d="M282.66 621.24L482.28 621.24L482.28 621.24L482.28 643.62L482.28 643.62L282.66 643.62z" /></clipPath><clipPath id="9"><path id="" clip-rule="evenodd" transform="matrix(1 0 0 1 0 0)" d="M0 0.02001953L595.2 0.02001953L595.2 0.02001953L595.2 842L595.2 842L0 842z" /></clipPath><clipPath id="10"><path id="" clip-rule="evenodd" transform="matrix(1 0 0 1 0 0)" d="M312.72 677.58L450.18 677.58L450.18 677.58L450.18 697.08L450.18 697.08L312.72 697.08z" /></clipPath><clipPath id="11"><path id="" clip-rule="evenodd" transform="matrix(1 0 0 1 0 0)" d="M0 0.02001953L595.2 0.02001953L595.2 0.02001953L595.2 842L595.2 842L0 842z" /></clipPath><clipPath id="12"><path id="" clip-rule="evenodd" transform="matrix(1 0 0 1 0 0)" d="M264 733.08L500.94 733.08L500.94 733.08L500.94 755.46L500.94 755.46L264 755.46z" /></clipPath><clipPath id="13"><path id="" clip-rule="evenodd" transform="matrix(1 0 0 1 0 0)" d="M0 0.02001953L595.2 0.02001953L595.2 0.02001953L595.2 842L595.2 842L0 842z" /></clipPath></defs><g transform="matrix(1.333333 0 0 1.333333 0 0)"><g clip-path="url(#1)"><path id="402" transform="matrix(1 0 0 -1 0 842)" d="M215.94 638L549 638L549 562.04L215.94 562.04" stroke="none" fill="#ECF5FC" fill-rule="nonzero" /><g clip-path="url(#2)"><g clip-path="url(#3)"></g></g><g clip-path="url(#4)"><g clip-path="url(#5)"></g></g><g clip-path="url(#6)"><g clip-path="url(#7)"></g></g><g clip-path="url(#8)"><g clip-path="url(#9)"></g></g><g clip-path="url(#10)"><g clip-path="url(#11)"></g></g><g clip-path="url(#12)"><g clip-path="url(#13)"></g></g></g></g></svg>