<svg xmlns="http://www.w3.org/2000/svg" xmlns:xlink="http://www.w3.org/1999/xlink" id="body_211" preserveAspectRatio="xMinYMin meet" viewBox="0 0 793 1123"><defs><clipPath id="1"><path id="" clip-rule="evenodd" transform="matrix(1 0 0 1 0 0)" d="M0 842L0 0L0 0L595 0L595 0L595 842L595 842L0 842z" /></clipPath><clipPath id="2"><path id="" clip-rule="evenodd" transform="matrix(1 0 0 1 0 0)" d="M216.96 77.03998L414.12 77.03998L414.12 77.03998L414.12 253.14L414.12 253.14L216.96 253.14z" /></clipPath><clipPath id="3"><path id="" clip-rule="evenodd" transform="matrix(1 0 0 1 0 0)" d="M215.94 76.02002L415.08 76.02002L415.08 76.02002L415.08 254.1L415.08 254.1L215.94 254.1z" /></clipPath><clipPath id="4"><path id="" clip-rule="evenodd" transform="matrix(1 0 0 1 0 0)" d="M0 0.02001953L595.2 0.02001953L595.2 0.02001953L595.2 842L595.2 842L0 842z" /></clipPath><clipPath id="5"><path id="" clip-rule="evenodd" transform="matrix(1 0 0 1 0 0)" d="M215.94 76.02002L415.08 76.02002L415.08 76.02002L415.08 254.1L415.08 254.1L215.94 254.1z" /></clipPath><clipPath id="6"><path id="" clip-rule="evenodd" transform="matrix(1 0 0 1 0 0)" d="M0 0.02001953L595.2 0.02001953L595.2 0.02001953L595.2 842L595.2 842L0 842z" /></clipPath><clipPath id="7"><path id="" clip-rule="evenodd" transform="matrix(1 0 0 1 0 0)" d="M36.96 373.68L233.28 373.68L233.28 373.68L233.28 522.48L233.28 522.48L36.96 522.48z" /></clipPath><clipPath id="8"><path id="" clip-rule="evenodd" transform="matrix(1 0 0 1 0 0)" d="M35.94 341.1L413.7 341.1L413.7 341.1L413.7 555.06L413.7 555.06L35.94 555.06z" /></clipPath><clipPath id="9"><path id="" clip-rule="evenodd" transform="matrix(1 0 0 1 0 0)" d="M0 0.02001953L595.2 0.02001953L595.2 0.02001953L595.2 842L595.2 842L0 842z" /></clipPath><clipPath id="10"><path id="" clip-rule="evenodd" transform="matrix(1 0 0 1 0 0)" d="M240.36 342.12L412.74 342.12L412.74 342.12L412.74 554.1L412.74 554.1L240.36 554.1z" /></clipPath><clipPath id="11"><path id="" clip-rule="evenodd" transform="matrix(1 0 0 1 0 0)" d="M35.94 341.1L413.7 341.1L413.7 341.1L413.7 555.06L413.7 555.06L35.94 555.06z" /></clipPath><clipPath id="12"><path id="" clip-rule="evenodd" transform="matrix(1 0 0 1 0 0)" d="M0 0.02001953L595.2 0.02001953L595.2 0.02001953L595.2 842L595.2 842L0 842z" /></clipPath><clipPath id="13"><path id="" clip-rule="evenodd" transform="matrix(1 0 0 1 0 0)" d="M35.94 341.1L413.7 341.1L413.7 341.1L413.7 555.06L413.7 555.06L35.94 555.06z" /></clipPath><clipPath id="14"><path id="" clip-rule="evenodd" transform="matrix(1 0 0 1 0 0)" d="M0 0.02001953L595.2 0.02001953L595.2 0.02001953L595.2 842L595.2 842L0 842z" /></clipPath></defs><g transform="matrix(1.333333 0 0 1.333333 0 0)"><g clip-path="url(#1)"><g clip-path="url(#2)"><g clip-path="url(#3)"><g clip-path="url(#4)"><g transform="matrix(0.479708 0 0 0.4785326 216.96 77.04004)"><g transform="matrix(1 0 0 1 0 0)"><image x="0" y="0" xlink:href="img_560.png" width="411" height="368" /></g></g></g></g></g><g clip-path="url(#5)"><g clip-path="url(#6)"><path id="231" transform="matrix(1 0 0 -1 0 842)" d="M218.04 742.28L275.94 742.28L275.94 753.86L218.04 753.86z" stroke="none" fill="#FFFFFF" fill-rule="nonzero" /><path id="237" transform="matrix(1 0 0 -1 0 842)" d="M220.08 594.26L247.08 594.26L247.08 615.26L220.08 615.26z" stroke="none" fill="#FFFFFF" fill-rule="nonzero" /><path id="242" transform="matrix(1 0 0 -1 0 842)" d="M246.84 602.48L247.8 602.48L247.8 604.46L246.84 604.46z" stroke="none" fill="#000000" fill-rule="nonzero" /><path id="243" transform="matrix(1 0 0 -1 0 842)" d="M247.8 602.48L302.76 602.48L302.76 604.46L247.8 604.46z" stroke="none" fill="#000000" fill-rule="nonzero" /><path id="244" transform="matrix(1 0 0 -1 0 842)" d="M320.22 747.98L320.04 747.92L320.04 747.92L319.8 747.86L319.8 747.86L319.68 747.8L319.68 747.8L319.5 747.68L319.5 747.68L319.38 747.5L319.38 747.5L319.2 746.96L319.2 746.96L319.26 746.78L319.26 746.78L319.32 746.54L319.32 746.54L319.38 746.42L319.38 746.42L319.5 746.24L319.5 746.24L319.68 746.12L319.68 746.12L319.8 746.06L319.8 746.06L320.04 746L320.04 746L320.22 745.94L320.22 745.94L320.76 746.12L320.76 746.12L320.94 746.24L320.94 746.24L321.06 746.42L321.06 746.42L321.12 746.54L321.12 746.54L321.18 746.78L321.18 746.78L321.24 746.96L321.24 746.96L321.18 747.14L321.18 747.14L321.12 747.32L321.12 747.32L321.06 747.5L321.06 747.5L320.94 747.68L320.94 747.68L320.76 747.8L320.76 747.8L320.58 747.86L320.58 747.86L320.4 747.92L320.4 747.92L320.22 747.98" stroke="none" fill="#000000" fill-rule="evenodd" /><path id="245" transform="matrix(1 0 0 -1 0 842)" d="M320.22 746.96L315.66 746.96L316.14 747.7401L319.8 754.04L320.22 754.82L324.3 747.68L324.72 746.96L323.82 746.96L323.4 747.2L319.8 753.5L320.7 753.98L320.7 753.5L317.04 747.2L316.14 747.7401L316.56 747.98L320.22 747.98" stroke="none" fill="#000000" fill-rule="nonzero" /><path id="246" transform="matrix(1 0 0 -1 0 842)" d="M320.22 746.96L323.82 746.96L323.82 747.98L320.22 747.98z" stroke="none" fill="#000000" fill-rule="nonzero" /><path id="247" transform="matrix(1 0 0 -1 0 842)" d="M320.22 747.44L316.56 747.44L316.56 747.44L320.22 753.74L320.22 753.74L323.82 747.44" stroke="none" fill="#000000" fill-rule="evenodd" /><path id="248" transform="matrix(1 0 0 -1 0 842)" d="M319.26 705.98L321.24 705.98L321.24 706.94L319.26 706.94z" stroke="none" fill="#000000" fill-rule="nonzero" /><path id="249" transform="matrix(1 0 0 -1 0 842)" d="M319.26 706.94L321.24 706.94L321.24 747.92L319.26 747.92z" stroke="none" fill="#000000" fill-rule="nonzero" /><path id="250" transform="matrix(1 0 0 -1 0 842)" d="M219.72 625.94L260.94 625.94L260.94 649.94L219.72 649.94z" stroke="none" fill="#FFFFFF" fill-rule="nonzero" /><path id="257" transform="matrix(1 0 0 -1 0 842)" d="M317.46 679.46L317.88 679.7L317.4 680.6L316.98 680.36" stroke="none" fill="#000000" fill-rule="nonzero" /><path id="258" transform="matrix(1 0 0 -1 0 842)" d="M262.68 650.24L262.26 650L261.78 650.9L262.2 651.14" stroke="none" fill="#000000" fill-rule="nonzero" /><path id="259" transform="matrix(1 0 0 -1 0 842)" d="M317.46 679.46L316.98 680.36L262.2 651.14L262.68 650.2401" stroke="none" fill="#000000" fill-rule="nonzero" /><path id="260" transform="matrix(1 0 0 -1 0 842)" d="M319.2 706.46L319.62 706.22L320.1 707.12L319.68 707.36" stroke="none" fill="#000000" fill-rule="nonzero" /><path id="261" transform="matrix(1 0 0 -1 0 842)" d="M259.98 737.96L259.56 738.2L260.04 739.1L260.46 738.86" stroke="none" fill="#000000" fill-rule="nonzero" /><path id="262" transform="matrix(1 0 0 -1 0 842)" d="M319.2 706.46L319.68 707.36L260.46 738.86L259.98 737.96" stroke="none" fill="#000000" fill-rule="nonzero" /></g></g><g clip-path="url(#7)"><g clip-path="url(#8)"><g clip-path="url(#9)"><g transform="matrix(0.4800171 0 0 0.48 36.96 373.68)"><g transform="matrix(1 0 0 1 0 0)"><image x="0" y="0" xlink:href="img_561.png" width="409" height="310" /></g></g></g></g></g><g clip-path="url(#10)"><g clip-path="url(#11)"><g clip-path="url(#12)"><g transform="matrix(0.4793667 0 0 0.4795928 240.36 342.12)"><g transform="matrix(1 0 0 1 0 0)"><image x="0" y="0" xlink:href="img_562.png" width="360" height="442" /></g></g></g></g></g><g clip-path="url(#13)"><g clip-path="url(#14)"><path id="295" transform="matrix(1 0 0 -1 0 842)" d="M258.72 498.92L336.48 498.92L336.48 499.94L258.72 499.94z" stroke="none" fill="#000000" fill-rule="nonzero" /><path id="296" transform="matrix(1 0 0 -1 0 842)" d="M335.46 466.7L336.48 466.7L336.48 499.46L335.46 499.46z" stroke="none" fill="#000000" fill-rule="nonzero" /><path id="297" transform="matrix(1 0 0 -1 0 842)" d="M258.24 466.7L335.94 466.7L335.94 467.72L258.24 467.72z" stroke="none" fill="#000000" fill-rule="nonzero" /><path id="298" transform="matrix(1 0 0 -1 0 842)" d="M258.24 467.24L259.26 467.24L259.26 499.94L258.24 499.94z" stroke="none" fill="#000000" fill-rule="nonzero" /><path id="299" transform="matrix(1 0 0 -1 0 842)" d="M354.96 479.96L401.94 479.96L401.94 491.96L354.96 491.96z" stroke="none" fill="#FFFFFF" fill-rule="nonzero" /><path id="304" transform="matrix(1 0 0 -1 0 842)" d="M354.24 486.2L354.72 486.2L354.72 487.22L354.24 487.22z" stroke="none" fill="#000000" fill-rule="nonzero" /><path id="305" transform="matrix(1 0 0 -1 0 842)" d="M336.48 486.2L354.24 486.2L354.24 487.22L336.48 487.22z" stroke="none" fill="#000000" fill-rule="nonzero" /><path id="306" transform="matrix(1 0 0 -1 0 842)" d="M110.16 485L110.4 485.42L109.56 485.96L109.32 485.54" stroke="none" fill="#000000" fill-rule="nonzero" /><path id="307" transform="matrix(1 0 0 -1 0 842)" d="M91.2 454.16L90.96 453.74L90.12 454.28L90.36 454.7" stroke="none" fill="#000000" fill-rule="nonzero" /><path id="308" transform="matrix(1 0 0 -1 0 842)" d="M110.16 485L109.32 485.54L90.36 454.7L91.2 454.16" stroke="none" fill="#000000" fill-rule="nonzero" /><path id="309" transform="matrix(1 0 0 -1 0 842)" d="M146.16 486.8L145.86 487.22L145.02 486.62L145.32 486.2" stroke="none" fill="#000000" fill-rule="nonzero" /><path id="310" transform="matrix(1 0 0 -1 0 842)" d="M168.78 454.76L169.08 454.34L168.24 453.74L167.94 454.16" stroke="none" fill="#000000" fill-rule="nonzero" /><path id="311" transform="matrix(1 0 0 -1 0 842)" d="M146.16 486.8L145.32 486.2L167.94 454.16L168.78 454.76" stroke="none" fill="#000000" fill-rule="nonzero" /><path id="312" transform="matrix(1 0 0 -1 0 842)" d="M141.72 314.48L141.54 314.06L142.44 313.64L142.62 314.06" stroke="none" fill="#000000" fill-rule="nonzero" /><path id="313" transform="matrix(1 0 0 -1 0 842)" d="M169.56 374.48L169.74 374.9L170.64 374.48L170.46 374.06" stroke="none" fill="#000000" fill-rule="nonzero" /><path id="314" transform="matrix(1 0 0 -1 0 842)" d="M141.72 314.48L142.62 314.06L170.46 374.06L169.56 374.48" stroke="none" fill="#000000" fill-rule="nonzero" /><path id="315" transform="matrix(1 0 0 -1 0 842)" d="M105.06 312.92L105.18 312.44L106.14 312.74L106.02 313.22" stroke="none" fill="#000000" fill-rule="nonzero" /><path id="316" transform="matrix(1 0 0 -1 0 842)" d="M87.06 374.12L86.93999 374.6L87.89999 374.9L88.02 374.42" stroke="none" fill="#000000" fill-rule="nonzero" /><path id="317" transform="matrix(1 0 0 -1 0 842)" d="M105.06 312.92L106.02 313.22L88.02 374.42L87.06 374.12" stroke="none" fill="#000000" fill-rule="nonzero" /></g></g></g></g></svg>