<svg xmlns="http://www.w3.org/2000/svg" xmlns:xlink="http://www.w3.org/1999/xlink" id="body_128" preserveAspectRatio="xMinYMin meet" viewBox="0 0 793 1123"><defs><clipPath id="1"><path id="" clip-rule="evenodd" transform="matrix(1 0 0 1 0 0)" d="M0 842L0 0L0 0L595 0L595 0L595 842L595 842L0 842z" /></clipPath><clipPath id="2"><path id="" clip-rule="evenodd" transform="matrix(1 0 0 1 0 0)" d="M225.96 77.03998L459.18 77.03998L459.18 77.03998L459.18 267.06L459.18 267.06L225.96 267.06z" /></clipPath><clipPath id="3"><path id="" clip-rule="evenodd" transform="matrix(1 0 0 1 0 0)" d="M224.94 76.02002L541.2 76.02002L541.2 76.02002L541.2 268.08L541.2 268.08L224.94 268.08z" /></clipPath><clipPath id="4"><path id="" clip-rule="evenodd" transform="matrix(1 0 0 1 0 0)" d="M0 0.02001953L595.2 0.02001953L595.2 0.02001953L595.2 842L595.2 842L0 842z" /></clipPath><clipPath id="5"><path id="" clip-rule="evenodd" transform="matrix(1 0 0 1 0 0)" d="M224.94 76.02002L541.2 76.02002L541.2 76.02002L541.2 268.08L541.2 268.08L224.94 268.08z" /></clipPath><clipPath id="6"><path id="" clip-rule="evenodd" transform="matrix(1 0 0 1 0 0)" d="M0 0.02001953L595.2 0.02001953L595.2 0.02001953L595.2 842L595.2 842L0 842z" /></clipPath><clipPath id="7"><path id="" clip-rule="evenodd" transform="matrix(1 0 0 1 0 0)" d="M225.96 386.04L459.18 386.04L459.18 386.04L459.18 576.06L459.18 576.06L225.96 576.06z" /></clipPath><clipPath id="8"><path id="" clip-rule="evenodd" transform="matrix(1 0 0 1 0 0)" d="M224.94 385.02L541.8 385.02L541.8 385.02L541.8 577.08L541.8 577.08L224.94 577.08z" /></clipPath><clipPath id="9"><path id="" clip-rule="evenodd" transform="matrix(1 0 0 1 0 0)" d="M0 0.02001953L595.2 0.02001953L595.2 0.02001953L595.2 842L595.2 842L0 842z" /></clipPath><clipPath id="10"><path id="" clip-rule="evenodd" transform="matrix(1 0 0 1 0 0)" d="M224.94 385.02L541.8 385.02L541.8 385.02L541.8 577.08L541.8 577.08L224.94 577.08z" /></clipPath><clipPath id="11"><path id="" clip-rule="evenodd" transform="matrix(1 0 0 1 0 0)" d="M0 0.02001953L595.2 0.02001953L595.2 0.02001953L595.2 842L595.2 842L0 842z" /></clipPath></defs><g transform="matrix(1.333333 0 0 1.333333 0 0)"><g clip-path="url(#1)"><path id="167" transform="matrix(1 0 0 -1 0 842)" d="M242.94 506.96L558 506.96L558 473L242.94 473" stroke="none" fill="#ECF5FC" fill-rule="nonzero" /><g clip-path="url(#2)"><g clip-path="url(#3)"><g clip-path="url(#4)"><g transform="matrix(0.4798765 0 0 0.4798485 225.96 77.03998)"><g transform="matrix(1 0 0 1 0 0)"><image x="0" y="0" xlink:href="img_363.png" width="486" height="396" /></g></g></g></g></g><g clip-path="url(#5)"><g clip-path="url(#6)"><path id="238" transform="matrix(1 0 0 -1 0 842)" d="M395.88 718.4L396.36 718.4L396.36 719.42L395.88 719.42z" stroke="none" fill="#000000" fill-rule="nonzero" /><path id="239" transform="matrix(1 0 0 -1 0 842)" d="M396.36 718.4L465.06 718.4L465.06 719.42L396.36 719.42z" stroke="none" fill="#000000" fill-rule="nonzero" /></g></g><g clip-path="url(#7)"><g clip-path="url(#8)"><g clip-path="url(#9)"><g transform="matrix(0.4798765 0 0 0.4798485 225.96 386.04)"><g transform="matrix(1 0 0 1 0 0)"><image x="0" y="0" xlink:href="img_364.png" width="486" height="396" /></g></g></g></g></g><g clip-path="url(#10)"><g clip-path="url(#11)"><path id="245" transform="matrix(1 0 0 -1 0 842)" d="M390.48 408.86L390.96 408.86L390.96 409.88L390.48 409.88z" stroke="none" fill="#000000" fill-rule="nonzero" /><path id="246" transform="matrix(1 0 0 -1 0 842)" d="M390.96 408.86L469.86 408.86L469.86 409.88L390.96 409.88z" stroke="none" fill="#000000" fill-rule="nonzero" /></g></g></g></g></svg>