<svg xmlns="http://www.w3.org/2000/svg" xmlns:xlink="http://www.w3.org/1999/xlink" id="body_129" preserveAspectRatio="xMinYMin meet" viewBox="0 0 793 1123"><defs><clipPath id="1"><path id="" clip-rule="evenodd" transform="matrix(1 0 0 1 0 0)" d="M0 842L0 0L0 0L595 0L595 0L595 842L595 842L0 842z" /></clipPath><clipPath id="2"><path id="" clip-rule="evenodd" transform="matrix(1 0 0 1 0 0)" d="M216.96 77.03998L543.66 77.03998L543.66 77.03998L543.66 230.16L543.66 230.16L216.96 230.16z" /></clipPath><clipPath id="3"><path id="" clip-rule="evenodd" transform="matrix(1 0 0 1 0 0)" d="M215.94 76.02002L544.68 76.02002L544.68 76.02002L544.68 231.12L544.68 231.12L215.94 231.12z" /></clipPath><clipPath id="4"><path id="" clip-rule="evenodd" transform="matrix(1 0 0 1 0 0)" d="M0 0.02001953L595.2 0.02001953L595.2 0.02001953L595.2 842L595.2 842L0 842z" /></clipPath><clipPath id="5"><path id="" clip-rule="evenodd" transform="matrix(1 0 0 1 0 0)" d="M216.96 486.06L544.32 486.06L544.32 486.06L544.32 677.64L544.32 677.64L216.96 677.64z" /></clipPath><clipPath id="6"><path id="" clip-rule="evenodd" transform="matrix(1 0 0 1 0 0)" d="M215.94 485.1L545.34 485.1L545.34 485.1L545.34 678.6L545.34 678.6L215.94 678.6z" /></clipPath><clipPath id="7"><path id="" clip-rule="evenodd" transform="matrix(1 0 0 1 0 0)" d="M0 0.02001953L595.2 0.02001953L595.2 0.02001953L595.2 842L595.2 842L0 842z" /></clipPath></defs><g transform="matrix(1.333333 0 0 1.333333 0 0)"><g clip-path="url(#1)"><g clip-path="url(#2)"><g clip-path="url(#3)"><g clip-path="url(#4)"><g transform="matrix(0.4790323 0 0 0.4785 216.96 77.03998)"><g transform="matrix(1 0 0 1 0 0)"><image x="0" y="0" xlink:href="img_366.png" width="682" height="320" /></g></g></g></g></g><g clip-path="url(#5)"><g clip-path="url(#6)"><g clip-path="url(#7)"><g transform="matrix(0.48 0 0 0.4801504 216.96 486.06)"><g transform="matrix(1 0 0 1 0 0)"><image x="0" y="0" xlink:href="img_367.png" width="682" height="399" /></g></g></g></g></g></g></g></svg>