<svg xmlns="http://www.w3.org/2000/svg" xmlns:xlink="http://www.w3.org/1999/xlink" id="body_266" preserveAspectRatio="xMinYMin meet" viewBox="0 0 793 1123"><defs><clipPath id="1"><path id="" clip-rule="evenodd" transform="matrix(1 0 0 1 0 0)" d="M0 842L0 0L0 0L595 0L595 0L595 842L595 842L0 842z" /></clipPath><clipPath id="2"><path id="" clip-rule="evenodd" transform="matrix(1 0 0 1 0 0)" d="M225.96 115.02L513 115.02L513 115.02L513 238.14L513 238.14L225.96 238.14z" /></clipPath><clipPath id="3"><path id="" clip-rule="evenodd" transform="matrix(1 0 0 1 0 0)" d="M224.94 114.06L514.02 114.06L514.02 114.06L514.02 239.16L514.02 239.16L224.94 239.16z" /></clipPath><clipPath id="4"><path id="" clip-rule="evenodd" transform="matrix(1 0 0 1 0 0)" d="M0 0.02001953L595.2 0.02001953L595.2 0.02001953L595.2 842L595.2 842L0 842z" /></clipPath><clipPath id="5"><path id="" clip-rule="evenodd" transform="matrix(1 0 0 1 0 0)" d="M224.94 114.06L514.02 114.06L514.02 114.06L514.02 239.16L514.02 239.16L224.94 239.16z" /></clipPath><clipPath id="6"><path id="" clip-rule="evenodd" transform="matrix(1 0 0 1 0 0)" d="M0 0.02001953L595.2 0.02001953L595.2 0.02001953L595.2 842L595.2 842L0 842z" /></clipPath><clipPath id="7"><path id="" clip-rule="evenodd" transform="matrix(1 0 0 1 0 0)" d="M228.96 357.12L363.12 357.12L363.12 357.12L363.12 594.6L363.12 594.6L228.96 594.6z" /></clipPath><clipPath id="8"><path id="" clip-rule="evenodd" transform="matrix(1 0 0 1 0 0)" d="M224.94 356.16L365.82 356.16L365.82 356.16L365.82 595.56L365.82 595.56L224.94 595.56z" /></clipPath><clipPath id="9"><path id="" clip-rule="evenodd" transform="matrix(1 0 0 1 0 0)" d="M0 0.02001953L595.2 0.02001953L595.2 0.02001953L595.2 842L595.2 842L0 842z" /></clipPath><clipPath id="10"><path id="" clip-rule="evenodd" transform="matrix(1 0 0 1 0 0)" d="M224.94 356.16L365.82 356.16L365.82 356.16L365.82 595.56L365.82 595.56L224.94 595.56z" /></clipPath><clipPath id="11"><path id="" clip-rule="evenodd" transform="matrix(1 0 0 1 0 0)" d="M0 0.02001953L595.2 0.02001953L595.2 0.02001953L595.2 842L595.2 842L0 842z" /></clipPath></defs><g transform="matrix(1.333333 0 0 1.333333 0 0)"><g clip-path="url(#1)"><path id="239" transform="matrix(1 0 0 -1 0 842)" d="M242.94 559.82L558 559.82L558 539.84L242.94 539.84" stroke="none" fill="#ECF5FC" fill-rule="nonzero" /><g clip-path="url(#2)"><g clip-path="url(#3)"><g clip-path="url(#4)"><g transform="matrix(0.48 0 0 0.4790662 225.96 115.02)"><g transform="matrix(1 0 0 1 0 0)"><image x="0" y="0" xlink:href="img_829.png" width="598" height="257" /></g></g></g></g></g><g clip-path="url(#5)"><g clip-path="url(#6)"><path id="280" transform="matrix(1 0 0 -1 0 842)" d="M462.66 672.2L462.78 672.32L462.78 672.32L462.84 672.44L462.84 672.44L462.96 672.56L462.96 672.56L463.02 672.68L463.02 672.68L463.08 672.8L463.08 672.8L463.08 672.98L463.08 672.98L463.14 673.1L463.14 673.1L463.14 673.52L463.14 673.52L463.08 673.64L463.08 673.64L463.02 673.82L463.02 673.82L462.96 673.94L462.96 673.94L462.84 674.18L462.84 674.18L462.6 674.42L462.6 674.42L462.48 674.48L462.48 674.48L462.36 674.6L462.36 674.6L462.24 674.66L462.24 674.66L462.12 674.72L462.12 674.72L461.94 674.72L461.94 674.72L461.82 674.78L461.82 674.78L461.4 674.78L461.4 674.78L461.28 674.72L461.28 674.72L461.1 674.66L461.1 674.66L460.98 674.66L460.98 674.66L460.86 674.54L460.86 674.54L460.74 674.48L460.74 674.48L460.38 674.12L460.38 674.12L460.32 674L460.32 674L460.2 673.76L460.2 673.76L460.2 673.64L460.2 673.64L460.14 673.46L460.14 673.46L460.14 673.04L460.14 673.04L460.2 672.92L460.2 672.92L460.2 672.74L460.2 672.74L460.26 672.62L460.26 672.62L460.38 672.5L460.38 672.5L460.44 672.38L460.44 672.38L460.68 672.14L460.68 672.14L460.8 672.08L460.8 672.08L460.92 671.96L460.92 671.96L461.04 671.9L461.04 671.9L461.16 671.84L461.16 671.84L461.28 671.84L461.28 671.84L461.46 671.78L461.46 671.78L461.88 671.78L461.88 671.78L462 671.84L462 671.84L462.18 671.9L462.18 671.9L462.3 671.96L462.3 671.96L462.54 672.08L462.54 672.08L462.66 672.2" stroke="none" fill="#FF0000" fill-rule="evenodd" /><path id="281" transform="matrix(1 0 0 -1 0 842)" d="M461.7 673.28L465.36 676.82L465.9 677.2401L466.2 676.64L474.72 660.08L475.5 658.52L474 659.42L457.98 668.9L457.44 669.26L457.92 669.7401L458.46 669.8L474.48 660.32L474 659.42L473.82 659.66L465.3 676.22L466.2 676.64L466.08 676.04L462.36 672.5" stroke="none" fill="#FF0000" fill-rule="nonzero" /><path id="282" transform="matrix(1 0 0 -1 0 842)" d="M457.92 669.74L461.7 673.28L462.36 672.5L458.58 668.96" stroke="none" fill="#FF0000" fill-rule="nonzero" /><path id="283" transform="matrix(1 0 0 -1 0 842)" d="M462 672.92L465.72 676.46L465.72 676.46L474.24 659.9L474.24 659.9L458.22 669.38" stroke="none" fill="#FF0000" fill-rule="evenodd" /><path id="284" transform="matrix(1 0 0 -1 0 842)" d="M452.58 685.1L451.56 686.18L449.4 684.14L450.42 683.06" stroke="none" fill="#FF0000" fill-rule="nonzero" /><path id="285" transform="matrix(1 0 0 -1 0 842)" d="M462.72 674.3L463.74 673.22L461.58 671.18L460.56 672.26" stroke="none" fill="#FF0000" fill-rule="nonzero" /><path id="286" transform="matrix(1 0 0 -1 0 842)" d="M452.58 685.1L450.42 683.06L460.56 672.2599L462.72 674.3" stroke="none" fill="#FF0000" fill-rule="nonzero" /></g></g><g clip-path="url(#7)"><g clip-path="url(#8)"><g clip-path="url(#9)"><g transform="matrix(0.4799893 0 0 0.4797576 228.96 357.12)"><g transform="matrix(1 0 0 1 0 0)"><image x="0" y="0" xlink:href="img_830.png" width="280" height="495" /></g></g></g></g></g><g clip-path="url(#10)"><g clip-path="url(#11)"><path id="288" transform="matrix(1 0 0 -1 0 842)" d="M313.14 404.96L312.96 404.96L312.96 404.96L312.72 404.9L312.72 404.9L312.54 404.9L312.54 404.9L312.36 404.78L312.36 404.78L312.18 404.72L312.18 404.72L312 404.6L312 404.6L311.76 404.36L311.76 404.36L311.58 404.24L311.58 404.24L311.46 404.06L311.46 404.06L311.4 403.94L311.4 403.94L311.28 403.76L311.28 403.76L311.22 403.58L311.22 403.58L311.16 403.34L311.16 403.34L311.16 402.56L311.16 402.56L311.22 402.38L311.22 402.38L311.28 402.2L311.28 402.2L311.4 402.02L311.4 402.02L311.46 401.84L311.46 401.84L312 401.3L312 401.3L312.18 401.18L312.18 401.18L312.72 401L312.72 401L312.96 401L312.96 401L313.14 400.94L313.14 400.94L313.38 401L313.38 401L313.56 401L313.56 401L314.1 401.18L314.1 401.18L314.28 401.3L314.28 401.3L314.4 401.42L314.4 401.42L314.58 401.54L314.58 401.54L314.7 401.72L314.7 401.72L314.82 401.84L314.82 401.84L314.88 402.02L314.88 402.02L315 402.2L315 402.2L315.06 402.38L315.06 402.38L315.12 402.56L315.12 402.56L315.12 403.34L315.12 403.34L315.06 403.58L315.06 403.58L315 403.76L315 403.76L314.88 403.94L314.88 403.94L314.82 404.06L314.82 404.06L314.7 404.24L314.7 404.24L314.58 404.36L314.58 404.36L314.4 404.48L314.4 404.48L314.28 404.6L314.28 404.6L314.1 404.72L314.1 404.72L313.92 404.78L313.92 404.78L313.74 404.9L313.74 404.9L313.56 404.9L313.56 404.9L313.38 404.96L313.38 404.96L313.14 404.96" stroke="none" fill="#FF0000" fill-rule="evenodd" /><path id="289" transform="matrix(1 0 0 -1 0 842)" d="M313.14 402.98L306.54 402.98L306.72 403.64L312.66 424.4L313.14 426.08L313.62 424.4L319.56 403.64L319.74 402.98L319.08 402.98L318.6 403.34L312.66 424.1L313.62 424.4L313.62 424.1L307.68 403.34L306.72 403.64L307.2 404L313.14 404" stroke="none" fill="#FF0000" fill-rule="nonzero" /><path id="290" transform="matrix(1 0 0 -1 0 842)" d="M313.14 402.98L319.08 402.98L319.08 404L313.14 404z" stroke="none" fill="#FF0000" fill-rule="nonzero" /><path id="291" transform="matrix(1 0 0 -1 0 842)" d="M313.14 403.46L307.2 403.46L307.2 403.46L313.14 424.22L313.14 424.22L319.08 403.46" stroke="none" fill="#FF0000" fill-rule="evenodd" /><path id="292" transform="matrix(1 0 0 -1 0 842)" d="M311.16 378.2L315.18 378.2L315.18 380.18L311.16 380.18z" stroke="none" fill="#FF0000" fill-rule="nonzero" /><path id="293" transform="matrix(1 0 0 -1 0 842)" d="M311.16 380.18L315.18 380.18L315.18 404.96L311.16 404.96z" stroke="none" fill="#FF0000" fill-rule="nonzero" /><path id="294" transform="matrix(1 0 0 -1 0 842)" d="M335.34 436.76L335.34 437.18L335.34 437.18L335.28 437.36L335.28 437.36L335.16 437.6L335.16 437.6L335.1 437.72L335.1 437.72L334.98 437.84L334.98 437.84L334.92 437.96L334.92 437.96L334.8 438.02L334.8 438.02L334.68 438.14L334.68 438.14L334.44 438.26L334.44 438.26L334.26 438.32L334.26 438.32L334.14 438.38L334.14 438.38L333.66 438.38L333.66 438.38L333.54 438.32L333.54 438.32L333.42 438.32L333.42 438.32L333.24 438.26L333.24 438.26L333 438.14L333 438.14L332.88 438.02L332.88 438.02L332.82 437.9L332.82 437.9L332.7 437.84L332.7 437.84L332.58 437.72L332.58 437.72L332.52 437.6L332.52 437.6L332.46 437.42L332.46 437.42L332.4 437.3L332.4 437.3L332.4 437.18L332.4 437.18L332.34 437L332.34 437L332.34 436.88L332.34 436.88L332.4 436.7L332.4 436.7L332.4 436.58L332.4 436.58L332.46 436.4L332.46 436.4L332.52 436.28L332.52 436.28L332.58 436.16L332.58 436.16L332.7 435.92L332.7 435.92L332.94 435.68L332.94 435.68L333.42 435.44L333.42 435.44L333.6 435.38L333.6 435.38L334.02 435.38L334.02 435.38L334.2 435.44L334.2 435.44L334.32 435.44L334.32 435.44L334.44 435.5L334.44 435.5L334.62 435.56L334.62 435.56L334.74 435.62L334.74 435.62L334.86 435.74L334.86 435.74L334.92 435.86L334.92 435.86L335.04 435.92L335.04 435.92L335.1 436.04L335.1 436.04L335.22 436.16L335.22 436.16L335.28 436.34L335.28 436.34L335.28 436.46L335.28 436.46L335.34 436.58L335.34 436.58L335.34 436.76" stroke="none" fill="#FF0000" fill-rule="evenodd" /><path id="295" transform="matrix(1 0 0 -1 0 842)" d="M333.9 436.88L334.32 441.98L334.38 442.64L335.04 442.4L352.44 435.86L354.06 435.2L352.32 434.9L334.08 431.24L333.42 431.12L333.48 431.78L333.9 432.2L352.14 435.86L352.32 434.9L352.02 434.9L334.62 441.44L335.04 442.4L335.34 441.86L334.92 436.76" stroke="none" fill="#FF0000" fill-rule="nonzero" /><path id="296" transform="matrix(1 0 0 -1 0 842)" d="M333.48 431.78L333.9 436.88L334.92 436.76L334.5 431.66" stroke="none" fill="#FF0000" fill-rule="nonzero" /><path id="297" transform="matrix(1 0 0 -1 0 842)" d="M334.38 436.82L334.8 441.92L334.8 441.92L352.2 435.38L352.2 435.38L333.96 431.72" stroke="none" fill="#FF0000" fill-rule="evenodd" /><path id="298" transform="matrix(1 0 0 -1 0 842)" d="M314.1 440.06L312.6 440.18L312.36 437.18L313.86 437.06" stroke="none" fill="#FF0000" fill-rule="nonzero" /><path id="299" transform="matrix(1 0 0 -1 0 842)" d="M333.96 438.38L335.46 438.26L335.22 435.26L333.72 435.38" stroke="none" fill="#FF0000" fill-rule="nonzero" /><path id="300" transform="matrix(1 0 0 -1 0 842)" d="M314.1 440.06L313.86 437.06L333.72 435.38L333.96 438.38" stroke="none" fill="#FF0000" fill-rule="nonzero" /></g></g></g></g></svg>