<svg xmlns="http://www.w3.org/2000/svg" xmlns:xlink="http://www.w3.org/1999/xlink" id="body_133" preserveAspectRatio="xMinYMin meet" viewBox="0 0 793 1123"><defs><clipPath id="1"><path id="" clip-rule="evenodd" transform="matrix(1 0 0 1 0 0)" d="M0 842L0 0L0 0L595 0L595 0L595 842L595 842L0 842z" /></clipPath><clipPath id="2"><path id="" clip-rule="evenodd" transform="matrix(1 0 0 1 0 0)" d="M36.96 292.98L541.92 292.98L541.92 292.98L541.92 387.54L541.92 387.54L36.96 387.54z" /></clipPath><clipPath id="3"><path id="" clip-rule="evenodd" transform="matrix(1 0 0 1 0 0)" d="M35.94 291.96L542.94 291.96L542.94 291.96L542.94 388.5L542.94 388.5L35.94 388.5z" /></clipPath><clipPath id="4"><path id="" clip-rule="evenodd" transform="matrix(1 0 0 1 0 0)" d="M0 0.02001953L595.2 0.02001953L595.2 0.02001953L595.2 842L595.2 842L0 842z" /></clipPath><clipPath id="5"><path id="" clip-rule="evenodd" transform="matrix(1 0 0 1 0 0)" d="M115.56 435.54L193.98 435.54L193.98 435.54L193.98 449.94L193.98 449.94L115.56 449.94z" /></clipPath><clipPath id="6"><path id="" clip-rule="evenodd" transform="matrix(1 0 0 1 0 0)" d="M0 0.02001953L595.2 0.02001953L595.2 0.02001953L595.2 842L595.2 842L0 842z" /></clipPath><clipPath id="7"><path id="" clip-rule="evenodd" transform="matrix(1 0 0 1 0 0)" d="M115.98 436.02L189.36 436.02L189.36 436.02L189.36 449.82L189.36 449.82L115.98 449.82z" /></clipPath><clipPath id="8"><path id="" clip-rule="evenodd" transform="matrix(1 0 0 1 0 0)" d="M115.56 435.54L193.98 435.54L193.98 435.54L193.98 449.94L193.98 449.94L115.56 449.94z" /></clipPath><clipPath id="9"><path id="" clip-rule="evenodd" transform="matrix(1 0 0 1 0 0)" d="M0 0.02001953L595.2 0.02001953L595.2 0.02001953L595.2 842L595.2 842L0 842z" /></clipPath><clipPath id="10"><path id="" clip-rule="evenodd" transform="matrix(1 0 0 1 0 0)" d="M119.46 546.3L196.98 546.3L196.98 546.3L196.98 623.34L196.98 623.34L119.46 623.34z" /></clipPath><clipPath id="11"><path id="" clip-rule="evenodd" transform="matrix(1 0 0 1 0 0)" d="M118.44 545.28L197.94 545.28L197.94 545.28L197.94 624.36L197.94 624.36L118.44 624.36z" /></clipPath><clipPath id="12"><path id="" clip-rule="evenodd" transform="matrix(1 0 0 1 0 0)" d="M0 0.02001953L595.2 0.02001953L595.2 0.02001953L595.2 842L595.2 842L0 842z" /></clipPath></defs><g transform="matrix(1.333333 0 0 1.333333 0 0)"><g clip-path="url(#1)"><g clip-path="url(#2)"><g clip-path="url(#3)"><g clip-path="url(#4)"><g transform="matrix(0.4795441 0 0 0.4775757 36.96 292.98)"><g transform="matrix(1 0 0 1 0 0)"><image x="0" y="0" xlink:href="img_376.png" width="1053" height="198" /></g></g></g></g></g><g clip-path="url(#5)"><g clip-path="url(#6)"><path id="616" transform="matrix(1 0 0 -1 0 842)" d="M115.56 392.06L193.98 392.06L193.98 406.46L115.56 406.46z" stroke="none" fill="#FFFFFF" fill-rule="nonzero" /></g></g><g clip-path="url(#7)"><g clip-path="url(#8)"><g clip-path="url(#9)"><g transform="matrix(0.7265346 0 0 0.7263158 115.98 436.02)"><g transform="matrix(1 0 0 1 0 0)"><image x="0" y="0" xlink:href="img_09.png" width="101" height="19" /></g></g></g></g></g><path id="618" transform="matrix(1 0 0 -1 0 842)" d="M215.94 410.48L549 410.48L549 334.52L215.94 334.52" stroke="none" fill="#ECF5FC" fill-rule="nonzero" /><g clip-path="url(#10)"><g clip-path="url(#11)"><g clip-path="url(#12)"><g transform="matrix(0.24 0 0 0.24 119.46 546.3)"><g transform="matrix(1 0 0 1 0 0)"><image x="0" y="0" xlink:href="img_377.png" width="323" height="321" /></g></g></g></g></g></g></g></svg>