<svg xmlns="http://www.w3.org/2000/svg" xmlns:xlink="http://www.w3.org/1999/xlink" id="body_279" preserveAspectRatio="xMinYMin meet" viewBox="0 0 793 1123"><defs><clipPath id="1"><path id="" clip-rule="evenodd" transform="matrix(1 0 0 1 0 0)" d="M0 842L0 0L0 0L595 0L595 0L595 842L595 842L0 842z" /></clipPath><clipPath id="2"><path id="" clip-rule="evenodd" transform="matrix(1 0 0 1 0 0)" d="M216.96 77.03998L477.9 77.03998L477.9 77.03998L477.9 318.54L477.9 318.54L216.96 318.54z" /></clipPath><clipPath id="3"><path id="" clip-rule="evenodd" transform="matrix(1 0 0 1 0 0)" d="M215.94 76.02002L478.92 76.02002L478.92 76.02002L478.92 319.5L478.92 319.5L215.94 319.5z" /></clipPath><clipPath id="4"><path id="" clip-rule="evenodd" transform="matrix(1 0 0 1 0 0)" d="M0 0.02001953L595.2 0.02001953L595.2 0.02001953L595.2 842L595.2 842L0 842z" /></clipPath><clipPath id="5"><path id="" clip-rule="evenodd" transform="matrix(1 0 0 1 0 0)" d="M215.94 76.02002L478.92 76.02002L478.92 76.02002L478.92 319.5L478.92 319.5L215.94 319.5z" /></clipPath><clipPath id="6"><path id="" clip-rule="evenodd" transform="matrix(1 0 0 1 0 0)" d="M0 0.02001953L595.2 0.02001953L595.2 0.02001953L595.2 842L595.2 842L0 842z" /></clipPath><clipPath id="7"><path id="" clip-rule="evenodd" transform="matrix(1 0 0 1 0 0)" d="M216.96 405.54L477.06 405.54L477.06 405.54L477.06 525.84L477.06 525.84L216.96 525.84z" /></clipPath><clipPath id="8"><path id="" clip-rule="evenodd" transform="matrix(1 0 0 1 0 0)" d="M215.94 404.52L478.02 404.52L478.02 404.52L478.02 526.8L478.02 526.8L215.94 526.8z" /></clipPath><clipPath id="9"><path id="" clip-rule="evenodd" transform="matrix(1 0 0 1 0 0)" d="M0 0.02001953L595.2 0.02001953L595.2 0.02001953L595.2 842L595.2 842L0 842z" /></clipPath><clipPath id="10"><path id="" clip-rule="evenodd" transform="matrix(1 0 0 1 0 0)" d="M215.94 404.52L478.02 404.52L478.02 404.52L478.02 526.8L478.02 526.8L215.94 526.8z" /></clipPath><clipPath id="11"><path id="" clip-rule="evenodd" transform="matrix(1 0 0 1 0 0)" d="M0 0.02001953L595.2 0.02001953L595.2 0.02001953L595.2 842L595.2 842L0 842z" /></clipPath></defs><g transform="matrix(1.333333 0 0 1.333333 0 0)"><g clip-path="url(#1)"><g clip-path="url(#2)"><g clip-path="url(#3)"><g clip-path="url(#4)"><g transform="matrix(0.478789 0 0 0.4791667 216.96 77.03998)"><g transform="matrix(1 0 0 1 0 0)"><image x="0" y="0" xlink:href="img_868.png" width="545" height="504" /></g></g></g></g></g><g clip-path="url(#5)"><g clip-path="url(#6)"><path id="174" transform="matrix(1 0 0 -1 0 842)" d="M290.28 627.62L290.16 627.74L290.16 627.74L290.04 627.92L290.04 627.92L289.86 628.04L289.86 628.04L289.74 628.16L289.74 628.16L289.56 628.22L289.56 628.22L289.38 628.34L289.38 628.34L289.2 628.4L289.2 628.4L289.02 628.4L289.02 628.4L288.78 628.46L288.78 628.46L288.6 628.46L288.6 628.46L288.42 628.4L288.42 628.4L288.24 628.4L288.24 628.4L287.88 628.28L287.88 628.28L287.34 627.92L287.34 627.92L287.22 627.8L287.22 627.8L287.04 627.68L287.04 627.68L286.98 627.5L286.98 627.5L286.86 627.32L286.86 627.32L286.74 626.96L286.74 626.96L286.68 626.78L286.68 626.78L286.68 626L286.68 626L286.74 625.82L286.74 625.82L286.8 625.64L286.8 625.64L287.16 625.1L287.16 625.1L287.28 624.98L287.28 624.98L287.46 624.86L287.46 624.86L287.58 624.74L287.58 624.74L287.76 624.62L287.76 624.62L288.3 624.44L288.3 624.44L288.9 624.44L288.9 624.44L289.62 624.68L289.62 624.68L289.98 624.92L289.98 624.92L290.1 625.1L290.1 625.1L290.28 625.22L290.28 625.22L290.34 625.4L290.34 625.4L290.46 625.58L290.46 625.58L290.64 626.12L290.64 626.12L290.64 626.9L290.64 626.9L290.58 627.08L290.58 627.08L290.46 627.26L290.46 627.26L290.4 627.44L290.4 627.44L290.28 627.62" stroke="none" fill="#FF0000" fill-rule="evenodd" /><path id="175" transform="matrix(1 0 0 -1 0 842)" d="M288.66 626.42L285.18 631.28L284.88 631.88L285.48 632.06L305.88 639.26L307.5 639.86L306.42 638.48L292.92 621.56L292.5 621.02L292.08 621.56L292.14 622.16L305.64 639.08L306.42 638.48L306.18 638.3L285.78 631.1L285.48 632.06L286.02 631.88L289.5 627.02" stroke="none" fill="#FF0000" fill-rule="nonzero" /><path id="176" transform="matrix(1 0 0 -1 0 842)" d="M292.08 621.56L288.66 626.42L289.5 627.02L292.92 622.16" stroke="none" fill="#FF0000" fill-rule="nonzero" /><path id="177" transform="matrix(1 0 0 -1 0 842)" d="M289.08 626.72L285.6 631.58L285.6 631.58L306 638.78L306 638.78L292.5 621.86" stroke="none" fill="#FF0000" fill-rule="evenodd" /><path id="178" transform="matrix(1 0 0 -1 0 842)" d="M242.34 595.94L240.72 594.8L243.06 591.5L244.68 592.64" stroke="none" fill="#FF0000" fill-rule="nonzero" /><path id="179" transform="matrix(1 0 0 -1 0 842)" d="M287.52 628.04L289.14 629.18L291.48 625.88L289.86 624.74" stroke="none" fill="#FF0000" fill-rule="nonzero" /><path id="180" transform="matrix(1 0 0 -1 0 842)" d="M242.34 595.94L244.68 592.64L289.86 624.74L287.52 628.04" stroke="none" fill="#FF0000" fill-rule="nonzero" /></g></g><g clip-path="url(#7)"><g clip-path="url(#8)"><g clip-path="url(#9)"><g transform="matrix(0.4790055 0 0 0.4792829 216.96 405.54)"><g transform="matrix(1 0 0 1 0 0)"><image x="0" y="0" xlink:href="img_869.png" width="543" height="251" /></g></g></g></g></g><g clip-path="url(#10)"><g clip-path="url(#11)"><path id="183" transform="matrix(1 0 0 -1 0 842)" d="M230.4 371.78L230.22 371.78L230.22 371.78L229.98 371.66L229.98 371.66L229.86 371.54L229.86 371.54L229.74 371.48L229.74 371.48L229.62 371.36L229.62 371.36L229.56 371.24L229.56 371.24L229.44 371.12L229.44 371.12L229.38 371L229.38 371L229.32 370.88L229.32 370.88L229.26 370.76L229.26 370.76L229.26 370.58L229.26 370.58L229.2 370.46L229.2 370.46L229.2 370.16L229.2 370.16L229.26 370.04L229.26 370.04L229.26 369.86L229.26 369.86L229.32 369.74L229.32 369.74L229.38 369.56L229.38 369.56L229.5 369.44L229.5 369.44L229.56 369.32L229.56 369.32L229.68 369.26L229.68 369.26L229.8 369.14L229.8 369.14L230.28 368.9L230.28 368.9L230.46 368.84L230.46 368.84L231 368.84L231 368.84L231.18 368.9L231.18 368.9L231.42 369.02L231.42 369.02L231.6 369.08L231.6 369.08L231.66 369.2L231.66 369.2L231.78 369.26L231.78 369.26L231.9 369.38L231.9 369.38L231.96 369.5L231.96 369.5L232.02 369.62L232.02 369.62L232.08 369.74L232.08 369.74L232.14 369.92L232.14 369.92L232.2 370.04L232.2 370.04L232.2 370.64L232.2 370.64L232.14 370.82L232.14 370.82L232.08 370.94L232.08 370.94L232.02 371.06L232.02 371.06L231.96 371.18L231.96 371.18L231.84 371.3L231.84 371.3L231.78 371.42L231.78 371.42L231.66 371.48L231.66 371.48L231.54 371.6L231.54 371.6L231.42 371.66L231.42 371.66L231.24 371.72L231.24 371.72L231.12 371.78L231.12 371.78L231 371.78L231 371.78L230.82 371.84L230.82 371.84L230.52 371.84L230.52 371.84L230.4 371.78" stroke="none" fill="#FF0000" fill-rule="evenodd" /><path id="184" transform="matrix(1 0 0 -1 0 842)" d="M230.7 370.34L225.72 369.26L225.06 369.2L225.12 369.8L226.38 388.34L226.44 390.08L227.28 388.58L236.04 372.2L236.34 371.6L235.74 371.42L235.2 371.66L226.44 388.04L227.28 388.58L227.34 388.28L226.08 369.74L225.12 369.8L225.48 370.28L230.46 371.36" stroke="none" fill="#FF0000" fill-rule="nonzero" /><path id="185" transform="matrix(1 0 0 -1 0 842)" d="M235.74 371.42L230.7 370.34L230.46 371.36L235.5 372.44" stroke="none" fill="#FF0000" fill-rule="nonzero" /><path id="186" transform="matrix(1 0 0 -1 0 842)" d="M230.58 370.82L225.6 369.74L225.6 369.74L226.86 388.28L226.86 388.28L235.62 371.9" stroke="none" fill="#FF0000" fill-rule="evenodd" /><path id="187" transform="matrix(1 0 0 -1 0 842)" d="M235.5 340.94L235.8 339.5L238.74 340.16L238.44 341.6" stroke="none" fill="#FF0000" fill-rule="nonzero" /><path id="188" transform="matrix(1 0 0 -1 0 842)" d="M229.26 369.98L228.96 371.42L231.9 372.08L232.2 370.64" stroke="none" fill="#FF0000" fill-rule="nonzero" /><path id="189" transform="matrix(1 0 0 -1 0 842)" d="M235.5 340.94L238.44 341.6L232.2 370.64L229.26 369.98" stroke="none" fill="#FF0000" fill-rule="nonzero" /><path id="190" transform="matrix(1 0 0 -1 0 842)" d="M362.64 373.88L362.46 373.94L362.46 373.94L362.22 374.06L362.22 374.06L361.5 374.06L361.5 374.06L361.32 374L361.32 374L361.08 373.88L361.08 373.88L360.96 373.76L360.96 373.76L360.84 373.7L360.84 373.7L360.72 373.58L360.72 373.58L360.66 373.46L360.66 373.46L360.54 373.34L360.54 373.34L360.48 373.22L360.48 373.22L360.42 373.04L360.42 373.04L360.42 372.92L360.42 372.92L360.36 372.8L360.36 372.8L360.36 372.32L360.36 372.32L360.48 372.08L360.48 372.08L360.54 371.9L360.54 371.9L360.6 371.78L360.6 371.78L360.66 371.66L360.66 371.66L360.96 371.36L360.96 371.36L361.14 371.3L361.14 371.3L361.38 371.18L361.38 371.18L361.56 371.12L361.56 371.12L361.68 371.12L361.68 371.12L361.8 371.06L361.8 371.06L361.98 371.06L361.98 371.06L362.1 371.12L362.1 371.12L362.28 371.12L362.28 371.12L362.76 371.36L362.76 371.36L363 371.6L363 371.6L363.06 371.72L363.06 371.72L363.18 371.84L363.18 371.84L363.24 371.96L363.24 371.96L363.3 372.14L363.3 372.14L363.3 372.26L363.3 372.26L363.36 372.38L363.36 372.38L363.36 372.86L363.36 372.86L363.24 373.1L363.24 373.1L363.24 373.22L363.24 373.22L363.12 373.34L363.12 373.34L363.06 373.46L363.06 373.46L362.94 373.58L362.94 373.58L362.88 373.7L362.88 373.7L362.76 373.82L362.76 373.82L362.64 373.88" stroke="none" fill="#FF0000" fill-rule="evenodd" /><path id="191" transform="matrix(1 0 0 -1 0 842)" d="M361.86 372.62L357.42 375.14L356.88 375.5L357.36 375.98L370.74 388.88L372 390.08L371.52 388.4L367.02 370.4L366.9 369.74L366.3 370.04L366.06 370.58L370.56 388.58L371.52 388.4L371.4 388.1L358.02 375.2L357.36 375.98L357.96 376.04L362.4 373.52" stroke="none" fill="#FF0000" fill-rule="nonzero" /><path id="192" transform="matrix(1 0 0 -1 0 842)" d="M366.3 370.04L361.86 372.62L362.4 373.52L366.84 370.94" stroke="none" fill="#FF0000" fill-rule="nonzero" /><path id="193" transform="matrix(1 0 0 -1 0 842)" d="M362.1 373.04L357.66 375.56L357.66 375.56L371.04 388.46L371.04 388.46L366.54 370.46" stroke="none" fill="#FF0000" fill-rule="evenodd" /><path id="194" transform="matrix(1 0 0 -1 0 842)" d="M342.96 342.8L342.24 341.54L344.82 340.04L345.54 341.3" stroke="none" fill="#FF0000" fill-rule="nonzero" /><path id="195" transform="matrix(1 0 0 -1 0 842)" d="M360.6 373.28L361.32 374.54L363.9 373.04L363.18 371.78" stroke="none" fill="#FF0000" fill-rule="nonzero" /><path id="196" transform="matrix(1 0 0 -1 0 842)" d="M342.96 342.8L345.54 341.3L363.18 371.78L360.6 373.28" stroke="none" fill="#FF0000" fill-rule="nonzero" /></g></g></g></g></svg>