<svg xmlns="http://www.w3.org/2000/svg" xmlns:xlink="http://www.w3.org/1999/xlink" id="body_116" preserveAspectRatio="xMinYMin meet" viewBox="0 0 793 1123"><defs><clipPath id="1"><path id="" clip-rule="evenodd" transform="matrix(1 0 0 1 0 0)" d="M0 842L0 0L0 0L595 0L595 0L595 842L595 842L0 842z" /></clipPath><clipPath id="2"><path id="" clip-rule="evenodd" transform="matrix(1 0 0 1 0 0)" d="M180.36 269.94L193.98 269.94L193.98 269.94L193.98 284.4L193.98 284.4L180.36 284.4z" /></clipPath><clipPath id="3"><path id="" clip-rule="evenodd" transform="matrix(1 0 0 1 0 0)" d="M0 0.02001953L595.2 0.02001953L595.2 0.02001953L595.2 842L595.2 842L0 842z" /></clipPath><clipPath id="4"><path id="" clip-rule="evenodd" transform="matrix(1 0 0 1 0 0)" d="M180.36 271.2L194.34 271.2L194.34 271.2L194.34 283.2L194.34 283.2L180.36 283.2z" /></clipPath><clipPath id="5"><path id="" clip-rule="evenodd" transform="matrix(1 0 0 1 0 0)" d="M180.36 269.94L193.98 269.94L193.98 269.94L193.98 284.4L193.98 284.4L180.36 284.4z" /></clipPath><clipPath id="6"><path id="" clip-rule="evenodd" transform="matrix(1 0 0 1 0 0)" d="M0 0.02001953L595.2 0.02001953L595.2 0.02001953L595.2 842L595.2 842L0 842z" /></clipPath></defs><g transform="matrix(1.333333 0 0 1.333333 0 0)"><g clip-path="url(#1)"><path id="243" transform="matrix(1 0 0 -1 0 842)" d="M215.94 690.02L549 690.02L549 656L215.94 656" stroke="none" fill="#ECF5FC" fill-rule="nonzero" /><path id="283" transform="matrix(1 0 0 -1 0 842)" d="M176.34 542.06L197.94 542.06L197.94 576.02L176.34 576.02z" stroke="none" fill="#FFFFFF" fill-rule="nonzero" /><g clip-path="url(#2)"><g clip-path="url(#3)"><path id="284" transform="matrix(1 0 0 -1 0 842)" d="M180.36 557.6L193.98 557.6L193.98 572.06L180.36 572.06z" stroke="none" fill="#FFFFFF" fill-rule="nonzero" /></g></g><g clip-path="url(#4)"><g clip-path="url(#5)"><g clip-path="url(#6)"><path id="285" transform="matrix(1 0 0 -1 0 842)" d="M187.678 569.729L193.483 559.735C 193.538 559.641 193.538 559.532 193.484 559.438C 193.429 559.343 193.336 559.289 193.226 559.289L193.226 559.289L181.616 559.289C 181.507 559.289 181.413 559.343 181.358 559.437C 181.304 559.532 181.304 559.641 181.359 559.735L181.359 559.735L187.164 569.729C 187.219 569.823 187.312 569.877 187.421 569.877C 187.53 569.877 187.623 569.823 187.678 569.729z" stroke="#000000" stroke-width="0.5" fill="#FFFF00" fill-rule="evenodd" /><path id="286" transform="matrix(1 0 0 -1 0 842)" d="M187.429 561.88C 187.661 561.88 187.86 561.798 188.024 561.633C 188.189 561.468 188.272 561.267 188.272 561.033C 188.272 560.8 188.189 560.601 188.024 560.436C 187.86 560.27 187.661 560.189 187.429 560.189C 187.196 560.189 186.997 560.27 186.832 560.436C 186.668 560.601 186.585 560.8 186.585 561.033C 186.585 561.263 186.667 561.4641 186.83 561.629C 186.994 561.796 187.193 561.88 187.429 561.88M187.537 562.624L187.31 562.624C 187.285 563.02 187.205 563.498 187.07 564.061L187.07 564.061L186.798 565.194C 186.637 565.874 186.555 566.361 186.555 566.658C 186.555 566.924 186.635 567.139 186.793 567.303C 186.953 567.466 187.162 567.546 187.418 567.546C 187.669 567.546 187.875 567.4641 188.04 567.299C 188.205 567.136 188.287 566.926 188.287 566.672C 188.287 566.409 188.2 565.9171 188.027 565.194L188.027 565.194L187.752 564.061C 187.654 563.658 187.583 563.1801 187.537 562.624z" stroke="none" fill="#000000" fill-rule="nonzero" /></g></g></g><path id="287" transform="matrix(1 0 0 -1 0 842)" d="M197.94 542.06L215.94 542.06L215.94 576.02L197.94 576.02z" stroke="none" fill="#FFFFFF" fill-rule="nonzero" /><path id="288" transform="matrix(1 0 0 -1 0 842)" d="M215.94 576.02L549 576.02L549 542.06L215.94 542.06" stroke="none" fill="#ECF5FC" fill-rule="nonzero" /></g></g></svg>