<svg xmlns="http://www.w3.org/2000/svg" xmlns:xlink="http://www.w3.org/1999/xlink" id="body_221" preserveAspectRatio="xMinYMin meet" viewBox="0 0 793 1123"><defs><clipPath id="1"><path id="" clip-rule="evenodd" transform="matrix(1 0 0 1 0 0)" d="M0 842L0 0L0 0L595 0L595 0L595 842L595 842L0 842z" /></clipPath><clipPath id="2"><path id="" clip-rule="evenodd" transform="matrix(1 0 0 1 0 0)" d="M180.36 199.98L193.98 199.98L193.98 199.98L193.98 214.38L193.98 214.38L180.36 214.38z" /></clipPath><clipPath id="3"><path id="" clip-rule="evenodd" transform="matrix(1 0 0 1 0 0)" d="M0 0.02001953L595.2 0.02001953L595.2 0.02001953L595.2 842L595.2 842L0 842z" /></clipPath><clipPath id="4"><path id="" clip-rule="evenodd" transform="matrix(1 0 0 1 0 0)" d="M180.36 201.18L194.34 201.18L194.34 201.18L194.34 213.18L194.34 213.18L180.36 213.18z" /></clipPath><clipPath id="5"><path id="" clip-rule="evenodd" transform="matrix(1 0 0 1 0 0)" d="M180.36 199.98L193.98 199.98L193.98 199.98L193.98 214.38L193.98 214.38L180.36 214.38z" /></clipPath><clipPath id="6"><path id="" clip-rule="evenodd" transform="matrix(1 0 0 1 0 0)" d="M0 0.02001953L595.2 0.02001953L595.2 0.02001953L595.2 842L595.2 842L0 842z" /></clipPath></defs><g transform="matrix(1.333333 0 0 1.333333 0 0)"><g clip-path="url(#1)"><path id="714" transform="matrix(1 0 0 -1 0 842)" d="M176.34 584L197.94 584L197.94 645.98L176.34 645.98z" stroke="none" fill="#FFFFFF" fill-rule="nonzero" /><g clip-path="url(#2)"><g clip-path="url(#3)"><path id="715" transform="matrix(1 0 0 -1 0 842)" d="M180.36 627.62L193.98 627.62L193.98 642.02L180.36 642.02z" stroke="none" fill="#FFFFFF" fill-rule="nonzero" /></g></g><g clip-path="url(#4)"><g clip-path="url(#5)"><g clip-path="url(#6)"><path id="716" transform="matrix(1 0 0 -1 0 842)" d="M187.678 639.694L193.483 629.7C 193.538 629.606 193.538 629.4969 193.484 629.403C 193.429 629.308 193.336 629.254 193.226 629.254L193.226 629.254L181.616 629.254C 181.507 629.254 181.413 629.308 181.358 629.402C 181.304 629.4969 181.304 629.606 181.359 629.7L181.359 629.7L187.164 639.694C 187.219 639.788 187.312 639.842 187.421 639.842C 187.53 639.842 187.623 639.788 187.678 639.694z" stroke="#000000" stroke-width="0.5" fill="#FFFF00" fill-rule="evenodd" /><path id="717" transform="matrix(1 0 0 -1 0 842)" d="M187.429 631.845C 187.661 631.845 187.86 631.763 188.024 631.598C 188.189 631.433 188.272 631.232 188.272 630.998C 188.272 630.765 188.189 630.566 188.024 630.401C 187.86 630.235 187.661 630.154 187.429 630.154C 187.196 630.154 186.997 630.235 186.832 630.401C 186.668 630.566 186.585 630.765 186.585 630.998C 186.585 631.228 186.667 631.429 186.83 631.595C 186.994 631.761 187.193 631.845 187.429 631.845M187.537 632.589L187.31 632.589C 187.285 632.985 187.205 633.463 187.07 634.026L187.07 634.026L186.798 635.159C 186.637 635.839 186.555 636.326 186.555 636.623C 186.555 636.889 186.635 637.104 186.793 637.268C 186.953 637.431 187.162 637.511 187.418 637.511C 187.669 637.511 187.875 637.429 188.04 637.264C 188.205 637.101 188.287 636.891 188.287 636.637C 188.287 636.374 188.2 635.882 188.027 635.159L188.027 635.159L187.752 634.026C 187.654 633.623 187.583 633.145 187.537 632.589z" stroke="none" fill="#000000" fill-rule="nonzero" /></g></g></g><path id="718" transform="matrix(1 0 0 -1 0 842)" d="M197.94 584L215.94 584L215.94 645.98L197.94 645.98z" stroke="none" fill="#FFFFFF" fill-rule="nonzero" /><path id="719" transform="matrix(1 0 0 -1 0 842)" d="M215.94 645.98L549 645.98L549 584L215.94 584" stroke="none" fill="#ECF5FC" fill-rule="nonzero" /></g></g></svg>