<svg xmlns="http://www.w3.org/2000/svg" xmlns:xlink="http://www.w3.org/1999/xlink" id="body_81" preserveAspectRatio="xMinYMin meet" viewBox="0 0 793 1123"><defs><clipPath id="1"><path id="" clip-rule="evenodd" transform="matrix(1 0 0 1 0 0)" d="M0 842L0 0L0 0L595 0L595 0L595 842L595 842L0 842z" /></clipPath><clipPath id="2"><path id="" clip-rule="evenodd" transform="matrix(1 0 0 1 0 0)" d="M225.96 198.96L524.28 198.96L524.28 198.96L524.28 313.98L524.28 313.98L225.96 313.98z" /></clipPath><clipPath id="3"><path id="" clip-rule="evenodd" transform="matrix(1 0 0 1 0 0)" d="M224.94 198L525.3 198L525.3 198L525.3 314.94L525.3 314.94L224.94 314.94z" /></clipPath><clipPath id="4"><path id="" clip-rule="evenodd" transform="matrix(1 0 0 1 0 0)" d="M0 0.02001953L595.2 0.02001953L595.2 0.02001953L595.2 842L595.2 842L0 842z" /></clipPath><clipPath id="5"><path id="" clip-rule="evenodd" transform="matrix(1 0 0 1 0 0)" d="M224.94 198L525.3 198L525.3 198L525.3 314.94L525.3 314.94L224.94 314.94z" /></clipPath><clipPath id="6"><path id="" clip-rule="evenodd" transform="matrix(1 0 0 1 0 0)" d="M0 0.02001953L595.2 0.02001953L595.2 0.02001953L595.2 842L595.2 842L0 842z" /></clipPath><clipPath id="7"><path id="" clip-rule="evenodd" transform="matrix(1 0 0 1 0 0)" d="M321.106 609.194L321.106 602.475L321.106 602.475L327.826 602.475L327.826 602.475L327.826 609.194L327.826 609.194L321.106 609.194" /></clipPath><clipPath id="8"><path id="" clip-rule="evenodd" transform="matrix(1 0 0 1 0 0)" d="M328.785 609.194L328.785 602.475L328.785 602.475L335.505 602.475L335.505 602.475L335.505 609.194L335.505 609.194L328.785 609.194" /></clipPath><clipPath id="9"><path id="" clip-rule="evenodd" transform="matrix(1 0 0 1 0 0)" d="M336.465 609.194L336.465 602.475L336.465 602.475L343.184 602.475L343.184 602.475L343.184 609.194L343.184 609.194L336.465 609.194" /></clipPath><clipPath id="10"><path id="" clip-rule="evenodd" transform="matrix(1 0 0 1 0 0)" d="M344.144 609.194L344.144 602.475L344.144 602.475L350.863 602.475L350.863 602.475L350.863 609.194L350.863 609.194L344.144 609.194" /></clipPath><clipPath id="11"><path id="" clip-rule="evenodd" transform="matrix(1 0 0 1 0 0)" d="M351.823 609.194L351.823 602.475L351.823 602.475L358.542 602.475L358.542 602.475L358.542 609.194L358.542 609.194L351.823 609.194" /></clipPath><clipPath id="12"><path id="" clip-rule="evenodd" transform="matrix(1 0 0 1 0 0)" d="M359.502 609.194L359.502 602.475L359.502 602.475L365.981 602.475L365.981 602.475L365.981 609.194L365.981 609.194L359.502 609.194" /></clipPath><clipPath id="13"><path id="" clip-rule="evenodd" transform="matrix(1 0 0 1 0 0)" d="M321.106 616.873L321.106 610.154L321.106 610.154L327.826 610.154L327.826 610.154L327.826 616.873L327.826 616.873L321.106 616.873" /></clipPath><clipPath id="14"><path id="" clip-rule="evenodd" transform="matrix(1 0 0 1 0 0)" d="M328.785 616.873L328.785 610.154L328.785 610.154L335.505 610.154L335.505 610.154L335.505 616.873L335.505 616.873L328.785 616.873" /></clipPath><clipPath id="15"><path id="" clip-rule="evenodd" transform="matrix(1 0 0 1 0 0)" d="M336.465 616.873L336.465 610.154L336.465 610.154L343.184 610.154L343.184 610.154L343.184 616.873L343.184 616.873L336.465 616.873" /></clipPath><clipPath id="16"><path id="" clip-rule="evenodd" transform="matrix(1 0 0 1 0 0)" d="M344.144 616.873L344.144 610.154L344.144 610.154L350.863 610.154L350.863 610.154L350.863 616.873L350.863 616.873L344.144 616.873" /></clipPath><clipPath id="17"><path id="" clip-rule="evenodd" transform="matrix(1 0 0 1 0 0)" d="M351.823 616.873L351.823 610.154L351.823 610.154L358.542 610.154L358.542 610.154L358.542 616.873L358.542 616.873L351.823 616.873" /></clipPath><clipPath id="18"><path id="" clip-rule="evenodd" transform="matrix(1 0 0 1 0 0)" d="M359.502 616.873L359.502 610.154L359.502 610.154L365.981 610.154L365.981 610.154L365.981 616.873L365.981 616.873L359.502 616.873" /></clipPath><clipPath id="19"><path id="" clip-rule="evenodd" transform="matrix(1 0 0 1 0 0)" d="M321.106 622.392L321.106 617.793L321.106 617.793L327.826 617.793L327.826 617.793L327.826 622.392L327.826 622.392L321.106 622.392" /></clipPath><clipPath id="20"><path id="" clip-rule="evenodd" transform="matrix(1 0 0 1 0 0)" d="M328.785 622.392L328.785 617.793L328.785 617.793L335.505 617.793L335.505 617.793L335.505 622.392L335.505 622.392L328.785 622.392" /></clipPath><clipPath id="21"><path id="" clip-rule="evenodd" transform="matrix(1 0 0 1 0 0)" d="M336.465 622.392L336.465 617.793L336.465 617.793L343.184 617.793L343.184 617.793L343.184 622.392L343.184 622.392L336.465 622.392" /></clipPath><clipPath id="22"><path id="" clip-rule="evenodd" transform="matrix(1 0 0 1 0 0)" d="M344.144 622.392L344.144 617.793L344.144 617.793L350.863 617.793L350.863 617.793L350.863 622.392L350.863 622.392L344.144 622.392" /></clipPath><clipPath id="23"><path id="" clip-rule="evenodd" transform="matrix(1 0 0 1 0 0)" d="M351.823 622.392L351.823 617.793L351.823 617.793L358.542 617.793L358.542 617.793L358.542 622.392L358.542 622.392L351.823 622.392" /></clipPath><clipPath id="24"><path id="" clip-rule="evenodd" transform="matrix(1 0 0 1 0 0)" d="M359.502 622.392L359.502 617.793L359.502 617.793L365.981 617.793L365.981 617.793L365.981 622.392L365.981 622.392L359.502 622.392" /></clipPath><clipPath id="25"><path id="" clip-rule="evenodd" transform="matrix(1 0 0 1 0 0)" d="M281.94 423.9L409.98 423.9L409.98 423.9L409.98 678.96L409.98 678.96L281.94 678.96z" /></clipPath><clipPath id="26"><path id="" clip-rule="evenodd" transform="matrix(1 0 0 1 0 0)" d="M224.94 422.94L516.72 422.94L516.72 422.94L516.72 679.92L516.72 679.92L224.94 679.92z" /></clipPath><clipPath id="27"><path id="" clip-rule="evenodd" transform="matrix(1 0 0 1 0 0)" d="M0 0.02001953L595.2 0.02001953L595.2 0.02001953L595.2 842L595.2 842L0 842z" /></clipPath><clipPath id="28"><path id="" clip-rule="evenodd" transform="matrix(1 0 0 1 0 0)" d="M328.665 580.757L328.665 574.038L328.665 574.038L335.385 574.038L335.385 574.038L335.385 580.757L335.385 580.757L328.665 580.757" /></clipPath><clipPath id="29"><path id="" clip-rule="evenodd" transform="matrix(1 0 0 1 0 0)" d="M331.545 573.078L355.542 573.078L355.542 573.078L355.542 575.957L355.542 575.957L357.462 575.957L357.462 575.957L357.462 599.955L357.462 599.955L328.665 600.915L328.665 600.915L328.665 575.957L328.665 575.957L331.545 575.957L331.545 575.957L331.545 573.078" /></clipPath><clipPath id="30"><path id="" clip-rule="evenodd" transform="matrix(1 0 0 1 0 0)" d="M281.94 423.9L409.98 423.9L409.98 423.9L409.98 678.96L409.98 678.96L281.94 678.96z" /></clipPath><clipPath id="31"><path id="" clip-rule="evenodd" transform="matrix(1 0 0 1 0 0)" d="M224.94 422.94L516.72 422.94L516.72 422.94L516.72 679.92L516.72 679.92L224.94 679.92z" /></clipPath><clipPath id="32"><path id="" clip-rule="evenodd" transform="matrix(1 0 0 1 0 0)" d="M0 0.02001953L595.2 0.02001953L595.2 0.02001953L595.2 842L595.2 842L0 842z" /></clipPath><clipPath id="33"><path id="" clip-rule="evenodd" transform="matrix(1 0 0 1 0 0)" d="M336.345 580.757L336.345 574.038L336.345 574.038L343.064 574.038L343.064 574.038L343.064 580.757L343.064 580.757L336.345 580.757" /></clipPath><clipPath id="34"><path id="" clip-rule="evenodd" transform="matrix(1 0 0 1 0 0)" d="M331.545 573.078L355.542 573.078L355.542 573.078L355.542 575.957L355.542 575.957L357.462 575.957L357.462 575.957L357.462 599.955L357.462 599.955L328.665 600.915L328.665 600.915L328.665 575.957L328.665 575.957L331.545 575.957L331.545 575.957L331.545 573.078" /></clipPath><clipPath id="35"><path id="" clip-rule="evenodd" transform="matrix(1 0 0 1 0 0)" d="M281.94 423.9L409.98 423.9L409.98 423.9L409.98 678.96L409.98 678.96L281.94 678.96z" /></clipPath><clipPath id="36"><path id="" clip-rule="evenodd" transform="matrix(1 0 0 1 0 0)" d="M224.94 422.94L516.72 422.94L516.72 422.94L516.72 679.92L516.72 679.92L224.94 679.92z" /></clipPath><clipPath id="37"><path id="" clip-rule="evenodd" transform="matrix(1 0 0 1 0 0)" d="M0 0.02001953L595.2 0.02001953L595.2 0.02001953L595.2 842L595.2 842L0 842z" /></clipPath><clipPath id="38"><path id="" clip-rule="evenodd" transform="matrix(1 0 0 1 0 0)" d="M344.024 580.757L344.024 574.038L344.024 574.038L350.743 574.038L350.743 574.038L350.743 580.757L350.743 580.757L344.024 580.757" /></clipPath><clipPath id="39"><path id="" clip-rule="evenodd" transform="matrix(1 0 0 1 0 0)" d="M331.545 573.078L355.542 573.078L355.542 573.078L355.542 575.957L355.542 575.957L357.462 575.957L357.462 575.957L357.462 599.955L357.462 599.955L328.665 600.915L328.665 600.915L328.665 575.957L328.665 575.957L331.545 575.957L331.545 575.957L331.545 573.078" /></clipPath><clipPath id="40"><path id="" clip-rule="evenodd" transform="matrix(1 0 0 1 0 0)" d="M281.94 423.9L409.98 423.9L409.98 423.9L409.98 678.96L409.98 678.96L281.94 678.96z" /></clipPath><clipPath id="41"><path id="" clip-rule="evenodd" transform="matrix(1 0 0 1 0 0)" d="M224.94 422.94L516.72 422.94L516.72 422.94L516.72 679.92L516.72 679.92L224.94 679.92z" /></clipPath><clipPath id="42"><path id="" clip-rule="evenodd" transform="matrix(1 0 0 1 0 0)" d="M0 0.02001953L595.2 0.02001953L595.2 0.02001953L595.2 842L595.2 842L0 842z" /></clipPath><clipPath id="43"><path id="" clip-rule="evenodd" transform="matrix(1 0 0 1 0 0)" d="M351.703 580.757L351.703 574.038L351.703 574.038L357.582 574.038L357.582 574.038L357.582 580.757L357.582 580.757L351.703 580.757" /></clipPath><clipPath id="44"><path id="" clip-rule="evenodd" transform="matrix(1 0 0 1 0 0)" d="M331.125 573.078L355.622 573.078L355.622 573.078L355.622 575.957L355.622 575.957L357.582 575.957L357.582 575.957L357.582 599.955L357.582 599.955L328.186 600.915L328.186 600.915L328.186 575.957L328.186 575.957L331.125 575.957L331.125 575.957L331.125 573.078" /></clipPath><clipPath id="45"><path id="" clip-rule="evenodd" transform="matrix(1 0 0 1 0 0)" d="M281.94 423.9L409.98 423.9L409.98 423.9L409.98 678.96L409.98 678.96L281.94 678.96z" /></clipPath><clipPath id="46"><path id="" clip-rule="evenodd" transform="matrix(1 0 0 1 0 0)" d="M224.94 422.94L516.72 422.94L516.72 422.94L516.72 679.92L516.72 679.92L224.94 679.92z" /></clipPath><clipPath id="47"><path id="" clip-rule="evenodd" transform="matrix(1 0 0 1 0 0)" d="M0 0.02001953L595.2 0.02001953L595.2 0.02001953L595.2 842L595.2 842L0 842z" /></clipPath><clipPath id="48"><path id="" clip-rule="evenodd" transform="matrix(1 0 0 1 0 0)" d="M328.665 588.436L328.665 581.717L328.665 581.717L335.385 581.717L335.385 581.717L335.385 588.436L335.385 588.436L328.665 588.436" /></clipPath><clipPath id="49"><path id="" clip-rule="evenodd" transform="matrix(1 0 0 1 0 0)" d="M331.545 573.078L355.542 573.078L355.542 573.078L355.542 575.957L355.542 575.957L357.462 575.957L357.462 575.957L357.462 599.955L357.462 599.955L328.665 600.915L328.665 600.915L328.665 575.957L328.665 575.957L331.545 575.957L331.545 575.957L331.545 573.078" /></clipPath><clipPath id="50"><path id="" clip-rule="evenodd" transform="matrix(1 0 0 1 0 0)" d="M281.94 423.9L409.98 423.9L409.98 423.9L409.98 678.96L409.98 678.96L281.94 678.96z" /></clipPath><clipPath id="51"><path id="" clip-rule="evenodd" transform="matrix(1 0 0 1 0 0)" d="M224.94 422.94L516.72 422.94L516.72 422.94L516.72 679.92L516.72 679.92L224.94 679.92z" /></clipPath><clipPath id="52"><path id="" clip-rule="evenodd" transform="matrix(1 0 0 1 0 0)" d="M0 0.02001953L595.2 0.02001953L595.2 0.02001953L595.2 842L595.2 842L0 842z" /></clipPath><clipPath id="53"><path id="" clip-rule="evenodd" transform="matrix(1 0 0 1 0 0)" d="M336.345 588.436L336.345 581.717L336.345 581.717L343.064 581.717L343.064 581.717L343.064 588.436L343.064 588.436L336.345 588.436" /></clipPath><clipPath id="54"><path id="" clip-rule="evenodd" transform="matrix(1 0 0 1 0 0)" d="M331.545 573.078L355.542 573.078L355.542 573.078L355.542 575.957L355.542 575.957L357.462 575.957L357.462 575.957L357.462 599.955L357.462 599.955L328.665 600.915L328.665 600.915L328.665 575.957L328.665 575.957L331.545 575.957L331.545 575.957L331.545 573.078" /></clipPath><clipPath id="55"><path id="" clip-rule="evenodd" transform="matrix(1 0 0 1 0 0)" d="M281.94 423.9L409.98 423.9L409.98 423.9L409.98 678.96L409.98 678.96L281.94 678.96z" /></clipPath><clipPath id="56"><path id="" clip-rule="evenodd" transform="matrix(1 0 0 1 0 0)" d="M224.94 422.94L516.72 422.94L516.72 422.94L516.72 679.92L516.72 679.92L224.94 679.92z" /></clipPath><clipPath id="57"><path id="" clip-rule="evenodd" transform="matrix(1 0 0 1 0 0)" d="M0 0.02001953L595.2 0.02001953L595.2 0.02001953L595.2 842L595.2 842L0 842z" /></clipPath><clipPath id="58"><path id="" clip-rule="evenodd" transform="matrix(1 0 0 1 0 0)" d="M344.024 588.436L344.024 581.717L344.024 581.717L350.743 581.717L350.743 581.717L350.743 588.436L350.743 588.436L344.024 588.436" /></clipPath><clipPath id="59"><path id="" clip-rule="evenodd" transform="matrix(1 0 0 1 0 0)" d="M331.545 573.078L355.542 573.078L355.542 573.078L355.542 575.957L355.542 575.957L357.462 575.957L357.462 575.957L357.462 599.955L357.462 599.955L328.665 600.915L328.665 600.915L328.665 575.957L328.665 575.957L331.545 575.957L331.545 575.957L331.545 573.078" /></clipPath><clipPath id="60"><path id="" clip-rule="evenodd" transform="matrix(1 0 0 1 0 0)" d="M281.94 423.9L409.98 423.9L409.98 423.9L409.98 678.96L409.98 678.96L281.94 678.96z" /></clipPath><clipPath id="61"><path id="" clip-rule="evenodd" transform="matrix(1 0 0 1 0 0)" d="M224.94 422.94L516.72 422.94L516.72 422.94L516.72 679.92L516.72 679.92L224.94 679.92z" /></clipPath><clipPath id="62"><path id="" clip-rule="evenodd" transform="matrix(1 0 0 1 0 0)" d="M0 0.02001953L595.2 0.02001953L595.2 0.02001953L595.2 842L595.2 842L0 842z" /></clipPath><clipPath id="63"><path id="" clip-rule="evenodd" transform="matrix(1 0 0 1 0 0)" d="M351.703 588.436L351.703 581.717L351.703 581.717L357.582 581.717L357.582 581.717L357.582 588.436L357.582 588.436L351.703 588.436" /></clipPath><clipPath id="64"><path id="" clip-rule="evenodd" transform="matrix(1 0 0 1 0 0)" d="M331.125 573.078L355.622 573.078L355.622 573.078L355.622 575.957L355.622 575.957L357.582 575.957L357.582 575.957L357.582 599.955L357.582 599.955L328.186 600.915L328.186 600.915L328.186 575.957L328.186 575.957L331.125 575.957L331.125 575.957L331.125 573.078" /></clipPath><clipPath id="65"><path id="" clip-rule="evenodd" transform="matrix(1 0 0 1 0 0)" d="M281.94 423.9L409.98 423.9L409.98 423.9L409.98 678.96L409.98 678.96L281.94 678.96z" /></clipPath><clipPath id="66"><path id="" clip-rule="evenodd" transform="matrix(1 0 0 1 0 0)" d="M224.94 422.94L516.72 422.94L516.72 422.94L516.72 679.92L516.72 679.92L224.94 679.92z" /></clipPath><clipPath id="67"><path id="" clip-rule="evenodd" transform="matrix(1 0 0 1 0 0)" d="M0 0.02001953L595.2 0.02001953L595.2 0.02001953L595.2 842L595.2 842L0 842z" /></clipPath><clipPath id="68"><path id="" clip-rule="evenodd" transform="matrix(1 0 0 1 0 0)" d="M328.665 596.115L328.665 589.396L328.665 589.396L335.385 589.396L335.385 589.396L335.385 596.115L335.385 596.115L328.665 596.115" /></clipPath><clipPath id="69"><path id="" clip-rule="evenodd" transform="matrix(1 0 0 1 0 0)" d="M331.545 573.078L355.542 573.078L355.542 573.078L355.542 575.957L355.542 575.957L357.462 575.957L357.462 575.957L357.462 599.955L357.462 599.955L328.665 600.915L328.665 600.915L328.665 575.957L328.665 575.957L331.545 575.957L331.545 575.957L331.545 573.078" /></clipPath><clipPath id="70"><path id="" clip-rule="evenodd" transform="matrix(1 0 0 1 0 0)" d="M281.94 423.9L409.98 423.9L409.98 423.9L409.98 678.96L409.98 678.96L281.94 678.96z" /></clipPath><clipPath id="71"><path id="" clip-rule="evenodd" transform="matrix(1 0 0 1 0 0)" d="M224.94 422.94L516.72 422.94L516.72 422.94L516.72 679.92L516.72 679.92L224.94 679.92z" /></clipPath><clipPath id="72"><path id="" clip-rule="evenodd" transform="matrix(1 0 0 1 0 0)" d="M0 0.02001953L595.2 0.02001953L595.2 0.02001953L595.2 842L595.2 842L0 842z" /></clipPath><clipPath id="73"><path id="" clip-rule="evenodd" transform="matrix(1 0 0 1 0 0)" d="M336.345 596.115L336.345 589.396L336.345 589.396L343.064 589.396L343.064 589.396L343.064 596.115L343.064 596.115L336.345 596.115" /></clipPath><clipPath id="74"><path id="" clip-rule="evenodd" transform="matrix(1 0 0 1 0 0)" d="M331.545 573.078L355.542 573.078L355.542 573.078L355.542 575.957L355.542 575.957L357.462 575.957L357.462 575.957L357.462 599.955L357.462 599.955L328.665 600.915L328.665 600.915L328.665 575.957L328.665 575.957L331.545 575.957L331.545 575.957L331.545 573.078" /></clipPath><clipPath id="75"><path id="" clip-rule="evenodd" transform="matrix(1 0 0 1 0 0)" d="M281.94 423.9L409.98 423.9L409.98 423.9L409.98 678.96L409.98 678.96L281.94 678.96z" /></clipPath><clipPath id="76"><path id="" clip-rule="evenodd" transform="matrix(1 0 0 1 0 0)" d="M224.94 422.94L516.72 422.94L516.72 422.94L516.72 679.92L516.72 679.92L224.94 679.92z" /></clipPath><clipPath id="77"><path id="" clip-rule="evenodd" transform="matrix(1 0 0 1 0 0)" d="M0 0.02001953L595.2 0.02001953L595.2 0.02001953L595.2 842L595.2 842L0 842z" /></clipPath><clipPath id="78"><path id="" clip-rule="evenodd" transform="matrix(1 0 0 1 0 0)" d="M344.024 596.115L344.024 589.396L344.024 589.396L350.743 589.396L350.743 589.396L350.743 596.115L350.743 596.115L344.024 596.115" /></clipPath><clipPath id="79"><path id="" clip-rule="evenodd" transform="matrix(1 0 0 1 0 0)" d="M331.545 573.078L355.542 573.078L355.542 573.078L355.542 575.957L355.542 575.957L357.462 575.957L357.462 575.957L357.462 599.955L357.462 599.955L328.665 600.915L328.665 600.915L328.665 575.957L328.665 575.957L331.545 575.957L331.545 575.957L331.545 573.078" /></clipPath><clipPath id="80"><path id="" clip-rule="evenodd" transform="matrix(1 0 0 1 0 0)" d="M281.94 423.9L409.98 423.9L409.98 423.9L409.98 678.96L409.98 678.96L281.94 678.96z" /></clipPath><clipPath id="81"><path id="" clip-rule="evenodd" transform="matrix(1 0 0 1 0 0)" d="M224.94 422.94L516.72 422.94L516.72 422.94L516.72 679.92L516.72 679.92L224.94 679.92z" /></clipPath><clipPath id="82"><path id="" clip-rule="evenodd" transform="matrix(1 0 0 1 0 0)" d="M0 0.02001953L595.2 0.02001953L595.2 0.02001953L595.2 842L595.2 842L0 842z" /></clipPath><clipPath id="83"><path id="" clip-rule="evenodd" transform="matrix(1 0 0 1 0 0)" d="M351.703 596.115L351.703 589.396L351.703 589.396L357.582 589.396L357.582 589.396L357.582 596.115L357.582 596.115L351.703 596.115" /></clipPath><clipPath id="84"><path id="" clip-rule="evenodd" transform="matrix(1 0 0 1 0 0)" d="M331.125 573.078L355.622 573.078L355.622 573.078L355.622 575.957L355.622 575.957L357.582 575.957L357.582 575.957L357.582 599.955L357.582 599.955L328.186 600.915L328.186 600.915L328.186 575.957L328.186 575.957L331.125 575.957L331.125 575.957L331.125 573.078" /></clipPath><clipPath id="85"><path id="" clip-rule="evenodd" transform="matrix(1 0 0 1 0 0)" d="M281.94 423.9L409.98 423.9L409.98 423.9L409.98 678.96L409.98 678.96L281.94 678.96z" /></clipPath><clipPath id="86"><path id="" clip-rule="evenodd" transform="matrix(1 0 0 1 0 0)" d="M224.94 422.94L516.72 422.94L516.72 422.94L516.72 679.92L516.72 679.92L224.94 679.92z" /></clipPath><clipPath id="87"><path id="" clip-rule="evenodd" transform="matrix(1 0 0 1 0 0)" d="M0 0.02001953L595.2 0.02001953L595.2 0.02001953L595.2 842L595.2 842L0 842z" /></clipPath><clipPath id="88"><path id="" clip-rule="evenodd" transform="matrix(1 0 0 1 0 0)" d="M328.665 601.035L328.665 597.099L328.665 597.099L335.385 597.099L335.385 597.099L335.385 601.035L335.385 601.035L328.665 601.035" /></clipPath><clipPath id="89"><path id="" clip-rule="evenodd" transform="matrix(1 0 0 1 0 0)" d="M331.545 573.484L355.542 573.484L355.542 573.484L355.542 576.436L355.542 576.436L357.462 576.436L357.462 576.436L357.462 600.051L357.462 600.051L328.665 601.035L328.665 601.035L328.665 576.436L328.665 576.436L331.545 576.436L331.545 576.436L331.545 573.484" /></clipPath><clipPath id="90"><path id="" clip-rule="evenodd" transform="matrix(1 0 0 1 0 0)" d="M281.94 423.9L409.98 423.9L409.98 423.9L409.98 678.96L409.98 678.96L281.94 678.96z" /></clipPath><clipPath id="91"><path id="" clip-rule="evenodd" transform="matrix(1 0 0 1 0 0)" d="M224.94 422.94L516.72 422.94L516.72 422.94L516.72 679.92L516.72 679.92L224.94 679.92z" /></clipPath><clipPath id="92"><path id="" clip-rule="evenodd" transform="matrix(1 0 0 1 0 0)" d="M0 0.02001953L595.2 0.02001953L595.2 0.02001953L595.2 842L595.2 842L0 842z" /></clipPath><clipPath id="93"><path id="" clip-rule="evenodd" transform="matrix(1 0 0 1 0 0)" d="M336.345 601.035L336.345 597.099L336.345 597.099L343.064 597.099L343.064 597.099L343.064 601.035L343.064 601.035L336.345 601.035" /></clipPath><clipPath id="94"><path id="" clip-rule="evenodd" transform="matrix(1 0 0 1 0 0)" d="M331.545 573.484L355.542 573.484L355.542 573.484L355.542 576.436L355.542 576.436L357.462 576.436L357.462 576.436L357.462 600.051L357.462 600.051L328.665 601.035L328.665 601.035L328.665 576.436L328.665 576.436L331.545 576.436L331.545 576.436L331.545 573.484" /></clipPath><clipPath id="95"><path id="" clip-rule="evenodd" transform="matrix(1 0 0 1 0 0)" d="M281.94 423.9L409.98 423.9L409.98 423.9L409.98 678.96L409.98 678.96L281.94 678.96z" /></clipPath><clipPath id="96"><path id="" clip-rule="evenodd" transform="matrix(1 0 0 1 0 0)" d="M224.94 422.94L516.72 422.94L516.72 422.94L516.72 679.92L516.72 679.92L224.94 679.92z" /></clipPath><clipPath id="97"><path id="" clip-rule="evenodd" transform="matrix(1 0 0 1 0 0)" d="M0 0.02001953L595.2 0.02001953L595.2 0.02001953L595.2 842L595.2 842L0 842z" /></clipPath><clipPath id="98"><path id="" clip-rule="evenodd" transform="matrix(1 0 0 1 0 0)" d="M344.024 601.035L344.024 597.099L344.024 597.099L350.743 597.099L350.743 597.099L350.743 601.035L350.743 601.035L344.024 601.035" /></clipPath><clipPath id="99"><path id="" clip-rule="evenodd" transform="matrix(1 0 0 1 0 0)" d="M331.545 573.484L355.542 573.484L355.542 573.484L355.542 576.436L355.542 576.436L357.462 576.436L357.462 576.436L357.462 600.051L357.462 600.051L328.665 601.035L328.665 601.035L328.665 576.436L328.665 576.436L331.545 576.436L331.545 576.436L331.545 573.484" /></clipPath><clipPath id="100"><path id="" clip-rule="evenodd" transform="matrix(1 0 0 1 0 0)" d="M281.94 423.9L409.98 423.9L409.98 423.9L409.98 678.96L409.98 678.96L281.94 678.96z" /></clipPath><clipPath id="101"><path id="" clip-rule="evenodd" transform="matrix(1 0 0 1 0 0)" d="M224.94 422.94L516.72 422.94L516.72 422.94L516.72 679.92L516.72 679.92L224.94 679.92z" /></clipPath><clipPath id="102"><path id="" clip-rule="evenodd" transform="matrix(1 0 0 1 0 0)" d="M0 0.02001953L595.2 0.02001953L595.2 0.02001953L595.2 842L595.2 842L0 842z" /></clipPath><clipPath id="103"><path id="" clip-rule="evenodd" transform="matrix(1 0 0 1 0 0)" d="M351.703 601.035L351.703 597.099L351.703 597.099L357.582 597.099L357.582 597.099L357.582 601.035L357.582 601.035L351.703 601.035" /></clipPath><clipPath id="104"><path id="" clip-rule="evenodd" transform="matrix(1 0 0 1 0 0)" d="M331.125 573.484L355.622 573.484L355.622 573.484L355.622 576.436L355.622 576.436L357.582 576.436L357.582 576.436L357.582 600.051L357.582 600.051L328.186 601.035L328.186 601.035L328.186 576.436L328.186 576.436L331.125 576.436L331.125 576.436L331.125 573.484" /></clipPath><clipPath id="105"><path id="" clip-rule="evenodd" transform="matrix(1 0 0 1 0 0)" d="M281.94 423.9L409.98 423.9L409.98 423.9L409.98 678.96L409.98 678.96L281.94 678.96z" /></clipPath><clipPath id="106"><path id="" clip-rule="evenodd" transform="matrix(1 0 0 1 0 0)" d="M224.94 422.94L516.72 422.94L516.72 422.94L516.72 679.92L516.72 679.92L224.94 679.92z" /></clipPath><clipPath id="107"><path id="" clip-rule="evenodd" transform="matrix(1 0 0 1 0 0)" d="M0 0.02001953L595.2 0.02001953L595.2 0.02001953L595.2 842L595.2 842L0 842z" /></clipPath><clipPath id="108"><path id="" clip-rule="evenodd" transform="matrix(1 0 0 1 0 0)" d="M281.94 423.9L409.98 423.9L409.98 423.9L409.98 678.96L409.98 678.96L281.94 678.96z" /></clipPath><clipPath id="109"><path id="" clip-rule="evenodd" transform="matrix(1 0 0 1 0 0)" d="M224.94 422.94L516.72 422.94L516.72 422.94L516.72 679.92L516.72 679.92L224.94 679.92z" /></clipPath><clipPath id="110"><path id="" clip-rule="evenodd" transform="matrix(1 0 0 1 0 0)" d="M0 0.02001953L595.2 0.02001953L595.2 0.02001953L595.2 842L595.2 842L0 842z" /></clipPath><clipPath id="111"><path id="" clip-rule="evenodd" transform="matrix(1 0 0 1 0 0)" d="M328.065 506.485L328.065 499.766L328.065 499.766L334.785 499.766L334.785 499.766L334.785 506.485L334.785 506.485L328.065 506.485" /></clipPath><clipPath id="112"><path id="" clip-rule="evenodd" transform="matrix(1 0 0 1 0 0)" d="M335.744 506.485L335.744 499.766L335.744 499.766L342.464 499.766L342.464 499.766L342.464 506.485L342.464 506.485L335.744 506.485" /></clipPath><clipPath id="113"><path id="" clip-rule="evenodd" transform="matrix(1 0 0 1 0 0)" d="M343.424 506.485L343.424 499.766L343.424 499.766L350.143 499.766L350.143 499.766L350.143 506.485L350.143 506.485L343.424 506.485" /></clipPath><clipPath id="114"><path id="" clip-rule="evenodd" transform="matrix(1 0 0 1 0 0)" d="M351.103 506.485L351.103 499.766L351.103 499.766L357.822 499.766L357.822 499.766L357.822 506.485L357.822 506.485L351.103 506.485" /></clipPath><clipPath id="115"><path id="" clip-rule="evenodd" transform="matrix(1 0 0 1 0 0)" d="M358.782 506.485L358.782 499.766L358.782 499.766L359.982 499.766L359.982 499.766L359.982 506.485L359.982 506.485L358.782 506.485" /></clipPath><clipPath id="116"><path id="" clip-rule="evenodd" transform="matrix(1 0 0 1 0 0)" d="M328.065 514.164L328.065 507.445L328.065 507.445L334.785 507.445L334.785 507.445L334.785 514.164L334.785 514.164L328.065 514.164" /></clipPath><clipPath id="117"><path id="" clip-rule="evenodd" transform="matrix(1 0 0 1 0 0)" d="M335.744 514.164L335.744 507.445L335.744 507.445L342.464 507.445L342.464 507.445L342.464 514.164L342.464 514.164L335.744 514.164" /></clipPath><clipPath id="118"><path id="" clip-rule="evenodd" transform="matrix(1 0 0 1 0 0)" d="M343.424 514.164L343.424 507.445L343.424 507.445L350.143 507.445L350.143 507.445L350.143 514.164L350.143 514.164L343.424 514.164" /></clipPath><clipPath id="119"><path id="" clip-rule="evenodd" transform="matrix(1 0 0 1 0 0)" d="M351.103 514.164L351.103 507.445L351.103 507.445L357.822 507.445L357.822 507.445L357.822 514.164L357.822 514.164L351.103 514.164" /></clipPath><clipPath id="120"><path id="" clip-rule="evenodd" transform="matrix(1 0 0 1 0 0)" d="M358.782 514.164L358.782 507.445L358.782 507.445L359.982 507.445L359.982 507.445L359.982 514.164L359.982 514.164L358.782 514.164" /></clipPath><clipPath id="121"><path id="" clip-rule="evenodd" transform="matrix(1 0 0 1 0 0)" d="M328.065 521.843L328.065 515.124L328.065 515.124L334.785 515.124L334.785 515.124L334.785 521.843L334.785 521.843L328.065 521.843" /></clipPath><clipPath id="122"><path id="" clip-rule="evenodd" transform="matrix(1 0 0 1 0 0)" d="M335.744 521.843L335.744 515.124L335.744 515.124L342.464 515.124L342.464 515.124L342.464 521.843L342.464 521.843L335.744 521.843" /></clipPath><clipPath id="123"><path id="" clip-rule="evenodd" transform="matrix(1 0 0 1 0 0)" d="M343.424 521.843L343.424 515.124L343.424 515.124L350.143 515.124L350.143 515.124L350.143 521.843L350.143 521.843L343.424 521.843" /></clipPath><clipPath id="124"><path id="" clip-rule="evenodd" transform="matrix(1 0 0 1 0 0)" d="M351.103 521.843L351.103 515.124L351.103 515.124L357.822 515.124L357.822 515.124L357.822 521.843L357.822 521.843L351.103 521.843" /></clipPath><clipPath id="125"><path id="" clip-rule="evenodd" transform="matrix(1 0 0 1 0 0)" d="M358.782 521.843L358.782 515.124L358.782 515.124L359.982 515.124L359.982 515.124L359.982 521.843L359.982 521.843L358.782 521.843" /></clipPath><clipPath id="126"><path id="" clip-rule="evenodd" transform="matrix(1 0 0 1 0 0)" d="M328.065 529.523L328.065 522.803L328.065 522.803L334.785 522.803L334.785 522.803L334.785 529.523L334.785 529.523L328.065 529.523" /></clipPath><clipPath id="127"><path id="" clip-rule="evenodd" transform="matrix(1 0 0 1 0 0)" d="M335.744 529.523L335.744 522.803L335.744 522.803L342.464 522.803L342.464 522.803L342.464 529.523L342.464 529.523L335.744 529.523" /></clipPath><clipPath id="128"><path id="" clip-rule="evenodd" transform="matrix(1 0 0 1 0 0)" d="M343.424 529.523L343.424 522.803L343.424 522.803L350.143 522.803L350.143 522.803L350.143 529.523L350.143 529.523L343.424 529.523" /></clipPath><clipPath id="129"><path id="" clip-rule="evenodd" transform="matrix(1 0 0 1 0 0)" d="M351.103 529.523L351.103 522.803L351.103 522.803L357.822 522.803L357.822 522.803L357.822 529.523L357.822 529.523L351.103 529.523" /></clipPath><clipPath id="130"><path id="" clip-rule="evenodd" transform="matrix(1 0 0 1 0 0)" d="M358.782 529.523L358.782 522.803L358.782 522.803L359.982 522.803L359.982 522.803L359.982 529.523L359.982 529.523L358.782 529.523" /></clipPath><clipPath id="131"><path id="" clip-rule="evenodd" transform="matrix(1 0 0 1 0 0)" d="M328.065 537.202L328.065 530.482L328.065 530.482L334.785 530.482L334.785 530.482L334.785 537.202L334.785 537.202L328.065 537.202" /></clipPath><clipPath id="132"><path id="" clip-rule="evenodd" transform="matrix(1 0 0 1 0 0)" d="M335.744 537.202L335.744 530.482L335.744 530.482L342.464 530.482L342.464 530.482L342.464 537.202L342.464 537.202L335.744 537.202" /></clipPath><clipPath id="133"><path id="" clip-rule="evenodd" transform="matrix(1 0 0 1 0 0)" d="M343.424 537.202L343.424 530.482L343.424 530.482L350.143 530.482L350.143 530.482L350.143 537.202L350.143 537.202L343.424 537.202" /></clipPath><clipPath id="134"><path id="" clip-rule="evenodd" transform="matrix(1 0 0 1 0 0)" d="M351.103 537.202L351.103 530.482L351.103 530.482L357.822 530.482L357.822 530.482L357.822 537.202L357.822 537.202L351.103 537.202" /></clipPath><clipPath id="135"><path id="" clip-rule="evenodd" transform="matrix(1 0 0 1 0 0)" d="M358.782 537.202L358.782 530.482L358.782 530.482L359.982 530.482L359.982 530.482L359.982 537.202L359.982 537.202L358.782 537.202" /></clipPath><clipPath id="136"><path id="" clip-rule="evenodd" transform="matrix(1 0 0 1 0 0)" d="M328.065 544.881L328.065 538.162L328.065 538.162L334.785 538.162L334.785 538.162L334.785 544.881L334.785 544.881L328.065 544.881" /></clipPath><clipPath id="137"><path id="" clip-rule="evenodd" transform="matrix(1 0 0 1 0 0)" d="M335.744 544.881L335.744 538.162L335.744 538.162L342.464 538.162L342.464 538.162L342.464 544.881L342.464 544.881L335.744 544.881" /></clipPath><clipPath id="138"><path id="" clip-rule="evenodd" transform="matrix(1 0 0 1 0 0)" d="M343.424 544.881L343.424 538.162L343.424 538.162L350.143 538.162L350.143 538.162L350.143 544.881L350.143 544.881L343.424 544.881" /></clipPath><clipPath id="139"><path id="" clip-rule="evenodd" transform="matrix(1 0 0 1 0 0)" d="M351.103 544.881L351.103 538.162L351.103 538.162L357.822 538.162L357.822 538.162L357.822 544.881L357.822 544.881L351.103 544.881" /></clipPath><clipPath id="140"><path id="" clip-rule="evenodd" transform="matrix(1 0 0 1 0 0)" d="M358.782 544.881L358.782 538.162L358.782 538.162L359.982 538.162L359.982 538.162L359.982 544.881L359.982 544.881L358.782 544.881" /></clipPath><clipPath id="141"><path id="" clip-rule="evenodd" transform="matrix(1 0 0 1 0 0)" d="M328.065 552.56L328.065 545.841L328.065 545.841L334.785 545.841L334.785 545.841L334.785 552.56L334.785 552.56L328.065 552.56" /></clipPath><clipPath id="142"><path id="" clip-rule="evenodd" transform="matrix(1 0 0 1 0 0)" d="M335.744 552.56L335.744 545.841L335.744 545.841L342.464 545.841L342.464 545.841L342.464 552.56L342.464 552.56L335.744 552.56" /></clipPath><clipPath id="143"><path id="" clip-rule="evenodd" transform="matrix(1 0 0 1 0 0)" d="M343.424 552.56L343.424 545.841L343.424 545.841L350.143 545.841L350.143 545.841L350.143 552.56L350.143 552.56L343.424 552.56" /></clipPath><clipPath id="144"><path id="" clip-rule="evenodd" transform="matrix(1 0 0 1 0 0)" d="M351.103 552.56L351.103 545.841L351.103 545.841L357.822 545.841L357.822 545.841L357.822 552.56L357.822 552.56L351.103 552.56" /></clipPath><clipPath id="145"><path id="" clip-rule="evenodd" transform="matrix(1 0 0 1 0 0)" d="M358.782 552.56L358.782 545.841L358.782 545.841L359.982 545.841L359.982 545.841L359.982 552.56L359.982 552.56L358.782 552.56" /></clipPath><clipPath id="146"><path id="" clip-rule="evenodd" transform="matrix(1 0 0 1 0 0)" d="M328.065 559.639L328.065 553.572L328.065 553.572L334.785 553.572L334.785 553.572L334.785 559.639L334.785 559.639L328.065 559.639" /></clipPath><clipPath id="147"><path id="" clip-rule="evenodd" transform="matrix(1 0 0 1 0 0)" d="M335.744 559.639L335.744 553.572L335.744 553.572L342.464 553.572L342.464 553.572L342.464 559.639L342.464 559.639L335.744 559.639" /></clipPath><clipPath id="148"><path id="" clip-rule="evenodd" transform="matrix(1 0 0 1 0 0)" d="M343.424 559.639L343.424 553.572L343.424 553.572L350.143 553.572L350.143 553.572L350.143 559.639L350.143 559.639L343.424 559.639" /></clipPath><clipPath id="149"><path id="" clip-rule="evenodd" transform="matrix(1 0 0 1 0 0)" d="M351.103 559.639L351.103 553.572L351.103 553.572L357.822 553.572L357.822 553.572L357.822 559.639L357.822 559.639L351.103 559.639" /></clipPath><clipPath id="150"><path id="" clip-rule="evenodd" transform="matrix(1 0 0 1 0 0)" d="M358.782 559.639L358.782 553.572L358.782 553.572L359.982 553.572L359.982 553.572L359.982 559.639L359.982 559.639L358.782 559.639" /></clipPath><clipPath id="151"><path id="" clip-rule="evenodd" transform="matrix(1 0 0 1 0 0)" d="M281.94 423.9L409.98 423.9L409.98 423.9L409.98 678.96L409.98 678.96L281.94 678.96z" /></clipPath><clipPath id="152"><path id="" clip-rule="evenodd" transform="matrix(1 0 0 1 0 0)" d="M224.94 422.94L516.72 422.94L516.72 422.94L516.72 679.92L516.72 679.92L224.94 679.92z" /></clipPath><clipPath id="153"><path id="" clip-rule="evenodd" transform="matrix(1 0 0 1 0 0)" d="M0 0.02001953L595.2 0.02001953L595.2 0.02001953L595.2 842L595.2 842L0 842z" /></clipPath><clipPath id="154"><path id="" clip-rule="evenodd" transform="matrix(1 0 0 1 0 0)" d="M336.105 476.609L336.105 469.889L336.105 469.889L342.824 469.889L342.824 469.889L342.824 476.609L342.824 476.609L336.105 476.609" /></clipPath><clipPath id="155"><path id="" clip-rule="evenodd" transform="matrix(1 0 0 1 0 0)" d="M343.784 476.609L343.784 469.889L343.784 469.889L350.083 469.889L350.083 469.889L350.083 476.609L350.083 476.609L343.784 476.609" /></clipPath><clipPath id="156"><path id="" clip-rule="evenodd" transform="matrix(1 0 0 1 0 0)" d="M336.105 484.288L336.105 477.569L336.105 477.569L342.824 477.569L342.824 477.569L342.824 484.288L342.824 484.288L336.105 484.288" /></clipPath><clipPath id="157"><path id="" clip-rule="evenodd" transform="matrix(1 0 0 1 0 0)" d="M343.784 484.288L343.784 477.569L343.784 477.569L350.083 477.569L350.083 477.569L350.083 484.288L350.083 484.288L343.784 484.288" /></clipPath><clipPath id="158"><path id="" clip-rule="evenodd" transform="matrix(1 0 0 1 0 0)" d="M336.105 491.967L336.105 485.248L336.105 485.248L342.824 485.248L342.824 485.248L342.824 491.967L342.824 491.967L336.105 491.967" /></clipPath><clipPath id="159"><path id="" clip-rule="evenodd" transform="matrix(1 0 0 1 0 0)" d="M343.784 491.967L343.784 485.248L343.784 485.248L350.083 485.248L350.083 485.248L350.083 491.967L350.083 491.967L343.784 491.967" /></clipPath><clipPath id="160"><path id="" clip-rule="evenodd" transform="matrix(1 0 0 1 0 0)" d="M336.105 498.806L336.105 492.944L336.105 492.944L342.824 492.944L342.824 492.944L342.824 498.806L342.824 498.806L336.105 498.806" /></clipPath><clipPath id="161"><path id="" clip-rule="evenodd" transform="matrix(1 0 0 1 0 0)" d="M343.784 498.806L343.784 492.944L343.784 492.944L350.083 492.944L350.083 492.944L350.083 498.806L350.083 498.806L343.784 498.806" /></clipPath><clipPath id="162"><path id="" clip-rule="evenodd" transform="matrix(1 0 0 1 0 0)" d="M281.94 423.9L409.98 423.9L409.98 423.9L409.98 678.96L409.98 678.96L281.94 678.96z" /></clipPath><clipPath id="163"><path id="" clip-rule="evenodd" transform="matrix(1 0 0 1 0 0)" d="M224.94 422.94L516.72 422.94L516.72 422.94L516.72 679.92L516.72 679.92L224.94 679.92z" /></clipPath><clipPath id="164"><path id="" clip-rule="evenodd" transform="matrix(1 0 0 1 0 0)" d="M0 0.02001953L595.2 0.02001953L595.2 0.02001953L595.2 842L595.2 842L0 842z" /></clipPath><clipPath id="165"><path id="" clip-rule="evenodd" transform="matrix(1 0 0 1 0 0)" d="M338.024 452.731L338.024 446.012L338.024 446.012L344.744 446.012L344.744 446.012L344.744 452.731L344.744 452.731L338.024 452.731" /></clipPath><clipPath id="166"><path id="" clip-rule="evenodd" transform="matrix(1 0 0 1 0 0)" d="M345.704 452.731L345.704 446.012L345.704 446.012L350.023 446.012L350.023 446.012L350.023 452.731L350.023 452.731L345.704 452.731" /></clipPath><clipPath id="167"><path id="" clip-rule="evenodd" transform="matrix(1 0 0 1 0 0)" d="M338.024 460.41L338.024 453.691L338.024 453.691L344.744 453.691L344.744 453.691L344.744 460.41L344.744 460.41L338.024 460.41" /></clipPath><clipPath id="168"><path id="" clip-rule="evenodd" transform="matrix(1 0 0 1 0 0)" d="M345.704 460.41L345.704 453.691L345.704 453.691L350.023 453.691L350.023 453.691L350.023 460.41L350.023 460.41L345.704 460.41" /></clipPath><clipPath id="169"><path id="" clip-rule="evenodd" transform="matrix(1 0 0 1 0 0)" d="M338.024 468.09L338.024 461.37L338.024 461.37L344.744 461.37L344.744 461.37L344.744 468.09L344.744 468.09L338.024 468.09" /></clipPath><clipPath id="170"><path id="" clip-rule="evenodd" transform="matrix(1 0 0 1 0 0)" d="M345.704 468.09L345.704 461.37L345.704 461.37L350.023 461.37L350.023 461.37L350.023 468.09L350.023 468.09L345.704 468.09" /></clipPath><clipPath id="171"><path id="" clip-rule="evenodd" transform="matrix(1 0 0 1 0 0)" d="M281.94 423.9L409.98 423.9L409.98 423.9L409.98 678.96L409.98 678.96L281.94 678.96z" /></clipPath><clipPath id="172"><path id="" clip-rule="evenodd" transform="matrix(1 0 0 1 0 0)" d="M224.94 422.94L516.72 422.94L516.72 422.94L516.72 679.92L516.72 679.92L224.94 679.92z" /></clipPath><clipPath id="173"><path id="" clip-rule="evenodd" transform="matrix(1 0 0 1 0 0)" d="M0 0.02001953L595.2 0.02001953L595.2 0.02001953L595.2 842L595.2 842L0 842z" /></clipPath><clipPath id="174"><path id="" clip-rule="evenodd" transform="matrix(1 0 0 1 0 0)" d="M224.94 422.94L516.72 422.94L516.72 422.94L516.72 679.92L516.72 679.92L224.94 679.92z" /></clipPath><clipPath id="175"><path id="" clip-rule="evenodd" transform="matrix(1 0 0 1 0 0)" d="M0 0.02001953L595.2 0.02001953L595.2 0.02001953L595.2 842L595.2 842L0 842z" /></clipPath></defs><g transform="matrix(1.333333 0 0 1.333333 0 0)"><g clip-path="url(#1)"><g clip-path="url(#2)"><g clip-path="url(#3)"><g clip-path="url(#4)"><g transform="matrix(0.4796141 0 0 0.47925 225.96 198.96)"><g transform="matrix(1 0 0 1 0 0)"><image x="0" y="0" xlink:href="img_223.png" width="622" height="240" /></g></g></g></g></g><g clip-path="url(#5)"><g clip-path="url(#6)"><path id="448" transform="matrix(1 0 0 -1 0 842)" d="M257.88 620.84L258.9 620.84L258.9 621.32L257.88 621.32z" stroke="none" fill="#000000" fill-rule="nonzero" /><path id="449" transform="matrix(1 0 0 -1 0 842)" d="M258.24 588.8L259.26 588.8L259.26 589.28L258.24 589.28z" stroke="none" fill="#000000" fill-rule="nonzero" /><path id="450" transform="matrix(1 0 0 -1 0 842)" d="M258.9 620.84L257.88 620.84L258.24 589.28L259.26 589.28" stroke="none" fill="#000000" fill-rule="nonzero" /><path id="451" transform="matrix(1 0 0 -1 0 842)" d="M242.94 622.7L281.34 622.7L281.34 633.5L242.94 633.5z" stroke="none" fill="#FFFFFF" fill-rule="nonzero" /><path id="455" transform="matrix(1 0 0 -1 0 842)" d="M330.6 627.2L331.62 627.2L331.62 627.68L330.6 627.68z" stroke="none" fill="#000000" fill-rule="nonzero" /><path id="456" transform="matrix(1 0 0 -1 0 842)" d="M330.06 554.9L331.08 554.9L331.08 555.38L330.06 555.38z" stroke="none" fill="#000000" fill-rule="nonzero" /><path id="457" transform="matrix(1 0 0 -1 0 842)" d="M331.62 627.2L330.6 627.2L330.06 555.38L331.08 555.38" stroke="none" fill="#000000" fill-rule="nonzero" /><path id="458" transform="matrix(1 0 0 -1 0 842)" d="M301.86 542.42L373.68 542.42L373.68 553.22L301.86 553.22z" stroke="none" fill="#FFFFFF" fill-rule="nonzero" /><path id="465" transform="matrix(1 0 0 -1 0 842)" d="M361.86 566.3L388.26 566.3L388.26 577.1L361.86 577.1z" stroke="none" fill="#FFFFFF" fill-rule="nonzero" /><path id="468" transform="matrix(1 0 0 -1 0 842)" d="M349.38 573.02L350.4 573.02L350.4 622.82L349.38 622.82z" stroke="none" fill="#000000" fill-rule="nonzero" /><path id="469" transform="matrix(1 0 0 -1 0 842)" d="M349.86 573.02L360.06 573.02L360.06 574.04L349.86 574.04z" stroke="none" fill="#000000" fill-rule="nonzero" /></g></g><g clip-path="url(#7)"><g transform="matrix(0.9598875 0 0 -0.9598875 321.106 610.1541)"><g transform="matrix(1 0 0 1 0 0)"><image x="0" y="0" xlink:href="img_209.png" width="8" height="8" /></g></g></g><g clip-path="url(#8)"><g transform="matrix(0.9598875 0 0 -0.9598875 328.785 610.1541)"><g transform="matrix(1 0 0 1 0 0)"><image x="0" y="0" xlink:href="img_209.png" width="8" height="8" /></g></g></g><g clip-path="url(#9)"><g transform="matrix(0.9598875 0 0 -0.9598875 336.465 610.1541)"><g transform="matrix(1 0 0 1 0 0)"><image x="0" y="0" xlink:href="img_209.png" width="8" height="8" /></g></g></g><g clip-path="url(#10)"><g transform="matrix(0.9598875 0 0 -0.9598875 344.144 610.1541)"><g transform="matrix(1 0 0 1 0 0)"><image x="0" y="0" xlink:href="img_209.png" width="8" height="8" /></g></g></g><g clip-path="url(#11)"><g transform="matrix(0.959925 0 0 -0.9598875 351.823 610.1541)"><g transform="matrix(1 0 0 1 0 0)"><image x="0" y="0" xlink:href="img_209.png" width="8" height="8" /></g></g></g><g clip-path="url(#12)"><g transform="matrix(0.9255875 0 0 -0.9598875 359.502 610.1541)"><g transform="matrix(1 0 0 1 0 0)"><image x="0" y="0" xlink:href="img_209.png" width="8" height="8" /></g></g></g><g clip-path="url(#13)"><g transform="matrix(0.9598875 0 0 -0.9598875 321.106 617.8331)"><g transform="matrix(1 0 0 1 0 0)"><image x="0" y="0" xlink:href="img_209.png" width="8" height="8" /></g></g></g><g clip-path="url(#14)"><g transform="matrix(0.9598875 0 0 -0.9598875 328.785 617.8331)"><g transform="matrix(1 0 0 1 0 0)"><image x="0" y="0" xlink:href="img_209.png" width="8" height="8" /></g></g></g><g clip-path="url(#15)"><g transform="matrix(0.9598875 0 0 -0.9598875 336.465 617.8331)"><g transform="matrix(1 0 0 1 0 0)"><image x="0" y="0" xlink:href="img_209.png" width="8" height="8" /></g></g></g><g clip-path="url(#16)"><g transform="matrix(0.9598875 0 0 -0.9598875 344.144 617.8331)"><g transform="matrix(1 0 0 1 0 0)"><image x="0" y="0" xlink:href="img_209.png" width="8" height="8" /></g></g></g><g clip-path="url(#17)"><g transform="matrix(0.959925 0 0 -0.9598875 351.823 617.8331)"><g transform="matrix(1 0 0 1 0 0)"><image x="0" y="0" xlink:href="img_209.png" width="8" height="8" /></g></g></g><g clip-path="url(#18)"><g transform="matrix(0.9255875 0 0 -0.9598875 359.502 617.8331)"><g transform="matrix(1 0 0 1 0 0)"><image x="0" y="0" xlink:href="img_209.png" width="8" height="8" /></g></g></g><g clip-path="url(#19)"><g transform="matrix(0.9598875 0 0 -0.9198834 321.106 623.3123)"><g transform="matrix(1 0 0 1 0 0)"><image x="0" y="0" xlink:href="img_224.png" width="8" height="6" /></g></g></g><g clip-path="url(#20)"><g transform="matrix(0.9598875 0 0 -0.9198834 328.785 623.3123)"><g transform="matrix(1 0 0 1 0 0)"><image x="0" y="0" xlink:href="img_224.png" width="8" height="6" /></g></g></g><g clip-path="url(#21)"><g transform="matrix(0.9598875 0 0 -0.9198834 336.465 623.3123)"><g transform="matrix(1 0 0 1 0 0)"><image x="0" y="0" xlink:href="img_224.png" width="8" height="6" /></g></g></g><g clip-path="url(#22)"><g transform="matrix(0.9598875 0 0 -0.9198834 344.144 623.3123)"><g transform="matrix(1 0 0 1 0 0)"><image x="0" y="0" xlink:href="img_224.png" width="8" height="6" /></g></g></g><g clip-path="url(#23)"><g transform="matrix(0.959925 0 0 -0.9198834 351.823 623.3123)"><g transform="matrix(1 0 0 1 0 0)"><image x="0" y="0" xlink:href="img_224.png" width="8" height="6" /></g></g></g><g clip-path="url(#24)"><g transform="matrix(0.9255875 0 0 -0.9198834 359.502 623.3123)"><g transform="matrix(1 0 0 1 0 0)"><image x="0" y="0" xlink:href="img_224.png" width="8" height="6" /></g></g></g><g clip-path="url(#25)"><g clip-path="url(#26)"><g clip-path="url(#27)"><path id="488" transform="matrix(1 0 0 -1 0 842)" d="M366.101 219.487L321.106 219.487L321.106 219.487L321.106 240.485L321.106 240.485L366.101 240.485z" stroke="#221E1F" stroke-width="0.96" fill="none" /></g></g></g><g clip-path="url(#28)"><g clip-path="url(#29)"><g clip-path="url(#30)"><g clip-path="url(#31)"><g clip-path="url(#32)"><g transform="matrix(0.9598875 0 0 -0.9598875 328.665 581.7171)"><g transform="matrix(1 0 0 1 0 0)"><image x="0" y="0" xlink:href="img_77.png" width="8" height="8" /></g></g></g></g></g></g></g><g clip-path="url(#33)"><g clip-path="url(#34)"><g clip-path="url(#35)"><g clip-path="url(#36)"><g clip-path="url(#37)"><g transform="matrix(0.9598875 0 0 -0.9598875 336.345 581.7171)"><g transform="matrix(1 0 0 1 0 0)"><image x="0" y="0" xlink:href="img_77.png" width="8" height="8" /></g></g></g></g></g></g></g><g clip-path="url(#38)"><g clip-path="url(#39)"><g clip-path="url(#40)"><g clip-path="url(#41)"><g clip-path="url(#42)"><g transform="matrix(0.9598875 0 0 -0.9598875 344.024 581.7171)"><g transform="matrix(1 0 0 1 0 0)"><image x="0" y="0" xlink:href="img_77.png" width="8" height="8" /></g></g></g></g></g></g></g><g clip-path="url(#43)"><g clip-path="url(#44)"><g clip-path="url(#45)"><g clip-path="url(#46)"><g clip-path="url(#47)"><g transform="matrix(0.9798858 0 0 -0.9598875 351.703 581.7171)"><g transform="matrix(1 0 0 1 0 0)"><image x="0" y="0" xlink:href="img_225.png" width="7" height="8" /></g></g></g></g></g></g></g><g clip-path="url(#48)"><g clip-path="url(#49)"><g clip-path="url(#50)"><g clip-path="url(#51)"><g clip-path="url(#52)"><g transform="matrix(0.9598875 0 0 -0.9598875 328.665 589.3961)"><g transform="matrix(1 0 0 1 0 0)"><image x="0" y="0" xlink:href="img_77.png" width="8" height="8" /></g></g></g></g></g></g></g><g clip-path="url(#53)"><g clip-path="url(#54)"><g clip-path="url(#55)"><g clip-path="url(#56)"><g clip-path="url(#57)"><g transform="matrix(0.9598875 0 0 -0.9598875 336.345 589.3961)"><g transform="matrix(1 0 0 1 0 0)"><image x="0" y="0" xlink:href="img_77.png" width="8" height="8" /></g></g></g></g></g></g></g><g clip-path="url(#58)"><g clip-path="url(#59)"><g clip-path="url(#60)"><g clip-path="url(#61)"><g clip-path="url(#62)"><g transform="matrix(0.9598875 0 0 -0.9598875 344.024 589.3961)"><g transform="matrix(1 0 0 1 0 0)"><image x="0" y="0" xlink:href="img_77.png" width="8" height="8" /></g></g></g></g></g></g></g><g clip-path="url(#63)"><g clip-path="url(#64)"><g clip-path="url(#65)"><g clip-path="url(#66)"><g clip-path="url(#67)"><g transform="matrix(0.9798858 0 0 -0.9598875 351.703 589.3961)"><g transform="matrix(1 0 0 1 0 0)"><image x="0" y="0" xlink:href="img_225.png" width="7" height="8" /></g></g></g></g></g></g></g><g clip-path="url(#68)"><g clip-path="url(#69)"><g clip-path="url(#70)"><g clip-path="url(#71)"><g clip-path="url(#72)"><g transform="matrix(0.9598875 0 0 -0.9598875 328.665 597.0751)"><g transform="matrix(1 0 0 1 0 0)"><image x="0" y="0" xlink:href="img_77.png" width="8" height="8" /></g></g></g></g></g></g></g><g clip-path="url(#73)"><g clip-path="url(#74)"><g clip-path="url(#75)"><g clip-path="url(#76)"><g clip-path="url(#77)"><g transform="matrix(0.9598875 0 0 -0.9598875 336.345 597.0751)"><g transform="matrix(1 0 0 1 0 0)"><image x="0" y="0" xlink:href="img_77.png" width="8" height="8" /></g></g></g></g></g></g></g><g clip-path="url(#78)"><g clip-path="url(#79)"><g clip-path="url(#80)"><g clip-path="url(#81)"><g clip-path="url(#82)"><g transform="matrix(0.9598875 0 0 -0.9598875 344.024 597.0751)"><g transform="matrix(1 0 0 1 0 0)"><image x="0" y="0" xlink:href="img_77.png" width="8" height="8" /></g></g></g></g></g></g></g><g clip-path="url(#83)"><g clip-path="url(#84)"><g clip-path="url(#85)"><g clip-path="url(#86)"><g clip-path="url(#87)"><g transform="matrix(0.9798858 0 0 -0.9598875 351.703 597.0751)"><g transform="matrix(1 0 0 1 0 0)"><image x="0" y="0" xlink:href="img_225.png" width="7" height="8" /></g></g></g></g></g></g></g><g clip-path="url(#88)"><g clip-path="url(#89)"><g clip-path="url(#90)"><g clip-path="url(#91)"><g clip-path="url(#92)"><g transform="matrix(0.9598875 0 0 -0.9839401 328.665 602.0187)"><g transform="matrix(1 0 0 1 0 0)"><image x="0" y="0" xlink:href="img_226.png" width="8" height="5" /></g></g></g></g></g></g></g><g clip-path="url(#93)"><g clip-path="url(#94)"><g clip-path="url(#95)"><g clip-path="url(#96)"><g clip-path="url(#97)"><g transform="matrix(0.9598875 0 0 -0.9839401 336.345 602.0187)"><g transform="matrix(1 0 0 1 0 0)"><image x="0" y="0" xlink:href="img_226.png" width="8" height="5" /></g></g></g></g></g></g></g><g clip-path="url(#98)"><g clip-path="url(#99)"><g clip-path="url(#100)"><g clip-path="url(#101)"><g clip-path="url(#102)"><g transform="matrix(0.9598875 0 0 -0.9839401 344.024 602.0187)"><g transform="matrix(1 0 0 1 0 0)"><image x="0" y="0" xlink:href="img_226.png" width="8" height="5" /></g></g></g></g></g></g></g><g clip-path="url(#103)"><g clip-path="url(#104)"><g clip-path="url(#105)"><g clip-path="url(#106)"><g clip-path="url(#107)"><g transform="matrix(0.9798858 0 0 -0.9839401 351.703 602.0187)"><g transform="matrix(1 0 0 1 0 0)"><image x="0" y="0" xlink:href="img_227.png" width="7" height="5" /></g></g></g></g></g></g></g><g clip-path="url(#108)"><g clip-path="url(#109)"><g clip-path="url(#110)"><path id="506" transform="matrix(1 0 0 -1 0 842)" d="M355.542 268.922L355.542 265.922L355.542 265.922L357.462 265.922L357.462 265.922L357.462 241.085L357.462 241.085L329.625 241.085L329.625 241.085L329.625 265.922L329.625 265.922L331.545 265.922L331.545 265.922L331.545 268.922" stroke="#221E1F" stroke-width="0.96" fill="none" /><path id="507" transform="matrix(1 0 0 -1 0 842)" d="M358.182 268.322L329.145 268.322L329.145 268.322L329.145 282.36L329.145 282.36L358.182 282.36z" stroke="#221E1F" stroke-width="0.96" fill="#FFFFFF" fill-rule="evenodd" /><path id="508" transform="matrix(1 0 0 -1 0 842)" d="M321.586 220.088L321.586 173.293L321.586 173.293L324.585 173.293L324.585 173.293L327.585 174.253L327.585 174.253L328.665 174.253L328.665 174.253L329.625 175.213L329.625 175.213L334.545 175.213L334.545 175.213L336.584 174.253L336.584 174.253L340.544 174.253L340.544 174.253L342.584 173.293L342.584 173.293L346.543 172.213L346.543 172.213L347.503 172.213L347.503 172.213L348.463 171.253L348.463 171.253L350.503 171.253L350.503 171.253L353.502 169.214L353.502 169.214L353.502 168.254L353.502 168.254L355.542 168.254L355.542 168.254L355.542 167.294L355.542 167.294L359.502 167.294L359.502 167.294L360.462 168.254L360.462 168.254L362.501 168.254L362.501 168.254L363.461 169.214L363.461 169.214L364.421 169.214L364.421 169.214L364.421 220.088L364.421 220.088L321.586 220.088z" stroke="#221E1F" stroke-width="0.96" fill="#FFFFFF" fill-rule="evenodd" /><path id="509" transform="matrix(1 0 0 -1 0 842)" d="M348.103 359.992L340.064 359.992L340.064 359.992L340.064 374.031L340.064 374.031L348.103 374.031z" stroke="#221E1F" stroke-width="0.96" fill="#FFFFFF" fill-rule="evenodd" /><path id="510" transform="matrix(1 0 0 -1 0 842)" d="M347.143 373.91L341.024 373.91L341.024 373.91L341.024 377.99L341.024 377.99L347.143 377.99z" stroke="#221E1F" stroke-width="0.96" fill="#FFFFFF" fill-rule="evenodd" /><path id="511" transform="matrix(1 0 0 -1 0 842)" d="M348.103 377.87L340.064 377.87L340.064 377.87L340.064 378.95L340.064 378.95L348.103 378.95z" stroke="#221E1F" stroke-width="0.96" fill="#FFFFFF" fill-rule="evenodd" /><path id="512" transform="matrix(1 0 0 -1 0 842)" d="M344.144 378.83L343.064 378.83L343.064 378.83L343.064 381.95L343.064 381.95L344.144 381.95z" stroke="#221E1F" stroke-width="0.96" fill="#FFFFFF" fill-rule="evenodd" /><path id="513" transform="matrix(1 0 0 -1 0 842)" d="M342.584 382.549L342.584 387.468L342.584 387.468L343.544 387.468L343.544 387.468L344.624 388.548L344.624 388.548L344.624 390.468L344.624 390.468L343.544 390.468L343.544 390.468L343.544 389.508L343.544 389.508L342.584 389.508L342.584 389.508L342.584 387.468L342.584 387.468L343.544 387.468L343.544 387.468L343.544 386.509L343.544 386.509L344.624 385.549L344.624 385.549L344.624 384.469L344.624 384.469L343.544 383.509L343.544 383.509L343.544 382.549" stroke="#221E1F" stroke-width="0.96" fill="none" /></g></g></g><g clip-path="url(#111)"><g transform="matrix(0.9598875 0 0 -0.959925 328.065 507.4454)"><g transform="matrix(1 0 0 1 0 0)"><image x="0" y="0" xlink:href="img_209.png" width="8" height="8" /></g></g></g><g clip-path="url(#112)"><g transform="matrix(0.959925 0 0 -0.959925 335.744 507.4454)"><g transform="matrix(1 0 0 1 0 0)"><image x="0" y="0" xlink:href="img_209.png" width="8" height="8" /></g></g></g><g clip-path="url(#113)"><g transform="matrix(0.9598875 0 0 -0.959925 343.424 507.4454)"><g transform="matrix(1 0 0 1 0 0)"><image x="0" y="0" xlink:href="img_209.png" width="8" height="8" /></g></g></g><g clip-path="url(#114)"><g transform="matrix(0.9598875 0 0 -0.959925 351.103 507.4454)"><g transform="matrix(1 0 0 1 0 0)"><image x="0" y="0" xlink:href="img_209.png" width="8" height="8" /></g></g></g><g clip-path="url(#115)"><g transform="matrix(1.19995 0 0 -0.959925 358.782 507.4454)"><g transform="matrix(1 0 0 1 0 0)"><image x="0" y="0" xlink:href="img_228.png" width="2" height="8" /></g></g></g><g clip-path="url(#116)"><g transform="matrix(0.9598875 0 0 -0.9598875 328.065 515.1241)"><g transform="matrix(1 0 0 1 0 0)"><image x="0" y="0" xlink:href="img_209.png" width="8" height="8" /></g></g></g><g clip-path="url(#117)"><g transform="matrix(0.959925 0 0 -0.9598875 335.744 515.1241)"><g transform="matrix(1 0 0 1 0 0)"><image x="0" y="0" xlink:href="img_209.png" width="8" height="8" /></g></g></g><g clip-path="url(#118)"><g transform="matrix(0.9598875 0 0 -0.9598875 343.424 515.1241)"><g transform="matrix(1 0 0 1 0 0)"><image x="0" y="0" xlink:href="img_209.png" width="8" height="8" /></g></g></g><g clip-path="url(#119)"><g transform="matrix(0.9598875 0 0 -0.9598875 351.103 515.1241)"><g transform="matrix(1 0 0 1 0 0)"><image x="0" y="0" xlink:href="img_209.png" width="8" height="8" /></g></g></g><g clip-path="url(#120)"><g transform="matrix(1.19995 0 0 -0.9598875 358.782 515.1241)"><g transform="matrix(1 0 0 1 0 0)"><image x="0" y="0" xlink:href="img_228.png" width="2" height="8" /></g></g></g><g clip-path="url(#121)"><g transform="matrix(0.9598875 0 0 -0.9598875 328.065 522.8031)"><g transform="matrix(1 0 0 1 0 0)"><image x="0" y="0" xlink:href="img_209.png" width="8" height="8" /></g></g></g><g clip-path="url(#122)"><g transform="matrix(0.959925 0 0 -0.9598875 335.744 522.8031)"><g transform="matrix(1 0 0 1 0 0)"><image x="0" y="0" xlink:href="img_209.png" width="8" height="8" /></g></g></g><g clip-path="url(#123)"><g transform="matrix(0.9598875 0 0 -0.9598875 343.424 522.8031)"><g transform="matrix(1 0 0 1 0 0)"><image x="0" y="0" xlink:href="img_209.png" width="8" height="8" /></g></g></g><g clip-path="url(#124)"><g transform="matrix(0.9598875 0 0 -0.9598875 351.103 522.8031)"><g transform="matrix(1 0 0 1 0 0)"><image x="0" y="0" xlink:href="img_209.png" width="8" height="8" /></g></g></g><g clip-path="url(#125)"><g transform="matrix(1.19995 0 0 -0.9598875 358.782 522.8031)"><g transform="matrix(1 0 0 1 0 0)"><image x="0" y="0" xlink:href="img_228.png" width="2" height="8" /></g></g></g><g clip-path="url(#126)"><g transform="matrix(0.9598875 0 0 -0.9598875 328.065 530.4821)"><g transform="matrix(1 0 0 1 0 0)"><image x="0" y="0" xlink:href="img_209.png" width="8" height="8" /></g></g></g><g clip-path="url(#127)"><g transform="matrix(0.959925 0 0 -0.9598875 335.744 530.4821)"><g transform="matrix(1 0 0 1 0 0)"><image x="0" y="0" xlink:href="img_209.png" width="8" height="8" /></g></g></g><g clip-path="url(#128)"><g transform="matrix(0.9598875 0 0 -0.9598875 343.424 530.4821)"><g transform="matrix(1 0 0 1 0 0)"><image x="0" y="0" xlink:href="img_209.png" width="8" height="8" /></g></g></g><g clip-path="url(#129)"><g transform="matrix(0.9598875 0 0 -0.9598875 351.103 530.4821)"><g transform="matrix(1 0 0 1 0 0)"><image x="0" y="0" xlink:href="img_209.png" width="8" height="8" /></g></g></g><g clip-path="url(#130)"><g transform="matrix(1.19995 0 0 -0.9598875 358.782 530.4821)"><g transform="matrix(1 0 0 1 0 0)"><image x="0" y="0" xlink:href="img_228.png" width="2" height="8" /></g></g></g><g clip-path="url(#131)"><g transform="matrix(0.9598875 0 0 -0.9598875 328.065 538.1611)"><g transform="matrix(1 0 0 1 0 0)"><image x="0" y="0" xlink:href="img_209.png" width="8" height="8" /></g></g></g><g clip-path="url(#132)"><g transform="matrix(0.959925 0 0 -0.9598875 335.744 538.1611)"><g transform="matrix(1 0 0 1 0 0)"><image x="0" y="0" xlink:href="img_209.png" width="8" height="8" /></g></g></g><g clip-path="url(#133)"><g transform="matrix(0.9598875 0 0 -0.9598875 343.424 538.1611)"><g transform="matrix(1 0 0 1 0 0)"><image x="0" y="0" xlink:href="img_209.png" width="8" height="8" /></g></g></g><g clip-path="url(#134)"><g transform="matrix(0.9598875 0 0 -0.9598875 351.103 538.1611)"><g transform="matrix(1 0 0 1 0 0)"><image x="0" y="0" xlink:href="img_209.png" width="8" height="8" /></g></g></g><g clip-path="url(#135)"><g transform="matrix(1.19995 0 0 -0.9598875 358.782 538.1611)"><g transform="matrix(1 0 0 1 0 0)"><image x="0" y="0" xlink:href="img_228.png" width="2" height="8" /></g></g></g><g clip-path="url(#136)"><g transform="matrix(0.9598875 0 0 -0.959925 328.065 545.8414)"><g transform="matrix(1 0 0 1 0 0)"><image x="0" y="0" xlink:href="img_209.png" width="8" height="8" /></g></g></g><g clip-path="url(#137)"><g transform="matrix(0.959925 0 0 -0.959925 335.744 545.8414)"><g transform="matrix(1 0 0 1 0 0)"><image x="0" y="0" xlink:href="img_209.png" width="8" height="8" /></g></g></g><g clip-path="url(#138)"><g transform="matrix(0.9598875 0 0 -0.959925 343.424 545.8414)"><g transform="matrix(1 0 0 1 0 0)"><image x="0" y="0" xlink:href="img_209.png" width="8" height="8" /></g></g></g><g clip-path="url(#139)"><g transform="matrix(0.9598875 0 0 -0.959925 351.103 545.8414)"><g transform="matrix(1 0 0 1 0 0)"><image x="0" y="0" xlink:href="img_209.png" width="8" height="8" /></g></g></g><g clip-path="url(#140)"><g transform="matrix(1.19995 0 0 -0.959925 358.782 545.8414)"><g transform="matrix(1 0 0 1 0 0)"><image x="0" y="0" xlink:href="img_228.png" width="2" height="8" /></g></g></g><g clip-path="url(#141)"><g transform="matrix(0.9598875 0 0 -0.9598875 328.065 553.5201)"><g transform="matrix(1 0 0 1 0 0)"><image x="0" y="0" xlink:href="img_209.png" width="8" height="8" /></g></g></g><g clip-path="url(#142)"><g transform="matrix(0.959925 0 0 -0.9598875 335.744 553.5201)"><g transform="matrix(1 0 0 1 0 0)"><image x="0" y="0" xlink:href="img_209.png" width="8" height="8" /></g></g></g><g clip-path="url(#143)"><g transform="matrix(0.9598875 0 0 -0.9598875 343.424 553.5201)"><g transform="matrix(1 0 0 1 0 0)"><image x="0" y="0" xlink:href="img_209.png" width="8" height="8" /></g></g></g><g clip-path="url(#144)"><g transform="matrix(0.9598875 0 0 -0.9598875 351.103 553.5201)"><g transform="matrix(1 0 0 1 0 0)"><image x="0" y="0" xlink:href="img_209.png" width="8" height="8" /></g></g></g><g clip-path="url(#145)"><g transform="matrix(1.19995 0 0 -0.9598875 358.782 553.5201)"><g transform="matrix(1 0 0 1 0 0)"><image x="0" y="0" xlink:href="img_228.png" width="2" height="8" /></g></g></g><g clip-path="url(#146)"><g transform="matrix(0.9598875 0 0 -1.011314 328.065 560.6512)"><g transform="matrix(1 0 0 1 0 0)"><image x="0" y="0" xlink:href="img_229.png" width="8" height="7" /></g></g></g><g clip-path="url(#147)"><g transform="matrix(0.959925 0 0 -1.011314 335.744 560.6512)"><g transform="matrix(1 0 0 1 0 0)"><image x="0" y="0" xlink:href="img_229.png" width="8" height="7" /></g></g></g><g clip-path="url(#148)"><g transform="matrix(0.9598875 0 0 -1.011314 343.424 560.6512)"><g transform="matrix(1 0 0 1 0 0)"><image x="0" y="0" xlink:href="img_229.png" width="8" height="7" /></g></g></g><g clip-path="url(#149)"><g transform="matrix(0.9598875 0 0 -1.011314 351.103 560.6512)"><g transform="matrix(1 0 0 1 0 0)"><image x="0" y="0" xlink:href="img_229.png" width="8" height="7" /></g></g></g><g clip-path="url(#150)"><g transform="matrix(1.19995 0 0 -1.011314 358.782 560.6512)"><g transform="matrix(1 0 0 1 0 0)"><image x="0" y="0" xlink:href="img_230.png" width="2" height="7" /></g></g></g><g clip-path="url(#151)"><g clip-path="url(#152)"><g clip-path="url(#153)"><path id="554" transform="matrix(1 0 0 -1 0 842)" d="M360.101 282.241L328.065 282.241L328.065 282.241L328.065 343.194L328.065 343.194L360.101 343.194z" stroke="#221E1F" stroke-width="0.96" fill="none" /></g></g></g><g clip-path="url(#154)"><g transform="matrix(0.9598875 0 0 -0.959925 336.105 477.5684)"><g transform="matrix(1 0 0 1 0 0)"><image x="0" y="0" xlink:href="img_209.png" width="8" height="8" /></g></g></g><g clip-path="url(#155)"><g transform="matrix(0.899925 0 0 -0.959925 343.784 477.5684)"><g transform="matrix(1 0 0 1 0 0)"><image x="0" y="0" xlink:href="img_209.png" width="8" height="8" /></g></g></g><g clip-path="url(#156)"><g transform="matrix(0.9598875 0 0 -0.9598875 336.105 485.2481)"><g transform="matrix(1 0 0 1 0 0)"><image x="0" y="0" xlink:href="img_209.png" width="8" height="8" /></g></g></g><g clip-path="url(#157)"><g transform="matrix(0.899925 0 0 -0.9598875 343.784 485.2481)"><g transform="matrix(1 0 0 1 0 0)"><image x="0" y="0" xlink:href="img_209.png" width="8" height="8" /></g></g></g><g clip-path="url(#158)"><g transform="matrix(0.9598875 0 0 -0.9598875 336.105 492.9271)"><g transform="matrix(1 0 0 1 0 0)"><image x="0" y="0" xlink:href="img_209.png" width="8" height="8" /></g></g></g><g clip-path="url(#159)"><g transform="matrix(0.899925 0 0 -0.9598875 343.784 492.9271)"><g transform="matrix(1 0 0 1 0 0)"><image x="0" y="0" xlink:href="img_209.png" width="8" height="8" /></g></g></g><g clip-path="url(#160)"><g transform="matrix(0.9598875 0 0 -0.9770143 336.105 499.7831)"><g transform="matrix(1 0 0 1 0 0)"><image x="0" y="0" xlink:href="img_229.png" width="8" height="7" /></g></g></g><g clip-path="url(#161)"><g transform="matrix(0.899925 0 0 -0.9770143 343.784 499.7831)"><g transform="matrix(1 0 0 1 0 0)"><image x="0" y="0" xlink:href="img_229.png" width="8" height="7" /></g></g></g><g clip-path="url(#162)"><g clip-path="url(#163)"><g clip-path="url(#164)"><path id="564" transform="matrix(1 0 0 -1 0 842)" d="M351.102 343.074L336.104 343.074L336.104 343.074L336.104 373.071L336.104 373.071L351.102 373.071z" stroke="#221E1F" stroke-width="0.96" fill="none" /></g></g></g><g clip-path="url(#165)"><g transform="matrix(0.959925 0 0 -0.9598875 338.024 453.6911)"><g transform="matrix(1 0 0 1 0 0)"><image x="0" y="0" xlink:href="img_77.png" width="8" height="8" /></g></g></g><g clip-path="url(#166)"><g transform="matrix(0.8638667 0 0 -0.9598875 345.704 453.6911)"><g transform="matrix(1 0 0 1 0 0)"><image x="0" y="0" xlink:href="img_231.png" width="6" height="8" /></g></g></g><g clip-path="url(#167)"><g transform="matrix(0.959925 0 0 -0.9598875 338.024 461.3701)"><g transform="matrix(1 0 0 1 0 0)"><image x="0" y="0" xlink:href="img_77.png" width="8" height="8" /></g></g></g><g clip-path="url(#168)"><g transform="matrix(0.8638667 0 0 -0.9598875 345.704 461.3701)"><g transform="matrix(1 0 0 1 0 0)"><image x="0" y="0" xlink:href="img_231.png" width="6" height="8" /></g></g></g><g clip-path="url(#169)"><g transform="matrix(0.959925 0 0 -0.959925 338.024 469.0494)"><g transform="matrix(1 0 0 1 0 0)"><image x="0" y="0" xlink:href="img_77.png" width="8" height="8" /></g></g></g><g clip-path="url(#170)"><g transform="matrix(0.8638667 0 0 -0.959925 345.704 469.0494)"><g transform="matrix(1 0 0 1 0 0)"><image x="0" y="0" xlink:href="img_231.png" width="6" height="8" /></g></g></g><g clip-path="url(#171)"><g clip-path="url(#172)"><g clip-path="url(#173)"><path id="572" transform="matrix(1 0 0 -1 0 842)" d="M350.143 372.95L338.024 372.95L338.024 372.95L338.024 396.947L338.024 396.947L350.143 396.947z" stroke="#221E1F" stroke-width="0.96" fill="none" /><path id="574" transform="matrix(1 0 0 -1 0 842)" d="M337.544 379.549L349.543 379.429" stroke="#221E1F" stroke-width="0.96" fill="none" /><path id="575" transform="matrix(1 0 0 -1 0 842)" d="M337.544 380.509L349.543 380.509" stroke="#221E1F" stroke-width="0.96" fill="none" /><path id="576" transform="matrix(1 0 0 -1 0 842)" d="M347.143 396.828L341.024 396.828L341.024 396.828L341.024 416.866L341.024 416.866L347.143 416.866z" stroke="#221E1F" stroke-width="0.96" fill="#FFFFFF" fill-rule="evenodd" /><path id="577" transform="matrix(1 0 0 -1 0 842)" d="M343.544 397.428L343.544 400.428L343.544 400.428L344.624 401.508L344.624 401.508L344.624 403.427L344.624 403.427L345.584 403.427L345.584 403.427L345.584 404.507L345.584 404.507L346.544 405.467" stroke="#221E1F" stroke-width="0.96" fill="none" /><path id="578" transform="matrix(1 0 0 -1 0 842)" d="M347.143 323.036C 347.143 321.356 345.823 320.037 344.143 320.037C 342.343 320.037 341.024 321.356 341.024 323.036C 341.024 324.836 342.343 326.156 344.143 326.156C 345.823 326.156 347.143 324.836 347.143 323.036z" stroke="#221E1F" stroke-width="0.96" fill="#FFFFFF" fill-rule="evenodd" /><path id="579" transform="matrix(1 0 0 -1 0 842)" d="M313.667 402.467L310.667 400.427L310.667 400.427L310.667 347.633L310.667 347.633L307.668 345.713L307.668 345.713L310.667 343.674L310.667 343.674L310.667 288.84L310.667 288.84L313.667 287.88" stroke="#221E1F" stroke-width="0.96" fill="none" /><path id="580" transform="matrix(1 0 0 -1 0 842)" d="M312.587 278.881L309.707 276.841L309.707 276.841L309.707 224.047L309.707 224.047L306.708 222.127L306.708 222.127L309.707 220.088L309.707 220.088L309.707 165.254L309.707 165.254L312.587 164.294" stroke="#221E1F" stroke-width="0.96" fill="none" /><path id="581" transform="matrix(1 0 0 -1 0 842)" d="M282.711 345.714L304.668 345.594" stroke="#221E1F" stroke-width="0.96" fill="none" /><path id="582" transform="matrix(1 0 0 -1 0 842)" d="M282.0282 222.1326L303.709 222.0121" stroke="#221E1F" stroke-width="0.7773557" fill="none" /><path id="583" transform="matrix(1 0 0 -1 0 842)" d="M409.3635 413.3796L342.5844 413.3796" stroke="#221E1F" stroke-width="0.9098775" fill="none" /><path id="584" transform="matrix(1 0 0 -1 0 842)" d="M409.4269 401.5208L343.5424 401.4004" stroke="#221E1F" stroke-width="0.9046045" fill="none" /><path id="585" transform="matrix(1 0 0 -1 0 842)" d="M409.2294 389.5137L344.6239 389.5137" stroke="#221E1F" stroke-width="0.908167" fill="none" /><path id="586" transform="matrix(1 0 0 -1 0 842)" d="M409.417 362.512L348.464 362.512" stroke="#221E1F" stroke-width="0.96" fill="none" /><path id="587" transform="matrix(1 0 0 -1 0 842)" d="M409.417 362.512L349.543 334.675" stroke="#221E1F" stroke-width="0.96" fill="none" /><path id="588" transform="matrix(1 0 0 -1 0 842)" d="M343.544 323.756L409.417 323.636" stroke="#221E1F" stroke-width="0.96" fill="none" /><path id="589" transform="matrix(1 0 0 -1 0 842)" d="M357.462 276.841L409.416 276.841" stroke="#221E1F" stroke-width="0.96" fill="none" /><path id="590" transform="matrix(1 0 0 -1 0 842)" d="M357.462 252.964L409.416 252.964" stroke="#221E1F" stroke-width="0.96" fill="none" /><path id="591" transform="matrix(1 0 0 -1 0 842)" d="M360.462 234.006L409.417 234.006" stroke="#221E1F" stroke-width="0.96" fill="none" /><path id="592" transform="matrix(1 0 0 -1 0 842)" d="M363.462 198.13L409.417 198.13" stroke="#221E1F" stroke-width="0.96" fill="none" /></g></g></g><g clip-path="url(#174)"><g clip-path="url(#175)"></g></g></g></g></svg>