<svg xmlns="http://www.w3.org/2000/svg" xmlns:xlink="http://www.w3.org/1999/xlink" id="body_276" preserveAspectRatio="xMinYMin meet" viewBox="0 0 793 1123"><defs><clipPath id="1"><path id="" clip-rule="evenodd" transform="matrix(1 0 0 1 0 0)" d="M0 842L0 0L0 0L595 0L595 0L595 842L595 842L0 842z" /></clipPath><clipPath id="2"><path id="" clip-rule="evenodd" transform="matrix(1 0 0 1 0 0)" d="M225.96 101.04L376.74 101.04L376.74 101.04L376.74 267.9L376.74 267.9L225.96 267.9z" /></clipPath><clipPath id="3"><path id="" clip-rule="evenodd" transform="matrix(1 0 0 1 0 0)" d="M224.94 100.02L377.76 100.02L377.76 100.02L377.76 268.92L377.76 268.92L224.94 268.92z" /></clipPath><clipPath id="4"><path id="" clip-rule="evenodd" transform="matrix(1 0 0 1 0 0)" d="M0 0.02001953L595.2 0.02001953L595.2 0.02001953L595.2 842L595.2 842L0 842z" /></clipPath><clipPath id="5"><path id="" clip-rule="evenodd" transform="matrix(1 0 0 1 0 0)" d="M124.56 317.88L202.98 317.88L202.98 317.88L202.98 332.28L202.98 332.28L124.56 332.28z" /></clipPath><clipPath id="6"><path id="" clip-rule="evenodd" transform="matrix(1 0 0 1 0 0)" d="M0 0.02001953L595.2 0.02001953L595.2 0.02001953L595.2 842L595.2 842L0 842z" /></clipPath><clipPath id="7"><path id="" clip-rule="evenodd" transform="matrix(1 0 0 1 0 0)" d="M124.98 318.36L198.36 318.36L198.36 318.36L198.36 332.16L198.36 332.16L124.98 332.16z" /></clipPath><clipPath id="8"><path id="" clip-rule="evenodd" transform="matrix(1 0 0 1 0 0)" d="M124.56 317.88L202.98 317.88L202.98 317.88L202.98 332.28L202.98 332.28L124.56 332.28z" /></clipPath><clipPath id="9"><path id="" clip-rule="evenodd" transform="matrix(1 0 0 1 0 0)" d="M0 0.02001953L595.2 0.02001953L595.2 0.02001953L595.2 842L595.2 842L0 842z" /></clipPath><clipPath id="10"><path id="" clip-rule="evenodd" transform="matrix(1 0 0 1 0 0)" d="M225.96 402.9L434.88 402.9L434.88 402.9L434.88 531.48L434.88 531.48L225.96 531.48z" /></clipPath><clipPath id="11"><path id="" clip-rule="evenodd" transform="matrix(1 0 0 1 0 0)" d="M224.94 401.88L435.84 401.88L435.84 401.88L435.84 532.5L435.84 532.5L224.94 532.5z" /></clipPath><clipPath id="12"><path id="" clip-rule="evenodd" transform="matrix(1 0 0 1 0 0)" d="M0 0.02001953L595.2 0.02001953L595.2 0.02001953L595.2 842L595.2 842L0 842z" /></clipPath><clipPath id="13"><path id="" clip-rule="evenodd" transform="matrix(1 0 0 1 0 0)" d="M224.94 401.88L435.84 401.88L435.84 401.88L435.84 532.5L435.84 532.5L224.94 532.5z" /></clipPath><clipPath id="14"><path id="" clip-rule="evenodd" transform="matrix(1 0 0 1 0 0)" d="M0 0.02001953L595.2 0.02001953L595.2 0.02001953L595.2 842L595.2 842L0 842z" /></clipPath></defs><g transform="matrix(1.333333 0 0 1.333333 0 0)"><g clip-path="url(#1)"><g clip-path="url(#2)"><g clip-path="url(#3)"><g clip-path="url(#4)"><g transform="matrix(0.4791841 0 0 0.4794828 225.96 101.04)"><g transform="matrix(1 0 0 1 0 0)"><image x="0" y="0" xlink:href="img_861.png" width="315" height="348" /></g></g></g></g></g><g clip-path="url(#5)"><g clip-path="url(#6)"><path id="206" transform="matrix(1 0 0 -1 0 842)" d="M124.56 509.72L202.98 509.72L202.98 524.12L124.56 524.12z" stroke="none" fill="#FFFFFF" fill-rule="nonzero" /></g></g><g clip-path="url(#7)"><g clip-path="url(#8)"><g clip-path="url(#9)"><g transform="matrix(0.7265346 0 0 0.7263158 124.98 318.36)"><g transform="matrix(1 0 0 1 0 0)"><image x="0" y="0" xlink:href="img_09.png" width="101" height="19" /></g></g></g></g></g><path id="208" transform="matrix(1 0 0 -1 0 842)" d="M242.94 528.08L558 528.08L558 494.12L242.94 494.12" stroke="none" fill="#ECF5FC" fill-rule="nonzero" /><g clip-path="url(#10)"><g clip-path="url(#11)"><g clip-path="url(#12)"><g transform="matrix(0.4791743 0 0 0.4797761 225.96 402.9)"><g transform="matrix(1 0 0 1 0 0)"><image x="0" y="0" xlink:href="img_862.png" width="436" height="268" /></g></g></g></g></g><g clip-path="url(#13)"><g clip-path="url(#14)"><path id="265" transform="matrix(1 0 0 -1 0 842)" d="M280.44 383.18L280.32 383.24L280.32 383.24L280.2 383.36L280.2 383.36L280.08 383.36L280.08 383.36L279.9 383.42L279.9 383.42L279.78 383.42L279.78 383.42L279.6 383.48L279.6 383.48L279.48 383.42L279.48 383.42L279.18 383.42L279.18 383.42L278.82 383.24L278.82 383.24L278.7 383.12L278.7 383.12L278.58 383.06L278.58 383.06L278.46 382.94L278.46 382.94L278.4 382.82L278.4 382.82L278.28 382.7L278.28 382.7L278.22 382.52L278.22 382.52L278.16 382.4L278.16 382.4L278.16 382.28L278.16 382.28L278.1 382.1L278.1 382.1L278.1 381.68L278.1 381.68L278.16 381.56L278.16 381.56L278.22 381.38L278.22 381.38L278.4 381.02L278.4 381.02L278.52 380.9L278.52 380.9L278.64 380.84L278.64 380.84L278.76 380.72L278.76 380.72L279 380.6L279 380.6L279.18 380.54L279.18 380.54L279.3 380.48L279.3 380.48L280.02 380.48L280.02 380.48L280.38 380.66L280.38 380.66L280.5 380.78L280.5 380.78L280.62 380.84L280.62 380.84L280.86 381.08L280.86 381.08L280.92 381.2L280.92 381.2L280.98 381.38L280.98 381.38L281.04 381.5L281.04 381.5L281.1 381.62L281.1 381.62L281.1 382.22L281.1 382.22L281.04 382.34L281.04 382.34L280.98 382.52L280.98 382.52L280.8 382.88L280.8 382.88L280.68 383L280.68 383L280.56 383.06L280.56 383.06L280.44 383.18" stroke="none" fill="#FF0000" fill-rule="evenodd" /><path id="266" transform="matrix(1 0 0 -1 0 842)" d="M279.6 381.92L275.4 384.86L274.86 385.28L275.4 385.7L289.8 397.46L291.18 398.54L290.58 396.92L284.58 379.34L284.34 378.68L283.8 379.04L283.62 379.64L289.62 397.22L290.58 396.92L290.4 396.68L276 384.92L275.4 385.7L276 385.7L280.2 382.76" stroke="none" fill="#FF0000" fill-rule="nonzero" /><path id="267" transform="matrix(1 0 0 -1 0 842)" d="M283.8 379.04L279.6 381.92L280.2 382.76L284.4 379.88" stroke="none" fill="#FF0000" fill-rule="nonzero" /><path id="268" transform="matrix(1 0 0 -1 0 842)" d="M279.9 382.34L275.7 385.28L275.7 385.28L290.1 397.04L290.1 397.04L284.1 379.46" stroke="none" fill="#FF0000" fill-rule="evenodd" /><path id="269" transform="matrix(1 0 0 -1 0 842)" d="M243.66 332.84L242.82 331.64L245.28 329.9L246.12 331.1" stroke="none" fill="#FF0000" fill-rule="nonzero" /><path id="270" transform="matrix(1 0 0 -1 0 842)" d="M278.4 382.82L279.24 384.02L281.7 382.28L280.86 381.08" stroke="none" fill="#FF0000" fill-rule="nonzero" /><path id="271" transform="matrix(1 0 0 -1 0 842)" d="M243.66 332.84L246.12 331.1L280.86 381.08L278.4 382.82" stroke="none" fill="#FF0000" fill-rule="nonzero" /></g></g></g></g></svg>