<svg xmlns="http://www.w3.org/2000/svg" xmlns:xlink="http://www.w3.org/1999/xlink" id="body_69" preserveAspectRatio="xMinYMin meet" viewBox="0 0 793 1123"><defs><clipPath id="1"><path id="" clip-rule="evenodd" transform="matrix(1 0 0 1 0 0)" d="M0 842L0 0L0 0L595 0L595 0L595 842L595 842L0 842z" /></clipPath><clipPath id="2"><path id="" clip-rule="evenodd" transform="matrix(1 0 0 1 0 0)" d="M36.96 306.96L496.8 306.96L496.8 306.96L496.8 549.12L496.8 549.12L36.96 549.12z" /></clipPath><clipPath id="3"><path id="" clip-rule="evenodd" transform="matrix(1 0 0 1 0 0)" d="M35.94 305.94L498.06 305.94L498.06 305.94L498.06 550.38L498.06 550.38L35.94 550.38z" /></clipPath><clipPath id="4"><path id="" clip-rule="evenodd" transform="matrix(1 0 0 1 0 0)" d="M0 0.02001953L595.2 0.02001953L595.2 0.02001953L595.2 842L595.2 842L0 842z" /></clipPath><clipPath id="5"><path id="" clip-rule="evenodd" transform="matrix(1 0 0 1 0 0)" d="M35.94 305.94L498.06 305.94L498.06 305.94L498.06 550.38L498.06 550.38L35.94 550.38z" /></clipPath><clipPath id="6"><path id="" clip-rule="evenodd" transform="matrix(1 0 0 1 0 0)" d="M0 0.02001953L595.2 0.02001953L595.2 0.02001953L595.2 842L595.2 842L0 842z" /></clipPath></defs><g transform="matrix(1.333333 0 0 1.333333 0 0)"><g clip-path="url(#1)"><g clip-path="url(#2)"><g clip-path="url(#3)"><g clip-path="url(#4)"><g transform="matrix(0.24 0 0 0.24 36.96 306.96)"><g transform="matrix(1 0 0 1 0 0)"><image x="0" y="0" xlink:href="img_191.png" width="1916" height="1009" /></g></g></g></g></g><g clip-path="url(#5)"><g clip-path="url(#6)"><path id="461" transform="matrix(1 0 0 -1 0 842)" d="M266.3631 375.7443L266.8883 375.7443C 267.0245 375.7443 267.1217 375.7086 267.1801 375.6373C 267.245 375.566 267.2774 375.4525 267.2774 375.2969L267.2774 375.2969L267.2774 370.7448C 267.2774 370.5957 267.245 370.4887 267.1801 370.4239C 267.1217 370.3655 267.0277 370.3363 266.898 370.3363L266.898 370.3363L266.3631 370.3363zM267.7734 370.6768L267.7734 375.3941C 267.7734 375.6989 267.6989 375.9291 267.5497 376.0847C 267.4006 376.2468 267.1866 376.3279 266.9078 376.3279L266.9078 376.3279L265.2445 376.3279C 265.1537 376.3279 265.0824 376.2955 265.0305 376.2306C 264.9787 376.1787 264.9527 376.1139 264.9527 376.0361C 264.9527 375.9518 264.9787 375.8837 265.0305 375.8318C 265.0824 375.7735 265.1537 375.7443 265.2445 375.7443L265.2445 375.7443L265.867 375.7443L265.867 375.7443L265.867 370.3363L265.867 370.3363L265.2737 370.3363C 265.1764 370.3363 265.0986 370.3039 265.0403 370.239C 264.9884 370.1872 264.9625 370.1223 264.9625 370.0445C 264.9625 369.9602 264.9884 369.8922 265.0403 369.8403C 265.0986 369.7819 265.1764 369.7527 265.2737 369.7527L265.2737 369.7527L266.9759 369.7527C 267.2287 369.7527 267.4233 369.8338 267.5594 369.9959C 267.7021 370.158 267.7734 370.3849 267.7734 370.6768zM268.8531 376.8434L268.8531 369.2664C 268.8531 369.0783 268.9341 368.9811 269.0963 368.9746C 269.2648 368.9616 269.3491 369.0427 269.3491 369.2178L269.3491 369.2178L269.3491 372.7582L269.3491 372.7582L270.9346 372.7582C 271.0253 372.7582 271.0967 372.7874 271.1485 372.8458C 271.1939 372.8976 271.2166 372.9625 271.2166 373.0403C 271.2166 373.1116 271.1907 373.1732 271.1388 373.2251C 271.0804 373.2899 271.0027 373.3224 270.9054 373.3224L270.9054 373.3224L269.3491 373.3224L269.3491 373.3224L269.3491 376.8629C 269.3491 377.025 269.2648 377.106 269.0963 377.106C 268.9341 377.0995 268.8531 377.012 268.8531 376.8434zM270.8373 370.3363C 270.7206 370.3363 270.6298 370.3039 270.5649 370.239C 270.5066 370.1872 270.4774 370.1223 270.4774 370.0445C 270.4774 369.9602 270.5066 369.8922 270.5649 369.8403C 270.6298 369.7819 270.7206 369.7527 270.8373 369.7527L270.8373 369.7527L271.9267 369.7527C 272.1796 369.7527 272.3838 369.8273 272.5394 369.9764C 272.7015 370.1256 272.7826 370.3298 272.7826 370.5892L272.7826 370.5892L272.7826 376.182C 272.7826 376.3506 272.6983 376.4349 272.5297 376.4349C 272.3676 376.4349 272.2866 376.3506 272.2866 376.182L272.2866 376.182L272.2866 370.8032C 272.2866 370.6216 272.2574 370.4984 272.199 370.4336C 272.1342 370.3687 272.0142 370.3363 271.8391 370.3363z" stroke="none" fill="#000000" fill-rule="evenodd" /><path id="462" transform="matrix(1 0 0 -1 0 842)" d="M268.2014 382.0568L271.3042 382.0568C 271.4403 382.0568 271.5376 382.0147 271.596 381.9304C 271.6608 381.8526 271.6932 381.7391 271.6932 381.59L271.6932 381.59L271.6932 380.3449C 271.6932 380.2023 271.6641 380.1018 271.6057 380.0434C 271.5473 379.9786 271.4468 379.9462 271.3042 379.9462L271.3042 379.9462L268.2014 379.9462zM265.3904 382.0568L267.7054 382.0568L267.7054 382.0568L267.7054 379.9462L267.7054 379.9462L265.4391 379.9462C 265.3353 379.9462 265.2542 379.9137 265.1959 379.8489C 265.144 379.797 265.1181 379.7322 265.1181 379.6544C 265.1181 379.5765 265.1472 379.5117 265.2056 379.4598C 265.264 379.4015 265.345 379.3723 265.4488 379.3723L265.4488 379.3723L271.4014 379.3723C 271.6414 379.3723 271.8359 379.4501 271.985 379.6057C 272.1212 379.7549 272.1893 379.9526 272.1893 380.1991L272.1893 380.1991L272.1893 381.7456C 272.1893 381.9985 272.1147 382.2092 271.9656 382.3778C 271.8229 382.5464 271.6349 382.6307 271.4014 382.6307L271.4014 382.6307L265.4001 382.6307C 265.3094 382.6307 265.238 382.5983 265.1862 382.5334C 265.1408 382.4816 265.1181 382.4167 265.1181 382.3389C 265.1181 382.2611 265.1408 382.1962 265.1862 382.1444C 265.2315 382.086 265.2997 382.0568 265.3904 382.0568zM265.1278 385.8307L268.7461 385.8307L268.7461 385.8307L268.7461 384.4496L268.7461 384.4496L265.1278 384.4496C 264.9592 384.4496 264.8749 384.3523 264.8749 384.1578C 264.8749 383.9697 264.9592 383.8757 265.1278 383.8757L265.1278 383.8757L272.7242 383.8757C 272.815 383.8757 272.8896 383.9049 272.948 383.9632C 272.9933 384.0151 273.0161 384.08 273.0161 384.1578C 273.0161 384.2356 272.9933 384.3004 272.948 384.3523C 272.8896 384.4171 272.815 384.4496 272.7242 384.4496L272.7242 384.4496L269.2227 384.4496L269.2227 384.4496L269.2227 385.8307L269.2227 385.8307L272.7437 385.8307C 272.828 385.8307 272.8961 385.8599 272.948 385.9183C 272.9933 385.9702 273.0161 386.035 273.0161 386.1128C 273.0161 386.1841 272.9901 386.2457 272.9382 386.2976C 272.8864 386.3625 272.8183 386.3949 272.734 386.3949L272.734 386.3949L265.1278 386.3949C 264.9592 386.3949 264.8749 386.3008 264.8749 386.1128C 264.8749 385.9247 264.9592 385.8307 265.1278 385.8307z" stroke="none" fill="#000000" fill-rule="evenodd" /><path id="463" transform="matrix(1 0 0 -1 0 842)" d="M265.1764 392.3684L265.1764 389.4893C 265.1764 389.3078 265.2575 389.2202 265.4196 389.2267C 265.5882 389.2267 265.6725 389.3175 265.6725 389.4991L265.6725 389.4991L265.6725 392.3878C 265.6725 392.537 265.7082 392.6537 265.7795 392.738C 265.8508 392.8158 265.9546 392.8547 266.0907 392.8547L266.0907 392.8547L267.2287 392.8547C 268.597 392.8547 269.6571 392.5305 270.4093 391.882C 271.1031 391.2855 271.5084 390.4296 271.6252 389.3142C 271.6381 389.1327 271.7256 389.0484 271.8878 389.0614C 272.0564 389.0743 272.1342 389.1716 272.1212 389.3531C 272.0434 390.5463 271.5992 391.506 270.7887 392.2322C 269.9198 393.0168 268.7396 393.4091 267.2482 393.4091L267.2482 393.4091L266.1005 393.4091C 265.8152 393.4091 265.5914 393.3184 265.4293 393.1368C 265.2607 392.9487 265.1764 392.6926 265.1764 392.3684zM272.7145 396.152L265.1472 396.152C 265.063 396.152 264.9949 396.1196 264.943 396.0547C 264.9041 396.0029 264.8846 395.938 264.8846 395.8602C 264.8846 395.7759 264.9041 395.7079 264.943 395.656C 264.9949 395.5976 265.063 395.5684 265.1472 395.5684L265.1472 395.5684L272.7145 395.5684C 272.8053 395.5684 272.8799 395.5976 272.9382 395.656C 272.9901 395.7079 273.0161 395.7759 273.0161 395.8602C 273.0161 395.938 272.9901 396.0029 272.9382 396.0547C 272.8799 396.1196 272.8053 396.152 272.7145 396.152z" stroke="none" fill="#000000" fill-rule="evenodd" /><path id="465" transform="matrix(1 0 0 -1 0 842)" d="M266.2366 407.9649L266.791 407.9649C 266.9207 407.9649 267.0147 407.9292 267.0731 407.8579C 267.1315 407.793 267.1606 407.686 267.1606 407.5369L267.1606 407.5369L267.1606 402.946C 267.1606 402.8098 267.1282 402.7093 267.0634 402.6444C 267.005 402.5861 266.9175 402.5569 266.8008 402.5569L266.8008 402.5569L266.2366 402.5569zM267.6567 402.8779L267.6567 407.6731C 267.6567 407.9195 267.5757 408.127 267.4135 408.2956C 267.2579 408.4642 267.0666 408.5485 266.8397 408.5485L266.8397 408.5485L265.1764 408.5485C 265.0857 408.5485 265.0143 408.5161 264.9625 408.4512C 264.9171 408.3993 264.8944 408.3345 264.8944 408.2567C 264.8944 408.1724 264.9203 408.1043 264.9722 408.0524C 265.024 407.994 265.0954 407.9649 265.1862 407.9649L265.1862 407.9649L265.7406 407.9649L265.7406 407.9649L265.7406 402.5569L265.7406 402.5569L265.2056 402.5569C 265.1083 402.5569 265.0305 402.5245 264.9722 402.4596C 264.9268 402.4077 264.9041 402.3429 264.9041 402.2651C 264.9041 402.1808 264.9268 402.1127 264.9722 402.0609C 265.0305 402.0025 265.1083 401.9733 265.2056 401.9733L265.2056 401.9733L266.8494 401.9733C 267.0829 401.9733 267.2741 402.0576 267.4233 402.2262C 267.5789 402.3948 267.6567 402.612 267.6567 402.8779zM268.5418 409.0348L268.5418 401.487C 268.5418 401.2989 268.6196 401.2017 268.7753 401.1952C 268.9374 401.1822 269.0184 401.2633 269.0184 401.4384L269.0184 401.4384L269.0184 409.0542C 269.0184 409.2358 268.9374 409.3266 268.7753 409.3266C 268.6196 409.3201 268.5418 409.2228 268.5418 409.0348zM269.8257 407.6536L269.8257 402.2554C 269.8257 402.0609 269.9068 401.9603 270.0689 401.9539C 270.2375 401.9539 270.3218 402.0511 270.3218 402.2456L270.3218 402.2456L270.3218 407.5855C 270.3218 407.7217 270.3445 407.819 270.3899 407.8773C 270.4417 407.9357 270.5228 407.9649 270.633 407.9649L270.633 407.9649L270.8762 407.9649C 270.9605 407.9649 271.0221 407.9324 271.061 407.8676C 271.0999 407.8092 271.1194 407.7217 271.1194 407.605L271.1194 407.605L271.1194 402.7223C 271.1194 402.4823 271.181 402.2975 271.3042 402.1678C 271.4339 402.0381 271.6057 401.9733 271.8197 401.9733L271.8197 401.9733L272.2477 401.9733C 272.4487 401.9733 272.6075 402.0349 272.7242 402.1581C 272.8474 402.2813 272.9091 402.4532 272.9091 402.6736L272.9091 402.6736L272.9091 408.3928C 272.9091 408.4771 272.8831 408.542 272.8312 408.5874C 272.7794 408.6328 272.721 408.6555 272.6562 408.6555C 272.5913 408.649 272.533 408.623 272.4811 408.5776C 272.4357 408.5193 272.413 408.4447 272.413 408.3539L272.413 408.3539L272.413 402.8876C 272.413 402.7709 272.3936 402.6866 272.3546 402.6347C 272.3157 402.5828 272.2477 402.5569 272.1504 402.5569L272.1504 402.5569L271.9169 402.5569C 271.8197 402.5569 271.7451 402.5796 271.6932 402.625C 271.6414 402.6768 271.6154 402.7676 271.6154 402.8973L271.6154 402.8973L271.6154 407.8287C 271.6154 408.0362 271.5473 408.208 271.4112 408.3442C 271.288 408.4804 271.1323 408.5485 270.9443 408.5485L270.9443 408.5485L270.4774 408.5485C 270.2764 408.5485 270.1143 408.4577 269.9911 408.2761C 269.8809 408.1075 269.8257 407.9 269.8257 407.6536z" stroke="none" fill="#000000" fill-rule="evenodd" /><path id="466" transform="matrix(1 0 0 -1 0 842)" d="M264.9916 417.672L264.9916 412.2348C 264.9916 412.0403 265.0727 411.9398 265.2348 411.9333C 265.4034 411.9333 265.4877 412.0306 265.4877 412.2251L265.4877 412.2251L265.4877 417.5066C 265.4877 417.6493 265.5071 417.753 265.5461 417.8179C 265.5914 417.8892 265.6628 417.9249 265.76 417.9249L265.76 417.9249L265.9935 417.9249C 266.0713 417.9249 266.1329 417.886 266.1783 417.8081C 266.2301 417.7303 266.2561 417.6234 266.2561 417.4872L266.2561 417.4872L266.2561 412.7212C 266.2561 412.4748 266.3112 412.2802 266.4214 412.1376C 266.5381 412.0014 266.7003 411.9333 266.9078 411.9333L266.9078 411.9333L267.3552 411.9333C 267.5692 411.9333 267.7313 411.9981 267.8415 412.1278C 267.9518 412.2575 268.0069 412.4553 268.0069 412.7212L268.0069 412.7212L268.0069 418.3431C 268.0069 418.4274 267.9809 418.4922 267.929 418.5376C 267.8772 418.583 267.8188 418.6057 267.754 418.6057C 267.6891 418.6057 267.6308 418.5798 267.5789 418.5279C 267.5335 418.476 267.5108 418.4047 267.5108 418.3139L267.5108 418.3139L267.5108 412.8671C 267.5108 412.7309 267.4849 412.6369 267.433 412.585C 267.3941 412.5396 267.3357 412.5169 267.2579 412.5169L267.2579 412.5169L266.9953 412.5169C 266.9175 412.5169 266.8591 412.5396 266.8202 412.585C 266.7748 412.6433 266.7521 412.7471 266.7521 412.8962L266.7521 412.8962L266.7521 417.7401C 266.7521 417.9865 266.7035 418.1713 266.6062 418.2945C 266.5025 418.4371 266.3404 418.5085 266.1199 418.5085L266.1199 418.5085L265.585 418.5085C 265.3969 418.5085 265.2478 418.4307 265.1375 418.275C 265.0403 418.1324 264.9916 417.9314 264.9916 417.672zM268.1041 415.4835C 267.955 415.4835 267.8804 415.3895 267.8804 415.2014C 267.8739 415.0134 267.9388 414.9194 268.075 414.9194L268.075 414.9194L268.8725 414.9194L268.8725 414.9194L268.8725 411.447C 268.8725 411.2589 268.9503 411.1617 269.106 411.1552C 269.2681 411.1422 269.3491 411.2233 269.3491 411.3983L269.3491 411.3983L269.3491 419.0143C 269.3491 419.1958 269.2681 419.2866 269.106 419.2866C 268.9503 419.2801 268.8725 419.1828 268.8725 418.9948L268.8725 418.9948L268.8725 415.4835zM270.4093 417.5455L270.4093 412.0889C 270.4093 411.9074 270.4904 411.8198 270.6525 411.8263C 270.8211 411.8263 270.9054 411.9138 270.9054 412.0889L270.9054 412.0889L270.9054 417.5164C 270.9054 417.6655 270.9346 417.7725 270.9929 417.8373C 271.0448 417.8957 271.1323 417.9249 271.2555 417.9249L271.2555 417.9249L272.7145 417.9249C 272.8118 417.9249 272.8896 417.954 272.948 418.0124C 272.9998 418.0643 273.0258 418.1324 273.0258 418.2167C 273.0258 418.2945 272.9998 418.3593 272.948 418.4112C 272.8896 418.476 272.8118 418.5085 272.7145 418.5085L272.7145 418.5085L271.2361 418.5085C 270.9637 418.5085 270.7562 418.4242 270.6136 418.2556C 270.4774 418.0935 270.4093 417.8568 270.4093 417.5455z" stroke="none" fill="#000000" fill-rule="evenodd" /></g></g></g></g></svg>