<svg xmlns="http://www.w3.org/2000/svg" xmlns:xlink="http://www.w3.org/1999/xlink" id="body_208" preserveAspectRatio="xMinYMin meet" viewBox="0 0 793 1123"><defs><clipPath id="1"><path id="" clip-rule="evenodd" transform="matrix(1 0 0 1 0 0)" d="M0 842L0 0L0 0L595 0L595 0L595 842L595 842L0 842z" /></clipPath><clipPath id="2"><path id="" clip-rule="evenodd" transform="matrix(1 0 0 1 0 0)" d="M45.96 84.65997L187.08 84.65997L187.08 84.65997L187.08 231.84L187.08 231.84L45.96 231.84z" /></clipPath><clipPath id="3"><path id="" clip-rule="evenodd" transform="matrix(1 0 0 1 0 0)" d="M44.94 78.06L555.66 78.06L555.66 78.06L555.66 238.44L555.66 238.44L44.94 238.44z" /></clipPath><clipPath id="4"><path id="" clip-rule="evenodd" transform="matrix(1 0 0 1 0 0)" d="M0 0.02001953L595.2 0.02001953L595.2 0.02001953L595.2 842L595.2 842L0 842z" /></clipPath><clipPath id="5"><path id="" clip-rule="evenodd" transform="matrix(1 0 0 1 0 0)" d="M204.12 79.02002L345.84 79.02002L345.84 79.02002L345.84 237.42L345.84 237.42L204.12 237.42z" /></clipPath><clipPath id="6"><path id="" clip-rule="evenodd" transform="matrix(1 0 0 1 0 0)" d="M44.94 78.06L555.66 78.06L555.66 78.06L555.66 238.44L555.66 238.44L44.94 238.44z" /></clipPath><clipPath id="7"><path id="" clip-rule="evenodd" transform="matrix(1 0 0 1 0 0)" d="M0 0.02001953L595.2 0.02001953L595.2 0.02001953L595.2 842L595.2 842L0 842z" /></clipPath><clipPath id="8"><path id="" clip-rule="evenodd" transform="matrix(1 0 0 1 0 0)" d="M44.94 78.06L555.66 78.06L555.66 78.06L555.66 238.44L555.66 238.44L44.94 238.44z" /></clipPath><clipPath id="9"><path id="" clip-rule="evenodd" transform="matrix(1 0 0 1 0 0)" d="M0 0.02001953L595.2 0.02001953L595.2 0.02001953L595.2 842L595.2 842L0 842z" /></clipPath><clipPath id="10"><path id="" clip-rule="evenodd" transform="matrix(1 0 0 1 0 0)" d="M362.76 110.94L554.7 110.94L554.7 110.94L554.7 205.5L554.7 205.5L362.76 205.5z" /></clipPath><clipPath id="11"><path id="" clip-rule="evenodd" transform="matrix(1 0 0 1 0 0)" d="M44.94 78.06L555.66 78.06L555.66 78.06L555.66 238.44L555.66 238.44L44.94 238.44z" /></clipPath><clipPath id="12"><path id="" clip-rule="evenodd" transform="matrix(1 0 0 1 0 0)" d="M0 0.02001953L595.2 0.02001953L595.2 0.02001953L595.2 842L595.2 842L0 842z" /></clipPath><clipPath id="13"><path id="" clip-rule="evenodd" transform="matrix(1 0 0 1 0 0)" d="M44.94 78.06L555.66 78.06L555.66 78.06L555.66 238.44L555.66 238.44L44.94 238.44z" /></clipPath><clipPath id="14"><path id="" clip-rule="evenodd" transform="matrix(1 0 0 1 0 0)" d="M0 0.02001953L595.2 0.02001953L595.2 0.02001953L595.2 842L595.2 842L0 842z" /></clipPath><clipPath id="15"><path id="" clip-rule="evenodd" transform="matrix(1 0 0 1 0 0)" d="M124.56 323.4L202.98 323.4L202.98 323.4L202.98 337.8L202.98 337.8L124.56 337.8z" /></clipPath><clipPath id="16"><path id="" clip-rule="evenodd" transform="matrix(1 0 0 1 0 0)" d="M0 0.02001953L595.2 0.02001953L595.2 0.02001953L595.2 842L595.2 842L0 842z" /></clipPath><clipPath id="17"><path id="" clip-rule="evenodd" transform="matrix(1 0 0 1 0 0)" d="M124.98 323.88L198.36 323.88L198.36 323.88L198.36 337.68L198.36 337.68L124.98 337.68z" /></clipPath><clipPath id="18"><path id="" clip-rule="evenodd" transform="matrix(1 0 0 1 0 0)" d="M124.56 323.4L202.98 323.4L202.98 323.4L202.98 337.8L202.98 337.8L124.56 337.8z" /></clipPath><clipPath id="19"><path id="" clip-rule="evenodd" transform="matrix(1 0 0 1 0 0)" d="M0 0.02001953L595.2 0.02001953L595.2 0.02001953L595.2 842L595.2 842L0 842z" /></clipPath><clipPath id="20"><path id="" clip-rule="evenodd" transform="matrix(1 0 0 1 0 0)" d="M45.96 410.4L198.18 410.4L198.18 410.4L198.18 569.16L198.18 569.16L45.96 569.16z" /></clipPath><clipPath id="21"><path id="" clip-rule="evenodd" transform="matrix(1 0 0 1 0 0)" d="M44.94 409.38L555.36 409.38L555.36 409.38L555.36 607.44L555.36 607.44L44.94 607.44z" /></clipPath><clipPath id="22"><path id="" clip-rule="evenodd" transform="matrix(1 0 0 1 0 0)" d="M0 0.02001953L595.2 0.02001953L595.2 0.02001953L595.2 842L595.2 842L0 842z" /></clipPath><clipPath id="23"><path id="" clip-rule="evenodd" transform="matrix(1 0 0 1 0 0)" d="M44.94 409.38L555.36 409.38L555.36 409.38L555.36 607.44L555.36 607.44L44.94 607.44z" /></clipPath><clipPath id="24"><path id="" clip-rule="evenodd" transform="matrix(1 0 0 1 0 0)" d="M0 0.02001953L595.2 0.02001953L595.2 0.02001953L595.2 842L595.2 842L0 842z" /></clipPath><clipPath id="25"><path id="" clip-rule="evenodd" transform="matrix(1 0 0 1 0 0)" d="M209.52 410.4L354.12 410.4L354.12 410.4L354.12 529.86L354.12 529.86L209.52 529.86z" /></clipPath><clipPath id="26"><path id="" clip-rule="evenodd" transform="matrix(1 0 0 1 0 0)" d="M44.94 409.38L555.36 409.38L555.36 409.38L555.36 607.44L555.36 607.44L44.94 607.44z" /></clipPath><clipPath id="27"><path id="" clip-rule="evenodd" transform="matrix(1 0 0 1 0 0)" d="M0 0.02001953L595.2 0.02001953L595.2 0.02001953L595.2 842L595.2 842L0 842z" /></clipPath><clipPath id="28"><path id="" clip-rule="evenodd" transform="matrix(1 0 0 1 0 0)" d="M368.46 410.4L554.34 410.4L554.34 410.4L554.34 606.42L554.34 606.42L368.46 606.42z" /></clipPath><clipPath id="29"><path id="" clip-rule="evenodd" transform="matrix(1 0 0 1 0 0)" d="M44.94 409.38L555.36 409.38L555.36 409.38L555.36 607.44L555.36 607.44L44.94 607.44z" /></clipPath><clipPath id="30"><path id="" clip-rule="evenodd" transform="matrix(1 0 0 1 0 0)" d="M0 0.02001953L595.2 0.02001953L595.2 0.02001953L595.2 842L595.2 842L0 842z" /></clipPath><clipPath id="31"><path id="" clip-rule="evenodd" transform="matrix(1 0 0 1 0 0)" d="M44.94 409.38L555.36 409.38L555.36 409.38L555.36 607.44L555.36 607.44L44.94 607.44z" /></clipPath><clipPath id="32"><path id="" clip-rule="evenodd" transform="matrix(1 0 0 1 0 0)" d="M0 0.02001953L595.2 0.02001953L595.2 0.02001953L595.2 842L595.2 842L0 842z" /></clipPath></defs><g transform="matrix(1.333333 0 0 1.333333 0 0)"><g clip-path="url(#1)"><g clip-path="url(#2)"><g clip-path="url(#3)"><g clip-path="url(#4)"><g transform="matrix(0.4790204 0 0 0.4794136 45.96 84.66003)"><g transform="matrix(1 0 0 1 0 0)"><image x="0" y="0" xlink:href="img_547.png" width="295" height="307" /></g></g></g></g></g><g clip-path="url(#5)"><g clip-path="url(#6)"><g clip-path="url(#7)"><g transform="matrix(0.4791014 0 0 0.4785498 204.12 79.02002)"><g transform="matrix(1 0 0 1 0 0)"><image x="0" y="0" xlink:href="img_548.png" width="296" height="331" /></g></g></g></g></g><g clip-path="url(#8)"><g clip-path="url(#9)"><path id="221" transform="matrix(1 0 0 -1 0 842)" d="M131.58 719.84L131.7 720.02L131.7 720.02L131.88 720.14L131.88 720.14L132 720.5L132 720.5L132 720.86L132 720.86L131.94 721.1L131.94 721.1L131.82 721.28L131.82 721.28L131.58 721.52L131.58 721.52L131.4 721.64L131.4 721.64L131.22 721.7L131.22 721.7L130.8 721.7L130.8 721.7L130.62 721.64L130.62 721.64L130.44 721.52L130.44 721.52L130.32 721.4L130.32 721.4L130.2 721.22L130.2 721.22L130.08 721.04L130.08 721.04L130.02 720.86L130.02 720.86L130.02 720.5L130.02 720.5L130.08 720.32L130.08 720.32L130.32 719.96L130.32 719.96L130.44 719.84L130.44 719.84L130.62 719.78L130.62 719.78L130.8 719.72L130.8 719.72L131.22 719.72L131.22 719.72L131.4 719.78L131.4 719.78L131.58 719.84" stroke="none" fill="#FF0000" fill-rule="evenodd" /><path id="222" transform="matrix(1 0 0 -1 0 842)" d="M131.04 720.68L134.64 723.08L135.18 723.38L135.36 722.78L140.16 707.96L140.7 706.28L139.38 707.42L127.44 717.44L126.9 717.86L127.5 718.28L128.1 718.22L139.98 708.2L139.38 707.42L139.2 707.66L134.4 722.48L135.36 722.78L135.18 722.24L131.58 719.84" stroke="none" fill="#FF0000" fill-rule="nonzero" /><path id="223" transform="matrix(1 0 0 -1 0 842)" d="M127.5 718.28L131.04 720.6801L131.58 719.84L128.04 717.44" stroke="none" fill="#FF0000" fill-rule="nonzero" /><path id="224" transform="matrix(1 0 0 -1 0 842)" d="M131.28 720.26L134.88 722.66L134.88 722.66L139.68 707.84L139.68 707.84L127.74 717.86" stroke="none" fill="#FF0000" fill-rule="evenodd" /><path id="225" transform="matrix(1 0 0 -1 0 842)" d="M120.18 738.5L119.64 739.28L118.02 738.14L118.56 737.36" stroke="none" fill="#FF0000" fill-rule="nonzero" /><path id="226" transform="matrix(1 0 0 -1 0 842)" d="M131.88 721.22L132.42 720.4399L130.8 719.3L130.26 720.08" stroke="none" fill="#FF0000" fill-rule="nonzero" /><path id="227" transform="matrix(1 0 0 -1 0 842)" d="M120.18 738.5L118.56 737.36L130.26 720.08L131.88 721.22" stroke="none" fill="#FF0000" fill-rule="nonzero" /><path id="228" transform="matrix(1 0 0 -1 0 842)" d="M276.84 732.56L276.66 732.44L276.66 732.44L276.54 732.26L276.54 732.26L276.48 732.14L276.48 732.14L276.42 731.9L276.42 731.9L276.42 731.54L276.42 731.54L276.48 731.36L276.48 731.36L276.72 731L276.72 731L276.84 730.88L276.84 730.88L277.2 730.76L277.2 730.76L277.62 730.76L277.62 730.76L277.98 730.88L277.98 730.88L278.1 731.06L278.1 731.06L278.22 731.18L278.22 731.18L278.34 731.36L278.34 731.36L278.4 731.54L278.4 731.54L278.4 731.96L278.4 731.96L278.34 732.14L278.34 732.14L278.22 732.32L278.22 732.32L278.1 732.44L278.1 732.44L277.92 732.56L277.92 732.56L277.8 732.68L277.8 732.68L277.62 732.74L277.62 732.74L277.2 732.74L277.2 732.74L277.02 732.68L277.02 732.68L276.84 732.56" stroke="none" fill="#FF0000" fill-rule="evenodd" /><path id="229" transform="matrix(1 0 0 -1 0 842)" d="M277.38 731.72L273.78 729.3199L273.24 729.02L273.06 729.62L268.26 744.4399L267.72 746.12L269.04 744.98L280.98 734.96L281.52 734.54L280.92 734.12L280.32 734.18L268.38 744.2L269.04 744.98L269.22 744.74L274.02 729.92L273.06 729.62L273.24 730.16L276.84 732.56" stroke="none" fill="#FF0000" fill-rule="nonzero" /><path id="230" transform="matrix(1 0 0 -1 0 842)" d="M280.92 734.12L277.38 731.72L276.84 732.56L280.38 734.96" stroke="none" fill="#FF0000" fill-rule="nonzero" /><path id="231" transform="matrix(1 0 0 -1 0 842)" d="M277.14 732.14L273.54 729.74L273.54 729.74L268.74 744.56L268.74 744.56L280.68 734.54" stroke="none" fill="#FF0000" fill-rule="evenodd" /><path id="232" transform="matrix(1 0 0 -1 0 842)" d="M278.22 732.26L277.68 733.04L276.06 731.9L276.6 731.12" stroke="none" fill="#FF0000" fill-rule="nonzero" /><path id="233" transform="matrix(1 0 0 -1 0 842)" d="M291.12 713.24L291.66 712.46L290.04 711.32L289.5 712.1" stroke="none" fill="#FF0000" fill-rule="nonzero" /><path id="234" transform="matrix(1 0 0 -1 0 842)" d="M278.22 732.26L276.6 731.12L289.5 712.1L291.12 713.24" stroke="none" fill="#FF0000" fill-rule="nonzero" /><path id="235" transform="matrix(1 0 0 -1 0 842)" d="M197.58 683.78L197.52 683.96L197.52 683.96L197.52 684.14L197.52 684.14L197.4 684.32L197.4 684.32L197.28 684.5L197.28 684.5L197.1 684.6201L197.1 684.6201L196.98 684.6801L196.98 684.6801L196.8 684.7401L196.8 684.7401L196.38 684.7401L196.38 684.7401L196.02 684.6201L196.02 684.6201L195.84 684.5L195.84 684.5L195.72 684.32L195.72 684.32L195.66 684.14L195.66 684.14L195.6 683.96L195.6 683.96L195.6 683.54L195.6 683.54L195.66 683.36L195.66 683.36L195.72 683.2401L195.72 683.2401L195.84 683.0601L195.84 683.0601L196.2 682.82L196.2 682.82L196.38 682.82L196.38 682.82L196.56 682.76L196.56 682.76L196.8 682.82L196.8 682.82L196.98 682.82L196.98 682.82L197.1 682.94L197.1 682.94L197.28 683.0601L197.28 683.0601L197.4 683.2401L197.4 683.2401L197.52 683.36L197.52 683.36L197.52 683.54L197.52 683.54L197.58 683.78" stroke="none" fill="#000000" fill-rule="evenodd" /><path id="236" transform="matrix(1 0 0 -1 0 842)" d="M196.62 683.78L196.62 688.22L197.34 687.8L203.58 684.2L204.36 683.72L203.64 683.3L197.4 679.64L196.62 679.16L196.62 680.1201L196.86 680.54L203.1 684.2L203.64 683.3L203.1 683.3L196.86 686.9L197.34 687.8L197.64 687.38L197.64 683.78" stroke="none" fill="#000000" fill-rule="nonzero" /><path id="237" transform="matrix(1 0 0 -1 0 842)" d="M196.62 680.12L197.64 680.12L197.64 683.78L196.62 683.78z" stroke="none" fill="#000000" fill-rule="nonzero" /><path id="238" transform="matrix(1 0 0 -1 0 842)" d="M197.1 683.78L197.1 687.38L197.1 687.38L203.34 683.78L203.34 683.78L197.1 680.1201" stroke="none" fill="#000000" fill-rule="evenodd" /><path id="239" transform="matrix(1 0 0 -1 0 842)" d="M186.66 682.76L187.62 682.76L187.62 684.74L186.66 684.74z" stroke="none" fill="#000000" fill-rule="nonzero" /><path id="240" transform="matrix(1 0 0 -1 0 842)" d="M187.62 682.76L197.52 682.76L197.52 684.74L187.62 684.74z" stroke="none" fill="#000000" fill-rule="nonzero" /><path id="241" transform="matrix(1 0 0 -1 0 842)" d="M276.36 685.88L297.06 715.4L297.66 716.24L298.44 715.64L318.6 701.6L319.44 701L318.84 700.16L298.14 670.64L297.6 669.86L296.76 670.46L296.52 671.78L317.22 701.3L318.84 700.16L317.46 699.98L297.3 714.02L298.44 715.64L298.68 714.26L277.98 684.74" stroke="none" fill="#0000FF" fill-rule="nonzero" /><path id="242" transform="matrix(1 0 0 -1 0 842)" d="M296.76 670.46L276.6 684.56L275.82 685.1L276.36 685.88L277.74 686.18L297.9 672.08" stroke="none" fill="#0000FF" fill-rule="nonzero" /></g></g><g clip-path="url(#10)"><g clip-path="url(#11)"><g clip-path="url(#12)"><g transform="matrix(0.480115 0 0 0.48 362.76 110.94)"><g transform="matrix(1 0 0 1 0 0)"><image x="0" y="0" xlink:href="img_549.png" width="400" height="197" /></g></g></g></g></g><g clip-path="url(#13)"><g clip-path="url(#14)"><path id="244" transform="matrix(1 0 0 -1 0 842)" d="M521.04 715.76L553.26 715.76L553.26 717.74L521.04 717.74z" stroke="none" fill="#0000FF" fill-rule="nonzero" /><path id="245" transform="matrix(1 0 0 -1 0 842)" d="M551.28 686.36L553.26 686.36L553.26 716.78L551.28 716.78z" stroke="none" fill="#0000FF" fill-rule="nonzero" /><path id="246" transform="matrix(1 0 0 -1 0 842)" d="M520.08 686.36L552.24 686.36L552.24 688.34L520.08 688.34z" stroke="none" fill="#0000FF" fill-rule="nonzero" /><path id="247" transform="matrix(1 0 0 -1 0 842)" d="M520.08 687.38L522.06 687.38L522.06 717.74L520.08 717.74z" stroke="none" fill="#0000FF" fill-rule="nonzero" /><path id="248" transform="matrix(1 0 0 -1 0 842)" d="M355.56 683.78L355.56 683.96L355.56 683.96L355.5 684.14L355.5 684.14L355.38 684.32L355.38 684.32L355.26 684.5L355.26 684.5L355.14 684.6201L355.14 684.6201L354.78 684.7401L354.78 684.7401L354.36 684.7401L354.36 684.7401L354 684.6201L354 684.6201L353.88 684.5L353.88 684.5L353.76 684.32L353.76 684.32L353.64 684.14L353.64 684.14L353.58 683.96L353.58 683.96L353.58 683.54L353.58 683.54L353.64 683.36L353.64 683.36L353.76 683.2401L353.76 683.2401L353.88 683.0601L353.88 683.0601L354 682.94L354 682.94L354.18 682.82L354.18 682.82L354.36 682.82L354.36 682.82L354.6 682.76L354.6 682.76L354.78 682.82L354.78 682.82L354.96 682.82L354.96 682.82L355.14 682.94L355.14 682.94L355.26 683.0601L355.26 683.0601L355.38 683.2401L355.38 683.2401L355.5 683.36L355.5 683.36L355.56 683.54L355.56 683.54L355.56 683.78" stroke="none" fill="#000000" fill-rule="evenodd" /><path id="249" transform="matrix(1 0 0 -1 0 842)" d="M354.6 683.78L354.6 688.22L355.32 687.8L361.62 684.2L362.4 683.72L361.68 683.3L355.38 679.64L354.6 679.16L354.6 680.1201L354.84 680.54L361.14 684.2L361.68 683.3L361.14 683.3L354.84 686.9L355.32 687.8L355.62 687.38L355.62 683.78" stroke="none" fill="#000000" fill-rule="nonzero" /><path id="250" transform="matrix(1 0 0 -1 0 842)" d="M354.6 680.12L355.62 680.12L355.62 683.78L354.6 683.78z" stroke="none" fill="#000000" fill-rule="nonzero" /><path id="251" transform="matrix(1 0 0 -1 0 842)" d="M355.08 683.78L355.08 687.38L355.08 687.38L361.38 683.78L361.38 683.78L355.08 680.1201" stroke="none" fill="#000000" fill-rule="evenodd" /><path id="252" transform="matrix(1 0 0 -1 0 842)" d="M344.64 682.76L345.6 682.76L345.6 684.74L344.64 684.74z" stroke="none" fill="#000000" fill-rule="nonzero" /><path id="253" transform="matrix(1 0 0 -1 0 842)" d="M345.6 682.76L355.56 682.76L355.56 684.74L345.6 684.74z" stroke="none" fill="#000000" fill-rule="nonzero" /></g></g><g clip-path="url(#15)"><g clip-path="url(#16)"><path id="254" transform="matrix(1 0 0 -1 0 842)" d="M124.56 504.2L202.98 504.2L202.98 518.6L124.56 518.6z" stroke="none" fill="#FFFFFF" fill-rule="nonzero" /></g></g><g clip-path="url(#17)"><g clip-path="url(#18)"><g clip-path="url(#19)"><g transform="matrix(0.7265346 0 0 0.7263158 124.98 323.88)"><g transform="matrix(1 0 0 1 0 0)"><image x="0" y="0" xlink:href="img_09.png" width="101" height="19" /></g></g></g></g></g><path id="256" transform="matrix(1 0 0 -1 0 842)" d="M260.94 502.58L558 502.58L558 522.56L260.94 522.56z" stroke="none" fill="#ECF5FC" fill-rule="nonzero" /><g clip-path="url(#20)"><g clip-path="url(#21)"><g clip-path="url(#22)"><g transform="matrix(0.4789245 0 0 0.4796374 45.96 410.4)"><g transform="matrix(1 0 0 1 0 0)"><image x="0" y="0" xlink:href="img_550.png" width="318" height="331" /></g></g></g></g></g><g clip-path="url(#23)"><g clip-path="url(#24)"><path id="305" transform="matrix(1 0 0 -1 0 842)" d="M131.16 332.72L167.46 349.64L168.36 350.06L168.78 349.22L181.32 322.34L181.74 321.38L180.84 320.96L144.54 303.98L143.64 303.56L143.22 304.52L143.7 305.78L180 322.76L180.84 320.96L179.52 321.5L166.98 348.38L168.78 349.22L168.3 347.84L132 330.92" stroke="none" fill="#0000FF" fill-rule="nonzero" /><path id="306" transform="matrix(1 0 0 -1 0 842)" d="M143.22 304.52L130.68 331.46L130.26 332.3L131.16 332.72L132.48 332.3L145.02 305.36" stroke="none" fill="#0000FF" fill-rule="nonzero" /><path id="307" transform="matrix(1 0 0 -1 0 842)" d="M147.48 339.26L149.46 339.26L149.46 340.22L147.48 340.22z" stroke="none" fill="#0000FF" fill-rule="nonzero" /><path id="308" transform="matrix(1 0 0 -1 0 842)" d="M147.48 340.22L149.46 340.22L149.46 380.9L147.48 380.9z" stroke="none" fill="#0000FF" fill-rule="nonzero" /><path id="309" transform="matrix(1 0 0 -1 0 842)" d="M120.96 378.08L169.68 378.08L169.68 426.8L120.96 426.8z" stroke="none" fill="#FFFFFF" fill-rule="nonzero" /></g></g><g clip-path="url(#25)"><g clip-path="url(#26)"><g clip-path="url(#27)"><g transform="matrix(0.4793609 0 0 0.479759 209.52 410.4)"><g transform="matrix(1 0 0 1 0 0)"><image x="0" y="0" xlink:href="img_551.png" width="302" height="249" /></g></g></g></g></g><g clip-path="url(#28)"><g clip-path="url(#29)"><g clip-path="url(#30)"><g transform="matrix(0.4796572 0 0 0.4792665 368.46 410.4)"><g transform="matrix(1 0 0 1 0 0)"><image x="0" y="0" xlink:href="img_552.png" width="388" height="409" /></g></g></g></g></g><g clip-path="url(#31)"><g clip-path="url(#32)"><path id="326" transform="matrix(1 0 0 -1 0 842)" d="M207.72 403.28L257.1 431.78L258 432.26L258.48 431.42L299.7 359.9L300.24 359.06L299.34 358.52L250.02 330.02L249.18 329.54L248.7 330.44L249.06 331.76L298.38 360.26L299.34 358.52L298.02 358.94L256.74 430.46L258.48 431.42L258.06 430.04L208.68 401.54" stroke="none" fill="#0000FF" fill-rule="nonzero" /><path id="327" transform="matrix(1 0 0 -1 0 842)" d="M248.7 330.44L207.36 401.96L206.88 402.8L207.72 403.28L209.1 402.92L250.44 331.4" stroke="none" fill="#0000FF" fill-rule="nonzero" /><path id="328" transform="matrix(1 0 0 -1 0 842)" d="M371.94 370.82L411.24 370.82L411.24 372.8L371.94 372.8z" stroke="none" fill="#0000FF" fill-rule="nonzero" /><path id="329" transform="matrix(1 0 0 -1 0 842)" d="M409.26 295.82L411.24 295.82L411.24 371.84L409.26 371.84z" stroke="none" fill="#0000FF" fill-rule="nonzero" /><path id="330" transform="matrix(1 0 0 -1 0 842)" d="M370.98 295.82L410.22 295.82L410.22 297.8L370.98 297.8z" stroke="none" fill="#0000FF" fill-rule="nonzero" /><path id="331" transform="matrix(1 0 0 -1 0 842)" d="M370.98 296.84L372.96 296.84L372.96 372.8L370.98 372.8z" stroke="none" fill="#0000FF" fill-rule="nonzero" /><path id="332" transform="matrix(1 0 0 -1 0 842)" d="M430.44 422.6L503.52 422.6L503.52 424.58L430.44 424.58z" stroke="none" fill="#0000FF" fill-rule="nonzero" /><path id="333" transform="matrix(1 0 0 -1 0 842)" d="M501.54 375.32L503.52 375.32L503.52 423.62L501.54 423.62z" stroke="none" fill="#0000FF" fill-rule="nonzero" /><path id="334" transform="matrix(1 0 0 -1 0 842)" d="M429.48 375.32L502.5 375.32L502.5 377.3L429.48 377.3z" stroke="none" fill="#0000FF" fill-rule="nonzero" /><path id="335" transform="matrix(1 0 0 -1 0 842)" d="M429.48 376.34L431.46 376.34L431.46 424.58L429.48 424.58z" stroke="none" fill="#0000FF" fill-rule="nonzero" /><path id="336" transform="matrix(1 0 0 -1 0 842)" d="M225.36 278.72L274.14 278.72L274.14 304.1L225.36 304.1z" stroke="none" fill="#FFFFFF" fill-rule="nonzero" /><path id="344" transform="matrix(1 0 0 -1 0 842)" d="M248.82 330.5L250.8 330.5L250.8 331.46L248.82 331.46z" stroke="none" fill="#0000FF" fill-rule="nonzero" /><path id="345" transform="matrix(1 0 0 -1 0 842)" d="M248.82 306.14L250.8 306.14L250.8 330.5L248.82 330.5z" stroke="none" fill="#0000FF" fill-rule="nonzero" /></g></g></g></g></svg>