<svg xmlns="http://www.w3.org/2000/svg" xmlns:xlink="http://www.w3.org/1999/xlink" id="body_229" preserveAspectRatio="xMinYMin meet" viewBox="0 0 793 1123"><defs><clipPath id="1"><path id="" clip-rule="evenodd" transform="matrix(1 0 0 1 0 0)" d="M0 842L0 0L0 0L595 0L595 0L595 842L595 842L0 842z" /></clipPath><clipPath id="2"><path id="" clip-rule="evenodd" transform="matrix(1 0 0 1 0 0)" d="M225.96 77.03998L310.92 77.03998L310.92 77.03998L310.92 202.8L310.92 202.8L225.96 202.8z" /></clipPath><clipPath id="3"><path id="" clip-rule="evenodd" transform="matrix(1 0 0 1 0 0)" d="M224.94 76.02002L480.66 76.02002L480.66 76.02002L480.66 203.82L480.66 203.82L224.94 203.82z" /></clipPath><clipPath id="4"><path id="" clip-rule="evenodd" transform="matrix(1 0 0 1 0 0)" d="M0 0.02001953L595.2 0.02001953L595.2 0.02001953L595.2 842L595.2 842L0 842z" /></clipPath><clipPath id="5"><path id="" clip-rule="evenodd" transform="matrix(1 0 0 1 0 0)" d="M224.94 76.02002L480.66 76.02002L480.66 76.02002L480.66 203.82L480.66 203.82L224.94 203.82z" /></clipPath><clipPath id="6"><path id="" clip-rule="evenodd" transform="matrix(1 0 0 1 0 0)" d="M0 0.02001953L595.2 0.02001953L595.2 0.02001953L595.2 842L595.2 842L0 842z" /></clipPath><clipPath id="7"><path id="" clip-rule="evenodd" transform="matrix(1 0 0 1 0 0)" d="M224.94 358.74L559.92 358.74L559.92 358.74L559.92 460.56L559.92 460.56L224.94 460.56z" /></clipPath><clipPath id="8"><path id="" clip-rule="evenodd" transform="matrix(1 0 0 1 0 0)" d="M0 0.02001953L595.2 0.02001953L595.2 0.02001953L595.2 842L595.2 842L0 842z" /></clipPath><clipPath id="9"><path id="" clip-rule="evenodd" transform="matrix(1 0 0 1 0 0)" d="M225.96 373.56L558.6 373.56L558.6 373.56L558.6 446.04L558.6 446.04L225.96 446.04z" /></clipPath><clipPath id="10"><path id="" clip-rule="evenodd" transform="matrix(1 0 0 1 0 0)" d="M224.94 358.74L559.92 358.74L559.92 358.74L559.92 460.56L559.92 460.56L224.94 460.56z" /></clipPath><clipPath id="11"><path id="" clip-rule="evenodd" transform="matrix(1 0 0 1 0 0)" d="M0 0.02001953L595.2 0.02001953L595.2 0.02001953L595.2 842L595.2 842L0 842z" /></clipPath><clipPath id="12"><path id="" clip-rule="evenodd" transform="matrix(1 0 0 1 0 0)" d="M224.94 358.74L559.92 358.74L559.92 358.74L559.92 460.56L559.92 460.56L224.94 460.56z" /></clipPath><clipPath id="13"><path id="" clip-rule="evenodd" transform="matrix(1 0 0 1 0 0)" d="M0 0.02001953L595.2 0.02001953L595.2 0.02001953L595.2 842L595.2 842L0 842z" /></clipPath></defs><g transform="matrix(1.333333 0 0 1.333333 0 0)"><g clip-path="url(#1)"><path id="301" transform="matrix(1 0 0 -1 0 842)" d="M242.94 338.48L558 338.48L558 290.48L242.94 290.48" stroke="none" fill="#ECF5FC" fill-rule="nonzero" /><g clip-path="url(#2)"><g clip-path="url(#3)"><g clip-path="url(#4)"><g transform="matrix(0.48 0 0 0.48 225.96 77.03998)"><g transform="matrix(1 0 0 1 0 0)"><image x="0" y="0" xlink:href="img_632.png" width="177" height="262" /></g></g></g></g></g><g clip-path="url(#5)"><g clip-path="url(#6)"><path id="363" transform="matrix(1 0 0 -1 0 842)" d="M318.78 738.32L319.26 738.32L319.26 739.34L318.78 739.34z" stroke="none" fill="#000000" fill-rule="nonzero" /><path id="364" transform="matrix(1 0 0 -1 0 842)" d="M282.3 738.32L318.78 738.32L318.78 739.34L282.3 739.34z" stroke="none" fill="#000000" fill-rule="nonzero" /><path id="371" transform="matrix(1 0 0 -1 0 842)" d="M331.14 664.7L331.62 664.7L331.62 665.72L331.14 665.72z" stroke="none" fill="#000000" fill-rule="nonzero" /><path id="372" transform="matrix(1 0 0 -1 0 842)" d="M303.9 664.7L331.14 664.7L331.14 665.72L303.9 665.72z" stroke="none" fill="#000000" fill-rule="nonzero" /><path id="383" transform="matrix(1 0 0 -1 0 842)" d="M261.3 736.52L261.24 737.42L261.12 738.32L261.12 738.2L260.88 739.04L260.58 739.88L260.64 739.82L260.28 740.6L260.28 740.54L259.8 741.32L259.86 741.26L258.78 742.58L258.84 742.52L258.18 743.12L257.52 743.6L257.58 743.6L256.8 744.08L256.86 744.02L256.08 744.38L255.24 744.68L255.3 744.68L254.46 744.92L254.52 744.86L253.62 744.98L253.68 744.98L252.78 745.04L252.84 745.04L251.88 744.98L250.98 744.86L251.1 744.92L250.26 744.68L249.42 744.38L249.48 744.38L248.7 744.02L248.76 744.08L247.32 743.12L247.38 743.18L246.78 742.58L246.84 742.58L246.24 741.92L245.7 741.26L245.76 741.38L244.92 739.82L244.92 739.88L244.62 739.04L244.68 739.1L244.5 738.26L244.32 737.36L244.32 737.48L244.32 735.62L244.32 735.74L244.5 734.9L244.5 734.84L244.68 733.94L244.62 734.06L244.92 733.22L244.92 733.28L245.34 732.5L245.76 731.78L245.7 731.84L246.24 731.12L246.18 731.18L247.38 729.98L247.32 730.04L246.72 729.2L245.46 730.46L245.4 730.52L244.86 731.24L244.44 731.96L244.44 732.02L244.02 732.8L243.96 732.86L243.66 733.7L243.66 733.76L243.48 734.66L243.3 735.5L243.3 737.54L243.48 738.44L243.48 738.5L243.66 739.34L243.66 739.4L243.96 740.24L244.02 740.3L244.86 741.86L244.92 741.92L245.46 742.58L246.06 743.24L246.06 743.3L246.66 743.9L246.78 743.96L248.22 744.92L248.28 744.92L249.06 745.28L249.06 745.34L249.9 745.64L249.96 745.64L250.8 745.88L250.86 745.88L251.76 746L251.82 746L252.78 746.06L252.84 746.06L253.74 746L254.64 745.88L254.76 745.88L255.6 745.64L256.44 745.34L256.5 745.28L257.28 744.92L257.34 744.92L258.12 744.44L258.78 743.96L258.84 743.9L259.5 743.3L259.56 743.24L260.64 741.92L260.64 741.86L261.12 741.08L261.18 741.02L261.54 740.24L261.84 739.4L261.84 739.34L262.08 738.5L262.14 738.44L262.26 737.54L262.26 737.48L262.32 736.58" stroke="none" fill="#FF0000" fill-rule="nonzero" /><path id="384" transform="matrix(1 0 0 -1 0 842)" d="M247.32 730.04L248.04 729.5L248.76 729.08L248.7 729.08L249.48 728.72L249.42 728.78L250.26 728.48L251.1 728.24L250.98 728.24L251.88 728.12L252.84 728.06L252.78 728.06L253.68 728.12L253.62 728.12L254.52 728.24L254.46 728.24L255.3 728.48L255.24 728.48L256.08 728.78L256.08 728.72L256.86 729.08L256.8 729.08L257.58 729.5L257.52 729.44L258.18 729.98L258.84 730.58L258.78 730.52L259.32 731.12L259.26 731.12L259.8 731.84L259.8 731.78L260.28 732.5L260.28 732.44L260.64 733.22L260.58 733.22L260.88 734.06L260.88 734L261.12 734.9L261.12 734.84L261.24 735.68L261.24 735.62L261.3 736.58L261.3 736.52L262.32 736.58L262.32 736.52L262.26 735.56L262.14 734.72L262.08 734.66L261.84 733.7599L261.84 733.7L261.54 732.86L261.54 732.8L261.18 732.02L261.12 731.96L260.64 731.24L260.1 730.52L260.1 730.46L259.56 729.86L259.5 729.8L258.84 729.2L258.18 728.66L258.06 728.6L257.28 728.18L256.5 727.82L256.44 727.82L255.6 727.52L254.76 727.28L254.64 727.22L253.74 727.1L252.84 727.04L252.78 727.04L251.82 727.1L251.76 727.1L250.86 727.22L250.8 727.28L249.96 727.52L249.9 727.52L249.06 727.82L248.28 728.18L248.22 728.18L247.5 728.6L247.44 728.66L246.72 729.2" stroke="none" fill="#FF0000" fill-rule="nonzero" /><path id="385" transform="matrix(1 0 0 -1 0 842)" d="M291.66 706.94L291.66 707.9L291.66 707.78L291.48 708.68L291.3 709.52L291.3 709.46L291 710.3L291.06 710.24L290.64 711.02L290.64 710.96L290.22 711.68L289.68 712.4L289.74 712.34L288.54 713.54L288.6 713.48L287.88 714.02L287.94 713.96L287.22 714.38L286.44 714.8L286.5 714.8L285.66 715.1L285.72 715.04L284.88 715.22L284.94 715.22L284.04 715.4L284.1 715.4L282.24 715.4L282.36 715.4L281.46 715.22L280.62 715.04L280.68 715.1L279.84 714.8L279.9 714.8L279.12 714.38L279.18 714.38L278.46 713.96L278.46 714.02L277.74 713.48L277.8 713.48L277.14 712.88L277.2 712.94L276.66 712.34L276.66 712.4L276.12 711.68L275.64 710.96L275.7 711.02L275.34 710.24L275.34 710.3L275.04 709.46L274.8 708.62L274.86 708.74L274.74 707.84L274.68 706.88L274.68 706.94L274.74 706.04L274.74 706.1L274.86 705.2L274.8 705.26L275.04 704.42L275.04 704.48L275.34 703.64L275.7 702.86L275.64 702.92L276.12 702.2L276.12 702.26L276.66 701.54L277.2 700.88L277.14 700.94L277.8 700.4L277.74 700.46L277.14 699.62L276.48 700.16L276.42 700.22L275.88 700.88L275.82 700.94L275.28 701.66L274.8 702.38L274.8 702.44L274.44 703.22L274.38 703.28L274.08 704.12L273.84 704.96L273.84 705.08L273.72 705.98L273.66 706.88L273.66 706.94L273.72 707.9L273.72 707.96L273.84 708.86L273.84 708.92L274.08 709.76L274.08 709.82L274.38 710.66L274.44 710.66L274.8 711.44L274.8 711.5L275.28 712.22L275.28 712.28L275.82 713L275.88 713L276.42 713.6L276.48 713.66L277.14 714.26L277.14 714.32L277.86 714.86L277.92 714.86L278.64 715.28L279.42 715.7L279.48 715.76L280.32 716.06L280.38 716.06L281.22 716.24L281.28 716.24L282.18 716.42L284.22 716.42L285.12 716.24L285.96 716.06L286.02 716.06L286.86 715.76L286.92 715.7L287.7 715.28L287.76 715.28L288.48 714.86L289.2 714.32L290.52 713L291.06 712.28L291.12 712.22L291.54 711.5L291.96 710.72L291.96 710.66L292.26 709.82L292.32 709.76L292.5 708.92L292.5 708.86L292.68 707.96L292.68 706.94" stroke="none" fill="#FF0000" fill-rule="nonzero" /><path id="386" transform="matrix(1 0 0 -1 0 842)" d="M277.74 700.46L278.46 699.92L279.18 699.5L279.12 699.5L279.9 699.08L279.84 699.14L280.68 698.84L281.52 698.6L281.4 698.6L282.3 698.48L283.2 698.42L283.14 698.42L284.1 698.48L284.04 698.48L284.94 698.6L284.88 698.6L285.72 698.84L285.66 698.84L286.5 699.14L286.44 699.08L287.22 699.5L287.94 699.92L287.88 699.92L288.6 700.46L288.6 700.4L289.2 700.94L289.14 700.88L289.74 701.54L289.68 701.54L290.22 702.26L290.22 702.2L290.64 702.92L291.06 703.7L291 703.64L291.3 704.48L291.3 704.42L291.48 705.26L291.48 705.2L291.66 706.1L291.66 706.04L291.66 706.94L292.68 706.94L292.68 705.92L292.5 705.02L292.32 704.18L292.26 704.12L291.96 703.28L291.96 703.22L291.54 702.44L291.54 702.38L291.12 701.66L291.06 701.66L290.52 700.94L290.52 700.88L289.92 700.22L289.86 700.16L289.26 699.62L289.2 699.62L288.48 699.08L288.48 699.02L287.76 698.6L287.7 698.6L286.92 698.18L286.86 698.18L286.02 697.88L285.18 697.64L285.06 697.58L284.16 697.46L283.2 697.4L283.14 697.4L282.24 697.46L282.18 697.46L281.28 697.58L281.22 697.64L280.38 697.88L280.32 697.88L279.48 698.18L279.42 698.18L278.64 698.6L277.92 699.02L277.86 699.08L277.14 699.62" stroke="none" fill="#FF0000" fill-rule="nonzero" /><path id="387" transform="matrix(1 0 0 -1 0 842)" d="M252.9 736.34L252.54 736.7L251.82 735.98L252.18 735.6201" stroke="none" fill="#FF0000" fill-rule="nonzero" /><path id="388" transform="matrix(1 0 0 -1 0 842)" d="M253.98 735.26L254.34 734.9L253.62 734.18L253.26 734.54" stroke="none" fill="#FF0000" fill-rule="nonzero" /><path id="389" transform="matrix(1 0 0 -1 0 842)" d="M252.9 736.34L252.18 735.6201L253.26 734.54L253.98 735.26" stroke="none" fill="#FF0000" fill-rule="nonzero" /><path id="390" transform="matrix(1 0 0 -1 0 842)" d="M257.82 731.48L257.46 731.84L257.46 731.84L256.74 731.12L256.74 731.12L257.1 730.76" stroke="none" fill="#FF0000" fill-rule="evenodd" /><path id="391" transform="matrix(1 0 0 -1 0 842)" d="M260.16 729.26L260.52 728.9L260.52 728.9L259.8 728.18L259.8 728.18L259.44 728.54" stroke="none" fill="#FF0000" fill-rule="evenodd" /><path id="392" transform="matrix(1 0 0 -1 0 842)" d="M257.82 731.48L257.1 730.76L257.1 730.76L259.44 728.54L259.44 728.54L260.16 729.26" stroke="none" fill="#FF0000" fill-rule="evenodd" /><path id="393" transform="matrix(1 0 0 -1 0 842)" d="M264 725.48L263.64 725.84L263.64 725.84L262.92 725.12L262.92 725.12L263.28 724.76" stroke="none" fill="#FF0000" fill-rule="evenodd" /><path id="394" transform="matrix(1 0 0 -1 0 842)" d="M266.28 723.2L266.64 722.84L266.64 722.84L265.92 722.12L265.92 722.12L265.56 722.48" stroke="none" fill="#FF0000" fill-rule="evenodd" /><path id="395" transform="matrix(1 0 0 -1 0 842)" d="M264 725.48L263.28 724.76L263.28 724.76L265.56 722.48L265.56 722.48L266.28 723.2" stroke="none" fill="#FF0000" fill-rule="evenodd" /><path id="396" transform="matrix(1 0 0 -1 0 842)" d="M270.12 719.42L269.76 719.78L269.76 719.78L269.04 719.06L269.04 719.06L269.4 718.7" stroke="none" fill="#FF0000" fill-rule="evenodd" /><path id="397" transform="matrix(1 0 0 -1 0 842)" d="M272.46 717.2L272.82 716.84L272.82 716.84L272.1 716.12L272.1 716.12L271.74 716.48" stroke="none" fill="#FF0000" fill-rule="evenodd" /><path id="398" transform="matrix(1 0 0 -1 0 842)" d="M270.12 719.42L269.4 718.7L269.4 718.7L271.74 716.48L271.74 716.48L272.46 717.2" stroke="none" fill="#FF0000" fill-rule="evenodd" /><path id="399" transform="matrix(1 0 0 -1 0 842)" d="M276.3 713.42L275.94 713.78L275.94 713.78L275.22 713.06L275.22 713.06L275.58 712.7" stroke="none" fill="#FF0000" fill-rule="evenodd" /><path id="400" transform="matrix(1 0 0 -1 0 842)" d="M278.58 711.14L278.94 710.78L278.94 710.78L278.22 710.06L278.22 710.06L277.86 710.42" stroke="none" fill="#FF0000" fill-rule="evenodd" /><path id="401" transform="matrix(1 0 0 -1 0 842)" d="M276.3 713.42L275.58 712.7L275.58 712.7L277.86 710.42L277.86 710.42L278.58 711.14" stroke="none" fill="#FF0000" fill-rule="evenodd" /><path id="402" transform="matrix(1 0 0 -1 0 842)" d="M282.48 707.36L282.12 707.72L281.4 707L281.76 706.64" stroke="none" fill="#FF0000" fill-rule="nonzero" /><path id="403" transform="matrix(1 0 0 -1 0 842)" d="M283.5 706.34L283.86 705.98L283.14 705.26L282.78 705.6201" stroke="none" fill="#FF0000" fill-rule="nonzero" /><path id="404" transform="matrix(1 0 0 -1 0 842)" d="M282.48 707.36L281.76 706.64L282.78 705.62L283.5 706.34" stroke="none" fill="#FF0000" fill-rule="nonzero" /></g></g><g clip-path="url(#7)"><g clip-path="url(#8)"><path id="405" transform="matrix(1 0 0 -1 0 842)" d="M289.44 471.02L317.22 471.02L317.22 482.24L289.44 482.24z" stroke="none" fill="#FFFFFF" fill-rule="nonzero" /><path id="408" transform="matrix(1 0 0 -1 0 842)" d="M534 471.02L558.9 471.02L558.9 482.24L534 482.24z" stroke="none" fill="#FFFFFF" fill-rule="nonzero" /><path id="411" transform="matrix(1 0 0 -1 0 842)" d="M414.36 471.02L442.14 471.02L442.14 482.24L414.36 482.24z" stroke="none" fill="#FFFFFF" fill-rule="nonzero" /></g></g><g clip-path="url(#9)"><g clip-path="url(#10)"><g clip-path="url(#11)"><g transform="matrix(0.48 0 0 0.48 225.96 373.56)"><g transform="matrix(1 0 0 1 0 0)"><image x="0" y="0" xlink:href="img_633.png" width="693" height="151" /></g></g></g></g></g><g clip-path="url(#12)"><g clip-path="url(#13)"><path id="415" transform="matrix(1 0 0 -1 0 842)" d="M299.28 472.52L301.26 472.52L301.26 473.48L299.28 473.48z" stroke="none" fill="#000000" fill-rule="nonzero" /><path id="416" transform="matrix(1 0 0 -1 0 842)" d="M299.28 431.66L301.26 431.66L301.26 472.52L299.28 472.52z" stroke="none" fill="#000000" fill-rule="nonzero" /><path id="417" transform="matrix(1 0 0 -1 0 842)" d="M424.26 472.52L426.24 472.52L426.24 473.48L424.26 473.48z" stroke="none" fill="#000000" fill-rule="nonzero" /><path id="418" transform="matrix(1 0 0 -1 0 842)" d="M424.74 434.96L426.72 434.96L426.72 435.92L424.74 435.92z" stroke="none" fill="#000000" fill-rule="nonzero" /><path id="419" transform="matrix(1 0 0 -1 0 842)" d="M426.24 472.52L424.26 472.52L424.74 435.92L426.72 435.92" stroke="none" fill="#000000" fill-rule="nonzero" /><path id="420" transform="matrix(1 0 0 -1 0 842)" d="M548.52 472.52L550.5 472.52L550.5 473.48L548.52 473.48z" stroke="none" fill="#000000" fill-rule="nonzero" /><path id="421" transform="matrix(1 0 0 -1 0 842)" d="M548.94 424.28L550.92 424.28L550.92 425.24L548.94 425.24z" stroke="none" fill="#000000" fill-rule="nonzero" /><path id="422" transform="matrix(1 0 0 -1 0 842)" d="M550.5 472.52L548.52 472.52L548.94 425.24L550.92 425.24" stroke="none" fill="#000000" fill-rule="nonzero" /><path id="423" transform="matrix(1 0 0 -1 0 842)" d="M254.58 382.46L304.68 382.46L304.68 393.68L254.58 393.68z" stroke="none" fill="#FFFFFF" fill-rule="nonzero" /><path id="429" transform="matrix(1 0 0 -1 0 842)" d="M503.64 382.46L549.36 382.46L549.36 393.68L503.64 393.68z" stroke="none" fill="#FFFFFF" fill-rule="nonzero" /><path id="442" transform="matrix(1 0 0 -1 0 842)" d="M396.6 389.84L396.6 393.98L397.26 393.8L409.32 390.32L411 389.84L409.32 389.36L397.26 385.88L396.6 385.7L396.6 386.36L396.96 386.84L409.02 390.32L409.32 389.36L409.02 389.36L396.96 392.84L397.26 393.8L397.62 393.32L397.62 389.84" stroke="none" fill="#000000" fill-rule="nonzero" /><path id="443" transform="matrix(1 0 0 -1 0 842)" d="M396.6 386.36L397.62 386.36L397.62 389.84L396.6 389.84z" stroke="none" fill="#000000" fill-rule="nonzero" /><path id="444" transform="matrix(1 0 0 -1 0 842)" d="M397.08 389.84L397.08 393.32L397.08 393.32L409.14 389.84L409.14 389.84L397.08 386.36" stroke="none" fill="#000000" fill-rule="evenodd" /><path id="445" transform="matrix(1 0 0 -1 0 842)" d="M384.96 389.3L396.54 389.3L396.54 390.32L384.96 390.32z" stroke="none" fill="#000000" fill-rule="nonzero" /></g></g></g></g></svg>