<svg xmlns="http://www.w3.org/2000/svg" xmlns:xlink="http://www.w3.org/1999/xlink" id="body_30" preserveAspectRatio="xMinYMin meet" viewBox="0 0 793 1123"><defs><clipPath id="1"><path id="" clip-rule="evenodd" transform="matrix(1 0 0 1 0 0)" d="M0 842L0 0L0 0L595 0L595 0L595 842L595 842L0 842z" /></clipPath><clipPath id="2"><path id="" clip-rule="evenodd" transform="matrix(1 0 0 1 0 0)" d="M115.14 295.2L481.86 295.2L481.86 295.2L481.86 646.08L481.86 646.08L115.14 646.08z" /></clipPath><clipPath id="3"><path id="" clip-rule="evenodd" transform="matrix(1 0 0 1 0 0)" d="M44.94 265.98L553.98 265.98L553.98 265.98L553.98 667.8L553.98 667.8L44.94 667.8z" /></clipPath><clipPath id="4"><path id="" clip-rule="evenodd" transform="matrix(1 0 0 1 0 0)" d="M0 0.02001953L595.2 0.02001953L595.2 0.02001953L595.2 842L595.2 842L0 842z" /></clipPath><clipPath id="5"><path id="" clip-rule="evenodd" transform="matrix(1 0 0 1 0 0)" d="M44.94 265.98L553.98 265.98L553.98 265.98L553.98 667.8L553.98 667.8L44.94 667.8z" /></clipPath><clipPath id="6"><path id="" clip-rule="evenodd" transform="matrix(1 0 0 1 0 0)" d="M0 0.02001953L595.2 0.02001953L595.2 0.02001953L595.2 842L595.2 842L0 842z" /></clipPath></defs><g transform="matrix(1.333333 0 0 1.333333 0 0)"><g clip-path="url(#1)"><path id="180" transform="matrix(1 0 0 -1 0 842)" d="M224.94 769.94L558 769.94L558 722L224.94 722" stroke="none" fill="#ECF5FC" fill-rule="nonzero" /><g clip-path="url(#2)"><g clip-path="url(#3)"><g clip-path="url(#4)"><g transform="matrix(0.48 0 0 0.48 115.14 295.2)"><g transform="matrix(1 0 0 1 0 0)"><image x="0" y="0" xlink:href="img_58.png" width="764" height="731" /></g></g></g></g></g><g clip-path="url(#5)"><g clip-path="url(#6)"><path id="268" transform="matrix(1 0 0 -1 0 842)" d="M352.92 552.86L352.86 553.34L351.84 553.22L351.9 552.74" stroke="none" fill="#000000" fill-rule="nonzero" /><path id="269" transform="matrix(1 0 0 -1 0 842)" d="M360.72 491.66L360.78 491.18L359.76 491.06L359.7 491.54" stroke="none" fill="#000000" fill-rule="nonzero" /><path id="270" transform="matrix(1 0 0 -1 0 842)" d="M352.92 552.86L351.9 552.74L359.7 491.54L360.72 491.66" stroke="none" fill="#000000" fill-rule="nonzero" /><path id="271" transform="matrix(1 0 0 -1 0 842)" d="M416.7 552.62L417.72 552.62L417.72 553.1L416.7 553.1z" stroke="none" fill="#000000" fill-rule="nonzero" /><path id="272" transform="matrix(1 0 0 -1 0 842)" d="M417.3 491.72L418.32 491.72L418.32 492.2L417.3 492.2z" stroke="none" fill="#000000" fill-rule="nonzero" /><path id="273" transform="matrix(1 0 0 -1 0 842)" d="M417.72 552.62L416.7 552.62L417.3 492.2L418.32 492.2" stroke="none" fill="#000000" fill-rule="nonzero" /><path id="293" transform="matrix(1 0 0 -1 0 842)" d="M486.54 364.58L487.02 364.58L487.02 365.6L486.54 365.6z" stroke="none" fill="#000000" fill-rule="nonzero" /><path id="294" transform="matrix(1 0 0 -1 0 842)" d="M375.06 364.58L486.54 364.58L486.54 365.6L375.06 365.6z" stroke="none" fill="#000000" fill-rule="nonzero" /><path id="299" transform="matrix(1 0 0 -1 0 842)" d="M486.54 404.66L487.02 404.66L487.02 405.68L486.54 405.68z" stroke="none" fill="#000000" fill-rule="nonzero" /><path id="300" transform="matrix(1 0 0 -1 0 842)" d="M349.26 406.28L349.74 406.28L349.74 407.3L349.26 407.3z" stroke="none" fill="#000000" fill-rule="nonzero" /><path id="301" transform="matrix(1 0 0 -1 0 842)" d="M486.54 404.66L486.54 405.68L349.74 407.3L349.74 406.28" stroke="none" fill="#000000" fill-rule="nonzero" /><path id="335" transform="matrix(1 0 0 -1 0 842)" d="M249.3 187.52L250.32 187.52L250.32 188L249.3 188z" stroke="none" fill="#000000" fill-rule="nonzero" /><path id="336" transform="matrix(1 0 0 -1 0 842)" d="M250.5 271.4L251.52 271.4L251.52 271.88L250.5 271.88z" stroke="none" fill="#000000" fill-rule="nonzero" /><path id="337" transform="matrix(1 0 0 -1 0 842)" d="M249.3 188L250.32 188L251.52 271.4L250.5 271.4" stroke="none" fill="#000000" fill-rule="nonzero" /><path id="345" transform="matrix(1 0 0 -1 0 842)" d="M372.48 187.52L373.5 187.52L373.5 188L372.48 188z" stroke="none" fill="#000000" fill-rule="nonzero" /><path id="346" transform="matrix(1 0 0 -1 0 842)" d="M372.48 188L373.5 188L373.5 286.88L372.48 286.88z" stroke="none" fill="#000000" fill-rule="nonzero" /><path id="372" transform="matrix(1 0 0 -1 0 842)" d="M232.14 566.36L231.78 566.72L231.06 566L231.42 565.64" stroke="none" fill="#000000" fill-rule="nonzero" /><path id="373" transform="matrix(1 0 0 -1 0 842)" d="M325.14 467.78L325.5 467.42L324.78 466.7L324.42 467.06" stroke="none" fill="#000000" fill-rule="nonzero" /><path id="374" transform="matrix(1 0 0 -1 0 842)" d="M232.14 566.36L231.42 565.64L324.42 467.06L325.14 467.78" stroke="none" fill="#000000" fill-rule="nonzero" /><path id="375" transform="matrix(1 0 0 -1 0 842)" d="M244.98 405.68L245.46 405.68L245.46 406.7L244.98 406.7z" stroke="none" fill="#000000" fill-rule="nonzero" /><path id="376" transform="matrix(1 0 0 -1 0 842)" d="M107.1 406.28L107.58 406.28L107.58 407.3L107.1 407.3z" stroke="none" fill="#000000" fill-rule="nonzero" /><path id="377" transform="matrix(1 0 0 -1 0 842)" d="M244.98 405.68L244.98 406.7L107.58 407.3L107.58 406.28" stroke="none" fill="#000000" fill-rule="nonzero" /></g></g></g></g></svg>