<svg xmlns="http://www.w3.org/2000/svg" xmlns:xlink="http://www.w3.org/1999/xlink" id="body_239" preserveAspectRatio="xMinYMin meet" viewBox="0 0 793 1123"><defs><clipPath id="1"><path id="" clip-rule="evenodd" transform="matrix(1 0 0 1 0 0)" d="M0 842L0 0L0 0L595 0L595 0L595 842L595 842L0 842z" /></clipPath><clipPath id="2"><path id="" clip-rule="evenodd" transform="matrix(1 0 0 1 0 0)" d="M216.96 326.76L332.46 326.76L332.46 326.76L332.46 414.9L332.46 414.9L216.96 414.9z" /></clipPath><clipPath id="3"><path id="" clip-rule="evenodd" transform="matrix(1 0 0 1 0 0)" d="M215.94 317.94L478.02 317.94L478.02 317.94L478.02 449.58L478.02 449.58L215.94 449.58z" /></clipPath><clipPath id="4"><path id="" clip-rule="evenodd" transform="matrix(1 0 0 1 0 0)" d="M0 0.02001953L595.2 0.02001953L595.2 0.02001953L595.2 842L595.2 842L0 842z" /></clipPath><clipPath id="5"><path id="" clip-rule="evenodd" transform="matrix(1 0 0 1 0 0)" d="M343.26 318.96L477 318.96L477 318.96L477 448.56L477 448.56L343.26 448.56z" /></clipPath><clipPath id="6"><path id="" clip-rule="evenodd" transform="matrix(1 0 0 1 0 0)" d="M215.94 317.94L478.02 317.94L478.02 317.94L478.02 449.58L478.02 449.58L215.94 449.58z" /></clipPath><clipPath id="7"><path id="" clip-rule="evenodd" transform="matrix(1 0 0 1 0 0)" d="M0 0.02001953L595.2 0.02001953L595.2 0.02001953L595.2 842L595.2 842L0 842z" /></clipPath><clipPath id="8"><path id="" clip-rule="evenodd" transform="matrix(1 0 0 1 0 0)" d="M215.94 317.94L478.02 317.94L478.02 317.94L478.02 449.58L478.02 449.58L215.94 449.58z" /></clipPath><clipPath id="9"><path id="" clip-rule="evenodd" transform="matrix(1 0 0 1 0 0)" d="M0 0.02001953L595.2 0.02001953L595.2 0.02001953L595.2 842L595.2 842L0 842z" /></clipPath><clipPath id="10"><path id="" clip-rule="evenodd" transform="matrix(1 0 0 1 0 0)" d="M115.56 572.16L193.98 572.16L193.98 572.16L193.98 586.56L193.98 586.56L115.56 586.56z" /></clipPath><clipPath id="11"><path id="" clip-rule="evenodd" transform="matrix(1 0 0 1 0 0)" d="M0 0.02001953L595.2 0.02001953L595.2 0.02001953L595.2 842L595.2 842L0 842z" /></clipPath><clipPath id="12"><path id="" clip-rule="evenodd" transform="matrix(1 0 0 1 0 0)" d="M115.98 572.64L189.36 572.64L189.36 572.64L189.36 586.44L189.36 586.44L115.98 586.44z" /></clipPath><clipPath id="13"><path id="" clip-rule="evenodd" transform="matrix(1 0 0 1 0 0)" d="M115.56 572.16L193.98 572.16L193.98 572.16L193.98 586.56L193.98 586.56L115.56 586.56z" /></clipPath><clipPath id="14"><path id="" clip-rule="evenodd" transform="matrix(1 0 0 1 0 0)" d="M0 0.02001953L595.2 0.02001953L595.2 0.02001953L595.2 842L595.2 842L0 842z" /></clipPath><clipPath id="15"><path id="" clip-rule="evenodd" transform="matrix(1 0 0 1 0 0)" d="M115.56 680.16L193.98 680.16L193.98 680.16L193.98 694.56L193.98 694.56L115.56 694.56z" /></clipPath><clipPath id="16"><path id="" clip-rule="evenodd" transform="matrix(1 0 0 1 0 0)" d="M0 0.02001953L595.2 0.02001953L595.2 0.02001953L595.2 842L595.2 842L0 842z" /></clipPath><clipPath id="17"><path id="" clip-rule="evenodd" transform="matrix(1 0 0 1 0 0)" d="M115.98 680.64L189.36 680.64L189.36 680.64L189.36 694.44L189.36 694.44L115.98 694.44z" /></clipPath><clipPath id="18"><path id="" clip-rule="evenodd" transform="matrix(1 0 0 1 0 0)" d="M115.56 680.16L193.98 680.16L193.98 680.16L193.98 694.56L193.98 694.56L115.56 694.56z" /></clipPath><clipPath id="19"><path id="" clip-rule="evenodd" transform="matrix(1 0 0 1 0 0)" d="M0 0.02001953L595.2 0.02001953L595.2 0.02001953L595.2 842L595.2 842L0 842z" /></clipPath></defs><g transform="matrix(1.333333 0 0 1.333333 0 0)"><g clip-path="url(#1)"><g clip-path="url(#2)"><g clip-path="url(#3)"><g clip-path="url(#4)"><g transform="matrix(0.479361 0 0 0.4790218 216.96 326.76)"><g transform="matrix(1 0 0 1 0 0)"><image x="0" y="0" xlink:href="img_668.png" width="241" height="184" /></g></g></g></g></g><g clip-path="url(#5)"><g clip-path="url(#6)"><g clip-path="url(#7)"><g transform="matrix(0.4793549 0 0 0.48 343.26 318.96)"><g transform="matrix(1 0 0 1 0 0)"><image x="0" y="0" xlink:href="img_140.png" width="279" height="270" /></g></g></g></g></g><g clip-path="url(#8)"><g clip-path="url(#9)"><path id="386" transform="matrix(1 0 0 -1 0 842)" d="M410.76 498.92L409.86 498.56L410.58 496.7L411.48 497.06" stroke="none" fill="#000000" fill-rule="nonzero" /><path id="387" transform="matrix(1 0 0 -1 0 842)" d="M449.76 513.92L450.66 514.28L451.38 512.42L450.48 512.06" stroke="none" fill="#000000" fill-rule="nonzero" /><path id="388" transform="matrix(1 0 0 -1 0 842)" d="M410.76 498.92L411.48 497.06L450.48 512.06L449.76 513.92" stroke="none" fill="#000000" fill-rule="nonzero" /><path id="389" transform="matrix(1 0 0 -1 0 842)" d="M453.9 509.78L464.4 509.78L464.4 520.28L453.9 520.28z" stroke="none" fill="#FFFFFF" fill-rule="nonzero" /><path id="391" transform="matrix(1 0 0 -1 0 842)" d="M387.96 439.4L388.5 440.18L386.88 441.32L386.34 440.54" stroke="none" fill="#000000" fill-rule="nonzero" /><path id="392" transform="matrix(1 0 0 -1 0 842)" d="M372.96 418.4L372.42 417.62L370.8 418.76L371.34 419.54" stroke="none" fill="#000000" fill-rule="nonzero" /><path id="393" transform="matrix(1 0 0 -1 0 842)" d="M387.96 439.4L386.34 440.54L371.34 419.54L372.96 418.4" stroke="none" fill="#000000" fill-rule="nonzero" /><path id="394" transform="matrix(1 0 0 -1 0 842)" d="M366.9 404.78L378.12 404.78L378.12 415.28L366.9 415.28z" stroke="none" fill="#FFFFFF" fill-rule="nonzero" /><path id="396" transform="matrix(1 0 0 -1 0 842)" d="M441.72 448.7L442.26 449.48L440.64 450.62L440.1 449.84" stroke="none" fill="#000000" fill-rule="nonzero" /><path id="397" transform="matrix(1 0 0 -1 0 842)" d="M419.22 417.2L418.68 416.42L417.06 417.56L417.6 418.34" stroke="none" fill="#000000" fill-rule="nonzero" /><path id="398" transform="matrix(1 0 0 -1 0 842)" d="M441.72 448.7L440.1 449.84L417.6 418.34L419.22 417.2" stroke="none" fill="#000000" fill-rule="nonzero" /><path id="399" transform="matrix(1 0 0 -1 0 842)" d="M410.88 402.02L421.38 402.02L421.38 413.3L410.88 413.3z" stroke="none" fill="#FFFFFF" fill-rule="nonzero" /></g></g><g clip-path="url(#10)"><g clip-path="url(#11)"><path id="401" transform="matrix(1 0 0 -1 0 842)" d="M115.56 255.44L193.98 255.44L193.98 269.84L115.56 269.84z" stroke="none" fill="#FFFFFF" fill-rule="nonzero" /></g></g><g clip-path="url(#12)"><g clip-path="url(#13)"><g clip-path="url(#14)"><g transform="matrix(0.7265346 0 0 0.7263158 115.98 572.64)"><g transform="matrix(1 0 0 1 0 0)"><image x="0" y="0" xlink:href="img_09.png" width="101" height="19" /></g></g></g></g></g><path id="403" transform="matrix(1 0 0 -1 0 842)" d="M215.94 273.86L549 273.86L549 253.82L215.94 253.82" stroke="none" fill="#ECF5FC" fill-rule="nonzero" /><g clip-path="url(#15)"><g clip-path="url(#16)"><path id="428" transform="matrix(1 0 0 -1 0 842)" d="M115.56 147.44L193.98 147.44L193.98 161.84L115.56 161.84z" stroke="none" fill="#FFFFFF" fill-rule="nonzero" /></g></g><g clip-path="url(#17)"><g clip-path="url(#18)"><g clip-path="url(#19)"><g transform="matrix(0.7265346 0 0 0.7263158 115.98 680.64)"><g transform="matrix(1 0 0 1 0 0)"><image x="0" y="0" xlink:href="img_09.png" width="101" height="19" /></g></g></g></g></g><path id="430" transform="matrix(1 0 0 -1 0 842)" d="M215.94 165.86L549 165.86L549 103.88L215.94 103.88" stroke="none" fill="#ECF5FC" fill-rule="nonzero" /></g></g></svg>