<svg xmlns="http://www.w3.org/2000/svg" xmlns:xlink="http://www.w3.org/1999/xlink" id="body_33" preserveAspectRatio="xMinYMin meet" viewBox="0 0 793 1123"><defs><clipPath id="1"><path id="" clip-rule="evenodd" transform="matrix(1 0 0 1 0 0)" d="M0 842L0 0L0 0L595 0L595 0L595 842L595 842L0 842z" /></clipPath><clipPath id="2"><path id="" clip-rule="evenodd" transform="matrix(1 0 0 1 0 0)" d="M225.96 534.9L554.76 534.9L554.76 534.9L554.76 644.58L554.76 644.58L225.96 644.58z" /></clipPath><clipPath id="3"><path id="" clip-rule="evenodd" transform="matrix(1 0 0 1 0 0)" d="M224.94 533.88L555.78 533.88L555.78 533.88L555.78 673.98L555.78 673.98L224.94 673.98z" /></clipPath><clipPath id="4"><path id="" clip-rule="evenodd" transform="matrix(1 0 0 1 0 0)" d="M0 0.02001953L595.2 0.02001953L595.2 0.02001953L595.2 842L595.2 842L0 842z" /></clipPath><clipPath id="5"><path id="" clip-rule="evenodd" transform="matrix(1 0 0 1 0 0)" d="M224.94 533.88L555.78 533.88L555.78 533.88L555.78 673.98L555.78 673.98L224.94 673.98z" /></clipPath><clipPath id="6"><path id="" clip-rule="evenodd" transform="matrix(1 0 0 1 0 0)" d="M0 0.02001953L595.2 0.02001953L595.2 0.02001953L595.2 842L595.2 842L0 842z" /></clipPath></defs><g transform="matrix(1.333333 0 0 1.333333 0 0)"><g clip-path="url(#1)"><g clip-path="url(#2)"><g clip-path="url(#3)"><g clip-path="url(#4)"><g transform="matrix(0.48 0 0 0.478952 225.96 534.9)"><g transform="matrix(1 0 0 1 0 0)"><image x="0" y="0" xlink:href="img_27.png" width="685" height="229" /></g></g></g></g></g><g clip-path="url(#5)"><g clip-path="url(#6)"><path id="772" transform="matrix(1 0 0 -1 0 842)" d="M299.46 192.02L300.48 192.02L300.48 192.5L299.46 192.5z" stroke="none" fill="#000000" fill-rule="nonzero" /><path id="773" transform="matrix(1 0 0 -1 0 842)" d="M299.46 192.5L300.48 192.5L300.48 224.6L299.46 224.6z" stroke="none" fill="#000000" fill-rule="nonzero" /><path id="782" transform="matrix(1 0 0 -1 0 842)" d="M433.86 192.02L434.88 192.02L434.88 192.5L433.86 192.5z" stroke="none" fill="#000000" fill-rule="nonzero" /><path id="783" transform="matrix(1 0 0 -1 0 842)" d="M433.74 227.3L434.76 227.3L434.76 227.78L433.74 227.78z" stroke="none" fill="#000000" fill-rule="nonzero" /><path id="784" transform="matrix(1 0 0 -1 0 842)" d="M433.86 192.5L434.88 192.5L434.76 227.3L433.74 227.3" stroke="none" fill="#000000" fill-rule="nonzero" /><path id="795" transform="matrix(1 0 0 -1 0 842)" d="M367.5 192.02L368.52 192.02L368.52 192.5L367.5 192.5z" stroke="none" fill="#000000" fill-rule="nonzero" /><path id="796" transform="matrix(1 0 0 -1 0 842)" d="M367.5 192.5L368.52 192.5L368.52 224.6L367.5 224.6z" stroke="none" fill="#000000" fill-rule="nonzero" /></g></g></g></g></svg>