<svg xmlns="http://www.w3.org/2000/svg" xmlns:xlink="http://www.w3.org/1999/xlink" id="body_35" preserveAspectRatio="xMinYMin meet" viewBox="0 0 793 1123"><defs><clipPath id="1"><path id="" clip-rule="evenodd" transform="matrix(1 0 0 1 0 0)" d="M0 842L0 0L0 0L595 0L595 0L595 842L595 842L0 842z" /></clipPath><clipPath id="2"><path id="" clip-rule="evenodd" transform="matrix(1 0 0 1 0 0)" d="M225.96 204.6L482.04 204.6L482.04 204.6L482.04 413.4L482.04 413.4L225.96 413.4z" /></clipPath><clipPath id="3"><path id="" clip-rule="evenodd" transform="matrix(1 0 0 1 0 0)" d="M224.94 184.02L537.36 184.02L537.36 184.02L537.36 433.5L537.36 433.5L224.94 433.5z" /></clipPath><clipPath id="4"><path id="" clip-rule="evenodd" transform="matrix(1 0 0 1 0 0)" d="M0 0.02001953L595.2 0.02001953L595.2 0.02001953L595.2 842L595.2 842L0 842z" /></clipPath><clipPath id="5"><path id="" clip-rule="evenodd" transform="matrix(1 0 0 1 0 0)" d="M224.94 184.02L537.36 184.02L537.36 184.02L537.36 433.5L537.36 433.5L224.94 433.5z" /></clipPath><clipPath id="6"><path id="" clip-rule="evenodd" transform="matrix(1 0 0 1 0 0)" d="M0 0.02001953L595.2 0.02001953L595.2 0.02001953L595.2 842L595.2 842L0 842z" /></clipPath></defs><g transform="matrix(1.333333 0 0 1.333333 0 0)"><g clip-path="url(#1)"><g clip-path="url(#2)"><g clip-path="url(#3)"><g clip-path="url(#4)"><g transform="matrix(0.4795505 0 0 0.48 225.96 204.6)"><g transform="matrix(1 0 0 1 0 0)"><image x="0" y="0" xlink:href="img_65.png" width="534" height="435" /></g></g></g></g></g><g clip-path="url(#5)"><g clip-path="url(#6)"><path id="640" transform="matrix(1 0 0 -1 0 842)" d="M485.4 548.24L485.88 548.24L485.88 549.26L485.4 549.26z" stroke="none" fill="#000000" fill-rule="nonzero" /><path id="641" transform="matrix(1 0 0 -1 0 842)" d="M436.92 548.24L485.4 548.24L485.4 549.26L436.92 549.26z" stroke="none" fill="#000000" fill-rule="nonzero" /><path id="642" transform="matrix(1 0 0 -1 0 842)" d="M487.98 521.84L488.46 521.84L488.46 522.86L487.98 522.86z" stroke="none" fill="#000000" fill-rule="nonzero" /><path id="643" transform="matrix(1 0 0 -1 0 842)" d="M433.5 521.84L487.98 521.84L487.98 522.86L433.5 522.86z" stroke="none" fill="#000000" fill-rule="nonzero" /><path id="656" transform="matrix(1 0 0 -1 0 842)" d="M324.48 421.94L325.5 421.94L325.5 422.42L324.48 422.42z" stroke="none" fill="#000000" fill-rule="nonzero" /><path id="657" transform="matrix(1 0 0 -1 0 842)" d="M324.48 422.42L325.5 422.42L325.5 454.7L324.48 454.7z" stroke="none" fill="#000000" fill-rule="nonzero" /><path id="658" transform="matrix(1 0 0 -1 0 842)" d="M309.06 643.58L310.08 643.58L310.08 644.06L309.06 644.06z" stroke="none" fill="#000000" fill-rule="nonzero" /><path id="659" transform="matrix(1 0 0 -1 0 842)" d="M310.86 506.54L311.88 506.54L311.88 507.02L310.86 507.02z" stroke="none" fill="#000000" fill-rule="nonzero" /><path id="660" transform="matrix(1 0 0 -1 0 842)" d="M310.08 643.58L309.06 643.58L310.86 507.02L311.88 507.02" stroke="none" fill="#000000" fill-rule="nonzero" /><path id="677" transform="matrix(1 0 0 -1 0 842)" d="M490.86 584.06L491.34 584.06L491.28 585.08L490.8 585.08" stroke="none" fill="#000000" fill-rule="nonzero" /><path id="678" transform="matrix(1 0 0 -1 0 842)" d="M464.04 582.68L463.56 582.68L463.5 583.7L463.98 583.7" stroke="none" fill="#000000" fill-rule="nonzero" /><path id="679" transform="matrix(1 0 0 -1 0 842)" d="M490.86 584.06L490.8 585.08L463.98 583.7L464.04 582.68" stroke="none" fill="#000000" fill-rule="nonzero" /><path id="687" transform="matrix(1 0 0 -1 0 842)" d="M449.34 648.92L449.22 649.4L448.2 649.16L448.32 648.68" stroke="none" fill="#000000" fill-rule="nonzero" /><path id="688" transform="matrix(1 0 0 -1 0 842)" d="M454.14 628.94L454.26 628.46L453.24 628.22L453.12 628.7" stroke="none" fill="#000000" fill-rule="nonzero" /><path id="689" transform="matrix(1 0 0 -1 0 842)" d="M449.34 648.92L448.32 648.68L453.12 628.7L454.14 628.94" stroke="none" fill="#000000" fill-rule="nonzero" /><path id="697" transform="matrix(1 0 0 -1 0 842)" d="M440.34 648.14L440.34 648.62L439.32 648.68L439.32 648.2" stroke="none" fill="#000000" fill-rule="nonzero" /><path id="698" transform="matrix(1 0 0 -1 0 842)" d="M438.54 627.74L438.54 627.26L437.52 627.32L437.52 627.8" stroke="none" fill="#000000" fill-rule="nonzero" /><path id="699" transform="matrix(1 0 0 -1 0 842)" d="M440.34 648.14L439.32 648.2L437.52 627.8L438.54 627.74" stroke="none" fill="#000000" fill-rule="nonzero" /></g></g></g></g></svg>