<svg xmlns="http://www.w3.org/2000/svg" xmlns:xlink="http://www.w3.org/1999/xlink" id="body_288" preserveAspectRatio="xMinYMin meet" viewBox="0 0 793 1123"><defs><clipPath id="1"><path id="" clip-rule="evenodd" transform="matrix(1 0 0 1 0 0)" d="M0 842L0 0L0 0L595 0L595 0L595 842L595 842L0 842z" /></clipPath><clipPath id="2"><path id="" clip-rule="evenodd" transform="matrix(1 0 0 1 0 0)" d="M124.56 500.88L202.98 500.88L202.98 500.88L202.98 515.28L202.98 515.28L124.56 515.28z" /></clipPath><clipPath id="3"><path id="" clip-rule="evenodd" transform="matrix(1 0 0 1 0 0)" d="M0 0.02001953L595.2 0.02001953L595.2 0.02001953L595.2 842L595.2 842L0 842z" /></clipPath><clipPath id="4"><path id="" clip-rule="evenodd" transform="matrix(1 0 0 1 0 0)" d="M124.98 501.36L198.36 501.36L198.36 501.36L198.36 515.16L198.36 515.16L124.98 515.16z" /></clipPath><clipPath id="5"><path id="" clip-rule="evenodd" transform="matrix(1 0 0 1 0 0)" d="M124.56 500.88L202.98 500.88L202.98 500.88L202.98 515.28L202.98 515.28L124.56 515.28z" /></clipPath><clipPath id="6"><path id="" clip-rule="evenodd" transform="matrix(1 0 0 1 0 0)" d="M0 0.02001953L595.2 0.02001953L595.2 0.02001953L595.2 842L595.2 842L0 842z" /></clipPath><clipPath id="7"><path id="" clip-rule="evenodd" transform="matrix(1 0 0 1 0 0)" d="M124.56 642.9L202.98 642.9L202.98 642.9L202.98 657.3L202.98 657.3L124.56 657.3z" /></clipPath><clipPath id="8"><path id="" clip-rule="evenodd" transform="matrix(1 0 0 1 0 0)" d="M0 0.02001953L595.2 0.02001953L595.2 0.02001953L595.2 842L595.2 842L0 842z" /></clipPath><clipPath id="9"><path id="" clip-rule="evenodd" transform="matrix(1 0 0 1 0 0)" d="M125.16 642.96L199.86 642.96L199.86 642.96L199.86 657L199.86 657L125.16 657z" /></clipPath><clipPath id="10"><path id="" clip-rule="evenodd" transform="matrix(1 0 0 1 0 0)" d="M124.56 642.9L202.98 642.9L202.98 642.9L202.98 657.3L202.98 657.3L124.56 657.3z" /></clipPath><clipPath id="11"><path id="" clip-rule="evenodd" transform="matrix(1 0 0 1 0 0)" d="M0 0.02001953L595.2 0.02001953L595.2 0.02001953L595.2 842L595.2 842L0 842z" /></clipPath></defs><g transform="matrix(1.333333 0 0 1.333333 0 0)"><g clip-path="url(#1)"><path id="336" transform="matrix(1 0 0 -1 0 842)" d="M44.94 600.02L158.34 600.02L158.34 618.02L44.94 618.02z" stroke="none" fill="#C5E0F7" fill-rule="nonzero" /><path id="341" transform="matrix(1 0 0 -1 0 842)" d="M158.34 600.02L383.46 600.02L383.46 618.02L158.34 618.02z" stroke="none" fill="#C5E0F7" fill-rule="nonzero" /><path id="344" transform="matrix(1 0 0 -1 0 842)" d="M383.46 618.02L559.86 618.02L559.86 600.02L383.46 600.02" stroke="none" fill="#C5E0F7" fill-rule="nonzero" /><path id="616" transform="matrix(1 0 0 -1 0 842)" d="M44.94 565.76L559.86 565.76L559.86 566.24L44.94 566.24z" stroke="none" fill="#3D96E3" fill-rule="nonzero" /><path id="617" transform="matrix(1 0 0 -1 0 842)" d="M44.94 531.8L559.86 531.8L559.86 532.28L44.94 532.28z" stroke="none" fill="#3D96E3" fill-rule="nonzero" /><path id="618" transform="matrix(1 0 0 -1 0 842)" d="M44.94 497.84L559.86 497.84L559.86 498.32L44.94 498.32z" stroke="none" fill="#3D96E3" fill-rule="nonzero" /><path id="619" transform="matrix(1 0 0 -1 0 842)" d="M44.94 477.8L559.86 477.8L559.86 478.28L44.94 478.28z" stroke="none" fill="#3D96E3" fill-rule="nonzero" /><path id="620" transform="matrix(1 0 0 -1 0 842)" d="M44.94 443.3L559.86 443.3L559.86 444.8L44.94 444.8z" stroke="none" fill="#3D96E3" fill-rule="nonzero" /><g clip-path="url(#2)"><g clip-path="url(#3)"><path id="621" transform="matrix(1 0 0 -1 0 842)" d="M124.56 326.72L202.98 326.72L202.98 341.12L124.56 341.12z" stroke="none" fill="#FFFFFF" fill-rule="nonzero" /></g></g><g clip-path="url(#4)"><g clip-path="url(#5)"><g clip-path="url(#6)"><g transform="matrix(0.7265346 0 0 0.7263158 124.98 501.36)"><g transform="matrix(1 0 0 1 0 0)"><image x="0" y="0" xlink:href="img_09.png" width="101" height="19" /></g></g></g></g></g><path id="623" transform="matrix(1 0 0 -1 0 842)" d="M224.94 345.08L558 345.08L558 297.08L224.94 297.08" stroke="none" fill="#ECF5FC" fill-rule="nonzero" /><g clip-path="url(#7)"><g clip-path="url(#8)"><path id="687" transform="matrix(1 0 0 -1 0 842)" d="M124.56 184.7L202.98 184.7L202.98 199.1L124.56 199.1z" stroke="none" fill="#FFFFFF" fill-rule="nonzero" /></g></g><g clip-path="url(#9)"><g clip-path="url(#10)"><g clip-path="url(#11)"><g transform="matrix(0.7396039 0 0 0.7389474 125.16 642.96)"><g transform="matrix(1 0 0 1 0 0)"><image x="0" y="0" xlink:href="img_250.png" width="101" height="19" /></g></g></g></g></g><path id="689" transform="matrix(1 0 0 -1 0 842)" d="M224.94 203.12L558 203.12L558 113.12L224.94 113.12" stroke="none" fill="#ECF5FC" fill-rule="nonzero" /></g></g></svg>