<svg xmlns="http://www.w3.org/2000/svg" xmlns:xlink="http://www.w3.org/1999/xlink" id="body_251" preserveAspectRatio="xMinYMin meet" viewBox="0 0 793 1123"><defs><clipPath id="1"><path id="" clip-rule="evenodd" transform="matrix(1 0 0 1 0 0)" d="M0 842L0 0L0 0L595 0L595 0L595 842L595 842L0 842z" /></clipPath><clipPath id="2"><path id="" clip-rule="evenodd" transform="matrix(1 0 0 1 0 0)" d="M216.96 115.02L316.08 115.02L316.08 115.02L316.08 253.98L316.08 253.98L216.96 253.98z" /></clipPath><clipPath id="3"><path id="" clip-rule="evenodd" transform="matrix(1 0 0 1 0 0)" d="M215.94 114L463.38 114L463.38 114L463.38 255.78L463.38 255.78L215.94 255.78z" /></clipPath><clipPath id="4"><path id="" clip-rule="evenodd" transform="matrix(1 0 0 1 0 0)" d="M0 0.02001953L595.2 0.02001953L595.2 0.02001953L595.2 842L595.2 842L0 842z" /></clipPath><clipPath id="5"><path id="" clip-rule="evenodd" transform="matrix(1 0 0 1 0 0)" d="M361.92 115.02L462.36 115.02L462.36 115.02L462.36 254.82L462.36 254.82L361.92 254.82z" /></clipPath><clipPath id="6"><path id="" clip-rule="evenodd" transform="matrix(1 0 0 1 0 0)" d="M215.94 114L463.38 114L463.38 114L463.38 255.78L463.38 255.78L215.94 255.78z" /></clipPath><clipPath id="7"><path id="" clip-rule="evenodd" transform="matrix(1 0 0 1 0 0)" d="M0 0.02001953L595.2 0.02001953L595.2 0.02001953L595.2 842L595.2 842L0 842z" /></clipPath><clipPath id="8"><path id="" clip-rule="evenodd" transform="matrix(1 0 0 1 0 0)" d="M215.94 114L463.38 114L463.38 114L463.38 255.78L463.38 255.78L215.94 255.78z" /></clipPath><clipPath id="9"><path id="" clip-rule="evenodd" transform="matrix(1 0 0 1 0 0)" d="M0 0.02001953L595.2 0.02001953L595.2 0.02001953L595.2 842L595.2 842L0 842z" /></clipPath><clipPath id="10"><path id="" clip-rule="evenodd" transform="matrix(1 0 0 1 0 0)" d="M216.96 365.76L325.14 365.76L325.14 365.76L325.14 500.94L325.14 500.94L216.96 500.94z" /></clipPath><clipPath id="11"><path id="" clip-rule="evenodd" transform="matrix(1 0 0 1 0 0)" d="M215.94 364.8L487.5 364.8L487.5 364.8L487.5 501.96L487.5 501.96L215.94 501.96z" /></clipPath><clipPath id="12"><path id="" clip-rule="evenodd" transform="matrix(1 0 0 1 0 0)" d="M0 0.02001953L595.2 0.02001953L595.2 0.02001953L595.2 842L595.2 842L0 842z" /></clipPath><clipPath id="13"><path id="" clip-rule="evenodd" transform="matrix(1 0 0 1 0 0)" d="M362.1 365.76L486.48 365.76L486.48 365.76L486.48 499.08L486.48 499.08L362.1 499.08z" /></clipPath><clipPath id="14"><path id="" clip-rule="evenodd" transform="matrix(1 0 0 1 0 0)" d="M215.94 364.8L487.5 364.8L487.5 364.8L487.5 501.96L487.5 501.96L215.94 501.96z" /></clipPath><clipPath id="15"><path id="" clip-rule="evenodd" transform="matrix(1 0 0 1 0 0)" d="M0 0.02001953L595.2 0.02001953L595.2 0.02001953L595.2 842L595.2 842L0 842z" /></clipPath><clipPath id="16"><path id="" clip-rule="evenodd" transform="matrix(1 0 0 1 0 0)" d="M215.94 364.8L487.5 364.8L487.5 364.8L487.5 501.96L487.5 501.96L215.94 501.96z" /></clipPath><clipPath id="17"><path id="" clip-rule="evenodd" transform="matrix(1 0 0 1 0 0)" d="M0 0.02001953L595.2 0.02001953L595.2 0.02001953L595.2 842L595.2 842L0 842z" /></clipPath><clipPath id="18"><path id="" clip-rule="evenodd" transform="matrix(1 0 0 1 0 0)" d="M216.96 587.94L324.6 587.94L324.6 587.94L324.6 701.16L324.6 701.16L216.96 701.16z" /></clipPath><clipPath id="19"><path id="" clip-rule="evenodd" transform="matrix(1 0 0 1 0 0)" d="M215.94 586.92L474.78 586.92L474.78 586.92L474.78 702.18L474.78 702.18L215.94 702.18z" /></clipPath><clipPath id="20"><path id="" clip-rule="evenodd" transform="matrix(1 0 0 1 0 0)" d="M0 0.02001953L595.2 0.02001953L595.2 0.02001953L595.2 842L595.2 842L0 842z" /></clipPath><clipPath id="21"><path id="" clip-rule="evenodd" transform="matrix(1 0 0 1 0 0)" d="M365.76 587.94L473.82 587.94L473.82 587.94L473.82 699.9L473.82 699.9L365.76 699.9z" /></clipPath><clipPath id="22"><path id="" clip-rule="evenodd" transform="matrix(1 0 0 1 0 0)" d="M215.94 586.92L474.78 586.92L474.78 586.92L474.78 702.18L474.78 702.18L215.94 702.18z" /></clipPath><clipPath id="23"><path id="" clip-rule="evenodd" transform="matrix(1 0 0 1 0 0)" d="M0 0.02001953L595.2 0.02001953L595.2 0.02001953L595.2 842L595.2 842L0 842z" /></clipPath><clipPath id="24"><path id="" clip-rule="evenodd" transform="matrix(1 0 0 1 0 0)" d="M215.94 586.92L474.78 586.92L474.78 586.92L474.78 702.18L474.78 702.18L215.94 702.18z" /></clipPath><clipPath id="25"><path id="" clip-rule="evenodd" transform="matrix(1 0 0 1 0 0)" d="M0 0.02001953L595.2 0.02001953L595.2 0.02001953L595.2 842L595.2 842L0 842z" /></clipPath></defs><g transform="matrix(1.333333 0 0 1.333333 0 0)"><g clip-path="url(#1)"><g clip-path="url(#2)"><g clip-path="url(#3)"><g clip-path="url(#4)"><g transform="matrix(0.4788406 0 0 0.4791724 216.96 115.02)"><g transform="matrix(1 0 0 1 0 0)"><image x="0" y="0" xlink:href="img_735.png" width="207" height="290" /></g></g></g></g></g><g clip-path="url(#5)"><g clip-path="url(#6)"><g clip-path="url(#7)"><g transform="matrix(0.4782857 0 0 0.4787671 361.92 115.02)"><g transform="matrix(1 0 0 1 0 0)"><image x="0" y="0" xlink:href="img_736.png" width="210" height="292" /></g></g></g></g></g><g clip-path="url(#8)"><g clip-path="url(#9)"><path id="265" transform="matrix(1 0 0 -1 0 842)" d="M350.16 658.7L350.16 658.94L350.16 658.94L350.1 659.12L350.1 659.12L349.98 659.3L349.98 659.3L349.74 659.54L349.74 659.54L349.56 659.66L349.56 659.66L349.38 659.72L349.38 659.72L348.96 659.72L348.96 659.72L348.78 659.66L348.78 659.66L348.6 659.54L348.6 659.54L348.36 659.3L348.36 659.3L348.24 659.12L348.24 659.12L348.18 658.94L348.18 658.94L348.18 658.52L348.18 658.52L348.24 658.34L348.24 658.34L348.36 658.16L348.36 658.16L348.48 658.04L348.48 658.04L348.6 657.92L348.6 657.92L348.78 657.8L348.78 657.8L348.96 657.74L348.96 657.74L349.38 657.74L349.38 657.74L349.56 657.8L349.56 657.8L349.74 657.92L349.74 657.92L349.86 658.04L349.86 658.04L349.98 658.16L349.98 658.16L350.1 658.34L350.1 658.34L350.16 658.52L350.16 658.52L350.16 658.7" stroke="none" fill="#000000" fill-rule="evenodd" /><path id="266" transform="matrix(1 0 0 -1 0 842)" d="M349.2 658.7L349.2 663.26L349.98 662.78L356.28 659.12L357.06 658.7L349.92 654.62L349.2 654.2L349.2 655.1L349.44 655.52L355.74 659.12L356.22 658.22L355.74 658.22L349.44 661.88L349.98 662.78L350.22 662.36L350.22 658.7" stroke="none" fill="#000000" fill-rule="nonzero" /><path id="267" transform="matrix(1 0 0 -1 0 842)" d="M349.2 655.1L350.22 655.1L350.22 658.7L349.2 658.7z" stroke="none" fill="#000000" fill-rule="nonzero" /><path id="268" transform="matrix(1 0 0 -1 0 842)" d="M349.68 658.7L349.68 662.36L349.68 662.36L355.98 658.7L355.98 658.7L349.68 655.1" stroke="none" fill="#000000" fill-rule="evenodd" /><path id="269" transform="matrix(1 0 0 -1 0 842)" d="M320.76 657.68L321.72 657.68L321.72 659.66L320.76 659.66z" stroke="none" fill="#000000" fill-rule="nonzero" /><path id="270" transform="matrix(1 0 0 -1 0 842)" d="M321.72 657.68L350.16 657.68L350.16 659.66L321.72 659.66z" stroke="none" fill="#000000" fill-rule="nonzero" /></g></g><g clip-path="url(#10)"><g clip-path="url(#11)"><g clip-path="url(#12)"><g transform="matrix(0.4786726 0 0 0.4793617 216.96 365.76)"><g transform="matrix(1 0 0 1 0 0)"><image x="0" y="0" xlink:href="img_737.png" width="226" height="282" /></g></g></g></g></g><g clip-path="url(#13)"><g clip-path="url(#14)"><g clip-path="url(#15)"><g transform="matrix(0.4783846 0 0 0.4795684 362.1 365.76)"><g transform="matrix(1 0 0 1 0 0)"><image x="0" y="0" xlink:href="img_738.png" width="260" height="278" /></g></g></g></g></g><g clip-path="url(#16)"><g clip-path="url(#17)"><path id="273" transform="matrix(1 0 0 -1 0 842)" d="M353.16 406.22L353.16 406.46L353.16 406.46L353.1 406.64L353.1 406.64L352.98 406.82L352.98 406.82L352.74 407.06L352.74 407.06L352.56 407.18L352.56 407.18L352.38 407.24L352.38 407.24L351.96 407.24L351.96 407.24L351.78 407.18L351.78 407.18L351.6 407.06L351.6 407.06L351.36 406.82L351.36 406.82L351.24 406.64L351.24 406.64L351.18 406.46L351.18 406.46L351.18 406.04L351.18 406.04L351.24 405.86L351.24 405.86L351.36 405.68L351.36 405.68L351.6 405.44L351.6 405.44L351.78 405.32L351.78 405.32L351.96 405.26L351.96 405.26L352.38 405.26L352.38 405.26L352.56 405.32L352.56 405.32L352.74 405.44L352.74 405.44L352.98 405.68L352.98 405.68L353.1 405.86L353.1 405.86L353.16 406.04L353.16 406.04L353.16 406.22" stroke="none" fill="#000000" fill-rule="evenodd" /><path id="274" transform="matrix(1 0 0 -1 0 842)" d="M352.2 406.22L352.2 410.78L352.98 410.3L359.28 406.64L360.06 406.22L352.92 402.14L352.2 401.72L352.2 402.62L352.44 403.04L358.74 406.64L359.22 405.74L358.74 405.74L352.44 409.4L352.98 410.3L353.22 409.88L353.22 406.22" stroke="none" fill="#000000" fill-rule="nonzero" /><path id="275" transform="matrix(1 0 0 -1 0 842)" d="M352.2 402.62L353.22 402.62L353.22 406.22L352.2 406.22z" stroke="none" fill="#000000" fill-rule="nonzero" /><path id="276" transform="matrix(1 0 0 -1 0 842)" d="M352.68 406.22L352.68 409.88L352.68 409.88L358.98 406.22L358.98 406.22L352.68 402.62" stroke="none" fill="#000000" fill-rule="evenodd" /><path id="277" transform="matrix(1 0 0 -1 0 842)" d="M328.26 405.2L329.22 405.2L329.22 407.18L328.26 407.18z" stroke="none" fill="#000000" fill-rule="nonzero" /><path id="278" transform="matrix(1 0 0 -1 0 842)" d="M329.22 405.2L353.16 405.2L353.16 407.18L329.22 407.18z" stroke="none" fill="#000000" fill-rule="nonzero" /></g></g><g clip-path="url(#18)"><g clip-path="url(#19)"><g clip-path="url(#20)"><g transform="matrix(0.4784 0 0 0.4797458 216.96 587.94)"><g transform="matrix(1 0 0 1 0 0)"><image x="0" y="0" xlink:href="img_739.png" width="225" height="236" /></g></g></g></g></g><g clip-path="url(#21)"><g clip-path="url(#22)"><g clip-path="url(#23)"><g transform="matrix(0.4802667 0 0 0.4784616 365.76 587.94)"><g transform="matrix(1 0 0 1 0 0)"><image x="0" y="0" xlink:href="img_740.png" width="225" height="234" /></g></g></g></g></g><g clip-path="url(#24)"><g clip-path="url(#25)"><path id="281" transform="matrix(1 0 0 -1 0 842)" d="M356.16 199.76L356.16 199.94L356.16 199.94L356.1 200.12L356.1 200.12L355.86 200.48L355.86 200.48L355.74 200.6L355.74 200.6L355.2 200.78L355.2 200.78L354.96 200.72L354.96 200.72L354.6 200.6L354.6 200.6L354.48 200.48L354.48 200.48L354.24 200.12L354.24 200.12L354.18 199.94L354.18 199.94L354.18 199.58L354.18 199.58L354.24 199.34L354.24 199.34L354.36 199.22L354.36 199.22L354.48 199.04L354.48 199.04L354.6 198.92L354.6 198.92L354.96 198.8L354.96 198.8L355.2 198.74L355.2 198.74L355.74 198.92L355.74 198.92L355.86 199.04L355.86 199.04L355.98 199.22L355.98 199.22L356.1 199.34L356.1 199.34L356.16 199.58L356.16 199.58L356.16 199.76" stroke="none" fill="#000000" fill-rule="evenodd" /><path id="282" transform="matrix(1 0 0 -1 0 842)" d="M355.2 199.76L355.2 204.2L355.92 203.78L362.22 200.18L363 199.7L362.28 199.28L355.98 195.62L355.2 195.14L355.2 196.1L355.44 196.52L361.74 200.18L362.28 199.28L361.74 199.28L355.44 202.88L355.92 203.78L356.22 203.36L356.22 199.76" stroke="none" fill="#000000" fill-rule="nonzero" /><path id="283" transform="matrix(1 0 0 -1 0 842)" d="M355.2 196.1L356.22 196.1L356.22 199.76L355.2 199.76z" stroke="none" fill="#000000" fill-rule="nonzero" /><path id="284" transform="matrix(1 0 0 -1 0 842)" d="M355.68 199.76L355.68 203.36L355.68 203.36L361.98 199.76L361.98 199.76L355.68 196.1" stroke="none" fill="#000000" fill-rule="evenodd" /><path id="285" transform="matrix(1 0 0 -1 0 842)" d="M327.48 198.74L328.44 198.74L328.44 200.72L327.48 200.72z" stroke="none" fill="#000000" fill-rule="nonzero" /><path id="286" transform="matrix(1 0 0 -1 0 842)" d="M328.44 198.74L356.16 198.74L356.16 200.72L328.44 200.72z" stroke="none" fill="#000000" fill-rule="nonzero" /></g></g></g></g></svg>