<svg xmlns="http://www.w3.org/2000/svg" xmlns:xlink="http://www.w3.org/1999/xlink" id="body_216" preserveAspectRatio="xMinYMin meet" viewBox="0 0 793 1123"><defs><clipPath id="1"><path id="" clip-rule="evenodd" transform="matrix(1 0 0 1 0 0)" d="M0 842L0 0L0 0L595 0L595 0L595 842L595 842L0 842z" /></clipPath><clipPath id="2"><path id="" clip-rule="evenodd" transform="matrix(1 0 0 1 0 0)" d="M225.96 264.6L437.16 264.6L437.16 264.6L437.16 457.08L437.16 457.08L225.96 457.08z" /></clipPath><clipPath id="3"><path id="" clip-rule="evenodd" transform="matrix(1 0 0 1 0 0)" d="M224.94 246.96L438.18 246.96L438.18 246.96L438.18 458.1L438.18 458.1L224.94 458.1z" /></clipPath><clipPath id="4"><path id="" clip-rule="evenodd" transform="matrix(1 0 0 1 0 0)" d="M0 0.02001953L595.2 0.02001953L595.2 0.02001953L595.2 842L595.2 842L0 842z" /></clipPath><clipPath id="5"><path id="" clip-rule="evenodd" transform="matrix(1 0 0 1 0 0)" d="M224.94 246.96L438.18 246.96L438.18 246.96L438.18 458.1L438.18 458.1L224.94 458.1z" /></clipPath><clipPath id="6"><path id="" clip-rule="evenodd" transform="matrix(1 0 0 1 0 0)" d="M0 0.02001953L595.2 0.02001953L595.2 0.02001953L595.2 842L595.2 842L0 842z" /></clipPath><clipPath id="7"><path id="" clip-rule="evenodd" transform="matrix(1 0 0 1 0 0)" d="M225.96 544.08L477.06 544.08L477.06 544.08L477.06 738.6L477.06 738.6L225.96 738.6z" /></clipPath><clipPath id="8"><path id="" clip-rule="evenodd" transform="matrix(1 0 0 1 0 0)" d="M224.94 543.06L478.08 543.06L478.08 543.06L478.08 739.56L478.08 739.56L224.94 739.56z" /></clipPath><clipPath id="9"><path id="" clip-rule="evenodd" transform="matrix(1 0 0 1 0 0)" d="M0 0.02001953L595.2 0.02001953L595.2 0.02001953L595.2 842L595.2 842L0 842z" /></clipPath><clipPath id="10"><path id="" clip-rule="evenodd" transform="matrix(1 0 0 1 0 0)" d="M224.94 543.06L478.08 543.06L478.08 543.06L478.08 739.56L478.08 739.56L224.94 739.56z" /></clipPath><clipPath id="11"><path id="" clip-rule="evenodd" transform="matrix(1 0 0 1 0 0)" d="M0 0.02001953L595.2 0.02001953L595.2 0.02001953L595.2 842L595.2 842L0 842z" /></clipPath></defs><g transform="matrix(1.333333 0 0 1.333333 0 0)"><g clip-path="url(#1)"><path id="217" transform="matrix(1 0 0 -1 0 842)" d="M242.94 645.02L558 645.02L558 611L242.94 611" stroke="none" fill="#ECF5FC" fill-rule="nonzero" /><g clip-path="url(#2)"><g clip-path="url(#3)"><g clip-path="url(#4)"><g transform="matrix(0.48 0 0 0.48 225.96 264.6)"><g transform="matrix(1 0 0 1 0 0)"><image x="0" y="0" xlink:href="img_581.png" width="440" height="401" /></g></g></g></g></g><g clip-path="url(#5)"><g clip-path="url(#6)"><path id="305" transform="matrix(1 0 0 -1 0 842)" d="M251.28 582.08L251.22 582.56L250.2 582.38L250.26 581.9" stroke="none" fill="#000000" fill-rule="nonzero" /><path id="306" transform="matrix(1 0 0 -1 0 842)" d="M263.28 511.04L263.34 510.56L262.32 510.38L262.26 510.86" stroke="none" fill="#000000" fill-rule="nonzero" /><path id="307" transform="matrix(1 0 0 -1 0 842)" d="M251.28 582.08L250.26 581.9L262.26 510.86L263.28 511.04" stroke="none" fill="#000000" fill-rule="nonzero" /><path id="308" transform="matrix(1 0 0 -1 0 842)" d="M327.66 584.42L328.68 584.42L328.68 584.9L327.66 584.9z" stroke="none" fill="#000000" fill-rule="nonzero" /><path id="309" transform="matrix(1 0 0 -1 0 842)" d="M328.5 516.74L329.52 516.74L329.52 517.22L328.5 517.22z" stroke="none" fill="#000000" fill-rule="nonzero" /><path id="310" transform="matrix(1 0 0 -1 0 842)" d="M328.68 584.42L327.66 584.42L328.5 517.22L329.52 517.22" stroke="none" fill="#000000" fill-rule="nonzero" /></g></g><g clip-path="url(#7)"><g clip-path="url(#8)"><g clip-path="url(#9)"><g transform="matrix(0.4791985 0 0 0.4791133 225.96 544.08)"><g transform="matrix(1 0 0 1 0 0)"><image x="0" y="0" xlink:href="img_582.png" width="524" height="406" /></g></g></g></g></g><g clip-path="url(#10)"><g clip-path="url(#11)"><path id="317" transform="matrix(1 0 0 -1 0 842)" d="M414.72 268.64L459.54 268.64L459.54 269.66L414.72 269.66z" stroke="none" fill="#000000" fill-rule="nonzero" /><path id="318" transform="matrix(1 0 0 -1 0 842)" d="M458.52 239.42L459.54 239.42L459.54 269.18L458.52 269.18z" stroke="none" fill="#000000" fill-rule="nonzero" /><path id="319" transform="matrix(1 0 0 -1 0 842)" d="M414.24 239.42L459 239.42L459 240.44L414.24 240.44z" stroke="none" fill="#000000" fill-rule="nonzero" /><path id="320" transform="matrix(1 0 0 -1 0 842)" d="M414.24 239.96L415.26 239.96L415.26 269.66L414.24 269.66z" stroke="none" fill="#000000" fill-rule="nonzero" /><path id="321" transform="matrix(1 0 0 -1 0 842)" d="M337.44 295.64L403.98 295.64L403.98 296.66L337.44 296.66z" stroke="none" fill="#000000" fill-rule="nonzero" /><path id="322" transform="matrix(1 0 0 -1 0 842)" d="M402.96 250.64L403.98 250.64L403.98 296.18L402.96 296.18z" stroke="none" fill="#000000" fill-rule="nonzero" /><path id="323" transform="matrix(1 0 0 -1 0 842)" d="M336.96 250.64L403.44 250.64L403.44 251.66L336.96 251.66z" stroke="none" fill="#000000" fill-rule="nonzero" /><path id="324" transform="matrix(1 0 0 -1 0 842)" d="M336.96 251.18L337.98 251.18L337.98 296.66L336.96 296.66z" stroke="none" fill="#000000" fill-rule="nonzero" /><path id="325" transform="matrix(1 0 0 -1 0 842)" d="M420.72 225.2L453.72 225.2L453.72 236.42L420.72 236.42z" stroke="none" fill="#FFFFFF" fill-rule="nonzero" /><path id="329" transform="matrix(1 0 0 -1 0 842)" d="M336.48 276.14L336.96 276.14L336.96 277.16L336.48 277.16z" stroke="none" fill="#000000" fill-rule="nonzero" /><path id="330" transform="matrix(1 0 0 -1 0 842)" d="M312 276.14L336.48 276.14L336.48 277.16L312 277.16z" stroke="none" fill="#000000" fill-rule="nonzero" /><path id="331" transform="matrix(1 0 0 -1 0 842)" d="M242.22 271.22L312.72 271.22L312.72 283.22L242.22 283.22z" stroke="none" fill="#FFFFFF" fill-rule="nonzero" /><path id="338" transform="matrix(1 0 0 -1 0 842)" d="M327.72 140.42L328.2 140.42L328.2 141.44L327.72 141.44z" stroke="none" fill="#000000" fill-rule="nonzero" /><path id="339" transform="matrix(1 0 0 -1 0 842)" d="M293.46 140.42L327.72 140.42L327.72 141.44L293.46 141.44z" stroke="none" fill="#000000" fill-rule="nonzero" /><path id="340" transform="matrix(1 0 0 -1 0 842)" d="M248.34 126.92L297.24 126.92L297.24 150.44L248.34 150.44z" stroke="none" fill="#FFFFFF" fill-rule="nonzero" /><path id="347" transform="matrix(1 0 0 -1 0 842)" d="M267.48 213.68L268.5 213.68L268.5 214.16L267.48 214.16z" stroke="none" fill="#000000" fill-rule="nonzero" /><path id="348" transform="matrix(1 0 0 -1 0 842)" d="M267.48 214.16L268.5 214.16L268.5 239.42L267.48 239.42z" stroke="none" fill="#000000" fill-rule="nonzero" /><path id="349" transform="matrix(1 0 0 -1 0 842)" d="M243.48 241.7L292.98 241.7L292.98 254.42L243.48 254.42z" stroke="none" fill="#FFFFFF" fill-rule="nonzero" /></g></g></g></g></svg>