<svg xmlns="http://www.w3.org/2000/svg" xmlns:xlink="http://www.w3.org/1999/xlink" id="body_168" preserveAspectRatio="xMinYMin meet" viewBox="0 0 793 1123"><defs><clipPath id="1"><path id="" clip-rule="evenodd" transform="matrix(1 0 0 1 0 0)" d="M0 842L0 0L0 0L595 0L595 0L595 842L595 842L0 842z" /></clipPath><clipPath id="2"><path id="" clip-rule="evenodd" transform="matrix(1 0 0 1 0 0)" d="M216.96 77.03998L507.48 77.03998L507.48 77.03998L507.48 433.62L507.48 433.62L216.96 433.62z" /></clipPath><clipPath id="3"><path id="" clip-rule="evenodd" transform="matrix(1 0 0 1 0 0)" d="M215.94 76.02002L508.5 76.02002L508.5 76.02002L508.5 434.64L508.5 434.64L215.94 434.64z" /></clipPath><clipPath id="4"><path id="" clip-rule="evenodd" transform="matrix(1 0 0 1 0 0)" d="M0 0.02001953L595.2 0.02001953L595.2 0.02001953L595.2 842L595.2 842L0 842z" /></clipPath><clipPath id="5"><path id="" clip-rule="evenodd" transform="matrix(1 0 0 1 0 0)" d="M215.94 547.62L546.18 547.62L546.18 547.62L546.18 680.1L546.18 680.1L215.94 680.1z" /></clipPath><clipPath id="6"><path id="" clip-rule="evenodd" transform="matrix(1 0 0 1 0 0)" d="M0 0.02001953L595.2 0.02001953L595.2 0.02001953L595.2 842L595.2 842L0 842z" /></clipPath><clipPath id="7"><path id="" clip-rule="evenodd" transform="matrix(1 0 0 1 0 0)" d="M216.96 548.58L545.16 548.58L545.16 548.58L545.16 678.66L545.16 678.66L216.96 678.66z" /></clipPath><clipPath id="8"><path id="" clip-rule="evenodd" transform="matrix(1 0 0 1 0 0)" d="M215.94 547.62L546.18 547.62L546.18 547.62L546.18 680.1L546.18 680.1L215.94 680.1z" /></clipPath><clipPath id="9"><path id="" clip-rule="evenodd" transform="matrix(1 0 0 1 0 0)" d="M0 0.02001953L595.2 0.02001953L595.2 0.02001953L595.2 842L595.2 842L0 842z" /></clipPath><clipPath id="10"><path id="" clip-rule="evenodd" transform="matrix(1 0 0 1 0 0)" d="M215.94 547.62L546.18 547.62L546.18 547.62L546.18 680.1L546.18 680.1L215.94 680.1z" /></clipPath><clipPath id="11"><path id="" clip-rule="evenodd" transform="matrix(1 0 0 1 0 0)" d="M0 0.02001953L595.2 0.02001953L595.2 0.02001953L595.2 842L595.2 842L0 842z" /></clipPath></defs><g transform="matrix(1.333333 0 0 1.333333 0 0)"><g clip-path="url(#1)"><g clip-path="url(#2)"><g clip-path="url(#3)"><g clip-path="url(#4)"><g transform="matrix(0.4794059 0 0 0.4799192 216.96 77.04004)"><g transform="matrix(1 0 0 1 0 0)"><image x="0" y="0" xlink:href="img_453.png" width="606" height="743" /></g></g></g></g></g><g clip-path="url(#5)"><g clip-path="url(#6)"><path id="219" transform="matrix(1 0 0 -1 0 842)" d="M325.86 217.82L382.32 217.82L382.32 219.32L325.86 219.32z" stroke="none" fill="#FFFFFF" fill-rule="nonzero" /><path id="220" transform="matrix(1 0 0 -1 0 842)" d="M380.82 162.14L382.32 162.14L382.32 218.6L380.82 218.6z" stroke="none" fill="#FFFFFF" fill-rule="nonzero" /><path id="221" transform="matrix(1 0 0 -1 0 842)" d="M325.14 162.14L381.54 162.14L381.54 163.64L325.14 163.64z" stroke="none" fill="#FFFFFF" fill-rule="nonzero" /><path id="222" transform="matrix(1 0 0 -1 0 842)" d="M325.14 162.92L326.64 162.92L326.64 219.32L325.14 219.32z" stroke="none" fill="#FFFFFF" fill-rule="nonzero" /></g></g><g clip-path="url(#7)"><g clip-path="url(#8)"><g clip-path="url(#9)"><g transform="matrix(0.48 0 0 0.48 216.96 548.58)"><g transform="matrix(1 0 0 1 0 0)"><image x="0" y="0" xlink:href="img_379.png" width="684" height="271" /></g></g></g></g></g><g clip-path="url(#10)"><g clip-path="url(#11)"><path id="224" transform="matrix(1 0 0 -1 0 842)" d="M234.54 219.86L275.64 219.86L275.64 222.86L234.54 222.86z" stroke="none" fill="#FFFFFF" fill-rule="nonzero" /><path id="225" transform="matrix(1 0 0 -1 0 842)" d="M272.64 190.46L275.64 190.46L275.64 221.36L272.64 221.36z" stroke="none" fill="#FFFFFF" fill-rule="nonzero" /><path id="226" transform="matrix(1 0 0 -1 0 842)" d="M233.04 190.46L274.14 190.46L274.14 193.46L233.04 193.46z" stroke="none" fill="#FFFFFF" fill-rule="nonzero" /><path id="227" transform="matrix(1 0 0 -1 0 842)" d="M233.04 191.96L236.04 191.96L236.04 222.86L233.04 222.86z" stroke="none" fill="#FFFFFF" fill-rule="nonzero" /></g></g></g></g></svg>