<svg xmlns="http://www.w3.org/2000/svg" xmlns:xlink="http://www.w3.org/1999/xlink" id="body_102" preserveAspectRatio="xMinYMin meet" viewBox="0 0 793 1123"><defs><clipPath id="1"><path id="" clip-rule="evenodd" transform="matrix(1 0 0 1 0 0)" d="M0 842L0 0L0 0L595 0L595 0L595 842L595 842L0 842z" /></clipPath><clipPath id="2"><path id="" clip-rule="evenodd" transform="matrix(1 0 0 1 0 0)" d="M180.36 78.06L193.98 78.06L193.98 78.06L193.98 92.46002L193.98 92.46002L180.36 92.46002z" /></clipPath><clipPath id="3"><path id="" clip-rule="evenodd" transform="matrix(1 0 0 1 0 0)" d="M0 0.02001953L595.2 0.02001953L595.2 0.02001953L595.2 842L595.2 842L0 842z" /></clipPath><clipPath id="4"><path id="" clip-rule="evenodd" transform="matrix(1 0 0 1 0 0)" d="M180.36 79.26001L194.34 79.26001L194.34 79.26001L194.34 91.26001L194.34 91.26001L180.36 91.26001z" /></clipPath><clipPath id="5"><path id="" clip-rule="evenodd" transform="matrix(1 0 0 1 0 0)" d="M180.36 78.06L193.98 78.06L193.98 78.06L193.98 92.46002L193.98 92.46002L180.36 92.46002z" /></clipPath><clipPath id="6"><path id="" clip-rule="evenodd" transform="matrix(1 0 0 1 0 0)" d="M0 0.02001953L595.2 0.02001953L595.2 0.02001953L595.2 842L595.2 842L0 842z" /></clipPath></defs><g transform="matrix(1.333333 0 0 1.333333 0 0)"><g clip-path="url(#1)"><path id="55" transform="matrix(1 0 0 -1 0 842)" d="M176.34 681.98L197.94 681.98L197.94 767.96L176.34 767.96z" stroke="none" fill="#FFFFFF" fill-rule="nonzero" /><g clip-path="url(#2)"><g clip-path="url(#3)"><path id="56" transform="matrix(1 0 0 -1 0 842)" d="M180.36 749.54L193.98 749.54L193.98 763.94L180.36 763.94z" stroke="none" fill="#FFFFFF" fill-rule="nonzero" /></g></g><g clip-path="url(#4)"><g clip-path="url(#5)"><g clip-path="url(#6)"><path id="57" transform="matrix(1 0 0 -1 0 842)" d="M187.678 761.668L193.483 751.674C 193.538 751.58 193.538 751.471 193.484 751.377C 193.429 751.282 193.336 751.228 193.226 751.228L193.226 751.228L181.616 751.228C 181.507 751.228 181.413 751.282 181.358 751.376C 181.304 751.471 181.304 751.58 181.359 751.674L181.359 751.674L187.164 761.668C 187.219 761.762 187.312 761.816 187.421 761.816C 187.53 761.816 187.623 761.762 187.678 761.668z" stroke="#000000" stroke-width="0.5" fill="#FFFF00" fill-rule="evenodd" /><path id="58" transform="matrix(1 0 0 -1 0 842)" d="M187.429 753.819C 187.661 753.819 187.86 753.737 188.024 753.572C 188.189 753.407 188.272 753.206 188.272 752.972C 188.272 752.739 188.189 752.54 188.024 752.375C 187.86 752.21 187.661 752.128 187.429 752.128C 187.196 752.128 186.997 752.21 186.832 752.375C 186.668 752.54 186.585 752.739 186.585 752.972C 186.585 753.202 186.667 753.403 186.83 753.569C 186.994 753.735 187.193 753.819 187.429 753.819M187.537 754.563L187.31 754.563C 187.285 754.959 187.205 755.437 187.07 756L187.07 756L186.798 757.133C 186.637 757.813 186.555 758.3 186.555 758.597C 186.555 758.863 186.635 759.078 186.793 759.242C 186.953 759.405 187.162 759.485 187.418 759.485C 187.669 759.485 187.875 759.403 188.04 759.238C 188.205 759.075 188.287 758.865 188.287 758.611C 188.287 758.348 188.2 757.856 188.027 757.133L188.027 757.133L187.752 756C 187.654 755.597 187.583 755.119 187.537 754.563z" stroke="none" fill="#000000" fill-rule="nonzero" /></g></g></g><path id="59" transform="matrix(1 0 0 -1 0 842)" d="M197.94 681.98L215.94 681.98L215.94 767.96L197.94 767.96z" stroke="none" fill="#FFFFFF" fill-rule="nonzero" /><path id="60" transform="matrix(1 0 0 -1 0 842)" d="M215.94 767.96L549 767.96L549 681.98L215.94 681.98" stroke="none" fill="#ECF5FC" fill-rule="nonzero" /></g></g></svg>