<svg xmlns="http://www.w3.org/2000/svg" xmlns:xlink="http://www.w3.org/1999/xlink" id="body_278" preserveAspectRatio="xMinYMin meet" viewBox="0 0 793 1123"><defs><clipPath id="1"><path id="" clip-rule="evenodd" transform="matrix(1 0 0 1 0 0)" d="M0 842L0 0L0 0L595 0L595 0L595 842L595 842L0 842z" /></clipPath><clipPath id="2"><path id="" clip-rule="evenodd" transform="matrix(1 0 0 1 0 0)" d="M225.96 77.03998L484.08 77.03998L484.08 77.03998L484.08 297.78L484.08 297.78L225.96 297.78z" /></clipPath><clipPath id="3"><path id="" clip-rule="evenodd" transform="matrix(1 0 0 1 0 0)" d="M224.94 76.02002L485.1 76.02002L485.1 76.02002L485.1 298.8L485.1 298.8L224.94 298.8z" /></clipPath><clipPath id="4"><path id="" clip-rule="evenodd" transform="matrix(1 0 0 1 0 0)" d="M0 0.02001953L595.2 0.02001953L595.2 0.02001953L595.2 842L595.2 842L0 842z" /></clipPath><clipPath id="5"><path id="" clip-rule="evenodd" transform="matrix(1 0 0 1 0 0)" d="M224.94 76.02002L485.1 76.02002L485.1 76.02002L485.1 298.8L485.1 298.8L224.94 298.8z" /></clipPath><clipPath id="6"><path id="" clip-rule="evenodd" transform="matrix(1 0 0 1 0 0)" d="M0 0.02001953L595.2 0.02001953L595.2 0.02001953L595.2 842L595.2 842L0 842z" /></clipPath><clipPath id="7"><path id="" clip-rule="evenodd" transform="matrix(1 0 0 1 0 0)" d="M225.96 384.78L485.4 384.78L485.4 384.78L485.4 612.9L485.4 612.9L225.96 612.9z" /></clipPath><clipPath id="8"><path id="" clip-rule="evenodd" transform="matrix(1 0 0 1 0 0)" d="M224.94 383.76L486.36 383.76L486.36 383.76L486.36 613.86L486.36 613.86L224.94 613.86z" /></clipPath><clipPath id="9"><path id="" clip-rule="evenodd" transform="matrix(1 0 0 1 0 0)" d="M0 0.02001953L595.2 0.02001953L595.2 0.02001953L595.2 842L595.2 842L0 842z" /></clipPath><clipPath id="10"><path id="" clip-rule="evenodd" transform="matrix(1 0 0 1 0 0)" d="M224.94 383.76L486.36 383.76L486.36 383.76L486.36 613.86L486.36 613.86L224.94 613.86z" /></clipPath><clipPath id="11"><path id="" clip-rule="evenodd" transform="matrix(1 0 0 1 0 0)" d="M0 0.02001953L595.2 0.02001953L595.2 0.02001953L595.2 842L595.2 842L0 842z" /></clipPath></defs><g transform="matrix(1.333333 0 0 1.333333 0 0)"><g clip-path="url(#1)"><g clip-path="url(#2)"><g clip-path="url(#3)"><g clip-path="url(#4)"><g transform="matrix(0.4788868 0 0 0.4788286 225.96 77.04004)"><g transform="matrix(1 0 0 1 0 0)"><image x="0" y="0" xlink:href="img_855.png" width="539" height="461" /></g></g></g></g></g><g clip-path="url(#5)"><g clip-path="url(#6)"><path id="153" transform="matrix(1 0 0 -1 0 842)" d="M294.06 677.48L294.12 677.66L294.12 677.66L294.18 677.78L294.18 677.78L294.18 678.38L294.18 678.38L294.12 678.5L294.12 678.5L294.12 678.62L294.12 678.62L294.06 678.8L294.06 678.8L293.94 678.92L293.94 678.92L293.88 679.04L293.88 679.04L293.82 679.1L293.82 679.1L293.58 679.34L293.58 679.34L293.46 679.4L293.46 679.4L293.28 679.46L293.28 679.46L293.16 679.52L293.16 679.52L293.04 679.58L293.04 679.58L292.44 679.58L292.44 679.58L292.32 679.52L292.32 679.52L292.14 679.46L292.14 679.46L292.02 679.46L292.02 679.46L291.9 679.34L291.9 679.34L291.78 679.28L291.78 679.28L291.66 679.16L291.66 679.16L291.54 679.1L291.54 679.1L291.48 678.98L291.48 678.98L291.42 678.86L291.42 678.86L291.3 678.68L291.3 678.68L291.3 678.56L291.3 678.56L291.24 678.38L291.24 678.38L291.24 678.26L291.24 678.26L291.18 678.14L291.18 678.14L291.18 677.96L291.18 677.96L291.24 677.84L291.24 677.84L291.24 677.66L291.24 677.66L291.42 677.3L291.42 677.3L291.54 677.18L291.54 677.18L291.6 677.06L291.6 677.06L291.72 676.94L291.72 676.94L291.84 676.88L291.84 676.88L291.96 676.76L291.96 676.76L292.08 676.7L292.08 676.7L292.26 676.64L292.26 676.64L292.38 676.64L292.38 676.64L292.56 676.58L292.56 676.58L292.86 676.58L292.86 676.58L292.98 676.64L292.98 676.64L293.1 676.64L293.1 676.64L293.28 676.7L293.28 676.7L293.52 676.82L293.52 676.82L293.64 676.94L293.64 676.94L293.76 677L293.76 677L293.82 677.12L293.82 677.12L293.94 677.24L293.94 677.24L294 677.36L294 677.36L294.06 677.48" stroke="none" fill="#FF0000" fill-rule="evenodd" /><path id="154" transform="matrix(1 0 0 -1 0 842)" d="M292.74 678.08L294.78 682.76L295.02 683.36L295.56 682.94L309.9 671.12L311.22 670.04L309.54 670.22L291.12 672.68L290.4 672.8L290.7 673.4L291.18 673.7L309.6 671.24L309.54 670.22L309.24 670.34L294.9 682.16L295.56 682.94L295.68 682.34L293.64 677.66" stroke="none" fill="#FF0000" fill-rule="nonzero" /><path id="155" transform="matrix(1 0 0 -1 0 842)" d="M290.7 673.4L292.74 678.08L293.64 677.66L291.6 672.98" stroke="none" fill="#FF0000" fill-rule="nonzero" /><path id="156" transform="matrix(1 0 0 -1 0 842)" d="M293.16 677.9L295.2 682.58L295.2 682.58L309.54 670.76L309.54 670.76L291.12 673.22" stroke="none" fill="#FF0000" fill-rule="evenodd" /><path id="157" transform="matrix(1 0 0 -1 0 842)" d="M252.48 697.22L251.1 697.8199L249.9 695.06L251.28 694.46" stroke="none" fill="#FF0000" fill-rule="nonzero" /><path id="158" transform="matrix(1 0 0 -1 0 842)" d="M293.28 679.46L294.66 678.86L293.46 676.1L292.08 676.7" stroke="none" fill="#FF0000" fill-rule="nonzero" /><path id="159" transform="matrix(1 0 0 -1 0 842)" d="M252.48 697.22L251.28 694.46L292.08 676.7L293.28 679.46" stroke="none" fill="#FF0000" fill-rule="nonzero" /></g></g><g clip-path="url(#7)"><g clip-path="url(#8)"><g clip-path="url(#9)"><g transform="matrix(0.4316805 0 0 0.4320455 225.96 384.78)"><g transform="matrix(1 0 0 1 0 0)"><image x="0" y="0" xlink:href="img_854.png" width="601" height="528" /></g></g></g></g></g><g clip-path="url(#10)"><g clip-path="url(#11)"><path id="162" transform="matrix(1 0 0 -1 0 842)" d="M332.22 401.18L332.28 401L332.28 401L332.4 400.82L332.4 400.82L332.46 400.64L332.46 400.64L333 400.1L333 400.1L333.18 399.98L333.18 399.98L333.9 399.74L333.9 399.74L334.32 399.74L334.32 399.74L334.5 399.8L334.5 399.8L334.68 399.8L334.68 399.8L334.92 399.92L334.92 399.92L335.1 399.98L335.1 399.98L335.28 400.1L335.28 400.1L335.4 400.22L335.4 400.22L335.58 400.34L335.58 400.34L335.7 400.46L335.7 400.46L335.82 400.64L335.82 400.64L335.88 400.76L335.88 400.76L336 400.94L336 400.94L336.06 401.12L336.06 401.12L336.12 401.3L336.12 401.3L336.12 401.48L336.12 401.48L336.18 401.72L336.18 401.72L336.18 401.9L336.18 401.9L336.12 402.08L336.12 402.08L336.06 402.32L336.06 402.32L336 402.5L336 402.5L335.94 402.68L335.94 402.68L335.82 402.86L335.82 402.86L335.7 402.98L335.7 402.98L335.58 403.16L335.58 403.16L335.46 403.28L335.46 403.28L335.28 403.4L335.28 403.4L335.16 403.52L335.16 403.52L334.44 403.76L334.44 403.76L334.02 403.76L334.02 403.76L333.84 403.7L333.84 403.7L333.6 403.7L333.6 403.7L333.42 403.64L333.42 403.64L333.06 403.4L333.06 403.4L332.94 403.34L332.94 403.34L332.52 402.92L332.52 402.92L332.4 402.74L332.4 402.74L332.34 402.56L332.34 402.56L332.28 402.38L332.28 402.38L332.16 402.02L332.16 402.02L332.16 401.6L332.16 401.6L332.22 401.42L332.22 401.42L332.22 401.18" stroke="none" fill="#FF0000" fill-rule="evenodd" /><path id="163" transform="matrix(1 0 0 -1 0 842)" d="M334.14 401.72L335.76 396.02L335.88 395.36L335.22 395.42L313.62 395.48L311.88 395.48L313.38 396.38L331.74 407.78L332.34 408.14L332.52 407.48L332.28 406.94L313.92 395.54L313.38 396.38L313.68 396.44L335.28 396.38L335.22 395.42L334.74 395.78L333.12 401.48" stroke="none" fill="#FF0000" fill-rule="nonzero" /><path id="164" transform="matrix(1 0 0 -1 0 842)" d="M332.52 407.48L334.14 401.72L333.12 401.48L331.5 407.24" stroke="none" fill="#FF0000" fill-rule="nonzero" /><path id="165" transform="matrix(1 0 0 -1 0 842)" d="M333.66 401.6L335.28 395.9L335.28 395.9L313.68 395.96L313.68 395.96L332.04 407.36" stroke="none" fill="#FF0000" fill-rule="evenodd" /><path id="166" transform="matrix(1 0 0 -1 0 842)" d="M372.36 410.48L374.28 411.02L373.2 414.86L371.28 414.32" stroke="none" fill="#FF0000" fill-rule="nonzero" /><path id="167" transform="matrix(1 0 0 -1 0 842)" d="M334.68 399.86L332.76 399.32L331.68 403.16L333.6 403.7" stroke="none" fill="#FF0000" fill-rule="nonzero" /><path id="168" transform="matrix(1 0 0 -1 0 842)" d="M372.36 410.48L371.28 414.32L333.6 403.7L334.68 399.86" stroke="none" fill="#FF0000" fill-rule="nonzero" /><path id="170" transform="matrix(1 0 0 -1 0 842)" d="M276.66 335L276.42 335L276.42 335L276.24 335.06L276.24 335.06L276.06 335L276.06 335L275.82 335L275.82 335L275.46 334.88L275.46 334.88L275.28 334.76L275.28 334.76L275.16 334.7L275.16 334.7L274.98 334.58L274.98 334.58L274.86 334.46L274.86 334.46L274.74 334.28L274.74 334.28L274.62 334.16L274.62 334.16L274.5 333.98L274.5 333.98L274.44 333.8L274.44 333.8L274.32 333.62L274.32 333.62L274.32 333.38L274.32 333.38L274.26 333.2L274.26 333.2L274.26 332.78L274.26 332.78L274.5 332.06L274.5 332.06L274.62 331.88L274.62 331.88L274.74 331.76L274.74 331.76L274.86 331.58L274.86 331.58L275.04 331.46L275.04 331.46L275.16 331.34L275.16 331.34L275.34 331.28L275.34 331.28L275.52 331.16L275.52 331.16L275.88 331.04L275.88 331.04L276.48 331.04L276.48 331.04L276.72 331.1L276.72 331.1L277.26 331.28L277.26 331.28L277.38 331.4L277.38 331.4L277.56 331.52L277.56 331.52L277.8 331.76L277.8 331.76L278.04 332.12L278.04 332.12L278.22 332.66L278.22 332.66L278.28 332.9L278.28 332.9L278.28 333.26L278.28 333.26L278.22 333.44L278.22 333.44L278.16 333.68L278.16 333.68L278.1 333.86L278.1 333.86L278.04 333.98L278.04 333.98L277.8 334.34L277.8 334.34L277.68 334.46L277.68 334.46L277.5 334.58L277.5 334.58L277.38 334.7L277.38 334.7L277.2 334.82L277.2 334.82L276.66 335" stroke="none" fill="#FF0000" fill-rule="evenodd" /><path id="171" transform="matrix(1 0 0 -1 0 842)" d="M276.3 333.02L270.42 334.1L269.76 334.28L270.06 334.82L279.72 354.2L280.5 355.76L280.62 354.02L282.72 332.48L282.78 331.82L282.18 331.94L281.76 332.36L279.66 353.9L280.62 354.02L280.62 353.78L270.96 334.4L270.06 334.82L270.6 335.12L276.48 334.04" stroke="none" fill="#FF0000" fill-rule="nonzero" /><path id="172" transform="matrix(1 0 0 -1 0 842)" d="M282.18 331.94L276.3 333.02L276.48 334.04L282.36 332.96" stroke="none" fill="#FF0000" fill-rule="nonzero" /><path id="173" transform="matrix(1 0 0 -1 0 842)" d="M276.36 333.5L270.48 334.58L270.48 334.58L280.14 353.96L280.14 353.96L282.24 332.42" stroke="none" fill="#FF0000" fill-rule="evenodd" /><path id="174" transform="matrix(1 0 0 -1 0 842)" d="M261.96 266.84L261.6 264.86L265.56 264.14L265.92 266.12" stroke="none" fill="#FF0000" fill-rule="nonzero" /><path id="175" transform="matrix(1 0 0 -1 0 842)" d="M274.26 333.38L274.62 335.36L278.58 334.64L278.22 332.66" stroke="none" fill="#FF0000" fill-rule="nonzero" /><path id="176" transform="matrix(1 0 0 -1 0 842)" d="M261.96 266.84L265.92 266.12L278.22 332.66L274.26 333.38" stroke="none" fill="#FF0000" fill-rule="nonzero" /></g></g></g></g></svg>