<svg xmlns="http://www.w3.org/2000/svg" xmlns:xlink="http://www.w3.org/1999/xlink" id="body_217" preserveAspectRatio="xMinYMin meet" viewBox="0 0 793 1123"><defs><clipPath id="1"><path id="" clip-rule="evenodd" transform="matrix(1 0 0 1 0 0)" d="M0 842L0 0L0 0L595 0L595 0L595 842L595 842L0 842z" /></clipPath><clipPath id="2"><path id="" clip-rule="evenodd" transform="matrix(1 0 0 1 0 0)" d="M216.96 142.98L354.54 142.98L354.54 142.98L354.54 310.86L354.54 310.86L216.96 310.86z" /></clipPath><clipPath id="3"><path id="" clip-rule="evenodd" transform="matrix(1 0 0 1 0 0)" d="M215.94 142.02L355.56 142.02L355.56 142.02L355.56 311.82L355.56 311.82L215.94 311.82z" /></clipPath><clipPath id="4"><path id="" clip-rule="evenodd" transform="matrix(1 0 0 1 0 0)" d="M0 0.02001953L595.2 0.02001953L595.2 0.02001953L595.2 842L595.2 842L0 842z" /></clipPath><clipPath id="5"><path id="" clip-rule="evenodd" transform="matrix(1 0 0 1 0 0)" d="M215.94 142.02L355.56 142.02L355.56 142.02L355.56 311.82L355.56 311.82L215.94 311.82z" /></clipPath><clipPath id="6"><path id="" clip-rule="evenodd" transform="matrix(1 0 0 1 0 0)" d="M0 0.02001953L595.2 0.02001953L595.2 0.02001953L595.2 842L595.2 842L0 842z" /></clipPath><clipPath id="7"><path id="" clip-rule="evenodd" transform="matrix(1 0 0 1 0 0)" d="M36.96 427.8L223.56 427.8L223.56 427.8L223.56 539.94L223.56 539.94L36.96 539.94z" /></clipPath><clipPath id="8"><path id="" clip-rule="evenodd" transform="matrix(1 0 0 1 0 0)" d="M35.94 426.84L465.24 426.84L465.24 426.84L465.24 540.96L465.24 540.96L35.94 540.96z" /></clipPath><clipPath id="9"><path id="" clip-rule="evenodd" transform="matrix(1 0 0 1 0 0)" d="M0 0.02001953L595.2 0.02001953L595.2 0.02001953L595.2 842L595.2 842L0 842z" /></clipPath><clipPath id="10"><path id="" clip-rule="evenodd" transform="matrix(1 0 0 1 0 0)" d="M35.94 426.84L465.24 426.84L465.24 426.84L465.24 540.96L465.24 540.96L35.94 540.96z" /></clipPath><clipPath id="11"><path id="" clip-rule="evenodd" transform="matrix(1 0 0 1 0 0)" d="M0 0.02001953L595.2 0.02001953L595.2 0.02001953L595.2 842L595.2 842L0 842z" /></clipPath><clipPath id="12"><path id="" clip-rule="evenodd" transform="matrix(1 0 0 1 0 0)" d="M252.78 427.92L464.28 427.92L464.28 427.92L464.28 539.82L464.28 539.82L252.78 539.82z" /></clipPath><clipPath id="13"><path id="" clip-rule="evenodd" transform="matrix(1 0 0 1 0 0)" d="M35.94 426.84L465.24 426.84L465.24 426.84L465.24 540.96L465.24 540.96L35.94 540.96z" /></clipPath><clipPath id="14"><path id="" clip-rule="evenodd" transform="matrix(1 0 0 1 0 0)" d="M0 0.02001953L595.2 0.02001953L595.2 0.02001953L595.2 842L595.2 842L0 842z" /></clipPath><clipPath id="15"><path id="" clip-rule="evenodd" transform="matrix(1 0 0 1 0 0)" d="M35.94 426.84L465.24 426.84L465.24 426.84L465.24 540.96L465.24 540.96L35.94 540.96z" /></clipPath><clipPath id="16"><path id="" clip-rule="evenodd" transform="matrix(1 0 0 1 0 0)" d="M0 0.02001953L595.2 0.02001953L595.2 0.02001953L595.2 842L595.2 842L0 842z" /></clipPath></defs><g transform="matrix(1.333333 0 0 1.333333 0 0)"><g clip-path="url(#1)"><g clip-path="url(#2)"><g clip-path="url(#3)"><g clip-path="url(#4)"><g transform="matrix(0.4801463 0 0 0.4796571 216.96 142.98)"><g transform="matrix(1 0 0 1 0 0)"><image x="0" y="0" xlink:href="img_584.png" width="287" height="350" /></g></g></g></g></g><g clip-path="url(#5)"><g clip-path="url(#6)"><path id="310" transform="matrix(1 0 0 -1 0 842)" d="M308.88 663.8L308.82 663.62L308.82 663.62L308.76 663.38L308.76 663.38L308.76 663.02L308.76 663.02L308.88 662.84L308.88 662.84L308.94 662.66L308.94 662.66L309.12 662.54L309.12 662.54L309.24 662.42L309.24 662.42L309.48 662.36L309.48 662.36L309.66 662.3L309.66 662.3L309.84 662.3L309.84 662.3L310.02 662.36L310.02 662.36L310.2 662.42L310.2 662.42L310.38 662.54L310.38 662.54L310.5 662.66L310.5 662.66L310.62 662.84L310.62 662.84L310.68 663.02L310.68 663.02L310.74 663.2L310.74 663.2L310.74 663.38L310.74 663.38L310.68 663.56L310.68 663.56L310.62 663.74L310.62 663.74L310.56 663.92L310.56 663.92L310.38 664.1L310.38 664.1L310.2 664.16L310.2 664.16L310.02 664.28L310.02 664.28L309.48 664.28L309.48 664.28L309.3 664.22L309.3 664.22L309.12 664.1L309.12 664.1L309 663.98L309 663.98L308.88 663.8" stroke="none" fill="#FF0000" fill-rule="evenodd" /><path id="311" transform="matrix(1 0 0 -1 0 842)" d="M309.72 663.32L307.98 660.14L307.56 659.42L307.14 660.14L303.36 666.32L302.94 667.1L303.72 667.1L310.98 667.28L311.94 667.34L311.46 666.5L311.04 666.26L303.78 666.08L303.72 667.1L304.2 666.86L307.98 660.68L307.14 660.14L307.08 660.62L308.82 663.8" stroke="none" fill="#FF0000" fill-rule="nonzero" /><path id="312" transform="matrix(1 0 0 -1 0 842)" d="M311.46 666.5L309.72 663.32L308.82 663.8L310.56 666.98" stroke="none" fill="#FF0000" fill-rule="nonzero" /><path id="313" transform="matrix(1 0 0 -1 0 842)" d="M309.3 663.56L307.56 660.38L307.56 660.38L303.78 666.56L303.78 666.56L311.04 666.74" stroke="none" fill="#FF0000" fill-rule="evenodd" /><path id="314" transform="matrix(1 0 0 -1 0 842)" d="M310.2 664.16L309.36 664.64L308.4 662.9L309.24 662.42" stroke="none" fill="#FF0000" fill-rule="nonzero" /><path id="315" transform="matrix(1 0 0 -1 0 842)" d="M339.18 648.32L340.02 647.84L339.06 646.1L338.22 646.58" stroke="none" fill="#FF0000" fill-rule="nonzero" /><path id="316" transform="matrix(1 0 0 -1 0 842)" d="M310.2 664.16L309.24 662.42L338.22 646.58L339.18 648.3199" stroke="none" fill="#FF0000" fill-rule="nonzero" /><path id="317" transform="matrix(1 0 0 -1 0 842)" d="M262.08 660.2L262.02 660.02L262.02 660.02L261.96 659.78L261.96 659.78L261.96 659.42L261.96 659.42L262.08 659.24L262.08 659.24L262.14 659.06L262.14 659.06L262.32 658.94L262.32 658.94L262.44 658.82L262.44 658.82L262.68 658.76L262.68 658.76L262.86 658.7L262.86 658.7L263.04 658.7L263.04 658.7L263.4 658.82L263.4 658.82L263.58 658.94L263.58 658.94L263.7 659.06L263.7 659.06L263.82 659.24L263.82 659.24L263.88 659.42L263.88 659.42L263.94 659.6L263.94 659.6L263.94 659.78L263.94 659.78L263.76 660.32L263.76 660.32L263.58 660.5L263.58 660.5L263.4 660.56L263.4 660.56L263.22 660.68L263.22 660.68L262.68 660.68L262.68 660.68L262.5 660.62L262.5 660.62L262.32 660.5L262.32 660.5L262.2 660.38L262.2 660.38L262.08 660.2" stroke="none" fill="#FF0000" fill-rule="evenodd" /><path id="318" transform="matrix(1 0 0 -1 0 842)" d="M262.92 659.72L261.18 656.54L260.76 655.8199L260.34 656.54L256.56 662.72L256.14 663.5L256.92 663.5L264.18 663.68L265.14 663.74L264.66 662.9L264.24 662.66L256.98 662.48L256.92 663.5L257.4 663.2599L261.18 657.08L260.34 656.54L260.28 657.02L262.02 660.2" stroke="none" fill="#FF0000" fill-rule="nonzero" /><path id="319" transform="matrix(1 0 0 -1 0 842)" d="M264.66 662.9L262.92 659.72L262.02 660.2L263.76 663.38" stroke="none" fill="#FF0000" fill-rule="nonzero" /><path id="320" transform="matrix(1 0 0 -1 0 842)" d="M262.5 659.96L260.76 656.78L260.76 656.78L256.98 662.96L256.98 662.96L264.24 663.14" stroke="none" fill="#FF0000" fill-rule="evenodd" /><path id="321" transform="matrix(1 0 0 -1 0 842)" d="M263.4 660.56L262.56 661.04L261.6 659.3L262.44 658.82" stroke="none" fill="#FF0000" fill-rule="nonzero" /><path id="322" transform="matrix(1 0 0 -1 0 842)" d="M292.38 644.72L293.22 644.24L292.26 642.5L291.42 642.98" stroke="none" fill="#FF0000" fill-rule="nonzero" /><path id="323" transform="matrix(1 0 0 -1 0 842)" d="M263.4 660.56L262.44 658.82L291.42 642.98L292.38 644.72" stroke="none" fill="#FF0000" fill-rule="nonzero" /><path id="324" transform="matrix(1 0 0 -1 0 842)" d="M253.08 618.74L253.08 618.86L253.08 618.86L253.02 619.04L253.02 619.04L253.02 619.16L253.02 619.16L252.96 619.28L252.96 619.28L252.9 619.46L252.9 619.46L252.78 619.58L252.78 619.58L252.72 619.7L252.72 619.7L252.6 619.76L252.6 619.76L252.54 619.88L252.54 619.88L252.42 619.94L252.42 619.94L252.3 620.06L252.3 620.06L252.12 620.12L252.12 620.12L252 620.18L252 620.18L251.7 620.18L251.7 620.18L251.58 620.24L251.58 620.24L251.4 620.18L251.4 620.18L251.28 620.18L251.28 620.18L251.1 620.12L251.1 620.12L250.98 620.12L250.98 620.12L250.86 620.06L250.86 620.06L250.74 619.94L250.74 619.94L250.62 619.88L250.62 619.88L250.38 619.64L250.38 619.64L250.2 619.28L250.2 619.28L250.14 619.16L250.14 619.16L250.08 619.04L250.08 619.04L250.08 618.38L250.08 618.38L250.14 618.26L250.14 618.26L250.32 617.9L250.32 617.9L250.44 617.78L250.44 617.78L250.5 617.66L250.5 617.66L250.62 617.54L250.62 617.54L250.74 617.48L250.74 617.48L250.86 617.42L250.86 617.42L250.98 617.36L250.98 617.36L251.1 617.3L251.1 617.3L251.28 617.24L251.28 617.24L251.88 617.24L251.88 617.24L252 617.3L252 617.3L252.18 617.36L252.18 617.36L252.3 617.42L252.3 617.42L252.42 617.48L252.42 617.48L252.54 617.54L252.54 617.54L252.6 617.66L252.6 617.66L252.72 617.78L252.72 617.78L252.84 617.9L252.84 617.9L252.9 618.02L252.9 618.02L253.02 618.26L253.02 618.26L253.02 618.44L253.02 618.44L253.08 618.56L253.08 618.56L253.08 618.74" stroke="none" fill="#000000" fill-rule="evenodd" /><path id="325" transform="matrix(1 0 0 -1 0 842)" d="M251.58 618.74L251.58 623.84L251.64 624.5L252.24 624.32L270.12 619.28L271.8 618.8L270.12 618.32L252.24 613.1L251.58 612.92L251.58 613.58L251.94 614.06L269.82 619.28L270.12 618.32L269.82 618.32L251.94 623.36L252.24 624.32L252.6 623.84L252.6 618.74" stroke="none" fill="#000000" fill-rule="nonzero" /><path id="326" transform="matrix(1 0 0 -1 0 842)" d="M251.58 613.58L252.6 613.58L252.6 618.74L251.58 618.74z" stroke="none" fill="#000000" fill-rule="nonzero" /><path id="327" transform="matrix(1 0 0 -1 0 842)" d="M252.06 618.74L252.06 623.84L252.06 623.84L269.94 618.8L269.94 618.8L252.06 613.58" stroke="none" fill="#000000" fill-rule="evenodd" /><path id="328" transform="matrix(1 0 0 -1 0 842)" d="M251.64 617.24L253.08 617.3L253.08 620.3L251.64 620.24" stroke="none" fill="#000000" fill-rule="nonzero" /><path id="329" transform="matrix(1 0 0 -1 0 842)" d="M251.64 617.24L250.38 617.24L249.96 617.3L250.26 617.3L249.48 617.3L248.64 617.42L248.52 617.48L248.04 617.6L248.16 617.54L247.74 617.6L247.56 617.66L245.88 618.14L245.76 618.2L245.34 618.38L245.4 618.32L245.04 618.44L244.98 618.5L244.14 618.86L243.84 618.98L243.48 619.22L243.78 619.1L243.36 619.28L243.3 619.34L242.94 619.52L242.7 619.58L240.9 620.78L240.84 620.9L240.48 621.2L240.54 621.08L240.18 621.32L240.12 621.44L239.76 621.74L239.64 621.8L239.34 622.1L239.52 621.92L239.16 622.16L238.68 622.64L238.62 622.76L238.32 623.12L238.5 622.88L238.14 623.18L237.96 623.36L236.76 624.68L236.7 624.8L235.08 626.96L234.96 627.08L234.48 627.86L234.54 627.8L233.94 628.7L233.52 629.54L233.52 629.48L233.1 630.26L235.8 631.7L236.22 630.92L236.22 630.86L236.64 630.02L236.52 630.2L237 629.48L237.06 629.42L237.54 628.64L237.42 628.76L239.04 626.6L238.98 626.66L240.18 625.34L240.06 625.52L240.42 625.22L240.6 625.04L240.9 624.68L240.78 624.74L241.08 624.44L240.84 624.68L241.2 624.44L241.74 623.9L241.68 624.02L242.04 623.72L241.86 623.84L242.4 623.48L242.76 623.18L242.58 623.3L244.38 622.1L244.26 622.16L244.62 621.98L244.56 622.04L244.98 621.86L245.52 621.5L245.34 621.62L246.18 621.26L246 621.32L246.54 621.14L246.96 620.96L246.72 621.02L248.4 620.54L248.22 620.6L248.64 620.54L248.76 620.54L249.24 620.42L249.12 620.42L249.96 620.3L249.78 620.3L250.44 620.3L250.86 620.24L250.68 620.24L251.64 620.24" stroke="none" fill="#000000" fill-rule="nonzero" /><path id="330" transform="matrix(1 0 0 -1 0 842)" d="M233.1 630.26L232.68 631.04L232.68 631.16L231.96 632.84L231.84 632.96L230.94 635.48L230.94 635.54L233.82 636.38L233.82 636.5L234.72 633.98L234.66 634.04L235.38 632.36L235.38 632.48L235.8 631.7" stroke="none" fill="#000000" fill-rule="nonzero" /><path id="331" transform="matrix(1 0 0 -1 0 842)" d="M230.7 636.38L230.34 637.82L233.22 638.66L233.58 637.22" stroke="none" fill="#000000" fill-rule="nonzero" /><path id="332" transform="matrix(1 0 0 -1 0 842)" d="M230.94 635.54L233.82 636.38L233.58 637.22L230.7 636.38" stroke="none" fill="#000000" fill-rule="nonzero" /></g></g><g clip-path="url(#7)"><g clip-path="url(#8)"><g clip-path="url(#9)"><g transform="matrix(0.4799769 0 0 0.4792308 36.96 427.8)"><g transform="matrix(1 0 0 1 0 0)"><image x="0" y="0" xlink:href="img_585.png" width="389" height="234" /></g></g></g></g></g><g clip-path="url(#10)"><g clip-path="url(#11)"><path id="344" transform="matrix(1 0 0 -1 0 842)" d="M40.92 398.78L70.5 398.78L70.5 408.92L40.92 408.92z" stroke="none" fill="#FFFFFF" fill-rule="nonzero" /><path id="347" transform="matrix(1 0 0 -1 0 842)" d="M77.46 364.94L77.82 364.58L78.54 365.3L78.18 365.66" stroke="none" fill="#000000" fill-rule="nonzero" /><path id="348" transform="matrix(1 0 0 -1 0 842)" d="M44.94 396.5L44.58 396.86L45.3 397.58L45.66 397.22" stroke="none" fill="#000000" fill-rule="nonzero" /><path id="349" transform="matrix(1 0 0 -1 0 842)" d="M77.46 364.94L78.18 365.66L45.66 397.22L44.94 396.5" stroke="none" fill="#000000" fill-rule="nonzero" /><path id="350" transform="matrix(1 0 0 -1 0 842)" d="M124.44 400.28L156 400.28L156 410.6L124.44 410.6z" stroke="none" fill="#FFFFFF" fill-rule="nonzero" /><path id="353" transform="matrix(1 0 0 -1 0 842)" d="M123.6 404.6L124.02 404.84L123.48 405.68L123.06 405.44" stroke="none" fill="#000000" fill-rule="nonzero" /><path id="354" transform="matrix(1 0 0 -1 0 842)" d="M103.32 391.04L102.9 390.8L102.36 391.64L102.78 391.88" stroke="none" fill="#000000" fill-rule="nonzero" /><path id="355" transform="matrix(1 0 0 -1 0 842)" d="M123.6 404.6L123.06 405.44L102.78 391.88L103.32 391.04" stroke="none" fill="#000000" fill-rule="nonzero" /></g></g><g clip-path="url(#12)"><g clip-path="url(#13)"><g clip-path="url(#14)"><g transform="matrix(0.4795918 0 0 0.4802575 252.78 427.92)"><g transform="matrix(1 0 0 1 0 0)"><image x="0" y="0" xlink:href="img_586.png" width="441" height="233" /></g></g></g></g></g><g clip-path="url(#15)"><g clip-path="url(#16)"><path id="357" transform="matrix(1 0 0 -1 0 842)" d="M275.46 399.92L305.28 399.92L305.28 411.38L275.46 411.38z" stroke="none" fill="#FFFFFF" fill-rule="nonzero" /><path id="360" transform="matrix(1 0 0 -1 0 842)" d="M400.14 326.48L436.08 326.48L436.08 337.94L400.14 337.94z" stroke="none" fill="#FFFFFF" fill-rule="nonzero" /><path id="363" transform="matrix(1 0 0 -1 0 842)" d="M323.1 317.3L352.14 317.3L352.14 327.26L323.1 327.26z" stroke="none" fill="#FFFFFF" fill-rule="nonzero" /><path id="366" transform="matrix(1 0 0 -1 0 842)" d="M241.74 357.38L241.68 357.62L241.68 357.62L241.56 357.98L241.56 357.98L241.44 358.1L241.44 358.1L241.08 358.34L241.08 358.34L240.9 358.4L240.9 358.4L240.54 358.4L240.54 358.4L240.3 358.34L240.3 358.34L240.18 358.22L240.18 358.22L240 358.1L240 358.1L239.88 357.98L239.88 357.98L239.76 357.62L239.76 357.62L239.7 357.38L239.7 357.38L239.76 357.2L239.76 357.2L239.88 356.84L239.88 356.84L240 356.72L240 356.72L240.18 356.6L240.18 356.6L240.3 356.48L240.3 356.48L240.54 356.42L240.54 356.42L240.9 356.42L240.9 356.42L241.08 356.48L241.08 356.48L241.44 356.72L241.44 356.72L241.56 356.84L241.56 356.84L241.74 357.38" stroke="none" fill="#000000" fill-rule="evenodd" /><path id="367" transform="matrix(1 0 0 -1 0 842)" d="M240.72 357.38L240.72 361.94L241.5 361.46L247.8 357.8L248.58 357.38L241.44 353.3L240.72 352.88L240.72 353.78L240.96 354.2L247.26 357.8L247.74 356.9L247.26 356.9L240.96 360.56L241.5 361.46L241.74 361.04L241.74 357.38" stroke="none" fill="#000000" fill-rule="nonzero" /><path id="368" transform="matrix(1 0 0 -1 0 842)" d="M240.72 353.78L241.74 353.78L241.74 357.38L240.72 357.38z" stroke="none" fill="#000000" fill-rule="nonzero" /><path id="369" transform="matrix(1 0 0 -1 0 842)" d="M241.2 357.38L241.2 361.04L241.2 361.04L247.5 357.38L247.5 357.38L241.2 353.78" stroke="none" fill="#000000" fill-rule="evenodd" /><path id="370" transform="matrix(1 0 0 -1 0 842)" d="M225.96 356.36L226.92 356.36L226.92 358.34L225.96 358.34z" stroke="none" fill="#000000" fill-rule="nonzero" /><path id="371" transform="matrix(1 0 0 -1 0 842)" d="M226.92 356.36L241.68 356.36L241.68 358.34L226.92 358.34z" stroke="none" fill="#000000" fill-rule="nonzero" /><path id="372" transform="matrix(1 0 0 -1 0 842)" d="M430.98 382.04L442.98 382.04L442.98 394.04L430.98 394.04z" stroke="none" fill="#FFFFFF" fill-rule="nonzero" /><path id="374" transform="matrix(1 0 0 -1 0 842)" d="M286.5 399.26L287.52 399.26L287.52 399.74L286.5 399.74z" stroke="none" fill="#000000" fill-rule="nonzero" /><path id="375" transform="matrix(1 0 0 -1 0 842)" d="M286.5 386.78L287.52 386.78L287.52 399.26L286.5 399.26z" stroke="none" fill="#000000" fill-rule="nonzero" /><path id="376" transform="matrix(1 0 0 -1 0 842)" d="M417.72 338.78L418.74 338.78L418.74 339.26L417.72 339.26z" stroke="none" fill="#000000" fill-rule="nonzero" /><path id="377" transform="matrix(1 0 0 -1 0 842)" d="M417.72 339.26L418.74 339.26L418.74 361.46L417.72 361.46z" stroke="none" fill="#000000" fill-rule="nonzero" /><path id="378" transform="matrix(1 0 0 -1 0 842)" d="M310.5 320.72L310.98 320.72L310.98 321.74L310.5 321.74z" stroke="none" fill="#000000" fill-rule="nonzero" /><path id="379" transform="matrix(1 0 0 -1 0 842)" d="M310.98 320.72L322.68 320.72L322.68 321.74L310.98 321.74z" stroke="none" fill="#000000" fill-rule="nonzero" /><path id="380" transform="matrix(1 0 0 -1 0 842)" d="M366.96 378.02L378.96 378.02L378.96 390.02L366.96 390.02z" stroke="none" fill="#FFFFFF" fill-rule="nonzero" /><path id="382" transform="matrix(1 0 0 -1 0 842)" d="M378.72 383.72L379.2 383.72L379.2 384.74L378.72 384.74z" stroke="none" fill="#000000" fill-rule="nonzero" /><path id="383" transform="matrix(1 0 0 -1 0 842)" d="M379.2 383.72L404.46 383.72L404.46 384.74L379.2 384.74z" stroke="none" fill="#000000" fill-rule="nonzero" /></g></g></g></g></svg>