<svg xmlns="http://www.w3.org/2000/svg" xmlns:xlink="http://www.w3.org/1999/xlink" id="body_47" preserveAspectRatio="xMinYMin meet" viewBox="0 0 793 1123"><defs><clipPath id="1"><path id="" clip-rule="evenodd" transform="matrix(1 0 0 1 0 0)" d="M0 842L0 0L0 0L595 0L595 0L595 842L595 842L0 842z" /></clipPath><clipPath id="2"><path id="" clip-rule="evenodd" transform="matrix(1 0 0 1 0 0)" d="M215.94 741.96L549 741.96L549 741.96L549 756.96L549 756.96L215.94 756.96z" /></clipPath><clipPath id="3"><path id="" clip-rule="evenodd" transform="matrix(1 0 0 1 0 0)" d="M0 0.02001953L595.2 0.02001953L595.2 0.02001953L595.2 842L595.2 842L0 842z" /></clipPath><clipPath id="4"><path id="" clip-rule="evenodd" transform="matrix(1 0 0 1 0 0)" d="M36.96 306.96L536.4 306.96L536.4 306.96L536.4 547.62L536.4 547.62L36.96 547.62z" /></clipPath><clipPath id="5"><path id="" clip-rule="evenodd" transform="matrix(1 0 0 1 0 0)" d="M35.94 305.94L537.42 305.94L537.42 305.94L537.42 548.58L537.42 548.58L35.94 548.58z" /></clipPath><clipPath id="6"><path id="" clip-rule="evenodd" transform="matrix(1 0 0 1 0 0)" d="M0 0.02001953L595.2 0.02001953L595.2 0.02001953L595.2 842L595.2 842L0 842z" /></clipPath><clipPath id="7"><path id="" clip-rule="evenodd" transform="matrix(1 0 0 1 0 0)" d="M35.94 305.94L537.42 305.94L537.42 305.94L537.42 548.58L537.42 548.58L35.94 548.58z" /></clipPath><clipPath id="8"><path id="" clip-rule="evenodd" transform="matrix(1 0 0 1 0 0)" d="M0 0.02001953L595.2 0.02001953L595.2 0.02001953L595.2 842L595.2 842L0 842z" /></clipPath></defs><g transform="matrix(1.333333 0 0 1.333333 0 0)"><g clip-path="url(#1)"><g clip-path="url(#2)"><g clip-path="url(#3)"><path id="385" transform="matrix(1 0 0 -1 0 842)" d="M216.36 92.78L360.9 92.78L360.9 93.26L216.36 93.26z" stroke="none" fill="#000000" fill-rule="nonzero" /></g></g><g clip-path="url(#4)"><g clip-path="url(#5)"><g clip-path="url(#6)"><g transform="matrix(0.8268874 0 0 0.8270103 36.96 306.96)"><g transform="matrix(1 0 0 1 0 0)"><image x="0" y="0" xlink:href="img_119.png" width="604" height="291" /></g></g></g></g></g><g clip-path="url(#7)"><g clip-path="url(#8)"></g></g><path id="492" transform="matrix(1 0 0 -1 0 842)" d="M215.94 252.38L549 252.38L549 218.42L215.94 218.42" stroke="none" fill="#ECF5FC" fill-rule="nonzero" /></g></g></svg>