<svg xmlns="http://www.w3.org/2000/svg" xmlns:xlink="http://www.w3.org/1999/xlink" id="body_176" preserveAspectRatio="xMinYMin meet" viewBox="0 0 793 1123"><defs><clipPath id="1"><path id="" clip-rule="evenodd" transform="matrix(1 0 0 1 0 0)" d="M0 842L0 0L0 0L595 0L595 0L595 842L595 842L0 842z" /></clipPath><clipPath id="2"><path id="" clip-rule="evenodd" transform="matrix(1 0 0 1 0 0)" d="M297.84 77.03998L478.32 77.03998L478.32 77.03998L478.32 281.76L478.32 281.76L297.84 281.76z" /></clipPath><clipPath id="3"><path id="" clip-rule="evenodd" transform="matrix(1 0 0 1 0 0)" d="M215.94 76.02002L544.86 76.02002L544.86 76.02002L544.86 282.78L544.86 282.78L215.94 282.78z" /></clipPath><clipPath id="4"><path id="" clip-rule="evenodd" transform="matrix(1 0 0 1 0 0)" d="M0 0.02001953L595.2 0.02001953L595.2 0.02001953L595.2 842L595.2 842L0 842z" /></clipPath><clipPath id="5"><path id="" clip-rule="evenodd" transform="matrix(1 0 0 1 0 0)" d="M215.94 76.02002L544.86 76.02002L544.86 76.02002L544.86 282.78L544.86 282.78L215.94 282.78z" /></clipPath><clipPath id="6"><path id="" clip-rule="evenodd" transform="matrix(1 0 0 1 0 0)" d="M0 0.02001953L595.2 0.02001953L595.2 0.02001953L595.2 842L595.2 842L0 842z" /></clipPath><clipPath id="7"><path id="" clip-rule="evenodd" transform="matrix(1 0 0 1 0 0)" d="M216.96 406.74L478.32 406.74L478.32 406.74L478.32 574.8L478.32 574.8L216.96 574.8z" /></clipPath><clipPath id="8"><path id="" clip-rule="evenodd" transform="matrix(1 0 0 1 0 0)" d="M215.94 405.72L479.34 405.72L479.34 405.72L479.34 575.76L479.34 575.76L215.94 575.76z" /></clipPath><clipPath id="9"><path id="" clip-rule="evenodd" transform="matrix(1 0 0 1 0 0)" d="M0 0.02001953L595.2 0.02001953L595.2 0.02001953L595.2 842L595.2 842L0 842z" /></clipPath><clipPath id="10"><path id="" clip-rule="evenodd" transform="matrix(1 0 0 1 0 0)" d="M115.56 624.78L193.98 624.78L193.98 624.78L193.98 639.18L193.98 639.18L115.56 639.18z" /></clipPath><clipPath id="11"><path id="" clip-rule="evenodd" transform="matrix(1 0 0 1 0 0)" d="M0 0.02001953L595.2 0.02001953L595.2 0.02001953L595.2 842L595.2 842L0 842z" /></clipPath><clipPath id="12"><path id="" clip-rule="evenodd" transform="matrix(1 0 0 1 0 0)" d="M115.98 625.26L189.36 625.26L189.36 625.26L189.36 639.06L189.36 639.06L115.98 639.06z" /></clipPath><clipPath id="13"><path id="" clip-rule="evenodd" transform="matrix(1 0 0 1 0 0)" d="M115.56 624.78L193.98 624.78L193.98 624.78L193.98 639.18L193.98 639.18L115.56 639.18z" /></clipPath><clipPath id="14"><path id="" clip-rule="evenodd" transform="matrix(1 0 0 1 0 0)" d="M0 0.02001953L595.2 0.02001953L595.2 0.02001953L595.2 842L595.2 842L0 842z" /></clipPath></defs><g transform="matrix(1.333333 0 0 1.333333 0 0)"><g clip-path="url(#1)"><g clip-path="url(#2)"><g clip-path="url(#3)"><g clip-path="url(#4)"><g transform="matrix(0.48 0 0 0.4794379 297.84 77.04004)"><g transform="matrix(1 0 0 1 0 0)"><image x="0" y="0" xlink:href="img_477.png" width="376" height="427" /></g></g></g></g></g><g clip-path="url(#5)"><g clip-path="url(#6)"><path id="239" transform="matrix(1 0 0 -1 0 842)" d="M484.8 584.12L485.28 584.12L485.28 585.14L484.8 585.14z" stroke="none" fill="#000000" fill-rule="nonzero" /><path id="240" transform="matrix(1 0 0 -1 0 842)" d="M352.62 583.58L353.1 583.58L353.1 584.6L352.62 584.6z" stroke="none" fill="#000000" fill-rule="nonzero" /><path id="241" transform="matrix(1 0 0 -1 0 842)" d="M484.8 584.12L484.8 585.14L353.1 584.6L353.1 583.58" stroke="none" fill="#000000" fill-rule="nonzero" /><path id="242" transform="matrix(1 0 0 -1 0 842)" d="M488.52 735.38L489 735.38L489 736.4L488.52 736.4z" stroke="none" fill="#000000" fill-rule="nonzero" /><path id="243" transform="matrix(1 0 0 -1 0 842)" d="M449.52 735.38L488.52 735.38L488.52 736.4L449.52 736.4z" stroke="none" fill="#000000" fill-rule="nonzero" /><path id="244" transform="matrix(1 0 0 -1 0 842)" d="M281.28 601.94L281.76 601.94L281.76 602.96L281.28 602.96z" stroke="none" fill="#000000" fill-rule="nonzero" /><path id="245" transform="matrix(1 0 0 -1 0 842)" d="M281.76 601.94L314.82 601.94L314.82 602.96L281.76 602.96z" stroke="none" fill="#000000" fill-rule="nonzero" /></g></g><g clip-path="url(#7)"><g clip-path="url(#8)"><g clip-path="url(#9)"><g transform="matrix(0.4786813 0 0 0.4788034 216.96 406.74)"><g transform="matrix(1 0 0 1 0 0)"><image x="0" y="0" xlink:href="img_478.png" width="546" height="351" /></g></g></g></g></g><g clip-path="url(#10)"><g clip-path="url(#11)"><path id="268" transform="matrix(1 0 0 -1 0 842)" d="M115.56 202.82L193.98 202.82L193.98 217.22L115.56 217.22z" stroke="none" fill="#FFFFFF" fill-rule="nonzero" /></g></g><g clip-path="url(#12)"><g clip-path="url(#13)"><g clip-path="url(#14)"><g transform="matrix(0.7265346 0 0 0.7263158 115.98 625.26)"><g transform="matrix(1 0 0 1 0 0)"><image x="0" y="0" xlink:href="img_09.png" width="101" height="19" /></g></g></g></g></g><path id="270" transform="matrix(1 0 0 -1 0 842)" d="M215.94 221.24L549 221.24L549 187.22L215.94 187.22" stroke="none" fill="#ECF5FC" fill-rule="nonzero" /></g></g></svg>