<svg xmlns="http://www.w3.org/2000/svg" xmlns:xlink="http://www.w3.org/1999/xlink" id="body_160" preserveAspectRatio="xMinYMin meet" viewBox="0 0 793 1123"><defs><clipPath id="1"><path id="" clip-rule="evenodd" transform="matrix(1 0 0 1 0 0)" d="M0 842L0 0L0 0L595 0L595 0L595 842L595 842L0 842z" /></clipPath><clipPath id="2"><path id="" clip-rule="evenodd" transform="matrix(1 0 0 1 0 0)" d="M216.96 566.58L435.66 566.58L435.66 566.58L435.66 678.78L435.66 678.78L216.96 678.78z" /></clipPath><clipPath id="3"><path id="" clip-rule="evenodd" transform="matrix(1 0 0 1 0 0)" d="M215.94 449.88L536.58 449.88L536.58 449.88L536.58 679.74L536.58 679.74L215.94 679.74z" /></clipPath><clipPath id="4"><path id="" clip-rule="evenodd" transform="matrix(1 0 0 1 0 0)" d="M0 0.02001953L595.2 0.02001953L595.2 0.02001953L595.2 842L595.2 842L0 842z" /></clipPath><clipPath id="5"><path id="" clip-rule="evenodd" transform="matrix(1 0 0 1 0 0)" d="M217.56 450.9L435.84 450.9L435.84 450.9L435.84 562.86L435.84 562.86L217.56 562.86z" /></clipPath><clipPath id="6"><path id="" clip-rule="evenodd" transform="matrix(1 0 0 1 0 0)" d="M215.94 449.88L536.58 449.88L536.58 449.88L536.58 679.74L536.58 679.74L215.94 679.74z" /></clipPath><clipPath id="7"><path id="" clip-rule="evenodd" transform="matrix(1 0 0 1 0 0)" d="M0 0.02001953L595.2 0.02001953L595.2 0.02001953L595.2 842L595.2 842L0 842z" /></clipPath><clipPath id="8"><path id="" clip-rule="evenodd" transform="matrix(1 0 0 1 0 0)" d="M215.94 449.88L536.58 449.88L536.58 449.88L536.58 679.74L536.58 679.74L215.94 679.74z" /></clipPath><clipPath id="9"><path id="" clip-rule="evenodd" transform="matrix(1 0 0 1 0 0)" d="M0 0.02001953L595.2 0.02001953L595.2 0.02001953L595.2 842L595.2 842L0 842z" /></clipPath></defs><g transform="matrix(1.333333 0 0 1.333333 0 0)"><g clip-path="url(#1)"><g clip-path="url(#2)"><g clip-path="url(#3)"><g clip-path="url(#4)"><g transform="matrix(0.4806594 0 0 0.4794872 216.96 566.58)"><g transform="matrix(1 0 0 1 0 0)"><image x="0" y="0" xlink:href="img_218.png" width="455" height="234" /></g></g></g></g></g><g clip-path="url(#5)"><g clip-path="url(#6)"><g clip-path="url(#7)"><g transform="matrix(0.4786842 0 0 0.4784616 217.56 450.9)"><g transform="matrix(1 0 0 1 0 0)"><image x="0" y="0" xlink:href="img_214.png" width="456" height="234" /></g></g></g></g></g><g clip-path="url(#8)"><g clip-path="url(#9)"></g></g></g></g></svg>