<svg xmlns="http://www.w3.org/2000/svg" xmlns:xlink="http://www.w3.org/1999/xlink" id="body_190" preserveAspectRatio="xMinYMin meet" viewBox="0 0 793 1123"><defs><clipPath id="1"><path id="" clip-rule="evenodd" transform="matrix(1 0 0 1 0 0)" d="M0 842L0 0L0 0L595 0L595 0L595 842L595 842L0 842z" /></clipPath><clipPath id="2"><path id="" clip-rule="evenodd" transform="matrix(1 0 0 1 0 0)" d="M216.96 125.04L336 125.04L336 125.04L336 326.22L336 326.22L216.96 326.22z" /></clipPath><clipPath id="3"><path id="" clip-rule="evenodd" transform="matrix(1 0 0 1 0 0)" d="M215.94 124.02L430.2 124.02L430.2 124.02L430.2 327.24L430.2 327.24L215.94 327.24z" /></clipPath><clipPath id="4"><path id="" clip-rule="evenodd" transform="matrix(1 0 0 1 0 0)" d="M0 0.02001953L595.2 0.02001953L595.2 0.02001953L595.2 842L595.2 842L0 842z" /></clipPath><clipPath id="5"><path id="" clip-rule="evenodd" transform="matrix(1 0 0 1 0 0)" d="M215.94 124.02L430.2 124.02L430.2 124.02L430.2 327.24L430.2 327.24L215.94 327.24z" /></clipPath><clipPath id="6"><path id="" clip-rule="evenodd" transform="matrix(1 0 0 1 0 0)" d="M0 0.02001953L595.2 0.02001953L595.2 0.02001953L595.2 842L595.2 842L0 842z" /></clipPath><clipPath id="7"><path id="" clip-rule="evenodd" transform="matrix(1 0 0 1 0 0)" d="M216.96 413.22L400.14 413.22L400.14 413.22L400.14 593.82L400.14 593.82L216.96 593.82z" /></clipPath><clipPath id="8"><path id="" clip-rule="evenodd" transform="matrix(1 0 0 1 0 0)" d="M215.94 412.2L401.1 412.2L401.1 412.2L401.1 594.78L401.1 594.78L215.94 594.78z" /></clipPath><clipPath id="9"><path id="" clip-rule="evenodd" transform="matrix(1 0 0 1 0 0)" d="M0 0.02001953L595.2 0.02001953L595.2 0.02001953L595.2 842L595.2 842L0 842z" /></clipPath></defs><g transform="matrix(1.333333 0 0 1.333333 0 0)"><g clip-path="url(#1)"><g clip-path="url(#2)"><g clip-path="url(#3)"><g clip-path="url(#4)"><g transform="matrix(0.4780723 0 0 0.479 216.96 125.04)"><g transform="matrix(1 0 0 1 0 0)"><image x="0" y="0" xlink:href="img_506.png" width="249" height="420" /></g></g></g></g></g><g clip-path="url(#5)"><g clip-path="url(#6)"><path id="190" transform="matrix(1 0 0 -1 0 842)" d="M350.94 590.6L352.14 593.84L352.38 594.44L352.92 594.08L363.18 586.8199L364.62 585.8L362.88 585.86L350.28 586.58L349.62 586.64L349.8 587.3L350.34 587.6L362.94 586.88L362.88 585.86L362.58 585.98L352.32 593.24L352.92 594.08L353.1 593.48L351.9 590.24" stroke="none" fill="#000000" fill-rule="nonzero" /><path id="191" transform="matrix(1 0 0 -1 0 842)" d="M349.8 587.3L350.94 590.6L351.9 590.24L350.76 586.94" stroke="none" fill="#000000" fill-rule="nonzero" /><path id="192" transform="matrix(1 0 0 -1 0 842)" d="M351.42 590.42L352.62 593.66L352.62 593.66L362.88 586.4L362.88 586.4L350.28 587.12" stroke="none" fill="#000000" fill-rule="evenodd" /><path id="193" transform="matrix(1 0 0 -1 0 842)" d="M350.76 590.06L351.24 589.88L351.6 590.84L351.12 591.02" stroke="none" fill="#000000" fill-rule="nonzero" /><path id="194" transform="matrix(1 0 0 -1 0 842)" d="M327.18 598.4L326.7 598.58L327.06 599.54L327.54 599.36" stroke="none" fill="#000000" fill-rule="nonzero" /><path id="195" transform="matrix(1 0 0 -1 0 842)" d="M350.76 590.06L351.12 591.02L327.54 599.36L327.18 598.4" stroke="none" fill="#000000" fill-rule="nonzero" /><path id="199" transform="matrix(1 0 0 -1 0 842)" d="M362.7 708.26L363.18 708.26L363.12 709.28L362.64 709.28" stroke="none" fill="#000000" fill-rule="nonzero" /><path id="200" transform="matrix(1 0 0 -1 0 842)" d="M326.76 707.12L326.28 707.12L326.22 708.14L326.7 708.14" stroke="none" fill="#000000" fill-rule="nonzero" /><path id="201" transform="matrix(1 0 0 -1 0 842)" d="M362.7 708.26L362.64 709.28L326.7 708.14L326.76 707.12" stroke="none" fill="#000000" fill-rule="nonzero" /><path id="205" transform="matrix(1 0 0 -1 0 842)" d="M364.56 639.86L365.04 639.86L365.04 640.88L364.56 640.88z" stroke="none" fill="#000000" fill-rule="nonzero" /><path id="206" transform="matrix(1 0 0 -1 0 842)" d="M298.08 639.86L364.56 639.86L364.56 640.88L298.08 640.88z" stroke="none" fill="#000000" fill-rule="nonzero" /></g></g><g clip-path="url(#7)"><g clip-path="url(#8)"><g clip-path="url(#9)"><g transform="matrix(0.4800785 0 0 0.4790451 216.96 413.22)"><g transform="matrix(1 0 0 1 0 0)"><image x="0" y="0" xlink:href="img_507.png" width="382" height="377" /></g></g></g></g></g></g></g></svg>