<svg xmlns="http://www.w3.org/2000/svg" xmlns:xlink="http://www.w3.org/1999/xlink" id="body_194" preserveAspectRatio="xMinYMin meet" viewBox="0 0 793 1123"><defs><clipPath id="1"><path id="" clip-rule="evenodd" transform="matrix(1 0 0 1 0 0)" d="M0 842L0 0L0 0L595 0L595 0L595 842L595 842L0 842z" /></clipPath></defs><g transform="matrix(1.333333 0 0 1.333333 0 0)"><g clip-path="url(#1)"><path id="369" transform="matrix(1 0 0 -1 0 842)" d="M35.94 516.08L133.8 516.08L133.8 534.02L35.94 534.02z" stroke="none" fill="#C5E0F7" fill-rule="nonzero" /><path id="375" transform="matrix(1 0 0 -1 0 842)" d="M133.8 516.08L287.88 516.08L287.88 534.02L133.8 534.02z" stroke="none" fill="#C5E0F7" fill-rule="nonzero" /><path id="378" transform="matrix(1 0 0 -1 0 842)" d="M287.88 516.08L434.4 516.08L434.4 534.02L287.88 534.02z" stroke="none" fill="#C5E0F7" fill-rule="nonzero" /><path id="382" transform="matrix(1 0 0 -1 0 842)" d="M434.4 516.08L549 516.08L549 534.02L434.4 534.02z" stroke="none" fill="#C5E0F7" fill-rule="nonzero" /><path id="743" transform="matrix(1 0 0 -1 0 842)" d="M35.94 467.84L549 467.84L549 468.32L35.94 468.32z" stroke="none" fill="#3D96E3" fill-rule="nonzero" /><path id="744" transform="matrix(1 0 0 -1 0 842)" d="M35.94 407.84L549 407.84L549 408.32L35.94 408.32z" stroke="none" fill="#3D96E3" fill-rule="nonzero" /><path id="745" transform="matrix(1 0 0 -1 0 842)" d="M35.94 359.84L549 359.84L549 360.32L35.94 360.32z" stroke="none" fill="#3D96E3" fill-rule="nonzero" /><path id="746" transform="matrix(1 0 0 -1 0 842)" d="M35.94 325.88L549 325.88L549 326.36L35.94 326.36z" stroke="none" fill="#3D96E3" fill-rule="nonzero" /><path id="747" transform="matrix(1 0 0 -1 0 842)" d="M35.94 265.88L549 265.88L549 266.36L35.94 266.36z" stroke="none" fill="#3D96E3" fill-rule="nonzero" /><path id="748" transform="matrix(1 0 0 -1 0 842)" d="M35.94 245.9L549 245.9L549 246.38L35.94 246.38z" stroke="none" fill="#3D96E3" fill-rule="nonzero" /><path id="749" transform="matrix(1 0 0 -1 0 842)" d="M35.94 177.92L549 177.92L549 178.4L35.94 178.4z" stroke="none" fill="#3D96E3" fill-rule="nonzero" /><path id="750" transform="matrix(1 0 0 -1 0 842)" d="M35.94 143.36L549 143.36L549 144.86L35.94 144.86z" stroke="none" fill="#3D96E3" fill-rule="nonzero" /></g></g></svg>