<svg xmlns="http://www.w3.org/2000/svg" xmlns:xlink="http://www.w3.org/1999/xlink" id="body_254" preserveAspectRatio="xMinYMin meet" viewBox="0 0 793 1123"><defs><clipPath id="1"><path id="" clip-rule="evenodd" transform="matrix(1 0 0 1 0 0)" d="M0 842L0 0L0 0L595 0L595 0L595 842L595 842L0 842z" /></clipPath><clipPath id="2"><path id="" clip-rule="evenodd" transform="matrix(1 0 0 1 0 0)" d="M225.96 356.94L360.78 356.94L360.78 356.94L360.78 467.46L360.78 467.46L225.96 467.46z" /></clipPath><clipPath id="3"><path id="" clip-rule="evenodd" transform="matrix(1 0 0 1 0 0)" d="M224.94 355.98L361.8 355.98L361.8 355.98L361.8 468.48L361.8 468.48L224.94 468.48z" /></clipPath><clipPath id="4"><path id="" clip-rule="evenodd" transform="matrix(1 0 0 1 0 0)" d="M0 0.02001953L595.2 0.02001953L595.2 0.02001953L595.2 842L595.2 842L0 842z" /></clipPath><clipPath id="5"><path id="" clip-rule="evenodd" transform="matrix(1 0 0 1 0 0)" d="M224.94 355.98L361.8 355.98L361.8 355.98L361.8 468.48L361.8 468.48L224.94 468.48z" /></clipPath><clipPath id="6"><path id="" clip-rule="evenodd" transform="matrix(1 0 0 1 0 0)" d="M0 0.02001953L595.2 0.02001953L595.2 0.02001953L595.2 842L595.2 842L0 842z" /></clipPath></defs><g transform="matrix(1.333333 0 0 1.333333 0 0)"><g clip-path="url(#1)"><g clip-path="url(#2)"><g clip-path="url(#3)"><g clip-path="url(#4)"><g transform="matrix(0.4797865 0 0 0.4784415 225.96 356.94)"><g transform="matrix(1 0 0 1 0 0)"><image x="0" y="0" xlink:href="img_141.png" width="281" height="231" /></g></g></g></g></g><g clip-path="url(#5)"><g clip-path="url(#6)"><path id="476" transform="matrix(1 0 0 -1 0 842)" d="M298.74 467.24L297.78 467L298.32 465.08L299.28 465.32" stroke="none" fill="#000000" fill-rule="nonzero" /><path id="477" transform="matrix(1 0 0 -1 0 842)" d="M337.74 478.52L338.7 478.76L339.24 476.84L338.28 476.6" stroke="none" fill="#000000" fill-rule="nonzero" /><path id="478" transform="matrix(1 0 0 -1 0 842)" d="M298.74 467.24L299.28 465.32L338.28 476.6L337.74 478.52" stroke="none" fill="#000000" fill-rule="nonzero" /><path id="479" transform="matrix(1 0 0 -1 0 842)" d="M255.84 428.06L256.32 428.9L254.58 429.86L254.1 429.02" stroke="none" fill="#000000" fill-rule="nonzero" /><path id="480" transform="matrix(1 0 0 -1 0 842)" d="M238.62 398.06L238.14 397.22L236.4 398.18L236.88 399.02" stroke="none" fill="#000000" fill-rule="nonzero" /><path id="481" transform="matrix(1 0 0 -1 0 842)" d="M255.84 428.06L254.1 429.02L236.88 399.02L238.62 398.06" stroke="none" fill="#000000" fill-rule="nonzero" /><path id="482" transform="matrix(1 0 0 -1 0 842)" d="M227.94 386.54L239.22 386.54L239.22 396.32L227.94 396.32z" stroke="none" fill="#FFFFFF" fill-rule="nonzero" /><path id="484" transform="matrix(1 0 0 -1 0 842)" d="M340.44 473.54L351.72 473.54L351.72 484.04L340.44 484.04z" stroke="none" fill="#FFFFFF" fill-rule="nonzero" /><path id="486" transform="matrix(1 0 0 -1 0 842)" d="M331.56 418.76L332.34 419.36L331.14 420.92L330.36 420.32" stroke="none" fill="#000000" fill-rule="nonzero" /><path id="487" transform="matrix(1 0 0 -1 0 842)" d="M294.54 390.26L293.76 389.66L292.56 391.22L293.34 391.82" stroke="none" fill="#000000" fill-rule="nonzero" /><path id="488" transform="matrix(1 0 0 -1 0 842)" d="M331.56 418.76L330.36 420.32L293.34 391.82L294.54 390.26" stroke="none" fill="#000000" fill-rule="nonzero" /><path id="489" transform="matrix(1 0 0 -1 0 842)" d="M282.96 383.78L292.74 383.78L292.74 394.28L282.96 394.28z" stroke="none" fill="#FFFFFF" fill-rule="nonzero" /></g></g></g></g></svg>