<svg xmlns="http://www.w3.org/2000/svg" xmlns:xlink="http://www.w3.org/1999/xlink" id="body_213" preserveAspectRatio="xMinYMin meet" viewBox="0 0 793 1123"><defs><clipPath id="1"><path id="" clip-rule="evenodd" transform="matrix(1 0 0 1 0 0)" d="M0 842L0 0L0 0L595 0L595 0L595 842L595 842L0 842z" /></clipPath><clipPath id="2"><path id="" clip-rule="evenodd" transform="matrix(1 0 0 1 0 0)" d="M37.98 96.71997L545.1 96.71997L545.1 96.71997L545.1 188.16L545.1 188.16L37.98 188.16z" /></clipPath><clipPath id="3"><path id="" clip-rule="evenodd" transform="matrix(1 0 0 1 0 0)" d="M35.94 78.06L546.12 78.06L546.12 78.06L546.12 229.74L546.12 229.74L35.94 229.74z" /></clipPath><clipPath id="4"><path id="" clip-rule="evenodd" transform="matrix(1 0 0 1 0 0)" d="M0 0.02001953L595.2 0.02001953L595.2 0.02001953L595.2 842L595.2 842L0 842z" /></clipPath><clipPath id="5"><path id="" clip-rule="evenodd" transform="matrix(1 0 0 1 0 0)" d="M35.94 78.06L546.12 78.06L546.12 78.06L546.12 229.74L546.12 229.74L35.94 229.74z" /></clipPath><clipPath id="6"><path id="" clip-rule="evenodd" transform="matrix(1 0 0 1 0 0)" d="M0 0.02001953L595.2 0.02001953L595.2 0.02001953L595.2 842L595.2 842L0 842z" /></clipPath><clipPath id="7"><path id="" clip-rule="evenodd" transform="matrix(1 0 0 1 0 0)" d="M36.96 416.04L239.58 416.04L239.58 416.04L239.58 603.3L239.58 603.3L36.96 603.3z" /></clipPath><clipPath id="8"><path id="" clip-rule="evenodd" transform="matrix(1 0 0 1 0 0)" d="M35.94 414.84L485.88 414.84L485.88 414.84L485.88 604.5L485.88 604.5L35.94 604.5z" /></clipPath><clipPath id="9"><path id="" clip-rule="evenodd" transform="matrix(1 0 0 1 0 0)" d="M0 0.02001953L595.2 0.02001953L595.2 0.02001953L595.2 842L595.2 842L0 842z" /></clipPath><clipPath id="10"><path id="" clip-rule="evenodd" transform="matrix(1 0 0 1 0 0)" d="M265.26 415.86L484.86 415.86L484.86 415.86L484.86 603.48L484.86 603.48L265.26 603.48z" /></clipPath><clipPath id="11"><path id="" clip-rule="evenodd" transform="matrix(1 0 0 1 0 0)" d="M35.94 414.84L485.88 414.84L485.88 414.84L485.88 604.5L485.88 604.5L35.94 604.5z" /></clipPath><clipPath id="12"><path id="" clip-rule="evenodd" transform="matrix(1 0 0 1 0 0)" d="M0 0.02001953L595.2 0.02001953L595.2 0.02001953L595.2 842L595.2 842L0 842z" /></clipPath><clipPath id="13"><path id="" clip-rule="evenodd" transform="matrix(1 0 0 1 0 0)" d="M35.94 414.84L485.88 414.84L485.88 414.84L485.88 604.5L485.88 604.5L35.94 604.5z" /></clipPath><clipPath id="14"><path id="" clip-rule="evenodd" transform="matrix(1 0 0 1 0 0)" d="M0 0.02001953L595.2 0.02001953L595.2 0.02001953L595.2 842L595.2 842L0 842z" /></clipPath><clipPath id="15"><path id="" clip-rule="evenodd" transform="matrix(1 0 0 1 0 0)" d="M115.56 717.48L193.98 717.48L193.98 717.48L193.98 731.88L193.98 731.88L115.56 731.88z" /></clipPath><clipPath id="16"><path id="" clip-rule="evenodd" transform="matrix(1 0 0 1 0 0)" d="M0 0.02001953L595.2 0.02001953L595.2 0.02001953L595.2 842L595.2 842L0 842z" /></clipPath><clipPath id="17"><path id="" clip-rule="evenodd" transform="matrix(1 0 0 1 0 0)" d="M115.98 717.96L189.36 717.96L189.36 717.96L189.36 731.76L189.36 731.76L115.98 731.76z" /></clipPath><clipPath id="18"><path id="" clip-rule="evenodd" transform="matrix(1 0 0 1 0 0)" d="M115.56 717.48L193.98 717.48L193.98 717.48L193.98 731.88L193.98 731.88L115.56 731.88z" /></clipPath><clipPath id="19"><path id="" clip-rule="evenodd" transform="matrix(1 0 0 1 0 0)" d="M0 0.02001953L595.2 0.02001953L595.2 0.02001953L595.2 842L595.2 842L0 842z" /></clipPath></defs><g transform="matrix(1.333333 0 0 1.333333 0 0)"><g clip-path="url(#1)"><g clip-path="url(#2)"><g clip-path="url(#3)"><g clip-path="url(#4)"><g transform="matrix(0.4797729 0 0 0.4787435 37.98 96.71997)"><g transform="matrix(1 0 0 1 0 0)"><image x="0" y="0" xlink:href="img_569.png" width="1057" height="191" /></g></g></g></g></g><g clip-path="url(#5)"><g clip-path="url(#6)"><path id="312" transform="matrix(1 0 0 -1 0 842)" d="M460.02 646.7L460.02 642.92L459.24 643.4L454.26 646.28L453.42 646.7L454.26 647.18L459.24 650.06L460.02 650.54L460.02 649.58L459.78 649.16L454.8 646.28L454.26 647.18L454.8 647.18L459.78 644.3L459.24 643.4L459 643.82L459 646.7" stroke="none" fill="#000000" fill-rule="nonzero" /><path id="313" transform="matrix(1 0 0 -1 0 842)" d="M459 646.7L460.02 646.7L460.02 649.58L459 649.58z" stroke="none" fill="#000000" fill-rule="nonzero" /><path id="314" transform="matrix(1 0 0 -1 0 842)" d="M459.54 646.7L459.54 643.82L459.54 643.82L454.56 646.7L454.56 646.7L459.54 649.58" stroke="none" fill="#000000" fill-rule="evenodd" /><path id="315" transform="matrix(1 0 0 -1 0 842)" d="M487.92 646.7L487.92 650.48L488.7 650L493.68 647.12L494.52 646.7L493.68 646.22L488.7 643.34L487.92 642.86L487.92 643.82L488.16 644.24L493.14 647.12L493.68 646.22L493.14 646.22L488.16 649.1L488.7 650L488.94 649.58L488.94 646.7" stroke="none" fill="#000000" fill-rule="nonzero" /><path id="316" transform="matrix(1 0 0 -1 0 842)" d="M487.92 643.82L488.94 643.82L488.94 646.7L487.92 646.7z" stroke="none" fill="#000000" fill-rule="nonzero" /><path id="317" transform="matrix(1 0 0 -1 0 842)" d="M488.4 646.7L488.4 649.58L488.4 649.58L493.38 646.7L493.38 646.7L488.4 643.82" stroke="none" fill="#000000" fill-rule="evenodd" /><path id="318" transform="matrix(1 0 0 -1 0 842)" d="M459.6 646.16L488.34 646.16L488.34 647.18L459.6 647.18z" stroke="none" fill="#000000" fill-rule="nonzero" /><path id="342" transform="matrix(1 0 0 -1 0 842)" d="M443.88 705.5L444.9 705.5L444.9 753.26L443.88 753.26z" stroke="none" fill="#000000" fill-rule="nonzero" /><path id="347" transform="matrix(1 0 0 -1 0 842)" d="M51.36 755.24L51.36 751.1L50.7 751.28L38.58 754.76L36.9 755.24L38.58 755.72L50.7 759.2L51.36 759.38L51.36 758.72L51 758.24L38.88 754.76L38.58 755.72L38.88 755.72L51 752.24L50.7 751.28L50.34 751.76L50.34 755.24" stroke="none" fill="#000000" fill-rule="nonzero" /><path id="348" transform="matrix(1 0 0 -1 0 842)" d="M50.34 755.24L51.36 755.24L51.36 758.72L50.34 758.72z" stroke="none" fill="#000000" fill-rule="nonzero" /><path id="349" transform="matrix(1 0 0 -1 0 842)" d="M50.88 755.24L50.88 751.76L50.88 751.76L38.76 755.24L38.76 755.24L50.88 758.72" stroke="none" fill="#000000" fill-rule="evenodd" /><path id="350" transform="matrix(1 0 0 -1 0 842)" d="M50.88 754.7L73.44 754.7L73.44 755.72L50.88 755.72z" stroke="none" fill="#000000" fill-rule="nonzero" /><path id="355" transform="matrix(1 0 0 -1 0 842)" d="M459.9 745.1L459.84 745.58L458.82 745.46L458.88 744.98" stroke="none" fill="#000000" fill-rule="nonzero" /><path id="356" transform="matrix(1 0 0 -1 0 842)" d="M471.3 654.5L471.36 654.02L470.34 653.9L470.28 654.38" stroke="none" fill="#000000" fill-rule="nonzero" /><path id="357" transform="matrix(1 0 0 -1 0 842)" d="M459.9 745.1L458.88 744.98L470.28 654.38L471.3 654.5" stroke="none" fill="#000000" fill-rule="nonzero" /></g></g><g clip-path="url(#7)"><g clip-path="url(#8)"><g clip-path="url(#9)"><g transform="matrix(0.4793735 0 0 0.4789258 36.96 416.04)"><g transform="matrix(1 0 0 1 0 0)"><image x="0" y="0" xlink:href="img_570.png" width="423" height="391" /></g></g></g></g></g><g clip-path="url(#10)"><g clip-path="url(#11)"><g clip-path="url(#12)"><g transform="matrix(0.479476 0 0 0.4786224 265.26 415.86)"><g transform="matrix(1 0 0 1 0 0)"><image x="0" y="0" xlink:href="img_571.png" width="458" height="392" /></g></g></g></g></g><g clip-path="url(#13)"><g clip-path="url(#14)"><path id="381" transform="matrix(1 0 0 -1 0 842)" d="M255.9 340.52L255.9 340.7L255.9 340.7L255.84 340.88L255.84 340.88L255.6 341.24L255.6 341.24L255.48 341.36L255.48 341.36L255.12 341.48L255.12 341.48L254.88 341.54L254.88 341.54L254.34 341.36L254.34 341.36L254.22 341.24L254.22 341.24L253.98 340.88L253.98 340.88L253.92 340.7L253.92 340.7L253.92 340.34L253.92 340.34L253.98 340.1L253.98 340.1L254.1 339.98L254.1 339.98L254.22 339.8L254.22 339.8L254.34 339.68L254.34 339.68L254.88 339.5L254.88 339.5L255.12 339.56L255.12 339.56L255.48 339.68L255.48 339.68L255.6 339.8L255.6 339.8L255.72 339.98L255.72 339.98L255.84 340.1L255.84 340.1L255.9 340.34L255.9 340.34L255.9 340.52" stroke="none" fill="#000000" fill-rule="evenodd" /><path id="382" transform="matrix(1 0 0 -1 0 842)" d="M254.94 340.52L254.94 344.96L255.66 344.54L261.96 340.94L262.74 340.46L262.02 340.04L255.72 336.38L254.94 335.9L254.94 336.86L255.18 337.28L261.48 340.94L262.02 340.04L261.48 340.04L255.18 343.64L255.66 344.54L255.96 344.12L255.96 340.52" stroke="none" fill="#000000" fill-rule="nonzero" /><path id="383" transform="matrix(1 0 0 -1 0 842)" d="M254.94 336.86L255.96 336.86L255.96 340.52L254.94 340.52z" stroke="none" fill="#000000" fill-rule="nonzero" /><path id="384" transform="matrix(1 0 0 -1 0 842)" d="M255.42 340.52L255.42 344.12L255.42 344.12L261.72 340.52L261.72 340.52L255.42 336.86" stroke="none" fill="#000000" fill-rule="evenodd" /><path id="385" transform="matrix(1 0 0 -1 0 842)" d="M241.5 339.5L255.84 339.5L255.84 341.48L241.5 341.48z" stroke="none" fill="#000000" fill-rule="nonzero" /><path id="386" transform="matrix(1 0 0 -1 0 842)" d="M88.74 387.08L88.68 388.16L88.68 388.1L88.5 389.12L88.25999 390.14L88.25999 390.08L87.9 391.04L87.96 390.98L87.54 391.88L87.54 391.82L87 392.72L86.7 393.14L86.75999 393.08L86.46 393.44L86.1 393.86L85.38 394.58L85.43999 394.52L85.07999 394.82L84.66 395.12L84.3 395.42L84.36 395.36L83.46 395.9L83.52 395.9L82.62 396.32L81.66 396.68L81.72 396.62L80.7 396.86L80.75999 396.86L79.74 397.04L79.8 397.04L78.72 397.1L78.78 397.1L77.7 397.04L77.75999 397.04L76.68 396.86L76.68 396.92L75.72 396.68L75.78 396.68L74.82 396.32L74.88 396.32L73.92 395.9L73.98 395.96L73.14 395.42L72.3 394.82L72.36 394.82L72 394.52L72 394.58L71.28 393.86L71.34 393.92L71.03999 393.5L70.62 393.08L70.74 393.2L70.5 392.78L70.5 392.72L69.96 391.82L69.96 391.88L69.48 390.98L69.48 391.04L69.18 390.08L68.88 389.06L68.94 389.18L68.82 388.16L68.75999 387.08L68.75999 387.14L68.82 386.06L68.82 386.12L67.8 386L67.74 387.08L67.74 387.14L67.8 388.22L67.8 388.28L67.92 389.3L67.92 389.36L68.22 390.38L68.52 391.34L68.58 391.46L69.06 392.36L69.6 393.26L69.84 393.68L69.89999 393.8L70.25999 394.16L70.2 394.1L70.5 394.52L71.28 395.3L71.34 395.3L71.7 395.6L71.7 395.66L72.53999 396.26L72.6 396.26L73.43999 396.8L73.5 396.86L74.46 397.28L75.42 397.64L75.48 397.64L76.43999 397.88L76.5 397.88L77.58 398.06L77.64 398.06L78.72 398.12L78.78 398.12L79.86 398.06L79.92 398.06L80.93999 397.88L81.96 397.64L82.02 397.64L82.98 397.28L83.04 397.22L83.93999 396.8L84 396.8L84.9 396.26L84.96 396.2L85.32 395.9L85.25999 395.96L85.68 395.66L85.74 395.6L86.1 395.3L86.88 394.52L87.24 394.1L87.54 393.74L87.84 393.32L87.9 393.26L88.43999 392.36L88.43999 392.3L88.86 391.4L89.22 390.44L89.28 390.38L89.52 389.36L89.52 389.3L89.7 388.28L89.7 388.22L89.75999 387.14" stroke="none" fill="#000000" fill-rule="nonzero" /><path id="387" transform="matrix(1 0 0 -1 0 842)" d="M68.82 386.12L68.94 385.1L68.88 385.16L69.18 384.14L69.48 383.18L69.48 383.3L69.96 382.4L70.5 381.5L70.74 381.08L70.62 381.2L71.04 380.78L71.34 380.36L71.28 380.42L72 379.7L72.36 379.4L72.3 379.46L73.14 378.86L73.98 378.32L73.92 378.38L74.88 377.96L74.82 377.96L75.78 377.6L75.72 377.6L76.68 377.36L77.76 377.18L77.7 377.18L78.78 377.12L78.72 377.12L79.8 377.18L79.74 377.18L80.76 377.36L80.7 377.36L81.72 377.6L81.66 377.6L82.62 377.96L82.62 377.9L83.52 378.32L83.46 378.32L84.36 378.86L84.3 378.8L84.66 379.1L84.66 379.16L85.08 379.46L85.08 379.4L85.44 379.7L85.38 379.7L86.1 380.42L86.1 380.36L86.46 380.78L86.76 381.14L86.7 381.14L87 381.56L87 381.5L87.54 382.4L87.54 382.34L87.96 383.24L87.9 383.24L88.26 384.2L88.26 384.14L88.5 385.16L88.5 385.1L88.68 386.12L88.68 386.06L88.74 387.14L88.74 387.08L89.76 387.14L89.76 387.08L89.7 386L89.7 385.94L89.52 384.92L89.28 383.9L89.22 383.84L88.86 382.88L88.86 382.82L88.44 381.92L88.44 381.86L87.9 380.96L87.84 380.96L87.54 380.54L87.54 380.48L87.24 380.12L86.88 379.7L86.82 379.7L86.1 378.98L86.1 378.92L85.74 378.62L85.68 378.62L85.26 378.32L85.32 378.32L84.96 378.02L84.9 377.96L84 377.42L83.94 377.42L83.04 377L82.98 377L82.02 376.64L81.96 376.58L80.94 376.34L79.92 376.16L79.86 376.16L78.78 376.1L78.72 376.1L77.64 376.16L77.58 376.16L76.5 376.34L76.44 376.4L75.48 376.64L75.42 376.64L74.46 377L73.5 377.42L73.44 377.48L72.6 378.02L72.54 378.02L71.7 378.62L71.34 378.92L70.5 379.76L70.2 380.18L70.26 380.12L69.9 380.48L69.84 380.6L69.6 381.02L69.6 380.96L69.06 381.86L69.06 381.92L68.58 382.82L68.52 382.88L68.22 383.84L67.92 384.86L67.92 384.98L67.8 386" stroke="none" fill="#000000" fill-rule="nonzero" /><path id="388" transform="matrix(1 0 0 -1 0 842)" d="M212.7 353.12L212.7 354.2L212.7 354.08L212.52 355.16L212.28 356.12L212.28 356.06L211.92 357.02L211.98 356.96L211.5 357.92L211.02 358.76L211.02 358.7L210.42 359.54L210.48 359.48L209.4 360.56L209.46 360.5L209.1 360.8L208.68 361.16L208.74 361.1L208.32 361.34L208.32 361.4L207.48 361.94L207.48 361.88L206.58 362.36L206.7 362.36L205.74 362.66L204.72 362.96L204.78 362.9L203.7 363.02L203.76 363.02L202.68 363.08L202.74 363.08L201.72 363.02L200.64 362.9L200.76 362.96L199.74 362.66L198.78 362.36L198.84 362.36L197.94 361.88L198 361.94L197.16 361.4L197.1 361.34L196.68 361.1L196.8 361.16L196.38 360.8L196.02 360.5L196.02 360.56L194.94 359.48L195 359.54L194.4 358.7L194.46 358.76L193.98 357.92L193.5 356.96L193.5 357.02L193.14 356.06L193.14 356.12L192.9 355.16L192.96 355.16L192.78 354.08L192.78 354.14L192.72 353.06L192.72 353.12L192.78 352.04L192.78 352.1L191.76 351.92L191.76 351.98L191.7 353.06L191.7 353.12L191.76 354.2L191.76 354.26L191.94 355.34L191.94 355.4L192.18 356.36L192.18 356.42L192.54 357.38L192.6 357.44L193.08 358.4L193.56 359.24L193.56 359.3L194.16 360.14L195.3 361.28L195.36 361.28L195.72 361.58L196.14 361.94L196.2 362L196.62 362.24L197.46 362.78L198.36 363.26L198.48 363.32L199.44 363.62L200.46 363.92L200.52 363.92L201.6 364.04L201.66 364.04L202.68 364.1L202.74 364.1L203.82 364.04L204.9 363.92L205.02 363.92L206.04 363.62L207 363.32L207.06 363.26L207.96 362.78L208.02 362.78L208.86 362.24L208.8 362.24L209.22 362L209.34 361.94L209.76 361.58L210.12 361.28L211.26 360.14L211.86 359.3L211.92 359.24L212.4 358.4L212.88 357.44L212.88 357.38L213.24 356.42L213.24 356.36L213.48 355.4L213.54 355.34L213.72 354.26L213.72 353.12" stroke="none" fill="#000000" fill-rule="nonzero" /><path id="389" transform="matrix(1 0 0 -1 0 842)" d="M192.78 352.1L192.96 351.08L192.96 351.14L193.2 350.12L193.14 350.18L193.5 349.22L193.5 349.28L194.46 347.48L194.4 347.54L194.7 347.18L195 346.76L194.94 346.82L196.38 345.38L196.32 345.44L197.16 344.84L198 344.3L197.94 344.3L198.84 343.88L198.78 343.94L199.74 343.58L199.68 343.58L200.7 343.34L201.78 343.16L201.72 343.16L202.74 343.1L202.68 343.1L203.76 343.16L203.7 343.16L204.78 343.34L204.72 343.34L205.74 343.58L205.68 343.58L206.64 343.94L206.64 343.88L207.54 344.3L207.48 344.3L208.32 344.84L208.26 344.84L209.1 345.44L209.04 345.38L210.48 346.82L210.42 346.76L210.72 347.18L210.78 347.18L211.08 347.54L211.02 347.48L211.98 349.28L211.92 349.22L212.28 350.18L212.28 350.12L212.52 351.14L212.52 351.08L212.7 352.1L212.7 352.04L212.7 353.12L213.72 353.12L213.72 351.92L213.54 350.9L213.3 349.88L213.24 349.82L212.88 348.86L212.88 348.8L211.92 347L211.86 346.88L211.56 346.52L211.56 346.58L211.26 346.16L209.7 344.6L208.86 344L208.02 343.46L207.96 343.4L207.06 342.98L207 342.98L206.04 342.62L205.98 342.56L204.96 342.32L203.88 342.14L203.82 342.14L202.74 342.08L202.68 342.08L201.66 342.14L201.6 342.14L200.52 342.32L200.46 342.32L199.44 342.56L199.38 342.62L198.42 342.98L197.52 343.4L197.46 343.46L196.62 344L196.56 344L195.72 344.6L194.16 346.16L193.86 346.58L193.92 346.52L193.62 346.88L193.56 347L192.6 348.8L192.54 348.86L192.18 349.82L192.18 349.88L191.94 350.9L191.76 351.92" stroke="none" fill="#000000" fill-rule="nonzero" /><path id="390" transform="matrix(1 0 0 -1 0 842)" d="M423.72 425.12L484.26 425.12L484.26 426.14L423.72 426.14z" stroke="none" fill="#000000" fill-rule="nonzero" /><path id="391" transform="matrix(1 0 0 -1 0 842)" d="M483.24 278.84L484.26 278.84L484.26 425.66L483.24 425.66z" stroke="none" fill="#000000" fill-rule="nonzero" /><path id="392" transform="matrix(1 0 0 -1 0 842)" d="M423.24 278.84L483.72 278.84L483.72 279.86L423.24 279.86z" stroke="none" fill="#000000" fill-rule="nonzero" /><path id="393" transform="matrix(1 0 0 -1 0 842)" d="M423.24 279.38L424.26 279.38L424.26 426.14L423.24 426.14z" stroke="none" fill="#000000" fill-rule="nonzero" /><path id="394" transform="matrix(1 0 0 -1 0 842)" d="M412.26 297.8L412.2 298.88L412.2 298.82L412.02 299.9L411.78 300.86L411.78 300.8L411.42 301.82L411.48 301.76L411.06 302.66L411.06 302.6L410.52 303.44L409.92 304.28L409.98 304.22L408.9 305.3L408.96 305.24L408.6 305.54L408.18 305.9L407.76 306.2L407.82 306.14L406.98 306.62L406.08 307.1L406.14 307.1L405.18 307.46L405.24 307.4L404.22 307.64L404.28 307.64L403.26 307.82L403.32 307.82L401.16 307.82L401.28 307.82L400.2 307.64L400.2 307.7L399.24 307.46L399.3 307.46L398.34 307.1L398.4 307.1L397.44 306.62L396.6 306.14L396.66 306.2L396.24 305.9L396.3 305.9L395.88 305.54L395.52 305.24L395.52 305.3L394.8 304.58L394.86 304.58L394.56 304.22L394.2 303.8L394.26 303.92L394.02 303.5L393.96 303.44L393.42 302.6L393.48 302.66L393 301.76L393 301.82L392.64 300.8L392.64 300.86L392.4 299.9L392.46 299.96L392.34 298.88L392.28 297.8L392.28 297.86L392.34 296.84L392.34 296.9L391.32 296.78L391.26 297.8L391.26 297.86L391.32 298.94L391.32 299L391.44 300.08L391.44 300.14L391.68 301.1L391.68 301.16L392.04 302.18L392.1 302.24L392.58 303.14L393.12 303.98L393.36 304.4L393.42 304.46L393.78 304.88L394.08 305.24L394.08 305.3L394.8 306.02L394.86 306.02L395.22 306.32L395.64 306.68L395.64 306.74L396.06 307.04L396.12 307.04L396.96 307.52L397.92 308L397.98 308.06L398.94 308.42L399 308.42L399.96 308.66L400.02 308.66L401.1 308.84L403.44 308.84L404.46 308.66L405.48 308.42L405.54 308.42L406.5 308.06L406.56 308L407.46 307.52L408.3 307.04L408.36 307.04L408.78 306.74L408.84 306.68L409.26 306.32L409.62 306.02L410.76 304.88L411.36 304.04L411.36 303.98L411.9 303.14L411.96 303.08L412.38 302.18L412.74 301.16L412.74 301.1L412.98 300.14L413.04 300.08L413.22 299L413.22 298.94L413.28 297.86" stroke="none" fill="#000000" fill-rule="nonzero" /><path id="395" transform="matrix(1 0 0 -1 0 842)" d="M392.34 296.9L392.46 295.82L392.46 295.88L392.7 294.86L392.64 294.92L393 293.96L393 294.02L393.48 293.12L393.42 293.12L393.96 292.28L394.02 292.28L394.26 291.86L394.2 291.92L394.56 291.5L394.86 291.14L394.8 291.2L395.88 290.12L395.82 290.18L396.66 289.58L396.6 289.58L397.44 289.1L398.4 288.62L398.34 288.68L399.3 288.32L399.24 288.32L400.2 288.08L401.28 287.9L401.22 287.9L402.3 287.84L402.24 287.84L403.32 287.9L403.26 287.9L404.28 288.08L404.22 288.08L405.24 288.32L405.18 288.32L406.14 288.68L406.08 288.62L406.98 289.1L407.82 289.58L407.76 289.58L408.6 290.18L408.54 290.12L409.98 291.56L409.92 291.5L410.52 292.34L410.52 292.28L411.06 293.12L411.06 293.06L411.48 293.96L411.42 293.96L411.78 294.92L411.78 294.86L412.02 295.88L412.02 295.82L412.2 296.9L412.2 296.84L412.26 297.86L412.26 297.8L413.28 297.86L413.28 297.8L413.22 296.78L413.22 296.72L413.04 295.64L412.8 294.62L412.74 294.56L412.38 293.6L412.38 293.54L411.96 292.64L411.9 292.58L411.36 291.74L410.76 290.9L409.2 289.34L408.36 288.74L408.3 288.68L407.46 288.2L406.56 287.72L406.5 287.72L405.54 287.36L405.48 287.3L404.46 287.06L403.44 286.88L403.38 286.88L402.3 286.82L402.24 286.82L401.16 286.88L401.1 286.88L400.02 287.06L399.96 287.12L399 287.36L398.94 287.36L397.98 287.72L397.92 287.72L396.96 288.2L396.12 288.68L396.06 288.74L395.22 289.34L394.08 290.48L393.78 290.84L393.42 291.26L393.36 291.38L393.12 291.8L393.12 291.74L392.58 292.58L392.58 292.64L392.1 293.54L392.04 293.6L391.68 294.56L391.68 294.62L391.44 295.64L391.44 295.7L391.32 296.78" stroke="none" fill="#000000" fill-rule="nonzero" /><path id="396" transform="matrix(1 0 0 -1 0 842)" d="M410.22 370.82L410.16 371.9L410.04 372.92L410.04 372.8L409.74 373.82L409.44 374.78L409.5 374.72L409.02 375.68L409.02 375.62L408.48 376.46L408.48 376.52L408.24 376.94L408.3 376.82L407.88 377.24L407.58 377.66L407.64 377.6L406.92 378.32L406.98 378.26L406.62 378.56L405.78 379.16L405.84 379.16L405 379.7L405.06 379.64L404.1 380.06L403.14 380.42L403.2 380.42L402.24 380.72L402.3 380.66L401.22 380.78L401.28 380.78L400.2 380.84L400.26 380.84L399.18 380.78L398.16 380.66L398.28 380.72L397.26 380.42L396.3 380.06L396.36 380.06L395.46 379.64L395.52 379.64L394.62 379.1L394.68 379.16L394.32 378.86L394.26 378.86L393.84 378.56L393.9 378.56L393.54 378.26L393.54 378.32L392.82 377.6L392.88 377.6L392.52 377.18L392.22 376.82L392.22 376.88L391.92 376.46L391.38 375.62L391.44 375.68L391.02 374.72L391.02 374.78L390.66 373.82L390.72 373.88L390.48 372.86L390.3 371.84L390.3 371.9L390.24 370.82L390.24 370.88L390.3 369.8L390.3 369.86L389.28 369.68L389.28 369.74L389.22 370.82L389.22 370.88L389.28 371.96L389.28 372.02L389.46 373.04L389.46 373.1L389.7 374.12L389.7 374.18L390.06 375.14L390.48 376.1L390.54 376.16L391.08 377L391.08 377.06L391.38 377.48L391.44 377.48L391.74 377.84L392.1 378.26L392.1 378.32L392.82 379.04L392.88 379.04L393.24 379.34L393.24 379.4L393.66 379.7L393.66 379.64L394.02 379.94L394.08 380L394.98 380.54L395.04 380.54L395.94 380.96L395.94 381.02L396.9 381.38L396.96 381.38L397.98 381.68L398.04 381.68L399.06 381.8L399.12 381.8L400.2 381.86L400.26 381.86L401.34 381.8L402.42 381.68L402.54 381.68L403.5 381.38L404.46 381.02L404.52 381.02L405.48 380.6L405.54 380.54L406.38 380L407.22 379.4L407.28 379.34L407.64 379.04L408.42 378.26L408.72 377.84L408.66 377.9L409.14 377.42L409.38 377L409.32 377L409.86 376.16L409.92 376.16L410.4 375.2L410.4 375.08L410.7 374.12L411 373.1L411.06 373.04L411.18 372.02L411.18 371.96L411.24 370.88" stroke="none" fill="#000000" fill-rule="nonzero" /><path id="397" transform="matrix(1 0 0 -1 0 842)" d="M390.3 369.86L390.48 368.84L390.48 368.9L390.72 367.88L390.66 367.94L391.02 366.98L391.44 366.08L391.44 366.14L391.98 365.24L391.92 365.3L392.22 364.88L392.52 364.52L392.88 364.1L392.82 364.16L393.18 363.8L393.54 363.5L393.9 363.14L393.84 363.2L394.26 362.9L394.32 362.84L394.68 362.54L394.62 362.6L395.52 362.06L395.46 362.06L396.36 361.64L396.3 361.7L397.26 361.34L397.2 361.34L398.22 361.1L399.24 360.92L399.18 360.92L400.26 360.86L400.2 360.86L401.28 360.92L401.22 360.92L402.3 361.1L402.24 361.1L403.2 361.34L403.14 361.34L404.1 361.7L405.06 362.12L405 362.06L405.84 362.6L405.78 362.6L406.62 363.2L406.56 363.14L406.92 363.5L406.98 363.5L407.34 363.8L407.28 363.8L407.64 364.16L407.58 364.1L407.88 364.52L408.3 364.94L408.24 364.82L408.48 365.24L409.02 366.14L409.5 367.04L409.44 366.92L409.74 367.88L410.04 368.9L410.04 368.84L410.16 369.86L410.16 369.8L410.22 370.88L410.22 370.82L411.24 370.88L411.24 370.82L411.18 369.74L411.06 368.72L411 368.6L410.7 367.58L410.4 366.62L410.4 366.56L409.92 365.66L409.92 365.6L409.38 364.7L409.38 364.76L409.14 364.34L408.66 363.86L408.72 363.92L408.42 363.5L408 363.08L408 363.02L407.64 362.72L407.64 362.78L407.22 362.36L406.38 361.76L405.54 361.22L405.48 361.16L404.52 360.74L404.46 360.74L403.5 360.38L403.44 360.38L402.48 360.14L402.48 360.08L401.4 359.9L401.34 359.9L400.26 359.84L400.2 359.84L399.12 359.9L399.06 359.9L398.04 360.08L397.98 360.08L396.96 360.32L396.9 360.38L395.94 360.74L395.04 361.16L394.98 361.16L394.08 361.7L394.02 361.76L393.66 362.06L393.24 362.36L392.82 362.78L392.88 362.72L392.52 363.02L392.1 363.44L391.74 363.86L391.44 364.22L391.38 364.28L391.08 364.7L390.54 365.6L390.54 365.66L390.12 366.56L390.06 366.62L389.7 367.58L389.7 367.64L389.46 368.66L389.28 369.68" stroke="none" fill="#000000" fill-rule="nonzero" /><path id="398" transform="matrix(1 0 0 -1 0 842)" d="M423.24 336.8L423.18 337.88L423.18 337.82L423 338.9L422.76 339.86L422.76 339.8L422.4 340.82L422.46 340.76L422.04 341.66L422.04 341.6L421.5 342.44L420.9 343.28L420.96 343.22L420.66 343.58L419.94 344.3L420 344.24L419.58 344.6L419.22 344.9L418.8 345.2L418.86 345.14L417.06 346.1L417.12 346.1L416.16 346.46L416.22 346.4L415.2 346.64L415.26 346.64L414.24 346.82L414.3 346.82L412.14 346.82L412.26 346.82L411.24 346.64L410.22 346.4L410.28 346.46L409.32 346.1L409.38 346.1L407.58 345.14L407.64 345.2L407.22 344.9L407.28 344.9L406.92 344.6L406.5 344.24L406.5 344.3L405.78 343.58L405.84 343.58L405.54 343.22L405.54 343.28L404.94 342.44L404.4 341.6L404.46 341.66L404.04 340.76L404.04 340.82L403.68 339.8L403.68 339.86L403.44 338.9L403.5 338.9L403.32 337.82L403.32 337.88L403.26 336.8L403.26 336.86L403.32 335.84L403.32 335.9L402.3 335.72L402.3 335.78L402.24 336.8L402.24 336.86L402.3 337.94L402.3 338L402.48 339.08L402.48 339.14L402.72 340.1L402.72 340.16L403.08 341.18L403.14 341.18L403.56 342.08L403.56 342.14L404.1 342.98L404.1 343.04L404.7 343.88L404.76 343.88L405.06 344.24L405.06 344.3L405.78 345.02L405.84 345.02L406.26 345.38L406.62 345.68L406.62 345.74L407.04 346.04L407.1 346.04L408.9 347L408.96 347.06L409.92 347.42L409.98 347.42L411 347.66L411.06 347.66L412.08 347.84L414.42 347.84L415.44 347.66L416.46 347.42L416.52 347.42L417.48 347.06L417.54 347L419.34 346.04L419.4 346.04L419.82 345.74L419.88 345.68L420.24 345.38L420.66 345.02L421.44 344.24L421.74 343.88L422.34 343.04L422.34 342.98L422.88 342.14L422.94 342.08L423.36 341.18L423.72 340.16L423.72 340.1L423.96 339.14L424.02 339.08L424.2 338L424.2 337.94L424.26 336.86" stroke="none" fill="#000000" fill-rule="nonzero" /><path id="399" transform="matrix(1 0 0 -1 0 842)" d="M403.32 335.9L403.5 334.82L403.5 334.88L403.74 333.86L403.68 333.92L404.04 332.96L404.46 332.06L404.4 332.12L404.94 331.28L404.94 331.34L405.54 330.5L405.84 330.14L405.78 330.2L406.5 329.48L406.92 329.12L407.28 328.82L407.22 328.88L407.64 328.58L407.58 328.58L409.38 327.62L409.32 327.68L410.28 327.32L410.22 327.32L411.24 327.08L412.26 326.9L412.2 326.9L413.28 326.84L413.22 326.84L414.3 326.9L414.24 326.9L415.26 327.08L415.2 327.08L416.22 327.32L416.16 327.32L417.12 327.68L417.06 327.62L418.86 328.58L418.8 328.58L419.22 328.88L419.22 328.82L419.58 329.12L420 329.48L419.94 329.48L420.66 330.2L420.66 330.14L420.96 330.5L420.9 330.5L421.5 331.34L421.5 331.28L422.04 332.12L422.04 332.06L422.46 332.96L422.4 332.96L422.76 333.92L422.76 333.86L423 334.88L423 334.82L423.18 335.9L423.18 335.84L423.24 336.86L423.24 336.8L424.26 336.86L424.26 336.8L424.2 335.78L424.2 335.72L424.02 334.64L423.78 333.62L423.72 333.56L423.36 332.6L423.36 332.54L422.94 331.64L422.88 331.58L422.34 330.74L421.74 329.9L421.74 329.84L421.44 329.48L421.38 329.48L420.66 328.76L420.66 328.7L420.24 328.34L419.88 328.04L419.82 328.04L419.4 327.74L419.34 327.68L417.54 326.72L417.48 326.72L416.52 326.36L416.46 326.3L415.44 326.06L414.42 325.88L414.36 325.88L413.28 325.82L413.22 325.82L412.14 325.88L412.08 325.88L411.06 326.06L411 326.06L409.98 326.3L409.92 326.36L408.96 326.72L408.9 326.72L407.1 327.68L407.04 327.74L406.62 328.04L406.26 328.34L405.84 328.7L405.06 329.48L404.76 329.84L404.7 329.9L404.1 330.74L403.56 331.58L403.56 331.64L403.14 332.54L403.08 332.6L402.72 333.56L402.72 333.62L402.48 334.64L402.3 335.72" stroke="none" fill="#000000" fill-rule="nonzero" /><path id="400" transform="matrix(1 0 0 -1 0 842)" d="M38.94 265.64L84.72 265.64L84.72 291.38L38.94 291.38z" stroke="none" fill="#FFFFFF" fill-rule="nonzero" /><path id="408" transform="matrix(1 0 0 -1 0 842)" d="M321.24 414.86L321.18 415.88L321.18 415.82L321 416.9L320.76 417.92L320.76 417.86L320.4 418.82L320.46 418.76L320.04 419.66L320.04 419.6L319.5 420.44L318.9 421.28L318.96 421.22L318.6 421.58L318.3 421.94L317.94 422.3L318 422.24L317.58 422.6L317.22 422.9L316.8 423.2L316.86 423.14L315.06 424.1L315.12 424.1L314.16 424.46L314.22 424.4L313.2 424.64L313.26 424.64L312.24 424.82L312.3 424.82L311.22 424.88L311.28 424.88L310.2 424.82L310.26 424.82L309.24 424.64L308.22 424.4L308.28 424.46L307.32 424.1L307.38 424.1L306.42 423.62L305.58 423.14L305.64 423.2L305.22 422.9L305.28 422.9L304.92 422.6L304.5 422.24L304.5 422.3L303.78 421.58L303.84 421.58L303.54 421.22L303.54 421.28L302.94 420.44L302.4 419.6L302.46 419.66L302.04 418.76L302.04 418.82L301.68 417.86L301.38 416.84L301.44 416.96L301.32 415.88L301.26 414.86L301.26 414.92L301.32 413.84L301.32 413.9L300.3 413.78L300.24 414.86L300.24 414.92L300.3 415.94L300.3 416L300.42 417.08L300.42 417.14L300.72 418.16L300.72 418.22L301.08 419.18L301.14 419.18L301.56 420.08L301.56 420.14L302.1 420.98L302.1 421.04L302.7 421.88L302.76 421.88L303.06 422.24L303.06 422.3L303.78 423.02L303.84 423.02L304.26 423.38L304.62 423.68L304.62 423.74L305.04 424.04L305.1 424.04L305.94 424.52L306.9 425L306.96 425.06L307.92 425.42L307.98 425.42L309 425.66L309.06 425.66L310.08 425.84L310.14 425.84L311.22 425.9L311.28 425.9L312.36 425.84L312.42 425.84L313.44 425.66L314.46 425.42L314.52 425.42L315.48 425.06L315.54 425L317.34 424.04L317.4 424.04L317.82 423.74L317.88 423.68L318.24 423.38L318.66 423.02L319.08 422.6L319.38 422.24L319.32 422.3L319.74 421.88L320.34 421.04L320.34 420.98L320.88 420.14L320.94 420.08L321.36 419.18L321.72 418.22L321.78 418.16L322.02 417.14L322.02 417.08L322.2 416L322.2 415.94L322.26 414.92" stroke="none" fill="#000000" fill-rule="nonzero" /><path id="409" transform="matrix(1 0 0 -1 0 842)" d="M301.32 413.9L301.44 412.82L301.38 412.88L301.68 411.86L301.68 411.92L302.04 410.96L302.46 410.06L302.4 410.12L302.94 409.28L302.94 409.34L303.54 408.5L303.84 408.14L303.78 408.2L304.5 407.48L304.92 407.12L305.28 406.82L305.22 406.88L305.64 406.58L305.58 406.58L306.42 406.1L307.38 405.62L307.32 405.68L308.28 405.32L308.22 405.32L309.24 405.08L310.26 404.9L310.14 404.9L312.3 404.9L312.24 404.9L313.26 405.08L313.2 405.08L314.22 405.32L314.16 405.32L315.12 405.68L315.06 405.62L316.86 406.58L316.8 406.58L317.22 406.88L317.22 406.82L317.58 407.12L318 407.48L317.94 407.48L318.3 407.84L318.3 407.78L318.6 408.14L318.6 408.2L318.96 408.56L318.9 408.5L319.5 409.34L319.5 409.28L320.04 410.12L320.04 410.06L320.46 410.96L320.4 410.96L320.76 411.92L320.76 411.86L321 412.88L321 412.82L321.18 413.9L321.18 413.84L321.24 414.92L321.24 414.86L322.26 414.92L322.26 414.86L322.2 413.78L322.2 413.72L322.02 412.64L321.78 411.62L321.72 411.56L321.36 410.6L321.36 410.54L320.94 409.64L320.88 409.58L320.34 408.74L319.74 407.9L319.32 407.48L319.38 407.48L319.08 407.12L319.02 407.12L318.66 406.76L318.66 406.7L318.24 406.34L317.88 406.04L317.82 406.04L317.4 405.74L317.34 405.68L315.54 404.72L315.48 404.72L314.52 404.36L314.46 404.3L313.44 404.06L312.42 403.88L310.08 403.88L309.06 404.06L309 404.06L307.98 404.3L307.92 404.36L306.96 404.72L306.9 404.72L305.94 405.2L305.1 405.68L305.04 405.74L304.62 406.04L304.26 406.34L303.84 406.7L303.06 407.48L302.76 407.84L302.7 407.9L302.1 408.74L301.56 409.58L301.56 409.64L301.14 410.54L301.08 410.6L300.72 411.56L300.42 412.58L300.42 412.7L300.3 413.78" stroke="none" fill="#000000" fill-rule="nonzero" /><path id="410" transform="matrix(1 0 0 -1 0 842)" d="M399.84 268.88L480.48 268.88L480.48 244.88L399.84 244.88" stroke="none" fill="#FFFFFF" fill-rule="nonzero" /><path id="425" transform="matrix(1 0 0 -1 0 842)" d="M412.38 270.02L412.02 269.66L412.74 268.94L413.1 269.3" stroke="none" fill="#000000" fill-rule="nonzero" /><path id="426" transform="matrix(1 0 0 -1 0 842)" d="M422.88 280.52L423.24 280.88L423.96 280.16L423.6 279.8" stroke="none" fill="#000000" fill-rule="nonzero" /><path id="427" transform="matrix(1 0 0 -1 0 842)" d="M412.38 270.02L413.1 269.3L423.6 279.8L422.88 280.52" stroke="none" fill="#000000" fill-rule="nonzero" /><path id="428" transform="matrix(1 0 0 -1 0 842)" d="M341.94 409.88L386.22 409.88L386.22 421.88L341.94 421.88z" stroke="none" fill="#FFFFFF" fill-rule="nonzero" /><path id="433" transform="matrix(1 0 0 -1 0 842)" d="M319.74 416.12L341.7 416.12L341.7 417.14L319.74 417.14z" stroke="none" fill="#000000" fill-rule="nonzero" /></g></g><g clip-path="url(#15)"><g clip-path="url(#16)"><path id="434" transform="matrix(1 0 0 -1 0 842)" d="M115.56 110.12L193.98 110.12L193.98 124.52L115.56 124.52z" stroke="none" fill="#FFFFFF" fill-rule="nonzero" /></g></g><g clip-path="url(#17)"><g clip-path="url(#18)"><g clip-path="url(#19)"><g transform="matrix(0.7265346 0 0 0.7263158 115.98 717.96)"><g transform="matrix(1 0 0 1 0 0)"><image x="0" y="0" xlink:href="img_09.png" width="101" height="19" /></g></g></g></g></g><path id="436" transform="matrix(1 0 0 -1 0 842)" d="M233.94 128.54L549 128.54L549 94.51999L233.94 94.51999" stroke="none" fill="#ECF5FC" fill-rule="nonzero" /></g></g></svg>