<svg xmlns="http://www.w3.org/2000/svg" xmlns:xlink="http://www.w3.org/1999/xlink" id="body_257" preserveAspectRatio="xMinYMin meet" viewBox="0 0 793 1123"><defs><clipPath id="1"><path id="" clip-rule="evenodd" transform="matrix(1 0 0 1 0 0)" d="M0 842L0 0L0 0L595 0L595 0L595 842L595 842L0 842z" /></clipPath><clipPath id="2"><path id="" clip-rule="evenodd" transform="matrix(1 0 0 1 0 0)" d="M216.96 77.03998L318.3 77.03998L318.3 77.03998L318.3 240.48L318.3 240.48L216.96 240.48z" /></clipPath><clipPath id="3"><path id="" clip-rule="evenodd" transform="matrix(1 0 0 1 0 0)" d="M215.94 76.02002L319.32 76.02002L319.32 76.02002L319.32 241.44L319.32 241.44L215.94 241.44z" /></clipPath><clipPath id="4"><path id="" clip-rule="evenodd" transform="matrix(1 0 0 1 0 0)" d="M0 0.02001953L595.2 0.02001953L595.2 0.02001953L595.2 842L595.2 842L0 842z" /></clipPath><clipPath id="5"><path id="" clip-rule="evenodd" transform="matrix(1 0 0 1 0 0)" d="M215.94 76.02002L319.32 76.02002L319.32 76.02002L319.32 241.44L319.32 241.44L215.94 241.44z" /></clipPath><clipPath id="6"><path id="" clip-rule="evenodd" transform="matrix(1 0 0 1 0 0)" d="M0 0.02001953L595.2 0.02001953L595.2 0.02001953L595.2 842L595.2 842L0 842z" /></clipPath><clipPath id="7"><path id="" clip-rule="evenodd" transform="matrix(1 0 0 1 0 0)" d="M216.96 393.42L451.5 393.42L451.5 393.42L451.5 541.26L451.5 541.26L216.96 541.26z" /></clipPath><clipPath id="8"><path id="" clip-rule="evenodd" transform="matrix(1 0 0 1 0 0)" d="M215.94 392.4L452.52 392.4L452.52 392.4L452.52 542.28L452.52 542.28L215.94 542.28z" /></clipPath><clipPath id="9"><path id="" clip-rule="evenodd" transform="matrix(1 0 0 1 0 0)" d="M0 0.02001953L595.2 0.02001953L595.2 0.02001953L595.2 842L595.2 842L0 842z" /></clipPath><clipPath id="10"><path id="" clip-rule="evenodd" transform="matrix(1 0 0 1 0 0)" d="M215.94 392.4L452.52 392.4L452.52 392.4L452.52 542.28L452.52 542.28L215.94 542.28z" /></clipPath><clipPath id="11"><path id="" clip-rule="evenodd" transform="matrix(1 0 0 1 0 0)" d="M0 0.02001953L595.2 0.02001953L595.2 0.02001953L595.2 842L595.2 842L0 842z" /></clipPath></defs><g transform="matrix(1.333333 0 0 1.333333 0 0)"><g clip-path="url(#1)"><g clip-path="url(#2)"><g clip-path="url(#3)"><g clip-path="url(#4)"><g transform="matrix(0.4791368 0 0 0.4792962 216.96 77.03998)"><g transform="matrix(1 0 0 1 0 0)"><image x="0" y="0" xlink:href="img_785.png" width="212" height="341" /></g></g></g></g></g><g clip-path="url(#5)"><g clip-path="url(#6)"><path id="257" transform="matrix(1 0 0 -1 0 842)" d="M241.62 699.02L243.6 699.02L243.6 699.98L241.62 699.98z" stroke="none" fill="#000000" fill-rule="nonzero" /><path id="258" transform="matrix(1 0 0 -1 0 842)" d="M241.62 699.98L243.6 699.98L243.6 744.14L241.62 744.14z" stroke="none" fill="#000000" fill-rule="nonzero" /><path id="259" transform="matrix(1 0 0 -1 0 842)" d="M226.02 744.8L265.44 744.8L265.44 755.66L226.02 755.66z" stroke="none" fill="#FFFFFF" fill-rule="nonzero" /></g></g><g clip-path="url(#7)"><g clip-path="url(#8)"><g clip-path="url(#9)"><g transform="matrix(0.4796319 0 0 0.48 216.96 393.42)"><g transform="matrix(1 0 0 1 0 0)"><image x="0" y="0" xlink:href="img_786.png" width="489" height="308" /></g></g></g></g></g><g clip-path="url(#10)"><g clip-path="url(#11)"><path id="264" transform="matrix(1 0 0 -1 0 842)" d="M237.96 395.06L238.98 395.06L238.98 395.54L237.96 395.54z" stroke="none" fill="#000000" fill-rule="nonzero" /><path id="265" transform="matrix(1 0 0 -1 0 842)" d="M237.96 336.08L238.98 336.08L238.98 395.06L237.96 395.06z" stroke="none" fill="#000000" fill-rule="nonzero" /><path id="266" transform="matrix(1 0 0 -1 0 842)" d="M223.98 317.84L259.2 317.84L259.2 329.84L223.98 329.84z" stroke="none" fill="#FFFFFF" fill-rule="nonzero" /><path id="270" transform="matrix(1 0 0 -1 0 842)" d="M358.98 416.3L360 416.3L360 416.78L358.98 416.78z" stroke="none" fill="#000000" fill-rule="nonzero" /><path id="271" transform="matrix(1 0 0 -1 0 842)" d="M358.98 374.84L360 374.84L360 416.3L358.98 416.3z" stroke="none" fill="#000000" fill-rule="nonzero" /><path id="272" transform="matrix(1 0 0 -1 0 842)" d="M399.96 406.28L400.98 406.28L400.98 406.76L399.96 406.76z" stroke="none" fill="#000000" fill-rule="nonzero" /><path id="273" transform="matrix(1 0 0 -1 0 842)" d="M399.96 364.88L400.98 364.88L400.98 406.28L399.96 406.28z" stroke="none" fill="#000000" fill-rule="nonzero" /><path id="274" transform="matrix(1 0 0 -1 0 842)" d="M341.94 419.3L381.72 419.3L381.72 444.08L341.94 444.08z" stroke="none" fill="#FFFFFF" fill-rule="nonzero" /><path id="281" transform="matrix(1 0 0 -1 0 842)" d="M386.94 408.8L443.22 408.8L443.22 420.8L386.94 420.8z" stroke="none" fill="#FFFFFF" fill-rule="nonzero" /></g></g></g></g></svg>