<svg xmlns="http://www.w3.org/2000/svg" xmlns:xlink="http://www.w3.org/1999/xlink" id="body_267" preserveAspectRatio="xMinYMin meet" viewBox="0 0 793 1123"><defs><clipPath id="1"><path id="" clip-rule="evenodd" transform="matrix(1 0 0 1 0 0)" d="M0 842L0 0L0 0L595 0L595 0L595 842L595 842L0 842z" /></clipPath><clipPath id="2"><path id="" clip-rule="evenodd" transform="matrix(1 0 0 1 0 0)" d="M216.96 77.03998L360.36 77.03998L360.36 77.03998L360.36 306.24L360.36 306.24L216.96 306.24z" /></clipPath><clipPath id="3"><path id="" clip-rule="evenodd" transform="matrix(1 0 0 1 0 0)" d="M215.94 76.02002L361.38 76.02002L361.38 76.02002L361.38 307.26L361.38 307.26L215.94 307.26z" /></clipPath><clipPath id="4"><path id="" clip-rule="evenodd" transform="matrix(1 0 0 1 0 0)" d="M0 0.02001953L595.2 0.02001953L595.2 0.02001953L595.2 842L595.2 842L0 842z" /></clipPath><clipPath id="5"><path id="" clip-rule="evenodd" transform="matrix(1 0 0 1 0 0)" d="M215.94 76.02002L361.38 76.02002L361.38 76.02002L361.38 307.26L361.38 307.26L215.94 307.26z" /></clipPath><clipPath id="6"><path id="" clip-rule="evenodd" transform="matrix(1 0 0 1 0 0)" d="M0 0.02001953L595.2 0.02001953L595.2 0.02001953L595.2 842L595.2 842L0 842z" /></clipPath><clipPath id="7"><path id="" clip-rule="evenodd" transform="matrix(1 0 0 1 0 0)" d="M217.5 393.24L547.26 393.24L547.26 393.24L547.26 707.88L547.26 707.88L217.5 707.88z" /></clipPath><clipPath id="8"><path id="" clip-rule="evenodd" transform="matrix(1 0 0 1 0 0)" d="M215.94 392.22L548.28 392.22L548.28 392.22L548.28 709.86L548.28 709.86L215.94 709.86z" /></clipPath><clipPath id="9"><path id="" clip-rule="evenodd" transform="matrix(1 0 0 1 0 0)" d="M0 0.02001953L595.2 0.02001953L595.2 0.02001953L595.2 842L595.2 842L0 842z" /></clipPath><clipPath id="10"><path id="" clip-rule="evenodd" transform="matrix(1 0 0 1 0 0)" d="M215.94 392.22L548.28 392.22L548.28 392.22L548.28 709.86L548.28 709.86L215.94 709.86z" /></clipPath><clipPath id="11"><path id="" clip-rule="evenodd" transform="matrix(1 0 0 1 0 0)" d="M0 0.02001953L595.2 0.02001953L595.2 0.02001953L595.2 842L595.2 842L0 842z" /></clipPath></defs><g transform="matrix(1.333333 0 0 1.333333 0 0)"><g clip-path="url(#1)"><g clip-path="url(#2)"><g clip-path="url(#3)"><g clip-path="url(#4)"><g transform="matrix(0.48 0 0 0.4794979 216.96 77.03998)"><g transform="matrix(1 0 0 1 0 0)"><image x="0" y="0" xlink:href="img_832.png" width="299" height="478" /></g></g></g></g></g><g clip-path="url(#5)"><g clip-path="url(#6)"><path id="142" transform="matrix(1 0 0 -1 0 842)" d="M270.72 724.22L310.44 724.22L310.44 727.22L270.72 727.22z" stroke="none" fill="#FF0000" fill-rule="nonzero" /><path id="143" transform="matrix(1 0 0 -1 0 842)" d="M307.44 673.94L310.44 673.94L310.44 725.72L307.44 725.72z" stroke="none" fill="#FF0000" fill-rule="nonzero" /><path id="144" transform="matrix(1 0 0 -1 0 842)" d="M269.22 673.94L308.94 673.94L308.94 676.94L269.22 676.94z" stroke="none" fill="#FF0000" fill-rule="nonzero" /><path id="145" transform="matrix(1 0 0 -1 0 842)" d="M269.22 675.44L272.22 675.44L272.22 727.22L269.22 727.22z" stroke="none" fill="#FF0000" fill-rule="nonzero" /></g></g><g clip-path="url(#7)"><g clip-path="url(#8)"><g clip-path="url(#9)"><g transform="matrix(0.48 0 0 0.4796341 217.5 393.24)"><g transform="matrix(1 0 0 1 0 0)"><image x="0" y="0" xlink:href="img_833.png" width="687" height="656" /></g></g></g></g></g><g clip-path="url(#10)"><g clip-path="url(#11)"><path id="150" transform="matrix(1 0 0 -1 0 842)" d="M330.66 143.48L331.14 144.2L331.02 144.08L331.26 144.5L331.38 144.62L331.62 144.98L331.5 144.74L331.68 145.16L331.8 145.4L332.04 145.76L331.92 145.52L332.82 147.62L332.76 147.44L332.88 147.86L332.94 148.04L333.12 148.46L333.06 148.22L333.18 148.7L333.18 148.76L333.42 149.6L333.36 149.36L333.42 149.84L333.48 150.08L333.6 150.5L333.54 150.26L333.6 150.74L333.66 151.22L333.72 151.4L333.84 151.88L333.78 151.46L333.78 152.12L333.9 153.08L333.9 152.84L333.9 153.56L333.96 154.04L333.96 153.8L333.96 155.3L333.96 155.12L333.9 155.6L333.9 156.32L333.9 156.14L333.84 156.62L333.84 157.34L333.84 157.16L333.78 157.64L333.72 157.7L333.66 158.24L333.72 158.18L333.66 158.66L333.66 158.54L333.54 159.08L333.48 159.26L333.42 159.8L333.48 159.62L333.36 160.16L333.3 160.34L333.24 160.88L333.36 160.7L333.24 161.18L333.18 161.18L336.12 161.84L336.12 161.9L336.24 161.42L336.24 161.18L336.3 160.64L336.3 160.82L336.42 160.28L336.42 160.1L336.48 159.56L336.48 159.74L336.6 159.2L336.66 159.08L336.72 158.6L336.66 158.54L336.72 158L336.78 158.06L336.84 157.58L336.84 156.8L336.84 157.04L336.9 156.56L336.9 155.78L336.9 156.02L336.96 155.54L336.96 153.8L336.9 153.62L336.84 153.14L336.9 153.32L336.9 152.84L336.84 152.66L336.78 152.18L336.72 151.7L336.78 151.94L336.78 151.52L336.72 151.16L336.6 150.68L336.6 150.8L336.48 149.84L336.48 149.66L336.36 149.24L336.36 149.42L336.3 148.94L336.3 148.76L336.18 148.34L336.06 147.92L336.06 147.98L335.88 147.26L335.7 146.84L335.76 147.02L335.64 146.6L335.58 146.42L334.68 144.32L334.5 144.08L334.26 143.72L334.44 143.96L334.26 143.54L334.08 143.3L333.84 142.94L333.9 143L333.66 142.58L333.6 142.52L333.12 141.8" stroke="none" fill="#FF0000" fill-rule="nonzero" /><path id="151" transform="matrix(1 0 0 -1 0 842)" d="M333.18 161.18L333.06 161.72L332.94 162.26L333 162.14L332.82 162.68L332.76 162.74L332.46 163.82L332.52 163.88L332.22 165.02L332.22 164.9L331.86 165.98L331.86 165.92L331.44 167.06L331.02 168.14L331.08 168.08L330.12 170.36L330.12 170.3L329.04 172.58L329.1 172.52L327.9 174.8L327.9 174.74L327.24 175.88L327.18 175.88L326.52 177.08L326.64 177.02L325.2 179.3L324.42 180.5L324.36 180.44L323.58 181.58L323.64 181.58L322.8 182.78L321.96 183.92L322.02 183.86L321.12 185L321.06 185.06L320.16 186.26L320.28 186.2L319.32 187.34L319.26 187.34L318.3 188.54L318.36 188.42L315.3 191.84L313.14 194.12L313.2 194.12L310.92 196.4L310.98 196.34L309.78 197.48L308.58 198.56L307.38 199.7L307.44 199.7L304.92 201.86L303.66 202.88L302.34 203.96L300.96 205.04L302.88 207.38L304.26 206.3L305.58 205.22L309.36 201.98L309.42 201.86L310.62 200.72L310.56 200.84L311.76 199.76L311.82 199.64L313.02 198.5L315.3 196.22L317.46 193.94L317.52 193.88L320.58 190.46L320.64 190.46L321.6 189.26L322.56 188.12L322.62 188.06L323.52 186.86L323.46 186.92L324.36 185.78L324.36 185.66L325.2 184.52L325.26 184.52L326.1 183.32L326.88 182.18L326.94 182.12L327.72 180.92L329.16 178.64L329.16 178.58L329.82 177.38L330.48 176.24L330.54 176.18L331.74 173.9L331.74 173.84L332.82 171.56L332.88 171.5L333.84 169.22L334.26 168.14L334.26 168.08L334.68 166.94L335.04 165.86L335.1 165.74L335.4 164.6L335.7 163.52L335.64 163.64L335.88 162.92L336 162.38L336.12 161.84" stroke="none" fill="#FF0000" fill-rule="nonzero" /><path id="152" transform="matrix(1 0 0 -1 0 842)" d="M300.96 205.04L299.58 206.12L299.64 206.06L296.88 208.1L294 210.14L294.06 210.14L291.18 212.06L291.24 212L289.74 212.9L288.3 213.8L286.86 214.64L285.36 215.54L285.42 215.54L282.54 217.1L282.6 217.04L281.1 217.82L281.04 217.88L279.6 218.66L279.66 218.6L278.22 219.32L278.22 219.26L276.78 219.92L275.28 220.58L273.84 221.24L273.9 221.24L271.02 222.44L271.08 222.5L269.64 223.04L269.58 222.98L268.2 223.52L268.26 223.58L266.82 224.12L266.88 224.06L265.44 224.54L264.06 225.02L264.12 224.96L261.36 225.8L258.6 226.52L258.72 226.52L257.34 226.82L256.02 227.12L256.08 227.12L252.12 227.84L252.18 227.84L250.86 228.02L250.8 227.96L249.54 228.14L249.66 228.14L247.14 228.38L247.2 228.38L245.94 228.44L244.74 228.5L244.8 228.5L244.8 231.5L244.86 231.5L246.06 231.44L247.32 231.38L247.38 231.38L249.9 231.14L249.96 231.14L251.22 230.96L252.54 230.78L252.6 230.72L256.56 230L256.68 230.06L258 229.76L259.38 229.46L259.38 229.4L262.14 228.68L262.2 228.74L264.96 227.9L265.02 227.84L266.4 227.36L267.84 226.88L267.9 226.88L269.34 226.34L270.72 225.8L272.16 225.26L272.16 225.2L275.04 224L275.1 224L276.54 223.34L276.48 223.34L277.98 222.68L278.04 222.68L279.48 222.02L279.54 221.96L280.98 221.24L281.04 221.3L282.48 220.52L283.98 219.74L286.86 218.18L286.86 218.12L288.36 217.22L289.8 216.38L289.86 216.38L291.3 215.48L291.24 215.48L292.74 214.58L292.86 214.52L295.74 212.6L298.62 210.56L298.68 210.56L301.44 208.52L301.5 208.46L302.88 207.38" stroke="none" fill="#FF0000" fill-rule="nonzero" /><path id="153" transform="matrix(1 0 0 -1 0 842)" d="M244.8 228.5L241.26 228.5L241.32 228.5L240.18 228.44L240.3 228.44L239.16 228.32L237 228.08L237.18 228.14L236.64 228.02L236.46 227.96L235.92 227.9L236.1 227.96L235.62 227.84L235.08 227.72L234.9 227.66L234.42 227.6L234.6 227.66L234.06 227.54L234.24 227.6L233.76 227.42L233.58 227.36L233.1 227.24L232.56 227.12L232.74 227.18L232.26 227L232.14 226.94L231.72 226.82L231.84 226.88L230.4 226.34L230.46 226.4L229.62 226.04L229.56 225.98L229.08 225.8L229.26 225.86L228.84 225.62L228.72 225.62L228.3 225.44L228.42 225.44L227.58 224.96L227.7 225.02L227.34 224.78L227.22 224.72L226.8 224.48L226.92 224.54L226.56 224.3L226.44 224.24L226.02 224L226.26 224.18L225.9 223.88L225.78 223.76L225.42 223.52L225.54 223.64L224.82 223.04L224.7 222.98L224.34 222.74L224.58 222.86L223.92 222.2L221.82 224.36L222.66 225.2L223.02 225.44L222.9 225.32L223.62 225.92L223.74 226.04L224.1 226.28L223.98 226.16L224.34 226.46L224.58 226.58L225 226.82L224.88 226.82L225.24 227.06L225.36 227.06L225.78 227.3L225.66 227.3L226.02 227.54L226.14 227.54L226.98 228.02L227.1 228.14L227.52 228.32L227.4 228.2L227.82 228.44L228.06 228.62L228.54 228.8L228.42 228.74L229.26 229.1L229.38 229.16L230.82 229.7L230.88 229.76L231.3 229.88L231.24 229.82L231.72 230L231.9 230.06L232.44 230.18L232.32 230.18L232.8 230.3L232.74 230.24L233.22 230.42L233.4 230.48L233.94 230.6L234 230.6L234.48 230.66L234.42 230.66L234.96 230.78L234.84 230.78L235.32 230.9L235.62 230.9L236.16 230.96L235.98 230.96L236.52 231.08L236.7 231.08L238.86 231.32L240 231.44L241.14 231.5L244.8 231.5" stroke="none" fill="#FF0000" fill-rule="nonzero" /><path id="154" transform="matrix(1 0 0 -1 0 842)" d="M223.92 222.2L222.96 221.24L223.02 221.42L222.78 221.12L221.88 220.04L221.94 220.1L221.7 219.74L221.82 219.86L221.58 219.44L221.46 219.32L220.98 218.6L221.1 218.72L220.86 218.3L220.74 218.18L220.5 217.82L220.68 218.06L219.6 215.54L219.66 215.72L219.54 215.3L219.48 215.12L219.3 214.7L219.36 214.88L219.24 214.46L219.3 214.52L219.18 214.04L219.12 213.98L219 213.56L219 213.8L218.94 213.32L218.94 213.08L218.82 212.66L218.82 212.9L218.76 212.42L218.82 212.24L218.7 211.76L218.7 211.88L218.64 211.46L218.58 211.52L218.52 211.04L218.58 211.22L218.58 210.74L218.52 210.56L218.46 210.08L218.52 210.26L218.52 209.78L218.46 209.6L218.4 209.12L218.46 209.3L218.46 207.32L218.46 207.56L218.52 207.08L218.52 206.3L218.52 206.54L218.58 206.06L218.58 206L215.58 205.7L215.58 205.64L215.52 206.12L215.52 206.84L215.52 206.66L215.46 207.14L215.46 209.48L215.52 209.96L215.52 209.78L215.52 210.44L215.58 210.92L215.58 210.74L215.58 211.4L215.64 211.88L215.7 212.3L215.76 212.48L215.88 212.96L215.82 212.78L215.88 213.26L216 213.5L216.12 213.92L216 213.68L216.06 214.16L216.18 214.4L216.3 214.82L216.24 214.76L216.36 215.24L216.42 215.3L216.54 215.72L216.54 215.9L216.72 216.32L216.72 216.14L216.84 216.56L216.84 216.74L217.92 219.26L218.04 219.5L218.28 219.86L218.22 219.8L218.46 220.22L218.52 220.28L219 221L218.94 220.94L219.18 221.36L219.24 221.42L219.6 221.96L220.5 223.04L220.44 222.98L220.68 223.28L220.86 223.4L221.82 224.36" stroke="none" fill="#FF0000" fill-rule="nonzero" /><path id="155" transform="matrix(1 0 0 -1 0 842)" d="M218.58 206L218.7 204.92L218.7 204.98L218.76 204.5L218.76 204.44L218.82 203.9L218.76 204.08L218.88 203.54L218.94 203.42L219 202.94L218.94 203.06L219.54 200.36L219.54 200.42L219.84 199.34L219.84 199.46L220.2 198.38L220.56 197.24L220.5 197.3L220.92 196.22L220.98 196.16L221.4 195.02L221.34 195.08L221.82 193.94L221.82 194L222.3 192.92L223.38 190.64L223.32 190.7L223.92 189.5L224.52 188.36L225.18 187.28L225.84 186.14L225.78 186.2L226.5 185L227.22 183.86L228 182.72L228.78 181.52L228.72 181.58L229.56 180.44L229.62 180.44L230.46 179.24L230.34 179.3L231.24 178.16L231.3 178.16L232.2 176.96L232.14 176.96L235.02 173.54L236.04 172.4L235.98 172.46L239.22 169.04L241.5 166.76L241.44 166.76L239.4 164.6L237.06 166.94L237 166.94L235.92 168.08L234.9 169.22L233.82 170.36L232.8 171.5L232.68 171.62L231.72 172.82L231.78 172.82L229.86 175.1L229.8 175.16L228.9 176.36L228.9 176.3L228 177.44L228 177.5L227.16 178.7L226.32 179.84L226.26 179.9L225.48 181.1L225.48 181.04L224.7 182.18L224.7 182.24L223.98 183.38L223.98 183.44L223.26 184.64L221.94 186.92L221.88 186.98L221.28 188.12L221.28 188.18L220.68 189.38L219.6 191.66L219.54 191.66L219.06 192.74L219.06 192.8L218.58 193.94L218.52 194L218.1 195.14L217.68 196.22L217.68 196.28L217.32 197.42L216.96 198.5L216.9 198.56L216.6 199.64L216.6 199.7L216.48 200.24L216 202.4L216 202.52L215.94 203L215.94 202.88L215.82 203.42L215.82 203.6L215.76 204.14L215.76 204.08L215.7 204.56L215.7 204.62L215.58 205.7" stroke="none" fill="#FF0000" fill-rule="nonzero" /><path id="156" transform="matrix(1 0 0 -1 0 842)" d="M241.44 166.76L242.58 165.68L243.78 164.54L243.78 164.66L245.04 163.52L248.82 160.28L248.76 160.28L250.08 159.2L251.46 158.12L251.4 158.18L252.72 157.16L254.16 156.08L255.54 155.06L255.48 155.06L256.92 154.04L261.24 151.16L261.18 151.22L262.68 150.26L264.12 149.36L264.12 149.42L267 147.74L268.5 146.9L268.44 146.9L271.32 145.34L271.2 145.34L272.7 144.62L272.76 144.56L275.64 143.12L275.58 143.18L277.02 142.52L276.96 142.58L278.46 141.92L281.34 140.72L282.72 140.18L285.6 139.1L285.54 139.16L286.92 138.68L286.8 138.68L288.24 138.26L288.3 138.26L291.06 137.42L291 137.42L295.14 136.34L296.46 136.04L296.34 136.04L297.66 135.8L297.18 132.86L295.86 133.1L295.8 133.16L294.48 133.46L294.36 133.4L290.22 134.48L290.22 134.54L287.46 135.38L286.02 135.8L285.96 135.8L284.58 136.28L284.52 136.34L281.64 137.42L281.58 137.36L280.2 137.9L277.32 139.1L277.32 139.16L275.82 139.82L274.38 140.48L274.32 140.48L271.44 141.92L269.94 142.64L269.88 142.7L267 144.26L265.5 145.1L265.44 145.1L262.56 146.78L261.12 147.68L261.06 147.74L259.56 148.7L255.24 151.58L253.8 152.6L252.42 153.62L252.36 153.68L250.92 154.76L249.6 155.78L248.22 156.86L248.16 156.92L246.84 158L243.06 161.24L243 161.24L241.74 162.38L240.54 163.52L239.4 164.6" stroke="none" fill="#FF0000" fill-rule="nonzero" /><path id="157" transform="matrix(1 0 0 -1 0 842)" d="M297.66 135.8L300.3 135.32L300.24 135.32L301.56 135.14L302.82 134.96L302.76 134.96L305.28 134.72L305.22 134.78L306.42 134.72L307.68 134.66L307.62 134.66L309.96 134.66L309.84 134.6L311.04 134.66L312.18 134.72L313.26 134.78L313.2 134.84L313.8 134.9L314.88 135.02L314.76 134.96L315.3 135.08L315.42 135.14L315.96 135.2L315.72 135.14L316.44 135.32L316.98 135.38L316.86 135.32L317.4 135.44L317.28 135.44L317.76 135.56L317.88 135.56L318.42 135.68L318.3 135.68L319.74 136.04L319.62 135.98L320.58 136.34L320.7 136.4L321.18 136.52L321.06 136.46L321.54 136.64L321.48 136.64L321.9 136.82L321.96 136.82L322.44 137L322.38 137L322.8 137.18L322.68 137.18L323.16 137.42L323.28 137.42L323.7 137.6L323.52 137.48L323.94 137.72L324.12 137.84L324.54 138.02L324.36 137.9L324.78 138.14L324.72 138.14L325.08 138.38L325.14 138.38L325.56 138.62L325.5 138.62L325.86 138.86L325.8 138.8L327.54 136.34L327.18 136.1L327.06 136.04L326.64 135.8L326.76 135.86L326.4 135.62L326.28 135.56L325.86 135.32L325.68 135.26L325.26 135.08L325.44 135.14L325.02 134.9L324.84 134.84L324.42 134.66L324.54 134.72L323.94 134.42L323.52 134.24L323.04 134.06L322.62 133.88L322.14 133.7L321.9 133.58L321.42 133.46L321.66 133.58L320.7 133.22L320.46 133.1L319.02 132.74L318.48 132.62L318 132.5L317.46 132.38L317.34 132.38L316.8 132.32L316.92 132.32L316.44 132.2L316.32 132.2L315.78 132.14L315.9 132.14L315.36 132.02L315.24 132.02L314.16 131.9L313.56 131.84L313.44 131.84L312.36 131.78L311.22 131.72L310.02 131.66L309.96 131.6L307.62 131.6L307.56 131.66L306.3 131.72L305.1 131.78L305.04 131.78L302.52 132.02L302.4 131.96L301.14 132.14L301.2 132.2L299.88 132.38L299.82 132.38L297.18 132.86" stroke="none" fill="#FF0000" fill-rule="nonzero" /><path id="158" transform="matrix(1 0 0 -1 0 842)" d="M325.8 138.8L326.22 139.1L326.28 139.16L327 139.64L326.82 139.52L327.9 140.42L327.84 140.3L328.14 140.6L328.2 140.72L328.56 141.02L328.5 140.9L328.8 141.2L328.68 141.14L328.98 141.5L329.1 141.56L329.4 141.86L329.28 141.8L329.88 142.52L330 142.58L330.3 142.88L330.12 142.7L330.36 143.06L330.66 143.48L333.12 141.8L332.82 141.38L332.58 141.02L332.4 140.78L332.1 140.48L332.22 140.6L331.62 139.88L331.2 139.46L331.32 139.58L331.02 139.22L330.6 138.8L330.48 138.74L330.12 138.44L330.24 138.5L329.94 138.2L329.82 138.14L328.74 137.24L328.68 137.12L327.96 136.64L327.54 136.34" stroke="none" fill="#FF0000" fill-rule="nonzero" /><path id="159" transform="matrix(1 0 0 -1 0 842)" d="M482.4 236.9L482.58 237.74L482.64 237.8L482.82 238.58L482.76 238.46L482.88 239.24L483 240.08L483.12 240.86L483.18 240.74L483.24 241.52L483.18 241.4L483.18 243.8L483.24 243.74L483.18 244.58L483.18 244.52L483.12 245.3L483.12 245.36L483.06 246.2L483 246.08L482.88 246.86L482.94 246.74L482.76 247.52L482.58 248.3L482.4 249.14L482.4 249.02L481.68 251.36L481.74 251.24L481.14 252.8L481.2 252.74L480.84 253.52L480.78 253.58L480.48 254.36L480.6 254.18L480.18 254.9L480.12 255.02L479.76 255.8L479.88 255.56L479.28 256.46L478.86 257.24L478.98 257.06L477.54 259.22L477.6 259.16L476.52 260.6L476.52 260.54L475.92 261.26L475.92 261.32L475.38 262.04L475.5 261.92L474.78 262.64L474.18 263.3L474.24 263.24L472.26 265.22L472.32 265.16L471.6 265.82L471.66 265.76L470.94 266.36L470.88 266.42L472.86 268.64L473.58 268.04L474.3 267.38L476.4 265.28L477 264.62L476.94 264.68L477.78 263.84L478.32 263.12L478.26 263.18L478.86 262.46L478.92 262.4L480 260.96L480.06 260.96L481.02 259.52L481.44 258.8L481.5 258.62L481.92 257.84L481.86 258.02L482.34 257.3L482.46 257.06L482.82 256.28L482.76 256.4L483.18 255.68L483.24 255.44L483.54 254.66L483.54 254.78L483.9 254L483.9 253.88L484.5 252.32L484.56 252.26L485.28 249.92L485.34 249.74L485.52 248.9L485.46 248.96L485.82 247.4L485.88 247.28L486 246.5L486 246.38L486.06 245.54L486.12 244.76L486.18 243.92L486.18 241.28L486.12 240.5L486.12 240.38L486 239.6L486 239.66L485.88 238.82L485.88 238.76L485.76 237.98L485.76 237.92L485.58 237.14L485.4 236.3" stroke="none" fill="#FF0000" fill-rule="nonzero" /><path id="160" transform="matrix(1 0 0 -1 0 842)" d="M470.88 266.42L470.16 267.08L470.28 267.02L468.72 268.22L468.72 268.16L467.94 268.7L467.94 268.76L467.16 269.36L467.22 269.24L463.86 271.4L463.98 271.34L461.28 272.78L460.32 273.26L460.38 273.26L459.48 273.68L458.52 274.1L458.58 274.04L457.56 274.46L457.5 274.52L456.54 274.94L456.66 274.88L455.64 275.24L454.68 275.6L453.66 275.96L453.72 275.96L452.64 276.32L452.7 276.32L451.68 276.62L450.6 276.92L450.66 276.86L449.64 277.1L447.48 277.58L446.46 277.82L446.58 277.82L444.42 278.18L444.48 278.18L443.46 278.3L442.38 278.42L441.36 278.54L441.42 278.48L440.4 278.54L440.34 278.6L439.32 278.72L439.5 278.72L438.42 278.72L438.3 278.66L437.28 278.72L437.4 278.78L435.42 278.78L435.48 278.72L433.44 278.6L432.48 278.54L432.54 278.6L432.24 281.54L433.2 281.6L435.24 281.72L437.46 281.72L438.48 281.66L438.42 281.66L439.68 281.66L440.7 281.54L440.58 281.54L441.6 281.48L441.72 281.48L442.74 281.36L442.68 281.36L443.76 281.24L443.82 281.24L444.84 281.12L444.9 281.12L447.06 280.76L447.12 280.76L448.14 280.52L450.3 280.04L451.32 279.8L451.38 279.8L452.46 279.5L452.52 279.5L453.54 279.2L453.6 279.14L454.68 278.78L455.7 278.42L455.76 278.42L456.72 278.06L456.66 278.06L457.68 277.7L457.74 277.64L458.7 277.22L458.7 277.28L459.72 276.86L459.72 276.8L460.68 276.38L460.74 276.38L461.64 275.96L462.6 275.48L462.66 275.42L465.36 273.98L465.48 273.98L468.84 271.82L468.96 271.7L469.74 271.1L469.68 271.16L470.46 270.62L470.52 270.56L472.08 269.36L472.14 269.3L472.86 268.64" stroke="none" fill="#FF0000" fill-rule="nonzero" /><path id="161" transform="matrix(1 0 0 -1 0 842)" d="M432.54 278.6L431.52 278.48L431.46 278.48L430.5 278.42L430.68 278.42L429.72 278.24L429.66 278.24L428.7 278.12L428.76 278.12L427.8 277.94L426.9 277.76L425.94 277.58L426.06 277.58L423.36 276.86L423.42 276.92L422.58 276.62L421.68 276.32L420 275.72L420.18 275.72L418.5 275L418.5 275.06L416.94 274.34L417 274.4L415.44 273.56L415.56 273.56L414.84 273.08L414.78 273.08L414.06 272.66L414.12 272.66L412.68 271.7L412.74 271.76L412.08 271.28L412.2 271.34L411.54 270.8L411.54 270.86L410.94 270.32L410.94 270.26L410.28 269.72L410.28 269.78L409.68 269.24L409.74 269.3L409.14 268.7L409.2 268.7L407.58 266.9L407.7 267.08L406.26 265.1L406.26 265.16L405.42 263.84L405.48 263.9L405.06 263.18L405.12 263.3L404.4 261.86L404.4 261.92L401.64 263.06L402.42 264.62L402.48 264.68L402.9 265.4L402.9 265.46L403.74 266.78L403.8 266.84L405.24 268.82L405.36 268.94L406.98 270.74L407.64 271.4L407.64 271.46L408.24 272L408.36 272.06L409.02 272.6L408.9 272.54L409.5 273.08L409.62 273.14L410.28 273.68L410.34 273.68L411 274.16L411 274.22L412.44 275.18L412.5 275.24L413.22 275.66L413.16 275.6L413.88 276.08L414 276.2L415.56 277.04L415.68 277.04L417.24 277.76L417.3 277.76L418.98 278.48L419.04 278.54L420.72 279.14L420.72 279.2L421.62 279.5L421.62 279.44L422.46 279.74L422.58 279.74L425.28 280.46L425.34 280.52L426.3 280.7L427.2 280.88L428.16 281.06L428.34 281.06L429.3 281.18L429.12 281.18L430.08 281.36L430.26 281.36L431.22 281.42L432.24 281.54" stroke="none" fill="#FF0000" fill-rule="nonzero" /><path id="162" transform="matrix(1 0 0 -1 0 842)" d="M404.4 261.92L404.1 261.2L404.16 261.2L403.86 260.42L403.8 260.42L403.5 259.7L403.56 259.82L403.08 258.26L403.14 258.38L402.96 257.54L402.78 256.76L402.78 256.82L402.66 256.04L402.66 256.1L402.54 255.26L402.54 255.2L402.42 254.42L402.42 254.54L402.36 253.76L402.36 253.88L402.36 251.48L402.36 251.6L402.42 250.76L402.54 249.2L402.54 249.38L402.66 248.54L402.6 248.6L402.78 247.82L402.96 247.04L403.02 247.04L403.2 246.2L403.14 246.2L403.32 245.42L403.26 245.6L403.56 244.82L403.62 244.76L403.86 243.98L403.8 244.04L404.4 242.48L404.4 242.6L404.76 241.82L404.76 241.76L405.06 241.04L405 241.22L405.42 240.44L405.48 240.32L405.84 239.54L405.78 239.78L406.26 239.06L406.26 238.94L406.68 238.16L406.68 238.28L407.16 237.56L407.58 236.84L408.06 236.12L409.14 234.68L409.08 234.74L409.68 234.02L410.22 233.36L410.16 233.48L410.82 232.76L411.42 232.1L411.36 232.1L409.26 230L409.2 230.06L408.6 230.72L407.94 231.44L407.88 231.44L407.34 232.1L406.74 232.82L406.68 232.88L405.6 234.32L405.6 234.44L404.16 236.6L404.04 236.72L403.62 237.5L403.74 237.38L403.14 238.28L402.78 239.06L402.78 239L402.36 239.78L402.3 239.9L402 240.62L402.06 240.56L401.7 241.34L401.64 241.46L401.04 243.02L400.98 243.08L400.74 243.86L400.8 243.8L400.5 244.58L400.44 244.76L400.26 245.54L400.08 246.38L399.9 247.16L399.72 247.94L399.66 248.06L399.54 248.9L399.6 248.96L399.48 250.52L399.48 250.58L399.42 251.42L399.36 251.48L399.36 253.88L399.42 254L399.48 254.78L399.42 254.9L399.54 255.68L399.66 256.52L399.78 257.3L399.84 257.42L400.02 258.2L400.02 258.14L400.2 258.98L400.2 259.16L400.68 260.72L400.74 260.84L401.04 261.56L401.04 261.5L401.34 262.28L401.34 262.34L401.64 263.06" stroke="none" fill="#FF0000" fill-rule="nonzero" /><path id="163" transform="matrix(1 0 0 -1 0 842)" d="M411.36 232.1L413.34 230.12L413.28 230.18L414 229.52L413.94 229.52L415.38 228.32L416.16 227.66L416.1 227.78L416.88 227.24L416.94 227.18L418.5 225.98L418.38 226.1L420.9 224.48L420.84 224.48L421.68 224L422.58 223.46L422.52 223.46L424.32 222.5L424.26 222.56L425.22 222.08L426.12 221.66L426.06 221.66L427.02 221.24L426.96 221.3L427.98 220.88L428.04 220.82L429 220.4L428.94 220.46L429.9 220.1L429.84 220.1L431.88 219.38L431.82 219.44L432.9 219.14L432.96 219.08L433.98 218.72L433.92 218.78L435 218.48L434.94 218.48L435.96 218.24L438.12 217.76L439.14 217.52L439.08 217.52L441.24 217.16L441.12 217.16L442.14 217.04L442.08 217.04L443.16 216.92L443.22 216.92L444.24 216.8L444.12 216.8L446.16 216.68L447.24 216.62L448.26 216.56L448.2 216.56L448.26 213.62L448.08 213.56L447.06 213.62L445.98 213.68L443.94 213.8L443.88 213.86L442.86 213.98L441.78 214.1L440.76 214.22L438.6 214.58L438.48 214.58L437.46 214.82L435.3 215.3L434.28 215.54L434.22 215.6L433.14 215.9L433.02 215.9L432 216.26L432.12 216.26L431.04 216.56L430.92 216.56L428.88 217.28L427.92 217.64L427.8 217.7L426.84 218.12L426.9 218.06L425.88 218.48L425.82 218.54L424.86 218.96L423.96 219.38L423.9 219.38L422.94 219.86L421.14 220.82L421.02 220.88L420.12 221.42L420.18 221.42L419.34 221.9L419.28 221.9L416.76 223.52L416.64 223.64L415.08 224.84L415.14 224.78L414.36 225.32L414.3 225.38L413.52 226.04L412.08 227.24L412.02 227.3L411.3 227.96L409.26 230" stroke="none" fill="#FF0000" fill-rule="nonzero" /><path id="164" transform="matrix(1 0 0 -1 0 842)" d="M448.2 216.56L449.22 216.56L449.1 216.56L450.06 216.62L451.2 216.62L451.08 216.62L452.1 216.68L453.06 216.74L453 216.74L454.02 216.86L456.9 217.22L456.78 217.22L457.74 217.4L458.64 217.58L459.6 217.76L459.54 217.7L462.24 218.42L462.12 218.42L462.96 218.72L462.96 218.78L463.86 219.08L463.86 219.02L465.54 219.62L465.42 219.56L467.1 220.28L467.88 220.64L467.76 220.58L468.54 221L468.66 221.06L469.44 221.42L469.32 221.36L470.1 221.78L469.98 221.72L470.7 222.2L470.76 222.26L471.48 222.68L471.42 222.62L472.86 223.58L472.74 223.46L473.4 224L473.52 224.06L474.18 224.54L474 224.48L474.6 225.02L474.66 225.02L475.32 225.56L475.26 225.5L475.86 226.1L475.86 226.16L476.46 226.7L476.4 226.58L478.02 228.38L477.9 228.26L479.34 230.24L479.28 230.18L481.8 228.56L481.8 228.5L480.36 226.52L480.24 226.34L478.62 224.54L478.5 224.48L477.9 223.94L477.96 223.94L477.36 223.34L477.24 223.28L476.58 222.74L476.64 222.8L476.04 222.26L475.92 222.14L475.26 221.66L475.32 221.72L474.66 221.18L474.54 221.06L473.1 220.1L473.04 220.1L472.32 219.68L472.38 219.68L471.66 219.2L471.54 219.2L470.76 218.78L470.7 218.72L469.92 218.36L469.98 218.42L469.2 218L469.14 217.94L468.36 217.58L468.3 217.52L466.62 216.8L466.5 216.8L464.82 216.2L463.92 215.9L463.08 215.6L463.02 215.54L460.32 214.82L460.2 214.82L459.24 214.64L458.34 214.46L457.38 214.28L457.32 214.28L454.44 213.92L454.38 213.92L453.36 213.8L453.3 213.74L452.34 213.68L450.24 213.68L450.3 213.68L449.34 213.62L448.26 213.62" stroke="none" fill="#FF0000" fill-rule="nonzero" /><path id="165" transform="matrix(1 0 0 -1 0 842)" d="M479.28 230.18L480.12 231.5L480.06 231.44L480.48 232.16L480.48 232.1L481.2 233.54L481.14 233.42L481.44 234.14L481.38 234.08L481.68 234.86L481.74 234.92L482.04 235.64L481.98 235.52L482.46 237.08L482.4 236.9L485.4 236.3L485.34 236.18L484.86 234.62L484.8 234.44L484.5 233.72L484.5 233.78L484.2 233L484.2 232.94L483.9 232.22L483.9 232.16L483.18 230.72L483.06 230.66L482.64 229.94L482.64 229.88L481.8 228.56" stroke="none" fill="#FF0000" fill-rule="nonzero" /></g></g></g></g></svg>