<svg xmlns="http://www.w3.org/2000/svg" xmlns:xlink="http://www.w3.org/1999/xlink" id="body_156" preserveAspectRatio="xMinYMin meet" viewBox="0 0 793 1123"><defs><clipPath id="1"><path id="" clip-rule="evenodd" transform="matrix(1 0 0 1 0 0)" d="M0 842L0 0L0 0L595 0L595 0L595 842L595 842L0 842z" /></clipPath><clipPath id="2"><path id="" clip-rule="evenodd" transform="matrix(1 0 0 1 0 0)" d="M73.98 279.06L205.98 279.06L205.98 279.06L205.98 313.14L205.98 313.14L73.98 313.14z" /></clipPath><clipPath id="3"><path id="" clip-rule="evenodd" transform="matrix(1 0 0 1 0 0)" d="M72.96 278.1L206.94 278.1L206.94 278.1L206.94 314.16L206.94 314.16L72.96 314.16z" /></clipPath><clipPath id="4"><path id="" clip-rule="evenodd" transform="matrix(1 0 0 1 0 0)" d="M0 0.02001953L595.2 0.02001953L595.2 0.02001953L595.2 842L595.2 842L0 842z" /></clipPath></defs><g transform="matrix(1.333333 0 0 1.333333 0 0)"><g clip-path="url(#1)"><path id="661" transform="matrix(1 0 0 -1 0 842)" d="M242.94 769.94L558 769.94L558 722L242.94 722" stroke="none" fill="#ECF5FC" fill-rule="nonzero" /><g clip-path="url(#2)"><g clip-path="url(#3)"><g clip-path="url(#4)"><g transform="matrix(0.48 0 0 0.48 73.98 279.06)"><g transform="matrix(1 0 0 1 0 0)"><image x="0" y="0" xlink:href="img_369.png" width="275" height="71" /></g></g></g></g></g><path id="718" transform="matrix(1 0 0 -1 0 842)" d="M242.94 373.7L558 373.7L558 339.74L242.94 339.74" stroke="none" fill="#ECF5FC" fill-rule="nonzero" /></g></g></svg>