<svg xmlns="http://www.w3.org/2000/svg" xmlns:xlink="http://www.w3.org/1999/xlink" id="body_43" preserveAspectRatio="xMinYMin meet" viewBox="0 0 793 1123"><defs><clipPath id="1"><path id="" clip-rule="evenodd" transform="matrix(1 0 0 1 0 0)" d="M0 842L0 0L0 0L595 0L595 0L595 842L595 842L0 842z" /></clipPath><clipPath id="2"><path id="" clip-rule="evenodd" transform="matrix(1 0 0 1 0 0)" d="M45.96 80.21997L249.3 80.21997L249.3 80.21997L249.3 318.36L249.3 318.36L45.96 318.36z" /></clipPath><clipPath id="3"><path id="" clip-rule="evenodd" transform="matrix(1 0 0 1 0 0)" d="M44.94 78.06L538.98 78.06L538.98 78.06L538.98 319.38L538.98 319.38L44.94 319.38z" /></clipPath><clipPath id="4"><path id="" clip-rule="evenodd" transform="matrix(1 0 0 1 0 0)" d="M0 0.02001953L595.2 0.02001953L595.2 0.02001953L595.2 842L595.2 842L0 842z" /></clipPath><clipPath id="5"><path id="" clip-rule="evenodd" transform="matrix(1 0 0 1 0 0)" d="M322.2 79.02002L537.96 79.02002L537.96 79.02002L537.96 317.82L537.96 317.82L322.2 317.82z" /></clipPath><clipPath id="6"><path id="" clip-rule="evenodd" transform="matrix(1 0 0 1 0 0)" d="M44.94 78.06L538.98 78.06L538.98 78.06L538.98 319.38L538.98 319.38L44.94 319.38z" /></clipPath><clipPath id="7"><path id="" clip-rule="evenodd" transform="matrix(1 0 0 1 0 0)" d="M0 0.02001953L595.2 0.02001953L595.2 0.02001953L595.2 842L595.2 842L0 842z" /></clipPath><clipPath id="8"><path id="" clip-rule="evenodd" transform="matrix(1 0 0 1 0 0)" d="M44.94 78.06L538.98 78.06L538.98 78.06L538.98 319.38L538.98 319.38L44.94 319.38z" /></clipPath><clipPath id="9"><path id="" clip-rule="evenodd" transform="matrix(1 0 0 1 0 0)" d="M0 0.02001953L595.2 0.02001953L595.2 0.02001953L595.2 842L595.2 842L0 842z" /></clipPath><clipPath id="10"><path id="" clip-rule="evenodd" transform="matrix(1 0 0 1 0 0)" d="M45.96 529.8L317.52 529.8L317.52 529.8L317.52 729.42L317.52 729.42L45.96 729.42z" /></clipPath><clipPath id="11"><path id="" clip-rule="evenodd" transform="matrix(1 0 0 1 0 0)" d="M44.94 521.34L524.94 521.34L524.94 521.34L524.94 738.18L524.94 738.18L44.94 738.18z" /></clipPath><clipPath id="12"><path id="" clip-rule="evenodd" transform="matrix(1 0 0 1 0 0)" d="M0 0.02001953L595.2 0.02001953L595.2 0.02001953L595.2 842L595.2 842L0 842z" /></clipPath><clipPath id="13"><path id="" clip-rule="evenodd" transform="matrix(1 0 0 1 0 0)" d="M44.94 521.34L524.94 521.34L524.94 521.34L524.94 738.18L524.94 738.18L44.94 738.18z" /></clipPath><clipPath id="14"><path id="" clip-rule="evenodd" transform="matrix(1 0 0 1 0 0)" d="M0 0.02001953L595.2 0.02001953L595.2 0.02001953L595.2 842L595.2 842L0 842z" /></clipPath><clipPath id="15"><path id="" clip-rule="evenodd" transform="matrix(1 0 0 1 0 0)" d="M331.44 522.3L523.92 522.3L523.92 522.3L523.92 737.22L523.92 737.22L331.44 737.22z" /></clipPath><clipPath id="16"><path id="" clip-rule="evenodd" transform="matrix(1 0 0 1 0 0)" d="M44.94 521.34L524.94 521.34L524.94 521.34L524.94 738.18L524.94 738.18L44.94 738.18z" /></clipPath><clipPath id="17"><path id="" clip-rule="evenodd" transform="matrix(1 0 0 1 0 0)" d="M0 0.02001953L595.2 0.02001953L595.2 0.02001953L595.2 842L595.2 842L0 842z" /></clipPath><clipPath id="18"><path id="" clip-rule="evenodd" transform="matrix(1 0 0 1 0 0)" d="M44.94 521.34L524.94 521.34L524.94 521.34L524.94 738.18L524.94 738.18L44.94 738.18z" /></clipPath><clipPath id="19"><path id="" clip-rule="evenodd" transform="matrix(1 0 0 1 0 0)" d="M0 0.02001953L595.2 0.02001953L595.2 0.02001953L595.2 842L595.2 842L0 842z" /></clipPath></defs><g transform="matrix(1.333333 0 0 1.333333 0 0)"><g clip-path="url(#1)"><g clip-path="url(#2)"><g clip-path="url(#3)"><g clip-path="url(#4)"><g transform="matrix(0.478447 0 0 0.480121 45.96 80.21997)"><g transform="matrix(1 0 0 1 0 0)"><image x="0" y="0" xlink:href="img_105.png" width="425" height="496" /></g></g></g></g></g><g clip-path="url(#5)"><g clip-path="url(#6)"><g clip-path="url(#7)"><g transform="matrix(0.4794667 0 0 0.4795181 322.2 79.02002)"><g transform="matrix(1 0 0 1 0 0)"><image x="0" y="0" xlink:href="img_106.png" width="450" height="498" /></g></g></g></g></g><g clip-path="url(#8)"><g clip-path="url(#9)"><path id="295" transform="matrix(1 0 0 -1 0 842)" d="M326.46 526.34L375.48 526.34L375.48 548.1801L326.46 548.1801z" stroke="none" fill="#FFFFFF" fill-rule="nonzero" /><path id="303" transform="matrix(1 0 0 -1 0 842)" d="M397.92 669.98L398.16 670.4L397.26 670.88L397.02 670.46" stroke="none" fill="#000000" fill-rule="nonzero" /><path id="304" transform="matrix(1 0 0 -1 0 842)" d="M336.42 549.2L336.18 548.78L335.28 549.26L335.52 549.68" stroke="none" fill="#000000" fill-rule="nonzero" /><path id="305" transform="matrix(1 0 0 -1 0 842)" d="M397.92 669.98L397.02 670.46L335.52 549.68L336.42 549.2" stroke="none" fill="#000000" fill-rule="nonzero" /></g></g><g clip-path="url(#10)"><g clip-path="url(#11)"><g clip-path="url(#12)"><g transform="matrix(0.4789418 0 0 0.478705 45.96 529.8)"><g transform="matrix(1 0 0 1 0 0)"><image x="0" y="0" xlink:href="img_107.png" width="567" height="417" /></g></g></g></g></g><g clip-path="url(#13)"><g clip-path="url(#14)"><path id="327" transform="matrix(1 0 0 -1 0 842)" d="M244.86 163.94L314.52 163.94L314.52 175.28L244.86 175.28z" stroke="none" fill="#FFFFFF" fill-rule="nonzero" /><path id="334" transform="matrix(1 0 0 -1 0 842)" d="M211.08 171.44L211.56 171.44L211.56 172.46L211.08 172.46z" stroke="none" fill="#000000" fill-rule="nonzero" /><path id="335" transform="matrix(1 0 0 -1 0 842)" d="M240.12 170.78L240.6 170.78L240.6 171.8L240.12 171.8z" stroke="none" fill="#000000" fill-rule="nonzero" /><path id="336" transform="matrix(1 0 0 -1 0 842)" d="M211.56 172.46L211.56 171.44L240.12 170.78L240.12 171.8" stroke="none" fill="#000000" fill-rule="nonzero" /></g></g><g clip-path="url(#15)"><g clip-path="url(#16)"><g clip-path="url(#17)"><g transform="matrix(0.48 0 0 0.4797322 331.44 522.3)"><g transform="matrix(1 0 0 1 0 0)"><image x="0" y="0" xlink:href="img_108.png" width="401" height="448" /></g></g></g></g></g><g clip-path="url(#18)"><g clip-path="url(#19)"><path id="338" transform="matrix(1 0 0 -1 0 842)" d="M334.86 154.64L377.46 154.64L377.46 175.04L334.86 175.04z" stroke="none" fill="#FFFFFF" fill-rule="nonzero" /><path id="345" transform="matrix(1 0 0 -1 0 842)" d="M375.72 174.92L375.3 174.74L375.72 173.84L376.14 174.02" stroke="none" fill="#000000" fill-rule="nonzero" /><path id="346" transform="matrix(1 0 0 -1 0 842)" d="M411 191.42L411.42 191.6L411.84 190.7L411.42 190.52" stroke="none" fill="#000000" fill-rule="nonzero" /><path id="347" transform="matrix(1 0 0 -1 0 842)" d="M375.72 174.92L376.14 174.02L411.42 190.52L411 191.42" stroke="none" fill="#000000" fill-rule="nonzero" /><path id="348" transform="matrix(1 0 0 -1 0 842)" d="M335.22 292.16L406.44 292.16L406.44 316.16L335.22 316.16z" stroke="none" fill="#FFFFFF" fill-rule="nonzero" /><path id="360" transform="matrix(1 0 0 -1 0 842)" d="M417.48 262.34L448.5 262.34L448.5 264.32L417.48 264.32z" stroke="none" fill="#FFFFFF" fill-rule="nonzero" /><path id="361" transform="matrix(1 0 0 -1 0 842)" d="M446.52 193.34L448.5 193.34L448.5 263.36L446.52 263.36z" stroke="none" fill="#FFFFFF" fill-rule="nonzero" /><path id="362" transform="matrix(1 0 0 -1 0 842)" d="M416.52 193.34L447.48 193.34L447.48 195.32L416.52 195.32z" stroke="none" fill="#FFFFFF" fill-rule="nonzero" /><path id="363" transform="matrix(1 0 0 -1 0 842)" d="M416.52 194.36L418.5 194.36L418.5 264.32L416.52 264.32z" stroke="none" fill="#FFFFFF" fill-rule="nonzero" /><path id="364" transform="matrix(1 0 0 -1 0 842)" d="M417.24 262.4L417.66 262.1L418.26 262.94L417.84 263.24" stroke="none" fill="#000000" fill-rule="nonzero" /><path id="365" transform="matrix(1 0 0 -1 0 842)" d="M373.14 293.6L372.72 293.9L373.32 294.74L373.74 294.44" stroke="none" fill="#000000" fill-rule="nonzero" /><path id="366" transform="matrix(1 0 0 -1 0 842)" d="M417.24 262.4L417.84 263.24L373.74 294.44L373.14 293.6" stroke="none" fill="#000000" fill-rule="nonzero" /></g></g></g></g></svg>