<svg xmlns="http://www.w3.org/2000/svg" xmlns:xlink="http://www.w3.org/1999/xlink" id="body_13" preserveAspectRatio="xMinYMin meet" viewBox="0 0 793 1123"><defs><clipPath id="1"><path id="" clip-rule="evenodd" transform="matrix(1 0 0 1 0 0)" d="M0 842L0 0L0 0L595 0L595 0L595 842L595 842L0 842z" /></clipPath><clipPath id="2"><path id="" clip-rule="evenodd" transform="matrix(1 0 0 1 0 0)" d="M225.96 77.03998L557.4 77.03998L557.4 77.03998L557.4 229.68L557.4 229.68L225.96 229.68z" /></clipPath><clipPath id="3"><path id="" clip-rule="evenodd" transform="matrix(1 0 0 1 0 0)" d="M224.94 76.02002L558.42 76.02002L558.42 76.02002L558.42 230.7L558.42 230.7L224.94 230.7z" /></clipPath><clipPath id="4"><path id="" clip-rule="evenodd" transform="matrix(1 0 0 1 0 0)" d="M0 0.02001953L595.2 0.02001953L595.2 0.02001953L595.2 842L595.2 842L0 842z" /></clipPath></defs><g transform="matrix(1.333333 0 0 1.333333 0 0)"><g clip-path="url(#1)"><path id="250" transform="matrix(1 0 0 -1 0 842)" d="M224.94 452.36L309.48 452.36L309.48 470.36L224.94 470.36z" stroke="none" fill="#C5E0F7" fill-rule="nonzero" /><path id="254" transform="matrix(1 0 0 -1 0 842)" d="M309.48 452.36L359.82 452.36L359.82 470.36L309.48 470.36z" stroke="none" fill="#C5E0F7" fill-rule="nonzero" /><path id="257" transform="matrix(1 0 0 -1 0 842)" d="M359.82 452.36L562.08 452.36L562.08 470.36L359.82 470.36z" stroke="none" fill="#C5E0F7" fill-rule="nonzero" /><path id="506" transform="matrix(1 0 0 -1 0 842)" d="M309.48 432.14L562.08 432.14L562.08 432.62L309.48 432.62z" stroke="none" fill="#3D96E3" fill-rule="nonzero" /><path id="507" transform="matrix(1 0 0 -1 0 842)" d="M224.94 412.1L562.08 412.1L562.08 412.58L224.94 412.58z" stroke="none" fill="#3D96E3" fill-rule="nonzero" /><path id="508" transform="matrix(1 0 0 -1 0 842)" d="M309.48 392.12L562.08 392.12L562.08 392.6L309.48 392.6z" stroke="none" fill="#3D96E3" fill-rule="nonzero" /><path id="509" transform="matrix(1 0 0 -1 0 842)" d="M224.94 372.14L562.08 372.14L562.08 372.62L224.94 372.62z" stroke="none" fill="#3D96E3" fill-rule="nonzero" /><path id="510" transform="matrix(1 0 0 -1 0 842)" d="M309.48 352.16L562.08 352.16L562.08 352.64L309.48 352.64z" stroke="none" fill="#3D96E3" fill-rule="nonzero" /><path id="511" transform="matrix(1 0 0 -1 0 842)" d="M309.48 332.18L562.08 332.18L562.08 332.66L309.48 332.66z" stroke="none" fill="#3D96E3" fill-rule="nonzero" /><path id="512" transform="matrix(1 0 0 -1 0 842)" d="M224.94 312.14L562.08 312.14L562.08 312.62L224.94 312.62z" stroke="none" fill="#3D96E3" fill-rule="nonzero" /><path id="513" transform="matrix(1 0 0 -1 0 842)" d="M309.48 278.18L562.08 278.18L562.08 278.66L309.48 278.66z" stroke="none" fill="#3D96E3" fill-rule="nonzero" /><path id="514" transform="matrix(1 0 0 -1 0 842)" d="M224.94 258.2L562.08 258.2L562.08 258.68L224.94 258.68z" stroke="none" fill="#3D96E3" fill-rule="nonzero" /><path id="515" transform="matrix(1 0 0 -1 0 842)" d="M309.48 224.18L562.08 224.18L562.08 224.66L309.48 224.66z" stroke="none" fill="#3D96E3" fill-rule="nonzero" /><path id="516" transform="matrix(1 0 0 -1 0 842)" d="M224.94 204.2L562.08 204.2L562.08 204.68L224.94 204.68z" stroke="none" fill="#3D96E3" fill-rule="nonzero" /><path id="517" transform="matrix(1 0 0 -1 0 842)" d="M309.48 184.22L562.08 184.22L562.08 184.7L309.48 184.7z" stroke="none" fill="#3D96E3" fill-rule="nonzero" /><path id="518" transform="matrix(1 0 0 -1 0 842)" d="M224.94 163.64L562.08 163.64L562.08 165.14L224.94 165.14z" stroke="none" fill="#3D96E3" fill-rule="nonzero" /><g clip-path="url(#2)"><g clip-path="url(#3)"><g clip-path="url(#4)"><g transform="matrix(0.4796527 0 0 0.48 225.96 77.03998)"><g transform="matrix(1 0 0 1 0 0)"><image x="0" y="0" xlink:href="img_24.png" width="691" height="318" /></g></g></g></g></g></g></g></svg>