<svg xmlns="http://www.w3.org/2000/svg" xmlns:xlink="http://www.w3.org/1999/xlink" id="body_209" preserveAspectRatio="xMinYMin meet" viewBox="0 0 793 1123"><defs><clipPath id="1"><path id="" clip-rule="evenodd" transform="matrix(1 0 0 1 0 0)" d="M0 842L0 0L0 0L595 0L595 0L595 842L595 842L0 842z" /></clipPath><clipPath id="2"><path id="" clip-rule="evenodd" transform="matrix(1 0 0 1 0 0)" d="M216.96 163.98L390.06 163.98L390.06 163.98L390.06 324.42L390.06 324.42L216.96 324.42z" /></clipPath><clipPath id="3"><path id="" clip-rule="evenodd" transform="matrix(1 0 0 1 0 0)" d="M215.94 163.02L391.08 163.02L391.08 163.02L391.08 325.44L391.08 325.44L215.94 325.44z" /></clipPath><clipPath id="4"><path id="" clip-rule="evenodd" transform="matrix(1 0 0 1 0 0)" d="M0 0.02001953L595.2 0.02001953L595.2 0.02001953L595.2 842L595.2 842L0 842z" /></clipPath><clipPath id="5"><path id="" clip-rule="evenodd" transform="matrix(1 0 0 1 0 0)" d="M215.94 163.02L391.08 163.02L391.08 163.02L391.08 325.44L391.08 325.44L215.94 325.44z" /></clipPath><clipPath id="6"><path id="" clip-rule="evenodd" transform="matrix(1 0 0 1 0 0)" d="M0 0.02001953L595.2 0.02001953L595.2 0.02001953L595.2 842L595.2 842L0 842z" /></clipPath></defs><g transform="matrix(1.333333 0 0 1.333333 0 0)"><g clip-path="url(#1)"><g clip-path="url(#2)"><g clip-path="url(#3)"><g clip-path="url(#4)"><g transform="matrix(0.4800332 0 0 0.4789254 216.96 163.98)"><g transform="matrix(1 0 0 1 0 0)"><image x="0" y="0" xlink:href="img_554.png" width="361" height="335" /></g></g></g></g></g><g clip-path="url(#5)"><g clip-path="url(#6)"><path id="594" transform="matrix(1 0 0 -1 0 842)" d="M218.7 560.24L260.7 560.24L260.7 584.24L218.7 584.24z" stroke="none" fill="#FFFFFF" fill-rule="nonzero" /><path id="601" transform="matrix(1 0 0 -1 0 842)" d="M343.38 549.14L343.62 548.78L343.62 548.78L343.74 548.66L343.74 548.66L344.1 548.54L344.1 548.54L344.34 548.54L344.34 548.54L344.88 548.72L344.88 548.72L345 548.9L345 548.9L345.12 549.02L345.12 549.02L345.24 549.2L345.24 549.2L345.24 549.38L345.24 549.38L345.3 549.56L345.3 549.56L345.24 549.8L345.24 549.8L345.18 549.98L345.18 549.98L345.06 550.16L345.06 550.16L344.94 550.28L344.94 550.28L344.76 550.4L344.76 550.4L344.64 550.46L344.64 550.46L344.4 550.52L344.4 550.52L344.04 550.52L344.04 550.52L343.86 550.46L343.86 550.46L343.5 550.22L343.5 550.22L343.44 550.04L343.44 550.04L343.32 549.86L343.32 549.86L343.26 549.68L343.26 549.68L343.26 549.5L343.26 549.5L343.38 549.14" stroke="none" fill="#FF0000" fill-rule="evenodd" /><path id="602" transform="matrix(1 0 0 -1 0 842)" d="M344.22 549.5L345.78 546.2L346.26 545.42L345.24 545.54L337.98 546.2L337.14 546.2L337.68 547.04L341.88 552.98L342.36 553.64L342.72 552.8L342.72 552.32L338.52 546.38L337.68 547.04L338.1 547.22L345.36 546.56L345.24 545.54L344.88 545.78L343.32 549.08" stroke="none" fill="#FF0000" fill-rule="nonzero" /><path id="603" transform="matrix(1 0 0 -1 0 842)" d="M342.72 552.8L344.22 549.5L343.32 549.08L341.82 552.38" stroke="none" fill="#FF0000" fill-rule="nonzero" /><path id="604" transform="matrix(1 0 0 -1 0 842)" d="M343.8 549.32L345.36 546.02L345.36 546.02L338.1 546.68L338.1 546.68L342.3 552.62" stroke="none" fill="#FF0000" fill-rule="evenodd" /><path id="605" transform="matrix(1 0 0 -1 0 842)" d="M385.62 567.86L386.52 568.28L385.68 570.08L384.78 569.66" stroke="none" fill="#FF0000" fill-rule="nonzero" /><path id="606" transform="matrix(1 0 0 -1 0 842)" d="M344.7 548.66L343.8 548.24L342.96 550.04L343.86 550.46" stroke="none" fill="#FF0000" fill-rule="nonzero" /><path id="607" transform="matrix(1 0 0 -1 0 842)" d="M385.62 567.86L384.78 569.66L343.86 550.46L344.7 548.66" stroke="none" fill="#FF0000" fill-rule="nonzero" /><path id="608" transform="matrix(1 0 0 -1 0 842)" d="M313.62 574.34L313.74 574.52L313.74 574.52L313.86 574.64L313.86 574.64L313.92 574.82L313.92 574.82L313.98 575.06L313.98 575.06L313.98 575.2401L313.98 575.2401L313.86 575.6L313.86 575.6L313.74 575.78L313.74 575.78L313.56 575.9L313.56 575.9L313.44 576.02L313.44 576.02L313.26 576.08L313.26 576.08L312.66 576.08L312.66 576.08L312.48 575.96L312.48 575.96L312.3 575.9L312.3 575.9L312.06 575.54L312.06 575.54L312 575.36L312 575.36L312 574.82L312 574.82L312.24 574.46L312.24 574.46L312.36 574.34L312.36 574.34L312.54 574.22L312.54 574.22L312.9 574.1L312.9 574.1L313.08 574.1L313.08 574.1L313.44 574.22L313.44 574.22L313.62 574.34" stroke="none" fill="#FF0000" fill-rule="evenodd" /><path id="609" transform="matrix(1 0 0 -1 0 842)" d="M313.02 575.12L315.78 577.46L316.38 578L316.56 577.16L317.88 570.08L318 569.12L317.22 569.42L310.38 571.82L309.54 572.12L310.26 572.72L310.74 572.84L317.58 570.44L317.22 569.42L316.86 569.84L315.54 576.98L316.56 577.16L316.44 576.68L313.68 574.34" stroke="none" fill="#FF0000" fill-rule="nonzero" /><path id="610" transform="matrix(1 0 0 -1 0 842)" d="M310.26 572.72L313.02 575.12L313.68 574.34L310.92 571.9399" stroke="none" fill="#FF0000" fill-rule="nonzero" /><path id="611" transform="matrix(1 0 0 -1 0 842)" d="M313.32 574.76L316.08 577.1L316.08 577.1L317.4 569.96L317.4 569.96L310.56 572.36" stroke="none" fill="#FF0000" fill-rule="evenodd" /><path id="612" transform="matrix(1 0 0 -1 0 842)" d="M292.92 600.14L292.32 600.86L290.82 599.6L291.42 598.88" stroke="none" fill="#FF0000" fill-rule="nonzero" /><path id="613" transform="matrix(1 0 0 -1 0 842)" d="M313.74 575.72L314.34 575L312.84 573.74L312.24 574.46" stroke="none" fill="#FF0000" fill-rule="nonzero" /><path id="614" transform="matrix(1 0 0 -1 0 842)" d="M292.92 600.14L291.42 598.88L312.24 574.46L313.74 575.72" stroke="none" fill="#FF0000" fill-rule="nonzero" /><path id="615" transform="matrix(1 0 0 -1 0 842)" d="M257.34 579.92L257.82 579.92L257.82 580.94L257.34 580.94z" stroke="none" fill="#000000" fill-rule="nonzero" /><path id="616" transform="matrix(1 0 0 -1 0 842)" d="M281.94 580.46L282.42 580.46L282.42 581.48L281.94 581.48z" stroke="none" fill="#000000" fill-rule="nonzero" /><path id="617" transform="matrix(1 0 0 -1 0 842)" d="M257.82 580.94L257.82 579.92L281.94 580.46L281.94 581.48" stroke="none" fill="#000000" fill-rule="nonzero" /></g></g></g></g></svg>