<svg xmlns="http://www.w3.org/2000/svg" xmlns:xlink="http://www.w3.org/1999/xlink" id="body_145" preserveAspectRatio="xMinYMin meet" viewBox="0 0 793 1123"><defs><clipPath id="1"><path id="" clip-rule="evenodd" transform="matrix(1 0 0 1 0 0)" d="M0 842L0 0L0 0L595 0L595 0L595 842L595 842L0 842z" /></clipPath><clipPath id="2"><path id="" clip-rule="evenodd" transform="matrix(1 0 0 1 0 0)" d="M124.56 78.06L202.98 78.06L202.98 78.06L202.98 92.46002L202.98 92.46002L124.56 92.46002z" /></clipPath><clipPath id="3"><path id="" clip-rule="evenodd" transform="matrix(1 0 0 1 0 0)" d="M0 0.02001953L595.2 0.02001953L595.2 0.02001953L595.2 842L595.2 842L0 842z" /></clipPath><clipPath id="4"><path id="" clip-rule="evenodd" transform="matrix(1 0 0 1 0 0)" d="M124.44 78.23999L199.5 78.23999L199.5 78.23999L199.5 92.39996L199.5 92.39996L124.44 92.39996z" /></clipPath><clipPath id="5"><path id="" clip-rule="evenodd" transform="matrix(1 0 0 1 0 0)" d="M124.56 78.06L202.98 78.06L202.98 78.06L202.98 92.46002L202.98 92.46002L124.56 92.46002z" /></clipPath><clipPath id="6"><path id="" clip-rule="evenodd" transform="matrix(1 0 0 1 0 0)" d="M0 0.02001953L595.2 0.02001953L595.2 0.02001953L595.2 842L595.2 842L0 842z" /></clipPath><clipPath id="7"><path id="" clip-rule="evenodd" transform="matrix(1 0 0 1 0 0)" d="M224.94 415.92L553.2 415.92L553.2 415.92L553.2 537.66L553.2 537.66L224.94 537.66z" /></clipPath><clipPath id="8"><path id="" clip-rule="evenodd" transform="matrix(1 0 0 1 0 0)" d="M0 0.02001953L595.2 0.02001953L595.2 0.02001953L595.2 842L595.2 842L0 842z" /></clipPath></defs><g transform="matrix(1.333333 0 0 1.333333 0 0)"><g clip-path="url(#1)"><g clip-path="url(#2)"><g clip-path="url(#3)"><path id="672" transform="matrix(1 0 0 -1 0 842)" d="M124.56 749.54L202.98 749.54L202.98 763.94L124.56 763.94z" stroke="none" fill="#FFFFFF" fill-rule="nonzero" /></g></g><g clip-path="url(#4)"><g clip-path="url(#5)"><g clip-path="url(#6)"><g transform="matrix(0.7431683 0 0 0.7452632 124.44 78.24005)"><g transform="matrix(1 0 0 1 0 0)"><image x="0" y="0" xlink:href="img_274.png" width="101" height="19" /></g></g></g></g></g><path id="674" transform="matrix(1 0 0 -1 0 842)" d="M224.94 767.96L558 767.96L558 668L224.94 668" stroke="none" fill="#ECF5FC" fill-rule="nonzero" /><g clip-path="url(#7)"><g clip-path="url(#8)"><path id="817" transform="matrix(1 0 0 -1 0 842)" d="M269.28 375.44L295.26 375.44L295.26 377.42L269.28 377.42z" stroke="none" fill="#000000" fill-rule="nonzero" /><path id="818" transform="matrix(1 0 0 -1 0 842)" d="M293.28 376.46L295.26 376.46L295.26 383.9L293.28 383.9z" stroke="none" fill="#000000" fill-rule="nonzero" /><path id="819" transform="matrix(1 0 0 -1 0 842)" d="M321.6 382.28L322.56 382.28L322.56 384.26L321.6 384.26z" stroke="none" fill="#000000" fill-rule="nonzero" /><path id="820" transform="matrix(1 0 0 -1 0 842)" d="M294.24 383.9L294.24 381.92L321.6 382.28L321.6 384.26" stroke="none" fill="#000000" fill-rule="nonzero" /><path id="821" transform="matrix(1 0 0 -1 0 842)" d="M329.1 384.14L328.14 384.14L328.2 382.16L329.16 382.16" stroke="none" fill="#000000" fill-rule="nonzero" /><path id="822" transform="matrix(1 0 0 -1 0 842)" d="M329.1 384.14L329.16 382.16L355.44 382.58L356.4 383.6L356.4 384.56L355.38 384.56" stroke="none" fill="#000000" fill-rule="nonzero" /><path id="823" transform="matrix(1 0 0 -1 0 842)" d="M354.42 355.64L356.4 355.64L356.4 383.6L354.42 383.6z" stroke="none" fill="#000000" fill-rule="nonzero" /><path id="824" transform="matrix(1 0 0 -1 0 842)" d="M268.92 365.3L295.62 365.3L295.62 367.28L268.92 367.28z" stroke="none" fill="#000000" fill-rule="nonzero" /><path id="825" transform="matrix(1 0 0 -1 0 842)" d="M293.64 321.44L295.62 321.44L295.62 366.68L293.64 366.68z" stroke="none" fill="#000000" fill-rule="nonzero" /><path id="826" transform="matrix(1 0 0 -1 0 842)" d="M294.6 321.44L356.4 321.44L356.4 323.42L294.6 323.42z" stroke="none" fill="#000000" fill-rule="nonzero" /><path id="827" transform="matrix(1 0 0 -1 0 842)" d="M354.42 322.46L356.4 322.46L356.4 346.64L354.42 346.64z" stroke="none" fill="#000000" fill-rule="nonzero" /><path id="828" transform="matrix(1 0 0 -1 0 842)" d="M365.64 356.36L367.62 356.36L367.62 357.32L365.64 357.32z" stroke="none" fill="#000000" fill-rule="nonzero" /><path id="829" transform="matrix(1 0 0 -1 0 842)" d="M365.64 357.32L365.64 364.28L366.06 364.52L367.62 363.68L367.62 357.32" stroke="none" fill="#000000" fill-rule="nonzero" /><path id="830" transform="matrix(1 0 0 -1 0 842)" d="M366.06 364.52L379.2 372.8L380.76 371.96L380.76 371.42L380.28 371.12L367.14 362.84" stroke="none" fill="#000000" fill-rule="nonzero" /><path id="831" transform="matrix(1 0 0 -1 0 842)" d="M378.42 385.04L378.42 386L380.4 386.06L380.4 385.1" stroke="none" fill="#000000" fill-rule="nonzero" /><path id="832" transform="matrix(1 0 0 -1 0 842)" d="M378.78 371.9L380.76 371.96L380.4 385.1L378.42 385.04" stroke="none" fill="#000000" fill-rule="nonzero" /><path id="833" transform="matrix(1 0 0 -1 0 842)" d="M385.14 356.36L387.12 356.36L387.12 357.32L385.14 357.32z" stroke="none" fill="#000000" fill-rule="nonzero" /><path id="834" transform="matrix(1 0 0 -1 0 842)" d="M385.14 357.32L385.14 364.28L385.56 364.52L387.12 363.68L387.12 357.32" stroke="none" fill="#000000" fill-rule="nonzero" /><path id="835" transform="matrix(1 0 0 -1 0 842)" d="M385.56 364.52L398.7 372.8L400.26 371.96L400.26 371.42L399.78 371.12L386.64 362.84" stroke="none" fill="#000000" fill-rule="nonzero" /><path id="836" transform="matrix(1 0 0 -1 0 842)" d="M397.92 385.04L397.92 386L399.9 386.06L399.9 385.1" stroke="none" fill="#000000" fill-rule="nonzero" /><path id="837" transform="matrix(1 0 0 -1 0 842)" d="M398.28 371.9L400.26 371.96L399.9 385.1L397.92 385.04" stroke="none" fill="#000000" fill-rule="nonzero" /><path id="838" transform="matrix(1 0 0 -1 0 842)" d="M365.64 347.72L367.62 347.72L367.62 348.68L365.64 348.68z" stroke="none" fill="#000000" fill-rule="nonzero" /><path id="839" transform="matrix(1 0 0 -1 0 842)" d="M367.62 347.72L367.62 341.3L366.06 340.46L365.64 340.7L365.64 347.72" stroke="none" fill="#000000" fill-rule="nonzero" /><path id="840" transform="matrix(1 0 0 -1 0 842)" d="M367.14 342.14L380.28 333.92L380.76 333.62L380.76 333.02L379.2 332.24L366.06 340.46" stroke="none" fill="#000000" fill-rule="nonzero" /><path id="841" transform="matrix(1 0 0 -1 0 842)" d="M380.4 319.88L380.4 318.92L378.42 318.98L378.42 319.94" stroke="none" fill="#000000" fill-rule="nonzero" /><path id="842" transform="matrix(1 0 0 -1 0 842)" d="M380.76 333.02L378.78 333.08L378.42 319.94L380.4 319.88" stroke="none" fill="#000000" fill-rule="nonzero" /><path id="843" transform="matrix(1 0 0 -1 0 842)" d="M385.14 347.72L387.12 347.72L387.12 348.68L385.14 348.68z" stroke="none" fill="#000000" fill-rule="nonzero" /><path id="844" transform="matrix(1 0 0 -1 0 842)" d="M387.12 347.72L387.12 341.3L385.56 340.46L385.14 340.7L385.14 347.72" stroke="none" fill="#000000" fill-rule="nonzero" /><path id="845" transform="matrix(1 0 0 -1 0 842)" d="M386.64 342.14L399.78 333.92L400.26 333.62L400.26 333.02L398.7 332.24L385.56 340.46" stroke="none" fill="#000000" fill-rule="nonzero" /><path id="846" transform="matrix(1 0 0 -1 0 842)" d="M399.9 319.88L399.9 318.92L397.92 318.98L397.92 319.94" stroke="none" fill="#000000" fill-rule="nonzero" /><path id="847" transform="matrix(1 0 0 -1 0 842)" d="M400.26 333.02L398.28 333.08L397.92 319.94L399.9 319.88" stroke="none" fill="#000000" fill-rule="nonzero" /><path id="848" transform="matrix(1 0 0 -1 0 842)" d="M423.78 385.1L425.76 385.1L425.76 386.06L423.78 386.06z" stroke="none" fill="#000000" fill-rule="nonzero" /><path id="849" transform="matrix(1 0 0 -1 0 842)" d="M425.76 385.1L423.78 385.1L424.14 356.6L423.78 355.64L425.04 355.58L426.12 356.6" stroke="none" fill="#000000" fill-rule="nonzero" /><path id="850" transform="matrix(1 0 0 -1 0 842)" d="M433.8 357.14L434.76 357.08L434.64 355.1L433.68 355.16" stroke="none" fill="#000000" fill-rule="nonzero" /><path id="851" transform="matrix(1 0 0 -1 0 842)" d="M425.16 357.56L425.04 355.58L433.68 355.16L433.8 357.14" stroke="none" fill="#000000" fill-rule="nonzero" /><path id="852" transform="matrix(1 0 0 -1 0 842)" d="M423.9 318.98L425.88 318.98L425.88 319.94L423.9 319.94z" stroke="none" fill="#000000" fill-rule="nonzero" /><path id="853" transform="matrix(1 0 0 -1 0 842)" d="M423.9 319.94L425.88 319.94L426.24 348.44L425.22 349.4L423.78 349.34L424.26 348.44" stroke="none" fill="#000000" fill-rule="nonzero" /><path id="854" transform="matrix(1 0 0 -1 0 842)" d="M433.86 349.76L434.82 349.76L434.88 347.78L433.92 347.78" stroke="none" fill="#000000" fill-rule="nonzero" /><path id="855" transform="matrix(1 0 0 -1 0 842)" d="M425.22 349.4L425.28 347.42L433.92 347.78L433.86 349.76" stroke="none" fill="#000000" fill-rule="nonzero" /><path id="856" transform="matrix(1 0 0 -1 0 842)" d="M408.06 356.36L410.04 356.36L410.04 386.06L408.06 386.06z" stroke="none" fill="#000000" fill-rule="nonzero" /><path id="857" transform="matrix(1 0 0 -1 0 842)" d="M408.18 318.98L410.16 318.98L410.16 348.68L408.18 348.68z" stroke="none" fill="#000000" fill-rule="nonzero" /><path id="858" transform="matrix(1 0 0 -1 0 842)" d="M448.26 352.82L448.26 353L448.26 353L448.2 353.12L448.2 353.12L448.14 353.24L448.14 353.24L448.02 353.36L448.02 353.36L447.9 353.42L447.9 353.42L447.78 353.54L447.78 353.54L447.66 353.54L447.66 353.54L447.48 353.6L447.48 353.6L447.36 353.54L447.36 353.54L447.24 353.54L447.24 353.54L447.06 353.42L447.06 353.42L446.88 353.24L446.88 353.24L446.82 353.12L446.82 353.12L446.76 353L446.76 353L446.76 352.7L446.76 352.7L446.82 352.52L446.82 352.52L446.88 352.4L446.88 352.4L447.06 352.22L447.06 352.22L447.24 352.16L447.24 352.16L447.36 352.1L447.36 352.1L447.66 352.1L447.66 352.1L448.02 352.28L448.02 352.28L448.14 352.4L448.14 352.4L448.2 352.52L448.2 352.52L448.26 352.7L448.26 352.7L448.26 352.82" stroke="none" fill="#000000" fill-rule="evenodd" /><path id="859" transform="matrix(1 0 0 -1 0 842)" d="M447.54 352.82L447.54 357.38L448.2 357.2L461.76 353.3L463.44 352.82L461.76 352.34L448.2 348.44L447.54 348.26L447.54 348.92L447.9 349.4L461.46 353.3L461.76 352.34L461.46 352.34L447.9 356.24L448.2 357.2L448.56 356.72L448.56 352.82" stroke="none" fill="#000000" fill-rule="nonzero" /><path id="860" transform="matrix(1 0 0 -1 0 842)" d="M447.54 348.92L448.56 348.92L448.56 352.82L447.54 352.82z" stroke="none" fill="#000000" fill-rule="nonzero" /><path id="861" transform="matrix(1 0 0 -1 0 842)" d="M448.02 352.82L448.02 356.72L448.02 356.72L461.58 352.82L461.58 352.82L448.02 348.92" stroke="none" fill="#000000" fill-rule="evenodd" /><path id="862" transform="matrix(1 0 0 -1 0 842)" d="M310.38 352.04L448.2 352.04L448.2 353.54L310.38 353.54z" stroke="none" fill="#000000" fill-rule="nonzero" /><path id="863" transform="matrix(1 0 0 -1 0 842)" d="M315.42 399.32L316.92 399.32L316.92 412.16L315.42 412.16z" stroke="none" fill="#000000" fill-rule="nonzero" /><path id="864" transform="matrix(1 0 0 -1 0 842)" d="M316.14 399.32L318.12 399.32L318.12 400.82L316.14 400.82z" stroke="none" fill="#000000" fill-rule="nonzero" /><path id="865" transform="matrix(1 0 0 -1 0 842)" d="M316.62 397.82L318.12 397.82L318.12 400.1L316.62 400.1z" stroke="none" fill="#000000" fill-rule="nonzero" /><path id="866" transform="matrix(1 0 0 -1 0 842)" d="M317.34 397.82L322.92 397.82L322.92 399.32L317.34 399.32z" stroke="none" fill="#000000" fill-rule="nonzero" /><path id="867" transform="matrix(1 0 0 -1 0 842)" d="M321.42 398.6L322.92 398.6L322.92 400.4L321.42 400.4z" stroke="none" fill="#000000" fill-rule="nonzero" /><path id="868" transform="matrix(1 0 0 -1 0 842)" d="M322.14 398.9L328.14 398.9L328.14 400.4L322.14 400.4z" stroke="none" fill="#000000" fill-rule="nonzero" /><path id="869" transform="matrix(1 0 0 -1 0 842)" d="M328.14 399.68L328.14 398.3L327.42 397.52L327.36 399.02L332.76 399.2L333.48 398.66L332.04 398.24L331.62 399.74L331.38 400.7L333.84 400.7L334.62 399.98L334.62 399.2L332.34 399.2L332.34 400.7L333.06 400.16L333.48 398.66L333.72 397.76L332.82 397.7L327.42 397.52L326.64 397.52L326.64 399.68" stroke="none" fill="#000000" fill-rule="nonzero" /><path id="870" transform="matrix(1 0 0 -1 0 842)" d="M333 411.08L334.5 411.08L334.5 411.8L333 411.8z" stroke="none" fill="#000000" fill-rule="nonzero" /><path id="871" transform="matrix(1 0 0 -1 0 842)" d="M333.12 399.98L334.62 399.98L334.5 411.08L333 411.08" stroke="none" fill="#000000" fill-rule="nonzero" /><path id="872" transform="matrix(1 0 0 -1 0 842)" d="M324.12 360.32L324.3 360.38L324.3 360.38L324.42 360.38L324.42 360.38L324.54 360.5L324.54 360.5L324.66 360.56L324.66 360.56L324.78 360.68L324.78 360.68L324.9 360.92L324.9 360.92L324.9 361.22L324.9 361.22L324.84 361.4L324.84 361.4L324.78 361.52L324.78 361.52L324.6 361.7L324.6 361.7L324.42 361.76L324.42 361.76L324.3 361.82L324.3 361.82L324 361.82L324 361.82L323.64 361.64L323.64 361.64L323.52 361.52L323.52 361.52L323.46 361.4L323.46 361.4L323.4 361.28L323.4 361.28L323.4 360.92L323.4 360.92L323.46 360.8L323.46 360.8L323.52 360.68L323.52 360.68L323.7 360.5L323.7 360.5L323.88 360.38L323.88 360.38L324 360.38L324 360.38L324.12 360.32" stroke="none" fill="#000000" fill-rule="evenodd" /><path id="873" transform="matrix(1 0 0 -1 0 842)" d="M324.12 361.1L327.42 361.04L328.26 360.98L327.84 360.26L324.54 354.68L324.06 353.96L323.64 354.68L320.4 360.32L319.92 361.1L320.88 361.1L321.3 360.86L324.54 355.22L323.64 354.68L323.64 355.22L326.94 360.8L327.84 360.26L327.42 360.02L324.12 360.08" stroke="none" fill="#000000" fill-rule="nonzero" /><path id="874" transform="matrix(1 0 0 -1 0 842)" d="M320.88 360.08L324.12 360.08L324.12 361.1L320.88 361.1z" stroke="none" fill="#000000" fill-rule="nonzero" /><path id="875" transform="matrix(1 0 0 -1 0 842)" d="M324.12 360.62L327.42 360.56L327.42 360.56L324.12 354.98L324.12 354.98L320.88 360.62" stroke="none" fill="#000000" fill-rule="evenodd" /><path id="876" transform="matrix(1 0 0 -1 0 842)" d="M323.64 398.6L325.14 398.6L325.14 399.32L323.64 399.32z" stroke="none" fill="#000000" fill-rule="nonzero" /><path id="877" transform="matrix(1 0 0 -1 0 842)" d="M323.46 360.38L324.96 360.38L324.96 361.1L323.46 361.1z" stroke="none" fill="#000000" fill-rule="nonzero" /><path id="878" transform="matrix(1 0 0 -1 0 842)" d="M325.14 398.6L323.64 398.6L323.46 361.1L324.96 361.1" stroke="none" fill="#000000" fill-rule="nonzero" /><path id="879" transform="matrix(1 0 0 -1 0 842)" d="M316.44 358.82L316.62 358.76L316.62 358.76L316.74 358.76L316.74 358.76L316.86 358.82L316.86 358.82L317.04 358.82L317.04 358.82L317.16 358.94L317.16 358.94L317.28 359L317.28 359L317.34 359.12L317.34 359.12L317.4 359.24L317.4 359.24L317.46 359.42L317.46 359.42L317.46 359.72L317.46 359.72L317.4 359.84L317.4 359.84L317.34 359.96L317.34 359.96L317.22 360.08L317.22 360.08L317.1 360.14L317.1 360.14L316.98 360.26L316.98 360.26L316.56 360.26L316.56 360.26L316.38 360.2L316.38 360.2L316.26 360.14L316.26 360.14L316.14 360.02L316.14 360.02L316.02 359.78L316.02 359.78L315.96 359.66L315.96 359.66L315.96 359.36L315.96 359.36L316.08 359.12L316.08 359.12L316.32 358.88L316.32 358.88L316.44 358.82" stroke="none" fill="#000000" fill-rule="evenodd" /><path id="880" transform="matrix(1 0 0 -1 0 842)" d="M316.74 359.54L319.8 358.4L320.64 358.1L319.92 357.5L314.88 353.36L314.22 352.76L314.04 353.72L312.96 360.14L312.84 360.98L313.68 360.68L313.98 360.26L315.06 353.84L314.04 353.72L314.22 354.2L319.26 358.34L319.92 357.5L319.44 357.44L316.38 358.58" stroke="none" fill="#000000" fill-rule="nonzero" /><path id="881" transform="matrix(1 0 0 -1 0 842)" d="M313.68 360.68L316.74 359.54L316.38 358.58L313.32 359.72" stroke="none" fill="#000000" fill-rule="nonzero" /><path id="882" transform="matrix(1 0 0 -1 0 842)" d="M316.56 359.06L319.62 357.92L319.62 357.92L314.58 353.78L314.58 353.78L313.5 360.2" stroke="none" fill="#000000" fill-rule="evenodd" /><path id="883" transform="matrix(1 0 0 -1 0 842)" d="M324.84 379.28L325.08 379.94L323.7 380.48L323.46 379.82" stroke="none" fill="#000000" fill-rule="nonzero" /><path id="884" transform="matrix(1 0 0 -1 0 842)" d="M317.46 359.24L317.22 358.58L315.84 359.12L316.08 359.78" stroke="none" fill="#000000" fill-rule="nonzero" /><path id="885" transform="matrix(1 0 0 -1 0 842)" d="M324.84 379.28L323.46 379.82L316.08 359.78L317.46 359.24" stroke="none" fill="#000000" fill-rule="nonzero" /><path id="886" transform="matrix(1 0 0 -1 0 842)" d="M331.74 358.46L331.86 358.52L331.86 358.52L332.1 358.76L332.1 358.76L332.22 359L332.22 359L332.22 359.42L332.22 359.42L332.16 359.6L332.16 359.6L332.04 359.72L332.04 359.72L331.56 359.96L331.56 359.96L331.38 359.96L331.38 359.96L331.26 359.9L331.26 359.9L331.08 359.84L331.08 359.84L330.9 359.66L330.9 359.66L330.84 359.54L330.84 359.54L330.78 359.36L330.78 359.36L330.72 359.24L330.72 359.24L330.72 359.06L330.72 359.06L330.84 358.82L330.84 358.82L330.96 358.7L330.96 358.7L331.02 358.58L331.02 358.58L331.14 358.52L331.14 358.52L331.32 358.46L331.32 358.46L331.74 358.46" stroke="none" fill="#000000" fill-rule="evenodd" /><path id="887" transform="matrix(1 0 0 -1 0 842)" d="M331.5 359.18L334.56 360.26L335.4 360.56L335.22 359.66L334.02 353.3L333.9 352.34L333.18 353L328.2 357.2L327.48 357.74L328.38 358.1L328.86 357.98L333.84 353.78L333.18 353L333 353.48L334.2 359.84L335.22 359.66L334.92 359.3L331.86 358.22" stroke="none" fill="#000000" fill-rule="nonzero" /><path id="888" transform="matrix(1 0 0 -1 0 842)" d="M328.38 358.1L331.5 359.18L331.86 358.22L328.74 357.14" stroke="none" fill="#000000" fill-rule="nonzero" /><path id="889" transform="matrix(1 0 0 -1 0 842)" d="M331.68 358.7L334.74 359.78L334.74 359.78L333.54 353.42L333.54 353.42L328.56 357.62" stroke="none" fill="#000000" fill-rule="evenodd" /><path id="890" transform="matrix(1 0 0 -1 0 842)" d="M325.08 379.7L324.84 380.42L323.4 379.94L323.64 379.22" stroke="none" fill="#000000" fill-rule="nonzero" /><path id="891" transform="matrix(1 0 0 -1 0 842)" d="M332.22 359.42L332.46 358.7L331.02 358.22L330.78 358.94" stroke="none" fill="#000000" fill-rule="nonzero" /><path id="892" transform="matrix(1 0 0 -1 0 842)" d="M325.08 379.7L323.64 379.22L330.78 358.94L332.22 359.42" stroke="none" fill="#000000" fill-rule="nonzero" /><path id="897" transform="matrix(1 0 0 -1 0 842)" d="M347.64 395L347.94 395.42L347.1 396.02L346.8 395.6" stroke="none" fill="#000000" fill-rule="nonzero" /><path id="898" transform="matrix(1 0 0 -1 0 842)" d="M328.26 368.78L327.96 368.36L327.12 368.96L327.42 369.38" stroke="none" fill="#000000" fill-rule="nonzero" /><path id="899" transform="matrix(1 0 0 -1 0 842)" d="M347.64 395L346.8 395.6L327.42 369.38L328.26 368.78" stroke="none" fill="#000000" fill-rule="nonzero" /><path id="910" transform="matrix(1 0 0 -1 0 842)" d="M342.36 345.5L341.94 345.2L342.54 344.36L342.96 344.66" stroke="none" fill="#000000" fill-rule="nonzero" /><path id="911" transform="matrix(1 0 0 -1 0 842)" d="M351.72 352.4L352.14 352.7L352.74 351.86L352.32 351.56" stroke="none" fill="#000000" fill-rule="nonzero" /><path id="912" transform="matrix(1 0 0 -1 0 842)" d="M342.36 345.5L342.96 344.66L352.32 351.56L351.72 352.4" stroke="none" fill="#000000" fill-rule="nonzero" /><path id="917" transform="matrix(1 0 0 -1 0 842)" d="M326.16 313.76L326.4 313.34L327.3 313.88L327.06 314.3" stroke="none" fill="#000000" fill-rule="nonzero" /><path id="918" transform="matrix(1 0 0 -1 0 842)" d="M321.18 321.92L320.94 322.34L321.84 322.88L322.08 322.46" stroke="none" fill="#000000" fill-rule="nonzero" /><path id="919" transform="matrix(1 0 0 -1 0 842)" d="M326.16 313.76L327.06 314.3L322.08 322.46L321.18 321.92" stroke="none" fill="#000000" fill-rule="nonzero" /><path id="924" transform="matrix(1 0 0 -1 0 842)" d="M266.58 371.96L266.58 376.1L267.24 375.92L279.3 372.44L280.98 371.96L279.3 371.48L267.24 368.06L266.58 367.88L266.58 368.54L266.94 369.02L279 372.44L279.3 371.48L279 371.48L266.94 374.96L267.24 375.92L267.6 375.44L267.6 371.96" stroke="none" fill="#000000" fill-rule="nonzero" /><path id="925" transform="matrix(1 0 0 -1 0 842)" d="M266.58 368.54L267.6 368.54L267.6 371.96L266.58 371.96z" stroke="none" fill="#000000" fill-rule="nonzero" /><path id="926" transform="matrix(1 0 0 -1 0 842)" d="M267.06 371.96L267.06 375.44L267.06 375.44L279.12 371.96L279.12 371.96L267.06 368.54" stroke="none" fill="#000000" fill-rule="evenodd" /><path id="927" transform="matrix(1 0 0 -1 0 842)" d="M251.1 371.42L251.58 371.42L251.58 372.44L251.1 372.44z" stroke="none" fill="#000000" fill-rule="nonzero" /><path id="928" transform="matrix(1 0 0 -1 0 842)" d="M251.58 371.42L267 371.42L267 372.44L251.58 372.44z" stroke="none" fill="#000000" fill-rule="nonzero" /></g></g></g></g></svg>