<svg xmlns="http://www.w3.org/2000/svg" xmlns:xlink="http://www.w3.org/1999/xlink" id="body_297" preserveAspectRatio="xMinYMin meet" viewBox="0 0 793 1123"><defs><clipPath id="1"><path id="" clip-rule="evenodd" transform="matrix(1 0 0 1 0 0)" d="M0 842L0 0L0 0L595 0L595 0L595 842L595 842L0 842z" /></clipPath><clipPath id="2"><path id="" clip-rule="evenodd" transform="matrix(1 0 0 1 0 0)" d="M40.776 775.114L548.507 775.114L548.507 775.114L548.507 57.96198L548.507 57.96198L40.776 57.96198L40.776 57.96198L40.776 775.114" /></clipPath><clipPath id="3"><path id="" clip-rule="evenodd" transform="matrix(1 0 0 1 0 0)" d="M40.8 58.02002L547.8 58.02002L547.8 58.02002L547.8 775.14L547.8 775.14L40.8 775.14z" /></clipPath><clipPath id="4"><path id="" clip-rule="evenodd" transform="matrix(1 0 0 1 0 0)" d="M94.8 72.06L508.14 72.06L508.14 72.06L508.14 720.72L508.14 720.72L94.8 720.72z" /></clipPath><clipPath id="5"><path id="" clip-rule="evenodd" transform="matrix(1 0 0 1 0 0)" d="M0 0.02001953L595.2 0.02001953L595.2 0.02001953L595.2 842L595.2 842L0 842z" /></clipPath><clipPath id="6"><path id="" clip-rule="evenodd" transform="matrix(1 0 0 1 0 0)" d="M40.776 775.114L548.507 775.114L548.507 775.114L548.507 57.96198L548.507 57.96198L40.776 57.96198L40.776 57.96198L40.776 775.114" /></clipPath><clipPath id="7"><path id="" clip-rule="evenodd" transform="matrix(1 0 0 1 0 0)" d="M40.8 58.02002L547.8 58.02002L547.8 58.02002L547.8 775.14L547.8 775.14L40.8 775.14z" /></clipPath><clipPath id="8"><path id="" clip-rule="evenodd" transform="matrix(1 0 0 1 0 0)" d="M94.8 72.06L508.14 72.06L508.14 72.06L508.14 720.72L508.14 720.72L94.8 720.72z" /></clipPath><clipPath id="9"><path id="" clip-rule="evenodd" transform="matrix(1 0 0 1 0 0)" d="M0 0.02001953L595.2 0.02001953L595.2 0.02001953L595.2 842L595.2 842L0 842z" /></clipPath><clipPath id="10"><path id="" clip-rule="evenodd" transform="matrix(1 0 0 1 0 0)" d="M40.776 775.114L548.507 775.114L548.507 775.114L548.507 57.96198L548.507 57.96198L40.776 57.96198L40.776 57.96198L40.776 775.114" /></clipPath><clipPath id="11"><path id="" clip-rule="evenodd" transform="matrix(1 0 0 1 0 0)" d="M40.8 58.02002L547.8 58.02002L547.8 58.02002L547.8 775.14L547.8 775.14L40.8 775.14z" /></clipPath><clipPath id="12"><path id="" clip-rule="evenodd" transform="matrix(1 0 0 1 0 0)" d="M94.8 72.06L508.14 72.06L508.14 72.06L508.14 720.72L508.14 720.72L94.8 720.72z" /></clipPath><clipPath id="13"><path id="" clip-rule="evenodd" transform="matrix(1 0 0 1 0 0)" d="M0 0.02001953L595.2 0.02001953L595.2 0.02001953L595.2 842L595.2 842L0 842z" /></clipPath><clipPath id="14"><path id="" clip-rule="evenodd" transform="matrix(1 0 0 1 0 0)" d="M40.776 775.114L548.507 775.114L548.507 775.114L548.507 57.96198L548.507 57.96198L40.776 57.96198L40.776 57.96198L40.776 775.114" /></clipPath><clipPath id="15"><path id="" clip-rule="evenodd" transform="matrix(1 0 0 1 0 0)" d="M40.8 58.02002L547.8 58.02002L547.8 58.02002L547.8 775.14L547.8 775.14L40.8 775.14z" /></clipPath><clipPath id="16"><path id="" clip-rule="evenodd" transform="matrix(1 0 0 1 0 0)" d="M94.8 72.06L508.14 72.06L508.14 72.06L508.14 720.72L508.14 720.72L94.8 720.72z" /></clipPath><clipPath id="17"><path id="" clip-rule="evenodd" transform="matrix(1 0 0 1 0 0)" d="M0 0.02001953L595.2 0.02001953L595.2 0.02001953L595.2 842L595.2 842L0 842z" /></clipPath><clipPath id="18"><path id="" clip-rule="evenodd" transform="matrix(1 0 0 1 0 0)" d="M40.776 775.114L548.507 775.114L548.507 775.114L548.507 57.96198L548.507 57.96198L40.776 57.96198L40.776 57.96198L40.776 775.114" /></clipPath><clipPath id="19"><path id="" clip-rule="evenodd" transform="matrix(1 0 0 1 0 0)" d="M40.8 58.02002L547.8 58.02002L547.8 58.02002L547.8 775.14L547.8 775.14L40.8 775.14z" /></clipPath><clipPath id="20"><path id="" clip-rule="evenodd" transform="matrix(1 0 0 1 0 0)" d="M94.8 72.06L508.14 72.06L508.14 72.06L508.14 720.72L508.14 720.72L94.8 720.72z" /></clipPath><clipPath id="21"><path id="" clip-rule="evenodd" transform="matrix(1 0 0 1 0 0)" d="M0 0.02001953L595.2 0.02001953L595.2 0.02001953L595.2 842L595.2 842L0 842z" /></clipPath><clipPath id="22"><path id="" clip-rule="evenodd" transform="matrix(1 0 0 1 0 0)" d="M40.776 775.114L548.507 775.114L548.507 775.114L548.507 57.96198L548.507 57.96198L40.776 57.96198L40.776 57.96198L40.776 775.114" /></clipPath><clipPath id="23"><path id="" clip-rule="evenodd" transform="matrix(1 0 0 1 0 0)" d="M40.8 58.02002L547.8 58.02002L547.8 58.02002L547.8 775.14L547.8 775.14L40.8 775.14z" /></clipPath><clipPath id="24"><path id="" clip-rule="evenodd" transform="matrix(1 0 0 1 0 0)" d="M94.8 72.06L508.14 72.06L508.14 72.06L508.14 720.72L508.14 720.72L94.8 720.72z" /></clipPath><clipPath id="25"><path id="" clip-rule="evenodd" transform="matrix(1 0 0 1 0 0)" d="M0 0.02001953L595.2 0.02001953L595.2 0.02001953L595.2 842L595.2 842L0 842z" /></clipPath><clipPath id="26"><path id="" clip-rule="evenodd" transform="matrix(1 0 0 1 0 0)" d="M40.776 775.114L548.507 775.114L548.507 775.114L548.507 57.96198L548.507 57.96198L40.776 57.96198L40.776 57.96198L40.776 775.114" /></clipPath><clipPath id="27"><path id="" clip-rule="evenodd" transform="matrix(1 0 0 1 0 0)" d="M40.8 58.02002L547.8 58.02002L547.8 58.02002L547.8 775.14L547.8 775.14L40.8 775.14z" /></clipPath><clipPath id="28"><path id="" clip-rule="evenodd" transform="matrix(1 0 0 1 0 0)" d="M94.8 72.06L508.14 72.06L508.14 72.06L508.14 720.72L508.14 720.72L94.8 720.72z" /></clipPath><clipPath id="29"><path id="" clip-rule="evenodd" transform="matrix(1 0 0 1 0 0)" d="M0 0.02001953L595.2 0.02001953L595.2 0.02001953L595.2 842L595.2 842L0 842z" /></clipPath><clipPath id="30"><path id="" clip-rule="evenodd" transform="matrix(1 0 0 1 0 0)" d="M40.776 775.114L548.507 775.114L548.507 775.114L548.507 57.96198L548.507 57.96198L40.776 57.96198L40.776 57.96198L40.776 775.114" /></clipPath><clipPath id="31"><path id="" clip-rule="evenodd" transform="matrix(1 0 0 1 0 0)" d="M40.8 58.02002L547.8 58.02002L547.8 58.02002L547.8 775.14L547.8 775.14L40.8 775.14z" /></clipPath><clipPath id="32"><path id="" clip-rule="evenodd" transform="matrix(1 0 0 1 0 0)" d="M94.8 72.06L508.14 72.06L508.14 72.06L508.14 720.72L508.14 720.72L94.8 720.72z" /></clipPath><clipPath id="33"><path id="" clip-rule="evenodd" transform="matrix(1 0 0 1 0 0)" d="M0 0.02001953L595.2 0.02001953L595.2 0.02001953L595.2 842L595.2 842L0 842z" /></clipPath><clipPath id="34"><path id="" clip-rule="evenodd" transform="matrix(1 0 0 1 0 0)" d="M40.776 775.114L548.507 775.114L548.507 775.114L548.507 57.96198L548.507 57.96198L40.776 57.96198L40.776 57.96198L40.776 775.114" /></clipPath><clipPath id="35"><path id="" clip-rule="evenodd" transform="matrix(1 0 0 1 0 0)" d="M40.8 58.02002L547.8 58.02002L547.8 58.02002L547.8 775.14L547.8 775.14L40.8 775.14z" /></clipPath><clipPath id="36"><path id="" clip-rule="evenodd" transform="matrix(1 0 0 1 0 0)" d="M94.8 72.06L508.14 72.06L508.14 72.06L508.14 720.72L508.14 720.72L94.8 720.72z" /></clipPath><clipPath id="37"><path id="" clip-rule="evenodd" transform="matrix(1 0 0 1 0 0)" d="M0 0.02001953L595.2 0.02001953L595.2 0.02001953L595.2 842L595.2 842L0 842z" /></clipPath><clipPath id="38"><path id="" clip-rule="evenodd" transform="matrix(1 0 0 1 0 0)" d="M40.776 775.114L548.507 775.114L548.507 775.114L548.507 57.96198L548.507 57.96198L40.776 57.96198L40.776 57.96198L40.776 775.114" /></clipPath><clipPath id="39"><path id="" clip-rule="evenodd" transform="matrix(1 0 0 1 0 0)" d="M40.8 58.02002L547.8 58.02002L547.8 58.02002L547.8 775.14L547.8 775.14L40.8 775.14z" /></clipPath><clipPath id="40"><path id="" clip-rule="evenodd" transform="matrix(1 0 0 1 0 0)" d="M94.8 72.06L508.14 72.06L508.14 72.06L508.14 720.72L508.14 720.72L94.8 720.72z" /></clipPath><clipPath id="41"><path id="" clip-rule="evenodd" transform="matrix(1 0 0 1 0 0)" d="M0 0.02001953L595.2 0.02001953L595.2 0.02001953L595.2 842L595.2 842L0 842z" /></clipPath><clipPath id="42"><path id="" clip-rule="evenodd" transform="matrix(1 0 0 1 0 0)" d="M40.776 775.114L548.507 775.114L548.507 775.114L548.507 57.96198L548.507 57.96198L40.776 57.96198L40.776 57.96198L40.776 775.114" /></clipPath><clipPath id="43"><path id="" clip-rule="evenodd" transform="matrix(1 0 0 1 0 0)" d="M40.8 58.02002L547.8 58.02002L547.8 58.02002L547.8 775.14L547.8 775.14L40.8 775.14z" /></clipPath><clipPath id="44"><path id="" clip-rule="evenodd" transform="matrix(1 0 0 1 0 0)" d="M94.8 72.06L508.14 72.06L508.14 72.06L508.14 720.72L508.14 720.72L94.8 720.72z" /></clipPath><clipPath id="45"><path id="" clip-rule="evenodd" transform="matrix(1 0 0 1 0 0)" d="M0 0.02001953L595.2 0.02001953L595.2 0.02001953L595.2 842L595.2 842L0 842z" /></clipPath><clipPath id="46"><path id="" clip-rule="evenodd" transform="matrix(1 0 0 1 0 0)" d="M40.776 775.114L548.507 775.114L548.507 775.114L548.507 57.96198L548.507 57.96198L40.776 57.96198L40.776 57.96198L40.776 775.114" /></clipPath><clipPath id="47"><path id="" clip-rule="evenodd" transform="matrix(1 0 0 1 0 0)" d="M40.8 58.02002L547.8 58.02002L547.8 58.02002L547.8 775.14L547.8 775.14L40.8 775.14z" /></clipPath><clipPath id="48"><path id="" clip-rule="evenodd" transform="matrix(1 0 0 1 0 0)" d="M94.8 72.06L508.14 72.06L508.14 72.06L508.14 720.72L508.14 720.72L94.8 720.72z" /></clipPath><clipPath id="49"><path id="" clip-rule="evenodd" transform="matrix(1 0 0 1 0 0)" d="M0 0.02001953L595.2 0.02001953L595.2 0.02001953L595.2 842L595.2 842L0 842z" /></clipPath><clipPath id="50"><path id="" clip-rule="evenodd" transform="matrix(1 0 0 1 0 0)" d="M40.776 775.114L548.507 775.114L548.507 775.114L548.507 57.96198L548.507 57.96198L40.776 57.96198L40.776 57.96198L40.776 775.114" /></clipPath><clipPath id="51"><path id="" clip-rule="evenodd" transform="matrix(1 0 0 1 0 0)" d="M40.8 58.02002L547.8 58.02002L547.8 58.02002L547.8 775.14L547.8 775.14L40.8 775.14z" /></clipPath><clipPath id="52"><path id="" clip-rule="evenodd" transform="matrix(1 0 0 1 0 0)" d="M94.8 72.06L508.14 72.06L508.14 72.06L508.14 720.72L508.14 720.72L94.8 720.72z" /></clipPath><clipPath id="53"><path id="" clip-rule="evenodd" transform="matrix(1 0 0 1 0 0)" d="M0 0.02001953L595.2 0.02001953L595.2 0.02001953L595.2 842L595.2 842L0 842z" /></clipPath><clipPath id="54"><path id="" clip-rule="evenodd" transform="matrix(1 0 0 1 0 0)" d="M40.776 775.114L548.507 775.114L548.507 775.114L548.507 57.96198L548.507 57.96198L40.776 57.96198L40.776 57.96198L40.776 775.114" /></clipPath><clipPath id="55"><path id="" clip-rule="evenodd" transform="matrix(1 0 0 1 0 0)" d="M40.8 58.02002L547.8 58.02002L547.8 58.02002L547.8 775.14L547.8 775.14L40.8 775.14z" /></clipPath><clipPath id="56"><path id="" clip-rule="evenodd" transform="matrix(1 0 0 1 0 0)" d="M94.8 72.06L508.14 72.06L508.14 72.06L508.14 720.72L508.14 720.72L94.8 720.72z" /></clipPath><clipPath id="57"><path id="" clip-rule="evenodd" transform="matrix(1 0 0 1 0 0)" d="M0 0.02001953L595.2 0.02001953L595.2 0.02001953L595.2 842L595.2 842L0 842z" /></clipPath><clipPath id="58"><path id="" clip-rule="evenodd" transform="matrix(1 0 0 1 0 0)" d="M40.776 775.114L548.507 775.114L548.507 775.114L548.507 57.96198L548.507 57.96198L40.776 57.96198L40.776 57.96198L40.776 775.114" /></clipPath><clipPath id="59"><path id="" clip-rule="evenodd" transform="matrix(1 0 0 1 0 0)" d="M40.8 58.02002L547.8 58.02002L547.8 58.02002L547.8 775.14L547.8 775.14L40.8 775.14z" /></clipPath><clipPath id="60"><path id="" clip-rule="evenodd" transform="matrix(1 0 0 1 0 0)" d="M94.8 72.06L508.14 72.06L508.14 72.06L508.14 720.72L508.14 720.72L94.8 720.72z" /></clipPath><clipPath id="61"><path id="" clip-rule="evenodd" transform="matrix(1 0 0 1 0 0)" d="M0 0.02001953L595.2 0.02001953L595.2 0.02001953L595.2 842L595.2 842L0 842z" /></clipPath><clipPath id="62"><path id="" clip-rule="evenodd" transform="matrix(1 0 0 1 0 0)" d="M40.776 775.114L548.507 775.114L548.507 775.114L548.507 57.96198L548.507 57.96198L40.776 57.96198L40.776 57.96198L40.776 775.114" /></clipPath><clipPath id="63"><path id="" clip-rule="evenodd" transform="matrix(1 0 0 1 0 0)" d="M40.8 58.02002L547.8 58.02002L547.8 58.02002L547.8 775.14L547.8 775.14L40.8 775.14z" /></clipPath><clipPath id="64"><path id="" clip-rule="evenodd" transform="matrix(1 0 0 1 0 0)" d="M94.8 72.06L508.14 72.06L508.14 72.06L508.14 720.72L508.14 720.72L94.8 720.72z" /></clipPath><clipPath id="65"><path id="" clip-rule="evenodd" transform="matrix(1 0 0 1 0 0)" d="M0 0.02001953L595.2 0.02001953L595.2 0.02001953L595.2 842L595.2 842L0 842z" /></clipPath><clipPath id="66"><path id="" clip-rule="evenodd" transform="matrix(1 0 0 1 0 0)" d="M40.776 775.114L548.507 775.114L548.507 775.114L548.507 57.96198L548.507 57.96198L40.776 57.96198L40.776 57.96198L40.776 775.114" /></clipPath><clipPath id="67"><path id="" clip-rule="evenodd" transform="matrix(1 0 0 1 0 0)" d="M40.8 58.02002L547.8 58.02002L547.8 58.02002L547.8 775.14L547.8 775.14L40.8 775.14z" /></clipPath><clipPath id="68"><path id="" clip-rule="evenodd" transform="matrix(1 0 0 1 0 0)" d="M94.8 72.06L508.14 72.06L508.14 72.06L508.14 720.72L508.14 720.72L94.8 720.72z" /></clipPath><clipPath id="69"><path id="" clip-rule="evenodd" transform="matrix(1 0 0 1 0 0)" d="M0 0.02001953L595.2 0.02001953L595.2 0.02001953L595.2 842L595.2 842L0 842z" /></clipPath><clipPath id="70"><path id="" clip-rule="evenodd" transform="matrix(1 0 0 1 0 0)" d="M40.776 775.114L548.507 775.114L548.507 775.114L548.507 57.96198L548.507 57.96198L40.776 57.96198L40.776 57.96198L40.776 775.114" /></clipPath><clipPath id="71"><path id="" clip-rule="evenodd" transform="matrix(1 0 0 1 0 0)" d="M40.8 58.02002L547.8 58.02002L547.8 58.02002L547.8 775.14L547.8 775.14L40.8 775.14z" /></clipPath><clipPath id="72"><path id="" clip-rule="evenodd" transform="matrix(1 0 0 1 0 0)" d="M94.8 72.06L508.14 72.06L508.14 72.06L508.14 720.72L508.14 720.72L94.8 720.72z" /></clipPath><clipPath id="73"><path id="" clip-rule="evenodd" transform="matrix(1 0 0 1 0 0)" d="M0 0.02001953L595.2 0.02001953L595.2 0.02001953L595.2 842L595.2 842L0 842z" /></clipPath><clipPath id="74"><path id="" clip-rule="evenodd" transform="matrix(1 0 0 1 0 0)" d="M40.776 775.114L548.507 775.114L548.507 775.114L548.507 57.96198L548.507 57.96198L40.776 57.96198L40.776 57.96198L40.776 775.114" /></clipPath><clipPath id="75"><path id="" clip-rule="evenodd" transform="matrix(1 0 0 1 0 0)" d="M40.8 58.02002L547.8 58.02002L547.8 58.02002L547.8 775.14L547.8 775.14L40.8 775.14z" /></clipPath><clipPath id="76"><path id="" clip-rule="evenodd" transform="matrix(1 0 0 1 0 0)" d="M94.8 72.06L508.14 72.06L508.14 72.06L508.14 720.72L508.14 720.72L94.8 720.72z" /></clipPath><clipPath id="77"><path id="" clip-rule="evenodd" transform="matrix(1 0 0 1 0 0)" d="M0 0.02001953L595.2 0.02001953L595.2 0.02001953L595.2 842L595.2 842L0 842z" /></clipPath><clipPath id="78"><path id="" clip-rule="evenodd" transform="matrix(1 0 0 1 0 0)" d="M40.776 775.114L548.507 775.114L548.507 775.114L548.507 57.96198L548.507 57.96198L40.776 57.96198L40.776 57.96198L40.776 775.114" /></clipPath><clipPath id="79"><path id="" clip-rule="evenodd" transform="matrix(1 0 0 1 0 0)" d="M40.8 58.02002L547.8 58.02002L547.8 58.02002L547.8 775.14L547.8 775.14L40.8 775.14z" /></clipPath><clipPath id="80"><path id="" clip-rule="evenodd" transform="matrix(1 0 0 1 0 0)" d="M94.8 72.06L508.14 72.06L508.14 72.06L508.14 720.72L508.14 720.72L94.8 720.72z" /></clipPath><clipPath id="81"><path id="" clip-rule="evenodd" transform="matrix(1 0 0 1 0 0)" d="M0 0.02001953L595.2 0.02001953L595.2 0.02001953L595.2 842L595.2 842L0 842z" /></clipPath><clipPath id="82"><path id="" clip-rule="evenodd" transform="matrix(1 0 0 1 0 0)" d="M40.776 775.114L548.507 775.114L548.507 775.114L548.507 57.96198L548.507 57.96198L40.776 57.96198L40.776 57.96198L40.776 775.114" /></clipPath><clipPath id="83"><path id="" clip-rule="evenodd" transform="matrix(1 0 0 1 0 0)" d="M40.8 58.02002L547.8 58.02002L547.8 58.02002L547.8 775.14L547.8 775.14L40.8 775.14z" /></clipPath><clipPath id="84"><path id="" clip-rule="evenodd" transform="matrix(1 0 0 1 0 0)" d="M94.8 72.06L508.14 72.06L508.14 72.06L508.14 720.72L508.14 720.72L94.8 720.72z" /></clipPath><clipPath id="85"><path id="" clip-rule="evenodd" transform="matrix(1 0 0 1 0 0)" d="M0 0.02001953L595.2 0.02001953L595.2 0.02001953L595.2 842L595.2 842L0 842z" /></clipPath><clipPath id="86"><path id="" clip-rule="evenodd" transform="matrix(1 0 0 1 0 0)" d="M40.776 775.114L548.507 775.114L548.507 775.114L548.507 57.96198L548.507 57.96198L40.776 57.96198L40.776 57.96198L40.776 775.114" /></clipPath><clipPath id="87"><path id="" clip-rule="evenodd" transform="matrix(1 0 0 1 0 0)" d="M40.8 58.02002L547.8 58.02002L547.8 58.02002L547.8 775.14L547.8 775.14L40.8 775.14z" /></clipPath><clipPath id="88"><path id="" clip-rule="evenodd" transform="matrix(1 0 0 1 0 0)" d="M94.8 72.06L508.14 72.06L508.14 72.06L508.14 720.72L508.14 720.72L94.8 720.72z" /></clipPath><clipPath id="89"><path id="" clip-rule="evenodd" transform="matrix(1 0 0 1 0 0)" d="M0 0.02001953L595.2 0.02001953L595.2 0.02001953L595.2 842L595.2 842L0 842z" /></clipPath><clipPath id="90"><path id="" clip-rule="evenodd" transform="matrix(1 0 0 1 0 0)" d="M40.776 775.114L548.507 775.114L548.507 775.114L548.507 57.96198L548.507 57.96198L40.776 57.96198L40.776 57.96198L40.776 775.114" /></clipPath><clipPath id="91"><path id="" clip-rule="evenodd" transform="matrix(1 0 0 1 0 0)" d="M40.8 58.02002L547.8 58.02002L547.8 58.02002L547.8 775.14L547.8 775.14L40.8 775.14z" /></clipPath><clipPath id="92"><path id="" clip-rule="evenodd" transform="matrix(1 0 0 1 0 0)" d="M94.8 72.06L508.14 72.06L508.14 72.06L508.14 720.72L508.14 720.72L94.8 720.72z" /></clipPath><clipPath id="93"><path id="" clip-rule="evenodd" transform="matrix(1 0 0 1 0 0)" d="M0 0.02001953L595.2 0.02001953L595.2 0.02001953L595.2 842L595.2 842L0 842z" /></clipPath><clipPath id="94"><path id="" clip-rule="evenodd" transform="matrix(1 0 0 1 0 0)" d="M40.776 775.114L548.507 775.114L548.507 775.114L548.507 57.96198L548.507 57.96198L40.776 57.96198L40.776 57.96198L40.776 775.114" /></clipPath><clipPath id="95"><path id="" clip-rule="evenodd" transform="matrix(1 0 0 1 0 0)" d="M40.8 58.02002L547.8 58.02002L547.8 58.02002L547.8 775.14L547.8 775.14L40.8 775.14z" /></clipPath><clipPath id="96"><path id="" clip-rule="evenodd" transform="matrix(1 0 0 1 0 0)" d="M94.8 72.06L508.14 72.06L508.14 72.06L508.14 720.72L508.14 720.72L94.8 720.72z" /></clipPath><clipPath id="97"><path id="" clip-rule="evenodd" transform="matrix(1 0 0 1 0 0)" d="M0 0.02001953L595.2 0.02001953L595.2 0.02001953L595.2 842L595.2 842L0 842z" /></clipPath><clipPath id="98"><path id="" clip-rule="evenodd" transform="matrix(1 0 0 1 0 0)" d="M40.776 775.114L548.507 775.114L548.507 775.114L548.507 57.96198L548.507 57.96198L40.776 57.96198L40.776 57.96198L40.776 775.114" /></clipPath><clipPath id="99"><path id="" clip-rule="evenodd" transform="matrix(1 0 0 1 0 0)" d="M40.8 58.02002L547.8 58.02002L547.8 58.02002L547.8 775.14L547.8 775.14L40.8 775.14z" /></clipPath><clipPath id="100"><path id="" clip-rule="evenodd" transform="matrix(1 0 0 1 0 0)" d="M94.8 72.06L508.14 72.06L508.14 72.06L508.14 720.72L508.14 720.72L94.8 720.72z" /></clipPath><clipPath id="101"><path id="" clip-rule="evenodd" transform="matrix(1 0 0 1 0 0)" d="M0 0.02001953L595.2 0.02001953L595.2 0.02001953L595.2 842L595.2 842L0 842z" /></clipPath><clipPath id="102"><path id="" clip-rule="evenodd" transform="matrix(1 0 0 1 0 0)" d="M40.776 775.114L548.507 775.114L548.507 775.114L548.507 57.96198L548.507 57.96198L40.776 57.96198L40.776 57.96198L40.776 775.114" /></clipPath><clipPath id="103"><path id="" clip-rule="evenodd" transform="matrix(1 0 0 1 0 0)" d="M40.8 58.02002L547.8 58.02002L547.8 58.02002L547.8 775.14L547.8 775.14L40.8 775.14z" /></clipPath><clipPath id="104"><path id="" clip-rule="evenodd" transform="matrix(1 0 0 1 0 0)" d="M94.8 72.06L508.14 72.06L508.14 72.06L508.14 720.72L508.14 720.72L94.8 720.72z" /></clipPath><clipPath id="105"><path id="" clip-rule="evenodd" transform="matrix(1 0 0 1 0 0)" d="M0 0.02001953L595.2 0.02001953L595.2 0.02001953L595.2 842L595.2 842L0 842z" /></clipPath><clipPath id="106"><path id="" clip-rule="evenodd" transform="matrix(1 0 0 1 0 0)" d="M40.776 775.114L548.507 775.114L548.507 775.114L548.507 57.96198L548.507 57.96198L40.776 57.96198L40.776 57.96198L40.776 775.114" /></clipPath><clipPath id="107"><path id="" clip-rule="evenodd" transform="matrix(1 0 0 1 0 0)" d="M40.8 58.02002L547.8 58.02002L547.8 58.02002L547.8 775.14L547.8 775.14L40.8 775.14z" /></clipPath><clipPath id="108"><path id="" clip-rule="evenodd" transform="matrix(1 0 0 1 0 0)" d="M94.8 72.06L508.14 72.06L508.14 72.06L508.14 720.72L508.14 720.72L94.8 720.72z" /></clipPath><clipPath id="109"><path id="" clip-rule="evenodd" transform="matrix(1 0 0 1 0 0)" d="M0 0.02001953L595.2 0.02001953L595.2 0.02001953L595.2 842L595.2 842L0 842z" /></clipPath><clipPath id="110"><path id="" clip-rule="evenodd" transform="matrix(1 0 0 1 0 0)" d="M40.776 775.114L548.507 775.114L548.507 775.114L548.507 57.96198L548.507 57.96198L40.776 57.96198L40.776 57.96198L40.776 775.114" /></clipPath><clipPath id="111"><path id="" clip-rule="evenodd" transform="matrix(1 0 0 1 0 0)" d="M40.8 58.02002L547.8 58.02002L547.8 58.02002L547.8 775.14L547.8 775.14L40.8 775.14z" /></clipPath><clipPath id="112"><path id="" clip-rule="evenodd" transform="matrix(1 0 0 1 0 0)" d="M94.8 72.06L508.14 72.06L508.14 72.06L508.14 720.72L508.14 720.72L94.8 720.72z" /></clipPath><clipPath id="113"><path id="" clip-rule="evenodd" transform="matrix(1 0 0 1 0 0)" d="M0 0.02001953L595.2 0.02001953L595.2 0.02001953L595.2 842L595.2 842L0 842z" /></clipPath><clipPath id="114"><path id="" clip-rule="evenodd" transform="matrix(1 0 0 1 0 0)" d="M40.776 775.114L548.507 775.114L548.507 775.114L548.507 57.96198L548.507 57.96198L40.776 57.96198L40.776 57.96198L40.776 775.114" /></clipPath><clipPath id="115"><path id="" clip-rule="evenodd" transform="matrix(1 0 0 1 0 0)" d="M40.8 58.02002L547.8 58.02002L547.8 58.02002L547.8 775.14L547.8 775.14L40.8 775.14z" /></clipPath><clipPath id="116"><path id="" clip-rule="evenodd" transform="matrix(1 0 0 1 0 0)" d="M94.8 72.06L508.14 72.06L508.14 72.06L508.14 720.72L508.14 720.72L94.8 720.72z" /></clipPath><clipPath id="117"><path id="" clip-rule="evenodd" transform="matrix(1 0 0 1 0 0)" d="M0 0.02001953L595.2 0.02001953L595.2 0.02001953L595.2 842L595.2 842L0 842z" /></clipPath><clipPath id="118"><path id="" clip-rule="evenodd" transform="matrix(1 0 0 1 0 0)" d="M40.776 775.114L548.507 775.114L548.507 775.114L548.507 57.96198L548.507 57.96198L40.776 57.96198L40.776 57.96198L40.776 775.114" /></clipPath><clipPath id="119"><path id="" clip-rule="evenodd" transform="matrix(1 0 0 1 0 0)" d="M40.8 58.02002L547.8 58.02002L547.8 58.02002L547.8 775.14L547.8 775.14L40.8 775.14z" /></clipPath><clipPath id="120"><path id="" clip-rule="evenodd" transform="matrix(1 0 0 1 0 0)" d="M94.8 72.06L508.14 72.06L508.14 72.06L508.14 720.72L508.14 720.72L94.8 720.72z" /></clipPath><clipPath id="121"><path id="" clip-rule="evenodd" transform="matrix(1 0 0 1 0 0)" d="M0 0.02001953L595.2 0.02001953L595.2 0.02001953L595.2 842L595.2 842L0 842z" /></clipPath><clipPath id="122"><path id="" clip-rule="evenodd" transform="matrix(1 0 0 1 0 0)" d="M40.776 775.114L548.507 775.114L548.507 775.114L548.507 57.96198L548.507 57.96198L40.776 57.96198L40.776 57.96198L40.776 775.114" /></clipPath><clipPath id="123"><path id="" clip-rule="evenodd" transform="matrix(1 0 0 1 0 0)" d="M40.8 58.02002L547.8 58.02002L547.8 58.02002L547.8 775.14L547.8 775.14L40.8 775.14z" /></clipPath><clipPath id="124"><path id="" clip-rule="evenodd" transform="matrix(1 0 0 1 0 0)" d="M94.8 72.06L508.14 72.06L508.14 72.06L508.14 720.72L508.14 720.72L94.8 720.72z" /></clipPath><clipPath id="125"><path id="" clip-rule="evenodd" transform="matrix(1 0 0 1 0 0)" d="M0 0.02001953L595.2 0.02001953L595.2 0.02001953L595.2 842L595.2 842L0 842z" /></clipPath><clipPath id="126"><path id="" clip-rule="evenodd" transform="matrix(1 0 0 1 0 0)" d="M40.776 775.114L548.507 775.114L548.507 775.114L548.507 57.96198L548.507 57.96198L40.776 57.96198L40.776 57.96198L40.776 775.114" /></clipPath><clipPath id="127"><path id="" clip-rule="evenodd" transform="matrix(1 0 0 1 0 0)" d="M40.8 58.02002L547.8 58.02002L547.8 58.02002L547.8 775.14L547.8 775.14L40.8 775.14z" /></clipPath><clipPath id="128"><path id="" clip-rule="evenodd" transform="matrix(1 0 0 1 0 0)" d="M94.8 72.06L508.14 72.06L508.14 72.06L508.14 720.72L508.14 720.72L94.8 720.72z" /></clipPath><clipPath id="129"><path id="" clip-rule="evenodd" transform="matrix(1 0 0 1 0 0)" d="M0 0.02001953L595.2 0.02001953L595.2 0.02001953L595.2 842L595.2 842L0 842z" /></clipPath><clipPath id="130"><path id="" clip-rule="evenodd" transform="matrix(1 0 0 1 0 0)" d="M40.776 775.114L548.507 775.114L548.507 775.114L548.507 57.96198L548.507 57.96198L40.776 57.96198L40.776 57.96198L40.776 775.114" /></clipPath><clipPath id="131"><path id="" clip-rule="evenodd" transform="matrix(1 0 0 1 0 0)" d="M40.8 58.02002L547.8 58.02002L547.8 58.02002L547.8 775.14L547.8 775.14L40.8 775.14z" /></clipPath><clipPath id="132"><path id="" clip-rule="evenodd" transform="matrix(1 0 0 1 0 0)" d="M94.8 72.06L508.14 72.06L508.14 72.06L508.14 720.72L508.14 720.72L94.8 720.72z" /></clipPath><clipPath id="133"><path id="" clip-rule="evenodd" transform="matrix(1 0 0 1 0 0)" d="M0 0.02001953L595.2 0.02001953L595.2 0.02001953L595.2 842L595.2 842L0 842z" /></clipPath><clipPath id="134"><path id="" clip-rule="evenodd" transform="matrix(1 0 0 1 0 0)" d="M373.591 199.959L216.544 199.959L216.544 199.959L216.544 162.739L216.544 162.739L373.591 162.739L373.591 162.739L373.591 199.959" /></clipPath><clipPath id="135"><path id="" clip-rule="evenodd" transform="matrix(1 0 0 1 0 0)" d="M493.389 134.516L452.498 134.516L452.498 134.516L452.498 105.344L452.498 105.344L493.389 105.344L493.389 105.344L493.389 134.516" /></clipPath></defs><g transform="matrix(1.333333 0 0 1.333333 0 0)"><g clip-path="url(#1)"><g clip-path="url(#2)"><g clip-path="url(#3)"><g clip-path="url(#4)"><g clip-path="url(#5)"></g></g></g></g><g clip-path="url(#6)"><g clip-path="url(#7)"><g clip-path="url(#8)"><g clip-path="url(#9)"></g></g></g></g><g clip-path="url(#10)"><g clip-path="url(#11)"><g clip-path="url(#12)"><g clip-path="url(#13)"></g></g></g></g><g clip-path="url(#14)"><g clip-path="url(#15)"><g clip-path="url(#16)"><g clip-path="url(#17)"></g></g></g></g><g clip-path="url(#18)"><g clip-path="url(#19)"><g clip-path="url(#20)"><g clip-path="url(#21)"></g></g></g></g><g clip-path="url(#22)"><g clip-path="url(#23)"><g clip-path="url(#24)"><g clip-path="url(#25)"></g></g></g></g><g clip-path="url(#26)"><g clip-path="url(#27)"><g clip-path="url(#28)"><g clip-path="url(#29)"></g></g></g></g><g clip-path="url(#30)"><g clip-path="url(#31)"><g clip-path="url(#32)"><g clip-path="url(#33)"></g></g></g></g><g clip-path="url(#34)"><g clip-path="url(#35)"><g clip-path="url(#36)"><g clip-path="url(#37)"></g></g></g></g><g clip-path="url(#38)"><g clip-path="url(#39)"><g clip-path="url(#40)"><g clip-path="url(#41)"></g></g></g></g><g clip-path="url(#42)"><g clip-path="url(#43)"><g clip-path="url(#44)"><g clip-path="url(#45)"></g></g></g></g><g clip-path="url(#46)"><g clip-path="url(#47)"><g clip-path="url(#48)"><g clip-path="url(#49)"></g></g></g></g><g clip-path="url(#50)"><g clip-path="url(#51)"><g clip-path="url(#52)"><g clip-path="url(#53)"></g></g></g></g><g clip-path="url(#54)"><g clip-path="url(#55)"><g clip-path="url(#56)"><g clip-path="url(#57)"></g></g></g></g><g clip-path="url(#58)"><g clip-path="url(#59)"><g clip-path="url(#60)"><g clip-path="url(#61)"></g></g></g></g><g clip-path="url(#62)"><g clip-path="url(#63)"><g clip-path="url(#64)"><g clip-path="url(#65)"></g></g></g></g><g clip-path="url(#66)"><g clip-path="url(#67)"><g clip-path="url(#68)"><g clip-path="url(#69)"></g></g></g></g><g clip-path="url(#70)"><g clip-path="url(#71)"><g clip-path="url(#72)"><g clip-path="url(#73)"></g></g></g></g><g clip-path="url(#74)"><g clip-path="url(#75)"><g clip-path="url(#76)"><g clip-path="url(#77)"></g></g></g></g><g clip-path="url(#78)"><g clip-path="url(#79)"><g clip-path="url(#80)"><g clip-path="url(#81)"></g></g></g></g><g clip-path="url(#82)"><g clip-path="url(#83)"><g clip-path="url(#84)"><g clip-path="url(#85)"></g></g></g></g><g clip-path="url(#86)"><g clip-path="url(#87)"><g clip-path="url(#88)"><g clip-path="url(#89)"></g></g></g></g><g clip-path="url(#90)"><g clip-path="url(#91)"><g clip-path="url(#92)"><g clip-path="url(#93)"></g></g></g></g><g clip-path="url(#94)"><g clip-path="url(#95)"><g clip-path="url(#96)"><g clip-path="url(#97)"></g></g></g></g><g clip-path="url(#98)"><g clip-path="url(#99)"><g clip-path="url(#100)"><g clip-path="url(#101)"></g></g></g></g><g clip-path="url(#102)"><g clip-path="url(#103)"><g clip-path="url(#104)"><g clip-path="url(#105)"></g></g></g></g><g clip-path="url(#106)"><g clip-path="url(#107)"><g clip-path="url(#108)"><g clip-path="url(#109)"></g></g></g></g><g clip-path="url(#110)"><g clip-path="url(#111)"><g clip-path="url(#112)"><g clip-path="url(#113)"></g></g></g></g><g clip-path="url(#114)"><g clip-path="url(#115)"><g clip-path="url(#116)"><g clip-path="url(#117)"></g></g></g></g><g clip-path="url(#118)"><g clip-path="url(#119)"><g clip-path="url(#120)"><g clip-path="url(#121)"></g></g></g></g><g clip-path="url(#122)"><g clip-path="url(#123)"><g clip-path="url(#124)"><g clip-path="url(#125)"></g></g></g></g><g clip-path="url(#126)"><g clip-path="url(#127)"><g clip-path="url(#128)"><g clip-path="url(#129)"></g></g></g></g><g clip-path="url(#130)"><g clip-path="url(#131)"><g clip-path="url(#132)"><g clip-path="url(#133)"><path id="636" transform="matrix(1 0 0 -1 0 842)" d="M99.864 191.578L282.034 191.578L282.034 192.805L99.864 192.805z" stroke="none" fill="#000000" fill-rule="nonzero" /><path id="668" transform="matrix(1 0 0 -1 0 842)" d="M288.78 191.578L490.373 191.578L490.373 192.805L288.78 192.805z" stroke="none" fill="#000000" fill-rule="nonzero" /></g></g></g></g><g clip-path="url(#134)"><g transform="matrix(0.4091503 0 0 0.4098065 216.114 162.314)"><g transform="matrix(1 0 0 1 0 0)"><image x="0" y="0" xlink:href="img_902.png" width="386" height="93" /></g></g></g><g clip-path="url(#135)"><g transform="matrix(0.4766897 0 0 0.4735239 452.214 105.014)"><g transform="matrix(1 0 0 1 0 0)"><image x="0" y="0" xlink:href="img_903.png" width="87" height="63" /></g></g></g></g></g></svg>