<svg xmlns="http://www.w3.org/2000/svg" xmlns:xlink="http://www.w3.org/1999/xlink" id="body_149" preserveAspectRatio="xMinYMin meet" viewBox="0 0 793 1123"><defs><clipPath id="1"><path id="" clip-rule="evenodd" transform="matrix(1 0 0 1 0 0)" d="M0 842L0 0L0 0L595 0L595 0L595 842L595 842L0 842z" /></clipPath><clipPath id="2"><path id="" clip-rule="evenodd" transform="matrix(1 0 0 1 0 0)" d="M225.96 448.92L534.66 448.92L534.66 448.92L534.66 665.94L534.66 665.94L225.96 665.94z" /></clipPath><clipPath id="3"><path id="" clip-rule="evenodd" transform="matrix(1 0 0 1 0 0)" d="M224.94 447.9L535.68 447.9L535.68 447.9L535.68 666.9L535.68 666.9L224.94 666.9z" /></clipPath><clipPath id="4"><path id="" clip-rule="evenodd" transform="matrix(1 0 0 1 0 0)" d="M0 0.02001953L595.2 0.02001953L595.2 0.02001953L595.2 842L595.2 842L0 842z" /></clipPath></defs><g transform="matrix(1.333333 0 0 1.333333 0 0)"><g clip-path="url(#1)"><path id="571" transform="matrix(1 0 0 -1 0 842)" d="M224.94 132.08L558 132.08L558 84.08L224.94 84.08" stroke="none" fill="#ECF5FC" fill-rule="nonzero" /><g clip-path="url(#2)"><g clip-path="url(#3)"><g clip-path="url(#4)"><g transform="matrix(0.7 0 0 0.7000645 225.96 448.92)"><g transform="matrix(1 0 0 1 0 0)"><image x="0" y="0" xlink:href="img_416.png" width="441" height="310" /></g></g></g></g></g></g></g></svg>