<svg xmlns="http://www.w3.org/2000/svg" xmlns:xlink="http://www.w3.org/1999/xlink" id="body_51" preserveAspectRatio="xMinYMin meet" viewBox="0 0 793 1123"><defs><clipPath id="1"><path id="" clip-rule="evenodd" transform="matrix(1 0 0 1 0 0)" d="M0 842L0 0L0 0L595 0L595 0L595 842L595 842L0 842z" /></clipPath><clipPath id="2"><path id="" clip-rule="evenodd" transform="matrix(1 0 0 1 0 0)" d="M225.96 459.9L557.64 459.9L557.64 459.9L557.64 521.82L557.64 521.82L225.96 521.82z" /></clipPath><clipPath id="3"><path id="" clip-rule="evenodd" transform="matrix(1 0 0 1 0 0)" d="M224.94 439.92L558.66 439.92L558.66 439.92L558.66 540.54L558.66 540.54L224.94 540.54z" /></clipPath><clipPath id="4"><path id="" clip-rule="evenodd" transform="matrix(1 0 0 1 0 0)" d="M0 0.02001953L595.2 0.02001953L595.2 0.02001953L595.2 842L595.2 842L0 842z" /></clipPath><clipPath id="5"><path id="" clip-rule="evenodd" transform="matrix(1 0 0 1 0 0)" d="M224.94 439.92L558.66 439.92L558.66 439.92L558.66 540.54L558.66 540.54L224.94 540.54z" /></clipPath><clipPath id="6"><path id="" clip-rule="evenodd" transform="matrix(1 0 0 1 0 0)" d="M0 0.02001953L595.2 0.02001953L595.2 0.02001953L595.2 842L595.2 842L0 842z" /></clipPath><clipPath id="7"><path id="" clip-rule="evenodd" transform="matrix(1 0 0 1 0 0)" d="M124.56 641.46L202.98 641.46L202.98 641.46L202.98 655.86L202.98 655.86L124.56 655.86z" /></clipPath><clipPath id="8"><path id="" clip-rule="evenodd" transform="matrix(1 0 0 1 0 0)" d="M0 0.02001953L595.2 0.02001953L595.2 0.02001953L595.2 842L595.2 842L0 842z" /></clipPath><clipPath id="9"><path id="" clip-rule="evenodd" transform="matrix(1 0 0 1 0 0)" d="M124.98 642L198.36 642L198.36 642L198.36 655.8L198.36 655.8L124.98 655.8z" /></clipPath><clipPath id="10"><path id="" clip-rule="evenodd" transform="matrix(1 0 0 1 0 0)" d="M124.56 641.46L202.98 641.46L202.98 641.46L202.98 655.86L202.98 655.86L124.56 655.86z" /></clipPath><clipPath id="11"><path id="" clip-rule="evenodd" transform="matrix(1 0 0 1 0 0)" d="M0 0.02001953L595.2 0.02001953L595.2 0.02001953L595.2 842L595.2 842L0 842z" /></clipPath></defs><g transform="matrix(1.333333 0 0 1.333333 0 0)"><g clip-path="url(#1)"><g clip-path="url(#2)"><g clip-path="url(#3)"><g clip-path="url(#4)"><g transform="matrix(0.48 0 0 0.48 225.96 459.9)"><g transform="matrix(1 0 0 1 0 0)"><image x="0" y="0" xlink:href="img_144.png" width="691" height="129" /></g></g></g></g></g><g clip-path="url(#5)"><g clip-path="url(#6)"><path id="719" transform="matrix(1 0 0 -1 0 842)" d="M244.86 391.28L245.88 391.28L245.88 391.76L244.86 391.76z" stroke="none" fill="#000000" fill-rule="nonzero" /><path id="720" transform="matrix(1 0 0 -1 0 842)" d="M244.86 356.84L245.88 356.84L245.88 391.28L244.86 391.28z" stroke="none" fill="#000000" fill-rule="nonzero" /><path id="722" transform="matrix(1 0 0 -1 0 842)" d="M289.86 340.28L290.88 340.28L290.88 340.76L289.86 340.76z" stroke="none" fill="#000000" fill-rule="nonzero" /><path id="723" transform="matrix(1 0 0 -1 0 842)" d="M289.86 311L290.88 311L290.88 340.28L289.86 340.28z" stroke="none" fill="#000000" fill-rule="nonzero" /><path id="728" transform="matrix(1 0 0 -1 0 842)" d="M544.86 391.28L545.88 391.28L545.88 391.76L544.86 391.76z" stroke="none" fill="#000000" fill-rule="nonzero" /><path id="729" transform="matrix(1 0 0 -1 0 842)" d="M544.86 356.84L545.88 356.84L545.88 391.28L544.86 391.28z" stroke="none" fill="#000000" fill-rule="nonzero" /></g></g><g clip-path="url(#7)"><g clip-path="url(#8)"><path id="732" transform="matrix(1 0 0 -1 0 842)" d="M124.56 186.14L202.98 186.14L202.98 200.54L124.56 200.54z" stroke="none" fill="#FFFFFF" fill-rule="nonzero" /></g></g><g clip-path="url(#9)"><g clip-path="url(#10)"><g clip-path="url(#11)"><g transform="matrix(0.7265346 0 0 0.7263158 124.98 642)"><g transform="matrix(1 0 0 1 0 0)"><image x="0" y="0" xlink:href="img_09.png" width="101" height="19" /></g></g></g></g></g><path id="734" transform="matrix(1 0 0 -1 0 842)" d="M224.94 204.5L558 204.5L558 170.54L224.94 170.54" stroke="none" fill="#ECF5FC" fill-rule="nonzero" /></g></g></svg>