<svg xmlns="http://www.w3.org/2000/svg" xmlns:xlink="http://www.w3.org/1999/xlink" id="body_130" preserveAspectRatio="xMinYMin meet" viewBox="0 0 793 1123"><defs><clipPath id="1"><path id="" clip-rule="evenodd" transform="matrix(1 0 0 1 0 0)" d="M0 842L0 0L0 0L595 0L595 0L595 842L595 842L0 842z" /></clipPath><clipPath id="2"><path id="" clip-rule="evenodd" transform="matrix(1 0 0 1 0 0)" d="M73.98 146.28L205.98 146.28L205.98 146.28L205.98 180.36L205.98 180.36L73.98 180.36z" /></clipPath><clipPath id="3"><path id="" clip-rule="evenodd" transform="matrix(1 0 0 1 0 0)" d="M72.96 145.26L206.94 145.26L206.94 145.26L206.94 181.32L206.94 181.32L72.96 181.32z" /></clipPath><clipPath id="4"><path id="" clip-rule="evenodd" transform="matrix(1 0 0 1 0 0)" d="M0 0.02001953L595.2 0.02001953L595.2 0.02001953L595.2 842L595.2 842L0 842z" /></clipPath><clipPath id="5"><path id="" clip-rule="evenodd" transform="matrix(1 0 0 1 0 0)" d="M174.3 598.32L205.98 598.32L205.98 598.32L205.98 630.96L205.98 630.96L174.3 630.96z" /></clipPath><clipPath id="6"><path id="" clip-rule="evenodd" transform="matrix(1 0 0 1 0 0)" d="M173.28 597.3L206.94 597.3L206.94 597.3L206.94 631.92L206.94 631.92L173.28 631.92z" /></clipPath><clipPath id="7"><path id="" clip-rule="evenodd" transform="matrix(1 0 0 1 0 0)" d="M0 0.02001953L595.2 0.02001953L595.2 0.02001953L595.2 842L595.2 842L0 842z" /></clipPath><clipPath id="8"><path id="" clip-rule="evenodd" transform="matrix(1 0 0 1 0 0)" d="M124.56 712.32L202.98 712.32L202.98 712.32L202.98 726.72L202.98 726.72L124.56 726.72z" /></clipPath><clipPath id="9"><path id="" clip-rule="evenodd" transform="matrix(1 0 0 1 0 0)" d="M0 0.02001953L595.2 0.02001953L595.2 0.02001953L595.2 842L595.2 842L0 842z" /></clipPath><clipPath id="10"><path id="" clip-rule="evenodd" transform="matrix(1 0 0 1 0 0)" d="M124.98 712.8L198.36 712.8L198.36 712.8L198.36 726.6L198.36 726.6L124.98 726.6z" /></clipPath><clipPath id="11"><path id="" clip-rule="evenodd" transform="matrix(1 0 0 1 0 0)" d="M124.56 712.32L202.98 712.32L202.98 712.32L202.98 726.72L202.98 726.72L124.56 726.72z" /></clipPath><clipPath id="12"><path id="" clip-rule="evenodd" transform="matrix(1 0 0 1 0 0)" d="M0 0.02001953L595.2 0.02001953L595.2 0.02001953L595.2 842L595.2 842L0 842z" /></clipPath></defs><g transform="matrix(1.333333 0 0 1.333333 0 0)"><g clip-path="url(#1)"><g clip-path="url(#2)"><g clip-path="url(#3)"><g clip-path="url(#4)"><g transform="matrix(0.48 0 0 0.48 73.98 146.28)"><g transform="matrix(1 0 0 1 0 0)"><image x="0" y="0" xlink:href="img_369.png" width="275" height="71" /></g></g></g></g></g><path id="743" transform="matrix(1 0 0 -1 0 842)" d="M242.94 383.36L558 383.36L558 321.38L242.94 321.38" stroke="none" fill="#ECF5FC" fill-rule="nonzero" /><g clip-path="url(#5)"><g clip-path="url(#6)"><g clip-path="url(#7)"><g transform="matrix(0.48 0 0 0.4730435 174.3 598.32)"><g transform="matrix(1 0 0 1 0 0)"><image x="0" y="0" xlink:href="img_370.png" width="66" height="69" /></g></g></g></g></g><g clip-path="url(#8)"><g clip-path="url(#9)"><path id="825" transform="matrix(1 0 0 -1 0 842)" d="M124.56 115.28L202.98 115.28L202.98 129.68L124.56 129.68z" stroke="none" fill="#FFFFFF" fill-rule="nonzero" /></g></g><g clip-path="url(#10)"><g clip-path="url(#11)"><g clip-path="url(#12)"><g transform="matrix(0.7265346 0 0 0.7263158 124.98 712.8)"><g transform="matrix(1 0 0 1 0 0)"><image x="0" y="0" xlink:href="img_09.png" width="101" height="19" /></g></g></g></g></g><path id="827" transform="matrix(1 0 0 -1 0 842)" d="M224.94 133.7L558 133.7L558 99.67999L224.94 99.67999" stroke="none" fill="#ECF5FC" fill-rule="nonzero" /></g></g></svg>