<svg xmlns="http://www.w3.org/2000/svg" xmlns:xlink="http://www.w3.org/1999/xlink" id="body_207" preserveAspectRatio="xMinYMin meet" viewBox="0 0 793 1123"><defs><clipPath id="1"><path id="" clip-rule="evenodd" transform="matrix(1 0 0 1 0 0)" d="M0 842L0 0L0 0L595 0L595 0L595 842L595 842L0 842z" /></clipPath><clipPath id="2"><path id="" clip-rule="evenodd" transform="matrix(1 0 0 1 0 0)" d="M36.96 75.06L217.08 75.06L217.08 75.06L217.08 245.58L217.08 245.58L36.96 245.58z" /></clipPath><clipPath id="3"><path id="" clip-rule="evenodd" transform="matrix(1 0 0 1 0 0)" d="M35.94 74.03998L463.26 74.03998L463.26 74.03998L463.26 246.6L463.26 246.6L35.94 246.6z" /></clipPath><clipPath id="4"><path id="" clip-rule="evenodd" transform="matrix(1 0 0 1 0 0)" d="M0 0.02001953L595.2 0.02001953L595.2 0.02001953L595.2 842L595.2 842L0 842z" /></clipPath><clipPath id="5"><path id="" clip-rule="evenodd" transform="matrix(1 0 0 1 0 0)" d="M253.14 76.73999L462.24 76.73999L462.24 76.73999L462.24 243.9L462.24 243.9L253.14 243.9z" /></clipPath><clipPath id="6"><path id="" clip-rule="evenodd" transform="matrix(1 0 0 1 0 0)" d="M35.94 74.03998L463.26 74.03998L463.26 74.03998L463.26 246.6L463.26 246.6L35.94 246.6z" /></clipPath><clipPath id="7"><path id="" clip-rule="evenodd" transform="matrix(1 0 0 1 0 0)" d="M0 0.02001953L595.2 0.02001953L595.2 0.02001953L595.2 842L595.2 842L0 842z" /></clipPath><clipPath id="8"><path id="" clip-rule="evenodd" transform="matrix(1 0 0 1 0 0)" d="M35.94 74.03998L463.26 74.03998L463.26 74.03998L463.26 246.6L463.26 246.6L35.94 246.6z" /></clipPath><clipPath id="9"><path id="" clip-rule="evenodd" transform="matrix(1 0 0 1 0 0)" d="M0 0.02001953L595.2 0.02001953L595.2 0.02001953L595.2 842L595.2 842L0 842z" /></clipPath><clipPath id="10"><path id="" clip-rule="evenodd" transform="matrix(1 0 0 1 0 0)" d="M216.96 319.56L546.96 319.56L546.96 319.56L546.96 482.52L546.96 482.52L216.96 482.52z" /></clipPath><clipPath id="11"><path id="" clip-rule="evenodd" transform="matrix(1 0 0 1 0 0)" d="M215.94 318.54L547.98 318.54L547.98 318.54L547.98 483.54L547.98 483.54L215.94 483.54z" /></clipPath><clipPath id="12"><path id="" clip-rule="evenodd" transform="matrix(1 0 0 1 0 0)" d="M0 0.02001953L595.2 0.02001953L595.2 0.02001953L595.2 842L595.2 842L0 842z" /></clipPath><clipPath id="13"><path id="" clip-rule="evenodd" transform="matrix(1 0 0 1 0 0)" d="M215.94 318.54L547.98 318.54L547.98 318.54L547.98 483.54L547.98 483.54L215.94 483.54z" /></clipPath><clipPath id="14"><path id="" clip-rule="evenodd" transform="matrix(1 0 0 1 0 0)" d="M0 0.02001953L595.2 0.02001953L595.2 0.02001953L595.2 842L595.2 842L0 842z" /></clipPath></defs><g transform="matrix(1.333333 0 0 1.333333 0 0)"><g clip-path="url(#1)"><g clip-path="url(#2)"><g clip-path="url(#3)"><g clip-path="url(#4)"><g transform="matrix(0.4792819 0 0 0.4789888 36.96 75.06)"><g transform="matrix(1 0 0 1 0 0)"><image x="0" y="0" xlink:href="img_543.png" width="376" height="356" /></g></g></g></g></g><g clip-path="url(#5)"><g clip-path="url(#6)"><g clip-path="url(#7)"><g transform="matrix(0.4795871 0 0 0.4789685 253.14 76.73999)"><g transform="matrix(1 0 0 1 0 0)"><image x="0" y="0" xlink:href="img_544.png" width="436" height="349" /></g></g></g></g></g><g clip-path="url(#8)"><g clip-path="url(#9)"><path id="328" transform="matrix(1 0 0 -1 0 842)" d="M354.78 736.04L354.6 736.16L354.6 736.16L354.42 736.22L354.42 736.22L354.24 736.28L354.24 736.28L354.06 736.34L354.06 736.34L353.88 736.28L353.88 736.28L353.7 736.22L353.7 736.22L353.52 736.16L353.52 736.16L353.34 736.04L353.34 736.04L353.22 735.86L353.22 735.86L353.04 735.32L353.04 735.32L353.16 734.96L353.16 734.96L353.22 734.78L353.22 734.78L353.34 734.6L353.34 734.6L353.7 734.36L353.7 734.36L353.88 734.36L353.88 734.36L354.06 734.3L354.06 734.3L354.24 734.36L354.24 734.36L354.42 734.36L354.42 734.36L354.78 734.6L354.78 734.6L354.9 734.78L354.9 734.78L355.02 734.96L355.02 734.96L355.08 735.14L355.08 735.14L355.08 735.5L355.08 735.5L355.02 735.68L355.02 735.68L354.78 736.04" stroke="none" fill="#FF0000" fill-rule="evenodd" /><path id="329" transform="matrix(1 0 0 -1 0 842)" d="M354.06 735.32L351 738.32L350.58 738.86L351.12 739.16L364.8 746.72L366.36 747.56L365.52 746L357.96 732.38L357.6 731.84L357.12 732.26L357.06 732.86L364.62 746.48L365.52 746L365.28 745.82L351.6 738.26L351.12 739.16L351.72 739.04L354.78 736.04" stroke="none" fill="#FF0000" fill-rule="nonzero" /><path id="330" transform="matrix(1 0 0 -1 0 842)" d="M357.12 732.26L354.06 735.32L354.78 736.04L357.84 732.98" stroke="none" fill="#FF0000" fill-rule="nonzero" /><path id="331" transform="matrix(1 0 0 -1 0 842)" d="M354.42 735.68L351.36 738.68L351.36 738.68L365.04 746.24L365.04 746.24L357.48 732.62" stroke="none" fill="#FF0000" fill-rule="evenodd" /><path id="332" transform="matrix(1 0 0 -1 0 842)" d="M333.54 716.06L332.88 715.4L334.26 714.02L334.92 714.68" stroke="none" fill="#FF0000" fill-rule="nonzero" /><path id="333" transform="matrix(1 0 0 -1 0 842)" d="M353.4 735.98L354.06 736.64L355.44 735.26L354.78 734.6" stroke="none" fill="#FF0000" fill-rule="nonzero" /><path id="334" transform="matrix(1 0 0 -1 0 842)" d="M333.54 716.06L334.92 714.68L354.78 734.6L353.4 735.98" stroke="none" fill="#FF0000" fill-rule="nonzero" /><path id="335" transform="matrix(1 0 0 -1 0 842)" d="M416.82 685.76L416.7 685.58L416.7 685.58L416.58 685.4L416.58 685.4L416.52 685.22L416.52 685.22L416.52 684.86L416.52 684.86L416.58 684.68L416.58 684.68L416.82 684.32L416.82 684.32L416.94 684.2L416.94 684.2L417.12 684.14L417.12 684.14L417.3 684.08L417.3 684.08L417.54 684.02L417.54 684.02L417.72 684.08L417.72 684.08L417.9 684.14L417.9 684.14L418.08 684.2L418.08 684.2L418.2 684.32L418.2 684.32L418.44 684.68L418.44 684.68L418.5 684.86L418.5 684.86L418.5 685.22L418.5 685.22L418.44 685.4L418.44 685.4L418.32 685.58L418.32 685.58L418.2 685.76L418.2 685.76L418.08 685.88L418.08 685.88L417.54 686.06L417.54 686.06L417.3 686L417.3 686L416.94 685.88L416.94 685.88L416.82 685.76" stroke="none" fill="#FF0000" fill-rule="evenodd" /><path id="336" transform="matrix(1 0 0 -1 0 842)" d="M417.54 685.04L414.48 681.98L414 681.56L413.64 682.1L406.08 695.78L405.24 697.34L406.8 696.5L420.42 688.94L420.96 688.58L420.54 688.1L419.94 688.04L406.32 695.6L406.8 696.5L406.98 696.2599L414.54 682.58L413.64 682.1L413.76 682.7L416.82 685.7599" stroke="none" fill="#FF0000" fill-rule="nonzero" /><path id="337" transform="matrix(1 0 0 -1 0 842)" d="M420.54 688.1L417.54 685.04L416.82 685.7599L419.82 688.8199" stroke="none" fill="#FF0000" fill-rule="nonzero" /><path id="338" transform="matrix(1 0 0 -1 0 842)" d="M417.18 685.4L414.12 682.34L414.12 682.34L406.56 696.02L406.56 696.02L420.18 688.46" stroke="none" fill="#FF0000" fill-rule="evenodd" /><path id="339" transform="matrix(1 0 0 -1 0 842)" d="M435.84 665.3L436.5 664.64L437.88 666.02L437.22 666.68" stroke="none" fill="#FF0000" fill-rule="nonzero" /><path id="340" transform="matrix(1 0 0 -1 0 842)" d="M416.88 684.32L416.22 684.98L417.6 686.36L418.26 685.7" stroke="none" fill="#FF0000" fill-rule="nonzero" /><path id="341" transform="matrix(1 0 0 -1 0 842)" d="M435.84 665.3L437.22 666.68L418.26 685.7L416.88 684.32" stroke="none" fill="#FF0000" fill-rule="nonzero" /><path id="342" transform="matrix(1 0 0 -1 0 842)" d="M244.08 681.68L244.02 681.92L244.02 681.92L243.96 682.1L243.96 682.1L243.9 682.28L243.9 682.28L243.78 682.4L243.78 682.4L243.6 682.52L243.6 682.52L243.48 682.64L243.48 682.64L243.24 682.7L243.24 682.7L242.88 682.7L242.88 682.7L242.7 682.64L242.7 682.64L242.34 682.4L242.34 682.4L242.22 682.28L242.22 682.28L242.16 682.1L242.16 682.1L242.1 681.92L242.1 681.92L242.04 681.68L242.04 681.68L242.16 681.32L242.16 681.32L242.22 681.14L242.22 681.14L242.34 680.96L242.34 680.96L242.52 680.84L242.52 680.84L242.7 680.78L242.7 680.78L242.88 680.72L242.88 680.72L243.24 680.72L243.24 680.72L243.48 680.78L243.48 680.78L243.6 680.84L243.6 680.84L243.78 680.96L243.78 680.96L243.9 681.14L243.9 681.14L243.96 681.32L243.96 681.32L244.08 681.68" stroke="none" fill="#000000" fill-rule="evenodd" /><path id="343" transform="matrix(1 0 0 -1 0 842)" d="M243.06 681.68L243.06 686.24L243.84 685.76L250.14 682.1L250.92 681.68L243.78 677.6L243.06 677.18L243.06 678.08L243.3 678.5L249.6 682.1L250.08 681.2L249.6 681.2L243.3 684.86L243.84 685.76L244.08 685.34L244.08 681.68" stroke="none" fill="#000000" fill-rule="nonzero" /><path id="344" transform="matrix(1 0 0 -1 0 842)" d="M243.06 678.08L244.08 678.08L244.08 681.68L243.06 681.68z" stroke="none" fill="#000000" fill-rule="nonzero" /><path id="345" transform="matrix(1 0 0 -1 0 842)" d="M243.54 681.68L243.54 685.34L243.54 685.34L249.84 681.68L249.84 681.68L243.54 678.08" stroke="none" fill="#000000" fill-rule="evenodd" /><path id="346" transform="matrix(1 0 0 -1 0 842)" d="M226.26 680.66L244.02 680.66L244.02 682.64L226.26 682.64z" stroke="none" fill="#000000" fill-rule="nonzero" /></g></g><path id="427" transform="matrix(1 0 0 -1 0 842)" d="M233.94 293.9L549 293.9L549 231.92L233.94 231.92" stroke="none" fill="#ECF5FC" fill-rule="nonzero" /><g clip-path="url(#10)"><g clip-path="url(#11)"><g clip-path="url(#12)"><g transform="matrix(0.4796512 0 0 0.4792942 216.96 319.56)"><g transform="matrix(1 0 0 1 0 0)"><image x="0" y="0" xlink:href="img_545.png" width="688" height="340" /></g></g></g></g></g><g clip-path="url(#13)"><g clip-path="url(#14)"><path id="516" transform="matrix(1 0 0 -1 0 842)" d="M409.68 385.58L434.28 385.58L434.28 395.18L409.68 395.18z" stroke="none" fill="#FFFFFF" fill-rule="nonzero" /><path id="522" transform="matrix(1 0 0 -1 0 842)" d="M313.86 456.26L338.46 456.26L338.46 465.86L313.86 465.86z" stroke="none" fill="#FFFFFF" fill-rule="nonzero" /><path id="528" transform="matrix(1 0 0 -1 0 842)" d="M263.1 458.66L273.9 458.66L273.9 468.26L263.1 468.26z" stroke="none" fill="#FFFFFF" fill-rule="nonzero" /><path id="531" transform="matrix(1 0 0 -1 0 842)" d="M451.98 448.58L463.98 448.58L463.98 458.18L451.98 458.18z" stroke="none" fill="#FFFFFF" fill-rule="nonzero" /><path id="534" transform="matrix(1 0 0 -1 0 842)" d="M486.24 434.24L505.44 434.24L505.44 443.84L486.24 443.84z" stroke="none" fill="#FFFFFF" fill-rule="nonzero" /></g></g></g></g></svg>