<svg xmlns="http://www.w3.org/2000/svg" xmlns:xlink="http://www.w3.org/1999/xlink" id="body_222" preserveAspectRatio="xMinYMin meet" viewBox="0 0 793 1123"><defs><clipPath id="1"><path id="" clip-rule="evenodd" transform="matrix(1 0 0 1 0 0)" d="M0 842L0 0L0 0L595 0L595 0L595 842L595 842L0 842z" /></clipPath><clipPath id="2"><path id="" clip-rule="evenodd" transform="matrix(1 0 0 1 0 0)" d="M124.56 279.96L202.98 279.96L202.98 279.96L202.98 294.36L202.98 294.36L124.56 294.36z" /></clipPath><clipPath id="3"><path id="" clip-rule="evenodd" transform="matrix(1 0 0 1 0 0)" d="M0 0.02001953L595.2 0.02001953L595.2 0.02001953L595.2 842L595.2 842L0 842z" /></clipPath><clipPath id="4"><path id="" clip-rule="evenodd" transform="matrix(1 0 0 1 0 0)" d="M124.98 280.44L198.36 280.44L198.36 280.44L198.36 294.24L198.36 294.24L124.98 294.24z" /></clipPath><clipPath id="5"><path id="" clip-rule="evenodd" transform="matrix(1 0 0 1 0 0)" d="M124.56 279.96L202.98 279.96L202.98 279.96L202.98 294.36L202.98 294.36L124.56 294.36z" /></clipPath><clipPath id="6"><path id="" clip-rule="evenodd" transform="matrix(1 0 0 1 0 0)" d="M0 0.02001953L595.2 0.02001953L595.2 0.02001953L595.2 842L595.2 842L0 842z" /></clipPath></defs><g transform="matrix(1.333333 0 0 1.333333 0 0)"><g clip-path="url(#1)"><g clip-path="url(#2)"><g clip-path="url(#3)"><path id="684" transform="matrix(1 0 0 -1 0 842)" d="M124.56 547.64L202.98 547.64L202.98 562.04L124.56 562.04z" stroke="none" fill="#FFFFFF" fill-rule="nonzero" /></g></g><g clip-path="url(#4)"><g clip-path="url(#5)"><g clip-path="url(#6)"><g transform="matrix(0.7265346 0 0 0.7263158 124.98 280.44)"><g transform="matrix(1 0 0 1 0 0)"><image x="0" y="0" xlink:href="img_09.png" width="101" height="19" /></g></g></g></g></g><path id="686" transform="matrix(1 0 0 -1 0 842)" d="M242.94 566.06L558 566.06L558 532.04L242.94 532.04" stroke="none" fill="#ECF5FC" fill-rule="nonzero" /><path id="715" transform="matrix(1 0 0 -1 0 842)" d="M242.94 482.06L558 482.06L558 406.1L242.94 406.1" stroke="none" fill="#ECF5FC" fill-rule="nonzero" /></g></g></svg>