<svg xmlns="http://www.w3.org/2000/svg" xmlns:xlink="http://www.w3.org/1999/xlink" id="body_170" preserveAspectRatio="xMinYMin meet" viewBox="0 0 793 1123"><defs><clipPath id="1"><path id="" clip-rule="evenodd" transform="matrix(1 0 0 1 0 0)" d="M0 842L0 0L0 0L595 0L595 0L595 842L595 842L0 842z" /></clipPath><clipPath id="2"><path id="" clip-rule="evenodd" transform="matrix(1 0 0 1 0 0)" d="M216.96 77.03998L426.72 77.03998L426.72 77.03998L426.72 209.04L426.72 209.04L216.96 209.04z" /></clipPath><clipPath id="3"><path id="" clip-rule="evenodd" transform="matrix(1 0 0 1 0 0)" d="M215.94 76.02002L504.18 76.02002L504.18 76.02002L504.18 210.06L504.18 210.06L215.94 210.06z" /></clipPath><clipPath id="4"><path id="" clip-rule="evenodd" transform="matrix(1 0 0 1 0 0)" d="M0 0.02001953L595.2 0.02001953L595.2 0.02001953L595.2 842L595.2 842L0 842z" /></clipPath><clipPath id="5"><path id="" clip-rule="evenodd" transform="matrix(1 0 0 1 0 0)" d="M215.94 76.02002L504.18 76.02002L504.18 76.02002L504.18 210.06L504.18 210.06L215.94 210.06z" /></clipPath><clipPath id="6"><path id="" clip-rule="evenodd" transform="matrix(1 0 0 1 0 0)" d="M0 0.02001953L595.2 0.02001953L595.2 0.02001953L595.2 842L595.2 842L0 842z" /></clipPath><clipPath id="7"><path id="" clip-rule="evenodd" transform="matrix(1 0 0 1 0 0)" d="M217.98 445.98L529.14 445.98L529.14 445.98L529.14 510.18L529.14 510.18L217.98 510.18z" /></clipPath><clipPath id="8"><path id="" clip-rule="evenodd" transform="matrix(1 0 0 1 0 0)" d="M215.94 444.96L530.16 444.96L530.16 444.96L530.16 645L530.16 645L215.94 645z" /></clipPath><clipPath id="9"><path id="" clip-rule="evenodd" transform="matrix(1 0 0 1 0 0)" d="M0 0.02001953L595.2 0.02001953L595.2 0.02001953L595.2 842L595.2 842L0 842z" /></clipPath><clipPath id="10"><path id="" clip-rule="evenodd" transform="matrix(1 0 0 1 0 0)" d="M215.94 444.96L530.16 444.96L530.16 444.96L530.16 645L530.16 645L215.94 645z" /></clipPath><clipPath id="11"><path id="" clip-rule="evenodd" transform="matrix(1 0 0 1 0 0)" d="M0 0.02001953L595.2 0.02001953L595.2 0.02001953L595.2 842L595.2 842L0 842z" /></clipPath><clipPath id="12"><path id="" clip-rule="evenodd" transform="matrix(1 0 0 1 0 0)" d="M216.96 512.64L459.48 512.64L459.48 512.64L459.48 644.04L459.48 644.04L216.96 644.04z" /></clipPath><clipPath id="13"><path id="" clip-rule="evenodd" transform="matrix(1 0 0 1 0 0)" d="M215.94 444.96L530.16 444.96L530.16 444.96L530.16 645L530.16 645L215.94 645z" /></clipPath><clipPath id="14"><path id="" clip-rule="evenodd" transform="matrix(1 0 0 1 0 0)" d="M0 0.02001953L595.2 0.02001953L595.2 0.02001953L595.2 842L595.2 842L0 842z" /></clipPath><clipPath id="15"><path id="" clip-rule="evenodd" transform="matrix(1 0 0 1 0 0)" d="M215.94 444.96L530.16 444.96L530.16 444.96L530.16 645L530.16 645L215.94 645z" /></clipPath><clipPath id="16"><path id="" clip-rule="evenodd" transform="matrix(1 0 0 1 0 0)" d="M0 0.02001953L595.2 0.02001953L595.2 0.02001953L595.2 842L595.2 842L0 842z" /></clipPath><clipPath id="17"><path id="" clip-rule="evenodd" transform="matrix(1 0 0 1 0 0)" d="M149.94 687.06L196.98 687.06L196.98 687.06L196.98 720.66L196.98 720.66L149.94 720.66z" /></clipPath><clipPath id="18"><path id="" clip-rule="evenodd" transform="matrix(1 0 0 1 0 0)" d="M148.92 686.04L197.94 686.04L197.94 686.04L197.94 721.62L197.94 721.62L148.92 721.62z" /></clipPath><clipPath id="19"><path id="" clip-rule="evenodd" transform="matrix(1 0 0 1 0 0)" d="M0 0.02001953L595.2 0.02001953L595.2 0.02001953L595.2 842L595.2 842L0 842z" /></clipPath></defs><g transform="matrix(1.333333 0 0 1.333333 0 0)"><g clip-path="url(#1)"><path id="312" transform="matrix(1 0 0 -1 0 842)" d="M233.94 485L549 485L549 450.98L233.94 450.98" stroke="none" fill="#ECF5FC" fill-rule="nonzero" /><g clip-path="url(#2)"><g clip-path="url(#3)"><g clip-path="url(#4)"><g transform="matrix(0.48 0 0 0.48 216.96 77.03998)"><g transform="matrix(1 0 0 1 0 0)"><image x="0" y="0" xlink:href="img_458.png" width="437" height="275" /></g></g></g></g></g><g clip-path="url(#5)"><g clip-path="url(#6)"><path id="366" transform="matrix(1 0 0 -1 0 842)" d="M433.8 681.8L434.28 681.8L434.28 682.82L433.8 682.82z" stroke="none" fill="#000000" fill-rule="nonzero" /><path id="367" transform="matrix(1 0 0 -1 0 842)" d="M299.34 683.54L299.82 683.54L299.82 684.56L299.34 684.56z" stroke="none" fill="#000000" fill-rule="nonzero" /><path id="368" transform="matrix(1 0 0 -1 0 842)" d="M433.8 681.8L433.8 682.82L299.82 684.56L299.82 683.54" stroke="none" fill="#000000" fill-rule="nonzero" /></g></g><g clip-path="url(#7)"><g clip-path="url(#8)"><g clip-path="url(#9)"><g transform="matrix(0.4801852 0 0 0.4791044 217.98 445.98)"><g transform="matrix(1 0 0 1 0 0)"><image x="0" y="0" xlink:href="img_459.png" width="648" height="134" /></g></g></g></g></g><g clip-path="url(#10)"><g clip-path="url(#11)"><path id="374" transform="matrix(1 0 0 -1 0 842)" d="M252.48 364.94L320.46 364.94L320.46 375.26L252.48 375.26z" stroke="none" fill="#FFFFFF" fill-rule="nonzero" /><path id="378" transform="matrix(1 0 0 -1 0 842)" d="M370.38 389.66L463.74 389.66L463.74 379.34L370.38 379.34" stroke="none" fill="#FFFFFF" fill-rule="nonzero" /><path id="386" transform="matrix(1 0 0 -1 0 842)" d="M370.38 388.88L464.52 388.88L464.52 390.38L370.38 390.38z" stroke="none" fill="#FFFFFF" fill-rule="nonzero" /><path id="387" transform="matrix(1 0 0 -1 0 842)" d="M463.02 378.56L464.52 378.56L464.52 389.66L463.02 389.66z" stroke="none" fill="#FFFFFF" fill-rule="nonzero" /><path id="388" transform="matrix(1 0 0 -1 0 842)" d="M369.66 378.56L463.74 378.56L463.74 380.06L369.66 380.06z" stroke="none" fill="#FFFFFF" fill-rule="nonzero" /><path id="389" transform="matrix(1 0 0 -1 0 842)" d="M369.66 379.34L371.16 379.34L371.16 390.38L369.66 390.38z" stroke="none" fill="#FFFFFF" fill-rule="nonzero" /><path id="390" transform="matrix(1 0 0 -1 0 842)" d="M429.6 368L429.54 368.24L429.54 368.24L429.54 368.42L429.54 368.42L429.48 368.6L429.48 368.6L429.42 368.78L429.42 368.78L429.36 368.96L429.36 368.96L429.12 369.32L429.12 369.32L429 369.44L429 369.44L428.82 369.56L428.82 369.56L428.7 369.68L428.7 369.68L428.52 369.8L428.52 369.8L427.8 370.04L427.8 370.04L427.38 370.04L427.38 370.04L427.14 369.98L427.14 369.98L426.6 369.8L426.6 369.8L426.48 369.68L426.48 369.68L426.3 369.56L426.3 369.56L426.18 369.44L426.18 369.44L426 369.32L426 369.32L425.94 369.14L425.94 369.14L425.7 368.78L425.7 368.78L425.64 368.6L425.64 368.6L425.64 368.42L425.64 368.42L425.58 368.24L425.58 368.24L425.58 367.82L425.58 367.82L425.64 367.64L425.64 367.64L425.64 367.46L425.64 367.46L425.7 367.28L425.7 367.28L425.82 367.1L425.82 367.1L425.94 366.92L425.94 366.92L426 366.74L426 366.74L426.18 366.62L426.18 366.62L426.3 366.5L426.3 366.5L426.48 366.38L426.48 366.38L426.6 366.26L426.6 366.26L427.14 366.08L427.14 366.08L427.38 366.02L427.38 366.02L427.8 366.02L427.8 366.02L428.52 366.26L428.52 366.26L428.7 366.38L428.7 366.38L428.82 366.5L428.82 366.5L429 366.62L429 366.62L429.12 366.74L429.12 366.74L429.36 367.1L429.36 367.1L429.42 367.28L429.42 367.28L429.54 367.64L429.54 367.64L429.54 367.82L429.54 367.82L429.6 368" stroke="none" fill="#FFFFFF" fill-rule="evenodd" /><path id="391" transform="matrix(1 0 0 -1 0 842)" d="M427.62 368L427.62 374.06L428.4 373.58L437.28 368.42L438.06 368L437.22 367.52L428.34 362.42L427.62 362L427.62 362.9L427.86 363.32L436.74 368.42L437.22 367.52L436.74 367.52L427.86 372.68L428.4 373.58L428.64 373.16L428.64 368" stroke="none" fill="#FFFFFF" fill-rule="nonzero" /><path id="392" transform="matrix(1 0 0 -1 0 842)" d="M427.62 362.9L428.64 362.9L428.64 368L427.62 368z" stroke="none" fill="#FFFFFF" fill-rule="nonzero" /><path id="393" transform="matrix(1 0 0 -1 0 842)" d="M428.1 368L428.1 373.16L428.1 373.16L436.98 368L436.98 368L428.1 362.9" stroke="none" fill="#FFFFFF" fill-rule="evenodd" /><path id="394" transform="matrix(1 0 0 -1 0 842)" d="M396.24 365.96L398.22 365.96L398.22 369.98L396.24 369.98z" stroke="none" fill="#FFFFFF" fill-rule="nonzero" /><path id="395" transform="matrix(1 0 0 -1 0 842)" d="M398.22 365.96L429.54 365.96L429.54 369.98L398.22 369.98z" stroke="none" fill="#FFFFFF" fill-rule="nonzero" /></g></g><g clip-path="url(#12)"><g clip-path="url(#13)"><g clip-path="url(#14)"><g transform="matrix(0.4792886 0 0 0.479562 216.96 512.64)"><g transform="matrix(1 0 0 1 0 0)"><image x="0" y="0" xlink:href="img_460.png" width="506" height="274" /></g></g></g></g></g><g clip-path="url(#15)"><g clip-path="url(#16)"><path id="397" transform="matrix(1 0 0 -1 0 842)" d="M240.48 371.3L240.12 371.54L240.12 371.54L239.58 371.72L239.58 371.72L238.8 371.72L238.8 371.72L238.44 371.6L238.44 371.6L238.26 371.48L238.26 371.48L238.14 371.36L238.14 371.36L237.78 371.12L237.78 371.12L237.66 371L237.66 371L237.54 370.82L237.54 370.82L237.48 370.64L237.48 370.64L237.36 370.46L237.36 370.46L237.3 370.28L237.3 370.28L237.3 370.1L237.3 370.1L237.24 369.92L237.24 369.92L237.24 369.5L237.24 369.5L237.48 368.78L237.48 368.78L237.6 368.6L237.6 368.6L237.72 368.48L237.72 368.48L237.84 368.3L237.84 368.3L238.02 368.18L238.02 368.18L238.14 368.06L238.14 368.06L238.32 367.94L238.32 367.94L238.68 367.82L238.68 367.82L238.92 367.76L238.92 367.76L239.64 367.76L239.64 367.76L240 367.88L240 367.88L240.18 368L240.18 368L240.36 368.06L240.36 368.06L240.54 368.18L240.54 368.18L240.66 368.36L240.66 368.36L240.78 368.48L240.78 368.48L241.02 368.84L241.02 368.84L241.26 369.56L241.26 369.56L241.26 369.8L241.26 369.8L241.2 369.98L241.2 369.98L241.2 370.16L241.2 370.16L241.14 370.34L241.14 370.34L241.02 370.7L241.02 370.7L240.9 370.88L240.9 370.88L240.78 371L240.78 371L240.66 371.18L240.66 371.18L240.48 371.3" stroke="none" fill="#FFFFFF" fill-rule="evenodd" /><path id="398" transform="matrix(1 0 0 -1 0 842)" d="M239.28 369.74L234.6 373.46L234.06 373.88L234.66 374.24L252.24 386.78L253.62 387.8L252.96 386.18L244.68 366.26L244.44 365.66L243.9 366.08L243.72 366.62L252 386.54L252.96 386.18L252.78 385.94L235.2 373.4L234.66 374.24L235.26 374.24L239.94 370.52" stroke="none" fill="#FFFFFF" fill-rule="nonzero" /><path id="399" transform="matrix(1 0 0 -1 0 842)" d="M243.9 366.08L239.28 369.74L239.94 370.52L244.56 366.86" stroke="none" fill="#FFFFFF" fill-rule="nonzero" /><path id="400" transform="matrix(1 0 0 -1 0 842)" d="M239.58 370.1L234.9 373.82L234.9 373.82L252.48 386.36L252.48 386.36L244.2 366.44" stroke="none" fill="#FFFFFF" fill-rule="evenodd" /><path id="401" transform="matrix(1 0 0 -1 0 842)" d="M243.12 345.14L243.18 345.32L243.18 345.32L243.24 345.5L243.24 345.5L243.3 345.68L243.3 345.68L243.3 346.46L243.3 346.46L243.24 346.64L243.24 346.64L243.12 346.82L243.12 346.82L243.06 347L243.06 347L242.94 347.18L242.94 347.18L242.82 347.3L242.82 347.3L242.7 347.48L242.7 347.48L242.58 347.6L242.58 347.6L242.4 347.72L242.4 347.72L242.22 347.78L242.22 347.78L242.04 347.9L242.04 347.9L241.8 347.96L241.8 347.96L241.62 347.96L241.62 347.96L241.44 348.02L241.44 348.02L241.26 348.02L241.26 348.02L241.08 347.96L241.08 347.96L240.84 347.96L240.84 347.96L240.48 347.84L240.48 347.84L240.36 347.72L240.36 347.72L240 347.48L240 347.48L239.76 347.24L239.76 347.24L239.52 346.88L239.52 346.88L239.4 346.52L239.4 346.52L239.34 346.28L239.34 346.28L239.34 345.74L239.34 345.74L239.4 345.56L239.4 345.56L239.46 345.38L239.46 345.38L239.58 345.02L239.58 345.02L239.82 344.66L239.82 344.66L239.94 344.54L239.94 344.54L240.12 344.42L240.12 344.42L240.24 344.3L240.24 344.3L240.42 344.18L240.42 344.18L240.66 344.12L240.66 344.12L241.02 344L241.02 344L241.62 344L241.62 344L242.34 344.24L242.34 344.24L242.46 344.36L242.46 344.36L242.64 344.48L242.64 344.48L242.76 344.6L242.76 344.6L243.12 345.14" stroke="none" fill="#FFFFFF" fill-rule="evenodd" /><path id="402" transform="matrix(1 0 0 -1 0 842)" d="M241.38 346.04L243.96 351.38L244.32 351.92L244.74 351.5L260.76 336.98L262.08 335.78L260.34 336.14L239.1 339.98L238.44 340.1L238.74 340.7L239.28 340.94L260.52 337.1L260.34 336.14L260.1 336.26L244.08 350.78L244.74 351.5L244.86 350.9L242.28 345.56" stroke="none" fill="#FFFFFF" fill-rule="nonzero" /><path id="403" transform="matrix(1 0 0 -1 0 842)" d="M238.74 340.7L241.38 346.04L242.28 345.56L239.64 340.22" stroke="none" fill="#FFFFFF" fill-rule="nonzero" /><path id="404" transform="matrix(1 0 0 -1 0 842)" d="M241.8 345.8L244.38 351.14L244.38 351.14L260.4 336.62L260.4 336.62L239.16 340.46" stroke="none" fill="#FFFFFF" fill-rule="evenodd" /><path id="405" transform="matrix(1 0 0 -1 0 842)" d="M240.24 344.3L241.92 343.22L244.14 346.58L242.46 347.66" stroke="none" fill="#FFFFFF" fill-rule="nonzero" /><path id="406" transform="matrix(1 0 0 -1 0 842)" d="M240.24 344.3L239.88 344.54L240.18 344.36L239.76 344.54L239.46 344.72L238.56 345.32L238.26 345.56L237.9 345.86L237.6 346.1L236.7 347L236.46 347.3L236.64 347.12L236.16 347.6L235.92 347.9L235.8 348.02L235.56 348.38L235.56 348.5L235.38 348.8L235.38 348.68L235.14 349.04L234.18 350.96L234.06 351.32L234.12 351.2L233.94 351.62L233.88 351.74L233.76 352.1L233.76 352.22L233.64 352.64L233.58 352.82L233.52 353.18L233.58 353L233.46 353.42L233.4 353.66L233.34 354.08L233.28 354.5L233.22 354.92L233.16 355.34L233.1 355.76L233.1 356.9L233.1 356.6L233.04 357.02L233.04 357.98L233.1 358.4L233.1 358.16L233.1 358.88L233.16 359.3L233.16 359.06L233.16 359.72L233.22 360.14L233.28 360.56L233.34 361.04L233.4 361.34L237.24 360.26L237.3 360.56L237.24 360.08L237.24 360.02L237.18 359.6L237.12 359.18L237.18 359.48L237.18 359.06L237.12 358.76L237.06 358.34L237.12 358.64L237.12 358.16L237.06 357.86L237 357.44L237.06 357.74L237.06 357.32L237 357.56L237.06 357.14L237.12 356.9L237.12 356.06L237.06 356.3L237.12 355.88L237.18 355.46L237.24 355.04L237.3 354.62L237.36 354.2L237.3 354.5L237.42 354.08L237.48 353.84L237.54 353.48L237.48 353.72L237.6 353.3L237.6 353.36L237.72 353L237.66 353.18L237.84 352.76L238.02 352.22L237.9 352.52L238.62 351.08L238.5 351.26L238.74 350.9L238.8 350.84L238.98 350.54L238.92 350.6L239.16 350.24L239.04 350.42L239.28 350.12L239.16 350.24L239.58 349.82L239.82 349.52L239.7 349.64L240.3 349.04L240.12 349.22L240.42 348.98L240.48 348.92L240.84 348.62L240.78 348.68L241.08 348.44L240.96 348.56L241.68 348.08L241.32 348.26L241.74 348.08L242.1 347.9L242.46 347.66" stroke="none" fill="#FFFFFF" fill-rule="nonzero" /><path id="407" transform="matrix(1 0 0 -1 0 842)" d="M233.4 361.34L233.52 361.76L233.46 361.46L233.52 361.88L233.58 362.18L234.3 364.7L234.36 364.94L234.54 365.36L234.48 365.12L234.6 365.54L234.72 365.9L234.9 366.26L234.84 366.14L235.2 366.98L235.26 367.1L235.62 367.82L235.68 367.88L235.92 368.3L235.86 368.24L236.04 368.6L236.4 369.14L236.28 368.96L236.46 369.32L236.7 369.68L236.94 369.98L236.82 369.8L237.42 370.7L240.54 368.18L240.66 368.3L240.18 367.58L240.06 367.46L239.82 367.16L240.06 367.52L239.76 366.92L239.52 366.56L239.64 366.8L239.4 366.32L239.16 365.9L239.22 366.02L238.86 365.3L238.92 365.42L238.56 364.58L238.5 364.46L238.32 364.1L238.44 364.46L238.32 364.04L238.26 363.8L238.08 363.38L238.14 363.62L237.42 361.1L237.48 361.34L237.42 360.92L237.36 360.68L237.24 360.26" stroke="none" fill="#FFFFFF" fill-rule="nonzero" /><path id="408" transform="matrix(1 0 0 -1 0 842)" d="M237.66 371L238.92 372.56L242.04 370.04L240.78 368.48" stroke="none" fill="#FFFFFF" fill-rule="nonzero" /><path id="409" transform="matrix(1 0 0 -1 0 842)" d="M237.42 370.7L240.54 368.18L240.78 368.48L237.66 371" stroke="none" fill="#FFFFFF" fill-rule="nonzero" /><path id="410" transform="matrix(1 0 0 -1 0 842)" d="M240.48 371.6L240.36 371.72L240.36 371.72L240.24 371.72L240.24 371.72L240.06 371.78L240.06 371.78L239.94 371.78L239.94 371.78L239.76 371.72L239.76 371.72L239.52 371.6L239.52 371.6L239.4 371.48L239.4 371.48L239.34 371.36L239.34 371.36L239.28 371.24L239.28 371.24L239.28 370.82L239.28 370.82L239.34 370.7L239.34 370.7L239.4 370.52L239.4 370.52L239.52 370.46L239.52 370.46L239.64 370.34L239.64 370.34L239.82 370.28L239.82 370.28L240.24 370.28L240.24 370.28L240.36 370.34L240.36 370.34L240.6 370.58L240.6 370.58L240.78 370.94L240.78 370.94L240.78 371.12L240.78 371.12L240.6 371.48L240.6 371.48L240.48 371.6" stroke="none" fill="#000000" fill-rule="evenodd" /><path id="411" transform="matrix(1 0 0 -1 0 842)" d="M240 371.06L237 373.52L236.52 373.94L237.06 374.3L248.58 382.4L249.96 383.42L249.3 381.8L243.84 368.78L243.6 368.18L243.06 368.6L242.94 369.14L248.4 382.16L249.3 381.8L249.12 381.56L237.6 373.46L237.06 374.3L237.66 374.3L240.66 371.84" stroke="none" fill="#000000" fill-rule="nonzero" /><path id="412" transform="matrix(1 0 0 -1 0 842)" d="M243.06 368.6L240 371.06L240.66 371.84L243.72 369.38" stroke="none" fill="#000000" fill-rule="nonzero" /><path id="413" transform="matrix(1 0 0 -1 0 842)" d="M240.3 371.42L237.3 373.88L237.3 373.88L248.82 381.98L248.82 381.98L243.36 368.96" stroke="none" fill="#000000" fill-rule="evenodd" /><path id="414" transform="matrix(1 0 0 -1 0 842)" d="M242.76 345.92L242.82 346.04L242.82 346.04L242.82 346.46L242.82 346.46L242.76 346.58L242.76 346.58L242.64 346.7L242.64 346.7L242.58 346.82L242.58 346.82L242.46 346.88L242.46 346.88L242.28 346.94L242.28 346.94L242.16 347L242.16 347L241.98 347L241.98 347L241.62 346.82L241.62 346.82L241.5 346.7L241.5 346.7L241.44 346.58L241.44 346.58L241.38 346.4L241.38 346.4L241.38 345.98L241.38 345.98L241.44 345.86L241.44 345.86L241.56 345.74L241.56 345.74L241.62 345.62L241.62 345.62L241.74 345.56L241.74 345.56L241.92 345.5L241.92 345.5L242.34 345.5L242.34 345.5L242.46 345.56L242.46 345.56L242.58 345.68L242.58 345.68L242.7 345.74L242.7 345.74L242.76 345.92" stroke="none" fill="#000000" fill-rule="evenodd" /><path id="415" transform="matrix(1 0 0 -1 0 842)" d="M242.1 346.22L243.84 349.76L244.14 350.3L244.62 349.88L255.06 340.34L256.38 339.14L254.64 339.5L240.12 342.14L240.42 342.74L240.96 342.98L254.82 340.46L254.64 339.5L254.4 339.62L243.96 349.16L244.62 349.88L244.74 349.28L243 345.74" stroke="none" fill="#000000" fill-rule="nonzero" /><path id="416" transform="matrix(1 0 0 -1 0 842)" d="M240.42 342.74L242.1 346.22L243 345.74L241.32 342.26" stroke="none" fill="#000000" fill-rule="nonzero" /><path id="417" transform="matrix(1 0 0 -1 0 842)" d="M242.52 345.98L244.26 349.52L244.26 349.52L254.7 339.98L254.7 339.98L240.84 342.5" stroke="none" fill="#000000" fill-rule="evenodd" /><path id="418" transform="matrix(1 0 0 -1 0 842)" d="M241.74 345.56L242.4 345.2L243.12 346.52L242.46 346.88" stroke="none" fill="#000000" fill-rule="nonzero" /><path id="419" transform="matrix(1 0 0 -1 0 842)" d="M241.74 345.56L241.32 345.8L241.38 345.8L241.02 345.98L240.9 345.98L239.82 346.7L239.1 347.42L239.16 347.36L238.86 347.6L238.5 347.96L238.5 348.02L238.2 348.38L238.14 348.38L237.9 348.68L237.9 348.74L237.66 349.1L237.66 349.04L237.18 349.7L237.12 349.76L236.7 350.48L236.7 350.6L236.34 351.38L236.04 352.16L235.98 352.22L235.5 353.9L235.5 353.96L235.32 354.8L235.32 354.86L235.2 355.7L235.08 356.6L235.08 356.66L235.02 357.56L235.02 358.58L235.08 359.48L235.14 360.44L235.26 361.34L235.38 362.24L235.38 362.3L235.56 363.2L235.56 363.26L235.8 364.16L236.04 365L236.04 365.06L236.34 365.96L236.4 366.02L236.76 366.86L237.12 367.64L237.48 368.48L237.48 368.54L237.9 369.26L237.96 369.26L238.44 370.04L238.44 370.1L239.64 369.2L239.7 369.26L239.22 368.48L238.8 367.76L238.86 367.88L238.5 367.04L238.14 366.26L237.78 365.42L237.78 365.48L237.48 364.58L237.24 363.74L237.24 363.8L237 362.9L237.06 362.9L236.88 362L236.88 362.06L236.76 361.16L236.64 360.26L236.64 360.32L236.58 359.36L236.52 358.46L236.52 358.52L236.52 357.62L236.52 357.68L236.58 356.78L236.7 355.88L236.7 355.94L236.82 355.1L236.76 355.1L236.94 354.26L236.94 354.32L237.42 352.64L237.42 352.7L237.72 351.92L237.72 351.98L238.08 351.2L238.02 351.26L238.44 350.54L238.38 350.6L238.86 349.94L238.92 349.94L239.16 349.58L239.1 349.64L239.34 349.34L239.64 348.98L239.58 349.04L239.88 348.74L239.82 348.8L240.12 348.56L240.78 347.9L240.66 347.96L241.74 347.24L241.68 347.3L242.04 347.12L242.46 346.88" stroke="none" fill="#000000" fill-rule="nonzero" /><path id="420" transform="matrix(1 0 0 -1 0 842)" d="M238.44 370.1L238.92 370.76L240.12 369.86L239.64 369.2" stroke="none" fill="#000000" fill-rule="nonzero" /><path id="421" transform="matrix(1 0 0 -1 0 842)" d="M239.4 371.42L239.82 372.02L241.02 371.12L240.6 370.52" stroke="none" fill="#000000" fill-rule="nonzero" /><path id="422" transform="matrix(1 0 0 -1 0 842)" d="M238.92 370.76L240.12 369.86L240.6 370.52L239.4 371.42" stroke="none" fill="#000000" fill-rule="nonzero" /><path id="423" transform="matrix(1 0 0 -1 0 842)" d="M429.48 367.7L429.48 367.88L429.48 367.88L429.42 368L429.42 368L429.36 368.12L429.36 368.12L429.3 368.24L429.3 368.24L429.18 368.36L429.18 368.36L429.06 368.42L429.06 368.42L428.88 368.42L428.88 368.42L428.76 368.48L428.76 368.48L428.58 368.42L428.58 368.42L428.46 368.42L428.46 368.42L428.34 368.36L428.34 368.36L428.1 368.12L428.1 368.12L428.04 368L428.04 368L427.98 367.88L427.98 367.88L427.98 367.58L427.98 367.58L428.04 367.4L428.04 367.4L428.1 367.28L428.1 367.28L428.22 367.16L428.22 367.16L428.58 366.98L428.58 366.98L428.88 366.98L428.88 366.98L429.06 367.04L429.06 367.04L429.3 367.16L429.3 367.16L429.36 367.28L429.36 367.28L429.42 367.4L429.42 367.4L429.48 367.58L429.48 367.58L429.48 367.7" stroke="none" fill="#000000" fill-rule="evenodd" /><path id="424" transform="matrix(1 0 0 -1 0 842)" d="M428.76 367.7L428.76 371.78L429.48 371.36L435.12 368.12L435.96 367.7L435.12 367.22L429.48 363.98L428.76 363.56L428.76 364.46L429 364.88L434.64 368.12L435.12 367.22L434.64 367.22L429 370.46L429.48 371.36L429.78 370.94L429.78 367.7" stroke="none" fill="#000000" fill-rule="nonzero" /><path id="425" transform="matrix(1 0 0 -1 0 842)" d="M428.76 364.46L429.78 364.46L429.78 367.7L428.76 367.7z" stroke="none" fill="#000000" fill-rule="nonzero" /><path id="426" transform="matrix(1 0 0 -1 0 842)" d="M429.24 367.7L429.24 370.94L429.24 370.94L434.88 367.7L434.88 367.7L429.24 364.46" stroke="none" fill="#000000" fill-rule="evenodd" /><path id="427" transform="matrix(1 0 0 -1 0 842)" d="M396.6 366.92L397.32 366.92L397.32 368.42L396.6 368.42z" stroke="none" fill="#000000" fill-rule="nonzero" /><path id="428" transform="matrix(1 0 0 -1 0 842)" d="M397.32 366.92L429.48 366.92L429.48 368.42L397.32 368.42z" stroke="none" fill="#000000" fill-rule="nonzero" /></g></g><g clip-path="url(#17)"><g clip-path="url(#18)"><g clip-path="url(#19)"><g transform="matrix(0.96 0 0 0.96 149.94 687.06)"><g transform="matrix(1 0 0 1 0 0)"><image x="0" y="0" xlink:href="img_461.png" width="49" height="35" /></g></g></g></g></g></g></g></svg>