<svg xmlns="http://www.w3.org/2000/svg" xmlns:xlink="http://www.w3.org/1999/xlink" id="body_75" preserveAspectRatio="xMinYMin meet" viewBox="0 0 793 1123"><defs><clipPath id="1"><path id="" clip-rule="evenodd" transform="matrix(1 0 0 1 0 0)" d="M0 842L0 0L0 0L595 0L595 0L595 842L595 842L0 842z" /></clipPath><clipPath id="2"><path id="" clip-rule="evenodd" transform="matrix(1 0 0 1 0 0)" d="M225.96 77.03998L481.56 77.03998L481.56 77.03998L481.56 364.08L481.56 364.08L225.96 364.08z" /></clipPath><clipPath id="3"><path id="" clip-rule="evenodd" transform="matrix(1 0 0 1 0 0)" d="M224.94 76.02002L546.78 76.02002L546.78 76.02002L546.78 385.26L546.78 385.26L224.94 385.26z" /></clipPath><clipPath id="4"><path id="" clip-rule="evenodd" transform="matrix(1 0 0 1 0 0)" d="M0 0.02001953L595.2 0.02001953L595.2 0.02001953L595.2 842L595.2 842L0 842z" /></clipPath><clipPath id="5"><path id="" clip-rule="evenodd" transform="matrix(1 0 0 1 0 0)" d="M224.94 76.02002L546.78 76.02002L546.78 76.02002L546.78 385.26L546.78 385.26L224.94 385.26z" /></clipPath><clipPath id="6"><path id="" clip-rule="evenodd" transform="matrix(1 0 0 1 0 0)" d="M0 0.02001953L595.2 0.02001953L595.2 0.02001953L595.2 842L595.2 842L0 842z" /></clipPath></defs><g transform="matrix(1.333333 0 0 1.333333 0 0)"><g clip-path="url(#1)"><g clip-path="url(#2)"><g clip-path="url(#3)"><g clip-path="url(#4)"><g transform="matrix(0.4795497 0 0 0.48 225.96 77.03998)"><g transform="matrix(1 0 0 1 0 0)"><image x="0" y="0" xlink:href="img_202.png" width="533" height="598" /></g></g></g></g></g><g clip-path="url(#5)"><g clip-path="url(#6)"><path id="474" transform="matrix(1 0 0 -1 0 842)" d="M332.46 547.4L353.22 547.4L353.22 548.42L332.46 548.42z" stroke="none" fill="#000000" fill-rule="nonzero" /><path id="475" transform="matrix(1 0 0 -1 0 842)" d="M284.34 539.36L331.14 539.36L331.14 551.36L284.34 551.36z" stroke="none" fill="#FFFFFF" fill-rule="nonzero" /><path id="479" transform="matrix(1 0 0 -1 0 842)" d="M488.4 545L488.88 545L488.88 546.02L488.4 546.02z" stroke="none" fill="#000000" fill-rule="nonzero" /><path id="480" transform="matrix(1 0 0 -1 0 842)" d="M436.08 544.64L436.56 544.64L436.56 545.66L436.08 545.66z" stroke="none" fill="#000000" fill-rule="nonzero" /><path id="481" transform="matrix(1 0 0 -1 0 842)" d="M488.4 545L488.4 546.02L436.56 545.66L436.56 544.64" stroke="none" fill="#000000" fill-rule="nonzero" /><path id="482" transform="matrix(1 0 0 -1 0 842)" d="M242.46 618.38L243.48 618.38L243.48 650.42L242.46 650.42z" stroke="none" fill="#000000" fill-rule="nonzero" /><path id="483" transform="matrix(1 0 0 -1 0 842)" d="M236.58 648.14L298.38 648.14L298.38 659.54L236.58 659.54z" stroke="none" fill="#FFFFFF" fill-rule="nonzero" /><path id="489" transform="matrix(1 0 0 -1 0 842)" d="M403.98 686L404.46 686L404.46 687.02L403.98 687.02z" stroke="none" fill="#000000" fill-rule="nonzero" /><path id="490" transform="matrix(1 0 0 -1 0 842)" d="M328.5 685.64L328.98 685.64L328.98 686.66L328.5 686.66z" stroke="none" fill="#000000" fill-rule="nonzero" /><path id="491" transform="matrix(1 0 0 -1 0 842)" d="M403.98 686L403.98 687.02L328.98 686.66L328.98 685.64" stroke="none" fill="#000000" fill-rule="nonzero" /><path id="492" transform="matrix(1 0 0 -1 0 842)" d="M260.82 676.58L325.38 676.58L325.38 688.58L260.82 688.58z" stroke="none" fill="#FFFFFF" fill-rule="nonzero" /><path id="498" transform="matrix(1 0 0 -1 0 842)" d="M418.26 605.54L490.08 605.54L490.08 606.56L418.26 606.56z" stroke="none" fill="#000000" fill-rule="nonzero" /><path id="513" transform="matrix(1 0 0 -1 0 842)" d="M307.08 467.66L308.1 467.66L308.1 468.14L307.08 468.14z" stroke="none" fill="#000000" fill-rule="nonzero" /><path id="514" transform="matrix(1 0 0 -1 0 842)" d="M307.86 498.74L308.88 498.74L308.88 499.22L307.86 499.22z" stroke="none" fill="#000000" fill-rule="nonzero" /><path id="515" transform="matrix(1 0 0 -1 0 842)" d="M307.08 468.14L308.1 468.14L308.88 498.74L307.86 498.74" stroke="none" fill="#000000" fill-rule="nonzero" /></g></g></g></g></svg>