<svg xmlns="http://www.w3.org/2000/svg" xmlns:xlink="http://www.w3.org/1999/xlink" id="body_118" preserveAspectRatio="xMinYMin meet" viewBox="0 0 793 1123"><defs><clipPath id="1"><path id="" clip-rule="evenodd" transform="matrix(1 0 0 1 0 0)" d="M0 842L0 0L0 0L595 0L595 0L595 842L595 842L0 842z" /></clipPath><clipPath id="2"><path id="" clip-rule="evenodd" transform="matrix(1 0 0 1 0 0)" d="M216.96 143.04L516.48 143.04L516.48 143.04L516.48 314.4L516.48 314.4L216.96 314.4z" /></clipPath><clipPath id="3"><path id="" clip-rule="evenodd" transform="matrix(1 0 0 1 0 0)" d="M215.94 142.02L550.98 142.02L550.98 142.02L550.98 315.42L550.98 315.42L215.94 315.42z" /></clipPath><clipPath id="4"><path id="" clip-rule="evenodd" transform="matrix(1 0 0 1 0 0)" d="M0 0.02001953L595.2 0.02001953L595.2 0.02001953L595.2 842L595.2 842L0 842z" /></clipPath><clipPath id="5"><path id="" clip-rule="evenodd" transform="matrix(1 0 0 1 0 0)" d="M215.94 142.02L550.98 142.02L550.98 142.02L550.98 315.42L550.98 315.42L215.94 315.42z" /></clipPath><clipPath id="6"><path id="" clip-rule="evenodd" transform="matrix(1 0 0 1 0 0)" d="M0 0.02001953L595.2 0.02001953L595.2 0.02001953L595.2 842L595.2 842L0 842z" /></clipPath><clipPath id="7"><path id="" clip-rule="evenodd" transform="matrix(1 0 0 1 0 0)" d="M36.96 473.4L515.04 473.4L515.04 473.4L515.04 646.92L515.04 646.92L36.96 646.92z" /></clipPath><clipPath id="8"><path id="" clip-rule="evenodd" transform="matrix(1 0 0 1 0 0)" d="M35.94 472.38L516.06 472.38L516.06 472.38L516.06 647.94L516.06 647.94L35.94 647.94z" /></clipPath><clipPath id="9"><path id="" clip-rule="evenodd" transform="matrix(1 0 0 1 0 0)" d="M0 0.02001953L595.2 0.02001953L595.2 0.02001953L595.2 842L595.2 842L0 842z" /></clipPath><clipPath id="10"><path id="" clip-rule="evenodd" transform="matrix(1 0 0 1 0 0)" d="M35.94 472.38L516.06 472.38L516.06 472.38L516.06 647.94L516.06 647.94L35.94 647.94z" /></clipPath><clipPath id="11"><path id="" clip-rule="evenodd" transform="matrix(1 0 0 1 0 0)" d="M0 0.02001953L595.2 0.02001953L595.2 0.02001953L595.2 842L595.2 842L0 842z" /></clipPath></defs><g transform="matrix(1.333333 0 0 1.333333 0 0)"><g clip-path="url(#1)"><g clip-path="url(#2)"><g clip-path="url(#3)"><g clip-path="url(#4)"><g transform="matrix(0.48 0 0 0.48 216.96 143.04)"><g transform="matrix(1 0 0 1 0 0)"><image x="0" y="0" xlink:href="img_348.png" width="624" height="357" /></g></g></g></g></g><g clip-path="url(#5)"><g clip-path="url(#6)"></g></g><g clip-path="url(#7)"><g clip-path="url(#8)"><g clip-path="url(#9)"><g transform="matrix(0.48 0 0 0.479337 36.96 473.4)"><g transform="matrix(1 0 0 1 0 0)"><image x="0" y="0" xlink:href="img_349.png" width="996" height="362" /></g></g></g></g></g><g clip-path="url(#10)"><g clip-path="url(#11)"><path id="420" transform="matrix(1 0 0 -1 0 842)" d="M117.96 318.74L143.88 318.74L143.88 324.86L117.96 324.86z" stroke="none" fill="#FFFFFF" fill-rule="nonzero" /><path id="428" transform="matrix(1 0 0 -1 0 842)" d="M298.98 320.42L327.3 320.42L327.3 327.98L298.98 327.98z" stroke="none" fill="#FFFFFF" fill-rule="nonzero" /><path id="436" transform="matrix(1 0 0 -1 0 842)" d="M285.84 301.82L311.7 301.82L311.7 308.3L285.84 308.3z" stroke="none" fill="#FFFFFF" fill-rule="nonzero" /></g></g></g></g></svg>