<svg xmlns="http://www.w3.org/2000/svg" xmlns:xlink="http://www.w3.org/1999/xlink" id="body_270" preserveAspectRatio="xMinYMin meet" viewBox="0 0 793 1123"><defs><clipPath id="1"><path id="" clip-rule="evenodd" transform="matrix(1 0 0 1 0 0)" d="M0 842L0 0L0 0L595 0L595 0L595 842L595 842L0 842z" /></clipPath><clipPath id="2"><path id="" clip-rule="evenodd" transform="matrix(1 0 0 1 0 0)" d="M225.96 77.03998L438.6 77.03998L438.6 77.03998L438.6 266.16L438.6 266.16L225.96 266.16z" /></clipPath><clipPath id="3"><path id="" clip-rule="evenodd" transform="matrix(1 0 0 1 0 0)" d="M224.94 76.02002L439.62 76.02002L439.62 76.02002L439.62 267.1801L439.62 267.1801L224.94 267.1801z" /></clipPath><clipPath id="4"><path id="" clip-rule="evenodd" transform="matrix(1 0 0 1 0 0)" d="M0 0.02001953L595.2 0.02001953L595.2 0.02001953L595.2 842L595.2 842L0 842z" /></clipPath><clipPath id="5"><path id="" clip-rule="evenodd" transform="matrix(1 0 0 1 0 0)" d="M224.94 76.02002L439.62 76.02002L439.62 76.02002L439.62 267.1801L439.62 267.1801L224.94 267.1801z" /></clipPath><clipPath id="6"><path id="" clip-rule="evenodd" transform="matrix(1 0 0 1 0 0)" d="M0 0.02001953L595.2 0.02001953L595.2 0.02001953L595.2 842L595.2 842L0 842z" /></clipPath><clipPath id="7"><path id="" clip-rule="evenodd" transform="matrix(1 0 0 1 0 0)" d="M225.96 442.32L470.04 442.32L470.04 442.32L470.04 689.76L470.04 689.76L225.96 689.76z" /></clipPath><clipPath id="8"><path id="" clip-rule="evenodd" transform="matrix(1 0 0 1 0 0)" d="M224.94 441.3L471.06 441.3L471.06 441.3L471.06 690.78L471.06 690.78L224.94 690.78z" /></clipPath><clipPath id="9"><path id="" clip-rule="evenodd" transform="matrix(1 0 0 1 0 0)" d="M0 0.02001953L595.2 0.02001953L595.2 0.02001953L595.2 842L595.2 842L0 842z" /></clipPath></defs><g transform="matrix(1.333333 0 0 1.333333 0 0)"><g clip-path="url(#1)"><g clip-path="url(#2)"><g clip-path="url(#3)"><g clip-path="url(#4)"><g transform="matrix(0.48 0 0 0.48 225.96 77.03998)"><g transform="matrix(1 0 0 1 0 0)"><image x="0" y="0" xlink:href="img_842.png" width="443" height="394" /></g></g></g></g></g><g clip-path="url(#5)"><g clip-path="url(#6)"><path id="276" transform="matrix(1 0 0 -1 0 842)" d="M268.8 718.64L307.56 718.64L307.56 721.64L268.8 721.64z" stroke="none" fill="#FFFFFF" fill-rule="nonzero" /><path id="277" transform="matrix(1 0 0 -1 0 842)" d="M326.22 657.08L326.22 654.08L372.48 653.78L372.48 656.78" stroke="none" fill="#FFFFFF" fill-rule="nonzero" /><path id="278" transform="matrix(1 0 0 -1 0 842)" d="M336 596.48L347.88 596.48L347.88 605.42L336 605.42z" stroke="none" fill="#FFFFFF" fill-rule="nonzero" /><path id="280" transform="matrix(1 0 0 -1 0 842)" d="M368.52 675.44L396.36 675.44L396.36 678.44L368.52 678.44z" stroke="none" fill="#FFFFFF" fill-rule="nonzero" /><path id="281" transform="matrix(1 0 0 -1 0 842)" d="M398.1 671.36L409.32 671.36L409.32 680.3L398.1 680.3z" stroke="none" fill="#FFFFFF" fill-rule="nonzero" /><path id="283" transform="matrix(1 0 0 -1 0 842)" d="M251.7 713.3L263.58 713.3L263.58 724.52L251.7 724.52z" stroke="none" fill="#FFFFFF" fill-rule="nonzero" /><path id="285" transform="matrix(1 0 0 -1 0 842)" d="M375.9 647.42L387.78 647.42L387.78 658.7L375.9 658.7z" stroke="none" fill="#FFFFFF" fill-rule="nonzero" /><path id="287" transform="matrix(1 0 0 -1 0 842)" d="M257.52 655.52L269.4 655.52L269.4 666.8L257.52 666.8z" stroke="none" fill="#FFFFFF" fill-rule="nonzero" /><path id="289" transform="matrix(1 0 0 -1 0 842)" d="M262.08 719.9L305.22 719.9L305.22 720.92L262.08 720.92z" stroke="none" fill="#000000" fill-rule="nonzero" /><path id="290" transform="matrix(1 0 0 -1 0 842)" d="M370.44 676.4L393.36 676.4L393.36 677.42L370.44 677.42z" stroke="none" fill="#000000" fill-rule="nonzero" /><path id="291" transform="matrix(1 0 0 -1 0 842)" d="M325.08 655.04L373.08 655.04L373.08 656.06L325.08 656.06z" stroke="none" fill="#000000" fill-rule="nonzero" /><path id="292" transform="matrix(1 0 0 -1 0 842)" d="M279.84 741.98L279.78 743.06L279.66 744.14L279.66 744.02L279.36 745.04L279 746L279 745.94L278.58 746.9L278.64 746.84L278.1 747.68L277.8 748.1L277.5 748.52L277.56 748.46L277.2 748.88L276.48 749.6L276.54 749.54L276.12 749.84L276.06 749.9L275.7 750.26L275.76 750.2L275.34 750.5L275.4 750.44L273.6 751.4L273.66 751.4L272.64 751.76L272.7 751.7L271.68 751.94L271.74 751.94L270.66 752.12L270.72 752.12L269.64 752.18L269.7 752.18L268.62 752.12L268.68 752.12L267.6 751.94L266.58 751.7L266.64 751.76L265.68 751.4L265.74 751.4L264.78 750.92L263.94 750.44L264 750.5L263.58 750.2L263.64 750.2L263.22 749.84L263.16 749.84L262.74 749.54L262.8 749.6L262.08 748.88L262.14 748.94L261.84 748.52L261.84 748.46L261.48 748.04L261.48 748.1L261.18 747.68L261.24 747.74L260.76 746.9L260.28 745.94L260.28 746L259.92 745.04L259.98 745.1L259.74 744.08L259.56 743L259.56 743.06L259.5 741.98L259.5 742.04L259.56 740.96L259.56 741.02L258.54 740.84L258.54 740.9L258.48 741.98L258.48 742.04L258.54 743.12L258.54 743.18L258.72 744.26L258.72 744.32L258.96 745.34L258.96 745.4L259.32 746.36L259.38 746.42L259.86 747.38L260.34 748.22L260.34 748.28L260.64 748.7L260.7 748.7L261.06 749.12L261 749.12L261.3 749.54L261.36 749.6L262.14 750.38L262.56 750.68L262.56 750.62L262.98 750.98L262.98 751.04L263.4 751.34L263.46 751.34L264.3 751.82L265.26 752.3L265.32 752.36L266.28 752.72L266.34 752.72L267.36 752.96L267.42 752.96L268.5 753.14L268.56 753.14L269.64 753.2L269.7 753.2L270.78 753.14L270.84 753.14L271.92 752.96L272.94 752.72L273 752.72L274.02 752.36L274.08 752.3L275.88 751.34L275.94 751.34L276.36 751.04L276.42 750.98L276.78 750.62L276.72 750.68L277.14 750.38L277.92 749.6L277.98 749.54L278.34 749.12L278.94 748.28L278.94 748.22L279.48 747.38L279.54 747.32L279.96 746.36L280.32 745.4L280.32 745.34L280.62 744.32L280.68 744.26L280.8 743.18L280.8 743.12L280.86 742.04" stroke="none" fill="#FF0000" fill-rule="nonzero" /><path id="293" transform="matrix(1 0 0 -1 0 842)" d="M259.56 741.02L259.74 739.94L259.74 740L259.98 738.98L259.92 739.04L260.28 738.02L260.28 738.08L261.24 736.28L261.18 736.34L261.48 735.92L261.42 735.98L261.84 735.56L262.14 735.14L262.08 735.2L262.8 734.48L263.22 734.12L263.16 734.18L264 733.58L264.84 733.04L264.78 733.1L265.74 732.68L265.68 732.68L266.64 732.32L267.66 732.02L267.54 732.02L268.62 731.9L269.7 731.84L269.64 731.84L270.72 731.9L270.66 731.9L271.74 732.02L271.68 732.02L272.7 732.32L272.64 732.32L273.66 732.68L273.66 732.62L274.56 733.04L274.5 733.04L275.4 733.58L275.34 733.58L275.76 733.88L275.76 733.82L276.12 734.12L276.54 734.48L276.48 734.48L277.2 735.2L277.2 735.14L277.56 735.56L277.86 735.92L277.8 735.92L278.1 736.34L278.1 736.28L278.64 737.18L278.64 737.12L279.06 738.02L279 738.02L279.36 739.04L279.36 738.98L279.66 740L279.66 739.94L279.78 741.02L279.78 740.96L279.84 742.04L279.84 741.98L280.86 742.04L280.86 741.98L280.8 740.9L280.68 739.82L280.62 739.7L280.32 738.68L279.96 737.66L279.96 737.6L279.54 736.7L279.54 736.64L279 735.74L278.94 735.74L278.64 735.32L278.64 735.26L278.34 734.9L277.98 734.48L277.92 734.48L277.2 733.76L277.2 733.7L276.78 733.34L276.42 733.04L276.36 733.04L275.94 732.74L275.94 732.68L275.04 732.14L274.98 732.14L274.08 731.72L274.02 731.72L273 731.36L271.98 731.06L271.86 731L270.78 730.88L269.7 730.82L269.64 730.82L268.56 730.88L268.5 730.88L267.42 731L267.36 731.06L266.34 731.36L266.28 731.36L265.32 731.72L264.36 732.14L264.3 732.2L263.46 732.74L263.4 732.74L262.56 733.34L262.14 733.7L261.36 734.48L261.3 734.54L261 734.96L261.06 734.9L260.64 735.32L260.34 735.74L260.34 735.8L259.38 737.6L259.32 737.66L258.96 738.68L258.96 738.74L258.72 739.76L258.54 740.84" stroke="none" fill="#FF0000" fill-rule="nonzero" /><path id="294" transform="matrix(1 0 0 -1 0 842)" d="M321.84 749.48L321.78 750.56L321.66 751.64L321.66 751.52L321.36 752.54L321 753.5L321 753.44L320.58 754.4L320.64 754.34L320.1 755.18L319.8 755.6L319.5 756.02L319.56 755.96L319.2 756.38L318.48 757.1L318.54 757.04L318.18 757.34L317.76 757.7L317.34 758L317.4 757.94L315.6 758.9L315.66 758.9L314.64 759.26L314.7 759.2L313.68 759.44L313.74 759.44L312.66 759.62L312.72 759.62L311.64 759.68L311.7 759.68L310.62 759.62L310.68 759.62L309.6 759.44L308.58 759.2L308.64 759.26L307.68 758.9L307.74 758.9L306.78 758.42L305.94 757.94L306 758L305.58 757.7L305.64 757.7L305.22 757.34L305.16 757.34L304.74 757.04L304.8 757.1L304.08 756.38L304.14 756.44L303.84 756.02L303.84 755.96L303.48 755.54L303.48 755.6L303.18 755.18L303.24 755.24L302.76 754.4L302.28 753.44L302.28 753.5L301.92 752.54L301.98 752.6L301.74 751.58L301.56 750.5L301.56 750.56L301.5 749.48L301.5 749.54L301.56 748.46L301.56 748.52L300.54 748.34L300.54 748.4L300.48 749.48L300.48 749.54L300.54 750.62L300.54 750.68L300.72 751.76L300.72 751.82L300.96 752.84L300.96 752.9L301.32 753.86L301.38 753.92L301.86 754.88L302.34 755.72L302.34 755.78L302.64 756.2L302.7 756.2L303.06 756.62L303 756.62L303.3 757.04L303.36 757.1L304.14 757.88L304.56 758.18L304.56 758.12L304.98 758.48L304.98 758.54L305.4 758.84L305.46 758.84L306.3 759.32L307.26 759.8L307.32 759.86L308.28 760.22L308.34 760.22L309.36 760.46L309.42 760.46L310.5 760.64L310.56 760.64L311.64 760.7L311.7 760.7L312.78 760.64L312.84 760.64L313.92 760.46L314.94 760.22L315 760.22L316.02 759.86L316.08 759.8L317.88 758.84L317.94 758.84L318.36 758.54L318.42 758.48L318.84 758.12L319.2 757.82L319.92 757.1L319.98 757.04L320.34 756.62L320.94 755.78L320.94 755.72L321.48 754.88L321.54 754.82L321.96 753.86L322.32 752.9L322.32 752.84L322.62 751.82L322.68 751.76L322.8 750.68L322.8 750.62L322.86 749.54" stroke="none" fill="#FF0000" fill-rule="nonzero" /><path id="295" transform="matrix(1 0 0 -1 0 842)" d="M301.56 748.52L301.74 747.44L301.74 747.5L301.98 746.48L301.92 746.54L302.28 745.52L302.28 745.58L303.24 743.78L303.18 743.84L303.48 743.42L303.42 743.48L303.84 743.06L304.14 742.64L304.08 742.7L304.8 741.98L305.22 741.62L305.16 741.68L306 741.08L306.84 740.54L306.78 740.6L307.74 740.18L307.68 740.18L308.64 739.82L309.66 739.52L309.54 739.52L310.62 739.4L311.7 739.34L311.64 739.34L312.72 739.4L312.66 739.4L313.74 739.52L313.68 739.52L314.7 739.82L314.64 739.82L315.66 740.18L315.66 740.12L316.56 740.54L316.5 740.54L317.4 741.08L317.34 741.08L318.18 741.68L318.12 741.62L319.2 742.7L319.2 742.64L319.56 743.06L319.86 743.42L319.8 743.42L320.1 743.84L320.1 743.78L320.64 744.68L320.64 744.62L321.06 745.52L321 745.52L321.36 746.54L321.36 746.48L321.66 747.5L321.66 747.44L321.78 748.52L321.78 748.46L321.84 749.54L321.84 749.48L322.86 749.54L322.86 749.48L322.8 748.4L322.68 747.32L322.62 747.2L322.32 746.18L321.96 745.16L321.96 745.1L321.54 744.2L321.54 744.14L321 743.24L320.94 743.24L320.64 742.82L320.64 742.76L320.34 742.4L319.98 741.98L319.92 741.98L318.84 740.9L318.78 740.84L317.94 740.24L317.94 740.18L317.04 739.64L316.98 739.64L316.08 739.22L316.02 739.22L315 738.86L313.98 738.56L313.86 738.5L312.78 738.38L311.7 738.32L311.64 738.32L310.56 738.38L310.5 738.38L309.42 738.5L309.36 738.56L308.34 738.86L308.28 738.86L307.32 739.22L306.36 739.64L306.3 739.7L305.46 740.24L305.4 740.24L304.56 740.84L304.14 741.2L303.36 741.98L303.3 742.04L303 742.46L303.06 742.4L302.64 742.82L302.34 743.24L302.34 743.3L301.38 745.1L301.32 745.16L300.96 746.18L300.96 746.24L300.72 747.26L300.54 748.34" stroke="none" fill="#FF0000" fill-rule="nonzero" /><path id="296" transform="matrix(1 0 0 -1 0 842)" d="M374.34 748.7L374.28 749.84L374.16 750.86L374.16 750.74L373.86 751.76L373.5 752.78L373.56 752.72L373.14 753.62L373.14 753.56L372.6 754.46L372 755.3L372.06 755.24L370.62 756.68L370.68 756.62L369.84 757.22L369.9 757.16L369 757.7L369.06 757.7L368.16 758.12L367.14 758.48L367.2 758.48L366.18 758.78L366.24 758.72L365.16 758.9L365.22 758.9L363.06 758.9L363.18 758.9L362.1 758.72L362.16 758.78L361.14 758.48L360.18 758.12L360.24 758.12L359.28 757.7L359.34 757.76L358.5 757.22L357.66 756.62L357.72 756.62L357.3 756.26L357.3 756.32L356.58 755.6L356.64 755.6L356.34 755.24L355.98 754.82L356.04 754.94L355.8 754.52L355.8 754.46L355.26 753.56L355.26 753.62L354.78 752.72L354.78 752.78L354.42 751.76L354.48 751.82L354.24 750.8L354.06 749.78L354.06 749.84L354 748.7L354 748.76L354.06 747.68L354.06 747.74L353.04 747.56L353.04 747.62L352.98 748.7L352.98 748.76L353.04 749.9L353.04 749.96L353.22 750.98L353.22 751.04L353.46 752.06L353.46 752.12L353.82 753.14L353.88 753.2L354.36 754.1L354.9 755L355.14 755.42L355.2 755.48L355.56 755.9L355.86 756.26L355.86 756.32L356.58 757.04L356.64 757.04L357.06 757.4L357.06 757.46L357.9 758.06L357.96 758.06L358.8 758.6L358.86 758.66L359.82 759.08L360.78 759.44L360.84 759.44L361.86 759.74L361.92 759.74L363 759.92L365.34 759.92L366.42 759.74L366.48 759.74L367.5 759.44L368.52 759.08L368.58 759.02L369.48 758.6L369.54 758.6L370.44 758.06L371.28 757.46L371.34 757.4L372.78 755.96L372.84 755.9L373.14 755.48L373.44 755.06L373.5 755L374.04 754.1L374.04 754.04L374.46 753.14L374.82 752.12L374.82 752.06L375.12 751.04L375.18 750.98L375.3 749.96L375.3 749.9L375.36 748.76" stroke="none" fill="#FF0000" fill-rule="nonzero" /><path id="297" transform="matrix(1 0 0 -1 0 842)" d="M354.06 747.74L354.24 746.66L354.24 746.72L354.48 745.7L354.42 745.76L354.78 744.8L354.78 744.86L355.26 743.9L355.2 743.9L355.74 743.06L355.8 743.06L356.04 742.64L355.98 742.7L356.34 742.28L356.64 741.92L357 741.5L356.94 741.56L357.3 741.2L357.24 741.26L358.5 740.36L359.34 739.82L359.28 739.82L360.24 739.34L360.18 739.4L361.14 739.04L361.08 739.04L362.1 738.8L363.18 738.62L363.12 738.62L364.2 738.56L364.14 738.56L365.22 738.62L365.16 738.62L366.24 738.8L366.18 738.8L367.2 739.04L367.14 739.04L368.16 739.4L368.1 739.34L369 739.82L369.9 740.36L369.84 740.36L370.68 740.96L370.68 740.9L371.04 741.2L370.98 741.2L371.34 741.56L371.34 741.5L371.7 741.92L371.7 741.98L372.06 742.34L372 742.28L372.6 743.12L372.6 743.06L373.14 743.9L373.08 743.84L373.5 744.8L373.86 745.76L373.86 745.7L374.16 746.72L374.16 746.66L374.28 747.74L374.28 747.68L374.34 748.76L374.34 748.7L375.36 748.76L375.36 748.7L375.3 747.62L375.18 746.54L375.12 746.42L374.82 745.4L374.46 744.44L374.46 744.38L374.04 743.42L373.98 743.36L373.44 742.52L372.84 741.68L372.42 741.26L372.48 741.26L372.12 740.84L372.06 740.84L371.7 740.48L371.7 740.42L371.34 740.12L371.28 740.12L370.44 739.52L370.44 739.46L369.54 738.92L369.48 738.92L368.58 738.44L368.52 738.44L367.5 738.08L367.44 738.02L366.42 737.78L365.34 737.6L365.28 737.6L364.2 737.54L364.14 737.54L363.06 737.6L363 737.6L361.92 737.78L361.86 737.78L360.84 738.02L360.78 738.08L359.82 738.44L359.76 738.44L358.8 738.92L358.8 738.98L357.96 739.52L357.9 739.52L356.64 740.42L356.58 740.48L356.22 740.84L355.86 741.26L355.56 741.62L355.2 742.04L355.14 742.16L354.9 742.58L354.9 742.52L354.36 743.36L354.36 743.42L353.88 744.38L353.82 744.44L353.46 745.4L353.46 745.46L353.22 746.48L353.04 747.56" stroke="none" fill="#FF0000" fill-rule="nonzero" /><path id="298" transform="matrix(1 0 0 -1 0 842)" d="M417.12 743.12L417.06 744.2L417.06 744.14L416.88 745.16L416.64 746.24L416.64 746.18L416.28 747.14L416.34 747.08L415.86 747.98L415.86 747.92L415.32 748.82L415.32 748.88L415.08 749.3L415.14 749.18L414.78 749.6L414.48 749.96L414.12 750.38L414.18 750.32L413.82 750.62L413.4 750.98L412.56 751.58L412.62 751.58L411.78 752.12L411.78 752.06L410.82 752.54L410.88 752.54L409.92 752.9L409.98 752.84L408.96 753.08L409.02 753.08L407.94 753.26L408 753.26L406.92 753.32L406.98 753.32L405.9 753.26L405.96 753.26L404.88 753.08L403.86 752.84L403.92 752.9L402.9 752.54L402.96 752.54L402.06 752.06L402.12 752.06L401.22 751.52L401.22 751.58L400.38 750.98L400.44 751.04L400.08 750.68L400.08 750.62L399.72 750.32L399.78 750.38L399.42 749.96L399.36 749.96L399 749.6L399.06 749.66L398.46 748.82L398.52 748.82L397.98 747.92L397.98 747.98L397.56 747.08L397.56 747.14L397.2 746.18L396.9 745.1L396.96 745.22L396.84 744.2L396.78 743.12L396.78 743.18L396.84 742.04L396.84 742.1L395.82 741.98L395.76 743.12L395.76 743.18L395.82 744.26L395.82 744.32L395.94 745.34L395.94 745.4L396.24 746.48L396.24 746.54L396.6 747.5L396.66 747.5L397.08 748.4L397.08 748.46L397.62 749.36L397.62 749.42L398.22 750.26L398.64 750.68L398.64 750.62L399 751.04L399.06 751.1L399.42 751.4L399.36 751.4L399.78 751.82L400.62 752.42L400.68 752.42L401.58 752.96L402.48 753.44L402.54 753.5L403.56 753.86L403.62 753.86L404.64 754.1L404.7 754.1L405.78 754.28L405.84 754.28L406.92 754.34L406.98 754.34L408.06 754.28L408.12 754.28L409.2 754.1L410.22 753.86L410.28 753.86L411.24 753.5L411.3 753.44L412.26 752.96L412.32 752.96L413.16 752.42L414 751.82L414.06 751.76L414.48 751.4L414.84 751.1L414.9 751.04L415.26 750.62L415.56 750.26L415.92 749.84L415.98 749.78L416.22 749.36L416.76 748.46L417.24 747.56L417.24 747.5L417.6 746.54L417.66 746.48L417.9 745.4L417.9 745.34L418.08 744.32L418.08 744.26L418.14 743.18" stroke="none" fill="#FF0000" fill-rule="nonzero" /><path id="299" transform="matrix(1 0 0 -1 0 842)" d="M396.84 742.1L396.96 741.08L396.9 741.14L397.2 740.12L397.2 740.18L397.56 739.16L397.98 738.2599L397.98 738.3199L398.52 737.42L398.46 737.48L399.06 736.64L399 736.7L400.44 735.2599L400.38 735.3199L401.22 734.72L402.12 734.18L402.06 734.18L402.96 733.7L402.9 733.7599L403.92 733.4L403.86 733.4L404.88 733.16L405.96 732.98L405.9 732.98L406.98 732.92L406.92 732.92L408 732.98L407.94 732.98L409.02 733.16L408.96 733.16L409.98 733.4L409.92 733.4L410.88 733.7599L410.82 733.7L411.78 734.18L412.62 734.72L412.56 734.72L413.4 735.3199L413.4 735.2599L413.82 735.62L413.76 735.62L414.48 736.34L414.48 736.28L414.78 736.64L415.14 737.06L415.08 737L415.32 737.42L415.86 738.3199L416.34 739.22L416.28 739.16L416.64 740.18L416.64 740.12L416.88 741.14L416.88 741.08L417.06 742.1L417.06 742.04L417.12 743.18L417.12 743.12L418.14 743.18L418.14 743.12L418.08 741.98L418.08 741.92L417.9 740.9L417.66 739.88L417.6 739.8199L417.24 738.8L417.24 738.74L416.76 737.84L416.76 737.78L416.22 736.88L416.22 736.94L415.98 736.52L415.92 736.4L415.56 735.98L415.26 735.62L415.2 735.62L414.48 734.9L414.48 734.84L414.06 734.48L414 734.48L413.16 733.88L412.32 733.34L412.26 733.28L411.3 732.8L411.24 732.8L410.28 732.44L410.22 732.38L409.2 732.14L408.12 731.96L408.06 731.96L406.98 731.9L406.92 731.9L405.84 731.96L405.78 731.96L404.7 732.14L404.64 732.14L403.62 732.38L403.56 732.44L402.54 732.8L402.48 732.8L401.58 733.28L400.68 733.8199L400.62 733.88L399.78 734.48L399.72 734.54L398.28 735.98L398.22 736.04L397.62 736.88L397.08 737.78L397.08 737.84L396.66 738.74L396.6 738.8L396.24 739.8199L395.94 740.84L395.94 740.96L395.82 741.98" stroke="none" fill="#FF0000" fill-rule="nonzero" /><path id="300" transform="matrix(1 0 0 -1 0 842)" d="M425.34 690.2L425.28 691.34L425.16 692.36L425.16 692.24L424.86 693.26L424.5 694.28L424.56 694.22L424.14 695.12L424.14 695.06L423.6 695.96L423 696.8L423.06 696.74L421.62 698.18L421.68 698.12L420.84 698.72L420.9 698.66L420 699.2L420.06 699.2L419.16 699.62L418.14 699.98L418.2 699.98L417.18 700.28L417.24 700.22L416.16 700.4L416.22 700.4L414.06 700.4L414.18 700.4L413.1 700.22L413.16 700.28L412.14 699.98L411.18 699.62L411.24 699.62L410.28 699.2L410.34 699.26L409.5 698.72L408.66 698.12L408.72 698.18L408.36 697.82L408.36 697.76L407.94 697.4L407.94 697.46L407.58 697.1L407.64 697.1L407.34 696.74L407.34 696.8L406.74 695.96L406.8 695.96L406.26 695.06L406.26 695.12L405.78 694.22L405.78 694.28L405.42 693.26L405.48 693.32L405.24 692.3L405.06 691.28L405.06 691.34L405 690.2L405 690.26L405.06 689.18L405.06 689.24L404.04 689.06L404.04 689.12L403.98 690.2L403.98 690.26L404.04 691.4L404.04 691.46L404.22 692.48L404.22 692.54L404.46 693.56L404.46 693.62L404.82 694.64L404.88 694.7L405.36 695.6L405.9 696.5L405.9 696.56L406.5 697.4L406.56 697.4L406.86 697.76L406.86 697.82L407.22 698.18L407.28 698.18L407.7 698.54L407.64 698.54L408 698.9L408.06 698.96L408.9 699.56L408.96 699.56L409.8 700.1L409.86 700.16L410.82 700.58L411.78 700.94L411.84 700.94L412.86 701.24L412.92 701.24L414 701.42L416.34 701.42L417.42 701.24L417.48 701.24L418.5 700.94L419.52 700.58L419.58 700.52L420.48 700.1L420.54 700.1L421.44 699.56L422.28 698.96L422.34 698.9L423.78 697.46L423.84 697.4L424.14 696.98L424.44 696.56L424.5 696.5L425.04 695.6L425.04 695.54L425.46 694.64L425.82 693.62L425.82 693.56L426.12 692.54L426.18 692.48L426.3 691.46L426.3 691.4L426.36 690.26" stroke="none" fill="#FF0000" fill-rule="nonzero" /><path id="301" transform="matrix(1 0 0 -1 0 842)" d="M405.06 689.24L405.24 688.16L405.24 688.22L405.48 687.2L405.42 687.26L405.78 686.3L405.78 686.36L406.26 685.4L406.2 685.4L406.74 684.56L406.74 684.62L407.34 683.78L407.64 683.42L408 683L407.94 683.06L408.36 682.7L408.72 682.4L408.66 682.46L409.5 681.86L410.34 681.32L410.28 681.32L411.24 680.84L411.18 680.9L412.14 680.54L412.08 680.54L413.1 680.3L414.18 680.12L414.12 680.12L415.2 680.06L415.14 680.06L416.22 680.12L416.16 680.12L417.24 680.3L417.18 680.3L418.2 680.54L418.14 680.54L419.16 680.9L419.1 680.84L420 681.32L420.9 681.86L420.84 681.86L421.68 682.46L421.68 682.4L422.04 682.7L421.98 682.7L422.34 683.06L422.34 683L422.7 683.42L422.7 683.48L423.06 683.84L423 683.78L423.6 684.62L423.6 684.56L424.14 685.4L424.08 685.34L424.5 686.3L424.86 687.26L424.86 687.2L425.16 688.22L425.16 688.16L425.28 689.24L425.28 689.18L425.34 690.26L425.34 690.2L426.36 690.26L426.36 690.2L426.3 689.12L426.18 688.04L426.12 687.92L425.82 686.9L425.46 685.94L425.46 685.88L425.04 684.92L424.98 684.86L424.44 684.02L423.84 683.18L423.42 682.76L423.48 682.76L423.12 682.34L423.06 682.34L422.7 681.98L422.7 681.92L422.34 681.62L422.28 681.62L421.44 681.02L421.44 680.96L420.54 680.42L420.48 680.42L419.58 679.94L419.52 679.94L418.5 679.58L418.44 679.52L417.42 679.28L416.34 679.1L416.28 679.1L415.2 679.04L415.14 679.04L414.06 679.1L414 679.1L412.92 679.28L412.86 679.28L411.84 679.52L411.78 679.58L410.82 679.94L410.76 679.94L409.8 680.42L409.8 680.48L408.96 681.02L408.9 681.02L408.06 681.62L407.7 681.92L407.28 682.28L407.22 682.34L406.86 682.76L406.56 683.12L406.5 683.18L405.9 684.02L405.36 684.86L405.36 684.92L404.88 685.88L404.82 685.94L404.46 686.9L404.46 686.96L404.22 687.98L404.04 689.06" stroke="none" fill="#FF0000" fill-rule="nonzero" /><path id="302" transform="matrix(1 0 0 -1 0 842)" d="M416.34 635.84L416.28 636.92L416.16 638L416.16 637.88L415.86 638.9L415.5 639.86L415.5 639.8L415.08 640.76L415.14 640.7L414.6 641.6L414.3 642.02L414.36 641.96L414.06 642.32L413.7 642.7401L412.98 643.46L413.04 643.4L412.68 643.7L412.26 644.06L411.84 644.36L411.9 644.3L411 644.84L411.06 644.84L410.16 645.26L409.14 645.6201L409.2 645.6201L408.18 645.92L408.24 645.86L407.16 645.98L407.22 645.98L406.14 646.04L406.2 646.04L405.12 645.98L404.04 645.86L404.16 645.92L403.14 645.6201L402.18 645.26L402.24 645.26L401.28 644.84L401.34 644.9L400.5 644.36L400.08 644.06L400.14 644.06L399.72 643.7L399.66 643.7L399.24 643.4L399.3 643.46L398.58 642.7401L398.64 642.8L398.34 642.38L398.34 642.32L398.04 641.96L398.04 642.02L397.74 641.6L397.8 641.6L397.26 640.7L397.26 640.76L396.78 639.8L396.78 639.86L396.42 638.9L396.48 638.96L396.24 637.94L396.06 636.86L396.06 636.92L396 635.84L396 635.9L396.06 634.82L396.06 634.88L395.04 634.7L395.04 634.76L394.98 635.84L394.98 635.9L395.04 636.98L395.04 637.04L395.22 638.1201L395.22 638.1801L395.46 639.2L395.46 639.26L395.82 640.22L395.88 640.28L396.36 641.2401L396.9 642.14L396.9 642.2L397.2 642.6201L397.26 642.6201L397.56 642.98L397.5 642.98L397.8 643.4L398.64 644.2401L399.06 644.54L399.06 644.48L399.48 644.84L399.48 644.9L399.9 645.2L399.96 645.2L400.8 645.7401L400.86 645.8L401.82 646.22L402.78 646.58L402.84 646.58L403.86 646.88L403.92 646.88L405 647L405.06 647L406.14 647.06L406.2 647.06L407.28 647L408.36 646.88L408.48 646.88L409.5 646.58L410.52 646.22L410.58 646.16L411.48 645.7401L411.54 645.7401L412.44 645.2L412.86 644.9L412.92 644.84L413.34 644.48L413.7 644.1801L414.48 643.4L414.84 642.98L415.14 642.6201L415.44 642.2L415.5 642.14L416.04 641.2401L416.04 641.1801L416.46 640.22L416.82 639.26L416.82 639.2L417.12 638.1801L417.18 638.1201L417.3 637.04L417.3 636.98L417.36 635.9" stroke="none" fill="#FF0000" fill-rule="nonzero" /><path id="303" transform="matrix(1 0 0 -1 0 842)" d="M396.06 634.88L396.24 633.8L396.24 633.86L396.48 632.84L396.42 632.9L396.78 631.94L396.78 632L397.26 631.04L397.8 630.14L397.74 630.2L398.04 629.78L398.34 629.42L398.64 629L398.58 629.06L399.3 628.34L399.24 628.4L399.66 628.1L399.72 628.04L400.14 627.68L400.08 627.74L400.5 627.44L401.34 626.9L401.28 626.96L402.24 626.54L402.18 626.54L403.14 626.18L404.16 625.88L404.04 625.88L405.12 625.76L406.2 625.7L406.14 625.7L407.22 625.76L407.16 625.76L408.24 625.88L408.18 625.88L409.2 626.18L409.14 626.18L410.16 626.54L410.16 626.48L411.06 626.9L411 626.9L411.9 627.44L411.84 627.44L412.26 627.74L412.26 627.68L412.68 628.04L413.04 628.34L412.98 628.34L413.7 629.06L413.7 629L414.06 629.42L414.36 629.78L414.3 629.78L414.6 630.2L414.6 630.14L415.14 631.04L415.08 630.98L415.5 631.94L415.86 632.9L415.86 632.84L416.16 633.86L416.16 633.8L416.28 634.88L416.28 634.82L416.34 635.9L416.34 635.84L417.36 635.9L417.36 635.84L417.3 634.76L417.18 633.68L417.12 633.56L416.82 632.54L416.46 631.58L416.46 631.52L416.04 630.56L416.04 630.5L415.5 629.6L415.44 629.6L415.14 629.18L415.14 629.12L414.84 628.76L414.48 628.34L414.42 628.34L413.7 627.62L413.7 627.56L413.34 627.26L412.92 626.9L412.86 626.9L412.44 626.6L412.44 626.54L411.54 626L411.48 626L410.58 625.58L410.52 625.58L409.5 625.22L408.48 624.92L408.36 624.86L407.28 624.74L406.2 624.68L406.14 624.68L405.06 624.74L405 624.74L403.92 624.86L403.86 624.92L402.84 625.22L402.78 625.22L401.82 625.58L400.86 626L400.8 626.06L399.96 626.6L399.9 626.6L399.48 626.9L399.06 627.26L398.64 627.56L397.8 628.4L397.5 628.82L397.56 628.76L397.26 629.12L397.2 629.18L396.9 629.6L396.36 630.5L396.36 630.56L395.88 631.52L395.82 631.58L395.46 632.54L395.46 632.6L395.22 633.62L395.04 634.7" stroke="none" fill="#FF0000" fill-rule="nonzero" /><path id="304" transform="matrix(1 0 0 -1 0 842)" d="M374.76 630.2L374.7 631.28L374.7 631.22L374.52 632.3L374.28 633.32L374.28 633.26L373.92 634.28L373.98 634.22L373.5 635.12L373.5 635.06L372.96 635.96L372.36 636.8L372.42 636.74L370.98 638.18L371.04 638.12L370.2 638.72L370.26 638.66L369.36 639.2L369.42 639.2L368.52 639.62L367.5 639.98L367.56 639.98L366.54 640.28L366.6 640.22L365.58 640.34L365.64 640.34L364.5 640.4L364.56 640.4L363.48 640.34L362.46 640.22L362.58 640.28L361.56 639.98L360.54 639.62L360.6 639.62L359.7 639.2L359.76 639.2L358.86 638.66L358.86 638.72L358.02 638.12L358.08 638.18L356.64 636.74L356.7 636.8L356.1 635.96L356.16 635.96L355.62 635.06L355.62 635.12L355.14 634.22L355.14 634.28L354.78 633.26L354.84 633.32L354.6 632.3L354.42 631.22L354.42 631.28L354.36 630.2L354.36 630.26L354.42 629.18L354.42 629.24L353.4 629.06L353.4 629.12L353.34 630.2L353.34 630.26L353.4 631.34L353.4 631.4L353.58 632.48L353.58 632.54L353.82 633.56L353.82 633.62L354.18 634.64L354.24 634.7L354.72 635.6L355.26 636.5L355.26 636.56L355.86 637.4L357.42 638.96L358.26 639.56L358.32 639.56L359.22 640.1L359.28 640.1L360.18 640.52L360.18 640.58L361.2 640.94L361.26 640.94L362.28 641.24L362.34 641.24L363.36 641.36L363.42 641.36L364.5 641.42L364.56 641.42L365.7 641.36L366.72 641.24L366.84 641.24L367.86 640.94L368.88 640.58L368.94 640.52L369.84 640.1L369.9 640.1L370.8 639.56L371.64 638.96L373.2 637.4L373.8 636.56L373.86 636.5L374.4 635.6L374.88 634.7L374.88 634.64L375.24 633.62L375.3 633.56L375.54 632.54L375.54 632.48L375.72 631.4L375.72 631.34L375.78 630.26" stroke="none" fill="#FF0000" fill-rule="nonzero" /><path id="305" transform="matrix(1 0 0 -1 0 842)" d="M354.42 629.24L354.6 628.16L354.6 628.22L354.84 627.2L354.78 627.26L355.14 626.3L355.14 626.36L355.62 625.4L355.56 625.4L356.1 624.56L356.1 624.62L356.7 623.78L357.06 623.36L357 623.42L357.72 622.7L358.08 622.4L358.02 622.46L358.86 621.86L359.76 621.32L359.7 621.32L360.6 620.84L360.54 620.9L361.56 620.54L361.5 620.54L362.52 620.3L363.54 620.12L363.48 620.12L364.56 620.06L364.5 620.06L365.64 620.12L365.58 620.12L366.6 620.3L366.54 620.3L367.56 620.54L367.5 620.54L368.52 620.9L368.46 620.84L369.36 621.32L370.26 621.86L370.2 621.86L371.04 622.46L371.04 622.4L371.4 622.7L371.34 622.7L372.06 623.42L372.06 623.36L372.42 623.78L372.36 623.78L372.96 624.62L372.96 624.56L373.5 625.4L373.98 626.36L373.92 626.3L374.28 627.26L374.28 627.2L374.52 628.22L374.52 628.16L374.7 629.24L374.7 629.18L374.76 630.26L374.76 630.2L375.78 630.26L375.78 630.2L375.72 629.12L375.72 629.06L375.54 627.98L375.3 626.96L375.24 626.9L374.88 625.94L374.88 625.88L374.4 624.92L374.34 624.86L373.8 624.02L373.2 623.18L373.2 623.12L372.84 622.7L372.78 622.7L372.06 621.98L372.06 621.92L371.7 621.62L371.64 621.62L370.8 621.02L370.8 620.96L369.9 620.42L369.84 620.42L368.94 619.94L368.88 619.94L367.86 619.58L367.8 619.52L366.78 619.28L365.76 619.1L365.7 619.1L364.56 619.04L364.5 619.04L363.42 619.1L363.36 619.1L362.34 619.28L362.28 619.28L361.26 619.52L361.2 619.58L360.18 619.94L360.12 619.94L359.22 620.42L358.32 620.96L358.26 621.02L357.42 621.62L357.06 621.92L357 621.98L356.28 622.7L355.92 623.12L355.86 623.18L355.26 624.02L354.72 624.86L354.72 624.92L354.24 625.88L354.18 625.94L353.82 626.9L353.82 626.96L353.58 627.98L353.4 629.06" stroke="none" fill="#FF0000" fill-rule="nonzero" /><path id="306" transform="matrix(1 0 0 -1 0 842)" d="M323.34 630.2L323.28 631.28L323.16 632.36L323.16 632.24L322.86 633.26L322.5 634.28L322.56 634.22L322.14 635.12L322.14 635.06L321.6 635.96L321 636.8L321.06 636.74L319.98 637.82L320.04 637.76L319.62 638.12L319.26 638.42L318.84 638.72L318.9 638.66L318 639.2L318.06 639.2L317.16 639.62L316.14 639.98L316.2 639.98L315.18 640.28L315.24 640.22L314.16 640.34L314.22 640.34L313.14 640.4L313.2 640.4L312.12 640.34L311.04 640.22L311.16 640.28L310.14 639.98L309.18 639.62L309.24 639.62L308.28 639.2L308.34 639.26L307.5 638.72L306.66 638.12L306.72 638.12L306.3 637.76L306.3 637.82L305.58 637.1L305.64 637.1L305.34 636.74L304.98 636.32L304.98 636.38L304.68 635.96L304.74 636.02L303.78 634.22L303.78 634.28L303.42 633.26L303.48 633.32L303.24 632.3L303.06 631.22L303.06 631.28L303 630.2L303 630.26L303.06 629.18L303.06 629.24L302.04 629.06L302.04 629.12L301.98 630.2L301.98 630.26L302.04 631.34L302.04 631.4L302.22 632.48L302.22 632.54L302.46 633.56L302.46 633.62L302.82 634.64L302.88 634.7L303.84 636.5L303.84 636.56L304.14 636.98L304.2 636.98L304.56 637.4L304.86 637.76L304.86 637.82L305.58 638.54L305.64 638.54L306.06 638.9L306.06 638.96L306.9 639.56L306.96 639.56L307.8 640.1L307.86 640.16L308.82 640.58L309.78 640.94L309.84 640.94L310.86 641.24L310.92 641.24L312 641.36L312.06 641.36L313.14 641.42L313.2 641.42L314.28 641.36L315.36 641.24L315.48 641.24L316.5 640.94L317.52 640.58L317.58 640.52L318.48 640.1L318.54 640.1L319.44 639.56L319.86 639.26L319.92 639.2L320.28 638.9L320.7 638.54L321.84 637.4L322.44 636.56L322.5 636.5L323.04 635.6L323.04 635.54L323.46 634.64L323.82 633.62L323.82 633.56L324.12 632.54L324.18 632.48L324.3 631.4L324.3 631.34L324.36 630.26" stroke="none" fill="#FF0000" fill-rule="nonzero" /><path id="307" transform="matrix(1 0 0 -1 0 842)" d="M303.06 629.24L303.24 628.16L303.24 628.22L303.48 627.2L303.42 627.26L303.78 626.3L303.78 626.36L304.26 625.4L304.74 624.56L304.68 624.62L304.98 624.2L305.34 623.78L305.64 623.36L305.58 623.42L306.3 622.7L306.24 622.76L307.5 621.86L308.34 621.32L308.28 621.32L309.24 620.84L309.18 620.9L310.14 620.54L310.08 620.54L311.1 620.3L312.18 620.12L312.12 620.12L313.2 620.06L313.14 620.06L314.22 620.12L314.16 620.12L315.24 620.3L315.18 620.3L316.2 620.54L316.14 620.54L317.16 620.9L317.1 620.84L318 621.32L318.9 621.86L318.84 621.86L319.68 622.46L319.68 622.4L320.04 622.7L319.98 622.7L320.7 623.42L320.7 623.36L321.06 623.78L321 623.78L321.6 624.62L321.6 624.56L322.14 625.4L322.08 625.34L322.5 626.3L322.86 627.26L322.86 627.2L323.16 628.22L323.16 628.16L323.28 629.24L323.28 629.18L323.34 630.26L323.34 630.2L324.36 630.26L324.36 630.2L324.3 629.12L324.18 628.04L324.12 627.92L323.82 626.9L323.46 625.94L323.46 625.88L323.04 624.92L322.98 624.86L322.44 624.02L321.84 623.18L321.84 623.12L321.48 622.7L321.42 622.7L320.7 621.98L320.7 621.92L320.34 621.62L320.28 621.62L319.44 621.02L319.44 620.96L318.54 620.42L318.48 620.42L317.58 619.94L317.52 619.94L316.5 619.58L316.44 619.52L315.42 619.28L314.34 619.1L314.28 619.1L313.2 619.04L313.14 619.04L312.06 619.1L312 619.1L310.92 619.28L310.86 619.28L309.84 619.52L309.78 619.58L308.82 619.94L308.76 619.94L307.8 620.42L307.8 620.48L306.96 621.02L306.9 621.02L305.64 621.92L305.58 621.98L304.8 622.76L304.5 623.18L304.56 623.12L304.2 623.54L304.14 623.6L303.84 624.02L303.84 624.08L303.36 624.92L302.88 625.88L302.82 625.94L302.46 626.9L302.46 626.96L302.22 627.98L302.04 629.06" stroke="none" fill="#FF0000" fill-rule="nonzero" /><path id="308" transform="matrix(1 0 0 -1 0 842)" d="M279.48 636.62L279.42 637.7L279.42 637.64L279.24 638.66L279 639.68L279 639.62L278.64 640.64L278.7 640.58L278.28 641.48L278.28 641.42L277.74 642.32L277.44 642.74L277.5 642.68L277.14 643.1L276.84 643.46L276.12 644.18L276.18 644.12L275.76 644.48L275.34 644.78L274.98 645.08L275.04 645.02L274.14 645.56L273.18 646.04L273.24 646.04L272.28 646.4L272.34 646.34L271.32 646.58L271.38 646.58L270.3 646.76L270.36 646.76L269.28 646.82L269.34 646.82L268.26 646.76L268.32 646.76L267.24 646.58L266.22 646.34L266.28 646.4L265.32 646.04L265.38 646.04L264.42 645.56L264.48 645.56L263.58 645.02L263.58 645.08L263.16 644.78L263.22 644.78L262.86 644.48L262.44 644.12L262.44 644.18L261.36 643.1L261.42 643.16L260.82 642.32L260.88 642.32L260.34 641.42L260.34 641.48L259.92 640.58L259.92 640.64L259.56 639.62L259.26 638.6L259.32 638.72L259.2 637.7L259.14 636.62L259.14 636.68L259.2 635.54L259.2 635.6L258.18 635.48L258.12 636.62L258.12 636.68L258.18 637.76L258.18 637.82L258.3 638.84L258.3 638.9L258.6 639.92L258.6 639.98L258.96 641L259.02 641L259.44 641.9L259.44 641.96L259.98 642.86L259.98 642.92L260.58 643.76L261.72 644.9L261.78 644.9L262.2 645.26L262.56 645.56L262.56 645.62L262.98 645.92L263.04 645.92L263.94 646.46L264.9 646.94L264.96 647L265.92 647.36L265.98 647.36L267 647.6L267.06 647.6L268.14 647.78L268.2 647.78L269.28 647.84L269.34 647.84L270.42 647.78L270.48 647.78L271.56 647.6L272.58 647.36L272.64 647.36L273.6 647L273.66 646.94L274.62 646.46L274.68 646.46L275.58 645.92L275.64 645.86L276 645.56L275.94 645.62L276.36 645.32L276.42 645.26L276.84 644.9L277.62 644.12L277.92 643.76L278.28 643.34L278.58 642.92L278.64 642.86L279.18 641.96L279.18 641.9L279.6 641L279.96 639.98L280.02 639.92L280.26 638.9L280.26 638.84L280.44 637.82L280.44 637.76L280.5 636.68" stroke="none" fill="#FF0000" fill-rule="nonzero" /><path id="309" transform="matrix(1 0 0 -1 0 842)" d="M259.2 635.6L259.32 634.58L259.26 634.64L259.56 633.62L259.56 633.68L259.92 632.66L260.34 631.7599L260.34 631.8199L260.88 630.92L260.82 630.98L261.42 630.14L261.36 630.2L262.44 629.12L262.86 628.7599L263.22 628.46L263.16 628.52L263.58 628.22L264.48 627.68L264.42 627.68L265.38 627.2L265.32 627.2599L266.28 626.9L266.22 626.9L267.24 626.66L268.32 626.48L268.26 626.48L269.34 626.42L269.28 626.42L270.36 626.48L270.3 626.48L271.38 626.66L271.32 626.66L272.34 626.9L272.28 626.9L273.24 627.2599L273.18 627.2L274.14 627.68L275.04 628.22L274.98 628.16L275.34 628.46L275.34 628.52L275.76 628.8199L275.76 628.7599L276.18 629.12L276.12 629.12L276.84 629.84L276.84 629.78L277.14 630.14L277.5 630.56L277.44 630.56L277.74 630.98L277.74 630.92L278.28 631.8199L278.28 631.7599L278.7 632.66L278.64 632.66L279 633.68L279 633.62L279.24 634.64L279.24 634.58L279.42 635.6L279.42 635.54L279.48 636.68L279.48 636.62L280.5 636.68L280.5 636.62L280.44 635.48L280.44 635.42L280.26 634.4L280.02 633.38L279.96 633.3199L279.6 632.3L279.6 632.24L279.18 631.34L279.18 631.28L278.64 630.38L278.58 630.38L278.28 629.96L278.28 629.9L277.92 629.48L277.62 629.12L277.56 629.12L276.84 628.4L276.84 628.34L276.42 627.98L276.36 627.98L275.94 627.68L276 627.68L275.64 627.38L275.58 627.3199L274.68 626.78L274.62 626.78L273.66 626.3L273.6 626.3L272.64 625.94L272.58 625.88L271.56 625.64L270.48 625.46L270.42 625.46L269.34 625.4L269.28 625.4L268.2 625.46L268.14 625.46L267.06 625.64L267 625.64L265.98 625.88L265.92 625.94L264.96 626.3L264.9 626.3L263.94 626.78L263.04 627.3199L262.98 627.38L262.56 627.68L262.2 627.98L261.78 628.34L260.64 629.48L260.58 629.54L259.98 630.38L259.44 631.28L259.44 631.34L259.02 632.24L258.96 632.3L258.6 633.3199L258.3 634.34L258.3 634.46L258.18 635.48" stroke="none" fill="#FF0000" fill-rule="nonzero" /><path id="310" transform="matrix(1 0 0 -1 0 842)" d="M272.34 688.7L272.28 689.84L272.16 690.86L272.16 690.74L271.86 691.76L271.5 692.78L271.56 692.72L271.14 693.62L271.14 693.56L270.6 694.46L270 695.3L270.06 695.24L268.98 696.32L269.04 696.26L268.62 696.62L268.26 696.92L267.84 697.22L267.9 697.16L267 697.7L267.06 697.7L266.1 698.12L265.14 698.48L265.2 698.48L264.18 698.78L264.24 698.72L263.16 698.9L263.22 698.9L261.06 698.9L261.18 698.9L260.1 698.72L260.16 698.78L259.14 698.48L258.18 698.12L258.24 698.12L257.28 697.7L257.34 697.76L256.5 697.22L255.66 696.62L255.72 696.62L255.3 696.26L255.3 696.32L254.58 695.6L254.64 695.6L254.34 695.24L253.98 694.82L253.98 694.88L253.68 694.46L253.74 694.52L252.78 692.72L252.78 692.78L252.42 691.76L252.48 691.82L252.24 690.8L252.06 689.78L252.06 689.84L252 688.7L252 688.76L252.06 687.68L252.06 687.74L251.04 687.56L251.04 687.62L250.98 688.7L250.98 688.76L251.04 689.9L251.04 689.96L251.22 690.98L251.22 691.04L251.46 692.06L251.46 692.12L251.82 693.14L251.88 693.2L252.84 695L252.84 695.06L253.14 695.48L253.2 695.48L253.56 695.9L253.86 696.26L253.86 696.32L254.58 697.04L254.64 697.04L255.06 697.4L255.06 697.46L255.9 698.06L255.96 698.06L256.8 698.6L256.86 698.66L257.82 699.08L258.78 699.44L258.84 699.44L259.86 699.74L259.92 699.74L261 699.92L263.34 699.92L264.42 699.74L264.48 699.74L265.5 699.44L266.46 699.08L266.52 699.08L267.48 698.66L267.54 698.6L268.44 698.06L268.86 697.76L268.92 697.7L269.28 697.4L269.7 697.04L270.78 695.96L270.84 695.9L271.14 695.48L271.44 695.06L271.5 695L272.04 694.1L272.04 694.04L272.46 693.14L272.82 692.12L272.82 692.06L273.12 691.04L273.18 690.98L273.3 689.96L273.3 689.9L273.36 688.76" stroke="none" fill="#FF0000" fill-rule="nonzero" /><path id="311" transform="matrix(1 0 0 -1 0 842)" d="M252.06 687.74L252.24 686.66L252.24 686.72L252.48 685.7L252.42 685.76L252.78 684.8L252.78 684.86L253.26 683.9L253.74 683.06L253.68 683.12L253.98 682.7L254.34 682.28L254.64 681.92L255 681.5L254.94 681.56L255.3 681.2L255.24 681.26L256.5 680.36L257.34 679.82L257.28 679.82L258.24 679.34L258.18 679.4L259.14 679.04L259.08 679.04L260.1 678.8L261.18 678.62L261.12 678.62L262.2 678.56L262.14 678.56L263.22 678.62L263.16 678.62L264.24 678.8L264.18 678.8L265.2 679.04L265.14 679.04L266.1 679.4L266.04 679.34L267 679.82L267.9 680.36L267.84 680.36L268.26 680.66L268.26 680.6L268.62 680.9L268.62 680.96L269.04 681.26L268.98 681.2L269.34 681.56L269.34 681.5L269.7 681.92L269.7 681.98L270.06 682.34L270 682.28L270.6 683.12L270.6 683.06L271.14 683.9L271.08 683.84L271.5 684.8L271.86 685.76L271.86 685.7L272.16 686.72L272.16 686.66L272.28 687.74L272.28 687.68L272.34 688.76L272.34 688.7L273.36 688.76L273.36 688.7L273.3 687.62L273.18 686.54L273.12 686.42L272.82 685.4L272.46 684.44L272.46 684.38L272.04 683.42L271.98 683.36L271.44 682.52L270.84 681.68L270.42 681.26L270.48 681.26L270.12 680.84L270.06 680.84L269.7 680.48L269.64 680.42L269.22 680.12L269.28 680.12L268.92 679.82L268.86 679.82L268.44 679.52L268.44 679.46L267.54 678.92L267.48 678.92L266.52 678.44L266.46 678.44L265.5 678.08L265.44 678.02L264.42 677.78L263.34 677.6L263.28 677.6L262.2 677.54L262.14 677.54L261.06 677.6L261 677.6L259.92 677.78L259.86 677.78L258.84 678.02L258.78 678.08L257.82 678.44L257.76 678.44L256.8 678.92L256.8 678.98L255.96 679.52L255.9 679.52L254.64 680.42L254.58 680.48L254.22 680.84L253.86 681.26L253.56 681.62L253.2 682.04L253.14 682.1L252.84 682.52L252.84 682.58L252.36 683.42L251.88 684.38L251.82 684.44L251.46 685.4L251.46 685.46L251.22 686.48L251.04 687.56" stroke="none" fill="#FF0000" fill-rule="nonzero" /><path id="312" transform="matrix(1 0 0 -1 0 842)" d="M336.36 607.04L339.36 607.04L339.36 625.52L336.36 625.52z" stroke="none" fill="#FFFFFF" fill-rule="nonzero" /><path id="313" transform="matrix(1 0 0 -1 0 842)" d="M337.38 610.16L338.4 610.16L338.4 624.44L337.38 624.44z" stroke="none" fill="#000000" fill-rule="nonzero" /><path id="314" transform="matrix(1 0 0 -1 0 842)" d="M285.42 686.12L283.5 688.4L260.16 668.84L262.08 666.56" stroke="none" fill="#FFFFFF" fill-rule="nonzero" /><path id="315" transform="matrix(1 0 0 -1 0 842)" d="M262.56 669.38L263.22 668.6L284.46 686.66L283.8 687.44" stroke="none" fill="#000000" fill-rule="nonzero" /></g></g><g clip-path="url(#7)"><g clip-path="url(#8)"><g clip-path="url(#9)"><g transform="matrix(0.4795285 0 0 0.4795349 225.96 442.32)"><g transform="matrix(1 0 0 1 0 0)"><image x="0" y="0" xlink:href="img_843.png" width="509" height="516" /></g></g></g></g></g></g></g></svg>