<svg xmlns="http://www.w3.org/2000/svg" xmlns:xlink="http://www.w3.org/1999/xlink" id="body_184" preserveAspectRatio="xMinYMin meet" viewBox="0 0 793 1123"><defs><clipPath id="1"><path id="" clip-rule="evenodd" transform="matrix(1 0 0 1 0 0)" d="M0 842L0 0L0 0L595 0L595 0L595 842L595 842L0 842z" /></clipPath><clipPath id="2"><path id="" clip-rule="evenodd" transform="matrix(1 0 0 1 0 0)" d="M216.96 79.91998L356.16 79.91998L356.16 79.91998L356.16 187.92L356.16 187.92L216.96 187.92z" /></clipPath><clipPath id="3"><path id="" clip-rule="evenodd" transform="matrix(1 0 0 1 0 0)" d="M215.94 76.02002L544.86 76.02002L544.86 76.02002L544.86 192.66L544.86 192.66L215.94 192.66z" /></clipPath><clipPath id="4"><path id="" clip-rule="evenodd" transform="matrix(1 0 0 1 0 0)" d="M0 0.02001953L595.2 0.02001953L595.2 0.02001953L595.2 842L595.2 842L0 842z" /></clipPath><clipPath id="5"><path id="" clip-rule="evenodd" transform="matrix(1 0 0 1 0 0)" d="M215.94 76.02002L544.86 76.02002L544.86 76.02002L544.86 192.66L544.86 192.66L215.94 192.66z" /></clipPath><clipPath id="6"><path id="" clip-rule="evenodd" transform="matrix(1 0 0 1 0 0)" d="M0 0.02001953L595.2 0.02001953L595.2 0.02001953L595.2 842L595.2 842L0 842z" /></clipPath><clipPath id="7"><path id="" clip-rule="evenodd" transform="matrix(1 0 0 1 0 0)" d="M216.96 382.62L388.44 382.62L388.44 382.62L388.44 560.46L388.44 560.46L216.96 560.46z" /></clipPath><clipPath id="8"><path id="" clip-rule="evenodd" transform="matrix(1 0 0 1 0 0)" d="M215.94 381.66L528.18 381.66L528.18 381.66L528.18 563.64L528.18 563.64L215.94 563.64z" /></clipPath><clipPath id="9"><path id="" clip-rule="evenodd" transform="matrix(1 0 0 1 0 0)" d="M0 0.02001953L595.2 0.02001953L595.2 0.02001953L595.2 842L595.2 842L0 842z" /></clipPath><clipPath id="10"><path id="" clip-rule="evenodd" transform="matrix(1 0 0 1 0 0)" d="M215.94 381.66L528.18 381.66L528.18 381.66L528.18 563.64L528.18 563.64L215.94 563.64z" /></clipPath><clipPath id="11"><path id="" clip-rule="evenodd" transform="matrix(1 0 0 1 0 0)" d="M0 0.02001953L595.2 0.02001953L595.2 0.02001953L595.2 842L595.2 842L0 842z" /></clipPath><clipPath id="12"><path id="" clip-rule="evenodd" transform="matrix(1 0 0 1 0 0)" d="M115.56 612.66L193.98 612.66L193.98 612.66L193.98 627.06L193.98 627.06L115.56 627.06z" /></clipPath><clipPath id="13"><path id="" clip-rule="evenodd" transform="matrix(1 0 0 1 0 0)" d="M0 0.02001953L595.2 0.02001953L595.2 0.02001953L595.2 842L595.2 842L0 842z" /></clipPath><clipPath id="14"><path id="" clip-rule="evenodd" transform="matrix(1 0 0 1 0 0)" d="M115.98 613.14L189.36 613.14L189.36 613.14L189.36 626.94L189.36 626.94L115.98 626.94z" /></clipPath><clipPath id="15"><path id="" clip-rule="evenodd" transform="matrix(1 0 0 1 0 0)" d="M115.56 612.66L193.98 612.66L193.98 612.66L193.98 627.06L193.98 627.06L115.56 627.06z" /></clipPath><clipPath id="16"><path id="" clip-rule="evenodd" transform="matrix(1 0 0 1 0 0)" d="M0 0.02001953L595.2 0.02001953L595.2 0.02001953L595.2 842L595.2 842L0 842z" /></clipPath></defs><g transform="matrix(1.333333 0 0 1.333333 0 0)"><g clip-path="url(#1)"><g clip-path="url(#2)"><g clip-path="url(#3)"><g clip-path="url(#4)"><g transform="matrix(0.48 0 0 0.48 216.96 79.91998)"><g transform="matrix(1 0 0 1 0 0)"><image x="0" y="0" xlink:href="img_494.png" width="290" height="225" /></g></g></g></g></g><g clip-path="url(#5)"><g clip-path="url(#6)"><path id="405" transform="matrix(1 0 0 -1 0 842)" d="M305.64 747.14L306.06 743.72L306.12 743.06L305.46 743.18L292.98 745.16L291.24 745.4L292.86 746.12L304.5 751.04L305.16 751.28L305.22 750.62L304.92 750.08L293.28 745.16L292.86 746.12L293.16 746.12L305.64 744.14L305.46 743.18L305.04 743.6L304.62 747.02" stroke="none" fill="#FF0000" fill-rule="nonzero" /><path id="406" transform="matrix(1 0 0 -1 0 842)" d="M305.22 750.62L305.64 747.14L304.62 747.02L304.2 750.5" stroke="none" fill="#FF0000" fill-rule="nonzero" /><path id="407" transform="matrix(1 0 0 -1 0 842)" d="M305.16 747.08L305.58 743.66L305.58 743.66L293.1 745.64L293.1 745.64L304.74 750.56" stroke="none" fill="#FF0000" fill-rule="evenodd" /><path id="408" transform="matrix(1 0 0 -1 0 842)" d="M422.1 760.94L421.98 761.96L305.58 747.62L305.7 746.6" stroke="none" fill="#FF0000" fill-rule="nonzero" /><path id="427" transform="matrix(1 0 0 -1 0 842)" d="M282.24 736.22L281.22 732.86L280.92 732.2L280.44 732.56L269.88 739.46L268.38 740.42L270.18 740.42L282.72 740.18L283.44 740.12L283.26 739.52L282.78 739.16L270.18 739.4L270.18 740.42L270.42 740.3L280.98 733.4L280.44 732.56L280.2 733.16L281.22 736.52" stroke="none" fill="#FF0000" fill-rule="nonzero" /><path id="428" transform="matrix(1 0 0 -1 0 842)" d="M283.26 739.52L282.24 736.22L281.22 736.52L282.24 739.82" stroke="none" fill="#FF0000" fill-rule="nonzero" /><path id="429" transform="matrix(1 0 0 -1 0 842)" d="M281.76 736.34L280.74 732.98L280.74 732.98L270.18 739.88L270.18 739.88L282.78 739.64" stroke="none" fill="#FF0000" fill-rule="evenodd" /><path id="430" transform="matrix(1 0 0 -1 0 842)" d="M413.52 695.42L413.82 696.38L282.42 736.64L282.12 735.68" stroke="none" fill="#FF0000" fill-rule="nonzero" /></g></g><g clip-path="url(#7)"><g clip-path="url(#8)"><g clip-path="url(#9)"><g transform="matrix(0.6999183 0 0 0.7001575 216.96 382.62)"><g transform="matrix(1 0 0 1 0 0)"><image x="0" y="0" xlink:href="img_495.png" width="245" height="254" /></g></g></g></g></g><g clip-path="url(#10)"><g clip-path="url(#11)"><path id="439" transform="matrix(1 0 0 -1 0 842)" d="M316.32 406.46L317.52 403.22L317.7 402.56L317.04 402.5L304.44 401.6L302.7 401.48L304.08 402.56L314.28 409.88L314.88 410.3L315.12 409.7L314.94 409.1L304.74 401.72L304.08 402.56L304.38 402.62L316.98 403.52L317.04 402.5L316.56 402.86L315.36 406.1" stroke="none" fill="#FF0000" fill-rule="nonzero" /><path id="440" transform="matrix(1 0 0 -1 0 842)" d="M315.12 409.7L316.32 406.46L315.36 406.1L314.16 409.34" stroke="none" fill="#FF0000" fill-rule="nonzero" /><path id="441" transform="matrix(1 0 0 -1 0 842)" d="M315.84 406.28L317.04 403.04L317.04 403.04L304.44 402.14L304.44 402.14L314.64 409.52" stroke="none" fill="#FF0000" fill-rule="evenodd" /><path id="442" transform="matrix(1 0 0 -1 0 842)" d="M404.7 438.02L404.34 438.98L316.14 406.94L316.5 405.98" stroke="none" fill="#FF0000" fill-rule="nonzero" /><path id="463" transform="matrix(1 0 0 -1 0 842)" d="M318.6 383.06L318.12 379.64L318 378.98L317.4 379.22L305.88 384.26L304.26 384.98L306 385.22L318.48 387.08L319.14 387.2L319.08 386.54L318.66 386.12L306.18 384.26L306 385.22L306.3 385.22L317.82 380.18L317.4 379.22L317.1 379.76L317.58 383.18" stroke="none" fill="#FF0000" fill-rule="nonzero" /><path id="464" transform="matrix(1 0 0 -1 0 842)" d="M319.08 386.54L318.6 383.06L317.58 383.18L318.06 386.66" stroke="none" fill="#FF0000" fill-rule="nonzero" /><path id="465" transform="matrix(1 0 0 -1 0 842)" d="M318.12 383.12L317.64 379.7L317.64 379.7L306.12 384.74L306.12 384.74L318.6 386.6" stroke="none" fill="#FF0000" fill-rule="evenodd" /><path id="466" transform="matrix(1 0 0 -1 0 842)" d="M402.36 371.54L402.48 372.56L318.66 383.54L318.54 382.52" stroke="none" fill="#FF0000" fill-rule="nonzero" /></g></g><g clip-path="url(#12)"><g clip-path="url(#13)"><path id="487" transform="matrix(1 0 0 -1 0 842)" d="M115.56 214.94L193.98 214.94L193.98 229.34L115.56 229.34z" stroke="none" fill="#FFFFFF" fill-rule="nonzero" /></g></g><g clip-path="url(#14)"><g clip-path="url(#15)"><g clip-path="url(#16)"><g transform="matrix(0.7265346 0 0 0.7263158 115.98 613.14)"><g transform="matrix(1 0 0 1 0 0)"><image x="0" y="0" xlink:href="img_09.png" width="101" height="19" /></g></g></g></g></g><path id="489" transform="matrix(1 0 0 -1 0 842)" d="M233.94 233.36L548.28 233.36L548.28 199.34L233.94 199.34" stroke="none" fill="#ECF5FC" fill-rule="nonzero" /></g></g></svg>