<svg xmlns="http://www.w3.org/2000/svg" xmlns:xlink="http://www.w3.org/1999/xlink" id="body_36" preserveAspectRatio="xMinYMin meet" viewBox="0 0 793 1123"><defs><clipPath id="1"><path id="" clip-rule="evenodd" transform="matrix(1 0 0 1 0 0)" d="M0 842L0 0L0 0L595 0L595 0L595 842L595 842L0 842z" /></clipPath><clipPath id="2"><path id="" clip-rule="evenodd" transform="matrix(1 0 0 1 0 0)" d="M249.96 330.96L452.46 330.96L452.46 330.96L452.46 562.86L452.46 562.86L249.96 562.86z" /></clipPath><clipPath id="3"><path id="" clip-rule="evenodd" transform="matrix(1 0 0 1 0 0)" d="M215.94 329.94L453.48 329.94L453.48 329.94L453.48 581.58L453.48 581.58L215.94 581.58z" /></clipPath><clipPath id="4"><path id="" clip-rule="evenodd" transform="matrix(1 0 0 1 0 0)" d="M0 0.02001953L595.2 0.02001953L595.2 0.02001953L595.2 842L595.2 842L0 842z" /></clipPath><clipPath id="5"><path id="" clip-rule="evenodd" transform="matrix(1 0 0 1 0 0)" d="M215.94 329.94L453.48 329.94L453.48 329.94L453.48 581.58L453.48 581.58L215.94 581.58z" /></clipPath><clipPath id="6"><path id="" clip-rule="evenodd" transform="matrix(1 0 0 1 0 0)" d="M0 0.02001953L595.2 0.02001953L595.2 0.02001953L595.2 842L595.2 842L0 842z" /></clipPath></defs><g transform="matrix(1.333333 0 0 1.333333 0 0)"><g clip-path="url(#1)"><g clip-path="url(#2)"><g clip-path="url(#3)"><g clip-path="url(#4)"><g transform="matrix(0.4798578 0 0 0.4791322 249.96 330.96)"><g transform="matrix(1 0 0 1 0 0)"><image x="0" y="0" xlink:href="img_67.png" width="422" height="484" /></g></g></g></g></g><g clip-path="url(#5)"><g clip-path="url(#6)"><path id="670" transform="matrix(1 0 0 -1 0 842)" d="M359.88 274.76L360.9 274.76L360.9 275.24L359.88 275.24z" stroke="none" fill="#000000" fill-rule="nonzero" /><path id="671" transform="matrix(1 0 0 -1 0 842)" d="M360.66 327.62L361.68 327.62L361.68 328.1L360.66 328.1z" stroke="none" fill="#000000" fill-rule="nonzero" /><path id="672" transform="matrix(1 0 0 -1 0 842)" d="M359.88 275.24L360.9 275.24L361.68 327.62L360.66 327.62" stroke="none" fill="#000000" fill-rule="nonzero" /><path id="677" transform="matrix(1 0 0 -1 0 842)" d="M238.26 469.22L238.74 469.22L238.74 470.24L238.26 470.24z" stroke="none" fill="#000000" fill-rule="nonzero" /><path id="678" transform="matrix(1 0 0 -1 0 842)" d="M238.74 469.22L340.62 469.22L340.62 470.24L238.74 470.24z" stroke="none" fill="#000000" fill-rule="nonzero" /><path id="682" transform="matrix(1 0 0 -1 0 842)" d="M238.26 397.22L238.74 397.22L238.74 398.24L238.26 398.24z" stroke="none" fill="#000000" fill-rule="nonzero" /><path id="683" transform="matrix(1 0 0 -1 0 842)" d="M322.14 398.3L322.62 398.3L322.62 399.32L322.14 399.32z" stroke="none" fill="#000000" fill-rule="nonzero" /><path id="684" transform="matrix(1 0 0 -1 0 842)" d="M238.74 398.24L238.74 397.22L322.14 398.3L322.14 399.32" stroke="none" fill="#000000" fill-rule="nonzero" /></g></g></g></g></svg>