<svg xmlns="http://www.w3.org/2000/svg" xmlns:xlink="http://www.w3.org/1999/xlink" id="body_21" preserveAspectRatio="xMinYMin meet" viewBox="0 0 793 1123"><defs><clipPath id="1"><path id="" clip-rule="evenodd" transform="matrix(1 0 0 1 0 0)" d="M0 842L0 0L0 0L595 0L595 0L595 842L595 842L0 842z" /></clipPath><clipPath id="2"><path id="" clip-rule="evenodd" transform="matrix(1 0 0 1 0 0)" d="M251.64 77.03998L433.44 77.03998L433.44 77.03998L433.44 265.2L433.44 265.2L251.64 265.2z" /></clipPath><clipPath id="3"><path id="" clip-rule="evenodd" transform="matrix(1 0 0 1 0 0)" d="M224.94 76.02002L461.58 76.02002L461.58 76.02002L461.58 285.78L461.58 285.78L224.94 285.78z" /></clipPath><clipPath id="4"><path id="" clip-rule="evenodd" transform="matrix(1 0 0 1 0 0)" d="M0 0.02001953L595.2 0.02001953L595.2 0.02001953L595.2 842L595.2 842L0 842z" /></clipPath><clipPath id="5"><path id="" clip-rule="evenodd" transform="matrix(1 0 0 1 0 0)" d="M224.94 76.02002L461.58 76.02002L461.58 76.02002L461.58 285.78L461.58 285.78L224.94 285.78z" /></clipPath><clipPath id="6"><path id="" clip-rule="evenodd" transform="matrix(1 0 0 1 0 0)" d="M0 0.02001953L595.2 0.02001953L595.2 0.02001953L595.2 842L595.2 842L0 842z" /></clipPath></defs><g transform="matrix(1.333333 0 0 1.333333 0 0)"><g clip-path="url(#1)"><g clip-path="url(#2)"><g clip-path="url(#3)"><g clip-path="url(#4)"><g transform="matrix(0.48 0 0 0.48 251.64 77.04004)"><g transform="matrix(1 0 0 1 0 0)"><image x="0" y="0" xlink:href="img_39.png" width="379" height="392" /></g></g></g></g></g><g clip-path="url(#5)"><g clip-path="url(#6)"><path id="754" transform="matrix(1 0 0 -1 0 842)" d="M290.64 650.12L291.12 650.12L291.12 651.14L290.64 651.14z" stroke="none" fill="#000000" fill-rule="nonzero" /><path id="755" transform="matrix(1 0 0 -1 0 842)" d="M233.46 650.84L233.94 650.84L233.94 651.86L233.46 651.86z" stroke="none" fill="#000000" fill-rule="nonzero" /><path id="756" transform="matrix(1 0 0 -1 0 842)" d="M290.64 650.12L290.64 651.14L233.94 651.86L233.94 650.84" stroke="none" fill="#000000" fill-rule="nonzero" /><path id="759" transform="matrix(1 0 0 -1 0 842)" d="M292.74 599.12L293.22 599.12L293.22 600.14L292.74 600.14z" stroke="none" fill="#000000" fill-rule="nonzero" /><path id="760" transform="matrix(1 0 0 -1 0 842)" d="M235.56 599.84L236.04 599.84L236.04 600.86L235.56 600.86z" stroke="none" fill="#000000" fill-rule="nonzero" /><path id="761" transform="matrix(1 0 0 -1 0 842)" d="M292.74 599.12L292.74 600.14L236.04 600.86L236.04 599.84" stroke="none" fill="#000000" fill-rule="nonzero" /><path id="762" transform="matrix(1 0 0 -1 0 842)" d="M441.36 650.48L441.84 650.48L441.84 651.5L441.36 651.5z" stroke="none" fill="#000000" fill-rule="nonzero" /><path id="763" transform="matrix(1 0 0 -1 0 842)" d="M398.64 650.48L441.36 650.48L441.36 651.5L398.64 651.5z" stroke="none" fill="#000000" fill-rule="nonzero" /><path id="765" transform="matrix(1 0 0 -1 0 842)" d="M444 599.66L444.48 599.66L444.48 600.68L444 600.68z" stroke="none" fill="#000000" fill-rule="nonzero" /><path id="766" transform="matrix(1 0 0 -1 0 842)" d="M398.4 599.24L398.88 599.24L398.88 600.26L398.4 600.26z" stroke="none" fill="#000000" fill-rule="nonzero" /><path id="767" transform="matrix(1 0 0 -1 0 842)" d="M444 599.66L444 600.68L398.88 600.2599L398.88 599.24" stroke="none" fill="#000000" fill-rule="nonzero" /><path id="770" transform="matrix(1 0 0 -1 0 842)" d="M345.6 600.2L346.62 600.2L346.62 600.68L345.6 600.68z" stroke="none" fill="#000000" fill-rule="nonzero" /><path id="771" transform="matrix(1 0 0 -1 0 842)" d="M345.24 571.46L346.26 571.46L346.26 571.94L345.24 571.94z" stroke="none" fill="#000000" fill-rule="nonzero" /><path id="772" transform="matrix(1 0 0 -1 0 842)" d="M346.62 600.2L345.6 600.2L345.24 571.94L346.26 571.94" stroke="none" fill="#000000" fill-rule="nonzero" /><path id="774" transform="matrix(1 0 0 -1 0 842)" d="M344.4 650.36L343.98 650.12L344.46 649.22L344.88 649.46" stroke="none" fill="#000000" fill-rule="nonzero" /><path id="775" transform="matrix(1 0 0 -1 0 842)" d="M344.4 650.36L344.88 649.46L396.66 678.98L396.42 679.94L396.3 679.94L396.18 679.88" stroke="none" fill="#000000" fill-rule="nonzero" /><path id="776" transform="matrix(1 0 0 -1 0 842)" d="M396.42 678.92L442.74 678.92L442.74 679.94L396.42 679.94z" stroke="none" fill="#000000" fill-rule="nonzero" /><path id="777" transform="matrix(1 0 0 -1 0 842)" d="M371.34 694.52L370.98 694.22L371.64 693.44L372 693.74" stroke="none" fill="#000000" fill-rule="nonzero" /><path id="778" transform="matrix(1 0 0 -1 0 842)" d="M371.34 694.52L372 693.74L411.72 729.56L411.36 730.46L411.18 730.46L411.06 730.34" stroke="none" fill="#000000" fill-rule="nonzero" /><path id="779" transform="matrix(1 0 0 -1 0 842)" d="M411.36 729.44L444.24 729.44L444.24 730.46L411.36 730.46z" stroke="none" fill="#000000" fill-rule="nonzero" /><path id="780" transform="matrix(1 0 0 -1 0 842)" d="M320.58 695.48L320.94 695.18L321.6 695.96L321.24 696.26" stroke="none" fill="#000000" fill-rule="nonzero" /><path id="781" transform="matrix(1 0 0 -1 0 842)" d="M320.58 695.48L321.24 696.26L280.2 729.44L279.84 729.56L279.54 728.66" stroke="none" fill="#000000" fill-rule="nonzero" /><path id="782" transform="matrix(1 0 0 -1 0 842)" d="M235.62 729.44L236.1 729.44L236.1 730.46L235.62 730.46z" stroke="none" fill="#000000" fill-rule="nonzero" /><path id="783" transform="matrix(1 0 0 -1 0 842)" d="M279.84 728.54L279.84 729.56L236.1 730.46L236.1 729.44" stroke="none" fill="#000000" fill-rule="nonzero" /></g></g></g></g></svg>