<svg xmlns="http://www.w3.org/2000/svg" xmlns:xlink="http://www.w3.org/1999/xlink" id="body_235" preserveAspectRatio="xMinYMin meet" viewBox="0 0 793 1123"><defs><clipPath id="1"><path id="" clip-rule="evenodd" transform="matrix(1 0 0 1 0 0)" d="M0 842L0 0L0 0L595 0L595 0L595 842L595 842L0 842z" /></clipPath><clipPath id="2"><path id="" clip-rule="evenodd" transform="matrix(1 0 0 1 0 0)" d="M225.96 442.98L558.84 442.98L558.84 442.98L558.84 708.1801L558.84 708.1801L225.96 708.1801z" /></clipPath><clipPath id="3"><path id="" clip-rule="evenodd" transform="matrix(1 0 0 1 0 0)" d="M224.94 441.96L559.86 441.96L559.86 441.96L559.86 709.2L559.86 709.2L224.94 709.2z" /></clipPath><clipPath id="4"><path id="" clip-rule="evenodd" transform="matrix(1 0 0 1 0 0)" d="M0 0.02001953L595.2 0.02001953L595.2 0.02001953L595.2 842L595.2 842L0 842z" /></clipPath></defs><g transform="matrix(1.333333 0 0 1.333333 0 0)"><g clip-path="url(#1)"><path id="382" transform="matrix(1 0 0 -1 0 842)" d="M242.94 731.96L558 731.96L558 698L242.94 698" stroke="none" fill="#ECF5FC" fill-rule="nonzero" /><path id="411" transform="matrix(1 0 0 -1 0 842)" d="M242.94 581.96L558 581.96L558 548L242.94 548" stroke="none" fill="#ECF5FC" fill-rule="nonzero" /><g clip-path="url(#2)"><g clip-path="url(#3)"><g clip-path="url(#4)"><g transform="matrix(0.4796542 0 0 0.479566 225.96 442.98)"><g transform="matrix(1 0 0 1 0 0)"><image x="0" y="0" xlink:href="img_655.png" width="694" height="553" /></g></g></g></g></g></g></g></svg>