<svg xmlns="http://www.w3.org/2000/svg" xmlns:xlink="http://www.w3.org/1999/xlink" id="body_210" preserveAspectRatio="xMinYMin meet" viewBox="0 0 793 1123"><defs><clipPath id="1"><path id="" clip-rule="evenodd" transform="matrix(1 0 0 1 0 0)" d="M0 842L0 0L0 0L595 0L595 0L595 842L595 842L0 842z" /></clipPath><clipPath id="2"><path id="" clip-rule="evenodd" transform="matrix(1 0 0 1 0 0)" d="M226.44 77.03998L384.06 77.03998L384.06 77.03998L384.06 212.04L384.06 212.04L226.44 212.04z" /></clipPath><clipPath id="3"><path id="" clip-rule="evenodd" transform="matrix(1 0 0 1 0 0)" d="M224.94 76.02002L554.82 76.02002L554.82 76.02002L554.82 226.02L554.82 226.02L224.94 226.02z" /></clipPath><clipPath id="4"><path id="" clip-rule="evenodd" transform="matrix(1 0 0 1 0 0)" d="M0 0.02001953L595.2 0.02001953L595.2 0.02001953L595.2 842L595.2 842L0 842z" /></clipPath><clipPath id="5"><path id="" clip-rule="evenodd" transform="matrix(1 0 0 1 0 0)" d="M398.94 108.12L553.86 108.12L553.86 108.12L553.86 212.04L553.86 212.04L398.94 212.04z" /></clipPath><clipPath id="6"><path id="" clip-rule="evenodd" transform="matrix(1 0 0 1 0 0)" d="M224.94 76.02002L554.82 76.02002L554.82 76.02002L554.82 226.02L554.82 226.02L224.94 226.02z" /></clipPath><clipPath id="7"><path id="" clip-rule="evenodd" transform="matrix(1 0 0 1 0 0)" d="M0 0.02001953L595.2 0.02001953L595.2 0.02001953L595.2 842L595.2 842L0 842z" /></clipPath><clipPath id="8"><path id="" clip-rule="evenodd" transform="matrix(1 0 0 1 0 0)" d="M224.94 76.02002L554.82 76.02002L554.82 76.02002L554.82 226.02L554.82 226.02L224.94 226.02z" /></clipPath><clipPath id="9"><path id="" clip-rule="evenodd" transform="matrix(1 0 0 1 0 0)" d="M0 0.02001953L595.2 0.02001953L595.2 0.02001953L595.2 842L595.2 842L0 842z" /></clipPath><clipPath id="10"><path id="" clip-rule="evenodd" transform="matrix(1 0 0 1 0 0)" d="M225.96 413.94L524.04 413.94L524.04 413.94L524.04 569.22L524.04 569.22L225.96 569.22z" /></clipPath><clipPath id="11"><path id="" clip-rule="evenodd" transform="matrix(1 0 0 1 0 0)" d="M224.94 412.98L525.06 412.98L525.06 412.98L525.06 570.24L525.06 570.24L224.94 570.24z" /></clipPath><clipPath id="12"><path id="" clip-rule="evenodd" transform="matrix(1 0 0 1 0 0)" d="M0 0.02001953L595.2 0.02001953L595.2 0.02001953L595.2 842L595.2 842L0 842z" /></clipPath><clipPath id="13"><path id="" clip-rule="evenodd" transform="matrix(1 0 0 1 0 0)" d="M224.94 412.98L525.06 412.98L525.06 412.98L525.06 570.24L525.06 570.24L224.94 570.24z" /></clipPath><clipPath id="14"><path id="" clip-rule="evenodd" transform="matrix(1 0 0 1 0 0)" d="M0 0.02001953L595.2 0.02001953L595.2 0.02001953L595.2 842L595.2 842L0 842z" /></clipPath><clipPath id="15"><path id="" clip-rule="evenodd" transform="matrix(1 0 0 1 0 0)" d="M124.56 723.18L202.98 723.18L202.98 723.18L202.98 737.58L202.98 737.58L124.56 737.58z" /></clipPath><clipPath id="16"><path id="" clip-rule="evenodd" transform="matrix(1 0 0 1 0 0)" d="M0 0.02001953L595.2 0.02001953L595.2 0.02001953L595.2 842L595.2 842L0 842z" /></clipPath><clipPath id="17"><path id="" clip-rule="evenodd" transform="matrix(1 0 0 1 0 0)" d="M124.98 723.66L198.36 723.66L198.36 723.66L198.36 737.46L198.36 737.46L124.98 737.46z" /></clipPath><clipPath id="18"><path id="" clip-rule="evenodd" transform="matrix(1 0 0 1 0 0)" d="M124.56 723.18L202.98 723.18L202.98 723.18L202.98 737.58L202.98 737.58L124.56 737.58z" /></clipPath><clipPath id="19"><path id="" clip-rule="evenodd" transform="matrix(1 0 0 1 0 0)" d="M0 0.02001953L595.2 0.02001953L595.2 0.02001953L595.2 842L595.2 842L0 842z" /></clipPath></defs><g transform="matrix(1.333333 0 0 1.333333 0 0)"><g clip-path="url(#1)"><path id="291" transform="matrix(1 0 0 -1 0 842)" d="M242.94 521L558 521L558 445.04L242.94 445.04" stroke="none" fill="#ECF5FC" fill-rule="nonzero" /><g clip-path="url(#2)"><g clip-path="url(#3)"><g clip-path="url(#4)"><g transform="matrix(0.4791368 0 0 0.4787234 226.44 77.03998)"><g transform="matrix(1 0 0 1 0 0)"><image x="0" y="0" xlink:href="img_556.png" width="329" height="282" /></g></g></g></g></g><g clip-path="url(#5)"><g clip-path="url(#6)"><g clip-path="url(#7)"><g transform="matrix(0.4796687 0 0 0.478894 398.94 108.12)"><g transform="matrix(1 0 0 1 0 0)"><image x="0" y="0" xlink:href="img_557.png" width="323" height="217" /></g></g></g></g></g><g clip-path="url(#8)"><g clip-path="url(#9)"><path id="427" transform="matrix(1 0 0 -1 0 842)" d="M486 713.18L487.02 713.18L487.02 742.34L486 742.34z" stroke="none" fill="#000000" fill-rule="nonzero" /><path id="432" transform="matrix(1 0 0 -1 0 842)" d="M252.06 627.26L253.08 627.26L253.08 627.74L252.06 627.74z" stroke="none" fill="#000000" fill-rule="nonzero" /><path id="433" transform="matrix(1 0 0 -1 0 842)" d="M252.66 676.94L253.68 676.94L253.68 677.42L252.66 677.42z" stroke="none" fill="#000000" fill-rule="nonzero" /><path id="434" transform="matrix(1 0 0 -1 0 842)" d="M252.06 627.74L253.08 627.74L253.68 676.94L252.66 676.94" stroke="none" fill="#000000" fill-rule="nonzero" /></g></g><g clip-path="url(#10)"><g clip-path="url(#11)"><g clip-path="url(#12)"><g transform="matrix(0.48 0 0 0.4792593 225.96 413.94)"><g transform="matrix(1 0 0 1 0 0)"><image x="0" y="0" xlink:href="img_558.png" width="621" height="324" /></g></g></g></g></g><g clip-path="url(#13)"><g clip-path="url(#14)"><path id="436" transform="matrix(1 0 0 -1 0 842)" d="M385.68 313.52L385.68 313.7L385.68 313.7L385.62 313.94L385.62 313.94L385.5 314.06L385.5 314.06L385.38 314.24L385.38 314.24L385.26 314.36L385.26 314.36L384.9 314.48L384.9 314.48L384.66 314.54L384.66 314.54L384.12 314.36L384.12 314.36L383.94 314.24L383.94 314.24L383.82 314.06L383.82 314.06L383.76 313.94L383.76 313.94L383.7 313.7L383.7 313.7L383.7 313.34L383.7 313.34L383.82 312.98L383.82 312.98L383.94 312.8L383.94 312.8L384.12 312.68L384.12 312.68L384.66 312.5L384.66 312.5L384.9 312.56L384.9 312.56L385.26 312.68L385.26 312.68L385.38 312.8L385.38 312.8L385.62 313.16L385.62 313.16L385.68 313.34L385.68 313.34L385.68 313.52" stroke="none" fill="#000000" fill-rule="evenodd" /><path id="437" transform="matrix(1 0 0 -1 0 842)" d="M384.72 313.52L384.72 318.08L385.5 317.6L391.74 313.94L392.52 313.52L391.68 313.04L385.44 309.44L384.72 309.02L384.72 309.92L384.96 310.34L391.2 313.94L391.68 313.04L391.2 313.04L384.96 316.7L385.5 317.6L385.74 317.18L385.74 313.52" stroke="none" fill="#000000" fill-rule="nonzero" /><path id="438" transform="matrix(1 0 0 -1 0 842)" d="M384.72 309.92L385.74 309.92L385.74 313.52L384.72 313.52z" stroke="none" fill="#000000" fill-rule="nonzero" /><path id="439" transform="matrix(1 0 0 -1 0 842)" d="M385.2 313.52L385.2 317.18L385.2 317.18L391.44 313.52L391.44 313.52L385.2 309.92" stroke="none" fill="#000000" fill-rule="evenodd" /><path id="440" transform="matrix(1 0 0 -1 0 842)" d="M357 312.5L385.62 312.5L385.62 314.48L357 314.48z" stroke="none" fill="#000000" fill-rule="nonzero" /><path id="441" transform="matrix(1 0 0 -1 0 842)" d="M418.44 408.8L516.72 408.8L516.72 383.54L418.44 383.54" stroke="none" fill="#FFFFFF" fill-rule="nonzero" /><path id="459" transform="matrix(1 0 0 -1 0 842)" d="M370.68 323.48L370.32 323.12L371.04 322.4L371.4 322.76" stroke="none" fill="#000000" fill-rule="nonzero" /><path id="460" transform="matrix(1 0 0 -1 0 842)" d="M430.56 383.3L430.92 383.66L431.64 382.94L431.28 382.58" stroke="none" fill="#000000" fill-rule="nonzero" /><path id="461" transform="matrix(1 0 0 -1 0 842)" d="M370.68 323.48L371.4 322.76L431.28 382.58L430.56 383.3" stroke="none" fill="#000000" fill-rule="nonzero" /></g></g><g clip-path="url(#15)"><g clip-path="url(#16)"><path id="462" transform="matrix(1 0 0 -1 0 842)" d="M124.56 104.42L202.98 104.42L202.98 118.82L124.56 118.82z" stroke="none" fill="#FFFFFF" fill-rule="nonzero" /></g></g><g clip-path="url(#17)"><g clip-path="url(#18)"><g clip-path="url(#19)"><g transform="matrix(0.7265346 0 0 0.7263158 124.98 723.66)"><g transform="matrix(1 0 0 1 0 0)"><image x="0" y="0" xlink:href="img_09.png" width="101" height="19" /></g></g></g></g></g><path id="464" transform="matrix(1 0 0 -1 0 842)" d="M242.94 122.84L558 122.84L558 74.84L242.94 74.84" stroke="none" fill="#ECF5FC" fill-rule="nonzero" /></g></g></svg>