<svg xmlns="http://www.w3.org/2000/svg" xmlns:xlink="http://www.w3.org/1999/xlink" id="body_299" preserveAspectRatio="xMinYMin meet" viewBox="0 0 793 1123"><defs><clipPath id="1"><path id="" clip-rule="evenodd" transform="matrix(1 0 0 1 0 0)" d="M0 842L0 0L0 0L595 0L595 0L595 842L595 842L0 842z" /></clipPath><clipPath id="2"><path id="" clip-rule="evenodd" transform="matrix(1 0 0 1 0 0)" d="M-0.06 0L595.26 0L595.26 0L595.26 841.98L595.26 841.98L-0.06 841.98z" /></clipPath><clipPath id="3"><path id="" clip-rule="evenodd" transform="matrix(1 0 0 1 0 0)" d="M0 0.02001953L595.2 0.02001953L595.2 0.02001953L595.2 842L595.2 842L0 842z" /></clipPath><clipPath id="4"><path id="" clip-rule="evenodd" transform="matrix(1 0 0 1 0 0)" d="M19.829 48.414L156.328 48.414L156.328 48.414L156.328 17.263L156.328 17.263L19.829 17.263z" /></clipPath><clipPath id="5"><path id="" clip-rule="evenodd" transform="matrix(1 0 0 1 0 0)" d="M-0.06 0L595.26 0L595.26 0L595.26 841.98L595.26 841.98L-0.06 841.98z" /></clipPath><clipPath id="6"><path id="" clip-rule="evenodd" transform="matrix(1 0 0 1 0 0)" d="M0 0.02001953L595.2 0.02001953L595.2 0.02001953L595.2 842L595.2 842L0 842z" /></clipPath></defs><g transform="matrix(1.333333 0 0 1.333333 0 0)"><g clip-path="url(#1)"><g clip-path="url(#2)"><g clip-path="url(#3)"></g></g><g clip-path="url(#4)"><g transform="matrix(0.3243991 0 0 0.325125 19.794 17.23401)"><g transform="matrix(1 0 0 1 0 0)"><image x="0" y="0" xlink:href="img_905.png" width="421" height="96" /></g></g></g><g clip-path="url(#5)"><g clip-path="url(#6)"><path id="117" transform="matrix(1 0 0 -1 0 842)" d="M19.729 772.985L274.979 772.985L274.979 773.705L19.729 773.705z" stroke="none" fill="#000000" fill-rule="nonzero" /><path id="405" transform="matrix(1 0 0 -1 0 842)" d="M21.169 715.143L21.649 715.143L21.649 715.624L21.169 715.624z" stroke="none" fill="#000000" fill-rule="nonzero" /><path id="406" transform="matrix(1 0 0 -1 0 842)" d="M21.169 715.143L577.151 715.143L577.151 715.624L21.169 715.624z" stroke="none" fill="#000000" fill-rule="nonzero" /><path id="407" transform="matrix(1 0 0 -1 0 842)" d="M576.671 715.143L577.151 715.143L577.151 715.624L576.671 715.624z" stroke="none" fill="#000000" fill-rule="nonzero" /><path id="408" transform="matrix(1 0 0 -1 0 842)" d="M21.169 695.702L21.649 695.702L21.649 715.143L21.169 715.143z" stroke="none" fill="#000000" fill-rule="nonzero" /><path id="409" transform="matrix(1 0 0 -1 0 842)" d="M36.769 695.702L37.25 695.702L37.25 715.143L36.769 715.143z" stroke="none" fill="#000000" fill-rule="nonzero" /><path id="410" transform="matrix(1 0 0 -1 0 842)" d="M136.013 695.702L136.493 695.702L136.493 715.143L136.013 715.143z" stroke="none" fill="#000000" fill-rule="nonzero" /><path id="411" transform="matrix(1 0 0 -1 0 842)" d="M270.659 695.702L271.139 695.702L271.139 715.143L270.659 715.143z" stroke="none" fill="#000000" fill-rule="nonzero" /><path id="412" transform="matrix(1 0 0 -1 0 842)" d="M576.671 695.702L577.151 695.702L577.151 715.143L576.671 715.143z" stroke="none" fill="#000000" fill-rule="nonzero" /><path id="415" transform="matrix(1 0 0 -1 0 842)" d="M21.169 695.222L577.151 695.222L577.151 695.702L21.169 695.702z" stroke="none" fill="#000000" fill-rule="nonzero" /><path id="416" transform="matrix(1 0 0 -1 0 842)" d="M21.169 675.901L21.649 675.901L21.649 695.222L21.169 695.222z" stroke="none" fill="#000000" fill-rule="nonzero" /><path id="417" transform="matrix(1 0 0 -1 0 842)" d="M36.769 675.901L37.25 675.901L37.25 695.222L36.769 695.222z" stroke="none" fill="#000000" fill-rule="nonzero" /><path id="418" transform="matrix(1 0 0 -1 0 842)" d="M136.013 675.901L136.493 675.901L136.493 695.222L136.013 695.222z" stroke="none" fill="#000000" fill-rule="nonzero" /><path id="419" transform="matrix(1 0 0 -1 0 842)" d="M270.659 675.901L271.139 675.901L271.139 695.222L270.659 695.222z" stroke="none" fill="#000000" fill-rule="nonzero" /><path id="420" transform="matrix(1 0 0 -1 0 842)" d="M576.671 675.901L577.151 675.901L577.151 695.222L576.671 695.222z" stroke="none" fill="#000000" fill-rule="nonzero" /><path id="423" transform="matrix(1 0 0 -1 0 842)" d="M21.169 675.421L577.151 675.421L577.151 675.901L21.169 675.901z" stroke="none" fill="#000000" fill-rule="nonzero" /><path id="424" transform="matrix(1 0 0 -1 0 842)" d="M21.169 655.98L21.649 655.98L21.649 675.421L21.169 675.421z" stroke="none" fill="#000000" fill-rule="nonzero" /><path id="425" transform="matrix(1 0 0 -1 0 842)" d="M36.769 655.98L37.25 655.98L37.25 675.421L36.769 675.421z" stroke="none" fill="#000000" fill-rule="nonzero" /><path id="426" transform="matrix(1 0 0 -1 0 842)" d="M136.013 655.98L136.493 655.98L136.493 675.421L136.013 675.421z" stroke="none" fill="#000000" fill-rule="nonzero" /><path id="427" transform="matrix(1 0 0 -1 0 842)" d="M270.659 655.98L271.139 655.98L271.139 675.421L270.659 675.421z" stroke="none" fill="#000000" fill-rule="nonzero" /><path id="428" transform="matrix(1 0 0 -1 0 842)" d="M576.671 655.98L577.151 655.98L577.151 675.421L576.671 675.421z" stroke="none" fill="#000000" fill-rule="nonzero" /><path id="431" transform="matrix(1 0 0 -1 0 842)" d="M21.169 655.5L577.151 655.5L577.151 655.98L21.169 655.98z" stroke="none" fill="#000000" fill-rule="nonzero" /><path id="432" transform="matrix(1 0 0 -1 0 842)" d="M21.169 636.18L21.649 636.18L21.649 655.501L21.169 655.501z" stroke="none" fill="#000000" fill-rule="nonzero" /><path id="433" transform="matrix(1 0 0 -1 0 842)" d="M36.769 636.18L37.25 636.18L37.25 655.501L36.769 655.501z" stroke="none" fill="#000000" fill-rule="nonzero" /><path id="434" transform="matrix(1 0 0 -1 0 842)" d="M136.013 636.18L136.493 636.18L136.493 655.501L136.013 655.501z" stroke="none" fill="#000000" fill-rule="nonzero" /><path id="435" transform="matrix(1 0 0 -1 0 842)" d="M270.659 636.18L271.139 636.18L271.139 655.501L270.659 655.501z" stroke="none" fill="#000000" fill-rule="nonzero" /><path id="436" transform="matrix(1 0 0 -1 0 842)" d="M576.671 636.18L577.151 636.18L577.151 655.501L576.671 655.501z" stroke="none" fill="#000000" fill-rule="nonzero" /><path id="439" transform="matrix(1 0 0 -1 0 842)" d="M21.169 635.699L577.151 635.699L577.151 636.179L21.169 636.179z" stroke="none" fill="#000000" fill-rule="nonzero" /><path id="440" transform="matrix(1 0 0 -1 0 842)" d="M21.169 616.259L21.649 616.259L21.649 635.7L21.169 635.7z" stroke="none" fill="#000000" fill-rule="nonzero" /><path id="441" transform="matrix(1 0 0 -1 0 842)" d="M36.769 616.259L37.25 616.259L37.25 635.7L36.769 635.7z" stroke="none" fill="#000000" fill-rule="nonzero" /><path id="442" transform="matrix(1 0 0 -1 0 842)" d="M136.013 616.259L136.493 616.259L136.493 635.7L136.013 635.7z" stroke="none" fill="#000000" fill-rule="nonzero" /><path id="443" transform="matrix(1 0 0 -1 0 842)" d="M270.659 616.259L271.139 616.259L271.139 635.7L270.659 635.7z" stroke="none" fill="#000000" fill-rule="nonzero" /><path id="444" transform="matrix(1 0 0 -1 0 842)" d="M576.671 616.259L577.151 616.259L577.151 635.7L576.671 635.7z" stroke="none" fill="#000000" fill-rule="nonzero" /><path id="447" transform="matrix(1 0 0 -1 0 842)" d="M21.169 615.779L577.151 615.779L577.151 616.26L21.169 616.26z" stroke="none" fill="#000000" fill-rule="nonzero" /><path id="448" transform="matrix(1 0 0 -1 0 842)" d="M21.169 596.458L21.649 596.458L21.649 615.778L21.169 615.778z" stroke="none" fill="#000000" fill-rule="nonzero" /><path id="449" transform="matrix(1 0 0 -1 0 842)" d="M36.769 596.458L37.25 596.458L37.25 615.778L36.769 615.778z" stroke="none" fill="#000000" fill-rule="nonzero" /><path id="450" transform="matrix(1 0 0 -1 0 842)" d="M136.013 596.458L136.493 596.458L136.493 615.778L136.013 615.778z" stroke="none" fill="#000000" fill-rule="nonzero" /><path id="451" transform="matrix(1 0 0 -1 0 842)" d="M270.659 596.458L271.139 596.458L271.139 615.778L270.659 615.778z" stroke="none" fill="#000000" fill-rule="nonzero" /><path id="452" transform="matrix(1 0 0 -1 0 842)" d="M576.671 596.458L577.151 596.458L577.151 615.778L576.671 615.778z" stroke="none" fill="#000000" fill-rule="nonzero" /><path id="455" transform="matrix(1 0 0 -1 0 842)" d="M21.169 595.978L577.151 595.978L577.151 596.459L21.169 596.459z" stroke="none" fill="#000000" fill-rule="nonzero" /><path id="456" transform="matrix(1 0 0 -1 0 842)" d="M21.169 576.057L21.649 576.057L21.649 595.978L21.169 595.978z" stroke="none" fill="#000000" fill-rule="nonzero" /><path id="457" transform="matrix(1 0 0 -1 0 842)" d="M21.169 576.057L36.77 576.057L36.77 576.537L21.169 576.537z" stroke="none" fill="#000000" fill-rule="nonzero" /><path id="458" transform="matrix(1 0 0 -1 0 842)" d="M36.769 576.057L37.25 576.057L37.25 595.978L36.769 595.978z" stroke="none" fill="#000000" fill-rule="nonzero" /><path id="459" transform="matrix(1 0 0 -1 0 842)" d="M37.249 576.057L136.013 576.057L136.013 576.537L37.249 576.537z" stroke="none" fill="#000000" fill-rule="nonzero" /><path id="460" transform="matrix(1 0 0 -1 0 842)" d="M136.013 576.057L136.493 576.057L136.493 595.978L136.013 595.978z" stroke="none" fill="#000000" fill-rule="nonzero" /><path id="461" transform="matrix(1 0 0 -1 0 842)" d="M136.493 576.057L270.658 576.057L270.658 576.537L136.493 576.537z" stroke="none" fill="#000000" fill-rule="nonzero" /><path id="462" transform="matrix(1 0 0 -1 0 842)" d="M270.659 576.057L271.139 576.057L271.139 595.978L270.659 595.978z" stroke="none" fill="#000000" fill-rule="nonzero" /><path id="463" transform="matrix(1 0 0 -1 0 842)" d="M271.139 576.057L576.671 576.057L576.671 576.537L271.139 576.537z" stroke="none" fill="#000000" fill-rule="nonzero" /><path id="464" transform="matrix(1 0 0 -1 0 842)" d="M576.671 576.057L577.151 576.057L577.151 595.978L576.671 595.978z" stroke="none" fill="#000000" fill-rule="nonzero" /><path id="465" transform="matrix(1 0 0 -1 0 842)" d="M576.671 576.057L577.151 576.057L577.151 576.537L576.671 576.537z" stroke="none" fill="#000000" fill-rule="nonzero" /><path id="466" transform="matrix(1 0 0 -1 0 842)" d="M18.289 564.656L576.792 564.656L576.792 565.376L18.289 565.376z" stroke="none" fill="#000000" fill-rule="nonzero" /><path id="494" transform="matrix(1 0 0 -1 0 842)" d="M19.729 542.215L153.174 542.215L153.174 542.935L19.729 542.935z" stroke="none" fill="#000000" fill-rule="nonzero" /><path id="657" transform="matrix(1 0 0 -1 0 842)" d="M348.302 530.095L359.462 530.095L359.462 530.095L359.462 518.935L359.462 518.935L348.302 518.935z" stroke="#000000" stroke-width="0.72" stroke-linecap="square" fill="none" /><path id="681" transform="matrix(1 0 0 -1 0 842)" d="M490.028 530.095L501.188 530.095L501.188 530.095L501.188 518.935L501.188 518.935L490.028 518.935z" stroke="#000000" stroke-width="0.72" stroke-linecap="square" fill="none" /><path id="686" transform="matrix(1 0 0 -1 0 842)" d="M348.302 510.654L359.462 510.654L359.462 510.654L359.462 499.494L359.462 499.494L348.302 499.494z" stroke="#000000" stroke-width="0.72" stroke-linecap="square" fill="none" /><path id="693" transform="matrix(1 0 0 -1 0 842)" d="M490.028 510.654L501.188 510.654L501.188 510.654L501.188 499.494L501.188 499.494L490.028 499.494z" stroke="#000000" stroke-width="0.72" stroke-linecap="square" fill="none" /><path id="2001" transform="matrix(1 0 0 -1 0 842)" d="M18.289 296.925L576.792 296.925L576.792 297.645L18.289 297.645z" stroke="none" fill="#000000" fill-rule="nonzero" /><path id="2054" transform="matrix(1 0 0 -1 0 842)" d="M19.729 274.484L295.02 274.484L295.02 275.204L19.729 275.204z" stroke="none" fill="#000000" fill-rule="nonzero" /><path id="2110" transform="matrix(1 0 0 -1 0 842)" d="M21.169 266.924L21.649 266.924L21.649 267.405L21.169 267.405z" stroke="none" fill="#000000" fill-rule="nonzero" /><path id="2111" transform="matrix(1 0 0 -1 0 842)" d="M21.169 266.924L581.593 266.924L581.593 267.405L21.169 267.405z" stroke="none" fill="#000000" fill-rule="nonzero" /><path id="2112" transform="matrix(1 0 0 -1 0 842)" d="M581.111 266.924L581.592 266.924L581.592 267.405L581.111 267.405z" stroke="none" fill="#000000" fill-rule="nonzero" /><path id="2113" transform="matrix(1 0 0 -1 0 842)" d="M21.169 247.603L21.649 247.603L21.649 266.923L21.169 266.923z" stroke="none" fill="#000000" fill-rule="nonzero" /><path id="2114" transform="matrix(1 0 0 -1 0 842)" d="M120.413 247.603L120.893 247.603L120.893 266.923L120.413 266.923z" stroke="none" fill="#000000" fill-rule="nonzero" /><path id="2115" transform="matrix(1 0 0 -1 0 842)" d="M219.657 247.603L220.138 247.603L220.138 266.923L219.657 266.923z" stroke="none" fill="#000000" fill-rule="nonzero" /><path id="2116" transform="matrix(1 0 0 -1 0 842)" d="M581.111 247.603L581.592 247.603L581.592 266.923L581.111 266.923z" stroke="none" fill="#000000" fill-rule="nonzero" /><path id="2129" transform="matrix(1 0 0 -1 0 842)" d="M21.169 247.123L581.593 247.123L581.593 247.604L21.169 247.604z" stroke="none" fill="#000000" fill-rule="nonzero" /><path id="2130" transform="matrix(1 0 0 -1 0 842)" d="M21.169 190.84L21.649 190.84L21.649 247.122L21.169 247.122z" stroke="none" fill="#000000" fill-rule="nonzero" /><path id="2131" transform="matrix(1 0 0 -1 0 842)" d="M120.413 190.84L120.893 190.84L120.893 247.122L120.413 247.122z" stroke="none" fill="#000000" fill-rule="nonzero" /><path id="2132" transform="matrix(1 0 0 -1 0 842)" d="M219.657 190.84L220.138 190.84L220.138 247.122L219.657 247.122z" stroke="none" fill="#000000" fill-rule="nonzero" /><path id="2133" transform="matrix(1 0 0 -1 0 842)" d="M581.111 190.84L581.592 190.84L581.592 247.122L581.111 247.122z" stroke="none" fill="#000000" fill-rule="nonzero" /><path id="2146" transform="matrix(1 0 0 -1 0 842)" d="M21.169 190.361L581.593 190.361L581.593 190.841L21.169 190.841z" stroke="none" fill="#000000" fill-rule="nonzero" /><path id="2147" transform="matrix(1 0 0 -1 0 842)" d="M21.169 133.718L21.649 133.718L21.649 190.36L21.169 190.36z" stroke="none" fill="#000000" fill-rule="nonzero" /><path id="2148" transform="matrix(1 0 0 -1 0 842)" d="M21.169 133.718L120.414 133.718L120.414 134.199L21.169 134.199z" stroke="none" fill="#000000" fill-rule="nonzero" /><path id="2149" transform="matrix(1 0 0 -1 0 842)" d="M120.413 133.718L120.893 133.718L120.893 190.36L120.413 190.36z" stroke="none" fill="#000000" fill-rule="nonzero" /><path id="2150" transform="matrix(1 0 0 -1 0 842)" d="M120.893 133.718L219.657 133.718L219.657 134.199L120.893 134.199z" stroke="none" fill="#000000" fill-rule="nonzero" /><path id="2151" transform="matrix(1 0 0 -1 0 842)" d="M219.657 133.718L220.138 133.718L220.138 190.36L219.657 190.36z" stroke="none" fill="#000000" fill-rule="nonzero" /><path id="2152" transform="matrix(1 0 0 -1 0 842)" d="M220.137 133.718L581.111 133.718L581.111 134.199L220.137 134.199z" stroke="none" fill="#000000" fill-rule="nonzero" /><path id="2153" transform="matrix(1 0 0 -1 0 842)" d="M581.111 133.718L581.592 133.718L581.592 190.36L581.111 190.36z" stroke="none" fill="#000000" fill-rule="nonzero" /><path id="2154" transform="matrix(1 0 0 -1 0 842)" d="M581.111 133.718L581.592 133.718L581.592 134.199L581.111 134.199z" stroke="none" fill="#000000" fill-rule="nonzero" /><path id="2155" transform="matrix(1 0 0 -1 0 842)" d="M18.289 122.198L576.792 122.198L576.792 122.918L18.289 122.918z" stroke="none" fill="#000000" fill-rule="nonzero" /><path id="2229" transform="matrix(1 0 0 -1 0 842)" d="M21.169 111.637L21.649 111.637L21.649 112.117L21.169 112.117z" stroke="none" fill="#000000" fill-rule="nonzero" /><path id="2230" transform="matrix(1 0 0 -1 0 842)" d="M21.169 111.637L581.593 111.637L581.593 112.117L21.169 112.117z" stroke="none" fill="#000000" fill-rule="nonzero" /><path id="2231" transform="matrix(1 0 0 -1 0 842)" d="M581.111 111.637L581.592 111.637L581.592 112.117L581.111 112.117z" stroke="none" fill="#000000" fill-rule="nonzero" /><path id="2232" transform="matrix(1 0 0 -1 0 842)" d="M21.169 92.316L21.649 92.316L21.649 111.637L21.169 111.637z" stroke="none" fill="#000000" fill-rule="nonzero" /><path id="2233" transform="matrix(1 0 0 -1 0 842)" d="M86.451 92.316L86.932 92.316L86.932 111.637L86.451 111.637z" stroke="none" fill="#000000" fill-rule="nonzero" /><path id="2234" transform="matrix(1 0 0 -1 0 842)" d="M263.579 92.316L264.06 92.316L264.06 111.637L263.579 111.637z" stroke="none" fill="#000000" fill-rule="nonzero" /><path id="2235" transform="matrix(1 0 0 -1 0 842)" d="M320.341 92.316L320.821 92.316L320.821 111.637L320.341 111.637z" stroke="none" fill="#000000" fill-rule="nonzero" /><path id="2236" transform="matrix(1 0 0 -1 0 842)" d="M447.906 92.316L448.387 92.316L448.387 111.637L447.906 111.637z" stroke="none" fill="#000000" fill-rule="nonzero" /><path id="2237" transform="matrix(1 0 0 -1 0 842)" d="M581.111 92.316L581.592 92.316L581.592 111.637L581.111 111.637z" stroke="none" fill="#000000" fill-rule="nonzero" /><path id="2257" transform="matrix(1 0 0 -1 0 842)" d="M21.169 91.836L581.593 91.836L581.593 92.316L21.169 92.316z" stroke="none" fill="#000000" fill-rule="nonzero" /><path id="2258" transform="matrix(1 0 0 -1 0 842)" d="M21.169 57.875L21.649 57.875L21.649 91.836L21.169 91.836z" stroke="none" fill="#000000" fill-rule="nonzero" /><path id="2259" transform="matrix(1 0 0 -1 0 842)" d="M21.169 57.875L86.452 57.875L86.452 58.355L21.169 58.355z" stroke="none" fill="#000000" fill-rule="nonzero" /><path id="2260" transform="matrix(1 0 0 -1 0 842)" d="M86.451 57.875L86.932 57.875L86.932 91.836L86.451 91.836z" stroke="none" fill="#000000" fill-rule="nonzero" /><path id="2261" transform="matrix(1 0 0 -1 0 842)" d="M86.931 57.875L263.577 57.875L263.577 58.355L86.931 58.355z" stroke="none" fill="#000000" fill-rule="nonzero" /><path id="2262" transform="matrix(1 0 0 -1 0 842)" d="M263.579 57.875L264.06 57.875L264.06 91.836L263.579 91.836z" stroke="none" fill="#000000" fill-rule="nonzero" /><path id="2263" transform="matrix(1 0 0 -1 0 842)" d="M264.059 57.875L320.341 57.875L320.341 58.355L264.059 58.355z" stroke="none" fill="#000000" fill-rule="nonzero" /><path id="2264" transform="matrix(1 0 0 -1 0 842)" d="M320.341 57.875L320.821 57.875L320.821 91.836L320.341 91.836z" stroke="none" fill="#000000" fill-rule="nonzero" /><path id="2265" transform="matrix(1 0 0 -1 0 842)" d="M320.821 57.875L447.906 57.875L447.906 58.355L320.821 58.355z" stroke="none" fill="#000000" fill-rule="nonzero" /><path id="2266" transform="matrix(1 0 0 -1 0 842)" d="M447.906 57.875L448.387 57.875L448.387 91.836L447.906 91.836z" stroke="none" fill="#000000" fill-rule="nonzero" /><path id="2267" transform="matrix(1 0 0 -1 0 842)" d="M448.386 57.875L581.11 57.875L581.11 58.355L448.386 58.355z" stroke="none" fill="#000000" fill-rule="nonzero" /><path id="2268" transform="matrix(1 0 0 -1 0 842)" d="M581.111 57.875L581.592 57.875L581.592 91.836L581.111 91.836z" stroke="none" fill="#000000" fill-rule="nonzero" /><path id="2269" transform="matrix(1 0 0 -1 0 842)" d="M581.111 57.875L581.592 57.875L581.592 58.355L581.111 58.355z" stroke="none" fill="#000000" fill-rule="nonzero" /></g></g></g></g></svg>