<svg xmlns="http://www.w3.org/2000/svg" xmlns:xlink="http://www.w3.org/1999/xlink" id="body_164" preserveAspectRatio="xMinYMin meet" viewBox="0 0 793 1123"><defs><clipPath id="1"><path id="" clip-rule="evenodd" transform="matrix(1 0 0 1 0 0)" d="M0 842L0 0L0 0L595 0L595 0L595 842L595 842L0 842z" /></clipPath><clipPath id="2"><path id="" clip-rule="evenodd" transform="matrix(1 0 0 1 0 0)" d="M115.56 195.96L193.98 195.96L193.98 195.96L193.98 210.42L193.98 210.42L115.56 210.42z" /></clipPath><clipPath id="3"><path id="" clip-rule="evenodd" transform="matrix(1 0 0 1 0 0)" d="M0 0.02001953L595.2 0.02001953L595.2 0.02001953L595.2 842L595.2 842L0 842z" /></clipPath><clipPath id="4"><path id="" clip-rule="evenodd" transform="matrix(1 0 0 1 0 0)" d="M115.98 196.5L189.36 196.5L189.36 196.5L189.36 210.3L189.36 210.3L115.98 210.3z" /></clipPath><clipPath id="5"><path id="" clip-rule="evenodd" transform="matrix(1 0 0 1 0 0)" d="M115.56 195.96L193.98 195.96L193.98 195.96L193.98 210.42L193.98 210.42L115.56 210.42z" /></clipPath><clipPath id="6"><path id="" clip-rule="evenodd" transform="matrix(1 0 0 1 0 0)" d="M0 0.02001953L595.2 0.02001953L595.2 0.02001953L595.2 842L595.2 842L0 842z" /></clipPath><clipPath id="7"><path id="" clip-rule="evenodd" transform="matrix(1 0 0 1 0 0)" d="M354.06 556.86L458.46 556.86L458.46 556.86L458.46 635.28L458.46 635.28L354.06 635.28z" /></clipPath><clipPath id="8"><path id="" clip-rule="evenodd" transform="matrix(1 0 0 1 0 0)" d="M353.04 555.9L459.48 555.9L459.48 555.9L459.48 636.24L459.48 636.24L353.04 636.24z" /></clipPath><clipPath id="9"><path id="" clip-rule="evenodd" transform="matrix(1 0 0 1 0 0)" d="M0 0.02001953L595.2 0.02001953L595.2 0.02001953L595.2 842L595.2 842L0 842z" /></clipPath><clipPath id="10"><path id="" clip-rule="evenodd" transform="matrix(1 0 0 1 0 0)" d="M354.06 647.64L459.66 647.64L459.66 647.64L459.66 706.74L459.66 706.74L354.06 706.74z" /></clipPath><clipPath id="11"><path id="" clip-rule="evenodd" transform="matrix(1 0 0 1 0 0)" d="M353.04 646.68L460.68 646.68L460.68 646.68L460.68 707.76L460.68 707.76L353.04 707.76z" /></clipPath><clipPath id="12"><path id="" clip-rule="evenodd" transform="matrix(1 0 0 1 0 0)" d="M0 0.02001953L595.2 0.02001953L595.2 0.02001953L595.2 842L595.2 842L0 842z" /></clipPath></defs><g transform="matrix(1.333333 0 0 1.333333 0 0)"><g clip-path="url(#1)"><g clip-path="url(#2)"><g clip-path="url(#3)"><path id="411" transform="matrix(1 0 0 -1 0 842)" d="M115.56 631.58L193.98 631.58L193.98 646.04L115.56 646.04z" stroke="none" fill="#FFFFFF" fill-rule="nonzero" /></g></g><g clip-path="url(#4)"><g clip-path="url(#5)"><g clip-path="url(#6)"><g transform="matrix(0.7265346 0 0 0.7263158 115.98 196.5)"><g transform="matrix(1 0 0 1 0 0)"><image x="0" y="0" xlink:href="img_09.png" width="101" height="19" /></g></g></g></g></g><path id="413" transform="matrix(1 0 0 -1 0 842)" d="M215.94 650L549 650L549 490.1L215.94 490.1" stroke="none" fill="#ECF5FC" fill-rule="nonzero" /><path id="607" transform="matrix(1 0 0 -1 0 842)" d="M215.94 374.12L549 374.12L549 354.14L215.94 354.14" stroke="none" fill="#ECF5FC" fill-rule="nonzero" /><g clip-path="url(#7)"><g clip-path="url(#8)"><g clip-path="url(#9)"><g transform="matrix(0.4788991 0 0 0.4781707 354.06 556.86)"><g transform="matrix(1 0 0 1 0 0)"><image x="0" y="0" xlink:href="img_446.png" width="218" height="164" /></g></g></g></g></g><g clip-path="url(#10)"><g clip-path="url(#11)"><g clip-path="url(#12)"><g transform="matrix(0.33 0 0 0.3301676 354.06 647.64)"><g transform="matrix(1 0 0 1 0 0)"><image x="0" y="0" xlink:href="img_215.png" width="320" height="179" /></g></g></g></g></g></g></g></svg>