<svg xmlns="http://www.w3.org/2000/svg" xmlns:xlink="http://www.w3.org/1999/xlink" id="body_17" preserveAspectRatio="xMinYMin meet" viewBox="0 0 793 1123"><defs><clipPath id="1"><path id="" clip-rule="evenodd" transform="matrix(1 0 0 1 0 0)" d="M0 842L0 0L0 0L595 0L595 0L595 842L595 842L0 842z" /></clipPath><clipPath id="2"><path id="" clip-rule="evenodd" transform="matrix(1 0 0 1 0 0)" d="M225.96 292.02L374.22 292.02L374.22 292.02L374.22 572.1L374.22 572.1L225.96 572.1z" /></clipPath><clipPath id="3"><path id="" clip-rule="evenodd" transform="matrix(1 0 0 1 0 0)" d="M224.94 291L527.76 291L527.76 291L527.76 573.12L527.76 573.12L224.94 573.12z" /></clipPath><clipPath id="4"><path id="" clip-rule="evenodd" transform="matrix(1 0 0 1 0 0)" d="M0 0.02001953L595.2 0.02001953L595.2 0.02001953L595.2 842L595.2 842L0 842z" /></clipPath><clipPath id="5"><path id="" clip-rule="evenodd" transform="matrix(1 0 0 1 0 0)" d="M224.94 291L527.76 291L527.76 291L527.76 573.12L527.76 573.12L224.94 573.12z" /></clipPath><clipPath id="6"><path id="" clip-rule="evenodd" transform="matrix(1 0 0 1 0 0)" d="M0 0.02001953L595.2 0.02001953L595.2 0.02001953L595.2 842L595.2 842L0 842z" /></clipPath></defs><g transform="matrix(1.333333 0 0 1.333333 0 0)"><g clip-path="url(#1)"><path id="219" transform="matrix(1 0 0 -1 0 842)" d="M224.94 733.94L259.26 733.94L259.26 751.94L224.94 751.94z" stroke="none" fill="#C5E0F7" fill-rule="nonzero" /><path id="222" transform="matrix(1 0 0 -1 0 842)" d="M259.26 733.94L305.46 733.94L305.46 751.94L259.26 751.94z" stroke="none" fill="#C5E0F7" fill-rule="nonzero" /><path id="226" transform="matrix(1 0 0 -1 0 842)" d="M305.46 733.94L334.92 733.94L334.92 751.94L305.46 751.94z" stroke="none" fill="#C5E0F7" fill-rule="nonzero" /><path id="230" transform="matrix(1 0 0 -1 0 842)" d="M334.92 751.94L558 751.94L558 733.94L334.92 733.94" stroke="none" fill="#C5E0F7" fill-rule="nonzero" /><path id="389" transform="matrix(1 0 0 -1 0 842)" d="M224.94 699.74L558 699.74L558 700.22L224.94 700.22z" stroke="none" fill="#3D96E3" fill-rule="nonzero" /><path id="390" transform="matrix(1 0 0 -1 0 842)" d="M224.94 665.78L558 665.78L558 666.26L224.94 666.26z" stroke="none" fill="#3D96E3" fill-rule="nonzero" /><path id="391" transform="matrix(1 0 0 -1 0 842)" d="M224.94 631.76L558 631.76L558 632.24L224.94 632.24z" stroke="none" fill="#3D96E3" fill-rule="nonzero" /><path id="392" transform="matrix(1 0 0 -1 0 842)" d="M224.94 611.78L558 611.78L558 612.26L224.94 612.26z" stroke="none" fill="#3D96E3" fill-rule="nonzero" /><path id="393" transform="matrix(1 0 0 -1 0 842)" d="M224.94 591.74L558 591.74L558 592.22L224.94 592.22z" stroke="none" fill="#3D96E3" fill-rule="nonzero" /><path id="394" transform="matrix(1 0 0 -1 0 842)" d="M224.94 571.22L558 571.22L558 572.72L224.94 572.72z" stroke="none" fill="#3D96E3" fill-rule="nonzero" /><g clip-path="url(#2)"><g clip-path="url(#3)"><g clip-path="url(#4)"><g transform="matrix(0.4798058 0 0 0.479589 225.96 292.02)"><g transform="matrix(1 0 0 1 0 0)"><image x="0" y="0" xlink:href="img_31.png" width="309" height="584" /></g></g></g></g></g><g clip-path="url(#5)"><g clip-path="url(#6)"><path id="396" transform="matrix(1 0 0 -1 0 842)" d="M397.98 314.42L398.46 314.42L398.46 315.44L397.98 315.44z" stroke="none" fill="#000000" fill-rule="nonzero" /><path id="397" transform="matrix(1 0 0 -1 0 842)" d="M323.1 315.02L323.58 315.02L323.58 316.04L323.1 316.04z" stroke="none" fill="#000000" fill-rule="nonzero" /><path id="398" transform="matrix(1 0 0 -1 0 842)" d="M397.98 314.42L397.98 315.44L323.58 316.04L323.58 315.02" stroke="none" fill="#000000" fill-rule="nonzero" /><path id="403" transform="matrix(1 0 0 -1 0 842)" d="M383.58 440.84L384.06 440.84L384.06 441.86L383.58 441.86z" stroke="none" fill="#000000" fill-rule="nonzero" /><path id="404" transform="matrix(1 0 0 -1 0 842)" d="M347.1 440.42L347.58 440.42L347.58 441.44L347.1 441.44z" stroke="none" fill="#000000" fill-rule="nonzero" /><path id="405" transform="matrix(1 0 0 -1 0 842)" d="M383.58 440.84L383.58 441.86L347.58 441.44L347.58 440.42" stroke="none" fill="#000000" fill-rule="nonzero" /><path id="413" transform="matrix(1 0 0 -1 0 842)" d="M390.78 536.96L391.26 536.96L391.26 537.98L390.78 537.98z" stroke="none" fill="#000000" fill-rule="nonzero" /><path id="414" transform="matrix(1 0 0 -1 0 842)" d="M339.66 536.96L390.78 536.96L390.78 537.98L339.66 537.98z" stroke="none" fill="#000000" fill-rule="nonzero" /></g></g></g></g></svg>