<svg xmlns="http://www.w3.org/2000/svg" xmlns:xlink="http://www.w3.org/1999/xlink" id="body_95" preserveAspectRatio="xMinYMin meet" viewBox="0 0 793 1123"><defs><clipPath id="1"><path id="" clip-rule="evenodd" transform="matrix(1 0 0 1 0 0)" d="M0 842L0 0L0 0L595 0L595 0L595 842L595 842L0 842z" /></clipPath><clipPath id="2"><path id="" clip-rule="evenodd" transform="matrix(1 0 0 1 0 0)" d="M124.56 106.02L202.98 106.02L202.98 106.02L202.98 120.42L202.98 120.42L124.56 120.42z" /></clipPath><clipPath id="3"><path id="" clip-rule="evenodd" transform="matrix(1 0 0 1 0 0)" d="M0 0.02001953L595.2 0.02001953L595.2 0.02001953L595.2 842L595.2 842L0 842z" /></clipPath><clipPath id="4"><path id="" clip-rule="evenodd" transform="matrix(1 0 0 1 0 0)" d="M124.44 106.26L199.5 106.26L199.5 106.26L199.5 120.36L199.5 120.36L124.44 120.36z" /></clipPath><clipPath id="5"><path id="" clip-rule="evenodd" transform="matrix(1 0 0 1 0 0)" d="M124.56 106.02L202.98 106.02L202.98 106.02L202.98 120.42L202.98 120.42L124.56 120.42z" /></clipPath><clipPath id="6"><path id="" clip-rule="evenodd" transform="matrix(1 0 0 1 0 0)" d="M0 0.02001953L595.2 0.02001953L595.2 0.02001953L595.2 842L595.2 842L0 842z" /></clipPath><clipPath id="7"><path id="" clip-rule="evenodd" transform="matrix(1 0 0 1 0 0)" d="M122.58 499.92L202.98 499.92L202.98 499.92L202.98 514.32L202.98 514.32L122.58 514.32z" /></clipPath><clipPath id="8"><path id="" clip-rule="evenodd" transform="matrix(1 0 0 1 0 0)" d="M0 0.02001953L595.2 0.02001953L595.2 0.02001953L595.2 842L595.2 842L0 842z" /></clipPath><clipPath id="9"><path id="" clip-rule="evenodd" transform="matrix(1 0 0 1 0 0)" d="M122.4 500.16L197.46 500.16L197.46 500.16L197.46 514.26L197.46 514.26L122.4 514.26z" /></clipPath><clipPath id="10"><path id="" clip-rule="evenodd" transform="matrix(1 0 0 1 0 0)" d="M122.58 499.92L202.98 499.92L202.98 499.92L202.98 514.32L202.98 514.32L122.58 514.32z" /></clipPath><clipPath id="11"><path id="" clip-rule="evenodd" transform="matrix(1 0 0 1 0 0)" d="M0 0.02001953L595.2 0.02001953L595.2 0.02001953L595.2 842L595.2 842L0 842z" /></clipPath></defs><g transform="matrix(1.333333 0 0 1.333333 0 0)"><g clip-path="url(#1)"><g clip-path="url(#2)"><g clip-path="url(#3)"><path id="267" transform="matrix(1 0 0 -1 0 842)" d="M124.56 721.58L202.98 721.58L202.98 735.98L124.56 735.98z" stroke="none" fill="#FFFFFF" fill-rule="nonzero" /></g></g><g clip-path="url(#4)"><g clip-path="url(#5)"><g clip-path="url(#6)"><g transform="matrix(0.7431683 0 0 0.7421053 124.44 106.26)"><g transform="matrix(1 0 0 1 0 0)"><image x="0" y="0" xlink:href="img_274.png" width="101" height="19" /></g></g></g></g></g><path id="269" transform="matrix(1 0 0 -1 0 842)" d="M224.94 740L558 740L558 402.08L224.94 402.08" stroke="none" fill="#ECF5FC" fill-rule="nonzero" /><g clip-path="url(#7)"><g clip-path="url(#8)"><path id="769" transform="matrix(1 0 0 -1 0 842)" d="M122.58 327.68L202.98 327.68L202.98 342.08L122.58 342.08z" stroke="none" fill="#FFFFFF" fill-rule="nonzero" /></g></g><g clip-path="url(#9)"><g clip-path="url(#10)"><g clip-path="url(#11)"><g transform="matrix(0.7431683 0 0 0.7421053 122.4 500.16)"><g transform="matrix(1 0 0 1 0 0)"><image x="0" y="0" xlink:href="img_274.png" width="101" height="19" /></g></g></g></g></g><path id="771" transform="matrix(1 0 0 -1 0 842)" d="M224.94 346.1L558 346.1L558 202.16L224.94 202.16" stroke="none" fill="#ECF5FC" fill-rule="nonzero" /></g></g></svg>