<svg xmlns="http://www.w3.org/2000/svg" xmlns:xlink="http://www.w3.org/1999/xlink" id="body_155" preserveAspectRatio="xMinYMin meet" viewBox="0 0 793 1123"><defs><clipPath id="1"><path id="" clip-rule="evenodd" transform="matrix(1 0 0 1 0 0)" d="M0 842L0 0L0 0L595 0L595 0L595 842L595 842L0 842z" /></clipPath><clipPath id="2"><path id="" clip-rule="evenodd" transform="matrix(1 0 0 1 0 0)" d="M45.96 131.04L466.98 131.04L466.98 131.04L466.98 313.02L466.98 313.02L45.96 313.02z" /></clipPath><clipPath id="3"><path id="" clip-rule="evenodd" transform="matrix(1 0 0 1 0 0)" d="M44.94 130.02L467.94 130.02L467.94 130.02L467.94 329.22L467.94 329.22L44.94 329.22z" /></clipPath><clipPath id="4"><path id="" clip-rule="evenodd" transform="matrix(1 0 0 1 0 0)" d="M0 0.02001953L595.2 0.02001953L595.2 0.02001953L595.2 842L595.2 842L0 842z" /></clipPath><clipPath id="5"><path id="" clip-rule="evenodd" transform="matrix(1 0 0 1 0 0)" d="M44.94 130.02L467.94 130.02L467.94 130.02L467.94 329.22L467.94 329.22L44.94 329.22z" /></clipPath><clipPath id="6"><path id="" clip-rule="evenodd" transform="matrix(1 0 0 1 0 0)" d="M0 0.02001953L595.2 0.02001953L595.2 0.02001953L595.2 842L595.2 842L0 842z" /></clipPath></defs><g transform="matrix(1.333333 0 0 1.333333 0 0)"><g clip-path="url(#1)"><g clip-path="url(#2)"><g clip-path="url(#3)"><g clip-path="url(#4)"><path id="478" transform="matrix(1 0 0 -1 0 842)" d="M86.406 698.354L86.406 542.424L86.406 542.424L154.133 542.424" stroke="#000000" stroke-width="1" fill="none" /><path id="479" transform="matrix(1 0 0 -1 0 842)" d="M79.318 698.354L86.406 698.354" stroke="#000000" stroke-width="1" fill="none" /><path id="484" transform="matrix(1 0 0 -1 0 842)" d="M101.369 542.424L101.369 537.699" stroke="#000000" stroke-width="1" fill="none" /><path id="485" transform="matrix(1 0 0 -1 0 842)" d="M116.332 542.424L116.332 537.699" stroke="#000000" stroke-width="1" fill="none" /><path id="486" transform="matrix(1 0 0 -1 0 842)" d="M131.295 542.424L131.295 537.699" stroke="#000000" stroke-width="1" fill="none" /><path id="490" transform="matrix(1 0 0 -1 0 842)" d="M101.369 698.354L101.369 541.636" stroke="#FF0000" stroke-width="1" fill="none" /><path id="491" transform="matrix(1 0 0 -1 0 842)" d="M116.332 558.962L116.332 541.636" stroke="#000000" stroke-width="1" fill="none" /><path id="498" transform="matrix(1 0 0 -1 0 842)" d="M399.053 698.354L399.053 542.424L399.053 542.424L466.78 542.424" stroke="#000000" stroke-width="1" fill="none" /><path id="499" transform="matrix(1 0 0 -1 0 842)" d="M391.965 698.354L399.053 698.354" stroke="#000000" stroke-width="1" fill="none" /><path id="504" transform="matrix(1 0 0 -1 0 842)" d="M414.017 542.424L414.017 537.699" stroke="#000000" stroke-width="1" fill="none" /><path id="505" transform="matrix(1 0 0 -1 0 842)" d="M428.98 542.424L428.98 537.699" stroke="#000000" stroke-width="1" fill="none" /><path id="506" transform="matrix(1 0 0 -1 0 842)" d="M443.943 542.424L443.943 537.699" stroke="#000000" stroke-width="1" fill="none" /><path id="508" transform="matrix(1 0 0 -1 0 842)" d="M428.98 698.354L428.98 541.636" stroke="#0000FF" stroke-width="1" fill="none" /><path id="509" transform="matrix(1 0 0 -1 0 842)" d="M443.943 558.962L443.943 541.636" stroke="#000000" stroke-width="1" fill="none" /><path id="510" transform="matrix(1 0 0 -1 0 842)" d="M317.939 698.354L317.939 542.424L317.939 542.424L385.666 542.424" stroke="#000000" stroke-width="1" fill="none" /><path id="511" transform="matrix(1 0 0 -1 0 842)" d="M310.851 698.354L317.939 698.354" stroke="#000000" stroke-width="1" fill="none" /><path id="516" transform="matrix(1 0 0 -1 0 842)" d="M332.901 542.424L332.901 537.699" stroke="#000000" stroke-width="1" fill="none" /><path id="517" transform="matrix(1 0 0 -1 0 842)" d="M347.864 542.424L347.864 537.699" stroke="#000000" stroke-width="1" fill="none" /><path id="518" transform="matrix(1 0 0 -1 0 842)" d="M362.827 542.424L362.827 537.699" stroke="#000000" stroke-width="1" fill="none" /><path id="520" transform="matrix(1 0 0 -1 0 842)" d="M347.864 698.354L347.864 542.424" stroke="#0000FF" stroke-width="1" fill="none" /><path id="521" transform="matrix(1 0 0 -1 0 842)" d="M362.827 559.75L362.827 542.424" stroke="#000000" stroke-width="1" fill="none" /><path id="522" transform="matrix(1 0 0 -1 0 842)" d="M239.185 698.355L239.185 542.425L239.185 542.425L306.912 542.425" stroke="#000000" stroke-width="1" fill="none" /><path id="523" transform="matrix(1 0 0 -1 0 842)" d="M232.097 698.355L239.185 698.355" stroke="#000000" stroke-width="1" fill="none" /><path id="528" transform="matrix(1 0 0 -1 0 842)" d="M254.149 542.424L254.149 537.699" stroke="#000000" stroke-width="1" fill="none" /><path id="529" transform="matrix(1 0 0 -1 0 842)" d="M269.112 542.424L269.112 537.699" stroke="#000000" stroke-width="1" fill="none" /><path id="530" transform="matrix(1 0 0 -1 0 842)" d="M284.075 542.424L284.075 537.699" stroke="#000000" stroke-width="1" fill="none" /><path id="532" transform="matrix(1 0 0 -1 0 842)" d="M254.149 698.354L254.149 542.424" stroke="#FF0000" stroke-width="1" fill="none" /><path id="533" transform="matrix(1 0 0 -1 0 842)" d="M284.075 559.75L284.075 542.424" stroke="#000000" stroke-width="1" fill="none" /><path id="534" transform="matrix(1 0 0 -1 0 842)" d="M162.796 698.355L162.796 542.425L162.796 542.425L229.736 542.425" stroke="#000000" stroke-width="1" fill="none" /><path id="535" transform="matrix(1 0 0 -1 0 842)" d="M154.921 698.355L162.796 698.355" stroke="#000000" stroke-width="1" fill="none" /><path id="540" transform="matrix(1 0 0 -1 0 842)" d="M177.759 542.424L177.759 537.699" stroke="#000000" stroke-width="1" fill="none" /><path id="541" transform="matrix(1 0 0 -1 0 842)" d="M192.722 542.424L192.722 537.699" stroke="#000000" stroke-width="1" fill="none" /><path id="542" transform="matrix(1 0 0 -1 0 842)" d="M207.685 542.424L207.685 537.699" stroke="#000000" stroke-width="1" fill="none" /><path id="543" transform="matrix(1 0 0 -1 0 842)" d="M177.759 698.354L177.759 541.636" stroke="#FF0000" stroke-width="1" fill="none" /><path id="548" transform="matrix(1 0 0 -1 0 842)" d="M192.722 541.637L192.722 623.54" stroke="#0000FF" stroke-width="1" fill="none" /><path id="549" transform="matrix(1 0 0 -1 0 842)" d="M207.685 541.637L207.685 553.45" stroke="#000000" stroke-width="1" fill="none" /><path id="550" transform="matrix(1 0 0 -1 0 842)" d="M269.112 542.424L269.112 698.354" stroke="#0000FF" stroke-width="1" fill="none" /><path id="551" transform="matrix(1 0 0 -1 0 842)" d="M332.901 542.424L332.901 625.114" stroke="#FF0000" stroke-width="1" fill="none" /></g></g></g><g clip-path="url(#5)"><g clip-path="url(#6)"><path id="591" transform="matrix(1 0 0 -1 0 842)" d="M380.82 518.78L380.82 522.86L381.48 522.6801L393.6 519.26L395.28 518.78L393.6 518.3L381.48 514.82L380.82 514.64L380.82 515.3L381.18 515.78L393.3 519.26L393.6 518.3L393.3 518.3L381.18 521.72L381.48 522.6801L381.84 522.2L381.84 518.78" stroke="none" fill="#000000" fill-rule="nonzero" /><path id="592" transform="matrix(1 0 0 -1 0 842)" d="M380.82 515.3L381.84 515.3L381.84 518.78L380.82 518.78z" stroke="none" fill="#000000" fill-rule="nonzero" /><path id="593" transform="matrix(1 0 0 -1 0 842)" d="M381.3 518.78L381.3 522.2L381.3 522.2L393.42 518.78L393.42 518.78L381.3 515.3" stroke="none" fill="#000000" fill-rule="evenodd" /><path id="594" transform="matrix(1 0 0 -1 0 842)" d="M132.72 518.24L133.2 518.24L133.2 519.26L132.72 519.26z" stroke="none" fill="#000000" fill-rule="nonzero" /><path id="595" transform="matrix(1 0 0 -1 0 842)" d="M133.2 518.24L381.3 518.24L381.3 519.26L133.2 519.26z" stroke="none" fill="#000000" fill-rule="nonzero" /><path id="596" transform="matrix(1 0 0 -1 0 842)" d="M223.86 513.74L301.44 513.74L301.44 523.76L223.86 523.76z" stroke="none" fill="#FFFFFF" fill-rule="nonzero" /><path id="603" transform="matrix(1 0 0 -1 0 842)" d="M398.94 513.74L438.48 513.74L438.48 523.76L398.94 523.76z" stroke="none" fill="#FFFFFF" fill-rule="nonzero" /><path id="608" transform="matrix(1 0 0 -1 0 842)" d="M96.96 513.74L133.44 513.74L133.44 523.76L96.96 523.76z" stroke="none" fill="#FFFFFF" fill-rule="nonzero" /></g></g></g></g></svg>