<svg xmlns="http://www.w3.org/2000/svg" xmlns:xlink="http://www.w3.org/1999/xlink" id="body_215" preserveAspectRatio="xMinYMin meet" viewBox="0 0 793 1123"><defs><clipPath id="1"><path id="" clip-rule="evenodd" transform="matrix(1 0 0 1 0 0)" d="M0 842L0 0L0 0L595 0L595 0L595 842L595 842L0 842z" /></clipPath><clipPath id="2"><path id="" clip-rule="evenodd" transform="matrix(1 0 0 1 0 0)" d="M36.96 79.02002L187.02 79.02002L187.02 79.02002L187.02 250.5L187.02 250.5L36.96 250.5z" /></clipPath><clipPath id="3"><path id="" clip-rule="evenodd" transform="matrix(1 0 0 1 0 0)" d="M35.94 78.06L548.52 78.06L548.52 78.06L548.52 251.52L548.52 251.52L35.94 251.52z" /></clipPath><clipPath id="4"><path id="" clip-rule="evenodd" transform="matrix(1 0 0 1 0 0)" d="M0 0.02001953L595.2 0.02001953L595.2 0.02001953L595.2 842L595.2 842L0 842z" /></clipPath><clipPath id="5"><path id="" clip-rule="evenodd" transform="matrix(1 0 0 1 0 0)" d="M205.38 81.53998L374.82 81.53998L374.82 81.53998L374.82 248.04L374.82 248.04L205.38 248.04z" /></clipPath><clipPath id="6"><path id="" clip-rule="evenodd" transform="matrix(1 0 0 1 0 0)" d="M35.94 78.06L548.52 78.06L548.52 78.06L548.52 251.52L548.52 251.52L35.94 251.52z" /></clipPath><clipPath id="7"><path id="" clip-rule="evenodd" transform="matrix(1 0 0 1 0 0)" d="M0 0.02001953L595.2 0.02001953L595.2 0.02001953L595.2 842L595.2 842L0 842z" /></clipPath><clipPath id="8"><path id="" clip-rule="evenodd" transform="matrix(1 0 0 1 0 0)" d="M393.72 109.26L492.12 109.26L492.12 109.26L492.12 220.26L492.12 220.26L393.72 220.26z" /></clipPath><clipPath id="9"><path id="" clip-rule="evenodd" transform="matrix(1 0 0 1 0 0)" d="M35.94 78.06L548.52 78.06L548.52 78.06L548.52 251.52L548.52 251.52L35.94 251.52z" /></clipPath><clipPath id="10"><path id="" clip-rule="evenodd" transform="matrix(1 0 0 1 0 0)" d="M0 0.02001953L595.2 0.02001953L595.2 0.02001953L595.2 842L595.2 842L0 842z" /></clipPath><clipPath id="11"><path id="" clip-rule="evenodd" transform="matrix(1 0 0 1 0 0)" d="M35.94 78.06L548.52 78.06L548.52 78.06L548.52 251.52L548.52 251.52L35.94 251.52z" /></clipPath><clipPath id="12"><path id="" clip-rule="evenodd" transform="matrix(1 0 0 1 0 0)" d="M0 0.02001953L595.2 0.02001953L595.2 0.02001953L595.2 842L595.2 842L0 842z" /></clipPath><clipPath id="13"><path id="" clip-rule="evenodd" transform="matrix(1 0 0 1 0 0)" d="M216.96 373.5L482.82 373.5L482.82 373.5L482.82 688.86L482.82 688.86L216.96 688.86z" /></clipPath><clipPath id="14"><path id="" clip-rule="evenodd" transform="matrix(1 0 0 1 0 0)" d="M215.94 372.48L483.78 372.48L483.78 372.48L483.78 689.88L483.78 689.88L215.94 689.88z" /></clipPath><clipPath id="15"><path id="" clip-rule="evenodd" transform="matrix(1 0 0 1 0 0)" d="M0 0.02001953L595.2 0.02001953L595.2 0.02001953L595.2 842L595.2 842L0 842z" /></clipPath></defs><g transform="matrix(1.333333 0 0 1.333333 0 0)"><g clip-path="url(#1)"><g clip-path="url(#2)"><g clip-path="url(#3)"><g clip-path="url(#4)"><g transform="matrix(0.4796198 0 0 0.4803361 36.96 79.02002)"><g transform="matrix(1 0 0 1 0 0)"><image x="0" y="0" xlink:href="img_576.png" width="313" height="357" /></g></g></g></g></g><g clip-path="url(#5)"><g clip-path="url(#6)"><g clip-path="url(#7)"><g transform="matrix(0.4790028 0 0 0.4798271 205.38 81.53998)"><g transform="matrix(1 0 0 1 0 0)"><image x="0" y="0" xlink:href="img_577.png" width="354" height="347" /></g></g></g></g></g><g clip-path="url(#8)"><g clip-path="url(#9)"><g clip-path="url(#10)"><g transform="matrix(0.4776699 0 0 0.4784483 393.72 109.26)"><g transform="matrix(1 0 0 1 0 0)"><image x="0" y="0" xlink:href="img_578.png" width="206" height="232" /></g></g></g></g></g><g clip-path="url(#11)"><g clip-path="url(#12)"><path id="198" transform="matrix(1 0 0 -1 0 842)" d="M493.92 636.92L494.4 636.92L494.4 637.94L493.92 637.94z" stroke="none" fill="#000000" fill-rule="nonzero" /><path id="199" transform="matrix(1 0 0 -1 0 842)" d="M427.92 636.92L493.92 636.92L493.92 637.94L427.92 637.94z" stroke="none" fill="#000000" fill-rule="nonzero" /><path id="200" transform="matrix(1 0 0 -1 0 842)" d="M489.96 703.22L534.48 703.22L534.48 726.4399L489.96 726.4399z" stroke="none" fill="#FFFFFF" fill-rule="nonzero" /><path id="207" transform="matrix(1 0 0 -1 0 842)" d="M486.84 722.9L487.32 722.9L487.32 723.92L486.84 723.92z" stroke="none" fill="#000000" fill-rule="nonzero" /><path id="208" transform="matrix(1 0 0 -1 0 842)" d="M457.74 722.9L486.84 722.9L486.84 723.92L457.74 723.92z" stroke="none" fill="#000000" fill-rule="nonzero" /><path id="209" transform="matrix(1 0 0 -1 0 842)" d="M496.56 613.52L547.56 613.52L547.56 641.78L496.56 641.78z" stroke="none" fill="#FFFFFF" fill-rule="nonzero" /></g></g><g clip-path="url(#13)"><g clip-path="url(#14)"><g clip-path="url(#15)"><g transform="matrix(0.479027 0 0 0.4792705 216.96 373.5)"><g transform="matrix(1 0 0 1 0 0)"><image x="0" y="0" xlink:href="img_579.png" width="555" height="658" /></g></g></g></g></g></g></g></svg>