<svg xmlns="http://www.w3.org/2000/svg" xmlns:xlink="http://www.w3.org/1999/xlink" id="body_296" preserveAspectRatio="xMinYMin meet" viewBox="0 0 793 1123"><defs><clipPath id="1"><path id="" clip-rule="evenodd" transform="matrix(1 0 0 1 0 0)" d="M0 842L0 0L0 0L595 0L595 0L595 842L595 842L0 842z" /></clipPath><clipPath id="2"><path id="" clip-rule="evenodd" transform="matrix(1 0 0 1 0 0)" d="M552.324 97.54102L40.33698 97.54102L40.33698 97.54102L40.33698 821.611L40.33698 821.611L552.324 821.611z" /></clipPath><clipPath id="3"><path id="" clip-rule="evenodd" transform="matrix(1 0 0 1 0 0)" d="M86.76 113.04L498.12 113.04L498.12 113.04L498.12 759.66L498.12 759.66L86.76 759.66z" /></clipPath><clipPath id="4"><path id="" clip-rule="evenodd" transform="matrix(1 0 0 1 0 0)" d="M85.8 112.02L499.14 112.02L499.14 112.02L499.14 760.68L499.14 760.68L85.8 760.68z" /></clipPath><clipPath id="5"><path id="" clip-rule="evenodd" transform="matrix(1 0 0 1 0 0)" d="M0 0.02001953L595.2 0.02001953L595.2 0.02001953L595.2 842L595.2 842L0 842z" /></clipPath></defs><g transform="matrix(1.333333 0 0 1.333333 0 0)"><g clip-path="url(#1)"><g clip-path="url(#2)"><g clip-path="url(#3)"><g clip-path="url(#4)"><g clip-path="url(#5)"><g transform="matrix(0 0.2401454 -0.2400344 0 498.487 112.686)"><g transform="matrix(1 0 0 1 0 0)"><image x="0" y="0" xlink:href="img_900.png" width="2696" height="1717" /></g></g></g></g></g></g></g></g></svg>