<svg xmlns="http://www.w3.org/2000/svg" xmlns:xlink="http://www.w3.org/1999/xlink" id="body_274" preserveAspectRatio="xMinYMin meet" viewBox="0 0 793 1123"><defs><clipPath id="1"><path id="" clip-rule="evenodd" transform="matrix(1 0 0 1 0 0)" d="M0 842L0 0L0 0L595 0L595 0L595 842L595 842L0 842z" /></clipPath><clipPath id="2"><path id="" clip-rule="evenodd" transform="matrix(1 0 0 1 0 0)" d="M230.94 112.5L519.24 112.5L519.24 112.5L519.24 365.94L519.24 365.94L230.94 365.94z" /></clipPath><clipPath id="3"><path id="" clip-rule="evenodd" transform="matrix(1 0 0 1 0 0)" d="M224.94 114L515.22 114L515.22 114L515.22 369.48L515.22 369.48L224.94 369.48z" /></clipPath><clipPath id="4"><path id="" clip-rule="evenodd" transform="matrix(1 0 0 1 0 0)" d="M0 0.02001953L595.2 0.02001953L595.2 0.02001953L595.2 842L595.2 842L0 842z" /></clipPath><clipPath id="5"><path id="" clip-rule="evenodd" transform="matrix(1 0 0 1 0 0)" d="M224.94 114L515.22 114L515.22 114L515.22 369.48L515.22 369.48L224.94 369.48z" /></clipPath><clipPath id="6"><path id="" clip-rule="evenodd" transform="matrix(1 0 0 1 0 0)" d="M0 0.02001953L595.2 0.02001953L595.2 0.02001953L595.2 842L595.2 842L0 842z" /></clipPath><clipPath id="7"><path id="" clip-rule="evenodd" transform="matrix(1 0 0 1 0 0)" d="M232.92 455.46L491.04 455.46L491.04 455.46L491.04 676.2L491.04 676.2L232.92 676.2z" /></clipPath><clipPath id="8"><path id="" clip-rule="evenodd" transform="matrix(1 0 0 1 0 0)" d="M224.94 454.44L492.06 454.44L492.06 454.44L492.06 677.22L492.06 677.22L224.94 677.22z" /></clipPath><clipPath id="9"><path id="" clip-rule="evenodd" transform="matrix(1 0 0 1 0 0)" d="M0 0.02001953L595.2 0.02001953L595.2 0.02001953L595.2 842L595.2 842L0 842z" /></clipPath><clipPath id="10"><path id="" clip-rule="evenodd" transform="matrix(1 0 0 1 0 0)" d="M224.94 454.44L492.06 454.44L492.06 454.44L492.06 677.22L492.06 677.22L224.94 677.22z" /></clipPath><clipPath id="11"><path id="" clip-rule="evenodd" transform="matrix(1 0 0 1 0 0)" d="M0 0.02001953L595.2 0.02001953L595.2 0.02001953L595.2 842L595.2 842L0 842z" /></clipPath></defs><g transform="matrix(1.333333 0 0 1.333333 0 0)"><g clip-path="url(#1)"><g clip-path="url(#2)"><g clip-path="url(#3)"><g clip-path="url(#4)"><g transform="matrix(0.4797005 0 0 0.48 230.94 112.5)"><g transform="matrix(1 0 0 1 0 0)"><image x="0" y="0" xlink:href="img_854.png" width="601" height="528" /></g></g></g></g></g><g clip-path="url(#5)"><g clip-path="url(#6)"><path id="185" transform="matrix(1 0 0 -1 0 842)" d="M403.14 509.12L403.2 509.24L403.2 509.24L403.26 509.42L403.26 509.42L403.26 509.84L403.26 509.84L403.2 510.02L403.2 510.02L403.14 510.14L403.14 510.14L403.14 510.26L403.14 510.26L403.02 510.38L403.02 510.38L402.96 510.5L402.96 510.5L402.9 510.62L402.9 510.62L402.78 510.74L402.78 510.74L402.66 510.8L402.66 510.8L402.54 510.92L402.54 510.92L402.42 510.98L402.42 510.98L402.24 511.04L402.24 511.04L402.12 511.1L402.12 511.1L402 511.1L402 511.1L401.82 511.16L401.82 511.16L401.7 511.1L401.7 511.1L401.4 511.1L401.4 511.1L401.28 511.04L401.28 511.04L401.1 510.98L401.1 510.98L400.86 510.86L400.86 510.86L400.56 510.56L400.56 510.56L400.5 510.44L400.5 510.44L400.38 510.26L400.38 510.26L400.32 510.14L400.32 510.14L400.32 510.02L400.32 510.02L400.26 509.84L400.26 509.84L400.26 509.42L400.26 509.42L400.32 509.24L400.32 509.24L400.32 509.12L400.32 509.12L400.38 509L400.38 509L400.44 508.88L400.44 508.88L400.56 508.76L400.56 508.76L400.62 508.64L400.62 508.64L400.74 508.52L400.74 508.52L400.86 508.46L400.86 508.46L400.98 508.34L400.98 508.34L401.22 508.22L401.22 508.22L401.4 508.16L401.4 508.16L402.12 508.16L402.12 508.16L402.36 508.28L402.36 508.28L402.54 508.34L402.54 508.34L402.66 508.4L402.66 508.4L402.72 508.52L402.72 508.52L402.84 508.58L402.84 508.58L402.96 508.7L402.96 508.7L403.02 508.82L403.02 508.82L403.08 509L403.08 509L403.14 509.12" stroke="none" fill="#FF0000" fill-rule="evenodd" /><path id="186" transform="matrix(1 0 0 -1 0 842)" d="M401.76 509.66L403.5 514.46L403.74 515.06L404.34 514.64L419.4 503.72L420.78 502.7L419.04 502.82L400.44 504.08L399.78 504.14L399.96 504.8L400.5 505.1L419.1 503.84L419.04 502.82L418.74 502.94L403.68 513.86L404.34 514.64L404.46 514.1L402.72 509.3" stroke="none" fill="#FF0000" fill-rule="nonzero" /><path id="187" transform="matrix(1 0 0 -1 0 842)" d="M399.96 504.8L401.76 509.66L402.72 509.3L400.92 504.44" stroke="none" fill="#FF0000" fill-rule="nonzero" /><path id="188" transform="matrix(1 0 0 -1 0 842)" d="M402.24 509.48L403.98 514.28L403.98 514.28L419.04 503.36L419.04 503.36L400.44 504.62" stroke="none" fill="#FF0000" fill-rule="evenodd" /><path id="189" transform="matrix(1 0 0 -1 0 842)" d="M332.76 536.36L331.38 536.84L330.36 534.02L331.74 533.54" stroke="none" fill="#FF0000" fill-rule="nonzero" /><path id="190" transform="matrix(1 0 0 -1 0 842)" d="M402.3 511.04L403.68 510.56L402.66 507.74L401.28 508.22" stroke="none" fill="#FF0000" fill-rule="nonzero" /><path id="191" transform="matrix(1 0 0 -1 0 842)" d="M332.76 536.36L331.74 533.54L401.28 508.22L402.3 511.04" stroke="none" fill="#FF0000" fill-rule="nonzero" /></g></g><g clip-path="url(#7)"><g clip-path="url(#8)"><g clip-path="url(#9)"><g transform="matrix(0.4788868 0 0 0.4788286 232.92 455.46)"><g transform="matrix(1 0 0 1 0 0)"><image x="0" y="0" xlink:href="img_855.png" width="539" height="461" /></g></g></g></g></g><g clip-path="url(#10)"><g clip-path="url(#11)"><path id="193" transform="matrix(1 0 0 -1 0 842)" d="M292.68 324.68L293.16 324.68L293.16 325.7L292.68 325.7z" stroke="none" fill="#000000" fill-rule="nonzero" /><path id="194" transform="matrix(1 0 0 -1 0 842)" d="M293.16 324.68L320.04 324.68L320.04 325.7L293.16 325.7z" stroke="none" fill="#000000" fill-rule="nonzero" /><path id="195" transform="matrix(1 0 0 -1 0 842)" d="M226.2 318.92L290.52 318.92L290.52 328.94L226.2 328.94z" stroke="none" fill="#FFFFFF" fill-rule="nonzero" /><path id="203" transform="matrix(1 0 0 -1 0 842)" d="M282.78 267.92L283.26 267.92L283.26 268.94L282.78 268.94z" stroke="none" fill="#000000" fill-rule="nonzero" /><path id="204" transform="matrix(1 0 0 -1 0 842)" d="M283.26 267.92L307.08 267.92L307.08 268.94L283.26 268.94z" stroke="none" fill="#000000" fill-rule="nonzero" /><path id="205" transform="matrix(1 0 0 -1 0 842)" d="M225.96 263.54L281.1 263.54L281.1 272.96L225.96 272.96z" stroke="none" fill="#FFFFFF" fill-rule="nonzero" /><path id="211" transform="matrix(1 0 0 -1 0 842)" d="M342.66 329.72L342.9 330.14L342 330.62L341.76 330.2" stroke="none" fill="#000000" fill-rule="nonzero" /><path id="212" transform="matrix(1 0 0 -1 0 842)" d="M320.94 289.58L320.7 289.16L319.8 289.64L320.04 290.06" stroke="none" fill="#000000" fill-rule="nonzero" /><path id="213" transform="matrix(1 0 0 -1 0 842)" d="M342.66 329.72L341.76 330.2L320.04 290.06L320.94 289.58" stroke="none" fill="#000000" fill-rule="nonzero" /><path id="214" transform="matrix(1 0 0 -1 0 842)" d="M343.44 333.56L427.08 333.56L427.08 321.56L343.44 321.56" stroke="none" fill="#FFFFFF" fill-rule="nonzero" /></g></g></g></g></svg>