<svg xmlns="http://www.w3.org/2000/svg" xmlns:xlink="http://www.w3.org/1999/xlink" id="body_137" preserveAspectRatio="xMinYMin meet" viewBox="0 0 793 1123"><defs><clipPath id="1"><path id="" clip-rule="evenodd" transform="matrix(1 0 0 1 0 0)" d="M0 842L0 0L0 0L595 0L595 0L595 842L595 842L0 842z" /></clipPath><clipPath id="2"><path id="" clip-rule="evenodd" transform="matrix(1 0 0 1 0 0)" d="M141.36 73.02002L196.98 73.02002L196.98 73.02002L196.98 103.5L196.98 103.5L141.36 103.5z" /></clipPath><clipPath id="3"><path id="" clip-rule="evenodd" transform="matrix(1 0 0 1 0 0)" d="M140.34 72.06L197.94 72.06L197.94 72.06L197.94 104.52L197.94 104.52L140.34 104.52z" /></clipPath><clipPath id="4"><path id="" clip-rule="evenodd" transform="matrix(1 0 0 1 0 0)" d="M0 0.02001953L595.2 0.02001953L595.2 0.02001953L595.2 842L595.2 842L0 842z" /></clipPath><clipPath id="5"><path id="" clip-rule="evenodd" transform="matrix(1 0 0 1 0 0)" d="M216.96 429L329.82 429L329.82 429L329.82 566.1L329.82 566.1L216.96 566.1z" /></clipPath><clipPath id="6"><path id="" clip-rule="evenodd" transform="matrix(1 0 0 1 0 0)" d="M215.94 427.98L330.84 427.98L330.84 427.98L330.84 567.12L330.84 567.12L215.94 567.12z" /></clipPath><clipPath id="7"><path id="" clip-rule="evenodd" transform="matrix(1 0 0 1 0 0)" d="M0 0.02001953L595.2 0.02001953L595.2 0.02001953L595.2 842L595.2 842L0 842z" /></clipPath><clipPath id="8"><path id="" clip-rule="evenodd" transform="matrix(1 0 0 1 0 0)" d="M215.94 427.98L330.84 427.98L330.84 427.98L330.84 567.12L330.84 567.12L215.94 567.12z" /></clipPath><clipPath id="9"><path id="" clip-rule="evenodd" transform="matrix(1 0 0 1 0 0)" d="M0 0.02001953L595.2 0.02001953L595.2 0.02001953L595.2 842L595.2 842L0 842z" /></clipPath><clipPath id="10"><path id="" clip-rule="evenodd" transform="matrix(1 0 0 1 0 0)" d="M141.36 634.62L196.98 634.62L196.98 634.62L196.98 665.04L196.98 665.04L141.36 665.04z" /></clipPath><clipPath id="11"><path id="" clip-rule="evenodd" transform="matrix(1 0 0 1 0 0)" d="M140.34 633.6L197.94 633.6L197.94 633.6L197.94 666.12L197.94 666.12L140.34 666.12z" /></clipPath><clipPath id="12"><path id="" clip-rule="evenodd" transform="matrix(1 0 0 1 0 0)" d="M0 0.02001953L595.2 0.02001953L595.2 0.02001953L595.2 842L595.2 842L0 842z" /></clipPath></defs><g transform="matrix(1.333333 0 0 1.333333 0 0)"><g clip-path="url(#1)"><path id="495" transform="matrix(1 0 0 -1 0 842)" d="M233.94 651.98L549 651.98L549 548L233.94 548" stroke="none" fill="#ECF5FC" fill-rule="nonzero" /><g clip-path="url(#2)"><g clip-path="url(#3)"><g clip-path="url(#4)"><g transform="matrix(0.4794827 0 0 0.47625 141.36 73.02002)"><g transform="matrix(1 0 0 1 0 0)"><image x="0" y="0" xlink:href="img_392.png" width="116" height="64" /></g></g></g></g></g><g clip-path="url(#5)"><g clip-path="url(#6)"><g clip-path="url(#7)"><g transform="matrix(0.4787118 0 0 0.4793707 216.96 429)"><g transform="matrix(1 0 0 1 0 0)"><image x="0" y="0" xlink:href="img_393.png" width="236" height="286" /></g></g></g></g></g><g clip-path="url(#8)"><g clip-path="url(#9)"><path id="691" transform="matrix(1 0 0 -1 0 842)" d="M324.18 294.14L324.3 294.14L324.3 294.14L324.42 294.2L324.42 294.2L324.66 294.44L324.66 294.44L324.72 294.56L324.72 294.56L324.78 294.68L324.78 294.68L324.78 294.98L324.78 294.98L324.72 295.16L324.72 295.16L324.66 295.28L324.66 295.28L324.54 295.4L324.54 295.4L324.48 295.46L324.48 295.46L324.36 295.52L324.36 295.52L324.18 295.58L324.18 295.58L323.76 295.58L323.76 295.58L323.64 295.46L323.64 295.46L323.52 295.4L323.52 295.4L323.4 295.28L323.4 295.28L323.28 295.04L323.28 295.04L323.28 294.74L323.28 294.74L323.34 294.56L323.34 294.56L323.4 294.44L323.4 294.44L323.46 294.32L323.46 294.32L323.7 294.2L323.7 294.2L323.88 294.14L323.88 294.14L324 294.08L324 294.08L324.18 294.14" stroke="none" fill="#FF1721" fill-rule="evenodd" /><path id="692" transform="matrix(1 0 0 -1 0 842)" d="M324.06 294.86L327.9 295.52L328.5 295.64L328.44 294.92L326.88 280.88L326.7 279.14L325.98 280.76L319.86 293.48L319.56 294.08L320.22 294.2L320.76 293.9L326.88 281.18L325.98 280.76L325.92 281.06L327.48 295.1L328.44 294.92L328.08 294.5L324.24 293.84" stroke="none" fill="#FF1721" fill-rule="nonzero" /><path id="693" transform="matrix(1 0 0 -1 0 842)" d="M320.22 294.2L324.06 294.86L324.24 293.84L320.4 293.18" stroke="none" fill="#FF1721" fill-rule="nonzero" /><path id="694" transform="matrix(1 0 0 -1 0 842)" d="M324.12 294.38L327.96 295.04L327.96 295.04L326.4 281L326.4 281L320.28 293.72" stroke="none" fill="#FF1721" fill-rule="evenodd" /><path id="695" transform="matrix(1 0 0 -1 0 842)" d="M270.36 329.06L271.08 329.06L271.08 330.56L270.36 330.56z" stroke="none" fill="#FF1721" fill-rule="nonzero" /><path id="696" transform="matrix(1 0 0 -1 0 842)" d="M271.08 330.56L273.48 330.56L275.82 330.44L275.88 330.44L280.44 329.96L282.72 329.6L282.78 329.6L285.06 329.18L287.28 328.64L289.44 328.1L290.58 327.8L290.64 327.8L292.8 327.08L293.82 326.72L294.9 326.36L294.96 326.3L299.04 324.62L299.1 324.62L300.12 324.14L301.08 323.66L302.1 323.12L303.06 322.64L303.12 322.58L304.02 322.04L303.96 322.1L304.92 321.56L304.98 321.5L305.88 320.9L306.78 320.36L307.68 319.76L307.74 319.76L308.58 319.16L309.42 318.5L310.26 317.9L311.1 317.24L311.1 317.18L311.88 316.52L311.94 316.52L313.5 315.08L314.22 314.42L314.94 313.7L314.94 313.64L315.66 312.86L316.32 312.14L316.38 312.14L317.7 310.58L317.7 310.52L318.3 309.68L318.9 308.9L318.96 308.9L317.7 308.06L317.7 308L317.1 308.78L316.5 309.62L316.56 309.62L315.24 311.18L315.24 311.12L314.58 311.84L313.86 312.62L313.14 313.34L313.2 313.34L312.48 314L310.92 315.44L310.92 315.38L310.14 316.04L310.2 316.04L309.36 316.7L308.52 317.3L307.68 317.96L306.84 318.56L306.84 318.5L305.94 319.1L306 319.1L305.1 319.64L305.04 319.64L304.14 320.24L304.2 320.24L303.24 320.78L302.34 321.32L302.4 321.32L301.44 321.8L301.38 321.8L300.36 322.34L300.42 322.34L299.46 322.82L299.46 322.76L298.44 323.24L294.36 324.92L294.42 324.92L293.34 325.28L292.32 325.64L290.16 326.36L290.22 326.36L289.08 326.66L286.92 327.2L284.7 327.74L284.76 327.68L282.48 328.1L280.2 328.46L280.26 328.46L275.7 328.94L275.76 328.94L273.42 329.06L271.08 329.06" stroke="none" fill="#FF1721" fill-rule="nonzero" /><path id="697" transform="matrix(1 0 0 -1 0 842)" d="M318.96 308.9L320.58 306.38L320.58 306.32L321.06 305.48L321.54 304.58L321.54 304.52L321.96 303.68L322.02 303.68L322.44 302.78L322.44 302.72L322.8 301.82L323.16 300.86L323.52 299.96L323.52 299.9L324.12 297.98L324.36 297.02L324.42 296.96L324.6 295.94L323.1 295.64L323.1 295.7L322.92 296.72L322.92 296.66L322.68 297.62L322.68 297.56L322.08 299.48L322.14 299.42L321.78 300.32L321.42 301.28L321.06 302.18L321.06 302.12L320.64 303.02L320.22 303.86L319.74 304.76L319.26 305.6L319.32 305.54L317.7 308.06" stroke="none" fill="#FF1721" fill-rule="nonzero" /><path id="698" transform="matrix(1 0 0 -1 0 842)" d="M324.78 294.98L324.9 294.26L323.4 293.96L323.28 294.68" stroke="none" fill="#FF1721" fill-rule="nonzero" /><path id="699" transform="matrix(1 0 0 -1 0 842)" d="M324.6 295.94L323.1 295.64L323.28 294.68L324.78 294.98" stroke="none" fill="#FF1721" fill-rule="nonzero" /></g></g><g clip-path="url(#10)"><g clip-path="url(#11)"><g clip-path="url(#12)"><g transform="matrix(0.4794827 0 0 0.4753125 141.36 634.62)"><g transform="matrix(1 0 0 1 0 0)"><image x="0" y="0" xlink:href="img_392.png" width="116" height="64" /></g></g></g></g></g></g></g></svg>