<svg xmlns="http://www.w3.org/2000/svg" xmlns:xlink="http://www.w3.org/1999/xlink" id="body_256" preserveAspectRatio="xMinYMin meet" viewBox="0 0 793 1123"><defs><clipPath id="1"><path id="" clip-rule="evenodd" transform="matrix(1 0 0 1 0 0)" d="M0 842L0 0L0 0L595 0L595 0L595 842L595 842L0 842z" /></clipPath><clipPath id="2"><path id="" clip-rule="evenodd" transform="matrix(1 0 0 1 0 0)" d="M225.96 139.02L525.36 139.02L525.36 139.02L525.36 393.06L525.36 393.06L225.96 393.06z" /></clipPath><clipPath id="3"><path id="" clip-rule="evenodd" transform="matrix(1 0 0 1 0 0)" d="M224.94 138L526.32 138L526.32 138L526.32 394.02L526.32 394.02L224.94 394.02z" /></clipPath><clipPath id="4"><path id="" clip-rule="evenodd" transform="matrix(1 0 0 1 0 0)" d="M0 0.02001953L595.2 0.02001953L595.2 0.02001953L595.2 842L595.2 842L0 842z" /></clipPath><clipPath id="5"><path id="" clip-rule="evenodd" transform="matrix(1 0 0 1 0 0)" d="M224.94 138L526.32 138L526.32 138L526.32 394.02L526.32 394.02L224.94 394.02z" /></clipPath><clipPath id="6"><path id="" clip-rule="evenodd" transform="matrix(1 0 0 1 0 0)" d="M0 0.02001953L595.2 0.02001953L595.2 0.02001953L595.2 842L595.2 842L0 842z" /></clipPath></defs><g transform="matrix(1.333333 0 0 1.333333 0 0)"><g clip-path="url(#1)"><path id="169" transform="matrix(1 0 0 -1 0 842)" d="M224.94 404.96L558 404.96L558 371L224.94 371" stroke="none" fill="#ECF5FC" fill-rule="nonzero" /><g clip-path="url(#2)"><g clip-path="url(#3)"><g clip-path="url(#4)"><g transform="matrix(0.47904 0 0 0.4793207 225.96 139.02)"><g transform="matrix(1 0 0 1 0 0)"><image x="0" y="0" xlink:href="img_783.png" width="625" height="530" /></g></g></g></g></g><g clip-path="url(#5)"><g clip-path="url(#6)"><path id="209" transform="matrix(1 0 0 -1 0 842)" d="M311.76 503.48L312.72 503.48L312.72 505.46L311.76 505.46z" stroke="none" fill="#000000" fill-rule="nonzero" /><path id="210" transform="matrix(1 0 0 -1 0 842)" d="M312.72 503.48L365.4 503.48L365.4 505.46L312.72 505.46z" stroke="none" fill="#000000" fill-rule="nonzero" /><path id="211" transform="matrix(1 0 0 -1 0 842)" d="M368.7 497L417.36 497L417.36 510.5L368.7 510.5z" stroke="none" fill="#FFFFFF" fill-rule="nonzero" /><path id="216" transform="matrix(1 0 0 -1 0 842)" d="M415.74 611.24L417.72 611.24L417.72 612.2L415.74 612.2z" stroke="none" fill="#000000" fill-rule="nonzero" /><path id="217" transform="matrix(1 0 0 -1 0 842)" d="M415.74 572.78L417.72 572.78L417.72 611.2401L415.74 611.2401z" stroke="none" fill="#000000" fill-rule="nonzero" /><path id="218" transform="matrix(1 0 0 -1 0 842)" d="M401.82 555.5L437.88 555.5L437.88 568.22L401.82 568.22z" stroke="none" fill="#FFFFFF" fill-rule="nonzero" /><path id="223" transform="matrix(1 0 0 -1 0 842)" d="M470.04 494.84L472.02 494.84L472.02 495.8L470.04 495.8z" stroke="none" fill="#000000" fill-rule="nonzero" /><path id="224" transform="matrix(1 0 0 -1 0 842)" d="M470.04 495.8L472.02 495.8L472.02 520.4L470.04 520.4z" stroke="none" fill="#000000" fill-rule="nonzero" /><path id="225" transform="matrix(1 0 0 -1 0 842)" d="M509.1 622.16L509.4 621.2599L511.26 621.92L510.96 622.8199" stroke="none" fill="#000000" fill-rule="nonzero" /><path id="226" transform="matrix(1 0 0 -1 0 842)" d="M500.1 648.14L499.8 649.04L501.66 649.7L501.96 648.8" stroke="none" fill="#000000" fill-rule="nonzero" /><path id="227" transform="matrix(1 0 0 -1 0 842)" d="M509.1 622.16L510.96 622.8199L501.96 648.8L500.1 648.14" stroke="none" fill="#000000" fill-rule="nonzero" /><path id="228" transform="matrix(1 0 0 -1 0 842)" d="M479.46 653L508.2 653L508.2 667.28L479.46 667.28z" stroke="none" fill="#FFFFFF" fill-rule="nonzero" /><path id="231" transform="matrix(1 0 0 -1 0 842)" d="M432.48 477.98L501.48 477.98L501.48 491.48L432.48 491.48z" stroke="none" fill="#FFFFFF" fill-rule="nonzero" /></g></g></g></g></svg>