<svg xmlns="http://www.w3.org/2000/svg" xmlns:xlink="http://www.w3.org/1999/xlink" id="body_175" preserveAspectRatio="xMinYMin meet" viewBox="0 0 793 1123"><defs><clipPath id="1"><path id="" clip-rule="evenodd" transform="matrix(1 0 0 1 0 0)" d="M0 842L0 0L0 0L595 0L595 0L595 842L595 842L0 842z" /></clipPath><clipPath id="2"><path id="" clip-rule="evenodd" transform="matrix(1 0 0 1 0 0)" d="M225.96 77.03998L400.14 77.03998L400.14 77.03998L400.14 245.9399L400.14 245.9399L225.96 245.9399z" /></clipPath><clipPath id="3"><path id="" clip-rule="evenodd" transform="matrix(1 0 0 1 0 0)" d="M224.94 76.02002L508.62 76.02002L508.62 76.02002L508.62 246.96L508.62 246.96L224.94 246.96z" /></clipPath><clipPath id="4"><path id="" clip-rule="evenodd" transform="matrix(1 0 0 1 0 0)" d="M0 0.02001953L595.2 0.02001953L595.2 0.02001953L595.2 842L595.2 842L0 842z" /></clipPath><clipPath id="5"><path id="" clip-rule="evenodd" transform="matrix(1 0 0 1 0 0)" d="M224.94 76.02002L508.62 76.02002L508.62 76.02002L508.62 246.96L508.62 246.96L224.94 246.96z" /></clipPath><clipPath id="6"><path id="" clip-rule="evenodd" transform="matrix(1 0 0 1 0 0)" d="M0 0.02001953L595.2 0.02001953L595.2 0.02001953L595.2 842L595.2 842L0 842z" /></clipPath><clipPath id="7"><path id="" clip-rule="evenodd" transform="matrix(1 0 0 1 0 0)" d="M225.96 332.94L454.2 332.94L454.2 332.94L454.2 563.88L454.2 563.88L225.96 563.88z" /></clipPath><clipPath id="8"><path id="" clip-rule="evenodd" transform="matrix(1 0 0 1 0 0)" d="M224.94 331.98L549.18 331.98L549.18 331.98L549.18 564.9L549.18 564.9L224.94 564.9z" /></clipPath><clipPath id="9"><path id="" clip-rule="evenodd" transform="matrix(1 0 0 1 0 0)" d="M0 0.02001953L595.2 0.02001953L595.2 0.02001953L595.2 842L595.2 842L0 842z" /></clipPath><clipPath id="10"><path id="" clip-rule="evenodd" transform="matrix(1 0 0 1 0 0)" d="M224.94 331.98L549.18 331.98L549.18 331.98L549.18 564.9L549.18 564.9L224.94 564.9z" /></clipPath><clipPath id="11"><path id="" clip-rule="evenodd" transform="matrix(1 0 0 1 0 0)" d="M0 0.02001953L595.2 0.02001953L595.2 0.02001953L595.2 842L595.2 842L0 842z" /></clipPath></defs><g transform="matrix(1.333333 0 0 1.333333 0 0)"><g clip-path="url(#1)"><g clip-path="url(#2)"><g clip-path="url(#3)"><g clip-path="url(#4)"><g transform="matrix(0.4785165 0 0 0.4784702 225.96 77.04004)"><g transform="matrix(1 0 0 1 0 0)"><image x="0" y="0" xlink:href="img_474.png" width="364" height="353" /></g></g></g></g></g><g clip-path="url(#5)"><g clip-path="url(#6)"><path id="235" transform="matrix(1 0 0 -1 0 842)" d="M402.66 750.26L403.14 750.26L403.08 751.28L402.6 751.28" stroke="none" fill="#000000" fill-rule="nonzero" /><path id="236" transform="matrix(1 0 0 -1 0 842)" d="M320.16 744.68L319.68 744.68L319.62 745.7L320.1 745.7" stroke="none" fill="#000000" fill-rule="nonzero" /><path id="237" transform="matrix(1 0 0 -1 0 842)" d="M402.66 750.26L402.6 751.28L320.1 745.7L320.16 744.68" stroke="none" fill="#000000" fill-rule="nonzero" /><path id="238" transform="matrix(1 0 0 -1 0 842)" d="M405.9 744.74L406.38 744.92L406.02 745.88L405.54 745.7" stroke="none" fill="#000000" fill-rule="nonzero" /><path id="239" transform="matrix(1 0 0 -1 0 842)" d="M364.62 729.08L364.14 728.9L363.78 729.86L364.26 730.04" stroke="none" fill="#000000" fill-rule="nonzero" /><path id="240" transform="matrix(1 0 0 -1 0 842)" d="M405.9 744.74L405.54 745.7L364.26 730.04L364.62 729.08" stroke="none" fill="#000000" fill-rule="nonzero" /></g></g><g clip-path="url(#7)"><g clip-path="url(#8)"><g clip-path="url(#9)"><g transform="matrix(0.4794958 0 0 0.4791287 225.96 332.94)"><g transform="matrix(1 0 0 1 0 0)"><image x="0" y="0" xlink:href="img_475.png" width="476" height="482" /></g></g></g></g></g><g clip-path="url(#10)"><g clip-path="url(#11)"><path id="256" transform="matrix(1 0 0 -1 0 842)" d="M310.56 498.2L310.92 498.5L310.26 499.28L309.9 498.98" stroke="none" fill="#000000" fill-rule="nonzero" /><path id="257" transform="matrix(1 0 0 -1 0 842)" d="M266.82 462.56L266.46 462.26L265.8 463.04L266.16 463.34" stroke="none" fill="#000000" fill-rule="nonzero" /><path id="258" transform="matrix(1 0 0 -1 0 842)" d="M310.56 498.2L309.9 498.98L266.16 463.34L266.82 462.56" stroke="none" fill="#000000" fill-rule="nonzero" /><path id="259" transform="matrix(1 0 0 -1 0 842)" d="M309.96 386.96L310.32 387.26L309.66 388.04L309.3 387.74" stroke="none" fill="#000000" fill-rule="nonzero" /><path id="260" transform="matrix(1 0 0 -1 0 842)" d="M270.6 355.7L270.24 355.4L269.58 356.18L269.94 356.48" stroke="none" fill="#000000" fill-rule="nonzero" /><path id="261" transform="matrix(1 0 0 -1 0 842)" d="M309.96 386.96L309.3 387.74L269.94 356.48L270.6 355.7" stroke="none" fill="#000000" fill-rule="nonzero" /><path id="262" transform="matrix(1 0 0 -1 0 842)" d="M365.46 389.72L364.98 389.9L364.56 388.94L365.04 388.76" stroke="none" fill="#000000" fill-rule="nonzero" /><path id="263" transform="matrix(1 0 0 -1 0 842)" d="M397.98 375.98L398.46 375.8L398.04 374.84L397.56 375.02" stroke="none" fill="#000000" fill-rule="nonzero" /><path id="264" transform="matrix(1 0 0 -1 0 842)" d="M365.46 389.72L365.04 388.76L397.56 375.02L397.98 375.98" stroke="none" fill="#000000" fill-rule="nonzero" /><path id="265" transform="matrix(1 0 0 -1 0 842)" d="M470.34 463.7L470.82 463.7L470.82 464.72L470.34 464.72z" stroke="none" fill="#000000" fill-rule="nonzero" /><path id="266" transform="matrix(1 0 0 -1 0 842)" d="M417.24 463.7L470.34 463.7L470.34 464.72L417.24 464.72z" stroke="none" fill="#000000" fill-rule="nonzero" /></g></g></g></g></svg>