<svg xmlns="http://www.w3.org/2000/svg" xmlns:xlink="http://www.w3.org/1999/xlink" id="body_249" preserveAspectRatio="xMinYMin meet" viewBox="0 0 793 1123"><defs><clipPath id="1"><path id="" clip-rule="evenodd" transform="matrix(1 0 0 1 0 0)" d="M0 842L0 0L0 0L595 0L595 0L595 842L595 842L0 842z" /></clipPath><clipPath id="2"><path id="" clip-rule="evenodd" transform="matrix(1 0 0 1 0 0)" d="M36.96 79.02002L144.48 79.02002L144.48 79.02002L144.48 216.06L144.48 216.06L36.96 216.06z" /></clipPath><clipPath id="3"><path id="" clip-rule="evenodd" transform="matrix(1 0 0 1 0 0)" d="M35.94 78.06L545.88 78.06L545.88 78.06L545.88 217.08L545.88 217.08L35.94 217.08z" /></clipPath><clipPath id="4"><path id="" clip-rule="evenodd" transform="matrix(1 0 0 1 0 0)" d="M0 0.02001953L595.2 0.02001953L595.2 0.02001953L595.2 842L595.2 842L0 842z" /></clipPath><clipPath id="5"><path id="" clip-rule="evenodd" transform="matrix(1 0 0 1 0 0)" d="M170.28 92.21997L277.8 92.21997L277.8 92.21997L277.8 202.86L277.8 202.86L170.28 202.86z" /></clipPath><clipPath id="6"><path id="" clip-rule="evenodd" transform="matrix(1 0 0 1 0 0)" d="M35.94 78.06L545.88 78.06L545.88 78.06L545.88 217.08L545.88 217.08L35.94 217.08z" /></clipPath><clipPath id="7"><path id="" clip-rule="evenodd" transform="matrix(1 0 0 1 0 0)" d="M0 0.02001953L595.2 0.02001953L595.2 0.02001953L595.2 842L595.2 842L0 842z" /></clipPath><clipPath id="8"><path id="" clip-rule="evenodd" transform="matrix(1 0 0 1 0 0)" d="M303.18 88.97998L411.66 88.97998L411.66 88.97998L411.66 206.1L411.66 206.1L303.18 206.1z" /></clipPath><clipPath id="9"><path id="" clip-rule="evenodd" transform="matrix(1 0 0 1 0 0)" d="M35.94 78.06L545.88 78.06L545.88 78.06L545.88 217.08L545.88 217.08L35.94 217.08z" /></clipPath><clipPath id="10"><path id="" clip-rule="evenodd" transform="matrix(1 0 0 1 0 0)" d="M0 0.02001953L595.2 0.02001953L595.2 0.02001953L595.2 842L595.2 842L0 842z" /></clipPath><clipPath id="11"><path id="" clip-rule="evenodd" transform="matrix(1 0 0 1 0 0)" d="M436.62 95.58002L544.86 95.58002L544.86 95.58002L544.86 199.5L544.86 199.5L436.62 199.5z" /></clipPath><clipPath id="12"><path id="" clip-rule="evenodd" transform="matrix(1 0 0 1 0 0)" d="M35.94 78.06L545.88 78.06L545.88 78.06L545.88 217.08L545.88 217.08L35.94 217.08z" /></clipPath><clipPath id="13"><path id="" clip-rule="evenodd" transform="matrix(1 0 0 1 0 0)" d="M0 0.02001953L595.2 0.02001953L595.2 0.02001953L595.2 842L595.2 842L0 842z" /></clipPath><clipPath id="14"><path id="" clip-rule="evenodd" transform="matrix(1 0 0 1 0 0)" d="M35.94 78.06L545.88 78.06L545.88 78.06L545.88 217.08L545.88 217.08L35.94 217.08z" /></clipPath><clipPath id="15"><path id="" clip-rule="evenodd" transform="matrix(1 0 0 1 0 0)" d="M0 0.02001953L595.2 0.02001953L595.2 0.02001953L595.2 842L595.2 842L0 842z" /></clipPath><clipPath id="16"><path id="" clip-rule="evenodd" transform="matrix(1 0 0 1 0 0)" d="M216.96 329.1L320.1 329.1L320.1 329.1L320.1 427.26L320.1 427.26L216.96 427.26z" /></clipPath><clipPath id="17"><path id="" clip-rule="evenodd" transform="matrix(1 0 0 1 0 0)" d="M215.94 328.08L471.84 328.08L471.84 328.08L471.84 428.28L471.84 428.28L215.94 428.28z" /></clipPath><clipPath id="18"><path id="" clip-rule="evenodd" transform="matrix(1 0 0 1 0 0)" d="M0 0.02001953L595.2 0.02001953L595.2 0.02001953L595.2 842L595.2 842L0 842z" /></clipPath><clipPath id="19"><path id="" clip-rule="evenodd" transform="matrix(1 0 0 1 0 0)" d="M345.9 329.1L470.82 329.1L470.82 329.1L470.82 413.88L470.82 413.88L345.9 413.88z" /></clipPath><clipPath id="20"><path id="" clip-rule="evenodd" transform="matrix(1 0 0 1 0 0)" d="M215.94 328.08L471.84 328.08L471.84 328.08L471.84 428.28L471.84 428.28L215.94 428.28z" /></clipPath><clipPath id="21"><path id="" clip-rule="evenodd" transform="matrix(1 0 0 1 0 0)" d="M0 0.02001953L595.2 0.02001953L595.2 0.02001953L595.2 842L595.2 842L0 842z" /></clipPath><clipPath id="22"><path id="" clip-rule="evenodd" transform="matrix(1 0 0 1 0 0)" d="M215.94 328.08L471.84 328.08L471.84 328.08L471.84 428.28L471.84 428.28L215.94 428.28z" /></clipPath><clipPath id="23"><path id="" clip-rule="evenodd" transform="matrix(1 0 0 1 0 0)" d="M0 0.02001953L595.2 0.02001953L595.2 0.02001953L595.2 842L595.2 842L0 842z" /></clipPath><clipPath id="24"><path id="" clip-rule="evenodd" transform="matrix(1 0 0 1 0 0)" d="M216.96 611.1L338.64 611.1L338.64 611.1L338.64 737.82L338.64 737.82L216.96 737.82z" /></clipPath><clipPath id="25"><path id="" clip-rule="evenodd" transform="matrix(1 0 0 1 0 0)" d="M215.94 612.24L481.56 612.24L481.56 612.24L481.56 739.2L481.56 739.2L215.94 739.2z" /></clipPath><clipPath id="26"><path id="" clip-rule="evenodd" transform="matrix(1 0 0 1 0 0)" d="M0 0.02001953L595.2 0.02001953L595.2 0.02001953L595.2 842L595.2 842L0 842z" /></clipPath><clipPath id="27"><path id="" clip-rule="evenodd" transform="matrix(1 0 0 1 0 0)" d="M378.06 610.74L480.54 610.74L480.54 610.74L480.54 738.24L480.54 738.24L378.06 738.24z" /></clipPath><clipPath id="28"><path id="" clip-rule="evenodd" transform="matrix(1 0 0 1 0 0)" d="M215.94 612.24L481.56 612.24L481.56 612.24L481.56 739.2L481.56 739.2L215.94 739.2z" /></clipPath><clipPath id="29"><path id="" clip-rule="evenodd" transform="matrix(1 0 0 1 0 0)" d="M0 0.02001953L595.2 0.02001953L595.2 0.02001953L595.2 842L595.2 842L0 842z" /></clipPath><clipPath id="30"><path id="" clip-rule="evenodd" transform="matrix(1 0 0 1 0 0)" d="M215.94 612.24L481.56 612.24L481.56 612.24L481.56 739.2L481.56 739.2L215.94 739.2z" /></clipPath><clipPath id="31"><path id="" clip-rule="evenodd" transform="matrix(1 0 0 1 0 0)" d="M0 0.02001953L595.2 0.02001953L595.2 0.02001953L595.2 842L595.2 842L0 842z" /></clipPath></defs><g transform="matrix(1.333333 0 0 1.333333 0 0)"><g clip-path="url(#1)"><g clip-path="url(#2)"><g clip-path="url(#3)"><g clip-path="url(#4)"><g transform="matrix(0.48 0 0 0.4791608 36.96 79.02002)"><g transform="matrix(1 0 0 1 0 0)"><image x="0" y="0" xlink:href="img_720.png" width="224" height="286" /></g></g></g></g></g><g clip-path="url(#5)"><g clip-path="url(#6)"><g clip-path="url(#7)"><g transform="matrix(0.48 0 0 0.4789611 170.28 92.21997)"><g transform="matrix(1 0 0 1 0 0)"><image x="0" y="0" xlink:href="img_721.png" width="224" height="231" /></g></g></g></g></g><g clip-path="url(#8)"><g clip-path="url(#9)"><g clip-path="url(#10)"><g transform="matrix(0.48 0 0 0.48 303.18 88.97998)"><g transform="matrix(1 0 0 1 0 0)"><image x="0" y="0" xlink:href="img_722.png" width="226" height="244" /></g></g></g></g></g><g clip-path="url(#11)"><g clip-path="url(#12)"><g clip-path="url(#13)"><g transform="matrix(0.478938 0 0 0.478894 436.62 95.58002)"><g transform="matrix(1 0 0 1 0 0)"><image x="0" y="0" xlink:href="img_723.png" width="226" height="217" /></g></g></g></g></g><g clip-path="url(#14)"><g clip-path="url(#15)"><path id="347" transform="matrix(1 0 0 -1 0 842)" d="M59.22 644.6L69.72 644.6L69.72 655.1L59.22 655.1z" stroke="none" fill="#FFFFFF" fill-rule="nonzero" /><path id="349" transform="matrix(1 0 0 -1 0 842)" d="M186.96 658.28L198.18 658.28L198.18 668.78L186.96 668.78z" stroke="none" fill="#FFFFFF" fill-rule="nonzero" /><path id="351" transform="matrix(1 0 0 -1 0 842)" d="M449.22 659.06L459.72 659.06L459.72 669.56L449.22 669.56z" stroke="none" fill="#FFFFFF" fill-rule="nonzero" /><path id="353" transform="matrix(1 0 0 -1 0 842)" d="M314.22 654.68L324.72 654.68L324.72 665.18L314.22 665.18z" stroke="none" fill="#FFFFFF" fill-rule="nonzero" /><path id="355" transform="matrix(1 0 0 -1 0 842)" d="M159.24 694.46L159.24 698.2401L160.02 697.76L165 694.88L165.84 694.46L165 693.98L160.02 691.1L159.24 690.62L159.24 691.58L159.48 692L164.46 694.88L165 693.98L164.46 693.98L159.48 696.86L160.02 697.76L160.26 697.34L160.26 694.46" stroke="none" fill="#000000" fill-rule="nonzero" /><path id="356" transform="matrix(1 0 0 -1 0 842)" d="M159.24 691.58L160.26 691.58L160.26 694.46L159.24 694.46z" stroke="none" fill="#000000" fill-rule="nonzero" /><path id="357" transform="matrix(1 0 0 -1 0 842)" d="M159.72 694.46L159.72 697.34L159.72 697.34L164.7 694.46L164.7 694.46L159.72 691.58" stroke="none" fill="#000000" fill-rule="evenodd" /><path id="358" transform="matrix(1 0 0 -1 0 842)" d="M147.24 693.92L147.72 693.92L147.72 694.94L147.24 694.94z" stroke="none" fill="#000000" fill-rule="nonzero" /><path id="359" transform="matrix(1 0 0 -1 0 842)" d="M147.72 693.92L159.72 693.92L159.72 694.94L147.72 694.94z" stroke="none" fill="#000000" fill-rule="nonzero" /><path id="360" transform="matrix(1 0 0 -1 0 842)" d="M293.22 694.46L293.22 698.18L293.94 697.76L298.98 694.88L299.7 694.4L298.98 693.98L293.94 691.1L293.22 690.68L293.22 691.58L293.46 692L298.5 694.88L298.98 693.98L298.5 693.98L293.46 696.86L293.94 697.76L294.24 697.34L294.24 694.46" stroke="none" fill="#000000" fill-rule="nonzero" /><path id="361" transform="matrix(1 0 0 -1 0 842)" d="M293.22 691.58L294.24 691.58L294.24 694.46L293.22 694.46z" stroke="none" fill="#000000" fill-rule="nonzero" /><path id="362" transform="matrix(1 0 0 -1 0 842)" d="M293.7 694.46L293.7 697.34L293.7 697.34L298.74 694.46L298.74 694.46L293.7 691.58" stroke="none" fill="#000000" fill-rule="evenodd" /><path id="363" transform="matrix(1 0 0 -1 0 842)" d="M281.22 693.92L281.7 693.92L281.7 694.94L281.22 694.94z" stroke="none" fill="#000000" fill-rule="nonzero" /><path id="364" transform="matrix(1 0 0 -1 0 842)" d="M281.7 693.92L293.7 693.92L293.7 694.94L281.7 694.94z" stroke="none" fill="#000000" fill-rule="nonzero" /><path id="365" transform="matrix(1 0 0 -1 0 842)" d="M427.26 694.46L427.26 698.2401L428.04 697.76L433.02 694.88L433.86 694.46L433.02 693.98L428.04 691.1L427.26 690.62L427.26 691.58L427.5 692L432.48 694.88L433.02 693.98L432.48 693.98L427.5 696.86L428.04 697.76L428.28 697.34L428.28 694.46" stroke="none" fill="#000000" fill-rule="nonzero" /><path id="366" transform="matrix(1 0 0 -1 0 842)" d="M427.26 691.58L428.28 691.58L428.28 694.46L427.26 694.46z" stroke="none" fill="#000000" fill-rule="nonzero" /><path id="367" transform="matrix(1 0 0 -1 0 842)" d="M427.74 694.46L427.74 697.34L427.74 697.34L432.72 694.46L432.72 694.46L427.74 691.58" stroke="none" fill="#000000" fill-rule="evenodd" /><path id="368" transform="matrix(1 0 0 -1 0 842)" d="M415.26 693.92L415.74 693.92L415.74 694.94L415.26 694.94z" stroke="none" fill="#000000" fill-rule="nonzero" /><path id="369" transform="matrix(1 0 0 -1 0 842)" d="M415.74 693.92L427.68 693.92L427.68 694.94L415.74 694.94z" stroke="none" fill="#000000" fill-rule="nonzero" /></g></g><g clip-path="url(#16)"><g clip-path="url(#17)"><g clip-path="url(#18)"><g transform="matrix(0.4797628 0 0 0.4788293 216.96 329.1)"><g transform="matrix(1 0 0 1 0 0)"><image x="0" y="0" xlink:href="img_724.png" width="215" height="205" /></g></g></g></g></g><g clip-path="url(#19)"><g clip-path="url(#20)"><g clip-path="url(#21)"><g transform="matrix(0.4793295 0 0 0.478983 345.9 329.1)"><g transform="matrix(1 0 0 1 0 0)"><image x="0" y="0" xlink:href="img_725.png" width="261" height="177" /></g></g></g></g></g><g clip-path="url(#22)"><g clip-path="url(#23)"><path id="414" transform="matrix(1 0 0 -1 0 842)" d="M423.36 455.78L423.72 455.54L423.72 455.54L423.9 455.48L423.9 455.48L424.26 455.48L424.26 455.48L424.44 455.54L424.44 455.54L424.8 455.78L424.8 455.78L424.92 455.9L424.92 455.9L425.04 456.26L425.04 456.26L425.1 456.5L425.1 456.5L424.92 457.04L424.92 457.04L424.8 457.16L424.8 457.16L424.44 457.4L424.44 457.4L424.26 457.46L424.26 457.46L423.9 457.46L423.9 457.46L423.72 457.4L423.72 457.4L423.36 457.16L423.36 457.16L423.24 457.04L423.24 457.04L423.12 456.86L423.12 456.86L423.12 456.68L423.12 456.68L423.06 456.5L423.06 456.5L423.12 456.26L423.12 456.26L423.12 456.08L423.12 456.08L423.24 455.9L423.24 455.9L423.36 455.78" stroke="none" fill="#FF0000" fill-rule="evenodd" /><path id="415" transform="matrix(1 0 0 -1 0 842)" d="M424.08 456.5L427.26 453.32L426.42 453.08L419.4 451.16L418.5 450.98L418.74 451.76L420.6 458.78L420.84 459.62L421.5 459.02L421.62 458.54L419.76 451.52L418.74 451.76L419.1 452.12L426.12 454.04L426.42 453.08L425.94 453.2L423.36 455.78" stroke="none" fill="#FF0000" fill-rule="nonzero" /><path id="416" transform="matrix(1 0 0 -1 0 842)" d="M421.5 459.02L424.08 456.5L423.36 455.78L420.78 458.3" stroke="none" fill="#FF0000" fill-rule="nonzero" /><path id="417" transform="matrix(1 0 0 -1 0 842)" d="M423.72 456.14L426.3 453.56L426.3 453.56L419.28 451.64L419.28 451.64L421.14 458.66" stroke="none" fill="#FF0000" fill-rule="evenodd" /><path id="418" transform="matrix(1 0 0 -1 0 842)" d="M423.42 457.16L422.76 456.5L424.14 455.12L424.8 455.78" stroke="none" fill="#FF0000" fill-rule="nonzero" /><path id="419" transform="matrix(1 0 0 -1 0 842)" d="M446.58 480.32L447.24 480.98L448.62 479.6L447.96 478.94" stroke="none" fill="#FF0000" fill-rule="nonzero" /><path id="420" transform="matrix(1 0 0 -1 0 842)" d="M423.42 457.16L424.8 455.78L447.96 478.94L446.58 480.32" stroke="none" fill="#FF0000" fill-rule="nonzero" /><path id="421" transform="matrix(1 0 0 -1 0 842)" d="M427.98 481.76L428.1 481.64L428.1 481.64L428.64 481.46L428.64 481.46L428.88 481.52L428.88 481.52L429.24 481.64L429.24 481.64L429.36 481.76L429.36 481.76L429.6 482.12L429.6 482.12L429.66 482.3L429.66 482.3L429.66 482.66L429.66 482.66L429.6 482.84L429.6 482.84L429.36 483.2L429.36 483.2L429.24 483.32L429.24 483.32L428.88 483.44L428.88 483.44L428.64 483.5L428.64 483.5L428.1 483.32L428.1 483.32L427.8 483.02L427.8 483.02L427.68 482.66L427.68 482.66L427.68 482.3L427.68 482.3L427.74 482.12L427.74 482.12L427.8 481.94L427.8 481.94L427.98 481.76" stroke="none" fill="#FF0000" fill-rule="evenodd" /><path id="422" transform="matrix(1 0 0 -1 0 842)" d="M428.7 482.48L431.22 479.9L431.76 479.24L430.92 479.06L423.9 477.2L423.06 476.9L423.36 477.86L425.28 484.88L425.46 485.66L426.12 485.06L426.24 484.58L424.32 477.56L423.36 477.86L423.66 478.16L430.68 480.02L430.92 479.06L430.5 479.18L427.98 481.76" stroke="none" fill="#FF0000" fill-rule="nonzero" /><path id="423" transform="matrix(1 0 0 -1 0 842)" d="M426.12 485.06L428.7 482.48L427.98 481.76L425.4 484.34" stroke="none" fill="#FF0000" fill-rule="nonzero" /><path id="424" transform="matrix(1 0 0 -1 0 842)" d="M428.34 482.12L430.86 479.54L430.86 479.54L423.84 477.68L423.84 477.68L425.76 484.7" stroke="none" fill="#FF0000" fill-rule="evenodd" /><path id="425" transform="matrix(1 0 0 -1 0 842)" d="M427.98 483.14L427.32 482.48L428.7 481.1L429.36 481.76" stroke="none" fill="#FF0000" fill-rule="nonzero" /><path id="426" transform="matrix(1 0 0 -1 0 842)" d="M451.2 506.3L451.86 506.96L453.24 505.58L452.58 504.92" stroke="none" fill="#FF0000" fill-rule="nonzero" /><path id="427" transform="matrix(1 0 0 -1 0 842)" d="M427.98 483.14L429.36 481.76L452.58 504.92L451.2 506.3" stroke="none" fill="#FF0000" fill-rule="nonzero" /><path id="428" transform="matrix(1 0 0 -1 0 842)" d="M418.8 486.38L418.92 486.26L418.92 486.26L419.1 486.14L419.1 486.14L419.28 486.08L419.28 486.08L419.7 486.08L419.7 486.08L419.88 486.14L419.88 486.14L420.06 486.26L420.06 486.26L420.3 486.5L420.3 486.5L420.42 486.68L420.42 486.68L420.48 486.86L420.48 486.86L420.48 487.28L420.48 487.28L420.42 487.46L420.42 487.46L420.3 487.64L420.3 487.64L420.06 487.88L420.06 487.88L419.88 488L419.88 488L419.7 488.06L419.7 488.06L419.28 488.06L419.28 488.06L419.1 488L419.1 488L418.92 487.88L418.92 487.88L418.8 487.76L418.8 487.76L418.62 487.64L418.62 487.64L418.5 487.28L418.5 487.28L418.5 486.86L418.5 486.86L418.62 486.5L418.62 486.5L418.8 486.38" stroke="none" fill="#FF0000" fill-rule="evenodd" /><path id="429" transform="matrix(1 0 0 -1 0 842)" d="M419.52 487.1L422.04 484.52L422.64 483.92L421.8 483.68L414.78 481.76L413.88 481.46L414.18 482.42L416.1 489.44L416.28 490.22L416.94 489.62L417.06 489.14L415.14 482.12L414.18 482.42L414.48 482.72L421.5 484.64L421.8 483.68L421.32 483.8L418.8 486.38" stroke="none" fill="#FF0000" fill-rule="nonzero" /><path id="430" transform="matrix(1 0 0 -1 0 842)" d="M416.94 489.62L419.52 487.1L418.8 486.38L416.22 488.9" stroke="none" fill="#FF0000" fill-rule="nonzero" /><path id="431" transform="matrix(1 0 0 -1 0 842)" d="M419.16 486.74L421.68 484.16L421.68 484.16L414.66 482.24L414.66 482.24L416.58 489.26" stroke="none" fill="#FF0000" fill-rule="evenodd" /><path id="432" transform="matrix(1 0 0 -1 0 842)" d="M418.8 487.76L418.14 487.1L419.52 485.72L420.18 486.38" stroke="none" fill="#FF0000" fill-rule="nonzero" /><path id="433" transform="matrix(1 0 0 -1 0 842)" d="M442.02 510.92L442.68 511.58L444.06 510.2L443.4 509.54" stroke="none" fill="#FF0000" fill-rule="nonzero" /><path id="434" transform="matrix(1 0 0 -1 0 842)" d="M418.8 487.76L420.18 486.38L443.4 509.54L442.02 510.92" stroke="none" fill="#FF0000" fill-rule="nonzero" /></g></g><g clip-path="url(#24)"><g clip-path="url(#25)"><g clip-path="url(#26)"><g transform="matrix(0.4790551 0 0 0.4781887 216.96 611.1)"><g transform="matrix(1 0 0 1 0 0)"><image x="0" y="0" xlink:href="img_726.png" width="254" height="265" /></g></g></g></g></g><g clip-path="url(#27)"><g clip-path="url(#28)"><g clip-path="url(#29)"><g transform="matrix(0.4797897 0 0 0.4793233 378.06 610.74)"><g transform="matrix(1 0 0 1 0 0)"><image x="0" y="0" xlink:href="img_727.png" width="214" height="266" /></g></g></g></g></g><g clip-path="url(#30)"><g clip-path="url(#31)"><path id="437" transform="matrix(1 0 0 -1 0 842)" d="M366.66 167.54L366.66 167.72L366.66 167.72L366.6 167.9L366.6 167.9L366.36 168.26L366.36 168.26L366.24 168.38L366.24 168.38L365.7 168.56L365.7 168.56L365.46 168.5L365.46 168.5L365.1 168.38L365.1 168.38L364.98 168.26L364.98 168.26L364.74 167.9L364.74 167.9L364.68 167.72L364.68 167.72L364.68 167.36L364.68 167.36L364.74 167.12L364.74 167.12L364.86 167L364.86 167L364.98 166.82L364.98 166.82L365.1 166.7L365.1 166.7L365.46 166.58L365.46 166.58L365.7 166.52L365.7 166.52L366.24 166.7L366.24 166.7L366.36 166.82L366.36 166.82L366.48 167L366.48 167L366.6 167.12L366.6 167.12L366.66 167.36L366.66 167.36L366.66 167.54" stroke="none" fill="#000000" fill-rule="evenodd" /><path id="438" transform="matrix(1 0 0 -1 0 842)" d="M365.7 167.54L365.7 171.98L366.42 171.56L372.72 167.96L373.5 167.48L372.78 167.06L366.48 163.4L365.7 162.92L365.7 163.88L365.94 164.3L372.24 167.96L372.78 167.06L372.24 167.06L365.94 170.66L366.42 171.56L366.72 171.14L366.72 167.54" stroke="none" fill="#000000" fill-rule="nonzero" /><path id="439" transform="matrix(1 0 0 -1 0 842)" d="M365.7 163.88L366.72 163.88L366.72 167.54L365.7 167.54z" stroke="none" fill="#000000" fill-rule="nonzero" /><path id="440" transform="matrix(1 0 0 -1 0 842)" d="M366.18 167.54L366.18 171.14L366.18 171.14L372.48 167.54L372.48 167.54L366.18 163.88" stroke="none" fill="#000000" fill-rule="evenodd" /><path id="441" transform="matrix(1 0 0 -1 0 842)" d="M342.48 166.52L343.44 166.52L343.44 168.5L342.48 168.5z" stroke="none" fill="#000000" fill-rule="nonzero" /><path id="442" transform="matrix(1 0 0 -1 0 842)" d="M343.44 166.52L366.66 166.52L366.66 168.5L343.44 168.5z" stroke="none" fill="#000000" fill-rule="nonzero" /></g></g></g></g></svg>