<svg xmlns="http://www.w3.org/2000/svg" xmlns:xlink="http://www.w3.org/1999/xlink" id="body_212" preserveAspectRatio="xMinYMin meet" viewBox="0 0 793 1123"><defs><clipPath id="1"><path id="" clip-rule="evenodd" transform="matrix(1 0 0 1 0 0)" d="M0 842L0 0L0 0L595 0L595 0L595 842L595 842L0 842z" /></clipPath><clipPath id="2"><path id="" clip-rule="evenodd" transform="matrix(1 0 0 1 0 0)" d="M45.96 159L185.52 159L185.52 159L185.52 336.12L185.52 336.12L45.96 336.12z" /></clipPath><clipPath id="3"><path id="" clip-rule="evenodd" transform="matrix(1 0 0 1 0 0)" d="M44.94 157.98L519.6 157.98L519.6 157.98L519.6 337.14L519.6 337.14L44.94 337.14z" /></clipPath><clipPath id="4"><path id="" clip-rule="evenodd" transform="matrix(1 0 0 1 0 0)" d="M0 0.02001953L595.2 0.02001953L595.2 0.02001953L595.2 842L595.2 842L0 842z" /></clipPath><clipPath id="5"><path id="" clip-rule="evenodd" transform="matrix(1 0 0 1 0 0)" d="M218.88 162.48L369.18 162.48L369.18 162.48L369.18 334.26L369.18 334.26L218.88 334.26z" /></clipPath><clipPath id="6"><path id="" clip-rule="evenodd" transform="matrix(1 0 0 1 0 0)" d="M44.94 157.98L519.6 157.98L519.6 157.98L519.6 337.14L519.6 337.14L44.94 337.14z" /></clipPath><clipPath id="7"><path id="" clip-rule="evenodd" transform="matrix(1 0 0 1 0 0)" d="M0 0.02001953L595.2 0.02001953L595.2 0.02001953L595.2 842L595.2 842L0 842z" /></clipPath><clipPath id="8"><path id="" clip-rule="evenodd" transform="matrix(1 0 0 1 0 0)" d="M44.94 157.98L519.6 157.98L519.6 157.98L519.6 337.14L519.6 337.14L44.94 337.14z" /></clipPath><clipPath id="9"><path id="" clip-rule="evenodd" transform="matrix(1 0 0 1 0 0)" d="M0 0.02001953L595.2 0.02001953L595.2 0.02001953L595.2 842L595.2 842L0 842z" /></clipPath><clipPath id="10"><path id="" clip-rule="evenodd" transform="matrix(1 0 0 1 0 0)" d="M406.02 160.62L518.64 160.62L518.64 160.62L518.64 334.5L518.64 334.5L406.02 334.5z" /></clipPath><clipPath id="11"><path id="" clip-rule="evenodd" transform="matrix(1 0 0 1 0 0)" d="M44.94 157.98L519.6 157.98L519.6 157.98L519.6 337.14L519.6 337.14L44.94 337.14z" /></clipPath><clipPath id="12"><path id="" clip-rule="evenodd" transform="matrix(1 0 0 1 0 0)" d="M0 0.02001953L595.2 0.02001953L595.2 0.02001953L595.2 842L595.2 842L0 842z" /></clipPath><clipPath id="13"><path id="" clip-rule="evenodd" transform="matrix(1 0 0 1 0 0)" d="M44.94 157.98L519.6 157.98L519.6 157.98L519.6 337.14L519.6 337.14L44.94 337.14z" /></clipPath><clipPath id="14"><path id="" clip-rule="evenodd" transform="matrix(1 0 0 1 0 0)" d="M0 0.02001953L595.2 0.02001953L595.2 0.02001953L595.2 842L595.2 842L0 842z" /></clipPath><clipPath id="15"><path id="" clip-rule="evenodd" transform="matrix(1 0 0 1 0 0)" d="M225.96 463.14L397.02 463.14L397.02 463.14L397.02 633.18L397.02 633.18L225.96 633.18z" /></clipPath><clipPath id="16"><path id="" clip-rule="evenodd" transform="matrix(1 0 0 1 0 0)" d="M224.94 462.12L398.04 462.12L398.04 462.12L398.04 634.2L398.04 634.2L224.94 634.2z" /></clipPath><clipPath id="17"><path id="" clip-rule="evenodd" transform="matrix(1 0 0 1 0 0)" d="M0 0.02001953L595.2 0.02001953L595.2 0.02001953L595.2 842L595.2 842L0 842z" /></clipPath><clipPath id="18"><path id="" clip-rule="evenodd" transform="matrix(1 0 0 1 0 0)" d="M224.94 462.12L398.04 462.12L398.04 462.12L398.04 634.2L398.04 634.2L224.94 634.2z" /></clipPath><clipPath id="19"><path id="" clip-rule="evenodd" transform="matrix(1 0 0 1 0 0)" d="M0 0.02001953L595.2 0.02001953L595.2 0.02001953L595.2 842L595.2 842L0 842z" /></clipPath></defs><g transform="matrix(1.333333 0 0 1.333333 0 0)"><g clip-path="url(#1)"><g clip-path="url(#2)"><g clip-path="url(#3)"><g clip-path="url(#4)"><g transform="matrix(0.4796289 0 0 0.4787027 45.96 159)"><g transform="matrix(1 0 0 1 0 0)"><image x="0" y="0" xlink:href="img_564.png" width="291" height="370" /></g></g></g></g></g><g clip-path="url(#5)"><g clip-path="url(#6)"><g clip-path="url(#7)"><g transform="matrix(0.4801949 0 0 0.4798324 218.88 162.48)"><g transform="matrix(1 0 0 1 0 0)"><image x="0" y="0" xlink:href="img_565.png" width="313" height="358" /></g></g></g></g></g><g clip-path="url(#8)"><g clip-path="url(#9)"><path id="453" transform="matrix(1 0 0 -1 0 842)" d="M315.12 657.5L314.88 657.5L314.88 657.5L314.7 657.44L314.7 657.44L314.52 657.32L314.52 657.32L314.28 657.08L314.28 657.08L314.16 656.9L314.16 656.9L314.1 656.72L314.1 656.72L314.1 656.3L314.1 656.3L314.16 656.12L314.16 656.12L314.4 655.76L314.4 655.76L314.52 655.64L314.52 655.64L314.88 655.52L314.88 655.52L315.3 655.52L315.3 655.52L315.66 655.64L315.66 655.64L315.84 655.76L315.84 655.76L315.96 655.94L315.96 655.94L316.08 656.3L316.08 656.3L316.08 656.72L316.08 656.72L315.96 657.08L315.96 657.08L315.84 657.2L315.84 657.2L315.48 657.44L315.48 657.44L315.3 657.5L315.3 657.5L315.12 657.5" stroke="none" fill="#000000" fill-rule="evenodd" /><path id="454" transform="matrix(1 0 0 -1 0 842)" d="M315.12 656.54L310.56 656.54L311.04 657.32L314.7 663.62L315.12 664.4L319.2 657.2599L319.62 656.54L318.72 656.54L318.3 656.78L314.7 663.08L315.6 663.56L315.6 663.08L311.94 656.78L311.04 657.32L311.46 657.56L315.12 657.56" stroke="none" fill="#000000" fill-rule="nonzero" /><path id="455" transform="matrix(1 0 0 -1 0 842)" d="M315.12 656.54L318.72 656.54L318.72 657.56L315.12 657.56z" stroke="none" fill="#000000" fill-rule="nonzero" /><path id="456" transform="matrix(1 0 0 -1 0 842)" d="M315.12 657.02L311.46 657.02L311.46 657.02L315.12 663.32L315.12 663.32L318.72 657.02" stroke="none" fill="#000000" fill-rule="evenodd" /><path id="457" transform="matrix(1 0 0 -1 0 842)" d="M314.16 629.72L316.14 629.72L316.14 657.4399L314.16 657.4399z" stroke="none" fill="#000000" fill-rule="nonzero" /><path id="458" transform="matrix(1 0 0 -1 0 842)" d="M335.1 674.3L334.92 674.3L334.92 674.3L334.74 674.24L334.74 674.24L334.38 674L334.38 674L334.26 673.88L334.26 673.88L334.14 673.52L334.14 673.52L334.08 673.28L334.08 673.28L334.26 672.74L334.26 672.74L334.38 672.56L334.38 672.56L334.56 672.44L334.56 672.44L334.92 672.32L334.92 672.32L335.28 672.32L335.28 672.32L335.52 672.38L335.52 672.38L335.64 672.44L335.64 672.44L335.82 672.56L335.82 672.56L335.94 672.74L335.94 672.74L336.06 673.1L336.06 673.1L336.12 673.28L336.12 673.28L336.06 673.52L336.06 673.52L335.94 673.88L335.94 673.88L335.82 674L335.82 674L335.64 674.12L335.64 674.12L335.52 674.24L335.52 674.24L335.28 674.3L335.28 674.3L335.1 674.3" stroke="none" fill="#000000" fill-rule="evenodd" /><path id="459" transform="matrix(1 0 0 -1 0 842)" d="M335.1 673.34L330.66 673.34L331.08 674.06L334.68 680.36L335.16 681.14L335.58 680.42L339.24 674.1201L339.72 673.34L338.76 673.34L338.34 673.58L334.68 679.88L335.58 680.42L335.58 679.88L331.98 673.58L331.08 674.06L331.5 674.36L335.1 674.36" stroke="none" fill="#000000" fill-rule="nonzero" /><path id="460" transform="matrix(1 0 0 -1 0 842)" d="M335.1 673.34L338.76 673.34L338.76 674.36L335.1 674.36z" stroke="none" fill="#000000" fill-rule="nonzero" /><path id="461" transform="matrix(1 0 0 -1 0 842)" d="M335.1 673.82L331.5 673.82L331.5 673.82L335.1 680.12L335.1 680.12L338.76 673.82" stroke="none" fill="#000000" fill-rule="evenodd" /><path id="462" transform="matrix(1 0 0 -1 0 842)" d="M334.14 669.32L336.12 669.32L336.12 674.24L334.14 674.24z" stroke="none" fill="#000000" fill-rule="nonzero" /></g></g><g clip-path="url(#10)"><g clip-path="url(#11)"><g clip-path="url(#12)"><g transform="matrix(0.4792553 0 0 0.4790083 406.02 160.62)"><g transform="matrix(1 0 0 1 0 0)"><image x="0" y="0" xlink:href="img_566.png" width="235" height="363" /></g></g></g></g></g><g clip-path="url(#13)"><g clip-path="url(#14)"><path id="464" transform="matrix(1 0 0 -1 0 842)" d="M210.18 599.18L210.12 599.36L210.12 599.36L210.06 599.6L210.06 599.6L210 599.72L210 599.72L209.88 599.9L209.88 599.9L209.7 600.02L209.7 600.02L209.58 600.08L209.58 600.08L209.34 600.14L209.34 600.14L209.16 600.2L209.16 600.2L208.62 600.02L208.62 600.02L208.44 599.9L208.44 599.9L208.32 599.72L208.32 599.72L208.26 599.6L208.26 599.6L208.2 599.36L208.2 599.36L208.14 599.18L208.14 599.18L208.32 598.64L208.32 598.64L208.44 598.46L208.44 598.46L208.62 598.34L208.62 598.34L209.16 598.16L209.16 598.16L209.34 598.22L209.34 598.22L209.58 598.28L209.58 598.28L209.7 598.34L209.7 598.34L209.88 598.46L209.88 598.46L210 598.64L210 598.64L210.06 598.82L210.06 598.82L210.18 599.18" stroke="none" fill="#000000" fill-rule="evenodd" /><path id="465" transform="matrix(1 0 0 -1 0 842)" d="M209.16 599.18L209.16 603.74L209.94 603.26L216.24 599.6L217.02 599.18L209.88 595.1L209.16 594.68L209.16 595.58L209.4 596L215.7 599.6L216.18 598.7L215.7 598.7L209.4 602.36L209.94 603.26L210.18 602.84L210.18 599.18" stroke="none" fill="#000000" fill-rule="nonzero" /><path id="466" transform="matrix(1 0 0 -1 0 842)" d="M209.16 595.58L210.18 595.58L210.18 599.18L209.16 599.18z" stroke="none" fill="#000000" fill-rule="nonzero" /><path id="467" transform="matrix(1 0 0 -1 0 842)" d="M209.64 599.18L209.64 602.84L209.64 602.84L215.94 599.18L215.94 599.18L209.64 595.58" stroke="none" fill="#000000" fill-rule="evenodd" /><path id="468" transform="matrix(1 0 0 -1 0 842)" d="M186.72 598.16L187.68 598.16L187.68 600.14L186.72 600.14z" stroke="none" fill="#000000" fill-rule="nonzero" /><path id="469" transform="matrix(1 0 0 -1 0 842)" d="M187.68 598.16L210.12 598.16L210.12 600.14L187.68 600.14z" stroke="none" fill="#000000" fill-rule="nonzero" /><path id="470" transform="matrix(1 0 0 -1 0 842)" d="M394.2 599.18L394.14 599.36L394.14 599.36L394.08 599.6L394.08 599.6L394.02 599.72L394.02 599.72L393.9 599.9L393.9 599.9L393.72 600.02L393.72 600.02L393.18 600.2L393.18 600.2L393 600.14L393 600.14L392.76 600.08L392.76 600.08L392.64 600.02L392.64 600.02L392.46 599.9L392.46 599.9L392.34 599.72L392.34 599.72L392.28 599.6L392.28 599.6L392.22 599.36L392.22 599.36L392.16 599.18L392.16 599.18L392.34 598.64L392.34 598.64L392.46 598.46L392.46 598.46L392.64 598.34L392.64 598.34L392.76 598.28L392.76 598.28L393 598.22L393 598.22L393.18 598.16L393.18 598.16L393.72 598.34L393.72 598.34L393.9 598.46L393.9 598.46L394.02 598.64L394.02 598.64L394.2 599.18" stroke="none" fill="#000000" fill-rule="evenodd" /><path id="471" transform="matrix(1 0 0 -1 0 842)" d="M393.18 599.18L393.18 603.74L393.96 603.26L400.26 599.6L401.04 599.18L393.9 595.1L393.18 594.68L393.18 595.58L393.42 596L399.72 599.6L400.2 598.7L399.72 598.7L393.42 602.36L393.96 603.26L394.2 602.84L394.2 599.18" stroke="none" fill="#000000" fill-rule="nonzero" /><path id="472" transform="matrix(1 0 0 -1 0 842)" d="M393.18 595.58L394.2 595.58L394.2 599.18L393.18 599.18z" stroke="none" fill="#000000" fill-rule="nonzero" /><path id="473" transform="matrix(1 0 0 -1 0 842)" d="M393.66 599.18L393.66 602.84L393.66 602.84L399.96 599.18L399.96 599.18L393.66 595.58" stroke="none" fill="#000000" fill-rule="evenodd" /><path id="474" transform="matrix(1 0 0 -1 0 842)" d="M370.74 598.16L371.7 598.16L371.7 600.14L370.74 600.14z" stroke="none" fill="#000000" fill-rule="nonzero" /><path id="475" transform="matrix(1 0 0 -1 0 842)" d="M371.7 598.16L394.14 598.16L394.14 600.14L371.7 600.14z" stroke="none" fill="#000000" fill-rule="nonzero" /><path id="476" transform="matrix(1 0 0 -1 0 842)" d="M485.76 523.28L486 522.32L487.92 522.8L487.68 523.76" stroke="none" fill="#000000" fill-rule="nonzero" /><path id="477" transform="matrix(1 0 0 -1 0 842)" d="M458.76 632L458.52 632.96L460.44 633.44L460.68 632.48" stroke="none" fill="#000000" fill-rule="nonzero" /><path id="478" transform="matrix(1 0 0 -1 0 842)" d="M485.76 523.28L487.68 523.76L460.68 632.48L458.76 632" stroke="none" fill="#000000" fill-rule="nonzero" /><path id="479" transform="matrix(1 0 0 -1 0 842)" d="M435.96 634.22L484.74 634.22L484.74 657.5L435.96 657.5z" stroke="none" fill="#FFFFFF" fill-rule="nonzero" /><path id="487" transform="matrix(1 0 0 -1 0 842)" d="M117.72 668.96L117.48 668.96L117.48 668.96L117.3 668.9L117.3 668.9L117.12 668.78L117.12 668.78L116.88 668.54L116.88 668.54L116.76 668.36L116.76 668.36L116.7 668.18L116.7 668.18L116.7 667.76L116.7 667.76L116.76 667.58L116.76 667.58L116.88 667.4L116.88 667.4L117 667.22L117 667.22L117.12 667.1L117.12 667.1L117.48 666.98L117.48 666.98L117.9 666.98L117.9 666.98L118.26 667.1L118.26 667.1L118.44 667.22L118.44 667.22L118.56 667.4L118.56 667.4L118.62 667.58L118.62 667.58L118.68 667.76L118.68 667.76L118.68 668.18L118.68 668.18L118.56 668.54L118.56 668.54L118.44 668.66L118.44 668.66L118.08 668.9L118.08 668.9L117.9 668.96L117.9 668.96L117.72 668.96" stroke="none" fill="#000000" fill-rule="evenodd" /><path id="488" transform="matrix(1 0 0 -1 0 842)" d="M117.72 668L113.16 668L113.64 668.78L117.3 675.02L117.72 675.8L118.2 674.96L121.8 668.72L122.22 668L121.32 668L120.9 668.24L117.3 674.48L118.2 674.96L118.2 674.48L114.54 668.24L113.64 668.78L114.06 669.02L117.72 669.02" stroke="none" fill="#000000" fill-rule="nonzero" /><path id="489" transform="matrix(1 0 0 -1 0 842)" d="M117.72 668L121.32 668L121.32 669.02L117.72 669.02z" stroke="none" fill="#000000" fill-rule="nonzero" /><path id="490" transform="matrix(1 0 0 -1 0 842)" d="M117.72 668.48L114.06 668.48L114.06 668.48L117.72 674.72L117.72 674.72L121.32 668.48" stroke="none" fill="#000000" fill-rule="evenodd" /><path id="491" transform="matrix(1 0 0 -1 0 842)" d="M116.76 650.78L118.74 650.78L118.74 651.7401L116.76 651.7401z" stroke="none" fill="#000000" fill-rule="nonzero" /><path id="492" transform="matrix(1 0 0 -1 0 842)" d="M116.76 651.74L118.74 651.74L118.74 668.9L116.76 668.9z" stroke="none" fill="#000000" fill-rule="nonzero" /><path id="493" transform="matrix(1 0 0 -1 0 842)" d="M219.72 662.24L304.56 662.24L304.56 675.26L219.72 675.26z" stroke="none" fill="#FFFFFF" fill-rule="nonzero" /><path id="502" transform="matrix(1 0 0 -1 0 842)" d="M304.02 670.7L304.98 670.7L304.98 672.68L304.02 672.68z" stroke="none" fill="#000000" fill-rule="nonzero" /><path id="503" transform="matrix(1 0 0 -1 0 842)" d="M304.98 670.7L314.4 670.7L314.4 672.68L304.98 672.68z" stroke="none" fill="#000000" fill-rule="nonzero" /></g></g><g clip-path="url(#15)"><g clip-path="url(#16)"><g clip-path="url(#17)"><g transform="matrix(0.4797675 0 0 0.4789859 225.96 463.14)"><g transform="matrix(1 0 0 1 0 0)"><image x="0" y="0" xlink:href="img_567.png" width="357" height="355" /></g></g></g></g></g><g clip-path="url(#18)"><g clip-path="url(#19)"><path id="526" transform="matrix(1 0 0 -1 0 842)" d="M299.7 259.94L299.94 259.94L299.94 259.94L300.12 260L300.12 260L300.3 260.12L300.3 260.12L300.54 260.36L300.54 260.36L300.66 260.54L300.66 260.54L300.72 260.72L300.72 260.72L300.72 261.14L300.72 261.14L300.66 261.32L300.66 261.32L300.54 261.5L300.54 261.5L300.3 261.74L300.3 261.74L300.12 261.86L300.12 261.86L299.94 261.92L299.94 261.92L299.52 261.92L299.52 261.92L299.34 261.86L299.34 261.86L298.98 261.62L298.98 261.62L298.86 261.5L298.86 261.5L298.8 261.32L298.8 261.32L298.74 261.14L298.74 261.14L298.74 260.72L298.74 260.72L298.86 260.36L298.86 260.36L298.98 260.24L298.98 260.24L299.34 260L299.34 260L299.52 259.94L299.52 259.94L299.7 259.94" stroke="none" fill="#000000" fill-rule="evenodd" /><path id="527" transform="matrix(1 0 0 -1 0 842)" d="M299.7 260.9L304.26 260.9L303.78 260.12L300.12 253.82L299.7 253.04L295.62 260.18L295.2 260.9L296.1 260.9L296.52 260.66L300.12 254.36L299.22 253.88L299.22 254.36L302.88 260.66L303.78 260.12L303.36 259.88L299.7 259.88" stroke="none" fill="#000000" fill-rule="nonzero" /><path id="528" transform="matrix(1 0 0 -1 0 842)" d="M296.1 259.88L299.7 259.88L299.7 260.9L296.1 260.9z" stroke="none" fill="#000000" fill-rule="nonzero" /><path id="529" transform="matrix(1 0 0 -1 0 842)" d="M299.7 260.42L303.36 260.42L303.36 260.42L299.7 254.12L299.7 254.12L296.1 260.42" stroke="none" fill="#000000" fill-rule="evenodd" /><path id="530" transform="matrix(1 0 0 -1 0 842)" d="M298.74 280.16L300.72 280.16L300.72 281.12L298.74 281.12z" stroke="none" fill="#000000" fill-rule="nonzero" /><path id="531" transform="matrix(1 0 0 -1 0 842)" d="M298.74 259.94L300.72 259.94L300.72 280.16L298.74 280.16z" stroke="none" fill="#000000" fill-rule="nonzero" /><path id="532" transform="matrix(1 0 0 -1 0 842)" d="M389.94 269.9L390.18 269.96L390.18 269.96L390.54 270.08L390.54 270.08L390.66 270.2L390.66 270.2L390.9 270.56L390.9 270.56L390.96 270.74L390.96 270.74L390.96 271.1L390.96 271.1L390.9 271.34L390.9 271.34L390.78 271.46L390.78 271.46L390.66 271.64L390.66 271.64L390.54 271.76L390.54 271.76L390.18 271.88L390.18 271.88L389.94 271.94L389.94 271.94L389.4 271.76L389.4 271.76L389.28 271.64L389.28 271.64L389.16 271.46L389.16 271.46L389.04 271.34L389.04 271.34L388.98 271.1L388.98 271.1L388.98 270.74L388.98 270.74L389.04 270.56L389.04 270.56L389.28 270.2L389.28 270.2L389.4 270.08L389.4 270.08L389.94 269.9" stroke="none" fill="#000000" fill-rule="evenodd" /><path id="533" transform="matrix(1 0 0 -1 0 842)" d="M389.94 270.92L394.5 270.92L394.02 270.14L390.36 263.84L389.94 263.06L385.86 270.2L385.44 270.92L386.34 270.92L386.76 270.68L390.36 264.38L389.46 263.9L389.46 264.38L393.12 270.68L394.02 270.14L393.6 269.9L389.94 269.9" stroke="none" fill="#000000" fill-rule="nonzero" /><path id="534" transform="matrix(1 0 0 -1 0 842)" d="M386.34 269.9L389.94 269.9L389.94 270.92L386.34 270.92z" stroke="none" fill="#000000" fill-rule="nonzero" /><path id="535" transform="matrix(1 0 0 -1 0 842)" d="M389.94 270.44L393.6 270.44L393.6 270.44L389.94 264.14L389.94 264.14L386.34 270.44" stroke="none" fill="#000000" fill-rule="evenodd" /><path id="536" transform="matrix(1 0 0 -1 0 842)" d="M388.98 298.4L390.96 298.4L390.96 299.36L388.98 299.36z" stroke="none" fill="#000000" fill-rule="nonzero" /><path id="537" transform="matrix(1 0 0 -1 0 842)" d="M388.98 269.96L390.96 269.96L390.96 298.4L388.98 298.4z" stroke="none" fill="#000000" fill-rule="nonzero" /><path id="538" transform="matrix(1 0 0 -1 0 842)" d="M369.72 248.9L370.26 249.08L370.26 249.08L370.44 249.2L370.44 249.2L370.56 249.38L370.56 249.38L370.74 249.92L370.74 249.92L370.68 250.1L370.68 250.1L370.62 250.34L370.62 250.34L370.56 250.46L370.56 250.46L370.44 250.64L370.44 250.64L370.26 250.76L370.26 250.76L369.72 250.94L369.72 250.94L369.54 250.88L369.54 250.88L369.3 250.82L369.3 250.82L369.18 250.76L369.18 250.76L369 250.64L369 250.64L368.88 250.46L368.88 250.46L368.82 250.34L368.82 250.34L368.76 250.1L368.76 250.1L368.7 249.92L368.7 249.92L368.88 249.38L368.88 249.38L369 249.2L369 249.2L369.18 249.08L369.18 249.08L369.3 249.02L369.3 249.02L369.54 248.96L369.54 248.96L369.72 248.9" stroke="none" fill="#000000" fill-rule="evenodd" /><path id="539" transform="matrix(1 0 0 -1 0 842)" d="M369.72 249.92L374.28 249.92L373.8 249.14L370.14 242.84L369.72 242L369.24 242.84L365.58 249.14L365.1 249.92L366.06 249.92L366.48 249.68L370.14 243.38L369.24 242.84L369.24 243.38L372.9 249.68L373.8 249.14L373.38 248.9L369.72 248.9" stroke="none" fill="#000000" fill-rule="nonzero" /><path id="540" transform="matrix(1 0 0 -1 0 842)" d="M366.06 248.9L369.72 248.9L369.72 249.92L366.06 249.92z" stroke="none" fill="#000000" fill-rule="nonzero" /><path id="541" transform="matrix(1 0 0 -1 0 842)" d="M369.72 249.44L373.38 249.44L373.38 249.44L369.72 243.14L369.72 243.14L366.06 249.44" stroke="none" fill="#000000" fill-rule="evenodd" /><path id="542" transform="matrix(1 0 0 -1 0 842)" d="M368.76 281.12L370.74 281.12L370.74 282.08L368.76 282.08z" stroke="none" fill="#000000" fill-rule="nonzero" /><path id="543" transform="matrix(1 0 0 -1 0 842)" d="M368.76 248.96L370.74 248.96L370.74 281.12L368.76 281.12z" stroke="none" fill="#000000" fill-rule="nonzero" /><path id="544" transform="matrix(1 0 0 -1 0 842)" d="M335.94 282.68L336.18 282.68L336.18 282.68L336.36 282.74L336.36 282.74L336.54 282.86L336.54 282.86L336.78 283.1L336.78 283.1L336.9 283.28L336.9 283.28L336.96 283.46L336.96 283.46L336.96 283.88L336.96 283.88L336.9 284.06L336.9 284.06L336.78 284.24L336.78 284.24L336.54 284.48L336.54 284.48L336.36 284.6L336.36 284.6L336.18 284.66L336.18 284.66L335.76 284.66L335.76 284.66L335.58 284.6L335.58 284.6L335.4 284.48L335.4 284.48L335.16 284.24L335.16 284.24L335.04 284.06L335.04 284.06L334.98 283.88L334.98 283.88L334.98 283.46L334.98 283.46L335.04 283.28L335.04 283.28L335.16 283.1L335.16 283.1L335.4 282.86L335.4 282.86L335.58 282.74L335.58 282.74L335.76 282.68L335.76 282.68L335.94 282.68" stroke="none" fill="#000000" fill-rule="evenodd" /><path id="545" transform="matrix(1 0 0 -1 0 842)" d="M335.94 283.64L340.5 283.64L340.02 282.86L336.36 276.56L335.94 275.78L331.86 282.92L331.44 283.64L332.34 283.64L332.76 283.4L336.36 277.1L335.46 276.62L335.46 277.1L339.12 283.4L340.02 282.86L339.6 282.62L335.94 282.62" stroke="none" fill="#000000" fill-rule="nonzero" /><path id="546" transform="matrix(1 0 0 -1 0 842)" d="M332.34 282.62L335.94 282.62L335.94 283.64L332.34 283.64z" stroke="none" fill="#000000" fill-rule="nonzero" /><path id="547" transform="matrix(1 0 0 -1 0 842)" d="M335.94 283.16L339.6 283.16L339.6 283.16L335.94 276.86L335.94 276.86L332.34 283.16" stroke="none" fill="#000000" fill-rule="evenodd" /><path id="548" transform="matrix(1 0 0 -1 0 842)" d="M334.98 294.62L336.96 294.62L336.96 295.58L334.98 295.58z" stroke="none" fill="#000000" fill-rule="nonzero" /><path id="549" transform="matrix(1 0 0 -1 0 842)" d="M334.98 282.74L336.96 282.74L336.96 294.62L334.98 294.62z" stroke="none" fill="#000000" fill-rule="nonzero" /></g></g></g></g></svg>