<svg xmlns="http://www.w3.org/2000/svg" xmlns:xlink="http://www.w3.org/1999/xlink" id="body_32" preserveAspectRatio="xMinYMin meet" viewBox="0 0 793 1123"><defs><clipPath id="1"><path id="" clip-rule="evenodd" transform="matrix(1 0 0 1 0 0)" d="M0 842L0 0L0 0L595 0L595 0L595 842L595 842L0 842z" /></clipPath></defs><g transform="matrix(1.333333 0 0 1.333333 0 0)"><g clip-path="url(#1)"><path id="623" transform="matrix(1 0 0 -1 0 842)" d="M224.94 586.04L558 586.04L558 538.04L224.94 538.04" stroke="none" fill="#ECF5FC" fill-rule="nonzero" /><path id="689" transform="matrix(1 0 0 -1 0 842)" d="M44.94 280.1L215.94 280.1L215.94 298.1L44.94 298.1z" stroke="none" fill="#C5E0F7" fill-rule="nonzero" /><path id="692" transform="matrix(1 0 0 -1 0 842)" d="M215.94 280.1L402.9 280.1L402.9 298.1L215.94 298.1z" stroke="none" fill="#C5E0F7" fill-rule="nonzero" /><path id="695" transform="matrix(1 0 0 -1 0 842)" d="M402.9 280.1L558 280.1L558 298.1L402.9 298.1z" stroke="none" fill="#C5E0F7" fill-rule="nonzero" /><path id="814" transform="matrix(1 0 0 -1 0 842)" d="M44.94 235.88L558 235.88L558 236.36L44.94 236.36z" stroke="none" fill="#3D96E3" fill-rule="nonzero" /><path id="815" transform="matrix(1 0 0 -1 0 842)" d="M44.94 149.36L558 149.36L558 150.86L44.94 150.86z" stroke="none" fill="#3D96E3" fill-rule="nonzero" /></g></g></svg>