<svg xmlns="http://www.w3.org/2000/svg" xmlns:xlink="http://www.w3.org/1999/xlink" id="body_177" preserveAspectRatio="xMinYMin meet" viewBox="0 0 793 1123"><defs><clipPath id="1"><path id="" clip-rule="evenodd" transform="matrix(1 0 0 1 0 0)" d="M0 842L0 0L0 0L595 0L595 0L595 842L595 842L0 842z" /></clipPath><clipPath id="2"><path id="" clip-rule="evenodd" transform="matrix(1 0 0 1 0 0)" d="M158.94 156.42L205.98 156.42L205.98 156.42L205.98 190.02L205.98 190.02L158.94 190.02z" /></clipPath><clipPath id="3"><path id="" clip-rule="evenodd" transform="matrix(1 0 0 1 0 0)" d="M157.92 155.46L206.94 155.46L206.94 155.46L206.94 190.98L206.94 190.98L157.92 190.98z" /></clipPath><clipPath id="4"><path id="" clip-rule="evenodd" transform="matrix(1 0 0 1 0 0)" d="M0 0.02001953L595.2 0.02001953L595.2 0.02001953L595.2 842L595.2 842L0 842z" /></clipPath><clipPath id="5"><path id="" clip-rule="evenodd" transform="matrix(1 0 0 1 0 0)" d="M45.96 218.04L501 218.04L501 218.04L501 517.08L501 517.08L45.96 517.08z" /></clipPath><clipPath id="6"><path id="" clip-rule="evenodd" transform="matrix(1 0 0 1 0 0)" d="M44.94 217.02L502.02 217.02L502.02 217.02L502.02 518.04L502.02 518.04L44.94 518.04z" /></clipPath><clipPath id="7"><path id="" clip-rule="evenodd" transform="matrix(1 0 0 1 0 0)" d="M0 0.02001953L595.2 0.02001953L595.2 0.02001953L595.2 842L595.2 842L0 842z" /></clipPath><clipPath id="8"><path id="" clip-rule="evenodd" transform="matrix(1 0 0 1 0 0)" d="M182.46 673.8L205.98 673.8L205.98 673.8L205.98 687.96L205.98 687.96L182.46 687.96z" /></clipPath><clipPath id="9"><path id="" clip-rule="evenodd" transform="matrix(1 0 0 1 0 0)" d="M181.44 672.78L206.94 672.78L206.94 672.78L206.94 688.92L206.94 688.92L181.44 688.92z" /></clipPath><clipPath id="10"><path id="" clip-rule="evenodd" transform="matrix(1 0 0 1 0 0)" d="M0 0.02001953L595.2 0.02001953L595.2 0.02001953L595.2 842L595.2 842L0 842z" /></clipPath><clipPath id="11"><path id="" clip-rule="evenodd" transform="matrix(1 0 0 1 0 0)" d="M124.56 716.4L202.98 716.4L202.98 716.4L202.98 730.8L202.98 730.8L124.56 730.8z" /></clipPath><clipPath id="12"><path id="" clip-rule="evenodd" transform="matrix(1 0 0 1 0 0)" d="M0 0.02001953L595.2 0.02001953L595.2 0.02001953L595.2 842L595.2 842L0 842z" /></clipPath><clipPath id="13"><path id="" clip-rule="evenodd" transform="matrix(1 0 0 1 0 0)" d="M124.98 716.88L198.36 716.88L198.36 716.88L198.36 730.68L198.36 730.68L124.98 730.68z" /></clipPath><clipPath id="14"><path id="" clip-rule="evenodd" transform="matrix(1 0 0 1 0 0)" d="M124.56 716.4L202.98 716.4L202.98 716.4L202.98 730.8L202.98 730.8L124.56 730.8z" /></clipPath><clipPath id="15"><path id="" clip-rule="evenodd" transform="matrix(1 0 0 1 0 0)" d="M0 0.02001953L595.2 0.02001953L595.2 0.02001953L595.2 842L595.2 842L0 842z" /></clipPath></defs><g transform="matrix(1.333333 0 0 1.333333 0 0)"><g clip-path="url(#1)"><g clip-path="url(#2)"><g clip-path="url(#3)"><g clip-path="url(#4)"><g transform="matrix(0.96 0 0 0.96 158.94 156.42)"><g transform="matrix(1 0 0 1 0 0)"><image x="0" y="0" xlink:href="img_461.png" width="49" height="35" /></g></g></g></g></g><g clip-path="url(#5)"><g clip-path="url(#6)"><g clip-path="url(#7)"><g transform="matrix(0.48 0 0 0.48 45.96 218.04)"><g transform="matrix(1 0 0 1 0 0)"><image x="0" y="0" xlink:href="img_480.png" width="948" height="623" /></g></g></g></g></g><g clip-path="url(#8)"><g clip-path="url(#9)"><g clip-path="url(#10)"><g transform="matrix(0.24 0 0 0.24 182.46 673.8)"><g transform="matrix(1 0 0 1 0 0)"><image x="0" y="0" xlink:href="img_463.png" width="98" height="59" /></g></g></g></g></g><g clip-path="url(#11)"><g clip-path="url(#12)"><path id="401" transform="matrix(1 0 0 -1 0 842)" d="M124.56 111.2L202.98 111.2L202.98 125.6L124.56 125.6z" stroke="none" fill="#FFFFFF" fill-rule="nonzero" /></g></g><g clip-path="url(#13)"><g clip-path="url(#14)"><g clip-path="url(#15)"><g transform="matrix(0.7265346 0 0 0.7263158 124.98 716.88)"><g transform="matrix(1 0 0 1 0 0)"><image x="0" y="0" xlink:href="img_09.png" width="101" height="19" /></g></g></g></g></g><path id="403" transform="matrix(1 0 0 -1 0 842)" d="M242.94 129.62L558 129.62L558 95.66L242.94 95.66" stroke="none" fill="#ECF5FC" fill-rule="nonzero" /></g></g></svg>