<svg xmlns="http://www.w3.org/2000/svg" xmlns:xlink="http://www.w3.org/1999/xlink" id="body_265" preserveAspectRatio="xMinYMin meet" viewBox="0 0 793 1123"><defs><clipPath id="1"><path id="" clip-rule="evenodd" transform="matrix(1 0 0 1 0 0)" d="M0 842L0 0L0 0L595 0L595 0L595 842L595 842L0 842z" /></clipPath><clipPath id="2"><path id="" clip-rule="evenodd" transform="matrix(1 0 0 1 0 0)" d="M115.56 157.98L193.98 157.98L193.98 157.98L193.98 172.38L193.98 172.38L115.56 172.38z" /></clipPath><clipPath id="3"><path id="" clip-rule="evenodd" transform="matrix(1 0 0 1 0 0)" d="M0 0.02001953L595.2 0.02001953L595.2 0.02001953L595.2 842L595.2 842L0 842z" /></clipPath><clipPath id="4"><path id="" clip-rule="evenodd" transform="matrix(1 0 0 1 0 0)" d="M115.44 158.22L190.5 158.22L190.5 158.22L190.5 172.3799L190.5 172.3799L115.44 172.3799z" /></clipPath><clipPath id="5"><path id="" clip-rule="evenodd" transform="matrix(1 0 0 1 0 0)" d="M115.56 157.98L193.98 157.98L193.98 157.98L193.98 172.38L193.98 172.38L115.56 172.38z" /></clipPath><clipPath id="6"><path id="" clip-rule="evenodd" transform="matrix(1 0 0 1 0 0)" d="M0 0.02001953L595.2 0.02001953L595.2 0.02001953L595.2 842L595.2 842L0 842z" /></clipPath><clipPath id="7"><path id="" clip-rule="evenodd" transform="matrix(1 0 0 1 0 0)" d="M115.56 232.02L193.98 232.02L193.98 232.02L193.98 246.42L193.98 246.42L115.56 246.42z" /></clipPath><clipPath id="8"><path id="" clip-rule="evenodd" transform="matrix(1 0 0 1 0 0)" d="M0 0.02001953L595.2 0.02001953L595.2 0.02001953L595.2 842L595.2 842L0 842z" /></clipPath><clipPath id="9"><path id="" clip-rule="evenodd" transform="matrix(1 0 0 1 0 0)" d="M115.98 232.5L189.36 232.5L189.36 232.5L189.36 246.3L189.36 246.3L115.98 246.3z" /></clipPath><clipPath id="10"><path id="" clip-rule="evenodd" transform="matrix(1 0 0 1 0 0)" d="M115.56 232.02L193.98 232.02L193.98 232.02L193.98 246.42L193.98 246.42L115.56 246.42z" /></clipPath><clipPath id="11"><path id="" clip-rule="evenodd" transform="matrix(1 0 0 1 0 0)" d="M0 0.02001953L595.2 0.02001953L595.2 0.02001953L595.2 842L595.2 842L0 842z" /></clipPath><clipPath id="12"><path id="" clip-rule="evenodd" transform="matrix(1 0 0 1 0 0)" d="M216.96 591.96L504 591.96L504 591.96L504 715.08L504 715.08L216.96 715.08z" /></clipPath><clipPath id="13"><path id="" clip-rule="evenodd" transform="matrix(1 0 0 1 0 0)" d="M215.94 590.94L505.02 590.94L505.02 590.94L505.02 716.04L505.02 716.04L215.94 716.04z" /></clipPath><clipPath id="14"><path id="" clip-rule="evenodd" transform="matrix(1 0 0 1 0 0)" d="M0 0.02001953L595.2 0.02001953L595.2 0.02001953L595.2 842L595.2 842L0 842z" /></clipPath><clipPath id="15"><path id="" clip-rule="evenodd" transform="matrix(1 0 0 1 0 0)" d="M215.94 590.94L505.02 590.94L505.02 590.94L505.02 716.04L505.02 716.04L215.94 716.04z" /></clipPath><clipPath id="16"><path id="" clip-rule="evenodd" transform="matrix(1 0 0 1 0 0)" d="M0 0.02001953L595.2 0.02001953L595.2 0.02001953L595.2 842L595.2 842L0 842z" /></clipPath></defs><g transform="matrix(1.333333 0 0 1.333333 0 0)"><g clip-path="url(#1)"><g clip-path="url(#2)"><g clip-path="url(#3)"><path id="299" transform="matrix(1 0 0 -1 0 842)" d="M115.56 669.62L193.98 669.62L193.98 684.02L115.56 684.02z" stroke="none" fill="#FFFFFF" fill-rule="nonzero" /></g></g><g clip-path="url(#4)"><g clip-path="url(#5)"><g clip-path="url(#6)"><g transform="matrix(0.7431683 0 0 0.7452632 115.44 158.22)"><g transform="matrix(1 0 0 1 0 0)"><image x="0" y="0" xlink:href="img_274.png" width="101" height="19" /></g></g></g></g></g><path id="301" transform="matrix(1 0 0 -1 0 842)" d="M215.94 687.98L549 687.98L549 626L215.94 626" stroke="none" fill="#ECF5FC" fill-rule="nonzero" /><g clip-path="url(#7)"><g clip-path="url(#8)"><path id="397" transform="matrix(1 0 0 -1 0 842)" d="M115.56 595.58L193.98 595.58L193.98 609.98L115.56 609.98z" stroke="none" fill="#FFFFFF" fill-rule="nonzero" /></g></g><g clip-path="url(#9)"><g clip-path="url(#10)"><g clip-path="url(#11)"><g transform="matrix(0.7265346 0 0 0.7263158 115.98 232.5)"><g transform="matrix(1 0 0 1 0 0)"><image x="0" y="0" xlink:href="img_09.png" width="101" height="19" /></g></g></g></g></g><path id="399" transform="matrix(1 0 0 -1 0 842)" d="M215.94 614L549 614L549 566L215.94 566" stroke="none" fill="#ECF5FC" fill-rule="nonzero" /><g clip-path="url(#12)"><g clip-path="url(#13)"><g clip-path="url(#14)"><g transform="matrix(0.48 0 0 0.4790662 216.96 591.96)"><g transform="matrix(1 0 0 1 0 0)"><image x="0" y="0" xlink:href="img_827.png" width="598" height="257" /></g></g></g></g></g><g clip-path="url(#15)"><g clip-path="url(#16)"><path id="483" transform="matrix(1 0 0 -1 0 842)" d="M451.44 167.84L451.68 168.08L451.68 168.08L451.86 168.44L451.86 168.44L451.92 168.62L451.92 168.62L451.98 168.74L451.98 168.74L451.98 169.16L451.98 169.16L451.92 169.34L451.92 169.34L451.92 169.46L451.92 169.46L451.8 169.7L451.8 169.7L451.74 169.88L451.74 169.88L451.62 170L451.62 170L451.5 170.06L451.5 170.06L451.26 170.3L451.26 170.3L450.9 170.48L450.9 170.48L450.18 170.48L450.18 170.48L450.06 170.42L450.06 170.42L449.88 170.42L449.88 170.42L449.76 170.3L449.76 170.3L449.52 170.18L449.52 170.18L449.28 169.94L449.28 169.94L449.1 169.58L449.1 169.58L449.04 169.4L449.04 169.4L448.98 169.28L448.98 169.28L448.98 168.68L448.98 168.68L449.16 168.32L449.16 168.32L449.22 168.14L449.22 168.14L449.34 168.02L449.34 168.02L449.46 167.96L449.46 167.96L449.52 167.84L449.52 167.84L449.64 167.72L449.64 167.72L449.82 167.66L449.82 167.66L450.06 167.54L450.06 167.54L450.36 167.54L450.36 167.54L450.48 167.48L450.48 167.48L450.66 167.54L450.66 167.54L450.78 167.54L450.78 167.54L450.9 167.6L450.9 167.6L451.08 167.6L451.08 167.6L451.2 167.72L451.2 167.72L451.44 167.84" stroke="none" fill="#FF0000" fill-rule="evenodd" /><path id="484" transform="matrix(1 0 0 -1 0 842)" d="M450.48 168.98L454.44 172.28L454.98 172.64L455.22 172.1L462.78 155.12L463.5 153.5L462.06 154.52L446.64 164.9L446.04 165.26L446.58 165.68L447.18 165.74L462.6 155.36L462.06 154.52L461.88 154.7L454.32 171.68L455.22 172.1L455.1 171.5L451.14 168.2" stroke="none" fill="#FF0000" fill-rule="nonzero" /><path id="485" transform="matrix(1 0 0 -1 0 842)" d="M446.58 165.68L450.48 168.98L451.14 168.2L447.24 164.9" stroke="none" fill="#FF0000" fill-rule="nonzero" /><path id="486" transform="matrix(1 0 0 -1 0 842)" d="M450.78 168.62L454.74 171.92L454.74 171.92L462.3 154.94L462.3 154.94L446.88 165.32" stroke="none" fill="#FF0000" fill-rule="evenodd" /><path id="487" transform="matrix(1 0 0 -1 0 842)" d="M436.86 187.52L435.9 188.66L433.62 186.74L434.58 185.6" stroke="none" fill="#FF0000" fill-rule="nonzero" /><path id="488" transform="matrix(1 0 0 -1 0 842)" d="M451.62 169.94L452.58 168.8L450.3 166.88L449.34 168.02" stroke="none" fill="#FF0000" fill-rule="nonzero" /><path id="489" transform="matrix(1 0 0 -1 0 842)" d="M436.86 187.52L434.58 185.6L449.34 168.02L451.62 169.94" stroke="none" fill="#FF0000" fill-rule="nonzero" /></g></g></g></g></svg>