<svg xmlns="http://www.w3.org/2000/svg" xmlns:xlink="http://www.w3.org/1999/xlink" id="body_284" preserveAspectRatio="xMinYMin meet" viewBox="0 0 793 1123"><defs><clipPath id="1"><path id="" clip-rule="evenodd" transform="matrix(1 0 0 1 0 0)" d="M0 842L0 0L0 0L595 0L595 0L595 842L595 842L0 842z" /></clipPath><clipPath id="2"><path id="" clip-rule="evenodd" transform="matrix(1 0 0 1 0 0)" d="M225.18 73.79999L374.28 73.79999L374.28 73.79999L374.28 337.62L374.28 337.62L225.18 337.62z" /></clipPath><clipPath id="3"><path id="" clip-rule="evenodd" transform="matrix(1 0 0 1 0 0)" d="M224.94 72.06L376.08 72.06L376.08 72.06L376.08 337.86L376.08 337.86L224.94 337.86z" /></clipPath><clipPath id="4"><path id="" clip-rule="evenodd" transform="matrix(1 0 0 1 0 0)" d="M0 0.02001953L595.2 0.02001953L595.2 0.02001953L595.2 842L595.2 842L0 842z" /></clipPath><clipPath id="5"><path id="" clip-rule="evenodd" transform="matrix(1 0 0 1 0 0)" d="M224.94 72.06L376.08 72.06L376.08 72.06L376.08 337.86L376.08 337.86L224.94 337.86z" /></clipPath><clipPath id="6"><path id="" clip-rule="evenodd" transform="matrix(1 0 0 1 0 0)" d="M0 0.02001953L595.2 0.02001953L595.2 0.02001953L595.2 842L595.2 842L0 842z" /></clipPath><clipPath id="7"><path id="" clip-rule="evenodd" transform="matrix(1 0 0 1 0 0)" d="M225.96 410.88L501.06 410.88L501.06 410.88L501.06 528.84L501.06 528.84L225.96 528.84z" /></clipPath><clipPath id="8"><path id="" clip-rule="evenodd" transform="matrix(1 0 0 1 0 0)" d="M224.94 409.86L502.02 409.86L502.02 409.86L502.02 529.86L502.02 529.86L224.94 529.86z" /></clipPath><clipPath id="9"><path id="" clip-rule="evenodd" transform="matrix(1 0 0 1 0 0)" d="M0 0.02001953L595.2 0.02001953L595.2 0.02001953L595.2 842L595.2 842L0 842z" /></clipPath><clipPath id="10"><path id="" clip-rule="evenodd" transform="matrix(1 0 0 1 0 0)" d="M224.94 409.86L502.02 409.86L502.02 409.86L502.02 529.86L502.02 529.86L224.94 529.86z" /></clipPath><clipPath id="11"><path id="" clip-rule="evenodd" transform="matrix(1 0 0 1 0 0)" d="M0 0.02001953L595.2 0.02001953L595.2 0.02001953L595.2 842L595.2 842L0 842z" /></clipPath><clipPath id="12"><path id="" clip-rule="evenodd" transform="matrix(1 0 0 1 0 0)" d="M225.96 602.82L501.06 602.82L501.06 602.82L501.06 720.84L501.06 720.84L225.96 720.84z" /></clipPath><clipPath id="13"><path id="" clip-rule="evenodd" transform="matrix(1 0 0 1 0 0)" d="M224.94 601.86L502.02 601.86L502.02 601.86L502.02 721.86L502.02 721.86L224.94 721.86z" /></clipPath><clipPath id="14"><path id="" clip-rule="evenodd" transform="matrix(1 0 0 1 0 0)" d="M0 0.02001953L595.2 0.02001953L595.2 0.02001953L595.2 842L595.2 842L0 842z" /></clipPath><clipPath id="15"><path id="" clip-rule="evenodd" transform="matrix(1 0 0 1 0 0)" d="M224.94 601.86L502.02 601.86L502.02 601.86L502.02 721.86L502.02 721.86L224.94 721.86z" /></clipPath><clipPath id="16"><path id="" clip-rule="evenodd" transform="matrix(1 0 0 1 0 0)" d="M0 0.02001953L595.2 0.02001953L595.2 0.02001953L595.2 842L595.2 842L0 842z" /></clipPath></defs><g transform="matrix(1.333333 0 0 1.333333 0 0)"><g clip-path="url(#1)"><g clip-path="url(#2)"><g clip-path="url(#3)"><g clip-path="url(#4)"><g transform="matrix(0.4800965 0 0 0.4796727 225.18 73.79999)"><g transform="matrix(1 0 0 1 0 0)"><image x="0" y="0" xlink:href="img_879.png" width="311" height="550" /></g></g></g></g></g><g clip-path="url(#5)"><g clip-path="url(#6)"><path id="238" transform="matrix(1 0 0 -1 0 842)" d="M335.16 711.86L335.16 711.38L335.16 711.38L335.22 711.26L335.22 711.26L335.28 711.14L335.28 711.14L335.4 710.9L335.4 710.9L335.64 710.66L335.64 710.66L335.76 710.6L335.76 710.6L335.88 710.48L335.88 710.48L336 710.42L336 710.42L336.24 710.3L336.24 710.3L337.02 710.3L337.02 710.3L337.26 710.42L337.26 710.42L337.38 710.48L337.38 710.48L337.5 710.6L337.5 710.6L337.62 710.66L337.62 710.66L337.86 710.9L337.86 710.9L337.98 711.14L337.98 711.14L338.04 711.26L338.04 711.26L338.1 711.38L338.1 711.38L338.1 712.16L338.1 712.16L338.04 712.28L338.04 712.28L337.98 712.46L337.98 712.46L337.92 712.58L337.92 712.58L337.5 713L337.5 713L337.02 713.24L337.02 713.24L336.84 713.24L336.84 713.24L336.72 713.3L336.72 713.3L336.54 713.3L336.54 713.3L336.42 713.24L336.42 713.24L336.24 713.24L336.24 713.24L336 713.12L336 713.12L335.82 713.06L335.82 713.06L335.52 712.76L335.52 712.76L335.4 712.7L335.4 712.7L335.34 712.58L335.34 712.58L335.28 712.4L335.28 712.4L335.16 712.16L335.16 712.16L335.16 711.86" stroke="none" fill="#FF0000" fill-rule="evenodd" /><path id="239" transform="matrix(1 0 0 -1 0 842)" d="M336.6 711.8L336.36 706.7L336.3 706.04L335.7 706.22L318.12 712.16L316.44 712.7L318.12 713.12L336.18 717.38L336.9 717.56L336.84 716.9L336.48 716.42L318.42 712.16L318.12 713.12L318.42 713.12L336 707.18L335.7 706.22L335.34 706.7L335.58 711.8" stroke="none" fill="#FF0000" fill-rule="nonzero" /><path id="240" transform="matrix(1 0 0 -1 0 842)" d="M336.84 716.9L336.6 711.8L335.58 711.8L335.82 716.9" stroke="none" fill="#FF0000" fill-rule="nonzero" /><path id="241" transform="matrix(1 0 0 -1 0 842)" d="M336.12 711.8L335.88 706.7L335.88 706.7L318.3 712.64L318.3 712.64L336.36 716.9" stroke="none" fill="#FF0000" fill-rule="evenodd" /><path id="242" transform="matrix(1 0 0 -1 0 842)" d="M348.66 709.7L350.16 709.64L350.28 712.64L348.78 712.7" stroke="none" fill="#FF0000" fill-rule="nonzero" /><path id="243" transform="matrix(1 0 0 -1 0 842)" d="M336.54 710.3L335.04 710.36L335.16 713.36L336.66 713.3" stroke="none" fill="#FF0000" fill-rule="nonzero" /><path id="244" transform="matrix(1 0 0 -1 0 842)" d="M348.66 709.7L348.78 712.7L336.66 713.3L336.54 710.3" stroke="none" fill="#FF0000" fill-rule="nonzero" /><path id="246" transform="matrix(1 0 0 -1 0 842)" d="M329.22 596.42L329.52 596.42L329.52 596.42L329.64 596.48L329.64 596.48L329.82 596.54L329.82 596.54L329.94 596.6L329.94 596.6L330.06 596.66L330.06 596.66L330.18 596.72L330.18 596.72L330.3 596.84L330.3 596.84L330.36 596.96L330.36 596.96L330.48 597.08L330.48 597.08L330.66 597.44L330.66 597.44L330.66 597.62L330.66 597.62L330.72 597.74L330.72 597.74L330.72 598.04L330.72 598.04L330.66 598.22L330.66 598.22L330.66 598.34L330.66 598.34L330.6 598.46L330.6 598.46L330.54 598.64L330.54 598.64L330.48 598.76L330.48 598.76L330.18 599.06L330.18 599.06L330.06 599.12L330.06 599.12L329.94 599.24L329.94 599.24L329.82 599.3L329.82 599.3L329.64 599.3L329.64 599.3L329.52 599.36L329.52 599.36L329.34 599.36L329.34 599.36L329.22 599.42L329.22 599.42L329.04 599.36L329.04 599.36L328.92 599.36L328.92 599.36L328.74 599.3L328.74 599.3L328.62 599.3L328.62 599.3L328.5 599.24L328.5 599.24L328.38 599.12L328.38 599.12L328.26 599.06L328.26 599.06L327.96 598.76L327.96 598.76L327.9 598.64L327.9 598.64L327.84 598.46L327.84 598.46L327.72 598.22L327.72 598.22L327.72 597.62L327.72 597.62L327.78 597.44L327.78 597.44L327.9 597.2L327.9 597.2L327.96 597.08L327.96 597.08L328.08 596.96L328.08 596.96L328.14 596.84L328.14 596.84L328.26 596.72L328.26 596.72L328.38 596.66L328.38 596.66L328.5 596.6L328.5 596.6L328.62 596.54L328.62 596.54L328.74 596.48L328.74 596.48L328.92 596.42L328.92 596.42L329.22 596.42" stroke="none" fill="#FF0000" fill-rule="evenodd" /><path id="247" transform="matrix(1 0 0 -1 0 842)" d="M329.22 597.86L334.98 597.86L334.8 597.2L329.7 579.32L329.22 577.64L328.74 579.32L323.58 597.2L323.4 597.86L324.06 597.86L324.54 597.5L329.7 579.62L328.74 579.32L328.74 579.62L333.84 597.5L334.8 597.2L334.32 596.84L329.22 596.84" stroke="none" fill="#FF0000" fill-rule="nonzero" /><path id="248" transform="matrix(1 0 0 -1 0 842)" d="M324.06 596.84L329.22 596.84L329.22 597.86L324.06 597.86z" stroke="none" fill="#FF0000" fill-rule="nonzero" /><path id="249" transform="matrix(1 0 0 -1 0 842)" d="M329.22 597.38L334.32 597.38L334.32 597.38L329.22 579.5L329.22 579.5L324.06 597.38" stroke="none" fill="#FF0000" fill-rule="evenodd" /><path id="250" transform="matrix(1 0 0 -1 0 842)" d="M327.72 613.7L330.72 613.7L330.72 615.2L327.72 615.2z" stroke="none" fill="#FF0000" fill-rule="nonzero" /><path id="251" transform="matrix(1 0 0 -1 0 842)" d="M327.72 596.42L330.72 596.42L330.72 613.7L327.72 613.7z" stroke="none" fill="#FF0000" fill-rule="nonzero" /></g></g><g clip-path="url(#7)"><g clip-path="url(#8)"><g clip-path="url(#9)"><g transform="matrix(0.4600334 0 0 0.4589883 225.96 410.88)"><g transform="matrix(1 0 0 1 0 0)"><image x="0" y="0" xlink:href="img_829.png" width="598" height="257" /></g></g></g></g></g><g clip-path="url(#10)"><g clip-path="url(#11)"><path id="254" transform="matrix(1 0 0 -1 0 842)" d="M454.8 348.86L455.04 349.1L455.04 349.1L455.16 349.34L455.16 349.34L455.22 349.46L455.22 349.46L455.28 349.58L455.28 349.58L455.28 350.3L455.28 350.3L455.22 350.48L455.22 350.48L455.16 350.6L455.16 350.6L455.1 350.72L455.1 350.72L455.04 350.84L455.04 350.84L454.68 351.2L454.68 351.2L454.2 351.44L454.2 351.44L454.02 351.44L454.02 351.44L453.9 351.5L453.9 351.5L453.78 351.5L453.78 351.5L453.6 351.44L453.6 351.44L453.48 351.44L453.48 351.44L453.3 351.38L453.3 351.38L452.94 351.2L452.94 351.2L452.82 351.08L452.82 351.08L452.7 351.02L452.7 351.02L452.58 350.9L452.58 350.9L452.52 350.78L452.52 350.78L452.46 350.6L452.46 350.6L452.4 350.48L452.4 350.48L452.34 350.36L452.34 350.36L452.34 349.64L452.34 349.64L452.4 349.52L452.4 349.52L452.46 349.34L452.46 349.34L452.52 349.22L452.52 349.22L452.58 349.1L452.58 349.1L452.82 348.86L452.82 348.86L452.94 348.8L452.94 348.8L453.06 348.68L453.06 348.68L453.42 348.5L453.42 348.5L454.14 348.5L454.14 348.5L454.32 348.56L454.32 348.56L454.68 348.74L454.68 348.74L454.8 348.86" stroke="none" fill="#FF0000" fill-rule="evenodd" /><path id="255" transform="matrix(1 0 0 -1 0 842)" d="M453.84 349.94L457.68 353.36L458.22 353.78L458.46 353.18L466.5 336.44L467.28 334.88L465.78 335.78L450.06 345.74L449.46 346.16L450 346.58L450.6 346.64L466.32 336.68L465.78 335.78L465.6 336.02L457.56 352.76L458.46 353.18L458.34 352.58L454.5 349.16" stroke="none" fill="#FF0000" fill-rule="nonzero" /><path id="256" transform="matrix(1 0 0 -1 0 842)" d="M450 346.58L453.84 349.94L454.5 349.16L450.66 345.8" stroke="none" fill="#FF0000" fill-rule="nonzero" /><path id="257" transform="matrix(1 0 0 -1 0 842)" d="M454.14 349.58L457.98 353L457.98 353L466.02 336.26L466.02 336.26L450.3 346.22" stroke="none" fill="#FF0000" fill-rule="evenodd" /><path id="258" transform="matrix(1 0 0 -1 0 842)" d="M444.36 362.84L443.4 363.92L441.18 361.94L442.14 360.86" stroke="none" fill="#FF0000" fill-rule="nonzero" /><path id="259" transform="matrix(1 0 0 -1 0 842)" d="M454.92 350.96L455.88 349.88L453.66 347.9L452.7 348.98" stroke="none" fill="#FF0000" fill-rule="nonzero" /><path id="260" transform="matrix(1 0 0 -1 0 842)" d="M444.36 362.84L442.14 360.86L452.7 348.98L454.92 350.96" stroke="none" fill="#FF0000" fill-rule="nonzero" /></g></g><g clip-path="url(#12)"><g clip-path="url(#13)"><g clip-path="url(#14)"><g transform="matrix(0.4600334 0 0 0.4592218 225.96 602.82)"><g transform="matrix(1 0 0 1 0 0)"><image x="0" y="0" xlink:href="img_827.png" width="598" height="257" /></g></g></g></g></g><g clip-path="url(#15)"><g clip-path="url(#16)"><path id="262" transform="matrix(1 0 0 -1 0 842)" d="M457.44 189.32L457.56 189.38L457.56 189.38L457.68 189.5L457.68 189.5L457.74 189.62L457.74 189.62L457.86 189.74L457.86 189.74L457.98 189.98L457.98 189.98L457.98 190.16L457.98 190.16L458.04 190.28L458.04 190.28L458.04 190.7L458.04 190.7L457.98 190.88L457.98 190.88L457.86 191.12L457.86 191.12L457.8 191.3L457.8 191.3L457.74 191.42L457.74 191.42L457.62 191.54L457.62 191.54L457.5 191.6L457.5 191.6L457.38 191.72L457.38 191.72L456.9 191.96L456.9 191.96L456.72 191.96L456.72 191.96L456.6 192.02L456.6 192.02L456.42 192.02L456.42 192.02L456.3 191.96L456.3 191.96L456.18 191.96L456.18 191.96L456 191.9L456 191.9L455.64 191.72L455.64 191.72L455.4 191.48L455.4 191.48L455.34 191.36L455.34 191.36L455.22 191.24L455.22 191.24L455.1 191L455.1 191L455.1 190.82L455.1 190.82L455.04 190.7L455.04 190.7L455.04 190.28L455.04 190.28L455.1 190.1L455.1 190.1L455.1 189.98L455.1 189.98L455.22 189.74L455.22 189.74L455.34 189.56L455.34 189.56L455.46 189.5L455.46 189.5L455.52 189.38L455.52 189.38L455.64 189.26L455.64 189.26L455.76 189.2L455.76 189.2L455.94 189.14L455.94 189.14L456.18 189.02L456.18 189.02L456.9 189.02L456.9 189.02L457.02 189.08L457.02 189.08L457.2 189.14L457.2 189.14L457.32 189.2L457.32 189.2L457.44 189.32" stroke="none" fill="#FF0000" fill-rule="evenodd" /><path id="263" transform="matrix(1 0 0 -1 0 842)" d="M456.54 190.46L460.62 193.58L461.22 193.94L461.4 193.34L468.12 175.94L468.78 174.32L452.46 186.56L451.92 186.98L452.46 187.34L453.06 187.34L467.94 176.18L467.34 175.4L467.16 175.64L460.44 193.04L461.4 193.34L461.22 192.8L457.14 189.68" stroke="none" fill="#FF0000" fill-rule="nonzero" /><path id="264" transform="matrix(1 0 0 -1 0 842)" d="M452.46 187.34L456.54 190.46L457.14 189.68L453.06 186.56" stroke="none" fill="#FF0000" fill-rule="nonzero" /><path id="265" transform="matrix(1 0 0 -1 0 842)" d="M456.84 190.1L460.92 193.22L460.92 193.22L467.64 175.82L467.64 175.82L452.76 186.98" stroke="none" fill="#FF0000" fill-rule="evenodd" /><path id="266" transform="matrix(1 0 0 -1 0 842)" d="M451.2 200.06L450.3 201.26L447.9 199.46L448.8 198.26" stroke="none" fill="#FF0000" fill-rule="nonzero" /><path id="267" transform="matrix(1 0 0 -1 0 842)" d="M457.74 191.42L458.64 190.22L456.24 188.42L455.34 189.62" stroke="none" fill="#FF0000" fill-rule="nonzero" /><path id="268" transform="matrix(1 0 0 -1 0 842)" d="M451.2 200.06L448.8 198.26L455.34 189.62L457.74 191.42" stroke="none" fill="#FF0000" fill-rule="nonzero" /></g></g></g></g></svg>