<svg xmlns="http://www.w3.org/2000/svg" xmlns:xlink="http://www.w3.org/1999/xlink" id="body_78" preserveAspectRatio="xMinYMin meet" viewBox="0 0 793 1123"><defs><clipPath id="1"><path id="" clip-rule="evenodd" transform="matrix(1 0 0 1 0 0)" d="M0 842L0 0L0 0L595 0L595 0L595 842L595 842L0 842z" /></clipPath><clipPath id="2"><path id="" clip-rule="evenodd" transform="matrix(1 0 0 1 0 0)" d="M216.96 285.96L391.92 285.96L391.92 285.96L391.92 414.6L391.92 414.6L216.96 414.6z" /></clipPath><clipPath id="3"><path id="" clip-rule="evenodd" transform="matrix(1 0 0 1 0 0)" d="M215.94 283.98L545.04 283.98L545.04 283.98L545.04 416.64L545.04 416.64L215.94 416.64z" /></clipPath><clipPath id="4"><path id="" clip-rule="evenodd" transform="matrix(1 0 0 1 0 0)" d="M0 0.02001953L595.2 0.02001953L595.2 0.02001953L595.2 842L595.2 842L0 842z" /></clipPath><clipPath id="5"><path id="" clip-rule="evenodd" transform="matrix(1 0 0 1 0 0)" d="M434.94 285L511.74 285L511.74 285L511.74 327.96L511.74 327.96L434.94 327.96z" /></clipPath><clipPath id="6"><path id="" clip-rule="evenodd" transform="matrix(1 0 0 1 0 0)" d="M215.94 283.98L545.04 283.98L545.04 283.98L545.04 416.64L545.04 416.64L215.94 416.64z" /></clipPath><clipPath id="7"><path id="" clip-rule="evenodd" transform="matrix(1 0 0 1 0 0)" d="M0 0.02001953L595.2 0.02001953L595.2 0.02001953L595.2 842L595.2 842L0 842z" /></clipPath><clipPath id="8"><path id="" clip-rule="evenodd" transform="matrix(1 0 0 1 0 0)" d="M437.34 383.94L509.34 383.94L509.34 383.94L509.34 415.62L509.34 415.62L437.34 415.62z" /></clipPath><clipPath id="9"><path id="" clip-rule="evenodd" transform="matrix(1 0 0 1 0 0)" d="M215.94 283.98L545.04 283.98L545.04 283.98L545.04 416.64L545.04 416.64L215.94 416.64z" /></clipPath><clipPath id="10"><path id="" clip-rule="evenodd" transform="matrix(1 0 0 1 0 0)" d="M0 0.02001953L595.2 0.02001953L595.2 0.02001953L595.2 842L595.2 842L0 842z" /></clipPath><clipPath id="11"><path id="" clip-rule="evenodd" transform="matrix(1 0 0 1 0 0)" d="M215.94 283.98L545.04 283.98L545.04 283.98L545.04 416.64L545.04 416.64L215.94 416.64z" /></clipPath><clipPath id="12"><path id="" clip-rule="evenodd" transform="matrix(1 0 0 1 0 0)" d="M0 0.02001953L595.2 0.02001953L595.2 0.02001953L595.2 842L595.2 842L0 842z" /></clipPath></defs><g transform="matrix(1.333333 0 0 1.333333 0 0)"><g clip-path="url(#1)"><path id="386" transform="matrix(1 0 0 -1 0 842)" d="M35.94 674L61.14 674L61.14 687.98L35.94 687.98z" stroke="none" fill="#C5E0F7" fill-rule="nonzero" /><path id="388" transform="matrix(1 0 0 -1 0 842)" d="M61.14 674L218.76 674L218.76 687.98L61.14 687.98z" stroke="none" fill="#C5E0F7" fill-rule="nonzero" /><path id="394" transform="matrix(1 0 0 -1 0 842)" d="M218.76 674L549 674L549 687.98L218.76 687.98z" stroke="none" fill="#C5E0F7" fill-rule="nonzero" /><path id="553" transform="matrix(1 0 0 -1 0 842)" d="M35.94 657.74L549 657.74L549 658.22L35.94 658.22z" stroke="none" fill="#3D96E3" fill-rule="nonzero" /><path id="554" transform="matrix(1 0 0 -1 0 842)" d="M35.94 603.74L549 603.74L549 604.22L35.94 604.22z" stroke="none" fill="#3D96E3" fill-rule="nonzero" /><path id="555" transform="matrix(1 0 0 -1 0 842)" d="M35.94 573.26L549 573.26L549 574.76L35.94 574.76z" stroke="none" fill="#3D96E3" fill-rule="nonzero" /><g clip-path="url(#2)"><g clip-path="url(#3)"><g clip-path="url(#4)"><g transform="matrix(0.3836842 0 0 0.5497436 216.96 285.96)"><g transform="matrix(1 0 0 1 0 0)"><image x="0" y="0" xlink:href="img_214.png" width="456" height="234" /></g></g></g></g></g><g clip-path="url(#5)"><g clip-path="url(#6)"><g clip-path="url(#7)"><g transform="matrix(0.24 0 0 0.24 434.94 285)"><g transform="matrix(1 0 0 1 0 0)"><image x="0" y="0" xlink:href="img_215.png" width="320" height="179" /></g></g></g></g></g><g clip-path="url(#8)"><g clip-path="url(#9)"><g clip-path="url(#10)"><g transform="matrix(0.48 0 0 0.48 437.34 383.94)"><g transform="matrix(1 0 0 1 0 0)"><image x="0" y="0" xlink:href="img_216.png" width="150" height="66" /></g></g></g></g></g><g clip-path="url(#11)"><g clip-path="url(#12)"><path id="574" transform="matrix(1 0 0 -1 0 842)" d="M230.58 529.22L237.48 529.22L237.48 540.02L230.58 540.02z" stroke="none" fill="#FFFFFF" fill-rule="nonzero" /><path id="576" transform="matrix(1 0 0 -1 0 842)" d="M473.34 477.08L477.48 477.08L477.3 476.42L473.82 464.3L473.34 462.62L472.86 464.3L469.38 476.42L469.2 477.08L469.86 477.08L470.34 476.72L473.82 464.6L472.86 464.3L472.86 464.6L476.34 476.72L477.3 476.42L476.82 476.06L473.34 476.06" stroke="none" fill="#000000" fill-rule="nonzero" /><path id="577" transform="matrix(1 0 0 -1 0 842)" d="M469.86 476.06L473.34 476.06L473.34 477.08L469.86 477.08z" stroke="none" fill="#000000" fill-rule="nonzero" /><path id="578" transform="matrix(1 0 0 -1 0 842)" d="M473.34 476.6L476.82 476.6L476.82 476.6L473.34 464.48L473.34 464.48L469.86 476.6" stroke="none" fill="#000000" fill-rule="evenodd" /><path id="579" transform="matrix(1 0 0 -1 0 842)" d="M472.86 509.48L473.88 509.48L473.88 509.96L472.86 509.96z" stroke="none" fill="#000000" fill-rule="nonzero" /><path id="580" transform="matrix(1 0 0 -1 0 842)" d="M472.86 476.6L473.88 476.6L473.88 509.48L472.86 509.48z" stroke="none" fill="#000000" fill-rule="nonzero" /><path id="581" transform="matrix(1 0 0 -1 0 842)" d="M445.56 536.84L455.1 536.84L455.1 547.64L445.56 547.64z" stroke="none" fill="#FFFFFF" fill-rule="nonzero" /><path id="583" transform="matrix(1 0 0 -1 0 842)" d="M490.68 517.4L498.6 517.4L498.6 528.2L490.68 528.2z" stroke="none" fill="#FFFFFF" fill-rule="nonzero" /></g></g></g></g></svg>