<svg xmlns="http://www.w3.org/2000/svg" xmlns:xlink="http://www.w3.org/1999/xlink" id="body_57" preserveAspectRatio="xMinYMin meet" viewBox="0 0 793 1123"><defs><clipPath id="1"><path id="" clip-rule="evenodd" transform="matrix(1 0 0 1 0 0)" d="M0 842L0 0L0 0L595 0L595 0L595 842L595 842L0 842z" /></clipPath><clipPath id="2"><path id="" clip-rule="evenodd" transform="matrix(1 0 0 1 0 0)" d="M282.6 303.96L482.28 303.96L482.28 303.96L482.28 336.6L482.28 336.6L282.6 336.6z" /></clipPath><clipPath id="3"><path id="" clip-rule="evenodd" transform="matrix(1 0 0 1 0 0)" d="M0 0.02001953L595.2 0.02001953L595.2 0.02001953L595.2 842L595.2 842L0 842z" /></clipPath></defs><g transform="matrix(1.333333 0 0 1.333333 0 0)"><g clip-path="url(#1)"><g clip-path="url(#2)"><g clip-path="url(#3)"><path id="695" transform="matrix(1 0 0 -1 0 842)" d="M422.46 535.52L422.7 535.52L422.7 536.06L422.46 536.06z" stroke="none" fill="#000000" fill-rule="nonzero" /><path id="696" transform="matrix(1 0 0 -1 0 842)" d="M422.46 535.52L422.46 536.06L388.14 536.06L388.08 535.82L388.32 535.52" stroke="none" fill="#000000" fill-rule="nonzero" /><path id="697" transform="matrix(1 0 0 -1 0 842)" d="M385.02 509.06L385.02 508.82L384.48 508.88L384.48 509.12" stroke="none" fill="#000000" fill-rule="nonzero" /><path id="698" transform="matrix(1 0 0 -1 0 842)" d="M388.62 535.76L388.08 535.82L384.48 509.12L385.02 509.06" stroke="none" fill="#000000" fill-rule="nonzero" /><path id="699" transform="matrix(1 0 0 -1 0 842)" d="M384.48 509L384.54 508.76L385.08 508.94L385.02 509.18" stroke="none" fill="#000000" fill-rule="nonzero" /><path id="700" transform="matrix(1 0 0 -1 0 842)" d="M384.48 509L385.02 509.18L382.62 516.32L382.32 517.1L382.08 516.32L382.08 516.14" stroke="none" fill="#000000" fill-rule="nonzero" /><path id="701" transform="matrix(1 0 0 -1 0 842)" d="M381.42 512.6L381.36 512.36L380.82 512.54L380.88 512.78" stroke="none" fill="#000000" fill-rule="nonzero" /><path id="702" transform="matrix(1 0 0 -1 0 842)" d="M382.62 516.14L382.08 516.32L380.88 512.78L381.42 512.6" stroke="none" fill="#000000" fill-rule="nonzero" /></g></g></g></g></svg>