<svg xmlns="http://www.w3.org/2000/svg" xmlns:xlink="http://www.w3.org/1999/xlink" id="body_29" preserveAspectRatio="xMinYMin meet" viewBox="0 0 793 1123"><defs><clipPath id="1"><path id="" clip-rule="evenodd" transform="matrix(1 0 0 1 0 0)" d="M0 842L0 0L0 0L595 0L595 0L595 842L595 842L0 842z" /></clipPath><clipPath id="2"><path id="" clip-rule="evenodd" transform="matrix(1 0 0 1 0 0)" d="M216.96 94.44L504.96 94.44L504.96 94.44L504.96 310.44L504.96 310.44L216.96 310.44z" /></clipPath><clipPath id="3"><path id="" clip-rule="evenodd" transform="matrix(1 0 0 1 0 0)" d="M215.94 76.02002L507.96 76.02002L507.96 76.02002L507.96 331.26L507.96 331.26L215.94 331.26z" /></clipPath><clipPath id="4"><path id="" clip-rule="evenodd" transform="matrix(1 0 0 1 0 0)" d="M0 0.02001953L595.2 0.02001953L595.2 0.02001953L595.2 842L595.2 842L0 842z" /></clipPath><clipPath id="5"><path id="" clip-rule="evenodd" transform="matrix(1 0 0 1 0 0)" d="M215.94 76.02002L507.96 76.02002L507.96 76.02002L507.96 331.26L507.96 331.26L215.94 331.26z" /></clipPath><clipPath id="6"><path id="" clip-rule="evenodd" transform="matrix(1 0 0 1 0 0)" d="M0 0.02001953L595.2 0.02001953L595.2 0.02001953L595.2 842L595.2 842L0 842z" /></clipPath></defs><g transform="matrix(1.333333 0 0 1.333333 0 0)"><g clip-path="url(#1)"><g clip-path="url(#2)"><g clip-path="url(#3)"><g clip-path="url(#4)"><g transform="matrix(0.48 0 0 0.48 216.96 94.44)"><g transform="matrix(1 0 0 1 0 0)"><image x="0" y="0" xlink:href="img_56.png" width="600" height="450" /></g></g></g></g></g><g clip-path="url(#5)"><g clip-path="url(#6)"><path id="692" transform="matrix(1 0 0 -1 0 842)" d="M427.26 754.7L428.28 754.7L428.28 755.18L427.26 755.18z" stroke="none" fill="#000000" fill-rule="nonzero" /><path id="693" transform="matrix(1 0 0 -1 0 842)" d="M427.26 705.26L428.28 705.26L428.28 754.7L427.26 754.7z" stroke="none" fill="#000000" fill-rule="nonzero" /><path id="700" transform="matrix(1 0 0 -1 0 842)" d="M294.06 754.7L295.08 754.7L295.08 755.18L294.06 755.18z" stroke="none" fill="#000000" fill-rule="nonzero" /><path id="701" transform="matrix(1 0 0 -1 0 842)" d="M294.66 695.6L295.68 695.6L295.68 696.08L294.66 696.08z" stroke="none" fill="#000000" fill-rule="nonzero" /><path id="702" transform="matrix(1 0 0 -1 0 842)" d="M295.08 754.7L294.06 754.7L294.66 696.08L295.68 696.08" stroke="none" fill="#000000" fill-rule="nonzero" /><path id="710" transform="matrix(1 0 0 -1 0 842)" d="M269.46 525.86L270.48 525.86L270.48 526.34L269.46 526.34z" stroke="none" fill="#000000" fill-rule="nonzero" /><path id="711" transform="matrix(1 0 0 -1 0 842)" d="M269.46 526.34L270.48 526.34L270.48 610.82L269.46 610.82z" stroke="none" fill="#000000" fill-rule="nonzero" /><path id="712" transform="matrix(1 0 0 -1 0 842)" d="M345.3 754.7L346.32 754.7L346.32 755.18L345.3 755.18z" stroke="none" fill="#000000" fill-rule="nonzero" /><path id="713" transform="matrix(1 0 0 -1 0 842)" d="M345.9 695.6L346.92 695.6L346.92 696.08L345.9 696.08z" stroke="none" fill="#000000" fill-rule="nonzero" /><path id="714" transform="matrix(1 0 0 -1 0 842)" d="M346.32 754.7L345.3 754.7L345.9 696.08L346.92 696.08" stroke="none" fill="#000000" fill-rule="nonzero" /></g></g></g></g></svg>