<svg xmlns="http://www.w3.org/2000/svg" xmlns:xlink="http://www.w3.org/1999/xlink" id="body_173" preserveAspectRatio="xMinYMin meet" viewBox="0 0 793 1123"><defs><clipPath id="1"><path id="" clip-rule="evenodd" transform="matrix(1 0 0 1 0 0)" d="M0 842L0 0L0 0L595 0L595 0L595 842L595 842L0 842z" /></clipPath><clipPath id="2"><path id="" clip-rule="evenodd" transform="matrix(1 0 0 1 0 0)" d="M225.96 106.2L334.5 106.2L334.5 106.2L334.5 293.64L334.5 293.64L225.96 293.64z" /></clipPath><clipPath id="3"><path id="" clip-rule="evenodd" transform="matrix(1 0 0 1 0 0)" d="M224.94 76.02002L483.3 76.02002L483.3 76.02002L483.3 321.54L483.3 321.54L224.94 321.54z" /></clipPath><clipPath id="4"><path id="" clip-rule="evenodd" transform="matrix(1 0 0 1 0 0)" d="M0 0.02001953L595.2 0.02001953L595.2 0.02001953L595.2 842L595.2 842L0 842z" /></clipPath><clipPath id="5"><path id="" clip-rule="evenodd" transform="matrix(1 0 0 1 0 0)" d="M385.74 79.26001L482.28 79.26001L482.28 79.26001L482.28 320.58L482.28 320.58L385.74 320.58z" /></clipPath><clipPath id="6"><path id="" clip-rule="evenodd" transform="matrix(1 0 0 1 0 0)" d="M224.94 76.02002L483.3 76.02002L483.3 76.02002L483.3 321.54L483.3 321.54L224.94 321.54z" /></clipPath><clipPath id="7"><path id="" clip-rule="evenodd" transform="matrix(1 0 0 1 0 0)" d="M0 0.02001953L595.2 0.02001953L595.2 0.02001953L595.2 842L595.2 842L0 842z" /></clipPath><clipPath id="8"><path id="" clip-rule="evenodd" transform="matrix(1 0 0 1 0 0)" d="M224.94 76.02002L483.3 76.02002L483.3 76.02002L483.3 321.54L483.3 321.54L224.94 321.54z" /></clipPath><clipPath id="9"><path id="" clip-rule="evenodd" transform="matrix(1 0 0 1 0 0)" d="M0 0.02001953L595.2 0.02001953L595.2 0.02001953L595.2 842L595.2 842L0 842z" /></clipPath><clipPath id="10"><path id="" clip-rule="evenodd" transform="matrix(1 0 0 1 0 0)" d="M45.96 432.12L195.96 432.12L195.96 432.12L195.96 517.98L195.96 517.98L45.96 517.98z" /></clipPath><clipPath id="11"><path id="" clip-rule="evenodd" transform="matrix(1 0 0 1 0 0)" d="M44.94 408.54L558.12 408.54L558.12 408.54L558.12 520.02L558.12 520.02L44.94 520.02z" /></clipPath><clipPath id="12"><path id="" clip-rule="evenodd" transform="matrix(1 0 0 1 0 0)" d="M0 0.02001953L595.2 0.02001953L595.2 0.02001953L595.2 842L595.2 842L0 842z" /></clipPath><clipPath id="13"><path id="" clip-rule="evenodd" transform="matrix(1 0 0 1 0 0)" d="M424.74 431.1L557.16 431.1L557.16 431.1L557.16 519L557.16 519L424.74 519z" /></clipPath><clipPath id="14"><path id="" clip-rule="evenodd" transform="matrix(1 0 0 1 0 0)" d="M44.94 408.54L558.12 408.54L558.12 408.54L558.12 520.02L558.12 520.02L44.94 520.02z" /></clipPath><clipPath id="15"><path id="" clip-rule="evenodd" transform="matrix(1 0 0 1 0 0)" d="M0 0.02001953L595.2 0.02001953L595.2 0.02001953L595.2 842L595.2 842L0 842z" /></clipPath><clipPath id="16"><path id="" clip-rule="evenodd" transform="matrix(1 0 0 1 0 0)" d="M233.64 431.46L386.22 431.46L386.22 431.46L386.22 518.64L386.22 518.64L233.64 518.64z" /></clipPath><clipPath id="17"><path id="" clip-rule="evenodd" transform="matrix(1 0 0 1 0 0)" d="M44.94 408.54L558.12 408.54L558.12 408.54L558.12 520.02L558.12 520.02L44.94 520.02z" /></clipPath><clipPath id="18"><path id="" clip-rule="evenodd" transform="matrix(1 0 0 1 0 0)" d="M0 0.02001953L595.2 0.02001953L595.2 0.02001953L595.2 842L595.2 842L0 842z" /></clipPath><clipPath id="19"><path id="" clip-rule="evenodd" transform="matrix(1 0 0 1 0 0)" d="M44.94 408.54L558.12 408.54L558.12 408.54L558.12 520.02L558.12 520.02L44.94 520.02z" /></clipPath><clipPath id="20"><path id="" clip-rule="evenodd" transform="matrix(1 0 0 1 0 0)" d="M0 0.02001953L595.2 0.02001953L595.2 0.02001953L595.2 842L595.2 842L0 842z" /></clipPath></defs><g transform="matrix(1.333333 0 0 1.333333 0 0)"><g clip-path="url(#1)"><g clip-path="url(#2)"><g clip-path="url(#3)"><g clip-path="url(#4)"><g transform="matrix(0.4781498 0 0 0.4793862 225.96 106.2)"><g transform="matrix(1 0 0 1 0 0)"><image x="0" y="0" xlink:href="img_467.png" width="227" height="391" /></g></g></g></g></g><g clip-path="url(#5)"><g clip-path="url(#6)"><g clip-path="url(#7)"><g transform="matrix(0.4779208 0 0 0.4788096 385.74 79.26001)"><g transform="matrix(1 0 0 1 0 0)"><image x="0" y="0" xlink:href="img_468.png" width="202" height="504" /></g></g></g></g></g><g clip-path="url(#8)"><g clip-path="url(#9)"><path id="404" transform="matrix(1 0 0 -1 0 842)" d="M373.68 645.44L373.68 645.68L373.68 645.68L373.62 645.86L373.62 645.86L373.5 646.04L373.5 646.04L373.38 646.16L373.38 646.16L373.26 646.28L373.26 646.28L373.08 646.4L373.08 646.4L372.9 646.46L372.9 646.46L372.48 646.46L372.48 646.46L372.3 646.4L372.3 646.4L371.94 646.16L371.94 646.16L371.82 646.04L371.82 646.04L371.76 645.86L371.76 645.86L371.7 645.68L371.7 645.68L371.7 645.26L371.7 645.26L371.82 644.9L371.82 644.9L371.94 644.78L371.94 644.78L372.3 644.54L372.3 644.54L372.48 644.48L372.48 644.48L372.9 644.48L372.9 644.48L373.08 644.54L373.08 644.54L373.26 644.66L373.26 644.66L373.5 644.9L373.5 644.9L373.62 645.08L373.62 645.08L373.68 645.26L373.68 645.26L373.68 645.44" stroke="none" fill="#000000" fill-rule="evenodd" /><path id="405" transform="matrix(1 0 0 -1 0 842)" d="M372.72 645.44L372.72 650L373.5 649.52L379.74 645.86L380.52 645.44L379.68 644.96L373.44 641.36L372.72 640.94L372.72 641.84L372.96 642.26L379.2 645.86L379.68 644.96L379.2 644.96L372.96 648.62L373.5 649.52L373.74 649.1L373.74 645.44" stroke="none" fill="#000000" fill-rule="nonzero" /><path id="406" transform="matrix(1 0 0 -1 0 842)" d="M372.72 641.84L373.74 641.84L373.74 645.44L372.72 645.44z" stroke="none" fill="#000000" fill-rule="nonzero" /><path id="407" transform="matrix(1 0 0 -1 0 842)" d="M373.2 645.44L373.2 649.1L373.2 649.1L379.44 645.44L379.44 645.44L373.2 641.84" stroke="none" fill="#000000" fill-rule="evenodd" /><path id="408" transform="matrix(1 0 0 -1 0 842)" d="M339 644.42L339.96 644.42L339.96 646.4L339 646.4z" stroke="none" fill="#000000" fill-rule="nonzero" /><path id="409" transform="matrix(1 0 0 -1 0 842)" d="M339.96 644.42L373.62 644.42L373.62 646.4L339.96 646.4z" stroke="none" fill="#000000" fill-rule="nonzero" /><path id="410" transform="matrix(1 0 0 -1 0 842)" d="M289.44 726.44L288.9 726.26L288.9 726.26L288.78 726.14L288.78 726.14L288.66 725.96L288.66 725.96L288.54 725.84L288.54 725.84L288.48 725.6L288.48 725.6L288.48 725.24L288.48 725.24L288.54 725.06L288.54 725.06L288.78 724.7L288.78 724.7L288.9 724.58L288.9 724.58L289.08 724.52L289.08 724.52L289.26 724.46L289.26 724.46L289.44 724.4L289.44 724.4L289.68 724.46L289.68 724.46L289.86 724.52L289.86 724.52L290.04 724.58L290.04 724.58L290.16 724.7L290.16 724.7L290.4 725.06L290.4 725.06L290.46 725.24L290.46 725.24L290.46 725.6L290.46 725.6L290.4 725.84L290.4 725.84L290.28 725.96L290.28 725.96L290.16 726.14L290.16 726.14L290.04 726.26L290.04 726.26L289.68 726.38L289.68 726.38L289.44 726.44" stroke="none" fill="#FF0000" fill-rule="evenodd" /><path id="411" transform="matrix(1 0 0 -1 0 842)" d="M289.44 725.42L285 725.42L285.42 726.14L289.02 732.44L289.5 733.22L289.92 732.5L293.58 726.2L294.06 725.42L293.1 725.42L292.68 725.66L289.02 731.96L289.92 732.5L289.92 731.96L286.32 725.66L285.42 726.14L285.84 726.44L289.44 726.44" stroke="none" fill="#FF0000" fill-rule="nonzero" /><path id="412" transform="matrix(1 0 0 -1 0 842)" d="M289.44 725.42L293.1 725.42L293.1 726.44L289.44 726.44z" stroke="none" fill="#FF0000" fill-rule="nonzero" /><path id="413" transform="matrix(1 0 0 -1 0 842)" d="M289.44 725.9L285.84 725.9L285.84 725.9L289.44 732.2L289.44 732.2L293.1 725.9" stroke="none" fill="#FF0000" fill-rule="evenodd" /><path id="414" transform="matrix(1 0 0 -1 0 842)" d="M288.48 717.98L290.46 717.98L290.46 718.94L288.48 718.94z" stroke="none" fill="#FF0000" fill-rule="nonzero" /><path id="415" transform="matrix(1 0 0 -1 0 842)" d="M288.48 718.94L290.46 718.94L290.46 726.38L288.48 726.38z" stroke="none" fill="#FF0000" fill-rule="nonzero" /><path id="416" transform="matrix(1 0 0 -1 0 842)" d="M422.82 749.24L422.76 749.06L422.76 749.06L422.76 748.64L422.76 748.64L422.82 748.46L422.82 748.46L422.88 748.28L422.88 748.28L423.18 747.98L423.18 747.98L423.3 747.92L423.3 747.92L423.54 747.86L423.54 747.86L423.72 747.8L423.72 747.8L423.9 747.8L423.9 747.8L424.08 747.86L424.08 747.86L424.44 748.1L424.44 748.1L424.56 748.22L424.56 748.22L424.68 748.4L424.68 748.4L424.74 748.58L424.74 748.58L424.74 749L424.74 749L424.68 749.18L424.68 749.18L424.62 749.36L424.62 749.36L424.5 749.48L424.5 749.48L424.14 749.72L424.14 749.72L423.96 749.78L423.96 749.78L423.78 749.84L423.78 749.84L423.6 749.78L423.6 749.78L423.36 749.78L423.36 749.78L423.24 749.66L423.24 749.66L423.06 749.54L423.06 749.54L422.94 749.42L422.94 749.42L422.82 749.24" stroke="none" fill="#FF0000" fill-rule="evenodd" /><path id="417" transform="matrix(1 0 0 -1 0 842)" d="M423.72 748.82L422.22 745.52L421.92 744.74L421.38 745.4L417.12 751.34L416.7 752.12L417.54 752.18L424.8 752.84L425.58 752.9L425.22 752.12L424.86 751.82L417.6 751.16L417.54 752.18L417.96 752L422.22 746.06L421.38 745.4L421.32 745.94L422.82 749.24" stroke="none" fill="#FF0000" fill-rule="nonzero" /><path id="418" transform="matrix(1 0 0 -1 0 842)" d="M425.22 752.12L423.72 748.82L422.82 749.24L424.32 752.54" stroke="none" fill="#FF0000" fill-rule="nonzero" /><path id="419" transform="matrix(1 0 0 -1 0 842)" d="M423.3 749L421.8 745.7L421.8 745.7L417.54 751.64L417.54 751.64L424.8 752.3" stroke="none" fill="#FF0000" fill-rule="evenodd" /><path id="420" transform="matrix(1 0 0 -1 0 842)" d="M424.2 749.72L423.3 750.14L422.4 748.34L423.3 747.92" stroke="none" fill="#FF0000" fill-rule="nonzero" /><path id="421" transform="matrix(1 0 0 -1 0 842)" d="M424.2 749.72L424.56 749.54L424.62 749.48L424.92 749.3L424.86 749.36L425.22 749.18L425.4 749.06L425.7 748.8199L425.58 748.8799L425.88 748.7L426 748.64L426.6 748.16L426.66 748.04L427.62 747.08L427.86 746.78L427.8 746.84L428.22 746.42L429.18 744.98L429.18 744.92L429.66 744.14L429.72 744.08L430.56 742.4L430.62 742.34L431.7 739.46L431.7 739.4L432.06 738.3799L432.06 738.2599L432.3 737.18L432.3 737.24L432.6 736.16L432.6 736.1L432.84 734.96L433.08 733.8199L433.32 732.62L433.38 732.56L433.74 730.16L433.92 728.9L433.92 728.84L434.04 727.64L434.16 726.3199L434.28 725.06L434.28 725L434.34 723.68L434.34 723.74L434.4 722.48L434.4 722.42L434.46 721.1L434.52 719.78L432.54 719.78L432.54 719.72L432.48 721.04L432.42 722.36L432.36 723.62L432.3 724.9399L432.3 724.8799L432.18 726.14L432.06 727.46L431.94 728.66L431.94 728.6L431.76 729.86L431.58 731.06L431.4 732.2599L431.16 733.46L431.16 733.4L430.68 735.68L430.68 735.62L430.38 736.7L430.38 736.7599L430.14 737.84L430.2 737.72L429.84 738.74L428.76 741.62L428.76 741.5L427.92 743.18L427.98 743.12L427.5 743.9L427.56 743.9L426.6 745.34L426.72 745.16L426.42 745.46L426.3 745.52L426.06 745.8199L426.18 745.7599L425.28 746.66L425.34 746.6L424.74 747.08L424.86 747.02L424.56 747.2L424.44 747.2599L424.14 747.5L424.32 747.3799L423.96 747.56L423.9 747.62L423.6 747.8L423.66 747.74L423.3 747.92" stroke="none" fill="#FF0000" fill-rule="nonzero" /><path id="422" transform="matrix(1 0 0 -1 0 842)" d="M434.52 719.78L434.52 718.46L432.54 718.4L432.54 719.78" stroke="none" fill="#FF0000" fill-rule="nonzero" /><path id="423" transform="matrix(1 0 0 -1 0 842)" d="M434.58 717.14L434.58 716.18L432.6 716.12L432.6 717.08" stroke="none" fill="#FF0000" fill-rule="nonzero" /><path id="424" transform="matrix(1 0 0 -1 0 842)" d="M434.52 718.46L432.54 718.4L432.6 717.08L434.58 717.14" stroke="none" fill="#FF0000" fill-rule="nonzero" /></g></g><g clip-path="url(#10)"><g clip-path="url(#11)"><g clip-path="url(#12)"><g transform="matrix(0.4792332 0 0 0.4796648 45.96 432.12)"><g transform="matrix(1 0 0 1 0 0)"><image x="0" y="0" xlink:href="img_469.png" width="313" height="179" /></g></g></g></g></g><g clip-path="url(#13)"><g clip-path="url(#14)"><g clip-path="url(#15)"><g transform="matrix(0.480163 0 0 0.4803279 424.74 431.1)"><g transform="matrix(1 0 0 1 0 0)"><image x="0" y="0" xlink:href="img_470.png" width="276" height="183" /></g></g></g></g></g><g clip-path="url(#16)"><g clip-path="url(#17)"><g clip-path="url(#18)"><g transform="matrix(0.4803647 0 0 0.479011 233.64 431.46)"><g transform="matrix(1 0 0 1 0 0)"><image x="0" y="0" xlink:href="img_471.png" width="318" height="182" /></g></g></g></g></g><g clip-path="url(#19)"><g clip-path="url(#20)"><path id="445" transform="matrix(1 0 0 -1 0 842)" d="M79.86 417.92L80.88 417.92L80.88 418.4L79.86 418.4z" stroke="none" fill="#000000" fill-rule="nonzero" /><path id="446" transform="matrix(1 0 0 -1 0 842)" d="M79.86 378.62L80.88 378.62L80.88 417.92L79.86 417.92z" stroke="none" fill="#000000" fill-rule="nonzero" /><path id="447" transform="matrix(1 0 0 -1 0 842)" d="M286.5 418.7L287.52 418.7L287.52 419.18L286.5 419.18z" stroke="none" fill="#000000" fill-rule="nonzero" /><path id="448" transform="matrix(1 0 0 -1 0 842)" d="M287.4 373.64L288.42 373.64L288.42 374.12L287.4 374.12z" stroke="none" fill="#000000" fill-rule="nonzero" /><path id="449" transform="matrix(1 0 0 -1 0 842)" d="M287.52 418.7L286.5 418.7L287.4 374.12L288.42 374.12" stroke="none" fill="#000000" fill-rule="nonzero" /><path id="457" transform="matrix(1 0 0 -1 0 842)" d="M221.52 366.92L221.52 367.16L221.52 367.16L221.46 367.34L221.46 367.34L221.4 367.52L221.4 367.52L221.28 367.64L221.28 367.64L220.92 367.88L220.92 367.88L220.74 367.94L220.74 367.94L220.32 367.94L220.32 367.94L220.14 367.88L220.14 367.88L220.02 367.76L220.02 367.76L219.84 367.64L219.84 367.64L219.72 367.52L219.72 367.52L219.6 367.34L219.6 367.34L219.54 367.16L219.54 367.16L219.54 366.74L219.54 366.74L219.6 366.56L219.6 366.56L219.72 366.38L219.72 366.38L219.84 366.26L219.84 366.26L220.02 366.14L220.02 366.14L220.14 366.02L220.14 366.02L220.32 365.96L220.32 365.96L220.74 365.96L220.74 365.96L220.92 366.02L220.92 366.02L221.28 366.26L221.28 366.26L221.4 366.38L221.4 366.38L221.46 366.56L221.46 366.56L221.52 366.74L221.52 366.74L221.52 366.92" stroke="none" fill="#000000" fill-rule="evenodd" /><path id="458" transform="matrix(1 0 0 -1 0 842)" d="M220.56 366.92L220.56 371.48L221.34 371L227.64 367.34L228.42 366.92L221.28 362.84L220.56 362.42L220.56 363.32L220.8 363.74L227.1 367.34L227.58 366.44L227.1 366.44L220.8 370.1L221.34 371L221.58 370.58L221.58 366.92" stroke="none" fill="#000000" fill-rule="nonzero" /><path id="459" transform="matrix(1 0 0 -1 0 842)" d="M220.56 363.32L221.58 363.32L221.58 366.92L220.56 366.92z" stroke="none" fill="#000000" fill-rule="nonzero" /><path id="460" transform="matrix(1 0 0 -1 0 842)" d="M221.04 366.92L221.04 370.58L221.04 370.58L227.34 366.92L227.34 366.92L221.04 363.32" stroke="none" fill="#000000" fill-rule="evenodd" /><path id="461" transform="matrix(1 0 0 -1 0 842)" d="M198.6 365.9L199.56 365.9L199.56 367.88L198.6 367.88z" stroke="none" fill="#000000" fill-rule="nonzero" /><path id="462" transform="matrix(1 0 0 -1 0 842)" d="M199.56 365.9L221.52 365.9L221.52 367.88L199.56 367.88z" stroke="none" fill="#000000" fill-rule="nonzero" /><path id="463" transform="matrix(1 0 0 -1 0 842)" d="M413.7 366.92L413.7 367.16L413.7 367.16L413.64 367.34L413.64 367.34L413.58 367.52L413.58 367.52L413.4 367.64L413.4 367.64L413.28 367.76L413.28 367.76L413.1 367.88L413.1 367.88L412.92 367.94L412.92 367.94L412.5 367.94L412.5 367.94L412.32 367.88L412.32 367.88L412.14 367.76L412.14 367.76L411.9 367.52L411.9 367.52L411.78 367.34L411.78 367.34L411.72 367.16L411.72 367.16L411.72 366.74L411.72 366.74L411.78 366.56L411.78 366.56L411.9 366.38L411.9 366.38L412.14 366.14L412.14 366.14L412.32 366.02L412.32 366.02L412.5 365.96L412.5 365.96L412.92 365.96L412.92 365.96L413.1 366.02L413.1 366.02L413.28 366.14L413.28 366.14L413.4 366.26L413.4 366.26L413.58 366.38L413.58 366.38L413.64 366.56L413.64 366.56L413.7 366.74L413.7 366.74L413.7 366.92" stroke="none" fill="#000000" fill-rule="evenodd" /><path id="464" transform="matrix(1 0 0 -1 0 842)" d="M412.74 366.92L412.74 371.48L413.52 371L419.82 367.34L420.6 366.92L413.46 362.84L412.74 362.42L412.74 363.32L412.98 363.74L419.28 367.34L419.76 366.44L419.28 366.44L412.98 370.1L413.52 371L413.76 370.58L413.76 366.92" stroke="none" fill="#000000" fill-rule="nonzero" /><path id="465" transform="matrix(1 0 0 -1 0 842)" d="M412.74 363.32L413.76 363.32L413.76 366.92L412.74 366.92z" stroke="none" fill="#000000" fill-rule="nonzero" /><path id="466" transform="matrix(1 0 0 -1 0 842)" d="M413.22 366.92L413.22 370.58L413.22 370.58L419.52 366.92L419.52 366.92L413.22 363.32" stroke="none" fill="#000000" fill-rule="evenodd" /><path id="467" transform="matrix(1 0 0 -1 0 842)" d="M390.78 365.9L391.74 365.9L391.74 367.88L390.78 367.88z" stroke="none" fill="#000000" fill-rule="nonzero" /><path id="468" transform="matrix(1 0 0 -1 0 842)" d="M391.74 365.9L413.7 365.9L413.7 367.88L391.74 367.88z" stroke="none" fill="#000000" fill-rule="nonzero" /></g></g></g></g></svg>