<svg xmlns="http://www.w3.org/2000/svg" xmlns:xlink="http://www.w3.org/1999/xlink" id="body_243" preserveAspectRatio="xMinYMin meet" viewBox="0 0 793 1123"><defs><clipPath id="1"><path id="" clip-rule="evenodd" transform="matrix(1 0 0 1 0 0)" d="M0 842L0 0L0 0L595 0L595 0L595 842L595 842L0 842z" /></clipPath><clipPath id="2"><path id="" clip-rule="evenodd" transform="matrix(1 0 0 1 0 0)" d="M36.96 244.98L209.1 244.98L209.1 244.98L209.1 318.24L209.1 318.24L36.96 318.24z" /></clipPath><clipPath id="3"><path id="" clip-rule="evenodd" transform="matrix(1 0 0 1 0 0)" d="M35.94 243.96L546.66 243.96L546.66 243.96L546.66 324.1801L546.66 324.1801L35.94 324.1801z" /></clipPath><clipPath id="4"><path id="" clip-rule="evenodd" transform="matrix(1 0 0 1 0 0)" d="M0 0.02001953L595.2 0.02001953L595.2 0.02001953L595.2 842L595.2 842L0 842z" /></clipPath><clipPath id="5"><path id="" clip-rule="evenodd" transform="matrix(1 0 0 1 0 0)" d="M234.72 244.98L400.14 244.98L400.14 244.98L400.14 313.62L400.14 313.62L234.72 313.62z" /></clipPath><clipPath id="6"><path id="" clip-rule="evenodd" transform="matrix(1 0 0 1 0 0)" d="M35.94 243.96L546.66 243.96L546.66 243.96L546.66 324.1801L546.66 324.1801L35.94 324.1801z" /></clipPath><clipPath id="7"><path id="" clip-rule="evenodd" transform="matrix(1 0 0 1 0 0)" d="M0 0.02001953L595.2 0.02001953L595.2 0.02001953L595.2 842L595.2 842L0 842z" /></clipPath><clipPath id="8"><path id="" clip-rule="evenodd" transform="matrix(1 0 0 1 0 0)" d="M428.58 244.98L545.64 244.98L545.64 244.98L545.64 323.16L545.64 323.16L428.58 323.16z" /></clipPath><clipPath id="9"><path id="" clip-rule="evenodd" transform="matrix(1 0 0 1 0 0)" d="M35.94 243.96L546.66 243.96L546.66 243.96L546.66 324.1801L546.66 324.1801L35.94 324.1801z" /></clipPath><clipPath id="10"><path id="" clip-rule="evenodd" transform="matrix(1 0 0 1 0 0)" d="M0 0.02001953L595.2 0.02001953L595.2 0.02001953L595.2 842L595.2 842L0 842z" /></clipPath><clipPath id="11"><path id="" clip-rule="evenodd" transform="matrix(1 0 0 1 0 0)" d="M35.94 243.96L546.66 243.96L546.66 243.96L546.66 324.1801L546.66 324.1801L35.94 324.1801z" /></clipPath><clipPath id="12"><path id="" clip-rule="evenodd" transform="matrix(1 0 0 1 0 0)" d="M0 0.02001953L595.2 0.02001953L595.2 0.02001953L595.2 842L595.2 842L0 842z" /></clipPath><clipPath id="13"><path id="" clip-rule="evenodd" transform="matrix(1 0 0 1 0 0)" d="M115.56 371.16L193.98 371.16L193.98 371.16L193.98 385.56L193.98 385.56L115.56 385.56z" /></clipPath><clipPath id="14"><path id="" clip-rule="evenodd" transform="matrix(1 0 0 1 0 0)" d="M0 0.02001953L595.2 0.02001953L595.2 0.02001953L595.2 842L595.2 842L0 842z" /></clipPath><clipPath id="15"><path id="" clip-rule="evenodd" transform="matrix(1 0 0 1 0 0)" d="M115.98 371.64L189.36 371.64L189.36 371.64L189.36 385.44L189.36 385.44L115.98 385.44z" /></clipPath><clipPath id="16"><path id="" clip-rule="evenodd" transform="matrix(1 0 0 1 0 0)" d="M115.56 371.16L193.98 371.16L193.98 371.16L193.98 385.56L193.98 385.56L115.56 385.56z" /></clipPath><clipPath id="17"><path id="" clip-rule="evenodd" transform="matrix(1 0 0 1 0 0)" d="M0 0.02001953L595.2 0.02001953L595.2 0.02001953L595.2 842L595.2 842L0 842z" /></clipPath><clipPath id="18"><path id="" clip-rule="evenodd" transform="matrix(1 0 0 1 0 0)" d="M216.96 588.12L339.96 588.12L339.96 588.12L339.96 677.88L339.96 677.88L216.96 677.88z" /></clipPath><clipPath id="19"><path id="" clip-rule="evenodd" transform="matrix(1 0 0 1 0 0)" d="M215.94 579.12L515.52 579.12L515.52 579.12L515.52 683.1L515.52 683.1L215.94 683.1z" /></clipPath><clipPath id="20"><path id="" clip-rule="evenodd" transform="matrix(1 0 0 1 0 0)" d="M0 0.02001953L595.2 0.02001953L595.2 0.02001953L595.2 842L595.2 842L0 842z" /></clipPath><clipPath id="21"><path id="" clip-rule="evenodd" transform="matrix(1 0 0 1 0 0)" d="M391.92 582L514.5 582L514.5 582L514.5 684L514.5 684L391.92 684z" /></clipPath><clipPath id="22"><path id="" clip-rule="evenodd" transform="matrix(1 0 0 1 0 0)" d="M215.94 579.12L515.52 579.12L515.52 579.12L515.52 683.1L515.52 683.1L215.94 683.1z" /></clipPath><clipPath id="23"><path id="" clip-rule="evenodd" transform="matrix(1 0 0 1 0 0)" d="M0 0.02001953L595.2 0.02001953L595.2 0.02001953L595.2 842L595.2 842L0 842z" /></clipPath><clipPath id="24"><path id="" clip-rule="evenodd" transform="matrix(1 0 0 1 0 0)" d="M215.94 579.12L515.52 579.12L515.52 579.12L515.52 683.1L515.52 683.1L215.94 683.1z" /></clipPath><clipPath id="25"><path id="" clip-rule="evenodd" transform="matrix(1 0 0 1 0 0)" d="M0 0.02001953L595.2 0.02001953L595.2 0.02001953L595.2 842L595.2 842L0 842z" /></clipPath></defs><g transform="matrix(1.333333 0 0 1.333333 0 0)"><g clip-path="url(#1)"><g clip-path="url(#2)"><g clip-path="url(#3)"><g clip-path="url(#4)"><g transform="matrix(0.4794986 0 0 0.4788235 36.96 244.98)"><g transform="matrix(1 0 0 1 0 0)"><image x="0" y="0" xlink:href="img_688.png" width="359" height="153" /></g></g></g></g></g><g clip-path="url(#5)"><g clip-path="url(#6)"><g clip-path="url(#7)"><g transform="matrix(0.4794783 0 0 0.4766667 234.72 244.98)"><g transform="matrix(1 0 0 1 0 0)"><image x="0" y="0" xlink:href="img_689.png" width="345" height="144" /></g></g></g></g></g><g clip-path="url(#8)"><g clip-path="url(#9)"><g clip-path="url(#10)"><g transform="matrix(0.4787061 0 0 0.4796319 428.58 244.98)"><g transform="matrix(1 0 0 1 0 0)"><image x="0" y="0" xlink:href="img_690.png" width="245" height="163" /></g></g></g></g></g><g clip-path="url(#11)"><g clip-path="url(#12)"><path id="392" transform="matrix(1 0 0 -1 0 842)" d="M219.06 554.72L219.06 558.86L219.72 558.68L231.84 555.2L233.52 554.72L231.84 554.24L219.72 550.8199L219.06 550.64L219.06 551.3L219.42 551.78L231.54 555.2L231.84 554.24L231.54 554.24L219.42 557.72L219.72 558.68L220.08 558.2L220.08 554.72" stroke="none" fill="#000000" fill-rule="nonzero" /><path id="393" transform="matrix(1 0 0 -1 0 842)" d="M219.06 551.3L220.08 551.3L220.08 554.72L219.06 554.72z" stroke="none" fill="#000000" fill-rule="nonzero" /><path id="394" transform="matrix(1 0 0 -1 0 842)" d="M219.54 554.72L219.54 558.2L219.54 558.2L231.66 554.72L231.66 554.72L219.54 551.3" stroke="none" fill="#000000" fill-rule="evenodd" /><path id="395" transform="matrix(1 0 0 -1 0 842)" d="M211.2 554.18L219.54 554.18L219.54 555.2L211.2 555.2z" stroke="none" fill="#000000" fill-rule="nonzero" /><path id="396" transform="matrix(1 0 0 -1 0 842)" d="M411.06 554.72L411.06 558.86L411.72 558.68L423.84 555.2L425.52 554.72L423.84 554.24L411.72 550.8199L411.06 550.64L411.06 551.3L411.42 551.78L423.54 555.2L423.84 554.24L423.54 554.24L411.42 557.72L411.72 558.68L412.08 558.2L412.08 554.72" stroke="none" fill="#000000" fill-rule="nonzero" /><path id="397" transform="matrix(1 0 0 -1 0 842)" d="M411.06 551.3L412.08 551.3L412.08 554.72L411.06 554.72z" stroke="none" fill="#000000" fill-rule="nonzero" /><path id="398" transform="matrix(1 0 0 -1 0 842)" d="M411.54 554.72L411.54 558.2L411.54 558.2L423.66 554.72L423.66 554.72L411.54 551.3" stroke="none" fill="#000000" fill-rule="evenodd" /><path id="399" transform="matrix(1 0 0 -1 0 842)" d="M403.26 554.18L411.54 554.18L411.54 555.2L403.26 555.2z" stroke="none" fill="#000000" fill-rule="nonzero" /></g></g><g clip-path="url(#13)"><g clip-path="url(#14)"><path id="400" transform="matrix(1 0 0 -1 0 842)" d="M115.56 456.44L193.98 456.44L193.98 470.84L115.56 470.84z" stroke="none" fill="#FFFFFF" fill-rule="nonzero" /></g></g><g clip-path="url(#15)"><g clip-path="url(#16)"><g clip-path="url(#17)"><g transform="matrix(0.7265346 0 0 0.7263158 115.98 371.64)"><g transform="matrix(1 0 0 1 0 0)"><image x="0" y="0" xlink:href="img_09.png" width="101" height="19" /></g></g></g></g></g><path id="402" transform="matrix(1 0 0 -1 0 842)" d="M233.94 474.86L549 474.86L549 350.9L233.94 350.9" stroke="none" fill="#ECF5FC" fill-rule="nonzero" /><g clip-path="url(#18)"><g clip-path="url(#19)"><g clip-path="url(#20)"><g transform="matrix(0.4785992 0 0 0.48 216.96 588.12)"><g transform="matrix(1 0 0 1 0 0)"><image x="0" y="0" xlink:href="img_691.png" width="257" height="187" /></g></g></g></g></g><g clip-path="url(#21)"><g clip-path="url(#22)"><g clip-path="url(#23)"><g transform="matrix(0.4788281 0 0 0.4788733 391.92 582)"><g transform="matrix(1 0 0 1 0 0)"><image x="0" y="0" xlink:href="img_692.png" width="256" height="213" /></g></g></g></g></g><g clip-path="url(#24)"><g clip-path="url(#25)"><path id="597" transform="matrix(1 0 0 -1 0 842)" d="M376.74 209L376.74 212.78L377.52 212.3L382.5 209.42L383.34 209L382.5 208.52L377.52 205.64L376.74 205.16L376.74 206.12L376.98 206.54L381.96 209.42L382.5 208.52L381.96 208.52L376.98 211.4L377.52 212.3L377.76 211.88L377.76 209" stroke="none" fill="#000000" fill-rule="nonzero" /><path id="598" transform="matrix(1 0 0 -1 0 842)" d="M376.74 206.12L377.76 206.12L377.76 209L376.74 209z" stroke="none" fill="#000000" fill-rule="nonzero" /><path id="599" transform="matrix(1 0 0 -1 0 842)" d="M377.22 209L377.22 211.88L377.22 211.88L382.2 209L382.2 209L377.22 206.12" stroke="none" fill="#000000" fill-rule="evenodd" /><path id="600" transform="matrix(1 0 0 -1 0 842)" d="M348.24 208.46L348.72 208.46L348.72 209.48L348.24 209.48z" stroke="none" fill="#000000" fill-rule="nonzero" /><path id="601" transform="matrix(1 0 0 -1 0 842)" d="M348.72 208.46L377.16 208.46L377.16 209.48L348.72 209.48z" stroke="none" fill="#000000" fill-rule="nonzero" /></g></g></g></g></svg>