<svg xmlns="http://www.w3.org/2000/svg" xmlns:xlink="http://www.w3.org/1999/xlink" id="body_83" preserveAspectRatio="xMinYMin meet" viewBox="0 0 793 1123"><defs><clipPath id="1"><path id="" clip-rule="evenodd" transform="matrix(1 0 0 1 0 0)" d="M0 842L0 0L0 0L595 0L595 0L595 842L595 842L0 842z" /></clipPath><clipPath id="2"><path id="" clip-rule="evenodd" transform="matrix(1 0 0 1 0 0)" d="M225.96 181.02L392.28 181.02L392.28 181.02L392.28 357.06L392.28 357.06L225.96 357.06z" /></clipPath><clipPath id="3"><path id="" clip-rule="evenodd" transform="matrix(1 0 0 1 0 0)" d="M224.94 180L393.3 180L393.3 180L393.3 358.02L393.3 358.02L224.94 358.02z" /></clipPath><clipPath id="4"><path id="" clip-rule="evenodd" transform="matrix(1 0 0 1 0 0)" d="M0 0.02001953L595.2 0.02001953L595.2 0.02001953L595.2 842L595.2 842L0 842z" /></clipPath><clipPath id="5"><path id="" clip-rule="evenodd" transform="matrix(1 0 0 1 0 0)" d="M225.96 535.86L391.92 535.86L391.92 535.86L391.92 638.94L391.92 638.94L225.96 638.94z" /></clipPath><clipPath id="6"><path id="" clip-rule="evenodd" transform="matrix(1 0 0 1 0 0)" d="M224.94 522.96L392.94 522.96L392.94 522.96L392.94 654.6L392.94 654.6L224.94 654.6z" /></clipPath><clipPath id="7"><path id="" clip-rule="evenodd" transform="matrix(1 0 0 1 0 0)" d="M0 0.02001953L595.2 0.02001953L595.2 0.02001953L595.2 842L595.2 842L0 842z" /></clipPath><clipPath id="8"><path id="" clip-rule="evenodd" transform="matrix(1 0 0 1 0 0)" d="M224.94 522.96L392.94 522.96L392.94 522.96L392.94 654.6L392.94 654.6L224.94 654.6z" /></clipPath><clipPath id="9"><path id="" clip-rule="evenodd" transform="matrix(1 0 0 1 0 0)" d="M0 0.02001953L595.2 0.02001953L595.2 0.02001953L595.2 842L595.2 842L0 842z" /></clipPath></defs><g transform="matrix(1.333333 0 0 1.333333 0 0)"><g clip-path="url(#1)"><g clip-path="url(#2)"><g clip-path="url(#3)"><g clip-path="url(#4)"><g transform="matrix(0.4793084 0 0 0.479673 225.96 181.02)"><g transform="matrix(1 0 0 1 0 0)"><image x="0" y="0" xlink:href="img_234.png" width="347" height="367" /></g></g></g></g></g><path id="410" transform="matrix(1 0 0 -1 0 842)" d="M224.94 135.44L391.44 135.44L391.44 153.44L224.94 153.44z" stroke="none" fill="#C5E0F7" fill-rule="nonzero" /><path id="415" transform="matrix(1 0 0 -1 0 842)" d="M391.44 135.44L558 135.44L558 153.44L391.44 153.44z" stroke="none" fill="#C5E0F7" fill-rule="nonzero" /><path id="461" transform="matrix(1 0 0 -1 0 842)" d="M224.94 101.18L558 101.18L558 101.66L224.94 101.66z" stroke="none" fill="#3D96E3" fill-rule="nonzero" /><path id="462" transform="matrix(1 0 0 -1 0 842)" d="M224.94 80.66L558 80.66L558 82.16L224.94 82.16z" stroke="none" fill="#3D96E3" fill-rule="nonzero" /><g clip-path="url(#5)"><g clip-path="url(#6)"><g clip-path="url(#7)"><g transform="matrix(0.48 0 0 0.4794419 225.96 535.86)"><g transform="matrix(1 0 0 1 0 0)"><image x="0" y="0" xlink:href="img_235.png" width="346" height="215" /></g></g></g></g></g><g clip-path="url(#8)"><g clip-path="url(#9)"><path id="464" transform="matrix(1 0 0 -1 0 842)" d="M273.42 308.6L274.44 308.6L274.44 309.08L273.42 309.08z" stroke="none" fill="#000000" fill-rule="nonzero" /><path id="465" transform="matrix(1 0 0 -1 0 842)" d="M273.42 282.74L274.44 282.74L274.44 308.6L273.42 308.6z" stroke="none" fill="#000000" fill-rule="nonzero" /><path id="468" transform="matrix(1 0 0 -1 0 842)" d="M287.46 199.52L288.48 199.52L288.48 200L287.46 200z" stroke="none" fill="#000000" fill-rule="nonzero" /><path id="469" transform="matrix(1 0 0 -1 0 842)" d="M286.62 244.46L287.64 244.46L287.64 244.94L286.62 244.94z" stroke="none" fill="#000000" fill-rule="nonzero" /><path id="470" transform="matrix(1 0 0 -1 0 842)" d="M287.46 200L288.48 200L287.64 244.46L286.62 244.46" stroke="none" fill="#000000" fill-rule="nonzero" /><path id="471" transform="matrix(1 0 0 -1 0 842)" d="M373.56 198.98L374.58 198.98L374.58 199.46L373.56 199.46z" stroke="none" fill="#000000" fill-rule="nonzero" /><path id="472" transform="matrix(1 0 0 -1 0 842)" d="M373.56 199.46L374.58 199.46L374.58 241.34L373.56 241.34z" stroke="none" fill="#000000" fill-rule="nonzero" /><path id="473" transform="matrix(1 0 0 -1 0 842)" d="M346.92 199.34L347.94 199.34L347.94 199.82L346.92 199.82z" stroke="none" fill="#000000" fill-rule="nonzero" /><path id="474" transform="matrix(1 0 0 -1 0 842)" d="M346.92 199.82L347.94 199.82L347.94 242.12L346.92 242.12z" stroke="none" fill="#000000" fill-rule="nonzero" /></g></g></g></g></svg>