<svg xmlns="http://www.w3.org/2000/svg" xmlns:xlink="http://www.w3.org/1999/xlink" id="body_93" preserveAspectRatio="xMinYMin meet" viewBox="0 0 793 1123"><defs><clipPath id="1"><path id="" clip-rule="evenodd" transform="matrix(1 0 0 1 0 0)" d="M0 842L0 0L0 0L595 0L595 0L595 842L595 842L0 842z" /></clipPath><clipPath id="2"><path id="" clip-rule="evenodd" transform="matrix(1 0 0 1 0 0)" d="M189.36 172.02L202.98 172.02L202.98 172.02L202.98 186.42L202.98 186.42L189.36 186.42z" /></clipPath><clipPath id="3"><path id="" clip-rule="evenodd" transform="matrix(1 0 0 1 0 0)" d="M0 0.02001953L595.2 0.02001953L595.2 0.02001953L595.2 842L595.2 842L0 842z" /></clipPath><clipPath id="4"><path id="" clip-rule="evenodd" transform="matrix(1 0 0 1 0 0)" d="M189.36 173.22L203.34 173.22L203.34 173.22L203.34 185.22L203.34 185.22L189.36 185.22z" /></clipPath><clipPath id="5"><path id="" clip-rule="evenodd" transform="matrix(1 0 0 1 0 0)" d="M189.36 172.02L202.98 172.02L202.98 172.02L202.98 186.42L202.98 186.42L189.36 186.42z" /></clipPath><clipPath id="6"><path id="" clip-rule="evenodd" transform="matrix(1 0 0 1 0 0)" d="M0 0.02001953L595.2 0.02001953L595.2 0.02001953L595.2 842L595.2 842L0 842z" /></clipPath><clipPath id="7"><path id="" clip-rule="evenodd" transform="matrix(1 0 0 1 0 0)" d="M189.36 427.92L202.98 427.92L202.98 427.92L202.98 442.32L202.98 442.32L189.36 442.32z" /></clipPath><clipPath id="8"><path id="" clip-rule="evenodd" transform="matrix(1 0 0 1 0 0)" d="M0 0.02001953L595.2 0.02001953L595.2 0.02001953L595.2 842L595.2 842L0 842z" /></clipPath><clipPath id="9"><path id="" clip-rule="evenodd" transform="matrix(1 0 0 1 0 0)" d="M189.36 429.12L203.34 429.12L203.34 429.12L203.34 441.12L203.34 441.12L189.36 441.12z" /></clipPath><clipPath id="10"><path id="" clip-rule="evenodd" transform="matrix(1 0 0 1 0 0)" d="M189.36 427.92L202.98 427.92L202.98 427.92L202.98 442.32L202.98 442.32L189.36 442.32z" /></clipPath><clipPath id="11"><path id="" clip-rule="evenodd" transform="matrix(1 0 0 1 0 0)" d="M0 0.02001953L595.2 0.02001953L595.2 0.02001953L595.2 842L595.2 842L0 842z" /></clipPath></defs><g transform="matrix(1.333333 0 0 1.333333 0 0)"><g clip-path="url(#1)"><path id="225" transform="matrix(1 0 0 -1 0 842)" d="M185.34 542.06L206.94 542.06L206.94 674L185.34 674z" stroke="none" fill="#FFFFFF" fill-rule="nonzero" /><g clip-path="url(#2)"><g clip-path="url(#3)"><path id="226" transform="matrix(1 0 0 -1 0 842)" d="M189.36 655.58L202.98 655.58L202.98 669.98L189.36 669.98z" stroke="none" fill="#FFFFFF" fill-rule="nonzero" /></g></g><g clip-path="url(#4)"><g clip-path="url(#5)"><g clip-path="url(#6)"><path id="227" transform="matrix(1 0 0 -1 0 842)" d="M196.679 667.69L202.484 657.696C 202.539 657.602 202.539 657.493 202.485 657.399C 202.43 657.304 202.337 657.25 202.227 657.25L202.227 657.25L190.617 657.25C 190.508 657.25 190.414 657.304 190.359 657.398C 190.305 657.493 190.305 657.602 190.36 657.696L190.36 657.696L196.165 667.69C 196.22 667.784 196.313 667.838 196.422 667.838C 196.531 667.838 196.624 667.784 196.679 667.69z" stroke="#000000" stroke-width="0.5" fill="#FFFF00" fill-rule="evenodd" /><path id="228" transform="matrix(1 0 0 -1 0 842)" d="M196.43 659.841C 196.662 659.841 196.861 659.759 197.025 659.594C 197.19 659.429 197.273 659.228 197.273 658.994C 197.273 658.761 197.19 658.562 197.025 658.397C 196.861 658.232 196.662 658.15 196.43 658.15C 196.197 658.15 195.998 658.232 195.833 658.397C 195.669 658.562 195.586 658.761 195.586 658.994C 195.586 659.224 195.668 659.425 195.831 659.591C 195.995 659.757 196.194 659.841 196.43 659.841M196.538 660.585L196.311 660.585C 196.286 660.981 196.206 661.459 196.071 662.022L196.071 662.022L195.799 663.155C 195.638 663.835 195.556 664.322 195.556 664.619C 195.556 664.885 195.636 665.1 195.794 665.264C 195.954 665.427 196.163 665.507 196.419 665.507C 196.67 665.507 196.876 665.425 197.041 665.26C 197.206 665.097 197.288 664.887 197.288 664.633C 197.288 664.37 197.201 663.8781 197.028 663.155L197.028 663.155L196.753 662.022C 196.655 661.619 196.584 661.1411 196.538 660.585z" stroke="none" fill="#000000" fill-rule="nonzero" /></g></g></g><path id="229" transform="matrix(1 0 0 -1 0 842)" d="M206.94 542.06L224.94 542.06L224.94 674L206.94 674z" stroke="none" fill="#FFFFFF" fill-rule="nonzero" /><path id="230" transform="matrix(1 0 0 -1 0 842)" d="M224.94 674L558 674L558 542.06L224.94 542.06" stroke="none" fill="#ECF5FC" fill-rule="nonzero" /><path id="458" transform="matrix(1 0 0 -1 0 842)" d="M185.34 118.22L206.94 118.22L206.94 418.1L185.34 418.1z" stroke="none" fill="#FFFFFF" fill-rule="nonzero" /><g clip-path="url(#7)"><g clip-path="url(#8)"><path id="459" transform="matrix(1 0 0 -1 0 842)" d="M189.36 399.68L202.98 399.68L202.98 414.08L189.36 414.08z" stroke="none" fill="#FFFFFF" fill-rule="nonzero" /></g></g><g clip-path="url(#9)"><g clip-path="url(#10)"><g clip-path="url(#11)"><path id="460" transform="matrix(1 0 0 -1 0 842)" d="M196.679 411.774L202.484 401.78C 202.539 401.686 202.539 401.577 202.485 401.483C 202.43 401.388 202.337 401.334 202.227 401.334L202.227 401.334L190.617 401.334C 190.508 401.334 190.414 401.388 190.359 401.482C 190.305 401.577 190.305 401.686 190.36 401.78L190.36 401.78L196.165 411.774C 196.22 411.868 196.313 411.922 196.422 411.922C 196.531 411.922 196.624 411.868 196.679 411.774z" stroke="#000000" stroke-width="0.5" fill="#FFFF00" fill-rule="evenodd" /><path id="461" transform="matrix(1 0 0 -1 0 842)" d="M196.43 403.924C 196.662 403.924 196.861 403.842 197.025 403.677C 197.19 403.512 197.273 403.311 197.273 403.077C 197.273 402.844 197.19 402.645 197.025 402.48C 196.861 402.315 196.662 402.233 196.43 402.233C 196.197 402.233 195.998 402.315 195.833 402.48C 195.669 402.645 195.586 402.844 195.586 403.077C 195.586 403.307 195.668 403.508 195.831 403.674C 195.995 403.84 196.194 403.924 196.43 403.924M196.538 404.668L196.311 404.668C 196.286 405.064 196.206 405.542 196.071 406.105L196.071 406.105L195.799 407.238C 195.638 407.918 195.556 408.405 195.556 408.702C 195.556 408.968 195.636 409.183 195.794 409.347C 195.954 409.51 196.163 409.59 196.419 409.59C 196.67 409.59 196.876 409.508 197.041 409.343C 197.206 409.18 197.288 408.97 197.288 408.716C 197.288 408.453 197.201 407.961 197.028 407.238L197.028 407.238L196.753 406.105C 196.655 405.702 196.584 405.224 196.538 404.668z" stroke="none" fill="#000000" fill-rule="nonzero" /></g></g></g><path id="462" transform="matrix(1 0 0 -1 0 842)" d="M206.94 118.22L224.94 118.22L224.94 418.1L206.94 418.1z" stroke="none" fill="#FFFFFF" fill-rule="nonzero" /><path id="463" transform="matrix(1 0 0 -1 0 842)" d="M224.94 418.1L558 418.1L558 118.22L224.94 118.22" stroke="none" fill="#ECF5FC" fill-rule="nonzero" /></g></g></svg>