<svg xmlns="http://www.w3.org/2000/svg" xmlns:xlink="http://www.w3.org/1999/xlink" id="body_163" preserveAspectRatio="xMinYMin meet" viewBox="0 0 793 1123"><defs><clipPath id="1"><path id="" clip-rule="evenodd" transform="matrix(1 0 0 1 0 0)" d="M0 842L0 0L0 0L595 0L595 0L595 842L595 842L0 842z" /></clipPath><clipPath id="2"><path id="" clip-rule="evenodd" transform="matrix(1 0 0 1 0 0)" d="M309.3 77.03998L523.38 77.03998L523.38 77.03998L523.38 259.4399L523.38 259.4399L309.3 259.4399z" /></clipPath><clipPath id="3"><path id="" clip-rule="evenodd" transform="matrix(1 0 0 1 0 0)" d="M224.94 76.02002L524.4 76.02002L524.4 76.02002L524.4 260.46L524.4 260.46L224.94 260.46z" /></clipPath><clipPath id="4"><path id="" clip-rule="evenodd" transform="matrix(1 0 0 1 0 0)" d="M0 0.02001953L595.2 0.02001953L595.2 0.02001953L595.2 842L595.2 842L0 842z" /></clipPath><clipPath id="5"><path id="" clip-rule="evenodd" transform="matrix(1 0 0 1 0 0)" d="M224.94 76.02002L524.4 76.02002L524.4 76.02002L524.4 260.46L524.4 260.46L224.94 260.46z" /></clipPath><clipPath id="6"><path id="" clip-rule="evenodd" transform="matrix(1 0 0 1 0 0)" d="M0 0.02001953L595.2 0.02001953L595.2 0.02001953L595.2 842L595.2 842L0 842z" /></clipPath><clipPath id="7"><path id="" clip-rule="evenodd" transform="matrix(1 0 0 1 0 0)" d="M225.96 422.4L544.98 422.4L544.98 422.4L544.98 548.82L544.98 548.82L225.96 548.82z" /></clipPath><clipPath id="8"><path id="" clip-rule="evenodd" transform="matrix(1 0 0 1 0 0)" d="M224.94 421.38L546 421.38L546 421.38L546 549.84L546 549.84L224.94 549.84z" /></clipPath><clipPath id="9"><path id="" clip-rule="evenodd" transform="matrix(1 0 0 1 0 0)" d="M0 0.02001953L595.2 0.02001953L595.2 0.02001953L595.2 842L595.2 842L0 842z" /></clipPath><clipPath id="10"><path id="" clip-rule="evenodd" transform="matrix(1 0 0 1 0 0)" d="M224.94 421.38L546 421.38L546 421.38L546 549.84L546 549.84L224.94 549.84z" /></clipPath><clipPath id="11"><path id="" clip-rule="evenodd" transform="matrix(1 0 0 1 0 0)" d="M0 0.02001953L595.2 0.02001953L595.2 0.02001953L595.2 842L595.2 842L0 842z" /></clipPath></defs><g transform="matrix(1.333333 0 0 1.333333 0 0)"><g clip-path="url(#1)"><g clip-path="url(#2)"><g clip-path="url(#3)"><g clip-path="url(#4)"><g transform="matrix(0.48 0 0 0.48 309.3 77.04004)"><g transform="matrix(1 0 0 1 0 0)"><image x="0" y="0" xlink:href="img_443.png" width="446" height="380" /></g></g></g></g></g><g clip-path="url(#5)"><g clip-path="url(#6)"><path id="333" transform="matrix(1 0 0 -1 0 842)" d="M297.9 712.34L298.38 712.34L298.38 713.36L297.9 713.36z" stroke="none" fill="#000000" fill-rule="nonzero" /><path id="334" transform="matrix(1 0 0 -1 0 842)" d="M298.38 712.34L320.7 712.34L320.7 713.36L298.38 713.36z" stroke="none" fill="#000000" fill-rule="nonzero" /></g></g><g clip-path="url(#7)"><g clip-path="url(#8)"><g clip-path="url(#9)"><g transform="matrix(0.4798211 0 0 0.4788637 225.96 422.4)"><g transform="matrix(1 0 0 1 0 0)"><image x="0" y="0" xlink:href="img_444.png" width="665" height="264" /></g></g></g></g></g><g clip-path="url(#10)"><g clip-path="url(#11)"><path id="366" transform="matrix(1 0 0 -1 0 842)" d="M239.34 349.64L287.88 349.64L287.88 350.66L239.34 350.66z" stroke="none" fill="#FFFFFF" fill-rule="nonzero" /><path id="367" transform="matrix(1 0 0 -1 0 842)" d="M286.86 299.84L287.88 299.84L287.88 350.18L286.86 350.18z" stroke="none" fill="#FFFFFF" fill-rule="nonzero" /><path id="368" transform="matrix(1 0 0 -1 0 842)" d="M238.86 299.84L287.34 299.84L287.34 300.86L238.86 300.86z" stroke="none" fill="#FFFFFF" fill-rule="nonzero" /><path id="369" transform="matrix(1 0 0 -1 0 842)" d="M238.86 300.38L239.88 300.38L239.88 350.66L238.86 350.66z" stroke="none" fill="#FFFFFF" fill-rule="nonzero" /></g></g></g></g></svg>