<svg xmlns="http://www.w3.org/2000/svg" xmlns:xlink="http://www.w3.org/1999/xlink" id="body_122" preserveAspectRatio="xMinYMin meet" viewBox="0 0 793 1123"><defs><clipPath id="1"><path id="" clip-rule="evenodd" transform="matrix(1 0 0 1 0 0)" d="M0 842L0 0L0 0L595 0L595 0L595 842L595 842L0 842z" /></clipPath><clipPath id="2"><path id="" clip-rule="evenodd" transform="matrix(1 0 0 1 0 0)" d="M115.56 130.02L193.98 130.02L193.98 130.02L193.98 144.42L193.98 144.42L115.56 144.42z" /></clipPath><clipPath id="3"><path id="" clip-rule="evenodd" transform="matrix(1 0 0 1 0 0)" d="M0 0.02001953L595.2 0.02001953L595.2 0.02001953L595.2 842L595.2 842L0 842z" /></clipPath><clipPath id="4"><path id="" clip-rule="evenodd" transform="matrix(1 0 0 1 0 0)" d="M115.44 130.26L190.5 130.26L190.5 130.26L190.5 144.36L190.5 144.36L115.44 144.36z" /></clipPath><clipPath id="5"><path id="" clip-rule="evenodd" transform="matrix(1 0 0 1 0 0)" d="M115.56 130.02L193.98 130.02L193.98 130.02L193.98 144.42L193.98 144.42L115.56 144.42z" /></clipPath><clipPath id="6"><path id="" clip-rule="evenodd" transform="matrix(1 0 0 1 0 0)" d="M0 0.02001953L595.2 0.02001953L595.2 0.02001953L595.2 842L595.2 842L0 842z" /></clipPath><clipPath id="7"><path id="" clip-rule="evenodd" transform="matrix(1 0 0 1 0 0)" d="M115.56 216L193.98 216L193.98 216L193.98 230.4L193.98 230.4L115.56 230.4z" /></clipPath><clipPath id="8"><path id="" clip-rule="evenodd" transform="matrix(1 0 0 1 0 0)" d="M0 0.02001953L595.2 0.02001953L595.2 0.02001953L595.2 842L595.2 842L0 842z" /></clipPath><clipPath id="9"><path id="" clip-rule="evenodd" transform="matrix(1 0 0 1 0 0)" d="M115.44 216.24L190.5 216.24L190.5 216.24L190.5 230.4L190.5 230.4L115.44 230.4z" /></clipPath><clipPath id="10"><path id="" clip-rule="evenodd" transform="matrix(1 0 0 1 0 0)" d="M115.56 216L193.98 216L193.98 216L193.98 230.4L193.98 230.4L115.56 230.4z" /></clipPath><clipPath id="11"><path id="" clip-rule="evenodd" transform="matrix(1 0 0 1 0 0)" d="M0 0.02001953L595.2 0.02001953L595.2 0.02001953L595.2 842L595.2 842L0 842z" /></clipPath><clipPath id="12"><path id="" clip-rule="evenodd" transform="matrix(1 0 0 1 0 0)" d="M115.56 316.02L193.98 316.02L193.98 316.02L193.98 330.42L193.98 330.42L115.56 330.42z" /></clipPath><clipPath id="13"><path id="" clip-rule="evenodd" transform="matrix(1 0 0 1 0 0)" d="M0 0.02001953L595.2 0.02001953L595.2 0.02001953L595.2 842L595.2 842L0 842z" /></clipPath><clipPath id="14"><path id="" clip-rule="evenodd" transform="matrix(1 0 0 1 0 0)" d="M115.44 316.26L190.5 316.26L190.5 316.26L190.5 330.36L190.5 330.36L115.44 330.36z" /></clipPath><clipPath id="15"><path id="" clip-rule="evenodd" transform="matrix(1 0 0 1 0 0)" d="M115.56 316.02L193.98 316.02L193.98 316.02L193.98 330.42L193.98 330.42L115.56 330.42z" /></clipPath><clipPath id="16"><path id="" clip-rule="evenodd" transform="matrix(1 0 0 1 0 0)" d="M0 0.02001953L595.2 0.02001953L595.2 0.02001953L595.2 842L595.2 842L0 842z" /></clipPath><clipPath id="17"><path id="" clip-rule="evenodd" transform="matrix(1 0 0 1 0 0)" d="M115.56 434.04L193.98 434.04L193.98 434.04L193.98 448.44L193.98 448.44L115.56 448.44z" /></clipPath><clipPath id="18"><path id="" clip-rule="evenodd" transform="matrix(1 0 0 1 0 0)" d="M0 0.02001953L595.2 0.02001953L595.2 0.02001953L595.2 842L595.2 842L0 842z" /></clipPath><clipPath id="19"><path id="" clip-rule="evenodd" transform="matrix(1 0 0 1 0 0)" d="M116.16 434.1L190.86 434.1L190.86 434.1L190.86 448.14L190.86 448.14L116.16 448.14z" /></clipPath><clipPath id="20"><path id="" clip-rule="evenodd" transform="matrix(1 0 0 1 0 0)" d="M115.56 434.04L193.98 434.04L193.98 434.04L193.98 448.44L193.98 448.44L115.56 448.44z" /></clipPath><clipPath id="21"><path id="" clip-rule="evenodd" transform="matrix(1 0 0 1 0 0)" d="M0 0.02001953L595.2 0.02001953L595.2 0.02001953L595.2 842L595.2 842L0 842z" /></clipPath><clipPath id="22"><path id="" clip-rule="evenodd" transform="matrix(1 0 0 1 0 0)" d="M115.56 506.04L193.98 506.04L193.98 506.04L193.98 520.44L193.98 520.44L115.56 520.44z" /></clipPath><clipPath id="23"><path id="" clip-rule="evenodd" transform="matrix(1 0 0 1 0 0)" d="M0 0.02001953L595.2 0.02001953L595.2 0.02001953L595.2 842L595.2 842L0 842z" /></clipPath><clipPath id="24"><path id="" clip-rule="evenodd" transform="matrix(1 0 0 1 0 0)" d="M116.16 506.1L190.86 506.1L190.86 506.1L190.86 520.14L190.86 520.14L116.16 520.14z" /></clipPath><clipPath id="25"><path id="" clip-rule="evenodd" transform="matrix(1 0 0 1 0 0)" d="M115.56 506.04L193.98 506.04L193.98 506.04L193.98 520.44L193.98 520.44L115.56 520.44z" /></clipPath><clipPath id="26"><path id="" clip-rule="evenodd" transform="matrix(1 0 0 1 0 0)" d="M0 0.02001953L595.2 0.02001953L595.2 0.02001953L595.2 842L595.2 842L0 842z" /></clipPath><clipPath id="27"><path id="" clip-rule="evenodd" transform="matrix(1 0 0 1 0 0)" d="M115.56 606.06L193.98 606.06L193.98 606.06L193.98 620.46L193.98 620.46L115.56 620.46z" /></clipPath><clipPath id="28"><path id="" clip-rule="evenodd" transform="matrix(1 0 0 1 0 0)" d="M0 0.02001953L595.2 0.02001953L595.2 0.02001953L595.2 842L595.2 842L0 842z" /></clipPath><clipPath id="29"><path id="" clip-rule="evenodd" transform="matrix(1 0 0 1 0 0)" d="M116.16 606.06L190.86 606.06L190.86 606.06L190.86 620.1L190.86 620.1L116.16 620.1z" /></clipPath><clipPath id="30"><path id="" clip-rule="evenodd" transform="matrix(1 0 0 1 0 0)" d="M115.56 606.06L193.98 606.06L193.98 606.06L193.98 620.46L193.98 620.46L115.56 620.46z" /></clipPath><clipPath id="31"><path id="" clip-rule="evenodd" transform="matrix(1 0 0 1 0 0)" d="M0 0.02001953L595.2 0.02001953L595.2 0.02001953L595.2 842L595.2 842L0 842z" /></clipPath></defs><g transform="matrix(1.333333 0 0 1.333333 0 0)"><g clip-path="url(#1)"><g clip-path="url(#2)"><g clip-path="url(#3)"><path id="95" transform="matrix(1 0 0 -1 0 842)" d="M115.56 697.58L193.98 697.58L193.98 711.98L115.56 711.98z" stroke="none" fill="#FFFFFF" fill-rule="nonzero" /></g></g><g clip-path="url(#4)"><g clip-path="url(#5)"><g clip-path="url(#6)"><g transform="matrix(0.7431683 0 0 0.7421053 115.44 130.26)"><g transform="matrix(1 0 0 1 0 0)"><image x="0" y="0" xlink:href="img_274.png" width="101" height="19" /></g></g></g></g></g><path id="97" transform="matrix(1 0 0 -1 0 842)" d="M215.94 716L549 716L549 639.98L215.94 639.98" stroke="none" fill="#ECF5FC" fill-rule="nonzero" /><g clip-path="url(#7)"><g clip-path="url(#8)"><path id="234" transform="matrix(1 0 0 -1 0 842)" d="M115.56 611.6L193.98 611.6L193.98 626L115.56 626z" stroke="none" fill="#FFFFFF" fill-rule="nonzero" /></g></g><g clip-path="url(#9)"><g clip-path="url(#10)"><g clip-path="url(#11)"><g transform="matrix(0.7431683 0 0 0.7452632 115.44 216.2401)"><g transform="matrix(1 0 0 1 0 0)"><image x="0" y="0" xlink:href="img_274.png" width="101" height="19" /></g></g></g></g></g><path id="236" transform="matrix(1 0 0 -1 0 842)" d="M215.94 629.96L549 629.96L549 539.96L215.94 539.96" stroke="none" fill="#ECF5FC" fill-rule="nonzero" /><g clip-path="url(#12)"><g clip-path="url(#13)"><path id="380" transform="matrix(1 0 0 -1 0 842)" d="M115.56 511.58L193.98 511.58L193.98 525.98L115.56 525.98z" stroke="none" fill="#FFFFFF" fill-rule="nonzero" /></g></g><g clip-path="url(#14)"><g clip-path="url(#15)"><g clip-path="url(#16)"><g transform="matrix(0.7431683 0 0 0.7421053 115.44 316.26)"><g transform="matrix(1 0 0 1 0 0)"><image x="0" y="0" xlink:href="img_274.png" width="101" height="19" /></g></g></g></g></g><path id="382" transform="matrix(1 0 0 -1 0 842)" d="M215.94 530L549 530L549 425.96L215.94 425.96" stroke="none" fill="#ECF5FC" fill-rule="nonzero" /><g clip-path="url(#17)"><g clip-path="url(#18)"><path id="548" transform="matrix(1 0 0 -1 0 842)" d="M115.56 393.56L193.98 393.56L193.98 407.96L115.56 407.96z" stroke="none" fill="#FFFFFF" fill-rule="nonzero" /></g></g><g clip-path="url(#19)"><g clip-path="url(#20)"><g clip-path="url(#21)"><g transform="matrix(0.7396039 0 0 0.7389474 116.16 434.1)"><g transform="matrix(1 0 0 1 0 0)"><image x="0" y="0" xlink:href="img_250.png" width="101" height="19" /></g></g></g></g></g><path id="550" transform="matrix(1 0 0 -1 0 842)" d="M215.94 411.98L549 411.98L549 349.94L215.94 349.94" stroke="none" fill="#ECF5FC" fill-rule="nonzero" /><g clip-path="url(#22)"><g clip-path="url(#23)"><path id="629" transform="matrix(1 0 0 -1 0 842)" d="M115.56 321.56L193.98 321.56L193.98 335.96L115.56 335.96z" stroke="none" fill="#FFFFFF" fill-rule="nonzero" /></g></g><g clip-path="url(#24)"><g clip-path="url(#25)"><g clip-path="url(#26)"><g transform="matrix(0.7396039 0 0 0.7389474 116.16 506.1)"><g transform="matrix(1 0 0 1 0 0)"><image x="0" y="0" xlink:href="img_250.png" width="101" height="19" /></g></g></g></g></g><path id="631" transform="matrix(1 0 0 -1 0 842)" d="M215.94 339.98L549 339.98L549 249.98L215.94 249.98" stroke="none" fill="#ECF5FC" fill-rule="nonzero" /><g clip-path="url(#27)"><g clip-path="url(#28)"><path id="765" transform="matrix(1 0 0 -1 0 842)" d="M115.56 221.54L193.98 221.54L193.98 235.94L115.56 235.94z" stroke="none" fill="#FFFFFF" fill-rule="nonzero" /></g></g><g clip-path="url(#29)"><g clip-path="url(#30)"><g clip-path="url(#31)"><g transform="matrix(0.7396039 0 0 0.7389474 116.16 606.06)"><g transform="matrix(1 0 0 1 0 0)"><image x="0" y="0" xlink:href="img_250.png" width="101" height="19" /></g></g></g></g></g><path id="767" transform="matrix(1 0 0 -1 0 842)" d="M215.94 239.96L549 239.96L549 135.98L215.94 135.98" stroke="none" fill="#ECF5FC" fill-rule="nonzero" /></g></g></svg>