<svg xmlns="http://www.w3.org/2000/svg" xmlns:xlink="http://www.w3.org/1999/xlink" id="body_46" preserveAspectRatio="xMinYMin meet" viewBox="0 0 793 1123"><defs><clipPath id="1"><path id="" clip-rule="evenodd" transform="matrix(1 0 0 1 0 0)" d="M0 842L0 0L0 0L595 0L595 0L595 842L595 842L0 842z" /></clipPath><clipPath id="2"><path id="" clip-rule="evenodd" transform="matrix(1 0 0 1 0 0)" d="M36.96 131.04L414.48 131.04L414.48 131.04L414.48 544.5599L414.48 544.5599L36.96 544.5599z" /></clipPath><clipPath id="3"><path id="" clip-rule="evenodd" transform="matrix(1 0 0 1 0 0)" d="M35.94 130.02L415.5 130.02L415.5 130.02L415.5 545.58L415.5 545.58L35.94 545.58z" /></clipPath><clipPath id="4"><path id="" clip-rule="evenodd" transform="matrix(1 0 0 1 0 0)" d="M0 0.02001953L595.2 0.02001953L595.2 0.02001953L595.2 842L595.2 842L0 842z" /></clipPath><clipPath id="5"><path id="" clip-rule="evenodd" transform="matrix(1 0 0 1 0 0)" d="M35.94 130.02L415.5 130.02L415.5 130.02L415.5 545.58L415.5 545.58L35.94 545.58z" /></clipPath><clipPath id="6"><path id="" clip-rule="evenodd" transform="matrix(1 0 0 1 0 0)" d="M0 0.02001953L595.2 0.02001953L595.2 0.02001953L595.2 842L595.2 842L0 842z" /></clipPath></defs><g transform="matrix(1.333333 0 0 1.333333 0 0)"><g clip-path="url(#1)"><g clip-path="url(#2)"><g clip-path="url(#3)"><g clip-path="url(#4)"><g transform="matrix(0.479695 0 0 0.4797215 36.96 131.04)"><g transform="matrix(1 0 0 1 0 0)"><image x="0" y="0" xlink:href="img_117.png" width="787" height="862" /></g></g></g></g></g><g clip-path="url(#5)"><g clip-path="url(#6)"><path id="422" transform="matrix(1 0 0 -1 0 842)" d="M109.62 465.86L109.68 466.34L108.66 466.52L108.6 466.04" stroke="none" fill="#000000" fill-rule="nonzero" /><path id="423" transform="matrix(1 0 0 -1 0 842)" d="M102.84 423.5L102.78 423.02L101.76 423.2L101.82 423.68" stroke="none" fill="#000000" fill-rule="nonzero" /><path id="424" transform="matrix(1 0 0 -1 0 842)" d="M109.62 465.86L108.6 466.04L101.82 423.68L102.84 423.5" stroke="none" fill="#000000" fill-rule="nonzero" /><path id="425" transform="matrix(1 0 0 -1 0 842)" d="M126.06 476.3L125.88 476.78L124.92 476.42L125.1 475.94" stroke="none" fill="#000000" fill-rule="nonzero" /><path id="426" transform="matrix(1 0 0 -1 0 842)" d="M134.34 453.38L134.52 452.9L133.56 452.54L133.38 453.02" stroke="none" fill="#000000" fill-rule="nonzero" /><path id="427" transform="matrix(1 0 0 -1 0 842)" d="M126.06 476.3L125.1 475.94L133.38 453.02L134.34 453.38" stroke="none" fill="#000000" fill-rule="nonzero" /><path id="428" transform="matrix(1 0 0 -1 0 842)" d="M61.74 512.12L61.32 512.36L60.78 511.52L61.2 511.28" stroke="none" fill="#000000" fill-rule="nonzero" /><path id="429" transform="matrix(1 0 0 -1 0 842)" d="M90.24 494.54L90.66 494.3L90.12 493.46L89.7 493.7" stroke="none" fill="#000000" fill-rule="nonzero" /><path id="430" transform="matrix(1 0 0 -1 0 842)" d="M61.74 512.12L61.2 511.28L89.7 493.7L90.24001 494.54" stroke="none" fill="#000000" fill-rule="nonzero" /><path id="431" transform="matrix(1 0 0 -1 0 842)" d="M121.32 556.22L121.74 556.46L121.26 557.36L120.84 557.12" stroke="none" fill="#000000" fill-rule="nonzero" /><path id="432" transform="matrix(1 0 0 -1 0 842)" d="M109.32 550.22L108.9 549.98L108.42 550.8799L108.84 551.12" stroke="none" fill="#000000" fill-rule="nonzero" /><path id="433" transform="matrix(1 0 0 -1 0 842)" d="M121.32 556.22L120.84 557.12L108.84 551.12L109.32 550.22" stroke="none" fill="#000000" fill-rule="nonzero" /><path id="434" transform="matrix(1 0 0 -1 0 842)" d="M176.7 599.36L177.18 599.48L176.94 600.44L176.46 600.32" stroke="none" fill="#000000" fill-rule="nonzero" /><path id="435" transform="matrix(1 0 0 -1 0 842)" d="M100.98 579.5L100.5 579.38L100.26 580.34L100.74 580.46" stroke="none" fill="#000000" fill-rule="nonzero" /><path id="436" transform="matrix(1 0 0 -1 0 842)" d="M176.7 599.36L176.46 600.32L100.74 580.46L100.98 579.5" stroke="none" fill="#000000" fill-rule="nonzero" /><path id="437" transform="matrix(1 0 0 -1 0 842)" d="M114.72 592.4L115.08 592.76L114.36 593.48L114 593.12" stroke="none" fill="#000000" fill-rule="nonzero" /><path id="438" transform="matrix(1 0 0 -1 0 842)" d="M101.22 579.62L100.86 579.26L100.14 579.98L100.5 580.34" stroke="none" fill="#000000" fill-rule="nonzero" /><path id="439" transform="matrix(1 0 0 -1 0 842)" d="M114.72 592.4L114 593.12L100.5 580.34L101.22 579.62" stroke="none" fill="#000000" fill-rule="nonzero" /><path id="440" transform="matrix(1 0 0 -1 0 842)" d="M140.46 621.86L140.88 622.1L140.4 623L139.98 622.76" stroke="none" fill="#000000" fill-rule="nonzero" /><path id="441" transform="matrix(1 0 0 -1 0 842)" d="M105.96 602.36L105.54 602.12L105.06 603.02L105.48 603.26" stroke="none" fill="#000000" fill-rule="nonzero" /><path id="442" transform="matrix(1 0 0 -1 0 842)" d="M140.46 621.86L139.98 622.76L105.48 603.26L105.96 602.36" stroke="none" fill="#000000" fill-rule="nonzero" /><path id="443" transform="matrix(1 0 0 -1 0 842)" d="M134.46 642.8L134.64 642.32L135.6 642.68L135.42 643.16" stroke="none" fill="#000000" fill-rule="nonzero" /><path id="444" transform="matrix(1 0 0 -1 0 842)" d="M125.46 667.16L125.28 667.64L126.24 668L126.42 667.52" stroke="none" fill="#000000" fill-rule="nonzero" /><path id="445" transform="matrix(1 0 0 -1 0 842)" d="M134.46 642.8L135.42 643.16L126.42 667.52L125.46 667.16" stroke="none" fill="#000000" fill-rule="nonzero" /><path id="446" transform="matrix(1 0 0 -1 0 842)" d="M165 653.48L164.64 653.12L165.36 652.4L165.72 652.76" stroke="none" fill="#000000" fill-rule="nonzero" /><path id="447" transform="matrix(1 0 0 -1 0 842)" d="M177.72 666.62L178.08 666.98L178.8 666.26L178.44 665.9" stroke="none" fill="#000000" fill-rule="nonzero" /><path id="448" transform="matrix(1 0 0 -1 0 842)" d="M165 653.48L165.72 652.76L178.44 665.9L177.72 666.62" stroke="none" fill="#000000" fill-rule="nonzero" /><path id="449" transform="matrix(1 0 0 -1 0 842)" d="M231.24 638.24L230.76 638.12L231 637.1L231.48 637.22" stroke="none" fill="#000000" fill-rule="nonzero" /><path id="450" transform="matrix(1 0 0 -1 0 842)" d="M255.96 643.46L256.44 643.58L256.68 642.56L256.2 642.44" stroke="none" fill="#000000" fill-rule="nonzero" /><path id="451" transform="matrix(1 0 0 -1 0 842)" d="M231.24 638.24L231.48 637.22L256.2 642.44L255.96 643.46" stroke="none" fill="#000000" fill-rule="nonzero" /></g></g></g></g></svg>