<svg xmlns="http://www.w3.org/2000/svg" xmlns:xlink="http://www.w3.org/1999/xlink" id="body_291" preserveAspectRatio="xMinYMin meet" viewBox="0 0 793 1123"><defs><clipPath id="1"><path id="" clip-rule="evenodd" transform="matrix(1 0 0 1 0 0)" d="M0 842L0 0L0 0L595 0L595 0L595 842L595 842L0 842z" /></clipPath><clipPath id="2"><path id="" clip-rule="evenodd" transform="matrix(1 0 0 1 0 0)" d="M115.56 187.02L193.98 187.02L193.98 187.02L193.98 201.42L193.98 201.42L115.56 201.42z" /></clipPath><clipPath id="3"><path id="" clip-rule="evenodd" transform="matrix(1 0 0 1 0 0)" d="M0 0.02001953L595.2 0.02001953L595.2 0.02001953L595.2 842L595.2 842L0 842z" /></clipPath><clipPath id="4"><path id="" clip-rule="evenodd" transform="matrix(1 0 0 1 0 0)" d="M116.16 187.02L190.86 187.02L190.86 187.02L190.86 201.12L190.86 201.12L116.16 201.12z" /></clipPath><clipPath id="5"><path id="" clip-rule="evenodd" transform="matrix(1 0 0 1 0 0)" d="M115.56 187.02L193.98 187.02L193.98 187.02L193.98 201.42L193.98 201.42L115.56 201.42z" /></clipPath><clipPath id="6"><path id="" clip-rule="evenodd" transform="matrix(1 0 0 1 0 0)" d="M0 0.02001953L595.2 0.02001953L595.2 0.02001953L595.2 842L595.2 842L0 842z" /></clipPath><clipPath id="7"><path id="" clip-rule="evenodd" transform="matrix(1 0 0 1 0 0)" d="M115.56 452.94L193.98 452.94L193.98 452.94L193.98 467.34L193.98 467.34L115.56 467.34z" /></clipPath><clipPath id="8"><path id="" clip-rule="evenodd" transform="matrix(1 0 0 1 0 0)" d="M0 0.02001953L595.2 0.02001953L595.2 0.02001953L595.2 842L595.2 842L0 842z" /></clipPath><clipPath id="9"><path id="" clip-rule="evenodd" transform="matrix(1 0 0 1 0 0)" d="M116.16 453L190.86 453L190.86 453L190.86 467.04L190.86 467.04L116.16 467.04z" /></clipPath><clipPath id="10"><path id="" clip-rule="evenodd" transform="matrix(1 0 0 1 0 0)" d="M115.56 452.94L193.98 452.94L193.98 452.94L193.98 467.34L193.98 467.34L115.56 467.34z" /></clipPath><clipPath id="11"><path id="" clip-rule="evenodd" transform="matrix(1 0 0 1 0 0)" d="M0 0.02001953L595.2 0.02001953L595.2 0.02001953L595.2 842L595.2 842L0 842z" /></clipPath></defs><g transform="matrix(1.333333 0 0 1.333333 0 0)"><g clip-path="url(#1)"><g clip-path="url(#2)"><g clip-path="url(#3)"><path id="465" transform="matrix(1 0 0 -1 0 842)" d="M115.56 640.58L193.98 640.58L193.98 654.98L115.56 654.98z" stroke="none" fill="#FFFFFF" fill-rule="nonzero" /></g></g><g clip-path="url(#4)"><g clip-path="url(#5)"><g clip-path="url(#6)"><g transform="matrix(0.7396039 0 0 0.7421053 116.16 187.02)"><g transform="matrix(1 0 0 1 0 0)"><image x="0" y="0" xlink:href="img_250.png" width="101" height="19" /></g></g></g></g></g><path id="467" transform="matrix(1 0 0 -1 0 842)" d="M233.94 659L549 659L549 611L233.94 611" stroke="none" fill="#ECF5FC" fill-rule="nonzero" /><g clip-path="url(#7)"><g clip-path="url(#8)"><path id="535" transform="matrix(1 0 0 -1 0 842)" d="M115.56 374.66L193.98 374.66L193.98 389.06L115.56 389.06z" stroke="none" fill="#FFFFFF" fill-rule="nonzero" /></g></g><g clip-path="url(#9)"><g clip-path="url(#10)"><g clip-path="url(#11)"><g transform="matrix(0.7396039 0 0 0.7389474 116.16 453)"><g transform="matrix(1 0 0 1 0 0)"><image x="0" y="0" xlink:href="img_250.png" width="101" height="19" /></g></g></g></g></g><path id="537" transform="matrix(1 0 0 -1 0 842)" d="M233.94 393.08L549 393.08L549 261.08L233.94 261.08" stroke="none" fill="#ECF5FC" fill-rule="nonzero" /><path id="752" transform="matrix(1 0 0 -1 0 842)" d="M233.94 183.08L549 183.08L549 107.12L233.94 107.12" stroke="none" fill="#ECF5FC" fill-rule="nonzero" /></g></g></svg>