<svg xmlns="http://www.w3.org/2000/svg" xmlns:xlink="http://www.w3.org/1999/xlink" id="body_45" preserveAspectRatio="xMinYMin meet" viewBox="0 0 793 1123"><defs><clipPath id="1"><path id="" clip-rule="evenodd" transform="matrix(1 0 0 1 0 0)" d="M0 842L0 0L0 0L595 0L595 0L595 842L595 842L0 842z" /></clipPath><clipPath id="2"><path id="" clip-rule="evenodd" transform="matrix(1 0 0 1 0 0)" d="M45.96 169.02L311.88 169.02L311.88 169.02L311.88 404.22L311.88 404.22L45.96 404.22z" /></clipPath><clipPath id="3"><path id="" clip-rule="evenodd" transform="matrix(1 0 0 1 0 0)" d="M44.94 168L556.62 168L556.62 168L556.62 405.18L556.62 405.18L44.94 405.18z" /></clipPath><clipPath id="4"><path id="" clip-rule="evenodd" transform="matrix(1 0 0 1 0 0)" d="M0 0.02001953L595.2 0.02001953L595.2 0.02001953L595.2 842L595.2 842L0 842z" /></clipPath><clipPath id="5"><path id="" clip-rule="evenodd" transform="matrix(1 0 0 1 0 0)" d="M44.94 168L556.62 168L556.62 168L556.62 405.18L556.62 405.18L44.94 405.18z" /></clipPath><clipPath id="6"><path id="" clip-rule="evenodd" transform="matrix(1 0 0 1 0 0)" d="M0 0.02001953L595.2 0.02001953L595.2 0.02001953L595.2 842L595.2 842L0 842z" /></clipPath><clipPath id="7"><path id="" clip-rule="evenodd" transform="matrix(1 0 0 1 0 0)" d="M334.74 169.02L554.1 169.02L554.1 169.02L554.1 333.42L554.1 333.42L334.74 333.42z" /></clipPath><clipPath id="8"><path id="" clip-rule="evenodd" transform="matrix(1 0 0 1 0 0)" d="M44.94 168L556.62 168L556.62 168L556.62 405.18L556.62 405.18L44.94 405.18z" /></clipPath><clipPath id="9"><path id="" clip-rule="evenodd" transform="matrix(1 0 0 1 0 0)" d="M0 0.02001953L595.2 0.02001953L595.2 0.02001953L595.2 842L595.2 842L0 842z" /></clipPath><clipPath id="10"><path id="" clip-rule="evenodd" transform="matrix(1 0 0 1 0 0)" d="M44.94 168L556.62 168L556.62 168L556.62 405.18L556.62 405.18L44.94 405.18z" /></clipPath><clipPath id="11"><path id="" clip-rule="evenodd" transform="matrix(1 0 0 1 0 0)" d="M0 0.02001953L595.2 0.02001953L595.2 0.02001953L595.2 842L595.2 842L0 842z" /></clipPath></defs><g transform="matrix(1.333333 0 0 1.333333 0 0)"><g clip-path="url(#1)"><g clip-path="url(#2)"><g clip-path="url(#3)"><g clip-path="url(#4)"><g transform="matrix(0.48 0 0 0.48 45.96 169.02)"><g transform="matrix(1 0 0 1 0 0)"><image x="0" y="0" xlink:href="img_114.png" width="554" height="490" /></g></g></g></g></g><g clip-path="url(#5)"><g clip-path="url(#6)"><path id="612" transform="matrix(1 0 0 -1 0 842)" d="M268.74 583.82L306.96 583.82L306.96 608.6L268.74 608.6z" stroke="none" fill="#FFFFFF" fill-rule="nonzero" /><path id="616" transform="matrix(1 0 0 -1 0 842)" d="M251.1 549.86L250.8 549.5L251.58 548.84L251.88 549.2" stroke="none" fill="#000000" fill-rule="nonzero" /><path id="617" transform="matrix(1 0 0 -1 0 842)" d="M278.88 582.14L279.18 582.5L279.96 581.84L279.66 581.48" stroke="none" fill="#000000" fill-rule="nonzero" /><path id="618" transform="matrix(1 0 0 -1 0 842)" d="M251.1 549.86L251.88 549.2L279.66 581.48L278.88 582.14" stroke="none" fill="#000000" fill-rule="nonzero" /><path id="619" transform="matrix(1 0 0 -1 0 842)" d="M264.24 642.8L306.96 642.8L306.96 655.58L264.24 655.58z" stroke="none" fill="#FFFFFF" fill-rule="nonzero" /><path id="624" transform="matrix(1 0 0 -1 0 842)" d="M161.34 627.32L160.86 627.2L161.1 626.18L161.58 626.3" stroke="none" fill="#000000" fill-rule="nonzero" /><path id="625" transform="matrix(1 0 0 -1 0 842)" d="M260.34 650.54L260.82 650.66L261.06 649.64L260.58 649.52" stroke="none" fill="#000000" fill-rule="nonzero" /><path id="626" transform="matrix(1 0 0 -1 0 842)" d="M161.34 627.32L161.58 626.3L260.58 649.52L260.34 650.54" stroke="none" fill="#000000" fill-rule="nonzero" /></g></g><g clip-path="url(#7)"><g clip-path="url(#8)"><g clip-path="url(#9)"><g transform="matrix(0.48 0 0 0.4793003 334.74 169.02)"><g transform="matrix(1 0 0 1 0 0)"><image x="0" y="0" xlink:href="img_115.png" width="457" height="343" /></g></g></g></g></g><g clip-path="url(#10)"><g clip-path="url(#11)"><path id="628" transform="matrix(1 0 0 -1 0 842)" d="M451.32 498.56L452.34 498.56L452.34 499.04L451.32 499.04z" stroke="none" fill="#000000" fill-rule="nonzero" /><path id="629" transform="matrix(1 0 0 -1 0 842)" d="M451.32 499.04L452.34 499.04L452.34 574.52L451.32 574.52z" stroke="none" fill="#000000" fill-rule="nonzero" /></g></g></g></g></svg>