<svg xmlns="http://www.w3.org/2000/svg" xmlns:xlink="http://www.w3.org/1999/xlink" id="body_262" preserveAspectRatio="xMinYMin meet" viewBox="0 0 793 1123"><defs><clipPath id="1"><path id="" clip-rule="evenodd" transform="matrix(1 0 0 1 0 0)" d="M0 842L0 0L0 0L595 0L595 0L595 842L595 842L0 842z" /></clipPath><clipPath id="2"><path id="" clip-rule="evenodd" transform="matrix(1 0 0 1 0 0)" d="M225.96 77.03998L340.26 77.03998L340.26 77.03998L340.26 183.96L340.26 183.96L225.96 183.96z" /></clipPath><clipPath id="3"><path id="" clip-rule="evenodd" transform="matrix(1 0 0 1 0 0)" d="M224.94 76.02002L341.28 76.02002L341.28 76.02002L341.28 184.98L341.28 184.98L224.94 184.98z" /></clipPath><clipPath id="4"><path id="" clip-rule="evenodd" transform="matrix(1 0 0 1 0 0)" d="M0 0.02001953L595.2 0.02001953L595.2 0.02001953L595.2 842L595.2 842L0 842z" /></clipPath><clipPath id="5"><path id="" clip-rule="evenodd" transform="matrix(1 0 0 1 0 0)" d="M224.94 76.02002L341.28 76.02002L341.28 76.02002L341.28 184.98L341.28 184.98L224.94 184.98z" /></clipPath><clipPath id="6"><path id="" clip-rule="evenodd" transform="matrix(1 0 0 1 0 0)" d="M0 0.02001953L595.2 0.02001953L595.2 0.02001953L595.2 842L595.2 842L0 842z" /></clipPath><clipPath id="7"><path id="" clip-rule="evenodd" transform="matrix(1 0 0 1 0 0)" d="M124.56 234L202.98 234L202.98 234L202.98 248.4L202.98 248.4L124.56 248.4z" /></clipPath><clipPath id="8"><path id="" clip-rule="evenodd" transform="matrix(1 0 0 1 0 0)" d="M0 0.02001953L595.2 0.02001953L595.2 0.02001953L595.2 842L595.2 842L0 842z" /></clipPath><clipPath id="9"><path id="" clip-rule="evenodd" transform="matrix(1 0 0 1 0 0)" d="M124.98 234.48L198.36 234.48L198.36 234.48L198.36 248.28L198.36 248.28L124.98 248.28z" /></clipPath><clipPath id="10"><path id="" clip-rule="evenodd" transform="matrix(1 0 0 1 0 0)" d="M124.56 234L202.98 234L202.98 234L202.98 248.4L202.98 248.4L124.56 248.4z" /></clipPath><clipPath id="11"><path id="" clip-rule="evenodd" transform="matrix(1 0 0 1 0 0)" d="M0 0.02001953L595.2 0.02001953L595.2 0.02001953L595.2 842L595.2 842L0 842z" /></clipPath><clipPath id="12"><path id="" clip-rule="evenodd" transform="matrix(1 0 0 1 0 0)" d="M225.96 346.92L321.96 346.92L321.96 346.92L321.96 458.88L321.96 458.88L225.96 458.88z" /></clipPath><clipPath id="13"><path id="" clip-rule="evenodd" transform="matrix(1 0 0 1 0 0)" d="M224.94 345.96L556.8 345.96L556.8 345.96L556.8 481.62L556.8 481.62L224.94 481.62z" /></clipPath><clipPath id="14"><path id="" clip-rule="evenodd" transform="matrix(1 0 0 1 0 0)" d="M0 0.02001953L595.2 0.02001953L595.2 0.02001953L595.2 842L595.2 842L0 842z" /></clipPath><clipPath id="15"><path id="" clip-rule="evenodd" transform="matrix(1 0 0 1 0 0)" d="M224.94 345.96L556.8 345.96L556.8 345.96L556.8 481.62L556.8 481.62L224.94 481.62z" /></clipPath><clipPath id="16"><path id="" clip-rule="evenodd" transform="matrix(1 0 0 1 0 0)" d="M0 0.02001953L595.2 0.02001953L595.2 0.02001953L595.2 842L595.2 842L0 842z" /></clipPath><clipPath id="17"><path id="" clip-rule="evenodd" transform="matrix(1 0 0 1 0 0)" d="M336.36 346.92L555.78 346.92L555.78 346.92L555.78 480.6L555.78 480.6L336.36 480.6z" /></clipPath><clipPath id="18"><path id="" clip-rule="evenodd" transform="matrix(1 0 0 1 0 0)" d="M224.94 345.96L556.8 345.96L556.8 345.96L556.8 481.62L556.8 481.62L224.94 481.62z" /></clipPath><clipPath id="19"><path id="" clip-rule="evenodd" transform="matrix(1 0 0 1 0 0)" d="M0 0.02001953L595.2 0.02001953L595.2 0.02001953L595.2 842L595.2 842L0 842z" /></clipPath><clipPath id="20"><path id="" clip-rule="evenodd" transform="matrix(1 0 0 1 0 0)" d="M224.94 345.96L556.8 345.96L556.8 345.96L556.8 481.62L556.8 481.62L224.94 481.62z" /></clipPath><clipPath id="21"><path id="" clip-rule="evenodd" transform="matrix(1 0 0 1 0 0)" d="M0 0.02001953L595.2 0.02001953L595.2 0.02001953L595.2 842L595.2 842L0 842z" /></clipPath></defs><g transform="matrix(1.333333 0 0 1.333333 0 0)"><g clip-path="url(#1)"><g clip-path="url(#2)"><g clip-path="url(#3)"><g clip-path="url(#4)"><g transform="matrix(0.480458 0 0 0.4794619 225.96 77.04004)"><g transform="matrix(1 0 0 1 0 0)"><image x="0" y="0" xlink:href="img_801.png" width="238" height="223" /></g></g></g></g></g><g clip-path="url(#5)"><g clip-path="url(#6)"><path id="199" transform="matrix(1 0 0 -1 0 842)" d="M265.32 731.96L265.38 731.72L265.38 731.72L265.5 731.6L265.5 731.6L265.62 731.42L265.62 731.42L265.8 731.3L265.8 731.3L266.16 731.18L266.16 731.18L266.52 731.18L266.52 731.18L266.7 731.2401L266.7 731.2401L267.06 731.48L267.06 731.48L267.18 731.6L267.18 731.6L267.24 731.78L267.24 731.78L267.3 731.96L267.3 731.96L267.3 732.38L267.3 732.38L267.24 732.56L267.24 732.56L267.12 732.7401L267.12 732.7401L267 732.86L267 732.86L266.88 732.98L266.88 732.98L266.7 733.1L266.7 733.1L266.52 733.16L266.52 733.16L266.1 733.16L266.1 733.16L265.92 733.1L265.92 733.1L265.74 732.98L265.74 732.98L265.62 732.86L265.62 732.86L265.38 732.5L265.38 732.5L265.32 732.32L265.32 732.32L265.32 731.96" stroke="none" fill="#000000" fill-rule="evenodd" /><path id="200" transform="matrix(1 0 0 -1 0 842)" d="M266.34 732.14L267.12 728.6L267.36 727.7L266.46 728L259.5 730.22L258.66 730.52L259.26 731.12L264.6 736.04L265.32 736.58L265.5 735.74L265.32 735.26L259.98 730.34L259.26 731.12L259.8 731.24L266.76 729.02L266.46 728L266.1 728.36L265.32 731.9" stroke="none" fill="#000000" fill-rule="nonzero" /><path id="201" transform="matrix(1 0 0 -1 0 842)" d="M265.5 735.74L266.34 732.14L265.32 731.9L264.48 735.5" stroke="none" fill="#000000" fill-rule="nonzero" /><path id="202" transform="matrix(1 0 0 -1 0 842)" d="M265.86 732.02L266.64 728.48L266.64 728.48L259.68 730.7L259.68 730.7L265.02 735.62" stroke="none" fill="#000000" fill-rule="evenodd" /><path id="203" transform="matrix(1 0 0 -1 0 842)" d="M266.16 733.1L265.2 732.92L265.62 731L266.58 731.18" stroke="none" fill="#000000" fill-rule="nonzero" /><path id="204" transform="matrix(1 0 0 -1 0 842)" d="M299.04 740.42L300 740.6L300.42 738.68L299.46 738.5" stroke="none" fill="#000000" fill-rule="nonzero" /><path id="205" transform="matrix(1 0 0 -1 0 842)" d="M266.16 733.1L266.58 731.18L299.46 738.5L299.04 740.42" stroke="none" fill="#000000" fill-rule="nonzero" /></g></g><g clip-path="url(#7)"><g clip-path="url(#8)"><path id="206" transform="matrix(1 0 0 -1 0 842)" d="M124.56 593.6L202.98 593.6L202.98 608L124.56 608z" stroke="none" fill="#FFFFFF" fill-rule="nonzero" /></g></g><g clip-path="url(#9)"><g clip-path="url(#10)"><g clip-path="url(#11)"><g transform="matrix(0.7265346 0 0 0.7263158 124.98 234.48)"><g transform="matrix(1 0 0 1 0 0)"><image x="0" y="0" xlink:href="img_09.png" width="101" height="19" /></g></g></g></g></g><path id="208" transform="matrix(1 0 0 -1 0 842)" d="M242.94 612.02L558 612.02L558 564.02L242.94 564.02" stroke="none" fill="#ECF5FC" fill-rule="nonzero" /><path id="284" transform="matrix(1 0 0 -1 0 842)" d="M242.94 317.36L558 317.36L558 283.4L242.94 283.4" stroke="none" fill="#ECF5FC" fill-rule="nonzero" /><path id="334" transform="matrix(1 0 0 -1 0 842)" d="M242.94 233.42L558 233.42L558 185.42L242.94 185.42" stroke="none" fill="#ECF5FC" fill-rule="nonzero" /><g clip-path="url(#12)"><g clip-path="url(#13)"><g clip-path="url(#14)"><g transform="matrix(0.478592 0 0 0.4784616 225.96 346.92)"><g transform="matrix(1 0 0 1 0 0)"><image x="0" y="0" xlink:href="img_802.png" width="201" height="234" /></g></g></g></g></g><g clip-path="url(#15)"><g clip-path="url(#16)"><path id="404" transform="matrix(1 0 0 -1 0 842)" d="M244.26 458.96L244.38 458.84L244.38 458.84L244.56 458.72L244.56 458.72L244.74 458.66L244.74 458.66L245.16 458.66L245.16 458.66L245.34 458.72L245.34 458.72L245.52 458.84L245.52 458.84L245.64 458.96L245.64 458.96L245.76 459.14L245.76 459.14L245.88 459.26L245.88 459.26L245.94 459.5L245.94 459.5L245.94 459.86L245.94 459.86L245.88 460.04L245.88 460.04L245.76 460.22L245.76 460.22L245.64 460.4L245.64 460.4L245.52 460.52L245.52 460.52L245.16 460.64L245.16 460.64L244.74 460.64L244.74 460.64L244.38 460.52L244.38 460.52L244.26 460.4L244.26 460.4L244.02 460.04L244.02 460.04L243.96 459.86L243.96 459.86L243.96 459.5L243.96 459.5L244.02 459.26L244.02 459.26L244.14 459.14L244.14 459.14L244.26 458.96" stroke="none" fill="#000000" fill-rule="evenodd" /><path id="405" transform="matrix(1 0 0 -1 0 842)" d="M244.98 459.68L247.98 456.62L248.4 456.08L234.24 448.22L232.68 447.38L233.52 448.94L241.08 462.56L241.44 463.1L241.92 462.68L241.98 462.08L234.42 448.46L233.52 448.94L233.76 449.12L247.38 456.68L247.86 455.78L247.26 455.9L244.26 458.96" stroke="none" fill="#000000" fill-rule="nonzero" /><path id="406" transform="matrix(1 0 0 -1 0 842)" d="M241.92 462.68L244.98 459.68L244.26 458.96L241.2 461.96" stroke="none" fill="#000000" fill-rule="nonzero" /><path id="407" transform="matrix(1 0 0 -1 0 842)" d="M244.62 459.32L247.62 456.26L247.62 456.26L234 448.7L234 448.7L241.56 462.32" stroke="none" fill="#000000" fill-rule="evenodd" /><path id="408" transform="matrix(1 0 0 -1 0 842)" d="M269.46 482.72L270.12 483.38L268.74 484.76L268.08 484.1" stroke="none" fill="#000000" fill-rule="nonzero" /><path id="409" transform="matrix(1 0 0 -1 0 842)" d="M245.64 458.96L244.98 458.3L243.6 459.68L244.26 460.34" stroke="none" fill="#000000" fill-rule="nonzero" /><path id="410" transform="matrix(1 0 0 -1 0 842)" d="M269.46 482.72L268.08 484.1L244.26 460.34L245.64 458.96" stroke="none" fill="#000000" fill-rule="nonzero" /></g></g><g clip-path="url(#17)"><g clip-path="url(#18)"><g clip-path="url(#19)"><g transform="matrix(0.4794847 0 0 0.4791397 336.36 346.92)"><g transform="matrix(1 0 0 1 0 0)"><image x="0" y="0" xlink:href="img_803.png" width="458" height="279" /></g></g></g></g></g><g clip-path="url(#20)"><g clip-path="url(#21)"><path id="412" transform="matrix(1 0 0 -1 0 842)" d="M477.84 422.18L477.18 421.52L478.56 420.14L479.22 420.8" stroke="none" fill="#000000" fill-rule="nonzero" /><path id="413" transform="matrix(1 0 0 -1 0 842)" d="M523.56 467.9L524.22 468.56L525.6 467.18L524.94 466.52" stroke="none" fill="#000000" fill-rule="nonzero" /><path id="414" transform="matrix(1 0 0 -1 0 842)" d="M477.84 422.18L479.22 420.8L524.94 466.52L523.56 467.9" stroke="none" fill="#000000" fill-rule="nonzero" /><path id="415" transform="matrix(1 0 0 -1 0 842)" d="M486.84 468.8L554.22 468.8L554.22 492.26L486.84 492.26z" stroke="none" fill="#FFFFFF" fill-rule="nonzero" /><path id="428" transform="matrix(1 0 0 -1 0 842)" d="M366.72 446.24L367.38 446.9L366 448.28L365.34 447.62" stroke="none" fill="#000000" fill-rule="nonzero" /><path id="429" transform="matrix(1 0 0 -1 0 842)" d="M349.86 429.38L349.2 428.72L347.82 430.1L348.48 430.76" stroke="none" fill="#000000" fill-rule="nonzero" /><path id="430" transform="matrix(1 0 0 -1 0 842)" d="M366.72 446.24L365.34 447.62L348.48 430.76L349.86 429.38" stroke="none" fill="#000000" fill-rule="nonzero" /><path id="431" transform="matrix(1 0 0 -1 0 842)" d="M337.68 414.44L362.34 414.44L362.34 426.5L337.68 426.5z" stroke="none" fill="#FFFFFF" fill-rule="nonzero" /><path id="434" transform="matrix(1 0 0 -1 0 842)" d="M339.42 390.44L377.46 390.44L377.46 402.5L339.42 402.5z" stroke="none" fill="#FFFFFF" fill-rule="nonzero" /><path id="438" transform="matrix(1 0 0 -1 0 842)" d="M399.54 482.54L425.4 473.12L426.36 472.76L426.06 471.86L407.4 420.62L407.04 419.66L406.08 419.96L380.16 429.44L379.26 429.8L379.62 430.76L380.88 431.3L406.74 421.82L406.08 419.96L405.54 421.28L424.2 472.58L426.06 471.86L424.74 471.26L398.82 480.68" stroke="none" fill="#000000" fill-rule="nonzero" /><path id="439" transform="matrix(1 0 0 -1 0 842)" d="M379.62 430.76L398.28 482L398.64 482.9L399.54 482.54L400.14 481.28L381.48 430.1" stroke="none" fill="#000000" fill-rule="nonzero" /><path id="440" transform="matrix(1 0 0 -1 0 842)" d="M392.16 436.04L392.82 436.7L391.44 438.08L390.78 437.42" stroke="none" fill="#000000" fill-rule="nonzero" /><path id="441" transform="matrix(1 0 0 -1 0 842)" d="M360.24 404.12L359.58 403.46L358.2 404.84L358.86 405.5" stroke="none" fill="#000000" fill-rule="nonzero" /><path id="442" transform="matrix(1 0 0 -1 0 842)" d="M392.16 436.04L390.78 437.42L358.86 405.5L360.24 404.12" stroke="none" fill="#000000" fill-rule="nonzero" /><path id="443" transform="matrix(1 0 0 -1 0 842)" d="M444 369.86L474 369.86L474 380.36L444 380.36z" stroke="none" fill="#FFFFFF" fill-rule="nonzero" /><path id="447" transform="matrix(1 0 0 -1 0 842)" d="M439.44 480.74L473.58 480.74L473.58 492.74L439.44 492.74z" stroke="none" fill="#FFFFFF" fill-rule="nonzero" /><path id="451" transform="matrix(1 0 0 -1 0 842)" d="M438 485.78L438.66 486.02L438.12 487.4L437.46 487.16" stroke="none" fill="#000000" fill-rule="nonzero" /><path id="452" transform="matrix(1 0 0 -1 0 842)" d="M374.28 462.56L373.62 462.32L373.08 463.7L373.74 463.94" stroke="none" fill="#000000" fill-rule="nonzero" /><path id="453" transform="matrix(1 0 0 -1 0 842)" d="M438 485.78L437.46 487.16L373.74 463.94L374.28 462.56" stroke="none" fill="#000000" fill-rule="nonzero" /><path id="454" transform="matrix(1 0 0 -1 0 842)" d="M511.8 400.52L512.46 400.76L511.92 402.14L511.26 401.9" stroke="none" fill="#000000" fill-rule="nonzero" /><path id="455" transform="matrix(1 0 0 -1 0 842)" d="M458.52 381.02L457.86 380.78L457.32 382.16L457.98 382.4" stroke="none" fill="#000000" fill-rule="nonzero" /><path id="456" transform="matrix(1 0 0 -1 0 842)" d="M511.8 400.52L511.26 401.9L457.98 382.4L458.52 381.02" stroke="none" fill="#000000" fill-rule="nonzero" /></g></g></g></g></svg>