<svg xmlns="http://www.w3.org/2000/svg" xmlns:xlink="http://www.w3.org/1999/xlink" id="body_1" preserveAspectRatio="xMinYMin meet" viewBox="0 0 793 1123"><defs><clipPath id="1"><path id="" clip-rule="evenodd" transform="matrix(1 0 0 1 0 0)" d="M0 842L0 0L0 0L595 0L595 0L595 842L595 842L0 842z" /></clipPath><clipPath id="2"><path id="" clip-rule="evenodd" transform="matrix(1 0 0 1 0 0)" d="M-0.06 0L595.26 0L595.26 0L595.26 841.98L595.26 841.98L-0.06 841.98z" /></clipPath><clipPath id="3"><path id="" clip-rule="evenodd" transform="matrix(1 0 0 1 0 0)" d="M0 0.02001953L595.2 0.02001953L595.2 0.02001953L595.2 842L595.2 842L0 842z" /></clipPath><clipPath id="4"><path id="" clip-rule="evenodd" transform="matrix(1 0 0 1 0 0)" d="M-1.398 309.555L596.668 309.555L596.668 309.555L596.668 -1.894043L596.668 -1.894043L-1.398 -1.894043z" /></clipPath><clipPath id="5"><path id="" clip-rule="evenodd" transform="matrix(1 0 0 1 0 0)" d="M-0.05 307.442L595.249 307.442L595.249 307.442L595.249 0.02801514L595.249 0.02801514L-0.05 0.02801514z" /></clipPath><clipPath id="6"><path id="" clip-rule="evenodd" transform="matrix(1 0 0 1 0 0)" d="M-0.06 0L595.26 0L595.26 0L595.26 841.98L595.26 841.98L-0.06 841.98z" /></clipPath><clipPath id="7"><path id="" clip-rule="evenodd" transform="matrix(1 0 0 1 0 0)" d="M0 0.02001953L595.2 0.02001953L595.2 0.02001953L595.2 842L595.2 842L0 842z" /></clipPath><clipPath id="8"><path id="" clip-rule="evenodd" transform="matrix(1 0 0 1 0 0)" d="M56.164 307.601L323.232 307.601L323.232 307.601L323.232 63.07501L323.232 63.07501L56.164 63.07501z" /></clipPath><clipPath id="9"><path id="" clip-rule="evenodd" transform="matrix(1 0 0 1 0 0)" d="M111.409 156.596L113.673 156.549L113.673 156.549L116.122 167.223L116.122 167.223L114.69 170.089M118.848 158.028L119.495 156.457L119.495 156.457L129.892 156.318L129.892 156.318L130.308 157.889L130.308 157.889L133.265 157.843L133.265 157.843L133.358 158.675L133.358 158.675L118.709 158.906zM137.84 160.754C 137.654 159.183 137.192 156.226 137.192 156.226L137.192 156.226L141.305 156.18L141.305 156.18L142.599 165.559L142.599 165.559L138.117 165.651C 138.117 165.651 138.024 162.325 137.84 160.754M95.421 155.81L97.915 155.903L97.915 155.903L95.791 159.552zM134.944 72.836C 131.617 73.883 128.075 78.62799 128.075 79.151C 128.075 79.67499 137.532 137.835 137.532 137.835C 137.532 137.835 101.182 138.019 100.659 138.05C 100.135 138.082 96.222 143.842 96.129 144.334C 96.037 144.828 98.563 153.422 98.563 153.422L98.563 153.422L95.574 153.422C 95.574 153.422 95.267 150.865 95.143 150.466C 95.02 150.065 94.712 150.034 94.712 150.034C 94.712 150.034 93.572 141.285 93.45 140.823C 93.326 140.36 93.388 139.899 93.018 139.775C 92.649 139.652 83.377 139.683 82.945 139.683C 82.514 139.683 81.651 139.96 81.651 140.114C 81.651 140.269 85.04 164.204 85.071 164.389C 85.101 164.573 86.426 164.543 86.426 164.543C 86.426 164.543 86.457 164.727 86.58 164.82C 86.703 164.913 88.305 164.882 88.767 164.85C 89.229 164.82 89.475 164.604 89.475 164.604L89.475 164.604L90.215 164.635C 90.215 164.635 90.523 166.792 90.523 167.037C 90.523 167.284 90.615 167.654 90.615 167.654C 90.615 167.654 90.585 169.349 90.585 169.626C 90.585 169.903 91.231 170.15 91.601 169.38C 92.002 168.824 93.788 164.85 93.788 164.85C 93.788 164.85 94.435 164.789 94.712 164.789C 94.99 164.789 95.174 164.419 95.174 164.419C 95.174 164.419 95.483 164.389 95.605 164.389C 95.728 164.389 96.283 164.019 96.314 163.865C 96.345 163.711 96.037 160.723 96.037 160.723L96.037 160.723L98.626 155.949L98.626 155.949L99.303 155.918C 99.303 155.918 99.457 156.349 99.549 156.472C 99.642 156.596 101.705 156.564 101.705 156.564L101.705 156.564L103.431 156.472C 103.431 156.472 103.801 158.012 103.924 158.105C 104.046 158.197 104.478 158.105 104.478 158.105L104.478 158.105L110.177 180.038L110.177 180.038L100.227 201.263L100.227 201.263L94.127 213.676L94.127 213.676L90.923 219.931C 90.923 219.931 84.701 219.931 83.499 220.054C 82.299 220.177 81.344 222.826 81.344 223.011C 81.344 223.196 81.775 224.335 82.021 224.367C 82.123 224.38 82.813 224.366 83.626 224.352C 84.769 224.333 86.159 224.313 86.519 224.367C 87.134 224.459 86.333 225.783 85.933 225.937C 85.532 226.091 82.483 226.738 81.959 225.691C 81.775 225.63 80.234 225.66 80.019 225.722C 79.803 225.783 77.955 229.295 77.955 229.48C 77.955 229.665 78.417 230.774 78.633 230.897C 78.755 230.968 79.574 230.958 80.356 230.948C 80.941 230.94 81.507 230.932 81.744 230.958C 81.946 230.981 82.233 230.939 82.527 230.895C 83.041 230.821 83.578 230.746 83.715 231.021C 84.239 231.913 82.299 232.807 81.405 232.992C 80.511 233.176 79.033 232.93 78.787 232.498C 78.324 232.314 77.801 232.283 77 232.314C 76.199 232.344 76.045 233.331 76.045 233.331C 76.045 233.331 75.953 233.176 75.799 232.992C 75.645 232.807 75.275 232.992 75.182 233.176C 75.091 233.361 75.522 234.655 75.491 234.963C 73.395 236.38 73.395 237.797 73.425 238.259C 73.457 238.721 74.197 240.508 74.197 240.508C 74.197 240.508 72.687 240.478 72.409 240.54C 72.132 240.601 70.931 242.974 70.869 243.435C 70.807 243.897 71.639 245.653 72.255 245.561C 72.656 245.592 78.571 245.53 78.571 245.53L78.571 245.53L70.13 263.151C 70.13 263.151 69.021 265.83 68.928 266.354C 68.774 267.494 69.883 267.709 69.883 267.709L69.883 267.709L173.759 267.001C 173.759 267.001 175.018 280.112 175.868 292.03C 175.915 292.677 185.618 293.416 190.423 293.463C 196.848 293.463 204.84 292.261 205.21 292.03C 205.488 291.106 206.596 266.893 206.596 266.893C 206.596 266.893 311.626 267.078 312.134 267.078C 312.643 267.078 312.643 266.108 312.689 265.276C 312.735 264.444 310.471 259.869 310.471 259.869L310.471 259.869L289.909 218.745L289.909 218.745L313.936 150.588C 313.936 150.588 314.815 148.416 314.768 148.186C 314.722 147.955 311.256 143.703 311.256 143.703L311.256 143.703L312.966 138.204C 312.966 138.204 318.234 138.251 319.296 138.019C 320.359 137.372 320.081 135.663 319.435 135.155C 307.606 124.158 296.285 114.269 296.285 114.269C 296.285 114.269 225.541 115.517 223.648 115.517C 214.359 110.526 206.412 110.065 204.702 109.556C 192.133 107.707 179.519 109.156 177.394 109.463C 166.765 110.634 158.787 114.238 158.787 114.238C 158.787 114.238 158.91 113.499 158.91 113.283C 158.91 113.068 158.757 112.544 158.695 112.421C 158.633 112.297 158.664 112.051 158.633 111.804C 158.602 111.559 158.51 110.665 158.448 110.48C 158.387 110.295 158.479 109.71 158.51 109.525C 158.541 109.34 158.325 108.786 158.263 108.601C 158.201 108.417 158.294 108.016 158.294 107.861C 158.294 107.707 158.109 106.661 158.079 106.475C 158.047 106.291 158.109 106.075 158.079 105.86C 158.047 105.644 157.986 104.658 157.863 104.473C 157.74 104.288 157.863 103.796 157.863 103.796C 157.863 103.796 157.802 102.409 157.678 102.194C 157.555 101.978 157.647 101.794 157.678 101.64C 157.709 101.486 157.586 100.469 157.462 100.161C 157.339 99.85303 157.37 99.63702 157.37 99.63702C 157.37 99.63702 157.493 98.89801 157.432 98.58899C 157.37 98.28101 157.155 97.91101 157.155 97.664C 157.278 97.26501 157.247 96.771 157.247 96.58698C 157.247 96.40198 157.092 95.78601 157.031 95.57001C 156.969 95.354 157.124 94.98499 157.092 94.79999C 157.062 94.61499 156.908 93.72101 156.877 93.53699C 156.847 93.35199 156.785 93.07501 156.815 92.95203C 156.847 92.82898 156.785 91.78101 156.661 91.50403C 156.538 91.22699 156.538 91.13397 156.631 90.85699C 156.723 90.57898 156.631 89.90198 156.6 89.65601C 156.57 89.409 156.323 88.79303 156.323 88.578C 156.323 88.362 156.446 87.90002 156.384 87.71503C 156.323 87.53003 156.292 86.94501 156.169 86.69897C 156.046 86.45203 156.23 85.95898 156.23 85.80499C 156.23 85.651 156.2 84.94299 156.014 84.72699C 155.892 84.32599 155.953 83.86499 155.953 83.86499L155.953 83.86499L155.953 82.78601C 155.953 82.63202 155.769 82.17102 155.737 82.047C 155.706 81.92401 155.737 81.40002 155.737 81.27698C 155.737 81.15399 155.737 80.599 155.614 80.16803C 155.491 79.737 154.721 79.70599 154.721 79.70599C 154.721 79.70599 154.567 77.211 154.474 76.53302C 154.382 75.854 154.382 74.34497 153.643 74.34497C 153.088 74.22198 145.571 74.43799 145.571 74.43799C 145.571 74.43799 145.509 73.45203 144.832 72.92798C 144.528 72.69397 142.791 72.61298 140.84 72.61298C 138.444 72.61298 135.726 72.73401 134.944 72.836" /></clipPath><clipPath id="10"><path id="" clip-rule="evenodd" transform="matrix(1 0 0 1 0 0)" d="M-0.05 841.953L595.25 841.953L595.25 841.953L595.25 0.02697754L595.25 0.02697754L-0.05 0.02697754z" /></clipPath><clipPath id="11"><path id="" clip-rule="evenodd" transform="matrix(1 0 0 1 0 0)" d="M-0.06 0L595.26 0L595.26 0L595.26 841.98L595.26 841.98L-0.06 841.98z" /></clipPath><clipPath id="12"><path id="" clip-rule="evenodd" transform="matrix(1 0 0 1 0 0)" d="M0 0.02001953L595.2 0.02001953L595.2 0.02001953L595.2 842L595.2 842L0 842z" /></clipPath><clipPath id="13"><path id="" clip-rule="evenodd" transform="matrix(1 0 0 1 0 0)" d="M-0.06 0L595.26 0L595.26 0L595.26 841.98L595.26 841.98L-0.06 841.98z" /></clipPath><clipPath id="14"><path id="" clip-rule="evenodd" transform="matrix(1 0 0 1 0 0)" d="M0 0.02001953L595.2 0.02001953L595.2 0.02001953L595.2 842L595.2 842L0 842z" /></clipPath><clipPath id="15"><path id="" clip-rule="evenodd" transform="matrix(1 0 0 1 0 0)" d="M-0.05 841.953L595.25 841.953L595.25 841.953L595.25 0.02697754L595.25 0.02697754L-0.05 0.02697754z" /></clipPath><clipPath id="16"><path id="" clip-rule="evenodd" transform="matrix(1 0 0 1 0 0)" d="M-0.06 0L595.26 0L595.26 0L595.26 841.98L595.26 841.98L-0.06 841.98z" /></clipPath><clipPath id="17"><path id="" clip-rule="evenodd" transform="matrix(1 0 0 1 0 0)" d="M0 0.02001953L595.2 0.02001953L595.2 0.02001953L595.2 842L595.2 842L0 842z" /></clipPath><clipPath id="18"><path id="" clip-rule="evenodd" transform="matrix(1 0 0 1 0 0)" d="M-0.06 0L595.26 0L595.26 0L595.26 841.98L595.26 841.98L-0.06 841.98z" /></clipPath><clipPath id="19"><path id="" clip-rule="evenodd" transform="matrix(1 0 0 1 0 0)" d="M0 0.02001953L595.2 0.02001953L595.2 0.02001953L595.2 842L595.2 842L0 842z" /></clipPath></defs><g transform="matrix(1.333333 0 0 1.333333 0 0)"><g clip-path="url(#1)"><g clip-path="url(#2)"><g clip-path="url(#3)"><path id="1" transform="matrix(1 0 0 -1 0 842)" d="M0 534.558L595.2 534.558L595.2 841.972L0 841.972z" stroke="none" fill="#7F8081" fill-rule="nonzero" /></g></g><g clip-path="url(#4)"><g clip-path="url(#5)"><g clip-path="url(#6)"><g clip-path="url(#7)"><g transform="matrix(1.128589 0 0 1.128522 -1.446 -1.906006)"><g transform="matrix(1 0 0 1 0 0)"><image x="0" y="0" xlink:href="img_01.png" width="530" height="276" /></g></g></g></g></g></g><g clip-path="url(#8)"><g clip-path="url(#9)"><g transform="matrix(0.7698328 0 0 0.7692828 67.701 71.47601)"><g transform="matrix(1 0 0 1 0 0)"><image x="0" y="0" xlink:href="img_02.png" width="329" height="290" /></g></g></g></g><g clip-path="url(#10)"><g clip-path="url(#11)"><g clip-path="url(#12)"><path id="4" transform="matrix(1 0 0 -1 0 842)" d="M467.483 73.897L464.317 73.897C 464.393 74.89999 464.624 75.922 465.89 75.978C 466.467 75.99699 466.85 75.73199 467.1 75.31599C 467.369 74.919 467.483 74.389 467.483 73.879M470.747 72.062C 470.767 75.486 469.729 77.738 465.871 77.738C 462.819 77.738 460.995 75.884 460.995 72.989C 460.995 69.433 462.282 67.69199 466.045 67.69199C 467.215 67.69199 468.252 67.957 469.039 68.48599C 469.883 69.035 470.575 69.905 470.671 71.097L470.671 71.097L467.446 71.097C 467.35 70.227 466.831 69.641 465.813 69.641C 464.508 69.641 464.24 70.87 464.258 72.062zM460.303 67.957C 460.207 68.864 460.168 69.508 460.168 70.03799L460.168 70.03799L460.168 74.63499C 460.168 76.546 458.728 77.738 456.847 77.738C 456.271 77.738 455.715 77.643 455.234 77.435C 454.793 77.227 454.371 76.924 454.006 76.46999L454.006 76.46999L454.006 81.617L454.006 81.617L450.589 81.617L450.589 81.617L450.589 67.957L450.589 67.957L454.006 67.957L454.006 67.957L454.006 73.689C 454.006 73.992 453.872 75.619 455.446 75.619C 456.521 75.619 456.751 74.69099 456.751 73.784L456.751 73.784L456.751 67.957zM500.579 75.73199C 502.019 75.73199 502.287 74.27599 502.287 72.781C 502.287 71.03999 501.981 69.67899 500.579 69.67899C 499.178 69.67899 498.87 71.03999 498.87 72.781C 498.87 74.294 499.139 75.751 500.579 75.751zM500.579 77.738C 497.43 77.738 495.377 76.016 495.377 72.743C 495.377 69.375 497.45 67.69199 500.579 67.69199C 503.707 67.69199 505.78 69.375 505.78 72.743C 505.78 76.016 503.727 77.738 500.579 77.738M478.048 74.673L478.048 77.56699C 476.571 77.587 475.439 77.113 474.997 75.657L474.997 75.657L474.92 77.474L474.92 77.474L471.503 77.474C 471.58 76.697 471.58 75.657 471.58 75.033L471.58 75.033L471.58 67.957L471.58 67.957L474.997 67.957L474.997 67.957L474.997 72.12C 474.997 73.689 475.458 74.654 477.339 74.69099C 477.569 74.69099 477.8 74.69099 478.048 74.673M494.691 67.957C 494.596 68.864 494.538 69.564 494.538 70.03799L494.538 70.03799L494.538 74.63499C 494.538 76.546 493.117 77.738 491.237 77.738C 489.873 77.71899 488.683 77.113 488.031 76.05399C 487.627 77.113 486.435 77.681 485.322 77.681C 483.978 77.681 482.846 77.24599 482.213 76.05399L482.213 76.05399L482.135 77.474L482.135 77.474L478.834 77.474L478.834 77.474L478.834 67.957L478.834 67.957L482.251 67.957L482.251 67.957L482.251 73.689C 482.251 73.992 482.118 75.619 483.69 75.619C 484.746 75.619 484.996 74.69099 484.996 73.784L484.996 73.784L484.996 67.957L484.996 67.957L488.395 67.957L488.395 67.957L488.395 73.689C 488.395 73.992 488.26 75.619 489.834 75.619C 490.89 75.619 491.14 74.69099 491.14 73.784L491.14 73.784L491.14 67.957zM449.779 79.062L449.779 81.617L438.127 81.617L438.127 79.062L442.119 79.062L442.119 67.957L445.728 67.957L445.728 79.062z" stroke="none" fill="#EF2C33" fill-rule="nonzero" /><path id="5" transform="matrix(1 0 0 -1 0 842)" d="M521.257 79.107L522.068 81.619L518.691 81.619L517.88 79.107M516.778 79.10001L517.584 81.616L508.402 81.616L508.402 67.957L512.011 67.957L512.011 73.329L514.926 73.329L515.73 75.846L512.011 75.846L512.011 79.10001zM521.258 77.474L517.841 77.474L517.841 67.957L521.258 67.957zM548.674 73.897L545.507 73.897C 545.582 74.9 545.813 75.922 547.08 75.978C 547.656 75.997 548.04 75.732 548.29 75.316C 548.559 74.919 548.674 74.389 548.674 73.87901zM551.937 72.062C 551.957 75.486 550.92 77.738 547.062 77.738C 544.008 77.738 542.184 75.884 542.184 72.98901C 542.184 69.433 543.47 67.692 547.234 67.692C 548.405 67.692 549.441 67.957 550.228 68.486C 551.073 69.035 551.764 69.905 551.86 71.097L551.86 71.097L548.635 71.097C 548.539 70.22701 548.021 69.641 547.002 69.641C 545.697 69.641 545.428 70.87 545.449 72.062zM530.922 70.79401C 530.922 72.27 530.136 72.98901 529.042 73.386C 526.988 74.105 525.452 74.14301 525.452 74.9C 525.452 75.468 525.7791 75.788 526.336 75.788C 526.776 75.788 527.064 75.676 527.256 75.486C 527.4301 75.297 527.506 74.994 527.506 74.579L527.506 74.579L530.75 74.579C 530.674 77.075 528.677 77.738 526.488 77.738C 524.626 77.738 522.209 77.094 522.209 74.805C 522.209 71.47601 527.679 72.346 527.679 70.567C 527.679 69.943 527.161 69.659 526.488 69.659C 526.105 69.659 525.797 69.848 525.606 70.114C 525.413 70.359 525.336 70.719 525.394 71.04L525.394 71.04L522.131 71.04C 522.074 68.202 524.204 67.692 526.565 67.692C 528.773 67.692 530.922 68.486 530.922 70.79401M541.475 67.957C 541.3781 68.864 541.34 69.508 541.34 70.038L541.34 70.038L541.34 74.635C 541.34 76.54601 539.9 77.738 538.02 77.738C 537.442 77.738 536.924 77.64301 536.445 77.43501C 536.0031 77.22701 535.542 76.924 535.179 76.47L535.179 76.47L535.179 81.616L535.179 81.616L531.762 81.616L531.762 81.616L531.762 67.957L531.762 67.957L535.179 67.957L535.179 67.957L535.179 73.689C 535.179 73.992 535.044 75.619 536.618 75.619C 537.692 75.619 537.923 74.691 537.923 73.784L537.923 73.784L537.923 67.957zM559.249 74.843L559.249 77.738C 557.772 77.757 556.638 77.284 556.197 75.827L556.197 75.827L556.121 77.474L556.121 77.474L552.705 77.474C 552.781 76.697 552.781 75.65701 552.781 75.03201L552.781 75.03201L552.781 67.957L552.781 67.957L556.197 67.957L556.197 67.957L556.197 72.119C 556.197 73.689 556.659 74.82401 558.541 74.862C 558.769 74.862 558.999 74.862 559.249 74.843" stroke="none" fill="#EF2C33" fill-rule="nonzero" /><path id="6" transform="matrix(1 0 0 -1 0 842)" d="M459.793 56.078C 457.176 56.078 455.218 57.509 455.218 60.024C 455.218 62.569 457.414 64.117 459.875 64.117C 460.754 64.117 461.722 63.832 462.341 63.437L462.341 63.437L461.699 62.684C 461.145 62.987 460.545 63.186 459.892 63.19C 458.951 63.198 458.025 62.921 457.399 62.245C 456.889 61.694 456.605 60.98 456.605 59.98C 456.605 58.892 456.945 58.298 457.537 57.72C 458.138 57.135 459.056 56.975 459.957 56.975C 460.675 56.975 461.388 57.238 461.944 57.528L461.944 57.528L462.554 56.804C 461.918 56.381 460.836 56.078 459.793 56.078M478.833 56.211L478.833 63.954L484.628 63.954L484.46 63.029L480.088 63.029L480.088 60.722L483.815 60.722L483.815 59.796L480.105 59.796L480.105 57.181L484.783 57.181L484.783 56.211zM533.836 63.043L529.527 63.043L529.527 60.752L533.173 60.752L533.173 59.84L529.527 59.84L529.527 56.211L528.273 56.211L528.273 63.954L534.002 63.954zM518.919 63.954L520.173 63.954L520.173 56.211L518.919 56.211zM497.39 56.211L494.268 60.34C 493.683 61.115 492.695 62.624 492.695 62.624C 492.695 62.624 492.805 61.316 492.813 60.171L492.813 60.171L492.843 56.211L492.843 56.211L491.595 56.211L491.595 56.211L491.595 63.954L491.595 63.954L493.082 63.954L493.082 63.954L496.236 59.737C 496.851 58.916 497.704 57.614 497.704 57.614C 497.704 57.614 497.519 59.042 497.51 60.068L497.51 60.068L497.48 63.954L497.48 63.954L498.718 63.954L498.718 63.954L498.718 56.211zM447.055 56.486C 446.458 56.192 445.707 56.049 444.841 56.049C 443.729 56.049 442.6 56.292 441.662 56.748L441.662 56.748L442.182 57.625C 443.094 57.177 443.961 56.975 444.923 56.975C 445.552 56.975 445.967 57.081 446.352 57.288C 446.801 57.53 447.044 57.862 447.044 58.291C 447.044 58.937 446.54 59.34 445.326 59.619L445.326 59.619L444.046 59.912C 442.776 60.205 441.975 60.988 441.975 61.904C 441.975 63.226 443.29 64.161 445.169 64.161C 446.265 64.161 447.436 63.891 448.184 63.423L448.184 63.423L447.619 62.615C 446.852 63.033 446.051 63.236 445.235 63.236C 444.119 63.236 443.344 62.807 443.344 62.081C 443.344 61.521 443.816 61.188 444.915 60.928L444.915 60.928L446.096 60.649C 446.767 60.491 447.448 60.212 447.834 59.865C 448.203 59.533 448.445 59 448.445 58.481C 448.445 57.689 447.933 56.918 447.055 56.486M512.339 63.029L509.412 63.029L509.412 56.211L508.19 56.211L508.19 63.029L505.285 63.029L505.285 63.954L512.476 63.954zM540.676 63.954L541.929 63.954L541.929 56.211L540.676 56.211zM553.854 56.078C 551.236 56.078 549.278 57.509 549.278 60.024C 549.278 62.569 551.474 64.117 553.936 64.117C 554.815 64.117 555.784 63.832 556.401 63.437L556.401 63.437L555.759 62.684C 555.206 62.987 554.606 63.186 553.952 63.19C 553.012 63.198 552.086 62.921 551.46 62.245C 550.95 61.694 550.666 60.98 550.666 59.98C 550.666 58.892 551.006 58.298 551.598 57.72C 552.198 57.135 553.116 56.975 554.018 56.975C 554.736 56.975 555.448 57.238 556.004 57.528L556.004 57.528L556.615 56.804C 555.978 56.381 554.896 56.078 553.854 56.078M469.482 63.954L470.735 63.954L470.735 56.211L469.482 56.211z" stroke="none" fill="#221E1F" fill-rule="nonzero" /></g></g></g><g clip-path="url(#13)"><g clip-path="url(#14)"><path id="7" transform="matrix(1 0 0 -1 0 842)" d="M0 777.97L595.2 777.97L595.2 819.972L0 819.972z" stroke="none" fill="#EF2C33" fill-rule="nonzero" /></g></g><g clip-path="url(#15)"><g clip-path="url(#16)"><g clip-path="url(#17)"><path id="8" transform="matrix(1 0 0 -1 0 842)" d="M36.152 802.218L38.122 802.218L38.122 802.218L38.122 804.417L38.122 804.417L40.733 805.769L40.733 805.769L40.733 802.218L40.733 802.218L43.093 802.218L43.093 802.218L43.093 800.271L43.093 800.271L40.733 800.271L40.733 800.271L40.733 793.948C 40.733 793.674 40.745 793.437 40.768 793.239C 40.791 793.039 40.844 792.872 40.928 792.734C 41.012 792.597 41.138 792.493 41.306 792.425C 41.474 792.357 41.703 792.321 41.993 792.321C 42.176 792.321 42.36 792.326 42.543 792.333C 42.726 792.341 42.91 792.367 43.093 792.414L43.093 792.414L43.093 790.397C 42.803 790.367 42.52 790.338 42.245 790.307C 41.97 790.275 41.688 790.26 41.398 790.26C 40.711 790.26 40.157 790.325 39.737 790.455C 39.317 790.584 38.989 790.775 38.752 791.027C 38.515 791.279 38.355 791.596 38.271 791.978C 38.187 792.359 38.137 792.796 38.122 793.285L38.122 793.285L38.122 800.271L38.122 800.271L36.152 800.271" stroke="none" fill="#FFFFFF" fill-rule="nonzero" /><path id="9" transform="matrix(1 0 0 -1 0 842)" d="M43.826 806.731L46.437 807.888L46.437 807.888L46.437 800.661L46.437 800.661L46.483 800.661C 46.804 801.195 47.281 801.642 47.915 802.001C 48.548 802.359 49.255 802.539 50.034 802.539C 51.332 802.539 52.355 802.203 53.103 801.531C 53.851 800.859 54.226 799.851 54.226 798.507L54.226 798.507L54.226 790.375L54.226 790.375L51.614 790.375L51.614 790.375L51.614 797.82C 51.583 798.752 51.385 799.427 51.019 799.847C 50.652 800.267 50.08 800.478 49.301 800.478C 48.858 800.478 48.461 800.397 48.11 800.237C 47.758 800.077 47.46 799.855 47.216 799.572C 46.972 799.29 46.781 798.958 46.644 798.576C 46.506 798.194 46.437 797.79 46.437 797.362L46.437 797.362L46.437 790.375L46.437 790.375L43.826 790.375" stroke="none" fill="#FFFFFF" fill-rule="nonzero" /><path id="10" transform="matrix(1 0 0 -1 0 842)" d="M63.961 797.338C 63.93 797.751 63.843 798.147 63.698 798.529C 63.553 798.911 63.354 799.243 63.102 799.526C 62.85 799.808 62.545 800.037 62.186 800.213C 61.827 800.388 61.426 800.477 60.983 800.477C 60.525 800.477 60.109 800.396 59.735 800.236C 59.361 800.076 59.04 799.854 58.773 799.571C 58.506 799.289 58.292 798.957 58.132 798.575C 57.971 798.193 57.883 797.781 57.868 797.338M57.868 795.62C 57.868 795.162 57.933 794.719 58.063 794.292C 58.192 793.864 58.387 793.49 58.647 793.169C 58.906 792.849 59.235 792.593 59.632 792.402C 60.029 792.211 60.502 792.115 61.052 792.115C 61.816 792.115 62.43 792.28 62.896 792.608C 63.362 792.936 63.709 793.429 63.938 794.085L63.938 794.085L66.412 794.085C 66.275 793.444 66.038 792.872 65.702 792.367C 65.366 791.864 64.961 791.44 64.488 791.096C 64.015 790.753 63.484 790.493 62.896 790.317C 62.308 790.142 61.693 790.054 61.052 790.054C 60.12 790.054 59.296 790.207 58.578 790.512C 57.86 790.817 57.253 791.245 56.757 791.795C 56.261 792.344 55.887 793.001 55.635 793.765C 55.383 794.528 55.257 795.368 55.257 796.284C 55.257 797.124 55.39 797.922 55.658 798.678C 55.925 799.434 56.306 800.099 56.803 800.671C 57.299 801.244 57.898 801.698 58.601 802.034C 59.303 802.37 60.098 802.538 60.983 802.538C 61.915 802.538 62.751 802.343 63.492 801.954C 64.232 801.564 64.847 801.049 65.336 800.408C 65.824 799.766 66.179 799.029 66.401 798.197C 66.622 797.365 66.679 796.506 66.573 795.62z" stroke="none" fill="#FFFFFF" fill-rule="nonzero" /><path id="11" transform="matrix(1 0 0 -1 0 842)" d="M67.421 802.218L69.87199 802.218L69.87199 802.218L69.87199 799.927L69.87199 799.927L69.918 799.927C 69.994 800.248 70.143 800.561 70.364 800.867C 70.586 801.172 70.853 801.451 71.166 801.703C 71.479 801.955 71.827 802.157 72.208 802.31C 72.59 802.462 72.979 802.539 73.377 802.539C 73.682 802.539 73.892 802.531 74.007 802.516C 74.12099 802.501 74.239 802.485 74.362 802.47L74.362 802.47L74.362 799.95C 74.179 799.981 73.991 800.008 73.80099 800.031C 73.609 800.054 73.422 800.065 73.239 800.065C 72.796 800.065 72.38 799.977 71.991 799.802C 71.602 799.626 71.26099 799.366 70.971 799.023C 70.681 798.679 70.452 798.255 70.284 797.752C 70.116 797.247 70.032 796.667 70.032 796.011L70.032 796.011L70.032 790.374L70.032 790.374L67.421 790.374" stroke="none" fill="#FFFFFF" fill-rule="nonzero" /><path id="12" transform="matrix(1 0 0 -1 0 842)" d="M75.361 802.218L77.835 802.218L77.835 802.218L77.835 800.569L77.835 800.569L77.904 800.569C 78.102 800.859 78.316 801.126 78.545 801.371C 78.774 801.615 79.03 801.821 79.312 801.989C 79.595 802.157 79.919 802.291 80.286 802.39C 80.652 802.489 81.072 802.539 81.546 802.539C 82.263 802.539 82.932 802.378 83.55 802.058C 84.169 801.737 84.607 801.241 84.867 800.569C 85.31 801.179 85.822 801.661 86.402 802.012C 86.982 802.363 87.709 802.539 88.579 802.539C 89.831 802.539 90.805 802.233 91.5 801.623C 92.194 801.011 92.542 799.988 92.542 798.553L92.542 798.553L92.542 790.374L92.542 790.374L89.931 790.374L89.931 790.374L89.931 797.293C 89.931 797.767 89.915 798.198 89.885 798.587C 89.854 798.977 89.766 799.312 89.621 799.595C 89.476 799.878 89.259 800.095 88.969 800.248C 88.678 800.401 88.281 800.477 87.776 800.477C 86.891 800.477 86.249 800.202 85.852 799.653C 85.455 799.103 85.257 798.324 85.257 797.316L85.257 797.316L85.257 790.374L85.257 790.374L82.645 790.374L82.645 790.374L82.645 797.98C 82.645 798.805 82.496 799.427 82.199 799.847C 81.901 800.267 81.355 800.477 80.561 800.477C 80.225 800.477 79.9 800.409 79.587 800.271C 79.274 800.134 78.999 799.935 78.763 799.676C 78.526 799.416 78.335 799.095 78.19 798.714C 78.045 798.332 77.972 797.896 77.972 797.408L77.972 797.408L77.972 790.374L77.972 790.374L75.361 790.374" stroke="none" fill="#FFFFFF" fill-rule="nonzero" /><path id="13" transform="matrix(1 0 0 -1 0 842)" d="M99.574 792.116C 100.154 792.116 100.658 792.238 101.086 792.482C 101.513 792.726 101.865 793.047 102.14 793.444C 102.415 793.841 102.617 794.288 102.747 794.784C 102.876 795.281 102.941 795.788 102.941 796.308C 102.941 796.812 102.876 797.316 102.747 797.819C 102.617 798.324 102.415 798.77 102.14 799.159C 101.865 799.549 101.513 799.865 101.086 800.11C 100.658 800.354 100.154 800.477 99.574 800.477C 98.994 800.477 98.49 800.354 98.062 800.11C 97.634 799.865 97.283 799.549 97.009 799.159C 96.734 798.77 96.531 798.324 96.401 797.819C 96.271 797.316 96.207 796.812 96.207 796.308C 96.207 795.788 96.271 795.281 96.401 794.784C 96.531 794.288 96.734 793.841 97.009 793.444C 97.283 793.047 97.634 792.726 98.062 792.482C 98.49 792.238 98.994 792.116 99.574 792.116M99.574 790.054C 98.627 790.054 97.783 790.211 97.043 790.523C 96.30199 790.837 95.67599 791.268 95.165 791.818C 94.653 792.368 94.263 793.024 93.99599 793.788C 93.729 794.551 93.595 795.391 93.595 796.308C 93.595 797.208 93.729 798.041 93.99599 798.804C 94.263 799.568 94.653 800.225 95.165 800.774C 95.67599 801.324 96.30199 801.757 97.043 802.07C 97.783 802.382 98.627 802.539 99.574 802.539C 100.521 802.539 101.364 802.382 102.105 802.07C 102.846 801.757 103.472 801.324 103.984 800.774C 104.495 800.225 104.884 799.568 105.152 798.804C 105.419 798.041 105.553 797.208 105.553 796.308C 105.553 795.391 105.419 794.551 105.152 793.788C 104.884 793.024 104.495 792.368 103.984 791.818C 103.472 791.268 102.846 790.837 102.105 790.523C 101.364 790.211 100.521 790.054 99.574 790.054" stroke="none" fill="#FFFFFF" fill-rule="nonzero" /><path id="14" transform="matrix(1 0 0 -1 0 842)" d="M114.955 799.893C 114.787 800.221 114.562 800.492 114.279 800.706C 113.997 800.92 113.672 801.076 113.306 801.176C 112.939 801.275 112.55 801.325 112.137 801.325C 111.817 801.325 111.492 801.29 111.164 801.222C 110.835 801.153 110.534 801.038 110.259 800.878C 109.984 800.718 109.763 800.508 109.595 800.248C 109.427 799.988 109.343 799.667 109.343 799.286C 109.343 798.965 109.423 798.694 109.583 798.473C 109.744 798.251 109.946 798.064 110.19 797.911C 110.435 797.759 110.702 797.633 110.992 797.534C 111.282 797.434 111.549 797.354 111.794 797.293L111.794 797.293L113.718 796.858C 114.13 796.797 114.539 796.686 114.944 796.526C 115.348 796.365 115.707 796.155 116.02 795.896C 116.333 795.636 116.589 795.315 116.787 794.934C 116.986 794.552 117.085 794.101 117.085 793.582C 117.085 792.941 116.94 792.395 116.65 791.945C 116.36 791.494 115.989 791.127 115.539 790.845C 115.088 790.562 114.581 790.36 114.016 790.238C 113.451 790.116 112.893 790.055 112.344 790.055C 110.954 790.055 109.827 790.383 108.965 791.039C 108.102 791.696 107.61 792.75 107.487 794.201L107.487 794.201L108.931 794.201C 108.991 793.223 109.346 792.486 109.996 791.99C 110.645 791.494 111.45 791.246 112.412 791.246C 112.763 791.246 113.126 791.284 113.5 791.36C 113.874 791.436 114.222 791.567 114.543 791.75C 114.863 791.933 115.127 792.166 115.333 792.448C 115.539 792.731 115.642 793.078 115.642 793.491C 115.642 793.842 115.57 794.136 115.425 794.373C 115.279 794.609 115.085 794.808 114.841 794.968C 114.596 795.128 114.317 795.262 114.004 795.369C 113.691 795.476 113.374 795.567 113.054 795.644L113.054 795.644L111.198 796.056C 110.725 796.178 110.29 796.32 109.893 796.48C 109.495 796.64 109.148 796.839 108.85 797.076C 108.553 797.312 108.32 797.602 108.152 797.946C 107.984 798.289 107.9 798.713 107.9 799.217C 107.9 799.813 108.033 800.324 108.301 800.752C 108.568 801.179 108.915 801.523 109.343 801.783C 109.77 802.042 110.248 802.233 110.774 802.355C 111.301 802.477 111.824 802.539 112.344 802.539C 112.939 802.539 113.493 802.462 114.004 802.31C 114.516 802.157 114.966 801.92 115.356 801.6C 115.745 801.279 116.055 800.882 116.284 800.408C 116.513 799.935 116.642 799.378 116.673 798.736L116.673 798.736L115.23 798.736C 115.215 799.179 115.123 799.565 114.955 799.893" stroke="none" fill="#FFFFFF" fill-rule="nonzero" /><path id="15" transform="matrix(1 0 0 -1 0 842)" d="M125.264 800.568C 124.728 801.072 123.98 801.324 123.019 801.324C 122.331 801.324 121.728 801.179 121.209 800.889C 120.689 800.598 120.258 800.217 119.914 799.743C 119.572 799.27 119.311 798.732 119.135 798.128C 118.961 797.525 118.872 796.91 118.872 796.284C 118.872 795.658 118.961 795.044 119.135 794.44C 119.311 793.837 119.572 793.299 119.914 792.826C 120.258 792.352 120.689 791.97 121.209 791.68C 121.728 791.39 122.331 791.245 123.019 791.245C 123.462 791.245 123.881 791.329 124.279 791.497C 124.675 791.665 125.026 791.898 125.332 792.196C 125.637 792.493 125.89 792.849 126.088 793.261C 126.286 793.673 126.408 794.123 126.454 794.612L126.454 794.612L127.897 794.612C 127.699 793.177 127.172 792.058 126.317 791.256C 125.462 790.455 124.363 790.053 123.019 790.053C 122.117 790.053 121.32 790.217 120.625 790.545C 119.929 790.874 119.345 791.321 118.872 791.886C 118.398 792.451 118.039 793.112 117.796 793.868C 117.551 794.624 117.429 795.429 117.429 796.284C 117.429 797.139 117.551 797.945 117.796 798.701C 118.039 799.457 118.398 800.117 118.872 800.682C 119.345 801.247 119.929 801.698 120.625 802.034C 121.32 802.37 122.117 802.538 123.019 802.538C 124.286 802.538 125.358 802.202 126.237 801.53C 127.115 800.858 127.637 799.843 127.807 798.483L127.807 798.483L126.364 798.483C 126.164 799.369 125.797 800.064 125.264 800.568" stroke="none" fill="#FFFFFF" fill-rule="nonzero" /></g></g></g><g clip-path="url(#18)"><g clip-path="url(#19)"><path id="16" transform="matrix(1 0 0 -1 0 842)" d="M128.791 790.375L130.234 790.375L130.234 802.196L128.791 802.196z" stroke="none" fill="#FFFFFF" fill-rule="nonzero" /><path id="17" transform="matrix(1 0 0 -1 0 842)" d="M140.073 798.69C 139.897 799.194 139.649 799.64 139.328 800.03C 139.008 800.419 138.618 800.7321 138.16 800.9691C 137.702 801.2061 137.183 801.324 136.603 801.324C 136.007 801.324 135.48 801.2061 135.022 800.9691C 134.564 800.7321 134.174 800.419 133.854 800.03C 133.533 799.64 133.277 799.19 133.086 798.678C 132.895 798.166 132.769 797.643 132.708 797.109L132.708 797.109L140.359 797.109C 140.344 797.6591 140.248 798.186 140.073 798.69M132.926 794.28C 133.071 793.722 133.304 793.223 133.625 792.78C 133.945 792.337 134.35 791.97 134.839 791.6801C 135.327 791.39 135.915 791.2451 136.603 791.2451C 137.656 791.2451 138.481 791.52 139.076 792.07C 139.672 792.619 140.084 793.3521 140.313 794.269L140.313 794.269L141.757 794.269C 141.451 792.925 140.89 791.886 140.073 791.153C 139.256 790.42 138.099 790.054 136.603 790.054C 135.671 790.054 134.865 790.218 134.186 790.546C 133.506 790.875 132.952 791.325 132.525 791.898C 132.097 792.47 131.781 793.135 131.575 793.8911C 131.368 794.647 131.265 795.444 131.265 796.2841C 131.265 797.063 131.368 797.827 131.575 798.575C 131.781 799.3231 132.097 799.991 132.525 800.579C 132.952 801.1671 133.506 801.6411 134.186 801.999C 134.865 802.358 135.671 802.538 136.603 802.538C 137.549 802.538 138.358 802.347 139.031 801.965C 139.702 801.583 140.248 801.083 140.668 800.465C 141.088 799.846 141.39 799.136 141.573 798.335C 141.757 797.533 141.833 796.72 141.802 795.895L141.802 795.895L132.708 795.895C 132.708 795.376 132.781 794.837 132.926 794.28" stroke="none" fill="#FFFFFF" fill-rule="nonzero" /><path id="18" transform="matrix(1 0 0 -1 0 842)" d="M144.024 802.195L144.024 800.156L144.024 800.156L144.07 800.156C 144.345 800.874 144.833 801.45 145.536 801.886C 146.238 802.321 147.009 802.538 147.849 802.538C 148.674 802.538 149.365 802.432 149.923 802.218C 150.48 802.004 150.926 801.703 151.263 801.313C 151.598 800.924 151.835 800.446 151.973 799.881C 152.11 799.316 152.179 798.682 152.179 797.98L152.179 797.98L152.179 790.374L152.179 790.374L150.736 790.374L150.736 790.374L150.736 797.751C 150.736 798.255 150.69 798.724 150.598 799.16C 150.507 799.595 150.346 799.973 150.117 800.294C 149.888 800.614 149.579 800.866 149.189 801.05C 148.8 801.233 148.315 801.325 147.735 801.325C 147.154 801.325 146.639 801.221 146.189 801.015C 145.738 800.809 145.356 800.526 145.043 800.168C 144.73 799.808 144.486 799.381 144.31 798.885C 144.135 798.388 144.039 797.85 144.024 797.27L144.024 797.27L144.024 790.374L144.024 790.374L142.581 790.374L142.581 790.374L142.581 802.195" stroke="none" fill="#FFFFFF" fill-rule="nonzero" /><path id="19" transform="matrix(1 0 0 -1 0 842)" d="M158.456 802.195L158.456 800.981L158.456 800.981L156.051 800.981L156.051 800.981L156.051 793.009C 156.051 792.535 156.116 792.164 156.246 791.897C 156.375 791.631 156.7 791.481 157.219 791.45C 157.631 791.45 158.044 791.474 158.456 791.519L158.456 791.519L158.456 790.305C 158.242 790.305 158.028 790.298 157.815 790.283C 157.601 790.267 157.387 790.26 157.173 790.26C 156.211 790.26 155.539 790.446 155.157 790.821C 154.776 791.195 154.592 791.887 154.608 792.895L154.608 792.895L154.608 800.981L154.608 800.981L152.546 800.981L152.546 800.981L152.546 802.195L152.546 802.195L154.608 802.195L154.608 802.195L154.608 804.417L154.608 804.417L156.051 805.745L156.051 805.745L156.051 802.195" stroke="none" fill="#FFFFFF" fill-rule="nonzero" /><path id="20" transform="matrix(1 0 0 -1 0 842)" d="M159.418 790.375L160.861 790.375L160.861 802.196L159.418 802.196z" stroke="none" fill="#FFFFFF" fill-rule="nonzero" /><path id="21" transform="matrix(1 0 0 -1 0 842)" d="M165.05 800.981L165.05 790.374L165.05 790.374L163.607 790.374L163.607 790.374L163.607 800.981L163.607 800.981L161.591 800.981L161.591 800.981L161.591 802.195L161.591 802.195L163.607 802.195L163.607 802.195L163.607 803.272C 163.607 803.776 163.645 804.241 163.721 804.669C 163.798 805.096 163.943 805.463 164.157 805.769C 164.37 806.074 164.664 806.31 165.039 806.479C 165.413 806.646 165.89 806.731 166.47 806.731C 166.684 806.731 166.882 806.723 167.066 806.708C 167.249 806.692 167.455 806.669 167.684 806.639L167.684 806.639L167.684 805.402C 167.486 805.433 167.302 805.459 167.135 805.482C 166.966 805.505 166.798 805.516 166.631 805.516C 166.233 805.516 165.928 805.456 165.714 805.333C 165.5 805.211 165.344 805.047 165.245 804.841C 165.145 804.635 165.088 804.394 165.073 804.119C 165.057 803.844 165.05 803.547 165.05 803.226L165.05 803.226L165.05 802.195L165.05 802.195L167.386 802.195L167.386 802.195L167.386 800.981" stroke="none" fill="#FFFFFF" fill-rule="nonzero" /><path id="22" transform="matrix(1 0 0 -1 0 842)" d="M167.979 790.375L169.422 790.375L169.422 802.196L167.979 802.196z" stroke="none" fill="#FFFFFF" fill-rule="nonzero" /><path id="23" transform="matrix(1 0 0 -1 0 842)" d="M178.288 800.568C 177.753 801.072 177.005 801.324 176.043 801.324C 175.356 801.324 174.752 801.179 174.233 800.889C 173.714 800.598 173.283 800.217 172.939 799.743C 172.596 799.27 172.336 798.732 172.16 798.128C 171.985 797.525 171.897 796.91 171.897 796.284C 171.897 795.658 171.985 795.044 172.16 794.44C 172.336 793.837 172.596 793.299 172.939 792.826C 173.283 792.352 173.714 791.97 174.233 791.68C 174.752 791.39 175.356 791.245 176.043 791.245C 176.486 791.245 176.906 791.329 177.303 791.497C 177.7 791.665 178.051 791.898 178.357 792.196C 178.662 792.493 178.914 792.849 179.113 793.261C 179.311 793.673 179.433 794.123 179.479 794.612L179.479 794.612L180.922 794.612C 180.724 793.177 180.197 792.058 179.342 791.256C 178.486 790.455 177.387 790.053 176.043 790.053C 175.142 790.053 174.344 790.217 173.649 790.545C 172.954 790.874 172.37 791.321 171.897 791.886C 171.423 792.451 171.065 793.112 170.82 793.868C 170.576 794.624 170.454 795.429 170.454 796.284C 170.454 797.139 170.576 797.945 170.82 798.701C 171.065 799.457 171.423 800.117 171.897 800.682C 172.37 801.247 172.954 801.698 173.649 802.034C 174.344 802.37 175.142 802.538 176.043 802.538C 177.31 802.538 178.383 802.202 179.262 801.53C 180.139 800.858 180.663 799.843 180.831 798.483L180.831 798.483L179.387 798.483C 179.189 799.369 178.822 800.064 178.288 800.568" stroke="none" fill="#FFFFFF" fill-rule="nonzero" /><path id="24" transform="matrix(1 0 0 -1 0 842)" d="M161.586 806.159L160.864 803.845L159.421 803.845L160.143 806.159" stroke="none" fill="#FFFFFF" fill-rule="nonzero" /><path id="25" transform="matrix(1 0 0 -1 0 842)" d="M170.139 806.159L169.417 803.845L167.974 803.845L168.696 806.159" stroke="none" fill="#FFFFFF" fill-rule="nonzero" /><path id="26" transform="matrix(1 0 0 -1 0 842)" d="M130.958 806.159L130.236 803.845L128.793 803.845L129.515 806.159" stroke="none" fill="#FFFFFF" fill-rule="nonzero" /></g></g></g></g></svg>