<svg xmlns="http://www.w3.org/2000/svg" xmlns:xlink="http://www.w3.org/1999/xlink" id="body_195" preserveAspectRatio="xMinYMin meet" viewBox="0 0 793 1123"><defs><clipPath id="1"><path id="" clip-rule="evenodd" transform="matrix(1 0 0 1 0 0)" d="M0 842L0 0L0 0L595 0L595 0L595 842L595 842L0 842z" /></clipPath></defs><g transform="matrix(1.333333 0 0 1.333333 0 0)"><g clip-path="url(#1)"><path id="488" transform="matrix(1 0 0 -1 0 842)" d="M215.94 572L301.2 572L301.2 590L215.94 590z" stroke="none" fill="#C5E0F7" fill-rule="nonzero" /><path id="491" transform="matrix(1 0 0 -1 0 842)" d="M301.2 572L549 572L549 590L301.2 590z" stroke="none" fill="#C5E0F7" fill-rule="nonzero" /><path id="749" transform="matrix(1 0 0 -1 0 842)" d="M215.94 495.8L549 495.8L549 496.28L215.94 496.28z" stroke="none" fill="#3D96E3" fill-rule="nonzero" /><path id="750" transform="matrix(1 0 0 -1 0 842)" d="M215.94 433.82L549 433.82L549 434.3L215.94 434.3z" stroke="none" fill="#3D96E3" fill-rule="nonzero" /><path id="751" transform="matrix(1 0 0 -1 0 842)" d="M215.94 399.86L549 399.86L549 400.34L215.94 400.34z" stroke="none" fill="#3D96E3" fill-rule="nonzero" /><path id="752" transform="matrix(1 0 0 -1 0 842)" d="M215.94 351.32L549 351.32L549 352.82L215.94 352.82z" stroke="none" fill="#3D96E3" fill-rule="nonzero" /></g></g></svg>