<svg xmlns="http://www.w3.org/2000/svg" xmlns:xlink="http://www.w3.org/1999/xlink" id="body_293" preserveAspectRatio="xMinYMin meet" viewBox="0 0 793 1123"><defs><clipPath id="1"><path id="" clip-rule="evenodd" transform="matrix(1 0 0 1 0 0)" d="M0 842L0 0L0 0L595 0L595 0L595 842L595 842L0 842z" /></clipPath><clipPath id="2"><path id="" clip-rule="evenodd" transform="matrix(1 0 0 1 0 0)" d="M115.56 172.02L193.98 172.02L193.98 172.02L193.98 186.42L193.98 186.42L115.56 186.42z" /></clipPath><clipPath id="3"><path id="" clip-rule="evenodd" transform="matrix(1 0 0 1 0 0)" d="M0 0.02001953L595.2 0.02001953L595.2 0.02001953L595.2 842L595.2 842L0 842z" /></clipPath><clipPath id="4"><path id="" clip-rule="evenodd" transform="matrix(1 0 0 1 0 0)" d="M116.16 172.08L190.86 172.08L190.86 172.08L190.86 186.12L190.86 186.12L116.16 186.12z" /></clipPath><clipPath id="5"><path id="" clip-rule="evenodd" transform="matrix(1 0 0 1 0 0)" d="M115.56 172.02L193.98 172.02L193.98 172.02L193.98 186.42L193.98 186.42L115.56 186.42z" /></clipPath><clipPath id="6"><path id="" clip-rule="evenodd" transform="matrix(1 0 0 1 0 0)" d="M0 0.02001953L595.2 0.02001953L595.2 0.02001953L595.2 842L595.2 842L0 842z" /></clipPath></defs><g transform="matrix(1.333333 0 0 1.333333 0 0)"><g clip-path="url(#1)"><g clip-path="url(#2)"><g clip-path="url(#3)"><path id="488" transform="matrix(1 0 0 -1 0 842)" d="M115.56 655.58L193.98 655.58L193.98 669.98L115.56 669.98z" stroke="none" fill="#FFFFFF" fill-rule="nonzero" /></g></g><g clip-path="url(#4)"><g clip-path="url(#5)"><g clip-path="url(#6)"><g transform="matrix(0.7396039 0 0 0.7389474 116.16 172.08)"><g transform="matrix(1 0 0 1 0 0)"><image x="0" y="0" xlink:href="img_250.png" width="101" height="19" /></g></g></g></g></g><path id="490" transform="matrix(1 0 0 -1 0 842)" d="M215.94 674L549 674L549 400.04L215.94 400.04" stroke="none" fill="#ECF5FC" fill-rule="nonzero" /></g></g></svg>