<svg xmlns="http://www.w3.org/2000/svg" xmlns:xlink="http://www.w3.org/1999/xlink" id="body_101" preserveAspectRatio="xMinYMin meet" viewBox="0 0 793 1123"><defs><clipPath id="1"><path id="" clip-rule="evenodd" transform="matrix(1 0 0 1 0 0)" d="M0 842L0 0L0 0L595 0L595 0L595 842L595 842L0 842z" /></clipPath><clipPath id="2"><path id="" clip-rule="evenodd" transform="matrix(1 0 0 1 0 0)" d="M124.56 78.06L202.98 78.06L202.98 78.06L202.98 92.46002L202.98 92.46002L124.56 92.46002z" /></clipPath><clipPath id="3"><path id="" clip-rule="evenodd" transform="matrix(1 0 0 1 0 0)" d="M0 0.02001953L595.2 0.02001953L595.2 0.02001953L595.2 842L595.2 842L0 842z" /></clipPath><clipPath id="4"><path id="" clip-rule="evenodd" transform="matrix(1 0 0 1 0 0)" d="M125.16 78.06L199.86 78.06L199.86 78.06L199.86 92.09998L199.86 92.09998L125.16 92.09998z" /></clipPath><clipPath id="5"><path id="" clip-rule="evenodd" transform="matrix(1 0 0 1 0 0)" d="M124.56 78.06L202.98 78.06L202.98 78.06L202.98 92.46002L202.98 92.46002L124.56 92.46002z" /></clipPath><clipPath id="6"><path id="" clip-rule="evenodd" transform="matrix(1 0 0 1 0 0)" d="M0 0.02001953L595.2 0.02001953L595.2 0.02001953L595.2 842L595.2 842L0 842z" /></clipPath><clipPath id="7"><path id="" clip-rule="evenodd" transform="matrix(1 0 0 1 0 0)" d="M124.56 196.02L202.98 196.02L202.98 196.02L202.98 210.42L202.98 210.42L124.56 210.42z" /></clipPath><clipPath id="8"><path id="" clip-rule="evenodd" transform="matrix(1 0 0 1 0 0)" d="M0 0.02001953L595.2 0.02001953L595.2 0.02001953L595.2 842L595.2 842L0 842z" /></clipPath><clipPath id="9"><path id="" clip-rule="evenodd" transform="matrix(1 0 0 1 0 0)" d="M125.16 196.08L199.86 196.08L199.86 196.08L199.86 210.12L199.86 210.12L125.16 210.12z" /></clipPath><clipPath id="10"><path id="" clip-rule="evenodd" transform="matrix(1 0 0 1 0 0)" d="M124.56 196.02L202.98 196.02L202.98 196.02L202.98 210.42L202.98 210.42L124.56 210.42z" /></clipPath><clipPath id="11"><path id="" clip-rule="evenodd" transform="matrix(1 0 0 1 0 0)" d="M0 0.02001953L595.2 0.02001953L595.2 0.02001953L595.2 842L595.2 842L0 842z" /></clipPath><clipPath id="12"><path id="" clip-rule="evenodd" transform="matrix(1 0 0 1 0 0)" d="M124.56 300.06L202.98 300.06L202.98 300.06L202.98 314.46L202.98 314.46L124.56 314.46z" /></clipPath><clipPath id="13"><path id="" clip-rule="evenodd" transform="matrix(1 0 0 1 0 0)" d="M0 0.02001953L595.2 0.02001953L595.2 0.02001953L595.2 842L595.2 842L0 842z" /></clipPath><clipPath id="14"><path id="" clip-rule="evenodd" transform="matrix(1 0 0 1 0 0)" d="M125.16 300.06L199.86 300.06L199.86 300.06L199.86 314.16L199.86 314.16L125.16 314.16z" /></clipPath><clipPath id="15"><path id="" clip-rule="evenodd" transform="matrix(1 0 0 1 0 0)" d="M124.56 300.06L202.98 300.06L202.98 300.06L202.98 314.46L202.98 314.46L124.56 314.46z" /></clipPath><clipPath id="16"><path id="" clip-rule="evenodd" transform="matrix(1 0 0 1 0 0)" d="M0 0.02001953L595.2 0.02001953L595.2 0.02001953L595.2 842L595.2 842L0 842z" /></clipPath><clipPath id="17"><path id="" clip-rule="evenodd" transform="matrix(1 0 0 1 0 0)" d="M124.56 362.04L202.98 362.04L202.98 362.04L202.98 376.44L202.98 376.44L124.56 376.44z" /></clipPath><clipPath id="18"><path id="" clip-rule="evenodd" transform="matrix(1 0 0 1 0 0)" d="M0 0.02001953L595.2 0.02001953L595.2 0.02001953L595.2 842L595.2 842L0 842z" /></clipPath><clipPath id="19"><path id="" clip-rule="evenodd" transform="matrix(1 0 0 1 0 0)" d="M125.16 362.1L199.86 362.1L199.86 362.1L199.86 376.14L199.86 376.14L125.16 376.14z" /></clipPath><clipPath id="20"><path id="" clip-rule="evenodd" transform="matrix(1 0 0 1 0 0)" d="M124.56 362.04L202.98 362.04L202.98 362.04L202.98 376.44L202.98 376.44L124.56 376.44z" /></clipPath><clipPath id="21"><path id="" clip-rule="evenodd" transform="matrix(1 0 0 1 0 0)" d="M0 0.02001953L595.2 0.02001953L595.2 0.02001953L595.2 842L595.2 842L0 842z" /></clipPath><clipPath id="22"><path id="" clip-rule="evenodd" transform="matrix(1 0 0 1 0 0)" d="M124.56 438.06L202.98 438.06L202.98 438.06L202.98 452.46L202.98 452.46L124.56 452.46z" /></clipPath><clipPath id="23"><path id="" clip-rule="evenodd" transform="matrix(1 0 0 1 0 0)" d="M0 0.02001953L595.2 0.02001953L595.2 0.02001953L595.2 842L595.2 842L0 842z" /></clipPath><clipPath id="24"><path id="" clip-rule="evenodd" transform="matrix(1 0 0 1 0 0)" d="M125.16 438.12L199.86 438.12L199.86 438.12L199.86 452.16L199.86 452.16L125.16 452.16z" /></clipPath><clipPath id="25"><path id="" clip-rule="evenodd" transform="matrix(1 0 0 1 0 0)" d="M124.56 438.06L202.98 438.06L202.98 438.06L202.98 452.46L202.98 452.46L124.56 452.46z" /></clipPath><clipPath id="26"><path id="" clip-rule="evenodd" transform="matrix(1 0 0 1 0 0)" d="M0 0.02001953L595.2 0.02001953L595.2 0.02001953L595.2 842L595.2 842L0 842z" /></clipPath><clipPath id="27"><path id="" clip-rule="evenodd" transform="matrix(1 0 0 1 0 0)" d="M124.56 528.06L202.98 528.06L202.98 528.06L202.98 542.46L202.98 542.46L124.56 542.46z" /></clipPath><clipPath id="28"><path id="" clip-rule="evenodd" transform="matrix(1 0 0 1 0 0)" d="M0 0.02001953L595.2 0.02001953L595.2 0.02001953L595.2 842L595.2 842L0 842z" /></clipPath><clipPath id="29"><path id="" clip-rule="evenodd" transform="matrix(1 0 0 1 0 0)" d="M125.16 528.12L199.86 528.12L199.86 528.12L199.86 542.16L199.86 542.16L125.16 542.16z" /></clipPath><clipPath id="30"><path id="" clip-rule="evenodd" transform="matrix(1 0 0 1 0 0)" d="M124.56 528.06L202.98 528.06L202.98 528.06L202.98 542.46L202.98 542.46L124.56 542.46z" /></clipPath><clipPath id="31"><path id="" clip-rule="evenodd" transform="matrix(1 0 0 1 0 0)" d="M0 0.02001953L595.2 0.02001953L595.2 0.02001953L595.2 842L595.2 842L0 842z" /></clipPath><clipPath id="32"><path id="" clip-rule="evenodd" transform="matrix(1 0 0 1 0 0)" d="M124.56 590.04L202.98 590.04L202.98 590.04L202.98 604.44L202.98 604.44L124.56 604.44z" /></clipPath><clipPath id="33"><path id="" clip-rule="evenodd" transform="matrix(1 0 0 1 0 0)" d="M0 0.02001953L595.2 0.02001953L595.2 0.02001953L595.2 842L595.2 842L0 842z" /></clipPath><clipPath id="34"><path id="" clip-rule="evenodd" transform="matrix(1 0 0 1 0 0)" d="M125.16 590.1L199.86 590.1L199.86 590.1L199.86 604.14L199.86 604.14L125.16 604.14z" /></clipPath><clipPath id="35"><path id="" clip-rule="evenodd" transform="matrix(1 0 0 1 0 0)" d="M124.56 590.04L202.98 590.04L202.98 590.04L202.98 604.44L202.98 604.44L124.56 604.44z" /></clipPath><clipPath id="36"><path id="" clip-rule="evenodd" transform="matrix(1 0 0 1 0 0)" d="M0 0.02001953L595.2 0.02001953L595.2 0.02001953L595.2 842L595.2 842L0 842z" /></clipPath><clipPath id="37"><path id="" clip-rule="evenodd" transform="matrix(1 0 0 1 0 0)" d="M124.56 652.08L202.98 652.08L202.98 652.08L202.98 666.48L202.98 666.48L124.56 666.48z" /></clipPath><clipPath id="38"><path id="" clip-rule="evenodd" transform="matrix(1 0 0 1 0 0)" d="M0 0.02001953L595.2 0.02001953L595.2 0.02001953L595.2 842L595.2 842L0 842z" /></clipPath><clipPath id="39"><path id="" clip-rule="evenodd" transform="matrix(1 0 0 1 0 0)" d="M125.16 652.08L199.86 652.08L199.86 652.08L199.86 666.12L199.86 666.12L125.16 666.12z" /></clipPath><clipPath id="40"><path id="" clip-rule="evenodd" transform="matrix(1 0 0 1 0 0)" d="M124.56 652.08L202.98 652.08L202.98 652.08L202.98 666.48L202.98 666.48L124.56 666.48z" /></clipPath><clipPath id="41"><path id="" clip-rule="evenodd" transform="matrix(1 0 0 1 0 0)" d="M0 0.02001953L595.2 0.02001953L595.2 0.02001953L595.2 842L595.2 842L0 842z" /></clipPath></defs><g transform="matrix(1.333333 0 0 1.333333 0 0)"><g clip-path="url(#1)"><g clip-path="url(#2)"><g clip-path="url(#3)"><path id="55" transform="matrix(1 0 0 -1 0 842)" d="M124.56 749.54L202.98 749.54L202.98 763.94L124.56 763.94z" stroke="none" fill="#FFFFFF" fill-rule="nonzero" /></g></g><g clip-path="url(#4)"><g clip-path="url(#5)"><g clip-path="url(#6)"><g transform="matrix(0.7396039 0 0 0.7389474 125.16 78.06)"><g transform="matrix(1 0 0 1 0 0)"><image x="0" y="0" xlink:href="img_250.png" width="101" height="19" /></g></g></g></g></g><path id="57" transform="matrix(1 0 0 -1 0 842)" d="M224.94 767.96L558 767.96L558 663.98L224.94 663.98" stroke="none" fill="#ECF5FC" fill-rule="nonzero" /><g clip-path="url(#7)"><g clip-path="url(#8)"><path id="231" transform="matrix(1 0 0 -1 0 842)" d="M124.56 631.58L202.98 631.58L202.98 645.98L124.56 645.98z" stroke="none" fill="#FFFFFF" fill-rule="nonzero" /></g></g><g clip-path="url(#9)"><g clip-path="url(#10)"><g clip-path="url(#11)"><g transform="matrix(0.7396039 0 0 0.7389474 125.16 196.08)"><g transform="matrix(1 0 0 1 0 0)"><image x="0" y="0" xlink:href="img_250.png" width="101" height="19" /></g></g></g></g></g><path id="233" transform="matrix(1 0 0 -1 0 842)" d="M224.94 649.94L558 649.94L558 559.94L224.94 559.94" stroke="none" fill="#ECF5FC" fill-rule="nonzero" /><g clip-path="url(#12)"><g clip-path="url(#13)"><path id="386" transform="matrix(1 0 0 -1 0 842)" d="M124.56 527.54L202.98 527.54L202.98 541.94L124.56 541.94z" stroke="none" fill="#FFFFFF" fill-rule="nonzero" /></g></g><g clip-path="url(#14)"><g clip-path="url(#15)"><g clip-path="url(#16)"><g transform="matrix(0.7396039 0 0 0.7421053 125.16 300.06)"><g transform="matrix(1 0 0 1 0 0)"><image x="0" y="0" xlink:href="img_250.png" width="101" height="19" /></g></g></g></g></g><path id="388" transform="matrix(1 0 0 -1 0 842)" d="M224.94 545.96L558 545.96L558 497.96L224.94 497.96" stroke="none" fill="#ECF5FC" fill-rule="nonzero" /><g clip-path="url(#17)"><g clip-path="url(#18)"><path id="456" transform="matrix(1 0 0 -1 0 842)" d="M124.56 465.56L202.98 465.56L202.98 479.96L124.56 479.96z" stroke="none" fill="#FFFFFF" fill-rule="nonzero" /></g></g><g clip-path="url(#19)"><g clip-path="url(#20)"><g clip-path="url(#21)"><g transform="matrix(0.7396039 0 0 0.7389474 125.16 362.1)"><g transform="matrix(1 0 0 1 0 0)"><image x="0" y="0" xlink:href="img_250.png" width="101" height="19" /></g></g></g></g></g><path id="458" transform="matrix(1 0 0 -1 0 842)" d="M224.94 483.98L558 483.98L558 421.94L224.94 421.94" stroke="none" fill="#ECF5FC" fill-rule="nonzero" /><g clip-path="url(#22)"><g clip-path="url(#23)"><path id="537" transform="matrix(1 0 0 -1 0 842)" d="M124.56 389.54L202.98 389.54L202.98 403.94L124.56 403.94z" stroke="none" fill="#FFFFFF" fill-rule="nonzero" /></g></g><g clip-path="url(#24)"><g clip-path="url(#25)"><g clip-path="url(#26)"><g transform="matrix(0.7396039 0 0 0.7389474 125.16 438.12)"><g transform="matrix(1 0 0 1 0 0)"><image x="0" y="0" xlink:href="img_250.png" width="101" height="19" /></g></g></g></g></g><path id="539" transform="matrix(1 0 0 -1 0 842)" d="M224.94 407.96L558 407.96L558 331.94L224.94 331.94" stroke="none" fill="#ECF5FC" fill-rule="nonzero" /><g clip-path="url(#27)"><g clip-path="url(#28)"><path id="658" transform="matrix(1 0 0 -1 0 842)" d="M124.56 299.54L202.98 299.54L202.98 313.94L124.56 313.94z" stroke="none" fill="#FFFFFF" fill-rule="nonzero" /></g></g><g clip-path="url(#29)"><g clip-path="url(#30)"><g clip-path="url(#31)"><g transform="matrix(0.7396039 0 0 0.7389474 125.16 528.12)"><g transform="matrix(1 0 0 1 0 0)"><image x="0" y="0" xlink:href="img_250.png" width="101" height="19" /></g></g></g></g></g><path id="660" transform="matrix(1 0 0 -1 0 842)" d="M224.94 317.96L558 317.96L558 269.96L224.94 269.96" stroke="none" fill="#ECF5FC" fill-rule="nonzero" /><g clip-path="url(#32)"><g clip-path="url(#33)"><path id="736" transform="matrix(1 0 0 -1 0 842)" d="M124.56 237.56L202.98 237.56L202.98 251.96L124.56 251.96z" stroke="none" fill="#FFFFFF" fill-rule="nonzero" /></g></g><g clip-path="url(#34)"><g clip-path="url(#35)"><g clip-path="url(#36)"><g transform="matrix(0.7396039 0 0 0.7389474 125.16 590.1)"><g transform="matrix(1 0 0 1 0 0)"><image x="0" y="0" xlink:href="img_250.png" width="101" height="19" /></g></g></g></g></g><path id="738" transform="matrix(1 0 0 -1 0 842)" d="M224.94 255.92L558 255.92L558 207.92L224.94 207.92" stroke="none" fill="#ECF5FC" fill-rule="nonzero" /><g clip-path="url(#37)"><g clip-path="url(#38)"><path id="816" transform="matrix(1 0 0 -1 0 842)" d="M124.56 175.52L202.98 175.52L202.98 189.92L124.56 189.92z" stroke="none" fill="#FFFFFF" fill-rule="nonzero" /></g></g><g clip-path="url(#39)"><g clip-path="url(#40)"><g clip-path="url(#41)"><g transform="matrix(0.7396039 0 0 0.7389474 125.16 652.08)"><g transform="matrix(1 0 0 1 0 0)"><image x="0" y="0" xlink:href="img_250.png" width="101" height="19" /></g></g></g></g></g><path id="818" transform="matrix(1 0 0 -1 0 842)" d="M224.94 193.94L558 193.94L558 89.96L224.94 89.96" stroke="none" fill="#ECF5FC" fill-rule="nonzero" /></g></g></svg>