<svg xmlns="http://www.w3.org/2000/svg" xmlns:xlink="http://www.w3.org/1999/xlink" id="body_15" preserveAspectRatio="xMinYMin meet" viewBox="0 0 793 1123"><defs><clipPath id="1"><path id="" clip-rule="evenodd" transform="matrix(1 0 0 1 0 0)" d="M0 842L0 0L0 0L595 0L595 0L595 842L595 842L0 842z" /></clipPath><clipPath id="2"><path id="" clip-rule="evenodd" transform="matrix(1 0 0 1 0 0)" d="M225.96 442.92L554.76 442.92L554.76 442.92L554.76 552.6L554.76 552.6L225.96 552.6z" /></clipPath><clipPath id="3"><path id="" clip-rule="evenodd" transform="matrix(1 0 0 1 0 0)" d="M224.94 441.9L555.78 441.9L555.78 441.9L555.78 573.12L555.78 573.12L224.94 573.12z" /></clipPath><clipPath id="4"><path id="" clip-rule="evenodd" transform="matrix(1 0 0 1 0 0)" d="M0 0.02001953L595.2 0.02001953L595.2 0.02001953L595.2 842L595.2 842L0 842z" /></clipPath><clipPath id="5"><path id="" clip-rule="evenodd" transform="matrix(1 0 0 1 0 0)" d="M224.94 441.9L555.78 441.9L555.78 441.9L555.78 573.12L555.78 573.12L224.94 573.12z" /></clipPath><clipPath id="6"><path id="" clip-rule="evenodd" transform="matrix(1 0 0 1 0 0)" d="M0 0.02001953L595.2 0.02001953L595.2 0.02001953L595.2 842L595.2 842L0 842z" /></clipPath></defs><g transform="matrix(1.333333 0 0 1.333333 0 0)"><g clip-path="url(#1)"><g clip-path="url(#2)"><g clip-path="url(#3)"><g clip-path="url(#4)"><g transform="matrix(0.48 0 0 0.478952 225.96 442.92)"><g transform="matrix(1 0 0 1 0 0)"><image x="0" y="0" xlink:href="img_27.png" width="685" height="229" /></g></g></g></g></g><g clip-path="url(#5)"><g clip-path="url(#6)"><path id="621" transform="matrix(1 0 0 -1 0 842)" d="M432.78 319.76L433.8 319.76L433.8 320.24L432.78 320.24z" stroke="none" fill="#000000" fill-rule="nonzero" /><path id="622" transform="matrix(1 0 0 -1 0 842)" d="M432.78 284.48L433.8 284.48L433.8 319.76L432.78 319.76z" stroke="none" fill="#000000" fill-rule="nonzero" /><path id="623" transform="matrix(1 0 0 -1 0 842)" d="M366.36 319.76L367.38 319.76L367.38 320.24L366.36 320.24z" stroke="none" fill="#000000" fill-rule="nonzero" /><path id="624" transform="matrix(1 0 0 -1 0 842)" d="M366.36 284.48L367.38 284.48L367.38 319.76L366.36 319.76z" stroke="none" fill="#000000" fill-rule="nonzero" /><path id="625" transform="matrix(1 0 0 -1 0 842)" d="M299.94 319.22L300.96 319.22L300.96 319.7L299.94 319.7z" stroke="none" fill="#000000" fill-rule="nonzero" /><path id="626" transform="matrix(1 0 0 -1 0 842)" d="M299.94 283.94L300.96 283.94L300.96 319.22L299.94 319.22z" stroke="none" fill="#000000" fill-rule="nonzero" /></g></g></g></g></svg>