<svg xmlns="http://www.w3.org/2000/svg" xmlns:xlink="http://www.w3.org/1999/xlink" id="body_282" preserveAspectRatio="xMinYMin meet" viewBox="0 0 793 1123"><defs><clipPath id="1"><path id="" clip-rule="evenodd" transform="matrix(1 0 0 1 0 0)" d="M0 842L0 0L0 0L595 0L595 0L595 842L595 842L0 842z" /></clipPath><clipPath id="2"><path id="" clip-rule="evenodd" transform="matrix(1 0 0 1 0 0)" d="M225.96 142.98L375.96 142.98L375.96 142.98L375.96 283.92L375.96 283.92L225.96 283.92z" /></clipPath><clipPath id="3"><path id="" clip-rule="evenodd" transform="matrix(1 0 0 1 0 0)" d="M224.94 142.02L376.98 142.02L376.98 142.02L376.98 284.88L376.98 284.88L224.94 284.88z" /></clipPath><clipPath id="4"><path id="" clip-rule="evenodd" transform="matrix(1 0 0 1 0 0)" d="M0 0.02001953L595.2 0.02001953L595.2 0.02001953L595.2 842L595.2 842L0 842z" /></clipPath><clipPath id="5"><path id="" clip-rule="evenodd" transform="matrix(1 0 0 1 0 0)" d="M225.96 370.86L423 370.86L423 370.86L423 625.98L423 625.98L225.96 625.98z" /></clipPath><clipPath id="6"><path id="" clip-rule="evenodd" transform="matrix(1 0 0 1 0 0)" d="M224.94 369.9L424.02 369.9L424.02 369.9L424.02 627L424.02 627L224.94 627z" /></clipPath><clipPath id="7"><path id="" clip-rule="evenodd" transform="matrix(1 0 0 1 0 0)" d="M0 0.02001953L595.2 0.02001953L595.2 0.02001953L595.2 842L595.2 842L0 842z" /></clipPath></defs><g transform="matrix(1.333333 0 0 1.333333 0 0)"><g clip-path="url(#1)"><g clip-path="url(#2)"><g clip-path="url(#3)"><g clip-path="url(#4)"><g transform="matrix(0.4792332 0 0 0.4793878 225.96 142.98)"><g transform="matrix(1 0 0 1 0 0)"><image x="0" y="0" xlink:href="img_875.png" width="313" height="294" /></g></g></g></g></g><g clip-path="url(#5)"><g clip-path="url(#6)"><g clip-path="url(#7)"><g transform="matrix(0.479416 0 0 0.4795489 225.96 370.86)"><g transform="matrix(1 0 0 1 0 0)"><image x="0" y="0" xlink:href="img_840.png" width="411" height="532" /></g></g></g></g></g></g></g></svg>