<svg xmlns="http://www.w3.org/2000/svg" xmlns:xlink="http://www.w3.org/1999/xlink" id="body_104" preserveAspectRatio="xMinYMin meet" viewBox="0 0 793 1123"><defs><clipPath id="1"><path id="" clip-rule="evenodd" transform="matrix(1 0 0 1 0 0)" d="M0 842L0 0L0 0L595 0L595 0L595 842L595 842L0 842z" /></clipPath><clipPath id="2"><path id="" clip-rule="evenodd" transform="matrix(1 0 0 1 0 0)" d="M115.56 130.02L193.98 130.02L193.98 130.02L193.98 144.42L193.98 144.42L115.56 144.42z" /></clipPath><clipPath id="3"><path id="" clip-rule="evenodd" transform="matrix(1 0 0 1 0 0)" d="M0 0.02001953L595.2 0.02001953L595.2 0.02001953L595.2 842L595.2 842L0 842z" /></clipPath><clipPath id="4"><path id="" clip-rule="evenodd" transform="matrix(1 0 0 1 0 0)" d="M115.44 130.26L190.5 130.26L190.5 130.26L190.5 144.36L190.5 144.36L115.44 144.36z" /></clipPath><clipPath id="5"><path id="" clip-rule="evenodd" transform="matrix(1 0 0 1 0 0)" d="M115.56 130.02L193.98 130.02L193.98 130.02L193.98 144.42L193.98 144.42L115.56 144.42z" /></clipPath><clipPath id="6"><path id="" clip-rule="evenodd" transform="matrix(1 0 0 1 0 0)" d="M0 0.02001953L595.2 0.02001953L595.2 0.02001953L595.2 842L595.2 842L0 842z" /></clipPath><clipPath id="7"><path id="" clip-rule="evenodd" transform="matrix(1 0 0 1 0 0)" d="M115.56 220.02L193.98 220.02L193.98 220.02L193.98 234.42L193.98 234.42L115.56 234.42z" /></clipPath><clipPath id="8"><path id="" clip-rule="evenodd" transform="matrix(1 0 0 1 0 0)" d="M0 0.02001953L595.2 0.02001953L595.2 0.02001953L595.2 842L595.2 842L0 842z" /></clipPath><clipPath id="9"><path id="" clip-rule="evenodd" transform="matrix(1 0 0 1 0 0)" d="M116.16 220.08L190.86 220.08L190.86 220.08L190.86 234.12L190.86 234.12L116.16 234.12z" /></clipPath><clipPath id="10"><path id="" clip-rule="evenodd" transform="matrix(1 0 0 1 0 0)" d="M115.56 220.02L193.98 220.02L193.98 220.02L193.98 234.42L193.98 234.42L115.56 234.42z" /></clipPath><clipPath id="11"><path id="" clip-rule="evenodd" transform="matrix(1 0 0 1 0 0)" d="M0 0.02001953L595.2 0.02001953L595.2 0.02001953L595.2 842L595.2 842L0 842z" /></clipPath><clipPath id="12"><path id="" clip-rule="evenodd" transform="matrix(1 0 0 1 0 0)" d="M115.56 296.04L193.98 296.04L193.98 296.04L193.98 310.44L193.98 310.44L115.56 310.44z" /></clipPath><clipPath id="13"><path id="" clip-rule="evenodd" transform="matrix(1 0 0 1 0 0)" d="M0 0.02001953L595.2 0.02001953L595.2 0.02001953L595.2 842L595.2 842L0 842z" /></clipPath><clipPath id="14"><path id="" clip-rule="evenodd" transform="matrix(1 0 0 1 0 0)" d="M116.16 296.04L190.86 296.04L190.86 296.04L190.86 310.14L190.86 310.14L116.16 310.14z" /></clipPath><clipPath id="15"><path id="" clip-rule="evenodd" transform="matrix(1 0 0 1 0 0)" d="M115.56 296.04L193.98 296.04L193.98 296.04L193.98 310.44L193.98 310.44L115.56 310.44z" /></clipPath><clipPath id="16"><path id="" clip-rule="evenodd" transform="matrix(1 0 0 1 0 0)" d="M0 0.02001953L595.2 0.02001953L595.2 0.02001953L595.2 842L595.2 842L0 842z" /></clipPath><clipPath id="17"><path id="" clip-rule="evenodd" transform="matrix(1 0 0 1 0 0)" d="M115.56 414L193.98 414L193.98 414L193.98 428.4L193.98 428.4L115.56 428.4z" /></clipPath><clipPath id="18"><path id="" clip-rule="evenodd" transform="matrix(1 0 0 1 0 0)" d="M0 0.02001953L595.2 0.02001953L595.2 0.02001953L595.2 842L595.2 842L0 842z" /></clipPath><clipPath id="19"><path id="" clip-rule="evenodd" transform="matrix(1 0 0 1 0 0)" d="M116.16 414.06L190.86 414.06L190.86 414.06L190.86 428.1L190.86 428.1L116.16 428.1z" /></clipPath><clipPath id="20"><path id="" clip-rule="evenodd" transform="matrix(1 0 0 1 0 0)" d="M115.56 414L193.98 414L193.98 414L193.98 428.4L193.98 428.4L115.56 428.4z" /></clipPath><clipPath id="21"><path id="" clip-rule="evenodd" transform="matrix(1 0 0 1 0 0)" d="M0 0.02001953L595.2 0.02001953L595.2 0.02001953L595.2 842L595.2 842L0 842z" /></clipPath></defs><g transform="matrix(1.333333 0 0 1.333333 0 0)"><g clip-path="url(#1)"><g clip-path="url(#2)"><g clip-path="url(#3)"><path id="95" transform="matrix(1 0 0 -1 0 842)" d="M115.56 697.58L193.98 697.58L193.98 711.98L115.56 711.98z" stroke="none" fill="#FFFFFF" fill-rule="nonzero" /></g></g><g clip-path="url(#4)"><g clip-path="url(#5)"><g clip-path="url(#6)"><g transform="matrix(0.7431683 0 0 0.7421053 115.44 130.26)"><g transform="matrix(1 0 0 1 0 0)"><image x="0" y="0" xlink:href="img_274.png" width="101" height="19" /></g></g></g></g></g><path id="97" transform="matrix(1 0 0 -1 0 842)" d="M215.94 716L549 716L549 639.98L215.94 639.98" stroke="none" fill="#ECF5FC" fill-rule="nonzero" /><g clip-path="url(#7)"><g clip-path="url(#8)"><path id="234" transform="matrix(1 0 0 -1 0 842)" d="M115.56 607.58L193.98 607.58L193.98 621.98L115.56 621.98z" stroke="none" fill="#FFFFFF" fill-rule="nonzero" /></g></g><g clip-path="url(#9)"><g clip-path="url(#10)"><g clip-path="url(#11)"><g transform="matrix(0.7396039 0 0 0.7389474 116.16 220.08)"><g transform="matrix(1 0 0 1 0 0)"><image x="0" y="0" xlink:href="img_250.png" width="101" height="19" /></g></g></g></g></g><path id="236" transform="matrix(1 0 0 -1 0 842)" d="M215.94 626L549 626L549 563.96L215.94 563.96" stroke="none" fill="#ECF5FC" fill-rule="nonzero" /><g clip-path="url(#12)"><g clip-path="url(#13)"><path id="315" transform="matrix(1 0 0 -1 0 842)" d="M115.56 531.56L193.98 531.56L193.98 545.96L115.56 545.96z" stroke="none" fill="#FFFFFF" fill-rule="nonzero" /></g></g><g clip-path="url(#14)"><g clip-path="url(#15)"><g clip-path="url(#16)"><g transform="matrix(0.7396039 0 0 0.7421053 116.16 296.04)"><g transform="matrix(1 0 0 1 0 0)"><image x="0" y="0" xlink:href="img_250.png" width="101" height="19" /></g></g></g></g></g><path id="317" transform="matrix(1 0 0 -1 0 842)" d="M215.94 549.98L549 549.98L549 446L215.94 446" stroke="none" fill="#ECF5FC" fill-rule="nonzero" /><g clip-path="url(#17)"><g clip-path="url(#18)"><path id="491" transform="matrix(1 0 0 -1 0 842)" d="M115.56 413.6L193.98 413.6L193.98 428L115.56 428z" stroke="none" fill="#FFFFFF" fill-rule="nonzero" /></g></g><g clip-path="url(#19)"><g clip-path="url(#20)"><g clip-path="url(#21)"><g transform="matrix(0.7396039 0 0 0.7389474 116.16 414.06)"><g transform="matrix(1 0 0 1 0 0)"><image x="0" y="0" xlink:href="img_250.png" width="101" height="19" /></g></g></g></g></g><path id="493" transform="matrix(1 0 0 -1 0 842)" d="M215.94 431.96L549 431.96L549 327.98L215.94 327.98" stroke="none" fill="#ECF5FC" fill-rule="nonzero" /></g></g></svg>