<svg xmlns="http://www.w3.org/2000/svg" xmlns:xlink="http://www.w3.org/1999/xlink" id="body_172" preserveAspectRatio="xMinYMin meet" viewBox="0 0 793 1123"><defs><clipPath id="1"><path id="" clip-rule="evenodd" transform="matrix(1 0 0 1 0 0)" d="M0 842L0 0L0 0L595 0L595 0L595 842L595 842L0 842z" /></clipPath><clipPath id="2"><path id="" clip-rule="evenodd" transform="matrix(1 0 0 1 0 0)" d="M216.96 455.94L547.68 455.94L547.68 455.94L547.68 563.94L547.68 563.94L216.96 563.94z" /></clipPath><clipPath id="3"><path id="" clip-rule="evenodd" transform="matrix(1 0 0 1 0 0)" d="M215.94 454.92L548.7 454.92L548.7 454.92L548.7 564.96L548.7 564.96L215.94 564.96z" /></clipPath><clipPath id="4"><path id="" clip-rule="evenodd" transform="matrix(1 0 0 1 0 0)" d="M0 0.02001953L595.2 0.02001953L595.2 0.02001953L595.2 842L595.2 842L0 842z" /></clipPath><clipPath id="5"><path id="" clip-rule="evenodd" transform="matrix(1 0 0 1 0 0)" d="M215.94 454.92L548.7 454.92L548.7 454.92L548.7 564.96L548.7 564.96L215.94 564.96z" /></clipPath><clipPath id="6"><path id="" clip-rule="evenodd" transform="matrix(1 0 0 1 0 0)" d="M0 0.02001953L595.2 0.02001953L595.2 0.02001953L595.2 842L595.2 842L0 842z" /></clipPath></defs><g transform="matrix(1.333333 0 0 1.333333 0 0)"><g clip-path="url(#1)"><path id="484" transform="matrix(1 0 0 -1 0 842)" d="M233.94 541.04L549 541.04L549 465.02L233.94 465.02" stroke="none" fill="#ECF5FC" fill-rule="nonzero" /><g clip-path="url(#2)"><g clip-path="url(#3)"><g clip-path="url(#4)"><g transform="matrix(0.48 0 0 0.48 216.96 455.94)"><g transform="matrix(1 0 0 1 0 0)"><image x="0" y="0" xlink:href="img_465.png" width="689" height="225" /></g></g></g></g></g><g clip-path="url(#5)"><g clip-path="url(#6)"><path id="601" transform="matrix(1 0 0 -1 0 842)" d="M339.78 355.82L339.84 355.64L339.84 355.64L339.84 355.52L339.84 355.52L339.9 355.34L339.9 355.34L339.9 355.22L339.9 355.22L339.96 355.1L339.96 355.1L340.08 354.98L340.08 354.98L340.14 354.86L340.14 354.86L340.26 354.74L340.26 354.74L340.38 354.68L340.38 354.68L340.44 354.56L340.44 354.56L340.62 354.5L340.62 354.5L340.98 354.32L340.98 354.32L341.64 354.32L341.64 354.32L342.12 354.56L342.12 354.56L342.24 354.68L342.24 354.68L342.36 354.74L342.36 354.74L342.48 354.86L342.48 354.86L342.6 355.1L342.6 355.1L342.72 355.22L342.72 355.22L342.72 355.34L342.72 355.34L342.78 355.52L342.78 355.52L342.78 356.12L342.78 356.12L342.72 356.24L342.72 356.24L342.72 356.42L342.72 356.42L342.6 356.54L342.6 356.54L342.54 356.66L342.54 356.66L342.48 356.78L342.48 356.78L342.36 356.9L342.36 356.9L342.24 356.96L342.24 356.96L342.12 357.08L342.12 357.08L341.76 357.26L341.76 357.26L341.64 357.26L341.64 357.26L341.46 357.32L341.46 357.32L341.16 357.32L341.16 357.32L340.98 357.26L340.98 357.26L340.86 357.26L340.86 357.26L340.62 357.14L340.62 357.14L340.44 357.08L340.44 357.08L340.38 356.96L340.38 356.96L340.26 356.9L340.26 356.9L340.14 356.78L340.14 356.78L340.08 356.66L340.08 356.66L339.96 356.54L339.96 356.54L339.9 356.42L339.9 356.42L339.9 356.24L339.9 356.24L339.84 356.12L339.84 356.12L339.84 355.94L339.84 355.94L339.78 355.82" stroke="none" fill="#FFFFFF" fill-rule="evenodd" /><path id="602" transform="matrix(1 0 0 -1 0 842)" d="M341.28 355.82L341.28 350.54L340.5 351.02L332.94 355.4L332.1 355.82L332.94 356.3L340.5 360.68L341.28 361.16L341.28 360.2L341.04 359.78L333.48 355.4L332.94 356.3L333.48 356.3L341.04 351.92L340.5 351.02L340.26 351.44L340.26 355.82" stroke="none" fill="#FFFFFF" fill-rule="nonzero" /><path id="603" transform="matrix(1 0 0 -1 0 842)" d="M340.26 355.82L341.28 355.82L341.28 360.2L340.26 360.2z" stroke="none" fill="#FFFFFF" fill-rule="nonzero" /><path id="604" transform="matrix(1 0 0 -1 0 842)" d="M340.8 355.82L340.8 351.44L340.8 351.44L333.24 355.82L333.24 355.82L340.8 360.2" stroke="none" fill="#FFFFFF" fill-rule="evenodd" /><path id="605" transform="matrix(1 0 0 -1 0 842)" d="M366.72 354.32L368.22 354.32L368.22 357.32L366.72 357.32z" stroke="none" fill="#FFFFFF" fill-rule="nonzero" /><path id="606" transform="matrix(1 0 0 -1 0 842)" d="M339.78 354.32L366.72 354.32L366.72 357.32L339.78 357.32z" stroke="none" fill="#FFFFFF" fill-rule="nonzero" /></g></g></g></g></svg>