<svg xmlns="http://www.w3.org/2000/svg" xmlns:xlink="http://www.w3.org/1999/xlink" id="body_167" preserveAspectRatio="xMinYMin meet" viewBox="0 0 793 1123"><defs><clipPath id="1"><path id="" clip-rule="evenodd" transform="matrix(1 0 0 1 0 0)" d="M0 842L0 0L0 0L595 0L595 0L595 842L595 842L0 842z" /></clipPath><clipPath id="2"><path id="" clip-rule="evenodd" transform="matrix(1 0 0 1 0 0)" d="M225.96 73.02002L432.24 73.02002L432.24 73.02002L432.24 296.88L432.24 296.88L225.96 296.88z" /></clipPath><clipPath id="3"><path id="" clip-rule="evenodd" transform="matrix(1 0 0 1 0 0)" d="M224.94 72.06L530.28 72.06L530.28 72.06L530.28 297.84L530.28 297.84L224.94 297.84z" /></clipPath><clipPath id="4"><path id="" clip-rule="evenodd" transform="matrix(1 0 0 1 0 0)" d="M0 0.02001953L595.2 0.02001953L595.2 0.02001953L595.2 842L595.2 842L0 842z" /></clipPath><clipPath id="5"><path id="" clip-rule="evenodd" transform="matrix(1 0 0 1 0 0)" d="M224.94 72.06L530.28 72.06L530.28 72.06L530.28 297.84L530.28 297.84L224.94 297.84z" /></clipPath><clipPath id="6"><path id="" clip-rule="evenodd" transform="matrix(1 0 0 1 0 0)" d="M0 0.02001953L595.2 0.02001953L595.2 0.02001953L595.2 842L595.2 842L0 842z" /></clipPath><clipPath id="7"><path id="" clip-rule="evenodd" transform="matrix(1 0 0 1 0 0)" d="M128.46 417.3L205.98 417.3L205.98 417.3L205.98 494.34L205.98 494.34L128.46 494.34z" /></clipPath><clipPath id="8"><path id="" clip-rule="evenodd" transform="matrix(1 0 0 1 0 0)" d="M127.44 416.28L206.94 416.28L206.94 416.28L206.94 495.3L206.94 495.3L127.44 495.3z" /></clipPath><clipPath id="9"><path id="" clip-rule="evenodd" transform="matrix(1 0 0 1 0 0)" d="M0 0.02001953L595.2 0.02001953L595.2 0.02001953L595.2 842L595.2 842L0 842z" /></clipPath></defs><g transform="matrix(1.333333 0 0 1.333333 0 0)"><g clip-path="url(#1)"><g clip-path="url(#2)"><g clip-path="url(#3)"><g clip-path="url(#4)"><g transform="matrix(0.4791438 0 0 0.4793576 225.96 73.02002)"><g transform="matrix(1 0 0 1 0 0)"><image x="0" y="0" xlink:href="img_451.png" width="431" height="467" /></g></g></g></g></g><g clip-path="url(#5)"><g clip-path="url(#6)"><path id="359" transform="matrix(1 0 0 -1 0 842)" d="M324.06 725.78L324.54 725.78L324.54 726.8L324.06 726.8z" stroke="none" fill="#000000" fill-rule="nonzero" /><path id="360" transform="matrix(1 0 0 -1 0 842)" d="M277.62 725.78L324.06 725.78L324.06 726.8L277.62 726.8z" stroke="none" fill="#000000" fill-rule="nonzero" /><path id="361" transform="matrix(1 0 0 -1 0 842)" d="M438.72 663.92L439.2 663.92L439.2 664.94L438.72 664.94z" stroke="none" fill="#000000" fill-rule="nonzero" /><path id="362" transform="matrix(1 0 0 -1 0 842)" d="M386.34 663.92L438.72 663.92L438.72 664.94L386.34 664.94z" stroke="none" fill="#000000" fill-rule="nonzero" /></g></g><g clip-path="url(#7)"><g clip-path="url(#8)"><g clip-path="url(#9)"><g transform="matrix(0.24 0 0 0.24 128.46 417.3)"><g transform="matrix(1 0 0 1 0 0)"><image x="0" y="0" xlink:href="img_377.png" width="323" height="321" /></g></g></g></g></g></g></g></svg>