<svg xmlns="http://www.w3.org/2000/svg" xmlns:xlink="http://www.w3.org/1999/xlink" id="body_290" preserveAspectRatio="xMinYMin meet" viewBox="0 0 793 1123"><defs><clipPath id="1"><path id="" clip-rule="evenodd" transform="matrix(1 0 0 1 0 0)" d="M0 842L0 0L0 0L595 0L595 0L595 842L595 842L0 842z" /></clipPath><clipPath id="2"><path id="" clip-rule="evenodd" transform="matrix(1 0 0 1 0 0)" d="M124.56 78.06L202.98 78.06L202.98 78.06L202.98 92.46002L202.98 92.46002L124.56 92.46002z" /></clipPath><clipPath id="3"><path id="" clip-rule="evenodd" transform="matrix(1 0 0 1 0 0)" d="M0 0.02001953L595.2 0.02001953L595.2 0.02001953L595.2 842L595.2 842L0 842z" /></clipPath><clipPath id="4"><path id="" clip-rule="evenodd" transform="matrix(1 0 0 1 0 0)" d="M124.98 78.53998L198.36 78.53998L198.36 78.53998L198.36 92.33997L198.36 92.33997L124.98 92.33997z" /></clipPath><clipPath id="5"><path id="" clip-rule="evenodd" transform="matrix(1 0 0 1 0 0)" d="M124.56 78.06L202.98 78.06L202.98 78.06L202.98 92.46002L202.98 92.46002L124.56 92.46002z" /></clipPath><clipPath id="6"><path id="" clip-rule="evenodd" transform="matrix(1 0 0 1 0 0)" d="M0 0.02001953L595.2 0.02001953L595.2 0.02001953L595.2 842L595.2 842L0 842z" /></clipPath><clipPath id="7"><path id="" clip-rule="evenodd" transform="matrix(1 0 0 1 0 0)" d="M225.96 422.94L532.92 422.94L532.92 422.94L532.92 471.42L532.92 471.42L225.96 471.42z" /></clipPath><clipPath id="8"><path id="" clip-rule="evenodd" transform="matrix(1 0 0 1 0 0)" d="M224.94 421.92L533.94 421.92L533.94 421.92L533.94 472.38L533.94 472.38L224.94 472.38z" /></clipPath><clipPath id="9"><path id="" clip-rule="evenodd" transform="matrix(1 0 0 1 0 0)" d="M0 0.02001953L595.2 0.02001953L595.2 0.02001953L595.2 842L595.2 842L0 842z" /></clipPath><clipPath id="10"><path id="" clip-rule="evenodd" transform="matrix(1 0 0 1 0 0)" d="M124.56 681.36L202.98 681.36L202.98 681.36L202.98 695.76L202.98 695.76L124.56 695.76z" /></clipPath><clipPath id="11"><path id="" clip-rule="evenodd" transform="matrix(1 0 0 1 0 0)" d="M0 0.02001953L595.2 0.02001953L595.2 0.02001953L595.2 842L595.2 842L0 842z" /></clipPath><clipPath id="12"><path id="" clip-rule="evenodd" transform="matrix(1 0 0 1 0 0)" d="M124.98 681.84L198.36 681.84L198.36 681.84L198.36 695.64L198.36 695.64L124.98 695.64z" /></clipPath><clipPath id="13"><path id="" clip-rule="evenodd" transform="matrix(1 0 0 1 0 0)" d="M124.56 681.36L202.98 681.36L202.98 681.36L202.98 695.76L202.98 695.76L124.56 695.76z" /></clipPath><clipPath id="14"><path id="" clip-rule="evenodd" transform="matrix(1 0 0 1 0 0)" d="M0 0.02001953L595.2 0.02001953L595.2 0.02001953L595.2 842L595.2 842L0 842z" /></clipPath></defs><g transform="matrix(1.333333 0 0 1.333333 0 0)"><g clip-path="url(#1)"><g clip-path="url(#2)"><g clip-path="url(#3)"><path id="640" transform="matrix(1 0 0 -1 0 842)" d="M124.56 749.54L202.98 749.54L202.98 763.94L124.56 763.94z" stroke="none" fill="#FFFFFF" fill-rule="nonzero" /></g></g><g clip-path="url(#4)"><g clip-path="url(#5)"><g clip-path="url(#6)"><g transform="matrix(0.7265346 0 0 0.7263158 124.98 78.54004)"><g transform="matrix(1 0 0 1 0 0)"><image x="0" y="0" xlink:href="img_09.png" width="101" height="19" /></g></g></g></g></g><path id="642" transform="matrix(1 0 0 -1 0 842)" d="M224.94 767.96L558 767.96L558 705.98L224.94 705.98" stroke="none" fill="#ECF5FC" fill-rule="nonzero" /><path id="734" transform="matrix(1 0 0 -1 0 842)" d="M224.94 470.06L558 470.06L558 436.1L224.94 436.1" stroke="none" fill="#ECF5FC" fill-rule="nonzero" /><g clip-path="url(#7)"><g clip-path="url(#8)"><g clip-path="url(#9)"><g transform="matrix(0.479625 0 0 0.48 225.96 422.94)"><g transform="matrix(1 0 0 1 0 0)"><image x="0" y="0" xlink:href="img_891.png" width="640" height="101" /></g></g></g></g></g><g clip-path="url(#10)"><g clip-path="url(#11)"><path id="795" transform="matrix(1 0 0 -1 0 842)" d="M124.56 146.24L202.98 146.24L202.98 160.64L124.56 160.64z" stroke="none" fill="#FFFFFF" fill-rule="nonzero" /></g></g><g clip-path="url(#12)"><g clip-path="url(#13)"><g clip-path="url(#14)"><g transform="matrix(0.7265346 0 0 0.7263158 124.98 681.84)"><g transform="matrix(1 0 0 1 0 0)"><image x="0" y="0" xlink:href="img_09.png" width="101" height="19" /></g></g></g></g></g><path id="797" transform="matrix(1 0 0 -1 0 842)" d="M224.94 164.66L558 164.66L558 116.66L224.94 116.66" stroke="none" fill="#ECF5FC" fill-rule="nonzero" /></g></g></svg>