<svg xmlns="http://www.w3.org/2000/svg" xmlns:xlink="http://www.w3.org/1999/xlink" id="body_18" preserveAspectRatio="xMinYMin meet" viewBox="0 0 793 1123"><defs><clipPath id="1"><path id="" clip-rule="evenodd" transform="matrix(1 0 0 1 0 0)" d="M0 842L0 0L0 0L595 0L595 0L595 842L595 842L0 842z" /></clipPath><clipPath id="2"><path id="" clip-rule="evenodd" transform="matrix(1 0 0 1 0 0)" d="M247.32 108.42L378.6 108.42L378.6 108.42L378.6 240.66L378.6 240.66L247.32 240.66z" /></clipPath><clipPath id="3"><path id="" clip-rule="evenodd" transform="matrix(1 0 0 1 0 0)" d="M206.94 76.02002L379.56 76.02002L379.56 76.02002L379.56 241.6801L379.56 241.6801L206.94 241.6801z" /></clipPath><clipPath id="4"><path id="" clip-rule="evenodd" transform="matrix(1 0 0 1 0 0)" d="M0 0.02001953L595.2 0.02001953L595.2 0.02001953L595.2 842L595.2 842L0 842z" /></clipPath><clipPath id="5"><path id="" clip-rule="evenodd" transform="matrix(1 0 0 1 0 0)" d="M206.94 76.02002L379.56 76.02002L379.56 76.02002L379.56 241.6801L379.56 241.6801L206.94 241.6801z" /></clipPath><clipPath id="6"><path id="" clip-rule="evenodd" transform="matrix(1 0 0 1 0 0)" d="M0 0.02001953L595.2 0.02001953L595.2 0.02001953L595.2 842L595.2 842L0 842z" /></clipPath><clipPath id="7"><path id="" clip-rule="evenodd" transform="matrix(1 0 0 1 0 0)" d="M246.42 408L374.04 408L374.04 408L374.04 622.02L374.04 622.02L246.42 622.02z" /></clipPath><clipPath id="8"><path id="" clip-rule="evenodd" transform="matrix(1 0 0 1 0 0)" d="M215.94 385.26L400.2 385.26L400.2 385.26L400.2 639.3L400.2 639.3L215.94 639.3z" /></clipPath><clipPath id="9"><path id="" clip-rule="evenodd" transform="matrix(1 0 0 1 0 0)" d="M0 0.02001953L595.2 0.02001953L595.2 0.02001953L595.2 842L595.2 842L0 842z" /></clipPath><clipPath id="10"><path id="" clip-rule="evenodd" transform="matrix(1 0 0 1 0 0)" d="M215.94 385.26L400.2 385.26L400.2 385.26L400.2 639.3L400.2 639.3L215.94 639.3z" /></clipPath><clipPath id="11"><path id="" clip-rule="evenodd" transform="matrix(1 0 0 1 0 0)" d="M0 0.02001953L595.2 0.02001953L595.2 0.02001953L595.2 842L595.2 842L0 842z" /></clipPath></defs><g transform="matrix(1.333333 0 0 1.333333 0 0)"><g clip-path="url(#1)"><g clip-path="url(#2)"><g clip-path="url(#3)"><g clip-path="url(#4)"><g transform="matrix(0.4791241 0 0 0.4791305 247.32 108.42)"><g transform="matrix(1 0 0 1 0 0)"><image x="0" y="0" xlink:href="img_33.png" width="274" height="276" /></g></g></g></g></g><g clip-path="url(#5)"><g clip-path="url(#6)"><path id="161" transform="matrix(1 0 0 -1 0 842)" d="M297.48 757.64L297.24 761.12L297.24 761.78L297.84 761.66L310.2 759.08L311.94 758.72L298.5 753.74L297.84 753.5L297.78 754.16L298.08 754.7L309.9 759.08L310.32 758.12L310.02 758.12L297.66 760.7L297.84 761.66L298.26 761.24L298.5 757.76" stroke="none" fill="#000000" fill-rule="nonzero" /><path id="162" transform="matrix(1 0 0 -1 0 842)" d="M297.78 754.16L297.48 757.64L298.5 757.7599L298.8 754.28" stroke="none" fill="#000000" fill-rule="nonzero" /><path id="163" transform="matrix(1 0 0 -1 0 842)" d="M297.96 757.7L297.72 761.18L297.72 761.18L310.08 758.6L310.08 758.6L298.26 754.22" stroke="none" fill="#000000" fill-rule="evenodd" /><path id="164" transform="matrix(1 0 0 -1 0 842)" d="M219.66 679.82L223.14 679.58L223.74 679.46L223.56 678.86L219.18 666.98L218.58 665.36L218.22 667.1L215.64 679.46L215.52 680.12L216.18 680.06L216.6 679.64L219.18 667.28L218.22 667.1L218.22 667.4L222.6 679.28L223.56 678.86L223.02 678.56L219.54 678.8" stroke="none" fill="#000000" fill-rule="nonzero" /><path id="165" transform="matrix(1 0 0 -1 0 842)" d="M216.18 680.06L219.66 679.82L219.54 678.8L216.06 679.04" stroke="none" fill="#000000" fill-rule="nonzero" /><path id="166" transform="matrix(1 0 0 -1 0 842)" d="M219.6 679.34L223.08 679.1L223.08 679.1L218.7 667.22L218.7 667.22L216.12 679.58" stroke="none" fill="#000000" fill-rule="evenodd" /><path id="167" transform="matrix(1 0 0 -1 0 842)" d="M219.12 679.88L219.3 681.8L219.54 683.72L219.78 685.58L220.08 687.5L220.8 691.22L220.8 691.28L221.22 693.08L221.7 694.94L222.78 698.54L222.78 698.6L223.38 700.34L223.38 700.28L223.98 702.08L223.98 702.14L224.7 703.88L225.36 705.62L225.42 705.62L226.2 707.3L226.14 707.3L226.92 709.04L226.98 709.1L227.82 710.72L228.66 712.4L230.46 715.64L231.42 717.26L232.44 718.82L232.44 718.88L233.46 720.38L234.54 721.94L235.62 723.44L236.76 724.94L236.82 724.94L237.96 726.38L239.16 727.82L240.36 729.2L241.62 730.58L241.62 730.64L242.88 731.96L245.52 734.6L246.84 735.86L246.9 735.86L248.34 737.12L249.72 738.32L252.6 740.6L252.6 740.66L254.1 741.8L257.1 743.96L257.16 743.96L257.7 743.12L254.7 740.96L253.2 739.82L253.26 739.82L250.38 737.54L249 736.34L247.56 735.08L247.56 735.14L246.24 733.88L243.6 731.24L242.34 729.92L242.4 729.92L241.14 728.54L239.94 727.16L238.74 725.72L237.6 724.28L237.6 724.34L236.46 722.84L235.38 721.34L234.3 719.78L233.28 718.28L232.26 716.72L232.32 716.72L231.36 715.1L231.36 715.16L229.56 711.92L228.72 710.24L227.88 708.62L227.1 706.88L226.32 705.2L226.32 705.26L225.66 703.52L224.94 701.78L224.34 699.98L223.74 698.24L222.66 694.64L222.66 694.7L222.18 692.84L222.24 692.84L221.82 691.04L221.1 687.32L220.8 685.4L220.8 685.46L220.56 683.6L220.32 681.68L220.14 679.76" stroke="none" fill="#000000" fill-rule="nonzero" /><path id="168" transform="matrix(1 0 0 -1 0 842)" d="M257.16 743.96L258.72 744.98L260.28 745.94L261.9 746.9L265.14 748.7L266.76 749.54L268.44 750.38L268.5 750.38L270.18 751.16L270.18 751.22L273.66 752.66L275.34 753.32L275.4 753.32L277.2 753.92L277.14 753.92L278.88 754.52L278.94 754.52L282.54 755.6L284.34 756.08L286.2 756.5L286.26 756.5L288.06 756.86L289.92 757.22L291.78 757.52L295.5 758L295.56 758L295.62 756.98L291.9 756.5L291.96 756.5L290.1 756.2L288.24 755.84L286.44 755.48L284.58 755.06L284.58 755.12L282.78 754.64L282.84 754.64L279.24 753.56L277.5 752.96L275.7 752.36L274.02 751.7L270.54 750.26L270.6 750.26L268.92 749.48L267.24 748.64L265.62 747.8L262.38 746L262.44 746L260.82 745.04L260.82 745.1L259.26 744.14L257.7 743.12" stroke="none" fill="#000000" fill-rule="nonzero" /><path id="169" transform="matrix(1 0 0 -1 0 842)" d="M295.56 758L295.62 756.98L297.54 757.1L297.48 758.12" stroke="none" fill="#000000" fill-rule="nonzero" /></g></g><g clip-path="url(#7)"><g clip-path="url(#8)"><g clip-path="url(#9)"><g transform="matrix(0.4797744 0 0 0.4798655 246.42 408)"><g transform="matrix(1 0 0 1 0 0)"><image x="0" y="0" xlink:href="img_34.png" width="266" height="446" /></g></g></g></g></g><g clip-path="url(#10)"><g clip-path="url(#11)"><path id="322" transform="matrix(1 0 0 -1 0 842)" d="M383.34 271.94L383.82 271.94L383.82 272.96L383.34 272.96z" stroke="none" fill="#000000" fill-rule="nonzero" /><path id="323" transform="matrix(1 0 0 -1 0 842)" d="M349.08 271.94L383.34 271.94L383.34 272.96L349.08 272.96z" stroke="none" fill="#000000" fill-rule="nonzero" /><path id="325" transform="matrix(1 0 0 -1 0 842)" d="M307.8 213.5L308.82 213.5L308.82 213.98L307.8 213.98z" stroke="none" fill="#000000" fill-rule="nonzero" /><path id="326" transform="matrix(1 0 0 -1 0 842)" d="M308.22 263.12L309.24 263.12L309.24 263.6L308.22 263.6z" stroke="none" fill="#000000" fill-rule="nonzero" /><path id="327" transform="matrix(1 0 0 -1 0 842)" d="M307.8 213.98L308.82 213.98L309.24 263.12L308.22 263.12" stroke="none" fill="#000000" fill-rule="nonzero" /><path id="329" transform="matrix(1 0 0 -1 0 842)" d="M229.32 271.22L229.8 271.22L229.8 272.24L229.32 272.24z" stroke="none" fill="#000000" fill-rule="nonzero" /><path id="330" transform="matrix(1 0 0 -1 0 842)" d="M229.8 271.22L269.04 271.22L269.04 272.24L229.8 272.24z" stroke="none" fill="#000000" fill-rule="nonzero" /><path id="332" transform="matrix(1 0 0 -1 0 842)" d="M228.3 341.24L228.78 341.24L228.78 342.26L228.3 342.26z" stroke="none" fill="#000000" fill-rule="nonzero" /><path id="333" transform="matrix(1 0 0 -1 0 842)" d="M228.78 341.24L268.02 341.24L268.02 342.26L228.78 342.26z" stroke="none" fill="#000000" fill-rule="nonzero" /><path id="336" transform="matrix(1 0 0 -1 0 842)" d="M382.62 338.36L383.1 338.36L383.1 339.38L382.62 339.38z" stroke="none" fill="#000000" fill-rule="nonzero" /><path id="337" transform="matrix(1 0 0 -1 0 842)" d="M353.22 338.36L382.62 338.36L382.62 339.38L353.22 339.38z" stroke="none" fill="#000000" fill-rule="nonzero" /><path id="339" transform="matrix(1 0 0 -1 0 842)" d="M380.7 405.86L381.18 405.86L381.18 406.88L380.7 406.88z" stroke="none" fill="#000000" fill-rule="nonzero" /><path id="340" transform="matrix(1 0 0 -1 0 842)" d="M354.72 405.86L380.7 405.86L380.7 406.88L354.72 406.88z" stroke="none" fill="#000000" fill-rule="nonzero" /><path id="341" transform="matrix(1 0 0 -1 0 842)" d="M314.58 446.9L315.6 446.9L315.6 447.38L314.58 447.38z" stroke="none" fill="#000000" fill-rule="nonzero" /><path id="342" transform="matrix(1 0 0 -1 0 842)" d="M314.58 412.28L315.6 412.28L315.6 446.9L314.58 446.9z" stroke="none" fill="#000000" fill-rule="nonzero" /><path id="343" transform="matrix(1 0 0 -1 0 842)" d="M289.32 447.2L290.34 447.2L290.34 447.68L289.32 447.68z" stroke="none" fill="#000000" fill-rule="nonzero" /><path id="344" transform="matrix(1 0 0 -1 0 842)" d="M289.44 411.56L290.46 411.56L290.46 412.04L289.44 412.04z" stroke="none" fill="#000000" fill-rule="nonzero" /><path id="345" transform="matrix(1 0 0 -1 0 842)" d="M290.34 447.2L289.32 447.2L289.44 412.04L290.46 412.04" stroke="none" fill="#000000" fill-rule="nonzero" /><path id="346" transform="matrix(1 0 0 -1 0 842)" d="M228.18 404.3L228.66 404.3L228.66 405.32L228.18 405.32z" stroke="none" fill="#000000" fill-rule="nonzero" /><path id="347" transform="matrix(1 0 0 -1 0 842)" d="M262.56 404.72L263.04 404.72L263.04 405.74L262.56 405.74z" stroke="none" fill="#000000" fill-rule="nonzero" /><path id="348" transform="matrix(1 0 0 -1 0 842)" d="M228.66 405.32L228.66 404.3L262.56 404.72L262.56 405.74" stroke="none" fill="#000000" fill-rule="nonzero" /><path id="354" transform="matrix(1 0 0 -1 0 842)" d="M308.94 343.94L308.52 343.7L309 342.8L309.42 343.04" stroke="none" fill="#000000" fill-rule="nonzero" /><path id="355" transform="matrix(1 0 0 -1 0 842)" d="M308.94 343.94L309.42 343.04L347.34 363.98L347.1 364.94L346.98 364.94L346.86 364.88" stroke="none" fill="#000000" fill-rule="nonzero" /><path id="356" transform="matrix(1 0 0 -1 0 842)" d="M347.1 363.92L383.46 363.92L383.46 364.94L347.1 364.94z" stroke="none" fill="#000000" fill-rule="nonzero" /></g></g></g></g></svg>