<svg xmlns="http://www.w3.org/2000/svg" xmlns:xlink="http://www.w3.org/1999/xlink" id="body_171" preserveAspectRatio="xMinYMin meet" viewBox="0 0 793 1123"><defs><clipPath id="1"><path id="" clip-rule="evenodd" transform="matrix(1 0 0 1 0 0)" d="M0 842L0 0L0 0L595 0L595 0L595 842L595 842L0 842z" /></clipPath><clipPath id="2"><path id="" clip-rule="evenodd" transform="matrix(1 0 0 1 0 0)" d="M182.46 617.64L205.98 617.64L205.98 617.64L205.98 631.8L205.98 631.8L182.46 631.8z" /></clipPath><clipPath id="3"><path id="" clip-rule="evenodd" transform="matrix(1 0 0 1 0 0)" d="M181.44 616.62L206.94 616.62L206.94 616.62L206.94 632.76L206.94 632.76L181.44 632.76z" /></clipPath><clipPath id="4"><path id="" clip-rule="evenodd" transform="matrix(1 0 0 1 0 0)" d="M0 0.02001953L595.2 0.02001953L595.2 0.02001953L595.2 842L595.2 842L0 842z" /></clipPath></defs><g transform="matrix(1.333333 0 0 1.333333 0 0)"><g clip-path="url(#1)"><path id="625" transform="matrix(1 0 0 -1 0 842)" d="M224.94 769.94L558 769.94L558 693.98L224.94 693.98" stroke="none" fill="#ECF5FC" fill-rule="nonzero" /><path id="737" transform="matrix(1 0 0 -1 0 842)" d="M242.94 265.1L558 265.1L558 231.14L242.94 231.14" stroke="none" fill="#ECF5FC" fill-rule="nonzero" /><g clip-path="url(#2)"><g clip-path="url(#3)"><g clip-path="url(#4)"><g transform="matrix(0.24 0 0 0.24 182.46 617.64)"><g transform="matrix(1 0 0 1 0 0)"><image x="0" y="0" xlink:href="img_463.png" width="98" height="59" /></g></g></g></g></g><path id="776" transform="matrix(1 0 0 -1 0 842)" d="M224.94 163.82L558 163.82L558 101.84L224.94 101.84" stroke="none" fill="#ECF5FC" fill-rule="nonzero" /></g></g></svg>