<svg xmlns="http://www.w3.org/2000/svg" xmlns:xlink="http://www.w3.org/1999/xlink" id="body_268" preserveAspectRatio="xMinYMin meet" viewBox="0 0 793 1123"><defs><clipPath id="1"><path id="" clip-rule="evenodd" transform="matrix(1 0 0 1 0 0)" d="M0 842L0 0L0 0L595 0L595 0L595 842L595 842L0 842z" /></clipPath><clipPath id="2"><path id="" clip-rule="evenodd" transform="matrix(1 0 0 1 0 0)" d="M225.96 115.02L361.68 115.02L361.68 115.02L361.68 313.44L361.68 313.44L225.96 313.44z" /></clipPath><clipPath id="3"><path id="" clip-rule="evenodd" transform="matrix(1 0 0 1 0 0)" d="M224.94 114L558.96 114L558.96 114L558.96 314.46L558.96 314.46L224.94 314.46z" /></clipPath><clipPath id="4"><path id="" clip-rule="evenodd" transform="matrix(1 0 0 1 0 0)" d="M0 0.02001953L595.2 0.02001953L595.2 0.02001953L595.2 842L595.2 842L0 842z" /></clipPath><clipPath id="5"><path id="" clip-rule="evenodd" transform="matrix(1 0 0 1 0 0)" d="M406.86 115.92L558 115.92L558 115.92L558 312.6L558 312.6L406.86 312.6z" /></clipPath><clipPath id="6"><path id="" clip-rule="evenodd" transform="matrix(1 0 0 1 0 0)" d="M224.94 114L558.96 114L558.96 114L558.96 314.46L558.96 314.46L224.94 314.46z" /></clipPath><clipPath id="7"><path id="" clip-rule="evenodd" transform="matrix(1 0 0 1 0 0)" d="M0 0.02001953L595.2 0.02001953L595.2 0.02001953L595.2 842L595.2 842L0 842z" /></clipPath><clipPath id="8"><path id="" clip-rule="evenodd" transform="matrix(1 0 0 1 0 0)" d="M224.94 114L558.96 114L558.96 114L558.96 314.46L558.96 314.46L224.94 314.46z" /></clipPath><clipPath id="9"><path id="" clip-rule="evenodd" transform="matrix(1 0 0 1 0 0)" d="M0 0.02001953L595.2 0.02001953L595.2 0.02001953L595.2 842L595.2 842L0 842z" /></clipPath><clipPath id="10"><path id="" clip-rule="evenodd" transform="matrix(1 0 0 1 0 0)" d="M225.96 428.4L369 428.4L369 428.4L369 644.22L369 644.22L225.96 644.22z" /></clipPath><clipPath id="11"><path id="" clip-rule="evenodd" transform="matrix(1 0 0 1 0 0)" d="M224.94 427.44L370.02 427.44L370.02 427.44L370.02 645.18L370.02 645.18L224.94 645.18z" /></clipPath><clipPath id="12"><path id="" clip-rule="evenodd" transform="matrix(1 0 0 1 0 0)" d="M0 0.02001953L595.2 0.02001953L595.2 0.02001953L595.2 842L595.2 842L0 842z" /></clipPath></defs><g transform="matrix(1.333333 0 0 1.333333 0 0)"><g clip-path="url(#1)"><g clip-path="url(#2)"><g clip-path="url(#3)"><g clip-path="url(#4)"><g transform="matrix(0.4778873 0 0 0.4792753 225.96 115.02)"><g transform="matrix(1 0 0 1 0 0)"><image x="0" y="0" xlink:href="img_835.png" width="284" height="414" /></g></g></g></g></g><g clip-path="url(#5)"><g clip-path="url(#6)"><g clip-path="url(#7)"><g transform="matrix(0.4782912 0 0 0.4785401 406.86 115.92)"><g transform="matrix(1 0 0 1 0 0)"><image x="0" y="0" xlink:href="img_836.png" width="316" height="411" /></g></g></g></g></g><g clip-path="url(#8)"><g clip-path="url(#9)"><path id="296" transform="matrix(1 0 0 -1 0 842)" d="M387.6 627.74L387.6 631.88L388.26 631.7L400.38 628.22L402.06 627.74L400.38 627.26L388.26 623.84L387.6 623.66L387.6 624.32L387.96 624.8L400.08 628.22L400.38 627.26L400.08 627.26L387.96 630.74L388.26 631.7L388.62 631.22L388.62 627.74" stroke="none" fill="#000000" fill-rule="nonzero" /><path id="297" transform="matrix(1 0 0 -1 0 842)" d="M387.6 624.32L388.62 624.32L388.62 627.74L387.6 627.74z" stroke="none" fill="#000000" fill-rule="nonzero" /><path id="298" transform="matrix(1 0 0 -1 0 842)" d="M388.08 627.74L388.08 631.22L388.08 631.22L400.2 627.74L400.2 627.74L388.08 624.32" stroke="none" fill="#000000" fill-rule="evenodd" /><path id="299" transform="matrix(1 0 0 -1 0 842)" d="M366.54 627.2L387.6 627.2L387.6 628.22L366.54 628.22z" stroke="none" fill="#000000" fill-rule="nonzero" /></g></g><g clip-path="url(#10)"><g clip-path="url(#11)"><g clip-path="url(#12)"><g transform="matrix(0.48 0 0 0.4796 225.96 428.4)"><g transform="matrix(1 0 0 1 0 0)"><image x="0" y="0" xlink:href="img_837.png" width="298" height="450" /></g></g></g></g></g></g></g></svg>