<svg xmlns="http://www.w3.org/2000/svg" xmlns:xlink="http://www.w3.org/1999/xlink" id="body_141" preserveAspectRatio="xMinYMin meet" viewBox="0 0 793 1123"><defs><clipPath id="1"><path id="" clip-rule="evenodd" transform="matrix(1 0 0 1 0 0)" d="M0 842L0 0L0 0L595 0L595 0L595 842L595 842L0 842z" /></clipPath><clipPath id="2"><path id="" clip-rule="evenodd" transform="matrix(1 0 0 1 0 0)" d="M216.96 77.03998L331.74 77.03998L331.74 77.03998L331.74 261.6L331.74 261.6L216.96 261.6z" /></clipPath><clipPath id="3"><path id="" clip-rule="evenodd" transform="matrix(1 0 0 1 0 0)" d="M215.94 76.02002L332.7 76.02002L332.7 76.02002L332.7 262.56L332.7 262.56L215.94 262.56z" /></clipPath><clipPath id="4"><path id="" clip-rule="evenodd" transform="matrix(1 0 0 1 0 0)" d="M0 0.02001953L595.2 0.02001953L595.2 0.02001953L595.2 842L595.2 842L0 842z" /></clipPath><clipPath id="5"><path id="" clip-rule="evenodd" transform="matrix(1 0 0 1 0 0)" d="M215.94 76.02002L332.7 76.02002L332.7 76.02002L332.7 262.56L332.7 262.56L215.94 262.56z" /></clipPath><clipPath id="6"><path id="" clip-rule="evenodd" transform="matrix(1 0 0 1 0 0)" d="M0 0.02001953L595.2 0.02001953L595.2 0.02001953L595.2 842L595.2 842L0 842z" /></clipPath><clipPath id="7"><path id="" clip-rule="evenodd" transform="matrix(1 0 0 1 0 0)" d="M141.36 330.12L196.98 330.12L196.98 330.12L196.98 360.54L196.98 360.54L141.36 360.54z" /></clipPath><clipPath id="8"><path id="" clip-rule="evenodd" transform="matrix(1 0 0 1 0 0)" d="M140.34 329.1L197.94 329.1L197.94 329.1L197.94 361.56L197.94 361.56L140.34 361.56z" /></clipPath><clipPath id="9"><path id="" clip-rule="evenodd" transform="matrix(1 0 0 1 0 0)" d="M0 0.02001953L595.2 0.02001953L595.2 0.02001953L595.2 842L595.2 842L0 842z" /></clipPath></defs><g transform="matrix(1.333333 0 0 1.333333 0 0)"><g clip-path="url(#1)"><g clip-path="url(#2)"><g clip-path="url(#3)"><g clip-path="url(#4)"><g transform="matrix(0.478825 0 0 0.4793766 216.96 77.03998)"><g transform="matrix(1 0 0 1 0 0)"><image x="0" y="0" xlink:href="img_404.png" width="240" height="385" /></g></g></g></g></g><g clip-path="url(#5)"><g clip-path="url(#6)"><path id="533" transform="matrix(1 0 0 -1 0 842)" d="M285.54 617.12L285.54 616.82L285.54 616.82L285.72 616.46L285.72 616.46L285.84 616.34L285.84 616.34L286.08 616.22L286.08 616.22L286.5 616.22L286.5 616.22L286.68 616.28L286.68 616.28L286.98 616.58L286.98 616.58L286.98 616.76L286.98 616.76L287.04 616.88L287.04 616.88L287.04 617.06L287.04 617.06L286.86 617.42L286.86 617.42L286.74 617.54L286.74 617.54L286.62 617.6L286.62 617.6L286.5 617.66L286.5 617.66L286.02 617.66L286.02 617.66L285.9 617.6L285.9 617.6L285.78 617.48L285.78 617.48L285.72 617.42L285.72 617.42L285.6 617.3L285.6 617.3L285.54 617.12" stroke="none" fill="#FF1721" fill-rule="evenodd" /><path id="534" transform="matrix(1 0 0 -1 0 842)" d="M286.26 616.94L285.24 613.22L285.06 612.56L284.46 612.92L272.4 620.18L270.9 621.08L272.64 621.14L286.74 621.32L287.46 621.38L287.28 620.72L286.8 620.36L272.7 620.12L272.64 621.14L272.94 621.02L285 613.76L284.46 612.92L284.22 613.46L285.24 617.18" stroke="none" fill="#FF1721" fill-rule="nonzero" /><path id="535" transform="matrix(1 0 0 -1 0 842)" d="M287.28 620.72L286.26 616.9399L285.24 617.18L286.26 620.96" stroke="none" fill="#FF1721" fill-rule="nonzero" /><path id="536" transform="matrix(1 0 0 -1 0 842)" d="M285.78 617.06L284.76 613.34L284.76 613.34L272.7 620.6L272.7 620.6L286.8 620.84" stroke="none" fill="#FF1721" fill-rule="evenodd" /><path id="537" transform="matrix(1 0 0 -1 0 842)" d="M286.5 617.66L285.78 617.84L285.36 616.4L286.08 616.22" stroke="none" fill="#FF1721" fill-rule="nonzero" /><path id="538" transform="matrix(1 0 0 -1 0 842)" d="M286.5 617.66L287.52 617.36L288.54 617L289.62 616.46L290.52 615.98L290.58 615.92L291.48 615.3799L291.54 615.3799L292.38 614.78L293.22 614.12L293.22 614.06L294 613.4L294.06 613.4L294.84 612.62L294.84 612.56L295.56 611.78L295.62 611.78L296.28 611L296.28 610.94L297.6 609.14L297.66 609.08L298.26 608.12L298.8 607.16L299.88 605.12L299.94 605.06L300.36 604.04L300.84 602.9L300.84 602.84L301.2 601.7599L301.62 600.62L301.62 600.56L302.22 598.28L302.52 597.08L302.52 597.02L302.76 595.8799L302.82 595.8799L303.06 594.68L303.24 593.48L303.24 593.42L303.48 591.02L303.48 590.96L303.54 589.7599L302.04 589.7L301.98 590.9L301.86 592.1L301.74 593.3L301.74 593.24L301.56 594.44L301.56 594.3799L301.32 595.58L301.08 596.72L300.78 597.92L300.18 600.2L300.24 600.08L299.82 601.22L299.76 601.28L299.4 602.36L299.46 602.3L298.98 603.44L298.56 604.46L298.56 604.4L297.48 606.44L296.94 607.4L297 607.34L296.4 608.3L296.4 608.24L295.08 610.04L295.14 610.04L294.48 610.8199L294.48 610.7599L293.76 611.54L292.98 612.3199L293.04 612.2599L292.26 612.92L292.32 612.92L291.48 613.58L290.64 614.18L290.7 614.12L289.8 614.66L288.9 615.14L288.96 615.14L288 615.62L288.06 615.56L287.04 615.92L287.1 615.92L286.08 616.22" stroke="none" fill="#FF1721" fill-rule="nonzero" /><path id="539" transform="matrix(1 0 0 -1 0 842)" d="M303.54 589.76L303.6 588.56L302.1 588.56L302.1 588.5L302.04 589.7" stroke="none" fill="#FF1721" fill-rule="nonzero" /><path id="540" transform="matrix(1 0 0 -1 0 842)" d="M302.1 586.64L303.6 586.64L303.6 588.56L302.1 588.56z" stroke="none" fill="#FF1721" fill-rule="nonzero" /></g></g><g clip-path="url(#7)"><g clip-path="url(#8)"><g clip-path="url(#9)"><g transform="matrix(0.4794827 0 0 0.4753125 141.36 330.12)"><g transform="matrix(1 0 0 1 0 0)"><image x="0" y="0" xlink:href="img_392.png" width="116" height="64" /></g></g></g></g></g></g></g></svg>