<svg xmlns="http://www.w3.org/2000/svg" xmlns:xlink="http://www.w3.org/1999/xlink" id="body_298" preserveAspectRatio="xMinYMin meet" viewBox="0 0 793 1123"><defs><clipPath id="1"><path id="" clip-rule="evenodd" transform="matrix(1 0 0 1 0 0)" d="M0 842L0 0L0 0L595 0L595 0L595 842L595 842L0 842z" /></clipPath><clipPath id="2"><path id="" clip-rule="evenodd" transform="matrix(1 0 0 1 0 0)" d="M-0.072 841.968L595.952 841.968L595.952 841.968L595.952 -0.06799316L595.952 -0.06799316L-0.072 -0.06799316L-0.072 -0.06799316L-0.072 841.968" /></clipPath><clipPath id="3"><path id="" clip-rule="evenodd" transform="matrix(1 0 0 1 0 0)" d="M-0.06 0L595.26 0L595.26 0L595.26 841.98L595.26 841.98L-0.06 841.98z" /></clipPath><clipPath id="4"><path id="" clip-rule="evenodd" transform="matrix(1 0 0 1 0 0)" d="M0 0.02001953L595.2 0.02001953L595.2 0.02001953L595.2 842L595.2 842L0 842z" /></clipPath><clipPath id="5"><path id="" clip-rule="evenodd" transform="matrix(1 0 0 1 0 0)" d="M19.829 48.414L156.328 48.414L156.328 48.414L156.328 17.263L156.328 17.263L19.829 17.263z" /></clipPath><clipPath id="6"><path id="" clip-rule="evenodd" transform="matrix(1 0 0 1 0 0)" d="M-0.072 841.968L595.952 841.968L595.952 841.968L595.952 -0.06799316L595.952 -0.06799316L-0.072 -0.06799316L-0.072 -0.06799316L-0.072 841.968" /></clipPath><clipPath id="7"><path id="" clip-rule="evenodd" transform="matrix(1 0 0 1 0 0)" d="M-0.06 0L595.26 0L595.26 0L595.26 841.98L595.26 841.98L-0.06 841.98z" /></clipPath><clipPath id="8"><path id="" clip-rule="evenodd" transform="matrix(1 0 0 1 0 0)" d="M0 0.02001953L595.2 0.02001953L595.2 0.02001953L595.2 842L595.2 842L0 842z" /></clipPath><clipPath id="9"><path id="" clip-rule="evenodd" transform="matrix(1 0 0 1 0 0)" d="M-0.072 841.968L595.952 841.968L595.952 841.968L595.952 -0.06799316L595.952 -0.06799316L-0.072 -0.06799316L-0.072 -0.06799316L-0.072 841.968" /></clipPath><clipPath id="10"><path id="" clip-rule="evenodd" transform="matrix(1 0 0 1 0 0)" d="M-0.06 0L595.26 0L595.26 0L595.26 841.98L595.26 841.98L-0.06 841.98z" /></clipPath><clipPath id="11"><path id="" clip-rule="evenodd" transform="matrix(1 0 0 1 0 0)" d="M0 0.02001953L595.2 0.02001953L595.2 0.02001953L595.2 842L595.2 842L0 842z" /></clipPath><clipPath id="12"><path id="" clip-rule="evenodd" transform="matrix(1 0 0 1 0 0)" d="M-0.072 841.968L595.952 841.968L595.952 841.968L595.952 -0.06799316L595.952 -0.06799316L-0.072 -0.06799316L-0.072 -0.06799316L-0.072 841.968" /></clipPath><clipPath id="13"><path id="" clip-rule="evenodd" transform="matrix(1 0 0 1 0 0)" d="M-0.06 0L595.26 0L595.26 0L595.26 841.98L595.26 841.98L-0.06 841.98z" /></clipPath><clipPath id="14"><path id="" clip-rule="evenodd" transform="matrix(1 0 0 1 0 0)" d="M0 0.02001953L595.2 0.02001953L595.2 0.02001953L595.2 842L595.2 842L0 842z" /></clipPath><clipPath id="15"><path id="" clip-rule="evenodd" transform="matrix(1 0 0 1 0 0)" d="M-0.072 841.968L595.952 841.968L595.952 841.968L595.952 -0.06799316L595.952 -0.06799316L-0.072 -0.06799316L-0.072 -0.06799316L-0.072 841.968" /></clipPath><clipPath id="16"><path id="" clip-rule="evenodd" transform="matrix(1 0 0 1 0 0)" d="M-0.06 0L595.26 0L595.26 0L595.26 841.98L595.26 841.98L-0.06 841.98z" /></clipPath><clipPath id="17"><path id="" clip-rule="evenodd" transform="matrix(1 0 0 1 0 0)" d="M0 0.02001953L595.2 0.02001953L595.2 0.02001953L595.2 842L595.2 842L0 842z" /></clipPath><clipPath id="18"><path id="" clip-rule="evenodd" transform="matrix(1 0 0 1 0 0)" d="M-0.072 841.968L595.952 841.968L595.952 841.968L595.952 -0.06799316L595.952 -0.06799316L-0.072 -0.06799316L-0.072 -0.06799316L-0.072 841.968" /></clipPath><clipPath id="19"><path id="" clip-rule="evenodd" transform="matrix(1 0 0 1 0 0)" d="M-0.06 0L595.26 0L595.26 0L595.26 841.98L595.26 841.98L-0.06 841.98z" /></clipPath><clipPath id="20"><path id="" clip-rule="evenodd" transform="matrix(1 0 0 1 0 0)" d="M0 0.02001953L595.2 0.02001953L595.2 0.02001953L595.2 842L595.2 842L0 842z" /></clipPath><clipPath id="21"><path id="" clip-rule="evenodd" transform="matrix(1 0 0 1 0 0)" d="M-0.072 841.968L595.952 841.968L595.952 841.968L595.952 -0.06799316L595.952 -0.06799316L-0.072 -0.06799316L-0.072 -0.06799316L-0.072 841.968" /></clipPath><clipPath id="22"><path id="" clip-rule="evenodd" transform="matrix(1 0 0 1 0 0)" d="M-0.06 0L595.26 0L595.26 0L595.26 841.98L595.26 841.98L-0.06 841.98z" /></clipPath><clipPath id="23"><path id="" clip-rule="evenodd" transform="matrix(1 0 0 1 0 0)" d="M0 0.02001953L595.2 0.02001953L595.2 0.02001953L595.2 842L595.2 842L0 842z" /></clipPath><clipPath id="24"><path id="" clip-rule="evenodd" transform="matrix(1 0 0 1 0 0)" d="M-0.072 841.968L595.952 841.968L595.952 841.968L595.952 -0.06799316L595.952 -0.06799316L-0.072 -0.06799316L-0.072 -0.06799316L-0.072 841.968" /></clipPath><clipPath id="25"><path id="" clip-rule="evenodd" transform="matrix(1 0 0 1 0 0)" d="M-0.06 0L595.26 0L595.26 0L595.26 841.98L595.26 841.98L-0.06 841.98z" /></clipPath><clipPath id="26"><path id="" clip-rule="evenodd" transform="matrix(1 0 0 1 0 0)" d="M0 0.02001953L595.2 0.02001953L595.2 0.02001953L595.2 842L595.2 842L0 842z" /></clipPath><clipPath id="27"><path id="" clip-rule="evenodd" transform="matrix(1 0 0 1 0 0)" d="M-0.072 841.968L595.952 841.968L595.952 841.968L595.952 -0.06799316L595.952 -0.06799316L-0.072 -0.06799316L-0.072 -0.06799316L-0.072 841.968" /></clipPath><clipPath id="28"><path id="" clip-rule="evenodd" transform="matrix(1 0 0 1 0 0)" d="M-0.06 0L595.26 0L595.26 0L595.26 841.98L595.26 841.98L-0.06 841.98z" /></clipPath><clipPath id="29"><path id="" clip-rule="evenodd" transform="matrix(1 0 0 1 0 0)" d="M0 0.02001953L595.2 0.02001953L595.2 0.02001953L595.2 842L595.2 842L0 842z" /></clipPath><clipPath id="30"><path id="" clip-rule="evenodd" transform="matrix(1 0 0 1 0 0)" d="M-0.072 841.968L595.952 841.968L595.952 841.968L595.952 -0.06799316L595.952 -0.06799316L-0.072 -0.06799316L-0.072 -0.06799316L-0.072 841.968" /></clipPath><clipPath id="31"><path id="" clip-rule="evenodd" transform="matrix(1 0 0 1 0 0)" d="M-0.06 0L595.26 0L595.26 0L595.26 841.98L595.26 841.98L-0.06 841.98z" /></clipPath><clipPath id="32"><path id="" clip-rule="evenodd" transform="matrix(1 0 0 1 0 0)" d="M0 0.02001953L595.2 0.02001953L595.2 0.02001953L595.2 842L595.2 842L0 842z" /></clipPath><clipPath id="33"><path id="" clip-rule="evenodd" transform="matrix(1 0 0 1 0 0)" d="M-0.072 841.968L595.952 841.968L595.952 841.968L595.952 -0.06799316L595.952 -0.06799316L-0.072 -0.06799316L-0.072 -0.06799316L-0.072 841.968" /></clipPath><clipPath id="34"><path id="" clip-rule="evenodd" transform="matrix(1 0 0 1 0 0)" d="M-0.06 0L595.26 0L595.26 0L595.26 841.98L595.26 841.98L-0.06 841.98z" /></clipPath><clipPath id="35"><path id="" clip-rule="evenodd" transform="matrix(1 0 0 1 0 0)" d="M0 0.02001953L595.2 0.02001953L595.2 0.02001953L595.2 842L595.2 842L0 842z" /></clipPath><clipPath id="36"><path id="" clip-rule="evenodd" transform="matrix(1 0 0 1 0 0)" d="M-0.072 841.968L595.952 841.968L595.952 841.968L595.952 -0.06799316L595.952 -0.06799316L-0.072 -0.06799316L-0.072 -0.06799316L-0.072 841.968" /></clipPath><clipPath id="37"><path id="" clip-rule="evenodd" transform="matrix(1 0 0 1 0 0)" d="M-0.06 0L595.26 0L595.26 0L595.26 841.98L595.26 841.98L-0.06 841.98z" /></clipPath><clipPath id="38"><path id="" clip-rule="evenodd" transform="matrix(1 0 0 1 0 0)" d="M0 0.02001953L595.2 0.02001953L595.2 0.02001953L595.2 842L595.2 842L0 842z" /></clipPath><clipPath id="39"><path id="" clip-rule="evenodd" transform="matrix(1 0 0 1 0 0)" d="M-0.072 841.968L595.952 841.968L595.952 841.968L595.952 -0.06799316L595.952 -0.06799316L-0.072 -0.06799316L-0.072 -0.06799316L-0.072 841.968" /></clipPath><clipPath id="40"><path id="" clip-rule="evenodd" transform="matrix(1 0 0 1 0 0)" d="M-0.06 0L595.26 0L595.26 0L595.26 841.98L595.26 841.98L-0.06 841.98z" /></clipPath><clipPath id="41"><path id="" clip-rule="evenodd" transform="matrix(1 0 0 1 0 0)" d="M0 0.02001953L595.2 0.02001953L595.2 0.02001953L595.2 842L595.2 842L0 842z" /></clipPath><clipPath id="42"><path id="" clip-rule="evenodd" transform="matrix(1 0 0 1 0 0)" d="M-0.072 841.968L595.952 841.968L595.952 841.968L595.952 -0.06799316L595.952 -0.06799316L-0.072 -0.06799316L-0.072 -0.06799316L-0.072 841.968" /></clipPath><clipPath id="43"><path id="" clip-rule="evenodd" transform="matrix(1 0 0 1 0 0)" d="M-0.06 0L595.26 0L595.26 0L595.26 841.98L595.26 841.98L-0.06 841.98z" /></clipPath><clipPath id="44"><path id="" clip-rule="evenodd" transform="matrix(1 0 0 1 0 0)" d="M0 0.02001953L595.2 0.02001953L595.2 0.02001953L595.2 842L595.2 842L0 842z" /></clipPath><clipPath id="45"><path id="" clip-rule="evenodd" transform="matrix(1 0 0 1 0 0)" d="M-0.072 841.968L595.952 841.968L595.952 841.968L595.952 -0.06799316L595.952 -0.06799316L-0.072 -0.06799316L-0.072 -0.06799316L-0.072 841.968" /></clipPath><clipPath id="46"><path id="" clip-rule="evenodd" transform="matrix(1 0 0 1 0 0)" d="M-0.06 0L595.26 0L595.26 0L595.26 841.98L595.26 841.98L-0.06 841.98z" /></clipPath><clipPath id="47"><path id="" clip-rule="evenodd" transform="matrix(1 0 0 1 0 0)" d="M0 0.02001953L595.2 0.02001953L595.2 0.02001953L595.2 842L595.2 842L0 842z" /></clipPath><clipPath id="48"><path id="" clip-rule="evenodd" transform="matrix(1 0 0 1 0 0)" d="M-0.072 841.968L595.952 841.968L595.952 841.968L595.952 -0.06799316L595.952 -0.06799316L-0.072 -0.06799316L-0.072 -0.06799316L-0.072 841.968" /></clipPath><clipPath id="49"><path id="" clip-rule="evenodd" transform="matrix(1 0 0 1 0 0)" d="M-0.06 0L595.26 0L595.26 0L595.26 841.98L595.26 841.98L-0.06 841.98z" /></clipPath><clipPath id="50"><path id="" clip-rule="evenodd" transform="matrix(1 0 0 1 0 0)" d="M0 0.02001953L595.2 0.02001953L595.2 0.02001953L595.2 842L595.2 842L0 842z" /></clipPath><clipPath id="51"><path id="" clip-rule="evenodd" transform="matrix(1 0 0 1 0 0)" d="M-0.072 841.968L595.952 841.968L595.952 841.968L595.952 -0.06799316L595.952 -0.06799316L-0.072 -0.06799316L-0.072 -0.06799316L-0.072 841.968" /></clipPath><clipPath id="52"><path id="" clip-rule="evenodd" transform="matrix(1 0 0 1 0 0)" d="M-0.06 0L595.26 0L595.26 0L595.26 841.98L595.26 841.98L-0.06 841.98z" /></clipPath><clipPath id="53"><path id="" clip-rule="evenodd" transform="matrix(1 0 0 1 0 0)" d="M0 0.02001953L595.2 0.02001953L595.2 0.02001953L595.2 842L595.2 842L0 842z" /></clipPath><clipPath id="54"><path id="" clip-rule="evenodd" transform="matrix(1 0 0 1 0 0)" d="M-0.072 841.968L595.952 841.968L595.952 841.968L595.952 -0.06799316L595.952 -0.06799316L-0.072 -0.06799316L-0.072 -0.06799316L-0.072 841.968" /></clipPath><clipPath id="55"><path id="" clip-rule="evenodd" transform="matrix(1 0 0 1 0 0)" d="M-0.06 0L595.26 0L595.26 0L595.26 841.98L595.26 841.98L-0.06 841.98z" /></clipPath><clipPath id="56"><path id="" clip-rule="evenodd" transform="matrix(1 0 0 1 0 0)" d="M0 0.02001953L595.2 0.02001953L595.2 0.02001953L595.2 842L595.2 842L0 842z" /></clipPath><clipPath id="57"><path id="" clip-rule="evenodd" transform="matrix(1 0 0 1 0 0)" d="M-0.072 841.968L595.952 841.968L595.952 841.968L595.952 -0.06799316L595.952 -0.06799316L-0.072 -0.06799316L-0.072 -0.06799316L-0.072 841.968" /></clipPath><clipPath id="58"><path id="" clip-rule="evenodd" transform="matrix(1 0 0 1 0 0)" d="M-0.06 0L595.26 0L595.26 0L595.26 841.98L595.26 841.98L-0.06 841.98z" /></clipPath><clipPath id="59"><path id="" clip-rule="evenodd" transform="matrix(1 0 0 1 0 0)" d="M0 0.02001953L595.2 0.02001953L595.2 0.02001953L595.2 842L595.2 842L0 842z" /></clipPath><clipPath id="60"><path id="" clip-rule="evenodd" transform="matrix(1 0 0 1 0 0)" d="M-0.072 841.968L595.952 841.968L595.952 841.968L595.952 -0.06799316L595.952 -0.06799316L-0.072 -0.06799316L-0.072 -0.06799316L-0.072 841.968" /></clipPath><clipPath id="61"><path id="" clip-rule="evenodd" transform="matrix(1 0 0 1 0 0)" d="M-0.06 0L595.26 0L595.26 0L595.26 841.98L595.26 841.98L-0.06 841.98z" /></clipPath><clipPath id="62"><path id="" clip-rule="evenodd" transform="matrix(1 0 0 1 0 0)" d="M0 0.02001953L595.2 0.02001953L595.2 0.02001953L595.2 842L595.2 842L0 842z" /></clipPath><clipPath id="63"><path id="" clip-rule="evenodd" transform="matrix(1 0 0 1 0 0)" d="M-0.072 841.968L595.952 841.968L595.952 841.968L595.952 -0.06799316L595.952 -0.06799316L-0.072 -0.06799316L-0.072 -0.06799316L-0.072 841.968" /></clipPath><clipPath id="64"><path id="" clip-rule="evenodd" transform="matrix(1 0 0 1 0 0)" d="M-0.06 0L595.26 0L595.26 0L595.26 841.98L595.26 841.98L-0.06 841.98z" /></clipPath><clipPath id="65"><path id="" clip-rule="evenodd" transform="matrix(1 0 0 1 0 0)" d="M0 0.02001953L595.2 0.02001953L595.2 0.02001953L595.2 842L595.2 842L0 842z" /></clipPath><clipPath id="66"><path id="" clip-rule="evenodd" transform="matrix(1 0 0 1 0 0)" d="M-0.072 841.968L595.952 841.968L595.952 841.968L595.952 -0.06799316L595.952 -0.06799316L-0.072 -0.06799316L-0.072 -0.06799316L-0.072 841.968" /></clipPath><clipPath id="67"><path id="" clip-rule="evenodd" transform="matrix(1 0 0 1 0 0)" d="M-0.06 0L595.26 0L595.26 0L595.26 841.98L595.26 841.98L-0.06 841.98z" /></clipPath><clipPath id="68"><path id="" clip-rule="evenodd" transform="matrix(1 0 0 1 0 0)" d="M0 0.02001953L595.2 0.02001953L595.2 0.02001953L595.2 842L595.2 842L0 842z" /></clipPath><clipPath id="69"><path id="" clip-rule="evenodd" transform="matrix(1 0 0 1 0 0)" d="M-0.072 841.968L595.952 841.968L595.952 841.968L595.952 -0.06799316L595.952 -0.06799316L-0.072 -0.06799316L-0.072 -0.06799316L-0.072 841.968" /></clipPath><clipPath id="70"><path id="" clip-rule="evenodd" transform="matrix(1 0 0 1 0 0)" d="M-0.06 0L595.26 0L595.26 0L595.26 841.98L595.26 841.98L-0.06 841.98z" /></clipPath><clipPath id="71"><path id="" clip-rule="evenodd" transform="matrix(1 0 0 1 0 0)" d="M0 0.02001953L595.2 0.02001953L595.2 0.02001953L595.2 842L595.2 842L0 842z" /></clipPath><clipPath id="72"><path id="" clip-rule="evenodd" transform="matrix(1 0 0 1 0 0)" d="M-0.072 841.968L595.952 841.968L595.952 841.968L595.952 -0.06799316L595.952 -0.06799316L-0.072 -0.06799316L-0.072 -0.06799316L-0.072 841.968" /></clipPath><clipPath id="73"><path id="" clip-rule="evenodd" transform="matrix(1 0 0 1 0 0)" d="M-0.06 0L595.26 0L595.26 0L595.26 841.98L595.26 841.98L-0.06 841.98z" /></clipPath><clipPath id="74"><path id="" clip-rule="evenodd" transform="matrix(1 0 0 1 0 0)" d="M0 0.02001953L595.2 0.02001953L595.2 0.02001953L595.2 842L595.2 842L0 842z" /></clipPath><clipPath id="75"><path id="" clip-rule="evenodd" transform="matrix(1 0 0 1 0 0)" d="M-0.072 841.968L595.952 841.968L595.952 841.968L595.952 -0.06799316L595.952 -0.06799316L-0.072 -0.06799316L-0.072 -0.06799316L-0.072 841.968" /></clipPath><clipPath id="76"><path id="" clip-rule="evenodd" transform="matrix(1 0 0 1 0 0)" d="M-0.06 0L595.26 0L595.26 0L595.26 841.98L595.26 841.98L-0.06 841.98z" /></clipPath><clipPath id="77"><path id="" clip-rule="evenodd" transform="matrix(1 0 0 1 0 0)" d="M0 0.02001953L595.2 0.02001953L595.2 0.02001953L595.2 842L595.2 842L0 842z" /></clipPath><clipPath id="78"><path id="" clip-rule="evenodd" transform="matrix(1 0 0 1 0 0)" d="M-0.072 841.968L595.952 841.968L595.952 841.968L595.952 -0.06799316L595.952 -0.06799316L-0.072 -0.06799316L-0.072 -0.06799316L-0.072 841.968" /></clipPath><clipPath id="79"><path id="" clip-rule="evenodd" transform="matrix(1 0 0 1 0 0)" d="M-0.06 0L595.26 0L595.26 0L595.26 841.98L595.26 841.98L-0.06 841.98z" /></clipPath><clipPath id="80"><path id="" clip-rule="evenodd" transform="matrix(1 0 0 1 0 0)" d="M0 0.02001953L595.2 0.02001953L595.2 0.02001953L595.2 842L595.2 842L0 842z" /></clipPath><clipPath id="81"><path id="" clip-rule="evenodd" transform="matrix(1 0 0 1 0 0)" d="M-0.072 841.968L595.952 841.968L595.952 841.968L595.952 -0.06799316L595.952 -0.06799316L-0.072 -0.06799316L-0.072 -0.06799316L-0.072 841.968" /></clipPath><clipPath id="82"><path id="" clip-rule="evenodd" transform="matrix(1 0 0 1 0 0)" d="M-0.06 0L595.26 0L595.26 0L595.26 841.98L595.26 841.98L-0.06 841.98z" /></clipPath><clipPath id="83"><path id="" clip-rule="evenodd" transform="matrix(1 0 0 1 0 0)" d="M0 0.02001953L595.2 0.02001953L595.2 0.02001953L595.2 842L595.2 842L0 842z" /></clipPath><clipPath id="84"><path id="" clip-rule="evenodd" transform="matrix(1 0 0 1 0 0)" d="M-0.072 841.968L595.952 841.968L595.952 841.968L595.952 -0.06799316L595.952 -0.06799316L-0.072 -0.06799316L-0.072 -0.06799316L-0.072 841.968" /></clipPath><clipPath id="85"><path id="" clip-rule="evenodd" transform="matrix(1 0 0 1 0 0)" d="M-0.06 0L595.26 0L595.26 0L595.26 841.98L595.26 841.98L-0.06 841.98z" /></clipPath><clipPath id="86"><path id="" clip-rule="evenodd" transform="matrix(1 0 0 1 0 0)" d="M0 0.02001953L595.2 0.02001953L595.2 0.02001953L595.2 842L595.2 842L0 842z" /></clipPath><clipPath id="87"><path id="" clip-rule="evenodd" transform="matrix(1 0 0 1 0 0)" d="M-0.072 841.968L595.952 841.968L595.952 841.968L595.952 -0.06799316L595.952 -0.06799316L-0.072 -0.06799316L-0.072 -0.06799316L-0.072 841.968" /></clipPath><clipPath id="88"><path id="" clip-rule="evenodd" transform="matrix(1 0 0 1 0 0)" d="M-0.06 0L595.26 0L595.26 0L595.26 841.98L595.26 841.98L-0.06 841.98z" /></clipPath><clipPath id="89"><path id="" clip-rule="evenodd" transform="matrix(1 0 0 1 0 0)" d="M0 0.02001953L595.2 0.02001953L595.2 0.02001953L595.2 842L595.2 842L0 842z" /></clipPath><clipPath id="90"><path id="" clip-rule="evenodd" transform="matrix(1 0 0 1 0 0)" d="M-0.072 841.968L595.952 841.968L595.952 841.968L595.952 -0.06799316L595.952 -0.06799316L-0.072 -0.06799316L-0.072 -0.06799316L-0.072 841.968" /></clipPath><clipPath id="91"><path id="" clip-rule="evenodd" transform="matrix(1 0 0 1 0 0)" d="M-0.06 0L595.26 0L595.26 0L595.26 841.98L595.26 841.98L-0.06 841.98z" /></clipPath><clipPath id="92"><path id="" clip-rule="evenodd" transform="matrix(1 0 0 1 0 0)" d="M0 0.02001953L595.2 0.02001953L595.2 0.02001953L595.2 842L595.2 842L0 842z" /></clipPath><clipPath id="93"><path id="" clip-rule="evenodd" transform="matrix(1 0 0 1 0 0)" d="M47.81 717.282L22.879 717.282L22.879 717.282L22.879 691.841L22.879 691.841L47.81 691.841L47.81 691.841L47.81 717.282" /></clipPath><clipPath id="94"><path id="" clip-rule="evenodd" transform="matrix(1 0 0 1 0 0)" d="M154.534 715.934L131.733 715.934L131.733 715.934L131.733 693.134L131.733 693.134L154.534 693.134L154.534 693.134L154.534 715.934" /></clipPath><clipPath id="95"><path id="" clip-rule="evenodd" transform="matrix(1 0 0 1 0 0)" d="M264.289 715.934L241.488 715.934L241.488 715.934L241.488 693.134L241.488 693.134L264.289 693.134L264.289 693.134L264.289 715.934" /></clipPath><clipPath id="96"><path id="" clip-rule="evenodd" transform="matrix(1 0 0 1 0 0)" d="M376.143 716.535L352.142 716.535L352.142 716.535L352.142 692.534L352.142 692.534L376.143 692.534L376.143 692.534L376.143 716.535" /></clipPath><clipPath id="97"><path id="" clip-rule="evenodd" transform="matrix(1 0 0 1 0 0)" d="M485.498 715.934L462.697 715.934L462.697 715.934L462.697 693.134L462.697 693.134L485.498 693.134L485.498 693.134L485.498 715.934" /></clipPath><clipPath id="98"><path id="" clip-rule="evenodd" transform="matrix(1 0 0 1 0 0)" d="M45.68 741.185L22.879 741.185L22.879 741.185L22.879 718.384L22.879 718.384L45.68 718.384L45.68 718.384L45.68 741.185" /></clipPath><clipPath id="99"><path id="" clip-rule="evenodd" transform="matrix(1 0 0 1 0 0)" d="M155.734 741.763L131.734 741.763L131.734 741.763L131.734 717.785L131.734 717.785L155.734 717.785L155.734 717.785L155.734 741.763" /></clipPath><clipPath id="100"><path id="" clip-rule="evenodd" transform="matrix(1 0 0 1 0 0)" d="M264.289 741.185L241.488 741.185L241.488 741.185L241.488 718.384L241.488 718.384L264.289 718.384L264.289 718.384L264.289 741.185" /></clipPath><clipPath id="101"><path id="" clip-rule="evenodd" transform="matrix(1 0 0 1 0 0)" d="M374.693 741.061L352.142 741.061L352.142 741.061L352.142 718.51L352.142 718.51L374.693 718.51L374.693 718.51L374.693 741.061" /></clipPath><clipPath id="102"><path id="" clip-rule="evenodd" transform="matrix(1 0 0 1 0 0)" d="M22.879 763.783L45.508 763.783L45.508 763.783L45.508 743.982L45.508 743.982L22.879 743.982z" /></clipPath><clipPath id="103"><path id="" clip-rule="evenodd" transform="matrix(1 0 0 1 0 0)" d="M131.733 763.783L154.363 763.783L154.363 763.783L154.363 743.982L154.363 743.982L131.733 743.982z" /></clipPath></defs><g transform="matrix(1.333333 0 0 1.333333 0 0)"><g clip-path="url(#1)"><g clip-path="url(#2)"><g clip-path="url(#3)"><g clip-path="url(#4)"></g></g></g><g clip-path="url(#5)"><g transform="matrix(0.3243991 0 0 0.325125 19.794 17.23401)"><g transform="matrix(1 0 0 1 0 0)"><image x="0" y="0" xlink:href="img_905.png" width="421" height="96" /></g></g></g><g clip-path="url(#6)"><g clip-path="url(#7)"><g clip-path="url(#8)"><path id="176" transform="matrix(1 0 0 -1 0 842)" d="M310.981 772.985L321.781 772.985L321.781 773.705L310.981 773.705z" stroke="none" fill="#000000" fill-rule="nonzero" /><path id="655" transform="matrix(1 0 0 -1 0 842)" d="M18.289 693.302L576.792 693.302L576.792 694.022L18.289 694.022z" stroke="none" fill="#000000" fill-rule="nonzero" /><path id="676" transform="matrix(1 0 0 -1 0 842)" d="M19.729 670.861L123.893 670.861L123.893 671.581L19.729 671.581z" stroke="none" fill="#000000" fill-rule="nonzero" /></g></g></g><g clip-path="url(#9)"><g clip-path="url(#10)"><g clip-path="url(#11)"><path id="756" transform="matrix(1 0 0 -1 0 842)" d="M278.459 643.5L575.35 643.5L575.35 643.981L278.459 643.981z" stroke="none" fill="#000000" fill-rule="nonzero" /></g></g></g><g clip-path="url(#12)"><g clip-path="url(#13)"><g clip-path="url(#14)"><path id="779" transform="matrix(1 0 0 -1 0 842)" d="M278.459 623.579L575.35 623.579L575.35 624.059L278.459 624.059z" stroke="none" fill="#000000" fill-rule="nonzero" /></g></g></g><g clip-path="url(#15)"><g clip-path="url(#16)"><g clip-path="url(#17)"><path id="799" transform="matrix(1 0 0 -1 0 842)" d="M88.612 603.778L330.663 603.778L330.663 604.258L88.612 604.258z" stroke="none" fill="#000000" fill-rule="nonzero" /><path id="800" transform="matrix(1 0 0 -1 0 842)" d="M437.106 603.778L575.352 603.778L575.352 604.258L437.106 604.258z" stroke="none" fill="#000000" fill-rule="nonzero" /></g></g></g><g clip-path="url(#18)"><g clip-path="url(#19)"><g clip-path="url(#20)"><path id="812" transform="matrix(1 0 0 -1 0 842)" d="M88.612 583.857L330.663 583.857L330.663 584.337L88.612 584.337z" stroke="none" fill="#000000" fill-rule="nonzero" /><path id="813" transform="matrix(1 0 0 -1 0 842)" d="M437.106 583.857L575.352 583.857L575.352 584.337L437.106 584.337z" stroke="none" fill="#000000" fill-rule="nonzero" /></g></g></g><g clip-path="url(#21)"><g clip-path="url(#22)"><g clip-path="url(#23)"><path id="831" transform="matrix(1 0 0 -1 0 842)" d="M88.612 564.056L330.663 564.056L330.663 564.536L88.612 564.536z" stroke="none" fill="#000000" fill-rule="nonzero" /><path id="832" transform="matrix(1 0 0 -1 0 842)" d="M437.106 564.056L575.352 564.056L575.352 564.536L437.106 564.536z" stroke="none" fill="#000000" fill-rule="nonzero" /></g></g></g><g clip-path="url(#24)"><g clip-path="url(#25)"><g clip-path="url(#26)"><path id="852" transform="matrix(1 0 0 -1 0 842)" d="M412.745 537.175L423.905 537.175L423.905 537.175L423.905 526.015L423.905 526.015L412.745 526.015z" stroke="#000000" stroke-width="0.72" stroke-linecap="square" fill="none" /></g></g></g><g clip-path="url(#27)"><g clip-path="url(#28)"><g clip-path="url(#29)"><path id="868" transform="matrix(1 0 0 -1 0 842)" d="M557.71 537.175L568.87 537.175L568.87 537.175L568.87 526.015L568.87 526.015L557.71 526.015z" stroke="#000000" stroke-width="0.72" stroke-linecap="square" fill="none" /></g></g></g><g clip-path="url(#30)"><g clip-path="url(#31)"><g clip-path="url(#32)"><path id="869" transform="matrix(1 0 0 -1 0 842)" d="M88.612 544.136L330.663 544.136L330.663 544.617L88.612 544.617z" stroke="none" fill="#000000" fill-rule="nonzero" /><path id="870" transform="matrix(1 0 0 -1 0 842)" d="M437.106 544.136L575.352 544.136L575.352 544.617L437.106 544.617z" stroke="none" fill="#000000" fill-rule="nonzero" /></g></g></g><g clip-path="url(#33)"><g clip-path="url(#34)"><g clip-path="url(#35)"><path id="893" transform="matrix(1 0 0 -1 0 842)" d="M88.612 524.335L330.662 524.335L330.662 524.816L88.612 524.816z" stroke="none" fill="#000000" fill-rule="nonzero" /><path id="894" transform="matrix(1 0 0 -1 0 842)" d="M151.974 504.414L575.351 504.414L575.351 504.894L151.974 504.894z" stroke="none" fill="#000000" fill-rule="nonzero" /></g></g></g><g clip-path="url(#36)"><g clip-path="url(#37)"><g clip-path="url(#38)"><path id="996" transform="matrix(1 0 0 -1 0 842)" d="M21.169 484.613L21.649 484.613L21.649 485.093L21.169 485.093z" stroke="none" fill="#000000" fill-rule="nonzero" /><path id="997" transform="matrix(1 0 0 -1 0 842)" d="M21.169 484.613L576.431 484.613L576.431 485.093L21.169 485.093z" stroke="none" fill="#000000" fill-rule="nonzero" /><path id="998" transform="matrix(1 0 0 -1 0 842)" d="M575.951 484.613L576.431 484.613L576.431 485.093L575.951 485.093z" stroke="none" fill="#000000" fill-rule="nonzero" /><path id="999" transform="matrix(1 0 0 -1 0 842)" d="M21.169 472.373L21.649 472.373L21.649 484.614L21.169 484.614z" stroke="none" fill="#000000" fill-rule="nonzero" /><path id="1000" transform="matrix(1 0 0 -1 0 842)" d="M96.052 472.373L96.53201 472.373L96.53201 484.614L96.052 484.614z" stroke="none" fill="#000000" fill-rule="nonzero" /><path id="1001" transform="matrix(1 0 0 -1 0 842)" d="M152.694 472.373L153.175 472.373L153.175 484.614L152.694 484.614z" stroke="none" fill="#000000" fill-rule="nonzero" /><path id="1002" transform="matrix(1 0 0 -1 0 842)" d="M280.259 472.373L280.739 472.373L280.739 484.614L280.259 484.614z" stroke="none" fill="#000000" fill-rule="nonzero" /><path id="1003" transform="matrix(1 0 0 -1 0 842)" d="M480.187 472.373L480.667 472.373L480.667 484.614L480.187 484.614z" stroke="none" fill="#000000" fill-rule="nonzero" /><path id="1004" transform="matrix(1 0 0 -1 0 842)" d="M575.951 472.373L576.431 472.373L576.431 484.614L575.951 484.614z" stroke="none" fill="#000000" fill-rule="nonzero" /></g></g></g><g clip-path="url(#39)"><g clip-path="url(#40)"><g clip-path="url(#41)"><path id="1005" transform="matrix(1 0 0 -1 0 842)" d="M21.169 471.893L576.431 471.893L576.431 472.373L21.169 472.373z" stroke="none" fill="#000000" fill-rule="nonzero" /><path id="1006" transform="matrix(1 0 0 -1 0 842)" d="M21.169 449.572L21.649 449.572L21.649 471.893L21.169 471.893z" stroke="none" fill="#000000" fill-rule="nonzero" /><path id="1007" transform="matrix(1 0 0 -1 0 842)" d="M96.052 449.572L96.53201 449.572L96.53201 471.893L96.052 471.893z" stroke="none" fill="#000000" fill-rule="nonzero" /><path id="1008" transform="matrix(1 0 0 -1 0 842)" d="M152.694 449.572L153.175 449.572L153.175 471.893L152.694 471.893z" stroke="none" fill="#000000" fill-rule="nonzero" /><path id="1009" transform="matrix(1 0 0 -1 0 842)" d="M280.259 449.572L280.739 449.572L280.739 471.893L280.259 471.893z" stroke="none" fill="#000000" fill-rule="nonzero" /><path id="1010" transform="matrix(1 0 0 -1 0 842)" d="M480.187 449.572L480.667 449.572L480.667 471.893L480.187 471.893z" stroke="none" fill="#000000" fill-rule="nonzero" /><path id="1011" transform="matrix(1 0 0 -1 0 842)" d="M575.951 449.572L576.431 449.572L576.431 471.893L575.951 471.893z" stroke="none" fill="#000000" fill-rule="nonzero" /></g></g></g><g clip-path="url(#42)"><g clip-path="url(#43)"><g clip-path="url(#44)"><path id="1012" transform="matrix(1 0 0 -1 0 842)" d="M21.169 449.092L576.431 449.092L576.431 449.573L21.169 449.573z" stroke="none" fill="#000000" fill-rule="nonzero" /><path id="1013" transform="matrix(1 0 0 -1 0 842)" d="M21.169 426.891L21.649 426.891L21.649 449.091L21.169 449.091z" stroke="none" fill="#000000" fill-rule="nonzero" /><path id="1014" transform="matrix(1 0 0 -1 0 842)" d="M96.052 426.891L96.53201 426.891L96.53201 449.091L96.052 449.091z" stroke="none" fill="#000000" fill-rule="nonzero" /><path id="1015" transform="matrix(1 0 0 -1 0 842)" d="M152.694 426.891L153.175 426.891L153.175 449.091L152.694 449.091z" stroke="none" fill="#000000" fill-rule="nonzero" /><path id="1016" transform="matrix(1 0 0 -1 0 842)" d="M280.259 426.891L280.739 426.891L280.739 449.091L280.259 449.091z" stroke="none" fill="#000000" fill-rule="nonzero" /><path id="1017" transform="matrix(1 0 0 -1 0 842)" d="M480.187 426.891L480.667 426.891L480.667 449.091L480.187 449.091z" stroke="none" fill="#000000" fill-rule="nonzero" /><path id="1018" transform="matrix(1 0 0 -1 0 842)" d="M575.951 426.891L576.431 426.891L576.431 449.091L575.951 449.091z" stroke="none" fill="#000000" fill-rule="nonzero" /></g></g></g><g clip-path="url(#45)"><g clip-path="url(#46)"><g clip-path="url(#47)"><path id="1019" transform="matrix(1 0 0 -1 0 842)" d="M21.169 426.411L576.431 426.411L576.431 426.892L21.169 426.892z" stroke="none" fill="#000000" fill-rule="nonzero" /><path id="1020" transform="matrix(1 0 0 -1 0 842)" d="M21.169 404.21L21.649 404.21L21.649 426.41L21.169 426.41z" stroke="none" fill="#000000" fill-rule="nonzero" /><path id="1021" transform="matrix(1 0 0 -1 0 842)" d="M96.052 404.21L96.53201 404.21L96.53201 426.41L96.052 426.41z" stroke="none" fill="#000000" fill-rule="nonzero" /><path id="1022" transform="matrix(1 0 0 -1 0 842)" d="M152.694 404.21L153.175 404.21L153.175 426.41L152.694 426.41z" stroke="none" fill="#000000" fill-rule="nonzero" /><path id="1023" transform="matrix(1 0 0 -1 0 842)" d="M280.259 404.21L280.739 404.21L280.739 426.41L280.259 426.41z" stroke="none" fill="#000000" fill-rule="nonzero" /><path id="1024" transform="matrix(1 0 0 -1 0 842)" d="M480.187 404.21L480.667 404.21L480.667 426.41L480.187 426.41z" stroke="none" fill="#000000" fill-rule="nonzero" /><path id="1025" transform="matrix(1 0 0 -1 0 842)" d="M575.951 404.21L576.431 404.21L576.431 426.41L575.951 426.41z" stroke="none" fill="#000000" fill-rule="nonzero" /></g></g></g><g clip-path="url(#48)"><g clip-path="url(#49)"><g clip-path="url(#50)"><path id="1026" transform="matrix(1 0 0 -1 0 842)" d="M21.169 403.73L576.431 403.73L576.431 404.211L21.169 404.211z" stroke="none" fill="#000000" fill-rule="nonzero" /><path id="1027" transform="matrix(1 0 0 -1 0 842)" d="M21.169 381.529L21.649 381.529L21.649 403.729L21.169 403.729z" stroke="none" fill="#000000" fill-rule="nonzero" /><path id="1028" transform="matrix(1 0 0 -1 0 842)" d="M96.052 381.529L96.53201 381.529L96.53201 403.729L96.052 403.729z" stroke="none" fill="#000000" fill-rule="nonzero" /><path id="1029" transform="matrix(1 0 0 -1 0 842)" d="M152.694 381.529L153.175 381.529L153.175 403.729L152.694 403.729z" stroke="none" fill="#000000" fill-rule="nonzero" /><path id="1030" transform="matrix(1 0 0 -1 0 842)" d="M280.259 381.529L280.739 381.529L280.739 403.729L280.259 403.729z" stroke="none" fill="#000000" fill-rule="nonzero" /><path id="1031" transform="matrix(1 0 0 -1 0 842)" d="M480.187 381.529L480.667 381.529L480.667 403.729L480.187 403.729z" stroke="none" fill="#000000" fill-rule="nonzero" /><path id="1032" transform="matrix(1 0 0 -1 0 842)" d="M575.951 381.529L576.431 381.529L576.431 403.729L575.951 403.729z" stroke="none" fill="#000000" fill-rule="nonzero" /></g></g></g><g clip-path="url(#51)"><g clip-path="url(#52)"><g clip-path="url(#53)"><path id="1033" transform="matrix(1 0 0 -1 0 842)" d="M21.169 381.049L576.431 381.049L576.431 381.53L21.169 381.53z" stroke="none" fill="#000000" fill-rule="nonzero" /><path id="1034" transform="matrix(1 0 0 -1 0 842)" d="M21.169 358.368L21.649 358.368L21.649 381.048L21.169 381.048z" stroke="none" fill="#000000" fill-rule="nonzero" /><path id="1035" transform="matrix(1 0 0 -1 0 842)" d="M21.169 358.368L96.052 358.368L96.052 358.849L21.169 358.849z" stroke="none" fill="#000000" fill-rule="nonzero" /><path id="1036" transform="matrix(1 0 0 -1 0 842)" d="M96.052 358.368L96.53201 358.368L96.53201 381.048L96.052 381.048z" stroke="none" fill="#000000" fill-rule="nonzero" /><path id="1037" transform="matrix(1 0 0 -1 0 842)" d="M96.532 358.368L152.694 358.368L152.694 358.849L96.532 358.849z" stroke="none" fill="#000000" fill-rule="nonzero" /><path id="1038" transform="matrix(1 0 0 -1 0 842)" d="M152.694 358.368L153.175 358.368L153.175 381.048L152.694 381.048z" stroke="none" fill="#000000" fill-rule="nonzero" /><path id="1039" transform="matrix(1 0 0 -1 0 842)" d="M153.174 358.368L280.259 358.368L280.259 358.849L153.174 358.849z" stroke="none" fill="#000000" fill-rule="nonzero" /><path id="1040" transform="matrix(1 0 0 -1 0 842)" d="M280.259 358.368L280.739 358.368L280.739 381.048L280.259 381.048z" stroke="none" fill="#000000" fill-rule="nonzero" /><path id="1041" transform="matrix(1 0 0 -1 0 842)" d="M280.739 358.368L480.187 358.368L480.187 358.849L280.739 358.849z" stroke="none" fill="#000000" fill-rule="nonzero" /><path id="1042" transform="matrix(1 0 0 -1 0 842)" d="M480.187 358.368L480.667 358.368L480.667 381.048L480.187 381.048z" stroke="none" fill="#000000" fill-rule="nonzero" /><path id="1043" transform="matrix(1 0 0 -1 0 842)" d="M480.667 358.368L575.951 358.368L575.951 358.849L480.667 358.849z" stroke="none" fill="#000000" fill-rule="nonzero" /><path id="1044" transform="matrix(1 0 0 -1 0 842)" d="M575.951 358.368L576.431 358.368L576.431 381.048L575.951 381.048z" stroke="none" fill="#000000" fill-rule="nonzero" /><path id="1045" transform="matrix(1 0 0 -1 0 842)" d="M575.951 358.368L576.431 358.368L576.431 358.849L575.951 358.849z" stroke="none" fill="#000000" fill-rule="nonzero" /><path id="1046" transform="matrix(1 0 0 -1 0 842)" d="M18.289 346.847L576.792 346.847L576.792 347.567L18.289 347.567z" stroke="none" fill="#000000" fill-rule="nonzero" /><path id="1083" transform="matrix(1 0 0 -1 0 842)" d="M19.729 324.406L211.617 324.406L211.617 325.126L19.729 325.126z" stroke="none" fill="#000000" fill-rule="nonzero" /><path id="1276" transform="matrix(1 0 0 -1 0 842)" d="M348.302 290.805L359.462 290.805L359.462 290.805L359.462 279.645L359.462 279.645L348.302 279.645z" stroke="#000000" stroke-width="0.72" stroke-linecap="square" fill="none" /><path id="1293" transform="matrix(1 0 0 -1 0 842)" d="M348.302 271.484L359.462 271.484L359.462 271.484L359.462 260.323L359.462 260.323L348.302 260.323z" stroke="#000000" stroke-width="0.72" stroke-linecap="square" fill="none" /><path id="1309" transform="matrix(1 0 0 -1 0 842)" d="M18.289 207.041L576.792 207.041L576.792 207.761L18.289 207.761z" stroke="none" fill="#000000" fill-rule="nonzero" /><path id="1325" transform="matrix(1 0 0 -1 0 842)" d="M19.729 184.6L98.93201 184.6L98.93201 185.32L19.729 185.32z" stroke="none" fill="#000000" fill-rule="nonzero" /><path id="1525" transform="matrix(1 0 0 -1 0 842)" d="M52.01 143.078L63.17 143.078L63.17 143.078L63.17 131.918L63.17 131.918L52.01 131.918z" stroke="#000000" stroke-width="0.72" stroke-linecap="square" fill="none" /></g></g></g><g clip-path="url(#54)"><g clip-path="url(#55)"><g clip-path="url(#56)"><path id="1531" transform="matrix(1 0 0 -1 0 842)" d="M161.815 143.078L172.975 143.078L172.975 143.078L172.975 131.918L172.975 131.918L161.815 131.918z" stroke="#000000" stroke-width="0.72" stroke-linecap="square" fill="none" /></g></g></g><g clip-path="url(#57)"><g clip-path="url(#58)"><g clip-path="url(#59)"><path id="1541" transform="matrix(1 0 0 -1 0 842)" d="M272.459 149.199L283.619 149.199L283.619 149.199L283.619 138.039L283.619 138.039L272.459 138.039z" stroke="#000000" stroke-width="0.72" stroke-linecap="square" fill="none" /></g></g></g><g clip-path="url(#60)"><g clip-path="url(#61)"><g clip-path="url(#62)"><path id="1561" transform="matrix(1 0 0 -1 0 842)" d="M382.983 143.078L394.143 143.078L394.143 143.078L394.143 131.918L394.143 131.918L382.983 131.918z" stroke="#000000" stroke-width="0.72" stroke-linecap="square" fill="none" /></g></g></g><g clip-path="url(#63)"><g clip-path="url(#64)"><g clip-path="url(#65)"><path id="1571" transform="matrix(1 0 0 -1 0 842)" d="M493.508 143.078L504.668 143.078L504.668 143.078L504.668 131.918L504.668 131.918L493.508 131.918z" stroke="#000000" stroke-width="0.72" stroke-linecap="square" fill="none" /><path id="1581" transform="matrix(1 0 0 -1 0 842)" d="M19.729 150.279L20.209 150.279L20.209 150.76L19.729 150.76z" stroke="none" fill="#000000" fill-rule="nonzero" /><path id="1582" transform="matrix(1 0 0 -1 0 842)" d="M19.729 150.279L570.551 150.279L570.551 150.76L19.729 150.76z" stroke="none" fill="#000000" fill-rule="nonzero" /><path id="1583" transform="matrix(1 0 0 -1 0 842)" d="M570.071 150.279L570.551 150.279L570.551 150.76L570.071 150.76z" stroke="none" fill="#000000" fill-rule="nonzero" /><path id="1584" transform="matrix(1 0 0 -1 0 842)" d="M19.729 124.718L20.209 124.718L20.209 150.279L19.729 150.279z" stroke="none" fill="#000000" fill-rule="nonzero" /><path id="1585" transform="matrix(1 0 0 -1 0 842)" d="M47.81 124.718L48.29 124.718L48.29 150.279L47.81 150.279z" stroke="none" fill="#000000" fill-rule="nonzero" /><path id="1586" transform="matrix(1 0 0 -1 0 842)" d="M128.573 124.718L129.054 124.718L129.054 150.279L128.573 150.279z" stroke="none" fill="#000000" fill-rule="nonzero" /><path id="1587" transform="matrix(1 0 0 -1 0 842)" d="M157.494 124.718L157.974 124.718L157.974 150.279L157.494 150.279z" stroke="none" fill="#000000" fill-rule="nonzero" /><path id="1588" transform="matrix(1 0 0 -1 0 842)" d="M238.378 124.718L238.859 124.718L238.859 150.279L238.378 150.279z" stroke="none" fill="#000000" fill-rule="nonzero" /><path id="1589" transform="matrix(1 0 0 -1 0 842)" d="M268.259 124.718L268.74 124.718L268.74 150.279L268.259 150.279z" stroke="none" fill="#000000" fill-rule="nonzero" /><path id="1590" transform="matrix(1 0 0 -1 0 842)" d="M349.022 124.718L349.502 124.718L349.502 150.279L349.022 150.279z" stroke="none" fill="#000000" fill-rule="nonzero" /><path id="1591" transform="matrix(1 0 0 -1 0 842)" d="M378.783 124.718L379.264 124.718L379.264 150.279L378.783 150.279z" stroke="none" fill="#000000" fill-rule="nonzero" /><path id="1592" transform="matrix(1 0 0 -1 0 842)" d="M459.547 124.718L460.027 124.718L460.027 150.279L459.547 150.279z" stroke="none" fill="#000000" fill-rule="nonzero" /><path id="1593" transform="matrix(1 0 0 -1 0 842)" d="M489.308 124.718L489.789 124.718L489.789 150.279L489.308 150.279z" stroke="none" fill="#000000" fill-rule="nonzero" /><path id="1594" transform="matrix(1 0 0 -1 0 842)" d="M570.071 124.718L570.551 124.718L570.551 150.279L570.071 150.279z" stroke="none" fill="#000000" fill-rule="nonzero" /></g></g></g><g clip-path="url(#66)"><g clip-path="url(#67)"><g clip-path="url(#68)"><path id="1595" transform="matrix(1 0 0 -1 0 842)" d="M52.01 122.798L63.17 122.798L63.17 122.798L63.17 111.637L63.17 111.637L52.01 111.637z" stroke="#000000" stroke-width="0.72" stroke-linecap="square" fill="none" /></g></g></g><g clip-path="url(#69)"><g clip-path="url(#70)"><g clip-path="url(#71)"><path id="1618" transform="matrix(1 0 0 -1 0 842)" d="M161.815 117.877L172.975 117.877L172.975 117.877L172.975 106.717L172.975 106.717L161.815 106.717z" stroke="#000000" stroke-width="0.72" stroke-linecap="square" fill="none" /></g></g></g><g clip-path="url(#72)"><g clip-path="url(#73)"><g clip-path="url(#74)"><path id="1628" transform="matrix(1 0 0 -1 0 842)" d="M272.459 123.158L283.619 123.158L283.619 123.158L283.619 111.997L283.619 111.997L272.459 111.997z" stroke="#000000" stroke-width="0.72" stroke-linecap="square" fill="none" /></g></g></g><g clip-path="url(#75)"><g clip-path="url(#76)"><g clip-path="url(#77)"><path id="1645" transform="matrix(1 0 0 -1 0 842)" d="M382.983 122.798L394.143 122.798L394.143 122.798L394.143 111.637L394.143 111.637L382.983 111.637z" stroke="#000000" stroke-width="0.72" stroke-linecap="square" fill="none" /></g></g></g><g clip-path="url(#78)"><g clip-path="url(#79)"><g clip-path="url(#80)"><path id="1668" transform="matrix(1 0 0 -1 0 842)" d="M19.729 124.238L570.551 124.238L570.551 124.718L19.729 124.718z" stroke="none" fill="#000000" fill-rule="nonzero" /><path id="1669" transform="matrix(1 0 0 -1 0 842)" d="M19.729 100.237L20.209 100.237L20.209 124.238L19.729 124.238z" stroke="none" fill="#000000" fill-rule="nonzero" /><path id="1670" transform="matrix(1 0 0 -1 0 842)" d="M47.81 100.237L48.29 100.237L48.29 124.238L47.81 124.238z" stroke="none" fill="#000000" fill-rule="nonzero" /><path id="1671" transform="matrix(1 0 0 -1 0 842)" d="M128.573 100.237L129.054 100.237L129.054 124.238L128.573 124.238z" stroke="none" fill="#000000" fill-rule="nonzero" /><path id="1672" transform="matrix(1 0 0 -1 0 842)" d="M157.494 100.237L157.974 100.237L157.974 124.238L157.494 124.238z" stroke="none" fill="#000000" fill-rule="nonzero" /><path id="1673" transform="matrix(1 0 0 -1 0 842)" d="M238.378 100.237L238.859 100.237L238.859 124.238L238.378 124.238z" stroke="none" fill="#000000" fill-rule="nonzero" /><path id="1674" transform="matrix(1 0 0 -1 0 842)" d="M268.259 100.237L268.74 100.237L268.74 124.238L268.259 124.238z" stroke="none" fill="#000000" fill-rule="nonzero" /><path id="1675" transform="matrix(1 0 0 -1 0 842)" d="M349.022 100.237L349.502 100.237L349.502 124.238L349.022 124.238z" stroke="none" fill="#000000" fill-rule="nonzero" /><path id="1676" transform="matrix(1 0 0 -1 0 842)" d="M378.783 100.237L379.264 100.237L379.264 124.238L378.783 124.238z" stroke="none" fill="#000000" fill-rule="nonzero" /><path id="1677" transform="matrix(1 0 0 -1 0 842)" d="M459.547 100.237L460.027 100.237L460.027 124.238L459.547 124.238z" stroke="none" fill="#000000" fill-rule="nonzero" /><path id="1678" transform="matrix(1 0 0 -1 0 842)" d="M489.308 100.237L489.789 100.237L489.789 124.238L489.308 124.238z" stroke="none" fill="#000000" fill-rule="nonzero" /><path id="1679" transform="matrix(1 0 0 -1 0 842)" d="M570.071 100.237L570.551 100.237L570.551 124.238L570.071 124.238z" stroke="none" fill="#000000" fill-rule="nonzero" /></g></g></g><path id="1680" transform="matrix(1 0 0 -1 0 842)" d="M52.01 98.677L63.17 98.677L63.17 98.677L63.17 87.517L63.17 87.517L52.01 87.517z" stroke="#000000" stroke-width="0.72" stroke-linecap="square" fill="none" /><g clip-path="url(#81)"><g clip-path="url(#82)"><g clip-path="url(#83)"></g></g></g><path id="1703" transform="matrix(1 0 0 -1 0 842)" d="M161.815 98.677L172.975 98.677L172.975 98.677L172.975 87.517L172.975 87.517L161.815 87.517z" stroke="#000000" stroke-width="0.72" stroke-linecap="square" fill="none" /><g clip-path="url(#84)"><g clip-path="url(#85)"><g clip-path="url(#86)"></g></g></g><g clip-path="url(#87)"><g clip-path="url(#88)"><g clip-path="url(#89)"></g></g></g><g clip-path="url(#90)"><g clip-path="url(#91)"><g clip-path="url(#92)"><path id="1727" transform="matrix(1 0 0 -1 0 842)" d="M19.729 99.757L570.551 99.757L570.551 100.237L19.729 100.237z" stroke="none" fill="#000000" fill-rule="nonzero" /><path id="1728" transform="matrix(1 0 0 -1 0 842)" d="M19.729 75.996L20.209 75.996L20.209 99.757L19.729 99.757z" stroke="none" fill="#000000" fill-rule="nonzero" /><path id="1729" transform="matrix(1 0 0 -1 0 842)" d="M19.729 75.996L47.81 75.996L47.81 76.47601L19.729 76.47601z" stroke="none" fill="#000000" fill-rule="nonzero" /><path id="1730" transform="matrix(1 0 0 -1 0 842)" d="M47.81 75.996L48.29 75.996L48.29 99.757L47.81 99.757z" stroke="none" fill="#000000" fill-rule="nonzero" /><path id="1731" transform="matrix(1 0 0 -1 0 842)" d="M48.29 75.996L128.573 75.996L128.573 76.47601L48.29 76.47601z" stroke="none" fill="#000000" fill-rule="nonzero" /><path id="1732" transform="matrix(1 0 0 -1 0 842)" d="M128.573 75.996L129.054 75.996L129.054 99.757L128.573 99.757z" stroke="none" fill="#000000" fill-rule="nonzero" /><path id="1733" transform="matrix(1 0 0 -1 0 842)" d="M129.053 75.996L157.494 75.996L157.494 76.47601L129.053 76.47601z" stroke="none" fill="#000000" fill-rule="nonzero" /><path id="1734" transform="matrix(1 0 0 -1 0 842)" d="M157.494 75.996L157.974 75.996L157.974 99.757L157.494 99.757z" stroke="none" fill="#000000" fill-rule="nonzero" /><path id="1735" transform="matrix(1 0 0 -1 0 842)" d="M157.974 75.996L238.377 75.996L238.377 76.47601L157.974 76.47601z" stroke="none" fill="#000000" fill-rule="nonzero" /><path id="1736" transform="matrix(1 0 0 -1 0 842)" d="M238.378 75.996L238.859 75.996L238.859 99.757L238.378 99.757z" stroke="none" fill="#000000" fill-rule="nonzero" /><path id="1737" transform="matrix(1 0 0 -1 0 842)" d="M238.858 75.996L268.258 75.996L268.258 76.47601L238.858 76.47601z" stroke="none" fill="#000000" fill-rule="nonzero" /><path id="1738" transform="matrix(1 0 0 -1 0 842)" d="M268.259 75.996L268.74 75.996L268.74 99.757L268.259 99.757z" stroke="none" fill="#000000" fill-rule="nonzero" /><path id="1739" transform="matrix(1 0 0 -1 0 842)" d="M268.739 75.996L349.022 75.996L349.022 76.47601L268.739 76.47601z" stroke="none" fill="#000000" fill-rule="nonzero" /><path id="1740" transform="matrix(1 0 0 -1 0 842)" d="M349.022 75.996L349.502 75.996L349.502 99.757L349.022 99.757z" stroke="none" fill="#000000" fill-rule="nonzero" /><path id="1741" transform="matrix(1 0 0 -1 0 842)" d="M349.502 75.996L378.783 75.996L378.783 76.47601L349.502 76.47601z" stroke="none" fill="#000000" fill-rule="nonzero" /><path id="1742" transform="matrix(1 0 0 -1 0 842)" d="M378.783 75.996L379.264 75.996L379.264 99.757L378.783 99.757z" stroke="none" fill="#000000" fill-rule="nonzero" /><path id="1743" transform="matrix(1 0 0 -1 0 842)" d="M379.263 75.996L459.546 75.996L459.546 76.47601L379.263 76.47601z" stroke="none" fill="#000000" fill-rule="nonzero" /><path id="1744" transform="matrix(1 0 0 -1 0 842)" d="M459.547 75.996L460.027 75.996L460.027 99.757L459.547 99.757z" stroke="none" fill="#000000" fill-rule="nonzero" /><path id="1745" transform="matrix(1 0 0 -1 0 842)" d="M460.027 75.996L489.308 75.996L489.308 76.47601L460.027 76.47601z" stroke="none" fill="#000000" fill-rule="nonzero" /><path id="1746" transform="matrix(1 0 0 -1 0 842)" d="M489.308 75.996L489.789 75.996L489.789 99.757L489.308 99.757z" stroke="none" fill="#000000" fill-rule="nonzero" /><path id="1747" transform="matrix(1 0 0 -1 0 842)" d="M489.788 75.996L570.071 75.996L570.071 76.47601L489.788 76.47601z" stroke="none" fill="#000000" fill-rule="nonzero" /><path id="1748" transform="matrix(1 0 0 -1 0 842)" d="M570.071 75.996L570.551 75.996L570.551 99.757L570.071 99.757z" stroke="none" fill="#000000" fill-rule="nonzero" /><path id="1749" transform="matrix(1 0 0 -1 0 842)" d="M570.071 75.996L570.551 75.996L570.551 76.47601L570.071 76.47601z" stroke="none" fill="#000000" fill-rule="nonzero" /><path id="1750" transform="matrix(1 0 0 -1 0 842)" d="M346.862 70.115L358.022 70.115L358.022 70.115L358.022 58.955L358.022 58.955L346.862 58.955z" stroke="#000000" stroke-width="0.72" stroke-linecap="square" fill="none" /><path id="1767" transform="matrix(1 0 0 -1 0 842)" d="M346.862 53.675L358.022 53.675L358.022 53.675L358.022 42.515L358.022 42.515L346.862 42.515z" stroke="#000000" stroke-width="0.72" stroke-linecap="square" fill="none" /></g></g></g><g clip-path="url(#93)"><g transform="matrix(0.3278462 0 0 0.3279 22.494 691.394)"><g transform="matrix(1 0 0 1 0 0)"><image x="0" y="0" xlink:href="img_906.png" width="78" height="80" /></g></g></g><g clip-path="url(#94)"><g transform="matrix(0.3268333 0 0 0.3268333 131.394 692.774)"><g transform="matrix(1 0 0 1 0 0)"><image x="0" y="0" xlink:href="img_907.png" width="72" height="72" /></g></g></g><g clip-path="url(#95)"><g transform="matrix(0.3268333 0 0 0.3268333 241.134 692.774)"><g transform="matrix(1 0 0 1 0 0)"><image x="0" y="0" xlink:href="img_908.png" width="72" height="72" /></g></g></g><g clip-path="url(#96)"><g transform="matrix(0.32976 0 0 0.32976 351.774 692.174)"><g transform="matrix(1 0 0 1 0 0)"><image x="0" y="0" xlink:href="img_909.png" width="75" height="75" /></g></g></g><g clip-path="url(#97)"><g transform="matrix(0.3268333 0 0 0.3268333 462.354 692.774)"><g transform="matrix(1 0 0 1 0 0)"><image x="0" y="0" xlink:href="img_910.png" width="72" height="72" /></g></g></g><g clip-path="url(#98)"><g transform="matrix(0.3268333 0 0 0.3268333 22.494 718.034)"><g transform="matrix(1 0 0 1 0 0)"><image x="0" y="0" xlink:href="img_911.png" width="72" height="72" /></g></g></g><g clip-path="url(#99)"><g transform="matrix(0.32976 0 0 0.32976 131.394 717.434)"><g transform="matrix(1 0 0 1 0 0)"><image x="0" y="0" xlink:href="img_912.png" width="75" height="75" /></g></g></g><g clip-path="url(#100)"><g transform="matrix(0.3268333 0 0 0.3268333 241.134 718.034)"><g transform="matrix(1 0 0 1 0 0)"><image x="0" y="0" xlink:href="img_913.png" width="72" height="72" /></g></g></g><g clip-path="url(#101)"><g transform="matrix(0.3280563 0 0 0.3280563 351.774 718.154)"><g transform="matrix(1 0 0 1 0 0)"><image x="0" y="0" xlink:href="img_914.png" width="71" height="71" /></g></g></g><g clip-path="url(#102)"><g transform="matrix(0.47275 0 0 0.4731429 22.854 743.954)"><g transform="matrix(1 0 0 1 0 0)"><image x="0" y="0" xlink:href="img_915.png" width="48" height="42" /></g></g></g><g clip-path="url(#103)"><g transform="matrix(0.47275 0 0 0.4731429 131.694 743.954)"><g transform="matrix(1 0 0 1 0 0)"><image x="0" y="0" xlink:href="img_916.png" width="48" height="42" /></g></g></g></g></g></svg>