<svg xmlns="http://www.w3.org/2000/svg" xmlns:xlink="http://www.w3.org/1999/xlink" id="body_113" preserveAspectRatio="xMinYMin meet" viewBox="0 0 793 1123"><defs><clipPath id="1"><path id="" clip-rule="evenodd" transform="matrix(1 0 0 1 0 0)" d="M0 842L0 0L0 0L595 0L595 0L595 842L595 842L0 842z" /></clipPath><clipPath id="2"><path id="" clip-rule="evenodd" transform="matrix(1 0 0 1 0 0)" d="M124.56 451.92L202.98 451.92L202.98 451.92L202.98 466.32L202.98 466.32L124.56 466.32z" /></clipPath><clipPath id="3"><path id="" clip-rule="evenodd" transform="matrix(1 0 0 1 0 0)" d="M0 0.02001953L595.2 0.02001953L595.2 0.02001953L595.2 842L595.2 842L0 842z" /></clipPath><clipPath id="4"><path id="" clip-rule="evenodd" transform="matrix(1 0 0 1 0 0)" d="M124.44 452.16L199.5 452.16L199.5 452.16L199.5 466.26L199.5 466.26L124.44 466.26z" /></clipPath><clipPath id="5"><path id="" clip-rule="evenodd" transform="matrix(1 0 0 1 0 0)" d="M124.56 451.92L202.98 451.92L202.98 451.92L202.98 466.32L202.98 466.32L124.56 466.32z" /></clipPath><clipPath id="6"><path id="" clip-rule="evenodd" transform="matrix(1 0 0 1 0 0)" d="M0 0.02001953L595.2 0.02001953L595.2 0.02001953L595.2 842L595.2 842L0 842z" /></clipPath></defs><g transform="matrix(1.333333 0 0 1.333333 0 0)"><g clip-path="url(#1)"><g clip-path="url(#2)"><g clip-path="url(#3)"><path id="694" transform="matrix(1 0 0 -1 0 842)" d="M124.56 375.68L202.98 375.68L202.98 390.08L124.56 390.08z" stroke="none" fill="#FFFFFF" fill-rule="nonzero" /></g></g><g clip-path="url(#4)"><g clip-path="url(#5)"><g clip-path="url(#6)"><g transform="matrix(0.7431683 0 0 0.7421053 124.44 452.16)"><g transform="matrix(1 0 0 1 0 0)"><image x="0" y="0" xlink:href="img_274.png" width="101" height="19" /></g></g></g></g></g><path id="696" transform="matrix(1 0 0 -1 0 842)" d="M224.94 394.1L558 394.1L558 294.08L224.94 294.08" stroke="none" fill="#ECF5FC" fill-rule="nonzero" /></g></g></svg>