<svg xmlns="http://www.w3.org/2000/svg" xmlns:xlink="http://www.w3.org/1999/xlink" id="body_6" preserveAspectRatio="xMinYMin meet" viewBox="0 0 793 1123"><defs><clipPath id="1"><path id="" clip-rule="evenodd" transform="matrix(1 0 0 1 0 0)" d="M0 842L0 0L0 0L595 0L595 0L595 842L595 842L0 842z" /></clipPath><clipPath id="2"><path id="" clip-rule="evenodd" transform="matrix(1 0 0 1 0 0)" d="M115.56 226.02L193.98 226.02L193.98 226.02L193.98 240.42L193.98 240.42L115.56 240.42z" /></clipPath><clipPath id="3"><path id="" clip-rule="evenodd" transform="matrix(1 0 0 1 0 0)" d="M0 0.02001953L595.2 0.02001953L595.2 0.02001953L595.2 842L595.2 842L0 842z" /></clipPath><clipPath id="4"><path id="" clip-rule="evenodd" transform="matrix(1 0 0 1 0 0)" d="M115.98 226.5L189.36 226.5L189.36 226.5L189.36 240.3L189.36 240.3L115.98 240.3z" /></clipPath><clipPath id="5"><path id="" clip-rule="evenodd" transform="matrix(1 0 0 1 0 0)" d="M115.56 226.02L193.98 226.02L193.98 226.02L193.98 240.42L193.98 240.42L115.56 240.42z" /></clipPath><clipPath id="6"><path id="" clip-rule="evenodd" transform="matrix(1 0 0 1 0 0)" d="M0 0.02001953L595.2 0.02001953L595.2 0.02001953L595.2 842L595.2 842L0 842z" /></clipPath></defs><g transform="matrix(1.333333 0 0 1.333333 0 0)"><g clip-path="url(#1)"><g clip-path="url(#2)"><g clip-path="url(#3)"><path id="601" transform="matrix(1 0 0 -1 0 842)" d="M115.56 601.58L193.98 601.58L193.98 615.98L115.56 615.98z" stroke="none" fill="#FFFFFF" fill-rule="nonzero" /></g></g><g clip-path="url(#4)"><g clip-path="url(#5)"><g clip-path="url(#6)"><g transform="matrix(0.7265346 0 0 0.7263158 115.98 226.5)"><g transform="matrix(1 0 0 1 0 0)"><image x="0" y="0" xlink:href="img_09.png" width="101" height="19" /></g></g></g></g></g><path id="603" transform="matrix(1 0 0 -1 0 842)" d="M215.94 620L549 620L549 586.04L215.94 586.04" stroke="none" fill="#ECF5FC" fill-rule="nonzero" /><path id="636" transform="matrix(1 0 0 -1 0 842)" d="M215.94 574.04L549 574.04L549 540.02L215.94 540.02" stroke="none" fill="#ECF5FC" fill-rule="nonzero" /></g></g></svg>