<svg xmlns="http://www.w3.org/2000/svg" xmlns:xlink="http://www.w3.org/1999/xlink" id="body_153" preserveAspectRatio="xMinYMin meet" viewBox="0 0 793 1123"><defs><clipPath id="1"><path id="" clip-rule="evenodd" transform="matrix(1 0 0 1 0 0)" d="M0 842L0 0L0 0L595 0L595 0L595 842L595 842L0 842z" /></clipPath><clipPath id="2"><path id="" clip-rule="evenodd" transform="matrix(1 0 0 1 0 0)" d="M73.98 95.15997L205.98 95.15997L205.98 95.15997L205.98 129.24L205.98 129.24L73.98 129.24z" /></clipPath><clipPath id="3"><path id="" clip-rule="evenodd" transform="matrix(1 0 0 1 0 0)" d="M72.96 94.14001L206.94 94.14001L206.94 94.14001L206.94 130.2L206.94 130.2L72.96 130.2z" /></clipPath><clipPath id="4"><path id="" clip-rule="evenodd" transform="matrix(1 0 0 1 0 0)" d="M0 0.02001953L595.2 0.02001953L595.2 0.02001953L595.2 842L595.2 842L0 842z" /></clipPath><clipPath id="5"><path id="" clip-rule="evenodd" transform="matrix(1 0 0 1 0 0)" d="M124.56 238.32L202.98 238.32L202.98 238.32L202.98 252.72L202.98 252.72L124.56 252.72z" /></clipPath><clipPath id="6"><path id="" clip-rule="evenodd" transform="matrix(1 0 0 1 0 0)" d="M0 0.02001953L595.2 0.02001953L595.2 0.02001953L595.2 842L595.2 842L0 842z" /></clipPath><clipPath id="7"><path id="" clip-rule="evenodd" transform="matrix(1 0 0 1 0 0)" d="M124.98 238.8L198.36 238.8L198.36 238.8L198.36 252.6L198.36 252.6L124.98 252.6z" /></clipPath><clipPath id="8"><path id="" clip-rule="evenodd" transform="matrix(1 0 0 1 0 0)" d="M124.56 238.32L202.98 238.32L202.98 238.32L202.98 252.72L202.98 252.72L124.56 252.72z" /></clipPath><clipPath id="9"><path id="" clip-rule="evenodd" transform="matrix(1 0 0 1 0 0)" d="M0 0.02001953L595.2 0.02001953L595.2 0.02001953L595.2 842L595.2 842L0 842z" /></clipPath></defs><g transform="matrix(1.333333 0 0 1.333333 0 0)"><g clip-path="url(#1)"><g clip-path="url(#2)"><g clip-path="url(#3)"><g clip-path="url(#4)"><g transform="matrix(0.48 0 0 0.48 73.98 95.15997)"><g transform="matrix(1 0 0 1 0 0)"><image x="0" y="0" xlink:href="img_369.png" width="275" height="71" /></g></g></g></g></g><g clip-path="url(#5)"><g clip-path="url(#6)"><path id="557" transform="matrix(1 0 0 -1 0 842)" d="M124.56 589.28L202.98 589.28L202.98 603.6801L124.56 603.6801z" stroke="none" fill="#FFFFFF" fill-rule="nonzero" /></g></g><g clip-path="url(#7)"><g clip-path="url(#8)"><g clip-path="url(#9)"><g transform="matrix(0.7265346 0 0 0.7263158 124.98 238.8)"><g transform="matrix(1 0 0 1 0 0)"><image x="0" y="0" xlink:href="img_09.png" width="101" height="19" /></g></g></g></g></g><path id="559" transform="matrix(1 0 0 -1 0 842)" d="M260.94 503.72L558 503.72L558 607.64L260.94 607.64z" stroke="none" fill="#ECF5FC" fill-rule="nonzero" /><path id="713" transform="matrix(1 0 0 -1 0 842)" d="M242.94 377.72L558 377.72L558 343.76L242.94 343.76" stroke="none" fill="#ECF5FC" fill-rule="nonzero" /></g></g></svg>