<svg xmlns="http://www.w3.org/2000/svg" xmlns:xlink="http://www.w3.org/1999/xlink" id="body_203" preserveAspectRatio="xMinYMin meet" viewBox="0 0 793 1123"><defs><clipPath id="1"><path id="" clip-rule="evenodd" transform="matrix(1 0 0 1 0 0)" d="M0 842L0 0L0 0L595 0L595 0L595 842L595 842L0 842z" /></clipPath><clipPath id="2"><path id="" clip-rule="evenodd" transform="matrix(1 0 0 1 0 0)" d="M329.4 93.84003L546.36 93.84003L546.36 93.84003L546.36 308.64L546.36 308.64L329.4 308.64z" /></clipPath><clipPath id="3"><path id="" clip-rule="evenodd" transform="matrix(1 0 0 1 0 0)" d="M215.94 76.02002L547.38 76.02002L547.38 76.02002L547.38 327.66L547.38 327.66L215.94 327.66z" /></clipPath><clipPath id="4"><path id="" clip-rule="evenodd" transform="matrix(1 0 0 1 0 0)" d="M0 0.02001953L595.2 0.02001953L595.2 0.02001953L595.2 842L595.2 842L0 842z" /></clipPath><clipPath id="5"><path id="" clip-rule="evenodd" transform="matrix(1 0 0 1 0 0)" d="M215.94 76.02002L547.38 76.02002L547.38 76.02002L547.38 327.66L547.38 327.66L215.94 327.66z" /></clipPath><clipPath id="6"><path id="" clip-rule="evenodd" transform="matrix(1 0 0 1 0 0)" d="M0 0.02001953L595.2 0.02001953L595.2 0.02001953L595.2 842L595.2 842L0 842z" /></clipPath><clipPath id="7"><path id="" clip-rule="evenodd" transform="matrix(1 0 0 1 0 0)" d="M216.96 102.96L313.2 102.96L313.2 102.96L313.2 193.2L313.2 193.2L216.96 193.2z" /></clipPath><clipPath id="8"><path id="" clip-rule="evenodd" transform="matrix(1 0 0 1 0 0)" d="M215.94 76.02002L547.38 76.02002L547.38 76.02002L547.38 327.66L547.38 327.66L215.94 327.66z" /></clipPath><clipPath id="9"><path id="" clip-rule="evenodd" transform="matrix(1 0 0 1 0 0)" d="M0 0.02001953L595.2 0.02001953L595.2 0.02001953L595.2 842L595.2 842L0 842z" /></clipPath><clipPath id="10"><path id="" clip-rule="evenodd" transform="matrix(1 0 0 1 0 0)" d="M215.94 76.02002L547.38 76.02002L547.38 76.02002L547.38 327.66L547.38 327.66L215.94 327.66z" /></clipPath><clipPath id="11"><path id="" clip-rule="evenodd" transform="matrix(1 0 0 1 0 0)" d="M0 0.02001953L595.2 0.02001953L595.2 0.02001953L595.2 842L595.2 842L0 842z" /></clipPath><clipPath id="12"><path id="" clip-rule="evenodd" transform="matrix(1 0 0 1 0 0)" d="M268.14 497.58L417.9 497.58L417.9 497.58L417.9 715.08L417.9 715.08L268.14 715.08z" /></clipPath><clipPath id="13"><path id="" clip-rule="evenodd" transform="matrix(1 0 0 1 0 0)" d="M215.94 496.62L485.7 496.62L485.7 496.62L485.7 716.04L485.7 716.04L215.94 716.04z" /></clipPath><clipPath id="14"><path id="" clip-rule="evenodd" transform="matrix(1 0 0 1 0 0)" d="M0 0.02001953L595.2 0.02001953L595.2 0.02001953L595.2 842L595.2 842L0 842z" /></clipPath><clipPath id="15"><path id="" clip-rule="evenodd" transform="matrix(1 0 0 1 0 0)" d="M215.94 496.62L485.7 496.62L485.7 496.62L485.7 716.04L485.7 716.04L215.94 716.04z" /></clipPath><clipPath id="16"><path id="" clip-rule="evenodd" transform="matrix(1 0 0 1 0 0)" d="M0 0.02001953L595.2 0.02001953L595.2 0.02001953L595.2 842L595.2 842L0 842z" /></clipPath></defs><g transform="matrix(1.333333 0 0 1.333333 0 0)"><g clip-path="url(#1)"><path id="180" transform="matrix(1 0 0 -1 0 842)" d="M233.94 433.4L549 433.4L549 413.36L233.94 413.36" stroke="none" fill="#ECF5FC" fill-rule="nonzero" /><g clip-path="url(#2)"><g clip-path="url(#3)"><g clip-path="url(#4)"><g transform="matrix(0.48 0 0 0.4794643 329.4 93.84003)"><g transform="matrix(1 0 0 1 0 0)"><image x="0" y="0" xlink:href="img_532.png" width="452" height="448" /></g></g></g></g></g><g clip-path="url(#5)"><g clip-path="url(#6)"><path id="221" transform="matrix(1 0 0 -1 0 842)" d="M376.5 730.52L452.28 730.52L452.28 733.52L376.5 733.52z" stroke="none" fill="#FF0000" fill-rule="nonzero" /><path id="222" transform="matrix(1 0 0 -1 0 842)" d="M449.28 654.32L452.28 654.32L452.28 732.02L449.28 732.02z" stroke="none" fill="#FF0000" fill-rule="nonzero" /><path id="223" transform="matrix(1 0 0 -1 0 842)" d="M375 654.32L450.78 654.32L450.78 657.32L375 657.32z" stroke="none" fill="#FF0000" fill-rule="nonzero" /><path id="224" transform="matrix(1 0 0 -1 0 842)" d="M375 655.82L378 655.82L378 733.52L375 733.52z" stroke="none" fill="#FF0000" fill-rule="nonzero" /></g></g><g clip-path="url(#7)"><g clip-path="url(#8)"><g clip-path="url(#9)"><g transform="matrix(0.478806 0 0 0.48 216.96 102.96)"><g transform="matrix(1 0 0 1 0 0)"><image x="0" y="0" xlink:href="img_533.png" width="201" height="188" /></g></g></g></g></g><g clip-path="url(#10)"><g clip-path="url(#11)"><path id="226" transform="matrix(1 0 0 -1 0 842)" d="M352.92 693.98L352.92 694.1L352.92 694.1L352.86 694.28L352.86 694.28L352.86 694.4L352.86 694.4L352.8 694.52L352.8 694.52L352.74 694.7L352.74 694.7L352.62 694.82L352.62 694.82L352.56 694.88L352.56 694.88L352.44 695L352.44 695L352.38 695.12L352.38 695.12L352.26 695.18L352.26 695.18L352.14 695.3L352.14 695.3L351.96 695.36L351.96 695.36L351.84 695.36L351.84 695.36L351.72 695.42L351.72 695.42L351.12 695.42L351.12 695.42L350.94 695.36L350.94 695.36L350.46 695.12L350.46 695.12L350.22 694.88L350.22 694.88L350.16 694.76L350.16 694.76L350.1 694.64L350.1 694.64L349.98 694.4L349.98 694.4L349.92 694.22L349.92 694.22L349.92 693.62L349.92 693.62L350.04 693.38L350.04 693.38L350.1 693.2L350.1 693.2L350.16 693.08L350.16 693.08L350.28 692.96L350.28 692.96L350.34 692.9L350.34 692.9L350.46 692.78L350.46 692.78L350.58 692.72L350.58 692.72L350.7 692.6L350.7 692.6L350.82 692.54L350.82 692.54L350.94 692.54L350.94 692.54L351.12 692.48L351.12 692.48L351.24 692.48L351.24 692.48L351.42 692.42L351.42 692.42L351.54 692.48L351.54 692.48L351.72 692.48L351.72 692.48L351.84 692.54L351.84 692.54L352.02 692.54L352.02 692.54L352.14 692.66L352.14 692.66L352.26 692.72L352.26 692.72L352.38 692.78L352.38 692.78L352.5 692.9L352.5 692.9L352.56 693.02L352.56 693.02L352.68 693.14L352.68 693.14L352.74 693.26L352.74 693.26L352.86 693.5L352.86 693.5L352.86 693.68L352.86 693.68L352.92 693.8L352.92 693.8L352.92 693.98" stroke="none" fill="#FF0000" fill-rule="evenodd" /><path id="227" transform="matrix(1 0 0 -1 0 842)" d="M351.42 693.98L351.42 699.08L351.48 699.74L352.08 699.56L369.96 694.52L371.64 694.04L369.96 693.56L352.14 688.34L351.48 688.16L351.48 688.82L351.84 689.3L369.66 694.52L369.96 693.56L369.66 693.56L351.78 698.6L352.08 699.56L352.44 699.08L352.44 693.98" stroke="none" fill="#FF0000" fill-rule="nonzero" /><path id="228" transform="matrix(1 0 0 -1 0 842)" d="M351.48 688.82L351.42 693.98L352.44 693.98L352.5 688.82" stroke="none" fill="#FF0000" fill-rule="nonzero" /><path id="229" transform="matrix(1 0 0 -1 0 842)" d="M351.9 693.98L351.9 699.08L351.9 699.08L369.78 694.04L369.78 694.04L351.96 688.82" stroke="none" fill="#FF0000" fill-rule="evenodd" /><path id="230" transform="matrix(1 0 0 -1 0 842)" d="M315.84 692.24L317.34 692.24L317.34 695.24L315.84 695.24z" stroke="none" fill="#FF0000" fill-rule="nonzero" /><path id="231" transform="matrix(1 0 0 -1 0 842)" d="M351.42 692.42L352.92 692.42L352.92 695.42L351.42 695.42z" stroke="none" fill="#FF0000" fill-rule="nonzero" /><path id="232" transform="matrix(1 0 0 -1 0 842)" d="M317.34 695.24L317.34 692.24L351.42 692.42L351.42 695.42" stroke="none" fill="#FF0000" fill-rule="nonzero" /><path id="233" transform="matrix(1 0 0 -1 0 842)" d="M499.92 753.86L500.94 753.86L500.94 754.34L499.92 754.34z" stroke="none" fill="#000000" fill-rule="nonzero" /><path id="234" transform="matrix(1 0 0 -1 0 842)" d="M499.92 655.88L500.94 655.88L500.94 753.86L499.92 753.86z" stroke="none" fill="#000000" fill-rule="nonzero" /><path id="250" transform="matrix(1 0 0 -1 0 842)" d="M435.72 527.72L435.9 527.24L436.86 527.66L436.68 528.14" stroke="none" fill="#000000" fill-rule="nonzero" /><path id="251" transform="matrix(1 0 0 -1 0 842)" d="M418.26 568.52L418.08 569L419.04 569.42L419.22 568.94" stroke="none" fill="#000000" fill-rule="nonzero" /><path id="252" transform="matrix(1 0 0 -1 0 842)" d="M435.72 527.72L436.68 528.14L419.22 568.9399L418.26 568.52" stroke="none" fill="#000000" fill-rule="nonzero" /><path id="253" transform="matrix(1 0 0 -1 0 842)" d="M441.72 529.34L441.54 528.86L442.5 528.5L442.68 528.98" stroke="none" fill="#000000" fill-rule="nonzero" /><path id="254" transform="matrix(1 0 0 -1 0 842)" d="M458.52 570.74L458.7 571.22L459.66 570.86L459.48 570.38" stroke="none" fill="#000000" fill-rule="nonzero" /><path id="255" transform="matrix(1 0 0 -1 0 842)" d="M441.72 529.34L442.68 528.98L459.48 570.38L458.52 570.7401" stroke="none" fill="#000000" fill-rule="nonzero" /></g></g><g clip-path="url(#12)"><g clip-path="url(#13)"><g clip-path="url(#14)"><g transform="matrix(0.48 0 0 0.4801325 268.14 497.58)"><g transform="matrix(1 0 0 1 0 0)"><image x="0" y="0" xlink:href="img_534.png" width="312" height="453" /></g></g></g></g></g><g clip-path="url(#15)"><g clip-path="url(#16)"><path id="257" transform="matrix(1 0 0 -1 0 842)" d="M306.78 262.94L306.78 263.9L306.78 263.78L306.42 265.58L306.42 265.46L306.06 266.3L306.12 266.3L305.76 267.08L305.76 267.02L305.28 267.8L304.74 268.52L304.8 268.46L304.26 269.12L304.32 269.06L303.66 269.6L302.94 270.14L303 270.14L302.22 270.62L302.28 270.56L301.5 270.92L300.66 271.22L300.72 271.22L299.82 271.46L299.88 271.4L298.98 271.58L299.04 271.58L297.18 271.58L297.3 271.58L296.34 271.4L296.4 271.46L295.56 271.22L294.72 270.92L294.78 270.92L293.94 270.56L294 270.62L293.28 270.14L292.56 269.6L292.62 269.6L291.96 269.06L292.02 269.12L291.42 268.46L291.42 268.52L290.88 267.8L290.94 267.86L290.1 266.3L290.1 266.36L289.8 265.52L289.8 265.58L289.56 264.68L289.62 264.74L289.5 263.84L289.44 262.88L289.44 262.94L289.5 262.04L289.5 262.1L289.62 261.14L289.56 261.2L289.8 260.36L289.8 260.42L290.1 259.58L290.1 259.64L290.52 258.8L290.94 258.08L290.88 258.14L291.42 257.42L292.02 256.76L291.96 256.82L292.62 256.22L292.56 256.28L291.96 255.44L291.3 256.04L291.24 256.1L290.64 256.76L290.58 256.82L290.04 257.54L289.62 258.26L289.62 258.32L289.2 259.16L289.14 259.22L288.84 260.06L288.6 260.9L288.6 261.02L288.48 261.98L288.42 262.88L288.42 262.94L288.48 263.9L288.48 263.96L288.6 264.86L288.6 264.92L288.84 265.82L288.84 265.88L289.14 266.72L289.2 266.78L290.04 268.34L290.04 268.4L290.58 269.12L290.64 269.12L291.24 269.78L291.3 269.84L291.96 270.38L291.96 270.44L292.68 270.98L292.74 270.98L293.46 271.46L293.52 271.52L294.36 271.88L295.2 272.18L295.26 272.18L296.1 272.42L296.16 272.42L297.12 272.6L299.16 272.6L300.06 272.42L300.96 272.18L301.02 272.18L301.86 271.88L301.92 271.82L302.7 271.46L302.76 271.46L303.54 270.98L304.26 270.44L304.32 270.38L304.98 269.84L305.04 269.78L305.58 269.12L306.12 268.4L306.12 268.34L306.6 267.56L306.66 267.5L307.02 266.72L307.38 265.88L307.44 265.76L307.62 264.86L307.8 263.96L307.8 262.94" stroke="none" fill="#FF0000" fill-rule="nonzero" /><path id="258" transform="matrix(1 0 0 -1 0 842)" d="M292.56 256.28L293.28 255.74L294 255.32L293.94 255.32L294.78 254.9L294.72 254.96L295.56 254.66L296.4 254.42L296.28 254.42L297.24 254.3L298.14 254.24L298.08 254.24L299.04 254.3L298.98 254.3L299.88 254.42L299.82 254.42L300.72 254.66L300.66 254.66L301.5 254.96L301.44 254.9L303 255.74L302.94 255.74L303.66 256.28L303.66 256.22L304.32 256.82L304.26 256.76L304.8 257.42L304.74 257.42L305.28 258.14L305.28 258.08L305.76 258.8L305.7 258.74L306.42 260.42L306.42 260.36L306.6 261.2L306.6 261.14L306.78 262.1L306.78 262.04L306.78 262.94L307.8 262.94L307.8 261.92L307.62 260.96L307.44 260.12L307.38 260L306.66 258.32L306.6 258.26L306.12 257.54L305.58 256.82L305.58 256.76L305.04 256.1L304.98 256.04L304.32 255.44L304.26 255.44L303.54 254.9L303.48 254.84L301.92 254L301.86 254L301.02 253.7L300.96 253.7L300.06 253.46L300 253.4L299.1 253.28L298.14 253.22L298.08 253.22L297.18 253.28L297.12 253.28L296.16 253.4L296.1 253.46L295.26 253.7L295.2 253.7L294.36 254L294.3 254L293.46 254.42L292.74 254.84L292.68 254.9L291.96 255.44" stroke="none" fill="#FF0000" fill-rule="nonzero" /><path id="259" transform="matrix(1 0 0 -1 0 842)" d="M397.2 231.38L397.14 232.34L397.02 233.24L397.02 233.18L396.78 234.08L396.78 234.02L396.48 234.86L396.54 234.8L395.7 236.36L395.7 236.3L395.16 237.02L395.22 236.96L394.62 237.62L394.68 237.56L394.02 238.1L393.3 238.64L393.36 238.64L392.64 239.12L392.7 239.06L391.86 239.42L391.02 239.72L391.08 239.72L390.18 239.96L390.24 239.9L389.34 240.08L389.4 240.08L387.54 240.08L387.66 240.08L386.76 239.9L386.76 239.96L385.86 239.72L385.92 239.72L385.08 239.42L385.14 239.42L384.36 239.06L384.42 239.12L383.64 238.64L382.92 238.1L382.98 238.1L382.32 237.56L382.38 237.62L381.78 236.96L381.78 237.02L381.3 236.3L380.82 235.52L380.88 235.58L380.52 234.8L380.16 233.96L380.22 234.08L379.86 232.28L379.86 232.34L379.8 231.38L379.8 231.44L379.86 230.54L379.86 230.6L380.04 229.64L380.04 229.7L380.22 228.86L380.16 228.92L380.88 227.24L380.82 227.3L381.78 225.86L381.78 225.92L382.38 225.26L382.32 225.32L382.98 224.72L382.92 224.78L382.32 223.94L381.66 224.54L381.6 224.6L381 225.26L380.94 225.32L379.98 226.76L379.92 226.82L379.2 228.5L379.2 228.62L379.02 229.46L378.84 230.42L378.84 230.48L378.78 231.38L378.78 231.44L378.84 232.4L378.84 232.46L379.02 233.36L379.2 234.26L379.2 234.38L379.56 235.22L379.62 235.22L379.98 236L379.98 236.06L380.46 236.84L380.94 237.56L381 237.62L381.6 238.28L381.66 238.34L382.32 238.88L382.32 238.94L383.04 239.48L383.1 239.48L383.88 239.96L383.94 239.96L384.72 240.32L384.72 240.38L385.56 240.68L385.62 240.68L386.52 240.92L386.58 240.92L387.48 241.1L389.52 241.1L390.42 240.92L391.32 240.68L391.38 240.68L392.22 240.38L392.28 240.38L393.12 240.02L393.18 239.96L393.9 239.48L394.62 238.94L394.68 238.88L395.34 238.34L395.4 238.28L396 237.62L396.54 236.9L396.6 236.84L397.44 235.28L397.44 235.22L397.74 234.38L397.74 234.32L397.98 233.42L398.04 233.36L398.16 232.46L398.16 232.4L398.22 231.44" stroke="none" fill="#FF0000" fill-rule="nonzero" /><path id="260" transform="matrix(1 0 0 -1 0 842)" d="M382.92 224.78L383.64 224.24L383.58 224.24L385.14 223.4L385.08 223.46L385.92 223.16L385.86 223.16L386.76 222.92L386.7 222.92L387.6 222.8L388.56 222.74L388.5 222.74L389.4 222.8L389.34 222.8L390.24 222.92L390.18 222.92L391.08 223.16L391.02 223.16L391.86 223.46L391.8 223.4L392.64 223.82L393.36 224.24L393.3 224.24L394.02 224.78L394.02 224.72L394.68 225.32L394.62 225.26L395.22 225.92L395.16 225.92L395.7 226.64L395.7 226.58L396.12 227.3L396.54 228.14L396.48 228.08L396.78 228.92L396.78 228.86L397.02 229.7L397.02 229.64L397.14 230.6L397.14 230.54L397.2 231.44L397.2 231.38L398.22 231.44L398.22 231.38L398.16 230.48L398.04 229.52L397.98 229.4L397.74 228.56L397.44 227.72L397.44 227.66L397.02 226.82L397.02 226.76L396.6 226.04L396.54 226.04L396 225.32L396 225.26L395.4 224.6L395.34 224.54L394.68 223.94L394.62 223.94L393.9 223.4L393.9 223.34L393.18 222.92L393.12 222.92L392.28 222.5L392.22 222.5L391.38 222.2L391.32 222.2L390.42 221.96L390.36 221.9L389.46 221.78L388.56 221.72L388.5 221.72L387.54 221.78L387.48 221.78L386.58 221.9L386.52 221.96L385.62 222.2L385.56 222.2L384.72 222.5L384.66 222.5L383.1 223.34L383.04 223.4L382.32 223.94" stroke="none" fill="#FF0000" fill-rule="nonzero" /><path id="261" transform="matrix(1 0 0 -1 0 842)" d="M401.7 231.26L402.18 231.26L402.18 232.28L401.7 232.28z" stroke="none" fill="#FF0000" fill-rule="nonzero" /><path id="262" transform="matrix(1 0 0 -1 0 842)" d="M402.18 231.26L432.66 231.26L432.66 232.28L402.18 232.28z" stroke="none" fill="#FF0000" fill-rule="nonzero" /><path id="268" transform="matrix(1 0 0 -1 0 842)" d="M258.84 261.74L259.32 261.74L259.32 262.76L258.84 262.76z" stroke="none" fill="#FF0000" fill-rule="nonzero" /><path id="269" transform="matrix(1 0 0 -1 0 842)" d="M259.32 261.74L286.44 261.74L286.44 262.76L259.32 262.76z" stroke="none" fill="#FF0000" fill-rule="nonzero" /></g></g></g></g></svg>