<svg xmlns="http://www.w3.org/2000/svg" xmlns:xlink="http://www.w3.org/1999/xlink" id="body_281" preserveAspectRatio="xMinYMin meet" viewBox="0 0 793 1123"><defs><clipPath id="1"><path id="" clip-rule="evenodd" transform="matrix(1 0 0 1 0 0)" d="M0 842L0 0L0 0L595 0L595 0L595 842L595 842L0 842z" /></clipPath><clipPath id="2"><path id="" clip-rule="evenodd" transform="matrix(1 0 0 1 0 0)" d="M216.96 77.03998L462.72 77.03998L462.72 77.03998L462.72 279.3L462.72 279.3L216.96 279.3z" /></clipPath><clipPath id="3"><path id="" clip-rule="evenodd" transform="matrix(1 0 0 1 0 0)" d="M215.94 76.02002L463.74 76.02002L463.74 76.02002L463.74 280.32L463.74 280.32L215.94 280.32z" /></clipPath><clipPath id="4"><path id="" clip-rule="evenodd" transform="matrix(1 0 0 1 0 0)" d="M0 0.02001953L595.2 0.02001953L595.2 0.02001953L595.2 842L595.2 842L0 842z" /></clipPath><clipPath id="5"><path id="" clip-rule="evenodd" transform="matrix(1 0 0 1 0 0)" d="M215.94 76.02002L463.74 76.02002L463.74 76.02002L463.74 280.32L463.74 280.32L215.94 280.32z" /></clipPath><clipPath id="6"><path id="" clip-rule="evenodd" transform="matrix(1 0 0 1 0 0)" d="M0 0.02001953L595.2 0.02001953L595.2 0.02001953L595.2 842L595.2 842L0 842z" /></clipPath><clipPath id="7"><path id="" clip-rule="evenodd" transform="matrix(1 0 0 1 0 0)" d="M216.96 366.3L449.28 366.3L449.28 366.3L449.28 606.96L449.28 606.96L216.96 606.96z" /></clipPath><clipPath id="8"><path id="" clip-rule="evenodd" transform="matrix(1 0 0 1 0 0)" d="M215.94 365.28L453.06 365.28L453.06 365.28L453.06 607.98L453.06 607.98L215.94 607.98z" /></clipPath><clipPath id="9"><path id="" clip-rule="evenodd" transform="matrix(1 0 0 1 0 0)" d="M0 0.02001953L595.2 0.02001953L595.2 0.02001953L595.2 842L595.2 842L0 842z" /></clipPath><clipPath id="10"><path id="" clip-rule="evenodd" transform="matrix(1 0 0 1 0 0)" d="M215.94 365.28L453.06 365.28L453.06 365.28L453.06 607.98L453.06 607.98L215.94 607.98z" /></clipPath><clipPath id="11"><path id="" clip-rule="evenodd" transform="matrix(1 0 0 1 0 0)" d="M0 0.02001953L595.2 0.02001953L595.2 0.02001953L595.2 842L595.2 842L0 842z" /></clipPath></defs><g transform="matrix(1.333333 0 0 1.333333 0 0)"><g clip-path="url(#1)"><g clip-path="url(#2)"><g clip-path="url(#3)"><g clip-path="url(#4)"><g transform="matrix(0.48 0 0 0.4792891 216.96 77.03998)"><g transform="matrix(1 0 0 1 0 0)"><image x="0" y="0" xlink:href="img_873.png" width="512" height="422" /></g></g></g></g></g><g clip-path="url(#5)"><g clip-path="url(#6)"><path id="245" transform="matrix(1 0 0 -1 0 842)" d="M341.16 609.26L341.04 609.38L341.04 609.38L340.92 609.44L340.92 609.44L340.8 609.56L340.8 609.56L340.62 609.62L340.62 609.62L340.5 609.68L340.5 609.68L340.38 609.68L340.38 609.68L340.2 609.74L340.2 609.74L339.78 609.74L339.78 609.74L339.54 609.62L339.54 609.62L339.36 609.56L339.36 609.56L339.12 609.44L339.12 609.44L338.88 609.2L338.88 609.2L338.76 608.96L338.76 608.96L338.64 608.84L338.64 608.84L338.64 608.72L338.64 608.72L338.58 608.54L338.58 608.54L338.58 608.42L338.58 608.42L338.52 608.3L338.52 608.3L338.52 608.12L338.52 608.12L338.58 608L338.58 608L338.58 607.88L338.58 607.88L338.64 607.7L338.64 607.7L338.82 607.34L338.82 607.34L339.06 607.1L339.06 607.1L339.18 607.04L339.18 607.04L339.3 606.92L339.3 606.92L339.42 606.86L339.42 606.86L339.6 606.8L339.6 606.8L339.72 606.8L339.72 606.8L339.84 606.74L339.84 606.74L340.26 606.74L340.26 606.74L340.44 606.8L340.44 606.8L340.56 606.86L340.56 606.86L340.68 606.92L340.68 606.92L340.8 606.98L340.8 606.98L340.98 607.04L340.98 607.04L341.1 607.16L341.1 607.16L341.16 607.28L341.16 607.28L341.28 607.4L341.28 607.4L341.4 607.64L341.4 607.64L341.46 607.76L341.46 607.76L341.52 607.94L341.52 607.94L341.52 608.48L341.52 608.48L341.46 608.6L341.46 608.6L341.46 608.78L341.46 608.78L341.4 608.9L341.4 608.9L341.34 609.02L341.34 609.02L341.22 609.14L341.22 609.14L341.16 609.26" stroke="none" fill="#FF0000" fill-rule="evenodd" /><path id="246" transform="matrix(1 0 0 -1 0 842)" d="M340.02 608.3L336.54 611.96L336.12 612.5L336.72 612.8L353.22 621.32L354.72 622.1L353.88 620.6L344.4 604.64L344.04 604.1L343.56 604.58L343.5 605.12L352.98 621.08L353.88 620.6L353.64 620.42L337.14 611.9L336.72 612.8L337.32 612.68L340.8 608.96" stroke="none" fill="#FF0000" fill-rule="nonzero" /><path id="247" transform="matrix(1 0 0 -1 0 842)" d="M343.56 604.58L340.02 608.3L340.8 608.96L344.34 605.24" stroke="none" fill="#FF0000" fill-rule="nonzero" /><path id="248" transform="matrix(1 0 0 -1 0 842)" d="M340.38 608.6L336.9 612.3199L336.9 612.3199L353.4 620.84L353.4 620.84L343.92 604.88" stroke="none" fill="#FF0000" fill-rule="evenodd" /><path id="249" transform="matrix(1 0 0 -1 0 842)" d="M313.2 584.9L312.12 583.88L314.16 581.72L315.24 582.7401" stroke="none" fill="#FF0000" fill-rule="nonzero" /><path id="250" transform="matrix(1 0 0 -1 0 842)" d="M339 609.32L340.08 610.34L342.12 608.18L341.04 607.16" stroke="none" fill="#FF0000" fill-rule="nonzero" /><path id="251" transform="matrix(1 0 0 -1 0 842)" d="M313.2 584.9L315.24 582.7401L341.04 607.16L339 609.32" stroke="none" fill="#FF0000" fill-rule="nonzero" /><path id="252" transform="matrix(1 0 0 -1 0 842)" d="M389.82 682.52L389.82 682.34L389.82 682.34L389.94 682.1L389.94 682.1L390 681.92L390 681.92L390.06 681.8L390.06 681.8L390.12 681.68L390.12 681.68L390.24 681.62L390.24 681.62L390.36 681.5L390.36 681.5L390.48 681.44L390.48 681.44L390.6 681.32L390.6 681.32L390.84 681.2L390.84 681.2L391.02 681.2L391.02 681.2L391.14 681.14L391.14 681.14L391.32 681.14L391.32 681.14L391.44 681.2L391.44 681.2L391.62 681.2L391.62 681.2L391.74 681.26L391.74 681.26L391.86 681.26L391.86 681.26L392.04 681.32L392.04 681.32L392.16 681.44L392.16 681.44L392.28 681.5L392.28 681.5L392.34 681.62L392.34 681.62L392.46 681.74L392.46 681.74L392.52 681.86L392.52 681.86L392.64 681.98L392.64 681.98L392.76 682.22L392.76 682.22L392.76 682.34L392.76 682.34L392.82 682.52L392.82 682.52L392.82 682.82L392.82 682.82L392.76 682.94L392.76 682.94L392.7 683.12L392.7 683.12L392.7 683.24L392.7 683.24L392.64 683.36L392.64 683.36L392.52 683.48L392.52 683.48L392.46 683.6L392.46 683.6L392.22 683.84L392.22 683.84L392.1 683.9L392.1 683.9L391.98 683.96L391.98 683.96L391.86 684.02L391.86 684.02L391.74 684.08L391.74 684.08L391.62 684.14L391.62 684.14L391.02 684.14L391.02 684.14L390.84 684.08L390.84 684.08L390.72 684.02L390.72 684.02L390.6 683.96L390.6 683.96L390.48 683.9L390.48 683.9L390.36 683.84L390.36 683.84L390.12 683.6L390.12 683.6L389.88 683.12L389.88 683.12L389.82 682.94L389.82 682.94L389.82 682.52" stroke="none" fill="#FF0000" fill-rule="evenodd" /><path id="253" transform="matrix(1 0 0 -1 0 842)" d="M391.26 682.7L391.8 677.6L391.86 676.94L391.2 677.06L372.9 680.3L371.16 680.6L372.78 681.26L390.06 688.16L390.72 688.4L390.78 687.74L390.48 687.2L373.2 680.3L372.78 681.26L373.08 681.26L391.38 678.02L391.2 677.06L390.78 677.48L390.24 682.58" stroke="none" fill="#FF0000" fill-rule="nonzero" /><path id="254" transform="matrix(1 0 0 -1 0 842)" d="M390.78 687.74L391.26 682.7L390.24 682.58L389.76 687.62" stroke="none" fill="#FF0000" fill-rule="nonzero" /><path id="255" transform="matrix(1 0 0 -1 0 842)" d="M390.78 682.64L391.32 677.54L391.32 677.54L373.02 680.78L373.02 680.78L390.3 687.68" stroke="none" fill="#FF0000" fill-rule="evenodd" /><path id="256" transform="matrix(1 0 0 -1 0 842)" d="M429.9 685.1L431.4 685.22L431.1 688.22L429.6 688.1" stroke="none" fill="#FF0000" fill-rule="nonzero" /><path id="257" transform="matrix(1 0 0 -1 0 842)" d="M391.5 681.14L390 681.02L389.7 684.02L391.2 684.14" stroke="none" fill="#FF0000" fill-rule="nonzero" /><path id="258" transform="matrix(1 0 0 -1 0 842)" d="M429.9 685.1L429.6 688.1L391.2 684.14L391.5 681.14" stroke="none" fill="#FF0000" fill-rule="nonzero" /></g></g><g clip-path="url(#7)"><g clip-path="url(#8)"><g clip-path="url(#9)"><g transform="matrix(0.4790103 0 0 0.4794024 216.96 366.3)"><g transform="matrix(1 0 0 1 0 0)"><image x="0" y="0" xlink:href="img_845.png" width="485" height="502" /></g></g></g></g></g><g clip-path="url(#10)"><g clip-path="url(#11)"><path id="262" transform="matrix(1 0 0 -1 0 842)" d="M332.7 307.46L332.58 307.58L332.58 307.58L332.34 307.7L332.34 307.7L332.16 307.7L332.16 307.7L332.04 307.76L332.04 307.76L331.44 307.76L331.44 307.76L331.08 307.58L331.08 307.58L330.9 307.52L330.9 307.52L330.84 307.4L330.84 307.4L330.6 307.16L330.6 307.16L330.54 307.04L330.54 307.04L330.42 306.92L330.42 306.92L330.36 306.8L330.36 306.8L330.36 306.68L330.36 306.68L330.3 306.5L330.3 306.5L330.3 306.08L330.3 306.08L330.36 305.96L330.36 305.96L330.36 305.78L330.36 305.78L330.48 305.54L330.48 305.54L330.6 305.42L330.6 305.42L330.66 305.3L330.66 305.3L330.9 305.06L330.9 305.06L331.26 304.88L331.26 304.88L331.44 304.82L331.44 304.82L331.56 304.82L331.56 304.82L331.68 304.76L331.68 304.76L331.98 304.76L331.98 304.76L332.16 304.82L332.16 304.82L332.28 304.88L332.28 304.88L332.4 304.88L332.4 304.88L332.52 305L332.52 305L332.76 305.12L332.76 305.12L333 305.36L333 305.36L333.06 305.48L333.06 305.48L333.12 305.6L333.12 305.6L333.18 305.78L333.18 305.78L333.24 305.9L333.24 305.9L333.3 306.02L333.3 306.02L333.3 306.5L333.3 306.5L333.24 306.62L333.24 306.62L333.24 306.74L333.24 306.74L333.18 306.86L333.18 306.86L333.12 307.04L333.12 307.04L333 307.16L333 307.16L332.94 307.28L332.94 307.28L332.82 307.34L332.82 307.34L332.7 307.46" stroke="none" fill="#FF0000" fill-rule="evenodd" /><path id="263" transform="matrix(1 0 0 -1 0 842)" d="M331.8 306.32L327.72 309.44L327.18 309.8L327.72 310.22L342.66 321.32L344.1 322.4L343.44 320.72L336.66 303.44L336.42 302.78L335.88 303.2L335.7 303.74L342.48 321.08L343.44 320.72L343.26 320.54L328.32 309.44L327.72 310.22L328.32 310.22L332.4 307.1" stroke="none" fill="#FF0000" fill-rule="nonzero" /><path id="264" transform="matrix(1 0 0 -1 0 842)" d="M335.88 303.2L331.8 306.32L332.4 307.1L336.48 303.98" stroke="none" fill="#FF0000" fill-rule="nonzero" /><path id="265" transform="matrix(1 0 0 -1 0 842)" d="M332.1 306.68L328.02 309.8L328.02 309.8L342.96 320.9L342.96 320.9L336.18 303.56" stroke="none" fill="#FF0000" fill-rule="evenodd" /><path id="266" transform="matrix(1 0 0 -1 0 842)" d="M313.62 284.96L312.72 283.76L315.12 281.96L316.02 283.16" stroke="none" fill="#FF0000" fill-rule="nonzero" /><path id="267" transform="matrix(1 0 0 -1 0 842)" d="M330.6 307.16L331.5 308.36L333.9 306.56L333 305.36" stroke="none" fill="#FF0000" fill-rule="nonzero" /><path id="268" transform="matrix(1 0 0 -1 0 842)" d="M313.62 284.96L316.02 283.16L333 305.36L330.6 307.16" stroke="none" fill="#FF0000" fill-rule="nonzero" /><path id="269" transform="matrix(1 0 0 -1 0 842)" d="M433.2 337.88L433.62 337.88L433.62 337.88L433.8 337.94L433.8 337.94L434.28 338.18L434.28 338.18L434.58 338.48L434.58 338.48L434.64 338.66L434.64 338.66L434.76 338.9L434.76 338.9L434.82 339.02L434.82 339.02L434.82 339.2L434.82 339.2L434.88 339.38L434.88 339.38L434.82 339.5L434.82 339.5L434.82 339.8L434.82 339.8L434.64 340.16L434.64 340.16L434.52 340.28L434.52 340.28L434.46 340.4L434.46 340.4L434.34 340.52L434.34 340.52L434.22 340.58L434.22 340.58L434.1 340.7L434.1 340.7L433.98 340.76L433.98 340.76L433.8 340.82L433.8 340.82L433.68 340.82L433.68 340.82L433.5 340.88L433.5 340.88L433.2 340.88L433.2 340.88L433.08 340.82L433.08 340.82L432.96 340.82L432.96 340.82L432.78 340.76L432.78 340.76L432.54 340.64L432.54 340.64L432.42 340.52L432.42 340.52L432.3 340.46L432.3 340.46L432.24 340.34L432.24 340.34L432.12 340.22L432.12 340.22L431.94 339.86L431.94 339.86L431.88 339.68L431.88 339.68L431.88 339.08L431.88 339.08L431.94 338.96L431.94 338.96L431.94 338.78L431.94 338.78L432 338.66L432 338.66L432.12 338.54L432.12 338.54L432.18 338.42L432.18 338.42L432.48 338.12L432.48 338.12L432.72 338L432.72 338L432.9 337.94L432.9 337.94L433.02 337.88L433.02 337.88L433.2 337.88" stroke="none" fill="#FF0000" fill-rule="evenodd" /><path id="270" transform="matrix(1 0 0 -1 0 842)" d="M433.38 339.38L438.42 338.78L439.08 338.72L438.84 338.06L431.76 320.9L431.04 319.28L430.8 321.02L427.74 339.32L427.62 339.98L428.28 339.92L428.7 339.5L431.76 321.2L430.8 321.02L430.8 321.32L437.88 338.48L438.84 338.06L438.3 337.76L433.26 338.36" stroke="none" fill="#FF0000" fill-rule="nonzero" /><path id="271" transform="matrix(1 0 0 -1 0 842)" d="M428.28 339.92L433.38 339.38L433.26 338.36L428.16 338.9" stroke="none" fill="#FF0000" fill-rule="nonzero" /><path id="272" transform="matrix(1 0 0 -1 0 842)" d="M433.32 338.9L438.36 338.3L438.36 338.3L431.28 321.14L431.28 321.14L428.22 339.44" stroke="none" fill="#FF0000" fill-rule="evenodd" /><path id="273" transform="matrix(1 0 0 -1 0 842)" d="M438.54 371.66L438.72 373.16L435.72 373.52L435.54 372.02" stroke="none" fill="#FF0000" fill-rule="nonzero" /><path id="274" transform="matrix(1 0 0 -1 0 842)" d="M434.88 339.2L434.7 337.7L431.7 338.06L431.88 339.56" stroke="none" fill="#FF0000" fill-rule="nonzero" /><path id="275" transform="matrix(1 0 0 -1 0 842)" d="M438.54 371.66L435.54 372.02L431.88 339.56L434.88 339.2" stroke="none" fill="#FF0000" fill-rule="nonzero" /><path id="276" transform="matrix(1 0 0 -1 0 842)" d="M384.84 277.04L384.78 277.16L384.78 277.16L384.54 277.4L384.54 277.4L384.42 277.46L384.42 277.46L384.3 277.58L384.3 277.58L383.94 277.76L383.94 277.76L383.76 277.76L383.76 277.76L383.64 277.82L383.64 277.82L383.52 277.82L383.52 277.82L383.34 277.76L383.34 277.76L383.22 277.76L383.22 277.76L383.04 277.7L383.04 277.7L382.68 277.52L382.68 277.52L382.56 277.4L382.56 277.4L382.44 277.34L382.44 277.34L382.32 277.22L382.32 277.22L382.2 276.98L382.2 276.98L382.14 276.8L382.14 276.8L382.08 276.68L382.08 276.68L382.08 276.56L382.08 276.56L382.02 276.38L382.02 276.38L382.02 276.14L382.02 276.14L382.08 275.96L382.08 275.96L382.08 275.84L382.08 275.84L382.14 275.66L382.14 275.66L382.26 275.54L382.26 275.54L382.38 275.3L382.38 275.3L382.5 275.18L382.5 275.18L382.62 275.12L382.62 275.12L382.74 275L382.74 275L382.98 274.88L382.98 274.88L383.16 274.82L383.16 274.82L383.88 274.82L383.88 274.82L384.12 274.94L384.12 274.94L384.3 275L384.3 275L384.42 275.06L384.42 275.06L384.72 275.36L384.72 275.36L384.78 275.48L384.78 275.48L384.9 275.66L384.9 275.66L384.96 275.78L384.96 275.78L384.96 275.9L384.96 275.9L385.02 276.02L385.02 276.02L385.02 276.62L385.02 276.62L384.96 276.74L384.96 276.74L384.9 276.92L384.9 276.92L384.84 277.04" stroke="none" fill="#FF0000" fill-rule="evenodd" /><path id="277" transform="matrix(1 0 0 -1 0 842)" d="M383.52 276.32L381 280.76L380.7 281.36L381.36 281.48L399.42 285.92L401.1 286.34L399.84 285.14L386.94 271.82L386.46 271.34L386.1 271.88L386.16 272.48L399.12 285.8L399.84 285.14L399.6 284.96L381.54 280.52L381.36 281.48L381.9 281.24L384.42 276.8" stroke="none" fill="#FF0000" fill-rule="nonzero" /><path id="278" transform="matrix(1 0 0 -1 0 842)" d="M386.1 271.88L383.52 276.32L384.42 276.8L387 272.36" stroke="none" fill="#FF0000" fill-rule="nonzero" /><path id="279" transform="matrix(1 0 0 -1 0 842)" d="M383.94 276.56L381.42 281L381.42 281L399.48 285.44L399.48 285.44L386.52 272.12" stroke="none" fill="#FF0000" fill-rule="evenodd" /><path id="280" transform="matrix(1 0 0 -1 0 842)" d="M342.6 254.54L341.34 253.82L342.84 251.24L344.1 251.96" stroke="none" fill="#FF0000" fill-rule="nonzero" /><path id="281" transform="matrix(1 0 0 -1 0 842)" d="M382.8 277.58L384.06 278.3L385.56 275.72L384.3 275" stroke="none" fill="#FF0000" fill-rule="nonzero" /><path id="282" transform="matrix(1 0 0 -1 0 842)" d="M342.6 254.54L344.1 251.96L384.3 275L382.8 277.58" stroke="none" fill="#FF0000" fill-rule="nonzero" /></g></g></g></g></svg>