<svg xmlns="http://www.w3.org/2000/svg" xmlns:xlink="http://www.w3.org/1999/xlink" id="body_252" preserveAspectRatio="xMinYMin meet" viewBox="0 0 793 1123"><defs><clipPath id="1"><path id="" clip-rule="evenodd" transform="matrix(1 0 0 1 0 0)" d="M0 842L0 0L0 0L595 0L595 0L595 842L595 842L0 842z" /></clipPath><clipPath id="2"><path id="" clip-rule="evenodd" transform="matrix(1 0 0 1 0 0)" d="M45.96 117L163.26 117L163.26 117L163.26 259.14L163.26 259.14L45.96 259.14z" /></clipPath><clipPath id="3"><path id="" clip-rule="evenodd" transform="matrix(1 0 0 1 0 0)" d="M44.94 116.04L547.86 116.04L547.86 116.04L547.86 260.16L547.86 260.16L44.94 260.16z" /></clipPath><clipPath id="4"><path id="" clip-rule="evenodd" transform="matrix(1 0 0 1 0 0)" d="M0 0.02001953L595.2 0.02001953L595.2 0.02001953L595.2 842L595.2 842L0 842z" /></clipPath><clipPath id="5"><path id="" clip-rule="evenodd" transform="matrix(1 0 0 1 0 0)" d="M213.66 121.98L350.7 121.98L350.7 121.98L350.7 254.22L350.7 254.22L213.66 254.22z" /></clipPath><clipPath id="6"><path id="" clip-rule="evenodd" transform="matrix(1 0 0 1 0 0)" d="M44.94 116.04L547.86 116.04L547.86 116.04L547.86 260.16L547.86 260.16L44.94 260.16z" /></clipPath><clipPath id="7"><path id="" clip-rule="evenodd" transform="matrix(1 0 0 1 0 0)" d="M0 0.02001953L595.2 0.02001953L595.2 0.02001953L595.2 842L595.2 842L0 842z" /></clipPath><clipPath id="8"><path id="" clip-rule="evenodd" transform="matrix(1 0 0 1 0 0)" d="M402.6 125.7L546.9 125.7L546.9 125.7L546.9 250.5L546.9 250.5L402.6 250.5z" /></clipPath><clipPath id="9"><path id="" clip-rule="evenodd" transform="matrix(1 0 0 1 0 0)" d="M44.94 116.04L547.86 116.04L547.86 116.04L547.86 260.16L547.86 260.16L44.94 260.16z" /></clipPath><clipPath id="10"><path id="" clip-rule="evenodd" transform="matrix(1 0 0 1 0 0)" d="M0 0.02001953L595.2 0.02001953L595.2 0.02001953L595.2 842L595.2 842L0 842z" /></clipPath><clipPath id="11"><path id="" clip-rule="evenodd" transform="matrix(1 0 0 1 0 0)" d="M44.94 116.04L547.86 116.04L547.86 116.04L547.86 260.16L547.86 260.16L44.94 260.16z" /></clipPath><clipPath id="12"><path id="" clip-rule="evenodd" transform="matrix(1 0 0 1 0 0)" d="M0 0.02001953L595.2 0.02001953L595.2 0.02001953L595.2 842L595.2 842L0 842z" /></clipPath><clipPath id="13"><path id="" clip-rule="evenodd" transform="matrix(1 0 0 1 0 0)" d="M225.96 382.14L348.54 382.14L348.54 382.14L348.54 489.24L348.54 489.24L225.96 489.24z" /></clipPath><clipPath id="14"><path id="" clip-rule="evenodd" transform="matrix(1 0 0 1 0 0)" d="M224.94 381.12L504.24 381.12L504.24 381.12L504.24 490.2L504.24 490.2L224.94 490.2z" /></clipPath><clipPath id="15"><path id="" clip-rule="evenodd" transform="matrix(1 0 0 1 0 0)" d="M0 0.02001953L595.2 0.02001953L595.2 0.02001953L595.2 842L595.2 842L0 842z" /></clipPath><clipPath id="16"><path id="" clip-rule="evenodd" transform="matrix(1 0 0 1 0 0)" d="M395.58 382.14L503.22 382.14L503.22 382.14L503.22 487.62L503.22 487.62L395.58 487.62z" /></clipPath><clipPath id="17"><path id="" clip-rule="evenodd" transform="matrix(1 0 0 1 0 0)" d="M224.94 381.12L504.24 381.12L504.24 381.12L504.24 490.2L504.24 490.2L224.94 490.2z" /></clipPath><clipPath id="18"><path id="" clip-rule="evenodd" transform="matrix(1 0 0 1 0 0)" d="M0 0.02001953L595.2 0.02001953L595.2 0.02001953L595.2 842L595.2 842L0 842z" /></clipPath><clipPath id="19"><path id="" clip-rule="evenodd" transform="matrix(1 0 0 1 0 0)" d="M224.94 381.12L504.24 381.12L504.24 381.12L504.24 490.2L504.24 490.2L224.94 490.2z" /></clipPath><clipPath id="20"><path id="" clip-rule="evenodd" transform="matrix(1 0 0 1 0 0)" d="M0 0.02001953L595.2 0.02001953L595.2 0.02001953L595.2 842L595.2 842L0 842z" /></clipPath><clipPath id="21"><path id="" clip-rule="evenodd" transform="matrix(1 0 0 1 0 0)" d="M225.96 642.18L388.38 642.18L388.38 642.18L388.38 730.32L388.38 730.32L225.96 730.32z" /></clipPath><clipPath id="22"><path id="" clip-rule="evenodd" transform="matrix(1 0 0 1 0 0)" d="M224.94 641.16L552.9 641.16L552.9 641.16L552.9 739.26L552.9 739.26L224.94 739.26z" /></clipPath><clipPath id="23"><path id="" clip-rule="evenodd" transform="matrix(1 0 0 1 0 0)" d="M0 0.02001953L595.2 0.02001953L595.2 0.02001953L595.2 842L595.2 842L0 842z" /></clipPath><clipPath id="24"><path id="" clip-rule="evenodd" transform="matrix(1 0 0 1 0 0)" d="M421.74 642.18L551.88 642.18L551.88 642.18L551.88 738.24L551.88 738.24L421.74 738.24z" /></clipPath><clipPath id="25"><path id="" clip-rule="evenodd" transform="matrix(1 0 0 1 0 0)" d="M224.94 641.16L552.9 641.16L552.9 641.16L552.9 739.26L552.9 739.26L224.94 739.26z" /></clipPath><clipPath id="26"><path id="" clip-rule="evenodd" transform="matrix(1 0 0 1 0 0)" d="M0 0.02001953L595.2 0.02001953L595.2 0.02001953L595.2 842L595.2 842L0 842z" /></clipPath><clipPath id="27"><path id="" clip-rule="evenodd" transform="matrix(1 0 0 1 0 0)" d="M224.94 641.16L552.9 641.16L552.9 641.16L552.9 739.26L552.9 739.26L224.94 739.26z" /></clipPath><clipPath id="28"><path id="" clip-rule="evenodd" transform="matrix(1 0 0 1 0 0)" d="M0 0.02001953L595.2 0.02001953L595.2 0.02001953L595.2 842L595.2 842L0 842z" /></clipPath></defs><g transform="matrix(1.333333 0 0 1.333333 0 0)"><g clip-path="url(#1)"><g clip-path="url(#2)"><g clip-path="url(#3)"><g clip-path="url(#4)"><g transform="matrix(0.4794489 0 0 0.4785858 45.96 117)"><g transform="matrix(1 0 0 1 0 0)"><image x="0" y="0" xlink:href="img_742.png" width="245" height="297" /></g></g></g></g></g><g clip-path="url(#5)"><g clip-path="url(#6)"><g clip-path="url(#7)"><g transform="matrix(0.4791608 0 0 0.4791305 213.66 121.98)"><g transform="matrix(1 0 0 1 0 0)"><image x="0" y="0" xlink:href="img_743.png" width="286" height="276" /></g></g></g></g></g><g clip-path="url(#8)"><g clip-path="url(#9)"><g clip-path="url(#10)"><g transform="matrix(0.479402 0 0 0.48 402.6 125.7)"><g transform="matrix(1 0 0 1 0 0)"><image x="0" y="0" xlink:href="img_744.png" width="301" height="260" /></g></g></g></g></g><g clip-path="url(#11)"><g clip-path="url(#12)"><path id="351" transform="matrix(1 0 0 -1 0 842)" d="M204.66 653.9L204.66 654.14L204.66 654.14L204.6 654.32L204.6 654.32L204.48 654.5L204.48 654.5L204.24 654.7401L204.24 654.7401L204.06 654.86L204.06 654.86L203.88 654.92L203.88 654.92L203.46 654.92L203.46 654.92L203.28 654.86L203.28 654.86L203.1 654.7401L203.1 654.7401L202.86 654.5L202.86 654.5L202.74 654.32L202.74 654.32L202.68 654.14L202.68 654.14L202.68 653.72L202.68 653.72L202.74 653.54L202.74 653.54L202.86 653.36L202.86 653.36L202.98 653.2401L202.98 653.2401L203.1 653.12L203.1 653.12L203.28 653L203.28 653L203.46 652.94L203.46 652.94L203.88 652.94L203.88 652.94L204.06 653L204.06 653L204.24 653.12L204.24 653.12L204.36 653.2401L204.36 653.2401L204.48 653.36L204.48 653.36L204.6 653.54L204.6 653.54L204.66 653.72L204.66 653.72L204.66 653.9" stroke="none" fill="#000000" fill-rule="evenodd" /><path id="352" transform="matrix(1 0 0 -1 0 842)" d="M203.7 653.9L203.7 658.46L204.48 657.98L210.78 654.32L211.56 653.9L204.42 649.82L203.7 649.4L203.7 650.3L203.94 650.72L210.24 654.32L210.72 653.42L210.24 653.42L203.94 657.08L204.48 657.98L204.72 657.56L204.72 653.9" stroke="none" fill="#000000" fill-rule="nonzero" /><path id="353" transform="matrix(1 0 0 -1 0 842)" d="M203.7 650.3L204.72 650.3L204.72 653.9L203.7 653.9z" stroke="none" fill="#000000" fill-rule="nonzero" /><path id="354" transform="matrix(1 0 0 -1 0 842)" d="M204.18 653.9L204.18 657.56L204.18 657.56L210.48 653.9L210.48 653.9L204.18 650.3" stroke="none" fill="#000000" fill-rule="evenodd" /><path id="355" transform="matrix(1 0 0 -1 0 842)" d="M166.26 652.88L167.22 652.88L167.22 654.86L166.26 654.86z" stroke="none" fill="#000000" fill-rule="nonzero" /><path id="356" transform="matrix(1 0 0 -1 0 842)" d="M167.22 652.88L204.6 652.88L204.6 654.86L167.22 654.86z" stroke="none" fill="#000000" fill-rule="nonzero" /><path id="357" transform="matrix(1 0 0 -1 0 842)" d="M391.68 653.9L391.68 654.14L391.68 654.14L391.62 654.32L391.62 654.32L391.5 654.5L391.5 654.5L391.26 654.7401L391.26 654.7401L391.08 654.86L391.08 654.86L390.9 654.92L390.9 654.92L390.48 654.92L390.48 654.92L390.3 654.86L390.3 654.86L389.94 654.62L389.94 654.62L389.82 654.5L389.82 654.5L389.7 654.14L389.7 654.14L389.7 653.72L389.7 653.72L389.76 653.54L389.76 653.54L389.82 653.36L389.82 653.36L389.94 653.2401L389.94 653.2401L390.3 653L390.3 653L390.48 652.94L390.48 652.94L390.9 652.94L390.9 652.94L391.08 653L391.08 653L391.26 653.12L391.26 653.12L391.38 653.2401L391.38 653.2401L391.5 653.36L391.5 653.36L391.62 653.54L391.62 653.54L391.68 653.72L391.68 653.72L391.68 653.9" stroke="none" fill="#000000" fill-rule="evenodd" /><path id="358" transform="matrix(1 0 0 -1 0 842)" d="M390.72 653.9L390.72 658.46L391.5 657.98L397.74 654.32L398.52 653.9L397.68 653.42L391.44 649.82L390.72 649.4L390.72 650.3L390.96 650.72L397.2 654.32L397.68 653.42L397.2 653.42L390.96 657.08L391.5 657.98L391.74 657.56L391.74 653.9" stroke="none" fill="#000000" fill-rule="nonzero" /><path id="359" transform="matrix(1 0 0 -1 0 842)" d="M390.72 650.3L391.74 650.3L391.74 653.9L390.72 653.9z" stroke="none" fill="#000000" fill-rule="nonzero" /><path id="360" transform="matrix(1 0 0 -1 0 842)" d="M391.2 653.9L391.2 657.56L391.2 657.56L397.44 653.9L397.44 653.9L391.2 650.3" stroke="none" fill="#000000" fill-rule="evenodd" /><path id="361" transform="matrix(1 0 0 -1 0 842)" d="M353.28 652.88L354.24 652.88L354.24 654.86L353.28 654.86z" stroke="none" fill="#000000" fill-rule="nonzero" /><path id="362" transform="matrix(1 0 0 -1 0 842)" d="M354.24 652.88L391.62 652.88L391.62 654.86L354.24 654.86z" stroke="none" fill="#000000" fill-rule="nonzero" /></g></g><g clip-path="url(#13)"><g clip-path="url(#14)"><g clip-path="url(#15)"><g transform="matrix(0.4788281 0 0 0.478125 225.96 382.14)"><g transform="matrix(1 0 0 1 0 0)"><image x="0" y="0" xlink:href="img_745.png" width="256" height="224" /></g></g></g></g></g><g clip-path="url(#16)"><g clip-path="url(#17)"><g clip-path="url(#18)"><g transform="matrix(0.4784 0 0 0.4794545 395.58 382.14)"><g transform="matrix(1 0 0 1 0 0)"><image x="0" y="0" xlink:href="img_746.png" width="225" height="220" /></g></g></g></g></g><g clip-path="url(#19)"><g clip-path="url(#20)"><path id="404" transform="matrix(1 0 0 -1 0 842)" d="M384.9 407.3L384.9 407.54L384.9 407.54L384.84 407.72L384.84 407.72L384.78 407.84L384.78 407.84L384.66 408.02L384.66 408.02L384.48 408.14L384.48 408.14L383.94 408.32L383.94 408.32L383.7 408.26L383.7 408.26L383.34 408.14L383.34 408.14L383.22 408.02L383.22 408.02L383.1 407.84L383.1 407.84L382.98 407.72L382.98 407.72L382.92 407.54L382.92 407.54L382.92 407.12L382.92 407.12L382.98 406.94L382.98 406.94L383.22 406.58L383.22 406.58L383.34 406.46L383.34 406.46L383.7 406.34L383.7 406.34L383.94 406.28L383.94 406.28L384.48 406.46L384.48 406.46L384.66 406.58L384.66 406.58L384.78 406.76L384.78 406.76L384.84 406.94L384.84 406.94L384.9 407.12L384.9 407.12L384.9 407.3" stroke="none" fill="#000000" fill-rule="evenodd" /><path id="405" transform="matrix(1 0 0 -1 0 842)" d="M383.94 407.3L383.94 411.86L384.72 411.38L391.02 407.72L391.8 407.3L384.66 403.22L383.94 402.8L383.94 403.7L384.18 404.12L390.48 407.72L390.96 406.82L390.48 406.82L384.18 410.48L384.72 411.38L384.96 410.96L384.96 407.3" stroke="none" fill="#000000" fill-rule="nonzero" /><path id="406" transform="matrix(1 0 0 -1 0 842)" d="M383.94 403.7L384.96 403.7L384.96 407.3L383.94 407.3z" stroke="none" fill="#000000" fill-rule="nonzero" /><path id="407" transform="matrix(1 0 0 -1 0 842)" d="M384.42 407.3L384.42 410.96L384.42 410.96L390.72 407.3L390.72 407.3L384.42 403.7" stroke="none" fill="#000000" fill-rule="evenodd" /><path id="408" transform="matrix(1 0 0 -1 0 842)" d="M351 406.28L351.96 406.28L351.96 408.26L351 408.26z" stroke="none" fill="#000000" fill-rule="nonzero" /><path id="409" transform="matrix(1 0 0 -1 0 842)" d="M351.96 406.28L384.9 406.28L384.9 408.26L351.96 408.26z" stroke="none" fill="#000000" fill-rule="nonzero" /></g></g><g clip-path="url(#21)"><g clip-path="url(#22)"><g clip-path="url(#23)"><g transform="matrix(0.479115 0 0 0.4790218 225.96 642.18)"><g transform="matrix(1 0 0 1 0 0)"><image x="0" y="0" xlink:href="img_747.png" width="339" height="184" /></g></g></g></g></g><g clip-path="url(#24)"><g clip-path="url(#25)"><g clip-path="url(#26)"><g transform="matrix(0.4802214 0 0 0.4803 421.74 642.18)"><g transform="matrix(1 0 0 1 0 0)"><image x="0" y="0" xlink:href="img_748.png" width="271" height="200" /></g></g></g></g></g><g clip-path="url(#27)"><g clip-path="url(#28)"><path id="412" transform="matrix(1 0 0 -1 0 842)" d="M412.62 151.76L412.62 151.94L412.62 151.94L412.56 152.12L412.56 152.12L412.5 152.3L412.5 152.3L412.38 152.48L412.38 152.48L412.2 152.6L412.2 152.6L411.66 152.78L411.66 152.78L411.42 152.72L411.42 152.72L411.06 152.6L411.06 152.6L410.94 152.48L410.94 152.48L410.7 152.12L410.7 152.12L410.64 151.94L410.64 151.94L410.64 151.58L410.64 151.58L410.7 151.34L410.7 151.34L410.82 151.22L410.82 151.22L410.94 151.04L410.94 151.04L411.06 150.92L411.06 150.92L411.42 150.8L411.42 150.8L411.66 150.74L411.66 150.74L412.2 150.92L412.2 150.92L412.38 151.04L412.38 151.04L412.5 151.22L412.5 151.22L412.56 151.34L412.56 151.34L412.62 151.58L412.62 151.58L412.62 151.76" stroke="none" fill="#000000" fill-rule="evenodd" /><path id="413" transform="matrix(1 0 0 -1 0 842)" d="M411.66 151.76L411.66 156.32L412.44 155.84L418.74 152.18L419.58 151.76L418.74 151.28L412.44 147.62L411.66 147.14L411.66 148.1L411.9 148.52L418.2 152.18L418.74 151.28L418.2 151.28L411.9 154.94L412.44 155.84L412.68 155.42L412.68 151.76" stroke="none" fill="#000000" fill-rule="nonzero" /><path id="414" transform="matrix(1 0 0 -1 0 842)" d="M411.66 148.1L412.68 148.1L412.68 151.76L411.66 151.76z" stroke="none" fill="#000000" fill-rule="nonzero" /><path id="415" transform="matrix(1 0 0 -1 0 842)" d="M412.14 151.76L412.14 155.42L412.14 155.42L418.44 151.76L418.44 151.76L412.14 148.1" stroke="none" fill="#000000" fill-rule="evenodd" /><path id="416" transform="matrix(1 0 0 -1 0 842)" d="M390.54 150.74L391.5 150.74L391.5 152.72L390.54 152.72z" stroke="none" fill="#000000" fill-rule="nonzero" /><path id="417" transform="matrix(1 0 0 -1 0 842)" d="M391.5 150.74L412.62 150.74L412.62 152.72L391.5 152.72z" stroke="none" fill="#000000" fill-rule="nonzero" /></g></g></g></g></svg>