<svg xmlns="http://www.w3.org/2000/svg" xmlns:xlink="http://www.w3.org/1999/xlink" id="body_193" preserveAspectRatio="xMinYMin meet" viewBox="0 0 793 1123"><defs><clipPath id="1"><path id="" clip-rule="evenodd" transform="matrix(1 0 0 1 0 0)" d="M0 842L0 0L0 0L595 0L595 0L595 842L595 842L0 842z" /></clipPath><clipPath id="2"><path id="" clip-rule="evenodd" transform="matrix(1 0 0 1 0 0)" d="M189.36 357.96L202.98 357.96L202.98 357.96L202.98 372.36L202.98 372.36L189.36 372.36z" /></clipPath><clipPath id="3"><path id="" clip-rule="evenodd" transform="matrix(1 0 0 1 0 0)" d="M0 0.02001953L595.2 0.02001953L595.2 0.02001953L595.2 842L595.2 842L0 842z" /></clipPath><clipPath id="4"><path id="" clip-rule="evenodd" transform="matrix(1 0 0 1 0 0)" d="M189.36 359.16L203.34 359.16L203.34 359.16L203.34 371.16L203.34 371.16L189.36 371.16z" /></clipPath><clipPath id="5"><path id="" clip-rule="evenodd" transform="matrix(1 0 0 1 0 0)" d="M189.36 357.96L202.98 357.96L202.98 357.96L202.98 372.36L202.98 372.36L189.36 372.36z" /></clipPath><clipPath id="6"><path id="" clip-rule="evenodd" transform="matrix(1 0 0 1 0 0)" d="M0 0.02001953L595.2 0.02001953L595.2 0.02001953L595.2 842L595.2 842L0 842z" /></clipPath></defs><g transform="matrix(1.333333 0 0 1.333333 0 0)"><g clip-path="url(#1)"><path id="348" transform="matrix(1 0 0 -1 0 842)" d="M185.34 312.14L206.94 312.14L206.94 488.06L185.34 488.06z" stroke="none" fill="#FFFFFF" fill-rule="nonzero" /><g clip-path="url(#2)"><g clip-path="url(#3)"><path id="349" transform="matrix(1 0 0 -1 0 842)" d="M189.36 469.64L202.98 469.64L202.98 484.04L189.36 484.04z" stroke="none" fill="#FFFFFF" fill-rule="nonzero" /></g></g><g clip-path="url(#4)"><g clip-path="url(#5)"><g clip-path="url(#6)"><path id="350" transform="matrix(1 0 0 -1 0 842)" d="M196.679 481.752L202.484 471.758C 202.539 471.664 202.539 471.555 202.485 471.461C 202.43 471.366 202.337 471.312 202.227 471.312L202.227 471.312L190.617 471.312C 190.508 471.312 190.414 471.366 190.359 471.46C 190.305 471.555 190.305 471.664 190.36 471.758L190.36 471.758L196.165 481.752C 196.22 481.846 196.313 481.9 196.422 481.9C 196.531 481.9 196.624 481.846 196.679 481.752z" stroke="#000000" stroke-width="0.5" fill="#FFFF00" fill-rule="evenodd" /><path id="351" transform="matrix(1 0 0 -1 0 842)" d="M196.43 473.903C 196.662 473.903 196.861 473.821 197.025 473.656C 197.19 473.491 197.273 473.29 197.273 473.056C 197.273 472.823 197.19 472.624 197.025 472.459C 196.861 472.294 196.662 472.212 196.43 472.212C 196.197 472.212 195.998 472.294 195.833 472.459C 195.669 472.624 195.586 472.823 195.586 473.056C 195.586 473.286 195.668 473.487 195.831 473.653C 195.995 473.819 196.194 473.903 196.43 473.903M196.538 474.647L196.311 474.647C 196.286 475.043 196.206 475.521 196.071 476.084L196.071 476.084L195.799 477.217C 195.638 477.897 195.556 478.384 195.556 478.681C 195.556 478.947 195.636 479.162 195.794 479.326C 195.954 479.489 196.163 479.569 196.419 479.569C 196.67 479.569 196.876 479.487 197.041 479.322C 197.206 479.159 197.288 478.949 197.288 478.695C 197.288 478.432 197.201 477.94 197.028 477.217L197.028 477.217L196.753 476.084C 196.655 475.681 196.584 475.203 196.538 474.647z" stroke="none" fill="#000000" fill-rule="nonzero" /></g></g></g><path id="352" transform="matrix(1 0 0 -1 0 842)" d="M206.94 312.14L224.94 312.14L224.94 488.06L206.94 488.06z" stroke="none" fill="#FFFFFF" fill-rule="nonzero" /><path id="353" transform="matrix(1 0 0 -1 0 842)" d="M224.94 488.06L558 488.06L558 312.14L224.94 312.14" stroke="none" fill="#ECF5FC" fill-rule="nonzero" /></g></g></svg>