<svg xmlns="http://www.w3.org/2000/svg" xmlns:xlink="http://www.w3.org/1999/xlink" id="body_52" preserveAspectRatio="xMinYMin meet" viewBox="0 0 793 1123"><defs><clipPath id="1"><path id="" clip-rule="evenodd" transform="matrix(1 0 0 1 0 0)" d="M0 842L0 0L0 0L595 0L595 0L595 842L595 842L0 842z" /></clipPath><clipPath id="2"><path id="" clip-rule="evenodd" transform="matrix(1 0 0 1 0 0)" d="M299.34 77.03998L469.08 77.03998L469.08 77.03998L469.08 352.98L469.08 352.98L299.34 352.98z" /></clipPath><clipPath id="3"><path id="" clip-rule="evenodd" transform="matrix(1 0 0 1 0 0)" d="M224.94 76.02002L547.56 76.02002L547.56 76.02002L547.56 354L547.56 354L224.94 354z" /></clipPath><clipPath id="4"><path id="" clip-rule="evenodd" transform="matrix(1 0 0 1 0 0)" d="M0 0.02001953L595.2 0.02001953L595.2 0.02001953L595.2 842L595.2 842L0 842z" /></clipPath><clipPath id="5"><path id="" clip-rule="evenodd" transform="matrix(1 0 0 1 0 0)" d="M224.94 76.02002L547.56 76.02002L547.56 76.02002L547.56 354L547.56 354L224.94 354z" /></clipPath><clipPath id="6"><path id="" clip-rule="evenodd" transform="matrix(1 0 0 1 0 0)" d="M0 0.02001953L595.2 0.02001953L595.2 0.02001953L595.2 842L595.2 842L0 842z" /></clipPath><clipPath id="7"><path id="" clip-rule="evenodd" transform="matrix(1 0 0 1 0 0)" d="M124.56 482.94L202.98 482.94L202.98 482.94L202.98 497.34L202.98 497.34L124.56 497.34z" /></clipPath><clipPath id="8"><path id="" clip-rule="evenodd" transform="matrix(1 0 0 1 0 0)" d="M0 0.02001953L595.2 0.02001953L595.2 0.02001953L595.2 842L595.2 842L0 842z" /></clipPath><clipPath id="9"><path id="" clip-rule="evenodd" transform="matrix(1 0 0 1 0 0)" d="M124.98 483.42L198.36 483.42L198.36 483.42L198.36 497.22L198.36 497.22L124.98 497.22z" /></clipPath><clipPath id="10"><path id="" clip-rule="evenodd" transform="matrix(1 0 0 1 0 0)" d="M124.56 482.94L202.98 482.94L202.98 482.94L202.98 497.34L202.98 497.34L124.56 497.34z" /></clipPath><clipPath id="11"><path id="" clip-rule="evenodd" transform="matrix(1 0 0 1 0 0)" d="M0 0.02001953L595.2 0.02001953L595.2 0.02001953L595.2 842L595.2 842L0 842z" /></clipPath></defs><g transform="matrix(1.333333 0 0 1.333333 0 0)"><g clip-path="url(#1)"><g clip-path="url(#2)"><g clip-path="url(#3)"><g clip-path="url(#4)"><g transform="matrix(0.4794915 0 0 0.4798957 299.34 77.04004)"><g transform="matrix(1 0 0 1 0 0)"><image x="0" y="0" xlink:href="img_50.png" width="354" height="575" /></g></g></g></g></g><g clip-path="url(#5)"><g clip-path="url(#6)"><path id="264" transform="matrix(1 0 0 -1 0 842)" d="M472.98 593.54L473.46 593.54L473.46 594.56L472.98 594.56z" stroke="none" fill="#000000" fill-rule="nonzero" /><path id="265" transform="matrix(1 0 0 -1 0 842)" d="M378.3 593L378.78 593L378.78 594.02L378.3 594.02z" stroke="none" fill="#000000" fill-rule="nonzero" /><path id="266" transform="matrix(1 0 0 -1 0 842)" d="M472.98 593.54L472.98 594.56L378.78 594.02L378.78 593" stroke="none" fill="#000000" fill-rule="nonzero" /><path id="273" transform="matrix(1 0 0 -1 0 842)" d="M289.68 636.44L290.16 636.44L290.16 637.46L289.68 637.46z" stroke="none" fill="#000000" fill-rule="nonzero" /><path id="274" transform="matrix(1 0 0 -1 0 842)" d="M360.96 636.74L361.44 636.74L361.44 637.76L360.96 637.76z" stroke="none" fill="#000000" fill-rule="nonzero" /><path id="275" transform="matrix(1 0 0 -1 0 842)" d="M290.16 637.46L290.16 636.44L360.96 636.7401L360.96 637.76" stroke="none" fill="#000000" fill-rule="nonzero" /><path id="283" transform="matrix(1 0 0 -1 0 842)" d="M288.48 551.9L288.96 551.9L288.96 552.92L288.48 552.92z" stroke="none" fill="#000000" fill-rule="nonzero" /><path id="284" transform="matrix(1 0 0 -1 0 842)" d="M288.96 551.9L339.06 551.9L339.06 552.92L288.96 552.92z" stroke="none" fill="#000000" fill-rule="nonzero" /><path id="298" transform="matrix(1 0 0 -1 0 842)" d="M480.96 671.9L481.44 671.9L481.5 672.92L481.02 672.92" stroke="none" fill="#000000" fill-rule="nonzero" /><path id="299" transform="matrix(1 0 0 -1 0 842)" d="M450.6 673.4L450.12 673.4L450.18 674.42L450.66 674.42" stroke="none" fill="#000000" fill-rule="nonzero" /><path id="300" transform="matrix(1 0 0 -1 0 842)" d="M480.96 671.9L481.02 672.92L450.66 674.42L450.6 673.4" stroke="none" fill="#000000" fill-rule="nonzero" /><path id="305" transform="matrix(1 0 0 -1 0 842)" d="M393.12 660.74L392.82 660.38L393.6 659.72L393.9 660.08" stroke="none" fill="#000000" fill-rule="nonzero" /><path id="306" transform="matrix(1 0 0 -1 0 842)" d="M393.12 660.74L393.9 660.08L459.9 732.08L459.48 732.92L459.3 732.92L459.12 732.74" stroke="none" fill="#000000" fill-rule="nonzero" /><path id="307" transform="matrix(1 0 0 -1 0 842)" d="M459.48 731.9L480.96 731.9L480.96 732.92L459.48 732.92z" stroke="none" fill="#000000" fill-rule="nonzero" /></g></g><g clip-path="url(#7)"><g clip-path="url(#8)"><path id="308" transform="matrix(1 0 0 -1 0 842)" d="M124.56 344.66L202.98 344.66L202.98 359.06L124.56 359.06z" stroke="none" fill="#FFFFFF" fill-rule="nonzero" /></g></g><g clip-path="url(#9)"><g clip-path="url(#10)"><g clip-path="url(#11)"><g transform="matrix(0.7265346 0 0 0.7263158 124.98 483.42)"><g transform="matrix(1 0 0 1 0 0)"><image x="0" y="0" xlink:href="img_09.png" width="101" height="19" /></g></g></g></g></g><path id="310" transform="matrix(1 0 0 -1 0 842)" d="M224.94 363.08L558 363.08L558 287.06L224.94 287.06" stroke="none" fill="#ECF5FC" fill-rule="nonzero" /></g></g></svg>