<svg xmlns="http://www.w3.org/2000/svg" xmlns:xlink="http://www.w3.org/1999/xlink" id="body_253" preserveAspectRatio="xMinYMin meet" viewBox="0 0 793 1123"><defs><clipPath id="1"><path id="" clip-rule="evenodd" transform="matrix(1 0 0 1 0 0)" d="M0 842L0 0L0 0L595 0L595 0L595 842L595 842L0 842z" /></clipPath><clipPath id="2"><path id="" clip-rule="evenodd" transform="matrix(1 0 0 1 0 0)" d="M216.96 142.98L369.78 142.98L369.78 142.98L369.78 267.24L369.78 267.24L216.96 267.24z" /></clipPath><clipPath id="3"><path id="" clip-rule="evenodd" transform="matrix(1 0 0 1 0 0)" d="M215.94 142.02L547.02 142.02L547.02 142.02L547.02 268.26L547.02 268.26L215.94 268.26z" /></clipPath><clipPath id="4"><path id="" clip-rule="evenodd" transform="matrix(1 0 0 1 0 0)" d="M0 0.02001953L595.2 0.02001953L595.2 0.02001953L595.2 842L595.2 842L0 842z" /></clipPath><clipPath id="5"><path id="" clip-rule="evenodd" transform="matrix(1 0 0 1 0 0)" d="M384 143.88L545.76 143.88L545.76 143.88L545.76 266.34L545.76 266.34L384 266.34z" /></clipPath><clipPath id="6"><path id="" clip-rule="evenodd" transform="matrix(1 0 0 1 0 0)" d="M215.94 142.02L547.02 142.02L547.02 142.02L547.02 268.26L547.02 268.26L215.94 268.26z" /></clipPath><clipPath id="7"><path id="" clip-rule="evenodd" transform="matrix(1 0 0 1 0 0)" d="M0 0.02001953L595.2 0.02001953L595.2 0.02001953L595.2 842L595.2 842L0 842z" /></clipPath><clipPath id="8"><path id="" clip-rule="evenodd" transform="matrix(1 0 0 1 0 0)" d="M215.94 142.02L547.02 142.02L547.02 142.02L547.02 268.26L547.02 268.26L215.94 268.26z" /></clipPath><clipPath id="9"><path id="" clip-rule="evenodd" transform="matrix(1 0 0 1 0 0)" d="M0 0.02001953L595.2 0.02001953L595.2 0.02001953L595.2 842L595.2 842L0 842z" /></clipPath><clipPath id="10"><path id="" clip-rule="evenodd" transform="matrix(1 0 0 1 0 0)" d="M115.56 317.22L193.98 317.22L193.98 317.22L193.98 331.62L193.98 331.62L115.56 331.62z" /></clipPath><clipPath id="11"><path id="" clip-rule="evenodd" transform="matrix(1 0 0 1 0 0)" d="M0 0.02001953L595.2 0.02001953L595.2 0.02001953L595.2 842L595.2 842L0 842z" /></clipPath><clipPath id="12"><path id="" clip-rule="evenodd" transform="matrix(1 0 0 1 0 0)" d="M115.98 317.7L189.36 317.7L189.36 317.7L189.36 331.5L189.36 331.5L115.98 331.5z" /></clipPath><clipPath id="13"><path id="" clip-rule="evenodd" transform="matrix(1 0 0 1 0 0)" d="M115.56 317.22L193.98 317.22L193.98 317.22L193.98 331.62L193.98 331.62L115.56 331.62z" /></clipPath><clipPath id="14"><path id="" clip-rule="evenodd" transform="matrix(1 0 0 1 0 0)" d="M0 0.02001953L595.2 0.02001953L595.2 0.02001953L595.2 842L595.2 842L0 842z" /></clipPath><clipPath id="15"><path id="" clip-rule="evenodd" transform="matrix(1 0 0 1 0 0)" d="M36.96 465.42L210.36 465.42L210.36 465.42L210.36 572.58L210.36 572.58L36.96 572.58z" /></clipPath><clipPath id="16"><path id="" clip-rule="evenodd" transform="matrix(1 0 0 1 0 0)" d="M35.94 465.18L547.32 465.18L547.32 465.18L547.32 574.32L547.32 574.32L35.94 574.32z" /></clipPath><clipPath id="17"><path id="" clip-rule="evenodd" transform="matrix(1 0 0 1 0 0)" d="M0 0.02001953L595.2 0.02001953L595.2 0.02001953L595.2 842L595.2 842L0 842z" /></clipPath><clipPath id="18"><path id="" clip-rule="evenodd" transform="matrix(1 0 0 1 0 0)" d="M226.74 465.42L400.56 465.42L400.56 465.42L400.56 574.08L400.56 574.08L226.74 574.08z" /></clipPath><clipPath id="19"><path id="" clip-rule="evenodd" transform="matrix(1 0 0 1 0 0)" d="M35.94 465.18L547.32 465.18L547.32 465.18L547.32 574.32L547.32 574.32L35.94 574.32z" /></clipPath><clipPath id="20"><path id="" clip-rule="evenodd" transform="matrix(1 0 0 1 0 0)" d="M0 0.02001953L595.2 0.02001953L595.2 0.02001953L595.2 842L595.2 842L0 842z" /></clipPath><clipPath id="21"><path id="" clip-rule="evenodd" transform="matrix(1 0 0 1 0 0)" d="M417.18 465.42L546.12 465.42L546.12 465.42L546.12 550.44L546.12 550.44L417.18 550.44z" /></clipPath><clipPath id="22"><path id="" clip-rule="evenodd" transform="matrix(1 0 0 1 0 0)" d="M35.94 465.18L547.32 465.18L547.32 465.18L547.32 574.32L547.32 574.32L35.94 574.32z" /></clipPath><clipPath id="23"><path id="" clip-rule="evenodd" transform="matrix(1 0 0 1 0 0)" d="M0 0.02001953L595.2 0.02001953L595.2 0.02001953L595.2 842L595.2 842L0 842z" /></clipPath><clipPath id="24"><path id="" clip-rule="evenodd" transform="matrix(1 0 0 1 0 0)" d="M35.94 465.18L547.32 465.18L547.32 465.18L547.32 574.32L547.32 574.32L35.94 574.32z" /></clipPath><clipPath id="25"><path id="" clip-rule="evenodd" transform="matrix(1 0 0 1 0 0)" d="M0 0.02001953L595.2 0.02001953L595.2 0.02001953L595.2 842L595.2 842L0 842z" /></clipPath></defs><g transform="matrix(1.333333 0 0 1.333333 0 0)"><g clip-path="url(#1)"><g clip-path="url(#2)"><g clip-path="url(#3)"><g clip-path="url(#4)"><g transform="matrix(0.4790596 0 0 0.4797683 216.96 142.98)"><g transform="matrix(1 0 0 1 0 0)"><image x="0" y="0" xlink:href="img_750.png" width="319" height="259" /></g></g></g></g></g><g clip-path="url(#5)"><g clip-path="url(#6)"><g clip-path="url(#7)"><g transform="matrix(0.4785799 0 0 0.4783594 384 143.88)"><g transform="matrix(1 0 0 1 0 0)"><image x="0" y="0" xlink:href="img_751.png" width="338" height="256" /></g></g></g></g></g><g clip-path="url(#8)"><g clip-path="url(#9)"><path id="262" transform="matrix(1 0 0 -1 0 842)" d="M219.72 578.96L266.94 578.96L266.94 599.96L219.72 599.96z" stroke="none" fill="#FFFFFF" fill-rule="nonzero" /><path id="271" transform="matrix(1 0 0 -1 0 842)" d="M386.7 674L426.48 674L426.48 695L386.7 695z" stroke="none" fill="#FFFFFF" fill-rule="nonzero" /><path id="278" transform="matrix(1 0 0 -1 0 842)" d="M457.74 655.46L457.5 655.4L457.5 655.4L457.14 655.28L457.14 655.28L457.02 655.16L457.02 655.16L456.9 654.98L456.9 654.98L456.78 654.86L456.78 654.86L456.72 654.62L456.72 654.62L456.72 654.26L456.72 654.26L456.78 654.08L456.78 654.08L457.02 653.72L457.02 653.72L457.14 653.6L457.14 653.6L457.32 653.54L457.32 653.54L457.5 653.48L457.5 653.48L457.74 653.42L457.74 653.42L457.92 653.48L457.92 653.48L458.1 653.54L458.1 653.54L458.28 653.6L458.28 653.6L458.4 653.72L458.4 653.72L458.64 654.08L458.64 654.08L458.7 654.26L458.7 654.26L458.7 654.62L458.7 654.62L458.64 654.86L458.64 654.86L458.52 654.98L458.52 654.98L458.4 655.16L458.4 655.16L458.28 655.28L458.28 655.28L457.74 655.46" stroke="none" fill="#FFFFFF" fill-rule="evenodd" /><path id="279" transform="matrix(1 0 0 -1 0 842)" d="M457.74 654.44L453.18 654.44L453.66 655.22L457.32 661.52L457.74 662.3L461.82 655.16L462.24 654.44L461.34 654.44L460.92 654.68L457.32 660.98L458.22 661.46L458.22 660.98L454.56 654.68L453.66 655.22L454.08 655.46L457.74 655.46" stroke="none" fill="#FFFFFF" fill-rule="nonzero" /><path id="280" transform="matrix(1 0 0 -1 0 842)" d="M457.74 654.44L461.34 654.44L461.34 655.46L457.74 655.46z" stroke="none" fill="#FFFFFF" fill-rule="nonzero" /><path id="281" transform="matrix(1 0 0 -1 0 842)" d="M457.74 654.92L454.08 654.92L454.08 654.92L457.74 661.22L457.74 661.22L461.34 654.92" stroke="none" fill="#FFFFFF" fill-rule="evenodd" /><path id="282" transform="matrix(1 0 0 -1 0 842)" d="M456.78 617.78L458.76 617.78L458.76 618.7401L456.78 618.7401z" stroke="none" fill="#FFFFFF" fill-rule="nonzero" /><path id="283" transform="matrix(1 0 0 -1 0 842)" d="M456.78 618.74L458.76 618.74L458.76 655.4L456.78 655.4z" stroke="none" fill="#FFFFFF" fill-rule="nonzero" /><path id="284" transform="matrix(1 0 0 -1 0 842)" d="M293.04 630.74L293.1 630.56L293.1 630.56L293.16 630.32L293.16 630.32L293.22 630.2L293.22 630.2L293.34 630.02L293.34 630.02L293.52 629.9L293.52 629.9L293.64 629.84L293.64 629.84L293.88 629.78L293.88 629.78L294.06 629.72L294.06 629.72L294.6 629.9L294.6 629.9L294.78 630.02L294.78 630.02L294.9 630.2L294.9 630.2L294.96 630.32L294.96 630.32L295.02 630.56L295.02 630.56L295.08 630.74L295.08 630.74L295.02 630.92L295.02 630.92L294.96 631.1L294.96 631.1L294.9 631.28L294.9 631.28L294.78 631.46L294.78 631.46L294.6 631.58L294.6 631.58L294.06 631.76L294.06 631.76L293.88 631.7L293.88 631.7L293.64 631.64L293.64 631.64L293.52 631.58L293.52 631.58L293.34 631.46L293.34 631.46L293.22 631.28L293.22 631.28L293.16 631.1L293.16 631.1L293.1 630.92L293.1 630.92L293.04 630.74" stroke="none" fill="#FFFFFF" fill-rule="evenodd" /><path id="285" transform="matrix(1 0 0 -1 0 842)" d="M294.06 630.74L294.06 626.18L293.28 626.66L286.98 630.32L286.14 630.74L286.98 631.22L293.28 634.88L294.06 635.36L294.06 634.4L293.82 633.98L287.52 630.32L286.98 631.22L287.52 631.22L293.82 627.56L293.28 626.66L293.04 627.08L293.04 630.74" stroke="none" fill="#FFFFFF" fill-rule="nonzero" /><path id="286" transform="matrix(1 0 0 -1 0 842)" d="M293.04 630.74L294.06 630.74L294.06 634.4L293.04 634.4z" stroke="none" fill="#FFFFFF" fill-rule="nonzero" /><path id="287" transform="matrix(1 0 0 -1 0 842)" d="M293.58 630.74L293.58 627.08L293.58 627.08L287.28 630.74L287.28 630.74L293.58 634.4" stroke="none" fill="#FFFFFF" fill-rule="evenodd" /><path id="288" transform="matrix(1 0 0 -1 0 842)" d="M324.42 629.72L325.38 629.72L325.38 631.7L324.42 631.7z" stroke="none" fill="#FFFFFF" fill-rule="nonzero" /><path id="289" transform="matrix(1 0 0 -1 0 842)" d="M293.1 629.72L324.42 629.72L324.42 631.7L293.1 631.7z" stroke="none" fill="#FFFFFF" fill-rule="nonzero" /></g></g><g clip-path="url(#10)"><g clip-path="url(#11)"><path id="290" transform="matrix(1 0 0 -1 0 842)" d="M115.56 510.38L193.98 510.38L193.98 524.78L115.56 524.78z" stroke="none" fill="#FFFFFF" fill-rule="nonzero" /></g></g><g clip-path="url(#12)"><g clip-path="url(#13)"><g clip-path="url(#14)"><g transform="matrix(0.7265346 0 0 0.7263158 115.98 317.7)"><g transform="matrix(1 0 0 1 0 0)"><image x="0" y="0" xlink:href="img_09.png" width="101" height="19" /></g></g></g></g></g><path id="292" transform="matrix(1 0 0 -1 0 842)" d="M233.94 528.74L549 528.74L549 494.78L233.94 494.78" stroke="none" fill="#ECF5FC" fill-rule="nonzero" /><g clip-path="url(#15)"><g clip-path="url(#16)"><g clip-path="url(#17)"><g transform="matrix(0.4790055 0 0 0.4783929 36.96 465.42)"><g transform="matrix(1 0 0 1 0 0)"><image x="0" y="0" xlink:href="img_752.png" width="362" height="224" /></g></g></g></g></g><g clip-path="url(#18)"><g clip-path="url(#19)"><g clip-path="url(#20)"><g transform="matrix(0.4801658 0 0 0.4786784 226.74 465.42)"><g transform="matrix(1 0 0 1 0 0)"><image x="0" y="0" xlink:href="img_753.png" width="362" height="227" /></g></g></g></g></g><g clip-path="url(#21)"><g clip-path="url(#22)"><g clip-path="url(#23)"><g transform="matrix(0.4793309 0 0 0.480339 417.18 465.42)"><g transform="matrix(1 0 0 1 0 0)"><image x="0" y="0" xlink:href="img_754.png" width="269" height="177" /></g></g></g></g></g><g clip-path="url(#24)"><g clip-path="url(#25)"><path id="359" transform="matrix(1 0 0 -1 0 842)" d="M219.12 333.5L219.12 333.74L219.12 333.74L219.06 333.92L219.06 333.92L218.94 334.1L218.94 334.1L218.7 334.34L218.7 334.34L218.52 334.46L218.52 334.46L218.34 334.52L218.34 334.52L217.92 334.52L217.92 334.52L217.74 334.46L217.74 334.46L217.38 334.22L217.38 334.22L217.26 334.1L217.26 334.1L217.14 333.74L217.14 333.74L217.14 333.32L217.14 333.32L217.26 332.96L217.26 332.96L217.38 332.84L217.38 332.84L217.74 332.6L217.74 332.6L217.92 332.54L217.92 332.54L218.34 332.54L218.34 332.54L218.52 332.6L218.52 332.6L218.7 332.72L218.7 332.72L218.94 332.96L218.94 332.96L219.06 333.14L219.06 333.14L219.12 333.32L219.12 333.32L219.12 333.5" stroke="none" fill="#000000" fill-rule="evenodd" /><path id="360" transform="matrix(1 0 0 -1 0 842)" d="M218.16 333.5L218.16 338.06L218.94 337.58L225.24 333.92L226.02 333.5L218.88 329.42L218.16 329L218.16 329.9L218.4 330.32L224.7 333.92L225.18 333.02L224.7 333.02L218.4 336.68L218.94 337.58L219.18 337.16L219.18 333.5" stroke="none" fill="#000000" fill-rule="nonzero" /><path id="361" transform="matrix(1 0 0 -1 0 842)" d="M218.16 329.9L219.18 329.9L219.18 333.5L218.16 333.5z" stroke="none" fill="#000000" fill-rule="nonzero" /><path id="362" transform="matrix(1 0 0 -1 0 842)" d="M218.64 333.5L218.64 337.16L218.64 337.16L224.94 333.5L224.94 333.5L218.64 329.9" stroke="none" fill="#000000" fill-rule="evenodd" /><path id="363" transform="matrix(1 0 0 -1 0 842)" d="M210.54 332.48L211.5 332.48L211.5 334.46L210.54 334.46z" stroke="none" fill="#000000" fill-rule="nonzero" /><path id="364" transform="matrix(1 0 0 -1 0 842)" d="M211.5 332.48L219.06 332.48L219.06 334.46L211.5 334.46z" stroke="none" fill="#000000" fill-rule="nonzero" /><path id="365" transform="matrix(1 0 0 -1 0 842)" d="M410.1 336.5L410.1 336.74L410.1 336.74L409.98 337.1L409.98 337.1L409.86 337.22L409.86 337.22L409.5 337.46L409.5 337.46L409.32 337.52L409.32 337.52L408.9 337.52L408.9 337.52L408.72 337.46L408.72 337.46L408.54 337.34L408.54 337.34L408.3 337.1L408.3 337.1L408.18 336.92L408.18 336.92L408.12 336.74L408.12 336.74L408.12 336.32L408.12 336.32L408.18 336.14L408.18 336.14L408.3 335.96L408.3 335.96L408.54 335.72L408.54 335.72L408.72 335.6L408.72 335.6L408.9 335.54L408.9 335.54L409.32 335.54L409.32 335.54L409.5 335.6L409.5 335.6L409.86 335.84L409.86 335.84L409.98 335.96L409.98 335.96L410.1 336.32L410.1 336.32L410.1 336.5" stroke="none" fill="#000000" fill-rule="evenodd" /><path id="366" transform="matrix(1 0 0 -1 0 842)" d="M409.14 336.5L409.14 341.06L409.92 340.58L416.22 336.92L417 336.5L409.86 332.42L409.14 332L409.14 332.9L409.38 333.32L415.68 336.92L416.16 336.02L415.68 336.02L409.38 339.68L409.92 340.58L410.16 340.16L410.16 336.5" stroke="none" fill="#000000" fill-rule="nonzero" /><path id="367" transform="matrix(1 0 0 -1 0 842)" d="M409.14 332.9L410.16 332.9L410.16 336.5L409.14 336.5z" stroke="none" fill="#000000" fill-rule="nonzero" /><path id="368" transform="matrix(1 0 0 -1 0 842)" d="M409.62 336.5L409.62 340.16L409.62 340.16L415.92 336.5L415.92 336.5L409.62 332.9" stroke="none" fill="#000000" fill-rule="evenodd" /><path id="369" transform="matrix(1 0 0 -1 0 842)" d="M401.58 335.48L402.54 335.48L402.54 337.46L401.58 337.46z" stroke="none" fill="#000000" fill-rule="nonzero" /><path id="370" transform="matrix(1 0 0 -1 0 842)" d="M402.54 335.48L410.1 335.48L410.1 337.46L402.54 337.46z" stroke="none" fill="#000000" fill-rule="nonzero" /></g></g></g></g></svg>