<svg xmlns="http://www.w3.org/2000/svg" xmlns:xlink="http://www.w3.org/1999/xlink" id="body_295" preserveAspectRatio="xMinYMin meet" viewBox="0 0 793 1123"><defs><clipPath id="1"><path id="" clip-rule="evenodd" transform="matrix(1 0 0 1 0 0)" d="M0 842L0 0L0 0L595 0L595 0L595 842L595 842L0 842z" /></clipPath><clipPath id="2"><path id="" clip-rule="evenodd" transform="matrix(1 0 0 1 0 0)" d="M353.965 165.109L353.965 246.768L353.965 246.768L410.926 246.768L410.926 246.768L410.926 165.109" /></clipPath><clipPath id="3"><path id="" clip-rule="evenodd" transform="matrix(1 0 0 1 0 0)" d="M180.36 555.42L193.98 555.42L193.98 555.42L193.98 569.82L193.98 569.82L180.36 569.82z" /></clipPath><clipPath id="4"><path id="" clip-rule="evenodd" transform="matrix(1 0 0 1 0 0)" d="M0 0.02001953L595.2 0.02001953L595.2 0.02001953L595.2 842L595.2 842L0 842z" /></clipPath><clipPath id="5"><path id="" clip-rule="evenodd" transform="matrix(1 0 0 1 0 0)" d="M180.36 556.62L194.34 556.62L194.34 556.62L194.34 568.62L194.34 568.62L180.36 568.62z" /></clipPath><clipPath id="6"><path id="" clip-rule="evenodd" transform="matrix(1 0 0 1 0 0)" d="M180.36 555.42L193.98 555.42L193.98 555.42L193.98 569.82L193.98 569.82L180.36 569.82z" /></clipPath><clipPath id="7"><path id="" clip-rule="evenodd" transform="matrix(1 0 0 1 0 0)" d="M0 0.02001953L595.2 0.02001953L595.2 0.02001953L595.2 842L595.2 842L0 842z" /></clipPath></defs><g transform="matrix(1.333333 0 0 1.333333 0 0)"><g clip-path="url(#1)"><g clip-path="url(#2)"><g transform="matrix(0.4799076 0 0 0.4779649 353.934 165.074)"><g transform="matrix(1 0 0 1 0 0)"><image x="0" y="0" xlink:href="img_897.png" width="119" height="171" /></g></g><g transform="matrix(0.4799076 0 0 0.4779649 353.934 165.074)"><g transform="matrix(1 0 0 1 0 0)"><image x="0" y="0" xlink:href="img_898.png" width="119" height="171" /></g></g></g><path id="464" transform="matrix(1 0 0 -1 0 842)" d="M176.34 242.6L197.94 242.6L197.94 290.54L176.34 290.54z" stroke="none" fill="#FFFFFF" fill-rule="nonzero" /><g clip-path="url(#3)"><g clip-path="url(#4)"><path id="465" transform="matrix(1 0 0 -1 0 842)" d="M180.36 272.18L193.98 272.18L193.98 286.58L180.36 286.58z" stroke="none" fill="#FFFFFF" fill-rule="nonzero" /></g></g><g clip-path="url(#5)"><g clip-path="url(#6)"><g clip-path="url(#7)"><path id="466" transform="matrix(1 0 0 -1 0 842)" d="M187.678 284.257L193.483 274.263C 193.538 274.169 193.538 274.06 193.484 273.966C 193.429 273.871 193.336 273.817 193.226 273.817L193.226 273.817L181.616 273.817C 181.507 273.817 181.413 273.871 181.358 273.965C 181.304 274.06 181.304 274.169 181.359 274.263L181.359 274.263L187.164 284.257C 187.219 284.351 187.312 284.405 187.421 284.405C 187.53 284.405 187.623 284.351 187.678 284.257z" stroke="#000000" stroke-width="0.5" fill="#FFFF00" fill-rule="evenodd" /><path id="467" transform="matrix(1 0 0 -1 0 842)" d="M187.429 276.408C 187.661 276.408 187.86 276.326 188.024 276.161C 188.189 275.996 188.272 275.795 188.272 275.561C 188.272 275.328 188.189 275.129 188.024 274.964C 187.86 274.799 187.661 274.717 187.429 274.717C 187.196 274.717 186.997 274.799 186.832 274.964C 186.668 275.129 186.585 275.328 186.585 275.561C 186.585 275.791 186.667 275.992 186.83 276.158C 186.994 276.324 187.193 276.408 187.429 276.408M187.537 277.152L187.31 277.152C 187.285 277.548 187.205 278.026 187.07 278.589L187.07 278.589L186.798 279.722C 186.637 280.402 186.555 280.889 186.555 281.186C 186.555 281.452 186.635 281.667 186.793 281.831C 186.953 281.994 187.162 282.074 187.418 282.074C 187.669 282.074 187.875 281.992 188.04 281.827C 188.205 281.664 188.287 281.454 188.287 281.2C 188.287 280.937 188.2 280.445 188.027 279.722L188.027 279.722L187.752 278.589C 187.654 278.186 187.583 277.708 187.537 277.152z" stroke="none" fill="#000000" fill-rule="nonzero" /></g></g></g><path id="468" transform="matrix(1 0 0 -1 0 842)" d="M197.94 242.6L215.94 242.6L215.94 290.54L197.94 290.54z" stroke="none" fill="#FFFFFF" fill-rule="nonzero" /><path id="469" transform="matrix(1 0 0 -1 0 842)" d="M215.94 290.54L549 290.54L549 242.6L215.94 242.6" stroke="none" fill="#ECF5FC" fill-rule="nonzero" /></g></g></svg>