<svg xmlns="http://www.w3.org/2000/svg" xmlns:xlink="http://www.w3.org/1999/xlink" id="body_76" preserveAspectRatio="xMinYMin meet" viewBox="0 0 793 1123"><defs><clipPath id="1"><path id="" clip-rule="evenodd" transform="matrix(1 0 0 1 0 0)" d="M0 842L0 0L0 0L595 0L595 0L595 842L595 842L0 842z" /></clipPath><clipPath id="2"><path id="" clip-rule="evenodd" transform="matrix(1 0 0 1 0 0)" d="M216.96 77.03998L552 77.03998L552 77.03998L552 210L552 210L216.96 210z" /></clipPath><clipPath id="3"><path id="" clip-rule="evenodd" transform="matrix(1 0 0 1 0 0)" d="M215.94 76.02002L553.02 76.02002L553.02 76.02002L553.02 211.02L553.02 211.02L215.94 211.02z" /></clipPath><clipPath id="4"><path id="" clip-rule="evenodd" transform="matrix(1 0 0 1 0 0)" d="M0 0.02001953L595.2 0.02001953L595.2 0.02001953L595.2 842L595.2 842L0 842z" /></clipPath><clipPath id="5"><path id="" clip-rule="evenodd" transform="matrix(1 0 0 1 0 0)" d="M36.96 469.92L550.08 469.92L550.08 469.92L550.08 591.84L550.08 591.84L36.96 591.84z" /></clipPath><clipPath id="6"><path id="" clip-rule="evenodd" transform="matrix(1 0 0 1 0 0)" d="M35.94 468.9L551.1 468.9L551.1 468.9L551.1 592.86L551.1 592.86L35.94 592.86z" /></clipPath><clipPath id="7"><path id="" clip-rule="evenodd" transform="matrix(1 0 0 1 0 0)" d="M0 0.02001953L595.2 0.02001953L595.2 0.02001953L595.2 842L595.2 842L0 842z" /></clipPath></defs><g transform="matrix(1.333333 0 0 1.333333 0 0)"><g clip-path="url(#1)"><g clip-path="url(#2)"><g clip-path="url(#3)"><g clip-path="url(#4)"><g transform="matrix(0.48 0 0 0.48 216.96 77.03998)"><g transform="matrix(1 0 0 1 0 0)"><image x="0" y="0" xlink:href="img_204.png" width="698" height="277" /></g></g></g></g></g><g clip-path="url(#5)"><g clip-path="url(#6)"><g clip-path="url(#7)"><g transform="matrix(0.48 0 0 0.48 36.96 469.92)"><g transform="matrix(1 0 0 1 0 0)"><image x="0" y="0" xlink:href="img_205.png" width="1069" height="254" /></g></g></g></g></g></g></g></svg>