<svg xmlns="http://www.w3.org/2000/svg" xmlns:xlink="http://www.w3.org/1999/xlink" id="body_169" preserveAspectRatio="xMinYMin meet" viewBox="0 0 793 1123"><defs><clipPath id="1"><path id="" clip-rule="evenodd" transform="matrix(1 0 0 1 0 0)" d="M0 842L0 0L0 0L595 0L595 0L595 842L595 842L0 842z" /></clipPath><clipPath id="2"><path id="" clip-rule="evenodd" transform="matrix(1 0 0 1 0 0)" d="M225.96 77.03998L409.68 77.03998L409.68 77.03998L409.68 325.68L409.68 325.68L225.96 325.68z" /></clipPath><clipPath id="3"><path id="" clip-rule="evenodd" transform="matrix(1 0 0 1 0 0)" d="M224.94 76.02002L517.2 76.02002L517.2 76.02002L517.2 326.64L517.2 326.64L224.94 326.64z" /></clipPath><clipPath id="4"><path id="" clip-rule="evenodd" transform="matrix(1 0 0 1 0 0)" d="M0 0.02001953L595.2 0.02001953L595.2 0.02001953L595.2 842L595.2 842L0 842z" /></clipPath><clipPath id="5"><path id="" clip-rule="evenodd" transform="matrix(1 0 0 1 0 0)" d="M224.94 76.02002L517.2 76.02002L517.2 76.02002L517.2 326.64L517.2 326.64L224.94 326.64z" /></clipPath><clipPath id="6"><path id="" clip-rule="evenodd" transform="matrix(1 0 0 1 0 0)" d="M0 0.02001953L595.2 0.02001953L595.2 0.02001953L595.2 842L595.2 842L0 842z" /></clipPath><clipPath id="7"><path id="" clip-rule="evenodd" transform="matrix(1 0 0 1 0 0)" d="M124.56 485.64L202.98 485.64L202.98 485.64L202.98 500.04L202.98 500.04L124.56 500.04z" /></clipPath><clipPath id="8"><path id="" clip-rule="evenodd" transform="matrix(1 0 0 1 0 0)" d="M0 0.02001953L595.2 0.02001953L595.2 0.02001953L595.2 842L595.2 842L0 842z" /></clipPath><clipPath id="9"><path id="" clip-rule="evenodd" transform="matrix(1 0 0 1 0 0)" d="M124.98 486.12L198.36 486.12L198.36 486.12L198.36 499.92L198.36 499.92L124.98 499.92z" /></clipPath><clipPath id="10"><path id="" clip-rule="evenodd" transform="matrix(1 0 0 1 0 0)" d="M124.56 485.64L202.98 485.64L202.98 485.64L202.98 500.04L202.98 500.04L124.56 500.04z" /></clipPath><clipPath id="11"><path id="" clip-rule="evenodd" transform="matrix(1 0 0 1 0 0)" d="M0 0.02001953L595.2 0.02001953L595.2 0.02001953L595.2 842L595.2 842L0 842z" /></clipPath><clipPath id="12"><path id="" clip-rule="evenodd" transform="matrix(1 0 0 1 0 0)" d="M225.96 560.58L389.76 560.58L389.76 560.58L389.76 647.52L389.76 647.52L225.96 647.52z" /></clipPath><clipPath id="13"><path id="" clip-rule="evenodd" transform="matrix(1 0 0 1 0 0)" d="M224.94 559.62L541.74 559.62L541.74 559.62L541.74 648.54L541.74 648.54L224.94 648.54z" /></clipPath><clipPath id="14"><path id="" clip-rule="evenodd" transform="matrix(1 0 0 1 0 0)" d="M0 0.02001953L595.2 0.02001953L595.2 0.02001953L595.2 842L595.2 842L0 842z" /></clipPath><clipPath id="15"><path id="" clip-rule="evenodd" transform="matrix(1 0 0 1 0 0)" d="M224.94 559.62L541.74 559.62L541.74 559.62L541.74 648.54L541.74 648.54L224.94 648.54z" /></clipPath><clipPath id="16"><path id="" clip-rule="evenodd" transform="matrix(1 0 0 1 0 0)" d="M0 0.02001953L595.2 0.02001953L595.2 0.02001953L595.2 842L595.2 842L0 842z" /></clipPath></defs><g transform="matrix(1.333333 0 0 1.333333 0 0)"><g clip-path="url(#1)"><g clip-path="url(#2)"><g clip-path="url(#3)"><g clip-path="url(#4)"><g transform="matrix(0.4797128 0 0 0.4790752 225.96 77.03998)"><g transform="matrix(1 0 0 1 0 0)"><image x="0" y="0" xlink:href="img_455.png" width="383" height="519" /></g></g></g></g></g><g clip-path="url(#5)"><g clip-path="url(#6)"><path id="226" transform="matrix(1 0 0 -1 0 842)" d="M429 641.06L429.48 641.06L429.48 642.08L429 642.08z" stroke="none" fill="#000000" fill-rule="nonzero" /><path id="227" transform="matrix(1 0 0 -1 0 842)" d="M354.54 640.52L355.02 640.52L355.02 641.54L354.54 641.54z" stroke="none" fill="#000000" fill-rule="nonzero" /><path id="228" transform="matrix(1 0 0 -1 0 842)" d="M429 641.06L429 642.08L355.02 641.54L355.02 640.52" stroke="none" fill="#000000" fill-rule="nonzero" /><path id="229" transform="matrix(1 0 0 -1 0 842)" d="M429 585.32L429.48 585.32L429.48 586.34L429 586.34z" stroke="none" fill="#000000" fill-rule="nonzero" /><path id="230" transform="matrix(1 0 0 -1 0 842)" d="M346.74 585.68L347.22 585.68L347.22 586.7L346.74 586.7z" stroke="none" fill="#000000" fill-rule="nonzero" /><path id="231" transform="matrix(1 0 0 -1 0 842)" d="M429 585.32L429 586.34L347.22 586.7L347.22 585.68" stroke="none" fill="#000000" fill-rule="nonzero" /><path id="232" transform="matrix(1 0 0 -1 0 842)" d="M429 660.08L429.48 660.08L429.48 661.1L429 661.1z" stroke="none" fill="#000000" fill-rule="nonzero" /><path id="233" transform="matrix(1 0 0 -1 0 842)" d="M336.48 660.08L429 660.08L429 661.1L336.48 661.1z" stroke="none" fill="#000000" fill-rule="nonzero" /></g></g><g clip-path="url(#7)"><g clip-path="url(#8)"><path id="247" transform="matrix(1 0 0 -1 0 842)" d="M124.56 341.96L202.98 341.96L202.98 356.36L124.56 356.36z" stroke="none" fill="#FFFFFF" fill-rule="nonzero" /></g></g><g clip-path="url(#9)"><g clip-path="url(#10)"><g clip-path="url(#11)"><g transform="matrix(0.7265346 0 0 0.7263158 124.98 486.12)"><g transform="matrix(1 0 0 1 0 0)"><image x="0" y="0" xlink:href="img_09.png" width="101" height="19" /></g></g></g></g></g><path id="249" transform="matrix(1 0 0 -1 0 842)" d="M242.94 360.38L558 360.38L558 298.4L242.94 298.4" stroke="none" fill="#ECF5FC" fill-rule="nonzero" /><g clip-path="url(#12)"><g clip-path="url(#13)"><g clip-path="url(#14)"><g transform="matrix(0.4789474 0 0 0.4776923 225.96 560.58)"><g transform="matrix(1 0 0 1 0 0)"><image x="0" y="0" xlink:href="img_456.png" width="342" height="182" /></g></g></g></g></g><g clip-path="url(#15)"><g clip-path="url(#16)"><path id="372" transform="matrix(1 0 0 -1 0 842)" d="M419.34 249.62L419.82 249.62L419.82 250.64L419.34 250.64z" stroke="none" fill="#000000" fill-rule="nonzero" /><path id="373" transform="matrix(1 0 0 -1 0 842)" d="M379.74 249.62L419.34 249.62L419.34 250.64L379.74 250.64z" stroke="none" fill="#000000" fill-rule="nonzero" /><path id="374" transform="matrix(1 0 0 -1 0 842)" d="M419.34 226.52L419.82 226.52L419.82 227.54L419.34 227.54z" stroke="none" fill="#000000" fill-rule="nonzero" /><path id="375" transform="matrix(1 0 0 -1 0 842)" d="M296.04 227.42L296.52 227.42L296.52 228.44L296.04 228.44z" stroke="none" fill="#000000" fill-rule="nonzero" /><path id="376" transform="matrix(1 0 0 -1 0 842)" d="M419.34 226.52L419.34 227.54L296.52 228.44L296.52 227.42" stroke="none" fill="#000000" fill-rule="nonzero" /></g></g></g></g></svg>