<svg xmlns="http://www.w3.org/2000/svg" xmlns:xlink="http://www.w3.org/1999/xlink" id="body_152" preserveAspectRatio="xMinYMin meet" viewBox="0 0 793 1123"><defs><clipPath id="1"><path id="" clip-rule="evenodd" transform="matrix(1 0 0 1 0 0)" d="M0 842L0 0L0 0L595 0L595 0L595 842L595 842L0 842z" /></clipPath><clipPath id="2"><path id="" clip-rule="evenodd" transform="matrix(1 0 0 1 0 0)" d="M216.96 115.02L390.24 115.02L390.24 115.02L390.24 203.52L390.24 203.52L216.96 203.52z" /></clipPath><clipPath id="3"><path id="" clip-rule="evenodd" transform="matrix(1 0 0 1 0 0)" d="M215.94 114L391.2 114L391.2 114L391.2 204.54L391.2 204.54L215.94 204.54z" /></clipPath><clipPath id="4"><path id="" clip-rule="evenodd" transform="matrix(1 0 0 1 0 0)" d="M0 0.02001953L595.2 0.02001953L595.2 0.02001953L595.2 842L595.2 842L0 842z" /></clipPath></defs><g transform="matrix(1.333333 0 0 1.333333 0 0)"><g clip-path="url(#1)"><path id="509" transform="matrix(1 0 0 -1 0 842)" d="M215.94 446.54L549 446.54L549 412.52L215.94 412.52" stroke="none" fill="#ECF5FC" fill-rule="nonzero" /><g clip-path="url(#2)"><g clip-path="url(#3)"><g clip-path="url(#4)"><g transform="matrix(0.7501299 0 0 0.75 216.96 115.02)"><g transform="matrix(1 0 0 1 0 0)"><image x="0" y="0" xlink:href="img_425.png" width="231" height="118" /></g></g></g></g></g></g></g></svg>