<svg xmlns="http://www.w3.org/2000/svg" xmlns:xlink="http://www.w3.org/1999/xlink" id="body_151" preserveAspectRatio="xMinYMin meet" viewBox="0 0 793 1123"><defs><clipPath id="1"><path id="" clip-rule="evenodd" transform="matrix(1 0 0 1 0 0)" d="M0 842L0 0L0 0L595 0L595 0L595 842L595 842L0 842z" /></clipPath><clipPath id="2"><path id="" clip-rule="evenodd" transform="matrix(1 0 0 1 0 0)" d="M156.96 198.24L205.92 198.24L205.92 198.24L205.92 223.2L205.92 223.2L156.96 223.2z" /></clipPath><clipPath id="3"><path id="" clip-rule="evenodd" transform="matrix(1 0 0 1 0 0)" d="M156 197.28L206.94 197.28L206.94 197.28L206.94 224.22L206.94 224.22L156 224.22z" /></clipPath><clipPath id="4"><path id="" clip-rule="evenodd" transform="matrix(1 0 0 1 0 0)" d="M0 0.02001953L595.2 0.02001953L595.2 0.02001953L595.2 842L595.2 842L0 842z" /></clipPath><clipPath id="5"><path id="" clip-rule="evenodd" transform="matrix(1 0 0 1 0 0)" d="M170.28 236.7L205.92 236.7L205.92 236.7L205.92 267.6L205.92 267.6L170.28 267.6z" /></clipPath><clipPath id="6"><path id="" clip-rule="evenodd" transform="matrix(1 0 0 1 0 0)" d="M169.32 235.68L206.94 235.68L206.94 235.68L206.94 268.62L206.94 268.62L169.32 268.62z" /></clipPath><clipPath id="7"><path id="" clip-rule="evenodd" transform="matrix(1 0 0 1 0 0)" d="M0 0.02001953L595.2 0.02001953L595.2 0.02001953L595.2 842L595.2 842L0 842z" /></clipPath><clipPath id="8"><path id="" clip-rule="evenodd" transform="matrix(1 0 0 1 0 0)" d="M225.96 277.98L534.66 277.98L534.66 277.98L534.66 495L534.66 495L225.96 495z" /></clipPath><clipPath id="9"><path id="" clip-rule="evenodd" transform="matrix(1 0 0 1 0 0)" d="M224.94 276.96L535.68 276.96L535.68 276.96L535.68 496.02L535.68 496.02L224.94 496.02z" /></clipPath><clipPath id="10"><path id="" clip-rule="evenodd" transform="matrix(1 0 0 1 0 0)" d="M0 0.02001953L595.2 0.02001953L595.2 0.02001953L595.2 842L595.2 842L0 842z" /></clipPath><clipPath id="11"><path id="" clip-rule="evenodd" transform="matrix(1 0 0 1 0 0)" d="M170.28 540.66L205.92 540.66L205.92 540.66L205.92 571.62L205.92 571.62L170.28 571.62z" /></clipPath><clipPath id="12"><path id="" clip-rule="evenodd" transform="matrix(1 0 0 1 0 0)" d="M169.32 539.7L206.94 539.7L206.94 539.7L206.94 572.58L206.94 572.58L169.32 572.58z" /></clipPath><clipPath id="13"><path id="" clip-rule="evenodd" transform="matrix(1 0 0 1 0 0)" d="M0 0.02001953L595.2 0.02001953L595.2 0.02001953L595.2 842L595.2 842L0 842z" /></clipPath><clipPath id="14"><path id="" clip-rule="evenodd" transform="matrix(1 0 0 1 0 0)" d="M225.96 657.96L500.76 657.96L500.76 657.96L500.76 734.28L500.76 734.28L225.96 734.28z" /></clipPath><clipPath id="15"><path id="" clip-rule="evenodd" transform="matrix(1 0 0 1 0 0)" d="M224.94 656.94L551.46 656.94L551.46 656.94L551.46 735.3L551.46 735.3L224.94 735.3z" /></clipPath><clipPath id="16"><path id="" clip-rule="evenodd" transform="matrix(1 0 0 1 0 0)" d="M0 0.02001953L595.2 0.02001953L595.2 0.02001953L595.2 842L595.2 842L0 842z" /></clipPath><clipPath id="17"><path id="" clip-rule="evenodd" transform="matrix(1 0 0 1 0 0)" d="M224.94 656.94L551.46 656.94L551.46 656.94L551.46 735.3L551.46 735.3L224.94 735.3z" /></clipPath><clipPath id="18"><path id="" clip-rule="evenodd" transform="matrix(1 0 0 1 0 0)" d="M0 0.02001953L595.2 0.02001953L595.2 0.02001953L595.2 842L595.2 842L0 842z" /></clipPath></defs><g transform="matrix(1.333333 0 0 1.333333 0 0)"><g clip-path="url(#1)"><g clip-path="url(#2)"><g clip-path="url(#3)"><g clip-path="url(#4)"><g transform="matrix(0.96 0 0 0.96 156.96 198.24)"><g transform="matrix(1 0 0 1 0 0)"><image x="0" y="0" xlink:href="img_420.png" width="51" height="26" /></g></g></g></g></g><g clip-path="url(#5)"><g clip-path="url(#6)"><g clip-path="url(#7)"><g transform="matrix(0.9378947 0 0 0.9363636 170.28 236.7)"><g transform="matrix(1 0 0 1 0 0)"><image x="0" y="0" xlink:href="img_421.png" width="38" height="33" /></g></g></g></g></g><g clip-path="url(#8)"><g clip-path="url(#9)"><g clip-path="url(#10)"><g transform="matrix(0.7 0 0 0.7000645 225.96 277.98)"><g transform="matrix(1 0 0 1 0 0)"><image x="0" y="0" xlink:href="img_422.png" width="441" height="310" /></g></g></g></g></g><g clip-path="url(#11)"><g clip-path="url(#12)"><g clip-path="url(#13)"><g transform="matrix(0.9378947 0 0 0.9381818 170.28 540.66)"><g transform="matrix(1 0 0 1 0 0)"><image x="0" y="0" xlink:href="img_423.png" width="38" height="33" /></g></g></g></g></g><g clip-path="url(#14)"><g clip-path="url(#15)"><g clip-path="url(#16)"><g transform="matrix(0.4795811 0 0 0.48 225.96 657.96)"><g transform="matrix(1 0 0 1 0 0)"><image x="0" y="0" xlink:href="img_358.png" width="573" height="159" /></g></g></g></g></g><g clip-path="url(#17)"><g clip-path="url(#18)"><path id="453" transform="matrix(1 0 0 -1 0 842)" d="M400.2 175.88L449.1 175.88L449.1 177.38L400.2 177.38z" stroke="none" fill="#000000" fill-rule="nonzero" /><path id="454" transform="matrix(1 0 0 -1 0 842)" d="M447.6 115.22L449.1 115.22L449.1 176.66L447.6 176.66z" stroke="none" fill="#000000" fill-rule="nonzero" /><path id="455" transform="matrix(1 0 0 -1 0 842)" d="M399.48 115.22L448.32 115.22L448.32 116.72L399.48 116.72z" stroke="none" fill="#000000" fill-rule="nonzero" /><path id="456" transform="matrix(1 0 0 -1 0 842)" d="M399.48 116L400.98 116L400.98 177.38L399.48 177.38z" stroke="none" fill="#000000" fill-rule="nonzero" /><path id="457" transform="matrix(1 0 0 -1 0 842)" d="M504 147.5L504.48 147.5L504.48 148.52L504 148.52z" stroke="none" fill="#000000" fill-rule="nonzero" /><path id="458" transform="matrix(1 0 0 -1 0 842)" d="M434.64 147.02L435.12 147.02L435.12 148.04L434.64 148.04z" stroke="none" fill="#000000" fill-rule="nonzero" /><path id="459" transform="matrix(1 0 0 -1 0 842)" d="M504 147.5L504 148.52L435.12 148.04L435.12 147.02" stroke="none" fill="#000000" fill-rule="nonzero" /></g></g></g></g></svg>