<svg xmlns="http://www.w3.org/2000/svg" xmlns:xlink="http://www.w3.org/1999/xlink" id="body_42" preserveAspectRatio="xMinYMin meet" viewBox="0 0 793 1123"><defs><clipPath id="1"><path id="" clip-rule="evenodd" transform="matrix(1 0 0 1 0 0)" d="M0 842L0 0L0 0L595 0L595 0L595 842L595 842L0 842z" /></clipPath><clipPath id="2"><path id="" clip-rule="evenodd" transform="matrix(1 0 0 1 0 0)" d="M219.18 77.03998L402.06 77.03998L402.06 77.03998L402.06 325.4399L402.06 325.4399L219.18 325.4399z" /></clipPath><clipPath id="3"><path id="" clip-rule="evenodd" transform="matrix(1 0 0 1 0 0)" d="M215.94 76.02002L466.56 76.02002L466.56 76.02002L466.56 326.46L466.56 326.46L215.94 326.46z" /></clipPath><clipPath id="4"><path id="" clip-rule="evenodd" transform="matrix(1 0 0 1 0 0)" d="M0 0.02001953L595.2 0.02001953L595.2 0.02001953L595.2 842L595.2 842L0 842z" /></clipPath><clipPath id="5"><path id="" clip-rule="evenodd" transform="matrix(1 0 0 1 0 0)" d="M215.94 76.02002L466.56 76.02002L466.56 76.02002L466.56 326.46L466.56 326.46L215.94 326.46z" /></clipPath><clipPath id="6"><path id="" clip-rule="evenodd" transform="matrix(1 0 0 1 0 0)" d="M0 0.02001953L595.2 0.02001953L595.2 0.02001953L595.2 842L595.2 842L0 842z" /></clipPath><clipPath id="7"><path id="" clip-rule="evenodd" transform="matrix(1 0 0 1 0 0)" d="M216.96 445.44L453.78 445.44L453.78 445.44L453.78 707.04L453.78 707.04L216.96 707.04z" /></clipPath><clipPath id="8"><path id="" clip-rule="evenodd" transform="matrix(1 0 0 1 0 0)" d="M215.94 444.42L536.7 444.42L536.7 444.42L536.7 708.0601L536.7 708.0601L215.94 708.0601z" /></clipPath><clipPath id="9"><path id="" clip-rule="evenodd" transform="matrix(1 0 0 1 0 0)" d="M0 0.02001953L595.2 0.02001953L595.2 0.02001953L595.2 842L595.2 842L0 842z" /></clipPath><clipPath id="10"><path id="" clip-rule="evenodd" transform="matrix(1 0 0 1 0 0)" d="M215.94 444.42L536.7 444.42L536.7 444.42L536.7 708.0601L536.7 708.0601L215.94 708.0601z" /></clipPath><clipPath id="11"><path id="" clip-rule="evenodd" transform="matrix(1 0 0 1 0 0)" d="M0 0.02001953L595.2 0.02001953L595.2 0.02001953L595.2 842L595.2 842L0 842z" /></clipPath></defs><g transform="matrix(1.333333 0 0 1.333333 0 0)"><g clip-path="url(#1)"><g clip-path="url(#2)"><g clip-path="url(#3)"><g clip-path="url(#4)"><g transform="matrix(0.48 0 0 0.4795367 219.18 77.04004)"><g transform="matrix(1 0 0 1 0 0)"><image x="0" y="0" xlink:href="img_102.png" width="381" height="518" /></g></g></g></g></g><g clip-path="url(#5)"><g clip-path="url(#6)"><path id="139" transform="matrix(1 0 0 -1 0 842)" d="M408.36 598.34L408.84 598.34L408.84 599.36L408.36 599.36z" stroke="none" fill="#000000" fill-rule="nonzero" /><path id="140" transform="matrix(1 0 0 -1 0 842)" d="M351.48 598.34L408.36 598.34L408.36 599.36L351.48 599.36z" stroke="none" fill="#000000" fill-rule="nonzero" /><path id="147" transform="matrix(1 0 0 -1 0 842)" d="M268.26 599.9L268.74 599.9L268.74 600.92L268.26 600.92z" stroke="none" fill="#000000" fill-rule="nonzero" /><path id="148" transform="matrix(1 0 0 -1 0 842)" d="M268.74 599.9L315.84 599.9L315.84 600.92L268.74 600.92z" stroke="none" fill="#000000" fill-rule="nonzero" /><path id="155" transform="matrix(1 0 0 -1 0 842)" d="M416.34 758.3L416.82 758.3L416.82 759.32L416.34 759.32z" stroke="none" fill="#000000" fill-rule="nonzero" /><path id="156" transform="matrix(1 0 0 -1 0 842)" d="M337.86 759.2L338.34 759.2L338.34 760.22L337.86 760.22z" stroke="none" fill="#000000" fill-rule="nonzero" /><path id="157" transform="matrix(1 0 0 -1 0 842)" d="M416.34 758.3L416.34 759.32L338.34 760.22L338.34 759.2" stroke="none" fill="#000000" fill-rule="nonzero" /></g></g><g clip-path="url(#7)"><g clip-path="url(#8)"><g clip-path="url(#9)"><g transform="matrix(0.4803651 0 0 0.48 216.96 445.44)"><g transform="matrix(1 0 0 1 0 0)"><image x="0" y="0" xlink:href="img_103.png" width="493" height="545" /></g></g></g></g></g><g clip-path="url(#10)"><g clip-path="url(#11)"><path id="222" transform="matrix(1 0 0 -1 0 842)" d="M470.04 286.04L535.74 286.04L535.74 300.74L470.04 300.74z" stroke="none" fill="#FFFFFF" fill-rule="nonzero" /><path id="229" transform="matrix(1 0 0 -1 0 842)" d="M368.22 295.7L368.7 295.7L368.7 296.72L368.22 296.72z" stroke="none" fill="#000000" fill-rule="nonzero" /><path id="230" transform="matrix(1 0 0 -1 0 842)" d="M368.7 295.7L466.14 295.7L466.14 296.72L368.7 296.72z" stroke="none" fill="#000000" fill-rule="nonzero" /><path id="231" transform="matrix(1 0 0 -1 0 842)" d="M470.04 246.44L513.42 246.44L513.42 261.14L470.04 261.14z" stroke="none" fill="#FFFFFF" fill-rule="nonzero" /><path id="236" transform="matrix(1 0 0 -1 0 842)" d="M345.6 257.48L346.08 257.48L346.08 258.5L345.6 258.5z" stroke="none" fill="#000000" fill-rule="nonzero" /><path id="237" transform="matrix(1 0 0 -1 0 842)" d="M465.66 256.94L466.14 256.94L466.14 257.96L465.66 257.96z" stroke="none" fill="#000000" fill-rule="nonzero" /><path id="238" transform="matrix(1 0 0 -1 0 842)" d="M346.08 258.5L346.08 257.48L465.66 256.94L465.66 257.96" stroke="none" fill="#000000" fill-rule="nonzero" /><path id="239" transform="matrix(1 0 0 -1 0 842)" d="M470.04 173.36L526.14 173.36L526.14 201.56L470.04 201.56z" stroke="none" fill="#FFFFFF" fill-rule="nonzero" /><path id="247" transform="matrix(1 0 0 -1 0 842)" d="M400.8 197.18L401.28 197.18L401.28 198.2L400.8 198.2z" stroke="none" fill="#000000" fill-rule="nonzero" /><path id="248" transform="matrix(1 0 0 -1 0 842)" d="M401.28 197.18L466.14 197.18L466.14 198.2L401.28 198.2z" stroke="none" fill="#000000" fill-rule="nonzero" /></g></g></g></g></svg>