<svg xmlns="http://www.w3.org/2000/svg" xmlns:xlink="http://www.w3.org/1999/xlink" id="body_271" preserveAspectRatio="xMinYMin meet" viewBox="0 0 793 1123"><defs><clipPath id="1"><path id="" clip-rule="evenodd" transform="matrix(1 0 0 1 0 0)" d="M0 842L0 0L0 0L595 0L595 0L595 842L595 842L0 842z" /></clipPath><clipPath id="2"><path id="" clip-rule="evenodd" transform="matrix(1 0 0 1 0 0)" d="M216.96 138L449.28 138L449.28 138L449.28 378.66L449.28 378.66L216.96 378.66z" /></clipPath><clipPath id="3"><path id="" clip-rule="evenodd" transform="matrix(1 0 0 1 0 0)" d="M215.94 137.04L452.04 137.04L452.04 137.04L452.04 379.68L452.04 379.68L215.94 379.68z" /></clipPath><clipPath id="4"><path id="" clip-rule="evenodd" transform="matrix(1 0 0 1 0 0)" d="M0 0.02001953L595.2 0.02001953L595.2 0.02001953L595.2 842L595.2 842L0 842z" /></clipPath><clipPath id="5"><path id="" clip-rule="evenodd" transform="matrix(1 0 0 1 0 0)" d="M215.94 137.04L452.04 137.04L452.04 137.04L452.04 379.68L452.04 379.68L215.94 379.68z" /></clipPath><clipPath id="6"><path id="" clip-rule="evenodd" transform="matrix(1 0 0 1 0 0)" d="M0 0.02001953L595.2 0.02001953L595.2 0.02001953L595.2 842L595.2 842L0 842z" /></clipPath><clipPath id="7"><path id="" clip-rule="evenodd" transform="matrix(1 0 0 1 0 0)" d="M115.56 428.7L193.98 428.7L193.98 428.7L193.98 443.1L193.98 443.1L115.56 443.1z" /></clipPath><clipPath id="8"><path id="" clip-rule="evenodd" transform="matrix(1 0 0 1 0 0)" d="M0 0.02001953L595.2 0.02001953L595.2 0.02001953L595.2 842L595.2 842L0 842z" /></clipPath><clipPath id="9"><path id="" clip-rule="evenodd" transform="matrix(1 0 0 1 0 0)" d="M115.98 429.18L189.36 429.18L189.36 429.18L189.36 442.98L189.36 442.98L115.98 442.98z" /></clipPath><clipPath id="10"><path id="" clip-rule="evenodd" transform="matrix(1 0 0 1 0 0)" d="M115.56 428.7L193.98 428.7L193.98 428.7L193.98 443.1L193.98 443.1L115.56 443.1z" /></clipPath><clipPath id="11"><path id="" clip-rule="evenodd" transform="matrix(1 0 0 1 0 0)" d="M0 0.02001953L595.2 0.02001953L595.2 0.02001953L595.2 842L595.2 842L0 842z" /></clipPath><clipPath id="12"><path id="" clip-rule="evenodd" transform="matrix(1 0 0 1 0 0)" d="M216.96 527.64L440.4 527.64L440.4 527.64L440.4 706.8L440.4 706.8L216.96 706.8z" /></clipPath><clipPath id="13"><path id="" clip-rule="evenodd" transform="matrix(1 0 0 1 0 0)" d="M215.94 526.68L441.42 526.68L441.42 526.68L441.42 707.82L441.42 707.82L215.94 707.82z" /></clipPath><clipPath id="14"><path id="" clip-rule="evenodd" transform="matrix(1 0 0 1 0 0)" d="M0 0.02001953L595.2 0.02001953L595.2 0.02001953L595.2 842L595.2 842L0 842z" /></clipPath><clipPath id="15"><path id="" clip-rule="evenodd" transform="matrix(1 0 0 1 0 0)" d="M215.94 526.68L441.42 526.68L441.42 526.68L441.42 707.82L441.42 707.82L215.94 707.82z" /></clipPath><clipPath id="16"><path id="" clip-rule="evenodd" transform="matrix(1 0 0 1 0 0)" d="M0 0.02001953L595.2 0.02001953L595.2 0.02001953L595.2 842L595.2 842L0 842z" /></clipPath></defs><g transform="matrix(1.333333 0 0 1.333333 0 0)"><g clip-path="url(#1)"><g clip-path="url(#2)"><g clip-path="url(#3)"><g clip-path="url(#4)"><g transform="matrix(0.4790103 0 0 0.4794024 216.96 138)"><g transform="matrix(1 0 0 1 0 0)"><image x="0" y="0" xlink:href="img_845.png" width="485" height="502" /></g></g></g></g></g><g clip-path="url(#5)"><g clip-path="url(#6)"><path id="177" transform="matrix(1 0 0 -1 0 842)" d="M379.74 511.4L379.68 511.58L379.68 511.58L379.56 511.82L379.56 511.82L379.44 511.94L379.44 511.94L379.38 512.06L379.38 512.06L379.14 512.3L379.14 512.3L379.02 512.36L379.02 512.36L378.66 512.54L378.66 512.54L378.48 512.54L378.48 512.54L378.36 512.6L378.36 512.6L378.24 512.6L378.24 512.6L378.06 512.54L378.06 512.54L377.94 512.54L377.94 512.54L377.76 512.48L377.76 512.48L377.4 512.3L377.4 512.3L377.28 512.18L377.28 512.18L377.16 512.12L377.16 512.12L377.04 512L377.04 512L376.92 511.76L376.92 511.76L376.86 511.58L376.86 511.58L376.8 511.46L376.8 511.46L376.8 511.34L376.8 511.34L376.74 511.16L376.74 511.16L376.74 511.04L376.74 511.04L376.8 510.86L376.8 510.86L376.8 510.74L376.8 510.74L376.86 510.56L376.86 510.56L376.92 510.44L376.92 510.44L377.04 510.2L377.04 510.2L377.16 510.08L377.16 510.08L377.22 509.96L377.22 509.96L377.34 509.9L377.34 509.9L377.46 509.78L377.46 509.78L377.58 509.72L377.58 509.72L377.76 509.66L377.76 509.66L377.88 509.66L377.88 509.66L378 509.6L378 509.6L378.6 509.6L378.6 509.6L378.78 509.66L378.78 509.66L379.02 509.78L379.02 509.78L379.14 509.9L379.14 509.9L379.26 509.96L379.26 509.96L379.38 510.08L379.38 510.08L379.44 510.2L379.44 510.2L379.56 510.32L379.56 510.32L379.62 510.44L379.62 510.44L379.68 510.56L379.68 510.56L379.74 510.68L379.74 510.68L379.74 511.4" stroke="none" fill="#FF0000" fill-rule="evenodd" /><path id="178" transform="matrix(1 0 0 -1 0 842)" d="M378.24 511.1L377.1 516.08L377.04 516.74L377.64 516.68L396.18 515.84L397.92 515.78L396.42 514.94L380.22 505.82L379.62 505.46L379.44 506.12L379.68 506.66L395.88 515.78L396.42 514.94L396.12 514.88L377.58 515.72L377.64 516.68L378.12 516.32L379.26 511.34" stroke="none" fill="#FF0000" fill-rule="nonzero" /><path id="179" transform="matrix(1 0 0 -1 0 842)" d="M379.44 506.12L378.24 511.1L379.26 511.34L380.46 506.36" stroke="none" fill="#FF0000" fill-rule="nonzero" /><path id="180" transform="matrix(1 0 0 -1 0 842)" d="M378.72 511.22L377.58 516.2L377.58 516.2L396.12 515.36L396.12 515.36L379.92 506.24" stroke="none" fill="#FF0000" fill-rule="evenodd" /><path id="181" transform="matrix(1 0 0 -1 0 842)" d="M317.46 498.02L316.02 497.66L316.74 494.72L318.18 495.08" stroke="none" fill="#FF0000" fill-rule="nonzero" /><path id="182" transform="matrix(1 0 0 -1 0 842)" d="M377.88 512.54L379.32 512.9L380.04 509.96L378.6 509.6" stroke="none" fill="#FF0000" fill-rule="nonzero" /><path id="183" transform="matrix(1 0 0 -1 0 842)" d="M317.46 498.02L318.18 495.08L378.6 509.6L377.88 512.54" stroke="none" fill="#FF0000" fill-rule="nonzero" /><path id="184" transform="matrix(1 0 0 -1 0 842)" d="M432.96 563.18L433.26 563.18L433.26 563.18L433.38 563.24L433.38 563.24L433.56 563.24L433.56 563.24L433.68 563.3L433.68 563.3L433.8 563.36L433.8 563.36L433.92 563.42L433.92 563.42L434.04 563.54L434.04 563.54L434.16 563.6L434.16 563.6L434.22 563.72L434.22 563.72L434.34 563.84L434.34 563.84L434.46 564.08L434.46 564.08L434.52 564.26L434.52 564.26L434.58 564.38L434.58 564.38L434.58 564.98L434.58 564.98L434.52 565.1L434.52 565.1L434.46 565.28L434.46 565.28L434.28 565.64L434.28 565.64L434.16 565.76L434.16 565.76L434.04 565.82L434.04 565.82L433.92 565.94L433.92 565.94L433.68 566.06L433.68 566.06L433.56 566.12L433.56 566.12L433.38 566.18L433.38 566.18L432.78 566.18L432.78 566.18L432.66 566.12L432.66 566.12L432.54 566.06L432.54 566.06L432.36 566L432.36 566L432.24 565.94L432.24 565.94L431.82 565.52L431.82 565.52L431.64 565.16L431.64 565.16L431.64 564.98L431.64 564.98L431.58 564.86L431.58 564.86L431.58 564.5L431.58 564.5L431.64 564.38L431.64 564.38L431.64 564.26L431.64 564.26L431.7 564.08L431.7 564.08L431.82 563.84L431.82 563.84L431.94 563.72L431.94 563.72L432 563.6L432 563.6L432.12 563.54L432.12 563.54L432.24 563.42L432.24 563.42L432.36 563.36L432.36 563.36L432.48 563.3L432.48 563.3L432.66 563.24L432.66 563.24L432.78 563.24L432.78 563.24L432.96 563.18" stroke="none" fill="#FF0000" fill-rule="evenodd" /><path id="185" transform="matrix(1 0 0 -1 0 842)" d="M433.08 564.68L438.18 564.14L438.84 564.02L438.6 563.42L431.7 546.14L431.04 544.52L430.74 546.26L427.44 564.56L427.32 565.22L427.98 565.16L428.4 564.74L431.7 546.44L430.74 546.26L430.74 546.56L437.64 563.84L438.6 563.42L438.06 563.12L432.96 563.66" stroke="none" fill="#FF0000" fill-rule="nonzero" /><path id="186" transform="matrix(1 0 0 -1 0 842)" d="M427.98 565.16L433.08 564.68L432.96 563.66L427.86 564.14" stroke="none" fill="#FF0000" fill-rule="nonzero" /><path id="187" transform="matrix(1 0 0 -1 0 842)" d="M433.02 564.2L438.12 563.66L438.12 563.66L431.22 546.38L431.22 546.38L427.92 564.68" stroke="none" fill="#FF0000" fill-rule="evenodd" /><path id="188" transform="matrix(1 0 0 -1 0 842)" d="M440.82 626.18L440.94 627.68L437.94 627.98L437.82 626.48" stroke="none" fill="#FF0000" fill-rule="nonzero" /><path id="189" transform="matrix(1 0 0 -1 0 842)" d="M434.58 564.5L434.46 563L431.46 563.3L431.58 564.8" stroke="none" fill="#FF0000" fill-rule="nonzero" /><path id="190" transform="matrix(1 0 0 -1 0 842)" d="M440.82 626.18L437.82 626.48L431.58 564.8L434.58 564.5" stroke="none" fill="#FF0000" fill-rule="nonzero" /><path id="191" transform="matrix(1 0 0 -1 0 842)" d="M331.08 543.02L330.96 543.26L330.96 543.26L330.9 543.44L330.9 543.44L330.78 543.68L330.78 543.68L330.66 543.74L330.66 543.74L330.42 543.98L330.42 543.98L330.06 544.16L330.06 544.16L329.88 544.16L329.88 544.16L329.76 544.22L329.76 544.22L329.46 544.22L329.46 544.22L329.28 544.16L329.28 544.16L329.16 544.16L329.16 544.16L329.04 544.1L329.04 544.1L328.86 544.04L328.86 544.04L328.74 543.92L328.74 543.92L328.62 543.86L328.62 543.86L328.56 543.74L328.56 543.74L328.44 543.62L328.44 543.62L328.38 543.56L328.38 543.56L328.26 543.38L328.26 543.38L328.14 543.14L328.14 543.14L328.14 542.84L328.14 542.84L328.08 542.72L328.08 542.72L328.08 542.54L328.08 542.54L328.14 542.42L328.14 542.42L328.2 542.24L328.2 542.24L328.2 542.12L328.2 542.12L328.26 542L328.26 542L328.38 541.88L328.38 541.88L328.44 541.76L328.44 541.76L328.68 541.52L328.68 541.52L329.28 541.22L329.28 541.22L329.88 541.22L329.88 541.22L330.06 541.28L330.06 541.28L330.54 541.52L330.54 541.52L330.78 541.76L330.78 541.76L331.02 542.24L331.02 542.24L331.08 542.42L331.08 542.42L331.08 543.02" stroke="none" fill="#FF0000" fill-rule="evenodd" /><path id="192" transform="matrix(1 0 0 -1 0 842)" d="M329.64 542.66L328.62 547.7L328.5 548.36L329.16 548.3L347.7 546.8L349.44 546.68L347.94 545.9L331.38 537.3799L330.72 537.08L330.6 537.68L330.84 538.22L347.4 546.74L347.94 545.9L347.64 545.84L329.1 547.34L329.16 548.3L329.64 547.94L330.66 542.9" stroke="none" fill="#FF0000" fill-rule="nonzero" /><path id="193" transform="matrix(1 0 0 -1 0 842)" d="M330.6 537.68L329.64 542.66L330.66 542.9L331.62 537.92" stroke="none" fill="#FF0000" fill-rule="nonzero" /><path id="194" transform="matrix(1 0 0 -1 0 842)" d="M330.12 542.78L329.1 547.82L329.1 547.82L347.64 546.32L347.64 546.32L331.08 537.8" stroke="none" fill="#FF0000" fill-rule="evenodd" /><path id="195" transform="matrix(1 0 0 -1 0 842)" d="M286.74 535.52L285.3 535.22L285.9 532.28L287.34 532.58" stroke="none" fill="#FF0000" fill-rule="nonzero" /><path id="196" transform="matrix(1 0 0 -1 0 842)" d="M329.28 544.16L330.72 544.46L331.32 541.52L329.88 541.22" stroke="none" fill="#FF0000" fill-rule="nonzero" /><path id="197" transform="matrix(1 0 0 -1 0 842)" d="M286.74 535.52L287.34 532.58L329.88 541.22L329.28 544.16" stroke="none" fill="#FF0000" fill-rule="nonzero" /></g></g><g clip-path="url(#7)"><g clip-path="url(#8)"><path id="201" transform="matrix(1 0 0 -1 0 842)" d="M115.56 398.9L193.98 398.9L193.98 413.3L115.56 413.3z" stroke="none" fill="#FFFFFF" fill-rule="nonzero" /></g></g><g clip-path="url(#9)"><g clip-path="url(#10)"><g clip-path="url(#11)"><g transform="matrix(0.7265346 0 0 0.7263158 115.98 429.18)"><g transform="matrix(1 0 0 1 0 0)"><image x="0" y="0" xlink:href="img_09.png" width="101" height="19" /></g></g></g></g></g><path id="203" transform="matrix(1 0 0 -1 0 842)" d="M233.94 417.32L549 417.32L549 369.32L233.94 369.32" stroke="none" fill="#ECF5FC" fill-rule="nonzero" /><g clip-path="url(#12)"><g clip-path="url(#13)"><g clip-path="url(#14)"><g transform="matrix(0.479485 0 0 0.4790375 216.96 527.64)"><g transform="matrix(1 0 0 1 0 0)"><image x="0" y="0" xlink:href="img_846.png" width="466" height="374" /></g></g></g></g></g><g clip-path="url(#15)"><g clip-path="url(#16)"><path id="280" transform="matrix(1 0 0 -1 0 842)" d="M329.88 183.74L329.82 183.86L329.82 183.86L329.7 183.92L329.7 183.92L329.46 184.16L329.46 184.16L329.22 184.28L329.22 184.28L329.1 184.28L329.1 184.28L328.92 184.34L328.92 184.34L328.38 184.34L328.38 184.34L328.2 184.28L328.2 184.28L327.84 184.1L327.84 184.1L327.66 184.04L327.66 184.04L327.6 183.92L327.6 183.92L327.48 183.8L327.48 183.8L327.42 183.68L327.42 183.68L327.3 183.56L327.3 183.56L327.24 183.44L327.24 183.44L327.24 183.26L327.24 183.26L327.18 183.14L327.18 183.14L327.18 182.54L327.18 182.54L327.3 182.3L327.3 182.3L327.36 182.12L327.36 182.12L327.42 182L327.42 182L327.54 181.88L327.54 181.88L327.6 181.76L327.6 181.76L327.72 181.7L327.72 181.7L327.84 181.58L327.84 181.58L328.08 181.46L328.08 181.46L328.26 181.4L328.26 181.4L328.5 181.4L328.5 181.4L328.68 181.34L328.68 181.34L328.8 181.4L328.8 181.4L328.98 181.4L328.98 181.4L329.1 181.46L329.1 181.46L329.22 181.46L329.22 181.46L329.4 181.58L329.4 181.58L329.64 181.7L329.64 181.7L329.76 181.82L329.76 181.82L329.82 181.94L329.82 181.94L329.94 182.06L329.94 182.06L330.06 182.3L330.06 182.3L330.12 182.48L330.12 182.48L330.12 182.6L330.12 182.6L330.18 182.72L330.18 182.72L330.18 183.02L330.18 183.02L330.12 183.14L330.12 183.14L330.12 183.32L330.12 183.32L330.06 183.44L330.06 183.44L330 183.56L330 183.56L329.88 183.74" stroke="none" fill="#FF0000" fill-rule="evenodd" /><path id="281" transform="matrix(1 0 0 -1 0 842)" d="M328.68 182.84L325.74 187.1L325.44 187.7L326.04 187.88L343.68 193.76L345.36 194.36L344.22 192.98L332.4 178.64L331.98 178.1L331.56 178.64L331.62 179.24L343.44 193.58L344.22 192.98L343.98 192.8L326.34 186.92L326.04 187.88L326.58 187.7L329.52 183.44" stroke="none" fill="#FF0000" fill-rule="nonzero" /><path id="282" transform="matrix(1 0 0 -1 0 842)" d="M331.56 178.64L328.68 182.84L329.52 183.44L332.4 179.24" stroke="none" fill="#FF0000" fill-rule="nonzero" /><path id="283" transform="matrix(1 0 0 -1 0 842)" d="M329.1 183.14L326.16 187.4L326.16 187.4L343.8 193.28L343.8 193.28L331.98 178.94" stroke="none" fill="#FF0000" fill-rule="evenodd" /><path id="284" transform="matrix(1 0 0 -1 0 842)" d="M294.18 161L292.98 160.16L294.66 157.7L295.86 158.54" stroke="none" fill="#FF0000" fill-rule="nonzero" /><path id="285" transform="matrix(1 0 0 -1 0 842)" d="M327.84 184.04L329.04 184.88L330.72 182.42L329.52 181.58" stroke="none" fill="#FF0000" fill-rule="nonzero" /><path id="286" transform="matrix(1 0 0 -1 0 842)" d="M294.18 161L295.86 158.54L329.52 181.58L327.84 184.04" stroke="none" fill="#FF0000" fill-rule="nonzero" /><path id="287" transform="matrix(1 0 0 -1 0 842)" d="M380.94 240.5L380.94 240.32L380.94 240.32L381 240.2L381 240.2L381.06 240.02L381.06 240.02L381.12 239.9L381.12 239.9L381.42 239.6L381.42 239.6L381.54 239.54L381.54 239.54L381.66 239.42L381.66 239.42L381.78 239.36L381.78 239.36L381.96 239.3L381.96 239.3L382.08 239.3L382.08 239.3L382.2 239.24L382.2 239.24L382.5 239.24L382.5 239.24L382.68 239.3L382.68 239.3L382.8 239.3L382.8 239.3L382.98 239.36L382.98 239.36L383.22 239.48L383.22 239.48L383.34 239.6L383.34 239.6L383.46 239.66L383.46 239.66L383.52 239.78L383.52 239.78L383.64 239.9L383.64 239.9L383.82 240.26L383.82 240.26L383.88 240.44L383.88 240.44L383.88 241.04L383.88 241.04L383.82 241.16L383.82 241.16L383.76 241.34L383.76 241.34L383.58 241.7L383.58 241.7L383.46 241.82L383.46 241.82L383.34 241.88L383.34 241.88L383.22 242L383.22 242L382.74 242.24L382.74 242.24L382.14 242.24L382.14 242.24L381.96 242.18L381.96 242.18L381.72 242.06L381.72 242.06L381.54 242L381.54 242L381.24 241.7L381.24 241.7L381.18 241.58L381.18 241.58L381.06 241.46L381.06 241.46L381 241.34L381 241.34L380.94 241.22L380.94 241.22L380.94 241.04L380.94 241.04L380.88 240.92L380.88 240.92L380.88 240.62L380.88 240.62L380.94 240.5" stroke="none" fill="#FF0000" fill-rule="evenodd" /><path id="288" transform="matrix(1 0 0 -1 0 842)" d="M382.38 240.74L383.34 235.7L383.46 235.1L382.8 235.16L364.26 236.9L362.52 237.02L364.08 237.8L380.7 246.14L381.3 246.44L381.42 245.78L381.12 245.24L364.5 236.9L364.08 237.8L364.38 237.86L382.92 236.12L382.8 235.16L382.32 235.52L381.36 240.56" stroke="none" fill="#FF0000" fill-rule="nonzero" /><path id="289" transform="matrix(1 0 0 -1 0 842)" d="M381.42 245.78L382.38 240.74L381.36 240.56L380.4 245.6" stroke="none" fill="#FF0000" fill-rule="nonzero" /><path id="290" transform="matrix(1 0 0 -1 0 842)" d="M381.9 240.68L382.86 235.64L382.86 235.64L364.32 237.38L364.32 237.38L380.94 245.72" stroke="none" fill="#FF0000" fill-rule="evenodd" /><path id="291" transform="matrix(1 0 0 -1 0 842)" d="M419.1 246.02L420.54 246.26L420 249.2L418.56 248.96" stroke="none" fill="#FF0000" fill-rule="nonzero" /><path id="292" transform="matrix(1 0 0 -1 0 842)" d="M382.68 239.24L381.24 239L380.7 241.94L382.14 242.18" stroke="none" fill="#FF0000" fill-rule="nonzero" /><path id="293" transform="matrix(1 0 0 -1 0 842)" d="M419.1 246.02L418.56 248.96L382.14 242.18L382.68 239.24" stroke="none" fill="#FF0000" fill-rule="nonzero" /></g></g></g></g></svg>