<svg xmlns="http://www.w3.org/2000/svg" xmlns:xlink="http://www.w3.org/1999/xlink" id="body_202" preserveAspectRatio="xMinYMin meet" viewBox="0 0 793 1123"><defs><clipPath id="1"><path id="" clip-rule="evenodd" transform="matrix(1 0 0 1 0 0)" d="M0 842L0 0L0 0L595 0L595 0L595 842L595 842L0 842z" /></clipPath><clipPath id="2"><path id="" clip-rule="evenodd" transform="matrix(1 0 0 1 0 0)" d="M435.6 77.52002L530.16 77.52002L530.16 77.52002L530.16 201.36L530.16 201.36L435.6 201.36z" /></clipPath><clipPath id="3"><path id="" clip-rule="evenodd" transform="matrix(1 0 0 1 0 0)" d="M224.94 76.02002L531.18 76.02002L531.18 76.02002L531.18 202.86L531.18 202.86L224.94 202.86z" /></clipPath><clipPath id="4"><path id="" clip-rule="evenodd" transform="matrix(1 0 0 1 0 0)" d="M0 0.02001953L595.2 0.02001953L595.2 0.02001953L595.2 842L595.2 842L0 842z" /></clipPath><clipPath id="5"><path id="" clip-rule="evenodd" transform="matrix(1 0 0 1 0 0)" d="M225.96 77.03998L333 77.03998L333 77.03998L333 201.84L333 201.84L225.96 201.84z" /></clipPath><clipPath id="6"><path id="" clip-rule="evenodd" transform="matrix(1 0 0 1 0 0)" d="M224.94 76.02002L531.18 76.02002L531.18 76.02002L531.18 202.86L531.18 202.86L224.94 202.86z" /></clipPath><clipPath id="7"><path id="" clip-rule="evenodd" transform="matrix(1 0 0 1 0 0)" d="M0 0.02001953L595.2 0.02001953L595.2 0.02001953L595.2 842L595.2 842L0 842z" /></clipPath><clipPath id="8"><path id="" clip-rule="evenodd" transform="matrix(1 0 0 1 0 0)" d="M224.94 76.02002L531.18 76.02002L531.18 76.02002L531.18 202.86L531.18 202.86L224.94 202.86z" /></clipPath><clipPath id="9"><path id="" clip-rule="evenodd" transform="matrix(1 0 0 1 0 0)" d="M0 0.02001953L595.2 0.02001953L595.2 0.02001953L595.2 842L595.2 842L0 842z" /></clipPath><clipPath id="10"><path id="" clip-rule="evenodd" transform="matrix(1 0 0 1 0 0)" d="M241.74 317.4L422.64 317.4L422.64 317.4L422.64 526.2L422.64 526.2L241.74 526.2z" /></clipPath><clipPath id="11"><path id="" clip-rule="evenodd" transform="matrix(1 0 0 1 0 0)" d="M224.94 287.82L553.38 287.82L553.38 287.82L553.38 527.22L553.38 527.22L224.94 527.22z" /></clipPath><clipPath id="12"><path id="" clip-rule="evenodd" transform="matrix(1 0 0 1 0 0)" d="M0 0.02001953L595.2 0.02001953L595.2 0.02001953L595.2 842L595.2 842L0 842z" /></clipPath><clipPath id="13"><path id="" clip-rule="evenodd" transform="matrix(1 0 0 1 0 0)" d="M224.94 287.82L553.38 287.82L553.38 287.82L553.38 527.22L553.38 527.22L224.94 527.22z" /></clipPath><clipPath id="14"><path id="" clip-rule="evenodd" transform="matrix(1 0 0 1 0 0)" d="M0 0.02001953L595.2 0.02001953L595.2 0.02001953L595.2 842L595.2 842L0 842z" /></clipPath></defs><g transform="matrix(1.333333 0 0 1.333333 0 0)"><g clip-path="url(#1)"><g clip-path="url(#2)"><g clip-path="url(#3)"><g clip-path="url(#4)"><g transform="matrix(0.48 0 0 0.48 435.6 77.52002)"><g transform="matrix(1 0 0 1 0 0)"><image x="0" y="0" xlink:href="img_528.png" width="197" height="258" /></g></g></g></g></g><g clip-path="url(#5)"><g clip-path="url(#6)"><g clip-path="url(#7)"><g transform="matrix(0.48 0 0 0.48 225.96 77.04004)"><g transform="matrix(1 0 0 1 0 0)"><image x="0" y="0" xlink:href="img_529.png" width="223" height="260" /></g></g></g></g></g><g clip-path="url(#8)"><g clip-path="url(#9)"><path id="239" transform="matrix(1 0 0 -1 0 842)" d="M401.64 702.56L401.64 702.74L401.64 702.74L401.58 702.86L401.58 702.86L401.58 703.04L401.58 703.04L401.46 703.28L401.46 703.28L401.34 703.4L401.34 703.4L401.28 703.52L401.28 703.52L401.16 703.64L401.16 703.64L401.1 703.7L401.1 703.7L400.98 703.82L400.98 703.82L400.86 703.88L400.86 703.88L400.68 703.94L400.68 703.94L400.44 704.06L400.44 704.06L399.84 704.06L399.84 704.06L399.66 704L399.66 704L399.3 703.82L399.3 703.82L399.18 703.7L399.18 703.7L399.06 703.64L399.06 703.64L398.94 703.52L398.94 703.52L398.7 703.04L398.7 703.04L398.64 702.86L398.64 702.86L398.64 702.26L398.64 702.26L398.7 702.14L398.7 702.14L398.76 701.96L398.76 701.96L398.94 701.6L398.94 701.6L399.06 701.48L399.06 701.48L399.18 701.42L399.18 701.42L399.3 701.3L399.3 701.3L399.66 701.12L399.66 701.12L399.84 701.12L399.84 701.12L399.96 701.06L399.96 701.06L400.26 701.06L400.26 701.06L400.44 701.12L400.44 701.12L400.56 701.12L400.56 701.12L400.68 701.18L400.68 701.18L400.86 701.24L400.86 701.24L400.98 701.3L400.98 701.3L401.1 701.42L401.1 701.42L401.16 701.48L401.16 701.48L401.28 701.6L401.28 701.6L401.34 701.72L401.34 701.72L401.46 701.84L401.46 701.84L401.52 701.96L401.52 701.96L401.58 702.14L401.58 702.14L401.58 702.26L401.58 702.26L401.64 702.44L401.64 702.44L401.64 702.56" stroke="none" fill="#000000" fill-rule="evenodd" /><path id="240" transform="matrix(1 0 0 -1 0 842)" d="M400.14 702.56L400.14 708.38L400.8 708.2L418.68 703.04L420.36 702.56L400.8 696.98L400.14 696.8L400.14 697.46L400.5 697.94L418.38 703.04L418.68 702.08L418.38 702.08L400.5 707.24L400.8 708.2L401.16 707.72L401.16 702.56" stroke="none" fill="#000000" fill-rule="nonzero" /><path id="241" transform="matrix(1 0 0 -1 0 842)" d="M400.14 697.46L401.16 697.46L401.16 702.56L400.14 702.56z" stroke="none" fill="#000000" fill-rule="nonzero" /><path id="242" transform="matrix(1 0 0 -1 0 842)" d="M400.62 702.56L400.62 707.72L400.62 707.72L418.5 702.56L418.5 702.56L400.62 697.46" stroke="none" fill="#000000" fill-rule="evenodd" /><path id="243" transform="matrix(1 0 0 -1 0 842)" d="M346.8 701.06L348.3 701.06L348.3 704.06L346.8 704.06z" stroke="none" fill="#000000" fill-rule="nonzero" /><path id="244" transform="matrix(1 0 0 -1 0 842)" d="M348.3 701.06L401.64 701.06L401.64 704.06L348.3 704.06z" stroke="none" fill="#000000" fill-rule="nonzero" /></g></g><g clip-path="url(#10)"><g clip-path="url(#11)"><g clip-path="url(#12)"><g transform="matrix(0.48 0 0 0.48 241.74 317.4)"><g transform="matrix(1 0 0 1 0 0)"><image x="0" y="0" xlink:href="img_530.png" width="377" height="435" /></g></g></g></g></g><g clip-path="url(#13)"><g clip-path="url(#14)"><path id="246" transform="matrix(1 0 0 -1 0 842)" d="M330.96 531.56L335.1 531.56L334.92 530.9L331.44 518.84L330.96 517.16L330.48 518.84L327 530.9L326.82 531.56L327.48 531.56L327.96 531.2L331.44 519.14L330.48 518.84L330.48 519.14L333.96 531.2L334.92 530.9L334.44 530.54L330.96 530.54" stroke="none" fill="#000000" fill-rule="nonzero" /><path id="247" transform="matrix(1 0 0 -1 0 842)" d="M327.48 530.54L330.96 530.54L330.96 531.56L327.48 531.56z" stroke="none" fill="#000000" fill-rule="nonzero" /><path id="248" transform="matrix(1 0 0 -1 0 842)" d="M330.96 531.08L334.44 531.08L334.44 531.08L330.96 519.02L330.96 519.02L327.48 531.08" stroke="none" fill="#000000" fill-rule="evenodd" /><path id="249" transform="matrix(1 0 0 -1 0 842)" d="M330.48 531.62L331.5 531.62L331.5 553.16L330.48 553.16z" stroke="none" fill="#000000" fill-rule="nonzero" /><path id="250" transform="matrix(1 0 0 -1 0 842)" d="M264.06 489.98L265.8 492.98L266.16 493.52L266.64 493.04L275.4 483.98L276.6 482.72L274.92 483.2L262.68 486.26L262.02 486.38L262.32 486.98L262.86 487.22L275.1 484.16L274.92 483.2L274.62 483.32L265.86 492.38L266.64 493.04L266.7 492.44L264.96 489.44" stroke="none" fill="#000000" fill-rule="nonzero" /><path id="251" transform="matrix(1 0 0 -1 0 842)" d="M262.32 486.98L264.06 489.98L264.96 489.44L263.22 486.5" stroke="none" fill="#000000" fill-rule="nonzero" /><path id="252" transform="matrix(1 0 0 -1 0 842)" d="M264.48 489.74L266.22 492.74L266.22 492.74L274.98 483.68L274.98 483.68L262.74 486.74" stroke="none" fill="#000000" fill-rule="evenodd" /><path id="253" transform="matrix(1 0 0 -1 0 842)" d="M245.7 501.2L245.16 500.3L263.82 489.5L264.36 490.4" stroke="none" fill="#000000" fill-rule="nonzero" /><path id="254" transform="matrix(1 0 0 -1 0 842)" d="M270.3 410.72L267.84 413.18L267.42 413.66L267.96 414.02L278.94 420.08L280.5 420.92L279.66 419.36L273.6 408.38L273.24 407.84L272.76 408.26L272.7 408.86L278.76 419.84L279.66 419.36L279.42 419.18L268.44 413.12L267.96 414.02L268.56 413.9L271.02 411.44" stroke="none" fill="#000000" fill-rule="nonzero" /><path id="255" transform="matrix(1 0 0 -1 0 842)" d="M272.76 408.26L270.3 410.72L271.02 411.44L273.48 408.98" stroke="none" fill="#000000" fill-rule="nonzero" /><path id="256" transform="matrix(1 0 0 -1 0 842)" d="M270.66 411.08L268.2 413.54L268.2 413.54L279.18 419.6L279.18 419.6L273.12 408.62" stroke="none" fill="#000000" fill-rule="evenodd" /><path id="257" transform="matrix(1 0 0 -1 0 842)" d="M254.7 395.78L255.42 395.06L270.66 410.36L269.94 411.08" stroke="none" fill="#000000" fill-rule="nonzero" /><path id="258" transform="matrix(1 0 0 -1 0 842)" d="M402.24 414.56L400.5 411.56L400.14 411.02L399.66 411.5L390.9 420.56L389.7 421.76L403.62 418.28L404.28 418.16L403.98 417.56L403.44 417.32L391.2 420.38L391.38 421.34L391.68 421.22L400.44 412.16L399.66 411.5L399.6 412.1L401.34 415.04" stroke="none" fill="#000000" fill-rule="nonzero" /><path id="259" transform="matrix(1 0 0 -1 0 842)" d="M403.98 417.56L402.24 414.56L401.34 415.04L403.08 418.04" stroke="none" fill="#000000" fill-rule="nonzero" /><path id="260" transform="matrix(1 0 0 -1 0 842)" d="M401.82 414.8L400.08 411.8L400.08 411.8L391.32 420.86L391.32 420.86L403.56 417.8" stroke="none" fill="#000000" fill-rule="evenodd" /><path id="261" transform="matrix(1 0 0 -1 0 842)" d="M420.72 403.28L421.2 404.18L402.48 414.98L402 414.08" stroke="none" fill="#000000" fill-rule="nonzero" /><path id="262" transform="matrix(1 0 0 -1 0 842)" d="M401.28 492.98L402.96 489.98L403.26 489.38L402.6 489.26L390.42 486.2L388.74 485.72L389.94 486.98L398.7 496.04L399.18 496.58L399.54 495.98L399.48 495.38L390.72 486.32L389.94 486.98L390.24 487.16L402.42 490.22L402.6 489.26L402.06 489.5L400.38 492.44" stroke="none" fill="#000000" fill-rule="nonzero" /><path id="263" transform="matrix(1 0 0 -1 0 842)" d="M399.54 495.98L401.28 492.98L400.38 492.44L398.64 495.44" stroke="none" fill="#000000" fill-rule="nonzero" /><path id="264" transform="matrix(1 0 0 -1 0 842)" d="M400.86 492.74L402.54 489.74L402.54 489.74L390.36 486.68L390.36 486.68L399.12 495.74" stroke="none" fill="#000000" fill-rule="evenodd" /><path id="265" transform="matrix(1 0 0 -1 0 842)" d="M420.24 503.3L419.7 504.2L401.04 493.4L401.58 492.5" stroke="none" fill="#000000" fill-rule="nonzero" /></g></g></g></g></svg>