<svg xmlns="http://www.w3.org/2000/svg" xmlns:xlink="http://www.w3.org/1999/xlink" id="body_226" preserveAspectRatio="xMinYMin meet" viewBox="0 0 793 1123"><defs><clipPath id="1"><path id="" clip-rule="evenodd" transform="matrix(1 0 0 1 0 0)" d="M0 842L0 0L0 0L595 0L595 0L595 842L595 842L0 842z" /></clipPath><clipPath id="2"><path id="" clip-rule="evenodd" transform="matrix(1 0 0 1 0 0)" d="M224.94 719.94L558 719.94L558 719.94L558 734.94L558 734.94L224.94 734.94z" /></clipPath><clipPath id="3"><path id="" clip-rule="evenodd" transform="matrix(1 0 0 1 0 0)" d="M0 0.02001953L595.2 0.02001953L595.2 0.02001953L595.2 842L595.2 842L0 842z" /></clipPath><clipPath id="4"><path id="" clip-rule="evenodd" transform="matrix(1 0 0 1 0 0)" d="M225.96 77.03998L426.84 77.03998L426.84 77.03998L426.84 266.4L426.84 266.4L225.96 266.4z" /></clipPath><clipPath id="5"><path id="" clip-rule="evenodd" transform="matrix(1 0 0 1 0 0)" d="M224.94 76.02002L427.86 76.02002L427.86 76.02002L427.86 267.42L427.86 267.42L224.94 267.42z" /></clipPath><clipPath id="6"><path id="" clip-rule="evenodd" transform="matrix(1 0 0 1 0 0)" d="M0 0.02001953L595.2 0.02001953L595.2 0.02001953L595.2 842L595.2 842L0 842z" /></clipPath><clipPath id="7"><path id="" clip-rule="evenodd" transform="matrix(1 0 0 1 0 0)" d="M224.94 76.02002L427.86 76.02002L427.86 76.02002L427.86 267.42L427.86 267.42L224.94 267.42z" /></clipPath><clipPath id="8"><path id="" clip-rule="evenodd" transform="matrix(1 0 0 1 0 0)" d="M0 0.02001953L595.2 0.02001953L595.2 0.02001953L595.2 842L595.2 842L0 842z" /></clipPath></defs><g transform="matrix(1.333333 0 0 1.333333 0 0)"><g clip-path="url(#1)"><path id="488" transform="matrix(1 0 0 -1 0 842)" d="M242.94 379.64L558 379.64L558 331.7L242.94 331.7" stroke="none" fill="#ECF5FC" fill-rule="nonzero" /><g clip-path="url(#2)"><g clip-path="url(#3)"><path id="549" transform="matrix(1 0 0 -1 0 842)" d="M225.36 114.8L225.6 114.8L225.6 115.28L225.36 115.28z" stroke="none" fill="#000000" fill-rule="nonzero" /><path id="550" transform="matrix(1 0 0 -1 0 842)" d="M225.6 114.8L369.9 114.8L369.9 115.28L225.6 115.28z" stroke="none" fill="#000000" fill-rule="nonzero" /></g></g><g clip-path="url(#4)"><g clip-path="url(#5)"><g clip-path="url(#6)"><g transform="matrix(0.4794272 0 0 0.4793924 225.96 77.04004)"><g transform="matrix(1 0 0 1 0 0)"><image x="0" y="0" xlink:href="img_617.png" width="419" height="395" /></g></g></g></g></g><g clip-path="url(#7)"><g clip-path="url(#8)"><path id="627" transform="matrix(1 0 0 -1 0 842)" d="M336.72 762.86L424.98 762.86L424.98 763.88L336.72 763.88z" stroke="none" fill="#000000" fill-rule="nonzero" /><path id="628" transform="matrix(1 0 0 -1 0 842)" d="M423.96 654.14L424.98 654.14L424.98 763.4L423.96 763.4z" stroke="none" fill="#000000" fill-rule="nonzero" /><path id="629" transform="matrix(1 0 0 -1 0 842)" d="M336.24 654.14L424.44 654.14L424.44 655.16L336.24 655.16z" stroke="none" fill="#000000" fill-rule="nonzero" /><path id="630" transform="matrix(1 0 0 -1 0 842)" d="M336.24 654.68L337.26 654.68L337.26 763.88L336.24 763.88z" stroke="none" fill="#000000" fill-rule="nonzero" /><path id="631" transform="matrix(1 0 0 -1 0 842)" d="M338.22 617.9L422.22 617.9L422.22 632.66L338.22 632.66z" stroke="none" fill="#FFFFFF" fill-rule="nonzero" /><path id="639" transform="matrix(1 0 0 -1 0 842)" d="M372.96 654.14L373.98 654.14L373.98 654.62L372.96 654.62z" stroke="none" fill="#000000" fill-rule="nonzero" /><path id="640" transform="matrix(1 0 0 -1 0 842)" d="M372.96 633.44L373.98 633.44L373.98 654.14L372.96 654.14z" stroke="none" fill="#000000" fill-rule="nonzero" /></g></g></g></g></svg>