<svg xmlns="http://www.w3.org/2000/svg" xmlns:xlink="http://www.w3.org/1999/xlink" id="body_157" preserveAspectRatio="xMinYMin meet" viewBox="0 0 793 1123"><defs><clipPath id="1"><path id="" clip-rule="evenodd" transform="matrix(1 0 0 1 0 0)" d="M0 842L0 0L0 0L595 0L595 0L595 842L595 842L0 842z" /></clipPath><clipPath id="2"><path id="" clip-rule="evenodd" transform="matrix(1 0 0 1 0 0)" d="M115.56 469.92L193.98 469.92L193.98 469.92L193.98 484.32L193.98 484.32L115.56 484.32z" /></clipPath><clipPath id="3"><path id="" clip-rule="evenodd" transform="matrix(1 0 0 1 0 0)" d="M0 0.02001953L595.2 0.02001953L595.2 0.02001953L595.2 842L595.2 842L0 842z" /></clipPath><clipPath id="4"><path id="" clip-rule="evenodd" transform="matrix(1 0 0 1 0 0)" d="M115.98 470.4L189.36 470.4L189.36 470.4L189.36 484.2L189.36 484.2L115.98 484.2z" /></clipPath><clipPath id="5"><path id="" clip-rule="evenodd" transform="matrix(1 0 0 1 0 0)" d="M115.56 469.92L193.98 469.92L193.98 469.92L193.98 484.32L193.98 484.32L115.56 484.32z" /></clipPath><clipPath id="6"><path id="" clip-rule="evenodd" transform="matrix(1 0 0 1 0 0)" d="M0 0.02001953L595.2 0.02001953L595.2 0.02001953L595.2 842L595.2 842L0 842z" /></clipPath></defs><g transform="matrix(1.333333 0 0 1.333333 0 0)"><g clip-path="url(#1)"><g clip-path="url(#2)"><g clip-path="url(#3)"><path id="663" transform="matrix(1 0 0 -1 0 842)" d="M115.56 357.68L193.98 357.68L193.98 372.08L115.56 372.08z" stroke="none" fill="#FFFFFF" fill-rule="nonzero" /></g></g><g clip-path="url(#4)"><g clip-path="url(#5)"><g clip-path="url(#6)"><g transform="matrix(0.7265346 0 0 0.7263158 115.98 470.4)"><g transform="matrix(1 0 0 1 0 0)"><image x="0" y="0" xlink:href="img_09.png" width="101" height="19" /></g></g></g></g></g><path id="665" transform="matrix(1 0 0 -1 0 842)" d="M215.94 376.1L549 376.1L549 342.08L215.94 342.08" stroke="none" fill="#ECF5FC" fill-rule="nonzero" /><path id="715" transform="matrix(1 0 0 -1 0 842)" d="M215.94 208.16L549 208.16L549 146.18L215.94 146.18" stroke="none" fill="#ECF5FC" fill-rule="nonzero" /></g></g></svg>