<svg xmlns="http://www.w3.org/2000/svg" xmlns:xlink="http://www.w3.org/1999/xlink" id="body_110" preserveAspectRatio="xMinYMin meet" viewBox="0 0 793 1123"><defs><clipPath id="1"><path id="" clip-rule="evenodd" transform="matrix(1 0 0 1 0 0)" d="M0 842L0 0L0 0L595 0L595 0L595 842L595 842L0 842z" /></clipPath><clipPath id="2"><path id="" clip-rule="evenodd" transform="matrix(1 0 0 1 0 0)" d="M180.36 172.02L193.98 172.02L193.98 172.02L193.98 186.42L193.98 186.42L180.36 186.42z" /></clipPath><clipPath id="3"><path id="" clip-rule="evenodd" transform="matrix(1 0 0 1 0 0)" d="M0 0.02001953L595.2 0.02001953L595.2 0.02001953L595.2 842L595.2 842L0 842z" /></clipPath><clipPath id="4"><path id="" clip-rule="evenodd" transform="matrix(1 0 0 1 0 0)" d="M180.36 173.22L194.34 173.22L194.34 173.22L194.34 185.22L194.34 185.22L180.36 185.22z" /></clipPath><clipPath id="5"><path id="" clip-rule="evenodd" transform="matrix(1 0 0 1 0 0)" d="M180.36 172.02L193.98 172.02L193.98 172.02L193.98 186.42L193.98 186.42L180.36 186.42z" /></clipPath><clipPath id="6"><path id="" clip-rule="evenodd" transform="matrix(1 0 0 1 0 0)" d="M0 0.02001953L595.2 0.02001953L595.2 0.02001953L595.2 842L595.2 842L0 842z" /></clipPath></defs><g transform="matrix(1.333333 0 0 1.333333 0 0)"><g clip-path="url(#1)"><path id="644" transform="matrix(1 0 0 -1 0 842)" d="M176.34 626L197.94 626L197.94 674L176.34 674z" stroke="none" fill="#FFFFFF" fill-rule="nonzero" /><g clip-path="url(#2)"><g clip-path="url(#3)"><path id="645" transform="matrix(1 0 0 -1 0 842)" d="M180.36 655.58L193.98 655.58L193.98 669.98L180.36 669.98z" stroke="none" fill="#FFFFFF" fill-rule="nonzero" /></g></g><g clip-path="url(#4)"><g clip-path="url(#5)"><g clip-path="url(#6)"><path id="646" transform="matrix(1 0 0 -1 0 842)" d="M187.678 667.703L193.483 657.709C 193.538 657.615 193.538 657.506 193.484 657.412C 193.429 657.317 193.336 657.263 193.226 657.263L193.226 657.263L181.616 657.263C 181.507 657.263 181.413 657.317 181.358 657.411C 181.304 657.506 181.304 657.615 181.359 657.709L181.359 657.709L187.164 667.703C 187.219 667.797 187.312 667.851 187.421 667.851C 187.53 667.851 187.623 667.797 187.678 667.703z" stroke="#000000" stroke-width="0.5" fill="#FFFF00" fill-rule="evenodd" /><path id="647" transform="matrix(1 0 0 -1 0 842)" d="M187.429 659.854C 187.661 659.854 187.86 659.772 188.024 659.607C 188.189 659.442 188.272 659.241 188.272 659.007C 188.272 658.774 188.189 658.575 188.024 658.41C 187.86 658.245 187.661 658.163 187.429 658.163C 187.196 658.163 186.997 658.245 186.832 658.41C 186.668 658.575 186.585 658.774 186.585 659.007C 186.585 659.237 186.667 659.438 186.83 659.604C 186.994 659.77 187.193 659.854 187.429 659.854M187.537 660.598L187.31 660.598C 187.285 660.994 187.205 661.472 187.07 662.035L187.07 662.035L186.798 663.168C 186.637 663.848 186.555 664.335 186.555 664.632C 186.555 664.898 186.635 665.113 186.793 665.277C 186.953 665.44 187.162 665.52 187.418 665.52C 187.669 665.52 187.875 665.438 188.04 665.273C 188.205 665.11 188.287 664.9 188.287 664.646C 188.287 664.383 188.2 663.8911 188.027 663.168L188.027 663.168L187.752 662.035C 187.654 661.632 187.583 661.1541 187.537 660.598z" stroke="none" fill="#000000" fill-rule="nonzero" /></g></g></g><path id="648" transform="matrix(1 0 0 -1 0 842)" d="M197.94 626L215.94 626L215.94 674L197.94 674z" stroke="none" fill="#FFFFFF" fill-rule="nonzero" /><path id="649" transform="matrix(1 0 0 -1 0 842)" d="M215.94 674L549 674L549 626L215.94 626" stroke="none" fill="#ECF5FC" fill-rule="nonzero" /></g></g></svg>