<svg xmlns="http://www.w3.org/2000/svg" xmlns:xlink="http://www.w3.org/1999/xlink" id="body_50" preserveAspectRatio="xMinYMin meet" viewBox="0 0 793 1123"><defs><clipPath id="1"><path id="" clip-rule="evenodd" transform="matrix(1 0 0 1 0 0)" d="M0 842L0 0L0 0L595 0L595 0L595 842L595 842L0 842z" /></clipPath><clipPath id="2"><path id="" clip-rule="evenodd" transform="matrix(1 0 0 1 0 0)" d="M215.94 741.96L549 741.96L549 741.96L549 756.96L549 756.96L215.94 756.96z" /></clipPath><clipPath id="3"><path id="" clip-rule="evenodd" transform="matrix(1 0 0 1 0 0)" d="M0 0.02001953L595.2 0.02001953L595.2 0.02001953L595.2 842L595.2 842L0 842z" /></clipPath><clipPath id="4"><path id="" clip-rule="evenodd" transform="matrix(1 0 0 1 0 0)" d="M115.56 401.94L193.98 401.94L193.98 401.94L193.98 416.34L193.98 416.34L115.56 416.34z" /></clipPath><clipPath id="5"><path id="" clip-rule="evenodd" transform="matrix(1 0 0 1 0 0)" d="M0 0.02001953L595.2 0.02001953L595.2 0.02001953L595.2 842L595.2 842L0 842z" /></clipPath><clipPath id="6"><path id="" clip-rule="evenodd" transform="matrix(1 0 0 1 0 0)" d="M115.98 402.42L189.36 402.42L189.36 402.42L189.36 416.22L189.36 416.22L115.98 416.22z" /></clipPath><clipPath id="7"><path id="" clip-rule="evenodd" transform="matrix(1 0 0 1 0 0)" d="M115.56 401.94L193.98 401.94L193.98 401.94L193.98 416.34L193.98 416.34L115.56 416.34z" /></clipPath><clipPath id="8"><path id="" clip-rule="evenodd" transform="matrix(1 0 0 1 0 0)" d="M0 0.02001953L595.2 0.02001953L595.2 0.02001953L595.2 842L595.2 842L0 842z" /></clipPath></defs><g transform="matrix(1.333333 0 0 1.333333 0 0)"><g clip-path="url(#1)"><g clip-path="url(#2)"><g clip-path="url(#3)"><path id="858" transform="matrix(1 0 0 -1 0 842)" d="M216.36 92.78L216.6 92.78L216.6 93.26L216.36 93.26z" stroke="none" fill="#000000" fill-rule="nonzero" /><path id="859" transform="matrix(1 0 0 -1 0 842)" d="M216.6 92.78L360.9 92.78L360.9 93.26L216.6 93.26z" stroke="none" fill="#000000" fill-rule="nonzero" /></g></g><path id="878" transform="matrix(1 0 0 -1 0 842)" d="M215.94 634.04L549 634.04L549 614L215.94 614" stroke="none" fill="#ECF5FC" fill-rule="nonzero" /><g clip-path="url(#4)"><g clip-path="url(#5)"><path id="901" transform="matrix(1 0 0 -1 0 842)" d="M115.56 425.66L193.98 425.66L193.98 440.06L115.56 440.06z" stroke="none" fill="#FFFFFF" fill-rule="nonzero" /></g></g><g clip-path="url(#6)"><g clip-path="url(#7)"><g clip-path="url(#8)"><g transform="matrix(0.7265346 0 0 0.7263158 115.98 402.42)"><g transform="matrix(1 0 0 1 0 0)"><image x="0" y="0" xlink:href="img_09.png" width="101" height="19" /></g></g></g></g></g><path id="903" transform="matrix(1 0 0 -1 0 842)" d="M215.94 444.08L549 444.08L549 410.12L215.94 410.12" stroke="none" fill="#ECF5FC" fill-rule="nonzero" /></g></g></svg>