<svg xmlns="http://www.w3.org/2000/svg" xmlns:xlink="http://www.w3.org/1999/xlink" id="body_188" preserveAspectRatio="xMinYMin meet" viewBox="0 0 793 1123"><defs><clipPath id="1"><path id="" clip-rule="evenodd" transform="matrix(1 0 0 1 0 0)" d="M0 842L0 0L0 0L595 0L595 0L595 842L595 842L0 842z" /></clipPath><clipPath id="2"><path id="" clip-rule="evenodd" transform="matrix(1 0 0 1 0 0)" d="M216.96 157.02L390.6 157.02L390.6 157.02L390.6 337.02L390.6 337.02L216.96 337.02z" /></clipPath><clipPath id="3"><path id="" clip-rule="evenodd" transform="matrix(1 0 0 1 0 0)" d="M215.94 156.06L533.82 156.06L533.82 156.06L533.82 338.04L533.82 338.04L215.94 338.04z" /></clipPath><clipPath id="4"><path id="" clip-rule="evenodd" transform="matrix(1 0 0 1 0 0)" d="M0 0.02001953L595.2 0.02001953L595.2 0.02001953L595.2 842L595.2 842L0 842z" /></clipPath><clipPath id="5"><path id="" clip-rule="evenodd" transform="matrix(1 0 0 1 0 0)" d="M215.94 156.06L533.82 156.06L533.82 156.06L533.82 338.04L533.82 338.04L215.94 338.04z" /></clipPath><clipPath id="6"><path id="" clip-rule="evenodd" transform="matrix(1 0 0 1 0 0)" d="M0 0.02001953L595.2 0.02001953L595.2 0.02001953L595.2 842L595.2 842L0 842z" /></clipPath><clipPath id="7"><path id="" clip-rule="evenodd" transform="matrix(1 0 0 1 0 0)" d="M115.56 387.06L193.98 387.06L193.98 387.06L193.98 401.46L193.98 401.46L115.56 401.46z" /></clipPath><clipPath id="8"><path id="" clip-rule="evenodd" transform="matrix(1 0 0 1 0 0)" d="M0 0.02001953L595.2 0.02001953L595.2 0.02001953L595.2 842L595.2 842L0 842z" /></clipPath><clipPath id="9"><path id="" clip-rule="evenodd" transform="matrix(1 0 0 1 0 0)" d="M115.98 387.54L189.36 387.54L189.36 387.54L189.36 401.34L189.36 401.34L115.98 401.34z" /></clipPath><clipPath id="10"><path id="" clip-rule="evenodd" transform="matrix(1 0 0 1 0 0)" d="M115.56 387.06L193.98 387.06L193.98 387.06L193.98 401.46L193.98 401.46L115.56 401.46z" /></clipPath><clipPath id="11"><path id="" clip-rule="evenodd" transform="matrix(1 0 0 1 0 0)" d="M0 0.02001953L595.2 0.02001953L595.2 0.02001953L595.2 842L595.2 842L0 842z" /></clipPath><clipPath id="12"><path id="" clip-rule="evenodd" transform="matrix(1 0 0 1 0 0)" d="M216.96 562.02L452.16 562.02L452.16 562.02L452.16 686.82L452.16 686.82L216.96 686.82z" /></clipPath><clipPath id="13"><path id="" clip-rule="evenodd" transform="matrix(1 0 0 1 0 0)" d="M215.94 561L547.56 561L547.56 561L547.56 695.28L547.56 695.28L215.94 695.28z" /></clipPath><clipPath id="14"><path id="" clip-rule="evenodd" transform="matrix(1 0 0 1 0 0)" d="M0 0.02001953L595.2 0.02001953L595.2 0.02001953L595.2 842L595.2 842L0 842z" /></clipPath><clipPath id="15"><path id="" clip-rule="evenodd" transform="matrix(1 0 0 1 0 0)" d="M215.94 561L547.56 561L547.56 561L547.56 695.28L547.56 695.28L215.94 695.28z" /></clipPath><clipPath id="16"><path id="" clip-rule="evenodd" transform="matrix(1 0 0 1 0 0)" d="M0 0.02001953L595.2 0.02001953L595.2 0.02001953L595.2 842L595.2 842L0 842z" /></clipPath></defs><g transform="matrix(1.333333 0 0 1.333333 0 0)"><g clip-path="url(#1)"><g clip-path="url(#2)"><g clip-path="url(#3)"><g clip-path="url(#4)"><g transform="matrix(0.7087346 0 0 0.7086614 216.96 157.02)"><g transform="matrix(1 0 0 1 0 0)"><image x="0" y="0" xlink:href="img_495.png" width="245" height="254" /></g></g></g></g></g><g clip-path="url(#5)"><g clip-path="url(#6)"><path id="403" transform="matrix(1 0 0 -1 0 842)" d="M316.32 632.06L317.52 628.82L317.7 628.16L317.04 628.1L304.44 627.2L302.7 627.08L304.08 628.16L314.28 635.48L314.88 635.9L315.12 635.3L314.94 634.7L304.74 627.32L304.08 628.16L304.38 628.22L316.98 629.12L317.04 628.1L316.56 628.46L315.36 631.7" stroke="none" fill="#FF0000" fill-rule="nonzero" /><path id="404" transform="matrix(1 0 0 -1 0 842)" d="M315.12 635.3L316.32 632.06L315.36 631.7L314.16 634.94" stroke="none" fill="#FF0000" fill-rule="nonzero" /><path id="405" transform="matrix(1 0 0 -1 0 842)" d="M315.84 631.88L317.04 628.64L317.04 628.64L304.44 627.74L304.44 627.74L314.64 635.12" stroke="none" fill="#FF0000" fill-rule="evenodd" /><path id="406" transform="matrix(1 0 0 -1 0 842)" d="M404.7 663.62L404.34 664.58L316.14 632.54L316.5 631.58" stroke="none" fill="#FF0000" fill-rule="nonzero" /><path id="427" transform="matrix(1 0 0 -1 0 842)" d="M318.6 608.66L318.12 605.24L318 604.58L317.4 604.8199L305.88 609.86L304.26 610.58L306 610.8199L318.48 612.68L319.14 612.8L319.08 612.14L318.66 611.72L306.18 609.86L306 610.8199L306.3 610.8199L317.82 605.78L317.4 604.8199L317.1 605.36L317.58 608.78" stroke="none" fill="#FF0000" fill-rule="nonzero" /><path id="428" transform="matrix(1 0 0 -1 0 842)" d="M319.08 612.14L318.6 608.66L317.58 608.78L318.06 612.26" stroke="none" fill="#FF0000" fill-rule="nonzero" /><path id="429" transform="matrix(1 0 0 -1 0 842)" d="M318.12 608.72L317.64 605.3L317.64 605.3L306.12 610.34L306.12 610.34L318.6 612.2" stroke="none" fill="#FF0000" fill-rule="evenodd" /><path id="430" transform="matrix(1 0 0 -1 0 842)" d="M402.36 597.14L402.48 598.16L318.66 609.14L318.54 608.12" stroke="none" fill="#FF0000" fill-rule="nonzero" /></g></g><g clip-path="url(#7)"><g clip-path="url(#8)"><path id="451" transform="matrix(1 0 0 -1 0 842)" d="M115.56 440.54L193.98 440.54L193.98 454.94L115.56 454.94z" stroke="none" fill="#FFFFFF" fill-rule="nonzero" /></g></g><g clip-path="url(#9)"><g clip-path="url(#10)"><g clip-path="url(#11)"><g transform="matrix(0.7265346 0 0 0.7263158 115.98 387.54)"><g transform="matrix(1 0 0 1 0 0)"><image x="0" y="0" xlink:href="img_09.png" width="101" height="19" /></g></g></g></g></g><path id="453" transform="matrix(1 0 0 -1 0 842)" d="M233.94 458.96L548.28 458.96L548.28 425L233.94 425" stroke="none" fill="#ECF5FC" fill-rule="nonzero" /><g clip-path="url(#12)"><g clip-path="url(#13)"><g clip-path="url(#14)"><g transform="matrix(0.48 0 0 0.48 216.96 562.02)"><g transform="matrix(1 0 0 1 0 0)"><image x="0" y="0" xlink:href="img_497.png" width="490" height="260" /></g></g></g></g></g><g clip-path="url(#15)"><g clip-path="url(#16)"><path id="518" transform="matrix(1 0 0 -1 0 842)" d="M382.86 203.96L384.24 200.78L384.48 200.18L383.88 200.06L371.46 198.32L369.72 198.08L371.04 199.22L380.64 207.32L381.18 207.74L381.42 207.14L381.3 206.54L371.7 198.44L371.04 199.22L371.34 199.34L383.76 201.08L383.88 200.06L383.34 200.36L381.96 203.54" stroke="none" fill="#FF0000" fill-rule="nonzero" /><path id="519" transform="matrix(1 0 0 -1 0 842)" d="M381.42 207.14L382.86 203.96L381.96 203.54L380.52 206.72" stroke="none" fill="#FF0000" fill-rule="nonzero" /><path id="520" transform="matrix(1 0 0 -1 0 842)" d="M382.44 203.78L383.82 200.6L383.82 200.6L371.4 198.86L371.4 198.86L381 206.96" stroke="none" fill="#FF0000" fill-rule="evenodd" /><path id="521" transform="matrix(1 0 0 -1 0 842)" d="M458.94 237.26L458.52 238.22L382.68 204.44L383.1 203.48" stroke="none" fill="#FF0000" fill-rule="nonzero" /></g></g></g></g></svg>