<svg xmlns="http://www.w3.org/2000/svg" xmlns:xlink="http://www.w3.org/1999/xlink" id="body_230" preserveAspectRatio="xMinYMin meet" viewBox="0 0 793 1123"><defs><clipPath id="1"><path id="" clip-rule="evenodd" transform="matrix(1 0 0 1 0 0)" d="M0 842L0 0L0 0L595 0L595 0L595 842L595 842L0 842z" /></clipPath><clipPath id="2"><path id="" clip-rule="evenodd" transform="matrix(1 0 0 1 0 0)" d="M216.96 77.03998L393.6 77.03998L393.6 77.03998L393.6 306.12L393.6 306.12L216.96 306.12z" /></clipPath><clipPath id="3"><path id="" clip-rule="evenodd" transform="matrix(1 0 0 1 0 0)" d="M215.94 76.02002L527.88 76.02002L527.88 76.02002L527.88 307.08L527.88 307.08L215.94 307.08z" /></clipPath><clipPath id="4"><path id="" clip-rule="evenodd" transform="matrix(1 0 0 1 0 0)" d="M0 0.02001953L595.2 0.02001953L595.2 0.02001953L595.2 842L595.2 842L0 842z" /></clipPath><clipPath id="5"><path id="" clip-rule="evenodd" transform="matrix(1 0 0 1 0 0)" d="M215.94 76.02002L527.88 76.02002L527.88 76.02002L527.88 307.08L527.88 307.08L215.94 307.08z" /></clipPath><clipPath id="6"><path id="" clip-rule="evenodd" transform="matrix(1 0 0 1 0 0)" d="M0 0.02001953L595.2 0.02001953L595.2 0.02001953L595.2 842L595.2 842L0 842z" /></clipPath><clipPath id="7"><path id="" clip-rule="evenodd" transform="matrix(1 0 0 1 0 0)" d="M216.96 445.08L436.8 445.08L436.8 445.08L436.8 648.24L436.8 648.24L216.96 648.24z" /></clipPath><clipPath id="8"><path id="" clip-rule="evenodd" transform="matrix(1 0 0 1 0 0)" d="M215.94 444.06L437.82 444.06L437.82 444.06L437.82 649.26L437.82 649.26L215.94 649.26z" /></clipPath><clipPath id="9"><path id="" clip-rule="evenodd" transform="matrix(1 0 0 1 0 0)" d="M0 0.02001953L595.2 0.02001953L595.2 0.02001953L595.2 842L595.2 842L0 842z" /></clipPath></defs><g transform="matrix(1.333333 0 0 1.333333 0 0)"><g clip-path="url(#1)"><g clip-path="url(#2)"><g clip-path="url(#3)"><g clip-path="url(#4)"><g transform="matrix(0.48 0 0 0.4792469 216.96 77.03998)"><g transform="matrix(1 0 0 1 0 0)"><image x="0" y="0" xlink:href="img_635.png" width="368" height="478" /></g></g></g></g></g><g clip-path="url(#5)"><g clip-path="url(#6)"><path id="205" transform="matrix(1 0 0 -1 0 842)" d="M406.38 662.84L406.86 662.84L406.86 663.86L406.38 663.86z" stroke="none" fill="#000000" fill-rule="nonzero" /><path id="206" transform="matrix(1 0 0 -1 0 842)" d="M311.58 662.84L406.38 662.84L406.38 663.86L311.58 663.86z" stroke="none" fill="#000000" fill-rule="nonzero" /><path id="207" transform="matrix(1 0 0 -1 0 842)" d="M409.98 655.46L522.24 655.46L522.24 667.46L409.98 667.46z" stroke="none" fill="#FFFFFF" fill-rule="nonzero" /><path id="218" transform="matrix(1 0 0 -1 0 842)" d="M406.86 699.92L407.34 699.92L407.34 700.94L406.86 700.94z" stroke="none" fill="#000000" fill-rule="nonzero" /><path id="219" transform="matrix(1 0 0 -1 0 842)" d="M314.88 699.92L406.86 699.92L406.86 700.94L314.88 700.94z" stroke="none" fill="#000000" fill-rule="nonzero" /><path id="220" transform="matrix(1 0 0 -1 0 842)" d="M409.98 695.96L520.62 695.96L520.62 704.96L409.98 704.96z" stroke="none" fill="#FFFFFF" fill-rule="nonzero" /></g></g><g clip-path="url(#7)"><g clip-path="url(#8)"><g clip-path="url(#9)"><g transform="matrix(0.4792614 0 0 0.479151 216.96 445.08)"><g transform="matrix(1 0 0 1 0 0)"><image x="0" y="0" xlink:href="img_636.png" width="459" height="424" /></g></g></g></g></g></g></g></svg>