<svg xmlns="http://www.w3.org/2000/svg" xmlns:xlink="http://www.w3.org/1999/xlink" id="body_114" preserveAspectRatio="xMinYMin meet" viewBox="0 0 793 1123"><defs><clipPath id="1"><path id="" clip-rule="evenodd" transform="matrix(1 0 0 1 0 0)" d="M0 842L0 0L0 0L595 0L595 0L595 842L595 842L0 842z" /></clipPath><clipPath id="2"><path id="" clip-rule="evenodd" transform="matrix(1 0 0 1 0 0)" d="M100.2 150.6L146.16 150.6L146.16 150.6L146.16 196.56L146.16 196.56L100.2 196.56z" /></clipPath><clipPath id="3"><path id="" clip-rule="evenodd" transform="matrix(1 0 0 1 0 0)" d="M99.18 149.58L197.94 149.58L197.94 149.58L197.94 197.58L197.94 197.58L99.18 197.58z" /></clipPath><clipPath id="4"><path id="" clip-rule="evenodd" transform="matrix(1 0 0 1 0 0)" d="M0 0.02001953L595.2 0.02001953L595.2 0.02001953L595.2 842L595.2 842L0 842z" /></clipPath><clipPath id="5"><path id="" clip-rule="evenodd" transform="matrix(1 0 0 1 0 0)" d="M150.9 150.6L196.92 150.6L196.92 150.6L196.92 196.56L196.92 196.56L150.9 196.56z" /></clipPath><clipPath id="6"><path id="" clip-rule="evenodd" transform="matrix(1 0 0 1 0 0)" d="M99.18 149.58L197.94 149.58L197.94 149.58L197.94 197.58L197.94 197.58L99.18 197.58z" /></clipPath><clipPath id="7"><path id="" clip-rule="evenodd" transform="matrix(1 0 0 1 0 0)" d="M0 0.02001953L595.2 0.02001953L595.2 0.02001953L595.2 842L595.2 842L0 842z" /></clipPath></defs><g transform="matrix(1.333333 0 0 1.333333 0 0)"><g clip-path="url(#1)"><g clip-path="url(#2)"><g clip-path="url(#3)"><g clip-path="url(#4)"><path id="865" transform="matrix(1 0 0 -1 0 842)" d="M122.881 646.043C 135.13 646.043 145.202 656.1151 145.202 668.364C 145.202 680.704 135.13 690.776 122.881 690.776C 110.541 690.776 100.56 680.704 100.56 668.364C 100.56 656.1151 110.541 646.043 122.881 646.043" stroke="none" fill="#FFFFFF" fill-rule="evenodd" /><path id="866" transform="matrix(1 0 0 -1 0 842)" d="M122.881 646.043C 135.13 646.043 145.202 656.1151 145.202 668.364C 145.202 680.704 135.13 690.776 122.881 690.776C 110.541 690.776 100.56 680.704 100.56 668.364C 100.56 656.1151 110.541 646.043 122.881 646.043z" stroke="#383336" stroke-width="0.252" fill="none" /><path id="867" transform="matrix(1 0 0 -1 0 842)" d="M120.788 659.331L120.982 659.342L120.982 659.342L121.023 659.268L121.023 659.268L121.006 659.164L121.006 659.164L120.977 659.084L120.977 659.084L120.805 659.061L120.805 659.061L120.69 659.09L120.69 659.09L120.707 659.187L120.707 659.187L120.701 659.274L120.701 659.274L120.788 659.331M120.098 659.607L120.231 659.532L120.231 659.532L120.288 659.498L120.288 659.498L120.305 659.422L120.305 659.422L120.219 659.336L120.219 659.336L120.098 659.291L120.098 659.291L119.921 659.314L119.921 659.314L119.83 659.4L119.83 659.4L119.742 659.463L119.742 659.463L119.8 659.578L119.8 659.578L119.943 659.635L119.943 659.635L120.098 659.607zM118.463 659.492L118.544 659.457L118.544 659.457L118.417 659.28L118.417 659.28L118.203 659.251L118.203 659.251L118.169 659.354L118.169 659.354L118.29 659.463L118.29 659.463L118.463 659.492zM119.254 659.291L119.427 659.262L119.427 659.262L119.507 659.256L119.507 659.256L119.547 659.308L119.547 659.308L119.542 659.377L119.542 659.377L119.484 659.377L119.484 659.377L119.387 659.354L119.387 659.354L119.312 659.348L119.312 659.348L119.254 659.291zM118.766 659.635L118.836 659.653L118.836 659.653L118.904 659.705L118.904 659.705L118.944 659.624L118.944 659.624L118.91 659.532L118.91 659.532L118.824 659.555L118.824 659.555L118.726 659.549L118.726 659.549L118.766 659.635zM120.729 659.893L120.88 659.871L120.88 659.871L120.966 659.796L120.966 659.796L120.966 659.704L120.966 659.704L120.994 659.612L120.994 659.612L120.931 659.549L120.931 659.549L120.713 659.549L120.713 659.549L120.518 659.607L120.518 659.607L120.466 659.687L120.466 659.687L120.46 659.825L120.46 659.825L120.535 659.911L120.535 659.911L120.644 659.923L120.644 659.923L120.729 659.893zM119.886 659.854L119.771 659.721L119.771 659.721L119.679 659.693L119.679 659.693L119.559 659.738L119.559 659.738L119.536 659.836L119.536 659.836L119.58 659.963L119.58 659.963L119.69 660.041L119.69 660.041L119.771 660.123L119.771 660.123L119.931 660.118L119.931 660.118L120.018 660.072L120.018 660.072L120.058 659.893L120.058 659.893L120.001 659.865L120.001 659.865L119.886 659.854zM119.053 660.181L119.3 660.066L119.3 660.066L119.398 660.066L119.398 660.066L119.398 659.98L119.398 659.98L119.38 659.911L119.38 659.911L119.312 659.893L119.312 659.893L119.226 659.779L119.226 659.779L118.939 659.807L118.939 659.807L118.853 659.865L118.853 659.865L118.881 660.095L118.881 660.095L119.053 660.181zM121.121 660.239L121.178 660.267L121.178 660.267L121.293 660.267L121.293 660.267L121.35 660.21L121.35 660.21L121.379 660.152L121.379 660.152L121.35 659.98L121.35 659.98L121.264 659.951L121.264 659.951L121.092 660.037L121.092 660.037L121.063 660.095L121.063 660.095L121.121 660.239zM120.632 660.41L120.747 660.41L120.747 660.41L120.919 660.324L120.919 660.324L120.919 660.152L120.919 660.152L120.776 660.037L120.776 660.037L120.632 660.009L120.632 660.009L120.518 660.009L120.518 660.009L120.374 660.037L120.374 660.037L120.346 660.095L120.346 660.095L120.346 660.21L120.346 660.21L120.374 660.324L120.374 660.324L120.632 660.41zM119.829 660.537L119.932 660.48L119.932 660.48L120.024 660.468L120.024 660.468L120.058 660.37L120.058 660.37L120.029 660.267L120.029 660.267L119.901 660.228L119.901 660.228L119.812 660.267L119.812 660.267L119.742 660.307L119.742 660.307L119.686 660.382L119.686 660.382L119.742 660.474L119.742 660.474L119.829 660.537zM119.226 660.554L119.254 660.634L119.254 660.634L119.329 660.681L119.329 660.681L119.392 660.698L119.392 660.698L119.438 660.634L119.438 660.634L119.421 660.554L119.421 660.554L119.352 660.513L119.352 660.513L119.272 660.468L119.272 660.468L119.226 660.554zM121.408 660.64L121.436 660.745L121.436 660.745L121.525 660.755L121.525 660.755L121.614 660.726L121.614 660.726L121.732 660.715L121.732 660.715L121.925 660.664L121.925 660.664L121.948 660.572L121.948 660.572L121.953 660.439L121.953 660.439L121.925 660.353L121.925 660.353L121.839 660.307L121.839 660.307L121.674 660.33L121.674 660.33L121.537 660.428L121.537 660.428L121.379 660.496L121.379 660.496L121.408 660.64zM119.748 660.951L119.885 661.025L119.885 661.025L120.041 661.025L120.041 661.025L120.297 661.021L120.297 661.021L120.374 660.893L120.374 660.893L120.385 660.807L120.385 660.807L120.351 660.692L120.351 660.692L120.265 660.692L120.265 660.692L120.156 660.692L120.156 660.692L120.057 660.789L120.057 660.789L119.857 660.813L119.857 660.813L119.748 660.951zM120.685 660.951L120.759 661.077L120.759 661.077L120.902 661.088L120.902 661.088L121.034 661.037L121.034 661.037L121.115 660.898L121.115 660.898L121.098 660.784L121.098 660.784L121.04 660.669L121.04 660.669L120.959 660.623L120.959 660.623L120.827 660.612L120.827 660.612L120.661 660.669L120.661 660.669L120.587 660.851L120.587 660.851L120.685 660.951zM121.379 661.004L121.397 661.09L121.397 661.09L121.525 661.157L121.525 661.157L121.65 661.123L121.65 661.123L121.749 661.052L121.749 661.052L121.73 660.944L121.73 660.944L121.65 660.917L121.65 660.917L121.561 660.864L121.561 660.864L121.461 660.898L121.461 660.898L121.379 660.912L121.379 660.912L121.379 661.004zM121.35 661.616C 121.416 661.625 121.542 661.59 121.625 661.531C 121.659 661.507 121.665 661.438 121.614 661.382L121.614 661.382L121.539 661.33L121.539 661.33L121.4 661.309L121.4 661.309L121.298 661.249C 121.269 661.249 121.063 661.301 121.006 661.301C 120.996 661.398 121.099 661.463 121.104 661.5C 121.11 661.544 121.224 661.625 121.35 661.616zM120.793 661.215L120.863 661.301L120.863 661.301L120.834 661.358L120.834 661.358L120.742 661.376L120.742 661.376L120.639 661.37L120.639 661.37L120.581 661.266L120.581 661.266L120.632 661.185L120.632 661.185L120.793 661.215zM120.432 661.703C 120.492 661.703 120.535 661.699 120.564 661.682C 120.594 661.666 120.623 661.649 120.628 661.625C 120.634 661.601 120.615 661.561 120.601 661.537C 120.587 661.512 120.536 661.483 120.507 661.468C 120.436 661.429 120.405 661.367 120.346 661.315C 120.301 661.275 120.255 661.244 120.202 661.243C 120.116 661.243 120.001 661.215 119.943 661.272C 119.943 661.329 119.972 661.444 120.058 661.502L120.058 661.502L120.179 661.56L120.179 661.56L120.256 661.674C 120.29 661.726 120.407 661.706 120.432 661.703zM122.298 661.805L122.395 661.852L122.395 661.852L122.498 661.846L122.498 661.846L122.533 661.761L122.533 661.761L122.585 661.628L122.585 661.628L122.54 661.365L122.54 661.365L122.31 661.221L122.31 661.221L121.93 661.215L121.93 661.215L121.884 661.357L121.884 661.357L121.959 661.467L121.959 661.467L122.095 661.596L122.095 661.596L122.27 661.622L122.27 661.622L122.298 661.805zM121.718 661.943L121.787 661.863L121.787 661.863L121.878 661.835L121.878 661.835L121.826 661.761L121.826 661.761L121.746 661.818L121.746 661.818L121.644 661.84L121.644 661.84L121.718 661.943zM120.805 661.788L120.834 661.904L120.834 661.904L121.006 661.99L121.006 661.99L121.35 662.076L121.35 662.076L121.466 662.076L121.466 662.076L121.522 661.99L121.522 661.99L121.494 661.904L121.494 661.904L121.379 661.846L121.379 661.846L121.293 661.788L121.293 661.788L121.235 661.703L121.235 661.703L120.863 661.703L120.863 661.703L120.805 661.788zM120.432 661.886L120.489 662.006L120.489 662.006L120.626 662.082L120.626 662.082L120.695 662.02L120.695 662.02L120.719 661.871L120.719 661.871L120.651 661.779L120.651 661.779L120.529 661.789L120.529 661.789L120.432 661.886zM117.236 658.318L117.55 658.56C 117.722 658.588 117.976 658.659 118.12 658.688C 118.321 658.846 118.514 658.905 118.766 658.774C 118.853 658.832 118.997 658.889 119.082 658.832C 119.21 658.844 119.254 658.774 119.34 658.774C 119.455 658.889 119.57 658.86 119.628 658.832C 119.915 658.802 120.145 658.716 120.288 658.602L120.288 658.602L120.541 658.438C 120.57 658.409 120.661 658.429 120.69 658.401C 120.805 658.372 120.891 658.343 121.034 658.343C 121.322 657.913 121.333 658.148 121.371 657.868C 121.543 657.725 121.58 657.597 121.752 657.424C 121.944 657.281 122.057 657.106 122.226 656.936C 122.255 656.85 122.371 656.772 122.376 656.704C 122.376 656.618 122.361 656.501 122.361 656.443C 122.361 656.301 122.417 656.211 122.464 656.104C 122.464 656.018 122.47 655.96 122.47 655.874C 122.499 655.846 122.516 655.759 122.544 655.702C 122.544 655.631 122.527 655.575 122.527 655.501C 122.499 655.472 122.481 655.38 122.423 655.294C 122.317 655.05 122.195 654.822 122.092 654.564C 122.035 654.536 121.904 654.522 121.875 654.428C 121.72 654.273 121.564 654.165 121.4 654.001C 121.343 653.971 121.235 653.94 121.178 653.94C 120.961 653.808 120.881 653.822 120.664 653.864C 120.52 653.836 120.395 653.836 120.251 653.807C 120.194 653.807 120.157 653.778 120.071 653.778C 119.954 653.778 119.833 653.815 119.727 653.815C 119.641 653.815 119.586 653.825 119.5 653.825L119.5 653.825L119.312 653.893C 119.226 653.893 119.129 653.903 119.043 653.903C 118.896 654.014 118.752 654.079 118.623 654.209C 118.537 654.209 118.479 654.209 118.393 654.238C 118.364 654.266 118.307 654.266 118.278 654.295C 118.221 654.352 118.132 654.379 118.103 654.436C 117.96 654.493 117.848 654.582 117.704 654.668C 117.675 654.726 117.618 654.754 117.589 654.812C 117.544 654.903 117.446 654.963 117.446 655.07C 117.365 655.15 117.23 655.278 117.13 655.329C 117.13 655.415 117.101 655.501 117.072 655.558C 117.072 655.748 116.9 655.922 116.775 656.046C 116.76 656.275 116.7 656.449 116.67 656.649C 116.698 656.794 116.653 656.923 116.611 657.095C 116.668 657.254 116.664 657.432 116.707 657.576C 116.793 657.72 116.918 657.874 116.975 658.017C 117.062 658.103 117.178 658.232 117.236 658.318zM121.206 662.449L131.547 675.962C 132.943 677.533 136.627 674.771 135.419 673.248L135.419 673.248L125.023 659.72C 124.995 660.065 124.95 660.412 124.679 660.527C 124.536 660.757 124.406 660.901 124.262 661.144C 124.205 661.202 123.963 661.301 123.906 661.358C 123.819 661.473 123.733 661.56 123.619 661.703C 123.59 661.731 123.504 661.731 123.475 661.76C 123.389 661.818 123.215 661.89 123.159 661.976C 123.157 662.062 122.972 662.049 122.843 662.133C 122.7 662.248 122.429 662.235 122.201 662.291C 121.914 662.291 121.75 662.405 121.363 662.377C 121.363 662.377 121.235 662.449 121.206 662.449zM117.681 658.866L131.231 676.508C 132.851 678.442 137.377 674.944 135.939 673.091L135.939 673.091L122.683 655.658C 122.672 655.91 122.614 656.132 122.614 656.362C 122.521 656.471 122.513 656.672 122.425 656.965C 121.994 657.539 121.724 657.769 121.609 658.113C 121.436 658.171 121.329 658.346 121.301 658.518C 121.214 658.604 121.092 658.716 120.919 658.774C 120.69 658.716 120.614 658.781 120.406 658.964C 120.176 658.91 119.915 659.09 119.857 659.061C 119.372 659.119 119.377 659.217 119.025 659.147C 118.651 659.327 118.149 658.975 117.681 658.866zM108.542 673.545C 108.799 674.808 109.377 676.001 111.474 677.408C 112.536 677.982 113.656 678.7 114.948 679.188C 117.628 680.284 119.884 680.319 122.47 678.442C 124.624 676.576 124.71 673.819 122.929 671.206C 121.953 669.943 121.034 669.369 120.145 668.766C 118.433 667.909 116.537 666.929 115.895 664.631C 115.733 664.111 116.01 664.201 116.154 664.086C 117.417 663.569 118.479 662.765 118.623 661.904C 118.795 661.157 118.537 660.468 117.934 659.865C 118.02 660.353 118.242 660.919 117.79 661.243C 116.984 661.796 115.264 661.526 115.149 663.827C 113.018 664.853 112.885 667.148 114.492 668.724C 115.382 669.471 116.469 670.572 117.618 671.379C 118.467 672.553 119.181 673.449 118.077 675.025C 116.856 675.902 114.718 676.145 112.995 675.685C 111.387 675.484 109.862 674.865 108.542 673.545zM108.857 674.032C 109.719 674.808 110.612 675.656 112.766 676.059C 114.788 676.444 116.843 676.776 118.566 675.283C 119.829 673.647 119.283 672.326 117.848 671.005C 116.524 669.813 111.899 666.568 115.188 664.631C 116.308 667.683 118.699 668.569 119.857 669.139C 120.977 669.8 121.925 670.575 122.7 671.522C 124.164 674.02 124.106 676.059 122.126 677.867C 120.396 679.507 117.809 679.641 115.149 678.729C 113.799 678.183 112.651 677.666 111.674 677.035C 110.383 676.259 109.316 675.267 108.857 674.032zM115.789 663.606C 115.706 661.671 117.689 662.489 118.303 661.176C 118.504 661.716 118.307 662.449 117.56 662.879C 117.072 663.195 116.507 663.434 115.789 663.606z" stroke="none" fill="#383336" fill-rule="evenodd" /><path id="868" transform="matrix(1 0 0 -1 0 842)" d="M133.365 655.388L109.774 678.889C 107.506 675.985 106.095 672.356 106.095 668.364C 106.095 659.199 113.626 651.668 122.881 651.668C 126.873 651.668 130.462 653.029 133.365 655.388M112.396 681.43L135.938 657.929C 138.298 660.742 139.576 664.462 139.576 668.364C 139.576 677.619 132.136 685.149 122.881 685.149C 118.889 685.149 115.3 683.788 112.396 681.43zM122.881 647.222C 134.586 647.222 144.113 656.75 144.113 668.364C 144.113 680.068 134.586 689.596 122.881 689.596C 111.176 689.596 101.649 680.068 101.649 668.364C 101.649 656.75 111.176 647.222 122.881 647.222z" stroke="none" fill="#ED3338" fill-rule="evenodd" /></g></g></g><g clip-path="url(#5)"><g clip-path="url(#6)"><g clip-path="url(#7)"><path id="869" transform="matrix(1 0 0 -1 0 842)" d="M173.634 646.043C 185.883 646.043 195.955 656.1151 195.955 668.364C 195.955 680.704 185.883 690.776 173.634 690.776C 161.294 690.776 151.313 680.704 151.313 668.364C 151.313 656.1151 161.294 646.043 173.634 646.043" stroke="none" fill="#FFFFFF" fill-rule="evenodd" /><path id="870" transform="matrix(1 0 0 -1 0 842)" d="M173.634 646.043C 185.883 646.043 195.955 656.1151 195.955 668.364C 195.955 680.704 185.883 690.776 173.634 690.776C 161.294 690.776 151.313 680.704 151.313 668.364C 151.313 656.1151 161.294 646.043 173.634 646.043z" stroke="#383336" stroke-width="0.252" fill="none" /><path id="871" transform="matrix(1 0 0 -1 0 842)" d="M170.871 679.033C 167.922 679.132 163.94 674.97 164.269 672.333C 163.791 672.617 163.528 672.837 163.252 673.978C 161.454 671.007 162.266 667.758 164.214 665.039C 163.676 664.727 163.128 665.445 162.197 665.925C 162.62 662.465 164.753 661.785 166.227 661.36C 165.887 661.36 165.688 661.274 165.122 661.36C 167.105 658.524 169.313 661.15 170.02 658.134C 171.438 658.588 172.189 660.084 171.792 662.039C 171.651 661.727 171.331 661.36 171.076 661.104C 171.133 661.672 171.615 662.501 172.38 663.55C 174.897 666.775 172.792 674.658 171.714 675.197C 171.601 674.687 171.7 674.12 171.587 673.269C 169.516 674.706 167.975 677.37 170.871 679.033M165.649 669.952C 164.39 667.884 165.404 666.321 166.851 665.046C 167.397 664.443 167.05 664.082 167.079 663.685C 166.56 664.376 165.421 663.934 164.997 664.84C 164.259 661.477 169.386 662.274 170.169 659.63C 170.612 661.293 171.264 662.657 172.005 663.791C 172.572 665.266 172.466 666.606 170.821 667.626C 171.161 666.464 170.992 665.557 170.432 664.925C 170.593 667.83 169.187 667.863 166.986 669.129C 166.876 668.761 167.27 668.371 167.44 668.229C 166.645 668.371 165.844 668.764 165.649 669.952zM184.559 675.601C 180.873 671.32 177.286 667.088 173.6 662.806C 172.666 661.638 172.166 658.726 170.85 658.099C 163.926 656.024 172.525 650.187 172.324 656.937C 173.087 658.502 174.73 658.604 175.953 659.744L175.953 659.744L187.544 673.351L187.544 673.351L186.877 675.478L186.877 675.478L184.559 675.601zM174.404 663.1L184.609 675.102L184.609 675.102L186.232 675.017C 182.347 670.479 178.58 666.084 174.695 661.576C 171.208 657.939 173.221 661.777 174.404 663.1zM175.131 661.416L186.601 674.733L186.601 674.733L186.987 673.407C 183.273 669.097 179.64 664.762 175.953 660.452C 173.059 657.99 173.087 658.871 175.131 661.416z" stroke="none" fill="#383336" fill-rule="evenodd" /><path id="872" transform="matrix(1 0 0 -1 0 842)" d="M184.118 655.388L160.527 678.889C 158.259 675.985 156.848 672.356 156.848 668.364C 156.848 659.199 164.379 651.668 173.634 651.668C 177.626 651.668 181.215 653.029 184.118 655.388M163.149 681.43L186.691 657.929C 189.051 660.742 190.329 664.462 190.329 668.364C 190.329 677.619 182.889 685.149 173.634 685.149C 169.642 685.149 166.053 683.788 163.149 681.43zM173.634 647.222C 185.339 647.222 194.866 656.75 194.866 668.364C 194.866 680.068 185.339 689.596 173.634 689.596C 161.929 689.596 152.402 680.068 152.402 668.364C 152.402 656.75 161.929 647.222 173.634 647.222z" stroke="none" fill="#ED3338" fill-rule="evenodd" /></g></g></g></g></g></svg>