<svg xmlns="http://www.w3.org/2000/svg" xmlns:xlink="http://www.w3.org/1999/xlink" id="body_142" preserveAspectRatio="xMinYMin meet" viewBox="0 0 793 1123"><defs><clipPath id="1"><path id="" clip-rule="evenodd" transform="matrix(1 0 0 1 0 0)" d="M0 842L0 0L0 0L595 0L595 0L595 842L595 842L0 842z" /></clipPath></defs><g transform="matrix(1.333333 0 0 1.333333 0 0)"><g clip-path="url(#1)"><path id="344" transform="matrix(1 0 0 -1 0 842)" d="M224.94 453.98L309.72 453.98L309.72 471.98L224.94 471.98z" stroke="none" fill="#C5E0F7" fill-rule="nonzero" /><path id="348" transform="matrix(1 0 0 -1 0 842)" d="M309.72 453.98L556.86 453.98L556.86 471.98L309.72 471.98z" stroke="none" fill="#C5E0F7" fill-rule="nonzero" /><path id="621" transform="matrix(1 0 0 -1 0 842)" d="M224.94 419.78L556.86 419.78L556.86 420.26L224.94 420.26z" stroke="none" fill="#3D96E3" fill-rule="nonzero" /><path id="622" transform="matrix(1 0 0 -1 0 842)" d="M224.94 357.74L556.86 357.74L556.86 358.22L224.94 358.22z" stroke="none" fill="#3D96E3" fill-rule="nonzero" /><path id="623" transform="matrix(1 0 0 -1 0 842)" d="M224.94 323.78L556.86 323.78L556.86 324.26L224.94 324.26z" stroke="none" fill="#3D96E3" fill-rule="nonzero" /><path id="624" transform="matrix(1 0 0 -1 0 842)" d="M224.94 205.28L556.86 205.28L556.86 206.78L224.94 206.78z" stroke="none" fill="#3D96E3" fill-rule="nonzero" /></g></g></svg>