<svg xmlns="http://www.w3.org/2000/svg" xmlns:xlink="http://www.w3.org/1999/xlink" id="body_119" preserveAspectRatio="xMinYMin meet" viewBox="0 0 793 1123"><defs><clipPath id="1"><path id="" clip-rule="evenodd" transform="matrix(1 0 0 1 0 0)" d="M0 842L0 0L0 0L595 0L595 0L595 842L595 842L0 842z" /></clipPath></defs><g transform="matrix(1.333333 0 0 1.333333 0 0)"><g clip-path="url(#1)"><path id="400" transform="matrix(1 0 0 -1 0 842)" d="M44.94 544.04L126.54 544.04L126.54 562.04L44.94 562.04z" stroke="none" fill="#C5E0F7" fill-rule="nonzero" /><path id="405" transform="matrix(1 0 0 -1 0 842)" d="M126.54 544.04L339.66 544.04L339.66 562.04L126.54 562.04z" stroke="none" fill="#C5E0F7" fill-rule="nonzero" /><path id="409" transform="matrix(1 0 0 -1 0 842)" d="M339.66 544.04L424.8 544.04L424.8 562.04L339.66 562.04z" stroke="none" fill="#C5E0F7" fill-rule="nonzero" /><path id="417" transform="matrix(1 0 0 -1 0 842)" d="M424.8 562.04L558 562.04L558 544.04L424.8 544.04" stroke="none" fill="#C5E0F7" fill-rule="nonzero" /><path id="582" transform="matrix(1 0 0 -1 0 842)" d="M44.94 483.8L558 483.8L558 484.28L44.94 484.28z" stroke="none" fill="#3D96E3" fill-rule="nonzero" /><path id="583" transform="matrix(1 0 0 -1 0 842)" d="M44.94 383.78L558 383.78L558 384.26L44.94 384.26z" stroke="none" fill="#3D96E3" fill-rule="nonzero" /><path id="584" transform="matrix(1 0 0 -1 0 842)" d="M44.94 349.28L558 349.28L558 350.78L44.94 350.78z" stroke="none" fill="#3D96E3" fill-rule="nonzero" /></g></g></svg>