<svg xmlns="http://www.w3.org/2000/svg" xmlns:xlink="http://www.w3.org/1999/xlink" id="body_98" preserveAspectRatio="xMinYMin meet" viewBox="0 0 793 1123"><defs><clipPath id="1"><path id="" clip-rule="evenodd" transform="matrix(1 0 0 1 0 0)" d="M0 842L0 0L0 0L595 0L595 0L595 842L595 842L0 842z" /></clipPath><clipPath id="2"><path id="" clip-rule="evenodd" transform="matrix(1 0 0 1 0 0)" d="M192.84 79.03101L40.952 79.03101L40.952 79.03101L40.952 129.568L40.952 129.568L192.84 129.568z" /></clipPath><clipPath id="3"><path id="" clip-rule="evenodd" transform="matrix(1 0 0 1 0 0)" d="M40.98 79.02002L192.84 79.02002L192.84 79.02002L192.84 129.54L192.84 129.54L40.98 129.54z" /></clipPath><clipPath id="4"><path id="" clip-rule="evenodd" transform="matrix(1 0 0 1 0 0)" d="M39.96 78.06L193.86 78.06L193.86 78.06L193.86 130.56L193.86 130.56L39.96 130.56z" /></clipPath><clipPath id="5"><path id="" clip-rule="evenodd" transform="matrix(1 0 0 1 0 0)" d="M0 0.02001953L595.2 0.02001953L595.2 0.02001953L595.2 842L595.2 842L0 842z" /></clipPath><clipPath id="6"><path id="" clip-rule="evenodd" transform="matrix(1 0 0 1 0 0)" d="M92.88 92.10999L102.272 92.10999L102.272 92.10999L102.272 83.87201L102.272 83.87201L92.88 83.87201z" /></clipPath><clipPath id="7"><path id="" clip-rule="evenodd" transform="matrix(1 0 0 1 0 0)" d="M97.576 84.40302L101.734 91.60498L101.734 91.60498L93.418 91.60498M97.142 84.13898L92.985 91.341C 92.896 91.49701 92.896 91.68701 92.985 91.84198C 93.074 91.99597 93.239 92.091 93.418 92.091L93.418 92.091L101.734 92.091C 101.913 92.091 102.078 91.99597 102.168 91.84198C 102.257 91.68701 102.257 91.49701 102.168 91.341L102.168 91.341L98.009 84.13898C 97.92 83.98499 97.755 83.88898 97.576 83.88898C 97.397 83.88898 97.232 83.98499 97.142 84.13898" /></clipPath><clipPath id="8"><path id="" clip-rule="evenodd" transform="matrix(1 0 0 1 0 0)" d="M93.413 91.61102L101.738 91.61102L101.738 91.61102L101.738 84.396L101.738 84.396L93.413 84.396z" /></clipPath><clipPath id="9"><path id="" clip-rule="evenodd" transform="matrix(1 0 0 1 0 0)" d="M93.418 91.60498L101.734 91.60498L101.734 91.60498L97.576 84.40302" /></clipPath><clipPath id="10"><path id="" clip-rule="evenodd" transform="matrix(1 0 0 1 0 0)" d="M192.84 79.03101L40.952 79.03101L40.952 79.03101L40.952 129.568L40.952 129.568L192.84 129.568z" /></clipPath><clipPath id="11"><path id="" clip-rule="evenodd" transform="matrix(1 0 0 1 0 0)" d="M40.98 79.02002L192.84 79.02002L192.84 79.02002L192.84 129.54L192.84 129.54L40.98 129.54z" /></clipPath><clipPath id="12"><path id="" clip-rule="evenodd" transform="matrix(1 0 0 1 0 0)" d="M39.96 78.06L193.86 78.06L193.86 78.06L193.86 130.56L193.86 130.56L39.96 130.56z" /></clipPath><clipPath id="13"><path id="" clip-rule="evenodd" transform="matrix(1 0 0 1 0 0)" d="M0 0.02001953L595.2 0.02001953L595.2 0.02001953L595.2 842L595.2 842L0 842z" /></clipPath><clipPath id="14"><path id="" clip-rule="evenodd" transform="matrix(1 0 0 1 0 0)" d="M47.183 104.245L85.417 104.245L85.417 104.245L85.417 85.09399L85.417 85.09399L47.183 85.09399z" /></clipPath><clipPath id="15"><path id="" clip-rule="evenodd" transform="matrix(1 0 0 1 0 0)" d="M47.234 85.14398L47.234 104.245L47.234 104.245L53.89 104.245L53.89 104.245L62.984 88.49402C 63.665 87.31299 64.936 86.578 66.3 86.578C 67.664 86.578 68.935 87.31299 69.617 88.49402L69.617 88.49402L78.711 104.245L78.711 104.245L85.365 104.245L85.365 104.245L85.365 85.14398" /></clipPath><clipPath id="16"><path id="" clip-rule="evenodd" transform="matrix(1 0 0 1 0 0)" d="M47.183 123.328L85.417 123.328L85.417 123.328L85.417 104.177L85.417 104.177L47.183 104.177z" /></clipPath><clipPath id="17"><path id="" clip-rule="evenodd" transform="matrix(1 0 0 1 0 0)" d="M82.219 121.81L50.382 121.81C 49.124 121.81 47.945 121.187 47.234 120.162L47.234 120.162L47.234 123.245L47.234 123.245L85.365 123.245L85.365 123.245L85.365 120.162C 84.656 121.187 83.476 121.81 82.219 121.81M47.234 104.177L47.234 115.771L47.234 115.771L53.928 104.177zM78.672 104.177L85.365 115.771L85.365 115.771L85.365 104.177z" /></clipPath><clipPath id="18"><path id="" clip-rule="evenodd" transform="matrix(1 0 0 1 0 0)" d="M47.183 104.245L85.417 104.245L85.417 104.245L85.417 86.50098L85.417 86.50098L47.183 86.50098z" /></clipPath><clipPath id="19"><path id="" clip-rule="evenodd" transform="matrix(1 0 0 1 0 0)" d="M62.984 88.49402L53.89 104.245L53.89 104.245L56.071 104.245L56.071 104.245L64.642 89.40002C 64.983 88.80701 65.616 88.44202 66.3 88.44202C 66.984 88.44202 67.617 88.80701 67.958 89.40002L67.958 89.40002L76.529 104.245L76.529 104.245L78.711 104.245L78.711 104.245L69.617 88.49402C 68.935 87.31299 67.664 86.578 66.3 86.578C 64.936 86.578 63.665 87.31299 62.984 88.49402" /></clipPath><clipPath id="20"><path id="" clip-rule="evenodd" transform="matrix(1 0 0 1 0 0)" d="M47.183 121.889L85.417 121.889L85.417 121.889L85.417 104.178L85.417 104.178L47.183 104.178z" /></clipPath><clipPath id="21"><path id="" clip-rule="evenodd" transform="matrix(1 0 0 1 0 0)" d="M76.49 104.177L83.877 116.972C 84.219 117.564 84.219 118.294 83.877 118.886C 83.535 119.479 82.903 119.844 82.219 119.844L82.219 119.844L50.382 119.844C 49.697 119.844 49.065 119.479 48.723 118.886C 48.382 118.294 48.382 117.564 48.723 116.972L48.723 116.972L56.11 104.177L56.11 104.177L53.928 104.177L53.928 104.177L47.234 115.771L47.234 115.771L47.234 120.162C 47.945 121.187 49.124 121.81 50.382 121.81L50.382 121.81L82.219 121.81C 83.476 121.81 84.656 121.187 85.365 120.162L85.365 120.162L85.365 115.771L85.365 115.771L78.672 104.177" /></clipPath><clipPath id="22"><path id="" clip-rule="evenodd" transform="matrix(1 0 0 1 0 0)" d="M48.321 104.178L84.279 104.178L84.279 104.178L84.279 88.375L84.279 88.375L48.321 88.375z" /></clipPath><clipPath id="23"><path id="" clip-rule="evenodd" transform="matrix(1 0 0 1 0 0)" d="M64.642 89.40002L56.11 104.177L56.11 104.177L58.351 104.177L58.351 104.177L66.3 90.409L66.3 90.409L74.25 104.177L74.25 104.177L76.49 104.177L76.49 104.177L67.958 89.40002C 67.617 88.80701 66.984 88.44202 66.3 88.44202C 65.616 88.44202 64.983 88.80701 64.642 89.40002" /></clipPath><clipPath id="24"><path id="" clip-rule="evenodd" transform="matrix(1 0 0 1 0 0)" d="M48.321 119.914L84.279 119.914L84.279 119.914L84.279 104.111L84.279 104.111L48.321 104.111z" /></clipPath><clipPath id="25"><path id="" clip-rule="evenodd" transform="matrix(1 0 0 1 0 0)" d="M74.212 104.111L82.219 117.981L82.219 117.981L50.381 117.981L50.381 117.981L58.389 104.111L58.389 104.111L56.148 104.111L56.148 104.111L48.723 116.972C 48.382 117.564 48.382 118.294 48.723 118.886C 49.065 119.479 49.697 119.844 50.382 119.844L50.382 119.844L82.219 119.844C 82.903 119.844 83.535 119.479 83.877 118.886C 84.219 118.294 84.219 117.564 83.877 116.972L83.877 116.972L76.453 104.111" /></clipPath><clipPath id="26"><path id="" clip-rule="evenodd" transform="matrix(1 0 0 1 0 0)" d="M50.364 118.005L82.237 118.005L82.237 118.005L82.237 90.38403L82.237 90.38403L50.364 90.38403z" /></clipPath><clipPath id="27"><path id="" clip-rule="evenodd" transform="matrix(1 0 0 1 0 0)" d="M50.381 117.981L82.219 117.981L82.219 117.981L66.3 90.409" /></clipPath><clipPath id="28"><path id="" clip-rule="evenodd" transform="matrix(1 0 0 1 0 0)" d="M152.276 104.501L168.367 104.501L168.367 104.501L168.367 88.46796L168.367 88.46796L152.276 88.46796z" /></clipPath><clipPath id="29"><path id="" clip-rule="evenodd" transform="matrix(1 0 0 1 0 0)" d="M152.298 88.49597L152.298 97.763C 152.303 97.75 152.309 97.73602 152.315 97.72198C 153.171 95.698 154.397 93.87903 155.959 92.31702C 157.521 90.75403 159.34 89.52899 161.365 88.67297C 161.509 88.61102 161.653 88.55298 161.798 88.49597" /></clipPath><clipPath id="30"><path id="" clip-rule="evenodd" transform="matrix(1 0 0 1 0 0)" d="M168.337 104.501L184.428 104.501L184.428 104.501L184.428 88.46796L184.428 88.46796L168.337 88.46796z" /></clipPath><clipPath id="31"><path id="" clip-rule="evenodd" transform="matrix(1 0 0 1 0 0)" d="M174.171 88.49597C 174.316 88.55298 174.461 88.61102 174.605 88.67297C 176.63 89.52899 178.448 90.75403 180.01 92.31702C 181.572 93.87903 182.799 95.698 183.655 97.72198C 183.952 98.42499 184.199 99.14099 184.398 99.87L184.398 99.87L184.398 88.49597" /></clipPath><clipPath id="32"><path id="" clip-rule="evenodd" transform="matrix(1 0 0 1 0 0)" d="M152.276 120.505L168.367 120.505L168.367 120.505L168.367 104.472L168.367 104.472L152.276 104.472z" /></clipPath><clipPath id="33"><path id="" clip-rule="evenodd" transform="matrix(1 0 0 1 0 0)" d="M152.298 120.476L162.592 120.476C 162.178 120.339 161.77 120.183 161.365 120.012C 159.34 119.157 157.521 117.93 155.959 116.367C 154.397 114.806 153.171 112.987 152.315 110.962C 152.309 110.948 152.303 110.935 152.298 110.922" /></clipPath><clipPath id="34"><path id="" clip-rule="evenodd" transform="matrix(1 0 0 1 0 0)" d="M168.337 120.505L184.428 120.505L184.428 120.505L184.428 104.472L184.428 104.472L168.337 104.472z" /></clipPath><clipPath id="35"><path id="" clip-rule="evenodd" transform="matrix(1 0 0 1 0 0)" d="M183.655 110.962C 182.799 112.987 181.572 114.806 180.01 116.367C 178.448 117.93 176.63 119.157 174.605 120.012C 174.201 120.183 173.792 120.339 173.378 120.476L173.378 120.476L184.398 120.476L184.398 120.476L184.398 108.813C 184.199 109.543 183.952 110.26 183.655 110.962" /></clipPath><clipPath id="36"><path id="" clip-rule="evenodd" transform="matrix(1 0 0 1 0 0)" d="M152.276 104.501L168.367 104.501L168.367 104.501L168.367 88.46796L168.367 88.46796L152.276 88.46796z" /></clipPath><clipPath id="37"><path id="" clip-rule="evenodd" transform="matrix(1 0 0 1 0 0)" d="M163.058 88.49597C 158.021 90.06097 154.012 93.96002 152.298 98.92798L152.298 98.92798L152.298 104.501L152.298 104.501L156.846 104.501L156.846 104.501L156.846 94.771L156.846 94.771L168.366 94.771L168.366 94.771L168.366 88.49597" /></clipPath><clipPath id="38"><path id="" clip-rule="evenodd" transform="matrix(1 0 0 1 0 0)" d="M168.337 104.501L184.428 104.501L184.428 104.501L184.428 88.46796L184.428 88.46796L168.337 88.46796z" /></clipPath><clipPath id="39"><path id="" clip-rule="evenodd" transform="matrix(1 0 0 1 0 0)" d="M168.338 88.49597L168.338 94.771L168.338 94.771L179.578 94.771L179.578 94.771L179.578 104.501L179.578 104.501L184.398 104.501L184.398 104.501L184.398 101.912C 183.464 95.54999 178.919 90.362 172.912 88.49597" /></clipPath><clipPath id="40"><path id="" clip-rule="evenodd" transform="matrix(1 0 0 1 0 0)" d="M152.276 120.505L168.367 120.505L168.367 120.505L168.367 104.472L168.367 104.472L152.276 104.472z" /></clipPath><clipPath id="41"><path id="" clip-rule="evenodd" transform="matrix(1 0 0 1 0 0)" d="M152.298 104.473L152.298 109.757C 154.129 115.065 158.579 119.152 164.102 120.476L164.102 120.476L168.366 120.476L168.366 120.476L168.366 110.016L168.366 110.016L156.846 110.016L156.846 110.016L156.846 104.473" /></clipPath><clipPath id="42"><path id="" clip-rule="evenodd" transform="matrix(1 0 0 1 0 0)" d="M168.337 120.505L184.428 120.505L184.428 120.505L184.428 104.472L184.428 104.472L168.337 104.472z" /></clipPath><clipPath id="43"><path id="" clip-rule="evenodd" transform="matrix(1 0 0 1 0 0)" d="M179.578 104.473L179.578 110.016L179.578 110.016L168.338 110.016L168.338 110.016L168.338 120.476L168.338 120.476L171.868 120.476C 178.388 118.913 183.411 113.499 184.398 106.773L184.398 106.773L184.398 104.473" /></clipPath><clipPath id="44"><path id="" clip-rule="evenodd" transform="matrix(1 0 0 1 0 0)" d="M152.276 104.501L168.367 104.501L168.367 104.501L168.367 88.46796L168.367 88.46796L152.276 88.46796z" /></clipPath><clipPath id="45"><path id="" clip-rule="evenodd" transform="matrix(1 0 0 1 0 0)" d="M161.798 88.49597C 161.653 88.55298 161.509 88.61102 161.365 88.67297C 159.34 89.52899 157.521 90.75403 155.959 92.31702C 154.397 93.87903 153.171 95.698 152.315 97.72198C 152.309 97.73602 152.303 97.75 152.298 97.763L152.298 97.763L152.298 98.92798C 154.012 93.96002 158.021 90.06097 163.058 88.49597" /></clipPath><clipPath id="46"><path id="" clip-rule="evenodd" transform="matrix(1 0 0 1 0 0)" d="M168.337 104.501L184.428 104.501L184.428 104.501L184.428 88.46796L184.428 88.46796L168.337 88.46796z" /></clipPath><clipPath id="47"><path id="" clip-rule="evenodd" transform="matrix(1 0 0 1 0 0)" d="M172.912 88.49597C 178.919 90.362 183.464 95.54999 184.398 101.912L184.398 101.912L184.398 99.87C 184.199 99.14099 183.952 98.42499 183.655 97.72198C 182.799 95.698 181.572 93.87903 180.01 92.31702C 178.448 90.75403 176.63 89.52899 174.605 88.67297C 174.461 88.61102 174.316 88.55298 174.171 88.49597" /></clipPath><clipPath id="48"><path id="" clip-rule="evenodd" transform="matrix(1 0 0 1 0 0)" d="M152.276 120.505L168.367 120.505L168.367 120.505L168.367 104.472L168.367 104.472L152.276 104.472z" /></clipPath><clipPath id="49"><path id="" clip-rule="evenodd" transform="matrix(1 0 0 1 0 0)" d="M152.298 110.922C 152.303 110.935 152.309 110.948 152.315 110.962C 153.171 112.987 154.397 114.806 155.959 116.367C 157.521 117.93 159.34 119.157 161.365 120.012C 161.77 120.183 162.178 120.339 162.592 120.476L162.592 120.476L164.102 120.476C 158.579 119.152 154.129 115.065 152.298 109.757" /></clipPath><clipPath id="50"><path id="" clip-rule="evenodd" transform="matrix(1 0 0 1 0 0)" d="M168.337 120.505L184.428 120.505L184.428 120.505L184.428 104.472L184.428 104.472L168.337 104.472z" /></clipPath><clipPath id="51"><path id="" clip-rule="evenodd" transform="matrix(1 0 0 1 0 0)" d="M171.868 120.476L173.378 120.476C 173.792 120.339 174.201 120.183 174.605 120.012C 176.63 119.157 178.448 117.93 180.01 116.367C 181.572 114.806 182.799 112.987 183.655 110.962C 183.952 110.26 184.199 109.543 184.398 108.813L184.398 108.813L184.398 106.773C 183.411 113.499 178.388 118.913 171.868 120.476" /></clipPath><clipPath id="52"><path id="" clip-rule="evenodd" transform="matrix(1 0 0 1 0 0)" d="M156.846 94.771L168.219 94.771L168.219 94.771L168.219 110.015L168.219 110.015L156.846 110.015z" /></clipPath><clipPath id="53"><path id="" clip-rule="evenodd" transform="matrix(1 0 0 1 0 0)" d="M168.191 94.771L179.578 94.771L179.578 94.771L179.578 110.015L179.578 110.015L168.191 110.015z" /></clipPath><clipPath id="54"><path id="" clip-rule="evenodd" transform="matrix(1 0 0 1 0 0)" d="M192.84 79.03101L40.952 79.03101L40.952 79.03101L40.952 129.568L40.952 129.568L192.84 129.568z" /></clipPath><clipPath id="55"><path id="" clip-rule="evenodd" transform="matrix(1 0 0 1 0 0)" d="M40.98 79.02002L192.84 79.02002L192.84 79.02002L192.84 129.54L192.84 129.54L40.98 129.54z" /></clipPath><clipPath id="56"><path id="" clip-rule="evenodd" transform="matrix(1 0 0 1 0 0)" d="M39.96 78.06L193.86 78.06L193.86 78.06L193.86 130.56L193.86 130.56L39.96 130.56z" /></clipPath><clipPath id="57"><path id="" clip-rule="evenodd" transform="matrix(1 0 0 1 0 0)" d="M0 0.02001953L595.2 0.02001953L595.2 0.02001953L595.2 842L595.2 842L0 842z" /></clipPath></defs><g transform="matrix(1.333333 0 0 1.333333 0 0)"><g clip-path="url(#1)"><path id="68" transform="matrix(1 0 0 -1 0 842)" d="M215.94 767.96L549 767.96L549 705.02L215.94 705.02" stroke="none" fill="#ECF5FC" fill-rule="nonzero" /><g clip-path="url(#2)"><g clip-path="url(#3)"><g clip-path="url(#4)"><g clip-path="url(#5)"><path id="127" transform="matrix(1 0 0 -1 0 842)" d="M191.975 761.877L145.033 761.877L89.242 761.877L42.302 761.877L42.302 713.703L89.256 713.703L145.033 713.703L191.975 713.703M90.476 746.142L143.802 746.142L143.802 714.8781L90.476 714.8781zM43.425 714.879L43.425 760.701L89.242 760.701L89.242 746.142L89.248 746.142L89.248 714.879zM190.776 714.88L145.032 714.88L145.032 760.678L190.776 760.678z" stroke="none" fill="#221E1F" fill-rule="nonzero" /><path id="128" transform="matrix(1 0 0 -1 0 842)" d="M90.476 747.342L143.802 747.342L143.802 760.678L90.476 760.678z" stroke="none" fill="#F8971C" fill-rule="nonzero" /><path id="129" transform="matrix(1 0 0 -1 0 842)" d="M97.576 758.111C 97.755 758.111 97.92 758.0161 98.009 757.861L98.009 757.861L102.167 750.659C 102.257 750.504 102.257 750.313 102.167 750.158C 102.078 750.004 101.913 749.909 101.734 749.909L101.734 749.909L93.418 749.909C 93.239 749.909 93.074 750.004 92.98499 750.158C 92.895 750.313 92.895 750.504 92.98499 750.659L92.98499 750.659L97.143 757.861C 97.23199 758.0161 97.397 758.111 97.576 758.111" stroke="none" fill="#221E1F" fill-rule="nonzero" /></g></g></g></g><g clip-path="url(#6)"><g clip-path="url(#7)"><g transform="matrix(0.48002 0 0 0.4606667 92.814 83.83398)"><g transform="matrix(1 0 0 1 0 0)"><image x="0" y="0" xlink:href="img_305.png" width="20" height="18" /></g></g></g></g><g clip-path="url(#8)"><g clip-path="url(#9)"><g transform="matrix(0.4799778 0 0 0.4545 93.354 84.37402)"><g transform="matrix(1 0 0 1 0 0)"><image x="0" y="0" xlink:href="img_306.png" width="18" height="16" /></g></g></g></g><g clip-path="url(#10)"><g clip-path="url(#11)"><g clip-path="url(#12)"><g clip-path="url(#13)"><path id="132" transform="matrix(1 0 0 -1 0 842)" d="M139.656 755.142C 139.656 755.871 139.575 757.221 137.622 757.221C 135.48 757.221 135.336 755.853 135.336 753.747C 135.336 751.74 135.606 750.543 137.217 750.543C 137.802 750.543 138.369 750.705 138.603 751.281L138.603 751.281L138.621 751.281L138.621 751.281L138.657 750.669L138.657 750.669L139.692 750.669L139.692 750.669L139.692 754.116L139.692 754.116L137.577 754.116L137.577 754.116L137.577 753.108L137.577 753.108L138.288 753.108L138.288 753.108L138.288 752.901C 138.288 752.019 138.108 751.551 137.595 751.551C 136.992 751.551 136.902 752.118 136.902 753.873C 136.902 755.583 136.974 756.213 137.595 756.213C 138.153 756.213 138.198 755.556 138.198 755.142M129.972 750.669L131.322 750.669L131.322 755.097L131.34 755.097L132.663 750.669L134.373 750.669L134.373 757.095L132.969 757.095L132.969 752.919L132.951 752.919L131.709 757.095L129.972 757.095zM127.363 750.669L128.875 750.669L128.875 757.095L127.363 757.095zM121.855 750.669L123.205 750.669L123.205 755.097L123.224 755.097L124.547 750.669L126.257 750.669L126.257 757.095L124.853 757.095L124.853 752.919L124.835 752.919L123.593 757.095L121.855 757.095zM116.523 750.669L118.035 750.669L118.035 750.669L118.035 753.324L118.035 753.324L118.611 753.324C 119.088 753.324 119.241 753.09 119.241 751.974C 119.241 751.245 119.286 750.885 119.403 750.669L119.403 750.669L121.032 750.669L121.032 750.669L121.032 750.75C 120.816 750.84 120.771 750.966 120.744 752.235C 120.726 753.099 120.672 753.702 119.709 753.837L119.709 753.837L119.709 753.855C 120.411 754.026 120.789 754.485 120.789 755.421C 120.789 756.303 120.348 757.095 119.061 757.095L119.061 757.095L116.523 757.095zM118.035 756.033L118.494 756.033C 119.097 756.033 119.277 755.709 119.277 755.223C 119.277 754.845 119.115 754.386 118.503 754.386L118.503 754.386L118.035 754.386zM110.65 750.669L112.216 750.669L112.441 751.893L113.98 751.893L114.214 750.669L115.78 750.669L114.178 757.095L112.288 757.095zM113.755 753.063L112.657 753.063L113.188 755.925L113.206 755.925zM104.872 750.669L106.546 750.669L107.167 755.232L107.185 755.232L107.842 750.669L109.516 750.669L110.632 757.095L109.174 757.095L108.634 752.523L108.616 752.523L107.896 757.095L106.492 757.095L105.826 752.523L105.808 752.523L105.25 757.095L103.738 757.095z" stroke="none" fill="#221E1F" fill-rule="nonzero" /><path id="133" transform="matrix(1 0 0 -1 0 842)" d="M167.985 720.859C 163.498 720.859 159.279 722.606 156.106 725.779C 152.934 728.952 151.186 733.171 151.186 737.658C 151.186 742.144 152.934 746.363 156.106 749.536C 159.279 752.709 163.498 754.456 167.985 754.456C 172.472 754.456 176.691 752.709 179.864 749.536C 183.036 746.363 184.784 742.144 184.784 737.658C 184.784 733.171 183.036 728.952 179.864 725.779C 176.691 722.606 172.472 720.859 167.985 720.859" stroke="none" fill="#B71F2E" fill-rule="nonzero" /><path id="134" transform="matrix(1 0 0 -1 0 842)" d="M167.985 754.664C 165.689 754.664 163.462 754.214 161.365 753.328C 159.34 752.471 157.521 751.245 155.959 749.683C 154.398 748.121 153.171 746.303 152.315 744.278C 151.428 742.181 150.978 739.953 150.978 737.658C 150.978 735.362 151.428 733.135 152.315 731.038C 153.171 729.013 154.398 727.193 155.959 725.632C 157.521 724.07 159.34 722.844 161.365 721.988C 163.462 721.1 165.689 720.651 167.985 720.651C 170.281 720.651 172.508 721.1 174.605 721.988C 176.63 722.844 178.449 724.07 180.011 725.632C 181.572 727.193 182.799 729.013 183.655 731.038C 184.542 733.135 184.992 735.362 184.992 737.658C 184.992 739.953 184.542 742.181 183.655 744.278C 182.799 746.303 181.572 748.121 180.011 749.683C 178.449 751.245 176.63 752.471 174.605 753.328C 172.508 754.214 170.281 754.664 167.985 754.664M167.985 754.248C 177.148 754.248 184.575 746.82 184.575 737.658C 184.575 728.495 177.148 721.067 167.985 721.067C 158.822 721.067 151.394 728.495 151.394 737.658C 151.394 746.82 158.822 754.248 167.985 754.248" stroke="none" fill="#FFFFFF" fill-rule="nonzero" /><path id="135" transform="matrix(1 0 0 -1 0 842)" d="M115.537 743.073C 115.537 742.632 115.495 742.388 115.293 742.388C 115.037 742.388 115.028 742.737 115.028 743.102C 115.028 743.514 115.041 743.788 115.289 743.788C 115.52 743.788 115.537 743.476 115.537 743.073M115.55 741.951L116.205 741.951L116.205 741.951L116.205 744.952L116.205 744.952L115.524 744.952L115.524 744.952L115.524 743.977L115.524 743.977L115.516 743.977C 115.403 744.22 115.197 744.283 115.007 744.283C 114.449 744.283 114.348 743.775 114.348 743.069C 114.348 742.22 114.591 741.892 115.049 741.892C 115.352 741.892 115.491 742.073 115.541 742.228L115.541 742.228L115.55 742.228zM112.222 741.951L112.903 741.951L112.903 741.951L112.903 743.438C 112.903 743.662 113.017 743.762 113.147 743.762C 113.273 743.762 113.345 743.666 113.345 743.501L113.345 743.501L113.345 741.951L113.345 741.951L114.026 741.951L114.026 741.951L114.026 743.653C 114.026 744.09 113.819 744.283 113.433 744.283C 113.181 744.283 112.983 744.157 112.886 743.956L112.886 743.956L112.878 743.956L112.878 743.956L112.878 744.224L112.878 744.224L112.222 744.224zM110.702 742.653C 110.702 742.779 110.736 742.85 110.808 742.905C 110.871 742.955 110.963 742.96 111.177 743.073C 111.177 742.981 111.173 742.863 111.173 742.674C 111.173 742.447 111.043 742.363 110.9 742.363C 110.773 742.363 110.702 742.472 110.702 742.653M110.715 743.527C 110.719 743.725 110.773 743.838 110.963 743.838C 111.114 743.838 111.177 743.75 111.177 743.611C 111.177 743.438 111.139 743.405 110.934 743.35C 110.744 743.3 110.492 743.258 110.324 743.165C 110.156 743.073 110.047 742.85 110.047 742.586C 110.047 742.094 110.269 741.892 110.652 741.892C 110.879 741.892 111.093 742.01 111.186 742.211L111.186 742.211L111.194 742.211C 111.198 742.123 111.207 742.031 111.232 741.951L111.232 741.951L111.887 741.951C 111.807 742.052 111.807 742.27 111.807 742.442L111.807 742.442L111.807 743.611C 111.807 744.09 111.559 744.283 111.001 744.283C 110.719 744.283 110.526 744.245 110.366 744.136C 110.206 744.027 110.114 743.838 110.11 743.527zM108.759 743.367C 108.759 743.909 108.573 744.283 107.859 744.283C 107.119 744.283 106.935 743.809 106.935 743.17C 106.935 742.493 107.002 741.892 107.859 741.892C 108.477 741.892 108.754 742.174 108.759 742.876L108.759 742.876L108.128 742.876C 108.12 742.476 108.073 742.337 107.872 742.337C 107.645 742.337 107.616 742.573 107.616 743.086C 107.616 743.552 107.645 743.838 107.872 743.838C 108.052 743.838 108.128 743.699 108.128 743.367zM105.935 744.464L106.616 744.464L106.616 744.985L105.935 744.985zM105.935 741.951L106.616 741.951L106.616 744.224L105.935 744.224zM104.683 742.54C 104.683 742.01 104.818 741.926 105.289 741.926C 105.419 741.926 105.549 741.934 105.679 741.951L105.679 741.951L105.679 742.405L105.679 742.405L105.583 742.396C 105.423 742.396 105.364 742.447 105.364 742.607L105.364 742.607L105.364 743.754L105.364 743.754L105.679 743.754L105.679 743.754L105.679 744.224L105.679 744.224L105.364 744.224L105.364 744.224L105.364 744.893L105.364 744.893L104.683 744.893L104.683 744.893L104.683 744.224L104.683 744.224L104.402 744.224L104.402 744.224L104.402 743.754L104.402 743.754L104.683 743.754zM103.18 743.371C 103.18 743.678 103.217 743.863 103.441 743.863C 103.63 743.863 103.672 743.691 103.672 743.371zM104.327 742.976C 104.327 743.75 104.268 744.283 103.424 744.283C 102.684 744.283 102.499 743.809 102.499 743.17C 102.499 742.493 102.566 741.892 103.424 741.892C 103.987 741.892 104.293 742.165 104.306 742.729L104.306 742.729L103.676 742.729C 103.659 742.442 103.604 742.312 103.428 742.312C 103.231 742.312 103.18 742.484 103.18 742.838L103.18 742.838L103.18 742.976zM100.395 741.951L101.076 741.951L101.076 741.951L101.076 743.438C 101.076 743.662 101.189 743.762 101.32 743.762C 101.446 743.762 101.517 743.666 101.517 743.501L101.517 743.501L101.517 741.951L101.517 741.951L102.198 741.951L102.198 741.951L102.198 743.653C 102.198 744.09 101.992 744.283 101.605 744.283C 101.353 744.283 101.156 744.157 101.059 743.956L101.059 743.956L101.051 743.956L101.051 743.956L101.051 744.224L101.051 744.224L100.395 744.224zM98.859 743.128C 98.859 743.501 98.89201 743.762 99.11501 743.762C 99.312 743.762 99.36301 743.564 99.36301 743.149C 99.36301 742.636 99.291 742.501 99.106 742.501C 98.922 742.501 98.859 742.653 98.859 743.128M99.388 743.918L99.37901 743.918C 99.3 744.124 99.148 744.283 98.842 744.283C 98.249 744.283 98.178 743.657 98.178 743.119C 98.178 742.493 98.325 742.006 98.817 742.006C 99.048 742.006 99.262 742.081 99.354 742.342L99.354 742.342L99.36301 742.342L99.36301 742.342L99.36301 742.203C 99.36301 741.77 99.316 741.623 99.09 741.623C 99.01801 741.623 98.964 741.64 98.922 741.67C 98.884 741.699 98.86301 741.745 98.85001 741.808L98.85001 741.808L98.22 741.808C 98.22 741.468 98.413 741.178 99.07301 741.178C 99.791 741.178 100.018 741.518 100.018 742.031L100.018 742.031L100.018 744.224L100.018 744.224L99.388 744.224zM96.695 742.653C 96.695 742.779 96.729 742.85 96.8 742.905C 96.863 742.955 96.956 742.96 97.17001 743.073C 97.17001 742.981 97.166 742.863 97.166 742.674C 97.166 742.447 97.036 742.363 96.89301 742.363C 96.76701 742.363 96.695 742.472 96.695 742.653M96.708 743.527C 96.71201 743.725 96.76701 743.838 96.956 743.838C 97.107 743.838 97.17001 743.75 97.17001 743.611C 97.17001 743.438 97.132 743.405 96.927 743.35C 96.737 743.3 96.485 743.258 96.317 743.165C 96.149 743.073 96.04 742.85 96.04 742.586C 96.04 742.094 96.262 741.892 96.644 741.892C 96.872 741.892 97.08601 742.01 97.179 742.211L97.179 742.211L97.187 742.211C 97.191 742.123 97.2 742.031 97.22501 741.951L97.22501 741.951L97.881 741.951C 97.801 742.052 97.801 742.27 97.801 742.442L97.801 742.442L97.801 743.611C 97.801 744.09 97.552 744.283 96.994 744.283C 96.71201 744.283 96.51801 744.245 96.359 744.136C 96.19901 744.027 96.107 743.838 96.103 743.527zM92.898 741.951L93.529 741.951L93.529 744.287L93.537 744.287L94.02 741.951L94.567 741.951L95.024 744.287L95.033 744.287L95.033 741.951L95.689 741.951L95.689 744.952L94.667 744.952L94.31001 742.981L94.301 742.981L93.932 744.952L92.898 744.952z" stroke="none" fill="#221E1F" fill-rule="nonzero" /><path id="136" transform="matrix(1 0 0 -1 0 842)" d="M137.978 737.75L138.634 737.75L138.634 738.507L137.978 738.507zM135.768 737.75L136.449 737.75L136.449 737.75L136.449 739.238C 136.449 739.461 136.562 739.562 136.692 739.562C 136.819 739.562 136.89 739.465 136.89 739.301L136.89 739.301L136.89 737.75L136.89 737.75L137.571 737.75L137.571 737.75L137.571 739.453C 137.571 739.89 137.365 740.083 136.979 740.083C 136.726 740.083 136.529 739.957 136.432 739.755L136.432 739.755L136.424 739.755L136.424 739.755L136.424 740.024L136.424 740.024L135.768 740.024zM134.529 737.692C 135.315 737.692 135.467 738.213 135.467 738.894C 135.467 739.575 135.362 740.083 134.529 740.083C 133.744 740.083 133.593 739.562 133.593 738.881C 133.593 738.2 133.698 737.692 134.529 737.692M134.786 738.885C 134.786 738.327 134.744 738.137 134.534 738.137C 134.332 738.137 134.273 738.335 134.273 738.889C 134.273 739.44 134.332 739.638 134.534 739.638C 134.744 739.638 134.786 739.449 134.786 738.885M132.593 740.263L133.274 740.263L133.274 740.784L132.593 740.784zM132.593 737.75L133.274 737.75L133.274 740.023L132.593 740.023zM131.341 738.339C 131.341 737.809 131.476 737.725 131.946 737.725C 132.076 737.725 132.207 737.734 132.338 737.75L132.338 737.75L132.338 738.204L132.338 738.204L132.24 738.196C 132.081 738.196 132.022 738.247 132.022 738.406L132.022 738.406L132.022 739.554L132.022 739.554L132.338 739.554L132.338 739.554L132.338 740.024L132.338 740.024L132.022 740.024L132.022 740.024L132.022 740.692L132.022 740.692L131.341 740.692L131.341 740.692L131.341 740.024L131.341 740.024L131.059 740.024L131.059 740.024L131.059 739.554L131.059 739.554L131.341 739.554zM129.733 738.453C 129.733 738.579 129.766 738.65 129.838 738.705C 129.901 738.755 129.993 738.759 130.208 738.873C 130.208 738.78 130.204 738.663 130.204 738.474C 130.204 738.247 130.073 738.162 129.93 738.162C 129.804 738.162 129.733 738.272 129.733 738.453M129.745 739.326C 129.75 739.524 129.804 739.638 129.993 739.638C 130.145 739.638 130.208 739.549 130.208 739.411C 130.208 739.238 130.17 739.204 129.964 739.15C 129.775 739.099 129.523 739.057 129.355 738.965C 129.187 738.873 129.078 738.65 129.078 738.385C 129.078 737.893 129.3 737.692 129.682 737.692C 129.909 737.692 130.123 737.809 130.216 738.011L130.216 738.011L130.225 738.011C 130.229 737.923 130.237 737.83 130.263 737.75L130.263 737.75L130.918 737.75C 130.838 737.851 130.838 738.07 130.838 738.243L130.838 738.243L130.838 739.411C 130.838 739.89 130.59 740.083 130.031 740.083C 129.75 740.083 129.556 740.045 129.397 739.936C 129.237 739.827 129.145 739.638 129.141 739.326zM128.078 740.263L128.759 740.263L128.759 740.784L128.078 740.784zM128.078 737.75L128.759 737.75L128.759 740.023L128.078 740.023zM127.016 738.873C 127.016 738.432 126.974 738.187 126.772 738.187C 126.516 738.187 126.507 738.537 126.507 738.902C 126.507 739.314 126.52 739.587 126.768 739.587C 126.999 739.587 127.016 739.276 127.016 738.873M127.029 737.75L127.684 737.75L127.684 737.75L127.684 740.751L127.684 740.751L127.003 740.751L127.003 740.751L127.003 739.776L127.003 739.776L126.995 739.776C 126.882 740.02 126.675 740.083 126.486 740.083C 125.928 740.083 125.827 739.575 125.827 738.868C 125.827 738.019 126.07 737.692 126.528 737.692C 126.831 737.692 126.97 737.872 127.02 738.028L127.02 738.028L127.029 738.028zM124.361 738.453C 124.361 738.579 124.394 738.65 124.466 738.705C 124.529 738.755 124.621 738.759 124.836 738.873C 124.836 738.78 124.832 738.663 124.832 738.474C 124.832 738.247 124.701 738.162 124.558 738.162C 124.432 738.162 124.361 738.272 124.361 738.453M124.373 739.326C 124.378 739.524 124.432 739.638 124.621 739.638C 124.773 739.638 124.836 739.549 124.836 739.411C 124.836 739.238 124.798 739.204 124.592 739.15C 124.403 739.099 124.151 739.057 123.983 738.965C 123.815 738.873 123.706 738.65 123.706 738.385C 123.706 737.893 123.928 737.692 124.31 737.692C 124.537 737.692 124.752 737.809 124.844 738.011L124.844 738.011L124.853 738.011C 124.857 737.923 124.865 737.83 124.891 737.75L124.891 737.75L125.546 737.75C 125.466 737.851 125.466 738.07 125.466 738.243L125.466 738.243L125.466 739.411C 125.466 739.89 125.218 740.083 124.659 740.083C 124.378 740.083 124.184 740.045 124.025 739.936C 123.865 739.827 123.773 739.638 123.769 739.326zM122.278 737.75L122.959 737.75L122.959 737.75L122.959 739.041C 122.959 739.339 123.135 739.453 123.408 739.453C 123.475 739.453 123.53 739.449 123.598 739.436L123.598 739.436L123.598 740.074L123.598 740.074L123.488 740.083C 123.202 740.083 123.03 739.906 122.942 739.705L122.942 739.705L122.933 739.705L122.933 739.705L122.933 740.024L122.933 740.024L122.278 740.024zM120.914 739.167C 120.914 739.709 120.729 740.083 120.014 740.083C 119.275 740.083 119.09 739.608 119.09 738.969C 119.09 738.293 119.157 737.692 120.014 737.692C 120.632 737.692 120.91 737.973 120.914 738.675L120.914 738.675L120.283 738.675C 120.275 738.276 120.229 738.137 120.027 738.137C 119.8 738.137 119.771 738.373 119.771 738.885C 119.771 739.352 119.8 739.638 120.027 739.638C 120.208 739.638 120.283 739.499 120.283 739.167zM118.09 740.263L118.771 740.263L118.771 740.784L118.09 740.784zM118.09 737.75L118.771 737.75L118.771 740.023L118.09 740.023zM116.839 738.339C 116.839 737.809 116.973 737.725 117.444 737.725C 117.574 737.725 117.704 737.734 117.834 737.75L117.834 737.75L117.834 738.204L117.834 738.204L117.738 738.196C 117.578 738.196 117.52 738.247 117.52 738.406L117.52 738.406L117.52 739.554L117.52 739.554L117.834 739.554L117.834 739.554L117.834 740.024L117.834 740.024L117.52 740.024L117.52 740.024L117.52 740.692L117.52 740.692L116.839 740.692L116.839 740.692L116.839 740.024L116.839 740.024L116.557 740.024L116.557 740.024L116.557 739.554L116.557 739.554L116.839 739.554zM115.335 739.171C 115.335 739.478 115.373 739.663 115.596 739.663C 115.785 739.663 115.827 739.491 115.827 739.171zM116.483 738.776C 116.483 739.549 116.424 740.083 115.579 740.083C 114.84 740.083 114.654 739.608 114.654 738.969C 114.654 738.293 114.722 737.692 115.579 737.692C 116.142 737.692 116.449 737.965 116.462 738.528L116.462 738.528L115.831 738.528C 115.814 738.243 115.76 738.112 115.583 738.112C 115.386 738.112 115.335 738.285 115.335 738.637L115.335 738.637L115.335 738.776zM112.55 737.75L113.231 737.75L113.231 737.75L113.231 739.238C 113.231 739.461 113.345 739.562 113.475 739.562C 113.601 739.562 113.672 739.465 113.672 739.301L113.672 739.301L113.672 737.75L113.672 737.75L114.353 737.75L114.353 737.75L114.353 739.453C 114.353 739.89 114.147 740.083 113.761 740.083C 113.508 740.083 113.311 739.957 113.214 739.755L113.214 739.755L113.206 739.755L113.206 739.755L113.206 740.024L113.206 740.024L112.55 740.024zM111.014 738.927C 111.014 739.301 111.047 739.562 111.27 739.562C 111.467 739.562 111.518 739.365 111.518 738.948C 111.518 738.436 111.446 738.301 111.261 738.301C 111.077 738.301 111.014 738.453 111.014 738.927M111.543 739.717L111.535 739.717C 111.455 739.923 111.303 740.083 110.997 740.083C 110.404 740.083 110.332 739.457 110.332 738.919C 110.332 738.293 110.48 737.805 110.972 737.805C 111.203 737.805 111.417 737.881 111.509 738.141L111.509 738.141L111.518 738.141L111.518 738.141L111.518 738.003C 111.518 737.57 111.471 737.423 111.245 737.423C 111.173 737.423 111.119 737.44 111.077 737.469C 111.039 737.499 111.018 737.545 111.005 737.608L111.005 737.608L110.374 737.608C 110.374 737.268 110.568 736.977 111.228 736.977C 111.947 736.977 112.173 737.318 112.173 737.83L112.173 737.83L112.173 740.024L112.173 740.024L111.543 740.024zM108.85 738.453C 108.85 738.579 108.884 738.65 108.955 738.705C 109.018 738.755 109.111 738.759 109.325 738.873C 109.325 738.78 109.321 738.663 109.321 738.474C 109.321 738.247 109.191 738.162 109.048 738.162C 108.922 738.162 108.85 738.272 108.85 738.453M108.863 739.326C 108.867 739.524 108.922 739.638 109.111 739.638C 109.262 739.638 109.325 739.549 109.325 739.411C 109.325 739.238 109.287 739.204 109.081 739.15C 108.892 739.099 108.64 739.057 108.472 738.965C 108.304 738.873 108.195 738.65 108.195 738.385C 108.195 737.893 108.418 737.692 108.8 737.692C 109.027 737.692 109.241 737.809 109.333 738.011L109.333 738.011L109.342 738.011C 109.346 737.923 109.354 737.83 109.38 737.75L109.38 737.75L110.035 737.75C 109.956 737.851 109.956 738.07 109.956 738.243L109.956 738.243L109.956 739.411C 109.956 739.89 109.708 740.083 109.149 740.083C 108.867 740.083 108.674 740.045 108.514 739.936C 108.355 739.827 108.262 739.638 108.258 739.326zM104.948 737.75L105.629 737.75L105.629 737.75L105.629 739.238C 105.629 739.461 105.742 739.562 105.873 739.562C 105.999 739.562 106.07 739.465 106.07 739.301L106.07 739.301L106.07 737.75L106.07 737.75L106.751 737.75L106.751 737.75L106.751 739.238C 106.751 739.461 106.864 739.562 106.995 739.562C 107.121 739.562 107.192 739.465 107.192 739.301L107.192 739.301L107.192 737.75L107.192 737.75L107.873 737.75L107.873 737.75L107.873 739.453C 107.873 739.89 107.667 740.083 107.281 740.083C 107.028 740.083 106.877 739.999 106.717 739.734C 106.617 740.045 106.356 740.083 106.159 740.083C 105.906 740.083 105.709 739.957 105.612 739.755L105.612 739.755L105.604 739.755L105.604 739.755L105.604 740.024L105.604 740.024L104.948 740.024zM103.689 737.692C 104.475 737.692 104.626 738.213 104.626 738.894C 104.626 739.575 104.521 740.083 103.689 740.083C 102.903 740.083 102.751 739.562 102.751 738.881C 102.751 738.2 102.856 737.692 103.689 737.692M103.945 738.885C 103.945 738.327 103.903 738.137 103.693 738.137C 103.491 738.137 103.432 738.335 103.432 738.889C 103.432 739.44 103.491 739.638 103.693 739.638C 103.903 739.638 103.945 739.449 103.945 738.885M101.323 737.75L102.004 737.75L102.004 737.75L102.004 739.041C 102.004 739.339 102.181 739.453 102.454 739.453C 102.521 739.453 102.576 739.449 102.643 739.436L102.643 739.436L102.643 740.074L102.643 740.074L102.534 740.083C 102.248 740.083 102.076 739.906 101.987 739.705L101.987 739.705L101.979 739.705L101.979 739.705L101.979 740.024L101.979 740.024L101.323 740.024zM100.089 738.339C 100.089 737.809 100.223 737.725 100.694 737.725C 100.824 737.725 100.954 737.734 101.084 737.75L101.084 737.75L101.084 738.204L101.084 738.204L100.988 738.196C 100.828 738.196 100.769 738.247 100.769 738.406L100.769 738.406L100.769 739.554L100.769 739.554L101.084 739.554L101.084 739.554L101.084 740.024L101.084 740.024L100.769 740.024L100.769 740.024L100.769 740.692L100.769 740.692L100.089 740.692L100.089 740.692L100.089 740.024L100.089 740.024L99.807 740.024L99.807 740.024L99.807 739.554L99.807 739.554L100.089 739.554zM99.728 739.167C 99.728 739.709 99.544 740.083 98.82899 740.083C 98.089 740.083 97.904 739.608 97.904 738.969C 97.904 738.293 97.972 737.692 98.82899 737.692C 99.447 737.692 99.724 737.973 99.728 738.675L99.728 738.675L99.098 738.675C 99.089 738.276 99.043 738.137 98.842 738.137C 98.615 738.137 98.585 738.373 98.585 738.885C 98.585 739.352 98.615 739.638 98.842 739.638C 99.022 739.638 99.098 739.499 99.098 739.167zM96.56499 739.171C 96.56499 739.478 96.603 739.663 96.825 739.663C 97.014 739.663 97.056 739.491 97.056 739.171zM97.712 738.776C 97.712 739.549 97.653 740.083 96.809 740.083C 96.069 740.083 95.884 739.608 95.884 738.969C 95.884 738.293 95.951 737.692 96.809 737.692C 97.372 737.692 97.679 737.965 97.691 738.528L97.691 738.528L97.061 738.528C 97.044 738.243 96.989 738.112 96.813 738.112C 96.615 738.112 96.56499 738.285 96.56499 738.637L96.56499 738.637L96.56499 738.776zM94.884 737.75L95.56499 737.75L95.56499 740.751L94.884 740.751zM93.453 739.171C 93.453 739.478 93.491 739.663 93.713 739.663C 93.902 739.663 93.944 739.491 93.944 739.171zM94.6 738.776C 94.6 739.549 94.541 740.083 93.696 740.083C 92.957 740.083 92.772 739.608 92.772 738.969C 92.772 738.293 92.839 737.692 93.696 737.692C 94.26 737.692 94.566 737.965 94.57899 738.528L94.57899 738.528L93.948 738.528C 93.932 738.243 93.877 738.112 93.701 738.112C 93.503 738.112 93.453 738.285 93.453 738.637L93.453 738.637L93.453 738.776z" stroke="none" fill="#221E1F" fill-rule="nonzero" /><path id="137" transform="matrix(1 0 0 -1 0 842)" d="M122.736 733.4919C 123.522 733.4919 123.673 734.013 123.673 734.694C 123.673 735.375 123.568 735.883 122.736 735.883C 121.95 735.883 121.798 735.362 121.798 734.681C 121.798 734.001 121.903 733.4919 122.736 733.4919M122.992 734.685C 122.992 734.127 122.95 733.938 122.74 733.938C 122.538 733.938 122.48 734.1349 122.48 734.689C 122.48 735.24 122.538 735.438 122.74 735.438C 122.95 735.438 122.992 735.249 122.992 734.685M120.639 734.139C 120.639 733.6089 120.774 733.525 121.245 733.525C 121.375 733.525 121.505 733.534 121.635 733.551L121.635 733.551L121.635 734.0049L121.635 734.0049L121.539 733.996C 121.379 733.996 121.32 734.047 121.32 734.206L121.32 734.206L121.32 735.3539L121.32 735.3539L121.635 735.3539L121.635 735.3539L121.635 735.824L121.635 735.824L121.32 735.824L121.32 735.824L121.32 736.4919L121.32 736.4919L120.639 736.4919L120.639 736.4919L120.639 735.824L120.639 735.824L120.358 735.824L120.358 735.824L120.358 735.3539L120.358 735.3539L120.639 735.3539zM118.384 733.551L119.065 733.551L119.065 736.552L118.384 736.552zM117.99 735.824L117.309 735.824L117.309 735.824L117.309 734.337C 117.309 734.114 117.196 734.013 117.066 734.013C 116.94 734.013 116.868 734.11 116.868 734.274L116.868 734.274L116.868 735.824L116.868 735.824L116.187 735.824L116.187 735.824L116.187 734.1219C 116.187 733.685 116.393 733.4919 116.78 733.4919C 117.032 733.4919 117.229 733.618 117.326 733.819L117.326 733.819L117.334 733.819L117.334 733.819L117.334 733.551L117.334 733.551L117.99 733.551zM115.032 733.551L115.713 733.551L115.713 733.551L115.713 735.3539L115.713 735.3539L116.028 735.3539L116.028 735.3539L116.028 735.824L116.028 735.824L115.713 735.824L115.713 735.824L115.713 735.967C 115.713 736.098 115.747 736.14 115.932 736.14L115.932 736.14L116.028 736.14L116.028 736.14L116.028 736.597C 115.94 736.606 115.852 736.61 115.726 736.61C 115.171 736.61 115.032 736.434 115.032 736.013L115.032 736.013L115.032 735.824L115.032 735.824L114.751 735.824L114.751 735.824L114.751 735.3539L114.751 735.3539L115.032 735.3539zM111.622 733.551L112.303 733.551L112.303 733.551L112.303 735.039C 112.303 735.261 112.416 735.362 112.546 735.362C 112.672 735.362 112.744 735.265 112.744 735.102L112.744 735.102L112.744 733.551L112.744 733.551L113.425 733.551L113.425 733.551L113.425 735.039C 113.425 735.261 113.538 735.362 113.668 735.362C 113.794 735.362 113.866 735.265 113.866 735.102L113.866 735.102L113.866 733.551L113.866 733.551L114.547 733.551L114.547 733.551L114.547 735.253C 114.547 735.69 114.341 735.883 113.954 735.883C 113.702 735.883 113.551 735.799 113.391 735.534C 113.29 735.845 113.029 735.883 112.832 735.883C 112.58 735.883 112.382 735.757 112.286 735.555L112.286 735.555L112.277 735.555L112.277 735.555L112.277 735.824L112.277 735.824L111.622 735.824zM110.047 733.551L110.728 733.551L110.728 733.551L110.728 734.8409C 110.728 735.139 110.904 735.253 111.177 735.253C 111.244 735.253 111.299 735.249 111.366 735.236L111.366 735.236L111.366 735.874L111.366 735.874L111.257 735.883C 110.971 735.883 110.799 735.706 110.711 735.5049L110.711 735.5049L110.702 735.5049L110.702 735.5049L110.702 735.824L110.702 735.824L110.047 735.824zM108.527 734.253C 108.527 734.379 108.56 734.45 108.632 734.5049C 108.695 734.555 108.787 734.559 109.001 734.673C 109.001 734.58 108.997 734.463 108.997 734.274C 108.997 734.047 108.867 733.963 108.724 733.963C 108.598 733.963 108.527 734.072 108.527 734.253M108.539 735.127C 108.544 735.324 108.598 735.438 108.787 735.438C 108.938 735.438 109.001 735.349 109.001 735.211C 109.001 735.039 108.964 735.0049 108.758 734.95C 108.569 734.899 108.316 734.857 108.148 734.765C 107.98 734.673 107.871 734.45 107.871 734.185C 107.871 733.693 108.094 733.4919 108.476 733.4919C 108.703 733.4919 108.917 733.6089 109.01 733.811L109.01 733.811L109.018 733.811C 109.022 733.723 109.031 733.6299 109.056 733.551L109.056 733.551L109.712 733.551C 109.632 733.651 109.632 733.87 109.632 734.043L109.632 734.043L109.632 735.211C 109.632 735.69 109.384 735.883 108.825 735.883C 108.544 735.883 108.35 735.845 108.19 735.736C 108.031 735.627 107.938 735.438 107.934 735.127zM105.767 733.551L106.448 733.551L106.448 733.551L106.448 735.039C 106.448 735.261 106.561 735.362 106.691 735.362C 106.817 735.362 106.889 735.265 106.889 735.102L106.889 735.102L106.889 733.551L106.889 733.551L107.57 733.551L107.57 733.551L107.57 735.253C 107.57 735.69 107.364 735.883 106.977 735.883C 106.746 735.883 106.565 735.799 106.456 735.576L106.456 735.576L106.448 735.576L106.448 735.576L106.448 736.551L106.448 736.551L105.767 736.551zM103.26 734.9709C 103.26 735.278 103.298 735.463 103.52 735.463C 103.709 735.463 103.751 735.291 103.751 734.9709zM104.407 734.576C 104.407 735.349 104.348 735.883 103.503 735.883C 102.764 735.883 102.579 735.408 102.579 734.769C 102.579 734.093 102.646 733.4919 103.503 733.4919C 104.066 733.4919 104.373 733.765 104.386 734.3279L104.386 734.3279L103.755 734.3279C 103.739 734.043 103.684 733.912 103.508 733.912C 103.31 733.912 103.26 734.085 103.26 734.437L103.26 734.437L103.26 734.576zM101.143 734.673C 101.143 735.076 101.16 735.387 101.391 735.387C 101.639 735.387 101.651 735.114 101.651 734.702C 101.651 734.337 101.643 733.988 101.387 733.988C 101.185 733.988 101.143 734.232 101.143 734.673M100.475 733.551L101.13 733.551L101.13 733.551L101.13 733.8279L101.13 733.8279L101.139 733.8279C 101.189 733.672 101.328 733.4919 101.63 733.4919C 102.089 733.4919 102.332 733.819 102.332 734.668C 102.332 735.375 102.231 735.883 101.672 735.883C 101.483 735.883 101.277 735.8199 101.164 735.576L101.164 735.576L101.156 735.576L101.156 735.576L101.156 736.551L101.156 736.551L100.475 736.551zM97.203 733.551L97.884 733.551L97.884 733.551L97.884 735.039C 97.884 735.261 97.997 735.362 98.12701 735.362C 98.25301 735.362 98.325 735.265 98.325 735.102L98.325 735.102L98.325 733.551L98.325 733.551L99.006 733.551L99.006 733.551L99.006 735.253C 99.006 735.69 98.8 735.883 98.413 735.883C 98.161 735.883 97.96301 735.757 97.867 735.555L97.867 735.555L97.858 735.555L97.858 735.555L97.858 735.824L97.858 735.824L97.203 735.824zM95.68301 734.253C 95.68301 734.379 95.716 734.45 95.788 734.5049C 95.85101 734.555 95.943 734.559 96.15701 734.673C 96.15701 734.58 96.153 734.463 96.153 734.274C 96.153 734.047 96.023 733.963 95.88 733.963C 95.75401 733.963 95.68301 734.072 95.68301 734.253M95.695 735.127C 95.7 735.324 95.75401 735.438 95.943 735.438C 96.094 735.438 96.15701 735.349 96.15701 735.211C 96.15701 735.039 96.12 735.0049 95.914 734.95C 95.72501 734.899 95.473 734.857 95.304 734.765C 95.136 734.673 95.027 734.45 95.027 734.185C 95.027 733.693 95.25 733.4919 95.632 733.4919C 95.859 733.4919 96.07301 733.6089 96.166 733.811L96.166 733.811L96.174 733.811C 96.178 733.723 96.187 733.6299 96.21201 733.551L96.21201 733.551L96.868 733.551C 96.788 733.651 96.788 733.87 96.788 734.043L96.788 734.043L96.788 735.211C 96.788 735.69 96.54 735.883 95.981 735.883C 95.7 735.883 95.506 735.845 95.346 735.736C 95.187 735.627 95.094 735.438 95.09 735.127zM94.814 735.509L94.814 735.6349C 94.814 736.3409 94.47401 736.61 93.85201 736.61C 92.85101 736.61 92.80901 735.8409 92.80901 735.072C 92.80901 734.1689 92.881 733.4919 93.784 733.4919C 94.659 733.4919 94.839 733.975 94.839 734.6219L94.839 734.6219L94.839 734.727L94.839 734.727L94.158 734.727C 94.154 734.261 94.125 733.963 93.86401 733.963C 93.57 733.963 93.541 734.194 93.541 735.085C 93.541 735.87 93.566 736.14 93.847 736.14C 94.083 736.14 94.133 735.946 94.133 735.509z" stroke="none" fill="#221E1F" fill-rule="nonzero" /><path id="138" transform="matrix(1 0 0 -1 0 842)" d="M127.665 729.053L128.321 729.053L128.321 729.81L127.665 729.81zM125.607 729.775L125.607 729.674C 125.607 729.221 125.863 728.994 126.473 728.994C 127.036 728.994 127.343 729.28 127.343 729.737C 127.343 730.62 126.255 730.351 126.255 730.754C 126.255 730.876 126.305 730.964 126.486 730.964C 126.628 730.964 126.708 730.91 126.708 730.712L126.708 730.712L126.708 730.67L126.708 730.67L127.314 730.67L127.314 730.67L127.314 730.746C 127.314 731.074 127.129 731.385 126.49 731.385C 125.943 731.385 125.624 731.154 125.624 730.7C 125.624 730.221 125.893 730.112 126.452 729.922C 126.662 729.851 126.712 729.75 126.712 729.645C 126.712 729.515 126.628 729.414 126.469 729.414C 126.36 729.414 126.297 729.456 126.259 729.519C 126.225 729.586 126.217 729.674 126.213 729.775zM124.137 729.053L124.818 729.053L124.818 729.053L124.818 730.343C 124.818 730.641 124.995 730.754 125.268 730.754C 125.335 730.754 125.389 730.75 125.457 730.738L125.457 730.738L125.457 731.377L125.457 731.377L125.347 731.385C 125.062 731.385 124.89 731.209 124.801 731.006L124.801 731.006L124.793 731.006L124.793 731.006L124.793 731.326L124.793 731.326L124.137 731.326zM122.722 730.473C 122.722 730.78 122.76 730.964 122.983 730.964C 123.172 730.964 123.214 730.792 123.214 730.473zM123.869 730.078C 123.869 730.851 123.811 731.385 122.966 731.385C 122.226 731.385 122.041 730.91 122.041 730.271C 122.041 729.595 122.108 728.994 122.966 728.994C 123.529 728.994 123.836 729.267 123.848 729.83L123.848 729.83L123.218 729.83C 123.201 729.544 123.146 729.414 122.97 729.414C 122.773 729.414 122.722 729.586 122.722 729.939L122.722 729.939L122.722 730.078zM120.613 729.053L121.294 729.053L121.294 729.053L121.294 730.343C 121.294 730.641 121.471 730.754 121.744 730.754C 121.811 730.754 121.865 730.75 121.933 730.738L121.933 730.738L121.933 731.377L121.933 731.377L121.823 731.385C 121.538 731.385 121.366 731.209 121.277 731.006L121.277 731.006L121.269 731.006L121.269 731.006L121.269 731.326L121.269 731.326L120.613 731.326zM119.093 729.754C 119.093 729.88 119.127 729.952 119.198 730.007C 119.261 730.057 119.354 730.061 119.568 730.175C 119.568 730.082 119.564 729.964 119.564 729.775C 119.564 729.548 119.434 729.464 119.291 729.464C 119.165 729.464 119.093 729.574 119.093 729.754M119.106 730.628C 119.11 730.826 119.165 730.939 119.354 730.939C 119.505 730.939 119.568 730.851 119.568 730.712C 119.568 730.54 119.53 730.507 119.324 730.452C 119.135 730.402 118.883 730.36 118.715 730.267C 118.547 730.175 118.438 729.952 118.438 729.687C 118.438 729.196 118.66 728.994 119.043 728.994C 119.27 728.994 119.484 729.112 119.576 729.313L119.576 729.313L119.585 729.313C 119.589 729.225 119.597 729.133 119.623 729.053L119.623 729.053L120.278 729.053C 120.199 729.154 120.199 729.372 120.199 729.544L120.199 729.544L120.199 730.712C 120.199 731.192 119.951 731.385 119.392 731.385C 119.11 731.385 118.917 731.347 118.757 731.238C 118.597 731.129 118.505 730.939 118.501 730.628zM117.098 730.473C 117.098 730.78 117.136 730.964 117.359 730.964C 117.548 730.964 117.59 730.792 117.59 730.473zM118.246 730.078C 118.246 730.851 118.187 731.385 117.342 731.385C 116.602 731.385 116.417 730.91 116.417 730.271C 116.417 729.595 116.484 728.994 117.342 728.994C 117.905 728.994 118.212 729.267 118.225 729.83L118.225 729.83L117.594 729.83C 117.577 729.544 117.523 729.414 117.346 729.414C 117.149 729.414 117.098 729.586 117.098 729.939L117.098 729.939L117.098 730.078zM113.73 729.053L114.512 729.053L114.776 730.729L114.785 730.729L115.032 729.053L115.802 729.053L116.294 731.326L115.638 731.326L115.398 729.649L115.39 729.649L115.151 731.326L114.419 731.326L114.163 729.649L114.155 729.649L113.936 731.326L113.255 731.326zM110.76 729.053L111.441 729.053L111.441 729.053L111.441 730.343C 111.441 730.641 111.618 730.754 111.891 730.754C 111.958 730.754 112.013 730.75 112.08 730.738L112.08 730.738L112.08 731.377L112.08 731.377L111.971 731.385C 111.685 731.385 111.513 731.209 111.425 731.006L111.425 731.006L111.416 731.006L111.416 731.006L111.416 731.326L111.416 731.326L110.76 731.326zM109.345 730.473C 109.345 730.78 109.383 730.964 109.606 730.964C 109.795 730.964 109.837 730.792 109.837 730.473zM110.493 730.078C 110.493 730.851 110.434 731.385 109.589 731.385C 108.849 731.385 108.664 730.91 108.664 730.271C 108.664 729.595 108.732 728.994 109.589 728.994C 110.152 728.994 110.459 729.267 110.472 729.83L110.472 729.83L109.841 729.83C 109.824 729.544 109.77 729.414 109.593 729.414C 109.396 729.414 109.345 729.586 109.345 729.939L109.345 729.939L109.345 730.078zM106.611 729.053L107.292 729.053L107.292 729.67L107.468 729.91L107.892 729.053L108.636 729.053L107.905 730.41L108.556 731.326L107.808 731.326L107.3 730.511L107.292 730.511L107.292 732.053L106.611 732.053zM105.091 729.754C 105.091 729.88 105.124 729.952 105.196 730.007C 105.259 730.057 105.351 730.061 105.565 730.175C 105.565 730.082 105.561 729.964 105.561 729.775C 105.561 729.548 105.431 729.464 105.288 729.464C 105.162 729.464 105.091 729.574 105.091 729.754M105.103 730.628C 105.108 730.826 105.162 730.939 105.351 730.939C 105.502 730.939 105.565 730.851 105.565 730.712C 105.565 730.54 105.528 730.507 105.322 730.452C 105.133 730.402 104.88 730.36 104.712 730.267C 104.544 730.175 104.435 729.952 104.435 729.687C 104.435 729.196 104.658 728.994 105.04 728.994C 105.267 728.994 105.481 729.112 105.574 729.313L105.574 729.313L105.582 729.313C 105.586 729.225 105.595 729.133 105.62 729.053L105.62 729.053L106.276 729.053C 106.196 729.154 106.196 729.372 106.196 729.544L106.196 729.544L106.196 730.712C 106.196 731.192 105.948 731.385 105.389 731.385C 105.108 731.385 104.914 731.347 104.754 731.238C 104.595 731.129 104.502 730.939 104.498 730.628zM101.188 729.053L101.869 729.053L101.869 729.053L101.869 730.54C 101.869 730.763 101.983 730.864 102.113 730.864C 102.239 730.864 102.31 730.767 102.31 730.603L102.31 730.603L102.31 729.053L102.31 729.053L102.991 729.053L102.991 729.053L102.991 730.54C 102.991 730.763 103.105 730.864 103.235 730.864C 103.361 730.864 103.432 730.767 103.432 730.603L103.432 730.603L103.432 729.053L103.432 729.053L104.113 729.053L104.113 729.053L104.113 730.754C 104.113 731.192 103.908 731.385 103.521 731.385C 103.269 731.385 103.117 731.301 102.958 731.036C 102.857 731.347 102.596 731.385 102.398 731.385C 102.146 731.385 101.949 731.259 101.852 731.057L101.852 731.057L101.844 731.057L101.844 731.057L101.844 731.326L101.844 731.326L101.188 731.326zM99.753 730.473C 99.753 730.78 99.79 730.964 100.013 730.964C 100.202 730.964 100.244 730.792 100.244 730.473zM100.9 730.078C 100.9 730.851 100.841 731.385 99.996 731.385C 99.256 731.385 99.072 730.91 99.072 730.271C 99.072 729.595 99.139 728.994 99.996 728.994C 100.559 728.994 100.866 729.267 100.879 729.83L100.879 729.83L100.248 729.83C 100.231 729.544 100.177 729.414 100 729.414C 99.803 729.414 99.753 729.586 99.753 729.939L99.753 729.939L99.753 730.078zM98.875 730.469C 98.875 731.011 98.69 731.385 97.976 731.385C 97.236 731.385 97.051 730.91 97.051 730.271C 97.051 729.595 97.119 728.994 97.976 728.994C 98.593 728.994 98.871 729.275 98.875 729.977L98.875 729.977L98.245 729.977C 98.236 729.578 98.19 729.439 97.989 729.439C 97.762 729.439 97.732 729.674 97.732 730.187C 97.732 730.654 97.762 730.939 97.989 730.939C 98.169 730.939 98.245 730.801 98.245 730.469zM95.606 729.754C 95.606 729.88 95.641 729.952 95.712 730.007C 95.775 730.057 95.867 730.061 96.082 730.175C 96.082 730.082 96.077 729.964 96.077 729.775C 96.077 729.548 95.947 729.464 95.804 729.464C 95.678 729.464 95.606 729.574 95.606 729.754M95.62 730.628C 95.624 730.826 95.678 730.939 95.867 730.939C 96.019 730.939 96.082 730.851 96.082 730.712C 96.082 730.54 96.044 730.507 95.838 730.452C 95.649 730.402 95.396 730.36 95.228 730.267C 95.06 730.175 94.951 729.952 94.951 729.687C 94.951 729.196 95.174 728.994 95.556 728.994C 95.783 728.994 95.998 729.112 96.09 729.313L96.09 729.313L96.099 729.313C 96.103 729.225 96.111 729.133 96.136 729.053L96.136 729.053L96.792 729.053C 96.712 729.154 96.712 729.372 96.712 729.544L96.712 729.544L96.712 730.712C 96.712 731.192 96.464 731.385 95.905 731.385C 95.624 731.385 95.43 731.347 95.27 731.238C 95.111 731.129 95.018 730.939 95.014 730.628zM93.515 730.204C 93.515 730.645 93.557 730.889 93.759 730.889C 94.015 730.889 94.024 730.54 94.024 730.175C 94.024 729.763 94.011 729.49 93.763 729.49C 93.532 729.49 93.515 729.8 93.515 730.204M92.847 728.313L93.528 728.313L93.528 728.313L93.528 729.301L93.528 729.301L93.536 729.301C 93.65 729.057 93.856 728.994 94.045 728.994C 94.604 728.994 94.705 729.502 94.705 730.208C 94.705 731.057 94.46 731.385 94.003 731.385C 93.7 731.385 93.562 731.204 93.511 731.048L93.511 731.048L93.503 731.048L93.503 731.048L93.503 731.326L93.503 731.326L92.847 731.326z" stroke="none" fill="#221E1F" fill-rule="nonzero" /><path id="139" transform="matrix(1 0 0 -1 0 842)" d="M135.268 725.668C 135.268 725.336 135.134 725.13 134.861 725.13C 134.672 725.13 134.579 725.282 134.579 725.471C 134.579 725.639 134.634 725.773 134.764 725.837C 134.898 725.9 135.15 725.954 135.268 726.047M135.696 726.618C 135.696 727.017 135.377 727.173 134.978 727.173C 134.381 727.173 134.184 726.908 134.184 726.429L134.184 726.429L134.613 726.429C 134.613 726.647 134.655 726.861 134.957 726.861C 135.197 726.861 135.268 726.731 135.268 726.525C 135.268 726.328 135.167 726.282 135.003 726.236L135.003 726.236L134.651 726.139C 134.343 726.038 134.125 725.933 134.125 725.429C 134.125 724.996 134.352 724.794 134.714 724.794C 134.978 724.794 135.155 724.903 135.276 725.126L135.276 725.126L135.285 725.126C 135.297 724.908 135.465 724.828 135.667 724.828C 135.756 724.828 135.836 724.857 135.89 724.883L135.89 724.883L135.89 725.177L135.89 725.177L135.815 725.164C 135.747 725.164 135.696 725.24 135.696 725.324zM131.782 726.009C 131.782 726.492 131.853 726.811 132.164 726.811C 132.48 726.811 132.547 726.488 132.547 725.975C 132.547 725.349 132.429 725.156 132.169 725.156C 131.849 725.156 131.782 725.466 131.782 726.009M131.354 724.113L131.807 724.113L131.807 724.113L131.807 725.118L131.807 725.118L131.816 725.118C 131.9 724.916 132.084 724.794 132.329 724.794C 132.639 724.794 133.026 725.004 133.026 725.954C 133.026 726.731 132.816 727.173 132.299 727.173C 132.051 727.173 131.883 727.038 131.79 726.836L131.79 726.836L131.782 726.836L131.782 726.836L131.782 727.114L131.782 727.114L131.354 727.114zM129.816 726.236L129.816 726.282C 129.816 726.576 129.905 726.861 130.194 726.861C 130.451 726.861 130.544 726.643 130.544 726.357L130.544 726.357L130.544 726.236zM130.997 725.925L130.997 726.164C 130.997 726.794 130.829 727.173 130.199 727.173C 129.489 727.173 129.363 726.542 129.363 725.95C 129.363 724.903 129.821 724.794 130.19 724.794C 130.682 724.794 130.985 725.109 130.985 725.609L130.985 725.609L130.556 725.609C 130.556 725.475 130.518 725.105 130.194 725.105C 129.854 725.105 129.816 725.492 129.816 725.794L129.816 725.794L129.816 725.925zM127.894 726.236L127.894 726.282C 127.894 726.576 127.983 726.861 128.272 726.861C 128.529 726.861 128.622 726.643 128.622 726.357L128.622 726.357L128.622 726.236zM129.075 725.925L129.075 726.164C 129.075 726.794 128.907 727.173 128.277 727.173C 127.567 727.173 127.441 726.542 127.441 725.95C 127.441 724.903 127.899 724.794 128.268 724.794C 128.76 724.794 129.063 725.109 129.063 725.609L129.063 725.609L128.634 725.609C 128.634 725.475 128.597 725.105 128.272 725.105C 127.932 725.105 127.894 725.492 127.894 725.794L127.894 725.794L127.894 725.925zM125.618 724.853L126.072 724.853L126.072 725.571L126.328 725.883L126.883 724.853L127.379 724.853L126.61 726.244L127.291 727.118L126.765 727.114L126.081 726.168L126.072 726.168L126.072 727.853L125.618 727.853zM124.393 726.454L124.393 726.555C 124.393 726.836 124.262 727.173 123.687 727.173C 123.22 727.173 122.913 726.975 122.913 726.551C 122.913 726.189 123.056 726.017 123.397 725.9L123.397 725.9L123.766 725.769C 123.926 725.714 124.014 725.605 124.014 725.437C 124.014 725.231 123.892 725.105 123.645 725.105C 123.384 725.105 123.292 725.248 123.292 725.508L123.292 725.508L123.292 725.58L123.292 725.58L122.888 725.58L122.888 725.58L122.888 725.496C 122.888 725.059 123.06 724.794 123.632 724.794C 124.09 724.794 124.443 725 124.443 725.483C 124.443 725.841 124.288 726.021 123.951 726.135L123.951 726.135L123.661 726.236C 123.422 726.32 123.342 726.391 123.342 726.567C 123.342 726.777 123.485 726.861 123.666 726.861C 123.901 726.861 123.964 726.693 123.964 726.513L123.964 726.513L123.964 726.454zM121.62 724.853L122.073 724.853L122.073 724.853L122.073 726.206C 122.073 726.626 122.321 726.719 122.527 726.719C 122.602 726.719 122.683 726.702 122.716 726.693L122.716 726.693L122.716 727.156L122.716 727.156L122.607 727.173C 122.35 727.173 122.182 727.013 122.082 726.761L122.082 726.761L122.073 726.761L122.073 726.761L122.073 727.114L122.073 727.114L121.62 727.114zM120.082 726.236L120.082 726.282C 120.082 726.576 120.17 726.861 120.46 726.861C 120.717 726.861 120.809 726.643 120.809 726.357L120.809 726.357L120.809 726.236zM121.263 725.925L121.263 726.164C 121.263 726.794 121.095 727.173 120.464 727.173C 119.755 727.173 119.629 726.542 119.629 725.95C 119.629 724.903 120.086 724.794 120.456 724.794C 120.948 724.794 121.25 725.109 121.25 725.609L121.25 725.609L120.822 725.609C 120.822 725.475 120.784 725.105 120.46 725.105C 120.12 725.105 120.082 725.492 120.082 725.794L120.082 725.794L120.082 725.925zM118.368 724.853L118.822 724.853L118.822 724.853L118.822 726.206C 118.822 726.626 119.07 726.719 119.276 726.719C 119.351 726.719 119.431 726.702 119.465 726.693L119.465 726.693L119.465 727.156L119.465 727.156L119.356 727.173C 119.099 727.173 118.931 727.013 118.83 726.761L118.83 726.761L118.822 726.761L118.822 726.761L118.822 727.114L118.822 727.114L118.368 727.114zM117.481 725.668C 117.481 725.336 117.347 725.13 117.074 725.13C 116.885 725.13 116.792 725.282 116.792 725.471C 116.792 725.639 116.847 725.773 116.977 725.837C 117.112 725.9 117.364 725.954 117.481 726.047zM117.91 726.618C 117.91 727.017 117.591 727.173 117.191 727.173C 116.595 727.173 116.397 726.908 116.397 726.429L116.397 726.429L116.826 726.429C 116.826 726.647 116.868 726.861 117.17 726.861C 117.41 726.861 117.481 726.731 117.481 726.525C 117.481 726.328 117.38 726.282 117.217 726.236L117.217 726.236L116.864 726.139C 116.557 726.038 116.338 725.933 116.338 725.429C 116.338 724.996 116.566 724.794 116.927 724.794C 117.191 724.794 117.368 724.903 117.49 725.126L117.49 725.126L117.499 725.126C 117.511 724.908 117.679 724.828 117.881 724.828C 117.969 724.828 118.049 724.857 118.103 724.883L118.103 724.883L118.103 725.177L118.103 725.177L118.028 725.164C 117.961 725.164 117.91 725.24 117.91 725.324zM114.89 726.236L114.89 726.282C 114.89 726.576 114.978 726.861 115.268 726.861C 115.524 726.861 115.617 726.643 115.617 726.357L115.617 726.357L115.617 726.236zM116.071 725.925L116.071 726.164C 116.071 726.794 115.903 727.173 115.272 727.173C 114.562 727.173 114.436 726.542 114.436 725.95C 114.436 724.903 114.894 724.794 115.264 724.794C 115.756 724.794 116.058 725.109 116.058 725.609L116.058 725.609L115.63 725.609C 115.63 725.475 115.592 725.105 115.268 725.105C 114.928 725.105 114.89 725.492 114.89 725.794L114.89 725.794L114.89 725.925zM112.036 724.853L112.566 724.853L112.889 726.609L112.898 726.609L113.25 724.853L113.759 724.853L114.276 727.114L113.822 727.114L113.511 725.332L113.502 725.332L113.166 727.114L112.654 727.114L112.317 725.332L112.309 725.332L111.994 727.114L111.524 727.114zM109.516 724.853L109.97 724.853L109.97 724.853L109.97 726.206C 109.97 726.626 110.217 726.719 110.424 726.719C 110.499 726.719 110.579 726.702 110.613 726.693L110.613 726.693L110.613 727.156L110.613 727.156L110.504 727.173C 110.247 727.173 110.079 727.013 109.978 726.761L109.978 726.761L109.97 726.761L109.97 726.761L109.97 727.114L109.97 727.114L109.516 727.114zM107.979 726.236L107.979 726.282C 107.979 726.576 108.067 726.861 108.357 726.861C 108.614 726.861 108.706 726.643 108.706 726.357L108.706 726.357L108.706 726.236zM109.16 725.925L109.16 726.164C 109.16 726.794 108.992 727.173 108.361 727.173C 107.651 727.173 107.525 726.542 107.525 725.95C 107.525 724.903 107.983 724.794 108.353 724.794C 108.845 724.794 109.147 725.109 109.147 725.609L109.147 725.609L108.719 725.609C 108.719 725.475 108.681 725.105 108.357 725.105C 108.017 725.105 107.979 725.492 107.979 725.794L107.979 725.794L107.979 725.925zM105.703 724.853L106.157 724.853L106.157 725.571L106.413 725.883L106.968 724.853L107.464 724.853L106.695 726.244L107.376 727.118L106.85 727.114L106.165 726.168L106.157 726.168L106.157 727.853L105.703 727.853zM104.817 725.668C 104.817 725.336 104.682 725.13 104.409 725.13C 104.22 725.13 104.127 725.282 104.127 725.471C 104.127 725.639 104.182 725.773 104.312 725.837C 104.446 725.9 104.699 725.954 104.817 726.047zM105.245 726.618C 105.245 727.017 104.926 727.173 104.526 727.173C 103.93 727.173 103.732 726.908 103.732 726.429L103.732 726.429L104.161 726.429C 104.161 726.647 104.203 726.861 104.505 726.861C 104.745 726.861 104.817 726.731 104.817 726.525C 104.817 726.328 104.716 726.282 104.551 726.236L104.551 726.236L104.199 726.139C 103.892 726.038 103.674 725.933 103.674 725.429C 103.674 724.996 103.9 724.794 104.262 724.794C 104.526 724.794 104.703 724.903 104.825 725.126L104.825 725.126L104.833 725.126C 104.846 724.908 105.014 724.828 105.216 724.828C 105.304 724.828 105.384 724.857 105.438 724.883L105.438 724.883L105.438 725.177L105.438 725.177L105.363 725.164C 105.295 725.164 105.245 725.24 105.245 725.324zM100.697 724.853L101.151 724.853L101.151 724.853L101.151 726.37C 101.151 726.664 101.328 726.811 101.508 726.811C 101.697 726.811 101.786 726.698 101.786 726.404L101.786 726.404L101.786 724.853L101.786 724.853L102.24 724.853L102.24 724.853L102.24 726.37C 102.24 726.664 102.416 726.811 102.601 726.811C 102.786 726.811 102.874 726.698 102.874 726.404L102.874 726.404L102.874 724.853L102.874 724.853L103.328 724.853L103.328 724.853L103.328 726.572C 103.328 727.009 103.097 727.173 102.777 727.173C 102.504 727.173 102.336 727.047 102.206 726.828C 102.139 727.017 102.004 727.173 101.68 727.173C 101.466 727.173 101.252 727.051 101.139 726.849L101.139 726.849L101.126 726.849L101.126 726.849L101.126 727.114L101.126 727.114L100.697 727.114zM99.149 726.236L99.149 726.282C 99.149 726.576 99.237 726.861 99.527 726.861C 99.784 726.861 99.876 726.643 99.876 726.357L99.876 726.357L99.876 726.236zM100.33 725.925L100.33 726.164C 100.33 726.794 100.162 727.173 99.53101 727.173C 98.821 727.173 98.695 726.542 98.695 725.95C 98.695 724.903 99.153 724.794 99.523 724.794C 100.015 724.794 100.317 725.109 100.317 725.609L100.317 725.609L99.889 725.609C 99.889 725.475 99.85101 725.105 99.527 725.105C 99.187 725.105 99.149 725.492 99.149 725.794L99.149 725.794L99.149 725.925zM98.00301 725.676C 98.00301 725.336 97.91 725.126 97.658 725.13C 97.331 725.13 97.272 725.483 97.272 725.984C 97.272 726.483 97.331 726.836 97.658 726.836C 97.923 726.845 97.982 726.572 97.982 726.362L97.982 726.362L98.436 726.362C 98.436 726.643 98.335 727.181 97.658 727.173C 97.00301 727.173 96.818 726.685 96.818 725.984C 96.818 725.282 97.00301 724.794 97.658 724.794C 98.218 724.794 98.402 725.135 98.432 725.676zM96.035 725.668C 96.035 725.336 95.901 725.13 95.627 725.13C 95.438 725.13 95.346 725.282 95.346 725.471C 95.346 725.639 95.4 725.773 95.53101 725.837C 95.665 725.9 95.918 725.954 96.035 726.047zM96.464 726.618C 96.464 727.017 96.144 727.173 95.745 727.173C 95.148 727.173 94.951 726.908 94.951 726.429L94.951 726.429L95.37901 726.429C 95.37901 726.647 95.42101 726.861 95.724 726.861C 95.964 726.861 96.035 726.731 96.035 726.525C 96.035 726.328 95.93401 726.282 95.771 726.236L95.771 726.236L95.417 726.139C 95.111 726.038 94.892 725.933 94.892 725.429C 94.892 724.996 95.119 724.794 95.48 724.794C 95.745 724.794 95.922 724.903 96.044 725.126L96.044 725.126L96.052 725.126C 96.065 724.908 96.233 724.828 96.43401 724.828C 96.522 724.828 96.60201 724.857 96.65701 724.883L96.65701 724.883L96.65701 725.177L96.65701 725.177L96.581 725.164C 96.514 725.164 96.464 725.24 96.464 725.324zM92.90601 724.853L93.385 724.853L93.385 724.853L93.385 726.093L93.385 726.093L93.805 726.093C 94.368 726.093 94.683 726.441 94.683 726.98C 94.683 727.492 94.431 727.853 93.855 727.853L93.855 727.853L92.90601 727.853zM93.385 727.492L93.692 727.492C 94.07401 727.492 94.205 727.295 94.205 726.971C 94.205 726.593 93.982 726.454 93.725 726.454L93.725 726.454L93.385 726.454z" stroke="none" fill="#221E1F" fill-rule="nonzero" /><path id="140" transform="matrix(1 0 0 -1 0 842)" d="M128.077 720.653L128.556 720.653L128.556 721.207L128.077 721.207zM126.027 720.653L126.481 720.653L126.481 720.653L126.481 722.17C 126.481 722.4641 126.657 722.611 126.842 722.611C 127.069 722.611 127.158 722.498 127.158 722.203L127.158 722.203L127.158 720.653L127.158 720.653L127.611 720.653L127.611 720.653L127.611 722.359C 127.611 722.817 127.393 722.973 127.048 722.973C 126.796 722.973 126.582 722.851 126.468 722.649L126.468 722.649L126.456 722.649L126.456 722.649L126.456 722.914L126.456 722.914L126.027 722.914zM125.148 723.233L125.602 723.233L125.602 723.687L125.148 723.687zM125.148 720.653L125.602 720.653L125.602 722.914L125.148 722.914zM122.077 720.653L122.531 720.653L122.531 720.653L122.531 722.17C 122.531 722.4641 122.707 722.611 122.888 722.611C 123.077 722.611 123.165 722.498 123.165 722.203L123.165 722.203L123.165 720.653L123.165 720.653L123.619 720.653L123.619 720.653L123.619 722.17C 123.619 722.4641 123.796 722.611 123.98 722.611C 124.165 722.611 124.253 722.498 124.253 722.203L124.253 722.203L124.253 720.653L124.253 720.653L124.707 720.653L124.707 720.653L124.707 722.372C 124.707 722.808 124.476 722.973 124.157 722.973C 123.884 722.973 123.716 722.847 123.585 722.6281C 123.518 722.817 123.383 722.973 123.06 722.973C 122.846 722.973 122.632 722.851 122.518 722.649L122.518 722.649L122.505 722.649L122.505 722.649L122.505 722.914L122.505 722.914L122.077 722.914zM120.187 720.653L120.641 720.653L120.641 720.653L120.641 722.577L120.641 722.577L121.01 722.577L121.01 722.577L121.01 722.914L121.01 722.914L120.641 722.914L120.641 722.914L120.641 723.111C 120.641 723.263 120.716 723.326 120.884 723.326L120.884 723.326L121.01 723.326L121.01 723.326L121.01 723.674C 120.943 723.683 120.859 723.687 120.763 723.687C 120.392 723.687 120.187 723.552 120.187 723.124L120.187 723.124L120.187 722.914L120.187 722.914L119.872 722.914L119.872 722.914L119.872 722.577L119.872 722.577L120.187 722.577zM118.486 721.7841C 118.486 722.283 118.544 722.636 118.873 722.636C 119.204 722.636 119.263 722.283 119.263 721.7841C 119.263 721.207 119.204 720.9301 118.873 720.9301C 118.544 720.9301 118.486 721.207 118.486 721.7841M118.032 721.7841C 118.032 721.082 118.246 720.5941 118.873 720.5941C 119.503 720.5941 119.717 721.082 119.717 721.7841C 119.717 722.485 119.532 722.973 118.873 722.973C 118.217 722.973 118.032 722.485 118.032 721.7841M115.726 722.036L115.726 722.082C 115.726 722.376 115.814 722.661 116.105 722.661C 116.361 722.661 116.453 722.4431 116.453 722.157L116.453 722.157L116.453 722.036zM116.907 721.725L116.907 721.9641C 116.907 722.5941 116.739 722.973 116.109 722.973C 115.398 722.973 115.272 722.342 115.272 721.75C 115.272 720.703 115.73 720.5941 116.1 720.5941C 116.592 720.5941 116.894 720.9091 116.894 721.4091L116.894 721.4091L116.466 721.4091C 116.466 721.275 116.428 720.905 116.105 720.905C 115.764 720.905 115.726 721.2921 115.726 721.5941L115.726 721.5941L115.726 721.725zM114.581 721.476C 114.581 721.136 114.488 720.926 114.236 720.9301C 113.908 720.9301 113.849 721.283 113.849 721.7841C 113.849 722.283 113.908 722.636 114.236 722.636C 114.501 722.645 114.56 722.372 114.56 722.162L114.56 722.162L115.013 722.162C 115.013 722.4431 114.912 722.981 114.236 722.973C 113.58 722.973 113.396 722.485 113.396 721.7841C 113.396 721.082 113.58 720.5941 114.236 720.5941C 114.795 720.5941 114.98 720.934 115.009 721.476zM111.474 720.653L111.927 720.653L111.927 720.653L111.927 722.17C 111.927 722.4641 112.104 722.611 112.289 722.611C 112.515 722.611 112.604 722.498 112.604 722.203L112.604 722.203L112.604 720.653L112.604 720.653L113.058 720.653L113.058 720.653L113.058 722.359C 113.058 722.817 112.839 722.973 112.494 722.973C 112.242 722.973 112.028 722.851 111.915 722.649L111.915 722.649L111.902 722.649L111.902 722.649L111.902 722.914L111.902 722.914L111.474 722.914zM110.587 721.468C 110.587 721.136 110.453 720.9301 110.179 720.9301C 109.99 720.9301 109.898 721.082 109.898 721.27C 109.898 721.439 109.953 721.573 110.083 721.636C 110.217 721.7 110.469 721.754 110.587 721.847zM111.015 722.418C 111.015 722.817 110.696 722.973 110.297 722.973C 109.7 722.973 109.503 722.707 109.503 722.229L109.503 722.229L109.932 722.229C 109.932 722.447 109.974 722.661 110.276 722.661C 110.516 722.661 110.587 722.531 110.587 722.325C 110.587 722.1281 110.486 722.082 110.322 722.036L110.322 722.036L109.969 721.939C 109.662 721.838 109.444 721.733 109.444 721.228C 109.444 720.796 109.671 720.5941 110.032 720.5941C 110.297 720.5941 110.473 720.703 110.595 720.926L110.595 720.926L110.604 720.926C 110.616 720.708 110.784 720.6281 110.986 720.6281C 111.075 720.6281 111.155 720.657 111.209 720.682L111.209 720.682L111.209 720.976L111.209 720.976L111.134 720.9641C 111.066 720.9641 111.015 721.039 111.015 721.124zM108.118 722.577L108.429 722.577L108.429 722.577L108.429 721.174C 108.429 720.712 108.58 720.6281 108.887 720.6281C 109.03 720.6281 109.156 720.64 109.252 720.666L109.252 720.666L109.252 721.002C 109.21 720.993 109.156 720.989 109.089 720.989C 108.933 720.989 108.883 721.052 108.883 721.228L108.883 721.228L108.883 722.577L108.883 722.577L109.252 722.577L109.252 722.577L109.252 722.914L109.252 722.914L108.883 722.914L108.883 722.914L108.883 723.557L108.883 723.557L108.429 723.557L108.429 723.557L108.429 722.914L108.429 722.914L108.118 722.914zM107.908 722.254L107.908 722.355C 107.908 722.636 107.778 722.973 107.202 722.973C 106.736 722.973 106.429 722.775 106.429 722.35C 106.429 721.989 106.572 721.817 106.912 721.7L106.912 721.7L107.282 721.569C 107.442 721.514 107.53 721.405 107.53 721.237C 107.53 721.031 107.408 720.905 107.16 720.905C 106.9 720.905 106.807 721.048 106.807 721.308L106.807 721.308L106.807 721.38L106.807 721.38L106.404 721.38L106.404 721.38L106.404 721.296C 106.404 720.859 106.576 720.5941 107.148 720.5941C 107.606 720.5941 107.959 720.8 107.959 721.283C 107.959 721.64 107.803 721.821 107.467 721.9351L107.467 721.9351L107.177 722.036C 106.938 722.119 106.858 722.191 106.858 722.367C 106.858 722.577 107.001 722.661 107.181 722.661C 107.416 722.661 107.479 722.493 107.479 722.313L107.479 722.313L107.479 722.254zM105.61 723.233L106.064 723.233L106.064 723.687L105.61 723.687zM105.61 720.653L106.064 720.653L106.064 722.914L105.61 722.914zM104.752 721.7581C 104.752 721.275 104.681 720.9561 104.37 720.9561C 104.055 720.9561 103.988 721.2791 103.988 721.7921C 103.988 722.401 104.08 722.611 104.341 722.611C 104.689 722.611 104.752 722.3 104.752 721.7581M104.752 720.653L105.181 720.653L105.181 720.653L105.181 723.653L105.181 723.653L104.727 723.653L104.727 723.653L104.727 722.649L104.727 722.649L104.719 722.649C 104.635 722.851 104.45 722.973 104.206 722.973C 103.862 722.973 103.509 722.817 103.509 721.813C 103.509 721.035 103.719 720.5941 104.248 720.5941C 104.572 720.5941 104.685 720.783 104.745 720.9301L104.745 720.9301L104.752 720.9301zM100.782 722.914L101.426 720.603L101.426 720.603L101.367 720.4171C 101.317 720.275 101.216 720.241 101.06 720.241L101.06 720.241L100.913 720.2581L100.913 720.2581L100.913 719.897C 100.972 719.888 101.035 719.88 101.094 719.88C 101.56 719.871 101.707 719.951 101.884 720.5681L101.884 720.5681L102.506 722.914L102.506 722.914L102.031 722.914L102.031 722.914L101.669 721.216L101.669 721.216L101.661 721.216L101.661 721.216L101.27 722.914zM99.506 722.577L99.816 722.577L99.816 722.577L99.816 721.174C 99.816 720.712 99.968 720.6281 100.274 720.6281C 100.417 720.6281 100.544 720.64 100.64 720.666L100.64 720.666L100.64 721.002C 100.598 720.993 100.544 720.989 100.476 720.989C 100.32 720.989 100.27 721.052 100.27 721.228L100.27 721.228L100.27 722.577L100.27 722.577L100.64 722.577L100.64 722.577L100.64 722.914L100.64 722.914L100.27 722.914L100.27 722.914L100.27 723.557L100.27 723.557L99.816 723.557L99.816 723.557L99.816 722.914L99.816 722.914L99.506 722.914zM98.149 722.036L98.149 722.082C 98.149 722.376 98.237 722.661 98.527 722.661C 98.784 722.661 98.876 722.4431 98.876 722.157L98.876 722.157L98.876 722.036zM99.33 721.725L99.33 721.9641C 99.33 722.5941 99.162 722.973 98.531 722.973C 97.821 722.973 97.695 722.342 97.695 721.75C 97.695 720.703 98.153 720.5941 98.52299 720.5941C 99.015 720.5941 99.317 720.9091 99.317 721.4091L99.317 721.4091L98.889 721.4091C 98.889 721.275 98.851 720.905 98.527 720.905C 98.187 720.905 98.149 721.2921 98.149 721.5941L98.149 721.5941L98.149 721.725zM96.736 720.653L97.19 720.653L97.19 720.653L97.19 722.577L97.19 722.577L97.56 722.577L97.56 722.577L97.56 722.914L97.56 722.914L97.19 722.914L97.19 722.914L97.19 723.111C 97.19 723.263 97.266 723.326 97.434 723.326L97.434 723.326L97.56 723.326L97.56 723.326L97.56 723.674C 97.492 723.683 97.408 723.687 97.312 723.687C 96.942 723.687 96.736 723.552 96.736 723.124L96.736 723.124L96.736 722.914L96.736 722.914L96.421 722.914L96.421 722.914L96.421 722.577L96.421 722.577L96.736 722.577zM95.725 721.468C 95.725 721.136 95.59 720.9301 95.317 720.9301C 95.128 720.9301 95.035 721.082 95.035 721.27C 95.035 721.439 95.09 721.573 95.22 721.636C 95.355 721.7 95.607 721.754 95.725 721.847zM96.153 722.418C 96.153 722.817 95.834 722.973 95.434 722.973C 94.838 722.973 94.641 722.707 94.641 722.229L94.641 722.229L95.069 722.229C 95.069 722.447 95.111 722.661 95.413 722.661C 95.653 722.661 95.725 722.531 95.725 722.325C 95.725 722.1281 95.624 722.082 95.46 722.036L95.46 722.036L95.107 721.939C 94.8 721.838 94.582 721.733 94.582 721.228C 94.582 720.796 94.809 720.5941 95.17 720.5941C 95.434 720.5941 95.611 720.703 95.733 720.926L95.733 720.926L95.742 720.926C 95.754 720.708 95.922 720.6281 96.124 720.6281C 96.212 720.6281 96.292 720.657 96.346 720.682L96.346 720.682L96.346 720.976L96.346 720.976L96.271 720.9641C 96.204 720.9641 96.153 721.039 96.153 721.124zM94.28 722.254L94.28 722.355C 94.28 722.636 94.15 722.973 93.574 722.973C 93.108 722.973 92.801 722.775 92.801 722.35C 92.801 721.989 92.944 721.817 93.284 721.7L93.284 721.7L93.654 721.569C 93.814 721.514 93.902 721.405 93.902 721.237C 93.902 721.031 93.78 720.905 93.532 720.905C 93.271 720.905 93.179 721.048 93.179 721.308L93.179 721.308L93.179 721.38L93.179 721.38L92.776 721.38L92.776 721.38L92.776 721.296C 92.776 720.859 92.948 720.5941 93.519 720.5941C 93.978 720.5941 94.33 720.8 94.33 721.283C 94.33 721.64 94.175 721.821 93.839 721.9351L93.839 721.9351L93.549 722.036C 93.309 722.119 93.229 722.191 93.229 722.367C 93.229 722.577 93.372 722.661 93.553 722.661C 93.789 722.661 93.852 722.493 93.852 722.313L93.852 722.313L93.852 722.254z" stroke="none" fill="#221E1F" fill-rule="nonzero" /><path id="141" transform="matrix(1 0 0 -1 0 842)" d="M113.227 716.452L113.706 716.452L113.706 717.006L113.227 717.006zM112.219 715.679C 112.551 716.116 112.837 716.7971 112.837 717.566C 112.837 718.335 112.56 719.0161 112.227 719.453L112.227 719.453L111.904 719.453C 112.24 718.927 112.383 718.196 112.383 717.566C 112.383 716.8521 112.24 716.242 111.904 715.679zM110.192 716.452L110.646 716.452L110.646 716.452L110.646 717.9691C 110.646 718.263 110.823 718.41 111.007 718.41C 111.235 718.41 111.323 718.2971 111.323 718.0031L111.323 718.0031L111.323 716.452L111.323 716.452L111.777 716.452L111.777 716.452L111.777 718.158C 111.777 718.616 111.558 718.772 111.214 718.772C 110.961 718.772 110.747 718.65 110.634 718.4481L110.634 718.4481L110.621 718.4481L110.621 718.4481L110.621 718.713L110.621 718.713L110.192 718.713zM109.313 719.033L109.767 719.033L109.767 719.487L109.313 719.487zM109.313 716.452L109.767 716.452L109.767 718.713L109.313 718.713zM108.095 716.856L106.889 716.856C 107.117 717.582 108.083 717.645 108.083 718.6331C 108.083 719.066 107.852 719.427 107.243 719.427C 106.608 719.427 106.364 719.062 106.364 718.4691L106.364 718.4691L106.818 718.4691C 106.818 718.772 106.877 719.091 107.234 719.091C 107.499 719.091 107.604 718.885 107.604 718.642C 107.604 717.717 106.356 717.746 106.356 716.452L106.356 716.452L108.095 716.452zM105.745 716.452L105.745 719.427L105.745 719.427L105.396 719.427L105.396 719.427L105.396 719.369C 105.312 718.991 104.98 718.923 104.695 718.923L104.695 718.923L104.648 718.923L104.648 718.923L104.648 718.612L104.648 718.612L105.266 718.612L105.266 718.612L105.266 716.452zM104.135 719.453C 103.804 719.0161 103.517 718.335 103.517 717.566C 103.517 716.7971 103.795 716.116 104.127 715.679L104.127 715.679L104.45 715.679C 104.114 716.204 103.972 716.936 103.972 717.566C 103.972 718.28 104.114 718.889 104.45 719.453zM99.653 716.452L100.108 716.452L100.108 716.452L100.108 717.9691C 100.108 718.263 100.284 718.41 100.465 718.41C 100.654 718.41 100.742 718.2971 100.742 718.0031L100.742 718.0031L100.742 716.452L100.742 716.452L101.196 716.452L101.196 716.452L101.196 717.9691C 101.196 718.263 101.372 718.41 101.557 718.41C 101.742 718.41 101.83 718.2971 101.83 718.0031L101.83 718.0031L101.83 716.452L101.83 716.452L102.284 716.452L102.284 716.452L102.284 718.171C 102.284 718.608 102.053 718.772 101.733 718.772C 101.46 718.772 101.292 718.6461 101.162 718.427C 101.095 718.616 100.96 718.772 100.637 718.772C 100.423 718.772 100.208 718.65 100.095 718.4481L100.095 718.4481L100.082 718.4481L100.082 718.4481L100.082 718.713L100.082 718.713L99.653 718.713zM98.891 717.276C 98.891 716.936 98.799 716.726 98.547 716.73C 98.219 716.73 98.16 717.083 98.16 717.582C 98.16 718.083 98.219 718.436 98.547 718.436C 98.812 718.444 98.87 718.171 98.87 717.9611L98.87 717.9611L99.32401 717.9611C 99.32401 718.242 99.223 718.78 98.547 718.772C 97.891 718.772 97.706 718.2841 97.706 717.582C 97.706 716.881 97.891 716.393 98.547 716.393C 99.106 716.393 99.29 716.734 99.32 717.276zM94.83801 717.911C 94.83801 716.755 95.15701 716.393 95.729 716.393C 96.3 716.393 96.62 716.755 96.62 717.911C 96.62 719.066 96.3 719.427 95.729 719.427C 95.15701 719.427 94.83801 719.066 94.83801 717.911M95.316 717.911C 95.316 718.776 95.4 719.091 95.729 719.091C 96.056 719.091 96.14 718.776 96.14 717.911C 96.14 717.045 96.056 716.73 95.729 716.73C 95.4 716.73 95.316 717.045 95.316 717.911M92.788 717.28C 92.788 716.658 93.099 716.393 93.637 716.393C 94.25 716.393 94.545 716.726 94.545 717.314C 94.545 717.729 94.30901 717.978 94.002 718.0031L94.002 718.0031L94.002 718.0161C 94.29601 718.062 94.47701 718.36 94.47701 718.6671C 94.47701 719.264 94.036 719.427 93.679 719.427C 93.111 719.427 92.822 719.125 92.822 718.57L92.822 718.57L93.275 718.57C 93.275 718.8391 93.36 719.091 93.654 719.091C 93.902 719.091 93.998 718.877 93.998 718.662C 93.998 718.373 93.889 718.1541 93.57 718.1541L93.57 718.1541L93.398 718.1541L93.398 718.1541L93.398 717.8181L93.398 717.8181L93.582 717.8181C 93.944 717.8181 94.065 717.629 94.065 717.263C 94.065 716.9691 93.94801 716.73 93.65 716.73C 93.326 716.73 93.242 717.02 93.242 717.28z" stroke="none" fill="#221E1F" fill-rule="nonzero" /><path id="142" transform="matrix(1 0 0 -1 0 842)" d="M66.3 755.421C 64.936 755.421 63.665 754.687 62.983 753.506L62.983 753.506L47.065 725.934C 46.382 724.7531 46.382 723.285 47.065 722.105C 47.746 720.923 49.01801 720.189 50.382 720.189L50.382 720.189L82.218 720.189C 83.582 720.189 84.854 720.923 85.535 722.105C 86.218 723.285 86.218 724.7531 85.535 725.934L85.535 725.934L69.617 753.506C 68.93501 754.687 67.664 755.421 66.3 755.421" stroke="none" fill="#F4C832" fill-rule="nonzero" /><path id="143" transform="matrix(1 0 0 -1 0 842)" d="M66.3 753.558C 66.984 753.558 67.616 753.193 67.958 752.6L67.958 752.6L83.877 725.029C 84.219 724.436 84.219 723.706 83.877 723.114C 83.535 722.521 82.903 722.156 82.218 722.156L82.218 722.156L50.382 722.156C 49.69801 722.156 49.065 722.521 48.723 723.114C 48.381 723.706 48.381 724.436 48.723 725.029L48.723 725.029L64.64201 752.6C 64.984 753.193 65.616 753.558 66.3 753.558" stroke="none" fill="#221E1F" fill-rule="nonzero" /><path id="144" transform="matrix(1 0 0 -1 0 842)" d="M82.219 724.02L50.382 724.02L66.301 751.592" stroke="none" fill="#F4C832" fill-rule="nonzero" /></g></g></g></g><g clip-path="url(#14)"><g clip-path="url(#15)"><g transform="matrix(0.4799375 0 0 0.4700488 47.154 85.03406)"><g transform="matrix(1 0 0 1 0 0)"><image x="0" y="0" xlink:href="img_307.png" width="80" height="41" /></g></g></g></g><g clip-path="url(#16)"><g clip-path="url(#17)"><g transform="matrix(0.4799375 0 0 0.4700488 47.154 104.114)"><g transform="matrix(1 0 0 1 0 0)"><image x="0" y="0" xlink:href="img_308.png" width="80" height="41" /></g></g></g></g><g clip-path="url(#18)"><g clip-path="url(#19)"><g transform="matrix(0.4755 0 0 0.4692632 53.558 86.474)"><g transform="matrix(1 0 0 1 0 0)"><image x="0" y="0" xlink:href="img_309.png" width="54" height="38" /></g></g></g></g><g clip-path="url(#20)"><g clip-path="url(#21)"><g transform="matrix(0.4799375 0 0 0.4692632 47.154 104.114)"><g transform="matrix(1 0 0 1 0 0)"><image x="0" y="0" xlink:href="img_310.png" width="80" height="38" /></g></g></g></g><g clip-path="url(#22)"><g clip-path="url(#23)"><g transform="matrix(0.4799318 0 0 0.4662353 55.771 88.33398)"><g transform="matrix(1 0 0 1 0 0)"><image x="0" y="0" xlink:href="img_311.png" width="44" height="34" /></g></g></g></g><g clip-path="url(#24)"><g clip-path="url(#25)"><g transform="matrix(0.4767763 0 0 0.468 48.294 104.054)"><g transform="matrix(1 0 0 1 0 0)"><image x="0" y="0" xlink:href="img_312.png" width="76" height="34" /></g></g></g></g><g clip-path="url(#26)"><g clip-path="url(#27)"><g transform="matrix(0.4801045 0 0 0.4771035 50.334 90.37402)"><g transform="matrix(1 0 0 1 0 0)"><image x="0" y="0" xlink:href="img_313.png" width="67" height="58" /></g></g></g></g><g clip-path="url(#28)"><g clip-path="url(#29)"><g transform="matrix(0.48 0 0 0.4606 152.214 88.45441)"><g transform="matrix(1 0 0 1 0 0)"><image x="0" y="0" xlink:href="img_314.png" width="21" height="21" /></g></g></g></g><g clip-path="url(#30)"><g clip-path="url(#31)"><g transform="matrix(0.4695652 0 0 0.47132 173.803 88.45398)"><g transform="matrix(1 0 0 1 0 0)"><image x="0" y="0" xlink:href="img_315.png" width="23" height="25" /></g></g></g></g><g clip-path="url(#32)"><g clip-path="url(#33)"><g transform="matrix(0.4696087 0 0 0.4754429 152.214 110.5817)"><g transform="matrix(1 0 0 1 0 0)"><image x="0" y="0" xlink:href="img_316.png" width="23" height="21" /></g></g></g></g><g clip-path="url(#34)"><g clip-path="url(#35)"><g transform="matrix(0.48 0 0 0.4643846 173.022 108.492)"><g transform="matrix(1 0 0 1 0 0)"><image x="0" y="0" xlink:href="img_317.png" width="24" height="26" /></g></g></g></g><g clip-path="url(#36)"><g clip-path="url(#37)"><g transform="matrix(0.4800294 0 0 0.4732941 152.214 88.45404)"><g transform="matrix(1 0 0 1 0 0)"><image x="0" y="0" xlink:href="img_318.png" width="34" height="34" /></g></g></g></g><g clip-path="url(#38)"><g clip-path="url(#39)"><g transform="matrix(0.4799706 0 0 0.4732941 168.294 88.45404)"><g transform="matrix(1 0 0 1 0 0)"><image x="0" y="0" xlink:href="img_319.png" width="34" height="34" /></g></g></g></g><g clip-path="url(#40)"><g clip-path="url(#41)"><g transform="matrix(0.4800294 0 0 0.4750588 152.214 104.414)"><g transform="matrix(1 0 0 1 0 0)"><image x="0" y="0" xlink:href="img_320.png" width="34" height="34" /></g></g></g></g><g clip-path="url(#42)"><g clip-path="url(#43)"><g transform="matrix(0.4799706 0 0 0.4750588 168.294 104.414)"><g transform="matrix(1 0 0 1 0 0)"><image x="0" y="0" xlink:href="img_321.png" width="34" height="34" /></g></g></g></g><g clip-path="url(#44)"><g clip-path="url(#45)"><g transform="matrix(0.4700417 0 0 0.4702174 152.214 88.45398)"><g transform="matrix(1 0 0 1 0 0)"><image x="0" y="0" xlink:href="img_322.png" width="24" height="23" /></g></g></g></g><g clip-path="url(#46)"><g clip-path="url(#47)"><g transform="matrix(0.48 0 0 0.4766207 172.545 88.45398)"><g transform="matrix(1 0 0 1 0 0)"><image x="0" y="0" xlink:href="img_323.png" width="25" height="29" /></g></g></g></g><g clip-path="url(#48)"><g clip-path="url(#49)"><g transform="matrix(0.4800385 0 0 0.4655833 152.214 109.392)"><g transform="matrix(1 0 0 1 0 0)"><image x="0" y="0" xlink:href="img_324.png" width="26" height="24" /></g></g></g></g><g clip-path="url(#50)"><g clip-path="url(#51)"><g transform="matrix(0.4799629 0 0 0.4706667 171.533 106.446)"><g transform="matrix(1 0 0 1 0 0)"><image x="0" y="0" xlink:href="img_325.png" width="27" height="30" /></g></g></g></g><g clip-path="url(#52)"><g transform="matrix(0.4800417 0 0 0.4658182 156.774 94.69397)"><g transform="matrix(1 0 0 1 0 0)"><image x="0" y="0" xlink:href="img_326.png" width="24" height="33" /></g></g></g><g clip-path="url(#53)"><g transform="matrix(0.48 0 0 0.4658182 168.174 94.69397)"><g transform="matrix(1 0 0 1 0 0)"><image x="0" y="0" xlink:href="img_327.png" width="24" height="33" /></g></g></g><g clip-path="url(#54)"><g clip-path="url(#55)"><g clip-path="url(#56)"><g clip-path="url(#57)"><path id="166" transform="matrix(1 0 0 -1 0 842)" d="M155.484 748.412L178.046 725.732L180.047 727.722L157.484 750.402" stroke="none" fill="#B71F2E" fill-rule="nonzero" /><path id="167" transform="matrix(1 0 0 -1 0 842)" d="M195.377 715.876C 195.377 712.961 192.992 710.577 190.078 710.577L190.078 710.577L44.2 710.577C 41.285 710.577 38.89999 712.961 38.89999 715.876L38.89999 715.876L38.89999 759.703C 38.89999 762.618 41.285 765.003 44.2 765.003L44.2 765.003L190.078 765.003C 192.992 765.003 195.377 762.618 195.377 759.703L195.377 759.703L195.377 715.876z" stroke="#A5CF4C" stroke-width="0.155" fill="none" /><path id="168" transform="matrix(1 0 0 -1 0 842)" d="M232.797 244.551L-124.378 244.551L-124.378 244.551L-124.378 768.405L-124.378 768.405L232.797 768.405z" stroke="#00AEEF" stroke-width="0.151" fill="none" /></g></g></g></g></g></g></svg>