<svg xmlns="http://www.w3.org/2000/svg" xmlns:xlink="http://www.w3.org/1999/xlink" id="body_158" preserveAspectRatio="xMinYMin meet" viewBox="0 0 793 1123"><defs><clipPath id="1"><path id="" clip-rule="evenodd" transform="matrix(1 0 0 1 0 0)" d="M0 842L0 0L0 0L595 0L595 0L595 842L595 842L0 842z" /></clipPath><clipPath id="2"><path id="" clip-rule="evenodd" transform="matrix(1 0 0 1 0 0)" d="M225.96 87.53998L374.28 87.53998L374.28 87.53998L374.28 170.8199L374.28 170.8199L225.96 170.8199z" /></clipPath><clipPath id="3"><path id="" clip-rule="evenodd" transform="matrix(1 0 0 1 0 0)" d="M224.94 76.02002L375.3 76.02002L375.3 76.02002L375.3 171.84L375.3 171.84L224.94 171.84z" /></clipPath><clipPath id="4"><path id="" clip-rule="evenodd" transform="matrix(1 0 0 1 0 0)" d="M0 0.02001953L595.2 0.02001953L595.2 0.02001953L595.2 842L595.2 842L0 842z" /></clipPath><clipPath id="5"><path id="" clip-rule="evenodd" transform="matrix(1 0 0 1 0 0)" d="M224.94 76.02002L375.3 76.02002L375.3 76.02002L375.3 171.84L375.3 171.84L224.94 171.84z" /></clipPath><clipPath id="6"><path id="" clip-rule="evenodd" transform="matrix(1 0 0 1 0 0)" d="M0 0.02001953L595.2 0.02001953L595.2 0.02001953L595.2 842L595.2 842L0 842z" /></clipPath></defs><g transform="matrix(1.333333 0 0 1.333333 0 0)"><g clip-path="url(#1)"><path id="682" transform="matrix(1 0 0 -1 0 842)" d="M242.94 447.26L558 447.26L558 413.24L242.94 413.24" stroke="none" fill="#ECF5FC" fill-rule="nonzero" /><path id="716" transform="matrix(1 0 0 -1 0 842)" d="M224.94 151.34L558 151.34L558 131.3L224.94 131.3" stroke="none" fill="#ECF5FC" fill-rule="nonzero" /><g clip-path="url(#2)"><g clip-path="url(#3)"><g clip-path="url(#4)"><g transform="matrix(0.48 0 0 0.4786207 225.96 87.54004)"><g transform="matrix(1 0 0 1 0 0)"><image x="0" y="0" xlink:href="img_433.png" width="309" height="174" /></g></g></g></g></g><g clip-path="url(#5)"><g clip-path="url(#6)"><path id="737" transform="matrix(1 0 0 -1 0 842)" d="M238.74 755.6L281.22 755.6L281.22 764.96L238.74 764.96z" stroke="none" fill="#FFFFFF" fill-rule="nonzero" /><path id="743" transform="matrix(1 0 0 -1 0 842)" d="M320.1 755.42L363.24 755.42L363.24 764.96L320.1 764.96z" stroke="none" fill="#FFFFFF" fill-rule="nonzero" /></g></g></g></g></svg>