<svg xmlns="http://www.w3.org/2000/svg" xmlns:xlink="http://www.w3.org/1999/xlink" id="body_138" preserveAspectRatio="xMinYMin meet" viewBox="0 0 793 1123"><defs><clipPath id="1"><path id="" clip-rule="evenodd" transform="matrix(1 0 0 1 0 0)" d="M0 842L0 0L0 0L595 0L595 0L595 842L595 842L0 842z" /></clipPath><clipPath id="2"><path id="" clip-rule="evenodd" transform="matrix(1 0 0 1 0 0)" d="M225.96 77.03998L458.34 77.03998L458.34 77.03998L458.34 179.94L458.34 179.94L225.96 179.94z" /></clipPath><clipPath id="3"><path id="" clip-rule="evenodd" transform="matrix(1 0 0 1 0 0)" d="M224.94 76.02002L459.3 76.02002L459.3 76.02002L459.3 198.84L459.3 198.84L224.94 198.84z" /></clipPath><clipPath id="4"><path id="" clip-rule="evenodd" transform="matrix(1 0 0 1 0 0)" d="M0 0.02001953L595.2 0.02001953L595.2 0.02001953L595.2 842L595.2 842L0 842z" /></clipPath><clipPath id="5"><path id="" clip-rule="evenodd" transform="matrix(1 0 0 1 0 0)" d="M224.94 76.02002L459.3 76.02002L459.3 76.02002L459.3 198.84L459.3 198.84L224.94 198.84z" /></clipPath><clipPath id="6"><path id="" clip-rule="evenodd" transform="matrix(1 0 0 1 0 0)" d="M0 0.02001953L595.2 0.02001953L595.2 0.02001953L595.2 842L595.2 842L0 842z" /></clipPath><clipPath id="7"><path id="" clip-rule="evenodd" transform="matrix(1 0 0 1 0 0)" d="M124.56 242.88L202.98 242.88L202.98 242.88L202.98 257.28L202.98 257.28L124.56 257.28z" /></clipPath><clipPath id="8"><path id="" clip-rule="evenodd" transform="matrix(1 0 0 1 0 0)" d="M0 0.02001953L595.2 0.02001953L595.2 0.02001953L595.2 842L595.2 842L0 842z" /></clipPath><clipPath id="9"><path id="" clip-rule="evenodd" transform="matrix(1 0 0 1 0 0)" d="M125.16 242.94L199.86 242.94L199.86 242.94L199.86 256.98L199.86 256.98L125.16 256.98z" /></clipPath><clipPath id="10"><path id="" clip-rule="evenodd" transform="matrix(1 0 0 1 0 0)" d="M124.56 242.88L202.98 242.88L202.98 242.88L202.98 257.28L202.98 257.28L124.56 257.28z" /></clipPath><clipPath id="11"><path id="" clip-rule="evenodd" transform="matrix(1 0 0 1 0 0)" d="M0 0.02001953L595.2 0.02001953L595.2 0.02001953L595.2 842L595.2 842L0 842z" /></clipPath><clipPath id="12"><path id="" clip-rule="evenodd" transform="matrix(1 0 0 1 0 0)" d="M296.46 470.82L384.3 470.82L384.3 470.82L384.3 624.78L384.3 624.78L296.46 624.78z" /></clipPath><clipPath id="13"><path id="" clip-rule="evenodd" transform="matrix(1 0 0 1 0 0)" d="M224.94 469.8L537.9 469.8L537.9 469.8L537.9 625.8L537.9 625.8L224.94 625.8z" /></clipPath><clipPath id="14"><path id="" clip-rule="evenodd" transform="matrix(1 0 0 1 0 0)" d="M0 0.02001953L595.2 0.02001953L595.2 0.02001953L595.2 842L595.2 842L0 842z" /></clipPath><clipPath id="15"><path id="" clip-rule="evenodd" transform="matrix(1 0 0 1 0 0)" d="M224.94 469.8L537.9 469.8L537.9 469.8L537.9 625.8L537.9 625.8L224.94 625.8z" /></clipPath><clipPath id="16"><path id="" clip-rule="evenodd" transform="matrix(1 0 0 1 0 0)" d="M0 0.02001953L595.2 0.02001953L595.2 0.02001953L595.2 842L595.2 842L0 842z" /></clipPath></defs><g transform="matrix(1.333333 0 0 1.333333 0 0)"><g clip-path="url(#1)"><g clip-path="url(#2)"><g clip-path="url(#3)"><g clip-path="url(#4)"><g transform="matrix(0.4791341 0 0 0.4786046 225.96 77.03998)"><g transform="matrix(1 0 0 1 0 0)"><image x="0" y="0" xlink:href="img_395.png" width="485" height="215" /></g></g></g></g></g><g clip-path="url(#5)"><g clip-path="url(#6)"><path id="321" transform="matrix(1 0 0 -1 0 842)" d="M244.98 656L246 656L246 656.48L244.98 656.48z" stroke="none" fill="#000000" fill-rule="nonzero" /><path id="322" transform="matrix(1 0 0 -1 0 842)" d="M245.22 712.82L246.24 712.82L246.24 713.3L245.22 713.3z" stroke="none" fill="#000000" fill-rule="nonzero" /><path id="323" transform="matrix(1 0 0 -1 0 842)" d="M244.98 656.48L246 656.48L246.24 712.82L245.22 712.82" stroke="none" fill="#000000" fill-rule="nonzero" /><path id="324" transform="matrix(1 0 0 -1 0 842)" d="M285.96 656L286.98 656L286.98 656.48L285.96 656.48z" stroke="none" fill="#000000" fill-rule="nonzero" /><path id="325" transform="matrix(1 0 0 -1 0 842)" d="M285.24 701.54L286.26 701.54L286.26 702.02L285.24 702.02z" stroke="none" fill="#000000" fill-rule="nonzero" /><path id="326" transform="matrix(1 0 0 -1 0 842)" d="M285.96 656.48L286.98 656.48L286.26 701.54L285.24 701.54" stroke="none" fill="#000000" fill-rule="nonzero" /></g></g><g clip-path="url(#7)"><g clip-path="url(#8)"><path id="337" transform="matrix(1 0 0 -1 0 842)" d="M124.56 584.72L202.98 584.72L202.98 599.12L124.56 599.12z" stroke="none" fill="#FFFFFF" fill-rule="nonzero" /></g></g><g clip-path="url(#9)"><g clip-path="url(#10)"><g clip-path="url(#11)"><g transform="matrix(0.7396039 0 0 0.7389474 125.16 242.94)"><g transform="matrix(1 0 0 1 0 0)"><image x="0" y="0" xlink:href="img_250.png" width="101" height="19" /></g></g></g></g></g><path id="339" transform="matrix(1 0 0 -1 0 842)" d="M224.94 603.14L558 603.14L558 555.14L224.94 555.14" stroke="none" fill="#ECF5FC" fill-rule="nonzero" /><g clip-path="url(#12)"><g clip-path="url(#13)"><g clip-path="url(#14)"><g transform="matrix(0.4803333 0 0 0.4796262 296.46 470.82)"><g transform="matrix(1 0 0 1 0 0)"><image x="0" y="0" xlink:href="img_396.png" width="183" height="321" /></g></g></g></g></g><g clip-path="url(#15)"><g clip-path="url(#16)"><path id="434" transform="matrix(1 0 0 -1 0 842)" d="M282.66 228.68L283.14 228.68L283.14 229.7L282.66 229.7z" stroke="none" fill="#000000" fill-rule="nonzero" /><path id="435" transform="matrix(1 0 0 -1 0 842)" d="M283.14 228.68L337.38 228.68L337.38 229.7L283.14 229.7z" stroke="none" fill="#000000" fill-rule="nonzero" /><path id="436" transform="matrix(1 0 0 -1 0 842)" d="M279.66 286.16L280.14 286.16L280.14 287.18L279.66 287.18z" stroke="none" fill="#000000" fill-rule="nonzero" /><path id="437" transform="matrix(1 0 0 -1 0 842)" d="M304.44 286.82L304.92 286.82L304.92 287.84L304.44 287.84z" stroke="none" fill="#000000" fill-rule="nonzero" /><path id="438" transform="matrix(1 0 0 -1 0 842)" d="M280.14 287.18L280.14 286.16L304.44 286.82L304.44 287.84" stroke="none" fill="#000000" fill-rule="nonzero" /><path id="439" transform="matrix(1 0 0 -1 0 842)" d="M393.12 344.66L393.6 344.66L393.6 345.68L393.12 345.68z" stroke="none" fill="#000000" fill-rule="nonzero" /><path id="440" transform="matrix(1 0 0 -1 0 842)" d="M355.2 344.3L355.68 344.3L355.68 345.32L355.2 345.32z" stroke="none" fill="#000000" fill-rule="nonzero" /><path id="441" transform="matrix(1 0 0 -1 0 842)" d="M393.12 344.66L393.12 345.68L355.68 345.32L355.68 344.3" stroke="none" fill="#000000" fill-rule="nonzero" /><path id="442" transform="matrix(1 0 0 -1 0 842)" d="M394.62 306.8L395.1 306.8L395.1 307.82L394.62 307.82z" stroke="none" fill="#000000" fill-rule="nonzero" /><path id="443" transform="matrix(1 0 0 -1 0 842)" d="M367.68 306.8L394.62 306.8L394.62 307.82L367.68 307.82z" stroke="none" fill="#000000" fill-rule="nonzero" /><path id="444" transform="matrix(1 0 0 -1 0 842)" d="M393.12 270.56L393.6 270.56L393.6 271.58L393.12 271.58z" stroke="none" fill="#000000" fill-rule="nonzero" /><path id="445" transform="matrix(1 0 0 -1 0 842)" d="M367.08 270.56L393.12 270.56L393.12 271.58L367.08 271.58z" stroke="none" fill="#000000" fill-rule="nonzero" /></g></g></g></g></svg>