<svg xmlns="http://www.w3.org/2000/svg" xmlns:xlink="http://www.w3.org/1999/xlink" id="body_2" preserveAspectRatio="xMinYMin meet" viewBox="0 0 793 1123"><defs><clipPath id="1"><path id="" clip-rule="evenodd" transform="matrix(1 0 0 1 0 0)" d="M0 842L0 0L0 0L595 0L595 0L595 842L595 842L0 842z" /></clipPath><clipPath id="2"><path id="" clip-rule="evenodd" transform="matrix(1 0 0 1 0 0)" d="M-0.05 841.953L595.25 841.953L595.25 841.953L595.25 0.02697754L595.25 0.02697754L-0.05 0.02697754z" /></clipPath><clipPath id="3"><path id="" clip-rule="evenodd" transform="matrix(1 0 0 1 0 0)" d="M-0.06 0L595.26 0L595.26 0L595.26 841.98L595.26 841.98L-0.06 841.98z" /></clipPath><clipPath id="4"><path id="" clip-rule="evenodd" transform="matrix(1 0 0 1 0 0)" d="M0 0.02001953L595.2 0.02001953L595.2 0.02001953L595.2 842L595.2 842L0 842z" /></clipPath></defs><g transform="matrix(1.333333 0 0 1.333333 0 0)"><g clip-path="url(#1)"><g clip-path="url(#2)"><g clip-path="url(#3)"><g clip-path="url(#4)"><path id="1" transform="matrix(1 0 0 -1 0 842)" d="M467.483 73.897L464.317 73.897C 464.393 74.89999 464.624 75.922 465.89 75.978C 466.467 75.99699 466.85 75.73199 467.1 75.31599C 467.369 74.919 467.483 74.389 467.483 73.879M470.747 72.062C 470.767 75.486 469.729 77.738 465.871 77.738C 462.819 77.738 460.995 75.884 460.995 72.989C 460.995 69.433 462.282 67.69199 466.045 67.69199C 467.215 67.69199 468.252 67.957 469.039 68.48599C 469.883 69.035 470.575 69.905 470.671 71.097L470.671 71.097L467.446 71.097C 467.35 70.227 466.831 69.641 465.813 69.641C 464.508 69.641 464.24 70.87 464.258 72.062zM460.303 67.957C 460.207 68.864 460.168 69.508 460.168 70.03799L460.168 70.03799L460.168 74.63499C 460.168 76.546 458.728 77.738 456.847 77.738C 456.271 77.738 455.715 77.643 455.234 77.435C 454.793 77.227 454.371 76.924 454.006 76.46999L454.006 76.46999L454.006 81.617L454.006 81.617L450.589 81.617L450.589 81.617L450.589 67.957L450.589 67.957L454.006 67.957L454.006 67.957L454.006 73.689C 454.006 73.992 453.872 75.619 455.446 75.619C 456.521 75.619 456.751 74.69099 456.751 73.784L456.751 73.784L456.751 67.957zM500.579 75.73199C 502.019 75.73199 502.287 74.27599 502.287 72.781C 502.287 71.03999 501.981 69.67899 500.579 69.67899C 499.178 69.67899 498.87 71.03999 498.87 72.781C 498.87 74.294 499.139 75.751 500.579 75.751zM500.579 77.738C 497.43 77.738 495.377 76.016 495.377 72.743C 495.377 69.375 497.45 67.69199 500.579 67.69199C 503.707 67.69199 505.78 69.375 505.78 72.743C 505.78 76.016 503.727 77.738 500.579 77.738M478.048 74.673L478.048 77.56699C 476.571 77.587 475.439 77.113 474.997 75.657L474.997 75.657L474.92 77.474L474.92 77.474L471.503 77.474C 471.58 76.697 471.58 75.657 471.58 75.033L471.58 75.033L471.58 67.957L471.58 67.957L474.997 67.957L474.997 67.957L474.997 72.12C 474.997 73.689 475.458 74.654 477.339 74.69099C 477.569 74.69099 477.8 74.69099 478.048 74.673M494.691 67.957C 494.596 68.864 494.538 69.564 494.538 70.03799L494.538 70.03799L494.538 74.63499C 494.538 76.546 493.117 77.738 491.237 77.738C 489.873 77.71899 488.683 77.113 488.031 76.05399C 487.627 77.113 486.435 77.681 485.322 77.681C 483.978 77.681 482.846 77.24599 482.213 76.05399L482.213 76.05399L482.135 77.474L482.135 77.474L478.834 77.474L478.834 77.474L478.834 67.957L478.834 67.957L482.251 67.957L482.251 67.957L482.251 73.689C 482.251 73.992 482.118 75.619 483.69 75.619C 484.746 75.619 484.996 74.69099 484.996 73.784L484.996 73.784L484.996 67.957L484.996 67.957L488.395 67.957L488.395 67.957L488.395 73.689C 488.395 73.992 488.26 75.619 489.834 75.619C 490.89 75.619 491.14 74.69099 491.14 73.784L491.14 73.784L491.14 67.957zM449.779 79.062L449.779 81.617L438.127 81.617L438.127 79.062L442.119 79.062L442.119 67.957L445.728 67.957L445.728 79.062z" stroke="none" fill="#EF2C33" fill-rule="nonzero" /><path id="2" transform="matrix(1 0 0 -1 0 842)" d="M521.257 79.107L522.068 81.619L518.691 81.619L517.88 79.107M516.778 79.10001L517.584 81.616L508.402 81.616L508.402 67.957L512.011 67.957L512.011 73.329L514.926 73.329L515.73 75.846L512.011 75.846L512.011 79.10001zM521.258 77.474L517.841 77.474L517.841 67.957L521.258 67.957zM548.674 73.897L545.507 73.897C 545.582 74.9 545.813 75.922 547.08 75.978C 547.656 75.997 548.04 75.732 548.29 75.316C 548.559 74.919 548.674 74.389 548.674 73.87901zM551.937 72.062C 551.957 75.486 550.92 77.738 547.062 77.738C 544.008 77.738 542.184 75.884 542.184 72.98901C 542.184 69.433 543.47 67.692 547.234 67.692C 548.405 67.692 549.441 67.957 550.228 68.486C 551.073 69.035 551.764 69.905 551.86 71.097L551.86 71.097L548.635 71.097C 548.539 70.22701 548.021 69.641 547.002 69.641C 545.697 69.641 545.428 70.87 545.449 72.062zM530.922 70.79401C 530.922 72.27 530.136 72.98901 529.042 73.386C 526.988 74.105 525.452 74.14301 525.452 74.9C 525.452 75.468 525.7791 75.788 526.336 75.788C 526.776 75.788 527.064 75.676 527.256 75.486C 527.4301 75.297 527.506 74.994 527.506 74.579L527.506 74.579L530.75 74.579C 530.674 77.075 528.677 77.738 526.488 77.738C 524.626 77.738 522.209 77.094 522.209 74.805C 522.209 71.47601 527.679 72.346 527.679 70.567C 527.679 69.943 527.161 69.659 526.488 69.659C 526.105 69.659 525.797 69.848 525.606 70.114C 525.413 70.359 525.336 70.719 525.394 71.04L525.394 71.04L522.131 71.04C 522.074 68.202 524.204 67.692 526.565 67.692C 528.773 67.692 530.922 68.486 530.922 70.79401M541.475 67.957C 541.3781 68.864 541.34 69.508 541.34 70.038L541.34 70.038L541.34 74.635C 541.34 76.54601 539.9 77.738 538.02 77.738C 537.442 77.738 536.924 77.64301 536.445 77.43501C 536.0031 77.22701 535.542 76.924 535.179 76.47L535.179 76.47L535.179 81.616L535.179 81.616L531.762 81.616L531.762 81.616L531.762 67.957L531.762 67.957L535.179 67.957L535.179 67.957L535.179 73.689C 535.179 73.992 535.044 75.619 536.618 75.619C 537.692 75.619 537.923 74.691 537.923 73.784L537.923 73.784L537.923 67.957zM559.249 74.843L559.249 77.738C 557.772 77.757 556.638 77.284 556.197 75.827L556.197 75.827L556.121 77.474L556.121 77.474L552.705 77.474C 552.781 76.697 552.781 75.65701 552.781 75.03201L552.781 75.03201L552.781 67.957L552.781 67.957L556.197 67.957L556.197 67.957L556.197 72.119C 556.197 73.689 556.659 74.82401 558.541 74.862C 558.769 74.862 558.999 74.862 559.249 74.843" stroke="none" fill="#EF2C33" fill-rule="nonzero" /><path id="3" transform="matrix(1 0 0 -1 0 842)" d="M459.793 56.078C 457.176 56.078 455.218 57.509 455.218 60.024C 455.218 62.569 457.414 64.117 459.875 64.117C 460.754 64.117 461.722 63.832 462.341 63.437L462.341 63.437L461.699 62.684C 461.145 62.987 460.545 63.186 459.892 63.19C 458.951 63.198 458.025 62.921 457.399 62.245C 456.889 61.694 456.605 60.98 456.605 59.98C 456.605 58.892 456.945 58.298 457.537 57.72C 458.138 57.135 459.056 56.975 459.957 56.975C 460.675 56.975 461.388 57.238 461.944 57.528L461.944 57.528L462.554 56.804C 461.918 56.381 460.836 56.078 459.793 56.078M478.833 56.211L478.833 63.954L484.628 63.954L484.46 63.029L480.088 63.029L480.088 60.722L483.815 60.722L483.815 59.796L480.105 59.796L480.105 57.181L484.783 57.181L484.783 56.211zM533.836 63.043L529.527 63.043L529.527 60.752L533.173 60.752L533.173 59.84L529.527 59.84L529.527 56.211L528.273 56.211L528.273 63.954L534.002 63.954zM518.919 63.954L520.173 63.954L520.173 56.211L518.919 56.211zM497.39 56.211L494.268 60.34C 493.683 61.115 492.695 62.624 492.695 62.624C 492.695 62.624 492.805 61.316 492.813 60.171L492.813 60.171L492.843 56.211L492.843 56.211L491.595 56.211L491.595 56.211L491.595 63.954L491.595 63.954L493.082 63.954L493.082 63.954L496.236 59.737C 496.851 58.916 497.704 57.614 497.704 57.614C 497.704 57.614 497.519 59.042 497.51 60.068L497.51 60.068L497.48 63.954L497.48 63.954L498.718 63.954L498.718 63.954L498.718 56.211zM447.055 56.486C 446.458 56.192 445.707 56.049 444.841 56.049C 443.729 56.049 442.6 56.292 441.662 56.748L441.662 56.748L442.182 57.625C 443.094 57.177 443.961 56.975 444.923 56.975C 445.552 56.975 445.967 57.081 446.352 57.288C 446.801 57.53 447.044 57.862 447.044 58.291C 447.044 58.937 446.54 59.34 445.326 59.619L445.326 59.619L444.046 59.912C 442.776 60.205 441.975 60.988 441.975 61.904C 441.975 63.226 443.29 64.161 445.169 64.161C 446.265 64.161 447.436 63.891 448.184 63.423L448.184 63.423L447.619 62.615C 446.852 63.033 446.051 63.236 445.235 63.236C 444.119 63.236 443.344 62.807 443.344 62.081C 443.344 61.521 443.816 61.188 444.915 60.928L444.915 60.928L446.096 60.649C 446.767 60.491 447.448 60.212 447.834 59.865C 448.203 59.533 448.445 59 448.445 58.481C 448.445 57.689 447.933 56.918 447.055 56.486M512.339 63.029L509.412 63.029L509.412 56.211L508.19 56.211L508.19 63.029L505.285 63.029L505.285 63.954L512.476 63.954zM540.676 63.954L541.929 63.954L541.929 56.211L540.676 56.211zM553.854 56.078C 551.236 56.078 549.278 57.509 549.278 60.024C 549.278 62.569 551.474 64.117 553.936 64.117C 554.815 64.117 555.784 63.832 556.401 63.437L556.401 63.437L555.759 62.684C 555.206 62.987 554.606 63.186 553.952 63.19C 553.012 63.198 552.086 62.921 551.46 62.245C 550.95 61.694 550.666 60.98 550.666 59.98C 550.666 58.892 551.006 58.298 551.598 57.72C 552.198 57.135 553.116 56.975 554.018 56.975C 554.736 56.975 555.448 57.238 556.004 57.528L556.004 57.528L556.615 56.804C 555.978 56.381 554.896 56.078 553.854 56.078M469.482 63.954L470.735 63.954L470.735 56.211L469.482 56.211z" stroke="none" fill="#221E1F" fill-rule="nonzero" /></g></g></g></g></g></svg>