<svg xmlns="http://www.w3.org/2000/svg" xmlns:xlink="http://www.w3.org/1999/xlink" id="body_66" preserveAspectRatio="xMinYMin meet" viewBox="0 0 793 1123"><defs><clipPath id="1"><path id="" clip-rule="evenodd" transform="matrix(1 0 0 1 0 0)" d="M0 842L0 0L0 0L595 0L595 0L595 842L595 842L0 842z" /></clipPath><clipPath id="2"><path id="" clip-rule="evenodd" transform="matrix(1 0 0 1 0 0)" d="M242.58 338.94L486.66 338.94L486.66 338.94L486.66 591.9L486.66 591.9L242.58 591.9z" /></clipPath><clipPath id="3"><path id="" clip-rule="evenodd" transform="matrix(1 0 0 1 0 0)" d="M224.94 337.92L487.68 337.92L487.68 337.92L487.68 592.92L487.68 592.92L224.94 592.92z" /></clipPath><clipPath id="4"><path id="" clip-rule="evenodd" transform="matrix(1 0 0 1 0 0)" d="M0 0.02001953L595.2 0.02001953L595.2 0.02001953L595.2 842L595.2 842L0 842z" /></clipPath><clipPath id="5"><path id="" clip-rule="evenodd" transform="matrix(1 0 0 1 0 0)" d="M224.94 337.92L487.68 337.92L487.68 337.92L487.68 592.92L487.68 592.92L224.94 592.92z" /></clipPath><clipPath id="6"><path id="" clip-rule="evenodd" transform="matrix(1 0 0 1 0 0)" d="M0 0.02001953L595.2 0.02001953L595.2 0.02001953L595.2 842L595.2 842L0 842z" /></clipPath></defs><g transform="matrix(1.333333 0 0 1.333333 0 0)"><g clip-path="url(#1)"><path id="596" transform="matrix(1 0 0 -1 0 842)" d="M224.94 554.06L558 554.06L558 520.04L224.94 520.04" stroke="none" fill="#ECF5FC" fill-rule="nonzero" /><g clip-path="url(#2)"><g clip-path="url(#3)"><g clip-path="url(#4)"><g transform="matrix(0.4795285 0 0 0.48 242.58 338.94)"><g transform="matrix(1 0 0 1 0 0)"><image x="0" y="0" xlink:href="img_186.png" width="509" height="527" /></g></g></g></g></g><g clip-path="url(#5)"><g clip-path="url(#6)"></g></g></g></g></svg>