<svg xmlns="http://www.w3.org/2000/svg" xmlns:xlink="http://www.w3.org/1999/xlink" id="body_99" preserveAspectRatio="xMinYMin meet" viewBox="0 0 793 1123"><defs><clipPath id="1"><path id="" clip-rule="evenodd" transform="matrix(1 0 0 1 0 0)" d="M0 842L0 0L0 0L595 0L595 0L595 842L595 842L0 842z" /></clipPath><clipPath id="2"><path id="" clip-rule="evenodd" transform="matrix(1 0 0 1 0 0)" d="M225.96 223.98L489.84 223.98L489.84 223.98L489.84 442.86L489.84 442.86L225.96 442.86z" /></clipPath><clipPath id="3"><path id="" clip-rule="evenodd" transform="matrix(1 0 0 1 0 0)" d="M224.94 222.96L490.86 222.96L490.86 222.96L490.86 459.66L490.86 459.66L224.94 459.66z" /></clipPath><clipPath id="4"><path id="" clip-rule="evenodd" transform="matrix(1 0 0 1 0 0)" d="M0 0.02001953L595.2 0.02001953L595.2 0.02001953L595.2 842L595.2 842L0 842z" /></clipPath><clipPath id="5"><path id="" clip-rule="evenodd" transform="matrix(1 0 0 1 0 0)" d="M224.94 222.96L490.86 222.96L490.86 222.96L490.86 459.66L490.86 459.66L224.94 459.66z" /></clipPath><clipPath id="6"><path id="" clip-rule="evenodd" transform="matrix(1 0 0 1 0 0)" d="M0 0.02001953L595.2 0.02001953L595.2 0.02001953L595.2 842L595.2 842L0 842z" /></clipPath><clipPath id="7"><path id="" clip-rule="evenodd" transform="matrix(1 0 0 1 0 0)" d="M248.4 531.3L340.32 531.3L340.32 531.3L340.32 623.88L340.32 623.88L248.4 623.88z" /></clipPath><clipPath id="8"><path id="" clip-rule="evenodd" transform="matrix(1 0 0 1 0 0)" d="M215.94 506.64L341.34 506.64L341.34 506.64L341.34 624.84L341.34 624.84L215.94 624.84z" /></clipPath><clipPath id="9"><path id="" clip-rule="evenodd" transform="matrix(1 0 0 1 0 0)" d="M0 0.02001953L595.2 0.02001953L595.2 0.02001953L595.2 842L595.2 842L0 842z" /></clipPath><clipPath id="10"><path id="" clip-rule="evenodd" transform="matrix(1 0 0 1 0 0)" d="M215.94 506.64L341.34 506.64L341.34 506.64L341.34 624.84L341.34 624.84L215.94 624.84z" /></clipPath><clipPath id="11"><path id="" clip-rule="evenodd" transform="matrix(1 0 0 1 0 0)" d="M0 0.02001953L595.2 0.02001953L595.2 0.02001953L595.2 842L595.2 842L0 842z" /></clipPath><clipPath id="12"><path id="" clip-rule="evenodd" transform="matrix(1 0 0 1 0 0)" d="M124.56 697.86L202.98 697.86L202.98 697.86L202.98 712.26L202.98 712.26L124.56 712.26z" /></clipPath><clipPath id="13"><path id="" clip-rule="evenodd" transform="matrix(1 0 0 1 0 0)" d="M0 0.02001953L595.2 0.02001953L595.2 0.02001953L595.2 842L595.2 842L0 842z" /></clipPath><clipPath id="14"><path id="" clip-rule="evenodd" transform="matrix(1 0 0 1 0 0)" d="M124.44 698.1L199.5 698.1L199.5 698.1L199.5 712.2L199.5 712.2L124.44 712.2z" /></clipPath><clipPath id="15"><path id="" clip-rule="evenodd" transform="matrix(1 0 0 1 0 0)" d="M124.56 697.86L202.98 697.86L202.98 697.86L202.98 712.26L202.98 712.26L124.56 712.26z" /></clipPath><clipPath id="16"><path id="" clip-rule="evenodd" transform="matrix(1 0 0 1 0 0)" d="M0 0.02001953L595.2 0.02001953L595.2 0.02001953L595.2 842L595.2 842L0 842z" /></clipPath></defs><g transform="matrix(1.333333 0 0 1.333333 0 0)"><g clip-path="url(#1)"><g clip-path="url(#2)"><g clip-path="url(#3)"><g clip-path="url(#4)"><g transform="matrix(0.4047239 0 0 0.4053333 225.96 223.98)"><g transform="matrix(1 0 0 1 0 0)"><image x="0" y="0" xlink:href="img_29.png" width="652" height="540" /></g></g></g></g></g><g clip-path="url(#5)"><g clip-path="url(#6)"><path id="280" transform="matrix(1 0 0 -1 0 842)" d="M358.86 396.68L359.88 396.68L359.88 397.16L358.86 397.16z" stroke="none" fill="#000000" fill-rule="nonzero" /><path id="281" transform="matrix(1 0 0 -1 0 842)" d="M358.26 435.56L359.28 435.56L359.28 436.04L358.26 436.04z" stroke="none" fill="#000000" fill-rule="nonzero" /><path id="282" transform="matrix(1 0 0 -1 0 842)" d="M358.86 397.16L359.88 397.16L359.28 435.56L358.26 435.56" stroke="none" fill="#000000" fill-rule="nonzero" /><path id="287" transform="matrix(1 0 0 -1 0 842)" d="M331.38 539.96L352.98 539.96L352.98 540.98L331.38 540.98z" stroke="none" fill="#000000" fill-rule="nonzero" /><path id="288" transform="matrix(1 0 0 -1 0 842)" d="M255.36 533.9L327.42 533.9L327.42 542.9L255.36 542.9z" stroke="none" fill="#FFFFFF" fill-rule="nonzero" /></g></g><g clip-path="url(#7)"><g clip-path="url(#8)"><g clip-path="url(#9)"><g transform="matrix(0.3354744 0 0 0.3354348 248.4 531.3)"><g transform="matrix(1 0 0 1 0 0)"><image x="0" y="0" xlink:href="img_33.png" width="274" height="276" /></g></g></g></g></g><g clip-path="url(#10)"><g clip-path="url(#11)"><path id="300" transform="matrix(1 0 0 -1 0 842)" d="M283.32 330.2L282.96 333.68L282.96 334.34L283.56 334.22L295.92 331.94L297.66 331.64L296.04 330.98L284.34 326.36L283.68 326.12L283.62 326.78L283.92 327.32L295.62 331.94L296.04 330.98L295.74 330.98L283.38 333.26L283.56 334.22L283.98 333.8L284.34 330.32" stroke="none" fill="#000000" fill-rule="nonzero" /><path id="301" transform="matrix(1 0 0 -1 0 842)" d="M283.62 326.78L283.32 330.2L284.34 330.32L284.64 326.9" stroke="none" fill="#000000" fill-rule="nonzero" /><path id="302" transform="matrix(1 0 0 -1 0 842)" d="M283.8 330.26L283.44 333.74L283.44 333.74L295.8 331.46L295.8 331.46L284.1 326.84" stroke="none" fill="#000000" fill-rule="evenodd" /><path id="303" transform="matrix(1 0 0 -1 0 842)" d="M226.08 274.04L229.5 273.68L230.16 273.56L229.92 272.96L225.3 261.26L224.64 259.64L224.34 261.38L222.06 273.74L221.94 274.4L222.6 274.34L223.02 273.92L225.3 261.56L224.34 261.38L224.34 261.68L228.96 273.38L229.92 272.96L229.38 272.66L225.96 273.02" stroke="none" fill="#000000" fill-rule="nonzero" /><path id="304" transform="matrix(1 0 0 -1 0 842)" d="M222.6 274.34L226.08 274.04L225.96 273.02L222.48 273.32" stroke="none" fill="#000000" fill-rule="nonzero" /><path id="305" transform="matrix(1 0 0 -1 0 842)" d="M226.02 273.56L229.44 273.2L229.44 273.2L224.82 261.5L224.82 261.5L222.54 273.86" stroke="none" fill="#000000" fill-rule="evenodd" /><path id="306" transform="matrix(1 0 0 -1 0 842)" d="M225.6 274.04L225.72 275.42L225.72 275.48L225.9 276.86L226.14 278.18L226.38 279.56L226.62 280.88L226.62 280.94L226.98 282.26L227.28 283.58L227.64 284.9L228.06 286.22L228.48 287.48L228.48 287.54L229.92 291.32L230.46 292.58L231 293.78L231.06 293.84L231.66 295.04L232.32 296.24L232.92 297.44L233.58 298.64L235.02 300.92L235.74 302L235.74 302.06L236.52 303.2L238.08 305.36L238.14 305.36L238.98 306.44L239.88 307.46L240.72 308.48L241.62 309.5L241.62 309.56L242.52 310.52L245.4 313.4L245.46 313.4L247.5 315.2L249.54 316.88L251.7 318.56L251.7 318.62L252.78 319.4L252.84 319.4L253.98 320.12L253.92 320.12L254.52 319.28L253.38 318.56L252.3 317.78L250.14 316.1L250.2 316.1L248.16 314.42L246.12 312.62L246.12 312.68L243.24 309.8L242.34 308.84L242.4 308.84L241.5 307.82L240.66 306.8L239.76 305.78L239.76 305.84L238.92 304.76L237.36 302.6L236.58 301.46L235.86 300.38L234.42 298.1L234.48 298.16L233.82 296.96L233.22 295.76L232.56 294.56L231.96 293.36L231.42 292.16L230.88 290.9L230.88 290.96L229.44 287.18L229.02 285.92L228.6 284.6L228.6 284.66L228.24 283.34L228.3 283.34L228 282.02L227.94 282.02L227.58 280.7L227.64 280.7L227.4 279.38L227.16 278L226.92 276.68L226.92 276.74L226.74 275.36L226.62 273.98" stroke="none" fill="#000000" fill-rule="nonzero" /><path id="307" transform="matrix(1 0 0 -1 0 842)" d="M253.92 320.12L255.06 320.9L255.12 320.9L256.26 321.56L257.4 322.28L259.8 323.6L263.4 325.4L263.46 325.46L264.72 326L268.5 327.44L268.56 327.44L269.82 327.86L272.46 328.7L273.78 329.06L276.42 329.66L276.48 329.66L279.12 330.14L280.5 330.38L281.88 330.56L282 329.54L280.62 329.36L280.68 329.36L279.3 329.12L276.66 328.64L274.02 328.04L274.02 328.1L272.7 327.74L272.76 327.74L270.12 326.9L268.86 326.48L265.08 325.04L265.14 325.04L263.88 324.5L260.28 322.7L257.88 321.38L257.94 321.44L256.8 320.72L256.8 320.66L255.66 320L255.66 320.06L254.52 319.28" stroke="none" fill="#000000" fill-rule="nonzero" /><path id="308" transform="matrix(1 0 0 -1 0 842)" d="M281.88 330.56L282 329.54L283.32 329.66L283.2 330.68" stroke="none" fill="#000000" fill-rule="nonzero" /></g></g><g clip-path="url(#12)"><g clip-path="url(#13)"><path id="309" transform="matrix(1 0 0 -1 0 842)" d="M124.56 129.74L202.98 129.74L202.98 144.14L124.56 144.14z" stroke="none" fill="#FFFFFF" fill-rule="nonzero" /></g></g><g clip-path="url(#14)"><g clip-path="url(#15)"><g clip-path="url(#16)"><g transform="matrix(0.7431683 0 0 0.7421053 124.44 698.1)"><g transform="matrix(1 0 0 1 0 0)"><image x="0" y="0" xlink:href="img_274.png" width="101" height="19" /></g></g></g></g></g><path id="311" transform="matrix(1 0 0 -1 0 842)" d="M224.94 148.16L558 148.16L558 100.16L224.94 100.16" stroke="none" fill="#ECF5FC" fill-rule="nonzero" /></g></g></svg>