<svg xmlns="http://www.w3.org/2000/svg" xmlns:xlink="http://www.w3.org/1999/xlink" id="body_77" preserveAspectRatio="xMinYMin meet" viewBox="0 0 793 1123"><defs><clipPath id="1"><path id="" clip-rule="evenodd" transform="matrix(1 0 0 1 0 0)" d="M0 842L0 0L0 0L595 0L595 0L595 842L595 842L0 842z" /></clipPath><clipPath id="2"><path id="" clip-rule="evenodd" transform="matrix(1 0 0 1 0 0)" d="M294.84 77.03998L361.8 77.03998L361.8 77.03998L361.8 221.28L361.8 221.28L294.84 221.28z" /></clipPath><clipPath id="3"><path id="" clip-rule="evenodd" transform="matrix(1 0 0 1 0 0)" d="M224.94 76.02002L470.94 76.02002L470.94 76.02002L470.94 223.98L470.94 223.98L224.94 223.98z" /></clipPath><clipPath id="4"><path id="" clip-rule="evenodd" transform="matrix(1 0 0 1 0 0)" d="M0 0.02001953L595.2 0.02001953L595.2 0.02001953L595.2 842L595.2 842L0 842z" /></clipPath><clipPath id="5"><path id="" clip-rule="evenodd" transform="matrix(1 0 0 1 0 0)" d="M224.94 76.02002L470.94 76.02002L470.94 76.02002L470.94 223.98L470.94 223.98L224.94 223.98z" /></clipPath><clipPath id="6"><path id="" clip-rule="evenodd" transform="matrix(1 0 0 1 0 0)" d="M0 0.02001953L595.2 0.02001953L595.2 0.02001953L595.2 842L595.2 842L0 842z" /></clipPath><clipPath id="7"><path id="" clip-rule="evenodd" transform="matrix(1 0 0 1 0 0)" d="M407.58 80.15997L469.98 80.15997L469.98 80.15997L469.98 222.96L469.98 222.96L407.58 222.96z" /></clipPath><clipPath id="8"><path id="" clip-rule="evenodd" transform="matrix(1 0 0 1 0 0)" d="M224.94 76.02002L470.94 76.02002L470.94 76.02002L470.94 223.98L470.94 223.98L224.94 223.98z" /></clipPath><clipPath id="9"><path id="" clip-rule="evenodd" transform="matrix(1 0 0 1 0 0)" d="M0 0.02001953L595.2 0.02001953L595.2 0.02001953L595.2 842L595.2 842L0 842z" /></clipPath><clipPath id="10"><path id="" clip-rule="evenodd" transform="matrix(1 0 0 1 0 0)" d="M224.94 76.02002L470.94 76.02002L470.94 76.02002L470.94 223.98L470.94 223.98L224.94 223.98z" /></clipPath><clipPath id="11"><path id="" clip-rule="evenodd" transform="matrix(1 0 0 1 0 0)" d="M0 0.02001953L595.2 0.02001953L595.2 0.02001953L595.2 842L595.2 842L0 842z" /></clipPath><clipPath id="12"><path id="" clip-rule="evenodd" transform="matrix(1 0 0 1 0 0)" d="M253.5 363L361.5 363L361.5 363L361.5 567L361.5 567L253.5 567z" /></clipPath><clipPath id="13"><path id="" clip-rule="evenodd" transform="matrix(1 0 0 1 0 0)" d="M224.94 359.94L547.32 359.94L547.32 359.94L547.32 568.02L547.32 568.02L224.94 568.02z" /></clipPath><clipPath id="14"><path id="" clip-rule="evenodd" transform="matrix(1 0 0 1 0 0)" d="M0 0.02001953L595.2 0.02001953L595.2 0.02001953L595.2 842L595.2 842L0 842z" /></clipPath><clipPath id="15"><path id="" clip-rule="evenodd" transform="matrix(1 0 0 1 0 0)" d="M288.787 470.096L288.787 463.377L288.787 463.377L295.506 463.377L295.506 463.377L295.506 470.096L295.506 470.096L288.787 470.096" /></clipPath><clipPath id="16"><path id="" clip-rule="evenodd" transform="matrix(1 0 0 1 0 0)" d="M290.707 462.417L289.747 462.417L289.747 462.417L289.747 463.377L289.747 463.377L288.787 463.377L288.787 463.377L288.787 508.492L288.787 508.492L289.747 508.492L289.747 508.492L289.747 509.452L289.747 509.452L317.582 509.452L317.582 509.452L318.542 508.492L318.542 508.492L318.542 463.377L318.542 463.377L317.582 462.417L317.582 462.417L290.707 462.417" /></clipPath><clipPath id="17"><path id="" clip-rule="evenodd" transform="matrix(1 0 0 1 0 0)" d="M253.5 363L361.5 363L361.5 363L361.5 567L361.5 567L253.5 567z" /></clipPath><clipPath id="18"><path id="" clip-rule="evenodd" transform="matrix(1 0 0 1 0 0)" d="M224.94 359.94L547.32 359.94L547.32 359.94L547.32 568.02L547.32 568.02L224.94 568.02z" /></clipPath><clipPath id="19"><path id="" clip-rule="evenodd" transform="matrix(1 0 0 1 0 0)" d="M0 0.02001953L595.2 0.02001953L595.2 0.02001953L595.2 842L595.2 842L0 842z" /></clipPath><clipPath id="20"><path id="" clip-rule="evenodd" transform="matrix(1 0 0 1 0 0)" d="M296.466 470.096L296.466 463.377L296.466 463.377L303.185 463.377L303.185 463.377L303.185 470.096L303.185 470.096L296.466 470.096" /></clipPath><clipPath id="21"><path id="" clip-rule="evenodd" transform="matrix(1 0 0 1 0 0)" d="M289.747 462.417L288.787 463.377L288.787 463.377L288.787 508.492L288.787 508.492L289.747 509.452L289.747 509.452L317.582 509.452L317.582 509.452L318.542 508.492L318.542 508.492L318.542 463.377L318.542 463.377L317.582 462.417L317.582 462.417L289.747 462.417" /></clipPath><clipPath id="22"><path id="" clip-rule="evenodd" transform="matrix(1 0 0 1 0 0)" d="M253.5 363L361.5 363L361.5 363L361.5 567L361.5 567L253.5 567z" /></clipPath><clipPath id="23"><path id="" clip-rule="evenodd" transform="matrix(1 0 0 1 0 0)" d="M224.94 359.94L547.32 359.94L547.32 359.94L547.32 568.02L547.32 568.02L224.94 568.02z" /></clipPath><clipPath id="24"><path id="" clip-rule="evenodd" transform="matrix(1 0 0 1 0 0)" d="M0 0.02001953L595.2 0.02001953L595.2 0.02001953L595.2 842L595.2 842L0 842z" /></clipPath><clipPath id="25"><path id="" clip-rule="evenodd" transform="matrix(1 0 0 1 0 0)" d="M304.144 470.096L304.144 463.377L304.144 463.377L310.864 463.377L310.864 463.377L310.864 470.096L310.864 470.096L304.144 470.096" /></clipPath><clipPath id="26"><path id="" clip-rule="evenodd" transform="matrix(1 0 0 1 0 0)" d="M290.706 462.417L289.746 462.417L289.746 462.417L289.746 463.377L289.746 463.377L288.786 463.377L288.786 463.377L288.786 508.492L288.786 508.492L289.746 508.492L289.746 508.492L289.746 509.452L289.746 509.452L317.583 509.452L317.583 509.452L318.542 508.492L318.542 508.492L318.542 463.377L318.542 463.377L317.583 462.417L317.583 462.417L290.706 462.417" /></clipPath><clipPath id="27"><path id="" clip-rule="evenodd" transform="matrix(1 0 0 1 0 0)" d="M253.5 363L361.5 363L361.5 363L361.5 567L361.5 567L253.5 567z" /></clipPath><clipPath id="28"><path id="" clip-rule="evenodd" transform="matrix(1 0 0 1 0 0)" d="M224.94 359.94L547.32 359.94L547.32 359.94L547.32 568.02L547.32 568.02L224.94 568.02z" /></clipPath><clipPath id="29"><path id="" clip-rule="evenodd" transform="matrix(1 0 0 1 0 0)" d="M0 0.02001953L595.2 0.02001953L595.2 0.02001953L595.2 842L595.2 842L0 842z" /></clipPath><clipPath id="30"><path id="" clip-rule="evenodd" transform="matrix(1 0 0 1 0 0)" d="M311.823 470.096L311.823 463.377L311.823 463.377L318.122 463.377L318.122 463.377L318.122 470.096L318.122 470.096L311.823 470.096" /></clipPath><clipPath id="31"><path id="" clip-rule="evenodd" transform="matrix(1 0 0 1 0 0)" d="M290.227 462.417L289.327 462.417L289.327 462.417L289.327 463.377L289.327 463.377L288.427 464.337L288.427 464.337L288.427 507.532L288.427 507.532L289.327 508.492L289.327 508.492L289.327 509.452L289.327 509.452L318.122 509.452L318.122 509.452L318.122 508.492L318.122 508.492L319.022 508.492L319.022 508.492L319.022 463.377L319.022 463.377L318.122 463.377L318.122 463.377L318.122 462.417L318.122 462.417L290.227 462.417" /></clipPath><clipPath id="32"><path id="" clip-rule="evenodd" transform="matrix(1 0 0 1 0 0)" d="M253.5 363L361.5 363L361.5 363L361.5 567L361.5 567L253.5 567z" /></clipPath><clipPath id="33"><path id="" clip-rule="evenodd" transform="matrix(1 0 0 1 0 0)" d="M224.94 359.94L547.32 359.94L547.32 359.94L547.32 568.02L547.32 568.02L224.94 568.02z" /></clipPath><clipPath id="34"><path id="" clip-rule="evenodd" transform="matrix(1 0 0 1 0 0)" d="M0 0.02001953L595.2 0.02001953L595.2 0.02001953L595.2 842L595.2 842L0 842z" /></clipPath><clipPath id="35"><path id="" clip-rule="evenodd" transform="matrix(1 0 0 1 0 0)" d="M288.787 477.775L288.787 471.056L288.787 471.056L295.506 471.056L295.506 471.056L295.506 477.775L295.506 477.775L288.787 477.775" /></clipPath><clipPath id="36"><path id="" clip-rule="evenodd" transform="matrix(1 0 0 1 0 0)" d="M290.707 462.418L289.747 462.418L289.747 462.418L289.747 463.377L289.747 463.377L288.787 463.377L288.787 463.377L288.787 508.49L288.787 508.49L289.747 508.49L289.747 508.49L289.747 509.45L289.747 509.45L317.582 509.45L317.582 509.45L318.542 508.49L318.542 508.49L318.542 463.377L318.542 463.377L317.582 462.418L317.582 462.418L290.707 462.418" /></clipPath><clipPath id="37"><path id="" clip-rule="evenodd" transform="matrix(1 0 0 1 0 0)" d="M253.5 363L361.5 363L361.5 363L361.5 567L361.5 567L253.5 567z" /></clipPath><clipPath id="38"><path id="" clip-rule="evenodd" transform="matrix(1 0 0 1 0 0)" d="M224.94 359.94L547.32 359.94L547.32 359.94L547.32 568.02L547.32 568.02L224.94 568.02z" /></clipPath><clipPath id="39"><path id="" clip-rule="evenodd" transform="matrix(1 0 0 1 0 0)" d="M0 0.02001953L595.2 0.02001953L595.2 0.02001953L595.2 842L595.2 842L0 842z" /></clipPath><clipPath id="40"><path id="" clip-rule="evenodd" transform="matrix(1 0 0 1 0 0)" d="M296.466 477.775L296.466 471.056L296.466 471.056L303.185 471.056L303.185 471.056L303.185 477.775L303.185 477.775L296.466 477.775" /></clipPath><clipPath id="41"><path id="" clip-rule="evenodd" transform="matrix(1 0 0 1 0 0)" d="M289.747 462.418L288.787 463.377L288.787 463.377L288.787 508.49L288.787 508.49L289.747 509.45L289.747 509.45L317.582 509.45L317.582 509.45L318.542 508.49L318.542 508.49L318.542 463.377L318.542 463.377L317.582 462.418L317.582 462.418L289.747 462.418" /></clipPath><clipPath id="42"><path id="" clip-rule="evenodd" transform="matrix(1 0 0 1 0 0)" d="M253.5 363L361.5 363L361.5 363L361.5 567L361.5 567L253.5 567z" /></clipPath><clipPath id="43"><path id="" clip-rule="evenodd" transform="matrix(1 0 0 1 0 0)" d="M224.94 359.94L547.32 359.94L547.32 359.94L547.32 568.02L547.32 568.02L224.94 568.02z" /></clipPath><clipPath id="44"><path id="" clip-rule="evenodd" transform="matrix(1 0 0 1 0 0)" d="M0 0.02001953L595.2 0.02001953L595.2 0.02001953L595.2 842L595.2 842L0 842z" /></clipPath><clipPath id="45"><path id="" clip-rule="evenodd" transform="matrix(1 0 0 1 0 0)" d="M304.144 477.775L304.144 471.056L304.144 471.056L310.864 471.056L310.864 471.056L310.864 477.775L310.864 477.775L304.144 477.775" /></clipPath><clipPath id="46"><path id="" clip-rule="evenodd" transform="matrix(1 0 0 1 0 0)" d="M290.706 462.418L289.746 462.418L289.746 462.418L289.746 463.377L289.746 463.377L288.786 463.377L288.786 463.377L288.786 508.49L288.786 508.49L289.746 508.49L289.746 508.49L289.746 509.45L289.746 509.45L317.583 509.45L317.583 509.45L318.542 508.49L318.542 508.49L318.542 463.377L318.542 463.377L317.583 462.418L317.583 462.418L290.706 462.418" /></clipPath><clipPath id="47"><path id="" clip-rule="evenodd" transform="matrix(1 0 0 1 0 0)" d="M253.5 363L361.5 363L361.5 363L361.5 567L361.5 567L253.5 567z" /></clipPath><clipPath id="48"><path id="" clip-rule="evenodd" transform="matrix(1 0 0 1 0 0)" d="M224.94 359.94L547.32 359.94L547.32 359.94L547.32 568.02L547.32 568.02L224.94 568.02z" /></clipPath><clipPath id="49"><path id="" clip-rule="evenodd" transform="matrix(1 0 0 1 0 0)" d="M0 0.02001953L595.2 0.02001953L595.2 0.02001953L595.2 842L595.2 842L0 842z" /></clipPath><clipPath id="50"><path id="" clip-rule="evenodd" transform="matrix(1 0 0 1 0 0)" d="M311.823 477.775L311.823 471.056L311.823 471.056L318.122 471.056L318.122 471.056L318.122 477.775L318.122 477.775L311.823 477.775" /></clipPath><clipPath id="51"><path id="" clip-rule="evenodd" transform="matrix(1 0 0 1 0 0)" d="M290.227 462.418L289.327 462.418L289.327 462.418L289.327 463.377L289.327 463.377L288.427 464.337L288.427 464.337L288.427 507.53L288.427 507.53L289.327 508.49L289.327 508.49L289.327 509.45L289.327 509.45L318.122 509.45L318.122 509.45L318.122 508.49L318.122 508.49L319.022 508.49L319.022 508.49L319.022 463.377L319.022 463.377L318.122 463.377L318.122 463.377L318.122 462.418L318.122 462.418L290.227 462.418" /></clipPath><clipPath id="52"><path id="" clip-rule="evenodd" transform="matrix(1 0 0 1 0 0)" d="M253.5 363L361.5 363L361.5 363L361.5 567L361.5 567L253.5 567z" /></clipPath><clipPath id="53"><path id="" clip-rule="evenodd" transform="matrix(1 0 0 1 0 0)" d="M224.94 359.94L547.32 359.94L547.32 359.94L547.32 568.02L547.32 568.02L224.94 568.02z" /></clipPath><clipPath id="54"><path id="" clip-rule="evenodd" transform="matrix(1 0 0 1 0 0)" d="M0 0.02001953L595.2 0.02001953L595.2 0.02001953L595.2 842L595.2 842L0 842z" /></clipPath><clipPath id="55"><path id="" clip-rule="evenodd" transform="matrix(1 0 0 1 0 0)" d="M288.787 485.454L288.787 478.735L288.787 478.735L295.506 478.735L295.506 478.735L295.506 485.454L295.506 485.454L288.787 485.454" /></clipPath><clipPath id="56"><path id="" clip-rule="evenodd" transform="matrix(1 0 0 1 0 0)" d="M290.707 462.417L289.747 462.417L289.747 462.417L289.747 463.377L289.747 463.377L288.787 463.377L288.787 463.377L288.787 508.491L288.787 508.491L289.747 508.491L289.747 508.491L289.747 509.451L289.747 509.451L317.582 509.451L317.582 509.451L318.542 508.491L318.542 508.491L318.542 463.377L318.542 463.377L317.582 462.417L317.582 462.417L290.707 462.417" /></clipPath><clipPath id="57"><path id="" clip-rule="evenodd" transform="matrix(1 0 0 1 0 0)" d="M253.5 363L361.5 363L361.5 363L361.5 567L361.5 567L253.5 567z" /></clipPath><clipPath id="58"><path id="" clip-rule="evenodd" transform="matrix(1 0 0 1 0 0)" d="M224.94 359.94L547.32 359.94L547.32 359.94L547.32 568.02L547.32 568.02L224.94 568.02z" /></clipPath><clipPath id="59"><path id="" clip-rule="evenodd" transform="matrix(1 0 0 1 0 0)" d="M0 0.02001953L595.2 0.02001953L595.2 0.02001953L595.2 842L595.2 842L0 842z" /></clipPath><clipPath id="60"><path id="" clip-rule="evenodd" transform="matrix(1 0 0 1 0 0)" d="M296.466 485.454L296.466 478.735L296.466 478.735L303.185 478.735L303.185 478.735L303.185 485.454L303.185 485.454L296.466 485.454" /></clipPath><clipPath id="61"><path id="" clip-rule="evenodd" transform="matrix(1 0 0 1 0 0)" d="M289.747 462.417L288.787 463.377L288.787 463.377L288.787 508.491L288.787 508.491L289.747 509.451L289.747 509.451L317.582 509.451L317.582 509.451L318.542 508.491L318.542 508.491L318.542 463.377L318.542 463.377L317.582 462.417L317.582 462.417L289.747 462.417" /></clipPath><clipPath id="62"><path id="" clip-rule="evenodd" transform="matrix(1 0 0 1 0 0)" d="M253.5 363L361.5 363L361.5 363L361.5 567L361.5 567L253.5 567z" /></clipPath><clipPath id="63"><path id="" clip-rule="evenodd" transform="matrix(1 0 0 1 0 0)" d="M224.94 359.94L547.32 359.94L547.32 359.94L547.32 568.02L547.32 568.02L224.94 568.02z" /></clipPath><clipPath id="64"><path id="" clip-rule="evenodd" transform="matrix(1 0 0 1 0 0)" d="M0 0.02001953L595.2 0.02001953L595.2 0.02001953L595.2 842L595.2 842L0 842z" /></clipPath><clipPath id="65"><path id="" clip-rule="evenodd" transform="matrix(1 0 0 1 0 0)" d="M304.144 485.454L304.144 478.735L304.144 478.735L310.864 478.735L310.864 478.735L310.864 485.454L310.864 485.454L304.144 485.454" /></clipPath><clipPath id="66"><path id="" clip-rule="evenodd" transform="matrix(1 0 0 1 0 0)" d="M290.706 462.417L289.746 462.417L289.746 462.417L289.746 463.377L289.746 463.377L288.786 463.377L288.786 463.377L288.786 508.491L288.786 508.491L289.746 508.491L289.746 508.491L289.746 509.451L289.746 509.451L317.583 509.451L317.583 509.451L318.542 508.491L318.542 508.491L318.542 463.377L318.542 463.377L317.583 462.417L317.583 462.417L290.706 462.417" /></clipPath><clipPath id="67"><path id="" clip-rule="evenodd" transform="matrix(1 0 0 1 0 0)" d="M253.5 363L361.5 363L361.5 363L361.5 567L361.5 567L253.5 567z" /></clipPath><clipPath id="68"><path id="" clip-rule="evenodd" transform="matrix(1 0 0 1 0 0)" d="M224.94 359.94L547.32 359.94L547.32 359.94L547.32 568.02L547.32 568.02L224.94 568.02z" /></clipPath><clipPath id="69"><path id="" clip-rule="evenodd" transform="matrix(1 0 0 1 0 0)" d="M0 0.02001953L595.2 0.02001953L595.2 0.02001953L595.2 842L595.2 842L0 842z" /></clipPath><clipPath id="70"><path id="" clip-rule="evenodd" transform="matrix(1 0 0 1 0 0)" d="M311.823 485.454L311.823 478.735L311.823 478.735L318.122 478.735L318.122 478.735L318.122 485.454L318.122 485.454L311.823 485.454" /></clipPath><clipPath id="71"><path id="" clip-rule="evenodd" transform="matrix(1 0 0 1 0 0)" d="M290.227 462.417L289.327 462.417L289.327 462.417L289.327 463.377L289.327 463.377L288.427 464.337L288.427 464.337L288.427 507.532L288.427 507.532L289.327 508.491L289.327 508.491L289.327 509.451L289.327 509.451L318.122 509.451L318.122 509.451L318.122 508.491L318.122 508.491L319.022 508.491L319.022 508.491L319.022 463.377L319.022 463.377L318.122 463.377L318.122 463.377L318.122 462.417L318.122 462.417L290.227 462.417" /></clipPath><clipPath id="72"><path id="" clip-rule="evenodd" transform="matrix(1 0 0 1 0 0)" d="M253.5 363L361.5 363L361.5 363L361.5 567L361.5 567L253.5 567z" /></clipPath><clipPath id="73"><path id="" clip-rule="evenodd" transform="matrix(1 0 0 1 0 0)" d="M224.94 359.94L547.32 359.94L547.32 359.94L547.32 568.02L547.32 568.02L224.94 568.02z" /></clipPath><clipPath id="74"><path id="" clip-rule="evenodd" transform="matrix(1 0 0 1 0 0)" d="M0 0.02001953L595.2 0.02001953L595.2 0.02001953L595.2 842L595.2 842L0 842z" /></clipPath><clipPath id="75"><path id="" clip-rule="evenodd" transform="matrix(1 0 0 1 0 0)" d="M288.787 493.133L288.787 486.414L288.787 486.414L295.506 486.414L295.506 486.414L295.506 493.133L295.506 493.133L288.787 493.133" /></clipPath><clipPath id="76"><path id="" clip-rule="evenodd" transform="matrix(1 0 0 1 0 0)" d="M290.707 462.418L289.747 462.418L289.747 462.418L288.787 463.378L288.787 463.378L288.787 508.491L288.787 508.491L289.747 508.491L289.747 508.491L289.747 509.45L289.747 509.45L317.582 509.45L317.582 509.45L318.542 508.491L318.542 508.491L318.542 462.418L318.542 462.418L290.707 462.418" /></clipPath><clipPath id="77"><path id="" clip-rule="evenodd" transform="matrix(1 0 0 1 0 0)" d="M253.5 363L361.5 363L361.5 363L361.5 567L361.5 567L253.5 567z" /></clipPath><clipPath id="78"><path id="" clip-rule="evenodd" transform="matrix(1 0 0 1 0 0)" d="M224.94 359.94L547.32 359.94L547.32 359.94L547.32 568.02L547.32 568.02L224.94 568.02z" /></clipPath><clipPath id="79"><path id="" clip-rule="evenodd" transform="matrix(1 0 0 1 0 0)" d="M0 0.02001953L595.2 0.02001953L595.2 0.02001953L595.2 842L595.2 842L0 842z" /></clipPath><clipPath id="80"><path id="" clip-rule="evenodd" transform="matrix(1 0 0 1 0 0)" d="M296.466 493.133L296.466 486.414L296.466 486.414L303.185 486.414L303.185 486.414L303.185 493.133L303.185 493.133L296.466 493.133" /></clipPath><clipPath id="81"><path id="" clip-rule="evenodd" transform="matrix(1 0 0 1 0 0)" d="M289.747 462.418L288.787 462.418L288.787 462.418L288.787 508.491L288.787 508.491L289.747 509.45L289.747 509.45L317.582 509.45L317.582 509.45L318.542 508.491L318.542 508.491L318.542 462.418L318.542 462.418L289.747 462.418" /></clipPath><clipPath id="82"><path id="" clip-rule="evenodd" transform="matrix(1 0 0 1 0 0)" d="M253.5 363L361.5 363L361.5 363L361.5 567L361.5 567L253.5 567z" /></clipPath><clipPath id="83"><path id="" clip-rule="evenodd" transform="matrix(1 0 0 1 0 0)" d="M224.94 359.94L547.32 359.94L547.32 359.94L547.32 568.02L547.32 568.02L224.94 568.02z" /></clipPath><clipPath id="84"><path id="" clip-rule="evenodd" transform="matrix(1 0 0 1 0 0)" d="M0 0.02001953L595.2 0.02001953L595.2 0.02001953L595.2 842L595.2 842L0 842z" /></clipPath><clipPath id="85"><path id="" clip-rule="evenodd" transform="matrix(1 0 0 1 0 0)" d="M304.144 493.133L304.144 486.414L304.144 486.414L310.864 486.414L310.864 486.414L310.864 493.133L310.864 493.133L304.144 493.133" /></clipPath><clipPath id="86"><path id="" clip-rule="evenodd" transform="matrix(1 0 0 1 0 0)" d="M290.706 462.418L289.746 462.418L289.746 462.418L288.786 463.378L288.786 463.378L288.786 508.491L288.786 508.491L289.746 508.491L289.746 508.491L289.746 509.45L289.746 509.45L317.583 509.45L317.583 509.45L318.542 508.491L318.542 508.491L318.542 462.418L318.542 462.418L290.706 462.418" /></clipPath><clipPath id="87"><path id="" clip-rule="evenodd" transform="matrix(1 0 0 1 0 0)" d="M253.5 363L361.5 363L361.5 363L361.5 567L361.5 567L253.5 567z" /></clipPath><clipPath id="88"><path id="" clip-rule="evenodd" transform="matrix(1 0 0 1 0 0)" d="M224.94 359.94L547.32 359.94L547.32 359.94L547.32 568.02L547.32 568.02L224.94 568.02z" /></clipPath><clipPath id="89"><path id="" clip-rule="evenodd" transform="matrix(1 0 0 1 0 0)" d="M0 0.02001953L595.2 0.02001953L595.2 0.02001953L595.2 842L595.2 842L0 842z" /></clipPath><clipPath id="90"><path id="" clip-rule="evenodd" transform="matrix(1 0 0 1 0 0)" d="M311.823 493.133L311.823 486.414L311.823 486.414L318.122 486.414L318.122 486.414L318.122 493.133L318.122 493.133L311.823 493.133" /></clipPath><clipPath id="91"><path id="" clip-rule="evenodd" transform="matrix(1 0 0 1 0 0)" d="M290.227 462.418L289.327 462.418L289.327 462.418L289.327 463.378L289.327 463.378L288.427 464.337L288.427 464.337L288.427 507.531L288.427 507.531L289.327 508.491L289.327 508.491L289.327 509.45L289.327 509.45L318.122 509.45L318.122 509.45L318.122 508.491L318.122 508.491L319.022 508.491L319.022 508.491L319.022 463.378L319.022 463.378L318.122 462.418L318.122 462.418L290.227 462.418" /></clipPath><clipPath id="92"><path id="" clip-rule="evenodd" transform="matrix(1 0 0 1 0 0)" d="M253.5 363L361.5 363L361.5 363L361.5 567L361.5 567L253.5 567z" /></clipPath><clipPath id="93"><path id="" clip-rule="evenodd" transform="matrix(1 0 0 1 0 0)" d="M224.94 359.94L547.32 359.94L547.32 359.94L547.32 568.02L547.32 568.02L224.94 568.02z" /></clipPath><clipPath id="94"><path id="" clip-rule="evenodd" transform="matrix(1 0 0 1 0 0)" d="M0 0.02001953L595.2 0.02001953L595.2 0.02001953L595.2 842L595.2 842L0 842z" /></clipPath><clipPath id="95"><path id="" clip-rule="evenodd" transform="matrix(1 0 0 1 0 0)" d="M288.787 500.812L288.787 494.093L288.787 494.093L295.506 494.093L295.506 494.093L295.506 500.812L295.506 500.812L288.787 500.812" /></clipPath><clipPath id="96"><path id="" clip-rule="evenodd" transform="matrix(1 0 0 1 0 0)" d="M290.707 462.418L289.747 462.418L289.747 462.418L288.787 463.378L288.787 463.378L288.787 508.491L288.787 508.491L289.747 508.491L289.747 508.491L289.747 509.45L289.747 509.45L317.582 509.45L317.582 509.45L318.542 508.491L318.542 508.491L318.542 462.418L318.542 462.418L290.707 462.418" /></clipPath><clipPath id="97"><path id="" clip-rule="evenodd" transform="matrix(1 0 0 1 0 0)" d="M253.5 363L361.5 363L361.5 363L361.5 567L361.5 567L253.5 567z" /></clipPath><clipPath id="98"><path id="" clip-rule="evenodd" transform="matrix(1 0 0 1 0 0)" d="M224.94 359.94L547.32 359.94L547.32 359.94L547.32 568.02L547.32 568.02L224.94 568.02z" /></clipPath><clipPath id="99"><path id="" clip-rule="evenodd" transform="matrix(1 0 0 1 0 0)" d="M0 0.02001953L595.2 0.02001953L595.2 0.02001953L595.2 842L595.2 842L0 842z" /></clipPath><clipPath id="100"><path id="" clip-rule="evenodd" transform="matrix(1 0 0 1 0 0)" d="M296.466 500.812L296.466 494.093L296.466 494.093L303.185 494.093L303.185 494.093L303.185 500.812L303.185 500.812L296.466 500.812" /></clipPath><clipPath id="101"><path id="" clip-rule="evenodd" transform="matrix(1 0 0 1 0 0)" d="M289.747 462.418L288.787 462.418L288.787 462.418L288.787 508.491L288.787 508.491L289.747 509.45L289.747 509.45L317.582 509.45L317.582 509.45L318.542 508.491L318.542 508.491L318.542 462.418L318.542 462.418L289.747 462.418" /></clipPath><clipPath id="102"><path id="" clip-rule="evenodd" transform="matrix(1 0 0 1 0 0)" d="M253.5 363L361.5 363L361.5 363L361.5 567L361.5 567L253.5 567z" /></clipPath><clipPath id="103"><path id="" clip-rule="evenodd" transform="matrix(1 0 0 1 0 0)" d="M224.94 359.94L547.32 359.94L547.32 359.94L547.32 568.02L547.32 568.02L224.94 568.02z" /></clipPath><clipPath id="104"><path id="" clip-rule="evenodd" transform="matrix(1 0 0 1 0 0)" d="M0 0.02001953L595.2 0.02001953L595.2 0.02001953L595.2 842L595.2 842L0 842z" /></clipPath><clipPath id="105"><path id="" clip-rule="evenodd" transform="matrix(1 0 0 1 0 0)" d="M304.144 500.812L304.144 494.093L304.144 494.093L310.864 494.093L310.864 494.093L310.864 500.812L310.864 500.812L304.144 500.812" /></clipPath><clipPath id="106"><path id="" clip-rule="evenodd" transform="matrix(1 0 0 1 0 0)" d="M290.706 462.418L289.746 462.418L289.746 462.418L288.786 463.378L288.786 463.378L288.786 508.491L288.786 508.491L289.746 508.491L289.746 508.491L289.746 509.45L289.746 509.45L317.583 509.45L317.583 509.45L318.542 508.491L318.542 508.491L318.542 462.418L318.542 462.418L290.706 462.418" /></clipPath><clipPath id="107"><path id="" clip-rule="evenodd" transform="matrix(1 0 0 1 0 0)" d="M253.5 363L361.5 363L361.5 363L361.5 567L361.5 567L253.5 567z" /></clipPath><clipPath id="108"><path id="" clip-rule="evenodd" transform="matrix(1 0 0 1 0 0)" d="M224.94 359.94L547.32 359.94L547.32 359.94L547.32 568.02L547.32 568.02L224.94 568.02z" /></clipPath><clipPath id="109"><path id="" clip-rule="evenodd" transform="matrix(1 0 0 1 0 0)" d="M0 0.02001953L595.2 0.02001953L595.2 0.02001953L595.2 842L595.2 842L0 842z" /></clipPath><clipPath id="110"><path id="" clip-rule="evenodd" transform="matrix(1 0 0 1 0 0)" d="M311.823 500.812L311.823 494.093L311.823 494.093L318.122 494.093L318.122 494.093L318.122 500.812L318.122 500.812L311.823 500.812" /></clipPath><clipPath id="111"><path id="" clip-rule="evenodd" transform="matrix(1 0 0 1 0 0)" d="M290.227 462.418L289.327 462.418L289.327 462.418L289.327 463.378L289.327 463.378L288.427 464.337L288.427 464.337L288.427 507.531L288.427 507.531L289.327 508.491L289.327 508.491L289.327 509.45L289.327 509.45L318.122 509.45L318.122 509.45L318.122 508.491L318.122 508.491L319.022 508.491L319.022 508.491L319.022 463.378L319.022 463.378L318.122 462.418L318.122 462.418L290.227 462.418" /></clipPath><clipPath id="112"><path id="" clip-rule="evenodd" transform="matrix(1 0 0 1 0 0)" d="M253.5 363L361.5 363L361.5 363L361.5 567L361.5 567L253.5 567z" /></clipPath><clipPath id="113"><path id="" clip-rule="evenodd" transform="matrix(1 0 0 1 0 0)" d="M224.94 359.94L547.32 359.94L547.32 359.94L547.32 568.02L547.32 568.02L224.94 568.02z" /></clipPath><clipPath id="114"><path id="" clip-rule="evenodd" transform="matrix(1 0 0 1 0 0)" d="M0 0.02001953L595.2 0.02001953L595.2 0.02001953L595.2 842L595.2 842L0 842z" /></clipPath><clipPath id="115"><path id="" clip-rule="evenodd" transform="matrix(1 0 0 1 0 0)" d="M288.787 508.491L288.787 501.772L288.787 501.772L295.506 501.772L295.506 501.772L295.506 508.491L295.506 508.491L288.787 508.491" /></clipPath><clipPath id="116"><path id="" clip-rule="evenodd" transform="matrix(1 0 0 1 0 0)" d="M290.707 462.417L289.747 462.417L289.747 462.417L289.747 463.376L289.747 463.376L288.787 463.376L288.787 463.376L288.787 508.491L288.787 508.491L289.747 508.491L289.747 508.491L289.747 509.451L289.747 509.451L317.582 509.451L317.582 509.451L318.542 508.491L318.542 508.491L318.542 463.376L318.542 463.376L317.582 462.417L317.582 462.417L290.707 462.417" /></clipPath><clipPath id="117"><path id="" clip-rule="evenodd" transform="matrix(1 0 0 1 0 0)" d="M253.5 363L361.5 363L361.5 363L361.5 567L361.5 567L253.5 567z" /></clipPath><clipPath id="118"><path id="" clip-rule="evenodd" transform="matrix(1 0 0 1 0 0)" d="M224.94 359.94L547.32 359.94L547.32 359.94L547.32 568.02L547.32 568.02L224.94 568.02z" /></clipPath><clipPath id="119"><path id="" clip-rule="evenodd" transform="matrix(1 0 0 1 0 0)" d="M0 0.02001953L595.2 0.02001953L595.2 0.02001953L595.2 842L595.2 842L0 842z" /></clipPath><clipPath id="120"><path id="" clip-rule="evenodd" transform="matrix(1 0 0 1 0 0)" d="M296.466 508.491L296.466 501.772L296.466 501.772L303.185 501.772L303.185 501.772L303.185 508.491L303.185 508.491L296.466 508.491" /></clipPath><clipPath id="121"><path id="" clip-rule="evenodd" transform="matrix(1 0 0 1 0 0)" d="M289.747 462.417L288.787 463.376L288.787 463.376L288.787 508.491L288.787 508.491L289.747 509.451L289.747 509.451L317.582 509.451L317.582 509.451L318.542 508.491L318.542 508.491L318.542 463.376L318.542 463.376L317.582 462.417L317.582 462.417L289.747 462.417" /></clipPath><clipPath id="122"><path id="" clip-rule="evenodd" transform="matrix(1 0 0 1 0 0)" d="M253.5 363L361.5 363L361.5 363L361.5 567L361.5 567L253.5 567z" /></clipPath><clipPath id="123"><path id="" clip-rule="evenodd" transform="matrix(1 0 0 1 0 0)" d="M224.94 359.94L547.32 359.94L547.32 359.94L547.32 568.02L547.32 568.02L224.94 568.02z" /></clipPath><clipPath id="124"><path id="" clip-rule="evenodd" transform="matrix(1 0 0 1 0 0)" d="M0 0.02001953L595.2 0.02001953L595.2 0.02001953L595.2 842L595.2 842L0 842z" /></clipPath><clipPath id="125"><path id="" clip-rule="evenodd" transform="matrix(1 0 0 1 0 0)" d="M304.144 508.491L304.144 501.772L304.144 501.772L310.864 501.772L310.864 501.772L310.864 508.491L310.864 508.491L304.144 508.491" /></clipPath><clipPath id="126"><path id="" clip-rule="evenodd" transform="matrix(1 0 0 1 0 0)" d="M290.706 462.417L289.746 462.417L289.746 462.417L289.746 463.376L289.746 463.376L288.786 463.376L288.786 463.376L288.786 508.491L288.786 508.491L289.746 508.491L289.746 508.491L289.746 509.451L289.746 509.451L317.583 509.451L317.583 509.451L318.542 508.491L318.542 508.491L318.542 463.376L318.542 463.376L317.583 462.417L317.583 462.417L290.706 462.417" /></clipPath><clipPath id="127"><path id="" clip-rule="evenodd" transform="matrix(1 0 0 1 0 0)" d="M253.5 363L361.5 363L361.5 363L361.5 567L361.5 567L253.5 567z" /></clipPath><clipPath id="128"><path id="" clip-rule="evenodd" transform="matrix(1 0 0 1 0 0)" d="M224.94 359.94L547.32 359.94L547.32 359.94L547.32 568.02L547.32 568.02L224.94 568.02z" /></clipPath><clipPath id="129"><path id="" clip-rule="evenodd" transform="matrix(1 0 0 1 0 0)" d="M0 0.02001953L595.2 0.02001953L595.2 0.02001953L595.2 842L595.2 842L0 842z" /></clipPath><clipPath id="130"><path id="" clip-rule="evenodd" transform="matrix(1 0 0 1 0 0)" d="M311.823 508.491L311.823 501.772L311.823 501.772L318.122 501.772L318.122 501.772L318.122 508.491L318.122 508.491L311.823 508.491" /></clipPath><clipPath id="131"><path id="" clip-rule="evenodd" transform="matrix(1 0 0 1 0 0)" d="M290.227 462.417L289.327 462.417L289.327 462.417L289.327 463.376L289.327 463.376L288.427 464.336L288.427 464.336L288.427 507.531L288.427 507.531L289.327 508.491L289.327 508.491L289.327 509.451L289.327 509.451L318.122 509.451L318.122 509.451L318.122 508.491L318.122 508.491L319.022 508.491L319.022 508.491L319.022 463.376L319.022 463.376L318.122 463.376L318.122 463.376L318.122 462.417L318.122 462.417L290.227 462.417" /></clipPath><clipPath id="132"><path id="" clip-rule="evenodd" transform="matrix(1 0 0 1 0 0)" d="M253.5 363L361.5 363L361.5 363L361.5 567L361.5 567L253.5 567z" /></clipPath><clipPath id="133"><path id="" clip-rule="evenodd" transform="matrix(1 0 0 1 0 0)" d="M224.94 359.94L547.32 359.94L547.32 359.94L547.32 568.02L547.32 568.02L224.94 568.02z" /></clipPath><clipPath id="134"><path id="" clip-rule="evenodd" transform="matrix(1 0 0 1 0 0)" d="M0 0.02001953L595.2 0.02001953L595.2 0.02001953L595.2 842L595.2 842L0 842z" /></clipPath><clipPath id="135"><path id="" clip-rule="evenodd" transform="matrix(1 0 0 1 0 0)" d="M253.5 363L361.5 363L361.5 363L361.5 567L361.5 567L253.5 567z" /></clipPath><clipPath id="136"><path id="" clip-rule="evenodd" transform="matrix(1 0 0 1 0 0)" d="M224.94 359.94L547.32 359.94L547.32 359.94L547.32 568.02L547.32 568.02L224.94 568.02z" /></clipPath><clipPath id="137"><path id="" clip-rule="evenodd" transform="matrix(1 0 0 1 0 0)" d="M0 0.02001953L595.2 0.02001953L595.2 0.02001953L595.2 842L595.2 842L0 842z" /></clipPath><clipPath id="138"><path id="" clip-rule="evenodd" transform="matrix(1 0 0 1 0 0)" d="M278.828 504.172L278.828 497.452L278.828 497.452L285.547 497.452L285.547 497.452L285.547 504.172L285.547 504.172L278.828 504.172" /></clipPath><clipPath id="139"><path id="" clip-rule="evenodd" transform="matrix(1 0 0 1 0 0)" d="M286.507 504.172L286.507 497.452L286.507 497.452L293.226 497.452L293.226 497.452L293.226 504.172L293.226 504.172L286.507 504.172" /></clipPath><clipPath id="140"><path id="" clip-rule="evenodd" transform="matrix(1 0 0 1 0 0)" d="M294.186 504.172L294.186 497.452L294.186 497.452L300.905 497.452L300.905 497.452L300.905 504.172L300.905 504.172L294.186 504.172" /></clipPath><clipPath id="141"><path id="" clip-rule="evenodd" transform="matrix(1 0 0 1 0 0)" d="M301.865 504.172L301.865 497.452L301.865 497.452L308.584 497.452L308.584 497.452L308.584 504.172L308.584 504.172L301.865 504.172" /></clipPath><clipPath id="142"><path id="" clip-rule="evenodd" transform="matrix(1 0 0 1 0 0)" d="M309.544 504.172L309.544 497.452L309.544 497.452L316.263 497.452L316.263 497.452L316.263 504.172L316.263 504.172L309.544 504.172" /></clipPath><clipPath id="143"><path id="" clip-rule="evenodd" transform="matrix(1 0 0 1 0 0)" d="M317.222 504.172L317.222 497.452L317.222 497.452L323.942 497.452L323.942 497.452L323.942 504.172L323.942 504.172L317.222 504.172" /></clipPath><clipPath id="144"><path id="" clip-rule="evenodd" transform="matrix(1 0 0 1 0 0)" d="M324.902 504.172L324.902 497.452L324.902 497.452L328.621 497.452L328.621 497.452L328.621 504.172L328.621 504.172L324.902 504.172" /></clipPath><clipPath id="145"><path id="" clip-rule="evenodd" transform="matrix(1 0 0 1 0 0)" d="M278.828 511.85L278.828 505.131L278.828 505.131L285.547 505.131L285.547 505.131L285.547 511.85L285.547 511.85L278.828 511.85" /></clipPath><clipPath id="146"><path id="" clip-rule="evenodd" transform="matrix(1 0 0 1 0 0)" d="M286.507 511.85L286.507 505.131L286.507 505.131L293.226 505.131L293.226 505.131L293.226 511.85L293.226 511.85L286.507 511.85" /></clipPath><clipPath id="147"><path id="" clip-rule="evenodd" transform="matrix(1 0 0 1 0 0)" d="M294.186 511.85L294.186 505.131L294.186 505.131L300.905 505.131L300.905 505.131L300.905 511.85L300.905 511.85L294.186 511.85" /></clipPath><clipPath id="148"><path id="" clip-rule="evenodd" transform="matrix(1 0 0 1 0 0)" d="M301.865 511.85L301.865 505.131L301.865 505.131L308.584 505.131L308.584 505.131L308.584 511.85L308.584 511.85L301.865 511.85" /></clipPath><clipPath id="149"><path id="" clip-rule="evenodd" transform="matrix(1 0 0 1 0 0)" d="M309.544 511.85L309.544 505.131L309.544 505.131L316.263 505.131L316.263 505.131L316.263 511.85L316.263 511.85L309.544 511.85" /></clipPath><clipPath id="150"><path id="" clip-rule="evenodd" transform="matrix(1 0 0 1 0 0)" d="M317.222 511.85L317.222 505.131L317.222 505.131L323.942 505.131L323.942 505.131L323.942 511.85L323.942 511.85L317.222 511.85" /></clipPath><clipPath id="151"><path id="" clip-rule="evenodd" transform="matrix(1 0 0 1 0 0)" d="M324.902 511.85L324.902 505.131L324.902 505.131L328.621 505.131L328.621 505.131L328.621 511.85L328.621 511.85L324.902 511.85" /></clipPath><clipPath id="152"><path id="" clip-rule="evenodd" transform="matrix(1 0 0 1 0 0)" d="M278.828 515.81L278.828 512.84L278.828 512.84L285.547 512.84L285.547 512.84L285.547 515.81L285.547 515.81L278.828 515.81" /></clipPath><clipPath id="153"><path id="" clip-rule="evenodd" transform="matrix(1 0 0 1 0 0)" d="M286.507 515.81L286.507 512.84L286.507 512.84L293.226 512.84L293.226 512.84L293.226 515.81L293.226 515.81L286.507 515.81" /></clipPath><clipPath id="154"><path id="" clip-rule="evenodd" transform="matrix(1 0 0 1 0 0)" d="M294.186 515.81L294.186 512.84L294.186 512.84L300.905 512.84L300.905 512.84L300.905 515.81L300.905 515.81L294.186 515.81" /></clipPath><clipPath id="155"><path id="" clip-rule="evenodd" transform="matrix(1 0 0 1 0 0)" d="M301.865 515.81L301.865 512.84L301.865 512.84L308.584 512.84L308.584 512.84L308.584 515.81L308.584 515.81L301.865 515.81" /></clipPath><clipPath id="156"><path id="" clip-rule="evenodd" transform="matrix(1 0 0 1 0 0)" d="M309.544 515.81L309.544 512.84L309.544 512.84L316.263 512.84L316.263 512.84L316.263 515.81L316.263 515.81L309.544 515.81" /></clipPath><clipPath id="157"><path id="" clip-rule="evenodd" transform="matrix(1 0 0 1 0 0)" d="M317.222 515.81L317.222 512.84L317.222 512.84L323.942 512.84L323.942 512.84L323.942 515.81L323.942 515.81L317.222 515.81" /></clipPath><clipPath id="158"><path id="" clip-rule="evenodd" transform="matrix(1 0 0 1 0 0)" d="M324.902 515.81L324.902 512.84L324.902 512.84L328.621 512.84L328.621 512.84L328.621 515.81L328.621 515.81L324.902 515.81" /></clipPath><clipPath id="159"><path id="" clip-rule="evenodd" transform="matrix(1 0 0 1 0 0)" d="M253.5 363L361.5 363L361.5 363L361.5 567L361.5 567L253.5 567z" /></clipPath><clipPath id="160"><path id="" clip-rule="evenodd" transform="matrix(1 0 0 1 0 0)" d="M224.94 359.94L547.32 359.94L547.32 359.94L547.32 568.02L547.32 568.02L224.94 568.02z" /></clipPath><clipPath id="161"><path id="" clip-rule="evenodd" transform="matrix(1 0 0 1 0 0)" d="M0 0.02001953L595.2 0.02001953L595.2 0.02001953L595.2 842L595.2 842L0 842z" /></clipPath><clipPath id="162"><path id="" clip-rule="evenodd" transform="matrix(1 0 0 1 0 0)" d="M224.94 359.94L547.32 359.94L547.32 359.94L547.32 568.02L547.32 568.02L224.94 568.02z" /></clipPath><clipPath id="163"><path id="" clip-rule="evenodd" transform="matrix(1 0 0 1 0 0)" d="M0 0.02001953L595.2 0.02001953L595.2 0.02001953L595.2 842L595.2 842L0 842z" /></clipPath></defs><g transform="matrix(1.333333 0 0 1.333333 0 0)"><g clip-path="url(#1)"><g clip-path="url(#2)"><g clip-path="url(#3)"><g clip-path="url(#4)"><g transform="matrix(0.4782857 0 0 0.4792027 294.84 77.04004)"><g transform="matrix(1 0 0 1 0 0)"><image x="0" y="0" xlink:href="img_207.png" width="140" height="301" /></g></g></g></g></g><g clip-path="url(#5)"><g clip-path="url(#6)"><path id="225" transform="matrix(1 0 0 -1 0 842)" d="M284.7 708.14L284.22 708.08L284.4 707.06L284.88 707.12" stroke="none" fill="#000000" fill-rule="nonzero" /><path id="226" transform="matrix(1 0 0 -1 0 842)" d="M325.68 715.34L326.16 715.4L326.34 714.38L325.86 714.32" stroke="none" fill="#000000" fill-rule="nonzero" /><path id="227" transform="matrix(1 0 0 -1 0 842)" d="M284.7 708.14L284.88 707.12L325.86 714.32L325.68 715.34" stroke="none" fill="#000000" fill-rule="nonzero" /><path id="228" transform="matrix(1 0 0 -1 0 842)" d="M285.9 745.94L285.42 745.88L285.54 744.86L286.02 744.92" stroke="none" fill="#000000" fill-rule="nonzero" /><path id="229" transform="matrix(1 0 0 -1 0 842)" d="M310.08 748.34L310.56 748.4L310.68 747.38L310.2 747.32" stroke="none" fill="#000000" fill-rule="nonzero" /><path id="230" transform="matrix(1 0 0 -1 0 842)" d="M285.9 745.94L286.02 744.92L310.2 747.32L310.08 748.34" stroke="none" fill="#000000" fill-rule="nonzero" /></g></g><g clip-path="url(#7)"><g clip-path="url(#8)"><g clip-path="url(#9)"><g transform="matrix(0.48 0 0 0.4791946 407.58 80.16003)"><g transform="matrix(1 0 0 1 0 0)"><image x="0" y="0" xlink:href="img_208.png" width="130" height="298" /></g></g></g></g></g><g clip-path="url(#10)"><g clip-path="url(#11)"><path id="242" transform="matrix(1 0 0 -1 0 842)" d="M383.88 692.06L383.88 692.36L383.88 692.36L383.82 692.54L383.82 692.54L383.64 692.9L383.64 692.9L383.52 693.02L383.52 693.02L383.46 693.14L383.46 693.14L383.34 693.26L383.34 693.26L382.98 693.44L382.98 693.44L382.8 693.5L382.8 693.5L382.68 693.56L382.68 693.56L382.08 693.56L382.08 693.56L381.96 693.5L381.96 693.5L381.78 693.44L381.78 693.44L381.42 693.26L381.42 693.26L381.3 693.14L381.3 693.14L381.24 693.02L381.24 693.02L381.12 692.9L381.12 692.9L381.06 692.78L381.06 692.78L381 692.66L381 692.66L380.94 692.54L380.94 692.54L380.94 692.36L380.94 692.36L380.88 692.24L380.88 692.24L380.88 691.94L380.88 691.94L380.94 691.76L380.94 691.76L380.94 691.64L380.94 691.64L381 691.52L381 691.52L381.06 691.34L381.06 691.34L381.12 691.22L381.12 691.22L381.24 691.1L381.24 691.1L381.3 691.04L381.3 691.04L381.42 690.92L381.42 690.92L381.54 690.86L381.54 690.86L381.66 690.74L381.66 690.74L381.78 690.68L381.78 690.68L381.96 690.62L381.96 690.62L382.08 690.62L382.08 690.62L382.2 690.56L382.2 690.56L382.56 690.56L382.56 690.56L382.68 690.62L382.68 690.62L382.8 690.62L382.8 690.62L382.98 690.68L382.98 690.68L383.1 690.74L383.1 690.74L383.22 690.86L383.22 690.86L383.34 690.92L383.34 690.92L383.46 691.04L383.46 691.04L383.52 691.1L383.52 691.1L383.64 691.22L383.64 691.22L383.7 691.34L383.7 691.34L383.76 691.52L383.76 691.52L383.82 691.64L383.82 691.64L383.88 691.76L383.88 691.76L383.88 692.06" stroke="none" fill="#000000" fill-rule="evenodd" /><path id="243" transform="matrix(1 0 0 -1 0 842)" d="M382.38 692.06L382.38 697.88L383.04 697.7L400.92 692.54L402.6 692.06L383.04 686.48L382.38 686.3L382.38 686.96L382.74 687.44L400.62 692.54L400.92 691.58L400.62 691.58L382.74 696.74L383.04 697.7L383.4 697.22L383.4 692.06" stroke="none" fill="#000000" fill-rule="nonzero" /><path id="244" transform="matrix(1 0 0 -1 0 842)" d="M382.38 686.96L383.4 686.96L383.4 692.06L382.38 692.06z" stroke="none" fill="#000000" fill-rule="nonzero" /><path id="245" transform="matrix(1 0 0 -1 0 842)" d="M382.86 692.06L382.86 697.22L382.86 697.22L400.74 692.06L400.74 692.06L382.86 686.96" stroke="none" fill="#000000" fill-rule="evenodd" /><path id="246" transform="matrix(1 0 0 -1 0 842)" d="M365.04 690.56L366.54 690.56L366.54 693.56L365.04 693.56z" stroke="none" fill="#000000" fill-rule="nonzero" /><path id="247" transform="matrix(1 0 0 -1 0 842)" d="M366.54 690.56L383.88 690.56L383.88 693.56L366.54 693.56z" stroke="none" fill="#000000" fill-rule="nonzero" /></g></g><g clip-path="url(#12)"><g clip-path="url(#13)"><g clip-path="url(#14)"><path id="248" transform="matrix(1 0 0 -1 0 842)" d="M308.823 475.928L298.745 475.928L298.745 475.928L298.745 477.488L298.745 477.488L308.823 477.488z" stroke="#221E1F" stroke-width="0.96" fill="none" /><path id="250" transform="matrix(1 0 0 -1 0 842)" d="M306.904 472.688L299.825 472.688L299.825 472.688L299.825 475.808L299.825 475.808L306.904 475.808z" stroke="#221E1F" stroke-width="0.96" fill="none" /><path id="252" transform="matrix(1 0 0 -1 0 842)" d="M308.823 466.209L298.745 466.209L298.745 466.209L298.745 472.688L298.745 472.688L308.823 472.688z" stroke="#221E1F" stroke-width="0.96" fill="none" /><path id="254" transform="matrix(1 0 0 -1 0 842)" d="M310.863 438.733L296.825 438.733L296.825 438.733L296.825 465.369L296.825 465.369L310.863 465.369z" stroke="#221E1F" stroke-width="0.96" fill="none" /><path id="256" transform="matrix(1 0 0 -1 0 842)" d="M306.903 425.775L299.824 425.775L299.824 425.775L299.824 438.613L299.824 438.613L306.903 438.613z" stroke="#221E1F" stroke-width="0.96" fill="none" /><path id="258" transform="matrix(1 0 0 -1 0 842)" d="M295.266 463.21L295.386 460.21L295.386 460.21L311.344 461.05L311.344 461.05L311.224 464.05L311.224 464.05L295.266 463.21" stroke="none" fill="#221E1F" fill-rule="evenodd" /><path id="259" transform="matrix(1 0 0 -1 0 842)" d="M295.266 459.971L295.386 456.972L295.386 456.972L311.344 457.811L311.344 457.811L311.224 460.811L311.224 460.811L295.266 459.971" stroke="none" fill="#221E1F" fill-rule="evenodd" /><path id="260" transform="matrix(1 0 0 -1 0 842)" d="M295.266 456.731L295.386 453.732L295.386 453.732L311.344 454.571L311.344 454.571L311.224 457.571L311.224 457.571L295.266 456.731" stroke="none" fill="#221E1F" fill-rule="evenodd" /><path id="261" transform="matrix(1 0 0 -1 0 842)" d="M295.266 452.652L295.386 449.653L295.386 449.653L311.344 450.492L311.344 450.492L311.224 453.492L311.224 453.492L295.266 452.652" stroke="none" fill="#221E1F" fill-rule="evenodd" /><path id="262" transform="matrix(1 0 0 -1 0 842)" d="M295.266 449.412L295.386 446.413L295.386 446.413L311.344 447.253L311.344 447.253L311.224 450.252L311.224 450.252L295.266 449.412" stroke="none" fill="#221E1F" fill-rule="evenodd" /><path id="263" transform="matrix(1 0 0 -1 0 842)" d="M295.266 446.293L295.266 443.293L295.266 443.293L311.224 443.173L311.224 443.173L311.224 446.173L311.224 446.173L295.266 446.293" stroke="none" fill="#221E1F" fill-rule="evenodd" /><path id="264" transform="matrix(1 0 0 -1 0 842)" d="M294.306 442.213L294.426 439.214L294.426 439.214L311.344 440.053L311.344 440.053L311.224 443.053L311.224 443.053L294.306 442.213" stroke="none" fill="#221E1F" fill-rule="evenodd" /><path id="265" transform="matrix(1 0 0 -1 0 842)" d="M286.387 426.136L286.387 396.26L286.387 396.26L288.307 380.782L288.307 380.782L318.182 380.782L318.182 380.782L319.262 396.26L319.262 396.26L319.262 426.136L319.262 426.136L286.387 426.136z" stroke="#221E1F" stroke-width="0.96" fill="none" /></g></g></g><g clip-path="url(#15)"><g clip-path="url(#16)"><g clip-path="url(#17)"><g clip-path="url(#18)"><g clip-path="url(#19)"><g transform="matrix(0.95985 0 0 -0.9598875 288.787 471.0561)"><g transform="matrix(1 0 0 1 0 0)"><image x="0" y="0" xlink:href="img_77.png" width="8" height="8" /></g></g></g></g></g></g></g><g clip-path="url(#20)"><g clip-path="url(#21)"><g clip-path="url(#22)"><g clip-path="url(#23)"><g clip-path="url(#24)"><g transform="matrix(0.95985 0 0 -0.9598875 296.466 471.0561)"><g transform="matrix(1 0 0 1 0 0)"><image x="0" y="0" xlink:href="img_77.png" width="8" height="8" /></g></g></g></g></g></g></g><g clip-path="url(#25)"><g clip-path="url(#26)"><g clip-path="url(#27)"><g clip-path="url(#28)"><g clip-path="url(#29)"><g transform="matrix(0.9598875 0 0 -0.9598875 304.144 471.0561)"><g transform="matrix(1 0 0 1 0 0)"><image x="0" y="0" xlink:href="img_77.png" width="8" height="8" /></g></g></g></g></g></g></g><g clip-path="url(#30)"><g clip-path="url(#31)"><g clip-path="url(#32)"><g clip-path="url(#33)"><g clip-path="url(#34)"><g transform="matrix(0.8998625 0 0 -0.9598875 311.823 471.0561)"><g transform="matrix(1 0 0 1 0 0)"><image x="0" y="0" xlink:href="img_77.png" width="8" height="8" /></g></g></g></g></g></g></g><g clip-path="url(#35)"><g clip-path="url(#36)"><g clip-path="url(#37)"><g clip-path="url(#38)"><g clip-path="url(#39)"><g transform="matrix(0.95985 0 0 -0.95985 288.787 478.7348)"><g transform="matrix(1 0 0 1 0 0)"><image x="0" y="0" xlink:href="img_77.png" width="8" height="8" /></g></g></g></g></g></g></g><g clip-path="url(#40)"><g clip-path="url(#41)"><g clip-path="url(#42)"><g clip-path="url(#43)"><g clip-path="url(#44)"><g transform="matrix(0.95985 0 0 -0.95985 296.466 478.7348)"><g transform="matrix(1 0 0 1 0 0)"><image x="0" y="0" xlink:href="img_77.png" width="8" height="8" /></g></g></g></g></g></g></g><g clip-path="url(#45)"><g clip-path="url(#46)"><g clip-path="url(#47)"><g clip-path="url(#48)"><g clip-path="url(#49)"><g transform="matrix(0.9598875 0 0 -0.95985 304.144 478.7348)"><g transform="matrix(1 0 0 1 0 0)"><image x="0" y="0" xlink:href="img_77.png" width="8" height="8" /></g></g></g></g></g></g></g><g clip-path="url(#50)"><g clip-path="url(#51)"><g clip-path="url(#52)"><g clip-path="url(#53)"><g clip-path="url(#54)"><g transform="matrix(0.8998625 0 0 -0.95985 311.823 478.7348)"><g transform="matrix(1 0 0 1 0 0)"><image x="0" y="0" xlink:href="img_77.png" width="8" height="8" /></g></g></g></g></g></g></g><g clip-path="url(#55)"><g clip-path="url(#56)"><g clip-path="url(#57)"><g clip-path="url(#58)"><g clip-path="url(#59)"><g transform="matrix(0.95985 0 0 -0.9598875 288.787 486.4141)"><g transform="matrix(1 0 0 1 0 0)"><image x="0" y="0" xlink:href="img_77.png" width="8" height="8" /></g></g></g></g></g></g></g><g clip-path="url(#60)"><g clip-path="url(#61)"><g clip-path="url(#62)"><g clip-path="url(#63)"><g clip-path="url(#64)"><g transform="matrix(0.95985 0 0 -0.9598875 296.466 486.4141)"><g transform="matrix(1 0 0 1 0 0)"><image x="0" y="0" xlink:href="img_77.png" width="8" height="8" /></g></g></g></g></g></g></g><g clip-path="url(#65)"><g clip-path="url(#66)"><g clip-path="url(#67)"><g clip-path="url(#68)"><g clip-path="url(#69)"><g transform="matrix(0.9598875 0 0 -0.9598875 304.144 486.4141)"><g transform="matrix(1 0 0 1 0 0)"><image x="0" y="0" xlink:href="img_77.png" width="8" height="8" /></g></g></g></g></g></g></g><g clip-path="url(#70)"><g clip-path="url(#71)"><g clip-path="url(#72)"><g clip-path="url(#73)"><g clip-path="url(#74)"><g transform="matrix(0.8998625 0 0 -0.9598875 311.823 486.4141)"><g transform="matrix(1 0 0 1 0 0)"><image x="0" y="0" xlink:href="img_77.png" width="8" height="8" /></g></g></g></g></g></g></g><g clip-path="url(#75)"><g clip-path="url(#76)"><g clip-path="url(#77)"><g clip-path="url(#78)"><g clip-path="url(#79)"><g transform="matrix(0.95985 0 0 -0.95985 288.787 494.0928)"><g transform="matrix(1 0 0 1 0 0)"><image x="0" y="0" xlink:href="img_77.png" width="8" height="8" /></g></g></g></g></g></g></g><g clip-path="url(#80)"><g clip-path="url(#81)"><g clip-path="url(#82)"><g clip-path="url(#83)"><g clip-path="url(#84)"><g transform="matrix(0.95985 0 0 -0.95985 296.466 494.0928)"><g transform="matrix(1 0 0 1 0 0)"><image x="0" y="0" xlink:href="img_77.png" width="8" height="8" /></g></g></g></g></g></g></g><g clip-path="url(#85)"><g clip-path="url(#86)"><g clip-path="url(#87)"><g clip-path="url(#88)"><g clip-path="url(#89)"><g transform="matrix(0.9598875 0 0 -0.95985 304.144 494.0928)"><g transform="matrix(1 0 0 1 0 0)"><image x="0" y="0" xlink:href="img_77.png" width="8" height="8" /></g></g></g></g></g></g></g><g clip-path="url(#90)"><g clip-path="url(#91)"><g clip-path="url(#92)"><g clip-path="url(#93)"><g clip-path="url(#94)"><g transform="matrix(0.8998625 0 0 -0.95985 311.823 494.0928)"><g transform="matrix(1 0 0 1 0 0)"><image x="0" y="0" xlink:href="img_77.png" width="8" height="8" /></g></g></g></g></g></g></g><g clip-path="url(#95)"><g clip-path="url(#96)"><g clip-path="url(#97)"><g clip-path="url(#98)"><g clip-path="url(#99)"><g transform="matrix(0.95985 0 0 -0.95985 288.787 501.7718)"><g transform="matrix(1 0 0 1 0 0)"><image x="0" y="0" xlink:href="img_77.png" width="8" height="8" /></g></g></g></g></g></g></g><g clip-path="url(#100)"><g clip-path="url(#101)"><g clip-path="url(#102)"><g clip-path="url(#103)"><g clip-path="url(#104)"><g transform="matrix(0.95985 0 0 -0.95985 296.466 501.7718)"><g transform="matrix(1 0 0 1 0 0)"><image x="0" y="0" xlink:href="img_77.png" width="8" height="8" /></g></g></g></g></g></g></g><g clip-path="url(#105)"><g clip-path="url(#106)"><g clip-path="url(#107)"><g clip-path="url(#108)"><g clip-path="url(#109)"><g transform="matrix(0.9598875 0 0 -0.95985 304.144 501.7718)"><g transform="matrix(1 0 0 1 0 0)"><image x="0" y="0" xlink:href="img_77.png" width="8" height="8" /></g></g></g></g></g></g></g><g clip-path="url(#110)"><g clip-path="url(#111)"><g clip-path="url(#112)"><g clip-path="url(#113)"><g clip-path="url(#114)"><g transform="matrix(0.8998625 0 0 -0.95985 311.823 501.7718)"><g transform="matrix(1 0 0 1 0 0)"><image x="0" y="0" xlink:href="img_77.png" width="8" height="8" /></g></g></g></g></g></g></g><g clip-path="url(#115)"><g clip-path="url(#116)"><g clip-path="url(#117)"><g clip-path="url(#118)"><g clip-path="url(#119)"><g transform="matrix(0.95985 0 0 -0.9598875 288.787 509.4511)"><g transform="matrix(1 0 0 1 0 0)"><image x="0" y="0" xlink:href="img_77.png" width="8" height="8" /></g></g></g></g></g></g></g><g clip-path="url(#120)"><g clip-path="url(#121)"><g clip-path="url(#122)"><g clip-path="url(#123)"><g clip-path="url(#124)"><g transform="matrix(0.95985 0 0 -0.9598875 296.466 509.4511)"><g transform="matrix(1 0 0 1 0 0)"><image x="0" y="0" xlink:href="img_77.png" width="8" height="8" /></g></g></g></g></g></g></g><g clip-path="url(#125)"><g clip-path="url(#126)"><g clip-path="url(#127)"><g clip-path="url(#128)"><g clip-path="url(#129)"><g transform="matrix(0.9598875 0 0 -0.9598875 304.144 509.4511)"><g transform="matrix(1 0 0 1 0 0)"><image x="0" y="0" xlink:href="img_77.png" width="8" height="8" /></g></g></g></g></g></g></g><g clip-path="url(#130)"><g clip-path="url(#131)"><g clip-path="url(#132)"><g clip-path="url(#133)"><g clip-path="url(#134)"><g transform="matrix(0.8998625 0 0 -0.9598875 311.823 509.4511)"><g transform="matrix(1 0 0 1 0 0)"><image x="0" y="0" xlink:href="img_77.png" width="8" height="8" /></g></g></g></g></g></g></g><g clip-path="url(#135)"><g clip-path="url(#136)"><g clip-path="url(#137)"><path id="290" transform="matrix(1 0 0 -1 0 842)" d="M290.227 379.582L289.747 379.462L289.747 379.462L289.267 379.102L289.267 379.102L288.907 378.622L288.907 378.622L288.787 378.022L288.787 378.022L288.787 334.229L288.787 334.229L288.907 333.629L288.907 333.629L289.267 333.149L289.267 333.149L289.747 332.909L289.747 332.909L290.227 332.789L290.227 332.789L317.343 332.789L317.343 332.789L317.823 332.909L317.823 332.909L318.303 333.149L318.303 333.149L318.663 333.629L318.663 333.629L318.783 334.229L318.783 334.229L318.783 378.022L318.783 378.022L318.663 378.622L318.663 378.622L318.303 379.102L318.303 379.102L317.823 379.462L317.823 379.462L317.343 379.582L317.343 379.582L290.227 379.582z" stroke="#221E1F" stroke-width="0.96" fill="none" /></g></g></g><g clip-path="url(#138)"><g transform="matrix(0.9598875 0 0 -0.9598875 278.828 505.1311)"><g transform="matrix(1 0 0 1 0 0)"><image x="0" y="0" xlink:href="img_209.png" width="8" height="8" /></g></g></g><g clip-path="url(#139)"><g transform="matrix(0.95985 0 0 -0.9598875 286.507 505.1311)"><g transform="matrix(1 0 0 1 0 0)"><image x="0" y="0" xlink:href="img_209.png" width="8" height="8" /></g></g></g><g clip-path="url(#140)"><g transform="matrix(0.9598875 0 0 -0.9598875 294.186 505.1311)"><g transform="matrix(1 0 0 1 0 0)"><image x="0" y="0" xlink:href="img_209.png" width="8" height="8" /></g></g></g><g clip-path="url(#141)"><g transform="matrix(0.95985 0 0 -0.9598875 301.865 505.1311)"><g transform="matrix(1 0 0 1 0 0)"><image x="0" y="0" xlink:href="img_209.png" width="8" height="8" /></g></g></g><g clip-path="url(#142)"><g transform="matrix(0.95985 0 0 -0.9598875 309.544 505.1311)"><g transform="matrix(1 0 0 1 0 0)"><image x="0" y="0" xlink:href="img_209.png" width="8" height="8" /></g></g></g><g clip-path="url(#143)"><g transform="matrix(0.9598875 0 0 -0.9598875 317.222 505.1311)"><g transform="matrix(1 0 0 1 0 0)"><image x="0" y="0" xlink:href="img_209.png" width="8" height="8" /></g></g></g><g clip-path="url(#144)"><g transform="matrix(0.9298601 0 0 -0.9598875 324.902 505.1311)"><g transform="matrix(1 0 0 1 0 0)"><image x="0" y="0" xlink:href="img_210.png" width="5" height="8" /></g></g></g><g clip-path="url(#145)"><g transform="matrix(0.9598875 0 0 -0.95985 278.828 512.8098)"><g transform="matrix(1 0 0 1 0 0)"><image x="0" y="0" xlink:href="img_209.png" width="8" height="8" /></g></g></g><g clip-path="url(#146)"><g transform="matrix(0.95985 0 0 -0.95985 286.507 512.8098)"><g transform="matrix(1 0 0 1 0 0)"><image x="0" y="0" xlink:href="img_209.png" width="8" height="8" /></g></g></g><g clip-path="url(#147)"><g transform="matrix(0.9598875 0 0 -0.95985 294.186 512.8098)"><g transform="matrix(1 0 0 1 0 0)"><image x="0" y="0" xlink:href="img_209.png" width="8" height="8" /></g></g></g><g clip-path="url(#148)"><g transform="matrix(0.95985 0 0 -0.95985 301.865 512.8098)"><g transform="matrix(1 0 0 1 0 0)"><image x="0" y="0" xlink:href="img_209.png" width="8" height="8" /></g></g></g><g clip-path="url(#149)"><g transform="matrix(0.95985 0 0 -0.95985 309.544 512.8098)"><g transform="matrix(1 0 0 1 0 0)"><image x="0" y="0" xlink:href="img_209.png" width="8" height="8" /></g></g></g><g clip-path="url(#150)"><g transform="matrix(0.9598875 0 0 -0.95985 317.222 512.8098)"><g transform="matrix(1 0 0 1 0 0)"><image x="0" y="0" xlink:href="img_209.png" width="8" height="8" /></g></g></g><g clip-path="url(#151)"><g transform="matrix(0.9298601 0 0 -0.95985 324.902 512.8098)"><g transform="matrix(1 0 0 1 0 0)"><image x="0" y="0" xlink:href="img_210.png" width="5" height="8" /></g></g></g><g clip-path="url(#152)"><g transform="matrix(0.9598875 0 0 -0.989825 278.828 516.7993)"><g transform="matrix(1 0 0 1 0 0)"><image x="0" y="0" xlink:href="img_211.png" width="8" height="4" /></g></g></g><g clip-path="url(#153)"><g transform="matrix(0.95985 0 0 -0.989825 286.507 516.7993)"><g transform="matrix(1 0 0 1 0 0)"><image x="0" y="0" xlink:href="img_211.png" width="8" height="4" /></g></g></g><g clip-path="url(#154)"><g transform="matrix(0.9598875 0 0 -0.989825 294.186 516.7993)"><g transform="matrix(1 0 0 1 0 0)"><image x="0" y="0" xlink:href="img_211.png" width="8" height="4" /></g></g></g><g clip-path="url(#155)"><g transform="matrix(0.95985 0 0 -0.989825 301.865 516.7993)"><g transform="matrix(1 0 0 1 0 0)"><image x="0" y="0" xlink:href="img_211.png" width="8" height="4" /></g></g></g><g clip-path="url(#156)"><g transform="matrix(0.95985 0 0 -0.989825 309.544 516.7993)"><g transform="matrix(1 0 0 1 0 0)"><image x="0" y="0" xlink:href="img_211.png" width="8" height="4" /></g></g></g><g clip-path="url(#157)"><g transform="matrix(0.9598875 0 0 -0.989825 317.222 516.7993)"><g transform="matrix(1 0 0 1 0 0)"><image x="0" y="0" xlink:href="img_211.png" width="8" height="4" /></g></g></g><g clip-path="url(#158)"><g transform="matrix(0.9298601 0 0 -0.989825 324.902 516.7993)"><g transform="matrix(1 0 0 1 0 0)"><image x="0" y="0" xlink:href="img_212.png" width="5" height="4" /></g></g></g><g clip-path="url(#159)"><g clip-path="url(#160)"><g clip-path="url(#161)"><path id="312" transform="matrix(1 0 0 -1 0 842)" d="M328.741 326.07L278.828 326.07L278.828 326.07L278.828 345.507L278.828 345.507L328.741 345.507z" stroke="#221E1F" stroke-width="0.96" fill="none" /><path id="314" transform="matrix(1 0 0 -1 0 842)" d="M281.348 326.55L281.348 278.797L281.348 278.797L282.308 278.797L282.308 278.797L282.308 277.957L282.308 277.957L285.307 277.957L285.307 277.957L286.387 278.797L286.387 278.797L291.306 278.797L291.306 278.797L293.226 279.637L293.226 279.637L298.266 279.637L298.266 279.637L299.225 278.797L299.225 278.797L300.305 278.797L300.305 278.797L305.225 277.957L305.225 277.957L307.264 277.957L307.264 277.957L309.184 277.117L309.184 277.117L318.183 277.117L318.183 277.117L319.263 276.397L319.263 276.397L324.182 276.397L324.182 276.397L324.182 277.117L324.182 277.117L325.261 277.117L325.261 277.117L325.261 326.55" stroke="#221E1F" stroke-width="0.96" fill="none" /><path id="315" transform="matrix(1 0 0 -1 0 842)" d="M297.786 439.094L294.786 439.094L294.786 439.094L294.786 437.534L294.786 437.534L296.226 437.534L296.226 437.534L296.226 438.974L296.226 438.974L295.626 438.854L295.626 438.854L295.146 438.614L295.146 438.614L294.906 438.134L294.906 438.134L296.226 438.974L296.226 438.974L294.306 438.974L294.306 438.974L293.707 438.854L293.707 438.854L293.227 438.614L293.227 438.614L292.987 438.134L292.987 438.134L292.867 437.534L292.867 437.534L292.867 436.694L292.867 436.694L294.306 436.694L294.306 436.694L293.227 437.774L293.227 437.774L292.987 437.295L292.987 437.295L293.467 437.774L293.467 437.774L292.387 436.934L292.387 436.934L292.147 436.934L292.147 436.934L291.907 436.455L291.907 436.455L291.787 435.855L291.787 435.855L291.787 426.136L291.787 426.136L294.786 426.136L294.786 426.136L294.786 435.855L294.786 435.855L294.306 434.775L294.306 434.775L294.546 435.255L294.546 435.255L294.666 435.855L294.666 435.855L293.227 435.855L293.227 435.855L294.186 434.655L294.186 434.655L295.266 435.495L295.266 435.495L295.386 435.615L295.386 435.615L295.626 436.095L295.626 436.095L295.746 436.694L295.746 436.694L295.866 436.694L295.866 436.694L295.866 437.534L295.866 437.534L294.306 436.095L294.306 436.095L294.906 436.214L294.906 436.214L295.386 436.455L295.386 436.455L295.626 436.934L295.626 436.934L295.746 437.534L295.746 437.534L294.306 437.534L294.306 437.534L294.306 435.975L294.306 435.975L296.226 435.975L296.226 435.975L296.226 436.095L296.226 436.095L296.826 436.214L296.826 436.214L297.306 436.455L297.306 436.455L297.546 436.934L297.546 436.934L297.666 437.534L297.666 437.534L297.786 437.534L297.786 437.534L297.786 439.094" stroke="none" fill="#221E1F" fill-rule="evenodd" /><path id="316" transform="matrix(1 0 0 -1 0 842)" d="M310.743 439.094L307.744 439.094L307.744 439.094L307.744 437.534L307.744 437.534L307.863 436.934L307.863 436.934L308.104 436.455L308.104 436.455L308.583 436.214L308.583 436.214L309.183 435.975L309.183 435.975L311.223 435.975L311.223 435.975L311.223 437.534L311.223 437.534L309.783 437.534L309.783 437.534L309.903 436.934L309.903 436.934L310.143 436.455L310.143 436.455L310.623 436.214L310.623 436.214L309.783 437.534L309.783 437.534L309.783 436.694L309.783 436.694L309.903 436.095L309.903 436.095L310.143 435.615L310.143 435.615L310.263 435.495L310.263 435.495L311.223 434.655L311.223 434.655L312.183 435.855L312.183 435.855L310.743 435.855L310.743 435.855L310.863 435.255L310.863 435.255L311.103 434.775L311.103 434.775L310.743 435.855L310.743 435.855L310.743 426.136L310.743 426.136L313.743 426.136L313.743 426.136L313.743 435.855L313.743 435.855L313.623 435.855L313.623 435.855L313.503 436.455L313.503 436.455L313.263 436.934L313.263 436.934L313.143 436.934L313.143 436.934L312.183 437.774L312.183 437.774L312.663 436.694L312.663 436.694L312.543 437.295L312.543 437.295L312.303 437.774L312.303 437.774L311.223 436.694L311.223 436.694L312.783 436.694L312.783 436.694L312.783 437.534L312.783 437.534L312.663 437.534L312.663 437.534L312.543 438.134L312.543 438.134L312.303 438.614L312.303 438.614L311.823 438.854L311.823 438.854L311.223 438.974L311.223 438.974L309.183 438.974L309.183 438.974L310.623 437.534L310.623 437.534L310.503 438.134L310.503 438.134L310.263 438.614L310.263 438.614L309.783 438.854L309.783 438.854L309.183 437.534L309.183 437.534L310.743 437.534L310.743 437.534L310.743 439.094" stroke="none" fill="#221E1F" fill-rule="evenodd" /><path id="317" transform="matrix(1 0 0 -1 0 842)" d="M310.264 477.968L361.137 477.968" stroke="#221E1F" stroke-width="0.96" fill="none" /><path id="318" transform="matrix(1 0 0 -1 0 842)" d="M360.177 458.531L311.224 458.531" stroke="#221E1F" stroke-width="0.96" fill="none" /><path id="319" transform="matrix(1 0 0 -1 0 842)" d="M316.263 426.976L360.177 444.014" stroke="#221E1F" stroke-width="0.96" fill="none" /><path id="320" transform="matrix(1 0 0 -1 0 842)" d="M359.097 409.938L311.224 409.938" stroke="#221E1F" stroke-width="0.96" fill="none" /><path id="321" transform="matrix(1 0 0 -1 0 842)" d="M357.177 364.585L313.264 364.585" stroke="#221E1F" stroke-width="0.96" fill="none" /><path id="322" transform="matrix(1 0 0 -1 0 842)" d="M358.137 338.668L320.223 338.668" stroke="#221E1F" stroke-width="0.96" fill="none" /><path id="323" transform="matrix(1 0 0 -1 0 842)" d="M358.137 304.713L320.223 304.593" stroke="#221E1F" stroke-width="0.96" fill="none" /><path id="324" transform="matrix(1 0 0 -1 0 842)" d="M254.472 444.853L293.226 435.854" stroke="#221E1F" stroke-width="0.96" fill="none" /><path id="325" transform="matrix(1 0 0 -1 0 842)" d="M259.391 433.454L302.225 430.214" stroke="#221E1F" stroke-width="0.96" fill="none" /></g></g></g><g clip-path="url(#162)"><g clip-path="url(#163)"></g></g></g></g></svg>