<svg xmlns="http://www.w3.org/2000/svg" xmlns:xlink="http://www.w3.org/1999/xlink" id="body_185" preserveAspectRatio="xMinYMin meet" viewBox="0 0 793 1123"><defs><clipPath id="1"><path id="" clip-rule="evenodd" transform="matrix(1 0 0 1 0 0)" d="M0 842L0 0L0 0L595 0L595 0L595 842L595 842L0 842z" /></clipPath><clipPath id="2"><path id="" clip-rule="evenodd" transform="matrix(1 0 0 1 0 0)" d="M225.96 129L461.16 129L461.16 129L461.16 253.8L461.16 253.8L225.96 253.8z" /></clipPath><clipPath id="3"><path id="" clip-rule="evenodd" transform="matrix(1 0 0 1 0 0)" d="M224.94 128.04L556.56 128.04L556.56 128.04L556.56 262.3199L556.56 262.3199L224.94 262.3199z" /></clipPath><clipPath id="4"><path id="" clip-rule="evenodd" transform="matrix(1 0 0 1 0 0)" d="M0 0.02001953L595.2 0.02001953L595.2 0.02001953L595.2 842L595.2 842L0 842z" /></clipPath><clipPath id="5"><path id="" clip-rule="evenodd" transform="matrix(1 0 0 1 0 0)" d="M224.94 128.04L556.56 128.04L556.56 128.04L556.56 262.3199L556.56 262.3199L224.94 262.3199z" /></clipPath><clipPath id="6"><path id="" clip-rule="evenodd" transform="matrix(1 0 0 1 0 0)" d="M0 0.02001953L595.2 0.02001953L595.2 0.02001953L595.2 842L595.2 842L0 842z" /></clipPath><clipPath id="7"><path id="" clip-rule="evenodd" transform="matrix(1 0 0 1 0 0)" d="M224.94 368.88L532.02 368.88L532.02 368.88L532.02 496.92L532.02 496.92L224.94 496.92z" /></clipPath><clipPath id="8"><path id="" clip-rule="evenodd" transform="matrix(1 0 0 1 0 0)" d="M0 0.02001953L595.2 0.02001953L595.2 0.02001953L595.2 842L595.2 842L0 842z" /></clipPath><clipPath id="9"><path id="" clip-rule="evenodd" transform="matrix(1 0 0 1 0 0)" d="M225.96 369.9L425.22 369.9L425.22 369.9L425.22 495.9L425.22 495.9L225.96 495.9z" /></clipPath><clipPath id="10"><path id="" clip-rule="evenodd" transform="matrix(1 0 0 1 0 0)" d="M224.94 368.88L532.02 368.88L532.02 368.88L532.02 496.92L532.02 496.92L224.94 496.92z" /></clipPath><clipPath id="11"><path id="" clip-rule="evenodd" transform="matrix(1 0 0 1 0 0)" d="M0 0.02001953L595.2 0.02001953L595.2 0.02001953L595.2 842L595.2 842L0 842z" /></clipPath><clipPath id="12"><path id="" clip-rule="evenodd" transform="matrix(1 0 0 1 0 0)" d="M224.94 368.88L532.02 368.88L532.02 368.88L532.02 496.92L532.02 496.92L224.94 496.92z" /></clipPath><clipPath id="13"><path id="" clip-rule="evenodd" transform="matrix(1 0 0 1 0 0)" d="M0 0.02001953L595.2 0.02001953L595.2 0.02001953L595.2 842L595.2 842L0 842z" /></clipPath><clipPath id="14"><path id="" clip-rule="evenodd" transform="matrix(1 0 0 1 0 0)" d="M124.56 545.88L202.98 545.88L202.98 545.88L202.98 560.28L202.98 560.28L124.56 560.28z" /></clipPath><clipPath id="15"><path id="" clip-rule="evenodd" transform="matrix(1 0 0 1 0 0)" d="M0 0.02001953L595.2 0.02001953L595.2 0.02001953L595.2 842L595.2 842L0 842z" /></clipPath><clipPath id="16"><path id="" clip-rule="evenodd" transform="matrix(1 0 0 1 0 0)" d="M124.8 545.94L200.04 545.94L200.04 545.94L200.04 560.1L200.04 560.1L124.8 560.1z" /></clipPath><clipPath id="17"><path id="" clip-rule="evenodd" transform="matrix(1 0 0 1 0 0)" d="M124.56 545.88L202.98 545.88L202.98 545.88L202.98 560.28L202.98 560.28L124.56 560.28z" /></clipPath><clipPath id="18"><path id="" clip-rule="evenodd" transform="matrix(1 0 0 1 0 0)" d="M0 0.02001953L595.2 0.02001953L595.2 0.02001953L595.2 842L595.2 842L0 842z" /></clipPath></defs><g transform="matrix(1.333333 0 0 1.333333 0 0)"><g clip-path="url(#1)"><g clip-path="url(#2)"><g clip-path="url(#3)"><g clip-path="url(#4)"><g transform="matrix(0.48 0 0 0.48 225.96 129)"><g transform="matrix(1 0 0 1 0 0)"><image x="0" y="0" xlink:href="img_497.png" width="490" height="260" /></g></g></g></g></g><g clip-path="url(#5)"><g clip-path="url(#6)"><path id="282" transform="matrix(1 0 0 -1 0 842)" d="M391.86 636.92L393.24 633.74L393.48 633.14L392.88 633.02L380.46 631.28L378.72 631.04L380.04 632.18L389.64 640.28L390.18 640.7L390.42 640.1L390.3 639.5L380.7 631.4L380.04 632.18L380.34 632.3L392.76 634.04L392.88 633.02L392.34 633.32L390.96 636.5" stroke="none" fill="#FF0000" fill-rule="nonzero" /><path id="283" transform="matrix(1 0 0 -1 0 842)" d="M390.42 640.1L391.86 636.92L390.96 636.5L389.52 639.68" stroke="none" fill="#FF0000" fill-rule="nonzero" /><path id="284" transform="matrix(1 0 0 -1 0 842)" d="M391.44 636.74L392.82 633.56L392.82 633.56L380.4 631.82L380.4 631.82L390 639.92" stroke="none" fill="#FF0000" fill-rule="evenodd" /><path id="285" transform="matrix(1 0 0 -1 0 842)" d="M467.94 670.22L467.52 671.18L391.68 637.46L392.1 636.5" stroke="none" fill="#FF0000" fill-rule="nonzero" /></g></g><g clip-path="url(#7)"><g clip-path="url(#8)"><path id="292" transform="matrix(1 0 0 -1 0 842)" d="M224.94 345.08L532.02 345.08L532.02 473.12L224.94 473.12z" stroke="none" fill="#FFFFFF" fill-rule="nonzero" /></g></g><g clip-path="url(#9)"><g clip-path="url(#10)"><g clip-path="url(#11)"><g transform="matrix(0.4792812 0 0 0.4790874 225.96 369.9)"><g transform="matrix(1 0 0 1 0 0)"><image x="0" y="0" xlink:href="img_498.png" width="416" height="263" /></g></g></g></g></g><g clip-path="url(#12)"><g clip-path="url(#13)"><path id="294" transform="matrix(1 0 0 -1 0 842)" d="M369.78 393.02L370.86 389.72L371.04 389.12L370.38 389.06L357.78 388.64L356.04 388.58L357.48 389.6L367.92 396.62L368.46 396.98L368.7 396.32L368.46 395.78L358.02 388.76L357.48 389.6L357.72 389.66L370.32 390.08L370.38 389.06L369.84 389.42L368.76 392.72" stroke="none" fill="#FF0000" fill-rule="nonzero" /><path id="295" transform="matrix(1 0 0 -1 0 842)" d="M368.7 396.32L369.78 393.02L368.76 392.72L367.68 396.02" stroke="none" fill="#FF0000" fill-rule="nonzero" /><path id="296" transform="matrix(1 0 0 -1 0 842)" d="M369.3 392.9L370.38 389.6L370.38 389.6L357.78 389.18L357.78 389.18L368.22 396.2" stroke="none" fill="#FF0000" fill-rule="evenodd" /><path id="297" transform="matrix(1 0 0 -1 0 842)" d="M453.36 419.9L453.06 420.86L369.66 393.56L369.96 392.6" stroke="none" fill="#FF0000" fill-rule="nonzero" /></g></g><g clip-path="url(#14)"><g clip-path="url(#15)"><path id="304" transform="matrix(1 0 0 -1 0 842)" d="M124.56 281.72L202.98 281.72L202.98 296.12L124.56 296.12z" stroke="none" fill="#FFFFFF" fill-rule="nonzero" /></g></g><g clip-path="url(#16)"><g clip-path="url(#17)"><g clip-path="url(#18)"><g transform="matrix(0.7449505 0 0 0.7452632 124.8 545.94)"><g transform="matrix(1 0 0 1 0 0)"><image x="0" y="0" xlink:href="img_275.png" width="101" height="19" /></g></g></g></g></g><path id="306" transform="matrix(1 0 0 -1 0 842)" d="M242.94 300.08L557.28 300.08L557.28 266.12L242.94 266.12" stroke="none" fill="#ECF5FC" fill-rule="nonzero" /></g></g></svg>