<svg xmlns="http://www.w3.org/2000/svg" xmlns:xlink="http://www.w3.org/1999/xlink" id="body_244" preserveAspectRatio="xMinYMin meet" viewBox="0 0 793 1123"><defs><clipPath id="1"><path id="" clip-rule="evenodd" transform="matrix(1 0 0 1 0 0)" d="M0 842L0 0L0 0L595 0L595 0L595 842L595 842L0 842z" /></clipPath><clipPath id="2"><path id="" clip-rule="evenodd" transform="matrix(1 0 0 1 0 0)" d="M225.96 77.03998L363.84 77.03998L363.84 77.03998L363.84 176.16L363.84 176.16L225.96 176.16z" /></clipPath><clipPath id="3"><path id="" clip-rule="evenodd" transform="matrix(1 0 0 1 0 0)" d="M224.94 76.02002L551.82 76.02002L551.82 76.02002L551.82 177.1801L551.82 177.1801L224.94 177.1801z" /></clipPath><clipPath id="4"><path id="" clip-rule="evenodd" transform="matrix(1 0 0 1 0 0)" d="M0 0.02001953L595.2 0.02001953L595.2 0.02001953L595.2 842L595.2 842L0 842z" /></clipPath><clipPath id="5"><path id="" clip-rule="evenodd" transform="matrix(1 0 0 1 0 0)" d="M413.28 79.44L550.8 79.44L550.8 79.44L550.8 173.82L550.8 173.82L413.28 173.82z" /></clipPath><clipPath id="6"><path id="" clip-rule="evenodd" transform="matrix(1 0 0 1 0 0)" d="M224.94 76.02002L551.82 76.02002L551.82 76.02002L551.82 177.1801L551.82 177.1801L224.94 177.1801z" /></clipPath><clipPath id="7"><path id="" clip-rule="evenodd" transform="matrix(1 0 0 1 0 0)" d="M0 0.02001953L595.2 0.02001953L595.2 0.02001953L595.2 842L595.2 842L0 842z" /></clipPath><clipPath id="8"><path id="" clip-rule="evenodd" transform="matrix(1 0 0 1 0 0)" d="M224.94 76.02002L551.82 76.02002L551.82 76.02002L551.82 177.1801L551.82 177.1801L224.94 177.1801z" /></clipPath><clipPath id="9"><path id="" clip-rule="evenodd" transform="matrix(1 0 0 1 0 0)" d="M0 0.02001953L595.2 0.02001953L595.2 0.02001953L595.2 842L595.2 842L0 842z" /></clipPath><clipPath id="10"><path id="" clip-rule="evenodd" transform="matrix(1 0 0 1 0 0)" d="M225.96 273.18L364.02 273.18L364.02 273.18L364.02 380.4L364.02 380.4L225.96 380.4z" /></clipPath><clipPath id="11"><path id="" clip-rule="evenodd" transform="matrix(1 0 0 1 0 0)" d="M224.94 272.16L553.56 272.16L553.56 272.16L553.56 381.36L553.56 381.36L224.94 381.36z" /></clipPath><clipPath id="12"><path id="" clip-rule="evenodd" transform="matrix(1 0 0 1 0 0)" d="M0 0.02001953L595.2 0.02001953L595.2 0.02001953L595.2 842L595.2 842L0 842z" /></clipPath><clipPath id="13"><path id="" clip-rule="evenodd" transform="matrix(1 0 0 1 0 0)" d="M401.7 273.18L552.54 273.18L552.54 273.18L552.54 378.6L552.54 378.6L401.7 378.6z" /></clipPath><clipPath id="14"><path id="" clip-rule="evenodd" transform="matrix(1 0 0 1 0 0)" d="M224.94 272.16L553.56 272.16L553.56 272.16L553.56 381.36L553.56 381.36L224.94 381.36z" /></clipPath><clipPath id="15"><path id="" clip-rule="evenodd" transform="matrix(1 0 0 1 0 0)" d="M0 0.02001953L595.2 0.02001953L595.2 0.02001953L595.2 842L595.2 842L0 842z" /></clipPath><clipPath id="16"><path id="" clip-rule="evenodd" transform="matrix(1 0 0 1 0 0)" d="M224.94 272.16L553.56 272.16L553.56 272.16L553.56 381.36L553.56 381.36L224.94 381.36z" /></clipPath><clipPath id="17"><path id="" clip-rule="evenodd" transform="matrix(1 0 0 1 0 0)" d="M0 0.02001953L595.2 0.02001953L595.2 0.02001953L595.2 842L595.2 842L0 842z" /></clipPath><clipPath id="18"><path id="" clip-rule="evenodd" transform="matrix(1 0 0 1 0 0)" d="M225.96 496.8L342.84 496.8L342.84 496.8L342.84 612L342.84 612L225.96 612z" /></clipPath><clipPath id="19"><path id="" clip-rule="evenodd" transform="matrix(1 0 0 1 0 0)" d="M224.94 490.38L512.04 490.38L512.04 490.38L512.04 618.48L512.04 618.48L224.94 618.48z" /></clipPath><clipPath id="20"><path id="" clip-rule="evenodd" transform="matrix(1 0 0 1 0 0)" d="M0 0.02001953L595.2 0.02001953L595.2 0.02001953L595.2 842L595.2 842L0 842z" /></clipPath><clipPath id="21"><path id="" clip-rule="evenodd" transform="matrix(1 0 0 1 0 0)" d="M394.02 491.34L511.08 491.34L511.08 491.34L511.08 617.46L511.08 617.46L394.02 617.46z" /></clipPath><clipPath id="22"><path id="" clip-rule="evenodd" transform="matrix(1 0 0 1 0 0)" d="M224.94 490.38L512.04 490.38L512.04 490.38L512.04 618.48L512.04 618.48L224.94 618.48z" /></clipPath><clipPath id="23"><path id="" clip-rule="evenodd" transform="matrix(1 0 0 1 0 0)" d="M0 0.02001953L595.2 0.02001953L595.2 0.02001953L595.2 842L595.2 842L0 842z" /></clipPath><clipPath id="24"><path id="" clip-rule="evenodd" transform="matrix(1 0 0 1 0 0)" d="M224.94 490.38L512.04 490.38L512.04 490.38L512.04 618.48L512.04 618.48L224.94 618.48z" /></clipPath><clipPath id="25"><path id="" clip-rule="evenodd" transform="matrix(1 0 0 1 0 0)" d="M0 0.02001953L595.2 0.02001953L595.2 0.02001953L595.2 842L595.2 842L0 842z" /></clipPath></defs><g transform="matrix(1.333333 0 0 1.333333 0 0)"><g clip-path="url(#1)"><g clip-path="url(#2)"><g clip-path="url(#3)"><g clip-path="url(#4)"><g transform="matrix(0.47875 0 0 0.4788406 225.96 77.03998)"><g transform="matrix(1 0 0 1 0 0)"><image x="0" y="0" xlink:href="img_694.png" width="288" height="207" /></g></g></g></g></g><g clip-path="url(#5)"><g clip-path="url(#6)"><g clip-path="url(#7)"><g transform="matrix(0.4791638 0 0 0.4790863 413.28 79.44)"><g transform="matrix(1 0 0 1 0 0)"><image x="0" y="0" xlink:href="img_695.png" width="287" height="197" /></g></g></g></g></g><g clip-path="url(#8)"><g clip-path="url(#9)"><path id="340" transform="matrix(1 0 0 -1 0 842)" d="M399.12 715.4L399.12 719.1801L399.9 718.7L404.88 715.82L405.72 715.4L404.88 714.92L399.9 712.04L399.12 711.56L399.12 712.52L399.36 712.94L404.34 715.82L404.88 714.92L404.34 714.92L399.36 717.8L399.9 718.7L400.14 718.28L400.14 715.4" stroke="none" fill="#000000" fill-rule="nonzero" /><path id="341" transform="matrix(1 0 0 -1 0 842)" d="M399.12 712.52L400.14 712.52L400.14 715.4L399.12 715.4z" stroke="none" fill="#000000" fill-rule="nonzero" /><path id="342" transform="matrix(1 0 0 -1 0 842)" d="M399.6 715.4L399.6 718.28L399.6 718.28L404.58 715.4L404.58 715.4L399.6 712.52" stroke="none" fill="#000000" fill-rule="evenodd" /><path id="343" transform="matrix(1 0 0 -1 0 842)" d="M370.62 714.86L371.1 714.86L371.1 715.88L370.62 715.88z" stroke="none" fill="#000000" fill-rule="nonzero" /><path id="344" transform="matrix(1 0 0 -1 0 842)" d="M371.1 714.86L399.6 714.86L399.6 715.88L371.1 715.88z" stroke="none" fill="#000000" fill-rule="nonzero" /></g></g><g clip-path="url(#10)"><g clip-path="url(#11)"><g clip-path="url(#12)"><g transform="matrix(0.479375 0 0 0.4786607 225.96 273.18)"><g transform="matrix(1 0 0 1 0 0)"><image x="0" y="0" xlink:href="img_696.png" width="288" height="224" /></g></g></g></g></g><g clip-path="url(#13)"><g clip-path="url(#14)"><g clip-path="url(#15)"><g transform="matrix(0.4803822 0 0 0.4791818 401.7 273.18)"><g transform="matrix(1 0 0 1 0 0)"><image x="0" y="0" xlink:href="img_697.png" width="314" height="220" /></g></g></g></g></g><g clip-path="url(#16)"><g clip-path="url(#17)"><path id="347" transform="matrix(1 0 0 -1 0 842)" d="M393.24 516.5L393.24 520.28L394.02 519.8L399 516.92L399.84 516.5L399 516.02L394.02 513.14L393.24 512.66L393.24 513.62L393.48 514.04L398.46 516.92L399 516.02L398.46 516.02L393.48 518.9L394.02 519.8L394.26 519.38L394.26 516.5" stroke="none" fill="#000000" fill-rule="nonzero" /><path id="348" transform="matrix(1 0 0 -1 0 842)" d="M393.24 513.62L394.26 513.62L394.26 516.5L393.24 516.5z" stroke="none" fill="#000000" fill-rule="nonzero" /><path id="349" transform="matrix(1 0 0 -1 0 842)" d="M393.72 516.5L393.72 519.38L393.72 519.38L398.7 516.5L398.7 516.5L393.72 513.62" stroke="none" fill="#000000" fill-rule="evenodd" /><path id="350" transform="matrix(1 0 0 -1 0 842)" d="M366.24 515.96L366.72 515.96L366.72 516.98L366.24 516.98z" stroke="none" fill="#000000" fill-rule="nonzero" /><path id="351" transform="matrix(1 0 0 -1 0 842)" d="M366.72 515.96L393.72 515.96L393.72 516.98L366.72 516.98z" stroke="none" fill="#000000" fill-rule="nonzero" /></g></g><g clip-path="url(#18)"><g clip-path="url(#19)"><g clip-path="url(#20)"><g transform="matrix(0.479586 0 0 0.48 225.96 496.8)"><g transform="matrix(1 0 0 1 0 0)"><image x="0" y="0" xlink:href="img_698.png" width="244" height="240" /></g></g></g></g></g><g clip-path="url(#21)"><g clip-path="url(#22)"><g clip-path="url(#23)"><g transform="matrix(0.4787061 0 0 0.4795437 394.02 491.34)"><g transform="matrix(1 0 0 1 0 0)"><image x="0" y="0" xlink:href="img_699.png" width="245" height="263" /></g></g></g></g></g><g clip-path="url(#24)"><g clip-path="url(#25)"><path id="354" transform="matrix(1 0 0 -1 0 842)" d="M383.16 287.6L383.16 291.32L383.88 290.9L388.92 288.02L389.64 287.54L388.92 287.12L383.88 284.24L383.16 283.82L383.16 284.72L383.4 285.14L388.44 288.02L388.92 287.12L388.44 287.12L383.4 290L383.88 290.9L384.18 290.48L384.18 287.6" stroke="none" fill="#000000" fill-rule="nonzero" /><path id="355" transform="matrix(1 0 0 -1 0 842)" d="M383.16 284.72L384.18 284.72L384.18 287.6L383.16 287.6z" stroke="none" fill="#000000" fill-rule="nonzero" /><path id="356" transform="matrix(1 0 0 -1 0 842)" d="M383.64 287.6L383.64 290.48L383.64 290.48L388.68 287.6L388.68 287.6L383.64 284.72" stroke="none" fill="#000000" fill-rule="evenodd" /><path id="357" transform="matrix(1 0 0 -1 0 842)" d="M346.44 287.06L346.92 287.06L346.92 288.08L346.44 288.08z" stroke="none" fill="#000000" fill-rule="nonzero" /><path id="358" transform="matrix(1 0 0 -1 0 842)" d="M346.92 287.06L383.64 287.06L383.64 288.08L346.92 288.08z" stroke="none" fill="#000000" fill-rule="nonzero" /></g></g></g></g></svg>