<svg xmlns="http://www.w3.org/2000/svg" xmlns:xlink="http://www.w3.org/1999/xlink" id="body_11" preserveAspectRatio="xMinYMin meet" viewBox="0 0 793 1123"><defs><clipPath id="1"><path id="" clip-rule="evenodd" transform="matrix(1 0 0 1 0 0)" d="M0 842L0 0L0 0L595 0L595 0L595 842L595 842L0 842z" /></clipPath><clipPath id="2"><path id="" clip-rule="evenodd" transform="matrix(1 0 0 1 0 0)" d="M225.96 309.72L519.96 309.72L519.96 309.72L519.96 580.14L519.96 580.14L225.96 580.14z" /></clipPath><clipPath id="3"><path id="" clip-rule="evenodd" transform="matrix(1 0 0 1 0 0)" d="M224.94 293.94L536.58 293.94L536.58 293.94L536.58 581.16L536.58 581.16L224.94 581.16z" /></clipPath><clipPath id="4"><path id="" clip-rule="evenodd" transform="matrix(1 0 0 1 0 0)" d="M0 0.02001953L595.2 0.02001953L595.2 0.02001953L595.2 842L595.2 842L0 842z" /></clipPath><clipPath id="5"><path id="" clip-rule="evenodd" transform="matrix(1 0 0 1 0 0)" d="M224.94 293.94L536.58 293.94L536.58 293.94L536.58 581.16L536.58 581.16L224.94 581.16z" /></clipPath><clipPath id="6"><path id="" clip-rule="evenodd" transform="matrix(1 0 0 1 0 0)" d="M0 0.02001953L595.2 0.02001953L595.2 0.02001953L595.2 842L595.2 842L0 842z" /></clipPath></defs><g transform="matrix(1.333333 0 0 1.333333 0 0)"><g clip-path="url(#1)"><g clip-path="url(#2)"><g clip-path="url(#3)"><g clip-path="url(#4)"><g transform="matrix(0.4796085 0 0 0.4794681 225.96 309.72)"><g transform="matrix(1 0 0 1 0 0)"><image x="0" y="0" xlink:href="img_20.png" width="613" height="564" /></g></g></g></g></g><g clip-path="url(#5)"><g clip-path="url(#6)"><path id="375" transform="matrix(1 0 0 -1 0 842)" d="M237.72 338.78L238.2 338.78L238.2 339.8L237.72 339.8z" stroke="none" fill="#000000" fill-rule="nonzero" /><path id="376" transform="matrix(1 0 0 -1 0 842)" d="M255.36 339.14L255.84 339.14L255.84 340.16L255.36 340.16z" stroke="none" fill="#000000" fill-rule="nonzero" /><path id="377" transform="matrix(1 0 0 -1 0 842)" d="M238.2 339.8L238.2 338.78L255.36 339.14L255.36 340.16" stroke="none" fill="#000000" fill-rule="nonzero" /><path id="379" transform="matrix(1 0 0 -1 0 842)" d="M237.18 290.06L237.66 290.06L237.66 291.08L237.18 291.08z" stroke="none" fill="#000000" fill-rule="nonzero" /><path id="380" transform="matrix(1 0 0 -1 0 842)" d="M237.66 290.06L295.86 290.06L295.86 291.08L237.66 291.08z" stroke="none" fill="#000000" fill-rule="nonzero" /><path id="382" transform="matrix(1 0 0 -1 0 842)" d="M272.7 536.6L272.7 537.08L271.68 537.14L271.68 536.66" stroke="none" fill="#000000" fill-rule="nonzero" /><path id="383" transform="matrix(1 0 0 -1 0 842)" d="M271.98 518.9L271.98 518.42L270.96 518.48L270.96 518.96" stroke="none" fill="#000000" fill-rule="nonzero" /><path id="384" transform="matrix(1 0 0 -1 0 842)" d="M272.7 536.6L271.68 536.66L270.96 518.96L271.98 518.9" stroke="none" fill="#000000" fill-rule="nonzero" /><path id="386" transform="matrix(1 0 0 -1 0 842)" d="M442.44 536.54L443.46 536.54L443.46 537.02L442.44 537.02z" stroke="none" fill="#000000" fill-rule="nonzero" /><path id="387" transform="matrix(1 0 0 -1 0 842)" d="M442.08 481.4L443.1 481.4L443.1 481.88L442.08 481.88z" stroke="none" fill="#000000" fill-rule="nonzero" /><path id="388" transform="matrix(1 0 0 -1 0 842)" d="M443.46 536.54L442.44 536.54L442.08 481.88L443.1 481.88" stroke="none" fill="#000000" fill-rule="nonzero" /><path id="391" transform="matrix(1 0 0 -1 0 842)" d="M522.6 425.24L523.08 425.24L523.08 426.26L522.6 426.26z" stroke="none" fill="#000000" fill-rule="nonzero" /><path id="392" transform="matrix(1 0 0 -1 0 842)" d="M377.58 425.24L522.6 425.24L522.6 426.26L377.58 426.26z" stroke="none" fill="#000000" fill-rule="nonzero" /><path id="393" transform="matrix(1 0 0 -1 0 842)" d="M237.54 479.78L238.02 479.78L238.02 480.8L237.54 480.8z" stroke="none" fill="#000000" fill-rule="nonzero" /><path id="394" transform="matrix(1 0 0 -1 0 842)" d="M238.02 479.78L295.86 479.78L295.86 480.8L238.02 480.8z" stroke="none" fill="#000000" fill-rule="nonzero" /></g></g></g></g></svg>