<svg xmlns="http://www.w3.org/2000/svg" xmlns:xlink="http://www.w3.org/1999/xlink" id="body_140" preserveAspectRatio="xMinYMin meet" viewBox="0 0 793 1123"><defs><clipPath id="1"><path id="" clip-rule="evenodd" transform="matrix(1 0 0 1 0 0)" d="M0 842L0 0L0 0L595 0L595 0L595 842L595 842L0 842z" /></clipPath><clipPath id="2"><path id="" clip-rule="evenodd" transform="matrix(1 0 0 1 0 0)" d="M225.96 93.17999L353.22 93.17999L353.22 93.17999L353.22 264.54L353.22 264.54L225.96 264.54z" /></clipPath><clipPath id="3"><path id="" clip-rule="evenodd" transform="matrix(1 0 0 1 0 0)" d="M224.94 76.02002L484.8 76.02002L484.8 76.02002L484.8 265.56L484.8 265.56L224.94 265.56z" /></clipPath><clipPath id="4"><path id="" clip-rule="evenodd" transform="matrix(1 0 0 1 0 0)" d="M0 0.02001953L595.2 0.02001953L595.2 0.02001953L595.2 842L595.2 842L0 842z" /></clipPath><clipPath id="5"><path id="" clip-rule="evenodd" transform="matrix(1 0 0 1 0 0)" d="M224.94 76.02002L484.8 76.02002L484.8 76.02002L484.8 265.56L484.8 265.56L224.94 265.56z" /></clipPath><clipPath id="6"><path id="" clip-rule="evenodd" transform="matrix(1 0 0 1 0 0)" d="M0 0.02001953L595.2 0.02001953L595.2 0.02001953L595.2 842L595.2 842L0 842z" /></clipPath><clipPath id="7"><path id="" clip-rule="evenodd" transform="matrix(1 0 0 1 0 0)" d="M369.12 94.85999L483.78 94.85999L483.78 94.85999L483.78 242.28L483.78 242.28L369.12 242.28z" /></clipPath><clipPath id="8"><path id="" clip-rule="evenodd" transform="matrix(1 0 0 1 0 0)" d="M224.94 76.02002L484.8 76.02002L484.8 76.02002L484.8 265.56L484.8 265.56L224.94 265.56z" /></clipPath><clipPath id="9"><path id="" clip-rule="evenodd" transform="matrix(1 0 0 1 0 0)" d="M0 0.02001953L595.2 0.02001953L595.2 0.02001953L595.2 842L595.2 842L0 842z" /></clipPath><clipPath id="10"><path id="" clip-rule="evenodd" transform="matrix(1 0 0 1 0 0)" d="M224.94 76.02002L484.8 76.02002L484.8 76.02002L484.8 265.56L484.8 265.56L224.94 265.56z" /></clipPath><clipPath id="11"><path id="" clip-rule="evenodd" transform="matrix(1 0 0 1 0 0)" d="M0 0.02001953L595.2 0.02001953L595.2 0.02001953L595.2 842L595.2 842L0 842z" /></clipPath><clipPath id="12"><path id="" clip-rule="evenodd" transform="matrix(1 0 0 1 0 0)" d="M150.36 565.02L205.98 565.02L205.98 565.02L205.98 595.44L205.98 595.44L150.36 595.44z" /></clipPath><clipPath id="13"><path id="" clip-rule="evenodd" transform="matrix(1 0 0 1 0 0)" d="M149.34 564L206.94 564L206.94 564L206.94 596.46L206.94 596.46L149.34 596.46z" /></clipPath><clipPath id="14"><path id="" clip-rule="evenodd" transform="matrix(1 0 0 1 0 0)" d="M0 0.02001953L595.2 0.02001953L595.2 0.02001953L595.2 842L595.2 842L0 842z" /></clipPath></defs><g transform="matrix(1.333333 0 0 1.333333 0 0)"><g clip-path="url(#1)"><path id="521" transform="matrix(1 0 0 -1 0 842)" d="M242.94 347.48L558 347.48L558 327.5L242.94 327.5" stroke="none" fill="#ECF5FC" fill-rule="nonzero" /><g clip-path="url(#2)"><g clip-path="url(#3)"><g clip-path="url(#4)"><g transform="matrix(0.4784211 0 0 0.48 225.96 93.17999)"><g transform="matrix(1 0 0 1 0 0)"><image x="0" y="0" xlink:href="img_401.png" width="266" height="357" /></g></g></g></g></g><g clip-path="url(#5)"><g clip-path="url(#6)"><path id="547" transform="matrix(1 0 0 -1 0 842)" d="M284.1 701.54L285.12 701.54L285.12 702.02L284.1 702.02z" stroke="none" fill="#FF1721" fill-rule="nonzero" /><path id="548" transform="matrix(1 0 0 -1 0 842)" d="M284.16 697.58L285.18 697.58L285.18 698.06L284.16 698.06z" stroke="none" fill="#FF1721" fill-rule="nonzero" /><path id="549" transform="matrix(1 0 0 -1 0 842)" d="M285.12 701.54L284.1 701.54L284.16 698.06L285.18 698.06" stroke="none" fill="#FF1721" fill-rule="nonzero" /><path id="550" transform="matrix(1 0 0 -1 0 842)" d="M284.22 691.52L285.24 691.52L285.24 692L284.22 692z" stroke="none" fill="#FF1721" fill-rule="nonzero" /><path id="551" transform="matrix(1 0 0 -1 0 842)" d="M284.34 684.5L285.36 684.5L285.36 684.98L284.34 684.98z" stroke="none" fill="#FF1721" fill-rule="nonzero" /><path id="552" transform="matrix(1 0 0 -1 0 842)" d="M285.24 691.52L284.22 691.52L284.22 691.52L284.34 684.98L284.34 684.98L285.36 684.98" stroke="none" fill="#FF1721" fill-rule="evenodd" /><path id="553" transform="matrix(1 0 0 -1 0 842)" d="M284.4 678.5L285.42 678.5L285.42 678.98L284.4 678.98z" stroke="none" fill="#FF1721" fill-rule="nonzero" /><path id="554" transform="matrix(1 0 0 -1 0 842)" d="M284.52 671.48L285.54 671.48L285.54 671.96L284.52 671.96z" stroke="none" fill="#FF1721" fill-rule="nonzero" /><path id="555" transform="matrix(1 0 0 -1 0 842)" d="M285.42 678.5L284.4 678.5L284.4 678.5L284.52 671.96L284.52 671.96L285.54 671.96" stroke="none" fill="#FF1721" fill-rule="evenodd" /><path id="556" transform="matrix(1 0 0 -1 0 842)" d="M284.58 665.42L285.6 665.42L285.6 665.9L284.58 665.9z" stroke="none" fill="#FF1721" fill-rule="nonzero" /><path id="557" transform="matrix(1 0 0 -1 0 842)" d="M284.7 658.4L285.72 658.4L285.72 658.88L284.7 658.88z" stroke="none" fill="#FF1721" fill-rule="nonzero" /><path id="558" transform="matrix(1 0 0 -1 0 842)" d="M285.6 665.42L284.58 665.42L284.58 665.42L284.7 658.88L284.7 658.88L285.72 658.88" stroke="none" fill="#FF1721" fill-rule="evenodd" /><path id="559" transform="matrix(1 0 0 -1 0 842)" d="M284.76 652.34L285.78 652.34L285.78 652.82L284.76 652.82z" stroke="none" fill="#FF1721" fill-rule="nonzero" /><path id="560" transform="matrix(1 0 0 -1 0 842)" d="M284.88 645.38L285.9 645.38L285.9 645.86L284.88 645.86z" stroke="none" fill="#FF1721" fill-rule="nonzero" /><path id="561" transform="matrix(1 0 0 -1 0 842)" d="M285.78 652.34L284.76 652.34L284.76 652.34L284.88 645.86L284.88 645.86L285.9 645.86" stroke="none" fill="#FF1721" fill-rule="evenodd" /><path id="562" transform="matrix(1 0 0 -1 0 842)" d="M284.94 639.32L285.96 639.32L285.96 639.8L284.94 639.8z" stroke="none" fill="#FF1721" fill-rule="nonzero" /><path id="563" transform="matrix(1 0 0 -1 0 842)" d="M285.06 632.3L286.08 632.3L286.08 632.78L285.06 632.78z" stroke="none" fill="#FF1721" fill-rule="nonzero" /><path id="564" transform="matrix(1 0 0 -1 0 842)" d="M285.96 639.32L284.94 639.32L284.94 639.32L285.06 632.78L285.06 632.78L286.08 632.78" stroke="none" fill="#FF1721" fill-rule="evenodd" /><path id="565" transform="matrix(1 0 0 -1 0 842)" d="M285.12 626.24L286.14 626.24L286.14 626.72L285.12 626.72z" stroke="none" fill="#FF1721" fill-rule="nonzero" /><path id="566" transform="matrix(1 0 0 -1 0 842)" d="M285.24 619.22L286.26 619.22L286.26 619.7L285.24 619.7z" stroke="none" fill="#FF1721" fill-rule="nonzero" /><path id="567" transform="matrix(1 0 0 -1 0 842)" d="M286.14 626.24L285.12 626.24L285.12 626.24L285.24 619.7L285.24 619.7L286.26 619.7" stroke="none" fill="#FF1721" fill-rule="evenodd" /><path id="568" transform="matrix(1 0 0 -1 0 842)" d="M285.3 613.16L286.32 613.16L286.32 613.64L285.3 613.64z" stroke="none" fill="#FF1721" fill-rule="nonzero" /><path id="569" transform="matrix(1 0 0 -1 0 842)" d="M285.36 609.2L286.38 609.2L286.38 609.68L285.36 609.68z" stroke="none" fill="#FF1721" fill-rule="nonzero" /><path id="570" transform="matrix(1 0 0 -1 0 842)" d="M286.32 613.16L285.3 613.16L285.36 609.68L286.38 609.68" stroke="none" fill="#FF1721" fill-rule="nonzero" /><path id="571" transform="matrix(1 0 0 -1 0 842)" d="M310.62 693.56L310.62 694.04L309.6 693.98L309.6 693.5" stroke="none" fill="#FF1721" fill-rule="nonzero" /><path id="572" transform="matrix(1 0 0 -1 0 842)" d="M310.86 690.08L310.86 689.6L309.84 689.54L309.84 690.02" stroke="none" fill="#FF1721" fill-rule="nonzero" /><path id="573" transform="matrix(1 0 0 -1 0 842)" d="M310.62 693.56L309.6 693.5L309.84 690.02L310.86 690.08" stroke="none" fill="#FF1721" fill-rule="nonzero" /><path id="574" transform="matrix(1 0 0 -1 0 842)" d="M311.28 683.3L311.28 683.78L311.28 683.78L310.26 683.72L310.26 683.72L310.26 683.24" stroke="none" fill="#FF1721" fill-rule="evenodd" /><path id="575" transform="matrix(1 0 0 -1 0 842)" d="M311.7 676.52L311.7 676.04L311.7 676.04L310.68 675.98L310.68 675.98L310.68 676.46" stroke="none" fill="#FF1721" fill-rule="evenodd" /><path id="576" transform="matrix(1 0 0 -1 0 842)" d="M311.28 683.3L310.26 683.24L310.26 683.24L310.68 676.46L310.68 676.46L311.7 676.52" stroke="none" fill="#FF1721" fill-rule="evenodd" /><path id="577" transform="matrix(1 0 0 -1 0 842)" d="M312.12 669.8L312.12 670.28L312.12 670.28L311.1 670.22L311.1 670.22L311.1 669.74" stroke="none" fill="#FF1721" fill-rule="evenodd" /><path id="578" transform="matrix(1 0 0 -1 0 842)" d="M312.54 663.02L312.54 662.54L312.54 662.54L311.52 662.48L311.52 662.48L311.52 662.96" stroke="none" fill="#FF1721" fill-rule="evenodd" /><path id="579" transform="matrix(1 0 0 -1 0 842)" d="M312.12 669.8L311.1 669.74L311.1 669.74L311.52 662.96L311.52 662.96L312.54 663.02" stroke="none" fill="#FF1721" fill-rule="evenodd" /><path id="580" transform="matrix(1 0 0 -1 0 842)" d="M312.96 656.24L312.96 656.72L312.96 656.72L311.94 656.66L311.94 656.66L311.94 656.18" stroke="none" fill="#FF1721" fill-rule="evenodd" /><path id="581" transform="matrix(1 0 0 -1 0 842)" d="M313.38 649.52L313.38 649.04L313.38 649.04L312.36 648.98L312.36 648.98L312.36 649.46" stroke="none" fill="#FF1721" fill-rule="evenodd" /><path id="582" transform="matrix(1 0 0 -1 0 842)" d="M312.96 656.24L311.94 656.18L311.94 656.18L312.36 649.46L312.36 649.46L313.38 649.52" stroke="none" fill="#FF1721" fill-rule="evenodd" /><path id="583" transform="matrix(1 0 0 -1 0 842)" d="M313.86 642.74L313.86 643.22L313.86 643.22L312.84 643.16L312.84 643.16L312.84 642.68" stroke="none" fill="#FF1721" fill-rule="evenodd" /><path id="584" transform="matrix(1 0 0 -1 0 842)" d="M314.28 635.96L314.28 635.48L314.28 635.48L313.26 635.42L313.26 635.42L313.26 635.9" stroke="none" fill="#FF1721" fill-rule="evenodd" /><path id="585" transform="matrix(1 0 0 -1 0 842)" d="M313.86 642.74L312.84 642.68L312.84 642.68L313.26 635.9L313.26 635.9L314.28 635.96" stroke="none" fill="#FF1721" fill-rule="evenodd" /><path id="586" transform="matrix(1 0 0 -1 0 842)" d="M314.7 629.18L314.7 629.66L314.7 629.66L313.68 629.6L313.68 629.6L313.68 629.12" stroke="none" fill="#FF1721" fill-rule="evenodd" /><path id="587" transform="matrix(1 0 0 -1 0 842)" d="M315.12 622.46L315.12 621.98L315.12 621.98L314.1 621.92L314.1 621.92L314.1 622.4" stroke="none" fill="#FF1721" fill-rule="evenodd" /><path id="588" transform="matrix(1 0 0 -1 0 842)" d="M314.7 629.18L313.68 629.12L313.68 629.12L314.1 622.4L314.1 622.4L315.12 622.46" stroke="none" fill="#FF1721" fill-rule="evenodd" /><path id="589" transform="matrix(1 0 0 -1 0 842)" d="M315.54 615.68L315.54 616.16L314.52 616.1L314.52 615.62" stroke="none" fill="#FF1721" fill-rule="nonzero" /><path id="590" transform="matrix(1 0 0 -1 0 842)" d="M315.78 612.2L315.78 611.72L314.76 611.66L314.76 612.14" stroke="none" fill="#FF1721" fill-rule="nonzero" /><path id="591" transform="matrix(1 0 0 -1 0 842)" d="M315.54 615.68L314.52 615.62L314.76 612.14L315.78 612.2" stroke="none" fill="#FF1721" fill-rule="nonzero" /></g></g><g clip-path="url(#7)"><g clip-path="url(#8)"><g clip-path="url(#9)"><g transform="matrix(0 0.6171088 -0.3722727 0 483.72 94.85999)"><g transform="matrix(1 0 0 1 0 0)"><image x="0" y="0" xlink:href="img_402.png" width="239" height="308" /></g></g></g></g></g><g clip-path="url(#10)"><g clip-path="url(#11)"><path id="601" transform="matrix(1 0 0 -1 0 842)" d="M461.46 701.72L461.88 702.3199L460.68 703.22L460.26 702.62" stroke="none" fill="#000000" fill-rule="nonzero" /><path id="602" transform="matrix(1 0 0 -1 0 842)" d="M444.6 678.62L444.18 678.02L442.98 678.92L443.4 679.52" stroke="none" fill="#000000" fill-rule="nonzero" /><path id="603" transform="matrix(1 0 0 -1 0 842)" d="M461.46 701.72L460.26 702.62L443.4 679.52L444.6 678.62" stroke="none" fill="#000000" fill-rule="nonzero" /></g></g><g clip-path="url(#12)"><g clip-path="url(#13)"><g clip-path="url(#14)"><g transform="matrix(0.4794827 0 0 0.4753125 150.36 565.02)"><g transform="matrix(1 0 0 1 0 0)"><image x="0" y="0" xlink:href="img_392.png" width="116" height="64" /></g></g></g></g></g></g></g></svg>