<svg xmlns="http://www.w3.org/2000/svg" xmlns:xlink="http://www.w3.org/1999/xlink" id="body_198" preserveAspectRatio="xMinYMin meet" viewBox="0 0 793 1123"><defs><clipPath id="1"><path id="" clip-rule="evenodd" transform="matrix(1 0 0 1 0 0)" d="M0 842L0 0L0 0L595 0L595 0L595 842L595 842L0 842z" /></clipPath><clipPath id="2"><path id="" clip-rule="evenodd" transform="matrix(1 0 0 1 0 0)" d="M124.56 518.94L202.98 518.94L202.98 518.94L202.98 533.34L202.98 533.34L124.56 533.34z" /></clipPath><clipPath id="3"><path id="" clip-rule="evenodd" transform="matrix(1 0 0 1 0 0)" d="M0 0.02001953L595.2 0.02001953L595.2 0.02001953L595.2 842L595.2 842L0 842z" /></clipPath><clipPath id="4"><path id="" clip-rule="evenodd" transform="matrix(1 0 0 1 0 0)" d="M124.98 519.42L198.36 519.42L198.36 519.42L198.36 533.22L198.36 533.22L124.98 533.22z" /></clipPath><clipPath id="5"><path id="" clip-rule="evenodd" transform="matrix(1 0 0 1 0 0)" d="M124.56 518.94L202.98 518.94L202.98 518.94L202.98 533.34L202.98 533.34L124.56 533.34z" /></clipPath><clipPath id="6"><path id="" clip-rule="evenodd" transform="matrix(1 0 0 1 0 0)" d="M0 0.02001953L595.2 0.02001953L595.2 0.02001953L595.2 842L595.2 842L0 842z" /></clipPath><clipPath id="7"><path id="" clip-rule="evenodd" transform="matrix(1 0 0 1 0 0)" d="M124.56 682.86L202.98 682.86L202.98 682.86L202.98 697.26L202.98 697.26L124.56 697.26z" /></clipPath><clipPath id="8"><path id="" clip-rule="evenodd" transform="matrix(1 0 0 1 0 0)" d="M0 0.02001953L595.2 0.02001953L595.2 0.02001953L595.2 842L595.2 842L0 842z" /></clipPath><clipPath id="9"><path id="" clip-rule="evenodd" transform="matrix(1 0 0 1 0 0)" d="M124.44 683.1L199.5 683.1L199.5 683.1L199.5 697.2L199.5 697.2L124.44 697.2z" /></clipPath><clipPath id="10"><path id="" clip-rule="evenodd" transform="matrix(1 0 0 1 0 0)" d="M124.56 682.86L202.98 682.86L202.98 682.86L202.98 697.26L202.98 697.26L124.56 697.26z" /></clipPath><clipPath id="11"><path id="" clip-rule="evenodd" transform="matrix(1 0 0 1 0 0)" d="M0 0.02001953L595.2 0.02001953L595.2 0.02001953L595.2 842L595.2 842L0 842z" /></clipPath></defs><g transform="matrix(1.333333 0 0 1.333333 0 0)"><g clip-path="url(#1)"><path id="133" transform="matrix(1 0 0 -1 0 842)" d="M224.94 668L311.28 668L311.28 686L224.94 686z" stroke="none" fill="#C5E0F7" fill-rule="nonzero" /><path id="136" transform="matrix(1 0 0 -1 0 842)" d="M311.28 668L558 668L558 686L311.28 686z" stroke="none" fill="#C5E0F7" fill-rule="nonzero" /><path id="470" transform="matrix(1 0 0 -1 0 842)" d="M224.94 633.74L558 633.74L558 634.22L224.94 634.22z" stroke="none" fill="#3D96E3" fill-rule="nonzero" /><path id="471" transform="matrix(1 0 0 -1 0 842)" d="M224.94 599.78L558 599.78L558 600.26L224.94 600.26z" stroke="none" fill="#3D96E3" fill-rule="nonzero" /><path id="472" transform="matrix(1 0 0 -1 0 842)" d="M224.94 565.76L558 565.76L558 566.24L224.94 566.24z" stroke="none" fill="#3D96E3" fill-rule="nonzero" /><path id="473" transform="matrix(1 0 0 -1 0 842)" d="M224.94 531.8L558 531.8L558 532.28L224.94 532.28z" stroke="none" fill="#3D96E3" fill-rule="nonzero" /><path id="474" transform="matrix(1 0 0 -1 0 842)" d="M224.94 497.78L558 497.78L558 498.26L224.94 498.26z" stroke="none" fill="#3D96E3" fill-rule="nonzero" /><path id="475" transform="matrix(1 0 0 -1 0 842)" d="M224.94 435.8L558 435.8L558 436.28L224.94 436.28z" stroke="none" fill="#3D96E3" fill-rule="nonzero" /><path id="476" transform="matrix(1 0 0 -1 0 842)" d="M224.94 345.32L558 345.32L558 346.82L224.94 346.82z" stroke="none" fill="#3D96E3" fill-rule="nonzero" /><g clip-path="url(#2)"><g clip-path="url(#3)"><path id="477" transform="matrix(1 0 0 -1 0 842)" d="M124.56 308.66L202.98 308.66L202.98 323.06L124.56 323.06z" stroke="none" fill="#FFFFFF" fill-rule="nonzero" /></g></g><g clip-path="url(#4)"><g clip-path="url(#5)"><g clip-path="url(#6)"><g transform="matrix(0.7265346 0 0 0.7263158 124.98 519.42)"><g transform="matrix(1 0 0 1 0 0)"><image x="0" y="0" xlink:href="img_09.png" width="101" height="19" /></g></g></g></g></g><path id="479" transform="matrix(1 0 0 -1 0 842)" d="M224.94 327.08L558 327.08L558 177.14L224.94 177.14" stroke="none" fill="#ECF5FC" fill-rule="nonzero" /><g clip-path="url(#7)"><g clip-path="url(#8)"><path id="606" transform="matrix(1 0 0 -1 0 842)" d="M124.56 144.74L202.98 144.74L202.98 159.14L124.56 159.14z" stroke="none" fill="#FFFFFF" fill-rule="nonzero" /></g></g><g clip-path="url(#9)"><g clip-path="url(#10)"><g clip-path="url(#11)"><g transform="matrix(0.7431683 0 0 0.7421053 124.44 683.1)"><g transform="matrix(1 0 0 1 0 0)"><image x="0" y="0" xlink:href="img_274.png" width="101" height="19" /></g></g></g></g></g><path id="608" transform="matrix(1 0 0 -1 0 842)" d="M224.94 163.1L558 163.1L558 101.12L224.94 101.12" stroke="none" fill="#ECF5FC" fill-rule="nonzero" /></g></g></svg>