<svg xmlns="http://www.w3.org/2000/svg" xmlns:xlink="http://www.w3.org/1999/xlink" id="body_204" preserveAspectRatio="xMinYMin meet" viewBox="0 0 793 1123"><defs><clipPath id="1"><path id="" clip-rule="evenodd" transform="matrix(1 0 0 1 0 0)" d="M0 842L0 0L0 0L595 0L595 0L595 842L595 842L0 842z" /></clipPath><clipPath id="2"><path id="" clip-rule="evenodd" transform="matrix(1 0 0 1 0 0)" d="M225.96 101.04L411.96 101.04L411.96 101.04L411.96 335.76L411.96 335.76L225.96 335.76z" /></clipPath><clipPath id="3"><path id="" clip-rule="evenodd" transform="matrix(1 0 0 1 0 0)" d="M224.94 100.02L507.6 100.02L507.6 100.02L507.6 336.78L507.6 336.78L224.94 336.78z" /></clipPath><clipPath id="4"><path id="" clip-rule="evenodd" transform="matrix(1 0 0 1 0 0)" d="M0 0.02001953L595.2 0.02001953L595.2 0.02001953L595.2 842L595.2 842L0 842z" /></clipPath><clipPath id="5"><path id="" clip-rule="evenodd" transform="matrix(1 0 0 1 0 0)" d="M224.94 100.02L507.6 100.02L507.6 100.02L507.6 336.78L507.6 336.78L224.94 336.78z" /></clipPath><clipPath id="6"><path id="" clip-rule="evenodd" transform="matrix(1 0 0 1 0 0)" d="M0 0.02001953L595.2 0.02001953L595.2 0.02001953L595.2 842L595.2 842L0 842z" /></clipPath><clipPath id="7"><path id="" clip-rule="evenodd" transform="matrix(1 0 0 1 0 0)" d="M124.86 585.6L205.98 585.6L205.98 585.6L205.98 703.68L205.98 703.68L124.86 703.68z" /></clipPath><clipPath id="8"><path id="" clip-rule="evenodd" transform="matrix(1 0 0 1 0 0)" d="M123.84 584.58L206.94 584.58L206.94 584.58L206.94 704.7L206.94 704.7L123.84 704.7z" /></clipPath><clipPath id="9"><path id="" clip-rule="evenodd" transform="matrix(1 0 0 1 0 0)" d="M0 0.02001953L595.2 0.02001953L595.2 0.02001953L595.2 842L595.2 842L0 842z" /></clipPath><clipPath id="10"><path id="" clip-rule="evenodd" transform="matrix(1 0 0 1 0 0)" d="M225.96 468.72L559.32 468.72L559.32 468.72L559.32 703.68L559.32 703.68L225.96 703.68z" /></clipPath><clipPath id="11"><path id="" clip-rule="evenodd" transform="matrix(1 0 0 1 0 0)" d="M224.94 467.7L560.34 467.7L560.34 467.7L560.34 704.7L560.34 704.7L224.94 704.7z" /></clipPath><clipPath id="12"><path id="" clip-rule="evenodd" transform="matrix(1 0 0 1 0 0)" d="M0 0.02001953L595.2 0.02001953L595.2 0.02001953L595.2 842L595.2 842L0 842z" /></clipPath></defs><g transform="matrix(1.333333 0 0 1.333333 0 0)"><g clip-path="url(#1)"><path id="148" transform="matrix(1 0 0 -1 0 842)" d="M242.94 462.26L558 462.26L558 428.24L242.94 428.24" stroke="none" fill="#ECF5FC" fill-rule="nonzero" /><g clip-path="url(#2)"><g clip-path="url(#3)"><g clip-path="url(#4)"><g transform="matrix(0.4793814 0 0 0.48 225.96 101.04)"><g transform="matrix(1 0 0 1 0 0)"><image x="0" y="0" xlink:href="img_536.png" width="388" height="489" /></g></g></g></g></g><g clip-path="url(#5)"><g clip-path="url(#6)"><path id="206" transform="matrix(1 0 0 -1 0 842)" d="M430.8 554.84L431.28 554.84L431.28 555.86L430.8 555.86z" stroke="none" fill="#000000" fill-rule="nonzero" /><path id="207" transform="matrix(1 0 0 -1 0 842)" d="M406.26 555.14L406.74 555.14L406.74 556.16L406.26 556.16z" stroke="none" fill="#000000" fill-rule="nonzero" /><path id="208" transform="matrix(1 0 0 -1 0 842)" d="M430.8 554.84L430.8 555.86L406.74 556.16L406.74 555.14" stroke="none" fill="#000000" fill-rule="nonzero" /></g></g><g clip-path="url(#7)"><g clip-path="url(#8)"><g clip-path="url(#9)"><g transform="matrix(0.48 0 0 0.48 124.86 585.6)"><g transform="matrix(1 0 0 1 0 0)"><image x="0" y="0" xlink:href="img_537.png" width="169" height="246" /></g></g></g></g></g><g clip-path="url(#10)"><g clip-path="url(#11)"><g clip-path="url(#12)"><g transform="matrix(0.4796546 0 0 0.4795102 225.96 468.72)"><g transform="matrix(1 0 0 1 0 0)"><image x="0" y="0" xlink:href="img_538.png" width="695" height="490" /></g></g></g></g></g></g></g></svg>