<svg xmlns="http://www.w3.org/2000/svg" xmlns:xlink="http://www.w3.org/1999/xlink" id="body_238" preserveAspectRatio="xMinYMin meet" viewBox="0 0 793 1123"><defs><clipPath id="1"><path id="" clip-rule="evenodd" transform="matrix(1 0 0 1 0 0)" d="M0 842L0 0L0 0L595 0L595 0L595 842L595 842L0 842z" /></clipPath><clipPath id="2"><path id="" clip-rule="evenodd" transform="matrix(1 0 0 1 0 0)" d="M151.02 142.62L205.98 142.62L205.98 142.62L205.98 287.82L205.98 287.82L151.02 287.82z" /></clipPath><clipPath id="3"><path id="" clip-rule="evenodd" transform="matrix(1 0 0 1 0 0)" d="M150 141.6L206.94 141.6L206.94 141.6L206.94 288.78L206.94 288.78L150 288.78z" /></clipPath><clipPath id="4"><path id="" clip-rule="evenodd" transform="matrix(1 0 0 1 0 0)" d="M0 0.02001953L595.2 0.02001953L595.2 0.02001953L595.2 842L595.2 842L0 842z" /></clipPath></defs><g transform="matrix(1.333333 0 0 1.333333 0 0)"><g clip-path="url(#1)"><path id="583" transform="matrix(1 0 0 -1 0 842)" d="M224.94 468.08L558 468.08L558 378.08L224.94 378.08" stroke="none" fill="#ECF5FC" fill-rule="nonzero" /><g clip-path="url(#2)"><g clip-path="url(#3)"><g clip-path="url(#4)"><g transform="matrix(0.477913 0 0 0.4792079 151.02 142.62)"><g transform="matrix(1 0 0 1 0 0)"><image x="0" y="0" xlink:href="img_666.png" width="115" height="303" /></g></g></g></g></g></g></g></svg>