<svg xmlns="http://www.w3.org/2000/svg" xmlns:xlink="http://www.w3.org/1999/xlink" id="body_25" preserveAspectRatio="xMinYMin meet" viewBox="0 0 793 1123"><defs><clipPath id="1"><path id="" clip-rule="evenodd" transform="matrix(1 0 0 1 0 0)" d="M0 842L0 0L0 0L595 0L595 0L595 842L595 842L0 842z" /></clipPath><clipPath id="2"><path id="" clip-rule="evenodd" transform="matrix(1 0 0 1 0 0)" d="M225.96 94.85999L514.92 94.85999L514.92 94.85999L514.92 219.18L514.92 219.18L225.96 219.18z" /></clipPath><clipPath id="3"><path id="" clip-rule="evenodd" transform="matrix(1 0 0 1 0 0)" d="M224.94 76.02002L515.94 76.02002L515.94 76.02002L515.94 257.04L515.94 257.04L224.94 257.04z" /></clipPath><clipPath id="4"><path id="" clip-rule="evenodd" transform="matrix(1 0 0 1 0 0)" d="M0 0.02001953L595.2 0.02001953L595.2 0.02001953L595.2 842L595.2 842L0 842z" /></clipPath><clipPath id="5"><path id="" clip-rule="evenodd" transform="matrix(1 0 0 1 0 0)" d="M224.94 76.02002L515.94 76.02002L515.94 76.02002L515.94 257.04L515.94 257.04L224.94 257.04z" /></clipPath><clipPath id="6"><path id="" clip-rule="evenodd" transform="matrix(1 0 0 1 0 0)" d="M0 0.02001953L595.2 0.02001953L595.2 0.02001953L595.2 842L595.2 842L0 842z" /></clipPath><clipPath id="7"><path id="" clip-rule="evenodd" transform="matrix(1 0 0 1 0 0)" d="M225.96 357.06L426.6 357.06L426.6 357.06L426.6 481.38L426.6 481.38L225.96 481.38z" /></clipPath><clipPath id="8"><path id="" clip-rule="evenodd" transform="matrix(1 0 0 1 0 0)" d="M224.94 356.04L549.6 356.04L549.6 356.04L549.6 482.34L549.6 482.34L224.94 482.34z" /></clipPath><clipPath id="9"><path id="" clip-rule="evenodd" transform="matrix(1 0 0 1 0 0)" d="M0 0.02001953L595.2 0.02001953L595.2 0.02001953L595.2 842L595.2 842L0 842z" /></clipPath><clipPath id="10"><path id="" clip-rule="evenodd" transform="matrix(1 0 0 1 0 0)" d="M224.94 356.04L549.6 356.04L549.6 356.04L549.6 482.34L549.6 482.34L224.94 482.34z" /></clipPath><clipPath id="11"><path id="" clip-rule="evenodd" transform="matrix(1 0 0 1 0 0)" d="M0 0.02001953L595.2 0.02001953L595.2 0.02001953L595.2 842L595.2 842L0 842z" /></clipPath></defs><g transform="matrix(1.333333 0 0 1.333333 0 0)"><g clip-path="url(#1)"><g clip-path="url(#2)"><g clip-path="url(#3)"><g clip-path="url(#4)"><g transform="matrix(0.48 0 0 0.48 225.96 94.85999)"><g transform="matrix(1 0 0 1 0 0)"><image x="0" y="0" xlink:href="img_47.png" width="602" height="259" /></g></g></g></g></g><g clip-path="url(#5)"><g clip-path="url(#6)"><path id="357" transform="matrix(1 0 0 -1 0 842)" d="M429.12 612.68L430.14 612.68L430.14 613.16L429.12 613.16z" stroke="none" fill="#000000" fill-rule="nonzero" /><path id="358" transform="matrix(1 0 0 -1 0 842)" d="M429.12 613.16L430.14 613.16L430.14 670.64L429.12 670.64z" stroke="none" fill="#000000" fill-rule="nonzero" /><path id="363" transform="matrix(1 0 0 -1 0 842)" d="M342.48 754.76L343.5 754.76L343.5 755.24L342.48 755.24z" stroke="none" fill="#000000" fill-rule="nonzero" /><path id="364" transform="matrix(1 0 0 -1 0 842)" d="M342.48 710.9L343.5 710.9L343.5 754.76L342.48 754.76z" stroke="none" fill="#000000" fill-rule="nonzero" /><path id="370" transform="matrix(1 0 0 -1 0 842)" d="M286.26 613.28L287.28 613.28L287.28 613.76L286.26 613.76z" stroke="none" fill="#000000" fill-rule="nonzero" /><path id="371" transform="matrix(1 0 0 -1 0 842)" d="M286.26 613.76L287.28 613.76L287.28 660.44L286.26 660.44z" stroke="none" fill="#000000" fill-rule="nonzero" /></g></g><g clip-path="url(#7)"><g clip-path="url(#8)"><g clip-path="url(#9)"><g transform="matrix(0.48 0 0 0.48 225.96 357.06)"><g transform="matrix(1 0 0 1 0 0)"><image x="0" y="0" xlink:href="img_48.png" width="418" height="259" /></g></g></g></g></g><g clip-path="url(#10)"><g clip-path="url(#11)"><path id="385" transform="matrix(1 0 0 -1 0 842)" d="M363.06 430.22L363.54 430.22L363.54 431.24L363.06 431.24z" stroke="none" fill="#000000" fill-rule="nonzero" /><path id="386" transform="matrix(1 0 0 -1 0 842)" d="M434.4 430.82L434.88 430.82L434.88 431.84L434.4 431.84z" stroke="none" fill="#000000" fill-rule="nonzero" /><path id="387" transform="matrix(1 0 0 -1 0 842)" d="M363.54 431.24L363.54 430.22L434.4 430.82L434.4 431.84" stroke="none" fill="#000000" fill-rule="nonzero" /></g></g></g></g></svg>