<svg xmlns="http://www.w3.org/2000/svg" xmlns:xlink="http://www.w3.org/1999/xlink" id="body_218" preserveAspectRatio="xMinYMin meet" viewBox="0 0 793 1123"><defs><clipPath id="1"><path id="" clip-rule="evenodd" transform="matrix(1 0 0 1 0 0)" d="M0 842L0 0L0 0L595 0L595 0L595 842L595 842L0 842z" /></clipPath><clipPath id="2"><path id="" clip-rule="evenodd" transform="matrix(1 0 0 1 0 0)" d="M45.96 79.02002L440.52 79.02002L440.52 79.02002L440.52 351.12L440.52 351.12L45.96 351.12z" /></clipPath><clipPath id="3"><path id="" clip-rule="evenodd" transform="matrix(1 0 0 1 0 0)" d="M44.94 78.06L441.54 78.06L441.54 78.06L441.54 352.14L441.54 352.14L44.94 352.14z" /></clipPath><clipPath id="4"><path id="" clip-rule="evenodd" transform="matrix(1 0 0 1 0 0)" d="M0 0.02001953L595.2 0.02001953L595.2 0.02001953L595.2 842L595.2 842L0 842z" /></clipPath><clipPath id="5"><path id="" clip-rule="evenodd" transform="matrix(1 0 0 1 0 0)" d="M44.94 78.06L441.54 78.06L441.54 78.06L441.54 352.14L441.54 352.14L44.94 352.14z" /></clipPath><clipPath id="6"><path id="" clip-rule="evenodd" transform="matrix(1 0 0 1 0 0)" d="M0 0.02001953L595.2 0.02001953L595.2 0.02001953L595.2 842L595.2 842L0 842z" /></clipPath><clipPath id="7"><path id="" clip-rule="evenodd" transform="matrix(1 0 0 1 0 0)" d="M215.82 541.08L348.12 541.08L348.12 541.08L348.12 739.2L348.12 739.2L215.82 739.2z" /></clipPath><clipPath id="8"><path id="" clip-rule="evenodd" transform="matrix(1 0 0 1 0 0)" d="M44.94 540.06L519.6 540.06L519.6 540.06L519.6 740.22L519.6 740.22L44.94 740.22z" /></clipPath><clipPath id="9"><path id="" clip-rule="evenodd" transform="matrix(1 0 0 1 0 0)" d="M0 0.02001953L595.2 0.02001953L595.2 0.02001953L595.2 842L595.2 842L0 842z" /></clipPath><clipPath id="10"><path id="" clip-rule="evenodd" transform="matrix(1 0 0 1 0 0)" d="M375.42 569.28L518.58 569.28L518.58 569.28L518.58 711.06L518.58 711.06L375.42 711.06z" /></clipPath><clipPath id="11"><path id="" clip-rule="evenodd" transform="matrix(1 0 0 1 0 0)" d="M44.94 540.06L519.6 540.06L519.6 540.06L519.6 740.22L519.6 740.22L44.94 740.22z" /></clipPath><clipPath id="12"><path id="" clip-rule="evenodd" transform="matrix(1 0 0 1 0 0)" d="M0 0.02001953L595.2 0.02001953L595.2 0.02001953L595.2 842L595.2 842L0 842z" /></clipPath><clipPath id="13"><path id="" clip-rule="evenodd" transform="matrix(1 0 0 1 0 0)" d="M44.94 540.06L519.6 540.06L519.6 540.06L519.6 740.22L519.6 740.22L44.94 740.22z" /></clipPath><clipPath id="14"><path id="" clip-rule="evenodd" transform="matrix(1 0 0 1 0 0)" d="M0 0.02001953L595.2 0.02001953L595.2 0.02001953L595.2 842L595.2 842L0 842z" /></clipPath><clipPath id="15"><path id="" clip-rule="evenodd" transform="matrix(1 0 0 1 0 0)" d="M45.96 569.04L187.92 569.04L187.92 569.04L187.92 711.24L187.92 711.24L45.96 711.24z" /></clipPath><clipPath id="16"><path id="" clip-rule="evenodd" transform="matrix(1 0 0 1 0 0)" d="M44.94 540.06L519.6 540.06L519.6 540.06L519.6 740.22L519.6 740.22L44.94 740.22z" /></clipPath><clipPath id="17"><path id="" clip-rule="evenodd" transform="matrix(1 0 0 1 0 0)" d="M0 0.02001953L595.2 0.02001953L595.2 0.02001953L595.2 842L595.2 842L0 842z" /></clipPath><clipPath id="18"><path id="" clip-rule="evenodd" transform="matrix(1 0 0 1 0 0)" d="M44.94 540.06L519.6 540.06L519.6 540.06L519.6 740.22L519.6 740.22L44.94 740.22z" /></clipPath><clipPath id="19"><path id="" clip-rule="evenodd" transform="matrix(1 0 0 1 0 0)" d="M0 0.02001953L595.2 0.02001953L595.2 0.02001953L595.2 842L595.2 842L0 842z" /></clipPath></defs><g transform="matrix(1.333333 0 0 1.333333 0 0)"><g clip-path="url(#1)"><g clip-path="url(#2)"><g clip-path="url(#3)"><g clip-path="url(#4)"><g transform="matrix(0.48 0 0 0.4798942 45.96 79.02002)"><g transform="matrix(1 0 0 1 0 0)"><image x="0" y="0" xlink:href="img_588.png" width="822" height="567" /></g></g></g></g></g><g clip-path="url(#5)"><g clip-path="url(#6)"><path id="222" transform="matrix(1 0 0 -1 0 842)" d="M333.72 661.4L437.76 661.4L437.76 662.42L333.72 662.42z" stroke="none" fill="#000000" fill-rule="nonzero" /><path id="223" transform="matrix(1 0 0 -1 0 842)" d="M436.74 505.4L437.76 505.4L437.76 661.94L436.74 661.94z" stroke="none" fill="#000000" fill-rule="nonzero" /><path id="224" transform="matrix(1 0 0 -1 0 842)" d="M333.24 505.4L437.22 505.4L437.22 506.42L333.24 506.42z" stroke="none" fill="#000000" fill-rule="nonzero" /><path id="225" transform="matrix(1 0 0 -1 0 842)" d="M333.24 505.94L334.26 505.94L334.26 662.42L333.24 662.42z" stroke="none" fill="#000000" fill-rule="nonzero" /><path id="226" transform="matrix(1 0 0 -1 0 842)" d="M103.44 759.68L295.98 759.68L295.98 760.7L103.44 760.7z" stroke="none" fill="#000000" fill-rule="nonzero" /><path id="227" transform="matrix(1 0 0 -1 0 842)" d="M294.96 683.18L295.98 683.18L295.98 760.22L294.96 760.22z" stroke="none" fill="#000000" fill-rule="nonzero" /><path id="228" transform="matrix(1 0 0 -1 0 842)" d="M102.96 683.18L295.44 683.18L295.44 684.2L102.96 684.2z" stroke="none" fill="#000000" fill-rule="nonzero" /><path id="229" transform="matrix(1 0 0 -1 0 842)" d="M102.96 683.72L103.98 683.72L103.98 760.7L102.96 760.7z" stroke="none" fill="#000000" fill-rule="nonzero" /><path id="230" transform="matrix(1 0 0 -1 0 842)" d="M56.22 508.4L136.68 508.4L136.68 518L56.22 518z" stroke="none" fill="#FFFFFF" fill-rule="nonzero" /><path id="238" transform="matrix(1 0 0 -1 0 842)" d="M136.26 513.2L137.22 513.2L137.22 515.18L136.26 515.18z" stroke="none" fill="#000000" fill-rule="nonzero" /><path id="239" transform="matrix(1 0 0 -1 0 842)" d="M137.22 513.2L165.18 513.2L165.18 515.18L137.22 515.18z" stroke="none" fill="#000000" fill-rule="nonzero" /><path id="240" transform="matrix(1 0 0 -1 0 842)" d="M353.22 683.96L422.22 683.96L422.22 707.6L353.22 707.6z" stroke="none" fill="#FFFFFF" fill-rule="nonzero" /><path id="252" transform="matrix(1 0 0 -1 0 842)" d="M383.76 683.24L385.74 683.24L385.74 684.2L383.76 684.2z" stroke="none" fill="#000000" fill-rule="nonzero" /><path id="253" transform="matrix(1 0 0 -1 0 842)" d="M383.76 662L385.74 662L385.74 683.24L383.76 683.24z" stroke="none" fill="#000000" fill-rule="nonzero" /><path id="254" transform="matrix(1 0 0 -1 0 842)" d="M336.48 721.7L418.2 721.7L418.2 744.98L336.48 744.98z" stroke="none" fill="#FFFFFF" fill-rule="nonzero" /><path id="266" transform="matrix(1 0 0 -1 0 842)" d="M336.24 734.96L337.2 734.96L337.2 736.94L336.24 736.94z" stroke="none" fill="#000000" fill-rule="nonzero" /><path id="267" transform="matrix(1 0 0 -1 0 842)" d="M295.5 734.96L336.24 734.96L336.24 736.94L295.5 736.94z" stroke="none" fill="#000000" fill-rule="nonzero" /><path id="268" transform="matrix(1 0 0 -1 0 842)" d="M68.94 576.74L97.2 576.74L97.2 588.74L68.94 588.74z" stroke="none" fill="#FFFFFF" fill-rule="nonzero" /><path id="271" transform="matrix(1 0 0 -1 0 842)" d="M76.98 589.28L78.96001 589.28L78.96001 590.2401L76.98 590.2401z" stroke="none" fill="#000000" fill-rule="nonzero" /><path id="272" transform="matrix(1 0 0 -1 0 842)" d="M76.98 590.24L78.96001 590.24L78.96001 611.42L76.98 611.42z" stroke="none" fill="#000000" fill-rule="nonzero" /><path id="273" transform="matrix(1 0 0 -1 0 842)" d="M53.52 642.74L55.5 642.74L55.5 643.7L53.52 643.7z" stroke="none" fill="#000000" fill-rule="nonzero" /><path id="274" transform="matrix(1 0 0 -1 0 842)" d="M53.52 643.7L55.5 643.7L55.5 666.44L53.52 666.44z" stroke="none" fill="#000000" fill-rule="nonzero" /><path id="275" transform="matrix(1 0 0 -1 0 842)" d="M52.2 669.74L62.7 669.74L62.7 679.46L52.2 679.46z" stroke="none" fill="#FFFFFF" fill-rule="nonzero" /><path id="277" transform="matrix(1 0 0 -1 0 842)" d="M397.98 647.24L399.96 647.24L399.96 648.2L397.98 648.2z" stroke="none" fill="#000000" fill-rule="nonzero" /><path id="278" transform="matrix(1 0 0 -1 0 842)" d="M397.98 620L399.96 620L399.96 647.24L397.98 647.24z" stroke="none" fill="#000000" fill-rule="nonzero" /><path id="279" transform="matrix(1 0 0 -1 0 842)" d="M396.48 647.48L406.98 647.48L406.98 658.7L396.48 658.7z" stroke="none" fill="#FFFFFF" fill-rule="nonzero" /></g></g><g clip-path="url(#7)"><g clip-path="url(#8)"><g clip-path="url(#9)"><g transform="matrix(0.4796667 0 0 0.4797094 215.82 541.08)"><g transform="matrix(1 0 0 1 0 0)"><image x="0" y="0" xlink:href="img_589.png" width="276" height="413" /></g></g></g></g></g><g clip-path="url(#10)"><g clip-path="url(#11)"><g clip-path="url(#12)"><g transform="matrix(0.4791204 0 0 0.4789865 375.42 569.28)"><g transform="matrix(1 0 0 1 0 0)"><image x="0" y="0" xlink:href="img_590.png" width="299" height="296" /></g></g></g></g></g><g clip-path="url(#13)"><g clip-path="url(#14)"><path id="296" transform="matrix(1 0 0 -1 0 842)" d="M365.76 200.48L365.7 200.72L365.7 200.72L365.7 200.9L365.7 200.9L365.58 201.02L365.58 201.02L365.46 201.2L365.46 201.2L365.28 201.32L365.28 201.32L365.16 201.44L365.16 201.44L364.98 201.44L364.98 201.44L364.74 201.5L364.74 201.5L364.56 201.44L364.56 201.44L364.38 201.44L364.38 201.44L364.02 201.2L364.02 201.2L363.9 201.02L363.9 201.02L363.84 200.9L363.84 200.9L363.78 200.72L363.78 200.72L363.72 200.48L363.72 200.48L363.9 199.94L363.9 199.94L364.02 199.76L364.02 199.76L364.2 199.64L364.2 199.64L364.56 199.52L364.56 199.52L364.98 199.52L364.98 199.52L365.16 199.58L365.16 199.58L365.28 199.64L365.28 199.64L365.46 199.76L365.46 199.76L365.58 199.94L365.58 199.94L365.7 200.12L365.7 200.12L365.7 200.3L365.7 200.3L365.76 200.48" stroke="none" fill="#000000" fill-rule="evenodd" /><path id="297" transform="matrix(1 0 0 -1 0 842)" d="M364.74 200.48L364.74 205.04L365.52 204.56L371.82 200.9L372.6 200.48L365.46 196.4L364.74 195.98L364.74 196.88L364.98 197.3L371.28 200.9L371.76 200L371.28 200L364.98 203.66L365.52 204.56L365.76 204.14L365.76 200.48" stroke="none" fill="#000000" fill-rule="nonzero" /><path id="298" transform="matrix(1 0 0 -1 0 842)" d="M364.74 196.88L365.76 196.88L365.76 200.48L364.74 200.48z" stroke="none" fill="#000000" fill-rule="nonzero" /><path id="299" transform="matrix(1 0 0 -1 0 842)" d="M365.22 200.48L365.22 204.14L365.22 204.14L371.52 200.48L371.52 200.48L365.22 196.88" stroke="none" fill="#000000" fill-rule="evenodd" /><path id="300" transform="matrix(1 0 0 -1 0 842)" d="M351.84 199.46L352.8 199.46L352.8 201.44L351.84 201.44z" stroke="none" fill="#000000" fill-rule="nonzero" /><path id="301" transform="matrix(1 0 0 -1 0 842)" d="M352.8 199.46L365.7 199.46L365.7 201.44L352.8 201.44z" stroke="none" fill="#000000" fill-rule="nonzero" /></g></g><g clip-path="url(#15)"><g clip-path="url(#16)"><g clip-path="url(#17)"><g transform="matrix(0.4799324 0 0 0.4787879 45.96 569.04)"><g transform="matrix(1 0 0 1 0 0)"><image x="0" y="0" xlink:href="img_591.png" width="296" height="297" /></g></g></g></g></g><g clip-path="url(#18)"><g clip-path="url(#19)"><path id="303" transform="matrix(1 0 0 -1 0 842)" d="M204.72 200.48L204.72 200.72L204.72 200.72L204.66 200.9L204.66 200.9L204.6 201.02L204.6 201.02L204.3 201.32L204.3 201.32L204.12 201.44L204.12 201.44L203.94 201.44L203.94 201.44L203.76 201.5L203.76 201.5L203.52 201.44L203.52 201.44L203.34 201.44L203.34 201.44L203.16 201.32L203.16 201.32L203.04 201.2L203.04 201.2L202.92 201.02L202.92 201.02L202.8 200.9L202.8 200.9L202.74 200.72L202.74 200.72L202.74 200.3L202.74 200.3L202.8 200.12L202.8 200.12L203.04 199.76L203.04 199.76L203.16 199.64L203.16 199.64L203.52 199.52L203.52 199.52L203.94 199.52L203.94 199.52L204.3 199.64L204.3 199.64L204.6 199.94L204.6 199.94L204.72 200.3L204.72 200.3L204.72 200.48" stroke="none" fill="#000000" fill-rule="evenodd" /><path id="304" transform="matrix(1 0 0 -1 0 842)" d="M203.76 200.48L203.76 205.04L204.54 204.56L210.84 200.9L211.62 200.48L204.48 196.4L203.76 195.98L203.76 196.88L204 197.3L210.3 200.9L210.78 200L210.3 200L204 203.66L204.54 204.56L204.78 204.14L204.78 200.48" stroke="none" fill="#000000" fill-rule="nonzero" /><path id="305" transform="matrix(1 0 0 -1 0 842)" d="M203.76 196.88L204.78 196.88L204.78 200.48L203.76 200.48z" stroke="none" fill="#000000" fill-rule="nonzero" /><path id="306" transform="matrix(1 0 0 -1 0 842)" d="M204.24 200.48L204.24 204.14L204.24 204.14L210.54 200.48L210.54 200.48L204.24 196.88" stroke="none" fill="#000000" fill-rule="evenodd" /><path id="307" transform="matrix(1 0 0 -1 0 842)" d="M190.8 199.46L191.76 199.46L191.76 201.44L190.8 201.44z" stroke="none" fill="#000000" fill-rule="nonzero" /><path id="308" transform="matrix(1 0 0 -1 0 842)" d="M191.76 199.46L204.72 199.46L204.72 201.44L191.76 201.44z" stroke="none" fill="#000000" fill-rule="nonzero" /><path id="309" transform="matrix(1 0 0 -1 0 842)" d="M85.56 158.9L85.43999 159.08L85.43999 159.08L85.07999 159.2L85.07999 159.2L84.72 159.2L84.72 159.2L84.48 159.14L84.48 159.14L84.3 159.08L84.3 159.08L84.18 158.96L84.18 158.96L83.93999 158.6L83.93999 158.6L83.88 158.42L83.88 158.42L83.88 158.06L83.88 158.06L84 157.7L84 157.7L84.3 157.4L84.3 157.4L84.48 157.28L84.48 157.28L84.66 157.22L84.66 157.22L85.02 157.22L85.02 157.22L85.25999 157.28L85.25999 157.28L85.38 157.4L85.38 157.4L85.56 157.52L85.56 157.52L85.68 157.64L85.68 157.64L85.8 157.82L85.8 157.82L85.86 158L85.86 158L85.86 158.42L85.86 158.42L85.8 158.6L85.8 158.6L85.74 158.78L85.74 158.78L85.56 158.9" stroke="none" fill="#000000" fill-rule="evenodd" /><path id="310" transform="matrix(1 0 0 -1 0 842)" d="M84.84 158.24L82.32 160.82L81.78 161.42L82.56 161.66L89.64 163.46L90.53999 163.64L90.3 162.86L88.32 155.84L88.07999 155L87.42 155.6L87.3 156.08L89.28 163.1L90.3 162.86L89.93999 162.44L82.85999 160.64L82.56 161.66L83.03999 161.54L85.56 158.96" stroke="none" fill="#000000" fill-rule="nonzero" /><path id="311" transform="matrix(1 0 0 -1 0 842)" d="M87.42 155.6L84.84 158.24L85.56 158.96L88.14 156.32" stroke="none" fill="#000000" fill-rule="nonzero" /><path id="312" transform="matrix(1 0 0 -1 0 842)" d="M85.2 158.6L82.68 161.18L82.68 161.18L89.75999 162.98L89.75999 162.98L87.78 155.96" stroke="none" fill="#000000" fill-rule="evenodd" /><path id="313" transform="matrix(1 0 0 -1 0 842)" d="M62.04 137.36L61.32 136.7L62.7 135.26L63.42 135.92" stroke="none" fill="#000000" fill-rule="nonzero" /><path id="314" transform="matrix(1 0 0 -1 0 842)" d="M84.18 158.96L84.9 159.62L86.28 158.18L85.56 157.52" stroke="none" fill="#000000" fill-rule="nonzero" /><path id="315" transform="matrix(1 0 0 -1 0 842)" d="M62.04 137.36L63.42 135.92L85.56 157.52L84.18 158.96" stroke="none" fill="#000000" fill-rule="nonzero" /><path id="316" transform="matrix(1 0 0 -1 0 842)" d="M179.1 210.92L179.28 210.92L179.28 210.92L179.64 211.04L179.64 211.04L179.76 211.16L179.76 211.16L180 211.52L180 211.52L180.06 211.7L180.06 211.7L180.06 212.12L180.06 212.12L180 212.3L180 212.3L179.88 212.48L179.88 212.48L179.64 212.72L179.64 212.72L179.46 212.84L179.46 212.84L179.28 212.9L179.28 212.9L178.86 212.9L178.86 212.9L178.68 212.84L178.68 212.84L178.5 212.72L178.5 212.72L178.26 212.48L178.26 212.48L178.14 212.3L178.14 212.3L178.08 212.12L178.08 212.12L178.08 211.7L178.08 211.7L178.14 211.52L178.14 211.52L178.38 211.16L178.38 211.16L178.5 211.04L178.5 211.04L178.86 210.92L178.86 210.92L179.1 210.92" stroke="none" fill="#000000" fill-rule="evenodd" /><path id="317" transform="matrix(1 0 0 -1 0 842)" d="M179.1 211.88L183.54 211.88L183.12 211.16L179.52 204.86L179.04 204.08L178.62 204.8L174.96 211.1L174.48 211.88L175.44 211.88L175.86 211.64L179.52 205.34L178.62 204.8L178.62 205.34L182.22 211.64L183.12 211.16L182.7 210.86L179.1 210.86" stroke="none" fill="#000000" fill-rule="nonzero" /><path id="318" transform="matrix(1 0 0 -1 0 842)" d="M175.44 210.86L179.1 210.86L179.1 211.88L175.44 211.88z" stroke="none" fill="#000000" fill-rule="nonzero" /><path id="319" transform="matrix(1 0 0 -1 0 842)" d="M179.1 211.4L182.7 211.4L182.7 211.4L179.1 205.1L179.1 205.1L175.44 211.4" stroke="none" fill="#000000" fill-rule="evenodd" /><path id="320" transform="matrix(1 0 0 -1 0 842)" d="M178.14 240.08L180.12 240.08L180.12 241.04L178.14 241.04z" stroke="none" fill="#000000" fill-rule="nonzero" /><path id="321" transform="matrix(1 0 0 -1 0 842)" d="M178.14 210.92L180.12 210.92L180.12 240.08L178.14 240.08z" stroke="none" fill="#000000" fill-rule="nonzero" /><path id="322" transform="matrix(1 0 0 -1 0 842)" d="M231.42 160.88L231.6 160.88L231.6 160.88L231.84 160.94L231.84 160.94L232.02 161L232.02 161L232.14 161.12L232.14 161.12L232.32 161.24L232.32 161.24L232.38 161.42L232.38 161.42L232.5 161.6L232.5 161.6L232.5 162.2L232.5 162.2L232.44 162.38L232.44 162.38L232.32 162.5L232.32 162.5L232.2 162.68L232.2 162.68L232.02 162.8L232.02 162.8L231.66 162.92L231.66 162.92L231.42 162.92L231.42 162.92L231.06 162.8L231.06 162.8L230.88 162.68L230.88 162.68L230.76 162.56L230.76 162.56L230.64 162.38L230.64 162.38L230.52 162.02L230.52 162.02L230.52 161.84L230.52 161.84L230.58 161.6L230.58 161.6L230.64 161.42L230.64 161.42L230.76 161.3L230.76 161.3L230.88 161.12L230.88 161.12L231.06 161.06L231.06 161.06L231.24 160.94L231.24 160.94L231.42 160.88" stroke="none" fill="#000000" fill-rule="evenodd" /><path id="323" transform="matrix(1 0 0 -1 0 842)" d="M231.54 161.9L235.14 161.48L235.98 161.3L235.44 160.64L231.12 154.82L230.64 154.1L230.28 155L227.4 161.66L227.04 162.44L227.94 162.32L228.3 162.02L231.18 155.36L230.28 155L230.34 155.48L234.66 161.3L235.44 160.64L235.02 160.46L231.42 160.88" stroke="none" fill="#000000" fill-rule="nonzero" /><path id="324" transform="matrix(1 0 0 -1 0 842)" d="M227.94 162.32L231.54 161.9L231.42 160.88L227.82 161.3" stroke="none" fill="#000000" fill-rule="nonzero" /><path id="325" transform="matrix(1 0 0 -1 0 842)" d="M231.48 161.42L235.08 161L235.08 161L230.76 155.18L230.76 155.18L227.88 161.84" stroke="none" fill="#000000" fill-rule="evenodd" /><path id="326" transform="matrix(1 0 0 -1 0 842)" d="M235.8 190.04L235.92 191L233.94 191.24L233.82 190.28" stroke="none" fill="#000000" fill-rule="nonzero" /><path id="327" transform="matrix(1 0 0 -1 0 842)" d="M232.56 161.78L232.44 160.82L230.46 161.06L230.58 162.02" stroke="none" fill="#000000" fill-rule="nonzero" /><path id="328" transform="matrix(1 0 0 -1 0 842)" d="M235.8 190.04L233.82 190.28L230.58 162.02L232.56 161.78" stroke="none" fill="#000000" fill-rule="nonzero" /><path id="329" transform="matrix(1 0 0 -1 0 842)" d="M340.32 161.84L340.5 161.84L340.5 161.84L340.74 161.9L340.74 161.9L340.86 162.02L340.86 162.02L341.04 162.14L341.04 162.14L341.16 162.26L341.16 162.26L341.28 162.62L341.28 162.62L341.28 163.04L341.28 163.04L341.22 163.22L341.22 163.22L341.1 163.4L341.1 163.4L340.86 163.64L340.86 163.64L340.68 163.76L340.68 163.76L340.5 163.82L340.5 163.82L340.08 163.82L340.08 163.82L339.9 163.76L339.9 163.76L339.72 163.64L339.72 163.64L339.6 163.52L339.6 163.52L339.48 163.34L339.48 163.34L339.36 163.22L339.36 163.22L339.3 162.98L339.3 162.98L339.3 162.62L339.3 162.62L339.36 162.44L339.36 162.44L339.6 162.08L339.6 162.08L339.78 161.96L339.78 161.96L340.14 161.84L340.14 161.84L340.32 161.84" stroke="none" fill="#000000" fill-rule="evenodd" /><path id="330" transform="matrix(1 0 0 -1 0 842)" d="M340.32 162.8L343.92 162.86L344.76 162.86L344.34 162.14L340.86 155.78L340.38 155L339.96 155.72L336.18 161.96L335.7 162.74L336.66 162.74L337.08 162.5L340.86 156.26L339.96 155.72L339.96 156.26L343.44 162.62L344.34 162.14L343.92 161.84L340.32 161.78" stroke="none" fill="#000000" fill-rule="nonzero" /><path id="331" transform="matrix(1 0 0 -1 0 842)" d="M336.66 162.74L340.32 162.8L340.32 161.78L336.66 161.72" stroke="none" fill="#000000" fill-rule="nonzero" /><path id="332" transform="matrix(1 0 0 -1 0 842)" d="M340.32 162.32L343.92 162.38L343.92 162.38L340.44 156.02L340.44 156.02L336.66 162.26" stroke="none" fill="#000000" fill-rule="evenodd" /><path id="333" transform="matrix(1 0 0 -1 0 842)" d="M340.74 191.06L340.74 192.02L338.76 191.96L338.76 191" stroke="none" fill="#000000" fill-rule="nonzero" /><path id="334" transform="matrix(1 0 0 -1 0 842)" d="M341.34 162.8L341.34 161.84L339.36 161.78L339.36 162.74" stroke="none" fill="#000000" fill-rule="nonzero" /><path id="335" transform="matrix(1 0 0 -1 0 842)" d="M340.74 191.06L338.76 191L339.36 162.74L341.34 162.8" stroke="none" fill="#000000" fill-rule="nonzero" /><path id="336" transform="matrix(1 0 0 -1 0 842)" d="M389.64 149.6L389.52 149.72L389.52 149.72L389.34 149.84L389.34 149.84L389.16 149.9L389.16 149.9L388.74 149.9L388.74 149.9L388.56 149.84L388.56 149.84L388.38 149.72L388.38 149.72L388.26 149.6L388.26 149.6L388.14 149.42L388.14 149.42L388.02 149.3L388.02 149.3L387.96 149.06L387.96 149.06L387.96 148.7L387.96 148.7L388.02 148.52L388.02 148.52L388.14 148.34L388.14 148.34L388.26 148.22L388.26 148.22L388.38 148.04L388.38 148.04L388.74 147.92L388.74 147.92L389.16 147.92L389.16 147.92L389.52 148.04L389.52 148.04L389.64 148.22L389.64 148.22L389.82 148.34L389.82 148.34L389.88 148.52L389.88 148.52L389.94 148.7L389.94 148.7L389.94 149.06L389.94 149.06L389.88 149.3L389.88 149.3L389.82 149.42L389.82 149.42L389.64 149.6" stroke="none" fill="#000000" fill-rule="evenodd" /><path id="337" transform="matrix(1 0 0 -1 0 842)" d="M388.98 148.88L386.4 151.46L385.8 152.12L386.7 152.3L393.72 154.16L394.56 154.46L394.26 153.5L392.34 146.48L392.16 145.7L391.5 146.3L391.38 146.78L393.3 153.8L394.26 153.5L393.96 153.2L386.94 151.34L386.7 152.3L387.12 152.18L389.7 149.6" stroke="none" fill="#000000" fill-rule="nonzero" /><path id="338" transform="matrix(1 0 0 -1 0 842)" d="M391.5 146.3L388.98 148.88L389.7 149.6L392.22 147.02" stroke="none" fill="#000000" fill-rule="nonzero" /><path id="339" transform="matrix(1 0 0 -1 0 842)" d="M389.34 149.24L386.76 151.82L386.76 151.82L393.78 153.68L393.78 153.68L391.86 146.66" stroke="none" fill="#000000" fill-rule="evenodd" /><path id="340" transform="matrix(1 0 0 -1 0 842)" d="M376.56 137.84L375.9 137.18L377.28 135.8L377.94 136.46" stroke="none" fill="#000000" fill-rule="nonzero" /><path id="341" transform="matrix(1 0 0 -1 0 842)" d="M388.32 149.54L388.98 150.2L390.36 148.82L389.7 148.16" stroke="none" fill="#000000" fill-rule="nonzero" /><path id="342" transform="matrix(1 0 0 -1 0 842)" d="M376.56 137.84L377.94 136.46L389.7 148.16L388.32 149.54" stroke="none" fill="#000000" fill-rule="nonzero" /><path id="343" transform="matrix(1 0 0 -1 0 842)" d="M497.64 159.62L497.52 159.74L497.52 159.74L496.98 159.92L496.98 159.92L496.8 159.86L496.8 159.86L496.56 159.8L496.56 159.8L496.44 159.74L496.44 159.74L496.26 159.62L496.26 159.62L496.02 159.26L496.02 159.26L495.96 159.08L495.96 159.08L495.96 158.72L495.96 158.72L496.02 158.54L496.02 158.54L496.26 158.18L496.26 158.18L496.44 158.06L496.44 158.06L496.56 158L496.56 158L496.8 157.94L496.8 157.94L496.98 157.88L496.98 157.88L497.52 158.06L497.52 158.06L497.82 158.36L497.82 158.36L497.94 158.72L497.94 158.72L497.94 159.08L497.94 159.08L497.82 159.44L497.82 159.44L497.64 159.62" stroke="none" fill="#000000" fill-rule="evenodd" /><path id="344" transform="matrix(1 0 0 -1 0 842)" d="M496.98 158.9L494.4 161.48L493.8 162.14L494.7 162.32L501.72 164.18L502.56 164.48L502.26 163.52L500.34 156.5L500.16 155.72L499.5 156.32L499.38 156.8L501.3 163.82L502.26 163.52L501.96 163.22L494.94 161.36L494.7 162.32L495.12 162.2L497.7 159.62" stroke="none" fill="#000000" fill-rule="nonzero" /><path id="345" transform="matrix(1 0 0 -1 0 842)" d="M499.5 156.32L496.98 158.9L497.7 159.62L500.22 157.04" stroke="none" fill="#000000" fill-rule="nonzero" /><path id="346" transform="matrix(1 0 0 -1 0 842)" d="M497.34 159.26L494.76 161.84L494.76 161.84L501.78 163.7L501.78 163.7L499.86 156.68" stroke="none" fill="#000000" fill-rule="evenodd" /><path id="347" transform="matrix(1 0 0 -1 0 842)" d="M484.56 147.8L483.9 147.14L485.28 145.76L485.94 146.42" stroke="none" fill="#000000" fill-rule="nonzero" /><path id="348" transform="matrix(1 0 0 -1 0 842)" d="M496.32 159.56L496.98 160.22L498.36 158.84L497.7 158.18" stroke="none" fill="#000000" fill-rule="nonzero" /><path id="349" transform="matrix(1 0 0 -1 0 842)" d="M484.56 147.8L485.94 146.42L497.7 158.18L496.32 159.56" stroke="none" fill="#000000" fill-rule="nonzero" /><path id="350" transform="matrix(1 0 0 -1 0 842)" d="M259.98 147.98L312.48 147.98L312.48 159.98L259.98 159.98z" stroke="none" fill="#FFFFFF" fill-rule="nonzero" /><path id="355" transform="matrix(1 0 0 -1 0 842)" d="M313.86 158.12L313.5 157.76L314.22 157.04L314.58 157.4" stroke="none" fill="#000000" fill-rule="nonzero" /><path id="356" transform="matrix(1 0 0 -1 0 842)" d="M329.58 173.84L329.94 174.2L330.66 173.48L330.3 173.12" stroke="none" fill="#000000" fill-rule="nonzero" /><path id="357" transform="matrix(1 0 0 -1 0 842)" d="M313.86 158.12L314.58 157.4L330.3 173.12L329.58 173.84" stroke="none" fill="#000000" fill-rule="nonzero" /><path id="358" transform="matrix(1 0 0 -1 0 842)" d="M257.58 155.42L257.94 155.06L258.66 155.78L258.3 156.14" stroke="none" fill="#000000" fill-rule="nonzero" /><path id="359" transform="matrix(1 0 0 -1 0 842)" d="M241.86 171.14L241.5 171.5L242.22 172.22L242.58 171.86" stroke="none" fill="#000000" fill-rule="nonzero" /><path id="360" transform="matrix(1 0 0 -1 0 842)" d="M257.58 155.42L258.3 156.14L242.58 171.86L241.86 171.14" stroke="none" fill="#000000" fill-rule="nonzero" /></g></g></g></g></svg>