<svg xmlns="http://www.w3.org/2000/svg" xmlns:xlink="http://www.w3.org/1999/xlink" id="body_120" preserveAspectRatio="xMinYMin meet" viewBox="0 0 793 1123"><defs><clipPath id="1"><path id="" clip-rule="evenodd" transform="matrix(1 0 0 1 0 0)" d="M0 842L0 0L0 0L595 0L595 0L595 842L595 842L0 842z" /></clipPath><clipPath id="2"><path id="" clip-rule="evenodd" transform="matrix(1 0 0 1 0 0)" d="M36.96 79.02002L502.98 79.02002L502.98 79.02002L502.98 414.06L502.98 414.06L36.96 414.06z" /></clipPath><clipPath id="3"><path id="" clip-rule="evenodd" transform="matrix(1 0 0 1 0 0)" d="M35.94 78.06L504 78.06L504 78.06L504 415.02L504 415.02L35.94 415.02z" /></clipPath><clipPath id="4"><path id="" clip-rule="evenodd" transform="matrix(1 0 0 1 0 0)" d="M0 0.02001953L595.2 0.02001953L595.2 0.02001953L595.2 842L595.2 842L0 842z" /></clipPath><clipPath id="5"><path id="" clip-rule="evenodd" transform="matrix(1 0 0 1 0 0)" d="M37.645 79.94397L502.164 79.94397L502.164 79.94397L502.164 92.99799L502.164 92.99799L37.645 92.99799z" /></clipPath><clipPath id="6"><path id="" clip-rule="evenodd" transform="matrix(1 0 0 1 0 0)" d="M36.96 79.02002L502.98 79.02002L502.98 79.02002L502.98 414.06L502.98 414.06L36.96 414.06z" /></clipPath><clipPath id="7"><path id="" clip-rule="evenodd" transform="matrix(1 0 0 1 0 0)" d="M35.94 78.06L504 78.06L504 78.06L504 415.02L504 415.02L35.94 415.02z" /></clipPath><clipPath id="8"><path id="" clip-rule="evenodd" transform="matrix(1 0 0 1 0 0)" d="M0 0.02001953L595.2 0.02001953L595.2 0.02001953L595.2 842L595.2 842L0 842z" /></clipPath><clipPath id="9"><path id="" clip-rule="evenodd" transform="matrix(1 0 0 1 0 0)" d="M36.96 79.02002L502.98 79.02002L502.98 79.02002L502.98 414.06L502.98 414.06L36.96 414.06z" /></clipPath><clipPath id="10"><path id="" clip-rule="evenodd" transform="matrix(1 0 0 1 0 0)" d="M35.94 78.06L504 78.06L504 78.06L504 415.02L504 415.02L35.94 415.02z" /></clipPath><clipPath id="11"><path id="" clip-rule="evenodd" transform="matrix(1 0 0 1 0 0)" d="M0 0.02001953L595.2 0.02001953L595.2 0.02001953L595.2 842L595.2 842L0 842z" /></clipPath><clipPath id="12"><path id="" clip-rule="evenodd" transform="matrix(1 0 0 1 0 0)" d="M35.94 78.06L504 78.06L504 78.06L504 415.02L504 415.02L35.94 415.02z" /></clipPath><clipPath id="13"><path id="" clip-rule="evenodd" transform="matrix(1 0 0 1 0 0)" d="M0 0.02001953L595.2 0.02001953L595.2 0.02001953L595.2 842L595.2 842L0 842z" /></clipPath></defs><g transform="matrix(1.333333 0 0 1.333333 0 0)"><g clip-path="url(#1)"><g clip-path="url(#2)"><g clip-path="url(#3)"><g clip-path="url(#4)"><path id="253" transform="matrix(1 0 0 -1 0 842)" d="M305.66 544.656L305.66 570.341L305.66 570.341L378.887 570.341L378.887 570.341L378.887 544.321" stroke="#ED3338" stroke-width="2" stroke-dasharray="5.00050020217896,1" fill="none" /><path id="254" transform="matrix(1 0 0 -1 0 842)" d="M203.347 502.943L360.604 502.943L360.604 502.943L360.604 494.458L360.604 494.458L203.347 494.458L203.347 494.458L203.347 502.943z" stroke="#383336" stroke-width="2" stroke-dasharray="5.00050020217896,1" fill="none" /><path id="255" transform="matrix(1 0 0 -1 0 842)" d="M96.437 711.127L96.437 748.832" stroke="#ED3338" stroke-width="2" fill="none" /><path id="256" transform="matrix(1 0 0 -1 0 842)" d="M47.835 712.707L145.039 712.707C 148.009 712.707 150.439 711.709 150.439 710.49L150.439 710.49L150.439 642.921C 150.439 641.702 148.009 640.704 145.039 640.704L145.039 640.704L47.835 640.704C 44.865 640.704 42.434 641.702 42.434 642.921L42.434 642.921L42.434 710.49C 42.434 711.709 44.865 712.707 47.835 712.707z" stroke="#383336" stroke-width="2" fill="#FFFFFF" fill-rule="evenodd" /><path id="257" transform="matrix(1 0 0 -1 0 842)" d="M190.175 544.321L190.175 570.851L190.175 570.851L263.402 570.851L263.402 570.851L263.402 545.728" stroke="#ED3338" stroke-width="2" stroke-dasharray="5.00050020217896,1" fill="none" /><path id="258" transform="matrix(1 0 0 -1 0 842)" d="M296.431 543.856L296.431 595.946L296.431 595.946L383.247 595.946L383.247 595.946L383.247 749.491" stroke="#ED3338" stroke-width="4" fill="none" /><path id="259" transform="matrix(1 0 0 -1 0 842)" d="M286.516 680.464L286.516 624.461" stroke="#ED3338" stroke-width="2" stroke-dasharray="5.00050020217896,1" fill="none" /><path id="260" transform="matrix(1 0 0 -1 0 842)" d="M387.421 596.619L387.421 596.619" stroke="#383336" stroke-width="0.216" fill="none" /><path id="261" transform="matrix(1 0 0 -1 0 842)" d="M452.825 691.614L452.825 748.832" stroke="#ED3338" stroke-width="2" fill="none" /><path id="262" transform="matrix(1 0 0 -1 0 842)" d="M242.722 668.994L242.722 710.406C 242.722 711.672 243.92 712.707 245.385 712.707L245.385 712.707L326.542 712.707C 328.006 712.707 329.204 711.672 329.204 710.406L329.204 710.406L329.204 668.994C 329.204 667.729 328.006 666.694 326.542 666.694L326.542 666.694L245.385 666.694C 243.92 666.694 242.722 667.729 242.722 668.994z" stroke="#383336" stroke-width="2" fill="#FFFFFF" fill-rule="evenodd" /><path id="263" transform="matrix(1 0 0 -1 0 842)" d="M431.79 712.707L473.202 712.707C 474.467 712.707 475.503 711.4319 475.503 709.874L475.503 709.874L475.503 623.514C 475.503 621.956 474.467 620.681 473.202 620.681L473.202 620.681L431.79 620.681C 430.525 620.681 429.489 621.956 429.489 623.514L429.489 623.514L429.489 709.874C 429.489 711.4319 430.525 712.707 431.79 712.707z" stroke="#383336" stroke-width="2" fill="#FFFFFF" fill-rule="evenodd" /><path id="264" transform="matrix(1 0 0 -1 0 842)" d="M284.391 544.714L284.391 544.714" stroke="#383336" stroke-width="0.216" fill="none" /></g></g></g><g clip-path="url(#5)"><g clip-path="url(#6)"><g clip-path="url(#7)"><g clip-path="url(#8)"><path id="265" transform="matrix(1 0 0 -1 0 842)" d="M37.645 749.002L502.164 749.002L502.164 762.056L37.645 762.056z" stroke="none" fill="#F2F2F2" fill-rule="nonzero" /><path id="266" transform="matrix(1 0 0 -1 0 842)" d="M41.19235 752.5925L41.19235 756.1926M37.5922 748.9923L44.7925 748.9923L44.7925 748.9923L44.7925 752.5925L44.7925 752.5925L37.5922 752.5925z" stroke="#000000" stroke-width="0.72003" fill="none" /><path id="267" transform="matrix(1 0 0 -1 0 842)" d="M48.39265 752.5925L48.39265 756.1926M44.7925 748.9923L51.99281 748.9923L51.99281 748.9923L51.99281 752.5925L51.99281 752.5925L44.7925 752.5925z" stroke="#000000" stroke-width="0.72003" fill="none" /><path id="268" transform="matrix(1 0 0 -1 0 842)" d="M55.59296 752.5925L55.59296 756.1926M51.99281 748.9923L59.19311 748.9923L59.19311 748.9923L59.19311 752.5925L59.19311 752.5925L51.99281 752.5925z" stroke="#000000" stroke-width="0.72003" fill="none" /><path id="269" transform="matrix(1 0 0 -1 0 842)" d="M62.79326 752.5925L62.79326 756.1926M59.19311 748.9923L66.39341 748.9923L66.39341 748.9923L66.39341 752.5925L66.39341 752.5925L59.19311 752.5925z" stroke="#000000" stroke-width="0.72003" fill="none" /><path id="270" transform="matrix(1 0 0 -1 0 842)" d="M69.99356 752.5925L69.99356 756.1926M66.39341 748.9923L73.59371 748.9923L73.59371 748.9923L73.59371 752.5925L73.59371 752.5925L66.39341 752.5925z" stroke="#000000" stroke-width="0.72003" fill="none" /><path id="271" transform="matrix(1 0 0 -1 0 842)" d="M77.19386 752.5925L77.19386 756.1926M73.59371 748.9923L80.79401 748.9923L80.79401 748.9923L80.79401 752.5925L80.79401 752.5925L73.59371 752.5925z" stroke="#000000" stroke-width="0.72003" fill="none" /><path id="272" transform="matrix(1 0 0 -1 0 842)" d="M84.39417 752.5925L84.39417 756.1926M80.79401 748.9923L87.99432 748.9923L87.99432 748.9923L87.99432 752.5925L87.99432 752.5925L80.79401 752.5925z" stroke="#000000" stroke-width="0.72003" fill="none" /><path id="273" transform="matrix(1 0 0 -1 0 842)" d="M91.59447 752.5925L91.59447 756.1926M87.99432 748.9923L95.19462 748.9923L95.19462 748.9923L95.19462 752.5925L95.19462 752.5925L87.99432 752.5925z" stroke="#000000" stroke-width="0.72003" fill="none" /><path id="274" transform="matrix(1 0 0 -1 0 842)" d="M98.79477 752.5925L98.79477 756.1926M95.19462 748.9923L102.3949 748.9923L102.3949 748.9923L102.3949 752.5925L102.3949 752.5925L95.19462 752.5925z" stroke="#000000" stroke-width="0.72003" fill="none" /><path id="275" transform="matrix(1 0 0 -1 0 842)" d="M105.9951 752.5925L105.9951 756.1926M102.3949 748.9923L109.5952 748.9923L109.5952 748.9923L109.5952 752.5925L109.5952 752.5925L102.3949 752.5925z" stroke="#000000" stroke-width="0.72003" fill="none" /><path id="276" transform="matrix(1 0 0 -1 0 842)" d="M113.1954 752.5925L113.1954 756.1926M109.5952 748.9923L116.7955 748.9923L116.7955 748.9923L116.7955 752.5925L116.7955 752.5925L109.5952 752.5925z" stroke="#000000" stroke-width="0.72003" fill="none" /><path id="277" transform="matrix(1 0 0 -1 0 842)" d="M120.3957 752.5925L120.3957 756.1926M116.7955 748.9923L123.9958 748.9923L123.9958 748.9923L123.9958 752.5925L123.9958 752.5925L116.7955 752.5925z" stroke="#000000" stroke-width="0.72003" fill="none" /><path id="278" transform="matrix(1 0 0 -1 0 842)" d="M127.596 752.5925L127.596 756.1926M123.9958 748.9923L131.1961 748.9923L131.1961 748.9923L131.1961 752.5925L131.1961 752.5925L123.9958 752.5925z" stroke="#000000" stroke-width="0.72003" fill="none" /><path id="279" transform="matrix(1 0 0 -1 0 842)" d="M134.7963 752.5925L134.7963 756.1926M131.1961 748.9923L138.3964 748.9923L138.3964 748.9923L138.3964 752.5925L138.3964 752.5925L131.1961 752.5925z" stroke="#000000" stroke-width="0.72003" fill="none" /><path id="280" transform="matrix(1 0 0 -1 0 842)" d="M141.9966 752.5925L141.9966 756.1926M138.3964 748.9923L145.5967 748.9923L145.5967 748.9923L145.5967 752.5925L145.5967 752.5925L138.3964 752.5925z" stroke="#000000" stroke-width="0.72003" fill="none" /><path id="281" transform="matrix(1 0 0 -1 0 842)" d="M149.1969 752.5925L149.1969 756.1926M145.5967 748.9923L152.797 748.9923L152.797 748.9923L152.797 752.5925L152.797 752.5925L145.5967 752.5925z" stroke="#000000" stroke-width="0.72003" fill="none" /><path id="282" transform="matrix(1 0 0 -1 0 842)" d="M156.3972 752.5925L156.3972 756.1926M152.797 748.9923L159.9973 748.9923L159.9973 748.9923L159.9973 752.5925L159.9973 752.5925L152.797 752.5925z" stroke="#000000" stroke-width="0.72003" fill="none" /><path id="283" transform="matrix(1 0 0 -1 0 842)" d="M163.5975 752.5925L163.5975 756.1926M159.9973 748.9923L167.1976 748.9923L167.1976 748.9923L167.1976 752.5925L167.1976 752.5925L159.9973 752.5925z" stroke="#000000" stroke-width="0.72003" fill="none" /><path id="284" transform="matrix(1 0 0 -1 0 842)" d="M170.7978 752.5925L170.7978 756.1926M167.1976 748.9923L174.3979 748.9923L174.3979 748.9923L174.3979 752.5925L174.3979 752.5925L167.1976 752.5925z" stroke="#000000" stroke-width="0.72003" fill="none" /><path id="285" transform="matrix(1 0 0 -1 0 842)" d="M177.9981 752.5925L177.9981 756.1926M174.3979 748.9923L181.5982 748.9923L181.5982 748.9923L181.5982 752.5925L181.5982 752.5925L174.3979 752.5925z" stroke="#000000" stroke-width="0.72003" fill="none" /><path id="286" transform="matrix(1 0 0 -1 0 842)" d="M185.1984 752.5925L185.1984 756.1926M181.5982 748.9923L188.7985 748.9923L188.7985 748.9923L188.7985 752.5925L188.7985 752.5925L181.5982 752.5925z" stroke="#000000" stroke-width="0.72003" fill="none" /><path id="287" transform="matrix(1 0 0 -1 0 842)" d="M192.3987 752.5925L192.3987 756.1926M188.7985 748.9923L195.9988 748.9923L195.9988 748.9923L195.9988 752.5925L195.9988 752.5925L188.7985 752.5925z" stroke="#000000" stroke-width="0.72003" fill="none" /><path id="288" transform="matrix(1 0 0 -1 0 842)" d="M199.599 752.5925L199.599 756.1926M195.9988 748.9923L203.1991 748.9923L203.1991 748.9923L203.1991 752.5925L203.1991 752.5925L195.9988 752.5925z" stroke="#000000" stroke-width="0.72003" fill="none" /><path id="289" transform="matrix(1 0 0 -1 0 842)" d="M206.7993 752.5925L206.7993 756.1926M203.1991 748.9923L210.3994 748.9923L210.3994 748.9923L210.3994 752.5925L210.3994 752.5925L203.1991 752.5925z" stroke="#000000" stroke-width="0.72003" fill="none" /><path id="290" transform="matrix(1 0 0 -1 0 842)" d="M213.9996 752.5925L213.9996 756.1926M210.3994 748.9923L217.5997 748.9923L217.5997 748.9923L217.5997 752.5925L217.5997 752.5925L210.3994 752.5925z" stroke="#000000" stroke-width="0.72003" fill="none" /><path id="291" transform="matrix(1 0 0 -1 0 842)" d="M221.1999 752.5925L221.1999 756.1926M217.5997 748.9923L224.8 748.9923L224.8 748.9923L224.8 752.5925L224.8 752.5925L217.5997 752.5925z" stroke="#000000" stroke-width="0.72003" fill="none" /><path id="292" transform="matrix(1 0 0 -1 0 842)" d="M228.4002 752.5925L228.4002 756.1926M224.8 748.9923L232.0004 748.9923L232.0004 748.9923L232.0004 752.5925L232.0004 752.5925L224.8 752.5925z" stroke="#000000" stroke-width="0.72003" fill="none" /><path id="293" transform="matrix(1 0 0 -1 0 842)" d="M235.6005 752.5925L235.6005 756.1926M232.0004 748.9923L239.2007 748.9923L239.2007 748.9923L239.2007 752.5925L239.2007 752.5925L232.0004 752.5925z" stroke="#000000" stroke-width="0.72003" fill="none" /><path id="294" transform="matrix(1 0 0 -1 0 842)" d="M242.8008 752.5925L242.8008 756.1926M239.2007 748.9923L246.401 748.9923L246.401 748.9923L246.401 752.5925L246.401 752.5925L239.2007 752.5925z" stroke="#000000" stroke-width="0.72003" fill="none" /><path id="295" transform="matrix(1 0 0 -1 0 842)" d="M250.0011 752.5925L250.0011 756.1926M246.401 748.9923L253.6013 748.9923L253.6013 748.9923L253.6013 752.5925L253.6013 752.5925L246.401 752.5925z" stroke="#000000" stroke-width="0.72003" fill="none" /><path id="296" transform="matrix(1 0 0 -1 0 842)" d="M257.2014 752.5925L257.2014 756.1926M253.6013 748.9923L260.8015 748.9923L260.8015 748.9923L260.8015 752.5925L260.8015 752.5925L253.6013 752.5925z" stroke="#000000" stroke-width="0.72003" fill="none" /><path id="297" transform="matrix(1 0 0 -1 0 842)" d="M264.4017 752.5925L264.4017 756.1926M260.8015 748.9923L268.0018 748.9923L268.0018 748.9923L268.0018 752.5925L268.0018 752.5925L260.8015 752.5925z" stroke="#000000" stroke-width="0.72003" fill="none" /><path id="298" transform="matrix(1 0 0 -1 0 842)" d="M271.602 752.5925L271.602 756.1926M268.0018 748.9923L275.2021 748.9923L275.2021 748.9923L275.2021 752.5925L275.2021 752.5925L268.0018 752.5925z" stroke="#000000" stroke-width="0.72003" fill="none" /><path id="299" transform="matrix(1 0 0 -1 0 842)" d="M278.8023 752.5925L278.8023 756.1926M275.2021 748.9923L282.4024 748.9923L282.4024 748.9923L282.4024 752.5925L282.4024 752.5925L275.2021 752.5925z" stroke="#000000" stroke-width="0.72003" fill="none" /><path id="300" transform="matrix(1 0 0 -1 0 842)" d="M286.0026 752.5925L286.0026 756.1926M282.4024 748.9923L289.6027 748.9923L289.6027 748.9923L289.6027 752.5925L289.6027 752.5925L282.4024 752.5925z" stroke="#000000" stroke-width="0.72003" fill="none" /><path id="301" transform="matrix(1 0 0 -1 0 842)" d="M293.2029 752.5925L293.2029 756.1926M289.6027 748.9923L296.803 748.9923L296.803 748.9923L296.803 752.5925L296.803 752.5925L289.6027 752.5925z" stroke="#000000" stroke-width="0.72003" fill="none" /><path id="302" transform="matrix(1 0 0 -1 0 842)" d="M300.4031 752.5925L300.4031 756.1926M296.803 748.9923L304.0033 748.9923L304.0033 748.9923L304.0033 752.5925L304.0033 752.5925L296.803 752.5925z" stroke="#000000" stroke-width="0.72003" fill="none" /><path id="303" transform="matrix(1 0 0 -1 0 842)" d="M307.6034 752.5925L307.6034 756.1926M304.0033 748.9923L311.2036 748.9923L311.2036 748.9923L311.2036 752.5925L311.2036 752.5925L304.0033 752.5925z" stroke="#000000" stroke-width="0.72003" fill="none" /><path id="304" transform="matrix(1 0 0 -1 0 842)" d="M314.8037 752.5925L314.8037 756.1926M311.2036 748.9923L318.4038 748.9923L318.4038 748.9923L318.4038 752.5925L318.4038 752.5925L311.2036 752.5925z" stroke="#000000" stroke-width="0.72003" fill="none" /><path id="305" transform="matrix(1 0 0 -1 0 842)" d="M322.004 752.5925L322.004 756.1926M318.4038 748.9923L325.6041 748.9923L325.6041 748.9923L325.6041 752.5925L325.6041 752.5925L318.4038 752.5925z" stroke="#000000" stroke-width="0.72003" fill="none" /><path id="306" transform="matrix(1 0 0 -1 0 842)" d="M329.2043 752.5925L329.2043 756.1926M325.6041 748.9923L332.8044 748.9923L332.8044 748.9923L332.8044 752.5925L332.8044 752.5925L325.6041 752.5925z" stroke="#000000" stroke-width="0.72003" fill="none" /><path id="307" transform="matrix(1 0 0 -1 0 842)" d="M336.4046 752.5925L336.4046 756.1926M332.8044 748.9923L340.0047 748.9923L340.0047 748.9923L340.0047 752.5925L340.0047 752.5925L332.8044 752.5925z" stroke="#000000" stroke-width="0.72003" fill="none" /><path id="308" transform="matrix(1 0 0 -1 0 842)" d="M343.6049 752.5925L343.6049 756.1926M340.0047 748.9923L347.205 748.9923L347.205 748.9923L347.205 752.5925L347.205 752.5925L340.0047 752.5925z" stroke="#000000" stroke-width="0.72003" fill="none" /><path id="309" transform="matrix(1 0 0 -1 0 842)" d="M350.8051 752.5925L350.8051 756.1926M347.205 748.9923L354.4053 748.9923L354.4053 748.9923L354.4053 752.5925L354.4053 752.5925L347.205 752.5925z" stroke="#000000" stroke-width="0.72003" fill="none" /><path id="310" transform="matrix(1 0 0 -1 0 842)" d="M358.0054 752.5925L358.0054 756.1926M354.4053 748.9923L361.6056 748.9923L361.6056 748.9923L361.6056 752.5925L361.6056 752.5925L354.4053 752.5925z" stroke="#000000" stroke-width="0.72003" fill="none" /><path id="311" transform="matrix(1 0 0 -1 0 842)" d="M365.2057 752.5925L365.2057 756.1926M361.6056 748.9923L368.8058 748.9923L368.8058 748.9923L368.8058 752.5925L368.8058 752.5925L361.6056 752.5925z" stroke="#000000" stroke-width="0.72003" fill="none" /><path id="312" transform="matrix(1 0 0 -1 0 842)" d="M372.406 752.5925L372.406 756.1926M368.8058 748.9923L376.0061 748.9923L376.0061 748.9923L376.0061 752.5925L376.0061 752.5925L368.8058 752.5925z" stroke="#000000" stroke-width="0.72003" fill="none" /><path id="313" transform="matrix(1 0 0 -1 0 842)" d="M379.6063 752.5925L379.6063 756.1926M376.0061 748.9923L383.2064 748.9923L383.2064 748.9923L383.2064 752.5925L383.2064 752.5925L376.0061 752.5925z" stroke="#000000" stroke-width="0.72003" fill="none" /><path id="314" transform="matrix(1 0 0 -1 0 842)" d="M386.8066 752.5925L386.8066 756.1926M383.2064 748.9923L390.4067 748.9923L390.4067 748.9923L390.4067 752.5925L390.4067 752.5925L383.2064 752.5925z" stroke="#000000" stroke-width="0.72003" fill="none" /><path id="315" transform="matrix(1 0 0 -1 0 842)" d="M394.0069 752.5925L394.0069 756.1926M390.4067 748.9923L397.607 748.9923L397.607 748.9923L397.607 752.5925L397.607 752.5925L390.4067 752.5925z" stroke="#000000" stroke-width="0.72003" fill="none" /><path id="316" transform="matrix(1 0 0 -1 0 842)" d="M401.2072 752.5925L401.2072 756.1926M397.607 748.9923L404.8073 748.9923L404.8073 748.9923L404.8073 752.5925L404.8073 752.5925L397.607 752.5925z" stroke="#000000" stroke-width="0.72003" fill="none" /><path id="317" transform="matrix(1 0 0 -1 0 842)" d="M408.4074 752.5925L408.4074 756.1926M404.8073 748.9923L412.0076 748.9923L412.0076 748.9923L412.0076 752.5925L412.0076 752.5925L404.8073 752.5925z" stroke="#000000" stroke-width="0.72003" fill="none" /><path id="318" transform="matrix(1 0 0 -1 0 842)" d="M415.6077 752.5925L415.6077 756.1926M412.0076 748.9923L419.2079 748.9923L419.2079 748.9923L419.2079 752.5925L419.2079 752.5925L412.0076 752.5925z" stroke="#000000" stroke-width="0.72003" fill="none" /><path id="319" transform="matrix(1 0 0 -1 0 842)" d="M422.808 752.5925L422.808 756.1926M419.2079 748.9923L426.4081 748.9923L426.4081 748.9923L426.4081 752.5925L426.4081 752.5925L419.2079 752.5925z" stroke="#000000" stroke-width="0.72003" fill="none" /><path id="320" transform="matrix(1 0 0 -1 0 842)" d="M430.0083 752.5925L430.0083 756.1926M426.4081 748.9923L433.6084 748.9923L433.6084 748.9923L433.6084 752.5925L433.6084 752.5925L426.4081 752.5925z" stroke="#000000" stroke-width="0.72003" fill="none" /><path id="321" transform="matrix(1 0 0 -1 0 842)" d="M437.2086 752.5925L437.2086 756.1926M433.6084 748.9923L440.8087 748.9923L440.8087 748.9923L440.8087 752.5925L440.8087 752.5925L433.6084 752.5925z" stroke="#000000" stroke-width="0.72003" fill="none" /><path id="322" transform="matrix(1 0 0 -1 0 842)" d="M444.4089 752.5925L444.4089 756.1926M440.8087 748.9923L448.009 748.9923L448.009 748.9923L448.009 752.5925L448.009 752.5925L440.8087 752.5925z" stroke="#000000" stroke-width="0.72003" fill="none" /><path id="323" transform="matrix(1 0 0 -1 0 842)" d="M451.6092 752.5925L451.6092 756.1926M448.009 748.9923L455.2093 748.9923L455.2093 748.9923L455.2093 752.5925L455.2093 752.5925L448.009 752.5925z" stroke="#000000" stroke-width="0.72003" fill="none" /><path id="324" transform="matrix(1 0 0 -1 0 842)" d="M458.8094 752.5925L458.8094 756.1926M455.2093 748.9923L462.4096 748.9923L462.4096 748.9923L462.4096 752.5925L462.4096 752.5925L455.2093 752.5925z" stroke="#000000" stroke-width="0.72003" fill="none" /><path id="325" transform="matrix(1 0 0 -1 0 842)" d="M466.0097 752.5925L466.0097 756.1926M462.4096 748.9923L469.6099 748.9923L469.6099 748.9923L469.6099 752.5925L469.6099 752.5925L462.4096 752.5925z" stroke="#000000" stroke-width="0.72003" fill="none" /><path id="326" transform="matrix(1 0 0 -1 0 842)" d="M473.21 752.5925L473.21 756.1926M469.6099 748.9923L476.8102 748.9923L476.8102 748.9923L476.8102 752.5925L476.8102 752.5925L469.6099 752.5925z" stroke="#000000" stroke-width="0.72003" fill="none" /><path id="327" transform="matrix(1 0 0 -1 0 842)" d="M480.4103 752.5925L480.4103 756.1926M476.8102 748.9923L484.0104 748.9923L484.0104 748.9923L484.0104 752.5925L484.0104 752.5925L476.8102 752.5925z" stroke="#000000" stroke-width="0.72003" fill="none" /><path id="328" transform="matrix(1 0 0 -1 0 842)" d="M487.6106 752.5925L487.6106 756.1926M484.0104 748.9923L491.2107 748.9923L491.2107 748.9923L491.2107 752.5925L491.2107 752.5925L484.0104 752.5925z" stroke="#000000" stroke-width="0.72003" fill="none" /><path id="329" transform="matrix(1 0 0 -1 0 842)" d="M494.8109 752.5925L494.8109 756.1926M491.2107 748.9923L498.411 748.9923L498.411 748.9923L498.411 752.5925L498.411 752.5925L491.2107 752.5925z" stroke="#000000" stroke-width="0.72003" fill="none" /><path id="330" transform="matrix(1 0 0 -1 0 842)" d="M502.0112 752.5925L502.0112 756.1926M498.411 748.9923L505.6113 748.9923L505.6113 748.9923L505.6113 752.5925L505.6113 752.5925L498.411 752.5925z" stroke="#000000" stroke-width="0.72003" fill="none" /><path id="331" transform="matrix(1 0 0 -1 0 842)" d="M41.19235 759.7928L41.19235 763.3929M37.5922 756.1926L44.7925 756.1926L44.7925 756.1926L44.7925 759.7928L44.7925 759.7928L37.5922 759.7928z" stroke="#000000" stroke-width="0.72003" fill="none" /><path id="332" transform="matrix(1 0 0 -1 0 842)" d="M48.39265 759.7928L48.39265 763.3929M44.7925 756.1926L51.99281 756.1926L51.99281 756.1926L51.99281 759.7928L51.99281 759.7928L44.7925 759.7928z" stroke="#000000" stroke-width="0.72003" fill="none" /><path id="333" transform="matrix(1 0 0 -1 0 842)" d="M55.59296 759.7928L55.59296 763.3929M51.99281 756.1926L59.19311 756.1926L59.19311 756.1926L59.19311 759.7928L59.19311 759.7928L51.99281 759.7928z" stroke="#000000" stroke-width="0.72003" fill="none" /><path id="334" transform="matrix(1 0 0 -1 0 842)" d="M62.79326 759.7928L62.79326 763.3929M59.19311 756.1926L66.39341 756.1926L66.39341 756.1926L66.39341 759.7928L66.39341 759.7928L59.19311 759.7928z" stroke="#000000" stroke-width="0.72003" fill="none" /><path id="335" transform="matrix(1 0 0 -1 0 842)" d="M69.99356 759.7928L69.99356 763.3929M66.39341 756.1926L73.59371 756.1926L73.59371 756.1926L73.59371 759.7928L73.59371 759.7928L66.39341 759.7928z" stroke="#000000" stroke-width="0.72003" fill="none" /><path id="336" transform="matrix(1 0 0 -1 0 842)" d="M77.19386 759.7928L77.19386 763.3929M73.59371 756.1926L80.79401 756.1926L80.79401 756.1926L80.79401 759.7928L80.79401 759.7928L73.59371 759.7928z" stroke="#000000" stroke-width="0.72003" fill="none" /><path id="337" transform="matrix(1 0 0 -1 0 842)" d="M84.39417 759.7928L84.39417 763.3929M80.79401 756.1926L87.99432 756.1926L87.99432 756.1926L87.99432 759.7928L87.99432 759.7928L80.79401 759.7928z" stroke="#000000" stroke-width="0.72003" fill="none" /><path id="338" transform="matrix(1 0 0 -1 0 842)" d="M91.59447 759.7928L91.59447 763.3929M87.99432 756.1926L95.19462 756.1926L95.19462 756.1926L95.19462 759.7928L95.19462 759.7928L87.99432 759.7928z" stroke="#000000" stroke-width="0.72003" fill="none" /><path id="339" transform="matrix(1 0 0 -1 0 842)" d="M98.79477 759.7928L98.79477 763.3929M95.19462 756.1926L102.3949 756.1926L102.3949 756.1926L102.3949 759.7928L102.3949 759.7928L95.19462 759.7928z" stroke="#000000" stroke-width="0.72003" fill="none" /><path id="340" transform="matrix(1 0 0 -1 0 842)" d="M105.9951 759.7928L105.9951 763.3929M102.3949 756.1926L109.5952 756.1926L109.5952 756.1926L109.5952 759.7928L109.5952 759.7928L102.3949 759.7928z" stroke="#000000" stroke-width="0.72003" fill="none" /><path id="341" transform="matrix(1 0 0 -1 0 842)" d="M113.1954 759.7928L113.1954 763.3929M109.5952 756.1926L116.7955 756.1926L116.7955 756.1926L116.7955 759.7928L116.7955 759.7928L109.5952 759.7928z" stroke="#000000" stroke-width="0.72003" fill="none" /><path id="342" transform="matrix(1 0 0 -1 0 842)" d="M120.3957 759.7928L120.3957 763.3929M116.7955 756.1926L123.9958 756.1926L123.9958 756.1926L123.9958 759.7928L123.9958 759.7928L116.7955 759.7928z" stroke="#000000" stroke-width="0.72003" fill="none" /><path id="343" transform="matrix(1 0 0 -1 0 842)" d="M127.596 759.7928L127.596 763.3929M123.9958 756.1926L131.1961 756.1926L131.1961 756.1926L131.1961 759.7928L131.1961 759.7928L123.9958 759.7928z" stroke="#000000" stroke-width="0.72003" fill="none" /><path id="344" transform="matrix(1 0 0 -1 0 842)" d="M134.7963 759.7928L134.7963 763.3929M131.1961 756.1926L138.3964 756.1926L138.3964 756.1926L138.3964 759.7928L138.3964 759.7928L131.1961 759.7928z" stroke="#000000" stroke-width="0.72003" fill="none" /><path id="345" transform="matrix(1 0 0 -1 0 842)" d="M141.9966 759.7928L141.9966 763.3929M138.3964 756.1926L145.5967 756.1926L145.5967 756.1926L145.5967 759.7928L145.5967 759.7928L138.3964 759.7928z" stroke="#000000" stroke-width="0.72003" fill="none" /><path id="346" transform="matrix(1 0 0 -1 0 842)" d="M149.1969 759.7928L149.1969 763.3929M145.5967 756.1926L152.797 756.1926L152.797 756.1926L152.797 759.7928L152.797 759.7928L145.5967 759.7928z" stroke="#000000" stroke-width="0.72003" fill="none" /><path id="347" transform="matrix(1 0 0 -1 0 842)" d="M156.3972 759.7928L156.3972 763.3929M152.797 756.1926L159.9973 756.1926L159.9973 756.1926L159.9973 759.7928L159.9973 759.7928L152.797 759.7928z" stroke="#000000" stroke-width="0.72003" fill="none" /><path id="348" transform="matrix(1 0 0 -1 0 842)" d="M163.5975 759.7928L163.5975 763.3929M159.9973 756.1926L167.1976 756.1926L167.1976 756.1926L167.1976 759.7928L167.1976 759.7928L159.9973 759.7928z" stroke="#000000" stroke-width="0.72003" fill="none" /><path id="349" transform="matrix(1 0 0 -1 0 842)" d="M170.7978 759.7928L170.7978 763.3929M167.1976 756.1926L174.3979 756.1926L174.3979 756.1926L174.3979 759.7928L174.3979 759.7928L167.1976 759.7928z" stroke="#000000" stroke-width="0.72003" fill="none" /><path id="350" transform="matrix(1 0 0 -1 0 842)" d="M177.9981 759.7928L177.9981 763.3929M174.3979 756.1926L181.5982 756.1926L181.5982 756.1926L181.5982 759.7928L181.5982 759.7928L174.3979 759.7928z" stroke="#000000" stroke-width="0.72003" fill="none" /><path id="351" transform="matrix(1 0 0 -1 0 842)" d="M185.1984 759.7928L185.1984 763.3929M181.5982 756.1926L188.7985 756.1926L188.7985 756.1926L188.7985 759.7928L188.7985 759.7928L181.5982 759.7928z" stroke="#000000" stroke-width="0.72003" fill="none" /><path id="352" transform="matrix(1 0 0 -1 0 842)" d="M192.3987 759.7928L192.3987 763.3929M188.7985 756.1926L195.9988 756.1926L195.9988 756.1926L195.9988 759.7928L195.9988 759.7928L188.7985 759.7928z" stroke="#000000" stroke-width="0.72003" fill="none" /><path id="353" transform="matrix(1 0 0 -1 0 842)" d="M199.599 759.7928L199.599 763.3929M195.9988 756.1926L203.1991 756.1926L203.1991 756.1926L203.1991 759.7928L203.1991 759.7928L195.9988 759.7928z" stroke="#000000" stroke-width="0.72003" fill="none" /><path id="354" transform="matrix(1 0 0 -1 0 842)" d="M206.7993 759.7928L206.7993 763.3929M203.1991 756.1926L210.3994 756.1926L210.3994 756.1926L210.3994 759.7928L210.3994 759.7928L203.1991 759.7928z" stroke="#000000" stroke-width="0.72003" fill="none" /><path id="355" transform="matrix(1 0 0 -1 0 842)" d="M213.9996 759.7928L213.9996 763.3929M210.3994 756.1926L217.5997 756.1926L217.5997 756.1926L217.5997 759.7928L217.5997 759.7928L210.3994 759.7928z" stroke="#000000" stroke-width="0.72003" fill="none" /><path id="356" transform="matrix(1 0 0 -1 0 842)" d="M221.1999 759.7928L221.1999 763.3929M217.5997 756.1926L224.8 756.1926L224.8 756.1926L224.8 759.7928L224.8 759.7928L217.5997 759.7928z" stroke="#000000" stroke-width="0.72003" fill="none" /><path id="357" transform="matrix(1 0 0 -1 0 842)" d="M228.4002 759.7928L228.4002 763.3929M224.8 756.1926L232.0004 756.1926L232.0004 756.1926L232.0004 759.7928L232.0004 759.7928L224.8 759.7928z" stroke="#000000" stroke-width="0.72003" fill="none" /><path id="358" transform="matrix(1 0 0 -1 0 842)" d="M235.6005 759.7928L235.6005 763.3929M232.0004 756.1926L239.2007 756.1926L239.2007 756.1926L239.2007 759.7928L239.2007 759.7928L232.0004 759.7928z" stroke="#000000" stroke-width="0.72003" fill="none" /><path id="359" transform="matrix(1 0 0 -1 0 842)" d="M242.8008 759.7928L242.8008 763.3929M239.2007 756.1926L246.401 756.1926L246.401 756.1926L246.401 759.7928L246.401 759.7928L239.2007 759.7928z" stroke="#000000" stroke-width="0.72003" fill="none" /><path id="360" transform="matrix(1 0 0 -1 0 842)" d="M250.0011 759.7928L250.0011 763.3929M246.401 756.1926L253.6013 756.1926L253.6013 756.1926L253.6013 759.7928L253.6013 759.7928L246.401 759.7928z" stroke="#000000" stroke-width="0.72003" fill="none" /><path id="361" transform="matrix(1 0 0 -1 0 842)" d="M257.2014 759.7928L257.2014 763.3929M253.6013 756.1926L260.8015 756.1926L260.8015 756.1926L260.8015 759.7928L260.8015 759.7928L253.6013 759.7928z" stroke="#000000" stroke-width="0.72003" fill="none" /><path id="362" transform="matrix(1 0 0 -1 0 842)" d="M264.4017 759.7928L264.4017 763.3929M260.8015 756.1926L268.0018 756.1926L268.0018 756.1926L268.0018 759.7928L268.0018 759.7928L260.8015 759.7928z" stroke="#000000" stroke-width="0.72003" fill="none" /><path id="363" transform="matrix(1 0 0 -1 0 842)" d="M271.602 759.7928L271.602 763.3929M268.0018 756.1926L275.2021 756.1926L275.2021 756.1926L275.2021 759.7928L275.2021 759.7928L268.0018 759.7928z" stroke="#000000" stroke-width="0.72003" fill="none" /><path id="364" transform="matrix(1 0 0 -1 0 842)" d="M278.8023 759.7928L278.8023 763.3929M275.2021 756.1926L282.4024 756.1926L282.4024 756.1926L282.4024 759.7928L282.4024 759.7928L275.2021 759.7928z" stroke="#000000" stroke-width="0.72003" fill="none" /><path id="365" transform="matrix(1 0 0 -1 0 842)" d="M286.0026 759.7928L286.0026 763.3929M282.4024 756.1926L289.6027 756.1926L289.6027 756.1926L289.6027 759.7928L289.6027 759.7928L282.4024 759.7928z" stroke="#000000" stroke-width="0.72003" fill="none" /><path id="366" transform="matrix(1 0 0 -1 0 842)" d="M293.2029 759.7928L293.2029 763.3929M289.6027 756.1926L296.803 756.1926L296.803 756.1926L296.803 759.7928L296.803 759.7928L289.6027 759.7928z" stroke="#000000" stroke-width="0.72003" fill="none" /><path id="367" transform="matrix(1 0 0 -1 0 842)" d="M300.4031 759.7928L300.4031 763.3929M296.803 756.1926L304.0033 756.1926L304.0033 756.1926L304.0033 759.7928L304.0033 759.7928L296.803 759.7928z" stroke="#000000" stroke-width="0.72003" fill="none" /><path id="368" transform="matrix(1 0 0 -1 0 842)" d="M307.6034 759.7928L307.6034 763.3929M304.0033 756.1926L311.2036 756.1926L311.2036 756.1926L311.2036 759.7928L311.2036 759.7928L304.0033 759.7928z" stroke="#000000" stroke-width="0.72003" fill="none" /><path id="369" transform="matrix(1 0 0 -1 0 842)" d="M314.8037 759.7928L314.8037 763.3929M311.2036 756.1926L318.4038 756.1926L318.4038 756.1926L318.4038 759.7928L318.4038 759.7928L311.2036 759.7928z" stroke="#000000" stroke-width="0.72003" fill="none" /><path id="370" transform="matrix(1 0 0 -1 0 842)" d="M322.004 759.7928L322.004 763.3929M318.4038 756.1926L325.6041 756.1926L325.6041 756.1926L325.6041 759.7928L325.6041 759.7928L318.4038 759.7928z" stroke="#000000" stroke-width="0.72003" fill="none" /><path id="371" transform="matrix(1 0 0 -1 0 842)" d="M329.2043 759.7928L329.2043 763.3929M325.6041 756.1926L332.8044 756.1926L332.8044 756.1926L332.8044 759.7928L332.8044 759.7928L325.6041 759.7928z" stroke="#000000" stroke-width="0.72003" fill="none" /><path id="372" transform="matrix(1 0 0 -1 0 842)" d="M336.4046 759.7928L336.4046 763.3929M332.8044 756.1926L340.0047 756.1926L340.0047 756.1926L340.0047 759.7928L340.0047 759.7928L332.8044 759.7928z" stroke="#000000" stroke-width="0.72003" fill="none" /><path id="373" transform="matrix(1 0 0 -1 0 842)" d="M343.6049 759.7928L343.6049 763.3929M340.0047 756.1926L347.205 756.1926L347.205 756.1926L347.205 759.7928L347.205 759.7928L340.0047 759.7928z" stroke="#000000" stroke-width="0.72003" fill="none" /><path id="374" transform="matrix(1 0 0 -1 0 842)" d="M350.8051 759.7928L350.8051 763.3929M347.205 756.1926L354.4053 756.1926L354.4053 756.1926L354.4053 759.7928L354.4053 759.7928L347.205 759.7928z" stroke="#000000" stroke-width="0.72003" fill="none" /><path id="375" transform="matrix(1 0 0 -1 0 842)" d="M358.0054 759.7928L358.0054 763.3929M354.4053 756.1926L361.6056 756.1926L361.6056 756.1926L361.6056 759.7928L361.6056 759.7928L354.4053 759.7928z" stroke="#000000" stroke-width="0.72003" fill="none" /><path id="376" transform="matrix(1 0 0 -1 0 842)" d="M365.2057 759.7928L365.2057 763.3929M361.6056 756.1926L368.8058 756.1926L368.8058 756.1926L368.8058 759.7928L368.8058 759.7928L361.6056 759.7928z" stroke="#000000" stroke-width="0.72003" fill="none" /><path id="377" transform="matrix(1 0 0 -1 0 842)" d="M372.406 759.7928L372.406 763.3929M368.8058 756.1926L376.0061 756.1926L376.0061 756.1926L376.0061 759.7928L376.0061 759.7928L368.8058 759.7928z" stroke="#000000" stroke-width="0.72003" fill="none" /><path id="378" transform="matrix(1 0 0 -1 0 842)" d="M379.6063 759.7928L379.6063 763.3929M376.0061 756.1926L383.2064 756.1926L383.2064 756.1926L383.2064 759.7928L383.2064 759.7928L376.0061 759.7928z" stroke="#000000" stroke-width="0.72003" fill="none" /><path id="379" transform="matrix(1 0 0 -1 0 842)" d="M386.8066 759.7928L386.8066 763.3929M383.2064 756.1926L390.4067 756.1926L390.4067 756.1926L390.4067 759.7928L390.4067 759.7928L383.2064 759.7928z" stroke="#000000" stroke-width="0.72003" fill="none" /><path id="380" transform="matrix(1 0 0 -1 0 842)" d="M394.0069 759.7928L394.0069 763.3929M390.4067 756.1926L397.607 756.1926L397.607 756.1926L397.607 759.7928L397.607 759.7928L390.4067 759.7928z" stroke="#000000" stroke-width="0.72003" fill="none" /><path id="381" transform="matrix(1 0 0 -1 0 842)" d="M401.2072 759.7928L401.2072 763.3929M397.607 756.1926L404.8073 756.1926L404.8073 756.1926L404.8073 759.7928L404.8073 759.7928L397.607 759.7928z" stroke="#000000" stroke-width="0.72003" fill="none" /><path id="382" transform="matrix(1 0 0 -1 0 842)" d="M408.4074 759.7928L408.4074 763.3929M404.8073 756.1926L412.0076 756.1926L412.0076 756.1926L412.0076 759.7928L412.0076 759.7928L404.8073 759.7928z" stroke="#000000" stroke-width="0.72003" fill="none" /><path id="383" transform="matrix(1 0 0 -1 0 842)" d="M415.6077 759.7928L415.6077 763.3929M412.0076 756.1926L419.2079 756.1926L419.2079 756.1926L419.2079 759.7928L419.2079 759.7928L412.0076 759.7928z" stroke="#000000" stroke-width="0.72003" fill="none" /><path id="384" transform="matrix(1 0 0 -1 0 842)" d="M422.808 759.7928L422.808 763.3929M419.2079 756.1926L426.4081 756.1926L426.4081 756.1926L426.4081 759.7928L426.4081 759.7928L419.2079 759.7928z" stroke="#000000" stroke-width="0.72003" fill="none" /><path id="385" transform="matrix(1 0 0 -1 0 842)" d="M430.0083 759.7928L430.0083 763.3929M426.4081 756.1926L433.6084 756.1926L433.6084 756.1926L433.6084 759.7928L433.6084 759.7928L426.4081 759.7928z" stroke="#000000" stroke-width="0.72003" fill="none" /><path id="386" transform="matrix(1 0 0 -1 0 842)" d="M437.2086 759.7928L437.2086 763.3929M433.6084 756.1926L440.8087 756.1926L440.8087 756.1926L440.8087 759.7928L440.8087 759.7928L433.6084 759.7928z" stroke="#000000" stroke-width="0.72003" fill="none" /><path id="387" transform="matrix(1 0 0 -1 0 842)" d="M444.4089 759.7928L444.4089 763.3929M440.8087 756.1926L448.009 756.1926L448.009 756.1926L448.009 759.7928L448.009 759.7928L440.8087 759.7928z" stroke="#000000" stroke-width="0.72003" fill="none" /><path id="388" transform="matrix(1 0 0 -1 0 842)" d="M451.6092 759.7928L451.6092 763.3929M448.009 756.1926L455.2093 756.1926L455.2093 756.1926L455.2093 759.7928L455.2093 759.7928L448.009 759.7928z" stroke="#000000" stroke-width="0.72003" fill="none" /><path id="389" transform="matrix(1 0 0 -1 0 842)" d="M458.8094 759.7928L458.8094 763.3929M455.2093 756.1926L462.4096 756.1926L462.4096 756.1926L462.4096 759.7928L462.4096 759.7928L455.2093 759.7928z" stroke="#000000" stroke-width="0.72003" fill="none" /><path id="390" transform="matrix(1 0 0 -1 0 842)" d="M466.0097 759.7928L466.0097 763.3929M462.4096 756.1926L469.6099 756.1926L469.6099 756.1926L469.6099 759.7928L469.6099 759.7928L462.4096 759.7928z" stroke="#000000" stroke-width="0.72003" fill="none" /><path id="391" transform="matrix(1 0 0 -1 0 842)" d="M473.21 759.7928L473.21 763.3929M469.6099 756.1926L476.8102 756.1926L476.8102 756.1926L476.8102 759.7928L476.8102 759.7928L469.6099 759.7928z" stroke="#000000" stroke-width="0.72003" fill="none" /><path id="392" transform="matrix(1 0 0 -1 0 842)" d="M480.4103 759.7928L480.4103 763.3929M476.8102 756.1926L484.0104 756.1926L484.0104 756.1926L484.0104 759.7928L484.0104 759.7928L476.8102 759.7928z" stroke="#000000" stroke-width="0.72003" fill="none" /><path id="393" transform="matrix(1 0 0 -1 0 842)" d="M487.6106 759.7928L487.6106 763.3929M484.0104 756.1926L491.2107 756.1926L491.2107 756.1926L491.2107 759.7928L491.2107 759.7928L484.0104 759.7928z" stroke="#000000" stroke-width="0.72003" fill="none" /><path id="394" transform="matrix(1 0 0 -1 0 842)" d="M494.8109 759.7928L494.8109 763.3929M491.2107 756.1926L498.411 756.1926L498.411 756.1926L498.411 759.7928L498.411 759.7928L491.2107 759.7928z" stroke="#000000" stroke-width="0.72003" fill="none" /><path id="395" transform="matrix(1 0 0 -1 0 842)" d="M502.0112 759.7928L502.0112 763.3929M498.411 756.1926L505.6113 756.1926L505.6113 756.1926L505.6113 759.7928L505.6113 759.7928L498.411 759.7928z" stroke="#000000" stroke-width="0.72003" fill="none" /></g></g></g></g><g clip-path="url(#9)"><g clip-path="url(#10)"><g clip-path="url(#11)"><path id="396" transform="matrix(1 0 0 -1 0 842)" d="M37.645 762.056L502.164 762.056L502.164 762.056L502.164 749.002L502.164 749.002L37.645 749.002z" stroke="#383336" stroke-width="1" fill="none" /><path id="397" transform="matrix(1 0 0 -1 0 842)" d="M72.256 544.714L196.49 544.714C 200.287 544.714 203.393 543.439 203.393 541.88L203.393 541.88L203.393 455.521C 203.393 453.962 200.287 452.688 196.49 452.688L196.49 452.688L72.256 452.688C 68.46 452.688 65.354 453.962 65.354 455.521L65.354 455.521L65.354 541.88C 65.354 543.439 68.46 544.714 72.256 544.714z" stroke="#383336" stroke-width="2" fill="#FFFFFF" fill-rule="evenodd" /><path id="398" transform="matrix(1 0 0 -1 0 842)" d="M202.065 639.352L202.143 598.121L202.143 598.121L270.202 598.121L270.202 598.121L269.796 544.713" stroke="#ED3338" stroke-width="2" stroke-dasharray="1,1" fill="none" /><path id="399" transform="matrix(1 0 0 -1 0 842)" d="M225.512 709.057L225.933 643.17C 225.946 641.157 225.233 639.505 224.348 639.499L224.348 639.499L175.318 639.175C 174.433 639.17 173.699 640.812 173.686 642.825L173.686 642.825L173.264 708.712C 173.252 710.725 173.965 712.377 174.85 712.383L174.85 712.383L223.88 712.707C 224.765 712.713 225.499 711.07 225.512 709.057z" stroke="#383336" stroke-width="2" fill="#FFFFFF" fill-rule="evenodd" /><path id="400" transform="matrix(1 0 0 -1 0 842)" d="M137.916 544.663L166.089 544.663C 166.95 544.663 167.654 544.348 167.654 543.962L167.654 543.962L167.654 522.612C 167.654 522.2271 166.95 521.912 166.089 521.912L166.089 521.912L137.916 521.912C 137.055 521.912 136.351 522.2271 136.351 522.612L136.351 522.612L136.351 543.962C 136.351 544.348 137.055 544.663 137.916 544.663z" stroke="#383336" stroke-width="1" fill="#FFFFFF" fill-rule="evenodd" /><path id="401" transform="matrix(1 0 0 -1 0 842)" d="M156.397 612.994L156.397 545.643" stroke="#ED3338" stroke-width="2" stroke-dasharray="5.00050020217896,1" fill="none" /><path id="402" transform="matrix(1 0 0 -1 0 842)" d="M281.326 623.33L291.706 623.33C 292.023 623.33 292.282 623.01 292.282 622.62L292.282 622.62L292.282 600.974C 292.282 600.584 292.023 600.264 291.706 600.264L291.706 600.264L281.326 600.264C 281.009 600.264 280.749 600.584 280.749 600.974L280.749 600.974L280.749 622.62C 280.749 623.01 281.009 623.33 281.326 623.33z" stroke="#ED3338" stroke-width="2" fill="#FFFFFF" fill-rule="evenodd" /><path id="403" transform="matrix(1 0 0 -1 0 842)" d="M416.34 544.663L416.702 612.682M415.819 611.912L292.804 611.681M280.749 611.479L156.637 612.115" stroke="#ED3338" stroke-width="2" stroke-dasharray="5.00050020217896,1" fill="none" /><path id="404" transform="matrix(1 0 0 -1 0 842)" d="M296.431 543.856L296.431 595.946L296.431 595.946L383.247 595.946L383.247 595.946L383.247 749.491" stroke="#ED3338" stroke-width="4" fill="none" /><path id="405" transform="matrix(1 0 0 -1 0 842)" d="M286.516 600.46L286.516 544.7141" stroke="#ED3338" stroke-width="2" fill="none" /><path id="406" transform="matrix(1 0 0 -1 0 842)" d="M367.468 544.714L491.702 544.714C 495.499 544.714 498.604 543.439 498.604 541.88L498.604 541.88L498.604 455.521C 498.604 453.962 495.499 452.688 491.702 452.688L491.702 452.688L367.468 452.688C 363.672 452.688 360.566 453.962 360.566 455.521L360.566 455.521L360.566 541.88C 360.566 543.439 363.672 544.714 367.468 544.714z" stroke="#383336" stroke-width="2" fill="#FFFFFF" fill-rule="evenodd" /><path id="407" transform="matrix(1 0 0 -1 0 842)" d="M253.332 544.713L315.45 544.713C 317.348 544.713 318.901 543.119 318.901 541.171L318.901 541.171L318.901 433.223C 318.901 431.275 317.348 429.681 315.45 429.681L315.45 429.681L253.332 429.681C 251.434 429.681 249.881 431.275 249.881 433.223L249.881 433.223L249.881 541.171C 249.881 543.119 251.434 544.713 253.332 544.713z" stroke="#383336" stroke-width="2" fill="#FFFFFF" fill-rule="evenodd" /><path id="408" transform="matrix(1 0 0 -1 0 842)" d="M398.354 544.663L426.527 544.663C 427.388 544.663 428.092 544.348 428.092 543.962L428.092 543.962L428.092 522.612C 428.092 522.2271 427.388 521.912 426.527 521.912L426.527 521.912L398.354 521.912C 397.493 521.912 396.789 522.2271 396.789 522.612L396.789 522.612L396.789 543.962C 396.789 544.348 397.493 544.663 398.354 544.663z" stroke="#383336" stroke-width="1" fill="#FFFFFF" fill-rule="evenodd" /></g></g></g><g clip-path="url(#12)"><g clip-path="url(#13)"><path id="435" transform="matrix(1 0 0 -1 0 842)" d="M273.12 583.1L293.88 583.1L293.88 592.1L273.12 592.1z" stroke="none" fill="#FFFFFF" fill-rule="nonzero" /></g></g><path id="463" transform="matrix(1 0 0 -1 0 842)" d="M215.94 333.2L549 333.2L549 299.18L215.94 299.18" stroke="none" fill="#ECF5FC" fill-rule="nonzero" /></g></g></svg>