<svg xmlns="http://www.w3.org/2000/svg" xmlns:xlink="http://www.w3.org/1999/xlink" id="body_143" preserveAspectRatio="xMinYMin meet" viewBox="0 0 793 1123"><defs><clipPath id="1"><path id="" clip-rule="evenodd" transform="matrix(1 0 0 1 0 0)" d="M0 842L0 0L0 0L595 0L595 0L595 842L595 842L0 842z" /></clipPath><clipPath id="2"><path id="" clip-rule="evenodd" transform="matrix(1 0 0 1 0 0)" d="M224.94 76.02002L558.66 76.02002L558.66 76.02002L558.66 218.76L558.66 218.76L224.94 218.76z" /></clipPath><clipPath id="3"><path id="" clip-rule="evenodd" transform="matrix(1 0 0 1 0 0)" d="M0 0.02001953L595.2 0.02001953L595.2 0.02001953L595.2 842L595.2 842L0 842z" /></clipPath><clipPath id="4"><path id="" clip-rule="evenodd" transform="matrix(1 0 0 1 0 0)" d="M224.94 741.96L558 741.96L558 741.96L558 756.96L558 756.96L224.94 756.96z" /></clipPath><clipPath id="5"><path id="" clip-rule="evenodd" transform="matrix(1 0 0 1 0 0)" d="M0 0.02001953L595.2 0.02001953L595.2 0.02001953L595.2 842L595.2 842L0 842z" /></clipPath></defs><g transform="matrix(1.333333 0 0 1.333333 0 0)"><g clip-path="url(#1)"><g clip-path="url(#2)"><g clip-path="url(#3)"><path id="497" transform="matrix(1 0 0 -1 0 842)" d="M324.24 724.04L323.28 724.04L323.34 722.06L324.3 722.06" stroke="none" fill="#000000" fill-rule="nonzero" /><path id="498" transform="matrix(1 0 0 -1 0 842)" d="M324.24 724.04L324.3 722.06L350.52 722.48L351.48 723.5L351.48 724.46L350.46 724.46" stroke="none" fill="#000000" fill-rule="nonzero" /><path id="499" transform="matrix(1 0 0 -1 0 842)" d="M349.5 695.54L351.48 695.54L351.48 723.5L349.5 723.5z" stroke="none" fill="#000000" fill-rule="nonzero" /><path id="500" transform="matrix(1 0 0 -1 0 842)" d="M360.78 696.26L362.76 696.26L362.76 697.22L360.78 697.22z" stroke="none" fill="#000000" fill-rule="nonzero" /><path id="501" transform="matrix(1 0 0 -1 0 842)" d="M360.78 697.22L360.78 704.24L361.2 704.48L362.76 703.64L362.76 697.22" stroke="none" fill="#000000" fill-rule="nonzero" /><path id="502" transform="matrix(1 0 0 -1 0 842)" d="M361.2 704.48L374.28 712.7L375.84 711.86L375.84 711.32L375.36 711.02L362.28 702.8" stroke="none" fill="#000000" fill-rule="nonzero" /><path id="503" transform="matrix(1 0 0 -1 0 842)" d="M373.5 724.94L373.5 725.9L375.48 725.96L375.48 725" stroke="none" fill="#000000" fill-rule="nonzero" /><path id="504" transform="matrix(1 0 0 -1 0 842)" d="M373.86 711.8L375.84 711.86L375.48 725L373.5 724.94" stroke="none" fill="#000000" fill-rule="nonzero" /><path id="505" transform="matrix(1 0 0 -1 0 842)" d="M380.28 696.26L382.26 696.26L382.26 697.22L380.28 697.22z" stroke="none" fill="#000000" fill-rule="nonzero" /><path id="506" transform="matrix(1 0 0 -1 0 842)" d="M380.28 697.22L380.28 704.24L380.7 704.48L382.26 703.64L382.26 697.22" stroke="none" fill="#000000" fill-rule="nonzero" /><path id="507" transform="matrix(1 0 0 -1 0 842)" d="M380.7 704.48L393.78 712.7L395.34 711.86L395.34 711.32L394.86 711.02L381.78 702.8" stroke="none" fill="#000000" fill-rule="nonzero" /><path id="508" transform="matrix(1 0 0 -1 0 842)" d="M393 724.94L393 725.9L394.98 725.96L394.98 725" stroke="none" fill="#000000" fill-rule="nonzero" /><path id="509" transform="matrix(1 0 0 -1 0 842)" d="M393.36 711.8L395.34 711.86L394.98 725L393 724.94" stroke="none" fill="#000000" fill-rule="nonzero" /><path id="510" transform="matrix(1 0 0 -1 0 842)" d="M360.78 687.62L362.76 687.62L362.76 688.58L360.78 688.58z" stroke="none" fill="#000000" fill-rule="nonzero" /><path id="511" transform="matrix(1 0 0 -1 0 842)" d="M362.76 687.62L362.76 681.26L361.2 680.42L360.78 680.66L360.78 687.62" stroke="none" fill="#000000" fill-rule="nonzero" /><path id="512" transform="matrix(1 0 0 -1 0 842)" d="M362.28 682.1L375.36 673.8199L375.84 673.52L375.84 672.92L374.28 672.14L361.2 680.42" stroke="none" fill="#000000" fill-rule="nonzero" /><path id="513" transform="matrix(1 0 0 -1 0 842)" d="M375.48 659.78L375.48 658.82L373.5 658.88L373.5 659.84" stroke="none" fill="#000000" fill-rule="nonzero" /><path id="514" transform="matrix(1 0 0 -1 0 842)" d="M375.84 672.92L373.86 672.98L373.5 659.84L375.48 659.78" stroke="none" fill="#000000" fill-rule="nonzero" /><path id="515" transform="matrix(1 0 0 -1 0 842)" d="M380.28 687.62L382.26 687.62L382.26 688.58L380.28 688.58z" stroke="none" fill="#000000" fill-rule="nonzero" /><path id="516" transform="matrix(1 0 0 -1 0 842)" d="M382.26 687.62L382.26 681.26L380.7 680.42L380.28 680.66L380.28 687.62" stroke="none" fill="#000000" fill-rule="nonzero" /><path id="517" transform="matrix(1 0 0 -1 0 842)" d="M381.78 682.1L394.86 673.8199L395.34 673.52L395.34 672.92L393.78 672.14L380.7 680.42" stroke="none" fill="#000000" fill-rule="nonzero" /><path id="518" transform="matrix(1 0 0 -1 0 842)" d="M394.98 659.78L394.98 658.82L393 658.88L393 659.84" stroke="none" fill="#000000" fill-rule="nonzero" /><path id="519" transform="matrix(1 0 0 -1 0 842)" d="M395.34 672.92L393.36 672.98L393 659.84L394.98 659.78" stroke="none" fill="#000000" fill-rule="nonzero" /><path id="520" transform="matrix(1 0 0 -1 0 842)" d="M418.86 725L420.84 725L420.84 725.96L418.86 725.96z" stroke="none" fill="#000000" fill-rule="nonzero" /><path id="521" transform="matrix(1 0 0 -1 0 842)" d="M420.84 725L418.86 725L419.28 696.5L418.8 695.54L420.24 695.48L421.26 696.5" stroke="none" fill="#000000" fill-rule="nonzero" /><path id="522" transform="matrix(1 0 0 -1 0 842)" d="M428.94 697.1L429.9 697.1L429.84 695.12L428.88 695.12" stroke="none" fill="#000000" fill-rule="nonzero" /><path id="523" transform="matrix(1 0 0 -1 0 842)" d="M420.3 697.46L420.24 695.48L428.88 695.12L428.94 697.1" stroke="none" fill="#000000" fill-rule="nonzero" /><path id="524" transform="matrix(1 0 0 -1 0 842)" d="M419.04 658.88L421.02 658.88L421.02 659.84L419.04 659.84z" stroke="none" fill="#000000" fill-rule="nonzero" /><path id="525" transform="matrix(1 0 0 -1 0 842)" d="M419.04 659.84L421.02 659.84L421.38 688.34L420.3 689.3L419.04 689.2401L419.4 688.34" stroke="none" fill="#000000" fill-rule="nonzero" /><path id="526" transform="matrix(1 0 0 -1 0 842)" d="M428.94 689.72L429.9 689.78L430.02 687.8L429.06 687.74" stroke="none" fill="#000000" fill-rule="nonzero" /><path id="527" transform="matrix(1 0 0 -1 0 842)" d="M420.3 689.3L420.42 687.32L429.06 687.74L428.94 689.72" stroke="none" fill="#000000" fill-rule="nonzero" /><path id="528" transform="matrix(1 0 0 -1 0 842)" d="M403.14 725L405.12 725L405.12 725.96L403.14 725.96z" stroke="none" fill="#000000" fill-rule="nonzero" /><path id="529" transform="matrix(1 0 0 -1 0 842)" d="M403.14 696.26L405.12 696.26L405.12 725L403.14 725z" stroke="none" fill="#000000" fill-rule="nonzero" /><path id="530" transform="matrix(1 0 0 -1 0 842)" d="M403.26 687.62L405.24 687.62L405.24 688.58L403.26 688.58z" stroke="none" fill="#000000" fill-rule="nonzero" /><path id="531" transform="matrix(1 0 0 -1 0 842)" d="M403.26 658.88L405.24 658.88L405.24 687.62L403.26 687.62z" stroke="none" fill="#000000" fill-rule="nonzero" /><path id="532" transform="matrix(1 0 0 -1 0 842)" d="M443.34 692.72L443.34 692.9L443.34 692.9L443.22 693.14L443.22 693.14L443.16 693.2599L443.16 693.2599L443.04 693.3799L443.04 693.3799L442.92 693.4399L442.92 693.4399L442.74 693.5L442.74 693.5L442.44 693.5L442.44 693.5L442.2 693.3799L442.2 693.3799L442.08 693.2599L442.08 693.2599L442.02 693.14L442.02 693.14L441.9 693.02L441.9 693.02L441.9 692.9L441.9 692.9L441.84 692.72L441.84 692.72L441.9 692.6L441.9 692.6L441.9 692.42L441.9 692.42L442.02 692.3L442.02 692.3L442.08 692.18L442.08 692.18L442.44 692L442.44 692L442.74 692L442.74 692L442.92 692.06L442.92 692.06L443.16 692.18L443.16 692.18L443.28 692.42L443.28 692.42L443.34 692.6L443.34 692.6L443.34 692.72" stroke="none" fill="#000000" fill-rule="evenodd" /><path id="533" transform="matrix(1 0 0 -1 0 842)" d="M442.62 692.72L442.62 697.28L443.28 697.1L456.84 693.2L458.52 692.72L456.84 692.24L443.28 688.4L442.62 688.22L442.62 688.8799L442.98 689.36L456.54 693.2L456.84 692.24L456.54 692.24L442.98 696.14L443.28 697.1L443.64 696.62L443.64 692.72" stroke="none" fill="#000000" fill-rule="nonzero" /><path id="534" transform="matrix(1 0 0 -1 0 842)" d="M442.62 688.88L443.64 688.88L443.64 692.72L442.62 692.72z" stroke="none" fill="#000000" fill-rule="nonzero" /><path id="535" transform="matrix(1 0 0 -1 0 842)" d="M443.1 692.72L443.1 696.62L443.1 696.62L456.66 692.72L456.66 692.72L443.1 688.8799" stroke="none" fill="#000000" fill-rule="evenodd" /><path id="536" transform="matrix(1 0 0 -1 0 842)" d="M305.52 691.94L306.24 691.94L306.24 693.44L305.52 693.44z" stroke="none" fill="#000000" fill-rule="nonzero" /><path id="537" transform="matrix(1 0 0 -1 0 842)" d="M306.24 691.94L443.34 691.94L443.34 693.44L306.24 693.44z" stroke="none" fill="#000000" fill-rule="nonzero" /><path id="538" transform="matrix(1 0 0 -1 0 842)" d="M310.5 739.22L312 739.22L312 752.06L310.5 752.06z" stroke="none" fill="#000000" fill-rule="nonzero" /><path id="539" transform="matrix(1 0 0 -1 0 842)" d="M311.22 739.22L313.26 739.22L313.26 740.72L311.22 740.72z" stroke="none" fill="#000000" fill-rule="nonzero" /><path id="540" transform="matrix(1 0 0 -1 0 842)" d="M311.76 737.72L313.26 737.72L313.26 740L311.76 740z" stroke="none" fill="#000000" fill-rule="nonzero" /><path id="541" transform="matrix(1 0 0 -1 0 842)" d="M312.48 737.72L318 737.72L318 739.22L312.48 739.22z" stroke="none" fill="#000000" fill-rule="nonzero" /><path id="542" transform="matrix(1 0 0 -1 0 842)" d="M316.5 738.5L318 738.5L318 740.36L316.5 740.36z" stroke="none" fill="#000000" fill-rule="nonzero" /><path id="543" transform="matrix(1 0 0 -1 0 842)" d="M317.22 738.86L323.22 738.86L323.22 740.36L317.22 740.36z" stroke="none" fill="#000000" fill-rule="nonzero" /><path id="544" transform="matrix(1 0 0 -1 0 842)" d="M323.22 739.64L323.22 738.26L322.5 737.48L322.44 738.98L327.84 739.1L328.56 738.56L327.12 738.2L326.76 739.7L326.52 740.6L328.98 740.6L329.76 739.88L329.76 739.1L327.48 739.1L327.48 740.6L328.2 740.06L328.56 738.56L328.8 737.6L327.9 737.6L322.5 737.48L321.72 737.48L321.72 739.64" stroke="none" fill="#000000" fill-rule="nonzero" /><path id="545" transform="matrix(1 0 0 -1 0 842)" d="M328.14 750.98L329.64 750.98L329.64 751.7L328.14 751.7z" stroke="none" fill="#000000" fill-rule="nonzero" /><path id="546" transform="matrix(1 0 0 -1 0 842)" d="M328.26 739.88L329.76 739.88L329.64 750.98L328.14 750.98" stroke="none" fill="#000000" fill-rule="nonzero" /><path id="547" transform="matrix(1 0 0 -1 0 842)" d="M319.02 655.7L319.14 655.7L319.14 655.7L319.32 655.76L319.32 655.76L319.44 655.82L319.44 655.82L319.62 656L319.62 656L319.68 656.18L319.68 656.18L319.74 656.3L319.74 656.3L319.74 656.6L319.74 656.6L319.68 656.72L319.68 656.72L319.62 656.84L319.62 656.84L319.56 656.96L319.56 656.96L319.44 657.08L319.44 657.08L319.32 657.14L319.32 657.14L319.14 657.2L319.14 657.2L318.84 657.2L318.84 657.2L318.6 657.08L318.6 657.08L318.48 656.96L318.48 656.96L318.36 656.9L318.36 656.9L318.3 656.72L318.3 656.72L318.3 656.6L318.3 656.6L318.24 656.48L318.24 656.48L318.24 656.3L318.24 656.3L318.36 656.06L318.36 656.06L318.6 655.82L318.6 655.82L318.84 655.7L318.84 655.7L319.02 655.7" stroke="none" fill="#000000" fill-rule="evenodd" /><path id="548" transform="matrix(1 0 0 -1 0 842)" d="M319.02 656.42L322.26 656.42L323.16 656.48L322.68 655.64L319.38 650L318.96 649.16L318.48 650L315.24 655.64L314.76 656.42L315.72 656.42L316.14 656.18L319.38 650.54L318.48 650L318.48 650.54L321.78 656.18L322.68 655.64L322.26 655.4L319.02 655.4" stroke="none" fill="#000000" fill-rule="nonzero" /><path id="549" transform="matrix(1 0 0 -1 0 842)" d="M315.72 655.4L319.02 655.4L319.02 656.42L315.72 656.42z" stroke="none" fill="#000000" fill-rule="nonzero" /><path id="550" transform="matrix(1 0 0 -1 0 842)" d="M319.02 655.94L322.26 655.94L322.26 655.94L318.96 650.3L318.96 650.3L315.72 655.94" stroke="none" fill="#000000" fill-rule="evenodd" /><path id="551" transform="matrix(1 0 0 -1 0 842)" d="M318.72 737.84L320.22 737.84L320.22 738.56L318.72 738.56z" stroke="none" fill="#000000" fill-rule="nonzero" /><path id="552" transform="matrix(1 0 0 -1 0 842)" d="M318.3 655.7L319.8 655.7L319.8 656.42L318.3 656.42z" stroke="none" fill="#000000" fill-rule="nonzero" /><path id="553" transform="matrix(1 0 0 -1 0 842)" d="M320.22 737.84L318.72 737.84L318.3 656.42L319.8 656.42" stroke="none" fill="#000000" fill-rule="nonzero" /><path id="563" transform="matrix(1 0 0 -1 0 842)" d="M278.88 721.7L279.84 721.7L279.84 723.68L278.88 723.68z" stroke="none" fill="#000000" fill-rule="nonzero" /><path id="564" transform="matrix(1 0 0 -1 0 842)" d="M279.84 721.7L316.8 721.7L316.8 723.68L279.84 723.68z" stroke="none" fill="#000000" fill-rule="nonzero" /><path id="565" transform="matrix(1 0 0 -1 0 842)" d="M349.38 658.7L351.36 658.7L351.36 687.68L349.38 687.68z" stroke="none" fill="#000000" fill-rule="nonzero" /><path id="566" transform="matrix(1 0 0 -1 0 842)" d="M322.38 658.7L350.34 658.7L350.34 660.68L322.38 660.68z" stroke="none" fill="#000000" fill-rule="nonzero" /><path id="567" transform="matrix(1 0 0 -1 0 842)" d="M315.96 658.7L316.92 658.7L316.92 660.68L315.96 660.68z" stroke="none" fill="#000000" fill-rule="nonzero" /><path id="568" transform="matrix(1 0 0 -1 0 842)" d="M276.78 658.7L315.96 658.7L315.96 660.68L276.78 660.68z" stroke="none" fill="#000000" fill-rule="nonzero" /><path id="569" transform="matrix(1 0 0 -1 0 842)" d="M273 713.72L274.98 713.72L274.98 714.68L273 714.68z" stroke="none" fill="#000000" fill-rule="nonzero" /><path id="570" transform="matrix(1 0 0 -1 0 842)" d="M273 667.76L274.98 667.76L274.98 713.72L273 713.72z" stroke="none" fill="#000000" fill-rule="nonzero" /><path id="571" transform="matrix(1 0 0 -1 0 842)" d="M255 690.98L255.96 690.98L255.96 692.96L255 692.96z" stroke="none" fill="#000000" fill-rule="nonzero" /><path id="572" transform="matrix(1 0 0 -1 0 842)" d="M255.96 690.98L274.92 690.98L274.92 692.96L255.96 692.96z" stroke="none" fill="#000000" fill-rule="nonzero" /><path id="573" transform="matrix(1 0 0 -1 0 842)" d="M304.62 643.88L306.6 643.88L306.6 654.86L304.62 654.86z" stroke="none" fill="#000000" fill-rule="nonzero" /><path id="574" transform="matrix(1 0 0 -1 0 842)" d="M305.58 643.88L333.6 643.88L333.6 645.86L305.58 645.86z" stroke="none" fill="#000000" fill-rule="nonzero" /><path id="575" transform="matrix(1 0 0 -1 0 842)" d="M331.62 644.9L333.6 644.9L333.6 654.86L331.62 654.86z" stroke="none" fill="#000000" fill-rule="nonzero" /><path id="576" transform="matrix(1 0 0 -1 0 842)" d="M318.84 644.9L320.34 644.9L320.34 645.62L318.84 645.62z" stroke="none" fill="#000000" fill-rule="nonzero" /><path id="577" transform="matrix(1 0 0 -1 0 842)" d="M318.84 635.18L320.34 635.18L320.34 644.9L318.84 644.9z" stroke="none" fill="#000000" fill-rule="nonzero" /><path id="587" transform="matrix(1 0 0 -1 0 842)" d="M337.8 739.88L338.16 740.24L337.44 740.96L337.08 740.6" stroke="none" fill="#000000" fill-rule="nonzero" /><path id="588" transform="matrix(1 0 0 -1 0 842)" d="M319.8 721.88L319.44 721.52L318.72 722.24L319.08 722.6" stroke="none" fill="#000000" fill-rule="nonzero" /><path id="589" transform="matrix(1 0 0 -1 0 842)" d="M337.8 739.88L337.08 740.6L319.08 722.6L319.8 721.88" stroke="none" fill="#000000" fill-rule="nonzero" /><path id="595" transform="matrix(1 0 0 -1 0 842)" d="M301.32 705.08L300.96 705.38L300.3 704.6L300.66 704.3" stroke="none" fill="#000000" fill-rule="nonzero" /><path id="596" transform="matrix(1 0 0 -1 0 842)" d="M316.44 692.84L316.8 692.54L316.14 691.76L315.78 692.06" stroke="none" fill="#000000" fill-rule="nonzero" /><path id="597" transform="matrix(1 0 0 -1 0 842)" d="M301.32 705.08L300.66 704.3L315.78 692.06L316.44 692.84" stroke="none" fill="#000000" fill-rule="nonzero" /><path id="602" transform="matrix(1 0 0 -1 0 842)" d="M273.6 651.08L273.24 650.72L273.96 650L274.32 650.36" stroke="none" fill="#000000" fill-rule="nonzero" /><path id="603" transform="matrix(1 0 0 -1 0 842)" d="M282.6 660.08L282.96 660.44L283.68 659.72L283.32 659.36" stroke="none" fill="#000000" fill-rule="nonzero" /><path id="604" transform="matrix(1 0 0 -1 0 842)" d="M273.6 651.08L274.32 650.36L283.32 659.36L282.6 660.08" stroke="none" fill="#000000" fill-rule="nonzero" /></g></g><g clip-path="url(#4)"><g clip-path="url(#5)"><path id="614" transform="matrix(1 0 0 -1 0 842)" d="M225.36 92.78L225.6 92.78L225.6 93.26L225.36 93.26z" stroke="none" fill="#000000" fill-rule="nonzero" /><path id="615" transform="matrix(1 0 0 -1 0 842)" d="M225.6 92.78L369.9 92.78L369.9 93.26L225.6 93.26z" stroke="none" fill="#000000" fill-rule="nonzero" /></g></g><path id="634" transform="matrix(1 0 0 -1 0 842)" d="M224.94 254.36L558 254.36L558 220.34L224.94 220.34" stroke="none" fill="#ECF5FC" fill-rule="nonzero" /></g></g></svg>