<svg xmlns="http://www.w3.org/2000/svg" xmlns:xlink="http://www.w3.org/1999/xlink" id="body_41" preserveAspectRatio="xMinYMin meet" viewBox="0 0 793 1123"><defs><clipPath id="1"><path id="" clip-rule="evenodd" transform="matrix(1 0 0 1 0 0)" d="M0 842L0 0L0 0L595 0L595 0L595 842L595 842L0 842z" /></clipPath></defs><g transform="matrix(1.333333 0 0 1.333333 0 0)"><g clip-path="url(#1)"><path id="494" transform="matrix(1 0 0 -1 0 842)" d="M224.94 662L558 662L558 614L224.94 614" stroke="none" fill="#ECF5FC" fill-rule="nonzero" /><path id="581" transform="matrix(1 0 0 -1 0 842)" d="M224.94 566L296.46 566L296.46 584L224.94 584z" stroke="none" fill="#C5E0F7" fill-rule="nonzero" /><path id="586" transform="matrix(1 0 0 -1 0 842)" d="M296.46 566L451.26 566L451.26 584L296.46 584z" stroke="none" fill="#C5E0F7" fill-rule="nonzero" /><path id="591" transform="matrix(1 0 0 -1 0 842)" d="M451.26 566L558 566L558 584L451.26 584z" stroke="none" fill="#C5E0F7" fill-rule="nonzero" /><path id="728" transform="matrix(1 0 0 -1 0 842)" d="M224.94 459.8L558 459.8L558 460.28L224.94 460.28z" stroke="none" fill="#3D96E3" fill-rule="nonzero" /><path id="729" transform="matrix(1 0 0 -1 0 842)" d="M224.94 425.84L558 425.84L558 426.32L224.94 426.32z" stroke="none" fill="#3D96E3" fill-rule="nonzero" /><path id="730" transform="matrix(1 0 0 -1 0 842)" d="M224.94 343.34L558 343.34L558 344.84L224.94 344.84z" stroke="none" fill="#3D96E3" fill-rule="nonzero" /></g></g></svg>