<svg xmlns="http://www.w3.org/2000/svg" xmlns:xlink="http://www.w3.org/1999/xlink" id="body_245" preserveAspectRatio="xMinYMin meet" viewBox="0 0 793 1123"><defs><clipPath id="1"><path id="" clip-rule="evenodd" transform="matrix(1 0 0 1 0 0)" d="M0 842L0 0L0 0L595 0L595 0L595 842L595 842L0 842z" /></clipPath><clipPath id="2"><path id="" clip-rule="evenodd" transform="matrix(1 0 0 1 0 0)" d="M36.96 90.23999L159.78 90.23999L159.78 90.23999L159.78 203.46L159.78 203.46L36.96 203.46z" /></clipPath><clipPath id="3"><path id="" clip-rule="evenodd" transform="matrix(1 0 0 1 0 0)" d="M35.94 78.06L533.7 78.06L533.7 78.06L533.7 215.7L533.7 215.7L35.94 215.7z" /></clipPath><clipPath id="4"><path id="" clip-rule="evenodd" transform="matrix(1 0 0 1 0 0)" d="M0 0.02001953L595.2 0.02001953L595.2 0.02001953L595.2 842L595.2 842L0 842z" /></clipPath><clipPath id="5"><path id="" clip-rule="evenodd" transform="matrix(1 0 0 1 0 0)" d="M202.32 94.79999L363.9 94.79999L363.9 94.79999L363.9 198.9L363.9 198.9L202.32 198.9z" /></clipPath><clipPath id="6"><path id="" clip-rule="evenodd" transform="matrix(1 0 0 1 0 0)" d="M35.94 78.06L533.7 78.06L533.7 78.06L533.7 215.7L533.7 215.7L35.94 215.7z" /></clipPath><clipPath id="7"><path id="" clip-rule="evenodd" transform="matrix(1 0 0 1 0 0)" d="M0 0.02001953L595.2 0.02001953L595.2 0.02001953L595.2 842L595.2 842L0 842z" /></clipPath><clipPath id="8"><path id="" clip-rule="evenodd" transform="matrix(1 0 0 1 0 0)" d="M403.08 79.02002L532.68 79.02002L532.68 79.02002L532.68 214.6801L532.68 214.6801L403.08 214.6801z" /></clipPath><clipPath id="9"><path id="" clip-rule="evenodd" transform="matrix(1 0 0 1 0 0)" d="M35.94 78.06L533.7 78.06L533.7 78.06L533.7 215.7L533.7 215.7L35.94 215.7z" /></clipPath><clipPath id="10"><path id="" clip-rule="evenodd" transform="matrix(1 0 0 1 0 0)" d="M0 0.02001953L595.2 0.02001953L595.2 0.02001953L595.2 842L595.2 842L0 842z" /></clipPath><clipPath id="11"><path id="" clip-rule="evenodd" transform="matrix(1 0 0 1 0 0)" d="M35.94 78.06L533.7 78.06L533.7 78.06L533.7 215.7L533.7 215.7L35.94 215.7z" /></clipPath><clipPath id="12"><path id="" clip-rule="evenodd" transform="matrix(1 0 0 1 0 0)" d="M0 0.02001953L595.2 0.02001953L595.2 0.02001953L595.2 842L595.2 842L0 842z" /></clipPath><clipPath id="13"><path id="" clip-rule="evenodd" transform="matrix(1 0 0 1 0 0)" d="M36.96 325.92L129.12 325.92L129.12 325.92L129.12 418.86L129.12 418.86L36.96 418.86z" /></clipPath><clipPath id="14"><path id="" clip-rule="evenodd" transform="matrix(1 0 0 1 0 0)" d="M35.94 314.64L425.82 314.64L425.82 314.64L425.82 430.08L425.82 430.08L35.94 430.08z" /></clipPath><clipPath id="15"><path id="" clip-rule="evenodd" transform="matrix(1 0 0 1 0 0)" d="M0 0.02001953L595.2 0.02001953L595.2 0.02001953L595.2 842L595.2 842L0 842z" /></clipPath><clipPath id="16"><path id="" clip-rule="evenodd" transform="matrix(1 0 0 1 0 0)" d="M155.52 315.66L424.8 315.66L424.8 315.66L424.8 429.06L424.8 429.06L155.52 429.06z" /></clipPath><clipPath id="17"><path id="" clip-rule="evenodd" transform="matrix(1 0 0 1 0 0)" d="M35.94 314.64L425.82 314.64L425.82 314.64L425.82 430.08L425.82 430.08L35.94 430.08z" /></clipPath><clipPath id="18"><path id="" clip-rule="evenodd" transform="matrix(1 0 0 1 0 0)" d="M0 0.02001953L595.2 0.02001953L595.2 0.02001953L595.2 842L595.2 842L0 842z" /></clipPath><clipPath id="19"><path id="" clip-rule="evenodd" transform="matrix(1 0 0 1 0 0)" d="M35.94 314.64L425.82 314.64L425.82 314.64L425.82 430.08L425.82 430.08L35.94 430.08z" /></clipPath><clipPath id="20"><path id="" clip-rule="evenodd" transform="matrix(1 0 0 1 0 0)" d="M0 0.02001953L595.2 0.02001953L595.2 0.02001953L595.2 842L595.2 842L0 842z" /></clipPath><clipPath id="21"><path id="" clip-rule="evenodd" transform="matrix(1 0 0 1 0 0)" d="M36.96 516.06L422.28 516.06L422.28 516.06L422.28 660.42L422.28 660.42L36.96 660.42z" /></clipPath><clipPath id="22"><path id="" clip-rule="evenodd" transform="matrix(1 0 0 1 0 0)" d="M35.94 515.1L423.24 515.1L423.24 515.1L423.24 661.44L423.24 661.44L35.94 661.44z" /></clipPath><clipPath id="23"><path id="" clip-rule="evenodd" transform="matrix(1 0 0 1 0 0)" d="M0 0.02001953L595.2 0.02001953L595.2 0.02001953L595.2 842L595.2 842L0 842z" /></clipPath></defs><g transform="matrix(1.333333 0 0 1.333333 0 0)"><g clip-path="url(#1)"><g clip-path="url(#2)"><g clip-path="url(#3)"><g clip-path="url(#4)"><g transform="matrix(0.4797656 0 0 0.4797458 36.96 90.23999)"><g transform="matrix(1 0 0 1 0 0)"><image x="0" y="0" xlink:href="img_701.png" width="256" height="236" /></g></g></g></g></g><g clip-path="url(#5)"><g clip-path="url(#6)"><g clip-path="url(#7)"><g transform="matrix(0.4794659 0 0 0.4775229 202.32 94.80005)"><g transform="matrix(1 0 0 1 0 0)"><image x="0" y="0" xlink:href="img_702.png" width="337" height="218" /></g></g></g></g></g><g clip-path="url(#8)"><g clip-path="url(#9)"><g clip-path="url(#10)"><g transform="matrix(0.4782288 0 0 0.479364 403.08 79.02002)"><g transform="matrix(1 0 0 1 0 0)"><image x="0" y="0" xlink:href="img_703.png" width="271" height="283" /></g></g></g></g></g><g clip-path="url(#11)"><g clip-path="url(#12)"><path id="203" transform="matrix(1 0 0 -1 0 842)" d="M190.74 695.12L190.74 698.9L191.52 698.42L196.5 695.54L197.34 695.12L196.5 694.64L191.52 691.76L190.74 691.28L190.74 692.24L190.98 692.66L195.96 695.54L196.5 694.64L195.96 694.64L190.98 697.52L191.52 698.42L191.76 698L191.76 695.12" stroke="none" fill="#000000" fill-rule="nonzero" /><path id="204" transform="matrix(1 0 0 -1 0 842)" d="M190.74 692.24L191.76 692.24L191.76 695.12L190.74 695.12z" stroke="none" fill="#000000" fill-rule="nonzero" /><path id="205" transform="matrix(1 0 0 -1 0 842)" d="M191.22 695.12L191.22 698L191.22 698L196.2 695.12L196.2 695.12L191.22 692.24" stroke="none" fill="#000000" fill-rule="evenodd" /><path id="206" transform="matrix(1 0 0 -1 0 842)" d="M162.24 694.58L162.72 694.58L162.72 695.6L162.24 695.6z" stroke="none" fill="#000000" fill-rule="nonzero" /><path id="207" transform="matrix(1 0 0 -1 0 842)" d="M162.72 694.58L191.22 694.58L191.22 695.6L162.72 695.6z" stroke="none" fill="#000000" fill-rule="nonzero" /><path id="208" transform="matrix(1 0 0 -1 0 842)" d="M394.74 695.12L394.74 698.9L395.52 698.42L400.5 695.54L401.34 695.12L400.5 694.64L395.52 691.76L394.74 691.28L394.74 692.24L394.98 692.66L399.96 695.54L400.5 694.64L399.96 694.64L394.98 697.52L395.52 698.42L395.76 698L395.76 695.12" stroke="none" fill="#000000" fill-rule="nonzero" /><path id="209" transform="matrix(1 0 0 -1 0 842)" d="M394.74 692.24L395.76 692.24L395.76 695.12L394.74 695.12z" stroke="none" fill="#000000" fill-rule="nonzero" /><path id="210" transform="matrix(1 0 0 -1 0 842)" d="M395.22 695.12L395.22 698L395.22 698L400.2 695.12L400.2 695.12L395.22 692.24" stroke="none" fill="#000000" fill-rule="evenodd" /><path id="211" transform="matrix(1 0 0 -1 0 842)" d="M366.24 694.58L366.72 694.58L366.72 695.6L366.24 695.6z" stroke="none" fill="#000000" fill-rule="nonzero" /><path id="212" transform="matrix(1 0 0 -1 0 842)" d="M366.72 694.58L395.22 694.58L395.22 695.6L366.72 695.6z" stroke="none" fill="#000000" fill-rule="nonzero" /></g></g><g clip-path="url(#13)"><g clip-path="url(#14)"><g clip-path="url(#15)"><g transform="matrix(0.4802552 0 0 0.4790722 36.96 325.92)"><g transform="matrix(1 0 0 1 0 0)"><image x="0" y="0" xlink:href="img_704.png" width="192" height="194" /></g></g></g></g></g><g clip-path="url(#16)"><g clip-path="url(#17)"><g clip-path="url(#18)"><g transform="matrix(0.4791459 0 0 0.478481 155.52 315.66)"><g transform="matrix(1 0 0 1 0 0)"><image x="0" y="0" xlink:href="img_705.png" width="562" height="237" /></g></g></g></g></g><g clip-path="url(#19)"><g clip-path="url(#20)"><path id="229" transform="matrix(1 0 0 -1 0 842)" d="M146.94 469.64L146.94 473.36L147.66 472.94L152.7 470.06L153.42 469.58L152.7 469.16L147.66 466.28L146.94 465.86L146.94 466.76L147.18 467.18L152.22 470.06L152.7 469.16L152.22 469.16L147.18 472.04L147.66 472.94L147.96 472.52L147.96 469.64" stroke="none" fill="#000000" fill-rule="nonzero" /><path id="230" transform="matrix(1 0 0 -1 0 842)" d="M146.94 466.76L147.96 466.76L147.96 469.64L146.94 469.64z" stroke="none" fill="#000000" fill-rule="nonzero" /><path id="231" transform="matrix(1 0 0 -1 0 842)" d="M147.42 469.64L147.42 472.52L147.42 472.52L152.46 469.64L152.46 469.64L147.42 466.76" stroke="none" fill="#000000" fill-rule="evenodd" /><path id="232" transform="matrix(1 0 0 -1 0 842)" d="M131.94 469.1L132.42 469.1L132.42 470.12L131.94 470.12z" stroke="none" fill="#000000" fill-rule="nonzero" /><path id="233" transform="matrix(1 0 0 -1 0 842)" d="M132.42 469.1L147.42 469.1L147.42 470.12L132.42 470.12z" stroke="none" fill="#000000" fill-rule="nonzero" /></g></g><g clip-path="url(#21)"><g clip-path="url(#22)"><g clip-path="url(#23)"><g transform="matrix(0.4798506 0 0 0.4796013 36.96 516.06)"><g transform="matrix(1 0 0 1 0 0)"><image x="0" y="0" xlink:href="img_706.png" width="803" height="301" /></g></g></g></g></g></g></g></svg>