<svg xmlns="http://www.w3.org/2000/svg" xmlns:xlink="http://www.w3.org/1999/xlink" id="body_60" preserveAspectRatio="xMinYMin meet" viewBox="0 0 793 1123"><defs><clipPath id="1"><path id="" clip-rule="evenodd" transform="matrix(1 0 0 1 0 0)" d="M0 842L0 0L0 0L595 0L595 0L595 842L595 842L0 842z" /></clipPath><clipPath id="2"><path id="" clip-rule="evenodd" transform="matrix(1 0 0 1 0 0)" d="M124.56 295.98L202.98 295.98L202.98 295.98L202.98 310.38L202.98 310.38L124.56 310.38z" /></clipPath><clipPath id="3"><path id="" clip-rule="evenodd" transform="matrix(1 0 0 1 0 0)" d="M0 0.02001953L595.2 0.02001953L595.2 0.02001953L595.2 842L595.2 842L0 842z" /></clipPath><clipPath id="4"><path id="" clip-rule="evenodd" transform="matrix(1 0 0 1 0 0)" d="M124.98 296.46L198.36 296.46L198.36 296.46L198.36 310.26L198.36 310.26L124.98 310.26z" /></clipPath><clipPath id="5"><path id="" clip-rule="evenodd" transform="matrix(1 0 0 1 0 0)" d="M124.56 295.98L202.98 295.98L202.98 295.98L202.98 310.38L202.98 310.38L124.56 310.38z" /></clipPath><clipPath id="6"><path id="" clip-rule="evenodd" transform="matrix(1 0 0 1 0 0)" d="M0 0.02001953L595.2 0.02001953L595.2 0.02001953L595.2 842L595.2 842L0 842z" /></clipPath><clipPath id="7"><path id="" clip-rule="evenodd" transform="matrix(1 0 0 1 0 0)" d="M225.96 370.92L558.48 370.92L558.48 370.92L558.48 599.22L558.48 599.22L225.96 599.22z" /></clipPath><clipPath id="8"><path id="" clip-rule="evenodd" transform="matrix(1 0 0 1 0 0)" d="M224.94 369.96L559.5 369.96L559.5 369.96L559.5 619.8L559.5 619.8L224.94 619.8z" /></clipPath><clipPath id="9"><path id="" clip-rule="evenodd" transform="matrix(1 0 0 1 0 0)" d="M0 0.02001953L595.2 0.02001953L595.2 0.02001953L595.2 842L595.2 842L0 842z" /></clipPath><clipPath id="10"><path id="" clip-rule="evenodd" transform="matrix(1 0 0 1 0 0)" d="M224.94 369.96L559.5 369.96L559.5 369.96L559.5 619.8L559.5 619.8L224.94 619.8z" /></clipPath><clipPath id="11"><path id="" clip-rule="evenodd" transform="matrix(1 0 0 1 0 0)" d="M0 0.02001953L595.2 0.02001953L595.2 0.02001953L595.2 842L595.2 842L0 842z" /></clipPath></defs><g transform="matrix(1.333333 0 0 1.333333 0 0)"><g clip-path="url(#1)"><g clip-path="url(#2)"><g clip-path="url(#3)"><path id="415" transform="matrix(1 0 0 -1 0 842)" d="M124.56 531.62L202.98 531.62L202.98 546.02L124.56 546.02z" stroke="none" fill="#FFFFFF" fill-rule="nonzero" /></g></g><g clip-path="url(#4)"><g clip-path="url(#5)"><g clip-path="url(#6)"><g transform="matrix(0.7265346 0 0 0.7263158 124.98 296.46)"><g transform="matrix(1 0 0 1 0 0)"><image x="0" y="0" xlink:href="img_09.png" width="101" height="19" /></g></g></g></g></g><path id="417" transform="matrix(1 0 0 -1 0 842)" d="M224.94 550.04L558 550.04L558 488.06L224.94 488.06" stroke="none" fill="#ECF5FC" fill-rule="nonzero" /><g clip-path="url(#7)"><g clip-path="url(#8)"><g clip-path="url(#9)"><g transform="matrix(0.4805202 0 0 0.4786164 225.96 370.92)"><g transform="matrix(1 0 0 1 0 0)"><image x="0" y="0" xlink:href="img_175.png" width="692" height="477" /></g></g></g></g></g><g clip-path="url(#10)"><g clip-path="url(#11)"><path id="523" transform="matrix(1 0 0 -1 0 842)" d="M477.12 410L477.6 410L477.6 411.02L477.12 411.02z" stroke="none" fill="#000000" fill-rule="nonzero" /><path id="524" transform="matrix(1 0 0 -1 0 842)" d="M395.46 410L477.12 410L477.12 411.02L395.46 411.02z" stroke="none" fill="#000000" fill-rule="nonzero" /><path id="534" transform="matrix(1 0 0 -1 0 842)" d="M443.88 236.48L444.9 236.48L444.9 236.96L443.88 236.96z" stroke="none" fill="#000000" fill-rule="nonzero" /><path id="535" transform="matrix(1 0 0 -1 0 842)" d="M443.88 236.96L444.9 236.96L444.9 299.18L443.88 299.18z" stroke="none" fill="#000000" fill-rule="nonzero" /><path id="546" transform="matrix(1 0 0 -1 0 842)" d="M263.1 236.3L264.12 236.3L264.12 236.78L263.1 236.78z" stroke="none" fill="#000000" fill-rule="nonzero" /><path id="547" transform="matrix(1 0 0 -1 0 842)" d="M263.1 236.78L264.12 236.78L264.12 262.1L263.1 262.1z" stroke="none" fill="#000000" fill-rule="nonzero" /></g></g></g></g></svg>