<svg xmlns="http://www.w3.org/2000/svg" xmlns:xlink="http://www.w3.org/1999/xlink" id="body_20" preserveAspectRatio="xMinYMin meet" viewBox="0 0 793 1123"><defs><clipPath id="1"><path id="" clip-rule="evenodd" transform="matrix(1 0 0 1 0 0)" d="M0 842L0 0L0 0L595 0L595 0L595 842L595 842L0 842z" /></clipPath><clipPath id="2"><path id="" clip-rule="evenodd" transform="matrix(1 0 0 1 0 0)" d="M239.64 77.03998L346.26 77.03998L346.26 77.03998L346.26 441.3L346.26 441.3L239.64 441.3z" /></clipPath><clipPath id="3"><path id="" clip-rule="evenodd" transform="matrix(1 0 0 1 0 0)" d="M215.94 76.02002L376.68 76.02002L376.68 76.02002L376.68 442.32L376.68 442.32L215.94 442.32z" /></clipPath><clipPath id="4"><path id="" clip-rule="evenodd" transform="matrix(1 0 0 1 0 0)" d="M0 0.02001953L595.2 0.02001953L595.2 0.02001953L595.2 842L595.2 842L0 842z" /></clipPath><clipPath id="5"><path id="" clip-rule="evenodd" transform="matrix(1 0 0 1 0 0)" d="M215.94 76.02002L376.68 76.02002L376.68 76.02002L376.68 442.32L376.68 442.32L215.94 442.32z" /></clipPath><clipPath id="6"><path id="" clip-rule="evenodd" transform="matrix(1 0 0 1 0 0)" d="M0 0.02001953L595.2 0.02001953L595.2 0.02001953L595.2 842L595.2 842L0 842z" /></clipPath></defs><g transform="matrix(1.333333 0 0 1.333333 0 0)"><g clip-path="url(#1)"><g clip-path="url(#2)"><g clip-path="url(#3)"><g clip-path="url(#4)"><g transform="matrix(0.4781166 0 0 0.4786597 239.64 77.03998)"><g transform="matrix(1 0 0 1 0 0)"><image x="0" y="0" xlink:href="img_37.png" width="223" height="761" /></g></g></g></g></g><g clip-path="url(#5)"><g clip-path="url(#6)"><path id="363" transform="matrix(1 0 0 -1 0 842)" d="M358.08 614.72L358.56 614.72L358.56 615.74L358.08 615.74z" stroke="none" fill="#000000" fill-rule="nonzero" /><path id="364" transform="matrix(1 0 0 -1 0 842)" d="M301.92 614.72L358.08 614.72L358.08 615.74L301.92 615.74z" stroke="none" fill="#000000" fill-rule="nonzero" /><path id="366" transform="matrix(1 0 0 -1 0 842)" d="M357.54 477.02L358.02 477.02L358.02 478.04L357.54 478.04z" stroke="none" fill="#000000" fill-rule="nonzero" /><path id="367" transform="matrix(1 0 0 -1 0 842)" d="M299.1 477.02L357.54 477.02L357.54 478.04L299.1 478.04z" stroke="none" fill="#000000" fill-rule="nonzero" /><path id="368" transform="matrix(1 0 0 -1 0 842)" d="M358.44 428.42L358.92 428.42L358.92 429.44L358.44 429.44z" stroke="none" fill="#000000" fill-rule="nonzero" /><path id="369" transform="matrix(1 0 0 -1 0 842)" d="M313.68 428.84L314.16 428.84L314.16 429.86L313.68 429.86z" stroke="none" fill="#000000" fill-rule="nonzero" /><path id="370" transform="matrix(1 0 0 -1 0 842)" d="M358.44 428.42L358.44 429.44L314.16 429.86L314.16 428.84" stroke="none" fill="#000000" fill-rule="nonzero" /><path id="372" transform="matrix(1 0 0 -1 0 842)" d="M356.34 543.44L356.82 543.44L356.82 544.46L356.34 544.46z" stroke="none" fill="#000000" fill-rule="nonzero" /><path id="373" transform="matrix(1 0 0 -1 0 842)" d="M314.16 543.14L314.64 543.14L314.64 544.16L314.16 544.16z" stroke="none" fill="#000000" fill-rule="nonzero" /><path id="374" transform="matrix(1 0 0 -1 0 842)" d="M356.34 543.44L356.34 544.46L314.64 544.16L314.64 543.14" stroke="none" fill="#000000" fill-rule="nonzero" /><path id="375" transform="matrix(1 0 0 -1 0 842)" d="M358.92 735.2L359.4 735.2L359.4 736.22L358.92 736.22z" stroke="none" fill="#000000" fill-rule="nonzero" /><path id="376" transform="matrix(1 0 0 -1 0 842)" d="M319.68 735.2L358.92 735.2L358.92 736.22L319.68 736.22z" stroke="none" fill="#000000" fill-rule="nonzero" /><path id="378" transform="matrix(1 0 0 -1 0 842)" d="M229.14 428.48L229.62 428.48L229.62 429.5L229.14 429.5z" stroke="none" fill="#000000" fill-rule="nonzero" /><path id="379" transform="matrix(1 0 0 -1 0 842)" d="M229.62 428.48L277.92 428.48L277.92 429.5L229.62 429.5z" stroke="none" fill="#000000" fill-rule="nonzero" /><path id="381" transform="matrix(1 0 0 -1 0 842)" d="M224.58 735.2L225.06 735.2L225.06 736.22L224.58 736.22z" stroke="none" fill="#000000" fill-rule="nonzero" /><path id="382" transform="matrix(1 0 0 -1 0 842)" d="M225.06 735.2L272.34 735.2L272.34 736.22L225.06 736.22z" stroke="none" fill="#000000" fill-rule="nonzero" /></g></g></g></g></svg>