<svg xmlns="http://www.w3.org/2000/svg" xmlns:xlink="http://www.w3.org/1999/xlink" id="body_132" preserveAspectRatio="xMinYMin meet" viewBox="0 0 793 1123"><defs><clipPath id="1"><path id="" clip-rule="evenodd" transform="matrix(1 0 0 1 0 0)" d="M0 842L0 0L0 0L595 0L595 0L595 842L595 842L0 842z" /></clipPath><clipPath id="2"><path id="" clip-rule="evenodd" transform="matrix(1 0 0 1 0 0)" d="M225.96 219L410.34 219L410.34 219L410.34 376.08L410.34 376.08L225.96 376.08z" /></clipPath><clipPath id="3"><path id="" clip-rule="evenodd" transform="matrix(1 0 0 1 0 0)" d="M224.94 217.98L522.24 217.98L522.24 217.98L522.24 377.1L522.24 377.1L224.94 377.1z" /></clipPath><clipPath id="4"><path id="" clip-rule="evenodd" transform="matrix(1 0 0 1 0 0)" d="M0 0.02001953L595.2 0.02001953L595.2 0.02001953L595.2 842L595.2 842L0 842z" /></clipPath><clipPath id="5"><path id="" clip-rule="evenodd" transform="matrix(1 0 0 1 0 0)" d="M224.94 217.98L522.24 217.98L522.24 217.98L522.24 377.1L522.24 377.1L224.94 377.1z" /></clipPath><clipPath id="6"><path id="" clip-rule="evenodd" transform="matrix(1 0 0 1 0 0)" d="M0 0.02001953L595.2 0.02001953L595.2 0.02001953L595.2 842L595.2 842L0 842z" /></clipPath><clipPath id="7"><path id="" clip-rule="evenodd" transform="matrix(1 0 0 1 0 0)" d="M124.56 426.06L202.98 426.06L202.98 426.06L202.98 440.46L202.98 440.46L124.56 440.46z" /></clipPath><clipPath id="8"><path id="" clip-rule="evenodd" transform="matrix(1 0 0 1 0 0)" d="M0 0.02001953L595.2 0.02001953L595.2 0.02001953L595.2 842L595.2 842L0 842z" /></clipPath><clipPath id="9"><path id="" clip-rule="evenodd" transform="matrix(1 0 0 1 0 0)" d="M124.98 426.6L198.36 426.6L198.36 426.6L198.36 440.4L198.36 440.4L124.98 440.4z" /></clipPath><clipPath id="10"><path id="" clip-rule="evenodd" transform="matrix(1 0 0 1 0 0)" d="M124.56 426.06L202.98 426.06L202.98 426.06L202.98 440.46L202.98 440.46L124.56 440.46z" /></clipPath><clipPath id="11"><path id="" clip-rule="evenodd" transform="matrix(1 0 0 1 0 0)" d="M0 0.02001953L595.2 0.02001953L595.2 0.02001953L595.2 842L595.2 842L0 842z" /></clipPath></defs><g transform="matrix(1.333333 0 0 1.333333 0 0)"><g clip-path="url(#1)"><g clip-path="url(#2)"><g clip-path="url(#3)"><g clip-path="url(#4)"><g transform="matrix(0.4802422 0 0 0.4789024 225.96 219)"><g transform="matrix(1 0 0 1 0 0)"><image x="0" y="0" xlink:href="img_374.png" width="384" height="328" /></g></g></g></g></g><g clip-path="url(#5)"><g clip-path="url(#6)"><path id="431" transform="matrix(1 0 0 -1 0 842)" d="M391.5 583.46L437.46 583.46L437.46 584.48L391.5 584.48z" stroke="none" fill="#000000" fill-rule="nonzero" /><path id="432" transform="matrix(1 0 0 -1 0 842)" d="M372.3 495.98L439.26 495.98L439.26 500L372.3 500z" stroke="none" fill="#FFFFFF" fill-rule="nonzero" /><path id="433" transform="matrix(1 0 0 -1 0 842)" d="M374.82 497.78L438.78 497.78L438.78 498.8L374.82 498.8z" stroke="none" fill="#000000" fill-rule="nonzero" /></g></g><g clip-path="url(#7)"><g clip-path="url(#8)"><path id="452" transform="matrix(1 0 0 -1 0 842)" d="M124.56 401.54L202.98 401.54L202.98 415.94L124.56 415.94z" stroke="none" fill="#FFFFFF" fill-rule="nonzero" /></g></g><g clip-path="url(#9)"><g clip-path="url(#10)"><g clip-path="url(#11)"><g transform="matrix(0.7265346 0 0 0.7263158 124.98 426.6)"><g transform="matrix(1 0 0 1 0 0)"><image x="0" y="0" xlink:href="img_09.png" width="101" height="19" /></g></g></g></g></g><path id="454" transform="matrix(1 0 0 -1 0 842)" d="M224.94 419.9L558 419.9L558 329.96L224.94 329.96" stroke="none" fill="#ECF5FC" fill-rule="nonzero" /></g></g></svg>