<svg xmlns="http://www.w3.org/2000/svg" xmlns:xlink="http://www.w3.org/1999/xlink" id="body_63" preserveAspectRatio="xMinYMin meet" viewBox="0 0 793 1123"><defs><clipPath id="1"><path id="" clip-rule="evenodd" transform="matrix(1 0 0 1 0 0)" d="M0 842L0 0L0 0L595 0L595 0L595 842L595 842L0 842z" /></clipPath><clipPath id="2"><path id="" clip-rule="evenodd" transform="matrix(1 0 0 1 0 0)" d="M216.96 344.94L408.72 344.94L408.72 344.94L408.72 457.5L408.72 457.5L216.96 457.5z" /></clipPath><clipPath id="3"><path id="" clip-rule="evenodd" transform="matrix(1 0 0 1 0 0)" d="M215.94 343.92L529.74 343.92L529.74 343.92L529.74 458.52L529.74 458.52L215.94 458.52z" /></clipPath><clipPath id="4"><path id="" clip-rule="evenodd" transform="matrix(1 0 0 1 0 0)" d="M0 0.02001953L595.2 0.02001953L595.2 0.02001953L595.2 842L595.2 842L0 842z" /></clipPath><clipPath id="5"><path id="" clip-rule="evenodd" transform="matrix(1 0 0 1 0 0)" d="M215.94 343.92L529.74 343.92L529.74 343.92L529.74 458.52L529.74 458.52L215.94 458.52z" /></clipPath><clipPath id="6"><path id="" clip-rule="evenodd" transform="matrix(1 0 0 1 0 0)" d="M0 0.02001953L595.2 0.02001953L595.2 0.02001953L595.2 842L595.2 842L0 842z" /></clipPath></defs><g transform="matrix(1.333333 0 0 1.333333 0 0)"><g clip-path="url(#1)"><g clip-path="url(#2)"><g clip-path="url(#3)"><g clip-path="url(#4)"><g transform="matrix(0.4794 0 0 0.4789787 216.96 344.94)"><g transform="matrix(1 0 0 1 0 0)"><image x="0" y="0" xlink:href="img_181.png" width="400" height="235" /></g></g></g></g></g><g clip-path="url(#5)"><g clip-path="url(#6)"><path id="911" transform="matrix(1 0 0 -1 0 842)" d="M424.14 450.98L424.14 455.12L424.8 454.94L436.92 451.46L438.6 450.98L436.92 450.5L424.8 447.02L424.14 446.84L424.14 447.5L424.5 447.98L436.62 451.46L436.92 450.5L436.62 450.5L424.5 453.98L424.8 454.94L425.16 454.46L425.16 450.98" stroke="none" fill="#000000" fill-rule="nonzero" /><path id="912" transform="matrix(1 0 0 -1 0 842)" d="M424.14 447.5L425.16 447.5L425.16 450.98L424.14 450.98z" stroke="none" fill="#000000" fill-rule="nonzero" /><path id="913" transform="matrix(1 0 0 -1 0 842)" d="M424.62 450.98L424.62 454.46L424.62 454.46L436.74 450.98L436.74 450.98L424.62 447.5" stroke="none" fill="#000000" fill-rule="evenodd" /><path id="914" transform="matrix(1 0 0 -1 0 842)" d="M402.54 450.44L424.14 450.44L424.14 451.46L402.54 451.46z" stroke="none" fill="#000000" fill-rule="nonzero" /></g></g></g></g></svg>