<svg xmlns="http://www.w3.org/2000/svg" xmlns:xlink="http://www.w3.org/1999/xlink" id="body_97" preserveAspectRatio="xMinYMin meet" viewBox="0 0 793 1123"><defs><clipPath id="1"><path id="" clip-rule="evenodd" transform="matrix(1 0 0 1 0 0)" d="M0 842L0 0L0 0L595 0L595 0L595 842L595 842L0 842z" /></clipPath><clipPath id="2"><path id="" clip-rule="evenodd" transform="matrix(1 0 0 1 0 0)" d="M225.96 101.04L271.98 101.04L271.98 101.04L271.98 147.06L271.98 147.06L225.96 147.06z" /></clipPath><clipPath id="3"><path id="" clip-rule="evenodd" transform="matrix(1 0 0 1 0 0)" d="M224.94 100.02L273 100.02L273 100.02L273 148.02L273 148.02L224.94 148.02z" /></clipPath><clipPath id="4"><path id="" clip-rule="evenodd" transform="matrix(1 0 0 1 0 0)" d="M0 0.02001953L595.2 0.02001953L595.2 0.02001953L595.2 842L595.2 842L0 842z" /></clipPath><clipPath id="5"><path id="" clip-rule="evenodd" transform="matrix(1 0 0 1 0 0)" d="M510.96 101.04L556.98 101.04L556.98 101.04L556.98 141.6L556.98 141.6L510.96 141.6z" /></clipPath><clipPath id="6"><path id="" clip-rule="evenodd" transform="matrix(1 0 0 1 0 0)" d="M509.94 100.02L558 100.02L558 100.02L558 142.56L558 142.56L509.94 142.56z" /></clipPath><clipPath id="7"><path id="" clip-rule="evenodd" transform="matrix(1 0 0 1 0 0)" d="M0 0.02001953L595.2 0.02001953L595.2 0.02001953L595.2 842L595.2 842L0 842z" /></clipPath><clipPath id="8"><path id="" clip-rule="evenodd" transform="matrix(1 0 0 1 0 0)" d="M124.56 211.98L202.98 211.98L202.98 211.98L202.98 226.38L202.98 226.38L124.56 226.38z" /></clipPath><clipPath id="9"><path id="" clip-rule="evenodd" transform="matrix(1 0 0 1 0 0)" d="M0 0.02001953L595.2 0.02001953L595.2 0.02001953L595.2 842L595.2 842L0 842z" /></clipPath><clipPath id="10"><path id="" clip-rule="evenodd" transform="matrix(1 0 0 1 0 0)" d="M124.44 212.22L199.5 212.22L199.5 212.22L199.5 226.3199L199.5 226.3199L124.44 226.3199z" /></clipPath><clipPath id="11"><path id="" clip-rule="evenodd" transform="matrix(1 0 0 1 0 0)" d="M124.56 211.98L202.98 211.98L202.98 211.98L202.98 226.38L202.98 226.38L124.56 226.38z" /></clipPath><clipPath id="12"><path id="" clip-rule="evenodd" transform="matrix(1 0 0 1 0 0)" d="M0 0.02001953L595.2 0.02001953L595.2 0.02001953L595.2 842L595.2 842L0 842z" /></clipPath><clipPath id="13"><path id="" clip-rule="evenodd" transform="matrix(1 0 0 1 0 0)" d="M125.58 456.96L171.54 456.96L171.54 456.96L171.54 502.92L171.54 502.92L125.58 502.92z" /></clipPath><clipPath id="14"><path id="" clip-rule="evenodd" transform="matrix(1 0 0 1 0 0)" d="M124.56 455.94L172.56 455.94L172.56 455.94L172.56 503.94L172.56 503.94L124.56 503.94z" /></clipPath><clipPath id="15"><path id="" clip-rule="evenodd" transform="matrix(1 0 0 1 0 0)" d="M0 0.02001953L595.2 0.02001953L595.2 0.02001953L595.2 842L595.2 842L0 842z" /></clipPath><clipPath id="16"><path id="" clip-rule="evenodd" transform="matrix(1 0 0 1 0 0)" d="M125.58 528.9L171.54 528.9L171.54 528.9L171.54 574.92L171.54 574.92L125.58 574.92z" /></clipPath><clipPath id="17"><path id="" clip-rule="evenodd" transform="matrix(1 0 0 1 0 0)" d="M124.56 527.88L172.56 527.88L172.56 527.88L172.56 575.88L172.56 575.88L124.56 575.88z" /></clipPath><clipPath id="18"><path id="" clip-rule="evenodd" transform="matrix(1 0 0 1 0 0)" d="M0 0.02001953L595.2 0.02001953L595.2 0.02001953L595.2 842L595.2 842L0 842z" /></clipPath><clipPath id="19"><path id="" clip-rule="evenodd" transform="matrix(1 0 0 1 0 0)" d="M125.58 582.9L171.54 582.9L171.54 582.9L171.54 628.92L171.54 628.92L125.58 628.92z" /></clipPath><clipPath id="20"><path id="" clip-rule="evenodd" transform="matrix(1 0 0 1 0 0)" d="M124.56 581.94L172.56 581.94L172.56 581.94L172.56 629.94L172.56 629.94L124.56 629.94z" /></clipPath><clipPath id="21"><path id="" clip-rule="evenodd" transform="matrix(1 0 0 1 0 0)" d="M0 0.02001953L595.2 0.02001953L595.2 0.02001953L595.2 842L595.2 842L0 842z" /></clipPath></defs><g transform="matrix(1.333333 0 0 1.333333 0 0)"><g clip-path="url(#1)"><g clip-path="url(#2)"><g clip-path="url(#3)"><g clip-path="url(#4)"><path id="210" transform="matrix(1 0 0 -1 0 842)" d="M248.683 695.616C 260.912 695.616 270.968 705.672 270.968 717.901C 270.968 730.221 260.912 740.277 248.683 740.277C 236.363 740.277 226.398 730.221 226.398 717.901C 226.398 705.672 236.363 695.616 248.683 695.616" stroke="none" fill="#FFFFFF" fill-rule="evenodd" /><path id="211" transform="matrix(1 0 0 -1 0 842)" d="M248.683 695.616C 260.912 695.616 270.968 705.672 270.968 717.901C 270.968 730.221 260.912 740.277 248.683 740.277C 236.363 740.277 226.398 730.221 226.398 717.901C 226.398 705.672 236.363 695.616 248.683 695.616z" stroke="#292929" stroke-width="0.252" fill="none" /><path id="212" transform="matrix(1 0 0 -1 0 842)" d="M251.006 709.476C 248.288 711.469 245.454 712.919 243.008 716.543L243.008 716.543L241.074 716.542C 239.714 716.542 239.352 717.033 239.262 718.211L239.262 718.211L239.262 722.515C 239.352 723.331 237.903 723.511 237.812 722.605L237.812 722.605L237.812 710.847C 239.278 710.661 239.411 708.316 237.541 708.22C 236.662 708.257 236.182 708.945 236.182 709.579C 236.182 710.213 236.635 710.847 237.269 710.847L237.269 710.847L237.269 722.605C 237.269 724.146 239.805 724.146 239.896 722.605L239.896 722.605L239.896 718.211C 239.896 717.486 240.168 717.086 241.074 717.086L241.074 717.086L242.645 717.08C 242.102 718.167 241.185 720.514 241.185 722.054C 240.7 725.496 243.338 727.685 246.599 727.866C 248.301 727.866 249.925 727.021 250.916 725.472C 252.237 726.983 253.914 727.866 255.93 727.866C 258.829 727.775 261.093 725.601 261.184 722.068C 261.155 715.822 255.04 712.318 251.006 709.476" stroke="none" fill="#292929" fill-rule="evenodd" /><path id="213" transform="matrix(1 0 0 -1 0 842)" d="M259.15 704.946L235.597 728.4091C 233.333 725.51 231.924 721.887 231.924 717.901C 231.924 708.751 239.443 701.2321 248.683 701.2321C 252.669 701.2321 256.252 702.591 259.15 704.946M238.215 730.946L261.719 707.483C 264.075 710.291 265.351 714.005 265.351 717.901C 265.351 727.1411 257.923 734.6591 248.683 734.6591C 244.697 734.6591 241.114 733.3 238.215 730.946zM248.683 696.793C 260.369 696.793 269.881 706.3051 269.881 717.901C 269.881 729.5861 260.369 739.099 248.683 739.099C 236.997 739.099 227.485 729.5861 227.485 717.901C 227.485 706.3051 236.997 696.793 248.683 696.793z" stroke="none" fill="#E31F24" fill-rule="evenodd" /></g></g></g><g clip-path="url(#5)"><g clip-path="url(#6)"><g clip-path="url(#7)"><path id="214" transform="matrix(1 0 0 -1 0 842)" d="M534.153 740.728C 534.473 740.728 534.791 740.649 535.271 740.488C 535.67 740.169 535.91 740.009 536.149 739.53L536.149 739.53L556.191 704.88C 556.43 704.401 556.508 704.001 556.508 703.601C 556.508 703.044 556.349 702.566 556.191 702.325C 556.028 702.005 555.791 701.847 555.39 701.527C 554.992 701.286 554.592 701.207 554.114 701.207L554.114 701.207L514.034 701.207C 513.554 701.207 513.076 701.286 512.756 701.527C 512.358 701.765 512.038 702.164 511.879 702.405C 511.718 702.725 511.637 703.044 511.558 703.523C 511.558 704.001 511.637 704.321 511.957 704.801L511.957 704.801L531.918 739.53C 532.157 739.9301 532.556 740.249 532.876 740.488C 533.355 740.728 533.833 740.728 534.153 740.728z" stroke="#000005" stroke-width="0.222" fill="#F4C832" fill-rule="evenodd" /><path id="215" transform="matrix(1 0 0 -1 0 842)" d="M551.16 705.28L516.988 705.28L516.988 705.28L534.074 734.979L534.074 734.979L551.16 705.28M534.313 739.53C 534.712 739.452 534.952 739.212 535.111 738.892L535.111 738.892L555.15 704.241C 555.311 704.001 555.311 703.843 555.311 703.523C 555.311 702.8831 554.832 702.485 554.193 702.405C 554.114 702.405 554.114 702.405 554.033 702.405L554.033 702.405L514.034 702.405C 513.793 702.405 513.555 702.485 513.315 702.566C 512.836 702.965 512.676 703.523 512.917 704.162L512.917 704.162L512.996 704.241L512.996 704.241L532.956 738.892C 533.115 739.132 533.276 739.29 533.515 739.452C 533.755 739.53 534.074 739.61 534.313 739.53z" stroke="none" fill="#000005" fill-rule="evenodd" /><path id="216" transform="matrix(1 0 0 -1 0 842)" d="M533.959 724.677L533.959 724.653C 531.41 724.558 528.122 722.882 527.786 720.52L527.786 720.52L528.703 709.45L528.703 709.45L532.199 709.45L532.199 709.45L531.405 719.674C 531.994 720.951 533.087 721.223 533.959 721.221C 533.997 721.223 534.044 721.221 534.084 721.221C 534.954 721.224 536.074 720.953 536.66 719.674L536.66 719.674L535.844 709.45L535.844 709.45L539.338 709.45L539.338 709.45L540.28 720.52C 539.945 722.882 536.633 724.558 534.084 724.653C 534.043 724.654 534 724.677 533.959 724.677" stroke="none" fill="#000005" fill-rule="nonzero" /><path id="217" transform="matrix(1 0 0 -1 0 842)" d="M528.921 708.981L531.966 708.981L531.966 708.981L532.199 706.841L532.199 706.841L529.154 706.841L529.154 706.841L528.921 708.981z" stroke="#000005" stroke-width="0.287" stroke-linecap="round" fill="none" /><path id="218" transform="matrix(1 0 0 -1 0 842)" d="M539.089 708.981L536.043 708.981L536.043 708.981L535.81 706.841L535.81 706.841L538.856 706.841L538.856 706.841L539.089 708.981z" stroke="#000005" stroke-width="0.287" stroke-linecap="round" fill="none" /></g></g></g><g clip-path="url(#8)"><g clip-path="url(#9)"><path id="219" transform="matrix(1 0 0 -1 0 842)" d="M124.56 615.62L202.98 615.62L202.98 630.02L124.56 630.02z" stroke="none" fill="#FFFFFF" fill-rule="nonzero" /></g></g><g clip-path="url(#10)"><g clip-path="url(#11)"><g clip-path="url(#12)"><g transform="matrix(0.7431683 0 0 0.7421053 124.44 212.22)"><g transform="matrix(1 0 0 1 0 0)"><image x="0" y="0" xlink:href="img_274.png" width="101" height="19" /></g></g></g></g></g><path id="221" transform="matrix(1 0 0 -1 0 842)" d="M224.94 634.04L558 634.04L558 558.02L224.94 558.02" stroke="none" fill="#ECF5FC" fill-rule="nonzero" /><path id="329" transform="matrix(1 0 0 -1 0 842)" d="M224.94 548L558 548L558 472.04L224.94 472.04" stroke="none" fill="#ECF5FC" fill-rule="nonzero" /><path id="435" transform="matrix(1 0 0 -1 0 842)" d="M224.94 462.02L558 462.02L558 400.04L224.94 400.04" stroke="none" fill="#ECF5FC" fill-rule="nonzero" /><path id="534" transform="matrix(1 0 0 -1 0 842)" d="M224.94 390.08L558 390.08L558 328.1L224.94 328.1" stroke="none" fill="#ECF5FC" fill-rule="nonzero" /><path id="628" transform="matrix(1 0 0 -1 0 842)" d="M224.94 318.08L558 318.08L558 166.16L224.94 166.16" stroke="none" fill="#ECF5FC" fill-rule="nonzero" /><path id="831" transform="matrix(1 0 0 -1 0 842)" d="M224.94 156.14L558 156.14L558 100.28L224.94 100.28" stroke="none" fill="#ECF5FC" fill-rule="nonzero" /><g clip-path="url(#13)"><g clip-path="url(#14)"><g clip-path="url(#15)"><path id="892" transform="matrix(1 0 0 -1 0 842)" d="M148.267 339.719C 160.496 339.719 170.552 349.775 170.552 362.004C 170.552 374.324 160.496 384.38 148.267 384.38C 135.947 384.38 125.982 374.324 125.982 362.004C 125.982 349.775 135.947 339.719 148.267 339.719" stroke="none" fill="#FFFFFF" fill-rule="evenodd" /><path id="893" transform="matrix(1 0 0 -1 0 842)" d="M148.267 339.719C 160.496 339.719 170.552 349.775 170.552 362.004C 170.552 374.324 160.496 384.38 148.267 384.38C 135.947 384.38 125.982 374.324 125.982 362.004C 125.982 349.775 135.947 339.719 148.267 339.719z" stroke="#292929" stroke-width="0.252" fill="none" /><path id="894" transform="matrix(1 0 0 -1 0 842)" d="M156.624 367.571C 156.624 365.434 154.931 363.92 152.879 363.92C 153.272 363.338 153.874 360.936 152.587 360.176C 151.406 359.164 150.777 358.725 150.299 357.6C 148.499 353.973 147.063 349.636 146.529 345.419C 146.273 345.435 146.025 345.461 145.826 345.504C 146.432 349.821 147.825 354.114 149.708 357.937C 150.327 359.09 151.058 359.849 152.21 360.748C 153.026 361.423 152.66 363.257 152.154 363.56C 152.182 363.307 152.351 362.07 150.777 362.211C 149.734 362.198 149.282 361.262 148.129 359.885C 145.883 357.152 145.429 347.395 144.001 348.014C 142.349 347.726 145.671 365.022 147.2 365.922C 147.206 368.294 148.179 367.462 148.983 367.49C 148.09 369.312 147.426 369.6 146.498 369.965C 144.361 370.758 141.331 368.874 140.965 366.68C 140.571 364.46 141.583 360.955 141.808 358.622C 142.23 354.461 141.818 350.726 141.425 346.79C 141.186 346.906 140.977 346.977 140.707 347.14C 141.41 352.594 141.471 355.604 141.106 358.612C 140.809 361.28 139.99 364.938 140.313 366.919C 140.791 369.843 144.412 371.58 146.606 370.793C 148.006 370.214 148.696 369.661 149.455 368.058C 150.081 372.375 156.368 371.79 156.624 367.571M149.771 378.716C 150.307 375.718 151.534 375.585 151.254 374.075L151.254 374.075L151.029 372.185C 153.12 373.566 156.991 371.84 157.805 369.042C 158.192 367.785 158.098 366.526 157.44 365.239C 156.805 363.989 155.744 363.112 154.459 362.745C 155.022 359.962 156.287 359.034 158.058 358.275C 160.391 357.151 161.788 355.44 162.275 352.877C 162.18 352.743 162.067 352.567 161.822 352.229C 161.794 352.37 161.549 356.002 158.002 357.628C 156.09 358.415 154.207 359.737 153.841 363.167C 155.893 363.56 157.468 365.359 157.468 367.552C 157.448 371.038 153.034 373.285 150.263 371.179C 150.428 373.007 150.933 374.322 150.378 375.223C 149.806 376.16 149.371 377.247 149.197 378.744C 149.394 378.733 149.574 378.738 149.771 378.716z" stroke="none" fill="#292929" fill-rule="evenodd" /><path id="895" transform="matrix(1 0 0 -1 0 842)" d="M158.734 349.05L135.181 372.513C 132.917 369.614 131.508 365.991 131.508 362.005C 131.508 352.855 139.027 345.336 148.267 345.336C 152.253 345.336 155.836 346.695 158.734 349.05M137.799 375.05L161.303 351.587C 163.659 354.395 164.935 358.109 164.935 362.005C 164.935 371.245 157.507 378.763 148.267 378.763C 144.281 378.763 140.698 377.405 137.799 375.05zM148.267 340.897C 159.953 340.897 169.465 350.409 169.465 362.005C 169.465 373.69 159.953 383.203 148.267 383.203C 136.581 383.203 127.069 373.69 127.069 362.005C 127.069 350.409 136.581 340.897 148.267 340.897z" stroke="none" fill="#E31F24" fill-rule="evenodd" /></g></g></g><g clip-path="url(#16)"><g clip-path="url(#17)"><g clip-path="url(#18)"><path id="896" transform="matrix(1 0 0 -1 0 842)" d="M148.267 267.743C 160.496 267.743 170.552 277.799 170.552 290.028C 170.552 302.348 160.496 312.404 148.267 312.404C 135.947 312.404 125.982 302.348 125.982 290.028C 125.982 277.799 135.947 267.743 148.267 267.743" stroke="none" fill="#FFFFFF" fill-rule="evenodd" /><path id="897" transform="matrix(1 0 0 -1 0 842)" d="M148.267 267.743C 160.496 267.743 170.552 277.799 170.552 290.028C 170.552 302.348 160.496 312.404 148.267 312.404C 135.947 312.404 125.982 302.348 125.982 290.028C 125.982 277.799 135.947 267.743 148.267 267.743z" stroke="#292929" stroke-width="0.252" fill="none" /><path id="898" transform="matrix(1 0 0 -1 0 842)" d="M152.823 291.974C 152.538 292.089 152.181 292.089 151.895 291.974L151.895 291.974L149.193 294.659L149.193 294.659L148.377 293.871L148.377 293.871L151.219 291.074C 151.219 290.408 151.61 289.807 152.345 289.807C 153.11 289.807 153.771 290.643 153.414 291.355L153.414 291.355L157.039 295.053L157.039 295.053L156.449 295.644L156.449 295.644L152.823 291.974M160.534 292.301L161.749 292.301L161.749 292.301L161.749 289.74L161.749 289.74L160.534 289.74zM152.514 298.155C 158.399 298.11 161.779 290.9 157.579 286.151C 156.116 284.491 153.735 283.647 151.754 283.67C 142.422 284.426 142.73 298.17 152.514 298.155zM150.066 283.014L150.066 273.45C 151.558 273.59 152.953 273.954 154.315 274.471L154.315 274.471L154.315 283.042C 162.38 285.129 162.304 296.55 154.456 298.885L154.456 298.885L154.456 305.602C 153.184 306.119 151.691 306.518 150.038 306.707L150.038 306.707L150.038 298.942C 142.022 296.761 141.689 285.23 150.066 283.014zM144.133 282.648C 145.36 282.648 145.265 280.903 144.133 280.903C 142.836 280.824 142.84 282.648 144.133 282.648zM142.276 285.333C 143.345 285.839 144.696 285.53 145.512 284.855C 146.441 284.095 146.863 282.828 146.581 281.618C 146.244 280.408 145.428 279.536 144.189 279.283C 143.092 279.03 141.966 279.367 141.151 280.24C 140.362 281.028 140.109 282.35 140.447 283.476L140.447 283.476L138.922 285.068L138.922 285.068L139.012 286.864L139.012 286.864L136.896 286.953L136.896 286.953L136.985 289.227L136.985 289.227L134.42 289.317L134.42 289.317L134.538 292.03L134.538 292.03L135.607 292.03L135.607 292.03L142.276 285.333z" stroke="none" fill="#292929" fill-rule="evenodd" /><path id="899" transform="matrix(1 0 0 -1 0 842)" d="M158.734 277.073L135.181 300.536C 132.917 297.637 131.508 294.014 131.508 290.028C 131.508 280.878 139.027 273.359 148.267 273.359C 152.253 273.359 155.836 274.718 158.734 277.073M137.799 303.073L161.303 279.61C 163.659 282.418 164.935 286.132 164.935 290.028C 164.935 299.268 157.507 306.786 148.267 306.786C 144.281 306.786 140.698 305.428 137.799 303.073zM148.267 268.92C 159.953 268.92 169.465 278.432 169.465 290.028C 169.465 301.713 159.953 311.226 148.267 311.226C 136.581 311.226 127.069 301.713 127.069 290.028C 127.069 278.432 136.581 268.92 148.267 268.92z" stroke="none" fill="#E31F24" fill-rule="evenodd" /><path id="900" transform="matrix(1 0 0 -1 0 842)" d="M148.04 290.19L148.04 290.19z" stroke="#292929" stroke-width="0.085" fill="none" /><path id="901" transform="matrix(1 0 0 -1 0 842)" d="M148.04 290.19L148.04 290.19z" stroke="#292929" stroke-width="0.085" fill="none" /></g></g></g><g clip-path="url(#19)"><g clip-path="url(#20)"><g clip-path="url(#21)"><path id="902" transform="matrix(1 0 0 -1 0 842)" d="M148.267 213.741C 160.496 213.741 170.552 223.797 170.552 236.026C 170.552 248.346 160.496 258.402 148.267 258.402C 135.947 258.402 125.982 248.346 125.982 236.026C 125.982 223.797 135.947 213.741 148.267 213.741" stroke="none" fill="#FFFFFF" fill-rule="evenodd" /><path id="903" transform="matrix(1 0 0 -1 0 842)" d="M148.267 213.741C 160.496 213.741 170.552 223.797 170.552 236.026C 170.552 248.346 160.496 258.402 148.267 258.402C 135.947 258.402 125.982 248.346 125.982 236.026C 125.982 223.797 135.947 213.741 148.267 213.741z" stroke="#292929" stroke-width="0.252" fill="none" /><path id="904" transform="matrix(1 0 0 -1 0 842)" d="M135.574 240.216L161.055 240.216L161.055 242.32L135.574 242.32z" stroke="none" fill="#C4C4C4" fill-rule="nonzero" /><path id="905" transform="matrix(1 0 0 -1 0 842)" d="M160.122 244.464C 160.684 244.461 161.051 244.079 161.055 243.495L161.055 243.495L161.055 228.73C 161.045 228.149 160.564 227.765 160.125 227.755L160.125 227.755L136.528 227.755C 136.009 227.763 135.581 228.22 135.574 228.763L135.574 228.763L135.574 243.473C 135.57 243.955 135.991 244.469 136.538 244.464L136.538 244.464L160.122 244.464M136.477 244.882L160.146 244.882C 160.898 244.882 161.473 244.259 161.473 243.508L161.473 243.508L161.473 228.718C 161.473 227.967 160.888 227.338 160.136 227.338L160.136 227.338L136.506 227.338C 135.782 227.338 135.157 227.977 135.157 228.729L135.157 228.729L135.157 243.517C 135.149 244.285 135.753 244.882 136.477 244.882z" stroke="none" fill="#292929" fill-rule="evenodd" /><path id="906" transform="matrix(1 0 0 -1 0 842)" d="M146.657 233.638L160.03 233.638L160.03 235.671L146.657 235.671z" stroke="none" fill="#C4C4C4" fill-rule="nonzero" /><path id="907" transform="matrix(1 0 0 -1 0 842)" d="M146.657 229.733L159.981 229.733L159.981 231.738L146.657 231.738z" stroke="none" fill="#C4C4C4" fill-rule="nonzero" /><path id="908" transform="matrix(1 0 0 -1 0 842)" d="M147.605 239.006L147.605 239.006z" stroke="#292929" stroke-width="0.083" fill="none" /><path id="909" transform="matrix(1 0 0 -1 0 842)" d="M148.746 237.92L148.746 237.92z" stroke="#292929" stroke-width="0.083" fill="none" /><path id="910" transform="matrix(1 0 0 -1 0 842)" d="M139.492 235.795L139.863 234.995L139.863 234.995L140.708 234.615L140.708 234.615L141.589 234.977L141.589 234.977L141.951 235.804L141.951 235.804L141.599 236.63L141.599 236.63L140.754 237.001L140.754 237.001L139.844 236.639L139.844 236.639L139.492 235.795M139.222 235.934L139.585 236.779L139.585 236.779L139.213 237.113L139.213 237.113L137.858 237.113L137.858 237.113L137.858 237.391L137.858 237.391L139.325 237.391L139.325 237.391L139.807 236.946L139.807 236.946L140.559 237.271L140.559 237.271L140.559 238.217L140.559 238.217L140.865 238.217L140.865 238.217L140.865 237.271L140.865 237.271L141.646 236.918L141.646 236.918L142.174 237.391L142.174 237.391L143.567 237.391L143.567 237.391L143.567 237.113L143.567 237.113L142.257 237.113L142.257 237.113L141.841 236.751L141.841 236.751L142.202 235.934L142.202 235.934L143.567 235.934L143.567 235.934L143.567 235.683L143.567 235.683L142.202 235.683L142.202 235.683L141.841 234.894L141.841 234.894L142.239 234.56L142.239 234.56L143.567 234.56L143.567 234.56L143.567 234.281L143.567 234.281L142.128 234.281L142.128 234.281L141.673 234.699L141.673 234.699L140.865 234.337L140.865 234.337L140.863 233.372L140.863 233.372L140.557 233.372L140.557 233.372L140.559 234.337L140.559 234.337L139.77 234.672L139.77 234.672L139.297 234.281L139.297 234.281L137.858 234.282L137.858 234.282L137.858 234.56L137.858 234.56L139.186 234.56L139.186 234.56L139.585 234.894L139.585 234.894L139.222 235.656L139.222 235.656L137.858 235.656L137.858 235.656L137.858 235.934L137.858 235.934L139.222 235.934zM138.554 238.217L142.87 238.217C 143.26 238.217 143.567 237.911 143.567 237.521L143.567 237.521L143.567 234.068C 143.567 233.678 143.26 233.372 142.87 233.372L142.87 233.372L138.554 233.372C 138.164 233.372 137.858 233.678 137.858 234.068L137.858 234.068L137.858 237.521C 137.858 237.911 138.164 238.217 138.554 238.217z" stroke="none" fill="#292929" fill-rule="evenodd" /><path id="911" transform="matrix(1 0 0 -1 0 842)" d="M139.141 232.712L139.141 228.591L139.141 228.591L136.632 230.818L136.632 230.818L139.141 232.712" stroke="none" fill="#292929" fill-rule="evenodd" /><path id="912" transform="matrix(1 0 0 -1 0 842)" d="M147.938 239.368L147.938 239.368z" stroke="#292929" stroke-width="0.219" fill="none" /><path id="913" transform="matrix(1 0 0 -1 0 842)" d="M154.733 232.601L154.733 232.601z" stroke="#292929" stroke-width="0.219" fill="none" /><path id="914" transform="matrix(1 0 0 -1 0 842)" d="M148.04 236.188L148.04 236.188z" stroke="#292929" stroke-width="0.085" fill="none" /><path id="915" transform="matrix(1 0 0 -1 0 842)" d="M148.04 236.188L148.04 236.188z" stroke="#292929" stroke-width="0.085" fill="none" /><path id="916" transform="matrix(1 0 0 -1 0 842)" d="M158.734 223.071L135.181 246.534C 132.917 243.635 131.508 240.012 131.508 236.026C 131.508 226.876 139.027 219.357 148.267 219.357C 152.253 219.357 155.836 220.716 158.734 223.071M137.799 249.071L161.303 225.608C 163.659 228.416 164.935 232.13 164.935 236.026C 164.935 245.266 157.507 252.784 148.267 252.784C 144.281 252.784 140.698 251.425 137.799 249.071zM148.267 214.918C 159.953 214.918 169.465 224.43 169.465 236.026C 169.465 247.711 159.953 257.224 148.267 257.224C 136.581 257.224 127.069 247.711 127.069 236.026C 127.069 224.43 136.581 214.918 148.267 214.918z" stroke="none" fill="#E31F24" fill-rule="evenodd" /></g></g></g><path id="917" transform="matrix(1 0 0 -1 0 842)" d="M171.452 128.199C 171.452 115.526 161.179 105.249 148.505 105.249C 135.831 105.249 125.556 115.526 125.556 128.199C 125.556 140.874 135.831 151.148 148.505 151.148C 161.179 151.148 171.452 140.874 171.452 128.199" stroke="none" fill="#5981AB" fill-rule="nonzero" /><path id="918" transform="matrix(1 0 0 -1 0 842)" d="M152.37 123.31L152.811 123.701L152.811 123.701L153.337 124.19L153.337 124.19L153.866 124.678L153.866 124.678L154.398 125.167L154.398 125.167L154.925 125.655L154.925 125.655L155.454 126.144L155.454 126.144L156.512 127.12L156.512 127.12L157.041 127.609L157.041 127.609L157.567 128.097L157.567 128.097L158.098 128.585C 158.168 128.649 158.234 128.716 158.291 128.785C 158.353 128.854 158.411 128.926 158.465 128.999C 158.518 129.072 158.566 129.149 158.611 129.226C 158.656 129.304 158.699 129.383 158.735 129.464C 158.768 129.545 158.801 129.627 158.83 129.71C 158.859 129.794 158.882 129.878 158.904 129.963C 158.923 130.049 158.94 130.135 158.952 130.222C 158.963 130.309 158.971 130.396 158.973 130.483C 158.978 130.571 158.975 130.658 158.973 130.745C 158.968 130.832 158.959 130.919 158.947 131.006C 158.932 131.093 158.913 131.178 158.892 131.263C 158.871 131.349 158.844 131.433 158.813 131.518C 158.787 131.601 158.751 131.684 158.713 131.764C 158.675 131.844 158.632 131.925 158.587 132.002C 158.539 132.08 158.487 132.155 158.43 132.229C 158.375 132.302 158.315 132.374 158.253 132.444C 158.189 132.513 158.12 132.578 158.053 132.64C 157.984 132.7 157.913 132.758 157.839 132.811C 157.765 132.864 157.689 132.913 157.61 132.957C 157.534 133.001 157.455 133.042 157.374 133.079C 157.293 133.116 157.21 133.148 157.129 133.176C 157.045 133.204 156.959 133.229 156.874 133.25C 156.79 133.269 156.705 133.286 156.616 133.297C 156.531 133.31 156.442 133.316 156.354 133.32C 156.266 133.323 156.18 133.322 156.092 133.318C 156.006 133.313 155.918 133.304 155.832 133.29C 155.744 133.277 155.661 133.26 155.573 133.238C 155.487 133.217 155.403 133.191 155.32 133.161C 155.237 133.13 155.156 133.097 155.075 133.058C 154.991 133.019 154.913 132.977 154.836 132.93C 154.758 132.883 154.681 132.833 154.608 132.777C 154.534 132.721 154.462 132.661 154.393 132.597L154.393 132.597L153.864 132.109L153.864 132.109L153.335 131.62L153.335 131.62L152.806 131.132L152.806 131.132L152.277 130.644L152.277 130.644L151.75 130.155L151.75 130.155L151.221 129.667L151.221 129.667L150.69 129.179L150.69 129.179L150.163 128.691L150.163 128.691L149.634 128.203L149.634 128.203L149.105 127.714L149.105 127.714L148.577 127.225L148.577 127.225L152.37 123.31" stroke="none" fill="#FFFFFF" fill-rule="nonzero" /><path id="919" transform="matrix(1 0 0 -1 0 842)" d="M152.37 123.31L152.811 123.701L152.811 123.701L153.337 124.19L153.337 124.19L153.866 124.678L153.866 124.678L154.398 125.167L154.398 125.167L154.925 125.655L154.925 125.655L155.454 126.144L155.454 126.144L156.512 127.12L156.512 127.12L157.041 127.609L157.041 127.609L157.567 128.097L157.567 128.097L158.098 128.585C 158.168 128.649 158.234 128.716 158.291 128.785C 158.353 128.854 158.411 128.926 158.465 128.999C 158.518 129.072 158.566 129.149 158.611 129.226C 158.656 129.304 158.699 129.383 158.735 129.464C 158.768 129.545 158.801 129.627 158.83 129.71C 158.859 129.794 158.882 129.878 158.904 129.963C 158.923 130.049 158.94 130.135 158.952 130.222C 158.963 130.309 158.971 130.396 158.973 130.483C 158.978 130.571 158.975 130.658 158.973 130.745C 158.968 130.832 158.959 130.919 158.947 131.006C 158.932 131.093 158.913 131.178 158.892 131.263C 158.871 131.349 158.844 131.433 158.813 131.518C 158.787 131.601 158.751 131.684 158.713 131.764C 158.675 131.844 158.632 131.925 158.587 132.002C 158.539 132.08 158.487 132.155 158.43 132.229C 158.375 132.302 158.315 132.374 158.253 132.444C 158.189 132.513 158.12 132.578 158.053 132.64C 157.984 132.7 157.913 132.758 157.839 132.811C 157.765 132.864 157.689 132.913 157.61 132.957C 157.534 133.001 157.455 133.042 157.374 133.079C 157.293 133.116 157.21 133.148 157.129 133.176C 157.045 133.204 156.959 133.229 156.874 133.25C 156.79 133.269 156.705 133.286 156.616 133.297C 156.531 133.31 156.442 133.316 156.354 133.32C 156.266 133.323 156.18 133.322 156.092 133.318C 156.006 133.313 155.918 133.304 155.832 133.29C 155.744 133.277 155.661 133.26 155.573 133.238C 155.487 133.217 155.403 133.191 155.32 133.161C 155.237 133.13 155.156 133.097 155.075 133.058C 154.991 133.019 154.913 132.977 154.836 132.93C 154.758 132.883 154.681 132.833 154.608 132.777C 154.534 132.721 154.462 132.661 154.393 132.597L154.393 132.597L153.864 132.109L153.864 132.109L153.335 131.62L153.335 131.62L152.806 131.132L152.806 131.132L152.277 130.644L152.277 130.644L151.75 130.155L151.75 130.155L151.221 129.667L151.221 129.667L150.69 129.179L150.69 129.179L150.163 128.691L150.163 128.691L149.634 128.203L149.634 128.203L149.105 127.714L149.105 127.714L148.577 127.225L148.577 127.225L152.37 123.31z" stroke="#5981AB" stroke-width="0.406" fill="none" /><path id="920" transform="matrix(1 0 0 -1 0 842)" d="M149.427 136.933C 149.427 133.948 147.008 131.529 144.025 131.529C 141.039 131.529 138.62 133.948 138.62 136.933C 138.62 139.918 141.039 142.338 144.025 142.338C 147.008 142.338 149.427 139.918 149.427 136.933" stroke="none" fill="#FFFFFF" fill-rule="nonzero" /><path id="921" transform="matrix(1 0 0 -1 0 842)" d="M149.427 136.933C 149.427 133.948 147.008 131.529 144.025 131.529C 141.039 131.529 138.62 133.948 138.62 136.933C 138.62 139.918 141.039 142.338 144.025 142.338C 147.008 142.338 149.427 139.918 149.427 136.933z" stroke="#5981AB" stroke-width="0.406" fill="none" /><path id="922" transform="matrix(1 0 0 -1 0 842)" d="M161.572 126.136L153.122 127.868L156.458 138.266L164.91 136.534L161.572 126.136" stroke="none" fill="#FFFFFF" fill-rule="nonzero" /><path id="923" transform="matrix(1 0 0 -1 0 842)" d="M161.572 126.136L153.122 127.868L153.122 127.868L156.458 138.266L156.458 138.266L164.91 136.534L164.91 136.534L161.572 126.136z" stroke="#221E1F" stroke-width="0.332" fill="none" /><path id="924" transform="matrix(1 0 0 -1 0 842)" d="M163.876 133.33L155.424 135.061L155.507 135.298L163.957 133.566L163.876 133.33" stroke="none" fill="#BCBDC0" fill-rule="nonzero" /><path id="925" transform="matrix(1 0 0 -1 0 842)" d="M163.617 132.529L155.167 134.261L155.253 134.498L163.703 132.766L163.617 132.529" stroke="none" fill="#BCBDC0" fill-rule="nonzero" /><path id="926" transform="matrix(1 0 0 -1 0 842)" d="M163.362 131.727L154.91 133.459L154.993 133.695L163.445 131.964L163.362 131.727" stroke="none" fill="#BCBDC0" fill-rule="nonzero" /><path id="927" transform="matrix(1 0 0 -1 0 842)" d="M163.104 130.927L154.652 132.659L154.735 132.895L163.187 131.163L163.104 130.927" stroke="none" fill="#BCBDC0" fill-rule="nonzero" /><path id="928" transform="matrix(1 0 0 -1 0 842)" d="M162.847 130.125L154.397 131.857L154.478 132.093L162.93 130.362L162.847 130.125" stroke="none" fill="#BCBDC0" fill-rule="nonzero" /><path id="929" transform="matrix(1 0 0 -1 0 842)" d="M164.389 134.933L155.939 136.664L156.023 136.9L164.472 135.169L164.389 134.933" stroke="none" fill="#BCBDC0" fill-rule="nonzero" /><path id="930" transform="matrix(1 0 0 -1 0 842)" d="M164.132 134.132L155.682 135.863L155.766 136.1L164.215 134.368L164.132 134.132" stroke="none" fill="#BCBDC0" fill-rule="nonzero" /><path id="931" transform="matrix(1 0 0 -1 0 842)" d="M162.59 129.324L154.138 131.056L154.221 131.293L162.671 129.561L162.59 129.324" stroke="none" fill="#BCBDC0" fill-rule="nonzero" /><path id="932" transform="matrix(1 0 0 -1 0 842)" d="M162.332 128.522L153.88 130.254L153.963 130.491L162.413 128.759L162.332 128.522" stroke="none" fill="#BCBDC0" fill-rule="nonzero" /><path id="933" transform="matrix(1 0 0 -1 0 842)" d="M162.075 127.722L153.625 129.453L153.706 129.689L162.158 127.958L162.075 127.722" stroke="none" fill="#BCBDC0" fill-rule="nonzero" /><path id="934" transform="matrix(1 0 0 -1 0 842)" d="M154.04 128.442L153.347 128.584L156.354 137.943L157.047 137.8L154.04 128.442" stroke="none" fill="#FFFFFF" fill-rule="nonzero" /><path id="935" transform="matrix(1 0 0 -1 0 842)" d="M161.806 126.851L161.113 126.993L164.117 136.351L164.811 136.209L161.806 126.851" stroke="none" fill="#FFFFFF" fill-rule="nonzero" /><path id="936" transform="matrix(1 0 0 -1 0 842)" d="M161.572 126.136L153.122 127.868L153.122 127.868L156.458 138.266L156.458 138.266L164.91 136.534L164.91 136.534L161.572 126.136z" stroke="#5981AB" stroke-width="0.475" fill="none" /><path id="937" transform="matrix(1 0 0 -1 0 842)" d="M134.851 125.021C 134.851 125.446 134.895 125.86 134.976 126.261C 135.059 126.661 135.179 127.048 135.335 127.415C 135.491 127.784 135.681 128.134 135.902 128.461C 136.123 128.789 136.376 129.093 136.655 129.372C 136.932 129.651 137.237 129.902 137.564 130.123C 137.892 130.344 138.242 130.535 138.61 130.69C 138.978 130.846 139.364 130.967 139.765 131.049C 140.165 131.131 140.58 131.174 141.005 131.174C 141.43 131.174 141.844 131.131 142.244 131.049C 142.645 130.967 143.031 130.846 143.398 130.69C 143.767 130.535 144.117 130.344 144.446 130.123C 144.773 129.902 145.078 129.651 145.357 129.372L145.357 129.372L152.584 121.947L152.584 121.947L153.642 122.925L153.642 122.925L154.171 123.414L154.171 123.414L154.697 123.902L154.697 123.902L155.229 124.39L155.229 124.39L155.755 124.878L155.755 124.878L156.813 125.855L156.813 125.855L157.342 126.343L157.342 126.343L157.871 126.832L157.871 126.832L158.403 127.321C 158.472 127.384 158.543 127.444 158.615 127.499C 158.689 127.555 158.765 127.606 158.841 127.652C 158.922 127.699 159.001 127.742 159.082 127.781C 159.163 127.82 159.244 127.854 159.33 127.883C 159.411 127.914 159.494 127.939 159.582 127.961C 159.666 127.983 159.751 128 159.84 128.013C 159.925 128.026 160.014 128.035 160.102 128.04C 160.188 128.045 160.276 128.046 160.362 128.043C 160.45 128.039 160.535 128.032 160.624 128.019C 160.712 128.008 160.795 127.992 160.881 127.972C 160.967 127.952 161.05 127.928 161.136 127.899C 161.217 127.871 161.3 127.838 161.381 127.802C 161.46 127.765 161.541 127.725 161.62 127.68C 161.698 127.636 161.772 127.586 161.846 127.533C 161.92 127.48 161.991 127.423 162.061 127.362C 162.13 127.3 162.196 127.235 162.258 127.166C 162.323 127.097 162.385 127.026 162.437 126.952C 162.494 126.878 162.547 126.802 162.592 126.725C 162.64 126.647 162.683 126.567 162.721 126.486C 162.759 126.405 162.794 126.323 162.823 126.24C 162.854 126.156 162.878 126.072 162.902 125.986C 162.923 125.901 162.94 125.816 162.954 125.729C 162.966 125.642 162.976 125.555 162.978 125.467C 162.985 125.381 162.985 125.293 162.983 125.206C 162.978 125.118 162.971 125.031 162.959 124.945C 162.947 124.858 162.933 124.772 162.911 124.686C 162.892 124.601 162.866 124.517 162.84 124.433C 162.811 124.35 162.778 124.268 162.742 124.186C 162.704 124.106 162.663 124.027 162.618 123.949C 162.573 123.871 162.525 123.796 162.473 123.722C 162.418 123.648 162.363 123.577 162.301 123.507C 162.239 123.439 162.175 123.372 162.106 123.308L162.106 123.308L161.577 122.819L161.577 122.819L161.048 122.331L161.048 122.331L160.519 121.843L160.519 121.843L159.99 121.356L159.99 121.356L159.461 120.867L159.461 120.867L158.932 120.378L158.932 120.378L158.405 119.889L158.405 119.889L157.876 119.401L157.876 119.401L157.345 118.913L157.345 118.913L156.818 118.425L156.818 118.425L156.289 117.936L156.289 117.936L155.758 117.448L155.758 117.448L155.231 116.96L155.231 116.96L154.702 116.471L154.702 116.471L154.171 115.983L154.171 115.983L153.644 115.494C 153.575 115.43 153.504 115.37 153.43 115.316C 153.356 115.26 153.277 115.209 153.201 115.162C 153.125 115.115 153.046 115.072 152.965 115.034C 152.882 114.995 152.801 114.962 152.717 114.931C 152.634 114.901 152.55 114.875 152.465 114.854C 152.381 114.832 152.293 114.814 152.205 114.802C 152.119 114.788 152.033 114.78 151.945 114.775C 151.859 114.769 151.771 114.769 151.683 114.772C 151.595 114.776 151.509 114.783 151.423 114.795C 151.335 114.806 151.249 114.823 151.164 114.843C 151.078 114.862 150.994 114.887 150.911 114.916C 150.828 114.944 150.747 114.977 150.666 115.012C 150.585 115.05 150.504 115.09 150.427 115.134C 150.351 115.18 150.275 115.229 150.201 115.281C 150.127 115.335 150.056 115.392 149.986 115.453L149.986 115.453L147.651 117.881L147.651 117.881L147.651 113.563L147.651 113.563L134.853 113.568L134.853 113.568L134.851 125.021" stroke="none" fill="#FFFFFF" fill-rule="nonzero" /><path id="938" transform="matrix(1 0 0 -1 0 842)" d="M134.851 125.021C 134.851 125.446 134.895 125.86 134.976 126.261C 135.059 126.661 135.179 127.048 135.335 127.415C 135.491 127.784 135.681 128.134 135.902 128.461C 136.123 128.789 136.376 129.093 136.655 129.372C 136.932 129.651 137.237 129.902 137.564 130.123C 137.892 130.344 138.242 130.535 138.61 130.69C 138.978 130.846 139.364 130.967 139.765 131.049C 140.165 131.131 140.58 131.174 141.005 131.174C 141.43 131.174 141.844 131.131 142.244 131.049C 142.645 130.967 143.031 130.846 143.398 130.69C 143.767 130.535 144.117 130.344 144.446 130.123C 144.773 129.902 145.078 129.651 145.357 129.372L145.357 129.372L152.584 121.947L152.584 121.947L153.642 122.925L153.642 122.925L154.171 123.414L154.171 123.414L154.697 123.902L154.697 123.902L155.229 124.39L155.229 124.39L155.755 124.878L155.755 124.878L156.813 125.855L156.813 125.855L157.342 126.343L157.342 126.343L157.871 126.832L157.871 126.832L158.403 127.321C 158.472 127.384 158.543 127.444 158.615 127.499C 158.689 127.555 158.765 127.606 158.841 127.652C 158.922 127.699 159.001 127.742 159.082 127.781C 159.163 127.82 159.244 127.854 159.33 127.883C 159.411 127.914 159.494 127.939 159.582 127.961C 159.666 127.983 159.751 128 159.84 128.013C 159.925 128.026 160.014 128.035 160.102 128.04C 160.188 128.045 160.276 128.046 160.362 128.043C 160.45 128.039 160.535 128.032 160.624 128.019C 160.712 128.008 160.795 127.992 160.881 127.972C 160.967 127.952 161.05 127.928 161.136 127.899C 161.217 127.871 161.3 127.838 161.381 127.802C 161.46 127.765 161.541 127.725 161.62 127.68C 161.698 127.636 161.772 127.586 161.846 127.533C 161.92 127.48 161.991 127.423 162.061 127.362C 162.13 127.3 162.196 127.235 162.258 127.166C 162.323 127.097 162.385 127.026 162.437 126.952C 162.494 126.878 162.547 126.802 162.592 126.725C 162.64 126.647 162.683 126.567 162.721 126.486C 162.759 126.405 162.794 126.323 162.823 126.24C 162.854 126.156 162.878 126.072 162.902 125.986C 162.923 125.901 162.94 125.816 162.954 125.729C 162.966 125.642 162.976 125.555 162.978 125.467C 162.985 125.381 162.985 125.293 162.983 125.206C 162.978 125.118 162.971 125.031 162.959 124.945C 162.947 124.858 162.933 124.772 162.911 124.686C 162.892 124.601 162.866 124.517 162.84 124.433C 162.811 124.35 162.778 124.268 162.742 124.186C 162.704 124.106 162.663 124.027 162.618 123.949C 162.573 123.871 162.525 123.796 162.473 123.722C 162.418 123.648 162.363 123.577 162.301 123.507C 162.239 123.439 162.175 123.372 162.106 123.308L162.106 123.308L161.577 122.819L161.577 122.819L161.048 122.331L161.048 122.331L160.519 121.843L160.519 121.843L159.99 121.356L159.99 121.356L159.461 120.867L159.461 120.867L158.932 120.378L158.932 120.378L158.405 119.889L158.405 119.889L157.876 119.401L157.876 119.401L157.345 118.913L157.345 118.913L156.818 118.425L156.818 118.425L156.289 117.936L156.289 117.936L155.758 117.448L155.758 117.448L155.231 116.96L155.231 116.96L154.702 116.471L154.702 116.471L154.171 115.983L154.171 115.983L153.644 115.494C 153.575 115.43 153.504 115.37 153.43 115.316C 153.356 115.26 153.277 115.209 153.201 115.162C 153.125 115.115 153.046 115.072 152.965 115.034C 152.882 114.995 152.801 114.962 152.717 114.931C 152.634 114.901 152.55 114.875 152.465 114.854C 152.381 114.832 152.293 114.814 152.205 114.802C 152.119 114.788 152.033 114.78 151.945 114.775C 151.859 114.769 151.771 114.769 151.683 114.772C 151.595 114.776 151.509 114.783 151.423 114.795C 151.335 114.806 151.249 114.823 151.164 114.843C 151.078 114.862 150.994 114.887 150.911 114.916C 150.828 114.944 150.747 114.977 150.666 115.012C 150.585 115.05 150.504 115.09 150.427 115.134C 150.351 115.18 150.275 115.229 150.201 115.281C 150.127 115.335 150.056 115.392 149.986 115.453L149.986 115.453L147.651 117.881L147.651 117.881L147.651 113.563L147.651 113.563L134.853 113.568L134.853 113.568L134.851 125.021z" stroke="#5981AB" stroke-width="0.406" fill="none" /><path id="939" transform="matrix(1 0 0 -1 0 842)" d="M168.124 128.199C 168.124 117.363 159.341 108.577 148.505 108.577C 137.668 108.577 128.883 117.363 128.883 128.199C 128.883 139.036 137.668 147.82 148.505 147.82C 159.341 147.82 168.124 139.036 168.124 128.199z" stroke="#5981AB" stroke-width="2.44" fill="none" /></g></g></svg>